%TF.GenerationSoftware,KiCad,Pcbnew,7.0.8*%
%TF.CreationDate,2023-11-08T18:05:49-05:00*%
%TF.ProjectId,lemon-pepper,6c656d6f-6e2d-4706-9570-7065722e6b69,rev?*%
%TF.SameCoordinates,PX8b85c60PY52f2218*%
%TF.FileFunction,Copper,L3,Inr*%
%TF.FilePolarity,Positive*%
%FSLAX46Y46*%
G04 Gerber Fmt 4.6, Leading zero omitted, Abs format (unit mm)*
G04 Created by KiCad (PCBNEW 7.0.8) date 2023-11-08 18:05:49*
%MOMM*%
%LPD*%
G01*
G04 APERTURE LIST*
G04 Aperture macros list*
%AMRoundRect*
0 Rectangle with rounded corners*
0 $1 Rounding radius*
0 $2 $3 $4 $5 $6 $7 $8 $9 X,Y pos of 4 corners*
0 Add a 4 corners polygon primitive as box body*
4,1,4,$2,$3,$4,$5,$6,$7,$8,$9,$2,$3,0*
0 Add four circle primitives for the rounded corners*
1,1,$1+$1,$2,$3*
1,1,$1+$1,$4,$5*
1,1,$1+$1,$6,$7*
1,1,$1+$1,$8,$9*
0 Add four rect primitives between the rounded corners*
20,1,$1+$1,$2,$3,$4,$5,0*
20,1,$1+$1,$4,$5,$6,$7,0*
20,1,$1+$1,$6,$7,$8,$9,0*
20,1,$1+$1,$8,$9,$2,$3,0*%
G04 Aperture macros list end*
%TA.AperFunction,ComponentPad*%
%ADD10C,5.800000*%
%TD*%
%TA.AperFunction,ComponentPad*%
%ADD11C,0.700000*%
%TD*%
%TA.AperFunction,ComponentPad*%
%ADD12C,1.300000*%
%TD*%
%TA.AperFunction,HeatsinkPad*%
%ADD13C,0.500000*%
%TD*%
%TA.AperFunction,ComponentPad*%
%ADD14O,1.750000X1.750000*%
%TD*%
%TA.AperFunction,ComponentPad*%
%ADD15O,1.750000X2.000000*%
%TD*%
%TA.AperFunction,ComponentPad*%
%ADD16RoundRect,0.250000X0.600000X0.725000X-0.600000X0.725000X-0.600000X-0.725000X0.600000X-0.725000X0*%
%TD*%
%TA.AperFunction,ComponentPad*%
%ADD17O,1.700000X1.950000*%
%TD*%
%TA.AperFunction,ViaPad*%
%ADD18C,0.450000*%
%TD*%
%TA.AperFunction,ViaPad*%
%ADD19C,0.800000*%
%TD*%
%TA.AperFunction,Conductor*%
%ADD20C,0.250000*%
%TD*%
%TA.AperFunction,Conductor*%
%ADD21C,0.200000*%
%TD*%
G04 APERTURE END LIST*
D10*
%TO.N,GND*%
%TO.C,H101*%
X-15500000Y-15500000D03*
X15500000Y-15500000D03*
X-15500000Y15500000D03*
X15500000Y15500000D03*
%TD*%
D11*
%TO.N,*%
%TO.C,J201*%
X-11891366Y-6598979D03*
D12*
%TO.N,GND*%
X-9416493Y-6033293D03*
X-12457052Y-9073852D03*
X-6022380Y-9427406D03*
X-9062939Y-12467965D03*
%TD*%
D13*
%TO.N,/current sense/U_OUT*%
%TO.C,M101*%
X-3700000Y16775000D03*
D14*
X-3700000Y14900000D03*
D15*
X-3700000Y12150000D03*
D13*
%TO.N,/current sense/W_OUT*%
X-1200000Y16775000D03*
D14*
X-1200000Y14900000D03*
D15*
X-1200000Y12150000D03*
D13*
%TO.N,/half bridges/OUT1B*%
X1300000Y16775000D03*
D14*
X1300000Y14900000D03*
D15*
X1300000Y12150000D03*
D13*
%TO.N,/current sense/V_OUT*%
X3800000Y16775000D03*
D14*
X3800000Y14900000D03*
D15*
X3800000Y12150000D03*
%TD*%
D16*
%TO.N,Vmot*%
%TO.C,J101*%
X7225000Y-14725000D03*
D17*
%TO.N,GND*%
X4725000Y-14725000D03*
%TO.N,/mcu/CANL*%
X2225000Y-14725000D03*
%TO.N,/mcu/CANH*%
X-275000Y-14725000D03*
%TD*%
D18*
%TO.N,/mcu/ADC1_IN12*%
X-7525000Y8325000D03*
X-14850000Y3675000D03*
D19*
%TO.N,GND*%
X7675000Y2750000D03*
X-14875000Y-2675000D03*
X-4389562Y-226525D03*
X-2375000Y-14600000D03*
X15825000Y-3275000D03*
X-10375000Y675000D03*
X7675000Y1725000D03*
X13625000Y6600000D03*
X-9125000Y1975000D03*
X-10375000Y1950000D03*
X6075000Y7175000D03*
X-10375000Y3150000D03*
X13650000Y4175000D03*
X-1950000Y-1300000D03*
X-11650000Y1975000D03*
X8675000Y2725000D03*
X13650000Y3025000D03*
X9300000Y-6225000D03*
X1475000Y-6125000D03*
X6625000Y2800000D03*
X-250000Y-6800000D03*
X-5395400Y-6375500D03*
X-2400000Y-16525000D03*
X7700000Y3775000D03*
X2223706Y475843D03*
X13650000Y5375000D03*
%TO.N,Vmot*%
X3900000Y650000D03*
X-6275000Y16250000D03*
X15504152Y7750500D03*
X4550000Y0D03*
X6305664Y12175000D03*
X6275000Y14250000D03*
X9950000Y-3975000D03*
X9025000Y-4375000D03*
X5450000Y175000D03*
X-6250000Y12175000D03*
X-6250000Y14225000D03*
X9850000Y-5000000D03*
X15500000Y5975000D03*
X6250000Y16250000D03*
D18*
%TO.N,/mcu/USBD_P*%
X-8800000Y-9650000D03*
X-9650000Y-8850000D03*
D19*
%TO.N,+3V3*%
X-11533925Y-3208574D03*
X16800000Y-5900000D03*
X500000Y-12150000D03*
X14875000Y-5825000D03*
X4500000Y8875000D03*
X-6250000Y-16625000D03*
X-1700000Y-12150000D03*
X-5450000Y8943221D03*
X14875000Y-6725000D03*
X-625000Y-12150000D03*
X-8625000Y8200000D03*
X-5375500Y-1000000D03*
X-12874972Y-2731439D03*
X-750000Y8891300D03*
X2225000Y1600000D03*
X-2200000Y-11200000D03*
X-1125000Y-11200000D03*
X14875000Y-7625000D03*
X-300000Y-8700000D03*
X14875000Y-8475000D03*
D18*
%TO.N,/mcu/RESET*%
X-16200000Y3775000D03*
X-12100000Y8225000D03*
X-3150000Y-6775000D03*
%TO.N,/current sense/U_SENSE*%
X-7905617Y7797145D03*
X-15300000Y3275000D03*
%TO.N,/current sense/V_SENSE*%
X-4700000Y5275000D03*
X-8900000Y-2475000D03*
X-6950000Y5200000D03*
X5224500Y6500000D03*
%TO.N,/current sense/W_SENSE*%
X-7600000Y5225000D03*
X-5250000Y5700000D03*
X-14675000Y-675000D03*
X-325000Y6475000D03*
D19*
%TO.N,/usb/USB_5V*%
X-10078416Y-11020447D03*
X-11225658Y-9867749D03*
X-7277420Y-8590784D03*
X-4725000Y-8900000D03*
X-8375000Y-7050000D03*
%TO.N,Net-(D603-K)*%
X10000000Y-1725000D03*
X4275000Y2750000D03*
D18*
%TO.N,Net-(D601-K)*%
X5674866Y5213244D03*
X11600000Y425000D03*
%TO.N,/half bridges/ENA*%
X9150000Y-575000D03*
X4225000Y3750000D03*
X-6650000Y-2225000D03*
%TO.N,/encoder/SCK*%
X775000Y-4000000D03*
X-15825000Y1725000D03*
%TO.N,/encoder/CIPO*%
X-15350000Y875000D03*
X-600000Y-4000000D03*
%TO.N,/encoder/COPI*%
X62132Y-4000000D03*
X-15900000Y600000D03*
%TO.N,/encoder/CS*%
X775000Y-4650000D03*
X-14226234Y-173766D03*
%TO.N,/encoder/CAL_EN*%
X-15325000Y-25000D03*
X-1225000Y-3975000D03*
%TO.N,/mcu/CAN_TX*%
X-4925000Y3500000D03*
X-8050000Y5750000D03*
%TO.N,/mcu/CAN_RX*%
X-8525000Y6275000D03*
X-4342158Y3500000D03*
%TO.N,/half bridges/IN2B*%
X4774750Y4275460D03*
X-14425000Y4075000D03*
%TO.N,/half bridges/IN1A*%
X11000000Y450000D03*
X-7200000Y-1075000D03*
%TO.N,/half bridges/IN2A*%
X-6750000Y-525000D03*
X10325000Y450000D03*
%TO.N,/half bridges/IN1B*%
X-13975000Y4500000D03*
X5225000Y4750000D03*
%TO.N,/mcu/DIR*%
X-7223910Y-2251087D03*
X2350000Y-4250000D03*
%TO.N,/mcu/STEP*%
X2325000Y-4850000D03*
X-5550000Y3500000D03*
D19*
%TO.N,GNDA*%
X-1999500Y7475000D03*
X3150000Y7387992D03*
X3475000Y-11825000D03*
X3475000Y-10900000D03*
X-6699500Y7600000D03*
X2325000Y-11850000D03*
%TD*%
D20*
%TO.N,+3V3*%
X-5375500Y-1000000D02*
X-5950000Y-1574500D01*
X14875000Y-5425000D02*
X14875000Y-6725000D01*
X6650000Y1600000D02*
X7800000Y450000D01*
X9000000Y450000D02*
X14875000Y-5425000D01*
X2225000Y1600000D02*
X6650000Y1600000D01*
X-5950000Y-1574500D02*
X-5950000Y-3300000D01*
X7800000Y450000D02*
X9000000Y450000D01*
D21*
%TO.N,GNDA*%
X3450000Y-11850000D02*
X3475000Y-11825000D01*
X3475000Y-11825000D02*
X3475000Y-11600000D01*
X3475000Y-11825000D02*
X3475000Y-11500000D01*
%TD*%
%TA.AperFunction,Conductor*%
%TO.N,Vmot*%
G36*
X6530851Y1254815D02*
G01*
X6551493Y1238181D01*
X7557863Y231811D01*
X7561518Y227822D01*
X7587541Y196810D01*
X7587543Y196809D01*
X7587545Y196806D01*
X7587547Y196805D01*
X7587548Y196804D01*
X7622599Y176567D01*
X7627162Y173661D01*
X7660316Y150446D01*
X7660319Y150446D01*
X7665176Y148180D01*
X7681933Y141240D01*
X7686953Y139413D01*
X7686955Y139412D01*
X7722806Y133091D01*
X7726808Y132385D01*
X7732080Y131217D01*
X7771193Y120736D01*
X7811522Y124265D01*
X7816924Y124500D01*
X7974138Y124500D01*
X8041177Y104815D01*
X8061819Y88181D01*
X8689614Y-539614D01*
X8723099Y-600937D01*
X8724406Y-607898D01*
X8740279Y-708121D01*
X8740280Y-708124D01*
X8740281Y-708126D01*
X8801472Y-828220D01*
X8801473Y-828221D01*
X8801476Y-828225D01*
X8896774Y-923523D01*
X8896778Y-923526D01*
X8896780Y-923528D01*
X9016874Y-984719D01*
X9117105Y-1000594D01*
X9180236Y-1030521D01*
X9185385Y-1035385D01*
X9445198Y-1295198D01*
X9478683Y-1356521D01*
X9473699Y-1426213D01*
X9472078Y-1430331D01*
X9414957Y-1568234D01*
X9414955Y-1568239D01*
X9394318Y-1724998D01*
X9394318Y-1725001D01*
X9414955Y-1881760D01*
X9414956Y-1881762D01*
X9425595Y-1907448D01*
X9475464Y-2027841D01*
X9571718Y-2153282D01*
X9697159Y-2249536D01*
X9843238Y-2310044D01*
X9921619Y-2320363D01*
X9999999Y-2330682D01*
X10000000Y-2330682D01*
X10000001Y-2330682D01*
X10052254Y-2323802D01*
X10156762Y-2310044D01*
X10294669Y-2252920D01*
X10364136Y-2245452D01*
X10426616Y-2276727D01*
X10429801Y-2279801D01*
X11450000Y-3300000D01*
X11973638Y-3300000D01*
X12040677Y-3319685D01*
X12061319Y-3336319D01*
X12488681Y-3763681D01*
X12522166Y-3825004D01*
X12525000Y-3851362D01*
X12525000Y-4998638D01*
X12505315Y-5065677D01*
X12488681Y-5086319D01*
X11936319Y-5638681D01*
X11874996Y-5672166D01*
X11848638Y-5675000D01*
X9566031Y-5675000D01*
X9518579Y-5665561D01*
X9456765Y-5639957D01*
X9456760Y-5639955D01*
X9300001Y-5619318D01*
X9299999Y-5619318D01*
X9143239Y-5639955D01*
X9143234Y-5639957D01*
X9081421Y-5665561D01*
X9033969Y-5675000D01*
X8951362Y-5675000D01*
X8884323Y-5655315D01*
X8863681Y-5638681D01*
X7016819Y-3791819D01*
X6983334Y-3730496D01*
X6980500Y-3704138D01*
X6980500Y-2662827D01*
X6979050Y-2635773D01*
X6979050Y-2635772D01*
X6974769Y-2595964D01*
X6966114Y-2542554D01*
X6966114Y-2542552D01*
X6915833Y-2407747D01*
X6915832Y-2407743D01*
X6882347Y-2346420D01*
X6796123Y-2231239D01*
X6796118Y-2231234D01*
X6796113Y-2231228D01*
X5136993Y-572109D01*
X5053857Y-504950D01*
X5010062Y-476657D01*
X4914662Y-428476D01*
X4774217Y-397223D01*
X4704550Y-391907D01*
X4704547Y-391907D01*
X4699627Y-392235D01*
X4660265Y-394862D01*
X4656136Y-395000D01*
X4521516Y-395000D01*
X4495736Y-392290D01*
X4473984Y-387666D01*
X4440010Y-380445D01*
X4415356Y-372434D01*
X4363325Y-349268D01*
X4340878Y-336308D01*
X4294777Y-302815D01*
X4275514Y-285471D01*
X4251455Y-258751D01*
X4237399Y-243140D01*
X4222163Y-222169D01*
X4193677Y-172830D01*
X4183133Y-149148D01*
X4178131Y-133753D01*
X4178126Y-133743D01*
X4178123Y-133733D01*
X4141030Y-47687D01*
X4119076Y-7487D01*
X4119072Y-7481D01*
X4066719Y70254D01*
X4059943Y76472D01*
X3960704Y167531D01*
X3917880Y196806D01*
X3879020Y223372D01*
X3834786Y277456D01*
X3825000Y325738D01*
X3825000Y773638D01*
X3844685Y840677D01*
X3861319Y861319D01*
X4238181Y1238181D01*
X4299504Y1271666D01*
X4325862Y1274500D01*
X6463812Y1274500D01*
X6530851Y1254815D01*
G37*
%TD.AperFunction*%
%TD*%
%TA.AperFunction,Conductor*%
%TO.N,GNDA*%
G36*
X-6783686Y8002749D02*
G01*
X-6729793Y7995000D01*
X-6671016Y7995000D01*
X-6645236Y7992291D01*
X-6589512Y7980447D01*
X-6564856Y7972435D01*
X-6512825Y7949269D01*
X-6490377Y7936309D01*
X-6454817Y7910474D01*
X-6443004Y7902397D01*
X-6443002Y7902396D01*
X-6430992Y7894433D01*
X-6300115Y7834662D01*
X-6257343Y7822103D01*
X-6233081Y7814978D01*
X-6233076Y7814977D01*
X-6233072Y7814976D01*
X-6090656Y7794500D01*
X-6090653Y7794500D01*
X-2386845Y7794500D01*
X-2386840Y7794500D01*
X-2281736Y7805547D01*
X-2231300Y7816268D01*
X-2130793Y7848926D01*
X-2130783Y7848931D01*
X-2128301Y7849883D01*
X-2109635Y7855415D01*
X-2053758Y7867292D01*
X-2027984Y7870000D01*
X-1971016Y7870000D01*
X-1945238Y7867291D01*
X-1909572Y7859711D01*
X-1889385Y7855420D01*
X-1870728Y7849894D01*
X-1868225Y7848934D01*
X-1868205Y7848925D01*
X-1767700Y7816268D01*
X-1767698Y7816268D01*
X-1767696Y7816267D01*
X-1761631Y7814978D01*
X-1717264Y7805547D01*
X-1612160Y7794500D01*
X4501000Y7794500D01*
X4568039Y7774815D01*
X4613794Y7722011D01*
X4625000Y7670500D01*
X4625000Y6945266D01*
X4605994Y6879295D01*
X4566712Y6816779D01*
X4566709Y6816772D01*
X4512712Y6662456D01*
X4494409Y6500004D01*
X4494409Y6499997D01*
X4512712Y6337545D01*
X4512713Y6337540D01*
X4512714Y6337539D01*
X4521001Y6313856D01*
X4566711Y6183224D01*
X4605993Y6120708D01*
X4625000Y6054735D01*
X4625000Y5501362D01*
X4605315Y5434323D01*
X4588681Y5413681D01*
X2900000Y3725001D01*
X2900000Y2466027D01*
X2880315Y2398988D01*
X2827511Y2353233D01*
X2758353Y2343289D01*
X2703116Y2365708D01*
X2677733Y2384149D01*
X2677729Y2384152D01*
X2504807Y2461143D01*
X2504802Y2461145D01*
X2359001Y2492135D01*
X2319646Y2500500D01*
X2130354Y2500500D01*
X2097897Y2493602D01*
X1945197Y2461145D01*
X1945192Y2461143D01*
X1772270Y2384152D01*
X1772265Y2384149D01*
X1619129Y2272889D01*
X1492466Y2132215D01*
X1397821Y1968285D01*
X1397818Y1968278D01*
X1347513Y1813454D01*
X1339326Y1788256D01*
X1319540Y1600000D01*
X1339326Y1411744D01*
X1339327Y1411741D01*
X1397818Y1231723D01*
X1397823Y1231711D01*
X1473265Y1101041D01*
X1489738Y1033141D01*
X1473265Y977042D01*
X1396527Y844128D01*
X1396524Y844121D01*
X1341241Y673975D01*
X1338032Y664099D01*
X1318246Y475843D01*
X1338032Y287587D01*
X1338033Y287584D01*
X1396524Y107566D01*
X1396527Y107559D01*
X1491173Y-56373D01*
X1580372Y-155438D01*
X1617835Y-197045D01*
X1770971Y-308305D01*
X1770976Y-308308D01*
X1943898Y-385299D01*
X1943903Y-385301D01*
X2129060Y-424657D01*
X2129061Y-424657D01*
X2318350Y-424657D01*
X2318352Y-424657D01*
X2503509Y-385301D01*
X2676436Y-308308D01*
X2829577Y-197045D01*
X2956239Y-56373D01*
X3014694Y44876D01*
X3065260Y93090D01*
X3133867Y106314D01*
X3198732Y80346D01*
X3214227Y65851D01*
X3294129Y-22888D01*
X3294132Y-22890D01*
X3447265Y-134148D01*
X3447270Y-134151D01*
X3626134Y-213788D01*
X3625351Y-215546D01*
X3675426Y-249778D01*
X3697373Y-289965D01*
X3722818Y-368277D01*
X3722821Y-368284D01*
X3817467Y-532216D01*
X3896325Y-619796D01*
X3944129Y-672888D01*
X4097265Y-784148D01*
X4097270Y-784151D01*
X4270192Y-861142D01*
X4270197Y-861144D01*
X4455354Y-900500D01*
X4455355Y-900500D01*
X4644645Y-900500D01*
X4644646Y-900500D01*
X4666089Y-895942D01*
X4735756Y-901258D01*
X4779551Y-929551D01*
X6438681Y-2588681D01*
X6472166Y-2650004D01*
X6475000Y-2676362D01*
X6475000Y-11673638D01*
X6455315Y-11740677D01*
X6438681Y-11761319D01*
X5436319Y-12763681D01*
X5374996Y-12797166D01*
X5348638Y-12800000D01*
X2051362Y-12800000D01*
X1984323Y-12780315D01*
X1963681Y-12763681D01*
X1906070Y-12706070D01*
X1872585Y-12644747D01*
X1877569Y-12575055D01*
X1888867Y-12552932D01*
X1888737Y-12552858D01*
X1890260Y-12550204D01*
X1890531Y-12549675D01*
X1890775Y-12549307D01*
X1890777Y-12549305D01*
X1923022Y-12493147D01*
X1973538Y-12369948D01*
X1989940Y-12227005D01*
X1987945Y-12157164D01*
X1963411Y-12015391D01*
X1940529Y-11944967D01*
X1935142Y-11919624D01*
X1929186Y-11862955D01*
X1929186Y-11837036D01*
X1930027Y-11829036D01*
X1935141Y-11780372D01*
X1940529Y-11755026D01*
X1958135Y-11700843D01*
X1968675Y-11677168D01*
X1996162Y-11629562D01*
X2046662Y-11507645D01*
X2063275Y-11445645D01*
X2080500Y-11314811D01*
X2080500Y-9849000D01*
X2100185Y-9781961D01*
X2152989Y-9736206D01*
X2204500Y-9725000D01*
X3325000Y-9725000D01*
X3775000Y-9275000D01*
X3775000Y-3875000D01*
X3400000Y-3500000D01*
X1352374Y-3500000D01*
X1285335Y-3480315D01*
X1264693Y-3463681D01*
X1230204Y-3429192D01*
X1091774Y-3342210D01*
X937455Y-3288212D01*
X775004Y-3269909D01*
X774996Y-3269909D01*
X627547Y-3286522D01*
X558725Y-3274467D01*
X525983Y-3250983D01*
X-863681Y-1861319D01*
X-897166Y-1799996D01*
X-900000Y-1773638D01*
X-900000Y2450000D01*
X-4033069Y5583069D01*
X-4050379Y5604775D01*
X-4129192Y5730204D01*
X-4244796Y5845808D01*
X-4271299Y5862461D01*
X-4370224Y5924620D01*
X-4391933Y5941933D01*
X-4725000Y6275000D01*
X-4765744Y6275000D01*
X-4831717Y6294007D01*
X-4933221Y6357787D01*
X-4933226Y6357790D01*
X-5087543Y6411788D01*
X-5249996Y6430091D01*
X-5250004Y6430091D01*
X-5412458Y6411788D01*
X-5566775Y6357790D01*
X-5566780Y6357787D01*
X-5668283Y6294007D01*
X-5734256Y6275000D01*
X-6298638Y6275000D01*
X-6365677Y6294685D01*
X-6386319Y6311319D01*
X-6549997Y6474997D01*
X-1055091Y6474997D01*
X-1036788Y6312545D01*
X-982790Y6158226D01*
X-925327Y6066775D01*
X-895808Y6019796D01*
X-780204Y5904192D01*
X-641775Y5817211D01*
X-487461Y5763214D01*
X-487458Y5763214D01*
X-487456Y5763213D01*
X-325004Y5744909D01*
X-325000Y5744909D01*
X-324996Y5744909D01*
X-162545Y5763213D01*
X-162544Y5763214D01*
X-162539Y5763214D01*
X-8225Y5817211D01*
X130204Y5904192D01*
X245808Y6019796D01*
X332789Y6158225D01*
X386786Y6312539D01*
X386787Y6312545D01*
X405091Y6474997D01*
X405091Y6475004D01*
X386787Y6637456D01*
X386786Y6637458D01*
X386786Y6637461D01*
X332789Y6791775D01*
X245808Y6930204D01*
X130204Y7045808D01*
X28863Y7109485D01*
X-8226Y7132790D01*
X-162545Y7186788D01*
X-324996Y7205091D01*
X-325004Y7205091D01*
X-487456Y7186788D01*
X-641775Y7132790D01*
X-780205Y7045808D01*
X-895808Y6930205D01*
X-982790Y6791775D01*
X-1036788Y6637456D01*
X-1055091Y6475004D01*
X-1055091Y6474997D01*
X-6549997Y6474997D01*
X-7296579Y7221579D01*
X-7330064Y7282902D01*
X-7325080Y7352594D01*
X-7313895Y7375227D01*
X-7247828Y7480370D01*
X-7193831Y7634684D01*
X-7193831Y7634686D01*
X-7191531Y7641258D01*
X-7189951Y7640706D01*
X-7160080Y7694114D01*
X-7139267Y7710542D01*
X-7069796Y7754192D01*
X-6954192Y7869796D01*
X-6906322Y7945982D01*
X-6853988Y7992273D01*
X-6784934Y8002922D01*
X-6783686Y8002749D01*
G37*
%TD.AperFunction*%
%TD*%
%TA.AperFunction,Conductor*%
%TO.N,+3V3*%
G36*
X6515677Y10480315D02*
G01*
X6536319Y10463681D01*
X6913681Y10086319D01*
X6947166Y10024996D01*
X6950000Y9998638D01*
X6950000Y8676362D01*
X6930315Y8609323D01*
X6913681Y8588681D01*
X6661319Y8336319D01*
X6599996Y8302834D01*
X6573638Y8300000D01*
X-1612160Y8300000D01*
X-1662596Y8310721D01*
X-1719694Y8336143D01*
X-1719698Y8336145D01*
X-1869362Y8367956D01*
X-1904854Y8375500D01*
X-2094146Y8375500D01*
X-2126603Y8368602D01*
X-2279303Y8336145D01*
X-2279307Y8336143D01*
X-2336404Y8310721D01*
X-2386840Y8300000D01*
X-6090656Y8300000D01*
X-6157695Y8319685D01*
X-6163541Y8323682D01*
X-6246766Y8384149D01*
X-6246771Y8384152D01*
X-6419693Y8461143D01*
X-6419698Y8461145D01*
X-6582860Y8495825D01*
X-6604854Y8500500D01*
X-6729793Y8500500D01*
X-6796832Y8520185D01*
X-6842587Y8572989D01*
X-6846834Y8583545D01*
X-6867209Y8641773D01*
X-6954193Y8780205D01*
X-7069796Y8895808D01*
X-7208226Y8982790D01*
X-7362545Y9036788D01*
X-7524996Y9055091D01*
X-7525004Y9055091D01*
X-7687456Y9036788D01*
X-7841775Y8982790D01*
X-7980205Y8895808D01*
X-8095808Y8780205D01*
X-8182790Y8641775D01*
X-8216896Y8544305D01*
X-8236786Y8487461D01*
X-8236787Y8487459D01*
X-8239085Y8480889D01*
X-8240661Y8481441D01*
X-8270557Y8428013D01*
X-8291352Y8411605D01*
X-8360818Y8367956D01*
X-8360820Y8367955D01*
X-8428775Y8300000D01*
X-8550000Y8300000D01*
X-10000000Y9750000D01*
X-9286319Y10463681D01*
X-9224996Y10497166D01*
X-9198638Y10500000D01*
X6448638Y10500000D01*
X6515677Y10480315D01*
G37*
%TD.AperFunction*%
%TD*%
%TA.AperFunction,Conductor*%
%TO.N,GND*%
G36*
X-227983Y-4667118D02*
G01*
X-100329Y-4711786D01*
X-100323Y-4711786D01*
X-100321Y-4711787D01*
X-43485Y-4718191D01*
X20930Y-4745257D01*
X60485Y-4802851D01*
X62893Y-4811543D01*
X117210Y-4966774D01*
X162503Y-5038857D01*
X204192Y-5105204D01*
X319796Y-5220808D01*
X458225Y-5307789D01*
X612539Y-5361786D01*
X612542Y-5361786D01*
X612544Y-5361787D01*
X774996Y-5380091D01*
X775000Y-5380091D01*
X775004Y-5380091D01*
X937455Y-5361787D01*
X937456Y-5361786D01*
X937461Y-5361786D01*
X1091775Y-5307789D01*
X1230204Y-5220808D01*
X1345808Y-5105204D01*
X1401417Y-5016702D01*
X1453752Y-4970412D01*
X1522806Y-4959764D01*
X1586654Y-4988139D01*
X1623453Y-5041721D01*
X1667210Y-5166774D01*
X1701162Y-5220808D01*
X1754192Y-5305204D01*
X1869796Y-5420808D01*
X2008225Y-5507789D01*
X2162539Y-5561786D01*
X2162542Y-5561786D01*
X2162544Y-5561787D01*
X2324996Y-5580091D01*
X2325000Y-5580091D01*
X2325004Y-5580091D01*
X2487455Y-5561787D01*
X2487456Y-5561786D01*
X2487461Y-5561786D01*
X2641775Y-5507789D01*
X2780204Y-5420808D01*
X2895808Y-5305204D01*
X2982789Y-5166775D01*
X3028459Y-5036257D01*
X3069180Y-4979483D01*
X3134132Y-4953735D01*
X3202694Y-4967191D01*
X3253097Y-5015578D01*
X3269500Y-5077213D01*
X3269500Y-9014254D01*
X3249815Y-9081293D01*
X3233181Y-9101935D01*
X3151935Y-9183181D01*
X3090612Y-9216666D01*
X3064254Y-9219500D01*
X2204500Y-9219500D01*
X2137461Y-9199815D01*
X2091706Y-9147011D01*
X2080500Y-9095500D01*
X2080500Y-7787827D01*
X2079050Y-7760773D01*
X2079050Y-7760772D01*
X2074769Y-7720964D01*
X2072619Y-7707695D01*
X2066114Y-7667552D01*
X2015832Y-7532743D01*
X1982347Y-7471420D01*
X1896123Y-7356239D01*
X1896118Y-7356234D01*
X1896113Y-7356228D01*
X1367736Y-6827852D01*
X1179748Y-6639864D01*
X1116510Y-6586241D01*
X1083540Y-6562644D01*
X1083541Y-6562644D01*
X1083536Y-6562641D01*
X1012372Y-6520073D01*
X875535Y-6475612D01*
X875533Y-6475611D01*
X806687Y-6463698D01*
X806683Y-6463697D01*
X662867Y-6459589D01*
X662863Y-6459589D01*
X523708Y-6496169D01*
X523707Y-6496169D01*
X459357Y-6523365D01*
X459354Y-6523366D01*
X336143Y-6597664D01*
X238866Y-6703653D01*
X238860Y-6703660D01*
X199420Y-6761339D01*
X199417Y-6761341D01*
X135933Y-6890462D01*
X135931Y-6890469D01*
X116861Y-6949158D01*
X106320Y-6972833D01*
X90804Y-6999709D01*
X77838Y-7022167D01*
X62602Y-7043137D01*
X24489Y-7085467D01*
X5221Y-7102816D01*
X-40876Y-7136306D01*
X-63323Y-7149265D01*
X-115361Y-7172434D01*
X-140014Y-7180445D01*
X-177210Y-7188352D01*
X-195737Y-7192290D01*
X-221518Y-7195000D01*
X-278484Y-7195000D01*
X-304264Y-7192290D01*
X-326016Y-7187666D01*
X-359990Y-7180445D01*
X-384644Y-7172434D01*
X-436675Y-7149268D01*
X-459122Y-7136308D01*
X-505223Y-7102815D01*
X-524486Y-7085472D01*
X-562604Y-7043137D01*
X-577838Y-7022169D01*
X-602600Y-6979279D01*
X-606324Y-6972829D01*
X-616864Y-6949155D01*
X-634470Y-6894972D01*
X-639859Y-6869617D01*
X-640687Y-6861740D01*
X-645814Y-6812956D01*
X-645814Y-6787037D01*
X-639859Y-6730374D01*
X-634472Y-6705032D01*
X-616865Y-6650841D01*
X-606328Y-6627176D01*
X-577835Y-6577824D01*
X-562608Y-6556866D01*
X-524481Y-6514521D01*
X-505224Y-6497181D01*
X-459130Y-6463692D01*
X-436689Y-6450736D01*
X-342449Y-6408777D01*
X-336595Y-6406518D01*
X-302108Y-6395177D01*
X-253580Y-6373154D01*
X-159551Y-6317515D01*
X-57811Y-6215778D01*
X-31459Y-6180577D01*
X-15942Y-6159850D01*
X-15940Y-6159846D01*
X-15939Y-6159845D01*
X-15933Y-6159837D01*
X53020Y-6033556D01*
X83603Y-5892964D01*
X88587Y-5823272D01*
X88534Y-5822537D01*
X85298Y-5777292D01*
X78323Y-5679761D01*
X28041Y-5544952D01*
X-5444Y-5483629D01*
X-91668Y-5368448D01*
X-91674Y-5368442D01*
X-91678Y-5368437D01*
X-534786Y-4925329D01*
X-568271Y-4864006D01*
X-563287Y-4794314D01*
X-521415Y-4738381D01*
X-460988Y-4714428D01*
X-437539Y-4711786D01*
X-309889Y-4667118D01*
X-240110Y-4663557D01*
X-227983Y-4667118D01*
G37*
%TD.AperFunction*%
%TA.AperFunction,Conductor*%
G36*
X-9254594Y6028011D02*
G01*
X-9198661Y5986139D01*
X-9186853Y5963999D01*
X-9185812Y5964500D01*
X-9182793Y5958231D01*
X-9126997Y5869433D01*
X-9095808Y5819796D01*
X-8980204Y5704192D01*
X-8965400Y5694890D01*
X-8841776Y5617211D01*
X-8827917Y5612362D01*
X-8818823Y5609180D01*
X-8762047Y5568460D01*
X-8742734Y5533092D01*
X-8707790Y5433226D01*
X-8676372Y5383225D01*
X-8620808Y5294796D01*
X-8505204Y5179192D01*
X-8453757Y5146866D01*
X-8366776Y5092211D01*
X-8360502Y5089190D01*
X-8361761Y5086577D01*
X-8315547Y5053444D01*
X-8296222Y5018060D01*
X-8257790Y4908226D01*
X-8202225Y4819796D01*
X-8170808Y4769796D01*
X-8055204Y4654192D01*
X-7916775Y4567211D01*
X-7762461Y4513214D01*
X-7762458Y4513214D01*
X-7762456Y4513213D01*
X-7600004Y4494909D01*
X-7600000Y4494909D01*
X-7599996Y4494909D01*
X-7437543Y4513213D01*
X-7437541Y4513214D01*
X-7437539Y4513214D01*
X-7351679Y4543259D01*
X-7281902Y4546821D01*
X-7269771Y4543259D01*
X-7232464Y4530205D01*
X-7112461Y4488214D01*
X-7112458Y4488214D01*
X-7112456Y4488213D01*
X-6950004Y4469909D01*
X-6950000Y4469909D01*
X-6949996Y4469909D01*
X-6787545Y4488213D01*
X-6787544Y4488214D01*
X-6787539Y4488214D01*
X-6633225Y4542211D01*
X-6494796Y4629192D01*
X-6379192Y4744796D01*
X-6292211Y4883225D01*
X-6238214Y5037539D01*
X-6238213Y5037545D01*
X-6219909Y5199997D01*
X-6219909Y5200004D01*
X-6238213Y5362456D01*
X-6238214Y5362458D01*
X-6238214Y5362461D01*
X-6292211Y5516775D01*
X-6331641Y5579528D01*
X-6350641Y5646765D01*
X-6330273Y5713600D01*
X-6277005Y5758814D01*
X-6226647Y5769500D01*
X-6098735Y5769500D01*
X-6031696Y5749815D01*
X-5985941Y5697011D01*
X-5975515Y5659383D01*
X-5961788Y5537545D01*
X-5907790Y5383226D01*
X-5907789Y5383225D01*
X-5820808Y5244796D01*
X-5705204Y5129192D01*
X-5566775Y5042211D01*
X-5412461Y4988214D01*
X-5412456Y4988214D01*
X-5407490Y4986476D01*
X-5350714Y4945755D01*
X-5343458Y4935418D01*
X-5270808Y4819796D01*
X-5155204Y4704192D01*
X-5016775Y4617211D01*
X-4862461Y4563214D01*
X-4862458Y4563214D01*
X-4862456Y4563213D01*
X-4700004Y4544909D01*
X-4700000Y4544909D01*
X-4699996Y4544909D01*
X-4537545Y4563213D01*
X-4537544Y4563214D01*
X-4537539Y4563214D01*
X-4383225Y4617211D01*
X-4244796Y4704192D01*
X-4144615Y4804374D01*
X-4083296Y4837856D01*
X-4013604Y4832872D01*
X-3969256Y4804371D01*
X-1441819Y2276935D01*
X-1408334Y2215612D01*
X-1405500Y2189254D01*
X-1405500Y-1787173D01*
X-1404050Y-1814227D01*
X-1404050Y-1814228D01*
X-1399769Y-1854036D01*
X-1391115Y-1907445D01*
X-1391115Y-1907447D01*
X-1353913Y-2007187D01*
X-1340832Y-2042257D01*
X-1318445Y-2083256D01*
X-1308714Y-2101078D01*
X-1307347Y-2103580D01*
X-1221123Y-2218761D01*
X-1221119Y-2218765D01*
X-1221114Y-2218771D01*
X-365950Y-3073934D01*
X-332465Y-3135257D01*
X-337449Y-3204948D01*
X-379321Y-3260882D01*
X-444785Y-3285299D01*
X-467514Y-3284835D01*
X-599996Y-3269909D01*
X-600004Y-3269909D01*
X-762458Y-3288212D01*
X-762460Y-3288213D01*
X-835827Y-3313884D01*
X-905606Y-3317445D01*
X-917733Y-3313884D01*
X-1062539Y-3263214D01*
X-1062540Y-3263213D01*
X-1062545Y-3263212D01*
X-1224996Y-3244909D01*
X-1225004Y-3244909D01*
X-1387456Y-3263212D01*
X-1541775Y-3317210D01*
X-1680203Y-3404191D01*
X-1780383Y-3504371D01*
X-1841706Y-3537855D01*
X-1911398Y-3532871D01*
X-1955745Y-3504370D01*
X-3315819Y-2144296D01*
X-3315820Y-2144296D01*
X-3335956Y-2126209D01*
X-3335955Y-2126209D01*
X-3367139Y-2101080D01*
X-3411026Y-2069433D01*
X-3541900Y-2009663D01*
X-3608937Y-1989978D01*
X-3608943Y-1989976D01*
X-3694396Y-1977690D01*
X-3751362Y-1969500D01*
X-3751364Y-1969500D01*
X-4796248Y-1969500D01*
X-4863287Y-1949815D01*
X-4909042Y-1897011D01*
X-4918986Y-1827853D01*
X-4889961Y-1764297D01*
X-4869133Y-1745182D01*
X-4833564Y-1719338D01*
X-4769629Y-1672888D01*
X-4642967Y-1532216D01*
X-4548321Y-1368284D01*
X-4489826Y-1188256D01*
X-4470040Y-1000000D01*
X-4489826Y-811744D01*
X-4548321Y-631716D01*
X-4642967Y-467784D01*
X-4769629Y-327112D01*
X-4816975Y-292713D01*
X-4922766Y-215851D01*
X-4922771Y-215848D01*
X-5095693Y-138857D01*
X-5095698Y-138855D01*
X-5241499Y-107865D01*
X-5280854Y-99500D01*
X-5470146Y-99500D01*
X-5502603Y-106398D01*
X-5655303Y-138855D01*
X-5655308Y-138857D01*
X-5828230Y-215848D01*
X-5828234Y-215850D01*
X-5901710Y-269234D01*
X-5967516Y-292713D01*
X-6035570Y-276887D01*
X-6084264Y-226781D01*
X-6091638Y-209862D01*
X-6092211Y-208225D01*
X-6108819Y-181793D01*
X-6179192Y-69796D01*
X-6294796Y45808D01*
X-6433226Y132790D01*
X-6587545Y186788D01*
X-6749996Y205091D01*
X-6750004Y205091D01*
X-6912456Y186788D01*
X-7066775Y132790D01*
X-7205205Y45808D01*
X-7320808Y-69795D01*
X-7407790Y-208225D01*
X-7429137Y-269234D01*
X-7449389Y-327112D01*
X-7456685Y-347962D01*
X-7497407Y-404738D01*
X-7511059Y-413220D01*
X-7510879Y-413507D01*
X-7516773Y-417210D01*
X-7516775Y-417211D01*
X-7587692Y-461770D01*
X-7655205Y-504192D01*
X-7770808Y-619795D01*
X-7857790Y-758225D01*
X-7911788Y-912544D01*
X-7930091Y-1074996D01*
X-7930091Y-1075003D01*
X-7911788Y-1237455D01*
X-7857790Y-1391774D01*
X-7770808Y-1530204D01*
X-7737605Y-1563407D01*
X-7704120Y-1624730D01*
X-7709104Y-1694422D01*
X-7737604Y-1738769D01*
X-7794720Y-1795885D01*
X-7869086Y-1914237D01*
X-7921421Y-1960527D01*
X-7990474Y-1971175D01*
X-7991721Y-1971003D01*
X-7991716Y-1971003D01*
X-8002175Y-1969500D01*
X-8059096Y-1969500D01*
X-8138688Y-1975805D01*
X-8177248Y-1981953D01*
X-8207528Y-1989272D01*
X-8261540Y-2002327D01*
X-8262224Y-1999497D01*
X-8319047Y-2003011D01*
X-8379202Y-1969786D01*
X-8444796Y-1904192D01*
X-8583226Y-1817210D01*
X-8737545Y-1763212D01*
X-8899996Y-1744909D01*
X-8900004Y-1744909D01*
X-9062456Y-1763212D01*
X-9216775Y-1817210D01*
X-9355205Y-1904192D01*
X-9355206Y-1904193D01*
X-9424716Y-1973702D01*
X-9486040Y-2007187D01*
X-9547332Y-2004997D01*
X-9598479Y-1989978D01*
X-9598485Y-1989976D01*
X-9683938Y-1977690D01*
X-9740904Y-1969500D01*
X-9740906Y-1969500D01*
X-10764254Y-1969500D01*
X-10831293Y-1949815D01*
X-10851935Y-1933181D01*
X-11533181Y-1251935D01*
X-11566666Y-1190612D01*
X-11569500Y-1164254D01*
X-11569500Y1107512D01*
X-11569500Y1107521D01*
X-11578186Y1200826D01*
X-11586635Y1245814D01*
X-11586637Y1245821D01*
X-11586638Y1245828D01*
X-11612392Y1335908D01*
X-11612394Y1335913D01*
X-11683141Y1461188D01*
X-11683140Y1461188D01*
X-11683143Y1461192D01*
X-11725809Y1516522D01*
X-11828990Y1616797D01*
X-11905217Y1672179D01*
X-11924480Y1689524D01*
X-11962601Y1731861D01*
X-11977839Y1752833D01*
X-11978466Y1753919D01*
X-12006326Y1802174D01*
X-12016864Y1825845D01*
X-12034470Y1880028D01*
X-12039859Y1905383D01*
X-12045814Y1962042D01*
X-12045814Y1987963D01*
X-12044964Y1996050D01*
X-12039859Y2044626D01*
X-12034472Y2069968D01*
X-12016865Y2124159D01*
X-12006328Y2147824D01*
X-11977836Y2197173D01*
X-11962614Y2218126D01*
X-11924477Y2260483D01*
X-11905225Y2277817D01*
X-11828989Y2333203D01*
X-11758602Y2395081D01*
X-11727173Y2428360D01*
X-11669433Y2502144D01*
X-11609662Y2633021D01*
X-11589977Y2700060D01*
X-11589976Y2700064D01*
X-11569500Y2842480D01*
X-11569500Y3499997D01*
X-6280091Y3499997D01*
X-6261788Y3337545D01*
X-6207790Y3183226D01*
X-6166984Y3118284D01*
X-6120808Y3044796D01*
X-6005204Y2929192D01*
X-5866775Y2842211D01*
X-5712461Y2788214D01*
X-5712458Y2788214D01*
X-5712456Y2788213D01*
X-5550004Y2769909D01*
X-5550000Y2769909D01*
X-5549996Y2769909D01*
X-5387543Y2788213D01*
X-5387541Y2788214D01*
X-5387539Y2788214D01*
X-5278455Y2826386D01*
X-5208677Y2829948D01*
X-5196545Y2826385D01*
X-5087458Y2788213D01*
X-4925004Y2769909D01*
X-4925000Y2769909D01*
X-4924996Y2769909D01*
X-4762543Y2788213D01*
X-4762541Y2788214D01*
X-4762539Y2788214D01*
X-4674534Y2819010D01*
X-4604756Y2822572D01*
X-4592624Y2819009D01*
X-4504616Y2788213D01*
X-4342162Y2769909D01*
X-4342158Y2769909D01*
X-4342154Y2769909D01*
X-4179703Y2788213D01*
X-4179702Y2788214D01*
X-4179697Y2788214D01*
X-4025383Y2842211D01*
X-3886954Y2929192D01*
X-3771350Y3044796D01*
X-3684369Y3183225D01*
X-3630372Y3337539D01*
X-3620498Y3425172D01*
X-3612067Y3499997D01*
X-3612067Y3500004D01*
X-3630371Y3662456D01*
X-3630372Y3662458D01*
X-3630372Y3662461D01*
X-3684369Y3816775D01*
X-3771350Y3955204D01*
X-3886954Y4070808D01*
X-3920323Y4091775D01*
X-4025384Y4157790D01*
X-4179703Y4211788D01*
X-4342154Y4230091D01*
X-4342162Y4230091D01*
X-4504618Y4211787D01*
X-4592625Y4180992D01*
X-4662404Y4177431D01*
X-4674533Y4180992D01*
X-4762541Y4211787D01*
X-4924996Y4230091D01*
X-4925004Y4230091D01*
X-5087456Y4211788D01*
X-5196546Y4173616D01*
X-5266325Y4170055D01*
X-5278454Y4173616D01*
X-5387545Y4211788D01*
X-5549996Y4230091D01*
X-5550004Y4230091D01*
X-5712456Y4211788D01*
X-5866775Y4157790D01*
X-6005205Y4070808D01*
X-6120808Y3955205D01*
X-6207790Y3816775D01*
X-6261788Y3662456D01*
X-6280091Y3500004D01*
X-6280091Y3499997D01*
X-11569500Y3499997D01*
X-11569500Y3764256D01*
X-11549815Y3831295D01*
X-11533186Y3851932D01*
X-9385607Y5999512D01*
X-9324286Y6032995D01*
X-9254594Y6028011D01*
G37*
%TD.AperFunction*%
%TA.AperFunction,Conductor*%
G36*
X2948146Y922719D02*
G01*
X2996841Y872613D01*
X3010717Y804135D01*
X3010493Y801785D01*
X2997121Y674558D01*
X2970537Y609943D01*
X2914357Y570339D01*
X2833630Y542399D01*
X2716427Y458941D01*
X2665861Y410728D01*
X2665860Y410726D01*
X2576917Y297625D01*
X2551541Y253674D01*
X2536306Y232706D01*
X2498191Y190374D01*
X2478925Y173026D01*
X2432832Y139538D01*
X2410383Y126578D01*
X2358345Y103409D01*
X2333692Y95398D01*
X2296496Y87491D01*
X2277969Y83553D01*
X2252188Y80843D01*
X2195222Y80843D01*
X2169442Y83553D01*
X2147690Y88177D01*
X2113716Y95398D01*
X2089062Y103409D01*
X2037031Y126575D01*
X2014584Y139535D01*
X1968483Y173028D01*
X1949220Y190371D01*
X1911102Y232706D01*
X1895868Y253674D01*
X1890750Y262539D01*
X1867382Y303014D01*
X1856842Y326688D01*
X1839236Y380871D01*
X1833847Y406226D01*
X1833374Y410726D01*
X1827892Y462887D01*
X1827892Y488806D01*
X1833847Y545469D01*
X1839234Y570811D01*
X1856841Y625002D01*
X1867379Y648668D01*
X1877221Y665716D01*
X1927789Y713928D01*
X1996397Y727148D01*
X2010382Y725001D01*
X2130354Y699500D01*
X2130355Y699500D01*
X2319644Y699500D01*
X2319646Y699500D01*
X2504803Y738856D01*
X2677730Y815849D01*
X2814290Y915066D01*
X2880092Y938544D01*
X2948146Y922719D01*
G37*
%TD.AperFunction*%
%TA.AperFunction,Conductor*%
G36*
X15717445Y20990507D02*
G01*
X15958385Y20979987D01*
X15963320Y20979573D01*
X16193261Y20950911D01*
X16421921Y20920807D01*
X16426490Y20920028D01*
X16655391Y20872032D01*
X16793210Y20841478D01*
X16878677Y20822530D01*
X16882939Y20821425D01*
X17107969Y20754431D01*
X17325459Y20685856D01*
X17329305Y20684502D01*
X17548675Y20598903D01*
X17758977Y20511792D01*
X17762437Y20510232D01*
X17974350Y20406635D01*
X18176129Y20301595D01*
X18179238Y20299861D01*
X18285211Y20236716D01*
X18382116Y20178973D01*
X18573954Y20056758D01*
X18576669Y20054926D01*
X18769063Y19917560D01*
X18949600Y19779029D01*
X18951872Y19777195D01*
X19132397Y19624299D01*
X19132415Y19624284D01*
X19301239Y19469584D01*
X19469583Y19301240D01*
X19624281Y19132418D01*
X19777186Y18951883D01*
X19779044Y18949579D01*
X19817088Y18900000D01*
X19908489Y18780883D01*
X19917559Y18769063D01*
X19961743Y18707180D01*
X20054924Y18576671D01*
X20056755Y18573957D01*
X20178973Y18382116D01*
X20299859Y18179240D01*
X20301593Y18176132D01*
X20406638Y17974343D01*
X20510220Y17762461D01*
X20511800Y17758957D01*
X20598915Y17548643D01*
X20684487Y17329341D01*
X20685859Y17325447D01*
X20754426Y17107983D01*
X20821420Y16882951D01*
X20822528Y16878679D01*
X20872038Y16655360D01*
X20920022Y16426512D01*
X20920811Y16421880D01*
X20950917Y16193205D01*
X20979569Y15963338D01*
X20979986Y15958371D01*
X20990505Y15717455D01*
X20999500Y15499999D01*
X20999500Y-15499999D01*
X20990505Y-15717454D01*
X20979986Y-15958369D01*
X20979569Y-15963336D01*
X20950925Y-16193141D01*
X20920807Y-16421894D01*
X20920018Y-16426526D01*
X20872048Y-16655312D01*
X20822530Y-16878670D01*
X20821422Y-16882943D01*
X20754426Y-17107982D01*
X20685859Y-17325445D01*
X20684487Y-17329339D01*
X20598915Y-17548642D01*
X20511800Y-17758955D01*
X20510220Y-17762459D01*
X20406643Y-17974330D01*
X20301580Y-18176154D01*
X20299847Y-18179263D01*
X20178982Y-18382098D01*
X20056742Y-18573975D01*
X20054910Y-18576690D01*
X19917565Y-18769055D01*
X19779044Y-18949577D01*
X19777168Y-18951904D01*
X19624283Y-19132414D01*
X19469583Y-19301239D01*
X19301239Y-19469583D01*
X19132414Y-19624283D01*
X18951904Y-19777168D01*
X18949577Y-19779044D01*
X18769055Y-19917565D01*
X18576690Y-20054910D01*
X18573975Y-20056742D01*
X18382098Y-20178982D01*
X18179263Y-20299847D01*
X18176154Y-20301580D01*
X17974330Y-20406643D01*
X17762459Y-20510220D01*
X17758955Y-20511800D01*
X17548642Y-20598915D01*
X17329339Y-20684487D01*
X17325445Y-20685859D01*
X17107982Y-20754426D01*
X16882943Y-20821422D01*
X16878670Y-20822530D01*
X16655312Y-20872048D01*
X16426526Y-20920018D01*
X16421894Y-20920807D01*
X16193141Y-20950925D01*
X15963336Y-20979569D01*
X15958369Y-20979986D01*
X15717454Y-20990505D01*
X15499999Y-20999500D01*
X-15499999Y-20999500D01*
X-15717455Y-20990505D01*
X-15958371Y-20979986D01*
X-15963338Y-20979569D01*
X-16193142Y-20950925D01*
X-16421896Y-20920807D01*
X-16426528Y-20920018D01*
X-16655313Y-20872048D01*
X-16878672Y-20822530D01*
X-16882945Y-20821422D01*
X-17107983Y-20754426D01*
X-17325447Y-20685859D01*
X-17329341Y-20684487D01*
X-17548643Y-20598915D01*
X-17758957Y-20511800D01*
X-17762461Y-20510220D01*
X-17974331Y-20406643D01*
X-18046352Y-20369151D01*
X-18176187Y-20301564D01*
X-18179236Y-20299863D01*
X-18301807Y-20226826D01*
X-18382099Y-20178982D01*
X-18573977Y-20056742D01*
X-18576692Y-20054910D01*
X-18681047Y-19980402D01*
X-18769056Y-19917564D01*
X-18845514Y-19858897D01*
X-18949579Y-19779044D01*
X-18951883Y-19777186D01*
X-19132418Y-19624281D01*
X-19301240Y-19469583D01*
X-19469584Y-19301239D01*
X-19624284Y-19132415D01*
X-19624285Y-19132414D01*
X-19777195Y-18951872D01*
X-19779029Y-18949600D01*
X-19917560Y-18769063D01*
X-20054926Y-18576669D01*
X-20056744Y-18573975D01*
X-20178983Y-18382098D01*
X-20196871Y-18352079D01*
X-20299878Y-18179212D01*
X-20301560Y-18176195D01*
X-20406644Y-17974330D01*
X-20434248Y-17917866D01*
X-20510238Y-17762426D01*
X-20511792Y-17758977D01*
X-20598903Y-17548675D01*
X-20684502Y-17329305D01*
X-20685856Y-17325459D01*
X-20754436Y-17107951D01*
X-20765486Y-17070834D01*
X-20821428Y-16882928D01*
X-20822532Y-16878670D01*
X-20872049Y-16655312D01*
X-20878405Y-16625000D01*
X-20920021Y-16426523D01*
X-20920809Y-16421894D01*
X-20931587Y-16340027D01*
X-20950914Y-16193234D01*
X-20979573Y-15963320D01*
X-20979987Y-15958385D01*
X-20990509Y-15717381D01*
X-20996097Y-15582288D01*
X-20999500Y-15500000D01*
X-20999500Y-15499999D01*
X-18904994Y-15499999D01*
X-18885034Y-15868142D01*
X-18885033Y-15868159D01*
X-18825390Y-16231960D01*
X-18825384Y-16231986D01*
X-18726757Y-16587209D01*
X-18726755Y-16587216D01*
X-18590294Y-16929710D01*
X-18590285Y-16929728D01*
X-18417594Y-17255458D01*
X-18210693Y-17560614D01*
X-18074504Y-17720948D01*
X-18074503Y-17720949D01*
X-16758649Y-16405095D01*
X-16704544Y-16483480D01*
X-16531184Y-16663966D01*
X-16405135Y-16758686D01*
X-17723480Y-18077031D01*
X-17723480Y-18077032D01*
X-17704357Y-18095147D01*
X-17704345Y-18095158D01*
X-17410842Y-18318274D01*
X-17410825Y-18318286D01*
X-17094933Y-18508350D01*
X-17094920Y-18508357D01*
X-16760329Y-18663155D01*
X-16410932Y-18780882D01*
X-16050866Y-18860138D01*
X-15684345Y-18899999D01*
X-15684337Y-18900000D01*
X-15315663Y-18900000D01*
X-15315656Y-18899999D01*
X-14949135Y-18860138D01*
X-14589069Y-18780882D01*
X-14239672Y-18663155D01*
X-13905081Y-18508357D01*
X-13905068Y-18508350D01*
X-13589176Y-18318286D01*
X-13589159Y-18318274D01*
X-13295660Y-18095161D01*
X-13276521Y-18077031D01*
X-14593121Y-16760431D01*
X-14565820Y-16743168D01*
X-14378499Y-16577216D01*
X-14239489Y-16406958D01*
X-12925499Y-17720948D01*
X-12925498Y-17720948D01*
X-12789310Y-17560615D01*
X-12789299Y-17560601D01*
X-12582407Y-17255458D01*
X-12409716Y-16929728D01*
X-12409707Y-16929710D01*
X-12288300Y-16625000D01*
X-7155460Y-16625000D01*
X-7135674Y-16813256D01*
X-7133708Y-16819309D01*
X-7077182Y-16993277D01*
X-7077179Y-16993284D01*
X-6982533Y-17157216D01*
X-6894075Y-17255458D01*
X-6855871Y-17297888D01*
X-6702735Y-17409148D01*
X-6702730Y-17409151D01*
X-6529808Y-17486142D01*
X-6529803Y-17486144D01*
X-6344646Y-17525500D01*
X-6344645Y-17525500D01*
X-6155356Y-17525500D01*
X-6155354Y-17525500D01*
X-5970197Y-17486144D01*
X-5797270Y-17409151D01*
X-5644129Y-17297888D01*
X-5517467Y-17157216D01*
X-5422821Y-16993284D01*
X-5364326Y-16813256D01*
X-5344540Y-16625000D01*
X-5364326Y-16436744D01*
X-5422821Y-16256716D01*
X-5517467Y-16092784D01*
X-5644129Y-15952112D01*
X-5644130Y-15952111D01*
X-5797266Y-15840851D01*
X-5797271Y-15840848D01*
X-5970193Y-15763857D01*
X-5970198Y-15763855D01*
X-6005564Y-15756338D01*
X-5287412Y-15756338D01*
X-5257137Y-15928032D01*
X-5188084Y-16088116D01*
X-5188083Y-16088118D01*
X-5188081Y-16088121D01*
X-5104418Y-16200499D01*
X-5083973Y-16227961D01*
X-4950419Y-16340027D01*
X-4794620Y-16418272D01*
X-4624976Y-16458478D01*
X-4624974Y-16458478D01*
X-4494376Y-16458478D01*
X-4494369Y-16458478D01*
X-4364641Y-16443315D01*
X-4200812Y-16383686D01*
X-4055151Y-16287883D01*
X-3935509Y-16161071D01*
X-3848338Y-16010085D01*
X-3798336Y-15843066D01*
X-3788198Y-15669018D01*
X-3818473Y-15497324D01*
X-3887526Y-15337240D01*
X-3905078Y-15313664D01*
X-3962702Y-15236262D01*
X-3991637Y-15197395D01*
X-4069742Y-15131857D01*
X-4125191Y-15085329D01*
X-4125193Y-15085328D01*
X-4280987Y-15007085D01*
X-4280989Y-15007084D01*
X-4280990Y-15007084D01*
X-4450634Y-14966878D01*
X-4581241Y-14966878D01*
X-4694753Y-14980145D01*
X-4710970Y-14982041D01*
X-4710973Y-14982042D01*
X-4874797Y-15041669D01*
X-4874801Y-15041671D01*
X-5020457Y-15137470D01*
X-5020458Y-15137471D01*
X-5140099Y-15264281D01*
X-5140102Y-15264287D01*
X-5227271Y-15415268D01*
X-5277274Y-15582288D01*
X-5277275Y-15582294D01*
X-5285780Y-15728314D01*
X-5287412Y-15756338D01*
X-6005564Y-15756338D01*
X-6137406Y-15728315D01*
X-6155354Y-15724500D01*
X-6344646Y-15724500D01*
X-6362594Y-15728315D01*
X-6529803Y-15763855D01*
X-6529808Y-15763857D01*
X-6702730Y-15840848D01*
X-6702735Y-15840851D01*
X-6855871Y-15952111D01*
X-6982534Y-16092785D01*
X-7077179Y-16256715D01*
X-7077182Y-16256722D01*
X-7133631Y-16430455D01*
X-7135674Y-16436744D01*
X-7155460Y-16625000D01*
X-12288300Y-16625000D01*
X-12273246Y-16587216D01*
X-12273244Y-16587209D01*
X-12174617Y-16231986D01*
X-12174611Y-16231960D01*
X-12114968Y-15868159D01*
X-12114967Y-15868142D01*
X-12107385Y-15728315D01*
X-10467940Y-15728315D01*
X-10460707Y-15769334D01*
X-10439696Y-15888494D01*
X-10437665Y-15900009D01*
X-10368612Y-16060093D01*
X-10368611Y-16060095D01*
X-10368609Y-16060098D01*
X-10293434Y-16161074D01*
X-10264501Y-16199938D01*
X-10130947Y-16312004D01*
X-9975148Y-16390249D01*
X-9805504Y-16430455D01*
X-9805502Y-16430455D01*
X-9674904Y-16430455D01*
X-9674897Y-16430455D01*
X-9545169Y-16415292D01*
X-9381340Y-16355663D01*
X-9235679Y-16259860D01*
X-9116037Y-16133048D01*
X-9028866Y-15982062D01*
X-8978864Y-15815043D01*
X-8968726Y-15640995D01*
X-8999001Y-15469301D01*
X-9068054Y-15309217D01*
X-9101505Y-15264285D01*
X-9172166Y-15169371D01*
X-9305719Y-15057306D01*
X-9305721Y-15057305D01*
X-9461515Y-14979062D01*
X-9461517Y-14979061D01*
X-9461518Y-14979061D01*
X-9631162Y-14938855D01*
X-9761769Y-14938855D01*
X-9875281Y-14952122D01*
X-9891498Y-14954018D01*
X-9891501Y-14954019D01*
X-10055325Y-15013646D01*
X-10055329Y-15013648D01*
X-10200985Y-15109447D01*
X-10200986Y-15109448D01*
X-10320627Y-15236258D01*
X-10320630Y-15236264D01*
X-10407799Y-15387245D01*
X-10457802Y-15554265D01*
X-10457803Y-15554271D01*
X-10467303Y-15717381D01*
X-10467940Y-15728315D01*
X-12107385Y-15728315D01*
X-12095006Y-15499999D01*
X-12095006Y-15499997D01*
X-12114967Y-15131857D01*
X-12114968Y-15131840D01*
X-12174611Y-14768039D01*
X-12174617Y-14768013D01*
X-12273244Y-14412790D01*
X-12273246Y-14412783D01*
X-12409707Y-14070289D01*
X-12409716Y-14070271D01*
X-12573325Y-13761672D01*
X-5675136Y-13761672D01*
X-5644861Y-13933366D01*
X-5575808Y-14093450D01*
X-5575807Y-14093452D01*
X-5575805Y-14093455D01*
X-5471697Y-14233295D01*
X-5338143Y-14345361D01*
X-5182344Y-14423606D01*
X-5012700Y-14463812D01*
X-5012698Y-14463812D01*
X-4882100Y-14463812D01*
X-4882093Y-14463812D01*
X-4752365Y-14448649D01*
X-4588536Y-14389020D01*
X-4442875Y-14293217D01*
X-4323233Y-14166405D01*
X-4236062Y-14015419D01*
X-4186060Y-13848400D01*
X-4175922Y-13674352D01*
X-4206197Y-13502658D01*
X-4275250Y-13342574D01*
X-4287517Y-13326097D01*
X-4355320Y-13235022D01*
X-4379361Y-13202729D01*
X-4413692Y-13173922D01*
X-4512915Y-13090663D01*
X-4512917Y-13090662D01*
X-4668711Y-13012419D01*
X-4668713Y-13012418D01*
X-4668714Y-13012418D01*
X-4838358Y-12972212D01*
X-4968965Y-12972212D01*
X-5082477Y-12985479D01*
X-5098694Y-12987375D01*
X-5098697Y-12987376D01*
X-5262521Y-13047003D01*
X-5262525Y-13047005D01*
X-5408181Y-13142804D01*
X-5408182Y-13142805D01*
X-5527823Y-13269615D01*
X-5527825Y-13269619D01*
X-5533269Y-13279049D01*
X-5614995Y-13420602D01*
X-5664998Y-13587622D01*
X-5664999Y-13587628D01*
X-5674136Y-13744504D01*
X-5675136Y-13761672D01*
X-12573325Y-13761672D01*
X-12582407Y-13744541D01*
X-12789308Y-13439385D01*
X-12925498Y-13279050D01*
X-12925499Y-13279049D01*
X-14241353Y-14594903D01*
X-14295456Y-14516520D01*
X-14468816Y-14336034D01*
X-14594867Y-14241313D01*
X-13276522Y-12922967D01*
X-13276522Y-12922966D01*
X-13295644Y-12904852D01*
X-13295656Y-12904841D01*
X-13589159Y-12681725D01*
X-13589176Y-12681713D01*
X-13905068Y-12491649D01*
X-13905081Y-12491642D01*
X-14239672Y-12336844D01*
X-14589069Y-12219117D01*
X-14949135Y-12139861D01*
X-15315656Y-12100000D01*
X-15684345Y-12100000D01*
X-16050866Y-12139861D01*
X-16410932Y-12219117D01*
X-16760329Y-12336844D01*
X-17094920Y-12491642D01*
X-17094933Y-12491649D01*
X-17410825Y-12681713D01*
X-17410842Y-12681725D01*
X-17704343Y-12904840D01*
X-17704357Y-12904852D01*
X-17723480Y-12922966D01*
X-17723480Y-12922968D01*
X-16406880Y-14239568D01*
X-16434180Y-14256832D01*
X-16621501Y-14422784D01*
X-16760512Y-14593040D01*
X-18074503Y-13279049D01*
X-18074504Y-13279050D01*
X-18210686Y-13439376D01*
X-18210693Y-13439386D01*
X-18417594Y-13744541D01*
X-18590285Y-14070271D01*
X-18590294Y-14070289D01*
X-18726755Y-14412783D01*
X-18726757Y-14412790D01*
X-18825384Y-14768013D01*
X-18825390Y-14768039D01*
X-18885033Y-15131840D01*
X-18885034Y-15131857D01*
X-18904994Y-15499997D01*
X-18904994Y-15499999D01*
X-20999500Y-15499999D01*
X-20999500Y-15499500D01*
X-20999500Y-8823851D01*
X-13581565Y-8823851D01*
X-13581564Y-8823852D01*
X-12832344Y-8823852D01*
X-12880688Y-8907587D01*
X-12910874Y-9039843D01*
X-12900737Y-9175120D01*
X-12851176Y-9301399D01*
X-12833270Y-9323852D01*
X-13581564Y-9323852D01*
X-13533990Y-9491057D01*
X-13533985Y-9491070D01*
X-13438991Y-9681843D01*
X-13310552Y-9851923D01*
X-13153052Y-9995503D01*
X-13153050Y-9995505D01*
X-12971851Y-10107698D01*
X-12971845Y-10107701D01*
X-12773111Y-10184690D01*
X-12707052Y-10197038D01*
X-12707052Y-9448055D01*
X-12654510Y-9483878D01*
X-12524880Y-9523864D01*
X-12423329Y-9523864D01*
X-12322910Y-9508728D01*
X-12207052Y-9452933D01*
X-12207052Y-10197037D01*
X-12174461Y-10190946D01*
X-12104946Y-10197978D01*
X-12050268Y-10241476D01*
X-12044292Y-10250833D01*
X-11958191Y-10399965D01*
X-11878715Y-10488232D01*
X-11831529Y-10540637D01*
X-11678393Y-10651897D01*
X-11678388Y-10651900D01*
X-11505466Y-10728891D01*
X-11505461Y-10728893D01*
X-11320304Y-10768249D01*
X-11320303Y-10768249D01*
X-11131014Y-10768249D01*
X-11131012Y-10768249D01*
X-11120343Y-10765981D01*
X-11050676Y-10771297D01*
X-10994942Y-10813434D01*
X-10970837Y-10879014D01*
X-10971241Y-10900229D01*
X-10983876Y-11020447D01*
X-10964090Y-11208703D01*
X-10964089Y-11208706D01*
X-10905598Y-11388724D01*
X-10905595Y-11388731D01*
X-10810949Y-11552663D01*
X-10702025Y-11673635D01*
X-10684287Y-11693335D01*
X-10531151Y-11804595D01*
X-10531146Y-11804598D01*
X-10358224Y-11881589D01*
X-10358223Y-11881589D01*
X-10358219Y-11881591D01*
X-10236743Y-11907411D01*
X-10175261Y-11940603D01*
X-10141484Y-12001766D01*
X-10143257Y-12062635D01*
X-10187452Y-12217964D01*
X-10187451Y-12217965D01*
X-9438231Y-12217965D01*
X-9486575Y-12301700D01*
X-9516761Y-12433956D01*
X-9506624Y-12569233D01*
X-9457063Y-12695512D01*
X-9439157Y-12717965D01*
X-10187451Y-12717965D01*
X-10139877Y-12885170D01*
X-10139872Y-12885183D01*
X-10044878Y-13075956D01*
X-9916439Y-13246036D01*
X-9758939Y-13389616D01*
X-9758937Y-13389618D01*
X-9577738Y-13501811D01*
X-9577732Y-13501814D01*
X-9378998Y-13578803D01*
X-9312939Y-13591151D01*
X-9312939Y-12842168D01*
X-9260397Y-12877991D01*
X-9130767Y-12917977D01*
X-9029216Y-12917977D01*
X-8928797Y-12902841D01*
X-8812939Y-12847046D01*
X-8812939Y-13591150D01*
X-8746881Y-13578803D01*
X-8548147Y-13501814D01*
X-8548141Y-13501811D01*
X-8366942Y-13389618D01*
X-8366940Y-13389616D01*
X-8209440Y-13246036D01*
X-8081001Y-13075956D01*
X-7986007Y-12885183D01*
X-7986002Y-12885170D01*
X-7938427Y-12717965D01*
X-8687647Y-12717965D01*
X-8639303Y-12634230D01*
X-8609117Y-12501974D01*
X-8619254Y-12366697D01*
X-8668815Y-12240418D01*
X-8686721Y-12217965D01*
X-7938427Y-12217965D01*
X-7938427Y-12217964D01*
X-7986002Y-12050759D01*
X-7986007Y-12050746D01*
X-8081001Y-11859973D01*
X-8209440Y-11689893D01*
X-8366940Y-11546313D01*
X-8366942Y-11546311D01*
X-8548141Y-11434118D01*
X-8548150Y-11434114D01*
X-8746876Y-11357128D01*
X-8746881Y-11357127D01*
X-8812939Y-11344778D01*
X-8812939Y-12093761D01*
X-8865481Y-12057939D01*
X-8995111Y-12017953D01*
X-9096662Y-12017953D01*
X-9197081Y-12033089D01*
X-9312939Y-12088883D01*
X-9312939Y-11528827D01*
X-9296326Y-11466827D01*
X-9251237Y-11388731D01*
X-9192742Y-11208703D01*
X-9172956Y-11020447D01*
X-9192742Y-10832191D01*
X-9251237Y-10652163D01*
X-9345883Y-10488231D01*
X-9424687Y-10400710D01*
X-9449058Y-10349928D01*
X-9475445Y-10344188D01*
X-9488903Y-10335674D01*
X-9625682Y-10236298D01*
X-9625687Y-10236295D01*
X-9798609Y-10159304D01*
X-9798614Y-10159302D01*
X-9944415Y-10128312D01*
X-9983770Y-10119947D01*
X-10173062Y-10119947D01*
X-10183736Y-10122215D01*
X-10253400Y-10116899D01*
X-10309134Y-10074761D01*
X-10333238Y-10009181D01*
X-10332835Y-9987978D01*
X-10320198Y-9867749D01*
X-10339984Y-9679493D01*
X-10398479Y-9499465D01*
X-10477077Y-9363330D01*
X-10480824Y-9347885D01*
X-10481005Y-9347800D01*
X-10491001Y-9337892D01*
X-10503643Y-9323852D01*
X-10619787Y-9194861D01*
X-10619876Y-9194796D01*
X-10772924Y-9083600D01*
X-10772929Y-9083597D01*
X-10945851Y-9006606D01*
X-10945856Y-9006604D01*
X-11105913Y-8972584D01*
X-11131012Y-8967249D01*
X-11199079Y-8967249D01*
X-11266118Y-8947564D01*
X-11311873Y-8894760D01*
X-11320967Y-8866038D01*
X-11321791Y-8861631D01*
X-11380111Y-8656655D01*
X-11380119Y-8656635D01*
X-11475112Y-8465862D01*
X-11603553Y-8295780D01*
X-11761053Y-8152200D01*
X-11761055Y-8152198D01*
X-11942254Y-8040005D01*
X-11942263Y-8040001D01*
X-12140989Y-7963015D01*
X-12140994Y-7963014D01*
X-12207052Y-7950665D01*
X-12207052Y-8699648D01*
X-12259594Y-8663826D01*
X-12389224Y-8623840D01*
X-12490775Y-8623840D01*
X-12591194Y-8638976D01*
X-12707052Y-8694770D01*
X-12707052Y-7950665D01*
X-12773111Y-7963014D01*
X-12773116Y-7963015D01*
X-12971842Y-8040001D01*
X-12971851Y-8040005D01*
X-13153050Y-8152198D01*
X-13153052Y-8152200D01*
X-13310552Y-8295780D01*
X-13438991Y-8465860D01*
X-13533985Y-8656633D01*
X-13533990Y-8656646D01*
X-13581565Y-8823851D01*
X-20999500Y-8823851D01*
X-20999500Y-6598980D01*
X-12746551Y-6598980D01*
X-12739619Y-6664946D01*
X-12739371Y-6668068D01*
X-12735612Y-6737380D01*
X-12735609Y-6737395D01*
X-12732567Y-6748354D01*
X-12728729Y-6768549D01*
X-12727864Y-6776780D01*
X-12727862Y-6776786D01*
X-12705938Y-6844263D01*
X-12686123Y-6915631D01*
X-12686119Y-6915641D01*
X-12682446Y-6922570D01*
X-12674077Y-6942319D01*
X-12672618Y-6946808D01*
X-12672614Y-6946819D01*
X-12635601Y-7010926D01*
X-12599468Y-7079082D01*
X-12596698Y-7082342D01*
X-12583814Y-7100624D01*
X-12583226Y-7101644D01*
X-12540347Y-7149265D01*
X-12531629Y-7158947D01*
X-12479703Y-7220079D01*
X-12479699Y-7220082D01*
X-12479119Y-7220523D01*
X-12468525Y-7230271D01*
X-12468423Y-7230159D01*
X-12463595Y-7234506D01*
X-12460159Y-7237002D01*
X-12398721Y-7281640D01*
X-12332430Y-7332033D01*
X-12332428Y-7332034D01*
X-12332425Y-7332036D01*
X-12326669Y-7335499D01*
X-12326774Y-7335672D01*
X-12324851Y-7336801D01*
X-12324586Y-7336343D01*
X-12318963Y-7339589D01*
X-12318960Y-7339590D01*
X-12318959Y-7339591D01*
X-12242892Y-7373458D01*
X-12164533Y-7409711D01*
X-12164528Y-7409712D01*
X-12164411Y-7409752D01*
X-12158845Y-7411264D01*
X-12155641Y-7412304D01*
X-12155633Y-7412308D01*
X-12155625Y-7412309D01*
X-12155624Y-7412310D01*
X-12071219Y-7430251D01*
X-12051991Y-7434483D01*
X-11983863Y-7449479D01*
X-11983860Y-7449479D01*
X-11801977Y-7449479D01*
X-11801975Y-7449479D01*
X-11759690Y-7440490D01*
X-11753521Y-7439502D01*
X-11707456Y-7434493D01*
X-11669814Y-7421808D01*
X-11662914Y-7419919D01*
X-11627099Y-7412308D01*
X-11584580Y-7393376D01*
X-11579192Y-7391274D01*
X-11532145Y-7375423D01*
X-11500943Y-7356648D01*
X-11494215Y-7353143D01*
X-11463773Y-7339591D01*
X-11423444Y-7310288D01*
X-11419003Y-7307347D01*
X-11373630Y-7280049D01*
X-11349585Y-7257270D01*
X-11343405Y-7252136D01*
X-11319136Y-7234505D01*
X-11283566Y-7195000D01*
X-11280172Y-7191519D01*
X-11239325Y-7152828D01*
X-11222599Y-7128156D01*
X-11217374Y-7121485D01*
X-11199507Y-7101644D01*
X-11171288Y-7052765D01*
X-11168925Y-7048993D01*
X-11135508Y-6999709D01*
X-11127368Y-6979276D01*
X-11119563Y-6963174D01*
X-11110116Y-6946814D01*
X-11091651Y-6889980D01*
X-11090294Y-6886226D01*
X-11067035Y-6827854D01*
X-11064051Y-6809644D01*
X-11059618Y-6791392D01*
X-11054869Y-6776782D01*
X-11048278Y-6714056D01*
X-11047809Y-6710572D01*
X-11037106Y-6645296D01*
X-11037914Y-6630399D01*
X-11037416Y-6610726D01*
X-11036181Y-6598979D01*
X-11043119Y-6532971D01*
X-11043363Y-6529903D01*
X-11047121Y-6460572D01*
X-11049852Y-6450735D01*
X-11050164Y-6449611D01*
X-11054005Y-6429396D01*
X-11054869Y-6421178D01*
X-11054869Y-6421177D01*
X-11054869Y-6421176D01*
X-11076795Y-6353695D01*
X-11093199Y-6294613D01*
X-11096611Y-6282322D01*
X-11100280Y-6275402D01*
X-11108658Y-6255632D01*
X-11110116Y-6251144D01*
X-11147132Y-6187031D01*
X-11183266Y-6118875D01*
X-11183267Y-6118873D01*
X-11186040Y-6115609D01*
X-11198919Y-6097333D01*
X-11199507Y-6096314D01*
X-11199508Y-6096313D01*
X-11199509Y-6096311D01*
X-11251104Y-6039010D01*
X-11303028Y-5977880D01*
X-11303616Y-5977433D01*
X-11314208Y-5967686D01*
X-11314309Y-5967799D01*
X-11319134Y-5963454D01*
X-11346665Y-5943452D01*
X-11384012Y-5916317D01*
X-11450302Y-5865925D01*
X-11450303Y-5865924D01*
X-11450305Y-5865923D01*
X-11456064Y-5862458D01*
X-11455962Y-5862288D01*
X-11457880Y-5861162D01*
X-11458142Y-5861617D01*
X-11463768Y-5858369D01*
X-11539841Y-5824499D01*
X-11618191Y-5788250D01*
X-11618197Y-5788248D01*
X-11618199Y-5788247D01*
X-11618202Y-5788246D01*
X-11618311Y-5788209D01*
X-11623878Y-5786696D01*
X-11627095Y-5785651D01*
X-11627099Y-5785650D01*
X-11711515Y-5767706D01*
X-11730783Y-5763465D01*
X-11798867Y-5748479D01*
X-11798869Y-5748479D01*
X-11801975Y-5748479D01*
X-11980757Y-5748479D01*
X-11980759Y-5748479D01*
X-12023033Y-5757463D01*
X-12029221Y-5758455D01*
X-12075280Y-5763465D01*
X-12112915Y-5776146D01*
X-12119825Y-5778038D01*
X-12155634Y-5785650D01*
X-12155635Y-5785650D01*
X-12198141Y-5804575D01*
X-12203563Y-5806690D01*
X-12250579Y-5822531D01*
X-12250586Y-5822534D01*
X-12250587Y-5822535D01*
X-12253851Y-5824499D01*
X-12281783Y-5841304D01*
X-12288533Y-5844820D01*
X-12318959Y-5858367D01*
X-12359267Y-5887651D01*
X-12363745Y-5890617D01*
X-12409102Y-5917909D01*
X-12409109Y-5917914D01*
X-12433137Y-5940673D01*
X-12439333Y-5945822D01*
X-12463591Y-5963448D01*
X-12463595Y-5963451D01*
X-12499142Y-6002929D01*
X-12502579Y-6006453D01*
X-12543405Y-6045128D01*
X-12543411Y-6045136D01*
X-12560126Y-6069787D01*
X-12565372Y-6076485D01*
X-12583225Y-6096313D01*
X-12611439Y-6145180D01*
X-12613812Y-6148966D01*
X-12615560Y-6151546D01*
X-12647225Y-6198250D01*
X-12647230Y-6198260D01*
X-12655369Y-6218686D01*
X-12663169Y-6234778D01*
X-12672615Y-6251140D01*
X-12672618Y-6251147D01*
X-12691078Y-6307959D01*
X-12692447Y-6311748D01*
X-12715698Y-6370106D01*
X-12718684Y-6388318D01*
X-12723117Y-6406565D01*
X-12727863Y-6421172D01*
X-12727864Y-6421177D01*
X-12734453Y-6483860D01*
X-12734930Y-6487407D01*
X-12745626Y-6552659D01*
X-12745626Y-6552662D01*
X-12745085Y-6562641D01*
X-12744819Y-6567556D01*
X-12745316Y-6587222D01*
X-12746551Y-6598977D01*
X-12746551Y-6598980D01*
X-20999500Y-6598980D01*
X-20999500Y3774997D01*
X-16930091Y3774997D01*
X-16911788Y3612545D01*
X-16857790Y3458226D01*
X-16781957Y3337539D01*
X-16770808Y3319796D01*
X-16655204Y3204192D01*
X-16516775Y3117211D01*
X-16362461Y3063214D01*
X-16362458Y3063214D01*
X-16362456Y3063213D01*
X-16200004Y3044909D01*
X-16200000Y3044909D01*
X-16199998Y3044909D01*
X-16154888Y3049992D01*
X-16094422Y3056805D01*
X-16025601Y3044751D01*
X-15974222Y2997402D01*
X-15963498Y2974540D01*
X-15957789Y2958225D01*
X-15870808Y2819796D01*
X-15755204Y2704192D01*
X-15748628Y2700060D01*
X-15716898Y2680122D01*
X-15670607Y2627787D01*
X-15659960Y2558733D01*
X-15688336Y2494885D01*
X-15746726Y2456514D01*
X-15796754Y2451909D01*
X-15824996Y2455091D01*
X-15825004Y2455091D01*
X-15987456Y2436788D01*
X-16141775Y2382790D01*
X-16280205Y2295808D01*
X-16395808Y2180205D01*
X-16482790Y2041775D01*
X-16536788Y1887456D01*
X-16555091Y1725004D01*
X-16555091Y1724997D01*
X-16536788Y1562545D01*
X-16482790Y1408226D01*
X-16394554Y1267800D01*
X-16375554Y1200563D01*
X-16395922Y1133728D01*
X-16411865Y1114148D01*
X-16470809Y1055203D01*
X-16557790Y916775D01*
X-16611788Y762456D01*
X-16630091Y600004D01*
X-16630091Y599997D01*
X-16611788Y437545D01*
X-16557790Y283226D01*
X-16497192Y186786D01*
X-16470808Y144796D01*
X-16355204Y29192D01*
X-16216775Y-57789D01*
X-16118015Y-92346D01*
X-16061240Y-133068D01*
X-16038079Y-181793D01*
X-16036787Y-187454D01*
X-16036786Y-187461D01*
X-16010778Y-261786D01*
X-15982790Y-341774D01*
X-15977165Y-350726D01*
X-15895808Y-480204D01*
X-15780204Y-595808D01*
X-15723047Y-631722D01*
X-15641773Y-682790D01*
X-15487462Y-736786D01*
X-15481458Y-738157D01*
X-15420479Y-772265D01*
X-15388161Y-831441D01*
X-15386788Y-837454D01*
X-15332790Y-991774D01*
X-15332789Y-991775D01*
X-15245808Y-1130204D01*
X-15130204Y-1245808D01*
X-14991775Y-1332789D01*
X-14837461Y-1386786D01*
X-14837458Y-1386786D01*
X-14837456Y-1386787D01*
X-14715617Y-1400515D01*
X-14651203Y-1427581D01*
X-14611648Y-1485176D01*
X-14605500Y-1523735D01*
X-14605500Y-1937177D01*
X-14604249Y-1960527D01*
X-14604050Y-1964227D01*
X-14604050Y-1964228D01*
X-14599769Y-2004036D01*
X-14591115Y-2057445D01*
X-14591115Y-2057447D01*
X-14540834Y-2192252D01*
X-14540832Y-2192257D01*
X-14507347Y-2253580D01*
X-14421123Y-2368761D01*
X-14421119Y-2368765D01*
X-14421114Y-2368771D01*
X-13728025Y-3061859D01*
X-13705736Y-3094288D01*
X-13705400Y-3094095D01*
X-13702944Y-3098350D01*
X-13702430Y-3099097D01*
X-13702154Y-3099718D01*
X-13662150Y-3169007D01*
X-13607505Y-3263655D01*
X-13528688Y-3351190D01*
X-13480843Y-3404327D01*
X-13327704Y-3515589D01*
X-13327700Y-3515591D01*
X-13252428Y-3549104D01*
X-13215181Y-3574703D01*
X-11259181Y-5530704D01*
X-11259180Y-5530704D01*
X-11240220Y-5547735D01*
X-11239044Y-5548791D01*
X-11239045Y-5548791D01*
X-11207861Y-5573920D01*
X-11194879Y-5583281D01*
X-11163974Y-5605567D01*
X-11033097Y-5665338D01*
X-10990325Y-5677897D01*
X-10966063Y-5685022D01*
X-10966058Y-5685023D01*
X-10966054Y-5685024D01*
X-10823638Y-5705500D01*
X-10823635Y-5705500D01*
X-10661496Y-5705500D01*
X-10594457Y-5725185D01*
X-10562542Y-5754774D01*
X-10541006Y-5783293D01*
X-9791785Y-5783293D01*
X-9840129Y-5867028D01*
X-9870315Y-5999284D01*
X-9860178Y-6134561D01*
X-9810617Y-6260840D01*
X-9792711Y-6283293D01*
X-10541005Y-6283293D01*
X-10493431Y-6450498D01*
X-10493426Y-6450511D01*
X-10398432Y-6641284D01*
X-10269993Y-6811364D01*
X-10112493Y-6954944D01*
X-10112491Y-6954946D01*
X-9931292Y-7067139D01*
X-9931286Y-7067142D01*
X-9732552Y-7144131D01*
X-9666493Y-7156479D01*
X-9666493Y-6407496D01*
X-9613951Y-6443319D01*
X-9484321Y-6483305D01*
X-9382770Y-6483305D01*
X-9282351Y-6468169D01*
X-9166493Y-6412374D01*
X-9166493Y-6586679D01*
X-9183106Y-6648678D01*
X-9202178Y-6681711D01*
X-9202179Y-6681713D01*
X-9254994Y-6844262D01*
X-9260674Y-6861744D01*
X-9280460Y-7050000D01*
X-9260674Y-7238256D01*
X-9260673Y-7238259D01*
X-9202182Y-7418277D01*
X-9202179Y-7418284D01*
X-9107533Y-7582216D01*
X-9032492Y-7665557D01*
X-8980871Y-7722888D01*
X-8827735Y-7834148D01*
X-8827730Y-7834151D01*
X-8654808Y-7911142D01*
X-8654803Y-7911144D01*
X-8469646Y-7950500D01*
X-8469645Y-7950500D01*
X-8280356Y-7950500D01*
X-8280354Y-7950500D01*
X-8173427Y-7927772D01*
X-8103762Y-7933088D01*
X-8048028Y-7975225D01*
X-8023923Y-8040805D01*
X-8039100Y-8109006D01*
X-8040260Y-8111061D01*
X-8104600Y-8222502D01*
X-8104602Y-8222506D01*
X-8160582Y-8394796D01*
X-8163094Y-8402528D01*
X-8182880Y-8590784D01*
X-8163094Y-8779040D01*
X-8163093Y-8779043D01*
X-8104602Y-8959061D01*
X-8104599Y-8959068D01*
X-8096796Y-8972584D01*
X-8083327Y-8995912D01*
X-8066854Y-9063813D01*
X-8089707Y-9129839D01*
X-8144628Y-9173030D01*
X-8214182Y-9179671D01*
X-8276284Y-9147655D01*
X-8278395Y-9145593D01*
X-8344796Y-9079192D01*
X-8483226Y-8992210D01*
X-8637545Y-8938212D01*
X-8799996Y-8919909D01*
X-8801219Y-8919909D01*
X-8801981Y-8919685D01*
X-8806919Y-8919129D01*
X-8806822Y-8918263D01*
X-8868258Y-8900224D01*
X-8914013Y-8847420D01*
X-8924439Y-8809792D01*
X-8938213Y-8687544D01*
X-8938214Y-8687542D01*
X-8938214Y-8687539D01*
X-8992211Y-8533225D01*
X-9079192Y-8394796D01*
X-9194796Y-8279192D01*
X-9333226Y-8192210D01*
X-9487545Y-8138212D01*
X-9649996Y-8119909D01*
X-9650004Y-8119909D01*
X-9812456Y-8138212D01*
X-9966775Y-8192210D01*
X-10105205Y-8279192D01*
X-10220808Y-8394795D01*
X-10307790Y-8533225D01*
X-10361788Y-8687544D01*
X-10380091Y-8849996D01*
X-10380091Y-8850003D01*
X-10361788Y-9012455D01*
X-10307790Y-9166774D01*
X-10293857Y-9188948D01*
X-10288029Y-9209572D01*
X-10284119Y-9211588D01*
X-10264696Y-9235358D01*
X-10220810Y-9305202D01*
X-10220808Y-9305204D01*
X-10105204Y-9420808D01*
X-9966775Y-9507789D01*
X-9812461Y-9561786D01*
X-9812458Y-9561786D01*
X-9812456Y-9561787D01*
X-9650004Y-9580091D01*
X-9648781Y-9580091D01*
X-9648020Y-9580314D01*
X-9643081Y-9580871D01*
X-9643179Y-9581736D01*
X-9581742Y-9599776D01*
X-9535987Y-9652580D01*
X-9525561Y-9690208D01*
X-9511788Y-9812455D01*
X-9457790Y-9966774D01*
X-9370808Y-10105204D01*
X-9328337Y-10147675D01*
X-9297614Y-10203941D01*
X-9267496Y-10212165D01*
X-9255216Y-10220798D01*
X-9255205Y-10220807D01*
X-9255204Y-10220808D01*
X-9116775Y-10307789D01*
X-8962461Y-10361786D01*
X-8962458Y-10361786D01*
X-8962456Y-10361787D01*
X-8800004Y-10380091D01*
X-8800000Y-10380091D01*
X-8799996Y-10380091D01*
X-8637545Y-10361787D01*
X-8637544Y-10361786D01*
X-8637539Y-10361786D01*
X-8483225Y-10307789D01*
X-8344796Y-10220808D01*
X-8229192Y-10105204D01*
X-8142211Y-9966775D01*
X-8088214Y-9812461D01*
X-8088213Y-9812455D01*
X-8069909Y-9650003D01*
X-8069909Y-9649996D01*
X-8088213Y-9487546D01*
X-8088214Y-9487545D01*
X-8088214Y-9487539D01*
X-8142211Y-9333225D01*
X-8142213Y-9333222D01*
X-8142701Y-9331827D01*
X-8146262Y-9262048D01*
X-8111533Y-9201420D01*
X-8049540Y-9169193D01*
X-7979965Y-9175598D01*
X-7933510Y-9207899D01*
X-7883292Y-9263671D01*
X-7883291Y-9263672D01*
X-7730155Y-9374932D01*
X-7730150Y-9374935D01*
X-7557228Y-9451926D01*
X-7557223Y-9451928D01*
X-7372066Y-9491284D01*
X-7372065Y-9491284D01*
X-7284429Y-9491284D01*
X-7217390Y-9510969D01*
X-7171635Y-9563773D01*
X-7160958Y-9603841D01*
X-7157642Y-9639623D01*
X-7157642Y-9639625D01*
X-7099322Y-9844602D01*
X-7099314Y-9844622D01*
X-7004321Y-10035395D01*
X-6875880Y-10205477D01*
X-6718380Y-10349057D01*
X-6718378Y-10349059D01*
X-6537179Y-10461252D01*
X-6537173Y-10461255D01*
X-6338439Y-10538244D01*
X-6272380Y-10550592D01*
X-6272380Y-9801609D01*
X-6219838Y-9837432D01*
X-6090208Y-9877418D01*
X-5988657Y-9877418D01*
X-5888238Y-9862282D01*
X-5772380Y-9806487D01*
X-5772380Y-10550591D01*
X-5706322Y-10538244D01*
X-5507588Y-10461255D01*
X-5507582Y-10461252D01*
X-5326383Y-10349059D01*
X-5326381Y-10349057D01*
X-5168881Y-10205477D01*
X-5040443Y-10035399D01*
X-4956359Y-9866533D01*
X-4908856Y-9815296D01*
X-4841193Y-9797874D01*
X-4820001Y-9800462D01*
X-4819647Y-9800500D01*
X-4819646Y-9800500D01*
X-4630356Y-9800500D01*
X-4630354Y-9800500D01*
X-4445197Y-9761144D01*
X-4272270Y-9684151D01*
X-4119129Y-9572888D01*
X-3992467Y-9432216D01*
X-3897821Y-9268284D01*
X-3839326Y-9088256D01*
X-3819540Y-8900000D01*
X-3839326Y-8711744D01*
X-3897821Y-8531716D01*
X-3992467Y-8367784D01*
X-4119129Y-8227112D01*
X-4119130Y-8227111D01*
X-4272266Y-8115851D01*
X-4272271Y-8115848D01*
X-4445193Y-8038857D01*
X-4445198Y-8038855D01*
X-4590999Y-8007865D01*
X-4630354Y-7999500D01*
X-4819646Y-7999500D01*
X-4852103Y-8006398D01*
X-5004803Y-8038855D01*
X-5004808Y-8038857D01*
X-5177730Y-8115848D01*
X-5177735Y-8115851D01*
X-5330871Y-8227111D01*
X-5330872Y-8227112D01*
X-5430470Y-8337726D01*
X-5489957Y-8374374D01*
X-5559814Y-8373043D01*
X-5567412Y-8370380D01*
X-5706317Y-8316569D01*
X-5706322Y-8316568D01*
X-5772380Y-8304219D01*
X-5772380Y-9053202D01*
X-5824922Y-9017380D01*
X-5954552Y-8977394D01*
X-6056103Y-8977394D01*
X-6156522Y-8992530D01*
X-6272380Y-9048324D01*
X-6272380Y-8304219D01*
X-6307965Y-8310871D01*
X-6377480Y-8303840D01*
X-6432159Y-8260342D01*
X-6448681Y-8227301D01*
X-6450240Y-8222503D01*
X-6450241Y-8222502D01*
X-6450241Y-8222500D01*
X-6544887Y-8058568D01*
X-6671549Y-7917896D01*
X-6680845Y-7911142D01*
X-6824686Y-7806635D01*
X-6824691Y-7806632D01*
X-6997613Y-7729641D01*
X-6997618Y-7729639D01*
X-7143419Y-7698649D01*
X-7182774Y-7690284D01*
X-7372066Y-7690284D01*
X-7478994Y-7713011D01*
X-7548660Y-7707695D01*
X-7604393Y-7665557D01*
X-7628498Y-7599977D01*
X-7613321Y-7531776D01*
X-7612204Y-7529797D01*
X-7547821Y-7418284D01*
X-7489326Y-7238256D01*
X-7469540Y-7050000D01*
X-7489326Y-6861744D01*
X-7547821Y-6681716D01*
X-7642467Y-6517784D01*
X-7769129Y-6377112D01*
X-7769130Y-6377111D01*
X-7922266Y-6265851D01*
X-7922271Y-6265848D01*
X-8095193Y-6188857D01*
X-8095198Y-6188855D01*
X-8240999Y-6157865D01*
X-8280354Y-6149500D01*
X-8469646Y-6149500D01*
X-8502103Y-6156398D01*
X-8654803Y-6188855D01*
X-8654808Y-6188857D01*
X-8827731Y-6265849D01*
X-8829171Y-6266681D01*
X-8830245Y-6266968D01*
X-8833666Y-6268492D01*
X-8833908Y-6267950D01*
X-8891169Y-6283293D01*
X-9041201Y-6283293D01*
X-8992857Y-6199558D01*
X-8962671Y-6067302D01*
X-8972808Y-5932025D01*
X-9022369Y-5805746D01*
X-9040275Y-5783293D01*
X-8291980Y-5783293D01*
X-8270444Y-5754774D01*
X-8214336Y-5713137D01*
X-8171490Y-5705500D01*
X-4160746Y-5705500D01*
X-4093707Y-5725185D01*
X-4073065Y-5741819D01*
X-3695631Y-6119254D01*
X-3662146Y-6180577D01*
X-3667130Y-6250269D01*
X-3695628Y-6294613D01*
X-3720805Y-6319790D01*
X-3720806Y-6319792D01*
X-3807790Y-6458225D01*
X-3861788Y-6612544D01*
X-3880091Y-6774996D01*
X-3880091Y-6775003D01*
X-3861788Y-6937455D01*
X-3807790Y-7091774D01*
X-3720808Y-7230204D01*
X-3605202Y-7345810D01*
X-3594780Y-7352358D01*
X-3548488Y-7404692D01*
X-3537839Y-7473745D01*
X-3538013Y-7474999D01*
X-3555500Y-7596626D01*
X-3555500Y-11762173D01*
X-3554050Y-11789227D01*
X-3554050Y-11789228D01*
X-3549769Y-11829036D01*
X-3541115Y-11882445D01*
X-3541115Y-11882447D01*
X-3519423Y-11940603D01*
X-3490832Y-12017257D01*
X-3457347Y-12078580D01*
X-3371123Y-12193761D01*
X-3371119Y-12193765D01*
X-3371114Y-12193771D01*
X-2484181Y-13080704D01*
X-2484180Y-13080704D01*
X-2464044Y-13098791D01*
X-2464045Y-13098791D01*
X-2432861Y-13123920D01*
X-2423464Y-13130696D01*
X-2388974Y-13155567D01*
X-2258097Y-13215338D01*
X-2215325Y-13227897D01*
X-2191063Y-13235022D01*
X-2191058Y-13235023D01*
X-2191054Y-13235024D01*
X-2048638Y-13255500D01*
X-1102658Y-13255500D01*
X-1035619Y-13275185D01*
X-989864Y-13327989D01*
X-979920Y-13397147D01*
X-1008945Y-13460703D01*
X-1031535Y-13481075D01*
X-1146403Y-13561505D01*
X-1313495Y-13728597D01*
X-1449035Y-13922169D01*
X-1449036Y-13922171D01*
X-1548902Y-14136335D01*
X-1548906Y-14136344D01*
X-1610062Y-14364586D01*
X-1610064Y-14364596D01*
X-1625500Y-14541034D01*
X-1625500Y-14908966D01*
X-1610064Y-15085403D01*
X-1610062Y-15085413D01*
X-1548906Y-15313655D01*
X-1548904Y-15313659D01*
X-1548903Y-15313663D01*
X-1525000Y-15364922D01*
X-1449036Y-15527828D01*
X-1449035Y-15527830D01*
X-1313495Y-15721402D01*
X-1223847Y-15811049D01*
X-1146401Y-15888495D01*
X-1089939Y-15928030D01*
X-952835Y-16024032D01*
X-952833Y-16024033D01*
X-952830Y-16024035D01*
X-738663Y-16123903D01*
X-510408Y-16185063D01*
X-333966Y-16200500D01*
X-275001Y-16205659D01*
X-275000Y-16205659D01*
X-274999Y-16205659D01*
X-216034Y-16200500D01*
X-39592Y-16185063D01*
X188663Y-16123903D01*
X402829Y-16024035D01*
X596401Y-15888495D01*
X763495Y-15721401D01*
X873426Y-15564401D01*
X928001Y-15520778D01*
X997500Y-15513584D01*
X1059855Y-15545106D01*
X1076571Y-15564398D01*
X1147144Y-15665187D01*
X1186506Y-15721403D01*
X1276153Y-15811049D01*
X1353599Y-15888495D01*
X1410061Y-15928030D01*
X1547165Y-16024032D01*
X1547167Y-16024033D01*
X1547170Y-16024035D01*
X1761337Y-16123903D01*
X1989592Y-16185063D01*
X2166034Y-16200500D01*
X2224999Y-16205659D01*
X2225000Y-16205659D01*
X2225001Y-16205659D01*
X2283966Y-16200500D01*
X2460408Y-16185063D01*
X2688663Y-16123903D01*
X2902829Y-16024035D01*
X3096401Y-15888495D01*
X3263495Y-15721401D01*
X3373732Y-15563965D01*
X3428306Y-15520342D01*
X3497805Y-15513148D01*
X3560159Y-15544670D01*
X3576880Y-15563967D01*
X3686886Y-15721073D01*
X3686891Y-15721079D01*
X3853917Y-15888105D01*
X4047421Y-16023600D01*
X4261507Y-16123429D01*
X4261516Y-16123433D01*
X4475000Y-16180634D01*
X4475000Y-15133018D01*
X4589801Y-15185446D01*
X4691025Y-15200000D01*
X4758975Y-15200000D01*
X4860199Y-15185446D01*
X4975000Y-15133018D01*
X4975000Y-16180633D01*
X5188483Y-16123433D01*
X5188492Y-16123429D01*
X5402577Y-16023600D01*
X5402579Y-16023599D01*
X5596073Y-15888113D01*
X5596079Y-15888108D01*
X5743331Y-15740857D01*
X5804654Y-15707372D01*
X5874346Y-15712356D01*
X5930279Y-15754228D01*
X5936551Y-15763441D01*
X5940186Y-15769334D01*
X6032288Y-15918656D01*
X6156344Y-16042712D01*
X6305666Y-16134814D01*
X6472203Y-16189999D01*
X6574991Y-16200500D01*
X7875008Y-16200499D01*
X7977797Y-16189999D01*
X8144334Y-16134814D01*
X8293656Y-16042712D01*
X8417712Y-15918656D01*
X8509814Y-15769334D01*
X8564999Y-15602797D01*
X8575500Y-15500009D01*
X8575500Y-15499999D01*
X12095006Y-15499999D01*
X12114966Y-15868142D01*
X12114967Y-15868159D01*
X12174610Y-16231960D01*
X12174616Y-16231986D01*
X12273243Y-16587209D01*
X12273245Y-16587216D01*
X12409706Y-16929710D01*
X12409715Y-16929728D01*
X12582406Y-17255458D01*
X12789307Y-17560614D01*
X12925496Y-17720948D01*
X12925497Y-17720949D01*
X14241351Y-16405095D01*
X14295456Y-16483480D01*
X14468816Y-16663966D01*
X14594865Y-16758686D01*
X13276520Y-18077031D01*
X13276520Y-18077032D01*
X13295643Y-18095147D01*
X13295655Y-18095158D01*
X13589158Y-18318274D01*
X13589175Y-18318286D01*
X13905067Y-18508350D01*
X13905080Y-18508357D01*
X14239671Y-18663155D01*
X14589068Y-18780882D01*
X14949134Y-18860138D01*
X15315655Y-18899999D01*
X15315663Y-18900000D01*
X15684337Y-18900000D01*
X15684344Y-18899999D01*
X16050865Y-18860138D01*
X16410931Y-18780882D01*
X16760328Y-18663155D01*
X17094919Y-18508357D01*
X17094932Y-18508350D01*
X17410824Y-18318286D01*
X17410841Y-18318274D01*
X17704340Y-18095161D01*
X17723479Y-18077031D01*
X16406879Y-16760431D01*
X16434180Y-16743168D01*
X16621501Y-16577216D01*
X16760511Y-16406958D01*
X18074501Y-17720948D01*
X18074502Y-17720948D01*
X18210690Y-17560615D01*
X18210701Y-17560601D01*
X18417593Y-17255458D01*
X18590284Y-16929728D01*
X18590293Y-16929710D01*
X18726754Y-16587216D01*
X18726756Y-16587209D01*
X18825383Y-16231986D01*
X18825389Y-16231960D01*
X18885032Y-15868159D01*
X18885033Y-15868142D01*
X18904994Y-15499999D01*
X18904994Y-15499997D01*
X18885033Y-15131857D01*
X18885032Y-15131840D01*
X18825389Y-14768039D01*
X18825383Y-14768013D01*
X18726756Y-14412790D01*
X18726754Y-14412783D01*
X18590293Y-14070289D01*
X18590284Y-14070271D01*
X18417593Y-13744541D01*
X18210692Y-13439385D01*
X18074502Y-13279050D01*
X18074501Y-13279049D01*
X16758647Y-14594903D01*
X16704544Y-14516520D01*
X16531184Y-14336034D01*
X16405133Y-14241313D01*
X17723478Y-12922967D01*
X17723478Y-12922966D01*
X17704356Y-12904852D01*
X17704344Y-12904841D01*
X17410841Y-12681725D01*
X17410824Y-12681713D01*
X17094932Y-12491649D01*
X17094919Y-12491642D01*
X16760328Y-12336844D01*
X16410931Y-12219117D01*
X16050865Y-12139861D01*
X15684344Y-12100000D01*
X15315655Y-12100000D01*
X14949134Y-12139861D01*
X14589068Y-12219117D01*
X14239671Y-12336844D01*
X13905080Y-12491642D01*
X13905067Y-12491649D01*
X13589175Y-12681713D01*
X13589158Y-12681725D01*
X13295657Y-12904840D01*
X13295643Y-12904852D01*
X13276520Y-12922966D01*
X13276520Y-12922968D01*
X14593120Y-14239568D01*
X14565820Y-14256832D01*
X14378499Y-14422784D01*
X14239488Y-14593040D01*
X12925497Y-13279049D01*
X12925496Y-13279050D01*
X12789314Y-13439376D01*
X12789307Y-13439386D01*
X12582406Y-13744541D01*
X12409715Y-14070271D01*
X12409706Y-14070289D01*
X12273245Y-14412783D01*
X12273243Y-14412790D01*
X12174616Y-14768013D01*
X12174610Y-14768039D01*
X12114967Y-15131840D01*
X12114966Y-15131857D01*
X12095006Y-15499997D01*
X12095006Y-15499999D01*
X8575500Y-15499999D01*
X8575499Y-13949992D01*
X8574156Y-13936849D01*
X8564999Y-13847203D01*
X8564998Y-13847200D01*
X8509814Y-13680666D01*
X8417712Y-13531344D01*
X8293656Y-13407288D01*
X8144334Y-13315186D01*
X7977797Y-13260001D01*
X7977795Y-13260000D01*
X7875010Y-13249500D01*
X6574998Y-13249500D01*
X6574981Y-13249501D01*
X6472203Y-13260000D01*
X6472200Y-13260001D01*
X6305668Y-13315185D01*
X6305663Y-13315187D01*
X6156342Y-13407289D01*
X6032288Y-13531343D01*
X6032285Y-13531347D01*
X5936550Y-13686558D01*
X5884602Y-13733283D01*
X5815640Y-13744504D01*
X5751558Y-13716661D01*
X5743331Y-13709143D01*
X5596075Y-13561888D01*
X5497524Y-13492881D01*
X5453899Y-13438304D01*
X5446707Y-13368806D01*
X5478230Y-13306451D01*
X5525312Y-13275126D01*
X5617257Y-13240832D01*
X5678580Y-13207347D01*
X5793761Y-13121123D01*
X6805697Y-12109188D01*
X6805697Y-12109187D01*
X6805704Y-12109181D01*
X6805704Y-12109180D01*
X6823791Y-12089044D01*
X6823791Y-12089045D01*
X6848920Y-12057861D01*
X6854041Y-12050759D01*
X6880567Y-12013974D01*
X6940338Y-11883097D01*
X6960023Y-11816058D01*
X6960024Y-11816054D01*
X6980500Y-11673638D01*
X6980500Y-4769746D01*
X7000185Y-4702707D01*
X7052989Y-4656952D01*
X7122147Y-4647008D01*
X7185703Y-4676033D01*
X7192178Y-4682063D01*
X7871901Y-5361786D01*
X8515819Y-6005704D01*
X8515820Y-6005704D01*
X8524231Y-6013259D01*
X8535956Y-6023791D01*
X8535955Y-6023791D01*
X8567139Y-6048920D01*
X8567142Y-6048922D01*
X8611026Y-6080567D01*
X8741903Y-6140338D01*
X8780073Y-6151546D01*
X8808937Y-6160022D01*
X8808942Y-6160023D01*
X8808946Y-6160024D01*
X8951362Y-6180500D01*
X8951365Y-6180500D01*
X9033967Y-6180500D01*
X9033969Y-6180500D01*
X9132589Y-6170787D01*
X9180041Y-6161348D01*
X9264003Y-6135877D01*
X9333870Y-6135254D01*
X9335957Y-6135866D01*
X9419959Y-6161348D01*
X9467411Y-6170787D01*
X9566031Y-6180500D01*
X9566033Y-6180500D01*
X11862173Y-6180500D01*
X11862177Y-6180500D01*
X11889216Y-6179051D01*
X11889223Y-6179050D01*
X11889227Y-6179050D01*
X11889228Y-6179050D01*
X11929036Y-6174769D01*
X11982448Y-6166114D01*
X12117257Y-6115832D01*
X12178580Y-6082347D01*
X12293761Y-5996123D01*
X12855697Y-5434188D01*
X12855697Y-5434187D01*
X12855704Y-5434181D01*
X12855704Y-5434180D01*
X12873791Y-5414044D01*
X12873791Y-5414045D01*
X12898920Y-5382861D01*
X12914117Y-5361786D01*
X12930567Y-5338974D01*
X12990338Y-5208097D01*
X13010023Y-5141058D01*
X13010024Y-5141054D01*
X13030500Y-4998638D01*
X13030500Y-4764452D01*
X13050185Y-4697413D01*
X13102989Y-4651658D01*
X13172147Y-4641714D01*
X13235703Y-4670739D01*
X13242181Y-4676771D01*
X13987788Y-5422378D01*
X14021273Y-5483701D01*
X14018038Y-5548377D01*
X13989327Y-5636740D01*
X13989326Y-5636743D01*
X13982193Y-5704608D01*
X13969540Y-5825000D01*
X13989326Y-6013256D01*
X13989327Y-6013259D01*
X14047820Y-6193284D01*
X14059204Y-6213001D01*
X14075675Y-6280901D01*
X14059204Y-6336999D01*
X14047820Y-6356715D01*
X13993672Y-6523368D01*
X13989326Y-6536744D01*
X13969540Y-6725000D01*
X13989326Y-6913256D01*
X13989327Y-6913259D01*
X14047820Y-7093284D01*
X14059204Y-7113001D01*
X14075675Y-7180901D01*
X14059204Y-7236999D01*
X14047820Y-7256715D01*
X13990057Y-7434493D01*
X13989326Y-7436744D01*
X13969540Y-7625000D01*
X13989326Y-7813256D01*
X13989327Y-7813259D01*
X14047821Y-7993285D01*
X14050464Y-7999221D01*
X14047790Y-8000411D01*
X14061240Y-8055950D01*
X14048353Y-8099839D01*
X14050464Y-8100779D01*
X14047821Y-8106714D01*
X13989327Y-8286740D01*
X13989326Y-8286744D01*
X13969540Y-8475000D01*
X13989326Y-8663256D01*
X13989327Y-8663259D01*
X14047818Y-8843277D01*
X14047821Y-8843284D01*
X14142467Y-9007216D01*
X14246720Y-9123000D01*
X14269129Y-9147888D01*
X14422265Y-9259148D01*
X14422270Y-9259151D01*
X14595192Y-9336142D01*
X14595197Y-9336144D01*
X14780354Y-9375500D01*
X14780355Y-9375500D01*
X14969644Y-9375500D01*
X14969646Y-9375500D01*
X15154803Y-9336144D01*
X15327730Y-9259151D01*
X15480871Y-9147888D01*
X15607533Y-9007216D01*
X15702179Y-8843284D01*
X15760674Y-8663256D01*
X15780460Y-8475000D01*
X15760674Y-8286744D01*
X15702179Y-8106716D01*
X15702176Y-8106710D01*
X15699538Y-8100786D01*
X15702236Y-8099584D01*
X15688751Y-8044206D01*
X15701681Y-8000168D01*
X15699538Y-7999214D01*
X15702174Y-7993292D01*
X15702179Y-7993284D01*
X15760674Y-7813256D01*
X15780460Y-7625000D01*
X15760674Y-7436744D01*
X15702179Y-7256716D01*
X15690795Y-7236998D01*
X15674322Y-7169102D01*
X15690794Y-7113001D01*
X15702179Y-7093284D01*
X15760674Y-6913256D01*
X15780460Y-6725000D01*
X15760674Y-6536744D01*
X15702179Y-6356716D01*
X15690795Y-6336998D01*
X15674322Y-6269102D01*
X15690794Y-6213001D01*
X15702179Y-6193284D01*
X15707385Y-6177263D01*
X15746819Y-6119590D01*
X15811177Y-6092391D01*
X15880024Y-6104303D01*
X15931501Y-6151546D01*
X15943246Y-6177263D01*
X15972819Y-6268280D01*
X15972821Y-6268284D01*
X16067467Y-6432216D01*
X16141579Y-6514525D01*
X16194129Y-6572888D01*
X16347265Y-6684148D01*
X16347270Y-6684151D01*
X16520192Y-6761142D01*
X16520197Y-6761144D01*
X16705354Y-6800500D01*
X16705355Y-6800500D01*
X16894644Y-6800500D01*
X16894646Y-6800500D01*
X17079803Y-6761144D01*
X17252730Y-6684151D01*
X17405871Y-6572888D01*
X17532533Y-6432216D01*
X17627179Y-6268284D01*
X17685674Y-6088256D01*
X17705460Y-5900000D01*
X17685674Y-5711744D01*
X17627179Y-5531716D01*
X17532533Y-5367784D01*
X17405871Y-5227112D01*
X17405870Y-5227111D01*
X17252734Y-5115851D01*
X17252729Y-5115848D01*
X17079807Y-5038857D01*
X17079802Y-5038855D01*
X16934001Y-5007865D01*
X16894646Y-4999500D01*
X16705354Y-4999500D01*
X16672897Y-5006398D01*
X16520197Y-5038855D01*
X16520192Y-5038857D01*
X16347270Y-5115848D01*
X16347265Y-5115851D01*
X16194129Y-5227111D01*
X16067466Y-5367785D01*
X15972821Y-5531715D01*
X15972819Y-5531721D01*
X15967614Y-5547739D01*
X15928174Y-5605413D01*
X15863815Y-5632609D01*
X15794969Y-5620693D01*
X15743495Y-5573447D01*
X15731753Y-5547735D01*
X15702181Y-5456721D01*
X15702178Y-5456715D01*
X15607533Y-5292784D01*
X15480871Y-5152112D01*
X15465657Y-5141058D01*
X15431151Y-5115987D01*
X15403711Y-5088544D01*
X15400089Y-5083559D01*
X15396885Y-5078679D01*
X15373172Y-5038583D01*
X15373165Y-5038574D01*
X15359006Y-5024415D01*
X15346368Y-5009619D01*
X15338390Y-4998638D01*
X15334594Y-4993413D01*
X15317755Y-4979483D01*
X15298688Y-4963709D01*
X15294376Y-4959786D01*
X10816332Y-481741D01*
X10782847Y-420418D01*
X10787831Y-350726D01*
X10829703Y-294793D01*
X10895167Y-270376D01*
X10917894Y-270839D01*
X10955735Y-275103D01*
X10999998Y-280091D01*
X11000000Y-280091D01*
X11000004Y-280091D01*
X11162455Y-261787D01*
X11162456Y-261786D01*
X11162461Y-261786D01*
X11223323Y-240488D01*
X11293098Y-236926D01*
X11305226Y-240487D01*
X11418406Y-280091D01*
X11437542Y-286787D01*
X11599996Y-305091D01*
X11600000Y-305091D01*
X11600004Y-305091D01*
X11762455Y-286787D01*
X11762456Y-286786D01*
X11762461Y-286786D01*
X11916775Y-232789D01*
X12055204Y-145808D01*
X12170808Y-30204D01*
X12257789Y108225D01*
X12311786Y262539D01*
X12315739Y297622D01*
X12330091Y424997D01*
X12330091Y425004D01*
X12311787Y587456D01*
X12311786Y587458D01*
X12311786Y587461D01*
X12257789Y741775D01*
X12170808Y880204D01*
X12055204Y995808D01*
X12028890Y1012342D01*
X11916774Y1082790D01*
X11762455Y1136788D01*
X11600004Y1155091D01*
X11599996Y1155091D01*
X11437540Y1136787D01*
X11437539Y1136787D01*
X11376674Y1115490D01*
X11306895Y1111929D01*
X11294767Y1115490D01*
X11162455Y1161788D01*
X11000004Y1180091D01*
X10999996Y1180091D01*
X10837544Y1161788D01*
X10703454Y1114868D01*
X10633675Y1111307D01*
X10621546Y1114868D01*
X10487455Y1161788D01*
X10325004Y1180091D01*
X10324996Y1180091D01*
X10162544Y1161788D01*
X10008225Y1107790D01*
X9869795Y1020808D01*
X9754192Y905205D01*
X9711583Y837392D01*
X9659248Y791101D01*
X9590195Y780453D01*
X9526346Y808828D01*
X9518908Y815683D01*
X9500803Y833788D01*
X9490980Y846050D01*
X9490759Y845866D01*
X9485786Y851877D01*
X9435364Y899227D01*
X9424919Y909672D01*
X9414475Y920117D01*
X9408986Y924375D01*
X9404561Y928153D01*
X9370582Y960062D01*
X9370580Y960064D01*
X9370577Y960065D01*
X9353029Y969712D01*
X9336763Y980396D01*
X9320933Y992675D01*
X9278168Y1011182D01*
X9272922Y1013752D01*
X9232093Y1036197D01*
X9232092Y1036198D01*
X9212693Y1041178D01*
X9194281Y1047482D01*
X9175898Y1055438D01*
X9175892Y1055440D01*
X9129874Y1062728D01*
X9124152Y1063913D01*
X9079021Y1075500D01*
X9079019Y1075500D01*
X9058984Y1075500D01*
X9039586Y1077027D01*
X9032162Y1078203D01*
X9019805Y1080160D01*
X9019804Y1080160D01*
X8973416Y1075775D01*
X8967578Y1075500D01*
X8110452Y1075500D01*
X8043413Y1095185D01*
X8022771Y1111819D01*
X7598096Y1536494D01*
X7150803Y1983788D01*
X7140980Y1996050D01*
X7140759Y1995866D01*
X7135786Y2001877D01*
X7093299Y2041775D01*
X7085364Y2049227D01*
X7074919Y2059672D01*
X7064475Y2070117D01*
X7058986Y2074375D01*
X7054561Y2078153D01*
X7020582Y2110062D01*
X7020580Y2110064D01*
X7020577Y2110065D01*
X7003029Y2119712D01*
X6986763Y2130396D01*
X6970933Y2142675D01*
X6928168Y2161182D01*
X6922922Y2163752D01*
X6882093Y2186197D01*
X6882092Y2186198D01*
X6862693Y2191178D01*
X6844281Y2197482D01*
X6825898Y2205438D01*
X6825892Y2205440D01*
X6779874Y2212728D01*
X6774152Y2213913D01*
X6729021Y2225500D01*
X6729019Y2225500D01*
X6708984Y2225500D01*
X6689586Y2227027D01*
X6682162Y2228203D01*
X6669805Y2230160D01*
X6669804Y2230160D01*
X6623416Y2225775D01*
X6617578Y2225500D01*
X5222093Y2225500D01*
X5155054Y2245185D01*
X5109299Y2297989D01*
X5099355Y2367147D01*
X5104162Y2387818D01*
X5138950Y2494885D01*
X5160674Y2561744D01*
X5180460Y2750000D01*
X5160674Y2938256D01*
X5102179Y3118284D01*
X5007533Y3282216D01*
X4928801Y3369657D01*
X4898571Y3432649D01*
X4903907Y3493578D01*
X4907486Y3503808D01*
X4948204Y3560583D01*
X4983572Y3579897D01*
X5091525Y3617671D01*
X5229954Y3704652D01*
X5345558Y3820256D01*
X5432539Y3958685D01*
X5450816Y4010920D01*
X5491537Y4067696D01*
X5526902Y4087007D01*
X5541775Y4092211D01*
X5680204Y4179192D01*
X5795808Y4294796D01*
X5882789Y4433225D01*
X5896616Y4472742D01*
X5937338Y4529517D01*
X5972705Y4548829D01*
X5976399Y4550122D01*
X5991641Y4555455D01*
X6130070Y4642436D01*
X6245674Y4758040D01*
X6332655Y4896469D01*
X6386652Y5050783D01*
X6389200Y5073398D01*
X6404957Y5213241D01*
X6404957Y5213248D01*
X6386653Y5375700D01*
X6386652Y5375702D01*
X6386652Y5375705D01*
X6332655Y5530019D01*
X6245674Y5668448D01*
X6130070Y5784052D01*
X5991641Y5871033D01*
X5887955Y5907315D01*
X5831180Y5948036D01*
X5820492Y5975000D01*
X14594540Y5975000D01*
X14614326Y5786744D01*
X14614327Y5786741D01*
X14672818Y5606723D01*
X14672821Y5606716D01*
X14767467Y5442784D01*
X14839795Y5362456D01*
X14894129Y5302112D01*
X15047265Y5190852D01*
X15047270Y5190849D01*
X15220192Y5113858D01*
X15220197Y5113856D01*
X15405354Y5074500D01*
X15405355Y5074500D01*
X15594644Y5074500D01*
X15594646Y5074500D01*
X15779803Y5113856D01*
X15952730Y5190849D01*
X16105871Y5302112D01*
X16232533Y5442784D01*
X16327179Y5606716D01*
X16385674Y5786744D01*
X16405460Y5975000D01*
X16385674Y6163256D01*
X16327179Y6343284D01*
X16232533Y6507216D01*
X16105871Y6647888D01*
X16085813Y6662461D01*
X15950138Y6761035D01*
X15907472Y6816365D01*
X15901493Y6885978D01*
X15934099Y6947773D01*
X15952140Y6961820D01*
X15951625Y6962529D01*
X16050175Y7034130D01*
X16110023Y7077612D01*
X16236685Y7218284D01*
X16331331Y7382216D01*
X16389826Y7562244D01*
X16409612Y7750500D01*
X16389826Y7938756D01*
X16331331Y8118784D01*
X16236685Y8282716D01*
X16110023Y8423388D01*
X16050134Y8466900D01*
X15956886Y8534649D01*
X15956881Y8534652D01*
X15783959Y8611643D01*
X15783954Y8611645D01*
X15638153Y8642635D01*
X15598798Y8651000D01*
X15409506Y8651000D01*
X15377049Y8644102D01*
X15224349Y8611645D01*
X15224344Y8611643D01*
X15051422Y8534652D01*
X15051417Y8534649D01*
X14898281Y8423389D01*
X14771618Y8282715D01*
X14676973Y8118785D01*
X14676970Y8118778D01*
X14631517Y7978887D01*
X14618478Y7938756D01*
X14598692Y7750500D01*
X14618478Y7562244D01*
X14618479Y7562241D01*
X14676970Y7382223D01*
X14676973Y7382216D01*
X14771619Y7218284D01*
X14891306Y7085359D01*
X14898281Y7077612D01*
X15054013Y6964466D01*
X15096679Y6909136D01*
X15102658Y6839523D01*
X15070052Y6777728D01*
X15052015Y6763675D01*
X15052527Y6762971D01*
X14894129Y6647889D01*
X14767466Y6507215D01*
X14672821Y6343285D01*
X14672818Y6343278D01*
X14620814Y6183225D01*
X14614326Y6163256D01*
X14594540Y5975000D01*
X5820492Y5975000D01*
X5805433Y6012989D01*
X5818889Y6081551D01*
X5823918Y6090329D01*
X5841026Y6117555D01*
X5882289Y6183225D01*
X5936286Y6337539D01*
X5936933Y6343278D01*
X5954591Y6499997D01*
X5954591Y6500004D01*
X5936287Y6662456D01*
X5936286Y6662458D01*
X5936286Y6662461D01*
X5882289Y6816775D01*
X5795308Y6955204D01*
X5679704Y7070808D01*
X5570611Y7139356D01*
X5541274Y7157790D01*
X5386955Y7211788D01*
X5240616Y7228276D01*
X5176202Y7255343D01*
X5136647Y7312938D01*
X5130500Y7351496D01*
X5130500Y7670500D01*
X5150185Y7737539D01*
X5202989Y7783294D01*
X5254500Y7794500D01*
X6587173Y7794500D01*
X6587177Y7794500D01*
X6614216Y7795949D01*
X6614223Y7795950D01*
X6614227Y7795950D01*
X6614228Y7795950D01*
X6654036Y7800231D01*
X6660028Y7801202D01*
X6707448Y7808886D01*
X6842257Y7859168D01*
X6903580Y7892653D01*
X7018761Y7978877D01*
X7280697Y8240812D01*
X7280697Y8240813D01*
X7280704Y8240819D01*
X7280704Y8240820D01*
X7298791Y8260956D01*
X7298791Y8260955D01*
X7323920Y8292139D01*
X7328362Y8298301D01*
X7355567Y8336026D01*
X7415338Y8466903D01*
X7435023Y8533942D01*
X7435024Y8533946D01*
X7455500Y8676362D01*
X7455500Y10012177D01*
X7454051Y10039216D01*
X7449769Y10079036D01*
X7441114Y10132448D01*
X7390832Y10267257D01*
X7357347Y10328580D01*
X7271123Y10443761D01*
X7271117Y10443767D01*
X7271113Y10443772D01*
X6884181Y10830704D01*
X6884180Y10830704D01*
X6864044Y10848791D01*
X6864045Y10848791D01*
X6832861Y10873920D01*
X6788974Y10905567D01*
X6658100Y10965337D01*
X6591063Y10985022D01*
X6591057Y10985024D01*
X6505604Y10997310D01*
X6448638Y11005500D01*
X6448636Y11005500D01*
X5004224Y11005500D01*
X4937185Y11025185D01*
X4891430Y11077989D01*
X4881486Y11147147D01*
X4907747Y11207399D01*
X4920902Y11223693D01*
X4943735Y11251970D01*
X5057926Y11456381D01*
X5135929Y11677151D01*
X5175500Y11907928D01*
X5175500Y11957199D01*
X5195185Y12024238D01*
X5247989Y12069993D01*
X5317147Y12079937D01*
X5380703Y12050912D01*
X5417971Y11992921D01*
X5417982Y11992924D01*
X5417994Y11992885D01*
X5418477Y11992134D01*
X5419310Y11988835D01*
X5478482Y11806723D01*
X5478485Y11806716D01*
X5573131Y11642784D01*
X5699793Y11502112D01*
X5852929Y11390852D01*
X5852934Y11390849D01*
X6025856Y11313858D01*
X6025861Y11313856D01*
X6211018Y11274500D01*
X6211019Y11274500D01*
X6400308Y11274500D01*
X6400310Y11274500D01*
X6585467Y11313856D01*
X6758394Y11390849D01*
X6911535Y11502112D01*
X7038197Y11642784D01*
X7132843Y11806716D01*
X7191338Y11986744D01*
X7211124Y12175000D01*
X7191338Y12363256D01*
X7132843Y12543284D01*
X7038197Y12707216D01*
X6911535Y12847888D01*
X6903255Y12853904D01*
X6758398Y12959149D01*
X6758393Y12959152D01*
X6585471Y13036143D01*
X6585466Y13036145D01*
X6439665Y13067135D01*
X6400310Y13075500D01*
X6211018Y13075500D01*
X6178561Y13068602D01*
X6025861Y13036145D01*
X6025856Y13036143D01*
X5852934Y12959152D01*
X5852929Y12959149D01*
X5699793Y12847889D01*
X5573130Y12707215D01*
X5478485Y12543285D01*
X5478482Y12543278D01*
X5419990Y12363258D01*
X5419989Y12363255D01*
X5419789Y12361344D01*
X5419364Y12360313D01*
X5418640Y12356903D01*
X5418016Y12357036D01*
X5393203Y12296731D01*
X5335904Y12256748D01*
X5266085Y12254090D01*
X5205913Y12289601D01*
X5174491Y12352007D01*
X5172916Y12363794D01*
X5160617Y12508297D01*
X5101617Y12734890D01*
X5005175Y12948245D01*
X5005170Y12948253D01*
X4874064Y13142232D01*
X4874060Y13142237D01*
X4874057Y13142241D01*
X4712044Y13311283D01*
X4523792Y13450513D01*
X4523787Y13450516D01*
X4523785Y13450517D01*
X4470532Y13477367D01*
X4419533Y13525125D01*
X4402450Y13592875D01*
X4424708Y13659104D01*
X4467339Y13697143D01*
X4554906Y13744531D01*
X4734794Y13884544D01*
X4889183Y14052255D01*
X5013862Y14243091D01*
X5105430Y14451845D01*
X5161390Y14672824D01*
X5161391Y14672832D01*
X5180214Y14899994D01*
X5180214Y14900007D01*
X5161391Y15127169D01*
X5161389Y15127180D01*
X5105430Y15348156D01*
X5013862Y15556909D01*
X4889185Y15747743D01*
X4734791Y15915459D01*
X4734787Y15915462D01*
X4554909Y16055467D01*
X4554905Y16055470D01*
X4431851Y16122063D01*
X4382261Y16171283D01*
X4367153Y16239499D01*
X4371024Y16250000D01*
X5344540Y16250000D01*
X5364326Y16061744D01*
X5364327Y16061741D01*
X5422818Y15881723D01*
X5422821Y15881716D01*
X5517467Y15717784D01*
X5609896Y15615132D01*
X5644129Y15577112D01*
X5797265Y15465852D01*
X5797270Y15465849D01*
X5970191Y15388858D01*
X5970193Y15388858D01*
X5970197Y15388856D01*
X6065343Y15368633D01*
X6126820Y15335443D01*
X6160597Y15274280D01*
X6155945Y15204565D01*
X6114341Y15148433D01*
X6065340Y15126054D01*
X5995196Y15111144D01*
X5995192Y15111143D01*
X5822270Y15034152D01*
X5822265Y15034149D01*
X5669129Y14922889D01*
X5542466Y14782215D01*
X5447821Y14618285D01*
X5447818Y14618278D01*
X5393741Y14451845D01*
X5389326Y14438256D01*
X5369540Y14250000D01*
X5389326Y14061744D01*
X5389327Y14061741D01*
X5447818Y13881723D01*
X5447821Y13881716D01*
X5542467Y13717784D01*
X5595303Y13659104D01*
X5669129Y13577112D01*
X5822265Y13465852D01*
X5822270Y13465849D01*
X5995192Y13388858D01*
X5995197Y13388856D01*
X6180354Y13349500D01*
X6180355Y13349500D01*
X6369644Y13349500D01*
X6369646Y13349500D01*
X6554803Y13388856D01*
X6727730Y13465849D01*
X6880871Y13577112D01*
X7007533Y13717784D01*
X7102179Y13881716D01*
X7160674Y14061744D01*
X7180460Y14250000D01*
X7160674Y14438256D01*
X7102179Y14618284D01*
X7007533Y14782216D01*
X6880871Y14922888D01*
X6880870Y14922889D01*
X6727734Y15034149D01*
X6727729Y15034152D01*
X6554807Y15111143D01*
X6554800Y15111145D01*
X6459661Y15131367D01*
X6398179Y15164559D01*
X6364402Y15225722D01*
X6369054Y15295437D01*
X6410658Y15351569D01*
X6459661Y15373947D01*
X6529803Y15388856D01*
X6702730Y15465849D01*
X6749735Y15500000D01*
X12095006Y15500000D01*
X12114966Y15131858D01*
X12114967Y15131841D01*
X12174610Y14768040D01*
X12174616Y14768014D01*
X12273243Y14412791D01*
X12273245Y14412784D01*
X12409706Y14070290D01*
X12409715Y14070272D01*
X12582406Y13744542D01*
X12789307Y13439386D01*
X12925496Y13279052D01*
X12925497Y13279051D01*
X14241351Y14594905D01*
X14295456Y14516520D01*
X14468816Y14336034D01*
X14594865Y14241314D01*
X13276520Y12922969D01*
X13276520Y12922968D01*
X13295643Y12904853D01*
X13295655Y12904842D01*
X13589158Y12681726D01*
X13589175Y12681714D01*
X13905067Y12491650D01*
X13905080Y12491643D01*
X14239671Y12336845D01*
X14589068Y12219118D01*
X14949134Y12139862D01*
X15315655Y12100001D01*
X15315663Y12100000D01*
X15684337Y12100000D01*
X15684344Y12100001D01*
X16050865Y12139862D01*
X16410931Y12219118D01*
X16760328Y12336845D01*
X17094919Y12491643D01*
X17094932Y12491650D01*
X17410824Y12681714D01*
X17410841Y12681726D01*
X17704340Y12904839D01*
X17723479Y12922969D01*
X16406879Y14239569D01*
X16434180Y14256832D01*
X16621501Y14422784D01*
X16760511Y14593042D01*
X18074501Y13279052D01*
X18074502Y13279052D01*
X18210690Y13439385D01*
X18210701Y13439399D01*
X18417593Y13744542D01*
X18590284Y14070272D01*
X18590293Y14070290D01*
X18726754Y14412784D01*
X18726756Y14412791D01*
X18825383Y14768014D01*
X18825389Y14768040D01*
X18885032Y15131841D01*
X18885033Y15131858D01*
X18904994Y15500000D01*
X18904994Y15500003D01*
X18885033Y15868143D01*
X18885032Y15868160D01*
X18825389Y16231961D01*
X18825383Y16231987D01*
X18726756Y16587210D01*
X18726754Y16587217D01*
X18590293Y16929711D01*
X18590284Y16929729D01*
X18417593Y17255459D01*
X18210692Y17560615D01*
X18074502Y17720950D01*
X18074501Y17720951D01*
X16758647Y16405097D01*
X16704544Y16483480D01*
X16531184Y16663966D01*
X16405133Y16758687D01*
X17723478Y18077033D01*
X17723478Y18077034D01*
X17704356Y18095148D01*
X17704344Y18095159D01*
X17410841Y18318275D01*
X17410824Y18318287D01*
X17094932Y18508351D01*
X17094919Y18508358D01*
X16760328Y18663156D01*
X16410931Y18780883D01*
X16050865Y18860139D01*
X15684344Y18900000D01*
X15315655Y18900000D01*
X14949134Y18860139D01*
X14589068Y18780883D01*
X14239671Y18663156D01*
X13905080Y18508358D01*
X13905067Y18508351D01*
X13589175Y18318287D01*
X13589158Y18318275D01*
X13295657Y18095160D01*
X13295643Y18095148D01*
X13276520Y18077034D01*
X13276520Y18077032D01*
X14593120Y16760432D01*
X14565820Y16743168D01*
X14378499Y16577216D01*
X14239488Y16406960D01*
X12925497Y17720951D01*
X12925496Y17720950D01*
X12789314Y17560624D01*
X12789307Y17560614D01*
X12582406Y17255459D01*
X12409715Y16929729D01*
X12409706Y16929711D01*
X12273245Y16587217D01*
X12273243Y16587210D01*
X12174616Y16231987D01*
X12174610Y16231961D01*
X12114967Y15868160D01*
X12114966Y15868143D01*
X12095006Y15500003D01*
X12095006Y15500000D01*
X6749735Y15500000D01*
X6855871Y15577112D01*
X6982533Y15717784D01*
X7077179Y15881716D01*
X7135674Y16061744D01*
X7155460Y16250000D01*
X7135674Y16438256D01*
X7077179Y16618284D01*
X6982533Y16782216D01*
X6855871Y16922888D01*
X6846480Y16929711D01*
X6702734Y17034149D01*
X6702729Y17034152D01*
X6529807Y17111143D01*
X6529802Y17111145D01*
X6384001Y17142135D01*
X6344646Y17150500D01*
X6155354Y17150500D01*
X6122897Y17143602D01*
X5970197Y17111145D01*
X5970192Y17111143D01*
X5797270Y17034152D01*
X5797265Y17034149D01*
X5644129Y16922889D01*
X5517466Y16782215D01*
X5422821Y16618285D01*
X5422818Y16618278D01*
X5364327Y16438260D01*
X5364326Y16438256D01*
X5344540Y16250000D01*
X4371024Y16250000D01*
X4388418Y16297179D01*
X4386772Y16298213D01*
X4440276Y16383365D01*
X4480456Y16447310D01*
X4536313Y16606941D01*
X4536313Y16606942D01*
X4536314Y16606944D01*
X4555249Y16774998D01*
X4555249Y16775003D01*
X4536314Y16943057D01*
X4480454Y17102695D01*
X4480452Y17102698D01*
X4390481Y17245885D01*
X4390476Y17245891D01*
X4270890Y17365477D01*
X4270884Y17365482D01*
X4127697Y17455453D01*
X4127694Y17455455D01*
X3968056Y17511315D01*
X3800003Y17530249D01*
X3799997Y17530249D01*
X3631943Y17511315D01*
X3472305Y17455455D01*
X3472302Y17455453D01*
X3329115Y17365482D01*
X3329109Y17365477D01*
X3209523Y17245891D01*
X3209518Y17245885D01*
X3119547Y17102698D01*
X3119545Y17102695D01*
X3063685Y16943057D01*
X3044751Y16775003D01*
X3044751Y16774998D01*
X3063685Y16606944D01*
X3119545Y16447306D01*
X3119547Y16447303D01*
X3213227Y16298214D01*
X3210859Y16296727D01*
X3232488Y16243720D01*
X3219718Y16175027D01*
X3171838Y16124143D01*
X3168148Y16122064D01*
X3045103Y16055476D01*
X3045090Y16055467D01*
X2865212Y15915462D01*
X2865208Y15915459D01*
X2710813Y15747741D01*
X2653808Y15660488D01*
X2600662Y15615132D01*
X2531431Y15605708D01*
X2468095Y15635210D01*
X2446192Y15660488D01*
X2389186Y15747741D01*
X2389184Y15747743D01*
X2389183Y15747745D01*
X2234794Y15915456D01*
X2234793Y15915457D01*
X2234791Y15915459D01*
X2234787Y15915462D01*
X2054909Y16055467D01*
X2054905Y16055470D01*
X1931851Y16122063D01*
X1882261Y16171283D01*
X1867153Y16239499D01*
X1888418Y16297179D01*
X1886772Y16298213D01*
X1940276Y16383365D01*
X1980456Y16447310D01*
X2036313Y16606941D01*
X2036313Y16606942D01*
X2036314Y16606944D01*
X2055249Y16774998D01*
X2055249Y16775003D01*
X2036314Y16943057D01*
X1980454Y17102695D01*
X1980452Y17102698D01*
X1890481Y17245885D01*
X1890476Y17245891D01*
X1770890Y17365477D01*
X1770884Y17365482D01*
X1627697Y17455453D01*
X1627694Y17455455D01*
X1468056Y17511315D01*
X1300003Y17530249D01*
X1299997Y17530249D01*
X1131943Y17511315D01*
X972305Y17455455D01*
X972302Y17455453D01*
X829115Y17365482D01*
X829109Y17365477D01*
X709523Y17245891D01*
X709518Y17245885D01*
X619547Y17102698D01*
X619545Y17102695D01*
X563685Y16943057D01*
X544751Y16775003D01*
X544751Y16774998D01*
X563685Y16606944D01*
X619545Y16447306D01*
X619547Y16447303D01*
X713227Y16298214D01*
X710859Y16296727D01*
X732488Y16243720D01*
X719718Y16175027D01*
X671838Y16124143D01*
X668148Y16122064D01*
X545103Y16055476D01*
X545090Y16055467D01*
X365212Y15915462D01*
X365208Y15915459D01*
X210813Y15747741D01*
X153808Y15660488D01*
X100662Y15615132D01*
X31431Y15605708D01*
X-31905Y15635210D01*
X-53808Y15660488D01*
X-110814Y15747741D01*
X-110816Y15747743D01*
X-110817Y15747745D01*
X-265206Y15915456D01*
X-265207Y15915457D01*
X-265209Y15915459D01*
X-265213Y15915462D01*
X-445091Y16055467D01*
X-445095Y16055470D01*
X-568149Y16122063D01*
X-617739Y16171283D01*
X-632847Y16239499D01*
X-611582Y16297179D01*
X-613228Y16298213D01*
X-559724Y16383365D01*
X-519544Y16447310D01*
X-463687Y16606941D01*
X-463687Y16606942D01*
X-463686Y16606944D01*
X-444751Y16774998D01*
X-444751Y16775003D01*
X-463686Y16943057D01*
X-519546Y17102695D01*
X-519548Y17102698D01*
X-609519Y17245885D01*
X-609524Y17245891D01*
X-729110Y17365477D01*
X-729116Y17365482D01*
X-872303Y17455453D01*
X-872306Y17455455D01*
X-1031944Y17511315D01*
X-1199997Y17530249D01*
X-1200003Y17530249D01*
X-1368057Y17511315D01*
X-1527695Y17455455D01*
X-1527698Y17455453D01*
X-1670885Y17365482D01*
X-1670891Y17365477D01*
X-1790477Y17245891D01*
X-1790482Y17245885D01*
X-1880453Y17102698D01*
X-1880455Y17102695D01*
X-1936315Y16943057D01*
X-1955249Y16775003D01*
X-1955249Y16774998D01*
X-1936315Y16606944D01*
X-1880455Y16447306D01*
X-1880453Y16447303D01*
X-1786773Y16298214D01*
X-1789141Y16296727D01*
X-1767512Y16243720D01*
X-1780282Y16175027D01*
X-1828162Y16124143D01*
X-1831852Y16122064D01*
X-1954897Y16055476D01*
X-1954910Y16055467D01*
X-2134788Y15915462D01*
X-2134792Y15915459D01*
X-2289187Y15747741D01*
X-2346192Y15660488D01*
X-2399338Y15615132D01*
X-2468569Y15605708D01*
X-2531905Y15635210D01*
X-2553808Y15660488D01*
X-2610814Y15747741D01*
X-2610816Y15747743D01*
X-2610817Y15747745D01*
X-2765206Y15915456D01*
X-2765207Y15915457D01*
X-2765209Y15915459D01*
X-2765213Y15915462D01*
X-2945091Y16055467D01*
X-2945095Y16055470D01*
X-3068149Y16122063D01*
X-3117739Y16171283D01*
X-3132847Y16239499D01*
X-3111582Y16297179D01*
X-3113228Y16298213D01*
X-3059724Y16383365D01*
X-3019544Y16447310D01*
X-2963687Y16606941D01*
X-2963687Y16606942D01*
X-2963686Y16606944D01*
X-2944751Y16774998D01*
X-2944751Y16775003D01*
X-2963686Y16943057D01*
X-3019546Y17102695D01*
X-3019548Y17102698D01*
X-3109519Y17245885D01*
X-3109524Y17245891D01*
X-3229110Y17365477D01*
X-3229116Y17365482D01*
X-3372303Y17455453D01*
X-3372306Y17455455D01*
X-3531944Y17511315D01*
X-3699997Y17530249D01*
X-3700003Y17530249D01*
X-3868057Y17511315D01*
X-4027695Y17455455D01*
X-4027698Y17455453D01*
X-4170885Y17365482D01*
X-4170891Y17365477D01*
X-4290477Y17245891D01*
X-4290482Y17245885D01*
X-4380453Y17102698D01*
X-4380455Y17102695D01*
X-4436315Y16943057D01*
X-4455249Y16775003D01*
X-4455249Y16774998D01*
X-4436315Y16606944D01*
X-4380455Y16447306D01*
X-4380453Y16447303D01*
X-4286773Y16298214D01*
X-4289141Y16296727D01*
X-4267512Y16243720D01*
X-4280282Y16175027D01*
X-4328162Y16124143D01*
X-4331852Y16122064D01*
X-4454897Y16055476D01*
X-4454910Y16055467D01*
X-4634788Y15915462D01*
X-4634792Y15915459D01*
X-4789186Y15747743D01*
X-4913863Y15556909D01*
X-5005431Y15348156D01*
X-5061390Y15127180D01*
X-5061392Y15127169D01*
X-5080214Y14900007D01*
X-5080214Y14899994D01*
X-5061392Y14672832D01*
X-5061390Y14672821D01*
X-5005431Y14451845D01*
X-4913863Y14243092D01*
X-4789186Y14052258D01*
X-4634792Y13884542D01*
X-4634788Y13884539D01*
X-4454906Y13744531D01*
X-4454904Y13744530D01*
X-4454901Y13744528D01*
X-4367882Y13697436D01*
X-4318291Y13648217D01*
X-4303183Y13580000D01*
X-4327353Y13514444D01*
X-4361885Y13482792D01*
X-4520867Y13384903D01*
X-4520876Y13384897D01*
X-4696638Y13230207D01*
X-4696639Y13230205D01*
X-4843735Y13048031D01*
X-4843736Y13048031D01*
X-4957925Y12843623D01*
X-5035928Y12622853D01*
X-5035930Y12622845D01*
X-5075500Y12392081D01*
X-5075500Y11966567D01*
X-5060618Y11791704D01*
X-5001618Y11565111D01*
X-4905176Y11351756D01*
X-4905171Y11351748D01*
X-4801889Y11198937D01*
X-4780657Y11132371D01*
X-4798784Y11064894D01*
X-4850515Y11017929D01*
X-4904624Y11005500D01*
X-9212177Y11005500D01*
X-9239216Y11004051D01*
X-9239224Y11004051D01*
X-9239227Y11004050D01*
X-9239228Y11004050D01*
X-9279036Y10999769D01*
X-9332446Y10991115D01*
X-9332448Y10991115D01*
X-9467253Y10940834D01*
X-9528578Y10907349D01*
X-9643760Y10821124D01*
X-9643772Y10821114D01*
X-10357442Y10107443D01*
X-11589786Y8875102D01*
X-11651109Y8841617D01*
X-11720801Y8846601D01*
X-11743435Y8857787D01*
X-11783225Y8882789D01*
X-11795038Y8886923D01*
X-11937543Y8936788D01*
X-12099996Y8955091D01*
X-12100004Y8955091D01*
X-12262456Y8936788D01*
X-12416775Y8882790D01*
X-12555205Y8795808D01*
X-12670808Y8680205D01*
X-12757790Y8541775D01*
X-12811788Y8387456D01*
X-12830091Y8225004D01*
X-12830091Y8224997D01*
X-12811788Y8062545D01*
X-12757789Y7908224D01*
X-12732790Y7868439D01*
X-12713789Y7801202D01*
X-12734156Y7734367D01*
X-12750102Y7714785D01*
X-13209543Y7255343D01*
X-14430705Y6034181D01*
X-14448803Y6014032D01*
X-14448803Y6014031D01*
X-14473930Y5982850D01*
X-14473929Y5982851D01*
X-14505569Y5938973D01*
X-14565336Y5808105D01*
X-14585022Y5741064D01*
X-14585024Y5741059D01*
X-14597367Y5655204D01*
X-14605500Y5598639D01*
X-14605500Y5354091D01*
X-14605499Y5354082D01*
X-14593948Y5246641D01*
X-14593946Y5246629D01*
X-14582740Y5195119D01*
X-14548617Y5092594D01*
X-14548613Y5092587D01*
X-14546148Y5088751D01*
X-14526465Y5021711D01*
X-14545471Y4955743D01*
X-14632787Y4816780D01*
X-14635812Y4810497D01*
X-14638028Y4811564D01*
X-14672116Y4764082D01*
X-14707433Y4744807D01*
X-14741774Y4732790D01*
X-14741778Y4732788D01*
X-14880205Y4645808D01*
X-14995808Y4530205D01*
X-15083543Y4390575D01*
X-15135878Y4344284D01*
X-15147578Y4339507D01*
X-15166773Y4332790D01*
X-15305203Y4245809D01*
X-15400245Y4150767D01*
X-15461569Y4117283D01*
X-15531260Y4122267D01*
X-15587193Y4164139D01*
X-15592920Y4172477D01*
X-15593636Y4173616D01*
X-15629192Y4230204D01*
X-15744796Y4345808D01*
X-15817952Y4391775D01*
X-15883226Y4432790D01*
X-16037545Y4486788D01*
X-16199996Y4505091D01*
X-16200004Y4505091D01*
X-16362456Y4486788D01*
X-16516775Y4432790D01*
X-16655205Y4345808D01*
X-16770808Y4230205D01*
X-16857790Y4091775D01*
X-16911788Y3937456D01*
X-16930091Y3775004D01*
X-16930091Y3774997D01*
X-20999500Y3774997D01*
X-20999500Y15500000D01*
X-18904994Y15500000D01*
X-18885034Y15131858D01*
X-18885033Y15131841D01*
X-18825390Y14768040D01*
X-18825384Y14768014D01*
X-18726757Y14412791D01*
X-18726755Y14412784D01*
X-18590294Y14070290D01*
X-18590285Y14070272D01*
X-18417594Y13744542D01*
X-18210693Y13439386D01*
X-18074504Y13279052D01*
X-18074503Y13279051D01*
X-16758649Y14594905D01*
X-16704544Y14516520D01*
X-16531184Y14336034D01*
X-16405135Y14241314D01*
X-17723480Y12922969D01*
X-17723480Y12922968D01*
X-17704357Y12904853D01*
X-17704345Y12904842D01*
X-17410842Y12681726D01*
X-17410825Y12681714D01*
X-17094933Y12491650D01*
X-17094920Y12491643D01*
X-16760329Y12336845D01*
X-16410932Y12219118D01*
X-16050866Y12139862D01*
X-15684345Y12100001D01*
X-15684337Y12100000D01*
X-15315663Y12100000D01*
X-15315656Y12100001D01*
X-14949135Y12139862D01*
X-14789500Y12175000D01*
X-7155460Y12175000D01*
X-7135674Y11986744D01*
X-7135673Y11986741D01*
X-7077182Y11806723D01*
X-7077179Y11806716D01*
X-6982533Y11642784D01*
X-6855871Y11502112D01*
X-6702735Y11390852D01*
X-6702730Y11390849D01*
X-6529808Y11313858D01*
X-6529803Y11313856D01*
X-6344646Y11274500D01*
X-6344645Y11274500D01*
X-6155356Y11274500D01*
X-6155354Y11274500D01*
X-5970197Y11313856D01*
X-5797270Y11390849D01*
X-5644129Y11502112D01*
X-5517467Y11642784D01*
X-5422821Y11806716D01*
X-5364326Y11986744D01*
X-5344540Y12175000D01*
X-5364326Y12363256D01*
X-5422821Y12543284D01*
X-5517467Y12707216D01*
X-5644129Y12847888D01*
X-5652409Y12853904D01*
X-5797266Y12959149D01*
X-5797271Y12959152D01*
X-5970193Y13036143D01*
X-5970198Y13036145D01*
X-6115999Y13067135D01*
X-6155354Y13075500D01*
X-6344646Y13075500D01*
X-6377103Y13068602D01*
X-6529803Y13036145D01*
X-6529808Y13036143D01*
X-6702730Y12959152D01*
X-6702735Y12959149D01*
X-6855871Y12847889D01*
X-6982534Y12707215D01*
X-7077179Y12543285D01*
X-7077182Y12543278D01*
X-7126311Y12392072D01*
X-7135674Y12363256D01*
X-7155460Y12175000D01*
X-14789500Y12175000D01*
X-14589069Y12219118D01*
X-14239672Y12336845D01*
X-13905081Y12491643D01*
X-13905068Y12491650D01*
X-13589176Y12681714D01*
X-13589159Y12681726D01*
X-13295660Y12904839D01*
X-13276521Y12922969D01*
X-14593121Y14239569D01*
X-14565820Y14256832D01*
X-14378499Y14422784D01*
X-14239489Y14593042D01*
X-12925499Y13279052D01*
X-12925498Y13279052D01*
X-12789310Y13439385D01*
X-12789299Y13439399D01*
X-12582407Y13744542D01*
X-12409716Y14070272D01*
X-12409707Y14070290D01*
X-12273246Y14412784D01*
X-12273244Y14412791D01*
X-12174617Y14768014D01*
X-12174611Y14768040D01*
X-12114968Y15131841D01*
X-12114967Y15131858D01*
X-12095006Y15500000D01*
X-12095006Y15500003D01*
X-12114967Y15868143D01*
X-12114968Y15868160D01*
X-12174611Y16231961D01*
X-12174617Y16231987D01*
X-12179618Y16250000D01*
X-7180460Y16250000D01*
X-7160674Y16061744D01*
X-7160673Y16061741D01*
X-7102182Y15881723D01*
X-7102179Y15881716D01*
X-7007533Y15717784D01*
X-6915104Y15615132D01*
X-6880871Y15577112D01*
X-6727735Y15465852D01*
X-6727730Y15465849D01*
X-6554809Y15388858D01*
X-6554807Y15388858D01*
X-6554803Y15388856D01*
X-6400848Y15356133D01*
X-6339371Y15322942D01*
X-6305594Y15261780D01*
X-6310246Y15192065D01*
X-6351850Y15135932D01*
X-6400852Y15113554D01*
X-6529803Y15086145D01*
X-6529808Y15086143D01*
X-6702730Y15009152D01*
X-6702735Y15009149D01*
X-6855871Y14897889D01*
X-6982534Y14757215D01*
X-7077179Y14593285D01*
X-7077182Y14593278D01*
X-7123136Y14451845D01*
X-7135674Y14413256D01*
X-7155460Y14225000D01*
X-7135674Y14036744D01*
X-7135673Y14036741D01*
X-7077182Y13856723D01*
X-7077179Y13856716D01*
X-6982533Y13692784D01*
X-6878381Y13577112D01*
X-6855871Y13552112D01*
X-6702735Y13440852D01*
X-6702730Y13440849D01*
X-6529808Y13363858D01*
X-6529803Y13363856D01*
X-6344646Y13324500D01*
X-6344645Y13324500D01*
X-6155356Y13324500D01*
X-6155354Y13324500D01*
X-5970197Y13363856D01*
X-5797270Y13440849D01*
X-5644129Y13552112D01*
X-5517467Y13692784D01*
X-5422821Y13856716D01*
X-5364326Y14036744D01*
X-5344540Y14225000D01*
X-5364326Y14413256D01*
X-5422821Y14593284D01*
X-5517467Y14757216D01*
X-5644129Y14897888D01*
X-5644130Y14897889D01*
X-5797266Y15009149D01*
X-5797271Y15009152D01*
X-5970193Y15086143D01*
X-5970198Y15086145D01*
X-6099152Y15113554D01*
X-6124150Y15118868D01*
X-6185631Y15152059D01*
X-6219407Y15213222D01*
X-6214755Y15282937D01*
X-6173151Y15339069D01*
X-6124149Y15361447D01*
X-5995197Y15388856D01*
X-5822270Y15465849D01*
X-5669129Y15577112D01*
X-5542467Y15717784D01*
X-5447821Y15881716D01*
X-5389326Y16061744D01*
X-5369540Y16250000D01*
X-5389326Y16438256D01*
X-5447821Y16618284D01*
X-5542467Y16782216D01*
X-5669129Y16922888D01*
X-5678520Y16929711D01*
X-5822266Y17034149D01*
X-5822271Y17034152D01*
X-5995193Y17111143D01*
X-5995198Y17111145D01*
X-6140999Y17142135D01*
X-6180354Y17150500D01*
X-6369646Y17150500D01*
X-6402103Y17143602D01*
X-6554803Y17111145D01*
X-6554808Y17111143D01*
X-6727730Y17034152D01*
X-6727735Y17034149D01*
X-6880871Y16922889D01*
X-7007534Y16782215D01*
X-7102179Y16618285D01*
X-7102182Y16618278D01*
X-7160673Y16438260D01*
X-7160674Y16438256D01*
X-7180460Y16250000D01*
X-12179618Y16250000D01*
X-12273244Y16587210D01*
X-12273246Y16587217D01*
X-12409707Y16929711D01*
X-12409716Y16929729D01*
X-12582407Y17255459D01*
X-12789308Y17560615D01*
X-12925498Y17720950D01*
X-12925499Y17720951D01*
X-14241353Y16405097D01*
X-14295456Y16483480D01*
X-14468816Y16663966D01*
X-14594867Y16758687D01*
X-13276522Y18077033D01*
X-13276522Y18077034D01*
X-13295644Y18095148D01*
X-13295656Y18095159D01*
X-13589159Y18318275D01*
X-13589176Y18318287D01*
X-13905068Y18508351D01*
X-13905081Y18508358D01*
X-14239672Y18663156D01*
X-14589069Y18780883D01*
X-14949135Y18860139D01*
X-15315656Y18900000D01*
X-15684345Y18900000D01*
X-16050866Y18860139D01*
X-16410932Y18780883D01*
X-16760329Y18663156D01*
X-17094920Y18508358D01*
X-17094933Y18508351D01*
X-17410825Y18318287D01*
X-17410842Y18318275D01*
X-17704343Y18095160D01*
X-17704357Y18095148D01*
X-17723480Y18077034D01*
X-17723480Y18077032D01*
X-16406880Y16760432D01*
X-16434180Y16743168D01*
X-16621501Y16577216D01*
X-16760512Y16406960D01*
X-18074503Y17720951D01*
X-18074504Y17720950D01*
X-18210686Y17560624D01*
X-18210693Y17560614D01*
X-18417594Y17255459D01*
X-18590285Y16929729D01*
X-18590294Y16929711D01*
X-18726755Y16587217D01*
X-18726757Y16587210D01*
X-18825384Y16231987D01*
X-18825390Y16231961D01*
X-18885033Y15868160D01*
X-18885034Y15868143D01*
X-18904994Y15500003D01*
X-18904994Y15500000D01*
X-20999500Y15500000D01*
X-20990492Y15717786D01*
X-20979987Y15958390D01*
X-20979573Y15963316D01*
X-20950915Y16193228D01*
X-20920806Y16421931D01*
X-20920030Y16426483D01*
X-20872031Y16655401D01*
X-20845515Y16774998D01*
X-20822530Y16878680D01*
X-20821429Y16882927D01*
X-20754409Y17108042D01*
X-20685850Y17325479D01*
X-20684509Y17329288D01*
X-20598906Y17548667D01*
X-20511771Y17759030D01*
X-20510250Y17762402D01*
X-20406624Y17974373D01*
X-20301576Y18176166D01*
X-20299861Y18179240D01*
X-20178963Y18382134D01*
X-20056734Y18573992D01*
X-20054948Y18576640D01*
X-19917560Y18769064D01*
X-19778997Y18949642D01*
X-19777230Y18951833D01*
X-19624266Y19132437D01*
X-19469584Y19301240D01*
X-19301240Y19469584D01*
X-19299725Y19470973D01*
X-19132437Y19624266D01*
X-18951833Y19777230D01*
X-18949642Y19778997D01*
X-18769064Y19917560D01*
X-18576640Y20054948D01*
X-18573992Y20056734D01*
X-18382134Y20178963D01*
X-18179234Y20299865D01*
X-18176166Y20301576D01*
X-17974373Y20406624D01*
X-17762402Y20510250D01*
X-17759030Y20511771D01*
X-17548667Y20598906D01*
X-17329288Y20684509D01*
X-17325479Y20685850D01*
X-17108042Y20754409D01*
X-16882927Y20821429D01*
X-16878678Y20822530D01*
X-16655412Y20872028D01*
X-16426483Y20920030D01*
X-16421931Y20920806D01*
X-16193228Y20950915D01*
X-15963316Y20979573D01*
X-15958390Y20979987D01*
X-15717577Y20990501D01*
X-15500000Y20999500D01*
X-15499500Y20999500D01*
X15499500Y20999500D01*
X15500000Y20999500D01*
X15717445Y20990507D01*
G37*
%TD.AperFunction*%
%TD*%
%TA.AperFunction,Conductor*%
%TO.N,+3V3*%
G36*
X-8550000Y8300000D02*
G01*
X-8428775Y8300000D01*
X-8476425Y8252350D01*
X-8563407Y8113920D01*
X-8617405Y7959601D01*
X-8635708Y7797149D01*
X-8635708Y7797142D01*
X-8617404Y7634687D01*
X-8603714Y7595562D01*
X-8600153Y7525783D01*
X-8633075Y7466927D01*
X-12075000Y4025001D01*
X-12075000Y2842480D01*
X-12094685Y2775441D01*
X-12126114Y2742162D01*
X-12255873Y2647887D01*
X-12382534Y2507215D01*
X-12477179Y2343285D01*
X-12477182Y2343278D01*
X-12535673Y2163260D01*
X-12535674Y2163256D01*
X-12555460Y1975000D01*
X-12535674Y1786744D01*
X-12535673Y1786741D01*
X-12477182Y1606723D01*
X-12477179Y1606716D01*
X-12382533Y1442784D01*
X-12276245Y1324740D01*
X-12255871Y1302112D01*
X-12126115Y1207839D01*
X-12083449Y1152509D01*
X-12075000Y1107521D01*
X-12075000Y-1425000D01*
X-11025000Y-2475000D01*
X-9740904Y-2475000D01*
X-9673865Y-2494685D01*
X-9628110Y-2547489D01*
X-9617684Y-2585118D01*
X-9611788Y-2637454D01*
X-9611787Y-2637459D01*
X-9611786Y-2637461D01*
X-9589717Y-2700531D01*
X-9557790Y-2791774D01*
X-9470808Y-2930204D01*
X-9355204Y-3045808D01*
X-9216775Y-3132789D01*
X-9062461Y-3186786D01*
X-9062458Y-3186786D01*
X-9062456Y-3186787D01*
X-8900004Y-3205091D01*
X-8900000Y-3205091D01*
X-8899996Y-3205091D01*
X-8737545Y-3186787D01*
X-8737544Y-3186786D01*
X-8737539Y-3186786D01*
X-8583225Y-3132789D01*
X-8444796Y-3045808D01*
X-8329192Y-2930204D01*
X-8242211Y-2791775D01*
X-8188214Y-2637461D01*
X-8182316Y-2585118D01*
X-8155250Y-2520703D01*
X-8097656Y-2481148D01*
X-8059096Y-2475000D01*
X-8002175Y-2475000D01*
X-7935136Y-2494685D01*
X-7889381Y-2547489D01*
X-7885139Y-2558031D01*
X-7881905Y-2567275D01*
X-7881698Y-2567865D01*
X-7837967Y-2637461D01*
X-7794718Y-2706291D01*
X-7679114Y-2821895D01*
X-7540685Y-2908876D01*
X-7386371Y-2962873D01*
X-7386368Y-2962873D01*
X-7386366Y-2962874D01*
X-7223914Y-2981178D01*
X-7223910Y-2981178D01*
X-7223906Y-2981178D01*
X-7061453Y-2962874D01*
X-7061451Y-2962873D01*
X-7061449Y-2962873D01*
X-6940632Y-2920596D01*
X-6870856Y-2917034D01*
X-6858743Y-2920591D01*
X-6812461Y-2936786D01*
X-6812458Y-2936786D01*
X-6812456Y-2936787D01*
X-6650004Y-2955091D01*
X-6650000Y-2955091D01*
X-6649996Y-2955091D01*
X-6487545Y-2936787D01*
X-6487544Y-2936786D01*
X-6487539Y-2936786D01*
X-6333225Y-2882789D01*
X-6194796Y-2795808D01*
X-6079192Y-2680204D01*
X-5992211Y-2541775D01*
X-5992212Y-2541775D01*
X-5988506Y-2535879D01*
X-5986554Y-2537105D01*
X-5947036Y-2493338D01*
X-5882139Y-2475000D01*
X-3751362Y-2475000D01*
X-3684323Y-2494685D01*
X-3663681Y-2511319D01*
X-1891933Y-4283067D01*
X-1874620Y-4304776D01*
X-1795808Y-4430204D01*
X-1680204Y-4545808D01*
X-1554775Y-4624621D01*
X-1533069Y-4641931D01*
X-449110Y-5725890D01*
X-415625Y-5787213D01*
X-420609Y-5856905D01*
X-462481Y-5912838D01*
X-511009Y-5934861D01*
X-529804Y-5938856D01*
X-529808Y-5938857D01*
X-702730Y-6015848D01*
X-702735Y-6015851D01*
X-855871Y-6127111D01*
X-982534Y-6267785D01*
X-1077179Y-6431715D01*
X-1077182Y-6431722D01*
X-1135673Y-6611740D01*
X-1135674Y-6611744D01*
X-1155460Y-6800000D01*
X-1135674Y-6988256D01*
X-1135673Y-6988259D01*
X-1077182Y-7168277D01*
X-1077179Y-7168284D01*
X-982533Y-7332216D01*
X-855871Y-7472888D01*
X-702735Y-7584148D01*
X-702730Y-7584151D01*
X-529808Y-7661142D01*
X-529803Y-7661144D01*
X-344646Y-7700500D01*
X-344645Y-7700500D01*
X-155356Y-7700500D01*
X-155354Y-7700500D01*
X29803Y-7661144D01*
X202730Y-7584151D01*
X355871Y-7472888D01*
X482533Y-7332216D01*
X577179Y-7168284D01*
X616694Y-7046668D01*
X656131Y-6988994D01*
X720490Y-6961795D01*
X789336Y-6973709D01*
X822306Y-6997306D01*
X1538681Y-7713681D01*
X1572166Y-7775004D01*
X1575000Y-7801362D01*
X1575000Y-11314811D01*
X1558387Y-11376811D01*
X1497821Y-11481714D01*
X1439327Y-11661740D01*
X1439326Y-11661744D01*
X1419540Y-11850000D01*
X1439326Y-12038256D01*
X1439327Y-12038259D01*
X1482651Y-12171598D01*
X1484646Y-12241439D01*
X1452401Y-12297597D01*
X1036319Y-12713681D01*
X974996Y-12747166D01*
X948638Y-12750000D01*
X-2048638Y-12750000D01*
X-2115677Y-12730315D01*
X-2136319Y-12713681D01*
X-3013681Y-11836319D01*
X-3047166Y-11774996D01*
X-3050000Y-11748638D01*
X-3050000Y-7596625D01*
X-3030315Y-7529586D01*
X-2977511Y-7483831D01*
X-2966954Y-7479583D01*
X-2947821Y-7472888D01*
X-2833225Y-7432789D01*
X-2694796Y-7345808D01*
X-2579192Y-7230204D01*
X-2492211Y-7091775D01*
X-2438214Y-6937461D01*
X-2435024Y-6909151D01*
X-2419909Y-6775003D01*
X-2419909Y-6774996D01*
X-2438213Y-6612544D01*
X-2438214Y-6612542D01*
X-2438214Y-6612539D01*
X-2492211Y-6458225D01*
X-2579192Y-6319796D01*
X-2694796Y-6204192D01*
X-2785625Y-6147120D01*
X-2833226Y-6117210D01*
X-2987544Y-6063212D01*
X-2999929Y-6061817D01*
X-3064342Y-6034748D01*
X-3073722Y-6026278D01*
X-3900000Y-5200000D01*
X-8574789Y-5200000D01*
X-8641828Y-5180315D01*
X-8658327Y-5167637D01*
X-8720190Y-5111242D01*
X-8720191Y-5111241D01*
X-8901474Y-4998995D01*
X-8901476Y-4998994D01*
X-9000885Y-4960483D01*
X-9100295Y-4921972D01*
X-9309883Y-4882793D01*
X-9523103Y-4882793D01*
X-9732691Y-4921972D01*
X-9732694Y-4921972D01*
X-9732694Y-4921973D01*
X-9931511Y-4998994D01*
X-9931513Y-4998995D01*
X-10112797Y-5111242D01*
X-10174659Y-5167637D01*
X-10237463Y-5198254D01*
X-10258197Y-5200000D01*
X-10823638Y-5200000D01*
X-10890677Y-5180315D01*
X-10911319Y-5163681D01*
X-14063681Y-2011319D01*
X-14097166Y-1949996D01*
X-14100000Y-1923638D01*
X-14100000Y-1159256D01*
X-14080993Y-1093283D01*
X-14017211Y-991775D01*
X-13988083Y-908529D01*
X-13947362Y-851754D01*
X-13911991Y-832441D01*
X-13911918Y-832415D01*
X-13909459Y-831555D01*
X-13771030Y-744574D01*
X-13655426Y-628970D01*
X-13568445Y-490541D01*
X-13514448Y-336227D01*
X-13511302Y-308308D01*
X-13496143Y-173769D01*
X-13496143Y-173762D01*
X-13514447Y-11310D01*
X-13514448Y-11308D01*
X-13514448Y-11305D01*
X-13568445Y143009D01*
X-13655426Y281438D01*
X-13771030Y397042D01*
X-13909460Y484024D01*
X-13985920Y510778D01*
X-14016955Y521638D01*
X-14073730Y562359D01*
X-14099478Y627311D01*
X-14100000Y638679D01*
X-14100000Y3353848D01*
X-14080315Y3420887D01*
X-14041973Y3458841D01*
X-13969796Y3504192D01*
X-13854192Y3619796D01*
X-13767211Y3758225D01*
X-13764190Y3764498D01*
X-13761965Y3763427D01*
X-13727944Y3810874D01*
X-13692563Y3830196D01*
X-13658225Y3842211D01*
X-13519796Y3929192D01*
X-13404192Y4044796D01*
X-13317211Y4183225D01*
X-13263214Y4337539D01*
X-13246237Y4488214D01*
X-13244909Y4499997D01*
X-13244909Y4500004D01*
X-13263213Y4662456D01*
X-13263214Y4662458D01*
X-13263214Y4662461D01*
X-13317211Y4816775D01*
X-13404192Y4955204D01*
X-13519796Y5070808D01*
X-13523918Y5073398D01*
X-13658226Y5157790D01*
X-13812545Y5211788D01*
X-13974996Y5230091D01*
X-13976000Y5230091D01*
X-13976625Y5230275D01*
X-13981919Y5230871D01*
X-13981815Y5231799D01*
X-14043039Y5249776D01*
X-14088794Y5302580D01*
X-14100000Y5354091D01*
X-14100000Y5598639D01*
X-14080315Y5665678D01*
X-14063686Y5686315D01*
X-12281608Y7468393D01*
X-12220289Y7501875D01*
X-12180052Y7503929D01*
X-12108398Y7495856D01*
X-12100001Y7494909D01*
X-12100000Y7494909D01*
X-12099996Y7494909D01*
X-11937545Y7513213D01*
X-11937544Y7513214D01*
X-11937539Y7513214D01*
X-11783225Y7567211D01*
X-11644796Y7654192D01*
X-11529192Y7769796D01*
X-11442211Y7908225D01*
X-11388214Y8062539D01*
X-11388213Y8062545D01*
X-11369909Y8224997D01*
X-11369909Y8225001D01*
X-11370856Y8233398D01*
X-11378929Y8305050D01*
X-11366875Y8373868D01*
X-11343396Y8406605D01*
X-10000000Y9750000D01*
X-8550000Y8300000D01*
G37*
%TD.AperFunction*%
%TD*%
M02*
