%TF.GenerationSoftware,KiCad,Pcbnew,7.0.10*%
%TF.CreationDate,2024-01-29T20:12:52-05:00*%
%TF.ProjectId,lemon-pepper,6c656d6f-6e2d-4706-9570-7065722e6b69,rev?*%
%TF.SameCoordinates,PX8b85c60PY52f2218*%
%TF.FileFunction,Copper,L4,Bot*%
%TF.FilePolarity,Positive*%
%FSLAX46Y46*%
G04 Gerber Fmt 4.6, Leading zero omitted, Abs format (unit mm)*
G04 Created by KiCad (PCBNEW 7.0.10) date 2024-01-29 20:12:52*
%MOMM*%
%LPD*%
G01*
G04 APERTURE LIST*
G04 Aperture macros list*
%AMRoundRect*
0 Rectangle with rounded corners*
0 $1 Rounding radius*
0 $2 $3 $4 $5 $6 $7 $8 $9 X,Y pos of 4 corners*
0 Add a 4 corners polygon primitive as box body*
4,1,4,$2,$3,$4,$5,$6,$7,$8,$9,$2,$3,0*
0 Add four circle primitives for the rounded corners*
1,1,$1+$1,$2,$3*
1,1,$1+$1,$4,$5*
1,1,$1+$1,$6,$7*
1,1,$1+$1,$8,$9*
0 Add four rect primitives between the rounded corners*
20,1,$1+$1,$2,$3,$4,$5,0*
20,1,$1+$1,$4,$5,$6,$7,0*
20,1,$1+$1,$6,$7,$8,$9,0*
20,1,$1+$1,$8,$9,$2,$3,0*%
G04 Aperture macros list end*
%TA.AperFunction,ComponentPad*%
%ADD10C,5.800000*%
%TD*%
%TA.AperFunction,ComponentPad*%
%ADD11C,1.000000*%
%TD*%
%TA.AperFunction,HeatsinkPad*%
%ADD12C,0.500000*%
%TD*%
%TA.AperFunction,ComponentPad*%
%ADD13O,1.750000X1.750000*%
%TD*%
%TA.AperFunction,ComponentPad*%
%ADD14O,1.750000X2.000000*%
%TD*%
%TA.AperFunction,ComponentPad*%
%ADD15RoundRect,0.250000X0.600000X0.725000X-0.600000X0.725000X-0.600000X-0.725000X0.600000X-0.725000X0*%
%TD*%
%TA.AperFunction,ComponentPad*%
%ADD16O,1.700000X1.950000*%
%TD*%
%TA.AperFunction,ViaPad*%
%ADD17C,0.800000*%
%TD*%
%TA.AperFunction,ViaPad*%
%ADD18C,0.450000*%
%TD*%
%TA.AperFunction,Conductor*%
%ADD19C,0.100000*%
%TD*%
%TA.AperFunction,Conductor*%
%ADD20C,0.400000*%
%TD*%
G04 APERTURE END LIST*
D10*
%TO.P,H101,1,1*%
%TO.N,GND*%
X-15500000Y15500000D03*
X-15500000Y-15500000D03*
X15500000Y15500000D03*
X15500000Y-15500000D03*
%TD*%
D11*
%TO.P,J201,S1,SHIELD*%
%TO.N,GND*%
X-9426777Y-6032664D03*
X-12467336Y-9073223D03*
X-6032664Y-9426777D03*
X-9073223Y-12467336D03*
%TD*%
D12*
%TO.P,M101,1*%
%TO.N,/current sense/U_OUT*%
X-3700000Y16775000D03*
D13*
X-3700000Y14900000D03*
D14*
X-3700000Y12150000D03*
D12*
%TO.P,M101,2,-*%
%TO.N,/current sense/W_IN*%
X-1200000Y16775000D03*
D13*
X-1200000Y14900000D03*
D14*
X-1200000Y12150000D03*
D12*
%TO.P,M101,3*%
%TO.N,/half bridges/OUT1B*%
X1300000Y16775000D03*
D13*
X1300000Y14900000D03*
D14*
X1300000Y12150000D03*
D12*
%TO.P,M101,4*%
%TO.N,/current sense/V_OUT*%
X3800000Y16775000D03*
D13*
X3800000Y14900000D03*
D14*
X3800000Y12150000D03*
%TD*%
D15*
%TO.P,J101,1,Pin_1*%
%TO.N,Vmot*%
X7225000Y-14725000D03*
D16*
%TO.P,J101,2,Pin_2*%
%TO.N,GND*%
X4725000Y-14725000D03*
%TO.P,J101,3,Pin_3*%
%TO.N,/mcu/CANL*%
X2225000Y-14725000D03*
%TO.P,J101,4,Pin_4*%
%TO.N,/mcu/CANH*%
X-275000Y-14725000D03*
%TD*%
D17*
%TO.N,GND*%
X7675000Y2750000D03*
X-5130000Y5450000D03*
X-14630320Y-2499121D03*
X-5143750Y6825000D03*
X-2375000Y-14600000D03*
X-11650000Y1950000D03*
X-10375000Y675000D03*
X-9125000Y1975000D03*
X16675000Y-11200000D03*
X-10375000Y1950000D03*
X10585647Y5435647D03*
X11325000Y4725000D03*
X-10375000Y3150000D03*
X3475000Y-11825000D03*
X-1950000Y-1300000D03*
X3475000Y-10900000D03*
X8675000Y2725000D03*
X8070845Y-7288732D03*
X-4139000Y-1975000D03*
X1506250Y6850000D03*
X1475000Y-6125000D03*
X9910647Y6110647D03*
X-7550000Y-13000000D03*
X-250000Y-6800000D03*
X-1975000Y50000D03*
X-5395400Y-6375500D03*
X-2400000Y-16525000D03*
X7700000Y3775000D03*
X2223639Y600498D03*
X1506250Y7500000D03*
X2325000Y-11850000D03*
X-5143750Y7475000D03*
%TO.N,Vmot*%
X13575000Y-675000D03*
X3900000Y650000D03*
X-6275000Y16250000D03*
X4550000Y0D03*
X6305664Y12175000D03*
X6275000Y14250000D03*
X9950000Y-3975000D03*
X13575500Y-1567997D03*
X9025000Y-4375000D03*
X5450000Y175000D03*
X-6250000Y12175000D03*
X-6250000Y14225000D03*
X9850000Y-5000000D03*
X6250000Y16250000D03*
D18*
%TO.N,/mcu/USBD_P*%
X-5375000Y-10325000D03*
X-9650000Y-8850000D03*
X-8825000Y-9650000D03*
D17*
%TO.N,+3V3*%
X500000Y-12150000D03*
X-5075000Y-1225000D03*
X-6250000Y-16625000D03*
X-1700000Y-12150000D03*
X-625000Y-12150000D03*
X16075000Y-2500000D03*
X15625000Y-3350000D03*
X-12874972Y-2731439D03*
X2225000Y1600000D03*
X16550000Y-3375000D03*
X-2200000Y-11200000D03*
X220000Y9205000D03*
X-1125000Y-11200000D03*
X-7820000Y8645000D03*
X-300000Y-8700000D03*
X-10524127Y-3153111D03*
X-10100000Y7275000D03*
D18*
%TO.N,/mcu/RESET*%
X-15925000Y3250000D03*
X-11500000Y9605000D03*
X-3150000Y-6775000D03*
D17*
%TO.N,/current sense/W_IN*%
X4075000Y4700500D03*
X4075000Y5575000D03*
D18*
%TO.N,/current sense/U_SENSE*%
X-7060000Y10655000D03*
X-15325000Y3275000D03*
%TO.N,/current sense/V_SENSE*%
X-1000000Y7705000D03*
X-8906524Y-3034784D03*
D17*
%TO.N,/usb/USB_5V*%
X-9725000Y-11475000D03*
X-11550000Y-9800000D03*
X-6975000Y-8750000D03*
X-4725000Y-8900000D03*
X-8806854Y-7050000D03*
D18*
%TO.N,/mcu/USER_2*%
X-11950000Y-5525000D03*
X-15525241Y-5099495D03*
D17*
%TO.N,Net-(D603-K)*%
X4750000Y-1600000D03*
X4275000Y2750000D03*
D18*
%TO.N,Net-(D601-K)*%
X6025000Y5500000D03*
X10925000Y925000D03*
%TO.N,/usb/UCPD_CC2*%
X-7700000Y-10825000D03*
X-6075000Y-10850000D03*
%TO.N,/half bridges/ENA*%
X9150000Y-400000D03*
X4225000Y3750000D03*
X-9350000Y-3400000D03*
%TO.N,/encoder/SCK*%
X775000Y-4000000D03*
X-16600000Y2175000D03*
%TO.N,/encoder/CIPO*%
X-15900000Y1550000D03*
X-600000Y-4000000D03*
%TO.N,/encoder/COPI*%
X62132Y-4000000D03*
X-15925000Y2175000D03*
%TO.N,/encoder/CS*%
X1425000Y-4000000D03*
X-14650000Y-800000D03*
%TO.N,/encoder/CAL_EN*%
X-15900000Y400000D03*
X-1225000Y-3975000D03*
%TO.N,/mcu/USER_3*%
X-11250000Y-5450000D03*
X-15522442Y-4525000D03*
X-8350000Y-2625000D03*
X-5525000Y3150000D03*
%TO.N,/mcu/USER_1*%
X-11060733Y-6359180D03*
X-15524934Y-5673997D03*
%TO.N,/mcu/CAN_TX*%
X-3775000Y2675000D03*
X-7000021Y5305275D03*
%TO.N,/mcu/CAN_RX*%
X-6208321Y5326679D03*
X-3775000Y2100000D03*
%TO.N,/half bridges/IN2B*%
X4950000Y4350000D03*
X-14425000Y4075000D03*
%TO.N,/mcu/TIM4_CH1*%
X-7575000Y5300000D03*
X-14750000Y-150000D03*
%TO.N,/half bridges/IN1A*%
X-6375000Y-1425000D03*
X9550000Y25000D03*
%TO.N,/half bridges/IN2A*%
X9950000Y450000D03*
X-6950497Y-1450000D03*
%TO.N,/half bridges/IN1B*%
X-13975000Y4500000D03*
X5356234Y4756234D03*
%TO.N,/mcu/TIM4_CH2*%
X-15325000Y-575000D03*
X-7968766Y5718766D03*
D17*
%TO.N,/half bridges/OUT1B*%
X7575000Y6501000D03*
X6625000Y6500000D03*
D18*
%TO.N,/mcu/DIR*%
X2625000Y-3975000D03*
X-4600000Y2075000D03*
X-7525000Y-1450000D03*
%TO.N,/mcu/STEP*%
X-2700000Y-3900000D03*
X-4600497Y2675000D03*
%TO.N,/mcu/ADC1_IN12*%
X-14850000Y3675000D03*
X-8240000Y11265000D03*
%TO.N,/mcu/USER_BTN*%
X-11860000Y8425000D03*
X13550000Y4650000D03*
%TO.N,/current sense/GAIN_1*%
X-8765000Y7420000D03*
X-84208Y6245221D03*
%TO.N,/current sense/GAIN_0*%
X-3983000Y5788000D03*
X490000Y6215000D03*
X-8560000Y6755000D03*
%TD*%
D19*
%TO.N,/mcu/USBD_P*%
X-9625000Y-8850000D02*
X-9650000Y-8850000D01*
X-8825000Y-9650000D02*
X-8150000Y-9650000D01*
X-8150000Y-9650000D02*
X-7475000Y-10325000D01*
X-8825000Y-9650000D02*
X-9625000Y-8850000D01*
X-7475000Y-10325000D02*
X-5375000Y-10325000D01*
%TO.N,/mcu/RESET*%
X-4171889Y-4803111D02*
X-3150000Y-5825000D01*
X-3150000Y-5825000D02*
X-3150000Y-6775000D01*
X-15925000Y5495684D02*
X-15925000Y3250000D01*
X-11880000Y9225000D02*
X-12195684Y9225000D01*
X-14659779Y-4803111D02*
X-4171889Y-4803111D01*
X-17025000Y-2437890D02*
X-14659779Y-4803111D01*
X-12195684Y9225000D02*
X-15925000Y5495684D01*
X-15925000Y3250000D02*
X-16090686Y3250000D01*
X-11500000Y9605000D02*
X-11880000Y9225000D01*
X-17025000Y2315686D02*
X-17025000Y-2437890D01*
X-16090686Y3250000D02*
X-17025000Y2315686D01*
%TO.N,/current sense/U_SENSE*%
X-7060000Y10655000D02*
X-7560000Y10655000D01*
X-9190000Y9025000D02*
X-12112842Y9025000D01*
X-12112842Y9025000D02*
X-15325000Y5812842D01*
X-7560000Y10655000D02*
X-9190000Y9025000D01*
X-15325000Y5812842D02*
X-15325000Y3275000D01*
%TO.N,/mcu/USER_2*%
X-15099736Y-5525000D02*
X-11950000Y-5525000D01*
X-15525241Y-5099495D02*
X-15099736Y-5525000D01*
D20*
%TO.N,Net-(D603-K)*%
X4750000Y-1600000D02*
X5250000Y-1600000D01*
X6175000Y850000D02*
X4275000Y2750000D01*
X5250000Y-1600000D02*
X6175000Y-675000D01*
X6175000Y-675000D02*
X6175000Y850000D01*
D19*
%TO.N,Net-(D601-K)*%
X10925000Y925000D02*
X10575000Y1275000D01*
X6025000Y2500000D02*
X6025000Y5500000D01*
X7250000Y1275000D02*
X6025000Y2500000D01*
X10575000Y1275000D02*
X7250000Y1275000D01*
%TO.N,/usb/UCPD_CC2*%
X-7700000Y-10825000D02*
X-6100000Y-10825000D01*
X-6100000Y-10825000D02*
X-6075000Y-10850000D01*
%TO.N,/half bridges/ENA*%
X9150000Y925000D02*
X7075000Y925000D01*
X-9146889Y-3603111D02*
X-9350000Y-3400000D01*
X9150000Y-400000D02*
X9150000Y925000D01*
X-1282842Y-3125000D02*
X-2482842Y-4325000D01*
X10075000Y925000D02*
X10475000Y525000D01*
X10475000Y-575000D02*
X8125000Y-2925000D01*
X-2952948Y-4325000D02*
X-3674837Y-3603111D01*
X8125000Y-2925000D02*
X4375000Y-2925000D01*
X9525000Y925000D02*
X10075000Y925000D01*
X4250000Y3750000D02*
X4225000Y3750000D01*
X10475000Y525000D02*
X10475000Y-575000D01*
X-3674837Y-3603111D02*
X-9146889Y-3603111D01*
X7075000Y925000D02*
X4250000Y3750000D01*
X1125000Y-3125000D02*
X-1282842Y-3125000D01*
X9525000Y925000D02*
X9150000Y925000D01*
X2400000Y-4400000D02*
X1125000Y-3125000D01*
X-2482842Y-4325000D02*
X-2952948Y-4325000D01*
X4375000Y-2925000D02*
X2900000Y-4400000D01*
X2900000Y-4400000D02*
X2400000Y-4400000D01*
%TO.N,/encoder/SCK*%
X-3367158Y-5325000D02*
X-550000Y-5325000D01*
X-16825000Y-2355048D02*
X-14576937Y-4603111D01*
X-14576937Y-4603111D02*
X-4089047Y-4603111D01*
X-550000Y-5325000D02*
X775000Y-4000000D01*
X-4089047Y-4603111D02*
X-3367158Y-5325000D01*
X-16600000Y2175000D02*
X-16825000Y1950000D01*
X-16825000Y1950000D02*
X-16825000Y-2355048D01*
%TO.N,/encoder/CIPO*%
X-3201474Y-4925000D02*
X-1525000Y-4925000D01*
X-1525000Y-4925000D02*
X-600000Y-4000000D01*
X-16425000Y1025000D02*
X-16425000Y-2189364D01*
X-14411253Y-4203111D02*
X-3923363Y-4203111D01*
X-16425000Y-2189364D02*
X-14411253Y-4203111D01*
X-3923363Y-4203111D02*
X-3201474Y-4925000D01*
X-15900000Y1550000D02*
X-16425000Y1025000D01*
%TO.N,/encoder/COPI*%
X-1062868Y-5125000D02*
X62132Y-4000000D01*
X-4006205Y-4403111D02*
X-3284316Y-5125000D01*
X-15925000Y2175000D02*
X-16625000Y1475000D01*
X-3284316Y-5125000D02*
X-1062868Y-5125000D01*
X-14494095Y-4403111D02*
X-4006205Y-4403111D01*
X-16625000Y-2272206D02*
X-14494095Y-4403111D01*
X-16625000Y1475000D02*
X-16625000Y-2272206D01*
%TO.N,/encoder/CS*%
X-14245569Y-3803111D02*
X-3757679Y-3803111D01*
X-1200000Y-3325000D02*
X750000Y-3325000D01*
X-15575000Y-2473680D02*
X-14245569Y-3803111D01*
X-14700000Y-800000D02*
X-15575000Y-1675000D01*
X-3757679Y-3803111D02*
X-3035790Y-4525000D01*
X750000Y-3325000D02*
X1425000Y-4000000D01*
X-3035790Y-4525000D02*
X-2400000Y-4525000D01*
X-2400000Y-4525000D02*
X-1200000Y-3325000D01*
X-15575000Y-1675000D02*
X-15575000Y-2473680D01*
X-14650000Y-800000D02*
X-14700000Y-800000D01*
%TO.N,/encoder/CAL_EN*%
X-15900000Y400000D02*
X-16225000Y75000D01*
X-14328411Y-4003111D02*
X-3840521Y-4003111D01*
X-16225000Y75000D02*
X-16225000Y-2106522D01*
X-1975000Y-4725000D02*
X-1225000Y-3975000D01*
X-16225000Y-2106522D02*
X-14328411Y-4003111D01*
X-3840521Y-4003111D02*
X-3118632Y-4725000D01*
X-3118632Y-4725000D02*
X-1975000Y-4725000D01*
%TO.N,/mcu/USER_3*%
X-8325000Y-1400000D02*
X-8325000Y-2600000D01*
X-14922442Y-5125000D02*
X-15522442Y-4525000D01*
X-5525000Y3150000D02*
X-5525000Y1400000D01*
X-5525000Y1400000D02*
X-8325000Y-1400000D01*
X-11250000Y-5450000D02*
X-11575000Y-5125000D01*
X-8325000Y-2600000D02*
X-8350000Y-2625000D01*
X-11575000Y-5125000D02*
X-14922442Y-5125000D01*
%TO.N,/mcu/USER_1*%
X-11060733Y-6359180D02*
X-11494913Y-5925000D01*
X-15273931Y-5925000D02*
X-15524934Y-5673997D01*
X-11494913Y-5925000D02*
X-15273931Y-5925000D01*
%TO.N,/half bridges/IN2B*%
X-13834314Y4075000D02*
X-14425000Y4075000D01*
X4950000Y4350000D02*
X4950000Y6581250D01*
X3296250Y8235000D02*
X-6450000Y8235000D01*
X4950000Y6581250D02*
X3296250Y8235000D01*
X-6450000Y8235000D02*
X-7120000Y7565000D01*
X-8715684Y8025000D02*
X-11411472Y8025000D01*
X-13575000Y5861472D02*
X-13575000Y4334314D01*
X-13575000Y4334314D02*
X-13834314Y4075000D01*
X-11411472Y8025000D02*
X-13575000Y5861472D01*
X-8255684Y7565000D02*
X-8715684Y8025000D01*
X-7120000Y7565000D02*
X-8255684Y7565000D01*
%TO.N,/mcu/TIM4_CH1*%
X-14750000Y2592158D02*
X-12042158Y5300000D01*
X-14750000Y-150000D02*
X-14750000Y2592158D01*
X-12042158Y5300000D02*
X-7575000Y5300000D01*
%TO.N,/half bridges/IN1A*%
X-6375000Y-2050000D02*
X-6375000Y-1425000D01*
X9550000Y25000D02*
X9550000Y-934316D01*
X-5900000Y-2525000D02*
X-6375000Y-2050000D01*
X7959316Y-2525000D02*
X-5900000Y-2525000D01*
X9550000Y-934316D02*
X7959316Y-2525000D01*
%TO.N,/half bridges/IN2A*%
X9950000Y-817158D02*
X8042158Y-2725000D01*
X8042158Y-2725000D02*
X-6250002Y-2725000D01*
X9950000Y450000D02*
X9950000Y-817158D01*
X-6250002Y-2725000D02*
X-6950497Y-2024505D01*
X-6950497Y-2024505D02*
X-6950497Y-1450000D01*
%TO.N,/half bridges/IN1B*%
X-11494314Y8225000D02*
X-13975000Y5744314D01*
X-7217158Y7765000D02*
X-8172842Y7765000D01*
X5356234Y6575016D02*
X3496250Y8435000D01*
X3496250Y8435000D02*
X-6547158Y8435000D01*
X-13975000Y5744314D02*
X-13975000Y4500000D01*
X5356234Y4756234D02*
X5356234Y6575016D01*
X-6547158Y8435000D02*
X-7217158Y7765000D01*
X-8632842Y8225000D02*
X-11494314Y8225000D01*
X-8172842Y7765000D02*
X-8632842Y8225000D01*
%TO.N,/mcu/TIM4_CH2*%
X-7975000Y5725000D02*
X-7968766Y5718766D01*
X-15325000Y-575000D02*
X-15325000Y2300000D01*
X-15325000Y2300000D02*
X-11900000Y5725000D01*
X-11900000Y5725000D02*
X-7975000Y5725000D01*
%TO.N,/mcu/DIR*%
X-7525000Y-1165684D02*
X-7525000Y-1450000D01*
X1575000Y-2925000D02*
X-6625000Y-2925000D01*
X-4600000Y1759316D02*
X-7525000Y-1165684D01*
X2625000Y-3975000D02*
X1575000Y-2925000D01*
X-6625000Y-2925000D02*
X-7525000Y-2025000D01*
X-7525000Y-2025000D02*
X-7525000Y-1450000D01*
X-4600000Y2075000D02*
X-4600000Y1759316D01*
%TO.N,/mcu/STEP*%
X-5000000Y2275497D02*
X-5000000Y1642158D01*
X-6707842Y-3125000D02*
X-3475000Y-3125000D01*
X-7950000Y-1882842D02*
X-6707842Y-3125000D01*
X-7950000Y-1307842D02*
X-7950000Y-1882842D01*
X-4600497Y2675000D02*
X-5000000Y2275497D01*
X-5000000Y1642158D02*
X-7950000Y-1307842D01*
X-3475000Y-3125000D02*
X-2700000Y-3900000D01*
%TO.N,/mcu/ADC1_IN12*%
X-8240000Y11265000D02*
X-8080000Y11105000D01*
X-7797158Y10135000D02*
X-9107158Y8825000D01*
X-14850000Y6005000D02*
X-14850000Y3675000D01*
X-6630000Y10815000D02*
X-6630000Y10385000D01*
X-6630000Y10385000D02*
X-6880000Y10135000D01*
X-9107158Y8825000D02*
X-12030000Y8825000D01*
X-6920000Y11105000D02*
X-6630000Y10815000D01*
X-12030000Y8825000D02*
X-14850000Y6005000D01*
X-6880000Y10135000D02*
X-7797158Y10135000D01*
X-8080000Y11105000D02*
X-6920000Y11105000D01*
%TO.N,/mcu/USER_BTN*%
X-8090000Y7965000D02*
X-7300000Y7965000D01*
X-8550000Y8425000D02*
X-8090000Y7965000D01*
X9565000Y8635000D02*
X13550000Y4650000D01*
X-11860000Y8425000D02*
X-8550000Y8425000D01*
X-6630000Y8635000D02*
X9565000Y8635000D01*
X-7300000Y7965000D02*
X-6630000Y8635000D01*
%TO.N,/current sense/GAIN_1*%
X-7037157Y7365000D02*
X-8710000Y7365000D01*
X-84208Y6245221D02*
X-962021Y6245221D01*
X-2751800Y8035000D02*
X-6367157Y8035000D01*
X-6367157Y8035000D02*
X-7037157Y7365000D01*
X-8710000Y7365000D02*
X-8765000Y7420000D01*
X-962021Y6245221D02*
X-2751800Y8035000D01*
%TO.N,/current sense/GAIN_0*%
X-7936266Y6131266D02*
X-8560000Y6755000D01*
X-3983000Y5788000D02*
X-4326266Y6131266D01*
X-4326266Y6131266D02*
X-7936266Y6131266D01*
%TD*%
%TA.AperFunction,Conductor*%
%TO.N,GND*%
G36*
X-4387132Y-5373573D02*
G01*
X-4356273Y-5397252D01*
X-3744141Y-6009383D01*
X-3705577Y-6076178D01*
X-3700500Y-6114742D01*
X-3700500Y-6244549D01*
X-3720462Y-6319049D01*
X-3723338Y-6323822D01*
X-3807788Y-6458222D01*
X-3861787Y-6612541D01*
X-3880091Y-6774999D01*
X-3880091Y-6775000D01*
X-3861786Y-6937462D01*
X-3842785Y-6991765D01*
X-3837022Y-7068677D01*
X-3870487Y-7138167D01*
X-3934214Y-7181614D01*
X-4011126Y-7187377D01*
X-4080616Y-7153912D01*
X-4088770Y-7146346D01*
X-4646411Y-6588705D01*
X-4652805Y-6582423D01*
X-4652874Y-6582356D01*
X-4655952Y-6579385D01*
X-4662577Y-6573103D01*
X-4662580Y-6573101D01*
X-4780766Y-6491043D01*
X-4780769Y-6491041D01*
X-4826690Y-6468055D01*
X-4843245Y-6459768D01*
X-4979758Y-6414331D01*
X-4979760Y-6414330D01*
X-4979763Y-6414330D01*
X-5123543Y-6409194D01*
X-5123544Y-6409194D01*
X-5123547Y-6409194D01*
X-5191822Y-6416533D01*
X-5192893Y-6416639D01*
X-5193030Y-6416663D01*
X-5336020Y-6453161D01*
X-5413142Y-6452244D01*
X-5479474Y-6412889D01*
X-5498211Y-6389353D01*
X-5561126Y-6291457D01*
X-5606881Y-6238653D01*
X-5619562Y-6227664D01*
X-5715617Y-6144431D01*
X-5846490Y-6084663D01*
X-5846492Y-6084662D01*
X-5846497Y-6084660D01*
X-5846504Y-6084658D01*
X-5913528Y-6064977D01*
X-5913541Y-6064974D01*
X-5913545Y-6064973D01*
X-6055937Y-6044501D01*
X-6055949Y-6044500D01*
X-6055951Y-6044500D01*
X-8285727Y-6044500D01*
X-8360227Y-6024538D01*
X-8414765Y-5970000D01*
X-8434010Y-5910104D01*
X-8441247Y-5836627D01*
X-8498428Y-5648129D01*
X-8498428Y-5648127D01*
X-8538665Y-5572848D01*
X-8556178Y-5497735D01*
X-8533789Y-5423928D01*
X-8477495Y-5371204D01*
X-8407258Y-5353611D01*
X-4461632Y-5353611D01*
X-4387132Y-5373573D01*
G37*
%TD.AperFunction*%
%TA.AperFunction,Conductor*%
G36*
X3081007Y7664538D02*
G01*
X3111866Y7640859D01*
X4031137Y6721588D01*
X4069701Y6654793D01*
X4069701Y6577665D01*
X4031137Y6510870D01*
X3964342Y6472306D01*
X3956758Y6470485D01*
X3840569Y6445788D01*
X3795197Y6436144D01*
X3795196Y6436144D01*
X3795193Y6436143D01*
X3622272Y6359153D01*
X3469127Y6247887D01*
X3342469Y6107221D01*
X3247822Y5943286D01*
X3247819Y5943279D01*
X3189325Y5763255D01*
X3169540Y5575000D01*
X3189325Y5386746D01*
X3206855Y5332796D01*
X3247821Y5206716D01*
X3247823Y5206711D01*
X3250998Y5199582D01*
X3248345Y5198401D01*
X3264588Y5137699D01*
X3248349Y5077098D01*
X3250998Y5075918D01*
X3247819Y5068779D01*
X3189325Y4888755D01*
X3169540Y4700500D01*
X3189325Y4512246D01*
X3189326Y4512244D01*
X3247821Y4332216D01*
X3247822Y4332215D01*
X3342469Y4168280D01*
X3474354Y4021809D01*
X3472090Y4019771D01*
X3506002Y3967538D01*
X3512353Y3904828D01*
X3501603Y3809413D01*
X3494909Y3750000D01*
X3513214Y3587539D01*
X3536817Y3520085D01*
X3569185Y3427583D01*
X3574948Y3350671D01*
X3545550Y3289626D01*
X3547056Y3288532D01*
X3542466Y3282216D01*
X3447822Y3118286D01*
X3447819Y3118279D01*
X3389325Y2938255D01*
X3369540Y2750000D01*
X3389325Y2561746D01*
X3435756Y2418847D01*
X3447821Y2381716D01*
X3474034Y2336314D01*
X3542469Y2217780D01*
X3648520Y2100000D01*
X3669129Y2077112D01*
X3822270Y1965849D01*
X3995197Y1888856D01*
X4142884Y1857465D01*
X4211604Y1822450D01*
X4217263Y1817080D01*
X4260207Y1774136D01*
X4298771Y1707341D01*
X4298771Y1630213D01*
X4260207Y1563418D01*
X4193412Y1524854D01*
X4123869Y1523033D01*
X3994648Y1550500D01*
X3994646Y1550500D01*
X3805354Y1550500D01*
X3805352Y1550500D01*
X3705392Y1529253D01*
X3620197Y1511144D01*
X3620195Y1511144D01*
X3620194Y1511143D01*
X3447270Y1434152D01*
X3356139Y1367942D01*
X3284133Y1340302D01*
X3207955Y1352368D01*
X3148016Y1400907D01*
X3120376Y1472913D01*
X3120376Y1504055D01*
X3130460Y1600000D01*
X3110674Y1788256D01*
X3052179Y1968284D01*
X2957533Y2132216D01*
X2957532Y2132217D01*
X2957530Y2132221D01*
X2830872Y2272887D01*
X2705282Y2364133D01*
X2677730Y2384151D01*
X2677729Y2384152D01*
X2677727Y2384153D01*
X2504805Y2461143D01*
X2504803Y2461144D01*
X2395932Y2484285D01*
X2319648Y2500500D01*
X2319646Y2500500D01*
X2130354Y2500500D01*
X2130352Y2500500D01*
X2044503Y2482252D01*
X1945197Y2461144D01*
X1945195Y2461144D01*
X1945194Y2461143D01*
X1772272Y2384153D01*
X1619127Y2272887D01*
X1492469Y2132221D01*
X1397822Y1968286D01*
X1397819Y1968279D01*
X1339325Y1788255D01*
X1319540Y1600000D01*
X1339325Y1411746D01*
X1362539Y1340302D01*
X1397821Y1231716D01*
X1397822Y1231715D01*
X1492469Y1067780D01*
X1619127Y927114D01*
X1619129Y927112D01*
X1772270Y815849D01*
X1945197Y738856D01*
X2086315Y708861D01*
X2130352Y699500D01*
X2130354Y699500D01*
X2319648Y699500D01*
X2359004Y707866D01*
X2504803Y738856D01*
X2677730Y815849D01*
X2768859Y882059D01*
X2840864Y909699D01*
X2917042Y897633D01*
X2976982Y849095D01*
X3004623Y777090D01*
X3004623Y745942D01*
X2994540Y650001D01*
X3014325Y461746D01*
X3058591Y325512D01*
X3072821Y281716D01*
X3099200Y236027D01*
X3167469Y117780D01*
X3262302Y12459D01*
X3294129Y-22888D01*
X3447270Y-134151D01*
X3619881Y-211003D01*
X3679821Y-259541D01*
X3700983Y-301076D01*
X3722821Y-368284D01*
X3722822Y-368285D01*
X3817469Y-532220D01*
X3912302Y-637541D01*
X3944129Y-672888D01*
X4021405Y-729032D01*
X4069536Y-764001D01*
X4118074Y-823941D01*
X4130140Y-900120D01*
X4102500Y-972125D01*
X4092685Y-984245D01*
X4017469Y-1067780D01*
X3922822Y-1231714D01*
X3922819Y-1231721D01*
X3864325Y-1411745D01*
X3844540Y-1600000D01*
X3864325Y-1788250D01*
X3865657Y-1794515D01*
X3861623Y-1871538D01*
X3819619Y-1936224D01*
X3750899Y-1971243D01*
X3719914Y-1974500D01*
X-4209841Y-1974500D01*
X-4284341Y-1954538D01*
X-4338879Y-1900000D01*
X-4358841Y-1825500D01*
X-4338880Y-1751002D01*
X-4247821Y-1593284D01*
X-4189326Y-1413256D01*
X-4169540Y-1225000D01*
X-4189326Y-1036744D01*
X-4247821Y-856716D01*
X-4342467Y-692784D01*
X-4342468Y-692783D01*
X-4342470Y-692779D01*
X-4469128Y-552113D01*
X-4563945Y-483225D01*
X-4622270Y-440849D01*
X-4622271Y-440848D01*
X-4622273Y-440847D01*
X-4770719Y-374754D01*
X-4795197Y-363856D01*
X-4901640Y-341231D01*
X-4980352Y-324500D01*
X-4980354Y-324500D01*
X-5169646Y-324500D01*
X-5169648Y-324500D01*
X-5269608Y-345747D01*
X-5354803Y-363856D01*
X-5354805Y-363856D01*
X-5354806Y-363857D01*
X-5527728Y-440847D01*
X-5680873Y-552113D01*
X-5807532Y-692781D01*
X-5828462Y-729032D01*
X-5883001Y-783568D01*
X-5957501Y-803529D01*
X-6032001Y-783565D01*
X-6036770Y-780691D01*
X-6058218Y-767214D01*
X-6064611Y-764136D01*
X-6123073Y-713827D01*
X-6148548Y-641028D01*
X-6134211Y-565244D01*
X-6105327Y-524534D01*
X-4219151Y1361642D01*
X-4215552Y1365120D01*
X-4187623Y1391203D01*
X-4119554Y1427462D01*
X-4042470Y1424828D01*
X-4036747Y1422956D01*
X-3937461Y1388214D01*
X-3866379Y1380205D01*
X-3775001Y1369909D01*
X-3775000Y1369909D01*
X-3774999Y1369909D01*
X-3734385Y1374486D01*
X-3612539Y1388214D01*
X-3458225Y1442211D01*
X-3319796Y1529192D01*
X-3204192Y1644796D01*
X-3117211Y1783225D01*
X-3063214Y1937539D01*
X-3044909Y2100000D01*
X-3063214Y2262461D01*
X-3089749Y2338291D01*
X-3095513Y2415199D01*
X-3089752Y2436701D01*
X-3063214Y2512539D01*
X-3044909Y2675000D01*
X-3063214Y2837461D01*
X-3117211Y2991775D01*
X-3204192Y3130204D01*
X-3319796Y3245808D01*
X-3458225Y3332789D01*
X-3612539Y3386786D01*
X-3612540Y3386787D01*
X-3612542Y3386787D01*
X-3774999Y3405091D01*
X-3775001Y3405091D01*
X-3937459Y3386787D01*
X-4091777Y3332789D01*
X-4108481Y3322293D01*
X-4182184Y3299562D01*
X-4257377Y3316728D01*
X-4267021Y3322296D01*
X-4283718Y3332788D01*
X-4438039Y3386787D01*
X-4600496Y3405091D01*
X-4600499Y3405091D01*
X-4720347Y3391588D01*
X-4796614Y3403084D01*
X-4856914Y3451172D01*
X-4863191Y3460378D01*
X-4954192Y3605204D01*
X-5069795Y3720807D01*
X-5069796Y3720808D01*
X-5208225Y3807789D01*
X-5362539Y3861786D01*
X-5362540Y3861787D01*
X-5362542Y3861787D01*
X-5524999Y3880091D01*
X-5525001Y3880091D01*
X-5687459Y3861787D01*
X-5764618Y3834788D01*
X-5841775Y3807789D01*
X-5980204Y3720808D01*
X-6095808Y3605204D01*
X-6182789Y3466775D01*
X-6209098Y3391588D01*
X-6236787Y3312459D01*
X-6255091Y3150001D01*
X-6255091Y3150000D01*
X-6236787Y2987542D01*
X-6236787Y2987540D01*
X-6236786Y2987539D01*
X-6182789Y2833225D01*
X-6182788Y2833224D01*
X-6098338Y2698823D01*
X-6075604Y2625122D01*
X-6075500Y2619550D01*
X-6075500Y1689744D01*
X-6095462Y1615244D01*
X-6119141Y1584385D01*
X-8705825Y-1002298D01*
X-8709481Y-1005831D01*
X-8756043Y-1049318D01*
X-8776723Y-1083324D01*
X-8785303Y-1095930D01*
X-8809361Y-1127656D01*
X-8809362Y-1127657D01*
X-8815163Y-1142368D01*
X-8826457Y-1165108D01*
X-8834674Y-1178621D01*
X-8834675Y-1178623D01*
X-8845414Y-1216949D01*
X-8850274Y-1231401D01*
X-8864875Y-1268428D01*
X-8864877Y-1268437D01*
X-8866494Y-1284163D01*
X-8871234Y-1309105D01*
X-8875500Y-1324334D01*
X-8875500Y-1364135D01*
X-8876281Y-1379372D01*
X-8880352Y-1418972D01*
X-8877667Y-1434544D01*
X-8875500Y-1459862D01*
X-8875500Y-2062770D01*
X-8895462Y-2137270D01*
X-8919141Y-2168129D01*
X-8920807Y-2169795D01*
X-8920813Y-2169802D01*
X-8975545Y-2256907D01*
X-9032084Y-2309368D01*
X-9061120Y-2320142D01*
X-9061087Y-2320235D01*
X-9066016Y-2321959D01*
X-9068539Y-2322896D01*
X-9068979Y-2322996D01*
X-9068985Y-2322997D01*
X-9068985Y-2322998D01*
X-9223299Y-2376995D01*
X-9223301Y-2376995D01*
X-9223301Y-2376996D01*
X-9361728Y-2463976D01*
X-9477331Y-2579579D01*
X-9477335Y-2579582D01*
X-9521981Y-2650636D01*
X-9578521Y-2703096D01*
X-9653715Y-2720258D01*
X-9727416Y-2697523D01*
X-9777181Y-2645860D01*
X-9779562Y-2641736D01*
X-9791594Y-2620895D01*
X-9918256Y-2480223D01*
X-10071397Y-2368960D01*
X-10071398Y-2368959D01*
X-10071400Y-2368958D01*
X-10244322Y-2291968D01*
X-10244324Y-2291967D01*
X-10350767Y-2269342D01*
X-10429479Y-2252611D01*
X-10429481Y-2252611D01*
X-10618773Y-2252611D01*
X-10618775Y-2252611D01*
X-10718735Y-2273858D01*
X-10803930Y-2291967D01*
X-10803932Y-2291967D01*
X-10803933Y-2291968D01*
X-10976855Y-2368958D01*
X-11130000Y-2480224D01*
X-11256658Y-2620890D01*
X-11351305Y-2784825D01*
X-11351308Y-2784832D01*
X-11409802Y-2964856D01*
X-11426021Y-3119185D01*
X-11453661Y-3191190D01*
X-11513600Y-3239729D01*
X-11574205Y-3252611D01*
X-11892389Y-3252611D01*
X-11966889Y-3232649D01*
X-12021427Y-3178111D01*
X-12041389Y-3103611D01*
X-12034096Y-3057567D01*
X-11989298Y-2919695D01*
X-11969512Y-2731439D01*
X-11989298Y-2543183D01*
X-12047793Y-2363155D01*
X-12142439Y-2199223D01*
X-12142440Y-2199222D01*
X-12142442Y-2199218D01*
X-12269100Y-2058552D01*
X-12393344Y-1968284D01*
X-12422242Y-1947288D01*
X-12422243Y-1947287D01*
X-12422245Y-1947286D01*
X-12595167Y-1870296D01*
X-12595169Y-1870295D01*
X-12701612Y-1847670D01*
X-12780324Y-1830939D01*
X-12780326Y-1830939D01*
X-12969618Y-1830939D01*
X-12969620Y-1830939D01*
X-13069580Y-1852186D01*
X-13154775Y-1870295D01*
X-13154777Y-1870295D01*
X-13154778Y-1870296D01*
X-13327700Y-1947286D01*
X-13480845Y-2058552D01*
X-13607503Y-2199218D01*
X-13702150Y-2363153D01*
X-13702153Y-2363160D01*
X-13760647Y-2543184D01*
X-13780432Y-2731439D01*
X-13760647Y-2919693D01*
X-13760646Y-2919695D01*
X-13717459Y-3052611D01*
X-13715848Y-3057567D01*
X-13711811Y-3134589D01*
X-13746826Y-3203311D01*
X-13811511Y-3245318D01*
X-13857555Y-3252611D01*
X-13955827Y-3252611D01*
X-14030327Y-3232649D01*
X-14061186Y-3208970D01*
X-14980859Y-2289296D01*
X-15019423Y-2222501D01*
X-15024500Y-2183937D01*
X-15024500Y-1964742D01*
X-15004538Y-1890242D01*
X-14980862Y-1859386D01*
X-14688631Y-1567154D01*
X-14621838Y-1528592D01*
X-14599961Y-1524452D01*
X-14487539Y-1511786D01*
X-14333225Y-1457789D01*
X-14194796Y-1370808D01*
X-14079192Y-1255204D01*
X-13992211Y-1116775D01*
X-13938214Y-962461D01*
X-13919909Y-800000D01*
X-13921608Y-784925D01*
X-13929618Y-713827D01*
X-13938214Y-637539D01*
X-13992211Y-483225D01*
X-13992213Y-483222D01*
X-13992213Y-483221D01*
X-14021963Y-435875D01*
X-14044698Y-362173D01*
X-14038483Y-320983D01*
X-14040076Y-320620D01*
X-14038215Y-312463D01*
X-14038214Y-312461D01*
X-14019909Y-150000D01*
X-14038214Y12461D01*
X-14092211Y166775D01*
X-14176662Y301178D01*
X-14199396Y374880D01*
X-14199500Y380451D01*
X-14199500Y2302415D01*
X-14179538Y2376915D01*
X-14155859Y2407774D01*
X-11857774Y4705859D01*
X-11790979Y4744423D01*
X-11752415Y4749500D01*
X-8105450Y4749500D01*
X-8030950Y4729538D01*
X-8026191Y4726670D01*
X-7891775Y4642211D01*
X-7737461Y4588214D01*
X-7629154Y4576011D01*
X-7575001Y4569909D01*
X-7575000Y4569909D01*
X-7574999Y4569909D01*
X-7520847Y4576011D01*
X-7412539Y4588214D01*
X-7329183Y4617383D01*
X-7252276Y4623147D01*
X-7230768Y4617384D01*
X-7162482Y4593489D01*
X-7018327Y4577247D01*
X-7000022Y4575184D01*
X-7000021Y4575184D01*
X-7000020Y4575184D01*
X-6959406Y4579761D01*
X-6837560Y4593489D01*
X-6683246Y4647486D01*
X-6665073Y4658906D01*
X-6591373Y4681641D01*
X-6533709Y4669612D01*
X-6532994Y4671654D01*
X-6525098Y4668891D01*
X-6525096Y4668890D01*
X-6370782Y4614893D01*
X-6262475Y4602690D01*
X-6208322Y4596588D01*
X-6208321Y4596588D01*
X-6208320Y4596588D01*
X-6167706Y4601165D01*
X-6045860Y4614893D01*
X-5891546Y4668890D01*
X-5753117Y4755871D01*
X-5637513Y4871475D01*
X-5550532Y5009904D01*
X-5496535Y5164218D01*
X-5478230Y5326679D01*
X-5488191Y5415084D01*
X-5476696Y5491349D01*
X-5428608Y5551651D01*
X-5356811Y5579829D01*
X-5340128Y5580766D01*
X-4784840Y5580766D01*
X-4710340Y5560804D01*
X-4655802Y5506266D01*
X-4644201Y5480975D01*
X-4640789Y5471225D01*
X-4553808Y5332796D01*
X-4438204Y5217192D01*
X-4299775Y5130211D01*
X-4145461Y5076214D01*
X-4037154Y5064011D01*
X-3983001Y5057909D01*
X-3983000Y5057909D01*
X-3982999Y5057909D01*
X-3942385Y5062486D01*
X-3820539Y5076214D01*
X-3666225Y5130211D01*
X-3527796Y5217192D01*
X-3412192Y5332796D01*
X-3325211Y5471225D01*
X-3271214Y5625539D01*
X-3252909Y5788000D01*
X-3271214Y5950461D01*
X-3325211Y6104775D01*
X-3412192Y6243204D01*
X-3527796Y6358808D01*
X-3666225Y6445789D01*
X-3820539Y6499786D01*
X-3820540Y6499787D01*
X-3820542Y6499787D01*
X-3873896Y6505798D01*
X-3945693Y6533976D01*
X-3966106Y6552159D01*
X-3975586Y6562310D01*
X-3975589Y6562312D01*
X-3975591Y6562314D01*
X-4009594Y6582992D01*
X-4022205Y6591574D01*
X-4053924Y6615627D01*
X-4053925Y6615628D01*
X-4053927Y6615629D01*
X-4068634Y6621429D01*
X-4091382Y6632728D01*
X-4104883Y6640938D01*
X-4104888Y6640940D01*
X-4143219Y6651680D01*
X-4157677Y6656542D01*
X-4194704Y6671143D01*
X-4194703Y6671143D01*
X-4210423Y6672759D01*
X-4235378Y6677501D01*
X-4250600Y6681766D01*
X-4250601Y6681766D01*
X-4290401Y6681766D01*
X-4305638Y6682547D01*
X-4319121Y6683933D01*
X-4345238Y6686618D01*
X-4345239Y6686618D01*
X-4345240Y6686618D01*
X-4356912Y6684606D01*
X-4360812Y6683933D01*
X-4386128Y6681766D01*
X-6582149Y6681766D01*
X-6656649Y6701728D01*
X-6711187Y6756266D01*
X-6731149Y6830766D01*
X-6711187Y6905266D01*
X-6687517Y6936116D01*
X-6673241Y6950393D01*
X-6661943Y6960590D01*
X-6631049Y6985722D01*
X-6621936Y6998635D01*
X-6605573Y7018061D01*
X-6182774Y7440859D01*
X-6115979Y7479423D01*
X-6077415Y7484500D01*
X-3041543Y7484500D01*
X-2967043Y7464538D01*
X-2936184Y7440859D01*
X-1359725Y5864400D01*
X-1356190Y5860742D01*
X-1312701Y5814177D01*
X-1312700Y5814176D01*
X-1278691Y5793494D01*
X-1266080Y5784911D01*
X-1234366Y5760862D01*
X-1234362Y5760859D01*
X-1219659Y5755061D01*
X-1196908Y5743762D01*
X-1183403Y5735549D01*
X-1145070Y5724809D01*
X-1130623Y5719951D01*
X-1093585Y5705345D01*
X-1077867Y5703729D01*
X-1052905Y5698985D01*
X-1045432Y5696892D01*
X-1037686Y5694721D01*
X-997886Y5694721D01*
X-982649Y5693940D01*
X-980930Y5693764D01*
X-943049Y5689869D01*
X-927476Y5692555D01*
X-902159Y5694721D01*
X-614658Y5694721D01*
X-540158Y5674759D01*
X-535399Y5671891D01*
X-400983Y5587432D01*
X-246669Y5533435D01*
X-138362Y5521232D01*
X-84209Y5515130D01*
X-84208Y5515130D01*
X-84207Y5515130D01*
X-30055Y5521232D01*
X78253Y5533435D01*
X110500Y5544720D01*
X187411Y5550484D01*
X208915Y5544723D01*
X327539Y5503214D01*
X432844Y5491349D01*
X489999Y5484909D01*
X490000Y5484909D01*
X490001Y5484909D01*
X547156Y5491349D01*
X652461Y5503214D01*
X806775Y5557211D01*
X945204Y5644192D01*
X1060808Y5759796D01*
X1147789Y5898225D01*
X1201786Y6052539D01*
X1220091Y6215000D01*
X1201786Y6377461D01*
X1147789Y6531775D01*
X1060808Y6670204D01*
X945204Y6785808D01*
X806775Y6872789D01*
X652461Y6926786D01*
X652460Y6926787D01*
X652458Y6926787D01*
X490001Y6945091D01*
X489999Y6945091D01*
X327534Y6926786D01*
X327531Y6926785D01*
X295286Y6915502D01*
X218374Y6909739D01*
X196873Y6915500D01*
X78253Y6957007D01*
X78252Y6957008D01*
X78250Y6957008D01*
X-84207Y6975312D01*
X-84209Y6975312D01*
X-246669Y6957007D01*
X-361646Y6916775D01*
X-438558Y6911012D01*
X-508048Y6944477D01*
X-551496Y7008203D01*
X-557259Y7085115D01*
X-523794Y7154605D01*
X-516215Y7162773D01*
X-429197Y7249791D01*
X-429192Y7249796D01*
X-342211Y7388225D01*
X-288214Y7542539D01*
X-287128Y7552184D01*
X-258952Y7623976D01*
X-198653Y7672066D01*
X-139065Y7684500D01*
X3006507Y7684500D01*
X3081007Y7664538D01*
G37*
%TD.AperFunction*%
%TA.AperFunction,Conductor*%
G36*
X10146646Y7273336D02*
G01*
X10159908Y7261567D01*
X12789192Y4632284D01*
X12827756Y4565489D01*
X12831896Y4543609D01*
X12838213Y4487542D01*
X12838213Y4487540D01*
X12838214Y4487539D01*
X12892211Y4333225D01*
X12979192Y4194796D01*
X13094796Y4079192D01*
X13233225Y3992211D01*
X13387539Y3938214D01*
X13495846Y3926011D01*
X13549999Y3919909D01*
X13550000Y3919909D01*
X13550001Y3919909D01*
X13604153Y3926011D01*
X13712461Y3938214D01*
X13746289Y3950052D01*
X13823198Y3955816D01*
X13892689Y3922352D01*
X13936138Y3858627D01*
X13944500Y3809413D01*
X13944500Y3021103D01*
X13924538Y2946603D01*
X13900859Y2915744D01*
X11899695Y914581D01*
X11832900Y876017D01*
X11755772Y876017D01*
X11688977Y914581D01*
X11650413Y981376D01*
X11646273Y1003258D01*
X11639003Y1067780D01*
X11636786Y1087461D01*
X11582789Y1241775D01*
X11495808Y1380204D01*
X11380204Y1495808D01*
X11241775Y1582789D01*
X11087461Y1636786D01*
X11087460Y1636787D01*
X11087458Y1636787D01*
X11033607Y1642854D01*
X10961810Y1671032D01*
X10941395Y1689217D01*
X10925678Y1706046D01*
X10925675Y1706048D01*
X10891672Y1726726D01*
X10879061Y1735308D01*
X10847339Y1759363D01*
X10832632Y1765163D01*
X10809884Y1776462D01*
X10796383Y1784672D01*
X10796378Y1784674D01*
X10758047Y1795414D01*
X10743589Y1800276D01*
X10706562Y1814877D01*
X10706563Y1814877D01*
X10690843Y1816493D01*
X10665888Y1821235D01*
X10650666Y1825500D01*
X10650665Y1825500D01*
X10610865Y1825500D01*
X10595628Y1826281D01*
X10582145Y1827667D01*
X10556028Y1830352D01*
X10556027Y1830352D01*
X10556026Y1830352D01*
X10544354Y1828340D01*
X10540454Y1827667D01*
X10515138Y1825500D01*
X7539743Y1825500D01*
X7465243Y1845462D01*
X7434384Y1869141D01*
X6619141Y2684384D01*
X6580577Y2751179D01*
X6575500Y2789743D01*
X6575500Y4969550D01*
X6595462Y5044050D01*
X6598338Y5048823D01*
X6604047Y5057909D01*
X6682789Y5183225D01*
X6736786Y5337539D01*
X6755091Y5500000D01*
X6755090Y5500001D01*
X6755421Y5502930D01*
X6783599Y5574726D01*
X6843900Y5622815D01*
X6872507Y5631991D01*
X6897433Y5637290D01*
X6904803Y5638856D01*
X7040522Y5699283D01*
X7116695Y5711348D01*
X7161723Y5699283D01*
X7295197Y5639856D01*
X7415438Y5614299D01*
X7480352Y5600500D01*
X7480354Y5600500D01*
X7669648Y5600500D01*
X7721496Y5611521D01*
X7854803Y5639856D01*
X8027730Y5716849D01*
X8180871Y5828112D01*
X8284573Y5943284D01*
X8307530Y5968780D01*
X8307531Y5968782D01*
X8307533Y5968784D01*
X8402179Y6132716D01*
X8460674Y6312744D01*
X8480460Y6501000D01*
X8460674Y6689256D01*
X8402179Y6869284D01*
X8402177Y6869286D01*
X8400498Y6874456D01*
X8396461Y6951478D01*
X8431476Y7020200D01*
X8496161Y7062207D01*
X8542205Y7069500D01*
X9486745Y7069500D01*
X9486757Y7069500D01*
X9552737Y7073825D01*
X9591301Y7078902D01*
X9644497Y7088826D01*
X9778070Y7142301D01*
X9844865Y7180865D01*
X9940951Y7252794D01*
X9940957Y7252803D01*
X9947939Y7259618D01*
X9949878Y7257632D01*
X9999162Y7294531D01*
X10075744Y7303693D01*
X10146646Y7273336D01*
G37*
%TD.AperFunction*%
%TA.AperFunction,Conductor*%
G36*
X15503070Y20999374D02*
G01*
X15717453Y20990506D01*
X15717453Y20990500D01*
X15717738Y20990495D01*
X15717776Y20990493D01*
X15954898Y20980139D01*
X15966781Y20979141D01*
X16192972Y20950947D01*
X16193553Y20950872D01*
X16418634Y20921240D01*
X16429710Y20919353D01*
X16654617Y20872195D01*
X16656162Y20871861D01*
X16875654Y20823201D01*
X16885888Y20820547D01*
X17106975Y20754727D01*
X17109003Y20754105D01*
X17322706Y20686725D01*
X17332003Y20683449D01*
X17547322Y20599431D01*
X17549955Y20598372D01*
X17756481Y20512826D01*
X17764871Y20509042D01*
X17972782Y20407401D01*
X17975911Y20405822D01*
X18173925Y20302742D01*
X18181383Y20298584D01*
X18380249Y20180085D01*
X18383953Y20177803D01*
X18572017Y20057992D01*
X18578539Y20053591D01*
X18766955Y19919065D01*
X18771080Y19916011D01*
X18947909Y19780326D01*
X18953485Y19775830D01*
X19033815Y19707794D01*
X19130181Y19626175D01*
X19134545Y19622331D01*
X19298848Y19471776D01*
X19303544Y19467280D01*
X19467278Y19303546D01*
X19471774Y19298850D01*
X19622329Y19134547D01*
X19626173Y19130183D01*
X19775813Y18953505D01*
X19780324Y18947911D01*
X19916009Y18771082D01*
X19919063Y18766957D01*
X20053589Y18578541D01*
X20057990Y18572019D01*
X20177775Y18383996D01*
X20180109Y18380209D01*
X20298579Y18181390D01*
X20302744Y18173920D01*
X20353180Y18077034D01*
X20405788Y17975975D01*
X20407432Y17972719D01*
X20434248Y17917866D01*
X20509031Y17764893D01*
X20512828Y17756474D01*
X20598325Y17550068D01*
X20599469Y17547222D01*
X20613481Y17511314D01*
X20683436Y17332035D01*
X20686733Y17322677D01*
X20754063Y17109134D01*
X20754765Y17106844D01*
X20820540Y16885908D01*
X20823202Y16875642D01*
X20871849Y16656209D01*
X20872210Y16654537D01*
X20919346Y16429737D01*
X20921242Y16418608D01*
X20950839Y16193793D01*
X20950970Y16192775D01*
X20979137Y15966806D01*
X20980139Y15954875D01*
X20990490Y15717797D01*
X20990497Y15717455D01*
X20990505Y15717455D01*
X20999373Y15503071D01*
X20999500Y15496913D01*
X20999500Y-15496912D01*
X20999373Y-15503070D01*
X20990505Y-15717454D01*
X20990490Y-15717795D01*
X20980139Y-15954873D01*
X20979137Y-15966804D01*
X20950970Y-16192773D01*
X20950839Y-16193791D01*
X20921242Y-16418606D01*
X20919346Y-16429735D01*
X20872210Y-16654535D01*
X20871849Y-16656207D01*
X20823202Y-16875640D01*
X20820540Y-16885906D01*
X20754765Y-17106842D01*
X20754063Y-17109132D01*
X20686733Y-17322675D01*
X20683436Y-17332033D01*
X20599474Y-17547209D01*
X20598325Y-17550066D01*
X20512828Y-17756472D01*
X20509031Y-17764891D01*
X20414577Y-17958101D01*
X20407487Y-17972607D01*
X20407466Y-17972649D01*
X20405769Y-17976011D01*
X20302744Y-18173918D01*
X20298579Y-18181388D01*
X20180109Y-18380207D01*
X20177775Y-18383994D01*
X20057990Y-18572017D01*
X20053589Y-18578539D01*
X19919063Y-18766955D01*
X19916009Y-18771080D01*
X19780324Y-18947909D01*
X19775813Y-18953503D01*
X19626173Y-19130181D01*
X19622329Y-19134545D01*
X19471774Y-19298848D01*
X19467278Y-19303544D01*
X19303544Y-19467278D01*
X19298848Y-19471774D01*
X19134545Y-19622329D01*
X19130181Y-19626173D01*
X18953503Y-19775813D01*
X18947909Y-19780324D01*
X18771080Y-19916009D01*
X18766955Y-19919063D01*
X18578539Y-20053589D01*
X18572017Y-20057990D01*
X18383994Y-20177775D01*
X18380207Y-20180109D01*
X18181388Y-20298579D01*
X18173918Y-20302744D01*
X17976011Y-20405769D01*
X17972649Y-20407466D01*
X17764891Y-20509031D01*
X17756472Y-20512828D01*
X17550066Y-20598325D01*
X17547209Y-20599474D01*
X17332033Y-20683436D01*
X17322675Y-20686733D01*
X17109132Y-20754063D01*
X17106842Y-20754765D01*
X16885906Y-20820540D01*
X16875640Y-20823202D01*
X16656207Y-20871849D01*
X16654535Y-20872210D01*
X16429735Y-20919346D01*
X16418606Y-20921242D01*
X16193791Y-20950839D01*
X16192773Y-20950970D01*
X15966804Y-20979137D01*
X15954873Y-20980139D01*
X15717795Y-20990490D01*
X15717454Y-20990505D01*
X15503070Y-20999373D01*
X15496912Y-20999500D01*
X-15496912Y-20999500D01*
X-15503070Y-20999373D01*
X-15717455Y-20990505D01*
X-15717455Y-20990497D01*
X-15717797Y-20990490D01*
X-15954875Y-20980139D01*
X-15966806Y-20979137D01*
X-16192692Y-20950981D01*
X-16193712Y-20950850D01*
X-16418624Y-20921238D01*
X-16429751Y-20919342D01*
X-16654509Y-20872216D01*
X-16656182Y-20871855D01*
X-16875641Y-20823202D01*
X-16885905Y-20820540D01*
X-17106843Y-20754765D01*
X-17109134Y-20754063D01*
X-17322677Y-20686733D01*
X-17332035Y-20683436D01*
X-17547211Y-20599474D01*
X-17550068Y-20598325D01*
X-17756474Y-20512828D01*
X-17764894Y-20509030D01*
X-17972609Y-20407485D01*
X-17975970Y-20405790D01*
X-18173944Y-20302731D01*
X-18181414Y-20298565D01*
X-18380192Y-20180118D01*
X-18383978Y-20177785D01*
X-18572021Y-20057989D01*
X-18578544Y-20053587D01*
X-18766957Y-19919063D01*
X-18771082Y-19916009D01*
X-18947911Y-19780324D01*
X-18953505Y-19775813D01*
X-19130183Y-19626173D01*
X-19134547Y-19622329D01*
X-19298850Y-19471774D01*
X-19303546Y-19467278D01*
X-19467280Y-19303544D01*
X-19471776Y-19298848D01*
X-19622331Y-19134545D01*
X-19626175Y-19130181D01*
X-19707794Y-19033815D01*
X-19775830Y-18953485D01*
X-19780326Y-18947909D01*
X-19916011Y-18771080D01*
X-19919065Y-18766955D01*
X-20053589Y-18578542D01*
X-20057982Y-18572033D01*
X-20177789Y-18383973D01*
X-20180120Y-18380190D01*
X-20298567Y-18181412D01*
X-20302725Y-18173957D01*
X-20405809Y-17975934D01*
X-20407469Y-17972643D01*
X-20509035Y-17764886D01*
X-20512830Y-17756472D01*
X-20598372Y-17549955D01*
X-20599431Y-17547322D01*
X-20683449Y-17332003D01*
X-20686725Y-17322706D01*
X-20754104Y-17109005D01*
X-20754737Y-17106939D01*
X-20820542Y-16885903D01*
X-20823202Y-16875650D01*
X-20871888Y-16656037D01*
X-20872212Y-16654535D01*
X-20914536Y-16452681D01*
X-20919344Y-16429749D01*
X-20921240Y-16418622D01*
X-20921678Y-16415292D01*
X-20950912Y-16193246D01*
X-20950926Y-16193137D01*
X-20979141Y-15966781D01*
X-20980139Y-15954898D01*
X-20990493Y-15717786D01*
X-20999373Y-15503070D01*
X-20999436Y-15500008D01*
X-18904994Y-15500008D01*
X-18885035Y-15868136D01*
X-18885035Y-15868142D01*
X-18825387Y-16231974D01*
X-18825387Y-16231976D01*
X-18726753Y-16587221D01*
X-18726751Y-16587226D01*
X-18590291Y-16929715D01*
X-18590285Y-16929728D01*
X-18417596Y-17255456D01*
X-18417593Y-17255461D01*
X-18210697Y-17560608D01*
X-18210688Y-17560620D01*
X-18074504Y-17720948D01*
X-18074503Y-17720948D01*
X-16758650Y-16405094D01*
X-16704544Y-16483480D01*
X-16531184Y-16663966D01*
X-16405135Y-16758686D01*
X-17723480Y-18077031D01*
X-17704343Y-18095159D01*
X-17704342Y-18095160D01*
X-17410835Y-18318278D01*
X-17094934Y-18508350D01*
X-16760316Y-18663160D01*
X-16760306Y-18663165D01*
X-16410937Y-18780880D01*
X-16050869Y-18860137D01*
X-15684344Y-18899999D01*
X-15684334Y-18900000D01*
X-15315666Y-18900000D01*
X-15315657Y-18899999D01*
X-14949132Y-18860137D01*
X-14949131Y-18860137D01*
X-14589064Y-18780880D01*
X-14239695Y-18663165D01*
X-14239685Y-18663160D01*
X-13905067Y-18508350D01*
X-13589166Y-18318278D01*
X-13295648Y-18095151D01*
X-13276521Y-18077032D01*
X-14593121Y-16760432D01*
X-14565820Y-16743168D01*
X-14378499Y-16577216D01*
X-14239489Y-16406958D01*
X-12925499Y-17720948D01*
X-12789310Y-17560617D01*
X-12789306Y-17560611D01*
X-12582408Y-17255461D01*
X-12582405Y-17255456D01*
X-12409716Y-16929728D01*
X-12409710Y-16929715D01*
X-12288301Y-16625000D01*
X-7155460Y-16625000D01*
X-7135675Y-16813254D01*
X-7097834Y-16929715D01*
X-7077179Y-16993284D01*
X-7022534Y-17087933D01*
X-6982531Y-17157220D01*
X-6894073Y-17255461D01*
X-6855871Y-17297888D01*
X-6702730Y-17409151D01*
X-6529803Y-17486144D01*
X-6388685Y-17516139D01*
X-6344648Y-17525500D01*
X-6344646Y-17525500D01*
X-6155352Y-17525500D01*
X-6115996Y-17517134D01*
X-5970197Y-17486144D01*
X-5797270Y-17409151D01*
X-5644129Y-17297888D01*
X-5571805Y-17217563D01*
X-5517470Y-17157220D01*
X-5517469Y-17157218D01*
X-5517467Y-17157216D01*
X-5422821Y-16993284D01*
X-5364326Y-16813256D01*
X-5344540Y-16625000D01*
X-5364326Y-16436744D01*
X-5421670Y-16260261D01*
X-5424793Y-16200676D01*
X-5445960Y-16192267D01*
X-5486021Y-16147251D01*
X-5494218Y-16133054D01*
X-5517467Y-16092784D01*
X-5517468Y-16092783D01*
X-5517470Y-16092779D01*
X-5644128Y-15952113D01*
X-5677273Y-15928032D01*
X-5797270Y-15840849D01*
X-5797271Y-15840848D01*
X-5797273Y-15840847D01*
X-5970195Y-15763857D01*
X-5970197Y-15763856D01*
X-6005567Y-15756338D01*
X-5287412Y-15756338D01*
X-5257137Y-15928034D01*
X-5220169Y-16013735D01*
X-5209181Y-16088754D01*
X-5180262Y-16103489D01*
X-5160446Y-16125241D01*
X-5083974Y-16227961D01*
X-4950422Y-16340025D01*
X-4950421Y-16340025D01*
X-4950419Y-16340027D01*
X-4794620Y-16418272D01*
X-4624976Y-16458478D01*
X-4624974Y-16458478D01*
X-4494366Y-16458478D01*
X-4494362Y-16458477D01*
X-4364641Y-16443315D01*
X-4200812Y-16383686D01*
X-4055151Y-16287883D01*
X-4024128Y-16255001D01*
X9318525Y-16255001D01*
X9319164Y-16259856D01*
X9324847Y-16303024D01*
X9325189Y-16305617D01*
X9326464Y-16325066D01*
X9326464Y-16330507D01*
X9327871Y-16335759D01*
X9331672Y-16354867D01*
X9331777Y-16355663D01*
X9338297Y-16405188D01*
X9338338Y-16405494D01*
X9338339Y-16405501D01*
X9357881Y-16452681D01*
X9364144Y-16471129D01*
X9365550Y-16476377D01*
X9365552Y-16476381D01*
X9368266Y-16481082D01*
X9376885Y-16498559D01*
X9396427Y-16545737D01*
X9396428Y-16545738D01*
X9427516Y-16586253D01*
X9438341Y-16602455D01*
X9441054Y-16607155D01*
X9441058Y-16607160D01*
X9444898Y-16611000D01*
X9457747Y-16625651D01*
X9460894Y-16629752D01*
X9479889Y-16654507D01*
X9488836Y-16666166D01*
X9488837Y-16666167D01*
X9519356Y-16689585D01*
X9529340Y-16697246D01*
X9529342Y-16697247D01*
X9543996Y-16710098D01*
X9547840Y-16713942D01*
X9547844Y-16713945D01*
X9552541Y-16716657D01*
X9568749Y-16727486D01*
X9589187Y-16743168D01*
X9609262Y-16758572D01*
X9656451Y-16778118D01*
X9673917Y-16786733D01*
X9678623Y-16789450D01*
X9678627Y-16789451D01*
X9683873Y-16790857D01*
X9702326Y-16797121D01*
X9735568Y-16810890D01*
X9749503Y-16816662D01*
X9800137Y-16823328D01*
X9819233Y-16827126D01*
X9824493Y-16828536D01*
X9824496Y-16828536D01*
X9829932Y-16828536D01*
X9849381Y-16829811D01*
X9899999Y-16836475D01*
X9900000Y-16836475D01*
X9900001Y-16836475D01*
X9950619Y-16829811D01*
X9970068Y-16828536D01*
X9975505Y-16828536D01*
X9975507Y-16828536D01*
X9980763Y-16827127D01*
X9999859Y-16823328D01*
X10050497Y-16816662D01*
X10097681Y-16797117D01*
X10116122Y-16790857D01*
X10121377Y-16789450D01*
X10126082Y-16786733D01*
X10143554Y-16778116D01*
X10190738Y-16758572D01*
X10231253Y-16727483D01*
X10247449Y-16716662D01*
X10252159Y-16713943D01*
X10256006Y-16710095D01*
X10270647Y-16697255D01*
X10311165Y-16666165D01*
X10342255Y-16625647D01*
X10355095Y-16611006D01*
X10358943Y-16607159D01*
X10361662Y-16602449D01*
X10372483Y-16586253D01*
X10403572Y-16545738D01*
X10423116Y-16498554D01*
X10431733Y-16481082D01*
X10434450Y-16476377D01*
X10435857Y-16471122D01*
X10442117Y-16452681D01*
X10461662Y-16405497D01*
X10468328Y-16354862D01*
X10472126Y-16335766D01*
X10473536Y-16330507D01*
X10473957Y-16317604D01*
X10475150Y-16303036D01*
X10481475Y-16255000D01*
X10475150Y-16206963D01*
X10473957Y-16192395D01*
X10473536Y-16179493D01*
X10472125Y-16174230D01*
X10468327Y-16155130D01*
X10461662Y-16104503D01*
X10442119Y-16057324D01*
X10435854Y-16038864D01*
X10434450Y-16033623D01*
X10431729Y-16028910D01*
X10423111Y-16011434D01*
X10403572Y-15964263D01*
X10372491Y-15923757D01*
X10361663Y-15907551D01*
X10358947Y-15902847D01*
X10358942Y-15902840D01*
X10355093Y-15898991D01*
X10342247Y-15884342D01*
X10311166Y-15843836D01*
X10307273Y-15840849D01*
X10270652Y-15812748D01*
X10256000Y-15799898D01*
X10252160Y-15796058D01*
X10252155Y-15796054D01*
X10247455Y-15793341D01*
X10231253Y-15782516D01*
X10190738Y-15751428D01*
X10190737Y-15751427D01*
X10143559Y-15731885D01*
X10126082Y-15723266D01*
X10121381Y-15720552D01*
X10121377Y-15720550D01*
X10121366Y-15720547D01*
X10116126Y-15719143D01*
X10097681Y-15712881D01*
X10050501Y-15693339D01*
X10050498Y-15693338D01*
X10050497Y-15693338D01*
X10029038Y-15690512D01*
X9999867Y-15686672D01*
X9980759Y-15682871D01*
X9975507Y-15681464D01*
X9970068Y-15681464D01*
X9950619Y-15680189D01*
X9900001Y-15673525D01*
X9899999Y-15673525D01*
X9849381Y-15680189D01*
X9829932Y-15681464D01*
X9824491Y-15681464D01*
X9819231Y-15682873D01*
X9800130Y-15686672D01*
X9755770Y-15692512D01*
X9749503Y-15693338D01*
X9749502Y-15693338D01*
X9749498Y-15693339D01*
X9702326Y-15712878D01*
X9683886Y-15719138D01*
X9678628Y-15720547D01*
X9678621Y-15720550D01*
X9673899Y-15723276D01*
X9656437Y-15731886D01*
X9609269Y-15751425D01*
X9609266Y-15751426D01*
X9609263Y-15751428D01*
X9576999Y-15776184D01*
X9568753Y-15782512D01*
X9552560Y-15793332D01*
X9547841Y-15796056D01*
X9547839Y-15796057D01*
X9543987Y-15799910D01*
X9529345Y-15812749D01*
X9488837Y-15843832D01*
X9488832Y-15843837D01*
X9457749Y-15884345D01*
X9444910Y-15898987D01*
X9441057Y-15902839D01*
X9441056Y-15902841D01*
X9438332Y-15907560D01*
X9427512Y-15923753D01*
X9396428Y-15964263D01*
X9396428Y-15964264D01*
X9396425Y-15964269D01*
X9376886Y-16011437D01*
X9368276Y-16028899D01*
X9365550Y-16033621D01*
X9365547Y-16033628D01*
X9364138Y-16038886D01*
X9357878Y-16057326D01*
X9338339Y-16104498D01*
X9338338Y-16104504D01*
X9331672Y-16155130D01*
X9327873Y-16174231D01*
X9326464Y-16179491D01*
X9326464Y-16184932D01*
X9325189Y-16204381D01*
X9318525Y-16254998D01*
X9318525Y-16255001D01*
X-4024128Y-16255001D01*
X-3935509Y-16161071D01*
X-3848338Y-16010085D01*
X-3798336Y-15843066D01*
X-3788198Y-15669018D01*
X-3818473Y-15497324D01*
X-3818650Y-15496912D01*
X-3887527Y-15337237D01*
X-3991637Y-15197394D01*
X-4125189Y-15085330D01*
X-4280987Y-15007085D01*
X-4280989Y-15007084D01*
X-4280990Y-15007084D01*
X-4450634Y-14966878D01*
X-4581241Y-14966878D01*
X-4581250Y-14966878D01*
X-4710965Y-14982040D01*
X-4710969Y-14982040D01*
X-4874794Y-15041668D01*
X-4874796Y-15041669D01*
X-4874798Y-15041670D01*
X-4974745Y-15107406D01*
X-5020464Y-15137476D01*
X-5140096Y-15264278D01*
X-5140104Y-15264289D01*
X-5227272Y-15415269D01*
X-5227273Y-15415271D01*
X-5277274Y-15582291D01*
X-5287412Y-15756332D01*
X-5287412Y-15756338D01*
X-6005567Y-15756338D01*
X-6076640Y-15741231D01*
X-6155352Y-15724500D01*
X-6155354Y-15724500D01*
X-6344646Y-15724500D01*
X-6344648Y-15724500D01*
X-6444608Y-15745747D01*
X-6529803Y-15763856D01*
X-6529805Y-15763856D01*
X-6529806Y-15763857D01*
X-6702728Y-15840847D01*
X-6855873Y-15952113D01*
X-6982531Y-16092779D01*
X-7077178Y-16256714D01*
X-7077181Y-16256721D01*
X-7135675Y-16436745D01*
X-7155460Y-16625000D01*
X-12288301Y-16625000D01*
X-12273250Y-16587226D01*
X-12273248Y-16587221D01*
X-12174614Y-16231976D01*
X-12174614Y-16231974D01*
X-12114966Y-15868142D01*
X-12114966Y-15868136D01*
X-12107385Y-15728315D01*
X-10467940Y-15728315D01*
X-10437665Y-15900011D01*
X-10368612Y-16060095D01*
X-10264502Y-16199938D01*
X-10130950Y-16312002D01*
X-10130949Y-16312002D01*
X-10130947Y-16312004D01*
X-9975148Y-16390249D01*
X-9805504Y-16430455D01*
X-9805502Y-16430455D01*
X-9674894Y-16430455D01*
X-9674890Y-16430454D01*
X-9545169Y-16415292D01*
X-9381340Y-16355663D01*
X-9235679Y-16259860D01*
X-9209371Y-16231976D01*
X-9172307Y-16192690D01*
X-9116037Y-16133048D01*
X-9028866Y-15982062D01*
X-8978864Y-15815043D01*
X-8968726Y-15640995D01*
X-8999001Y-15469301D01*
X-9068054Y-15309217D01*
X-9068055Y-15309214D01*
X-9172165Y-15169371D01*
X-9305717Y-15057307D01*
X-9461515Y-14979062D01*
X-9461517Y-14979061D01*
X-9461518Y-14979061D01*
X-9631162Y-14938855D01*
X-9761769Y-14938855D01*
X-9761778Y-14938855D01*
X-9891493Y-14954017D01*
X-9891497Y-14954017D01*
X-10055322Y-15013645D01*
X-10055324Y-15013646D01*
X-10055326Y-15013647D01*
X-10136992Y-15067360D01*
X-10200992Y-15109453D01*
X-10320624Y-15236255D01*
X-10320632Y-15236266D01*
X-10407800Y-15387246D01*
X-10407801Y-15387248D01*
X-10441406Y-15499500D01*
X-10454619Y-15543637D01*
X-10457802Y-15554268D01*
X-10467940Y-15728309D01*
X-10467940Y-15728315D01*
X-12107385Y-15728315D01*
X-12095006Y-15500008D01*
X-12095006Y-15499991D01*
X-12114966Y-15131863D01*
X-12114966Y-15131857D01*
X-12174614Y-14768025D01*
X-12174614Y-14768023D01*
X-12273248Y-14412778D01*
X-12273250Y-14412773D01*
X-12409710Y-14070284D01*
X-12409716Y-14070271D01*
X-12573324Y-13761672D01*
X-5675136Y-13761672D01*
X-5644861Y-13933368D01*
X-5575808Y-14093452D01*
X-5471698Y-14233295D01*
X-5338146Y-14345359D01*
X-5338145Y-14345359D01*
X-5338143Y-14345361D01*
X-5182344Y-14423606D01*
X-5012700Y-14463812D01*
X-5012698Y-14463812D01*
X-4882090Y-14463812D01*
X-4882086Y-14463811D01*
X-4752365Y-14448649D01*
X-4588536Y-14389020D01*
X-4442875Y-14293217D01*
X-4402101Y-14250000D01*
X-4386341Y-14233295D01*
X-4323233Y-14166405D01*
X-4236062Y-14015419D01*
X-4186060Y-13848400D01*
X-4175922Y-13674352D01*
X-4206197Y-13502658D01*
X-4219799Y-13471123D01*
X-4275251Y-13342571D01*
X-4379361Y-13202728D01*
X-4512913Y-13090664D01*
X-4668711Y-13012419D01*
X-4668713Y-13012418D01*
X-4668714Y-13012418D01*
X-4838358Y-12972212D01*
X-4968965Y-12972212D01*
X-4968974Y-12972212D01*
X-5098689Y-12987374D01*
X-5098693Y-12987374D01*
X-5262518Y-13047002D01*
X-5262520Y-13047003D01*
X-5262522Y-13047004D01*
X-5362469Y-13112740D01*
X-5408188Y-13142810D01*
X-5527820Y-13269612D01*
X-5527828Y-13269623D01*
X-5614996Y-13420603D01*
X-5614997Y-13420605D01*
X-5639560Y-13502655D01*
X-5657178Y-13561505D01*
X-5664998Y-13587625D01*
X-5675136Y-13761666D01*
X-5675136Y-13761672D01*
X-12573324Y-13761672D01*
X-12582405Y-13744543D01*
X-12582408Y-13744538D01*
X-12789304Y-13439391D01*
X-12789313Y-13439379D01*
X-12925498Y-13279050D01*
X-12925499Y-13279050D01*
X-14241352Y-14594903D01*
X-14295456Y-14516520D01*
X-14468816Y-14336034D01*
X-14594868Y-14241312D01*
X-13276521Y-12922966D01*
X-13295653Y-12904844D01*
X-13542315Y-12717336D01*
X-10042384Y-12717336D01*
X-10001574Y-12851869D01*
X-9908715Y-13025596D01*
X-9908714Y-13025598D01*
X-9783754Y-13177861D01*
X-9783749Y-13177866D01*
X-9631486Y-13302826D01*
X-9631484Y-13302827D01*
X-9457755Y-13395686D01*
X-9457756Y-13395686D01*
X-9323224Y-13436495D01*
X-9323223Y-13436495D01*
X-9323223Y-12717336D01*
X-10042384Y-12717336D01*
X-13542315Y-12717336D01*
X-13589166Y-12681721D01*
X-13905067Y-12491649D01*
X-14239685Y-12336839D01*
X-14239695Y-12336834D01*
X-14589064Y-12219119D01*
X-14949132Y-12139862D01*
X-15315657Y-12100000D01*
X-15684344Y-12100000D01*
X-16050869Y-12139862D01*
X-16050870Y-12139862D01*
X-16410937Y-12219119D01*
X-16760306Y-12336834D01*
X-16760316Y-12336839D01*
X-17094934Y-12491649D01*
X-17410835Y-12681721D01*
X-17704337Y-12904835D01*
X-17723480Y-12922967D01*
X-16406880Y-14239567D01*
X-16434180Y-14256832D01*
X-16621501Y-14422784D01*
X-16760512Y-14593041D01*
X-18074503Y-13279050D01*
X-18074504Y-13279050D01*
X-18210692Y-13439383D01*
X-18210694Y-13439386D01*
X-18417598Y-13744547D01*
X-18590285Y-14070271D01*
X-18590291Y-14070284D01*
X-18726751Y-14412773D01*
X-18726753Y-14412778D01*
X-18825387Y-14768023D01*
X-18825387Y-14768025D01*
X-18885035Y-15131857D01*
X-18885035Y-15131863D01*
X-18904994Y-15499991D01*
X-18904994Y-15500008D01*
X-20999436Y-15500008D01*
X-20999500Y-15496913D01*
X-20999500Y2296714D01*
X-17580352Y2296714D01*
X-17577667Y2281142D01*
X-17575500Y2255824D01*
X-17575500Y-2425952D01*
X-17575587Y-2431039D01*
X-17577763Y-2494716D01*
X-17568338Y-2533389D01*
X-17565490Y-2548376D01*
X-17560070Y-2587809D01*
X-17553774Y-2602304D01*
X-17545676Y-2626385D01*
X-17541935Y-2641736D01*
X-17541933Y-2641742D01*
X-17522427Y-2676434D01*
X-17515644Y-2690092D01*
X-17499783Y-2726604D01*
X-17499779Y-2726611D01*
X-17489809Y-2738866D01*
X-17475516Y-2759867D01*
X-17467767Y-2773648D01*
X-17439618Y-2801797D01*
X-17429396Y-2813124D01*
X-17404279Y-2843997D01*
X-17391369Y-2853110D01*
X-17371935Y-2869480D01*
X-16207193Y-4034222D01*
X-16168629Y-4101017D01*
X-16168629Y-4178145D01*
X-16178305Y-4204225D01*
X-16180230Y-4208221D01*
X-16234229Y-4362541D01*
X-16252533Y-4524999D01*
X-16252533Y-4525000D01*
X-16234228Y-4687461D01*
X-16225716Y-4711786D01*
X-16209183Y-4759036D01*
X-16203420Y-4835949D01*
X-16209183Y-4857456D01*
X-16237026Y-4937029D01*
X-16237028Y-4937036D01*
X-16255332Y-5099494D01*
X-16255332Y-5099495D01*
X-16237028Y-5261953D01*
X-16237027Y-5261957D01*
X-16210428Y-5337974D01*
X-16204665Y-5414887D01*
X-16210428Y-5436393D01*
X-16236719Y-5511531D01*
X-16236721Y-5511538D01*
X-16255025Y-5673996D01*
X-16255025Y-5673997D01*
X-16236721Y-5836455D01*
X-16236721Y-5836457D01*
X-16236720Y-5836458D01*
X-16193482Y-5960026D01*
X-16182722Y-5990774D01*
X-16129380Y-6075667D01*
X-16106646Y-6149369D01*
X-16123809Y-6224563D01*
X-16150183Y-6260299D01*
X-16396124Y-6506239D01*
X-16432279Y-6546489D01*
X-16432306Y-6546521D01*
X-16448922Y-6567140D01*
X-16480567Y-6611026D01*
X-16540339Y-6741905D01*
X-16540342Y-6741914D01*
X-16560023Y-6808938D01*
X-16560026Y-6808951D01*
X-16560027Y-6808955D01*
X-16580499Y-6951347D01*
X-16580500Y-6951365D01*
X-16580500Y-8723643D01*
X-16577606Y-8777649D01*
X-16577604Y-8777678D01*
X-16574772Y-8804020D01*
X-16574765Y-8804066D01*
X-16566117Y-8857440D01*
X-16515834Y-8992252D01*
X-16515833Y-8992255D01*
X-16482350Y-9053575D01*
X-16482345Y-9053583D01*
X-16396126Y-9168758D01*
X-16396123Y-9168761D01*
X-15993761Y-9571123D01*
X-15953500Y-9607288D01*
X-15953482Y-9607303D01*
X-15953479Y-9607305D01*
X-15932859Y-9623921D01*
X-15932860Y-9623921D01*
X-15919404Y-9633624D01*
X-15888974Y-9655567D01*
X-15758097Y-9715338D01*
X-15719981Y-9726530D01*
X-15691062Y-9735022D01*
X-15691060Y-9735022D01*
X-15691058Y-9735023D01*
X-15691054Y-9735024D01*
X-15691053Y-9735024D01*
X-15691049Y-9735025D01*
X-15691045Y-9735026D01*
X-15548653Y-9755498D01*
X-15548649Y-9755498D01*
X-15548638Y-9755500D01*
X-15548634Y-9755500D01*
X-13291489Y-9755500D01*
X-13291483Y-9755500D01*
X-13288260Y-9755054D01*
X-13287105Y-9755199D01*
X-13286377Y-9755149D01*
X-13286368Y-9755291D01*
X-13211731Y-9764624D01*
X-13173328Y-9787472D01*
X-13025595Y-9908715D01*
X-12851868Y-10001573D01*
X-12851869Y-10001573D01*
X-12700113Y-10047608D01*
X-12634615Y-10088337D01*
X-12612590Y-10118786D01*
X-12607121Y-10128802D01*
X-12607113Y-10128815D01*
X-12520894Y-10243990D01*
X-12520891Y-10243993D01*
X-12186596Y-10578288D01*
X-10543761Y-12221123D01*
X-10503500Y-12257288D01*
X-10503482Y-12257303D01*
X-10503479Y-12257305D01*
X-10482859Y-12273921D01*
X-10482860Y-12273921D01*
X-10475353Y-12279334D01*
X-10438974Y-12305567D01*
X-10308097Y-12365338D01*
X-10269981Y-12376530D01*
X-10241062Y-12385022D01*
X-10241060Y-12385022D01*
X-10241058Y-12385023D01*
X-10241054Y-12385024D01*
X-10241053Y-12385024D01*
X-10241049Y-12385025D01*
X-10241045Y-12385026D01*
X-10098653Y-12405498D01*
X-10098649Y-12405498D01*
X-10098638Y-12405500D01*
X-10098634Y-12405500D01*
X-9530174Y-12405500D01*
X-9530167Y-12405500D01*
X-9418173Y-12391900D01*
X-9426851Y-12496638D01*
X-9398176Y-12609874D01*
X-9334287Y-12707663D01*
X-9242108Y-12779408D01*
X-9131628Y-12817336D01*
X-9044218Y-12817336D01*
X-8958007Y-12802950D01*
X-8855276Y-12747355D01*
X-8827642Y-12717336D01*
X-8823223Y-12717336D01*
X-8823223Y-13436495D01*
X-8688691Y-13395686D01*
X-8514963Y-13302827D01*
X-8514961Y-13302826D01*
X-8362698Y-13177866D01*
X-8362693Y-13177861D01*
X-8237733Y-13025598D01*
X-8237732Y-13025596D01*
X-8144873Y-12851869D01*
X-8104062Y-12717336D01*
X-8823223Y-12717336D01*
X-8827642Y-12717336D01*
X-8776163Y-12661415D01*
X-8729241Y-12554444D01*
X-8719595Y-12438034D01*
X-8731373Y-12391524D01*
X-8616279Y-12405500D01*
X-8616273Y-12405500D01*
X-7415208Y-12405500D01*
X-7415203Y-12405500D01*
X-7316198Y-12395710D01*
X-7268567Y-12386197D01*
X-7173402Y-12357208D01*
X-7115009Y-12322438D01*
X-7040788Y-12301476D01*
X-6966026Y-12320432D01*
X-6933422Y-12345103D01*
X-6819560Y-12458965D01*
X-6729274Y-12527430D01*
X-6729273Y-12527431D01*
X-6729272Y-12527431D01*
X-6729271Y-12527432D01*
X-6588493Y-12582947D01*
X-6437957Y-12598423D01*
X-6288828Y-12572711D01*
X-6152167Y-12507718D01*
X-6038108Y-12408263D01*
X-5955112Y-12281724D01*
X-5909333Y-12137487D01*
X-5904167Y-11986245D01*
X-5939996Y-11839219D01*
X-5978705Y-11770375D01*
X-5997817Y-11695654D01*
X-5977009Y-11621386D01*
X-5921854Y-11567473D01*
X-5898047Y-11556714D01*
X-5758225Y-11507789D01*
X-5619796Y-11420808D01*
X-5504192Y-11305204D01*
X-5417211Y-11166775D01*
X-5409182Y-11143827D01*
X-5365735Y-11080102D01*
X-5296246Y-11046636D01*
X-5285242Y-11044977D01*
X-5212539Y-11036786D01*
X-5058225Y-10982789D01*
X-4919796Y-10895808D01*
X-4804192Y-10780204D01*
X-4717211Y-10641775D01*
X-4717141Y-10641573D01*
X-4717052Y-10641442D01*
X-4713583Y-10634240D01*
X-4712498Y-10634762D01*
X-4673700Y-10577847D01*
X-4647919Y-10560009D01*
X-4595414Y-10531340D01*
X-4480233Y-10445116D01*
X-3803877Y-9768760D01*
X-3767712Y-9728499D01*
X-3751078Y-9707857D01*
X-3719433Y-9663973D01*
X-3659662Y-9533096D01*
X-3639977Y-9466057D01*
X-3639976Y-9466053D01*
X-3639975Y-9466047D01*
X-3639974Y-9466043D01*
X-3619502Y-9323651D01*
X-3619500Y-9323633D01*
X-3619500Y-7876356D01*
X-3622395Y-7822350D01*
X-3622397Y-7822321D01*
X-3625229Y-7795979D01*
X-3625236Y-7795933D01*
X-3633885Y-7742559D01*
X-3633886Y-7742554D01*
X-3633886Y-7742552D01*
X-3682117Y-7613244D01*
X-3689448Y-7536466D01*
X-3657408Y-7466308D01*
X-3594582Y-7421569D01*
X-3517803Y-7414237D01*
X-3474982Y-7430538D01*
X-3474316Y-7429158D01*
X-3466782Y-7432786D01*
X-3466777Y-7432787D01*
X-3466775Y-7432789D01*
X-3312461Y-7486786D01*
X-3204219Y-7498982D01*
X-3150001Y-7505091D01*
X-3150000Y-7505091D01*
X-3149999Y-7505091D01*
X-3109385Y-7500514D01*
X-2987539Y-7486786D01*
X-2833225Y-7432789D01*
X-2694796Y-7345808D01*
X-2579192Y-7230204D01*
X-2492211Y-7091775D01*
X-2438214Y-6937461D01*
X-2419909Y-6775000D01*
X-2438214Y-6612539D01*
X-2492211Y-6458225D01*
X-2539689Y-6382664D01*
X-2576662Y-6323822D01*
X-2599396Y-6250120D01*
X-2599500Y-6244549D01*
X-2599500Y-6024500D01*
X-2579538Y-5950000D01*
X-2525000Y-5895462D01*
X-2450500Y-5875500D01*
X-561936Y-5875500D01*
X-556851Y-5875586D01*
X-493174Y-5877762D01*
X-454510Y-5868338D01*
X-439527Y-5865490D01*
X-400080Y-5860070D01*
X-385582Y-5853771D01*
X-361499Y-5845673D01*
X-346148Y-5841933D01*
X-340193Y-5838585D01*
X-311457Y-5822427D01*
X-297796Y-5815640D01*
X-261280Y-5799780D01*
X-249023Y-5789806D01*
X-228025Y-5775515D01*
X-214241Y-5767766D01*
X-186092Y-5739615D01*
X-174786Y-5729410D01*
X-143892Y-5704278D01*
X-134779Y-5691365D01*
X-118416Y-5671939D01*
X792719Y-4760804D01*
X859512Y-4722242D01*
X881388Y-4718103D01*
X937461Y-4711786D01*
X1050788Y-4672130D01*
X1127699Y-4666366D01*
X1149202Y-4672127D01*
X1262539Y-4711786D01*
X1370408Y-4723940D01*
X1424999Y-4730091D01*
X1425000Y-4730091D01*
X1425001Y-4730091D01*
X1465615Y-4725514D01*
X1587461Y-4711786D01*
X1741775Y-4657789D01*
X1741776Y-4657788D01*
X1749673Y-4655025D01*
X1750325Y-4656888D01*
X1815101Y-4644630D01*
X1887902Y-4670101D01*
X1909331Y-4687855D01*
X2002282Y-4780806D01*
X2005817Y-4784464D01*
X2049320Y-4831044D01*
X2083332Y-4851727D01*
X2095948Y-4860314D01*
X2127656Y-4884360D01*
X2127657Y-4884360D01*
X2127658Y-4884361D01*
X2142361Y-4890159D01*
X2165113Y-4901459D01*
X2178618Y-4909672D01*
X2216951Y-4920412D01*
X2231398Y-4925270D01*
X2261229Y-4937034D01*
X2268436Y-4939876D01*
X2284154Y-4941492D01*
X2309116Y-4946236D01*
X2316589Y-4948329D01*
X2324335Y-4950500D01*
X2364135Y-4950500D01*
X2379372Y-4951281D01*
X2380789Y-4951426D01*
X2418971Y-4955352D01*
X2434544Y-4952666D01*
X2459861Y-4950500D01*
X2888064Y-4950500D01*
X2893149Y-4950586D01*
X2956826Y-4952762D01*
X2995490Y-4943338D01*
X3010473Y-4940490D01*
X3049920Y-4935070D01*
X3064418Y-4928771D01*
X3088501Y-4920673D01*
X3103852Y-4916933D01*
X3116766Y-4909672D01*
X3138543Y-4897427D01*
X3152204Y-4890640D01*
X3188720Y-4874780D01*
X3200977Y-4864806D01*
X3221975Y-4850515D01*
X3235759Y-4842766D01*
X3263908Y-4814615D01*
X3275214Y-4804410D01*
X3306108Y-4779278D01*
X3315221Y-4766365D01*
X3331584Y-4746939D01*
X4559384Y-3519141D01*
X4626179Y-3480577D01*
X4664743Y-3475500D01*
X7770500Y-3475500D01*
X7845000Y-3495462D01*
X7899538Y-3550000D01*
X7919500Y-3624500D01*
X7919500Y-4623643D01*
X7922394Y-4677649D01*
X7922396Y-4677678D01*
X7925228Y-4704020D01*
X7925235Y-4704066D01*
X7933883Y-4757440D01*
X7984166Y-4892252D01*
X7984167Y-4892255D01*
X8017650Y-4953575D01*
X8017655Y-4953583D01*
X8103874Y-5068758D01*
X8103877Y-5068761D01*
X8831239Y-5796123D01*
X8871500Y-5832288D01*
X8871518Y-5832303D01*
X8871521Y-5832305D01*
X8892141Y-5848921D01*
X8892140Y-5848921D01*
X8905596Y-5858624D01*
X8936026Y-5880567D01*
X9066903Y-5940338D01*
X9099808Y-5950000D01*
X9133938Y-5960022D01*
X9133940Y-5960022D01*
X9133942Y-5960023D01*
X9133946Y-5960024D01*
X9133947Y-5960024D01*
X9133951Y-5960025D01*
X9133955Y-5960026D01*
X9276347Y-5980498D01*
X9276351Y-5980498D01*
X9276362Y-5980500D01*
X10194898Y-5980500D01*
X10269398Y-6000462D01*
X10323936Y-6055000D01*
X10343898Y-6129500D01*
X10323936Y-6204000D01*
X10300257Y-6234859D01*
X9159257Y-7375859D01*
X9092462Y-7414423D01*
X9053898Y-7419500D01*
X8764874Y-7419500D01*
X8697739Y-7423981D01*
X8665080Y-7428359D01*
X8665076Y-7428359D01*
X8665076Y-7428360D01*
X8599111Y-7441723D01*
X8599110Y-7441723D01*
X8599107Y-7441724D01*
X8599103Y-7441725D01*
X8467114Y-7498982D01*
X8464983Y-7500094D01*
X8463547Y-7501055D01*
X8458837Y-7504080D01*
X8426869Y-7523773D01*
X8414103Y-7527586D01*
X8382030Y-7550888D01*
X8376925Y-7554307D01*
X8375021Y-7555981D01*
X8309095Y-7603879D01*
X8282098Y-7623493D01*
X8255121Y-7639068D01*
X8207888Y-7660097D01*
X8178268Y-7669721D01*
X8127681Y-7680475D01*
X8096698Y-7683732D01*
X8044989Y-7683732D01*
X8014012Y-7680476D01*
X7963425Y-7669723D01*
X7933803Y-7660099D01*
X7886564Y-7639066D01*
X7859591Y-7623493D01*
X7755770Y-7548064D01*
X7754627Y-7547225D01*
X7748735Y-7542858D01*
X7745904Y-7540707D01*
X7741814Y-7537519D01*
X7741812Y-7537518D01*
X7739753Y-7535913D01*
X7735134Y-7532777D01*
X7717135Y-7519437D01*
X7717129Y-7519433D01*
X7680310Y-7502618D01*
X7586252Y-7459662D01*
X7586249Y-7459661D01*
X7586240Y-7459658D01*
X7519216Y-7439977D01*
X7519203Y-7439974D01*
X7519199Y-7439973D01*
X7376807Y-7419501D01*
X7376795Y-7419500D01*
X7376793Y-7419500D01*
X2226362Y-7419500D01*
X2226357Y-7419500D01*
X2172350Y-7422394D01*
X2172321Y-7422396D01*
X2145979Y-7425228D01*
X2145933Y-7425235D01*
X2092559Y-7433883D01*
X1957747Y-7484166D01*
X1957744Y-7484167D01*
X1896424Y-7517650D01*
X1896416Y-7517655D01*
X1781241Y-7603874D01*
X1781236Y-7603879D01*
X828157Y-8556957D01*
X761362Y-8595521D01*
X684234Y-8595521D01*
X617439Y-8556957D01*
X581093Y-8497646D01*
X527179Y-8331716D01*
X432533Y-8167784D01*
X432532Y-8167783D01*
X432530Y-8167779D01*
X305872Y-8027113D01*
X152727Y-7915847D01*
X-20195Y-7838857D01*
X-20197Y-7838856D01*
X-126640Y-7816231D01*
X-205352Y-7799500D01*
X-205354Y-7799500D01*
X-394646Y-7799500D01*
X-394648Y-7799500D01*
X-494608Y-7820747D01*
X-579803Y-7838856D01*
X-579805Y-7838856D01*
X-579806Y-7838857D01*
X-752728Y-7915847D01*
X-905873Y-8027113D01*
X-1032531Y-8167779D01*
X-1127178Y-8331714D01*
X-1127181Y-8331721D01*
X-1185675Y-8511745D01*
X-1205460Y-8700000D01*
X-1185675Y-8888254D01*
X-1151882Y-8992257D01*
X-1127179Y-9068284D01*
X-1127176Y-9068289D01*
X-1067876Y-9171001D01*
X-1047914Y-9245501D01*
X-1067877Y-9320001D01*
X-1122415Y-9374538D01*
X-1196914Y-9394500D01*
X-1923643Y-9394500D01*
X-1977650Y-9397394D01*
X-1977679Y-9397396D01*
X-2004021Y-9400228D01*
X-2004067Y-9400235D01*
X-2057441Y-9408883D01*
X-2192253Y-9459166D01*
X-2192256Y-9459167D01*
X-2253576Y-9492650D01*
X-2253584Y-9492655D01*
X-2368759Y-9578874D01*
X-3146124Y-10356239D01*
X-3182279Y-10396489D01*
X-3182306Y-10396521D01*
X-3198922Y-10417140D01*
X-3230567Y-10461026D01*
X-3290339Y-10591905D01*
X-3290342Y-10591914D01*
X-3310023Y-10658938D01*
X-3310026Y-10658951D01*
X-3310027Y-10658955D01*
X-3330499Y-10801347D01*
X-3330500Y-10801365D01*
X-3330500Y-12323643D01*
X-3327606Y-12377649D01*
X-3327604Y-12377678D01*
X-3324772Y-12404020D01*
X-3324765Y-12404066D01*
X-3316117Y-12457440D01*
X-3265834Y-12592252D01*
X-3265833Y-12592255D01*
X-3232350Y-12653575D01*
X-3232345Y-12653583D01*
X-3146126Y-12768758D01*
X-3146123Y-12768761D01*
X-2443761Y-13471123D01*
X-2403500Y-13507288D01*
X-2403482Y-13507303D01*
X-2403479Y-13507305D01*
X-2382859Y-13523921D01*
X-2382860Y-13523921D01*
X-2369404Y-13533624D01*
X-2338974Y-13555567D01*
X-2208097Y-13615338D01*
X-2169981Y-13626530D01*
X-2141062Y-13635022D01*
X-2141060Y-13635022D01*
X-2141058Y-13635023D01*
X-2141054Y-13635024D01*
X-2141053Y-13635024D01*
X-2141049Y-13635025D01*
X-2141045Y-13635026D01*
X-1998653Y-13655498D01*
X-1998649Y-13655498D01*
X-1998638Y-13655500D01*
X-1548536Y-13655500D01*
X-1474036Y-13675462D01*
X-1419498Y-13730000D01*
X-1399536Y-13804500D01*
X-1419498Y-13879000D01*
X-1426478Y-13889955D01*
X-1428872Y-13893375D01*
X-1449033Y-13922166D01*
X-1548904Y-14136340D01*
X-1610063Y-14364590D01*
X-1625500Y-14541033D01*
X-1625500Y-14908966D01*
X-1610063Y-15085409D01*
X-1587565Y-15169372D01*
X-1548903Y-15313663D01*
X-1449035Y-15527829D01*
X-1313495Y-15721401D01*
X-1146401Y-15888495D01*
X-952830Y-16024035D01*
X-738663Y-16123903D01*
X-510408Y-16185063D01*
X-275000Y-16205659D01*
X-39592Y-16185063D01*
X188663Y-16123903D01*
X402829Y-16024035D01*
X596401Y-15888495D01*
X763495Y-15721401D01*
X852948Y-15593648D01*
X912029Y-15544073D01*
X987986Y-15530680D01*
X1060463Y-15557059D01*
X1097051Y-15593647D01*
X1186505Y-15721401D01*
X1353599Y-15888495D01*
X1547170Y-16024035D01*
X1761337Y-16123903D01*
X1989592Y-16185063D01*
X2225000Y-16205659D01*
X2460408Y-16185063D01*
X2688663Y-16123903D01*
X2902829Y-16024035D01*
X3096401Y-15888495D01*
X3263495Y-15721401D01*
X3353252Y-15593214D01*
X3412334Y-15543637D01*
X3488291Y-15530244D01*
X3560767Y-15556623D01*
X3597359Y-15593214D01*
X3686891Y-15721079D01*
X3853923Y-15888111D01*
X4047411Y-16023593D01*
X4047420Y-16023599D01*
X4261508Y-16123430D01*
X4261513Y-16123432D01*
X4475000Y-16180634D01*
X4475000Y-15133018D01*
X4589801Y-15185446D01*
X4691025Y-15200000D01*
X4758975Y-15200000D01*
X4860199Y-15185446D01*
X4975000Y-15133018D01*
X4975000Y-16180633D01*
X5188486Y-16123432D01*
X5402580Y-16023597D01*
X5596079Y-15888108D01*
X5720974Y-15763213D01*
X5787768Y-15724649D01*
X5864896Y-15724649D01*
X5931692Y-15763213D01*
X5953146Y-15790347D01*
X6032288Y-15918656D01*
X6156344Y-16042712D01*
X6305666Y-16134814D01*
X6472203Y-16189999D01*
X6574991Y-16200500D01*
X7875008Y-16200499D01*
X7977797Y-16189999D01*
X8144334Y-16134814D01*
X8293656Y-16042712D01*
X8417712Y-15918656D01*
X8509814Y-15769334D01*
X8564999Y-15602797D01*
X8575500Y-15500009D01*
X8575500Y-15500008D01*
X12095006Y-15500008D01*
X12114965Y-15868136D01*
X12114965Y-15868142D01*
X12174613Y-16231974D01*
X12174613Y-16231976D01*
X12273247Y-16587221D01*
X12273249Y-16587226D01*
X12409709Y-16929715D01*
X12409715Y-16929728D01*
X12582404Y-17255456D01*
X12582407Y-17255461D01*
X12789303Y-17560608D01*
X12789312Y-17560620D01*
X12925496Y-17720948D01*
X12925497Y-17720948D01*
X14241350Y-16405094D01*
X14295456Y-16483480D01*
X14468816Y-16663966D01*
X14594865Y-16758686D01*
X13276520Y-18077031D01*
X13295657Y-18095159D01*
X13295658Y-18095160D01*
X13589165Y-18318278D01*
X13905066Y-18508350D01*
X14239684Y-18663160D01*
X14239694Y-18663165D01*
X14589063Y-18780880D01*
X14949131Y-18860137D01*
X15315656Y-18899999D01*
X15315666Y-18900000D01*
X15684334Y-18900000D01*
X15684343Y-18899999D01*
X16050868Y-18860137D01*
X16050869Y-18860137D01*
X16410936Y-18780880D01*
X16760305Y-18663165D01*
X16760315Y-18663160D01*
X17094933Y-18508350D01*
X17410834Y-18318278D01*
X17704352Y-18095151D01*
X17723479Y-18077032D01*
X16406879Y-16760432D01*
X16434180Y-16743168D01*
X16621501Y-16577216D01*
X16760511Y-16406958D01*
X18074501Y-17720948D01*
X18210690Y-17560617D01*
X18210694Y-17560611D01*
X18417592Y-17255461D01*
X18417595Y-17255456D01*
X18590284Y-16929728D01*
X18590290Y-16929715D01*
X18726750Y-16587226D01*
X18726752Y-16587221D01*
X18825386Y-16231976D01*
X18825386Y-16231974D01*
X18885034Y-15868142D01*
X18885034Y-15868136D01*
X18904994Y-15500008D01*
X18904994Y-15499991D01*
X18885034Y-15131863D01*
X18885034Y-15131857D01*
X18825386Y-14768025D01*
X18825386Y-14768023D01*
X18726752Y-14412778D01*
X18726750Y-14412773D01*
X18590290Y-14070284D01*
X18590284Y-14070271D01*
X18417595Y-13744543D01*
X18417592Y-13744538D01*
X18210696Y-13439391D01*
X18210687Y-13439379D01*
X18074502Y-13279050D01*
X18074501Y-13279050D01*
X16758648Y-14594903D01*
X16704544Y-14516520D01*
X16531184Y-14336034D01*
X16405132Y-14241312D01*
X17723479Y-12922966D01*
X17704347Y-12904844D01*
X17410834Y-12681721D01*
X17094933Y-12491649D01*
X16760315Y-12336839D01*
X16760305Y-12336834D01*
X16410936Y-12219119D01*
X16050868Y-12139862D01*
X15684343Y-12100000D01*
X15315656Y-12100000D01*
X14949131Y-12139862D01*
X14949130Y-12139862D01*
X14589063Y-12219119D01*
X14239694Y-12336834D01*
X14239684Y-12336839D01*
X13905066Y-12491649D01*
X13589165Y-12681721D01*
X13295663Y-12904835D01*
X13276520Y-12922967D01*
X14593120Y-14239567D01*
X14565820Y-14256832D01*
X14378499Y-14422784D01*
X14239488Y-14593041D01*
X12925497Y-13279050D01*
X12925496Y-13279050D01*
X12789308Y-13439383D01*
X12789306Y-13439386D01*
X12582402Y-13744547D01*
X12409715Y-14070271D01*
X12409709Y-14070284D01*
X12273249Y-14412773D01*
X12273247Y-14412778D01*
X12174613Y-14768023D01*
X12174613Y-14768025D01*
X12114965Y-15131857D01*
X12114965Y-15131863D01*
X12095006Y-15499991D01*
X12095006Y-15500008D01*
X8575500Y-15500008D01*
X8575499Y-13949992D01*
X8564999Y-13847203D01*
X8509814Y-13680666D01*
X8417712Y-13531344D01*
X8293656Y-13407288D01*
X8144334Y-13315186D01*
X8035283Y-13279050D01*
X7977798Y-13260001D01*
X7960665Y-13258250D01*
X7875009Y-13249500D01*
X7875004Y-13249500D01*
X6574996Y-13249500D01*
X6472202Y-13260001D01*
X6305666Y-13315186D01*
X6156343Y-13407288D01*
X6032288Y-13531343D01*
X5953150Y-13659648D01*
X5897049Y-13712577D01*
X5822000Y-13730364D01*
X5748112Y-13708244D01*
X5720974Y-13686786D01*
X5596076Y-13561888D01*
X5402588Y-13426406D01*
X5402579Y-13426400D01*
X5188491Y-13326569D01*
X5188489Y-13326568D01*
X4975000Y-13269364D01*
X4975000Y-14316981D01*
X4860199Y-14264554D01*
X4758975Y-14250000D01*
X4691025Y-14250000D01*
X4589801Y-14264554D01*
X4475000Y-14316981D01*
X4475000Y-13269364D01*
X4474999Y-13269364D01*
X4261512Y-13326568D01*
X4047419Y-13426402D01*
X3853920Y-13561891D01*
X3686888Y-13728923D01*
X3597358Y-13856785D01*
X3538274Y-13906362D01*
X3462318Y-13919755D01*
X3389842Y-13893375D01*
X3353251Y-13856785D01*
X3347380Y-13848400D01*
X3263495Y-13728599D01*
X3096401Y-13561505D01*
X2902830Y-13425965D01*
X2688663Y-13326097D01*
X2688661Y-13326096D01*
X2460409Y-13264937D01*
X2225000Y-13244341D01*
X1989590Y-13264937D01*
X1960300Y-13272785D01*
X1883172Y-13272783D01*
X1816378Y-13234218D01*
X1777815Y-13167422D01*
X1777817Y-13090294D01*
X1816381Y-13023502D01*
X1938262Y-12901621D01*
X1938261Y-12901621D01*
X1938277Y-12901606D01*
X1983340Y-12849973D01*
X2003634Y-12823262D01*
X2041302Y-12766002D01*
X2093497Y-12631923D01*
X2109319Y-12563868D01*
X2121624Y-12420517D01*
X2093045Y-12279504D01*
X2071204Y-12218299D01*
X2069692Y-12214061D01*
X2069678Y-12214020D01*
X2067791Y-12208728D01*
X2067768Y-12208671D01*
X2054491Y-12171464D01*
X1969992Y-12025109D01*
X1957323Y-11996656D01*
X1941340Y-11947466D01*
X1934867Y-11917013D01*
X1929460Y-11865562D01*
X1929460Y-11834432D01*
X1934866Y-11782988D01*
X1941339Y-11752536D01*
X1957323Y-11703340D01*
X1969986Y-11674900D01*
X1995852Y-11630099D01*
X2014157Y-11604907D01*
X2048758Y-11566478D01*
X2071901Y-11545638D01*
X2113750Y-11515233D01*
X2140708Y-11499669D01*
X2187962Y-11478630D01*
X2217568Y-11469010D01*
X2268172Y-11458254D01*
X2299143Y-11455000D01*
X2441471Y-11455000D01*
X2452790Y-11455430D01*
X2455338Y-11455625D01*
X2462024Y-11455242D01*
X2470517Y-11455000D01*
X2470936Y-11455000D01*
X2473504Y-11454585D01*
X2520554Y-11451895D01*
X2520564Y-11451893D01*
X2520565Y-11451893D01*
X2571224Y-11442128D01*
X2652470Y-11426469D01*
X2780977Y-11361759D01*
X2838274Y-11321774D01*
X2943339Y-11223488D01*
X3016464Y-11099576D01*
X3043049Y-11034962D01*
X3043052Y-11034953D01*
X3043056Y-11034934D01*
X3043060Y-11034924D01*
X3078301Y-10895461D01*
X3078301Y-10895460D01*
X3078302Y-10895457D01*
X3084866Y-10832998D01*
X3091342Y-10802529D01*
X3107320Y-10753351D01*
X3119986Y-10724900D01*
X3145852Y-10680099D01*
X3164157Y-10654907D01*
X3198758Y-10616478D01*
X3221901Y-10595638D01*
X3263750Y-10565233D01*
X3290708Y-10549669D01*
X3337962Y-10528630D01*
X3367568Y-10519010D01*
X3418172Y-10508254D01*
X3449143Y-10505000D01*
X3500860Y-10505000D01*
X3531837Y-10508256D01*
X3561995Y-10514666D01*
X3582407Y-10519004D01*
X3612032Y-10528629D01*
X3700602Y-10568064D01*
X3714946Y-10574187D01*
X3722048Y-10577090D01*
X3736660Y-10582799D01*
X3736661Y-10582800D01*
X3763727Y-10588687D01*
X3877254Y-10613383D01*
X3892853Y-10614498D01*
X3946939Y-10618367D01*
X3946946Y-10618367D01*
X3946951Y-10618367D01*
X4049449Y-10611036D01*
X4090451Y-10608104D01*
X4225260Y-10557824D01*
X4278786Y-10528597D01*
X4280117Y-10527970D01*
X4286584Y-10524340D01*
X4286585Y-10524339D01*
X4286588Y-10524338D01*
X4401770Y-10438114D01*
X4422744Y-10417140D01*
X4515745Y-10324141D01*
X4582540Y-10285577D01*
X4621103Y-10280500D01*
X11673643Y-10280500D01*
X11727649Y-10277605D01*
X11727678Y-10277603D01*
X11754020Y-10274771D01*
X11754026Y-10274770D01*
X11754036Y-10274769D01*
X11762856Y-10273339D01*
X11807440Y-10266116D01*
X11807443Y-10266114D01*
X11807448Y-10266114D01*
X11942257Y-10215832D01*
X12003580Y-10182347D01*
X12118761Y-10096123D01*
X17446123Y-4768761D01*
X17482288Y-4728500D01*
X17498922Y-4707858D01*
X17530567Y-4663974D01*
X17590338Y-4533097D01*
X17610023Y-4466058D01*
X17610024Y-4466054D01*
X17610025Y-4466048D01*
X17610026Y-4466044D01*
X17630498Y-4323652D01*
X17630500Y-4323634D01*
X17630500Y-2726356D01*
X17627605Y-2672350D01*
X17627603Y-2672321D01*
X17624771Y-2645979D01*
X17624764Y-2645933D01*
X17616116Y-2592559D01*
X17616114Y-2592554D01*
X17616114Y-2592552D01*
X17565832Y-2457743D01*
X17532347Y-2396420D01*
X17507445Y-2363155D01*
X17446125Y-2281241D01*
X17043760Y-1878876D01*
X17003510Y-1842721D01*
X17003500Y-1842712D01*
X16982858Y-1826078D01*
X16982859Y-1826078D01*
X16960494Y-1809951D01*
X16938974Y-1794433D01*
X16808097Y-1734662D01*
X16808094Y-1734661D01*
X16808085Y-1734658D01*
X16741061Y-1714977D01*
X16741048Y-1714974D01*
X16741044Y-1714973D01*
X16598652Y-1694501D01*
X16598640Y-1694500D01*
X16598638Y-1694500D01*
X16598634Y-1694500D01*
X16511451Y-1694500D01*
X16450847Y-1681618D01*
X16354805Y-1638857D01*
X16354803Y-1638856D01*
X16248360Y-1616231D01*
X16169648Y-1599500D01*
X16169646Y-1599500D01*
X15980354Y-1599500D01*
X15975102Y-1599500D01*
X15900602Y-1579538D01*
X15846064Y-1525000D01*
X15826102Y-1450500D01*
X15846064Y-1376000D01*
X15869743Y-1345141D01*
X16577345Y-637539D01*
X17346123Y131239D01*
X17382288Y171500D01*
X17398922Y192142D01*
X17430567Y236026D01*
X17490338Y366903D01*
X17510023Y433942D01*
X17510024Y433946D01*
X17510025Y433952D01*
X17510026Y433956D01*
X17530498Y576348D01*
X17530500Y576366D01*
X17530500Y2482252D01*
X17535579Y2520822D01*
X17538271Y2530870D01*
X17538272Y2530873D01*
X17539088Y2537065D01*
X17555500Y2661718D01*
X17555500Y7638282D01*
X17551175Y7704262D01*
X17546098Y7742826D01*
X17536174Y7796022D01*
X17482699Y7929595D01*
X17444135Y7996390D01*
X17444133Y7996393D01*
X17444132Y7996395D01*
X17363800Y8101084D01*
X15551085Y9913799D01*
X15541990Y9921775D01*
X15525084Y9936602D01*
X15501366Y9957403D01*
X15470528Y9981066D01*
X15470508Y9981080D01*
X15425877Y10011676D01*
X15293617Y10068313D01*
X15293602Y10068318D01*
X15219119Y10088275D01*
X15219098Y10088279D01*
X15088287Y10105500D01*
X15088282Y10105500D01*
X11146102Y10105500D01*
X11071602Y10125462D01*
X11040743Y10149141D01*
X10274141Y10915743D01*
X10235577Y10982538D01*
X10230500Y11021102D01*
X10230500Y15499992D01*
X12095006Y15499992D01*
X12114965Y15131864D01*
X12114965Y15131858D01*
X12174613Y14768026D01*
X12174613Y14768024D01*
X12273247Y14412779D01*
X12273249Y14412774D01*
X12409709Y14070285D01*
X12409715Y14070272D01*
X12582404Y13744544D01*
X12582407Y13744539D01*
X12789303Y13439392D01*
X12789312Y13439380D01*
X12925496Y13279052D01*
X12925497Y13279052D01*
X14241350Y14594906D01*
X14295456Y14516520D01*
X14468816Y14336034D01*
X14594865Y14241314D01*
X13276520Y12922969D01*
X13295657Y12904841D01*
X13295658Y12904840D01*
X13589165Y12681722D01*
X13905066Y12491650D01*
X14239684Y12336840D01*
X14239694Y12336835D01*
X14589063Y12219120D01*
X14949131Y12139863D01*
X15315656Y12100001D01*
X15315666Y12100000D01*
X15684334Y12100000D01*
X15684343Y12100001D01*
X16050868Y12139863D01*
X16050869Y12139863D01*
X16410936Y12219120D01*
X16760305Y12336835D01*
X16760315Y12336840D01*
X17094933Y12491650D01*
X17410834Y12681722D01*
X17704352Y12904849D01*
X17723479Y12922968D01*
X16406879Y14239568D01*
X16434180Y14256832D01*
X16621501Y14422784D01*
X16760511Y14593042D01*
X18074501Y13279052D01*
X18210690Y13439383D01*
X18210694Y13439389D01*
X18417592Y13744539D01*
X18417595Y13744544D01*
X18590284Y14070272D01*
X18590290Y14070285D01*
X18726750Y14412774D01*
X18726752Y14412779D01*
X18825386Y14768024D01*
X18825386Y14768026D01*
X18885034Y15131858D01*
X18885034Y15131864D01*
X18904994Y15499992D01*
X18904994Y15500009D01*
X18885034Y15868137D01*
X18885034Y15868143D01*
X18825386Y16231975D01*
X18825386Y16231977D01*
X18726752Y16587222D01*
X18726750Y16587227D01*
X18590290Y16929716D01*
X18590284Y16929729D01*
X18417595Y17255457D01*
X18417592Y17255462D01*
X18210696Y17560609D01*
X18210687Y17560621D01*
X18074502Y17720950D01*
X18074501Y17720950D01*
X16758648Y16405097D01*
X16704544Y16483480D01*
X16531184Y16663966D01*
X16405132Y16758688D01*
X17723479Y18077034D01*
X17704347Y18095156D01*
X17410834Y18318279D01*
X17094933Y18508351D01*
X16760315Y18663161D01*
X16760305Y18663166D01*
X16410936Y18780881D01*
X16050868Y18860138D01*
X15684343Y18900000D01*
X15315656Y18900000D01*
X14949131Y18860138D01*
X14949130Y18860138D01*
X14589063Y18780881D01*
X14239694Y18663166D01*
X14239684Y18663161D01*
X13905066Y18508351D01*
X13589165Y18318279D01*
X13295663Y18095165D01*
X13276520Y18077033D01*
X14593120Y16760433D01*
X14565820Y16743168D01*
X14378499Y16577216D01*
X14239488Y16406959D01*
X12925497Y17720950D01*
X12925496Y17720950D01*
X12789308Y17560617D01*
X12789306Y17560614D01*
X12582402Y17255453D01*
X12409715Y16929729D01*
X12409709Y16929716D01*
X12273249Y16587227D01*
X12273247Y16587222D01*
X12174613Y16231977D01*
X12174613Y16231975D01*
X12114965Y15868143D01*
X12114965Y15868137D01*
X12095006Y15500009D01*
X12095006Y15499992D01*
X10230500Y15499992D01*
X10230500Y16563270D01*
X10230500Y16563282D01*
X10226175Y16629262D01*
X10226110Y16629752D01*
X10222851Y16654509D01*
X10221098Y16667826D01*
X10211174Y16721022D01*
X10157699Y16854595D01*
X10119135Y16921390D01*
X10119133Y16921393D01*
X10119132Y16921395D01*
X10038800Y17026084D01*
X9501085Y17563799D01*
X9451366Y17607403D01*
X9420528Y17631066D01*
X9420508Y17631080D01*
X9375877Y17661676D01*
X9243617Y17718313D01*
X9243602Y17718318D01*
X9169119Y17738275D01*
X9169098Y17738279D01*
X9038287Y17755500D01*
X9038282Y17755500D01*
X4638906Y17755500D01*
X4554234Y17748358D01*
X4554223Y17748357D01*
X4505018Y17739997D01*
X4434145Y17722612D01*
X4304945Y17659309D01*
X4304935Y17659303D01*
X4241216Y17615860D01*
X4241214Y17615858D01*
X4165602Y17549889D01*
X4143413Y17530530D01*
X4141027Y17533265D01*
X4092389Y17501004D01*
X4015410Y17496220D01*
X3995765Y17501619D01*
X3968063Y17511312D01*
X3968056Y17511314D01*
X3800001Y17530249D01*
X3799999Y17530249D01*
X3631938Y17511313D01*
X3599754Y17500051D01*
X3522842Y17494288D01*
X3453352Y17527753D01*
X3445185Y17535331D01*
X3393037Y17587479D01*
X3393027Y17587488D01*
X3298695Y17661672D01*
X3298692Y17661674D01*
X3298689Y17661676D01*
X3187887Y17709124D01*
X3166429Y17718313D01*
X3166414Y17718318D01*
X3091931Y17738275D01*
X3091910Y17738279D01*
X2961099Y17755500D01*
X2961094Y17755500D01*
X2138906Y17755500D01*
X2054234Y17748358D01*
X2054223Y17748357D01*
X2005018Y17739997D01*
X1934145Y17722612D01*
X1804945Y17659309D01*
X1804935Y17659303D01*
X1741216Y17615860D01*
X1741214Y17615858D01*
X1665602Y17549889D01*
X1643413Y17530530D01*
X1641027Y17533265D01*
X1592389Y17501004D01*
X1515410Y17496220D01*
X1495765Y17501619D01*
X1468063Y17511312D01*
X1468056Y17511314D01*
X1300001Y17530249D01*
X1299999Y17530249D01*
X1131938Y17511313D01*
X1099754Y17500051D01*
X1022842Y17494288D01*
X953352Y17527753D01*
X945185Y17535331D01*
X893037Y17587479D01*
X893027Y17587488D01*
X798695Y17661672D01*
X798692Y17661674D01*
X798689Y17661676D01*
X687887Y17709124D01*
X666429Y17718313D01*
X666414Y17718318D01*
X591931Y17738275D01*
X591910Y17738279D01*
X461099Y17755500D01*
X461094Y17755500D01*
X-361094Y17755500D01*
X-445766Y17748358D01*
X-445777Y17748357D01*
X-494982Y17739997D01*
X-565855Y17722612D01*
X-695055Y17659309D01*
X-695065Y17659303D01*
X-758784Y17615860D01*
X-758786Y17615858D01*
X-834398Y17549889D01*
X-856587Y17530530D01*
X-858973Y17533265D01*
X-907611Y17501004D01*
X-984590Y17496220D01*
X-1004235Y17501619D01*
X-1031937Y17511312D01*
X-1031944Y17511314D01*
X-1199999Y17530249D01*
X-1200001Y17530249D01*
X-1368062Y17511313D01*
X-1400246Y17500051D01*
X-1477158Y17494288D01*
X-1546648Y17527753D01*
X-1554815Y17535331D01*
X-1606963Y17587479D01*
X-1606973Y17587488D01*
X-1701305Y17661672D01*
X-1701308Y17661674D01*
X-1701311Y17661676D01*
X-1812113Y17709124D01*
X-1833571Y17718313D01*
X-1833586Y17718318D01*
X-1908069Y17738275D01*
X-1908090Y17738279D01*
X-2038901Y17755500D01*
X-2038906Y17755500D01*
X-2861094Y17755500D01*
X-2945766Y17748358D01*
X-2945777Y17748357D01*
X-2994982Y17739997D01*
X-3065855Y17722612D01*
X-3195055Y17659309D01*
X-3195065Y17659303D01*
X-3258784Y17615860D01*
X-3258786Y17615858D01*
X-3334398Y17549889D01*
X-3356587Y17530530D01*
X-3358973Y17533265D01*
X-3407611Y17501004D01*
X-3484590Y17496220D01*
X-3504235Y17501619D01*
X-3531937Y17511312D01*
X-3531944Y17511314D01*
X-3699999Y17530249D01*
X-3700001Y17530249D01*
X-3868062Y17511313D01*
X-3900246Y17500051D01*
X-3977158Y17494288D01*
X-4046648Y17527753D01*
X-4054815Y17535331D01*
X-4106963Y17587479D01*
X-4106973Y17587488D01*
X-4201305Y17661672D01*
X-4201308Y17661674D01*
X-4201311Y17661676D01*
X-4312113Y17709124D01*
X-4333571Y17718313D01*
X-4333586Y17718318D01*
X-4408069Y17738275D01*
X-4408090Y17738279D01*
X-4538901Y17755500D01*
X-4538906Y17755500D01*
X-8101000Y17755500D01*
X-8101006Y17755500D01*
X-8231817Y17738279D01*
X-8231834Y17738276D01*
X-8306332Y17718315D01*
X-8417760Y17673705D01*
X-8417766Y17673702D01*
X-8532939Y17587483D01*
X-8532945Y17587478D01*
X-8587479Y17532944D01*
X-8587488Y17532934D01*
X-8661672Y17438602D01*
X-8661675Y17438597D01*
X-8661676Y17438595D01*
X-8686884Y17379730D01*
X-8718313Y17306336D01*
X-8718318Y17306321D01*
X-8738275Y17231838D01*
X-8738279Y17231817D01*
X-8755500Y17101006D01*
X-8755500Y17101000D01*
X-8755500Y12129373D01*
X-8752468Y12100001D01*
X-8744843Y12026122D01*
X-8732414Y11966554D01*
X-8732409Y11966533D01*
X-8719264Y11923524D01*
X-8716579Y11846443D01*
X-8752795Y11778346D01*
X-8756397Y11774616D01*
X-8810807Y11720206D01*
X-8810808Y11720204D01*
X-8897788Y11581777D01*
X-8951787Y11427459D01*
X-8970091Y11265001D01*
X-8970091Y11265000D01*
X-8951787Y11102542D01*
X-8951787Y11102540D01*
X-8951786Y11102539D01*
X-8897789Y10948225D01*
X-8810808Y10809796D01*
X-8810807Y10809795D01*
X-8695205Y10694193D01*
X-8695201Y10694190D01*
X-8610295Y10640840D01*
X-8557834Y10584301D01*
X-8540671Y10509107D01*
X-8563405Y10435406D01*
X-8584208Y10409319D01*
X-9374384Y9619141D01*
X-9441179Y9580577D01*
X-9479743Y9575500D01*
X-10633431Y9575500D01*
X-10707931Y9595462D01*
X-10762469Y9650000D01*
X-10781494Y9707818D01*
X-10788214Y9767461D01*
X-10842211Y9921775D01*
X-10929192Y10060204D01*
X-11044796Y10175808D01*
X-11183225Y10262789D01*
X-11337539Y10316786D01*
X-11337540Y10316787D01*
X-11337542Y10316787D01*
X-11499999Y10335091D01*
X-11500001Y10335091D01*
X-11662459Y10316787D01*
X-11739618Y10289788D01*
X-11816775Y10262789D01*
X-11816777Y10262789D01*
X-11816777Y10262788D01*
X-11955204Y10175808D01*
X-12070808Y10060204D01*
X-12157790Y9921775D01*
X-12177320Y9865961D01*
X-12220768Y9802235D01*
X-12282690Y9770408D01*
X-12291191Y9768337D01*
X-12306167Y9765491D01*
X-12345605Y9760070D01*
X-12360109Y9753770D01*
X-12384181Y9745676D01*
X-12399536Y9741933D01*
X-12399537Y9741933D01*
X-12399539Y9741932D01*
X-12434239Y9722423D01*
X-12447891Y9715642D01*
X-12484406Y9699780D01*
X-12496669Y9689803D01*
X-12517665Y9675512D01*
X-12531448Y9667762D01*
X-12559582Y9639628D01*
X-12570903Y9629410D01*
X-12601793Y9604278D01*
X-12610907Y9591366D01*
X-12627275Y9571935D01*
X-16305824Y5893387D01*
X-16309480Y5889854D01*
X-16356043Y5846366D01*
X-16376723Y5812360D01*
X-16385303Y5799754D01*
X-16409361Y5768028D01*
X-16409362Y5768027D01*
X-16415163Y5753316D01*
X-16426457Y5730576D01*
X-16434674Y5717063D01*
X-16434675Y5717061D01*
X-16445414Y5678735D01*
X-16450274Y5664283D01*
X-16464875Y5627256D01*
X-16464877Y5627247D01*
X-16466494Y5611521D01*
X-16471234Y5586579D01*
X-16475500Y5571350D01*
X-16475500Y5531549D01*
X-16476281Y5516312D01*
X-16480352Y5476712D01*
X-16477667Y5461140D01*
X-16475500Y5435822D01*
X-16475500Y3780451D01*
X-16495462Y3705951D01*
X-16498338Y3701178D01*
X-16582791Y3566773D01*
X-16587897Y3552181D01*
X-16623175Y3496038D01*
X-17405825Y2713388D01*
X-17409481Y2709855D01*
X-17456043Y2666368D01*
X-17476723Y2632362D01*
X-17485303Y2619756D01*
X-17509361Y2588030D01*
X-17509362Y2588029D01*
X-17515163Y2573318D01*
X-17526457Y2550578D01*
X-17534674Y2537065D01*
X-17534675Y2537063D01*
X-17545414Y2498737D01*
X-17550274Y2484285D01*
X-17564875Y2447258D01*
X-17564877Y2447249D01*
X-17566494Y2431523D01*
X-17571234Y2406581D01*
X-17575500Y2391352D01*
X-17575500Y2351551D01*
X-17576281Y2336314D01*
X-17580352Y2296714D01*
X-20999500Y2296714D01*
X-20999500Y10435000D01*
X-17111475Y10435000D01*
X-17105153Y10386976D01*
X-17104811Y10384383D01*
X-17103536Y10364934D01*
X-17103536Y10359493D01*
X-17102129Y10354241D01*
X-17098328Y10335133D01*
X-17098322Y10335091D01*
X-17091866Y10286050D01*
X-17091662Y10284506D01*
X-17091661Y10284499D01*
X-17072119Y10237319D01*
X-17065856Y10218871D01*
X-17064450Y10213623D01*
X-17064448Y10213619D01*
X-17061734Y10208918D01*
X-17053115Y10191441D01*
X-17033573Y10144263D01*
X-17033572Y10144262D01*
X-17002484Y10103747D01*
X-16991659Y10087545D01*
X-16988946Y10082845D01*
X-16988942Y10082840D01*
X-16985102Y10079000D01*
X-16972253Y10064349D01*
X-16941164Y10023834D01*
X-16941163Y10023833D01*
X-16925319Y10011676D01*
X-16900660Y9992754D01*
X-16900658Y9992753D01*
X-16886004Y9979902D01*
X-16882160Y9976058D01*
X-16882156Y9976055D01*
X-16877459Y9973343D01*
X-16861251Y9962514D01*
X-16827481Y9936602D01*
X-16820738Y9931428D01*
X-16773549Y9911882D01*
X-16756083Y9903267D01*
X-16751377Y9900550D01*
X-16751373Y9900549D01*
X-16746127Y9899143D01*
X-16727674Y9892879D01*
X-16694432Y9879110D01*
X-16680497Y9873338D01*
X-16629863Y9866672D01*
X-16610767Y9862874D01*
X-16605507Y9861464D01*
X-16605504Y9861464D01*
X-16600068Y9861464D01*
X-16580619Y9860189D01*
X-16530001Y9853525D01*
X-16530000Y9853525D01*
X-16529999Y9853525D01*
X-16479381Y9860189D01*
X-16459932Y9861464D01*
X-16454495Y9861464D01*
X-16454493Y9861464D01*
X-16449237Y9862873D01*
X-16430141Y9866672D01*
X-16379503Y9873338D01*
X-16332319Y9892883D01*
X-16313878Y9899143D01*
X-16308623Y9900550D01*
X-16303918Y9903267D01*
X-16286446Y9911884D01*
X-16239262Y9931428D01*
X-16198747Y9962517D01*
X-16182551Y9973338D01*
X-16177841Y9976057D01*
X-16173994Y9979905D01*
X-16159353Y9992745D01*
X-16118835Y10023835D01*
X-16087745Y10064353D01*
X-16074905Y10078994D01*
X-16071057Y10082841D01*
X-16068338Y10087551D01*
X-16057517Y10103747D01*
X-16026428Y10144262D01*
X-16006884Y10191446D01*
X-15998267Y10208918D01*
X-15995550Y10213623D01*
X-15994143Y10218878D01*
X-15987883Y10237319D01*
X-15968338Y10284503D01*
X-15961672Y10335138D01*
X-15957874Y10354234D01*
X-15956464Y10359493D01*
X-15956043Y10372396D01*
X-15954850Y10386964D01*
X-15948525Y10435000D01*
X-15954850Y10483037D01*
X-15956043Y10497605D01*
X-15956464Y10510507D01*
X-15957875Y10515770D01*
X-15961673Y10534870D01*
X-15968338Y10585497D01*
X-15987881Y10632676D01*
X-15994146Y10651136D01*
X-15995550Y10656377D01*
X-15998271Y10661090D01*
X-16006889Y10678566D01*
X-16013362Y10694192D01*
X-16026428Y10725737D01*
X-16057512Y10766247D01*
X-16068337Y10782449D01*
X-16071053Y10787153D01*
X-16071058Y10787160D01*
X-16074907Y10791009D01*
X-16087753Y10805658D01*
X-16118834Y10846164D01*
X-16159348Y10877252D01*
X-16174000Y10890102D01*
X-16177840Y10893942D01*
X-16177845Y10893946D01*
X-16182545Y10896659D01*
X-16198747Y10907484D01*
X-16239262Y10938572D01*
X-16239263Y10938573D01*
X-16286441Y10958115D01*
X-16303918Y10966734D01*
X-16308619Y10969448D01*
X-16308623Y10969450D01*
X-16308634Y10969453D01*
X-16313874Y10970857D01*
X-16332319Y10977119D01*
X-16379499Y10996661D01*
X-16379502Y10996662D01*
X-16379503Y10996662D01*
X-16400962Y10999488D01*
X-16430133Y11003328D01*
X-16449241Y11007129D01*
X-16454493Y11008536D01*
X-16459932Y11008536D01*
X-16479381Y11009811D01*
X-16529999Y11016475D01*
X-16530001Y11016475D01*
X-16580619Y11009811D01*
X-16600068Y11008536D01*
X-16605509Y11008536D01*
X-16610769Y11007127D01*
X-16629870Y11003328D01*
X-16674230Y10997488D01*
X-16680497Y10996662D01*
X-16680498Y10996662D01*
X-16680502Y10996661D01*
X-16727674Y10977122D01*
X-16746114Y10970862D01*
X-16751372Y10969453D01*
X-16751379Y10969450D01*
X-16756101Y10966724D01*
X-16773563Y10958114D01*
X-16820731Y10938575D01*
X-16820734Y10938574D01*
X-16820737Y10938572D01*
X-16853001Y10913816D01*
X-16861247Y10907488D01*
X-16877440Y10896668D01*
X-16882159Y10893944D01*
X-16882161Y10893943D01*
X-16886013Y10890090D01*
X-16900655Y10877251D01*
X-16941163Y10846168D01*
X-16941168Y10846163D01*
X-16972251Y10805655D01*
X-16985090Y10791013D01*
X-16988943Y10787161D01*
X-16988944Y10787159D01*
X-16991668Y10782440D01*
X-17002488Y10766247D01*
X-17033572Y10725737D01*
X-17033572Y10725736D01*
X-17033575Y10725731D01*
X-17053114Y10678563D01*
X-17061724Y10661101D01*
X-17064450Y10656379D01*
X-17064453Y10656372D01*
X-17065862Y10651114D01*
X-17072122Y10632674D01*
X-17091661Y10585502D01*
X-17091662Y10585496D01*
X-17098328Y10534870D01*
X-17102127Y10515769D01*
X-17103536Y10510509D01*
X-17103536Y10505068D01*
X-17104812Y10485619D01*
X-17111475Y10435000D01*
X-20999500Y10435000D01*
X-20999500Y15496914D01*
X-20999437Y15499992D01*
X-18904994Y15499992D01*
X-18885035Y15131864D01*
X-18885035Y15131858D01*
X-18825387Y14768026D01*
X-18825387Y14768024D01*
X-18726753Y14412779D01*
X-18726751Y14412774D01*
X-18590291Y14070285D01*
X-18590285Y14070272D01*
X-18417596Y13744544D01*
X-18417593Y13744539D01*
X-18210697Y13439392D01*
X-18210688Y13439380D01*
X-18074504Y13279052D01*
X-18074503Y13279052D01*
X-16758650Y14594906D01*
X-16704544Y14516520D01*
X-16531184Y14336034D01*
X-16405135Y14241314D01*
X-17723480Y12922969D01*
X-17704343Y12904841D01*
X-17704342Y12904840D01*
X-17410835Y12681722D01*
X-17094934Y12491650D01*
X-16760316Y12336840D01*
X-16760306Y12336835D01*
X-16410937Y12219120D01*
X-16050869Y12139863D01*
X-15684344Y12100001D01*
X-15684334Y12100000D01*
X-15315666Y12100000D01*
X-15315657Y12100001D01*
X-14949132Y12139863D01*
X-14949131Y12139863D01*
X-14589064Y12219120D01*
X-14239695Y12336835D01*
X-14239685Y12336840D01*
X-13905067Y12491650D01*
X-13589166Y12681722D01*
X-13295648Y12904849D01*
X-13276521Y12922968D01*
X-14593121Y14239568D01*
X-14565820Y14256832D01*
X-14378499Y14422784D01*
X-14239489Y14593042D01*
X-12925499Y13279052D01*
X-12789310Y13439383D01*
X-12789306Y13439389D01*
X-12582408Y13744539D01*
X-12582405Y13744544D01*
X-12409716Y14070272D01*
X-12409710Y14070285D01*
X-12273250Y14412774D01*
X-12273248Y14412779D01*
X-12174614Y14768024D01*
X-12174614Y14768026D01*
X-12114966Y15131858D01*
X-12114966Y15131864D01*
X-12095006Y15499992D01*
X-12095006Y15500009D01*
X-12114966Y15868137D01*
X-12114966Y15868143D01*
X-12174614Y16231975D01*
X-12174614Y16231977D01*
X-12273248Y16587222D01*
X-12273250Y16587227D01*
X-12409710Y16929716D01*
X-12409716Y16929729D01*
X-12582405Y17255457D01*
X-12582408Y17255462D01*
X-12789304Y17560609D01*
X-12789313Y17560621D01*
X-12925498Y17720950D01*
X-12925499Y17720950D01*
X-14241352Y16405097D01*
X-14295456Y16483480D01*
X-14468816Y16663966D01*
X-14594868Y16758688D01*
X-13276521Y18077034D01*
X-13295653Y18095156D01*
X-13589166Y18318279D01*
X-13905067Y18508351D01*
X-14239685Y18663161D01*
X-14239695Y18663166D01*
X-14589064Y18780881D01*
X-14949132Y18860138D01*
X-15315657Y18900000D01*
X-15684344Y18900000D01*
X-16050869Y18860138D01*
X-16050870Y18860138D01*
X-16410937Y18780881D01*
X-16760306Y18663166D01*
X-16760316Y18663161D01*
X-17094934Y18508351D01*
X-17410835Y18318279D01*
X-17704337Y18095165D01*
X-17723480Y18077033D01*
X-16406880Y16760433D01*
X-16434180Y16743168D01*
X-16621501Y16577216D01*
X-16760512Y16406959D01*
X-18074503Y17720950D01*
X-18074504Y17720950D01*
X-18210692Y17560617D01*
X-18210694Y17560614D01*
X-18417598Y17255453D01*
X-18590285Y16929729D01*
X-18590291Y16929716D01*
X-18726751Y16587227D01*
X-18726753Y16587222D01*
X-18825387Y16231977D01*
X-18825387Y16231975D01*
X-18885035Y15868143D01*
X-18885035Y15868137D01*
X-18904994Y15500009D01*
X-18904994Y15499992D01*
X-20999437Y15499992D01*
X-20999373Y15503071D01*
X-20990506Y15717455D01*
X-20990455Y15717453D01*
X-20990492Y15717791D01*
X-20980139Y15954903D01*
X-20979142Y15966777D01*
X-20950922Y16193168D01*
X-20921239Y16418634D01*
X-20919344Y16429751D01*
X-20891346Y16563280D01*
X-20872181Y16654685D01*
X-20871904Y16655965D01*
X-20823198Y16875665D01*
X-20820542Y16885905D01*
X-20820541Y16885908D01*
X-20754715Y17107016D01*
X-20754126Y17108937D01*
X-20686719Y17322726D01*
X-20683456Y17331985D01*
X-20599403Y17547395D01*
X-20598400Y17549889D01*
X-20512816Y17756506D01*
X-20509047Y17764863D01*
X-20407436Y17972711D01*
X-20405842Y17975873D01*
X-20302709Y18173989D01*
X-20298580Y18181390D01*
X-20180092Y18380239D01*
X-20177827Y18383915D01*
X-20057959Y18572070D01*
X-20053616Y18578505D01*
X-19919017Y18767023D01*
X-19916039Y18771045D01*
X-19780294Y18947951D01*
X-19775864Y18953446D01*
X-19626154Y19130208D01*
X-19622353Y19134523D01*
X-19471731Y19298898D01*
X-19467326Y19303499D01*
X-19303499Y19467326D01*
X-19298898Y19471731D01*
X-19134523Y19622353D01*
X-19130208Y19626154D01*
X-18953446Y19775864D01*
X-18947951Y19780294D01*
X-18771045Y19916039D01*
X-18767023Y19919017D01*
X-18578505Y20053616D01*
X-18572070Y20057959D01*
X-18383915Y20177827D01*
X-18380239Y20180092D01*
X-18181371Y20298592D01*
X-18173989Y20302709D01*
X-17975873Y20405842D01*
X-17972711Y20407436D01*
X-17764863Y20509047D01*
X-17756506Y20512816D01*
X-17549889Y20598400D01*
X-17547395Y20599403D01*
X-17331985Y20683456D01*
X-17322726Y20686719D01*
X-17108937Y20754126D01*
X-17107016Y20754715D01*
X-16885895Y20820545D01*
X-16875665Y20823198D01*
X-16655965Y20871904D01*
X-16654685Y20872181D01*
X-16429744Y20919346D01*
X-16418634Y20921239D01*
X-16193168Y20950922D01*
X-16193153Y20950924D01*
X-15966777Y20979142D01*
X-15954903Y20980139D01*
X-15717894Y20990488D01*
X-15717794Y20990492D01*
X-15717452Y20990416D01*
X-15717455Y20990506D01*
X-15503071Y20999374D01*
X-15496914Y20999500D01*
X15496914Y20999500D01*
X15503070Y20999374D01*
G37*
%TD.AperFunction*%
%TD*%
%TA.AperFunction,Conductor*%
%TO.N,Vmot*%
G36*
X-4464406Y17230038D02*
G01*
X-4409868Y17175500D01*
X-4389906Y17101000D01*
X-4398267Y17051789D01*
X-4436314Y16943058D01*
X-4436314Y16943057D01*
X-4455249Y16775001D01*
X-4455249Y16775000D01*
X-4436314Y16606944D01*
X-4380456Y16447310D01*
X-4300212Y16319603D01*
X-4277478Y16245902D01*
X-4294641Y16170707D01*
X-4347101Y16114168D01*
X-4355458Y16109289D01*
X-4454901Y16055473D01*
X-4634794Y15915457D01*
X-4789179Y15747750D01*
X-4789181Y15747748D01*
X-4789183Y15747745D01*
X-4853270Y15649653D01*
X-4913864Y15556907D01*
X-5005430Y15348157D01*
X-5061391Y15127172D01*
X-5080214Y14900002D01*
X-5080214Y14899999D01*
X-5061391Y14672829D01*
X-5005430Y14451844D01*
X-4913864Y14243094D01*
X-4913862Y14243091D01*
X-4789183Y14052255D01*
X-4789179Y14052251D01*
X-4634794Y13884544D01*
X-4454906Y13744531D01*
X-4405931Y13718027D01*
X-4349911Y13665012D01*
X-4327904Y13591091D01*
X-4345805Y13516069D01*
X-4398725Y13460107D01*
X-4520875Y13384897D01*
X-4696640Y13230205D01*
X-4843733Y13048034D01*
X-4957925Y12843622D01*
X-4957926Y12843620D01*
X-5035930Y12622847D01*
X-5058502Y12491205D01*
X-5075500Y12392072D01*
X-5075500Y11966572D01*
X-5064370Y11835808D01*
X-5060616Y11791699D01*
X-5001618Y11565113D01*
X-5001615Y11565105D01*
X-4905174Y11351753D01*
X-4774061Y11157764D01*
X-4774059Y11157762D01*
X-4774057Y11157759D01*
X-4612044Y10988717D01*
X-4423792Y10849487D01*
X-4214718Y10744074D01*
X-3990837Y10675511D01*
X-3758589Y10645771D01*
X-3524655Y10655708D01*
X-3295766Y10705038D01*
X-3078506Y10792340D01*
X-2879125Y10915104D01*
X-2703359Y11069797D01*
X-2563868Y11242555D01*
X-2501537Y11287975D01*
X-2424843Y11296147D01*
X-2354339Y11264876D01*
X-2324495Y11232384D01*
X-2274061Y11157764D01*
X-2274059Y11157762D01*
X-2274057Y11157759D01*
X-2112044Y10988717D01*
X-1923792Y10849487D01*
X-1714718Y10744074D01*
X-1490837Y10675511D01*
X-1258589Y10645771D01*
X-1024655Y10655708D01*
X-795766Y10705038D01*
X-578506Y10792340D01*
X-379125Y10915104D01*
X-203359Y11069797D01*
X-63868Y11242555D01*
X-1537Y11287975D01*
X75157Y11296147D01*
X145661Y11264876D01*
X175505Y11232384D01*
X225939Y11157764D01*
X225941Y11157762D01*
X225943Y11157759D01*
X387956Y10988717D01*
X576208Y10849487D01*
X785282Y10744074D01*
X1009163Y10675511D01*
X1241411Y10645771D01*
X1475345Y10655708D01*
X1704234Y10705038D01*
X1921494Y10792340D01*
X2120875Y10915104D01*
X2296641Y11069797D01*
X2436132Y11242555D01*
X2498463Y11287975D01*
X2575157Y11296147D01*
X2645661Y11264876D01*
X2675505Y11232384D01*
X2725939Y11157764D01*
X2725941Y11157762D01*
X2725943Y11157759D01*
X2887956Y10988717D01*
X3076208Y10849487D01*
X3285282Y10744074D01*
X3509163Y10675511D01*
X3741411Y10645771D01*
X3975345Y10655708D01*
X4204234Y10705038D01*
X4421494Y10792340D01*
X4620875Y10915104D01*
X4796641Y11069797D01*
X4943735Y11251970D01*
X5057926Y11456381D01*
X5135929Y11677151D01*
X5175500Y11907928D01*
X5175500Y12333428D01*
X5160616Y12508301D01*
X5101617Y12734890D01*
X5005172Y12948250D01*
X4874057Y13142241D01*
X4712044Y13311283D01*
X4523792Y13450513D01*
X4513253Y13455827D01*
X4455718Y13507189D01*
X4431572Y13580440D01*
X4447286Y13655950D01*
X4498650Y13713487D01*
X4509418Y13719914D01*
X4554903Y13744529D01*
X4554906Y13744531D01*
X4734794Y13884544D01*
X4889183Y14052255D01*
X5013862Y14243091D01*
X5105430Y14451845D01*
X5161390Y14672824D01*
X5180214Y14900000D01*
X5161390Y15127176D01*
X5105430Y15348155D01*
X5013862Y15556909D01*
X4889183Y15747745D01*
X4734794Y15915456D01*
X4554906Y16055469D01*
X4554905Y16055470D01*
X4455457Y16109288D01*
X4399437Y16162302D01*
X4377430Y16236224D01*
X4395331Y16311246D01*
X4400204Y16319591D01*
X4480456Y16447310D01*
X4536313Y16606941D01*
X4555249Y16775000D01*
X4536313Y16943059D01*
X4498267Y17051789D01*
X4492504Y17128702D01*
X4525969Y17198192D01*
X4589695Y17241639D01*
X4638906Y17250000D01*
X9038282Y17250000D01*
X9112782Y17230038D01*
X9143641Y17206359D01*
X9681359Y16668641D01*
X9719923Y16601846D01*
X9725000Y16563282D01*
X9725000Y10750000D01*
X10875000Y9600000D01*
X15088282Y9600000D01*
X15162782Y9580038D01*
X15193641Y9556359D01*
X17006359Y7743641D01*
X17044923Y7676846D01*
X17050000Y7638282D01*
X17050000Y2661718D01*
X17034324Y2603218D01*
X17036342Y2602382D01*
X17025000Y2575000D01*
X17025000Y5750000D01*
X16550000Y6225000D01*
X14925000Y6225000D01*
X14450000Y5750000D01*
X14450000Y5800000D01*
X12675000Y7575000D01*
X11465243Y7575000D01*
X11390743Y7594962D01*
X11359884Y7618641D01*
X9962703Y9015822D01*
X9959168Y9019480D01*
X9915679Y9066045D01*
X9915675Y9066048D01*
X9881672Y9086726D01*
X9869061Y9095308D01*
X9837342Y9119361D01*
X9837341Y9119362D01*
X9837339Y9119363D01*
X9822632Y9125163D01*
X9799884Y9136462D01*
X9786383Y9144672D01*
X9786378Y9144674D01*
X9748047Y9155414D01*
X9733589Y9160276D01*
X9696562Y9174877D01*
X9696563Y9174877D01*
X9680843Y9176493D01*
X9655888Y9181235D01*
X9640666Y9185500D01*
X9640665Y9185500D01*
X9600865Y9185500D01*
X9585628Y9186281D01*
X9571221Y9187762D01*
X9546028Y9190352D01*
X9546027Y9190352D01*
X9546026Y9190352D01*
X9534354Y9188340D01*
X9530454Y9187667D01*
X9505138Y9185500D01*
X4426218Y9185500D01*
X4351718Y9205462D01*
X4320859Y9229141D01*
X4025000Y9525000D01*
X1161081Y9525000D01*
X1086581Y9544962D01*
X1032043Y9599500D01*
X1031795Y9599930D01*
X952533Y9737216D01*
X952531Y9737219D01*
X952530Y9737220D01*
X825872Y9877887D01*
X672727Y9989153D01*
X499805Y10066143D01*
X499803Y10066144D01*
X393360Y10088769D01*
X314648Y10105500D01*
X314646Y10105500D01*
X125354Y10105500D01*
X125352Y10105500D01*
X25392Y10084253D01*
X-59803Y10066144D01*
X-59805Y10066144D01*
X-59806Y10066143D01*
X-232728Y9989153D01*
X-385873Y9877887D01*
X-512531Y9737220D01*
X-512533Y9737216D01*
X-591754Y9600000D01*
X-592043Y9599500D01*
X-646581Y9544962D01*
X-721081Y9525000D01*
X-6349196Y9525000D01*
X-6423696Y9544962D01*
X-6478234Y9599500D01*
X-6498196Y9674000D01*
X-6478234Y9748500D01*
X-6470937Y9759908D01*
X-6469980Y9761265D01*
X-6464781Y9768630D01*
X-6448419Y9788058D01*
X-6249150Y9987328D01*
X-6245582Y9990776D01*
X-6198956Y10034320D01*
X-6178273Y10068335D01*
X-6169698Y10080934D01*
X-6145639Y10112658D01*
X-6139840Y10127365D01*
X-6128539Y10150117D01*
X-6120328Y10163618D01*
X-6109587Y10201958D01*
X-6104732Y10216395D01*
X-6090124Y10253435D01*
X-6088509Y10269160D01*
X-6083766Y10294115D01*
X-6079500Y10309335D01*
X-6079500Y10349143D01*
X-6078719Y10364379D01*
X-6078601Y10365533D01*
X-6074649Y10403971D01*
X-6077334Y10419546D01*
X-6079500Y10444859D01*
X-6079500Y10803064D01*
X-6079413Y10808151D01*
X-6077238Y10871826D01*
X-6086660Y10910488D01*
X-6089510Y10925481D01*
X-6092636Y10948225D01*
X-6094930Y10964920D01*
X-6101228Y10979419D01*
X-6109328Y11003507D01*
X-6113066Y11018847D01*
X-6113067Y11018852D01*
X-6132579Y11053555D01*
X-6139365Y11067218D01*
X-6155220Y11103719D01*
X-6155220Y11103720D01*
X-6165193Y11115978D01*
X-6179488Y11136982D01*
X-6187235Y11150760D01*
X-6215384Y11178909D01*
X-6225606Y11190236D01*
X-6250722Y11221108D01*
X-6263635Y11230223D01*
X-6283066Y11246591D01*
X-6522298Y11485823D01*
X-6525833Y11489481D01*
X-6569321Y11536045D01*
X-6569325Y11536048D01*
X-6603328Y11556726D01*
X-6615939Y11565308D01*
X-6647661Y11589363D01*
X-6662368Y11595163D01*
X-6685116Y11606462D01*
X-6698617Y11614672D01*
X-6698622Y11614674D01*
X-6736953Y11625414D01*
X-6751411Y11630276D01*
X-6788438Y11644877D01*
X-6788437Y11644877D01*
X-6804157Y11646493D01*
X-6829112Y11651235D01*
X-6844334Y11655500D01*
X-6844335Y11655500D01*
X-6884135Y11655500D01*
X-6899372Y11656281D01*
X-6912855Y11657667D01*
X-6938972Y11660352D01*
X-6938973Y11660352D01*
X-6938974Y11660352D01*
X-6950646Y11658340D01*
X-6954546Y11657667D01*
X-6979862Y11655500D01*
X-7546186Y11655500D01*
X-7620686Y11675462D01*
X-7661992Y11715246D01*
X-7663976Y11713663D01*
X-7669193Y11720205D01*
X-7784795Y11835807D01*
X-7784796Y11835808D01*
X-7923225Y11922789D01*
X-8077539Y11976786D01*
X-8089857Y11978174D01*
X-8117686Y11981310D01*
X-8189482Y12009490D01*
X-8237569Y12069792D01*
X-8250000Y12129373D01*
X-8250000Y17101000D01*
X-8230038Y17175500D01*
X-8175500Y17230038D01*
X-8101000Y17250000D01*
X-4538906Y17250000D01*
X-4464406Y17230038D01*
G37*
%TD.AperFunction*%
%TD*%
%TA.AperFunction,Conductor*%
%TO.N,/usb/USB_5V*%
G36*
X-12535230Y-6569685D02*
G01*
X-12489475Y-6622489D01*
X-12479330Y-6657815D01*
X-12467209Y-6749889D01*
X-12467207Y-6749894D01*
X-12408718Y-6891102D01*
X-12408716Y-6891105D01*
X-12315668Y-7012366D01*
X-12315667Y-7012367D01*
X-12194406Y-7105415D01*
X-12194403Y-7105417D01*
X-12105358Y-7142299D01*
X-12053191Y-7163908D01*
X-11939697Y-7178850D01*
X-11939690Y-7178850D01*
X-11863610Y-7178850D01*
X-11863603Y-7178850D01*
X-11750109Y-7163908D01*
X-11608896Y-7105416D01*
X-11487633Y-7012367D01*
X-11394584Y-6891105D01*
X-11369139Y-6829674D01*
X-11325300Y-6775273D01*
X-11259006Y-6753207D01*
X-11198285Y-6766644D01*
X-11193859Y-6768899D01*
X-11193858Y-6768899D01*
X-11193856Y-6768900D01*
X-11060735Y-6789984D01*
X-11060733Y-6789984D01*
X-11060731Y-6789984D01*
X-10927612Y-6768900D01*
X-10927612Y-6768899D01*
X-10927607Y-6768899D01*
X-10807513Y-6707708D01*
X-10712205Y-6612400D01*
X-10712203Y-6612395D01*
X-10712201Y-6612394D01*
X-10706465Y-6604501D01*
X-10704076Y-6606237D01*
X-10666941Y-6566913D01*
X-10604423Y-6550000D01*
X-9946218Y-6550000D01*
X-9879179Y-6569685D01*
X-9863993Y-6581182D01*
X-9827629Y-6613398D01*
X-9677002Y-6692454D01*
X-9511833Y-6733164D01*
X-9341721Y-6733164D01*
X-9176552Y-6692454D01*
X-9025925Y-6613398D01*
X-8989563Y-6581183D01*
X-8926329Y-6551463D01*
X-8907336Y-6550000D01*
X-6055951Y-6550000D01*
X-5988912Y-6569685D01*
X-5943157Y-6622489D01*
X-5941390Y-6626547D01*
X-5919938Y-6678338D01*
X-5919937Y-6678340D01*
X-5919936Y-6678341D01*
X-5897402Y-6707708D01*
X-5862490Y-6753207D01*
X-5823682Y-6803782D01*
X-5698241Y-6900036D01*
X-5552162Y-6960544D01*
X-5473781Y-6970863D01*
X-5395401Y-6981182D01*
X-5395400Y-6981182D01*
X-5395399Y-6981182D01*
X-5343146Y-6974302D01*
X-5238638Y-6960544D01*
X-5138987Y-6919266D01*
X-5069517Y-6911798D01*
X-5007038Y-6943073D01*
X-5003853Y-6946147D01*
X-4161319Y-7788681D01*
X-4127834Y-7850004D01*
X-4125000Y-7876362D01*
X-4125000Y-9323637D01*
X-4144685Y-9390676D01*
X-4161319Y-9411318D01*
X-4837675Y-10087674D01*
X-4898998Y-10121159D01*
X-4968690Y-10116175D01*
X-5019231Y-10078339D01*
X-5019571Y-10078680D01*
X-5021938Y-10076313D01*
X-5024623Y-10074303D01*
X-5025677Y-10072875D01*
X-5026471Y-10071782D01*
X-5026472Y-10071780D01*
X-5026475Y-10071777D01*
X-5026477Y-10071774D01*
X-5121775Y-9976476D01*
X-5121779Y-9976473D01*
X-5121780Y-9976472D01*
X-5241874Y-9915281D01*
X-5241876Y-9915280D01*
X-5241879Y-9915279D01*
X-5305270Y-9905239D01*
X-5368404Y-9875309D01*
X-5405335Y-9815997D01*
X-5404337Y-9746135D01*
X-5401832Y-9738848D01*
X-5347524Y-9595649D01*
X-5327019Y-9426777D01*
X-5328567Y-9414032D01*
X-5344744Y-9280803D01*
X-5347524Y-9257905D01*
X-5354209Y-9240279D01*
X-5377078Y-9179976D01*
X-5407846Y-9098847D01*
X-5504481Y-8958848D01*
X-5631812Y-8846043D01*
X-5631815Y-8846040D01*
X-5782438Y-8766987D01*
X-5947608Y-8726277D01*
X-6117720Y-8726277D01*
X-6282891Y-8766987D01*
X-6433514Y-8846040D01*
X-6560848Y-8958849D01*
X-6657482Y-9098845D01*
X-6717804Y-9257902D01*
X-6717805Y-9257907D01*
X-6738309Y-9426776D01*
X-6717805Y-9595646D01*
X-6717804Y-9595651D01*
X-6663517Y-9738794D01*
X-6657482Y-9754707D01*
X-6570955Y-9880062D01*
X-6549073Y-9946414D01*
X-6566538Y-10014065D01*
X-6617806Y-10061536D01*
X-6673006Y-10074500D01*
X-7319878Y-10074500D01*
X-7386917Y-10054815D01*
X-7407559Y-10038181D01*
X-7946783Y-9498957D01*
X-7962206Y-9480165D01*
X-7969399Y-9469399D01*
X-7969400Y-9469398D01*
X-8033189Y-9426776D01*
X-8052260Y-9414033D01*
X-8052261Y-9414032D01*
X-8149998Y-9394592D01*
X-8150001Y-9394592D01*
X-8162694Y-9397117D01*
X-8186886Y-9399500D01*
X-8422390Y-9399500D01*
X-8489429Y-9379815D01*
X-8510067Y-9363185D01*
X-8571780Y-9301472D01*
X-8691874Y-9240281D01*
X-8691876Y-9240280D01*
X-8691879Y-9240279D01*
X-8824998Y-9219196D01*
X-8825001Y-9219196D01*
X-8828683Y-9219779D01*
X-8833192Y-9219196D01*
X-8834758Y-9219196D01*
X-8834758Y-9218993D01*
X-8897976Y-9210819D01*
X-8935754Y-9184985D01*
X-9182877Y-8937862D01*
X-9216362Y-8876539D01*
X-9219196Y-8850181D01*
X-9219196Y-8849997D01*
X-9240280Y-8716878D01*
X-9240281Y-8716876D01*
X-9240281Y-8716874D01*
X-9301472Y-8596780D01*
X-9301474Y-8596778D01*
X-9301477Y-8596774D01*
X-9396775Y-8501476D01*
X-9396779Y-8501473D01*
X-9396780Y-8501472D01*
X-9516874Y-8440281D01*
X-9516876Y-8440280D01*
X-9516879Y-8440279D01*
X-9649998Y-8419196D01*
X-9650002Y-8419196D01*
X-9783122Y-8440279D01*
X-9903222Y-8501473D01*
X-9903226Y-8501476D01*
X-9998524Y-8596774D01*
X-9998527Y-8596778D01*
X-10059721Y-8716878D01*
X-10080804Y-8849997D01*
X-10080804Y-8850002D01*
X-10059721Y-8983121D01*
X-10059720Y-8983124D01*
X-10059719Y-8983126D01*
X-10013812Y-9073223D01*
X-9998527Y-9103221D01*
X-9998524Y-9103225D01*
X-9903226Y-9198523D01*
X-9903222Y-9198526D01*
X-9903220Y-9198528D01*
X-9783126Y-9259719D01*
X-9783124Y-9259719D01*
X-9783122Y-9259720D01*
X-9716563Y-9270261D01*
X-9650000Y-9280804D01*
X-9624744Y-9276803D01*
X-9555456Y-9285756D01*
X-9517666Y-9311595D01*
X-9290015Y-9539246D01*
X-9256530Y-9600569D01*
X-9255221Y-9646317D01*
X-9255804Y-9649999D01*
X-9255804Y-9650002D01*
X-9234721Y-9783121D01*
X-9234720Y-9783124D01*
X-9234719Y-9783126D01*
X-9173528Y-9903220D01*
X-9173527Y-9903221D01*
X-9173524Y-9903225D01*
X-9078226Y-9998523D01*
X-9078222Y-9998526D01*
X-9078220Y-9998528D01*
X-8958126Y-10059719D01*
X-8958124Y-10059719D01*
X-8958122Y-10059720D01*
X-8825002Y-10080804D01*
X-8825000Y-10080804D01*
X-8824998Y-10080804D01*
X-8691879Y-10059720D01*
X-8691879Y-10059719D01*
X-8691874Y-10059719D01*
X-8571780Y-9998528D01*
X-8510070Y-9936817D01*
X-8448749Y-9903334D01*
X-8422390Y-9900500D01*
X-8305122Y-9900500D01*
X-8238083Y-9920185D01*
X-8217441Y-9936819D01*
X-7891440Y-10262820D01*
X-7857955Y-10324143D01*
X-7862939Y-10393835D01*
X-7904811Y-10449768D01*
X-7922822Y-10460983D01*
X-7953220Y-10476472D01*
X-7953221Y-10476473D01*
X-7953226Y-10476476D01*
X-8048524Y-10571774D01*
X-8048527Y-10571778D01*
X-8109721Y-10691878D01*
X-8130804Y-10824997D01*
X-8130804Y-10825002D01*
X-8109721Y-10958121D01*
X-8109720Y-10958124D01*
X-8109719Y-10958126D01*
X-8048528Y-11078220D01*
X-8048527Y-11078221D01*
X-8048524Y-11078225D01*
X-7953226Y-11173523D01*
X-7953222Y-11173526D01*
X-7953220Y-11173528D01*
X-7833126Y-11234719D01*
X-7833124Y-11234719D01*
X-7833122Y-11234720D01*
X-7700002Y-11255804D01*
X-7700000Y-11255804D01*
X-7699998Y-11255804D01*
X-7566879Y-11234720D01*
X-7566879Y-11234719D01*
X-7566874Y-11234719D01*
X-7446780Y-11173528D01*
X-7385070Y-11111817D01*
X-7323749Y-11078334D01*
X-7297390Y-11075500D01*
X-7123021Y-11075500D01*
X-7055982Y-11095185D01*
X-7010227Y-11147989D01*
X-7000283Y-11217147D01*
X-7029308Y-11280703D01*
X-7041527Y-11292960D01*
X-7158592Y-11395037D01*
X-7241588Y-11521576D01*
X-7287367Y-11665811D01*
X-7287367Y-11665813D01*
X-7290817Y-11766836D01*
X-7291275Y-11780233D01*
X-7313237Y-11846562D01*
X-7367572Y-11890487D01*
X-7415203Y-11900000D01*
X-8616279Y-11900000D01*
X-8673905Y-11885796D01*
X-8822997Y-11807546D01*
X-8988167Y-11766836D01*
X-9158279Y-11766836D01*
X-9323450Y-11807546D01*
X-9472541Y-11885796D01*
X-9530167Y-11900000D01*
X-10098638Y-11900000D01*
X-10165677Y-11880315D01*
X-10186319Y-11863681D01*
X-12163449Y-9886551D01*
X-12196934Y-9825228D01*
X-12191950Y-9755536D01*
X-12150078Y-9699603D01*
X-12133402Y-9689078D01*
X-12066484Y-9653957D01*
X-11939153Y-9541152D01*
X-11842518Y-9401153D01*
X-11782196Y-9242095D01*
X-11761691Y-9073223D01*
X-11782196Y-8904351D01*
X-11792744Y-8876539D01*
X-11834291Y-8766987D01*
X-11842518Y-8745293D01*
X-11862132Y-8716878D01*
X-11876860Y-8695541D01*
X-11939153Y-8605294D01*
X-12034020Y-8521249D01*
X-12066487Y-8492486D01*
X-12217110Y-8413433D01*
X-12382280Y-8372723D01*
X-12552392Y-8372723D01*
X-12717563Y-8413433D01*
X-12868186Y-8492486D01*
X-12995520Y-8605295D01*
X-13092154Y-8745291D01*
X-13152476Y-8904348D01*
X-13152477Y-8904353D01*
X-13172981Y-9073222D01*
X-13172981Y-9073223D01*
X-13168388Y-9111054D01*
X-13179847Y-9179976D01*
X-13226750Y-9231762D01*
X-13291483Y-9250000D01*
X-15548638Y-9250000D01*
X-15615677Y-9230315D01*
X-15636319Y-9213681D01*
X-16038681Y-8811319D01*
X-16072166Y-8749996D01*
X-16075000Y-8723638D01*
X-16075000Y-6951362D01*
X-16055315Y-6884323D01*
X-16038681Y-6863681D01*
X-15761319Y-6586319D01*
X-15699996Y-6552834D01*
X-15673638Y-6550000D01*
X-12602269Y-6550000D01*
X-12535230Y-6569685D01*
G37*
%TD.AperFunction*%
%TD*%
%TA.AperFunction,Conductor*%
%TO.N,+3V3*%
G36*
X16665677Y-2219685D02*
G01*
X16686319Y-2236319D01*
X17088681Y-2638681D01*
X17122166Y-2700004D01*
X17125000Y-2726362D01*
X17125000Y-4323638D01*
X17105315Y-4390677D01*
X17088681Y-4411319D01*
X11761319Y-9738681D01*
X11699996Y-9772166D01*
X11673638Y-9775000D01*
X4350000Y-9775000D01*
X4225001Y-9899999D01*
X4044328Y-10080671D01*
X3983005Y-10114155D01*
X3913313Y-10109171D01*
X3906211Y-10106268D01*
X3754807Y-10038857D01*
X3754802Y-10038855D01*
X3609001Y-10007865D01*
X3569646Y-9999500D01*
X3380354Y-9999500D01*
X3347897Y-10006398D01*
X3195197Y-10038855D01*
X3195192Y-10038857D01*
X3022270Y-10115848D01*
X3022265Y-10115851D01*
X2869129Y-10227111D01*
X2742466Y-10367785D01*
X2647821Y-10531715D01*
X2647818Y-10531722D01*
X2589327Y-10711740D01*
X2589326Y-10711744D01*
X2586953Y-10734323D01*
X2575571Y-10842621D01*
X2548986Y-10907235D01*
X2491689Y-10947220D01*
X2426473Y-10950950D01*
X2419650Y-10949500D01*
X2419646Y-10949500D01*
X2230354Y-10949500D01*
X2197897Y-10956398D01*
X2045197Y-10988855D01*
X2045192Y-10988857D01*
X1872270Y-11065848D01*
X1872265Y-11065851D01*
X1719129Y-11177111D01*
X1592466Y-11317785D01*
X1497821Y-11481715D01*
X1497818Y-11481722D01*
X1447449Y-11636744D01*
X1439326Y-11661744D01*
X1419540Y-11850000D01*
X1439326Y-12038256D01*
X1439327Y-12038259D01*
X1497818Y-12218277D01*
X1497821Y-12218284D01*
X1592463Y-12382210D01*
X1593468Y-12383593D01*
X1593801Y-12384528D01*
X1595716Y-12387844D01*
X1595109Y-12388193D01*
X1616950Y-12449398D01*
X1601128Y-12517453D01*
X1580834Y-12544164D01*
X1011319Y-13113681D01*
X949996Y-13147166D01*
X923638Y-13150000D01*
X-1998638Y-13150000D01*
X-2065677Y-13130315D01*
X-2086319Y-13113681D01*
X-2788681Y-12411319D01*
X-2822166Y-12349996D01*
X-2825000Y-12323638D01*
X-2825000Y-10801362D01*
X-2805315Y-10734323D01*
X-2788681Y-10713681D01*
X-2011319Y-9936319D01*
X-1949996Y-9902834D01*
X-1923638Y-9900000D01*
X200000Y-9900000D01*
X2138681Y-7961319D01*
X2200004Y-7927834D01*
X2226362Y-7925000D01*
X7376793Y-7925000D01*
X7443832Y-7944685D01*
X7459498Y-7957999D01*
X7460150Y-7957276D01*
X7464980Y-7961625D01*
X7618110Y-8072880D01*
X7618115Y-8072883D01*
X7791037Y-8149874D01*
X7791042Y-8149876D01*
X7976199Y-8189232D01*
X7976200Y-8189232D01*
X8165489Y-8189232D01*
X8165491Y-8189232D01*
X8350648Y-8149876D01*
X8523575Y-8072883D01*
X8676716Y-7961620D01*
X8676722Y-7961613D01*
X8681540Y-7957276D01*
X8683470Y-7959419D01*
X8732238Y-7929378D01*
X8764897Y-7925000D01*
X9325000Y-7925000D01*
X15013681Y-2236319D01*
X15075004Y-2202834D01*
X15101362Y-2200000D01*
X16598638Y-2200000D01*
X16665677Y-2219685D01*
G37*
%TD.AperFunction*%
%TD*%
%TA.AperFunction,Conductor*%
%TO.N,Vmot*%
G36*
X17025000Y5750000D02*
G01*
X17025000Y2575000D01*
X17025000Y576362D01*
X17005315Y509323D01*
X16988681Y488681D01*
X11061319Y-5438681D01*
X10999996Y-5472166D01*
X10973638Y-5475000D01*
X9276362Y-5475000D01*
X9209323Y-5455315D01*
X9188681Y-5438681D01*
X8461319Y-4711319D01*
X8427834Y-4649996D01*
X8425000Y-4623638D01*
X8425000Y-3326362D01*
X8444685Y-3259323D01*
X8461319Y-3238681D01*
X14450000Y2750000D01*
X14450000Y5750000D01*
X14925000Y6225000D01*
X16550000Y6225000D01*
X17025000Y5750000D01*
G37*
%TD.AperFunction*%
%TD*%
M02*
