%TF.GenerationSoftware,KiCad,Pcbnew,7.0.9*%
%TF.CreationDate,2024-01-12T19:02:56-05:00*%
%TF.ProjectId,lemon-pepper,6c656d6f-6e2d-4706-9570-7065722e6b69,rev?*%
%TF.SameCoordinates,PX8b85c60PY52f2218*%
%TF.FileFunction,Copper,L2,Inr*%
%TF.FilePolarity,Positive*%
%FSLAX46Y46*%
G04 Gerber Fmt 4.6, Leading zero omitted, Abs format (unit mm)*
G04 Created by KiCad (PCBNEW 7.0.9) date 2024-01-12 19:02:56*
%MOMM*%
%LPD*%
G01*
G04 APERTURE LIST*
G04 Aperture macros list*
%AMRoundRect*
0 Rectangle with rounded corners*
0 $1 Rounding radius*
0 $2 $3 $4 $5 $6 $7 $8 $9 X,Y pos of 4 corners*
0 Add a 4 corners polygon primitive as box body*
4,1,4,$2,$3,$4,$5,$6,$7,$8,$9,$2,$3,0*
0 Add four circle primitives for the rounded corners*
1,1,$1+$1,$2,$3*
1,1,$1+$1,$4,$5*
1,1,$1+$1,$6,$7*
1,1,$1+$1,$8,$9*
0 Add four rect primitives between the rounded corners*
20,1,$1+$1,$2,$3,$4,$5,0*
20,1,$1+$1,$4,$5,$6,$7,0*
20,1,$1+$1,$6,$7,$8,$9,0*
20,1,$1+$1,$8,$9,$2,$3,0*%
G04 Aperture macros list end*
%TA.AperFunction,ComponentPad*%
%ADD10C,5.800000*%
%TD*%
%TA.AperFunction,ComponentPad*%
%ADD11C,1.000000*%
%TD*%
%TA.AperFunction,HeatsinkPad*%
%ADD12C,0.500000*%
%TD*%
%TA.AperFunction,ComponentPad*%
%ADD13O,1.750000X1.750000*%
%TD*%
%TA.AperFunction,ComponentPad*%
%ADD14O,1.750000X2.000000*%
%TD*%
%TA.AperFunction,ComponentPad*%
%ADD15RoundRect,0.250000X0.600000X0.725000X-0.600000X0.725000X-0.600000X-0.725000X0.600000X-0.725000X0*%
%TD*%
%TA.AperFunction,ComponentPad*%
%ADD16O,1.700000X1.950000*%
%TD*%
%TA.AperFunction,ViaPad*%
%ADD17C,0.800000*%
%TD*%
%TA.AperFunction,ViaPad*%
%ADD18C,0.450000*%
%TD*%
%TA.AperFunction,Conductor*%
%ADD19C,0.250000*%
%TD*%
%TA.AperFunction,Conductor*%
%ADD20C,0.125000*%
%TD*%
%TA.AperFunction,Conductor*%
%ADD21C,0.100000*%
%TD*%
%TA.AperFunction,Conductor*%
%ADD22C,0.200000*%
%TD*%
G04 APERTURE END LIST*
D10*
%TO.N,GND*%
%TO.C,H101*%
X-15500000Y15500000D03*
X-15500000Y-15500000D03*
X15500000Y15500000D03*
X15500000Y-15500000D03*
%TD*%
D11*
%TO.N,GND*%
%TO.C,J201*%
X-9426777Y-6032664D03*
X-12467336Y-9073223D03*
X-6032664Y-9426777D03*
X-9073223Y-12467336D03*
%TD*%
D12*
%TO.N,/current sense/U_OUT*%
%TO.C,M101*%
X-3700000Y16775000D03*
D13*
X-3700000Y14900000D03*
D14*
X-3700000Y12150000D03*
D12*
%TO.N,/current sense/W_IN*%
X-1200000Y16775000D03*
D13*
X-1200000Y14900000D03*
D14*
X-1200000Y12150000D03*
D12*
%TO.N,/half bridges/OUT1B*%
X1300000Y16775000D03*
D13*
X1300000Y14900000D03*
D14*
X1300000Y12150000D03*
D12*
%TO.N,/current sense/V_OUT*%
X3800000Y16775000D03*
D13*
X3800000Y14900000D03*
D14*
X3800000Y12150000D03*
%TD*%
D15*
%TO.N,Vmot*%
%TO.C,J101*%
X7225000Y-14725000D03*
D16*
%TO.N,GND*%
X4725000Y-14725000D03*
%TO.N,/mcu/CANL*%
X2225000Y-14725000D03*
%TO.N,/mcu/CANH*%
X-275000Y-14725000D03*
%TD*%
D17*
%TO.N,GND*%
X7675000Y2750000D03*
X-14630320Y-2499121D03*
X-2375000Y-14600000D03*
X-11650000Y1950000D03*
X-10375000Y675000D03*
X-9125000Y1975000D03*
X16675000Y-11200000D03*
X-10375000Y1950000D03*
X10585647Y5435647D03*
X11325000Y4725000D03*
X-10375000Y3150000D03*
X-1950000Y-1300000D03*
X8675000Y2725000D03*
X8070845Y-7288732D03*
X-4139000Y-1975000D03*
X1475000Y-6125000D03*
X9910647Y6110647D03*
X-7550000Y-13000000D03*
X-250000Y-6800000D03*
X-1975000Y50000D03*
X-5395400Y-6375500D03*
X-2400000Y-16525000D03*
X7700000Y3775000D03*
X2223639Y600498D03*
%TO.N,Vmot*%
X13575000Y-675000D03*
X3900000Y650000D03*
X-6275000Y16250000D03*
X4550000Y0D03*
X6305664Y12175000D03*
X6275000Y14250000D03*
X9950000Y-3975000D03*
X13575500Y-1567997D03*
X9025000Y-4375000D03*
X5450000Y175000D03*
X-6250000Y12175000D03*
X-6250000Y14225000D03*
X9850000Y-5000000D03*
X6250000Y16250000D03*
D18*
%TO.N,/mcu/USBD_P*%
X-5375000Y-10325000D03*
X-9650000Y-8850000D03*
X-8825000Y-9650000D03*
D17*
%TO.N,+3V3*%
X500000Y-12150000D03*
X-5075000Y-1225000D03*
X-6250000Y-16625000D03*
X-1700000Y-12150000D03*
X-625000Y-12150000D03*
X16075000Y-2500000D03*
X15625000Y-3350000D03*
X-12874972Y-2731439D03*
X2225000Y1600000D03*
X16550000Y-3375000D03*
X-2200000Y-11200000D03*
D18*
X-293750Y9250000D03*
D17*
X-1125000Y-11200000D03*
X-7850000Y8675000D03*
X-300000Y-8700000D03*
X-10524127Y-3153111D03*
D18*
%TO.N,/mcu/RESET*%
X-15925000Y3250000D03*
X-12412500Y8637500D03*
X-3150000Y-6775000D03*
D17*
%TO.N,/current sense/W_IN*%
X4075000Y4700500D03*
X4075000Y5575000D03*
D18*
%TO.N,/current sense/U_SENSE*%
X-7000000Y10800000D03*
X-15325000Y3275000D03*
%TO.N,/current sense/V_SENSE*%
X-2025000Y7925000D03*
X-8906524Y-3034784D03*
D17*
%TO.N,/usb/USB_5V*%
X-9725000Y-11475000D03*
X-11550000Y-9800000D03*
X-6975000Y-8750000D03*
X-4725000Y-8900000D03*
X-8806854Y-7050000D03*
D18*
%TO.N,/mcu/USER_2*%
X-11950000Y-5525000D03*
X-15525241Y-5099495D03*
D17*
%TO.N,Net-(D603-K)*%
X4750000Y-1600000D03*
X4275000Y2750000D03*
D18*
%TO.N,Net-(D601-K)*%
X6025000Y5500000D03*
X10925000Y925000D03*
%TO.N,/usb/UCPD_CC2*%
X-7700000Y-10825000D03*
X-6075000Y-10850000D03*
%TO.N,/half bridges/ENA*%
X9150000Y-400000D03*
X4225000Y3750000D03*
X-9350000Y-3400000D03*
%TO.N,/encoder/SCK*%
X775000Y-4000000D03*
X-16600000Y2175000D03*
%TO.N,/encoder/CIPO*%
X-15900000Y1550000D03*
X-600000Y-4000000D03*
%TO.N,/encoder/COPI*%
X62132Y-4000000D03*
X-15925000Y2175000D03*
%TO.N,/encoder/CS*%
X1425000Y-4000000D03*
X-14650000Y-800000D03*
%TO.N,/encoder/CAL_EN*%
X-15900000Y400000D03*
X-1225000Y-3975000D03*
%TO.N,/mcu/USER_3*%
X-11250000Y-5450000D03*
X-15522442Y-4525000D03*
X-8350000Y-2625000D03*
X-5525000Y3150000D03*
%TO.N,/mcu/USER_1*%
X-11060733Y-6359180D03*
X-15524934Y-5673997D03*
%TO.N,/mcu/CAN_TX*%
X-3775000Y2675000D03*
X-8500000Y6125000D03*
%TO.N,/mcu/CAN_RX*%
X-8875000Y6600000D03*
X-3775000Y2100000D03*
%TO.N,/half bridges/IN2B*%
X4950000Y4350000D03*
X-14425000Y4075000D03*
%TO.N,/mcu/TIM4_CH1*%
X-7575000Y5300000D03*
X-14750000Y-150000D03*
%TO.N,/half bridges/IN1A*%
X-6375000Y-1425000D03*
X9550000Y25000D03*
%TO.N,/half bridges/IN2A*%
X9950000Y450000D03*
X-6950497Y-1450000D03*
%TO.N,/half bridges/IN1B*%
X-13975000Y4500000D03*
X5356234Y4756234D03*
%TO.N,/mcu/TIM4_CH2*%
X-15325000Y-575000D03*
X-7968766Y5718766D03*
D17*
%TO.N,/half bridges/OUT1B*%
X7575000Y6501000D03*
X6625000Y6500000D03*
D18*
%TO.N,/mcu/DIR*%
X2625000Y-3975000D03*
X-4600000Y2075000D03*
X-7525000Y-1450000D03*
%TO.N,/mcu/STEP*%
X-2700000Y-3900000D03*
X-4600497Y2675000D03*
%TO.N,GNDA*%
X-5143750Y6825000D03*
D17*
X3475000Y-11825000D03*
X3475000Y-10900000D03*
D18*
X1506250Y6850000D03*
X1506250Y7500000D03*
D17*
X2325000Y-11850000D03*
D18*
X-5143750Y7475000D03*
%TO.N,/mcu/ADC1_IN12*%
X-14850000Y3675000D03*
X-7000000Y10150497D03*
%TO.N,/mcu/USER_BTN*%
X-11800000Y7800000D03*
X13550000Y4650000D03*
%TD*%
D19*
%TO.N,+3V3*%
X-3475000Y-16200000D02*
X-3475000Y-12475000D01*
X10855360Y-3150000D02*
X6105360Y1600000D01*
X-5075000Y-1225000D02*
X-5500000Y-1650000D01*
X-3900000Y-16625000D02*
X-3475000Y-16200000D01*
X-6250000Y-16625000D02*
X-3900000Y-16625000D01*
X-5500000Y-2600000D02*
X-5900000Y-3000000D01*
X-3475000Y-12475000D02*
X-2200000Y-11200000D01*
X-5500000Y-1650000D02*
X-5500000Y-2600000D01*
X16075000Y-2500000D02*
X15425000Y-3150000D01*
X2225000Y4775000D02*
X4475000Y7025000D01*
X6105360Y1600000D02*
X2225000Y1600000D01*
X2225000Y1600000D02*
X2225000Y4775000D01*
X4475000Y7025000D02*
X4475000Y8450000D01*
X15425000Y-3150000D02*
X10855360Y-3150000D01*
D20*
%TO.N,/current sense/V_SENSE*%
X-7629504Y8100000D02*
X-2200000Y8100000D01*
X-8654504Y7075000D02*
X-7629504Y8100000D01*
X-12450000Y2250000D02*
X-9287500Y5412500D01*
X-2200000Y8100000D02*
X-2025000Y7925000D01*
X-8906524Y-2643476D02*
X-12450000Y900000D01*
X-8983364Y7075000D02*
X-8654504Y7075000D01*
X-8906524Y-3034784D02*
X-8906524Y-2643476D01*
X-9287500Y5412500D02*
X-9287500Y6770864D01*
X-12450000Y900000D02*
X-12450000Y2250000D01*
X-9287500Y6770864D02*
X-8983364Y7075000D01*
D21*
%TO.N,/mcu/CAN_TX*%
X-3775000Y2725000D02*
X-7175000Y6125000D01*
X-7175000Y6125000D02*
X-8500000Y6125000D01*
X-3775000Y2675000D02*
X-3775000Y2725000D01*
%TO.N,/mcu/CAN_RX*%
X-6900000Y6600000D02*
X-8875000Y6600000D01*
X-3775000Y2100000D02*
X-3325000Y2550000D01*
X-3325000Y3025000D02*
X-6900000Y6600000D01*
X-3325000Y2550000D02*
X-3325000Y3025000D01*
D22*
%TO.N,GNDA*%
X3450000Y-11850000D02*
X3475000Y-11825000D01*
X3475000Y-11825000D02*
X3475000Y-11600000D01*
X3475000Y-11825000D02*
X3475000Y-11500000D01*
%TD*%
%TA.AperFunction,Conductor*%
%TO.N,GND*%
G36*
X2142859Y-4518871D02*
G01*
X2169796Y-4545808D01*
X2308225Y-4632789D01*
X2462539Y-4686786D01*
X2548398Y-4696460D01*
X2624999Y-4705091D01*
X2625000Y-4705091D01*
X2625001Y-4705091D01*
X2665615Y-4700514D01*
X2787461Y-4686786D01*
X2941775Y-4632789D01*
X3041227Y-4570298D01*
X3114927Y-4547564D01*
X3190122Y-4564726D01*
X3246661Y-4617186D01*
X3269396Y-4690887D01*
X3269500Y-4696460D01*
X3269500Y-9003898D01*
X3249538Y-9078398D01*
X3225859Y-9109257D01*
X3159257Y-9175859D01*
X3092462Y-9214423D01*
X3053898Y-9219500D01*
X2229500Y-9219500D01*
X2155000Y-9199538D01*
X2100462Y-9145000D01*
X2080500Y-9070500D01*
X2080500Y-7787826D01*
X2079052Y-7760795D01*
X2079052Y-7760796D01*
X2079051Y-7760784D01*
X2077808Y-7749232D01*
X2074771Y-7720976D01*
X2074088Y-7716763D01*
X2066114Y-7667552D01*
X2015832Y-7532743D01*
X1982347Y-7471420D01*
X1969460Y-7454205D01*
X1896125Y-7356241D01*
X1179748Y-6639864D01*
X1155444Y-6619255D01*
X1116510Y-6586241D01*
X1083540Y-6562644D01*
X1083535Y-6562641D01*
X1083536Y-6562641D01*
X1012376Y-6520075D01*
X1012374Y-6520074D01*
X1012373Y-6520073D01*
X1012372Y-6520073D01*
X937155Y-6495634D01*
X875534Y-6475612D01*
X806688Y-6463698D01*
X806681Y-6463697D01*
X662863Y-6459589D01*
X523717Y-6496167D01*
X523715Y-6496167D01*
X523710Y-6496169D01*
X486549Y-6511873D01*
X459350Y-6523368D01*
X336147Y-6597662D01*
X336146Y-6597662D01*
X336146Y-6597663D01*
X335514Y-6598352D01*
X238856Y-6703666D01*
X238850Y-6703673D01*
X218800Y-6732997D01*
X199420Y-6761339D01*
X199417Y-6761343D01*
X199416Y-6761344D01*
X199416Y-6761345D01*
X199414Y-6761348D01*
X135934Y-6890458D01*
X117674Y-6946657D01*
X105006Y-6975109D01*
X79153Y-7019889D01*
X60842Y-7045092D01*
X26243Y-7083518D01*
X3095Y-7104361D01*
X-38747Y-7134761D01*
X-65724Y-7150336D01*
X-112957Y-7171365D01*
X-142577Y-7180989D01*
X-193164Y-7191743D01*
X-224147Y-7195000D01*
X-275856Y-7195000D01*
X-306832Y-7191744D01*
X-357418Y-7180992D01*
X-387042Y-7171366D01*
X-434280Y-7150334D01*
X-461254Y-7134761D01*
X-503101Y-7104358D01*
X-526244Y-7083519D01*
X-556425Y-7050000D01*
X-560847Y-7045089D01*
X-579150Y-7019897D01*
X-605013Y-6975101D01*
X-617676Y-6946657D01*
X-633658Y-6897470D01*
X-640132Y-6867009D01*
X-645539Y-6815574D01*
X-645540Y-6784432D01*
X-640134Y-6732988D01*
X-633661Y-6702536D01*
X-617677Y-6653340D01*
X-605014Y-6624900D01*
X-579148Y-6580099D01*
X-560843Y-6554907D01*
X-526242Y-6516478D01*
X-503099Y-6495638D01*
X-461253Y-6465235D01*
X-434287Y-6449667D01*
X-343018Y-6409030D01*
X-336010Y-6406325D01*
X-302108Y-6395177D01*
X-253580Y-6373154D01*
X-159551Y-6317515D01*
X-57811Y-6215778D01*
X-27111Y-6174769D01*
X-15940Y-6159847D01*
X-15937Y-6159842D01*
X-15933Y-6159837D01*
X53020Y-6033556D01*
X83603Y-5892964D01*
X87644Y-5836458D01*
X88587Y-5823278D01*
X88587Y-5823266D01*
X80164Y-5705500D01*
X78323Y-5679761D01*
X28041Y-5544952D01*
X-5444Y-5483629D01*
X-6400Y-5482352D01*
X-91666Y-5368450D01*
X-91671Y-5368445D01*
X-500091Y-4960024D01*
X-538655Y-4893229D01*
X-538655Y-4816101D01*
X-500091Y-4749306D01*
X-443943Y-4714026D01*
X-437543Y-4711786D01*
X-437539Y-4711786D01*
X-318145Y-4670007D01*
X-241233Y-4664245D01*
X-219728Y-4670006D01*
X-100329Y-4711786D01*
X7978Y-4723989D01*
X62131Y-4730091D01*
X62132Y-4730091D01*
X62133Y-4730091D01*
X109597Y-4724743D01*
X224593Y-4711786D01*
X369356Y-4661130D01*
X446267Y-4655368D01*
X467768Y-4661128D01*
X612539Y-4711786D01*
X720846Y-4723989D01*
X774999Y-4730091D01*
X775000Y-4730091D01*
X775001Y-4730091D01*
X793306Y-4728028D01*
X937461Y-4711786D01*
X1050788Y-4672130D01*
X1127700Y-4666366D01*
X1149211Y-4672130D01*
X1262539Y-4711786D01*
X1404369Y-4727766D01*
X1424999Y-4730091D01*
X1425000Y-4730091D01*
X1425001Y-4730091D01*
X1472465Y-4724743D01*
X1587461Y-4711786D01*
X1741775Y-4657789D01*
X1880204Y-4570808D01*
X1932141Y-4518871D01*
X1998936Y-4480307D01*
X2076064Y-4480307D01*
X2142859Y-4518871D01*
G37*
%TD.AperFunction*%
%TA.AperFunction,Conductor*%
G36*
X-8571823Y5279768D02*
G01*
X-8523479Y5247467D01*
X-8423970Y5147958D01*
X-8296942Y5068141D01*
X-8244483Y5011603D01*
X-8235579Y4991196D01*
X-8234568Y4988308D01*
X-8232789Y4983225D01*
X-8145808Y4844796D01*
X-8030204Y4729192D01*
X-7891775Y4642211D01*
X-7737461Y4588214D01*
X-7629154Y4576011D01*
X-7575001Y4569909D01*
X-7575000Y4569909D01*
X-7574999Y4569909D01*
X-7534385Y4574486D01*
X-7412539Y4588214D01*
X-7258225Y4642211D01*
X-7119796Y4729192D01*
X-7004192Y4844796D01*
X-6975922Y4889789D01*
X-6919386Y4942249D01*
X-6844192Y4959413D01*
X-6770490Y4936680D01*
X-6744401Y4915876D01*
X-5847713Y4019189D01*
X-5809149Y3952394D01*
X-5809149Y3875266D01*
X-5847713Y3808471D01*
X-5873798Y3787669D01*
X-5980202Y3720811D01*
X-5980205Y3720807D01*
X-6095808Y3605204D01*
X-6178612Y3473422D01*
X-6182789Y3466775D01*
X-6201794Y3412461D01*
X-6236787Y3312459D01*
X-6255091Y3150001D01*
X-6255091Y3150000D01*
X-6236787Y2987542D01*
X-6236787Y2987540D01*
X-6236786Y2987539D01*
X-6182789Y2833225D01*
X-6095808Y2694796D01*
X-5980204Y2579192D01*
X-5841775Y2492211D01*
X-5687461Y2438214D01*
X-5525000Y2419909D01*
X-5472091Y2425871D01*
X-5395827Y2414377D01*
X-5335525Y2366289D01*
X-5307346Y2294493D01*
X-5310144Y2244655D01*
X-5311786Y2237461D01*
X-5330091Y2075001D01*
X-5330091Y2075000D01*
X-5311787Y1912542D01*
X-5311787Y1912540D01*
X-5311786Y1912539D01*
X-5257789Y1758225D01*
X-5170808Y1619796D01*
X-5055204Y1504192D01*
X-4916775Y1417211D01*
X-4762461Y1363214D01*
X-4654154Y1351011D01*
X-4600001Y1344909D01*
X-4600000Y1344909D01*
X-4599999Y1344909D01*
X-4559385Y1349486D01*
X-4437539Y1363214D01*
X-4283225Y1417211D01*
X-4246879Y1440050D01*
X-4173183Y1462784D01*
X-4097988Y1445623D01*
X-4093612Y1443097D01*
X-4091785Y1442218D01*
X-4091775Y1442211D01*
X-3937461Y1388214D01*
X-3866379Y1380205D01*
X-3775001Y1369909D01*
X-3775000Y1369909D01*
X-3774999Y1369909D01*
X-3734385Y1374486D01*
X-3612539Y1388214D01*
X-3458225Y1442211D01*
X-3319796Y1529192D01*
X-3204192Y1644796D01*
X-3117211Y1783225D01*
X-3063214Y1937539D01*
X-3056897Y1993609D01*
X-3028722Y2065403D01*
X-3014206Y2082272D01*
X-2942397Y2154080D01*
X-2893956Y2199320D01*
X-2880818Y2220928D01*
X-2877266Y2226767D01*
X-2821502Y2280051D01*
X-2746568Y2298314D01*
X-2672541Y2276664D01*
X-2644596Y2254712D01*
X-1449141Y1059257D01*
X-1410577Y992462D01*
X-1405500Y953898D01*
X-1405500Y-1787174D01*
X-1404052Y-1814205D01*
X-1404052Y-1814204D01*
X-1399771Y-1854024D01*
X-1399769Y-1854036D01*
X-1391114Y-1907448D01*
X-1368611Y-1967779D01*
X-1340834Y-2042252D01*
X-1340833Y-2042255D01*
X-1307350Y-2103575D01*
X-1307345Y-2103583D01*
X-1221126Y-2218758D01*
X-416469Y-3023415D01*
X-377905Y-3090210D01*
X-377905Y-3167338D01*
X-416469Y-3234133D01*
X-483264Y-3272697D01*
X-538511Y-3276837D01*
X-599999Y-3269909D01*
X-600001Y-3269909D01*
X-762463Y-3288214D01*
X-827568Y-3310995D01*
X-904480Y-3316758D01*
X-925989Y-3310995D01*
X-953061Y-3301522D01*
X-1062539Y-3263214D01*
X-1143770Y-3254061D01*
X-1224999Y-3244909D01*
X-1225001Y-3244909D01*
X-1387459Y-3263213D01*
X-1458907Y-3288214D01*
X-1541775Y-3317211D01*
X-1541777Y-3317211D01*
X-1541777Y-3317212D01*
X-1680204Y-3404192D01*
X-1795808Y-3519796D01*
X-1812775Y-3546799D01*
X-1869314Y-3599259D01*
X-1944509Y-3616422D01*
X-2018210Y-3593688D01*
X-2065099Y-3546799D01*
X-2084709Y-3515590D01*
X-2129192Y-3444796D01*
X-2244796Y-3329192D01*
X-2383225Y-3242211D01*
X-2383228Y-3242209D01*
X-2383227Y-3242209D01*
X-2445686Y-3220354D01*
X-2509412Y-3176906D01*
X-2542877Y-3107416D01*
X-2545094Y-3090344D01*
X-2545865Y-3079567D01*
X-2547713Y-3053725D01*
X-2565247Y-3006714D01*
X-2597990Y-2918928D01*
X-2597995Y-2918917D01*
X-2597995Y-2918916D01*
X-2631480Y-2857593D01*
X-2642570Y-2842779D01*
X-2717702Y-2742414D01*
X-2717707Y-2742409D01*
X-3109437Y-2350677D01*
X-3135282Y-2328121D01*
X-3135284Y-2328119D01*
X-3175646Y-2297451D01*
X-3177848Y-2296002D01*
X-3232895Y-2259787D01*
X-3366973Y-2207586D01*
X-3431628Y-2192552D01*
X-3432800Y-2192221D01*
X-3435023Y-2191762D01*
X-3435029Y-2191761D01*
X-3435030Y-2191761D01*
X-3578383Y-2179450D01*
X-3578384Y-2179450D01*
X-3578385Y-2179450D01*
X-3719400Y-2208025D01*
X-3719406Y-2208027D01*
X-3785199Y-2231503D01*
X-3785200Y-2231503D01*
X-3912446Y-2298644D01*
X-3912448Y-2298646D01*
X-3927752Y-2309765D01*
X-3954720Y-2325334D01*
X-4001961Y-2346366D01*
X-4031577Y-2355990D01*
X-4082169Y-2366744D01*
X-4113147Y-2370000D01*
X-4164856Y-2370000D01*
X-4195832Y-2366744D01*
X-4246418Y-2355992D01*
X-4276043Y-2346366D01*
X-4323278Y-2325335D01*
X-4350252Y-2309761D01*
X-4392096Y-2279360D01*
X-4415245Y-2258517D01*
X-4499211Y-2165264D01*
X-4499213Y-2165263D01*
X-4499216Y-2165259D01*
X-4509837Y-2154938D01*
X-4516844Y-2148127D01*
X-4556355Y-2081888D01*
X-4557454Y-2004768D01*
X-4519845Y-1937430D01*
X-4500582Y-1920739D01*
X-4469129Y-1897888D01*
X-4357228Y-1773610D01*
X-4342470Y-1757220D01*
X-4342469Y-1757218D01*
X-4342467Y-1757216D01*
X-4247821Y-1593284D01*
X-4189326Y-1413256D01*
X-4169540Y-1225000D01*
X-4189326Y-1036744D01*
X-4247821Y-856716D01*
X-4342467Y-692784D01*
X-4342468Y-692783D01*
X-4342470Y-692779D01*
X-4469128Y-552113D01*
X-4559100Y-486745D01*
X-4622270Y-440849D01*
X-4622271Y-440848D01*
X-4622273Y-440847D01*
X-4795195Y-363857D01*
X-4795197Y-363856D01*
X-4901640Y-341231D01*
X-4980352Y-324500D01*
X-4980354Y-324500D01*
X-5169646Y-324500D01*
X-5169648Y-324500D01*
X-5269608Y-345747D01*
X-5354803Y-363856D01*
X-5354805Y-363856D01*
X-5354806Y-363857D01*
X-5527728Y-440847D01*
X-5680873Y-552113D01*
X-5807532Y-692781D01*
X-5828462Y-729032D01*
X-5883001Y-783568D01*
X-5957501Y-803529D01*
X-6032001Y-783565D01*
X-6036770Y-780691D01*
X-6058221Y-767212D01*
X-6212542Y-713213D01*
X-6374999Y-694909D01*
X-6375001Y-694909D01*
X-6537463Y-713214D01*
X-6649263Y-752334D01*
X-6726175Y-758097D01*
X-6747684Y-752334D01*
X-6788036Y-738214D01*
X-6869528Y-729032D01*
X-6950496Y-719909D01*
X-6950498Y-719909D01*
X-7112956Y-738213D01*
X-7112960Y-738214D01*
X-7188539Y-764660D01*
X-7265452Y-770423D01*
X-7286960Y-764660D01*
X-7322186Y-752334D01*
X-7362539Y-738214D01*
X-7444031Y-729032D01*
X-7524999Y-719909D01*
X-7525001Y-719909D01*
X-7687459Y-738213D01*
X-7744283Y-758097D01*
X-7841775Y-792211D01*
X-7841777Y-792211D01*
X-7841777Y-792212D01*
X-7980204Y-879192D01*
X-8095808Y-994796D01*
X-8175694Y-1121934D01*
X-8182789Y-1133225D01*
X-8187192Y-1145808D01*
X-8236787Y-1287541D01*
X-8247175Y-1379741D01*
X-8255091Y-1450000D01*
X-8236786Y-1612461D01*
X-8207310Y-1696698D01*
X-8201547Y-1773610D01*
X-8235011Y-1843100D01*
X-8298738Y-1886548D01*
X-8341700Y-1893847D01*
X-8341685Y-1893972D01*
X-8343909Y-1894222D01*
X-8347949Y-1894909D01*
X-8350001Y-1894909D01*
X-8512461Y-1913214D01*
X-8667162Y-1967346D01*
X-8744074Y-1973109D01*
X-8813564Y-1939645D01*
X-8821732Y-1932066D01*
X-11843359Y1089561D01*
X-11881923Y1156356D01*
X-11887000Y1194920D01*
X-11887000Y1955081D01*
X-11867038Y2029581D01*
X-11843363Y2060436D01*
X-8918938Y4984862D01*
X-8911623Y4991277D01*
X-8885964Y5010964D01*
X-8863306Y5040492D01*
X-8795721Y5128570D01*
X-8778013Y5171321D01*
X-8766496Y5199126D01*
X-8719547Y5260315D01*
X-8648291Y5289833D01*
X-8571823Y5279768D01*
G37*
%TD.AperFunction*%
%TA.AperFunction,Conductor*%
G36*
X2649920Y707693D02*
G01*
X2691935Y643013D01*
X2695982Y565991D01*
X2660976Y497265D01*
X2653059Y489118D01*
X2621973Y459477D01*
X2621967Y459471D01*
X2621965Y459468D01*
X2617545Y453847D01*
X2580624Y406901D01*
X2577428Y403104D01*
X2499882Y316980D01*
X2476733Y296137D01*
X2436785Y267112D01*
X2434892Y265737D01*
X2407915Y250162D01*
X2360682Y229133D01*
X2331062Y219509D01*
X2280475Y208755D01*
X2249492Y205498D01*
X2197783Y205498D01*
X2166807Y208754D01*
X2116221Y219506D01*
X2086597Y229132D01*
X2039359Y250164D01*
X2012385Y265737D01*
X1970538Y296140D01*
X1947395Y316979D01*
X1925068Y341775D01*
X1912792Y355409D01*
X1894489Y380601D01*
X1868626Y425397D01*
X1855964Y453837D01*
X1839981Y503028D01*
X1833506Y533489D01*
X1830461Y562459D01*
X1830312Y563876D01*
X1842377Y640051D01*
X1890914Y699992D01*
X1962919Y727634D01*
X2009470Y725195D01*
X2091809Y707693D01*
X2130353Y699500D01*
X2130354Y699500D01*
X2319648Y699500D01*
X2407593Y718194D01*
X2504803Y738856D01*
X2504805Y738857D01*
X2512441Y740480D01*
X2512733Y739102D01*
X2581194Y742699D01*
X2649920Y707693D01*
G37*
%TD.AperFunction*%
%TA.AperFunction,Conductor*%
G36*
X15717445Y20990507D02*
G01*
X15957903Y20980008D01*
X15963820Y20979510D01*
X16193208Y20950917D01*
X16421445Y20920870D01*
X16426956Y20919930D01*
X16655391Y20872032D01*
X16878249Y20822625D01*
X16883366Y20821298D01*
X17107969Y20754431D01*
X17325072Y20685979D01*
X17329686Y20684353D01*
X17548675Y20598903D01*
X17758613Y20511943D01*
X17762795Y20510057D01*
X17974350Y20406635D01*
X18175836Y20301748D01*
X18179536Y20299685D01*
X18382116Y20178973D01*
X18567962Y20060576D01*
X18573676Y20056935D01*
X18576938Y20054734D01*
X18769063Y19917560D01*
X18949335Y19779232D01*
X18952118Y19776987D01*
X18997598Y19738468D01*
X19132414Y19624283D01*
X19301239Y19469585D01*
X19469584Y19301240D01*
X19624282Y19132415D01*
X19776974Y18952134D01*
X19779230Y18949337D01*
X19917559Y18769063D01*
X19964250Y18703670D01*
X20054732Y18576940D01*
X20056933Y18573679D01*
X20178973Y18382116D01*
X20299674Y18179553D01*
X20301757Y18175817D01*
X20406638Y17974343D01*
X20510045Y17762819D01*
X20511944Y17758608D01*
X20598915Y17548643D01*
X20684338Y17329723D01*
X20685987Y17325043D01*
X20754426Y17107983D01*
X20821297Y16883366D01*
X20822628Y16878232D01*
X20872038Y16655360D01*
X20919925Y16426974D01*
X20920874Y16421408D01*
X20950917Y16193206D01*
X20979507Y15963834D01*
X20980009Y15957866D01*
X20990505Y15717455D01*
X20999500Y15500001D01*
X20999500Y-15500001D01*
X20990505Y-15717454D01*
X20980009Y-15957864D01*
X20979507Y-15963832D01*
X20950917Y-16193205D01*
X20920874Y-16421406D01*
X20919925Y-16426972D01*
X20872038Y-16655359D01*
X20822628Y-16878230D01*
X20821297Y-16883364D01*
X20754426Y-17107982D01*
X20685987Y-17325042D01*
X20684338Y-17329721D01*
X20598915Y-17548642D01*
X20511944Y-17758606D01*
X20510045Y-17762817D01*
X20406638Y-17974342D01*
X20301757Y-18175816D01*
X20299674Y-18179551D01*
X20178973Y-18382115D01*
X20056933Y-18573677D01*
X20054732Y-18576938D01*
X19917565Y-18769055D01*
X19779230Y-18949335D01*
X19776974Y-18952132D01*
X19624283Y-19132414D01*
X19469584Y-19301239D01*
X19301239Y-19469584D01*
X19132414Y-19624283D01*
X18952132Y-19776974D01*
X18949335Y-19779230D01*
X18769055Y-19917565D01*
X18576938Y-20054732D01*
X18573677Y-20056933D01*
X18382115Y-20178973D01*
X18179551Y-20299674D01*
X18175816Y-20301757D01*
X17974342Y-20406638D01*
X17762817Y-20510045D01*
X17758606Y-20511944D01*
X17548642Y-20598915D01*
X17329721Y-20684338D01*
X17325042Y-20685987D01*
X17107982Y-20754426D01*
X16883364Y-20821297D01*
X16878230Y-20822628D01*
X16655359Y-20872038D01*
X16426972Y-20919925D01*
X16421406Y-20920874D01*
X16193205Y-20950917D01*
X15963832Y-20979507D01*
X15957864Y-20980009D01*
X15717454Y-20990505D01*
X15510286Y-20999074D01*
X15500000Y-20999500D01*
X-15500000Y-20999500D01*
X-15510798Y-20999053D01*
X-15717455Y-20990505D01*
X-15957866Y-20980009D01*
X-15963834Y-20979507D01*
X-16193142Y-20950925D01*
X-16421422Y-20920870D01*
X-16426987Y-20919921D01*
X-16655313Y-20872048D01*
X-16878231Y-20822628D01*
X-16883365Y-20821297D01*
X-17107983Y-20754426D01*
X-17325043Y-20685987D01*
X-17329723Y-20684338D01*
X-17548643Y-20598915D01*
X-17758608Y-20511945D01*
X-17762798Y-20510055D01*
X-17894184Y-20445825D01*
X-17974333Y-20406642D01*
X-18175841Y-20301743D01*
X-18179577Y-20299660D01*
X-18382099Y-20178982D01*
X-18573682Y-20056930D01*
X-18576944Y-20054729D01*
X-18711209Y-19958867D01*
X-18769056Y-19917564D01*
X-18949337Y-19779230D01*
X-18952134Y-19776974D01*
X-19132415Y-19624282D01*
X-19301240Y-19469584D01*
X-19469585Y-19301239D01*
X-19624283Y-19132414D01*
X-19738468Y-18997598D01*
X-19776987Y-18952118D01*
X-19779232Y-18949335D01*
X-19908492Y-18780880D01*
X-19917560Y-18769063D01*
X-20054734Y-18576938D01*
X-20056932Y-18573680D01*
X-20178983Y-18382098D01*
X-20217159Y-18318031D01*
X-20299675Y-18179551D01*
X-20301745Y-18175839D01*
X-20406643Y-17974332D01*
X-20434248Y-17917866D01*
X-20510076Y-17762757D01*
X-20511932Y-17758640D01*
X-20598903Y-17548675D01*
X-20684353Y-17329686D01*
X-20685979Y-17325072D01*
X-20754436Y-17107951D01*
X-20756176Y-17102105D01*
X-20821304Y-16883347D01*
X-20822626Y-16878245D01*
X-20872039Y-16655359D01*
X-20918852Y-16432094D01*
X-20919923Y-16426986D01*
X-20920872Y-16421420D01*
X-20950914Y-16193234D01*
X-20979510Y-15963820D01*
X-20980008Y-15957903D01*
X-20990509Y-15717381D01*
X-20999500Y-15500000D01*
X-18904994Y-15500000D01*
X-18885035Y-15868136D01*
X-18885035Y-15868142D01*
X-18825387Y-16231974D01*
X-18825387Y-16231976D01*
X-18726753Y-16587221D01*
X-18726751Y-16587226D01*
X-18590291Y-16929715D01*
X-18590285Y-16929728D01*
X-18417596Y-17255456D01*
X-18417593Y-17255461D01*
X-18210697Y-17560608D01*
X-18210688Y-17560620D01*
X-18074504Y-17720948D01*
X-18074503Y-17720948D01*
X-16758650Y-16405094D01*
X-16704544Y-16483480D01*
X-16531184Y-16663966D01*
X-16405135Y-16758686D01*
X-17723480Y-18077031D01*
X-17704343Y-18095159D01*
X-17704342Y-18095160D01*
X-17410835Y-18318278D01*
X-17094934Y-18508350D01*
X-16760316Y-18663160D01*
X-16760306Y-18663165D01*
X-16410937Y-18780880D01*
X-16050869Y-18860137D01*
X-15684344Y-18899999D01*
X-15684334Y-18900000D01*
X-15315666Y-18900000D01*
X-15315657Y-18899999D01*
X-14949132Y-18860137D01*
X-14949131Y-18860137D01*
X-14589064Y-18780880D01*
X-14239695Y-18663165D01*
X-14239685Y-18663160D01*
X-13905067Y-18508350D01*
X-13589166Y-18318278D01*
X-13295648Y-18095151D01*
X-13276521Y-18077032D01*
X-14593121Y-16760432D01*
X-14565820Y-16743168D01*
X-14378499Y-16577216D01*
X-14239489Y-16406958D01*
X-12925499Y-17720948D01*
X-12789310Y-17560617D01*
X-12789306Y-17560611D01*
X-12582408Y-17255461D01*
X-12582405Y-17255456D01*
X-12409716Y-16929728D01*
X-12409710Y-16929715D01*
X-12273250Y-16587226D01*
X-12273248Y-16587221D01*
X-12174614Y-16231976D01*
X-12174614Y-16231974D01*
X-12114966Y-15868142D01*
X-12114966Y-15868136D01*
X-12107385Y-15728315D01*
X-10467940Y-15728315D01*
X-10437665Y-15900011D01*
X-10368612Y-16060095D01*
X-10264502Y-16199938D01*
X-10130950Y-16312002D01*
X-10130949Y-16312002D01*
X-10130947Y-16312004D01*
X-9975148Y-16390249D01*
X-9805504Y-16430455D01*
X-9805502Y-16430455D01*
X-9674894Y-16430455D01*
X-9674890Y-16430454D01*
X-9545169Y-16415292D01*
X-9381340Y-16355663D01*
X-9235679Y-16259860D01*
X-9209371Y-16231976D01*
X-9165110Y-16185062D01*
X-9116037Y-16133048D01*
X-9028866Y-15982062D01*
X-8978864Y-15815043D01*
X-8968726Y-15640995D01*
X-8999001Y-15469301D01*
X-9068054Y-15309217D01*
X-9068055Y-15309214D01*
X-9172165Y-15169371D01*
X-9305717Y-15057307D01*
X-9461515Y-14979062D01*
X-9461517Y-14979061D01*
X-9461518Y-14979061D01*
X-9631162Y-14938855D01*
X-9761769Y-14938855D01*
X-9761778Y-14938855D01*
X-9891493Y-14954017D01*
X-9891497Y-14954017D01*
X-10055322Y-15013645D01*
X-10055324Y-15013646D01*
X-10055326Y-15013647D01*
X-10136992Y-15067360D01*
X-10200992Y-15109453D01*
X-10320624Y-15236255D01*
X-10320632Y-15236266D01*
X-10407800Y-15387246D01*
X-10407801Y-15387248D01*
X-10432364Y-15469298D01*
X-10454619Y-15543637D01*
X-10457802Y-15554268D01*
X-10467940Y-15728309D01*
X-10467940Y-15728315D01*
X-12107385Y-15728315D01*
X-12095006Y-15500000D01*
X-12095006Y-15499991D01*
X-12114966Y-15131863D01*
X-12114966Y-15131857D01*
X-12174614Y-14768025D01*
X-12174614Y-14768023D01*
X-12273248Y-14412778D01*
X-12273250Y-14412773D01*
X-12409710Y-14070284D01*
X-12409716Y-14070271D01*
X-12582405Y-13744543D01*
X-12582408Y-13744538D01*
X-12789304Y-13439391D01*
X-12789313Y-13439379D01*
X-12925498Y-13279050D01*
X-12925499Y-13279050D01*
X-14241352Y-14594903D01*
X-14295456Y-14516520D01*
X-14468816Y-14336034D01*
X-14594868Y-14241312D01*
X-13276521Y-12922966D01*
X-13295653Y-12904844D01*
X-13542315Y-12717336D01*
X-10042384Y-12717336D01*
X-10001574Y-12851869D01*
X-9908715Y-13025596D01*
X-9908714Y-13025598D01*
X-9783754Y-13177861D01*
X-9783749Y-13177866D01*
X-9631486Y-13302826D01*
X-9631484Y-13302827D01*
X-9457755Y-13395686D01*
X-9457756Y-13395686D01*
X-9323224Y-13436495D01*
X-9323223Y-13436495D01*
X-9323223Y-12717336D01*
X-10042384Y-12717336D01*
X-13542315Y-12717336D01*
X-13589166Y-12681721D01*
X-13905067Y-12491649D01*
X-14239685Y-12336839D01*
X-14239695Y-12336834D01*
X-14589064Y-12219119D01*
X-14949132Y-12139862D01*
X-15315657Y-12100000D01*
X-15684344Y-12100000D01*
X-16050869Y-12139862D01*
X-16050870Y-12139862D01*
X-16410937Y-12219119D01*
X-16760306Y-12336834D01*
X-16760316Y-12336839D01*
X-17094934Y-12491649D01*
X-17410835Y-12681721D01*
X-17704337Y-12904835D01*
X-17723480Y-12922967D01*
X-16406880Y-14239567D01*
X-16434180Y-14256832D01*
X-16621501Y-14422784D01*
X-16760512Y-14593041D01*
X-18074503Y-13279050D01*
X-18074504Y-13279050D01*
X-18210692Y-13439383D01*
X-18210694Y-13439386D01*
X-18417598Y-13744547D01*
X-18590285Y-14070271D01*
X-18590291Y-14070284D01*
X-18726751Y-14412773D01*
X-18726753Y-14412778D01*
X-18825387Y-14768023D01*
X-18825387Y-14768025D01*
X-18885035Y-15131857D01*
X-18885035Y-15131863D01*
X-18904994Y-15499991D01*
X-18904994Y-15500000D01*
X-20999500Y-15500000D01*
X-20999500Y-11475000D01*
X-10630460Y-11475000D01*
X-10610675Y-11663254D01*
X-10552181Y-11843278D01*
X-10552179Y-11843284D01*
X-10497534Y-11937933D01*
X-10457531Y-12007220D01*
X-10355753Y-12120254D01*
X-10330871Y-12147888D01*
X-10177730Y-12259151D01*
X-10004803Y-12336144D01*
X-9863685Y-12366139D01*
X-9819648Y-12375500D01*
X-9819646Y-12375500D01*
X-9630352Y-12375500D01*
X-9590996Y-12367134D01*
X-9445197Y-12336144D01*
X-9386382Y-12309957D01*
X-9417205Y-12380228D01*
X-9426851Y-12496638D01*
X-9398176Y-12609874D01*
X-9334287Y-12707663D01*
X-9242108Y-12779408D01*
X-9131628Y-12817336D01*
X-9044218Y-12817336D01*
X-8958007Y-12802950D01*
X-8855276Y-12747355D01*
X-8827642Y-12717336D01*
X-8823223Y-12717336D01*
X-8823223Y-13436495D01*
X-8688691Y-13395686D01*
X-8514963Y-13302827D01*
X-8514961Y-13302826D01*
X-8362698Y-13177866D01*
X-8362693Y-13177861D01*
X-8237733Y-13025598D01*
X-8237732Y-13025596D01*
X-8144873Y-12851869D01*
X-8104062Y-12717336D01*
X-8823223Y-12717336D01*
X-8827642Y-12717336D01*
X-8776163Y-12661415D01*
X-8729241Y-12554444D01*
X-8719595Y-12438034D01*
X-8748270Y-12324798D01*
X-8812159Y-12227009D01*
X-8824587Y-12217336D01*
X-8104062Y-12217336D01*
X-8104062Y-12217335D01*
X-8144873Y-12082802D01*
X-8237732Y-11909075D01*
X-8237733Y-11909073D01*
X-8362693Y-11756810D01*
X-8362698Y-11756805D01*
X-8514961Y-11631845D01*
X-8514963Y-11631844D01*
X-8688692Y-11538985D01*
X-8688693Y-11538984D01*
X-8722307Y-11528787D01*
X-8787803Y-11488057D01*
X-8824160Y-11420036D01*
X-8827236Y-11401778D01*
X-8827864Y-11395807D01*
X-8839326Y-11286744D01*
X-8897821Y-11106716D01*
X-8992467Y-10942784D01*
X-8992468Y-10942783D01*
X-8992470Y-10942779D01*
X-9119128Y-10802113D01*
X-9149285Y-10780203D01*
X-9272270Y-10690849D01*
X-9272271Y-10690848D01*
X-9272273Y-10690847D01*
X-9445195Y-10613857D01*
X-9445197Y-10613856D01*
X-9551640Y-10591231D01*
X-9630352Y-10574500D01*
X-9630354Y-10574500D01*
X-9819646Y-10574500D01*
X-9819648Y-10574500D01*
X-9919608Y-10595747D01*
X-10004803Y-10613856D01*
X-10004805Y-10613856D01*
X-10004806Y-10613857D01*
X-10177728Y-10690847D01*
X-10330873Y-10802113D01*
X-10457531Y-10942779D01*
X-10552178Y-11106714D01*
X-10552181Y-11106721D01*
X-10610675Y-11286745D01*
X-10630460Y-11475000D01*
X-20999500Y-11475000D01*
X-20999500Y-9323223D01*
X-13436497Y-9323223D01*
X-13395687Y-9457756D01*
X-13302828Y-9631483D01*
X-13302827Y-9631485D01*
X-13177867Y-9783748D01*
X-13177862Y-9783753D01*
X-13025599Y-9908713D01*
X-13025597Y-9908714D01*
X-12851868Y-10001573D01*
X-12851869Y-10001573D01*
X-12717337Y-10042382D01*
X-12710731Y-10037483D01*
X-12697374Y-9987636D01*
X-12642836Y-9933098D01*
X-12568336Y-9913136D01*
X-12493836Y-9933098D01*
X-12439298Y-9987636D01*
X-12426631Y-10016088D01*
X-12377179Y-10168284D01*
X-12325932Y-10257046D01*
X-12282531Y-10332220D01*
X-12209387Y-10413453D01*
X-12155871Y-10472888D01*
X-12002730Y-10584151D01*
X-11829803Y-10661144D01*
X-11690060Y-10690847D01*
X-11644648Y-10700500D01*
X-11644646Y-10700500D01*
X-11455352Y-10700500D01*
X-11415996Y-10692134D01*
X-11270197Y-10661144D01*
X-11097270Y-10584151D01*
X-10944129Y-10472888D01*
X-10833234Y-10349727D01*
X-10817470Y-10332220D01*
X-10817469Y-10332218D01*
X-10817467Y-10332216D01*
X-10722821Y-10168284D01*
X-10664326Y-9988256D01*
X-10644540Y-9800000D01*
X-10664326Y-9611744D01*
X-10722821Y-9431716D01*
X-10817467Y-9267784D01*
X-10817468Y-9267783D01*
X-10817470Y-9267779D01*
X-10944128Y-9127113D01*
X-10947729Y-9124497D01*
X-11097270Y-9015849D01*
X-11097271Y-9015848D01*
X-11097273Y-9015847D01*
X-11270195Y-8938857D01*
X-11270197Y-8938856D01*
X-11390332Y-8913320D01*
X-11459053Y-8878305D01*
X-11501059Y-8813620D01*
X-11501936Y-8810828D01*
X-11538985Y-8688693D01*
X-11538986Y-8688691D01*
X-11631845Y-8514962D01*
X-11631846Y-8514960D01*
X-11756806Y-8362697D01*
X-11756811Y-8362692D01*
X-11909074Y-8237732D01*
X-11909076Y-8237731D01*
X-12082803Y-8144872D01*
X-12217336Y-8104061D01*
X-12217336Y-8824284D01*
X-12298451Y-8761151D01*
X-12408931Y-8723223D01*
X-12496341Y-8723223D01*
X-12582552Y-8737609D01*
X-12685283Y-8793204D01*
X-12764396Y-8879144D01*
X-12811318Y-8986115D01*
X-12820964Y-9102525D01*
X-12792289Y-9215761D01*
X-12728400Y-9313550D01*
X-12636221Y-9385295D01*
X-12525741Y-9423223D01*
X-12438331Y-9423223D01*
X-12365234Y-9411025D01*
X-12377178Y-9431714D01*
X-12377181Y-9431721D01*
X-12408391Y-9527777D01*
X-12424293Y-9576719D01*
X-12426629Y-9583907D01*
X-12468636Y-9648592D01*
X-12537357Y-9683607D01*
X-12614380Y-9679570D01*
X-12679065Y-9637563D01*
X-12714080Y-9568842D01*
X-12717336Y-9537863D01*
X-12717336Y-9323223D01*
X-13436497Y-9323223D01*
X-20999500Y-9323223D01*
X-20999500Y-8823222D01*
X-13436498Y-8823222D01*
X-13436497Y-8823223D01*
X-12717336Y-8823223D01*
X-12717336Y-8104062D01*
X-12717337Y-8104061D01*
X-12851870Y-8144872D01*
X-13025597Y-8237731D01*
X-13025599Y-8237732D01*
X-13177862Y-8362692D01*
X-13177867Y-8362697D01*
X-13302827Y-8514960D01*
X-13302828Y-8514962D01*
X-13395687Y-8688689D01*
X-13436498Y-8823222D01*
X-20999500Y-8823222D01*
X-20999500Y-5099495D01*
X-16255332Y-5099495D01*
X-16237028Y-5261953D01*
X-16237027Y-5261957D01*
X-16210428Y-5337974D01*
X-16204665Y-5414887D01*
X-16210428Y-5436393D01*
X-16236719Y-5511531D01*
X-16236721Y-5511538D01*
X-16255025Y-5673996D01*
X-16255025Y-5673997D01*
X-16236721Y-5836455D01*
X-16236721Y-5836457D01*
X-16236720Y-5836458D01*
X-16182723Y-5990772D01*
X-16095742Y-6129201D01*
X-15980138Y-6244805D01*
X-15841709Y-6331786D01*
X-15687395Y-6385783D01*
X-15604030Y-6395176D01*
X-15524935Y-6404088D01*
X-15524934Y-6404088D01*
X-15524933Y-6404088D01*
X-15484319Y-6399511D01*
X-15362473Y-6385783D01*
X-15208159Y-6331786D01*
X-15069730Y-6244805D01*
X-14954126Y-6129201D01*
X-14867145Y-5990772D01*
X-14813148Y-5836458D01*
X-14794843Y-5673997D01*
X-14813148Y-5511536D01*
X-14839749Y-5435517D01*
X-14845513Y-5358608D01*
X-14839751Y-5337101D01*
X-14813455Y-5261956D01*
X-14795150Y-5099495D01*
X-14813455Y-4937034D01*
X-14838502Y-4865457D01*
X-14844266Y-4788547D01*
X-14838506Y-4767048D01*
X-14810656Y-4687461D01*
X-14792351Y-4525000D01*
X-14793042Y-4518871D01*
X-14810656Y-4362541D01*
X-14810656Y-4362539D01*
X-14864653Y-4208225D01*
X-14951634Y-4069796D01*
X-15067238Y-3954192D01*
X-15205667Y-3867211D01*
X-15359981Y-3813214D01*
X-15359982Y-3813213D01*
X-15359984Y-3813213D01*
X-15522441Y-3794909D01*
X-15522443Y-3794909D01*
X-15684901Y-3813213D01*
X-15755231Y-3837823D01*
X-15839217Y-3867211D01*
X-15839219Y-3867211D01*
X-15839219Y-3867212D01*
X-15902891Y-3907220D01*
X-15977646Y-3954192D01*
X-16093250Y-4069796D01*
X-16180231Y-4208225D01*
X-16190000Y-4236144D01*
X-16234229Y-4362541D01*
X-16252533Y-4524999D01*
X-16252533Y-4525000D01*
X-16234228Y-4687461D01*
X-16224932Y-4714026D01*
X-16209183Y-4759036D01*
X-16203420Y-4835949D01*
X-16209183Y-4857456D01*
X-16237026Y-4937029D01*
X-16237028Y-4937036D01*
X-16255332Y-5099494D01*
X-16255332Y-5099495D01*
X-20999500Y-5099495D01*
X-20999500Y2175000D01*
X-17330091Y2175000D01*
X-17311787Y2012542D01*
X-17311787Y2012540D01*
X-17311786Y2012539D01*
X-17257789Y1858225D01*
X-17170808Y1719796D01*
X-17055204Y1604192D01*
X-16916775Y1517211D01*
X-16762461Y1463214D01*
X-16726204Y1459129D01*
X-16654407Y1430951D01*
X-16606318Y1370650D01*
X-16602248Y1360278D01*
X-16557791Y1233227D01*
X-16528208Y1186147D01*
X-16470808Y1094796D01*
X-16470807Y1094795D01*
X-16456371Y1080359D01*
X-16417807Y1013564D01*
X-16417807Y936436D01*
X-16456371Y869641D01*
X-16470808Y855204D01*
X-16529033Y762539D01*
X-16557789Y716775D01*
X-16566419Y692112D01*
X-16611787Y562459D01*
X-16630091Y400001D01*
X-16630091Y400000D01*
X-16611787Y237542D01*
X-16611787Y237540D01*
X-16611786Y237539D01*
X-16557789Y83225D01*
X-16470808Y-55204D01*
X-16355204Y-170808D01*
X-16216775Y-257789D01*
X-16138994Y-285006D01*
X-16075269Y-328453D01*
X-16041804Y-397943D01*
X-16040143Y-442326D01*
X-16055091Y-574997D01*
X-16055091Y-575000D01*
X-16036787Y-737458D01*
X-16036787Y-737460D01*
X-16036786Y-737461D01*
X-15982789Y-891775D01*
X-15895808Y-1030204D01*
X-15780204Y-1145808D01*
X-15641775Y-1232789D01*
X-15487461Y-1286786D01*
X-15379154Y-1298989D01*
X-15325001Y-1305091D01*
X-15325001Y-1305090D01*
X-15325000Y-1305091D01*
X-15257828Y-1297522D01*
X-15181562Y-1309017D01*
X-15135786Y-1340226D01*
X-15105204Y-1370808D01*
X-15047075Y-1407333D01*
X-14966779Y-1457787D01*
X-14959240Y-1461417D01*
X-14960164Y-1463335D01*
X-14906180Y-1500140D01*
X-14872715Y-1569630D01*
X-14871842Y-1574726D01*
X-14853037Y-1697239D01*
X-14853035Y-1697246D01*
X-14832714Y-1764095D01*
X-14771704Y-1894395D01*
X-14768619Y-1897888D01*
X-14676454Y-2002234D01*
X-14676452Y-2002235D01*
X-14625515Y-2045532D01*
X-14624542Y-2046429D01*
X-14623219Y-2047485D01*
X-14623214Y-2047488D01*
X-14501440Y-2124120D01*
X-14446035Y-2148788D01*
X-14419066Y-2164359D01*
X-14398294Y-2179450D01*
X-14377226Y-2194757D01*
X-14354079Y-2215599D01*
X-14319478Y-2254027D01*
X-14301171Y-2279224D01*
X-14275310Y-2324017D01*
X-14262644Y-2352466D01*
X-14225227Y-2467626D01*
X-14195317Y-2532504D01*
X-14175473Y-2575547D01*
X-14145223Y-2624910D01*
X-14145221Y-2624912D01*
X-14071658Y-2718226D01*
X-13731300Y-3058584D01*
X-13707214Y-3093629D01*
X-13706055Y-3092960D01*
X-13702152Y-3099720D01*
X-13702151Y-3099723D01*
X-13651909Y-3186745D01*
X-13607503Y-3263659D01*
X-13480965Y-3404192D01*
X-13480843Y-3404327D01*
X-13327702Y-3515590D01*
X-13327699Y-3515591D01*
X-13327698Y-3515592D01*
X-13256661Y-3547220D01*
X-13211905Y-3577979D01*
X-12179547Y-4610337D01*
X-12140983Y-4677132D01*
X-12140983Y-4754260D01*
X-12179547Y-4821055D01*
X-12235692Y-4856334D01*
X-12266776Y-4867211D01*
X-12405204Y-4954192D01*
X-12520808Y-5069796D01*
X-12607788Y-5208223D01*
X-12661787Y-5362541D01*
X-12680091Y-5524999D01*
X-12680091Y-5525000D01*
X-12661787Y-5687458D01*
X-12661787Y-5687460D01*
X-12661786Y-5687461D01*
X-12607789Y-5841775D01*
X-12520808Y-5980204D01*
X-12520807Y-5980205D01*
X-12408505Y-6092507D01*
X-12369941Y-6159302D01*
X-12369941Y-6236430D01*
X-12395651Y-6288567D01*
X-12408715Y-6305593D01*
X-12408718Y-6305598D01*
X-12467210Y-6446811D01*
X-12487159Y-6598347D01*
X-12487159Y-6598352D01*
X-12467210Y-6749888D01*
X-12408717Y-6891104D01*
X-12355072Y-6961014D01*
X-12315667Y-7012367D01*
X-12282142Y-7038092D01*
X-12194405Y-7105416D01*
X-12053189Y-7163909D01*
X-11964884Y-7175534D01*
X-11939702Y-7178849D01*
X-11939699Y-7178850D01*
X-11939697Y-7178850D01*
X-11863601Y-7178850D01*
X-11863600Y-7178849D01*
X-11822637Y-7173456D01*
X-11750112Y-7163909D01*
X-11750110Y-7163908D01*
X-11750109Y-7163908D01*
X-11608896Y-7105416D01*
X-11521157Y-7038090D01*
X-11449903Y-7008576D01*
X-11381241Y-7015662D01*
X-11377511Y-7016967D01*
X-11377508Y-7016969D01*
X-11223194Y-7070966D01*
X-11114887Y-7083169D01*
X-11060734Y-7089271D01*
X-11060733Y-7089271D01*
X-11060732Y-7089271D01*
X-11009674Y-7083518D01*
X-10898272Y-7070966D01*
X-10743958Y-7016969D01*
X-10605529Y-6929988D01*
X-10489925Y-6814384D01*
X-10421763Y-6705904D01*
X-10365226Y-6653445D01*
X-10290031Y-6636282D01*
X-10216330Y-6659016D01*
X-10180424Y-6690652D01*
X-10137304Y-6743193D01*
X-10137303Y-6743194D01*
X-9985040Y-6868154D01*
X-9985038Y-6868155D01*
X-9811309Y-6961014D01*
X-9804551Y-6963814D01*
X-9805225Y-6965440D01*
X-9747828Y-7001122D01*
X-9711462Y-7069139D01*
X-9708382Y-7087415D01*
X-9692529Y-7238254D01*
X-9657582Y-7345808D01*
X-9634033Y-7418284D01*
X-9601022Y-7475460D01*
X-9539385Y-7582220D01*
X-9414447Y-7720976D01*
X-9412725Y-7722888D01*
X-9259584Y-7834151D01*
X-9086657Y-7911144D01*
X-8945539Y-7941139D01*
X-8901502Y-7950500D01*
X-8901500Y-7950500D01*
X-8712206Y-7950500D01*
X-8672850Y-7942134D01*
X-8527051Y-7911144D01*
X-8354124Y-7834151D01*
X-8200983Y-7722888D01*
X-8087292Y-7596622D01*
X-8074324Y-7582220D01*
X-8074323Y-7582218D01*
X-8074321Y-7582216D01*
X-7979675Y-7418284D01*
X-7921180Y-7238256D01*
X-7901394Y-7050000D01*
X-7921180Y-6861744D01*
X-7979675Y-6681716D01*
X-8074321Y-6517784D01*
X-8074322Y-6517783D01*
X-8074324Y-6517779D01*
X-8200982Y-6377113D01*
X-8225665Y-6359180D01*
X-8354124Y-6265849D01*
X-8354125Y-6265848D01*
X-8354127Y-6265847D01*
X-8527049Y-6188857D01*
X-8527051Y-6188856D01*
X-8634045Y-6166114D01*
X-8712206Y-6149500D01*
X-8712208Y-6149500D01*
X-8901500Y-6149500D01*
X-8901502Y-6149500D01*
X-8981917Y-6166593D01*
X-9086657Y-6188856D01*
X-9086659Y-6188856D01*
X-9086660Y-6188857D01*
X-9119516Y-6203485D01*
X-9082795Y-6119772D01*
X-9073149Y-6003362D01*
X-9101824Y-5890126D01*
X-9165713Y-5792337D01*
X-9178141Y-5782664D01*
X-8457615Y-5782664D01*
X-8445065Y-5765742D01*
X-8384652Y-5717794D01*
X-8325387Y-5705500D01*
X-5171102Y-5705500D01*
X-5096602Y-5725462D01*
X-5065743Y-5749141D01*
X-4195629Y-6619255D01*
X-4118125Y-6681714D01*
X-4111487Y-6687063D01*
X-4067140Y-6715564D01*
X-4067138Y-6715565D01*
X-4067129Y-6715570D01*
X-3975693Y-6761339D01*
X-3970491Y-6763943D01*
X-3970483Y-6763944D01*
X-3965693Y-6765635D01*
X-3902076Y-6809242D01*
X-3868786Y-6878816D01*
X-3867194Y-6889466D01*
X-3861787Y-6937459D01*
X-3853358Y-6961546D01*
X-3807789Y-7091775D01*
X-3720808Y-7230204D01*
X-3720807Y-7230205D01*
X-3605205Y-7345807D01*
X-3598663Y-7351024D01*
X-3600091Y-7352814D01*
X-3556071Y-7400265D01*
X-3538915Y-7475460D01*
X-3540326Y-7491079D01*
X-3555500Y-7596622D01*
X-3555500Y-8644523D01*
X-3575462Y-8719023D01*
X-3630000Y-8773561D01*
X-3704500Y-8793523D01*
X-3779000Y-8773561D01*
X-3833538Y-8719023D01*
X-3846207Y-8690567D01*
X-3846816Y-8688693D01*
X-3897821Y-8531716D01*
X-3992467Y-8367784D01*
X-3992468Y-8367783D01*
X-3992470Y-8367779D01*
X-4119128Y-8227113D01*
X-4167167Y-8192211D01*
X-4272270Y-8115849D01*
X-4272271Y-8115848D01*
X-4272273Y-8115847D01*
X-4445195Y-8038857D01*
X-4445197Y-8038856D01*
X-4551640Y-8016231D01*
X-4630352Y-7999500D01*
X-4630354Y-7999500D01*
X-4819646Y-7999500D01*
X-4819648Y-7999500D01*
X-4919608Y-8020747D01*
X-5004803Y-8038856D01*
X-5004805Y-8038856D01*
X-5004806Y-8038857D01*
X-5177728Y-8115847D01*
X-5330873Y-8227113D01*
X-5457532Y-8367781D01*
X-5490998Y-8425746D01*
X-5545536Y-8480283D01*
X-5620036Y-8500245D01*
X-5663288Y-8493829D01*
X-5782664Y-8457615D01*
X-5782664Y-8636348D01*
X-5802626Y-8710848D01*
X-5839969Y-8748190D01*
X-5795546Y-8803047D01*
X-5782664Y-8863651D01*
X-5782664Y-9177838D01*
X-5863779Y-9114705D01*
X-5974259Y-9076777D01*
X-6061669Y-9076777D01*
X-6138501Y-9089597D01*
X-6089326Y-8938256D01*
X-6079848Y-8848077D01*
X-6052208Y-8776072D01*
X-6020862Y-8750688D01*
X-6060702Y-8710848D01*
X-6079848Y-8651922D01*
X-6089326Y-8561745D01*
X-6089326Y-8561744D01*
X-6147821Y-8381716D01*
X-6242467Y-8217784D01*
X-6242468Y-8217783D01*
X-6242470Y-8217779D01*
X-6369128Y-8077113D01*
X-6522273Y-7965847D01*
X-6695195Y-7888857D01*
X-6695197Y-7888856D01*
X-6801640Y-7866231D01*
X-6880352Y-7849500D01*
X-6880354Y-7849500D01*
X-7069646Y-7849500D01*
X-7069648Y-7849500D01*
X-7169608Y-7870747D01*
X-7254803Y-7888856D01*
X-7254805Y-7888856D01*
X-7254806Y-7888857D01*
X-7427728Y-7965847D01*
X-7580873Y-8077113D01*
X-7707531Y-8217779D01*
X-7802178Y-8381714D01*
X-7802181Y-8381721D01*
X-7860675Y-8561745D01*
X-7880460Y-8750000D01*
X-7860675Y-8938254D01*
X-7805112Y-9109257D01*
X-7802179Y-9118284D01*
X-7780706Y-9155476D01*
X-7707531Y-9282220D01*
X-7603753Y-9397475D01*
X-7580871Y-9422888D01*
X-7427730Y-9534151D01*
X-7254803Y-9611144D01*
X-7105128Y-9642958D01*
X-7091735Y-9645805D01*
X-7023013Y-9680821D01*
X-6981006Y-9745506D01*
X-6980130Y-9748295D01*
X-6961014Y-9811311D01*
X-6868156Y-9985037D01*
X-6868155Y-9985039D01*
X-6743195Y-10137302D01*
X-6743190Y-10137307D01*
X-6673680Y-10194353D01*
X-6628755Y-10257046D01*
X-6621195Y-10333803D01*
X-6642043Y-10388804D01*
X-6732790Y-10533226D01*
X-6742490Y-10560945D01*
X-6785939Y-10624670D01*
X-6855430Y-10658132D01*
X-6932343Y-10652366D01*
X-6996068Y-10608917D01*
X-7023766Y-10560939D01*
X-7042211Y-10508225D01*
X-7064416Y-10472886D01*
X-7129192Y-10369796D01*
X-7244796Y-10254192D01*
X-7383225Y-10167211D01*
X-7537539Y-10113214D01*
X-7537540Y-10113213D01*
X-7537542Y-10113213D01*
X-7699999Y-10094909D01*
X-7700001Y-10094909D01*
X-7862461Y-10113214D01*
X-7976083Y-10152972D01*
X-8052995Y-10158735D01*
X-8122485Y-10125271D01*
X-8165933Y-10061544D01*
X-8171696Y-9984632D01*
X-8165935Y-9963128D01*
X-8113214Y-9812461D01*
X-8094909Y-9650000D01*
X-8113214Y-9487539D01*
X-8167211Y-9333225D01*
X-8254192Y-9194796D01*
X-8369796Y-9079192D01*
X-8508225Y-8992211D01*
X-8660701Y-8938857D01*
X-8662541Y-8938213D01*
X-8795077Y-8923280D01*
X-8866873Y-8895102D01*
X-8914961Y-8834800D01*
X-8926456Y-8791902D01*
X-8938214Y-8687539D01*
X-8992211Y-8533225D01*
X-9079192Y-8394796D01*
X-9194796Y-8279192D01*
X-9333225Y-8192211D01*
X-9487539Y-8138214D01*
X-9487540Y-8138213D01*
X-9487542Y-8138213D01*
X-9649999Y-8119909D01*
X-9650001Y-8119909D01*
X-9812459Y-8138213D01*
X-9889618Y-8165212D01*
X-9966775Y-8192211D01*
X-9966777Y-8192211D01*
X-9966777Y-8192212D01*
X-10105204Y-8279192D01*
X-10220808Y-8394796D01*
X-10296312Y-8514960D01*
X-10307789Y-8533225D01*
X-10334788Y-8610382D01*
X-10361787Y-8687541D01*
X-10380091Y-8849999D01*
X-10380091Y-8850000D01*
X-10361787Y-9012458D01*
X-10361787Y-9012460D01*
X-10361786Y-9012461D01*
X-10307789Y-9166775D01*
X-10220808Y-9305204D01*
X-10105204Y-9420808D01*
X-9966775Y-9507789D01*
X-9812461Y-9561786D01*
X-9679925Y-9576719D01*
X-9608129Y-9604897D01*
X-9560040Y-9665198D01*
X-9548545Y-9708099D01*
X-9536787Y-9812458D01*
X-9536787Y-9812460D01*
X-9536786Y-9812461D01*
X-9482789Y-9966775D01*
X-9395808Y-10105204D01*
X-9280204Y-10220808D01*
X-9141775Y-10307789D01*
X-8987461Y-10361786D01*
X-8916379Y-10369795D01*
X-8825001Y-10380091D01*
X-8825000Y-10380091D01*
X-8824999Y-10380091D01*
X-8808548Y-10378237D01*
X-8662539Y-10361786D01*
X-8548917Y-10322027D01*
X-8472007Y-10316263D01*
X-8402517Y-10349727D01*
X-8359069Y-10413453D01*
X-8353304Y-10490366D01*
X-8359068Y-10511877D01*
X-8411786Y-10662539D01*
X-8430091Y-10824999D01*
X-8430091Y-10825000D01*
X-8411787Y-10987458D01*
X-8411787Y-10987460D01*
X-8411786Y-10987461D01*
X-8357789Y-11141775D01*
X-8270808Y-11280204D01*
X-8155204Y-11395808D01*
X-8016775Y-11482789D01*
X-7862461Y-11536786D01*
X-7754154Y-11548989D01*
X-7700001Y-11555091D01*
X-7700000Y-11555091D01*
X-7699999Y-11555091D01*
X-7659385Y-11550514D01*
X-7537539Y-11536786D01*
X-7485438Y-11518554D01*
X-7408527Y-11512792D01*
X-7339037Y-11546256D01*
X-7295589Y-11609982D01*
X-7287315Y-11664280D01*
X-7292534Y-11817054D01*
X-7256705Y-11964079D01*
X-7256702Y-11964086D01*
X-7182538Y-12095987D01*
X-6819560Y-12458965D01*
X-6729274Y-12527430D01*
X-6729273Y-12527431D01*
X-6729272Y-12527431D01*
X-6729271Y-12527432D01*
X-6588493Y-12582947D01*
X-6437957Y-12598423D01*
X-6288828Y-12572711D01*
X-6152167Y-12507718D01*
X-6038108Y-12408263D01*
X-5955112Y-12281724D01*
X-5912634Y-12147888D01*
X-5909334Y-12137491D01*
X-5909334Y-12137490D01*
X-5909333Y-12137487D01*
X-5904167Y-11986245D01*
X-5939996Y-11839219D01*
X-5978705Y-11770375D01*
X-5997817Y-11695654D01*
X-5977009Y-11621386D01*
X-5921854Y-11567473D01*
X-5898047Y-11556714D01*
X-5758225Y-11507789D01*
X-5619796Y-11420808D01*
X-5504192Y-11305204D01*
X-5417211Y-11166775D01*
X-5409182Y-11143827D01*
X-5365735Y-11080102D01*
X-5296246Y-11046636D01*
X-5285242Y-11044977D01*
X-5212539Y-11036786D01*
X-5058225Y-10982789D01*
X-4919796Y-10895808D01*
X-4804192Y-10780204D01*
X-4717211Y-10641775D01*
X-4663214Y-10487461D01*
X-4644909Y-10325000D01*
X-4663214Y-10162539D01*
X-4717211Y-10008225D01*
X-4717212Y-10008223D01*
X-4717569Y-10007482D01*
X-4717684Y-10006874D01*
X-4719975Y-10000327D01*
X-4718989Y-9999981D01*
X-4731908Y-9931699D01*
X-4706436Y-9858899D01*
X-4647975Y-9808588D01*
X-4614308Y-9797089D01*
X-4445197Y-9761144D01*
X-4272270Y-9684151D01*
X-4119129Y-9572888D01*
X-4013953Y-9456079D01*
X-3992470Y-9432220D01*
X-3992469Y-9432218D01*
X-3992467Y-9432216D01*
X-3897821Y-9268284D01*
X-3846207Y-9109430D01*
X-3804200Y-9044747D01*
X-3735479Y-9009732D01*
X-3658456Y-9013769D01*
X-3593771Y-9055776D01*
X-3558756Y-9124497D01*
X-3555500Y-9155476D01*
X-3555500Y-11609190D01*
X-3575462Y-11683690D01*
X-3599141Y-11714549D01*
X-3856843Y-11972250D01*
X-3870017Y-11982806D01*
X-3869657Y-11983241D01*
X-3876877Y-11989213D01*
X-3900128Y-12013973D01*
X-3924227Y-12039635D01*
X-3934673Y-12050081D01*
X-3945117Y-12060525D01*
X-3945124Y-12060533D01*
X-3949014Y-12065547D01*
X-3953564Y-12070874D01*
X-3985062Y-12104418D01*
X-3985065Y-12104421D01*
X-3993769Y-12120254D01*
X-4006599Y-12139786D01*
X-4017672Y-12154062D01*
X-4017675Y-12154067D01*
X-4035947Y-12196288D01*
X-4039034Y-12202590D01*
X-4061197Y-12242908D01*
X-4061200Y-12242914D01*
X-4065693Y-12260412D01*
X-4073260Y-12282513D01*
X-4080436Y-12299098D01*
X-4080440Y-12299110D01*
X-4087637Y-12344549D01*
X-4089060Y-12351422D01*
X-4100500Y-12395979D01*
X-4100500Y-12414045D01*
X-4102334Y-12437351D01*
X-4105160Y-12455195D01*
X-4100831Y-12500996D01*
X-4100500Y-12508011D01*
X-4100500Y-13127647D01*
X-4120462Y-13202147D01*
X-4175000Y-13256685D01*
X-4249500Y-13276647D01*
X-4324000Y-13256685D01*
X-4369016Y-13216625D01*
X-4375923Y-13207347D01*
X-4379361Y-13202729D01*
X-4379363Y-13202727D01*
X-4512913Y-13090664D01*
X-4668711Y-13012419D01*
X-4668713Y-13012418D01*
X-4668714Y-13012418D01*
X-4838358Y-12972212D01*
X-4968965Y-12972212D01*
X-4968974Y-12972212D01*
X-5098689Y-12987374D01*
X-5098693Y-12987374D01*
X-5262518Y-13047002D01*
X-5262520Y-13047003D01*
X-5262522Y-13047004D01*
X-5362469Y-13112740D01*
X-5408188Y-13142810D01*
X-5527820Y-13269612D01*
X-5527828Y-13269623D01*
X-5614996Y-13420603D01*
X-5614997Y-13420605D01*
X-5636689Y-13493064D01*
X-5657178Y-13561505D01*
X-5664998Y-13587625D01*
X-5675136Y-13761666D01*
X-5675136Y-13761672D01*
X-5644861Y-13933368D01*
X-5575808Y-14093452D01*
X-5471698Y-14233295D01*
X-5338146Y-14345359D01*
X-5338145Y-14345359D01*
X-5338143Y-14345361D01*
X-5182344Y-14423606D01*
X-5012700Y-14463812D01*
X-5012698Y-14463812D01*
X-4882090Y-14463812D01*
X-4882086Y-14463811D01*
X-4752365Y-14448649D01*
X-4588536Y-14389020D01*
X-4442875Y-14293217D01*
X-4442871Y-14293213D01*
X-4357878Y-14203127D01*
X-4292233Y-14162636D01*
X-4215138Y-14160393D01*
X-4147250Y-14196999D01*
X-4106759Y-14262644D01*
X-4100500Y-14305377D01*
X-4100500Y-14861420D01*
X-4120462Y-14935920D01*
X-4175000Y-14990458D01*
X-4249500Y-15010420D01*
X-4283857Y-15006404D01*
X-4450634Y-14966878D01*
X-4581241Y-14966878D01*
X-4581250Y-14966878D01*
X-4710965Y-14982040D01*
X-4710969Y-14982040D01*
X-4874794Y-15041668D01*
X-4874796Y-15041669D01*
X-4874798Y-15041670D01*
X-4972678Y-15106047D01*
X-5020464Y-15137476D01*
X-5140096Y-15264278D01*
X-5140104Y-15264289D01*
X-5227272Y-15415269D01*
X-5227273Y-15415271D01*
X-5277274Y-15582291D01*
X-5287412Y-15756332D01*
X-5287412Y-15756338D01*
X-5275371Y-15824627D01*
X-5282093Y-15901461D01*
X-5326332Y-15964641D01*
X-5396234Y-15997236D01*
X-5422107Y-15999500D01*
X-5535122Y-15999500D01*
X-5609622Y-15979538D01*
X-5637782Y-15956733D01*
X-5638326Y-15957338D01*
X-5644126Y-15952115D01*
X-5644129Y-15952112D01*
X-5797270Y-15840849D01*
X-5797271Y-15840848D01*
X-5797273Y-15840847D01*
X-5970195Y-15763857D01*
X-5970197Y-15763856D01*
X-6076640Y-15741231D01*
X-6155352Y-15724500D01*
X-6155354Y-15724500D01*
X-6344646Y-15724500D01*
X-6344648Y-15724500D01*
X-6444608Y-15745747D01*
X-6529803Y-15763856D01*
X-6529805Y-15763856D01*
X-6529806Y-15763857D01*
X-6702728Y-15840847D01*
X-6855873Y-15952113D01*
X-6982531Y-16092779D01*
X-7077178Y-16256714D01*
X-7077181Y-16256721D01*
X-7135675Y-16436745D01*
X-7155460Y-16625000D01*
X-7135675Y-16813254D01*
X-7097834Y-16929715D01*
X-7077179Y-16993284D01*
X-7024462Y-17084592D01*
X-6982531Y-17157220D01*
X-6866859Y-17285685D01*
X-6855871Y-17297888D01*
X-6702730Y-17409151D01*
X-6529803Y-17486144D01*
X-6388685Y-17516139D01*
X-6344648Y-17525500D01*
X-6344646Y-17525500D01*
X-6155352Y-17525500D01*
X-6115996Y-17517134D01*
X-5970197Y-17486144D01*
X-5797270Y-17409151D01*
X-5644129Y-17297888D01*
X-5644121Y-17297879D01*
X-5638326Y-17292662D01*
X-5637046Y-17294084D01*
X-5581175Y-17257796D01*
X-5535122Y-17250500D01*
X-3985503Y-17250500D01*
X-3968717Y-17252353D01*
X-3968663Y-17251791D01*
X-3959335Y-17252672D01*
X-3959333Y-17252673D01*
X-3959332Y-17252672D01*
X-3959331Y-17252673D01*
X-3890186Y-17250500D01*
X-3860653Y-17250500D01*
X-3860650Y-17250500D01*
X-3854359Y-17249704D01*
X-3847365Y-17249154D01*
X-3842816Y-17249010D01*
X-3801373Y-17247709D01*
X-3784029Y-17242669D01*
X-3761132Y-17237927D01*
X-3743208Y-17235664D01*
X-3700426Y-17218724D01*
X-3693798Y-17216455D01*
X-3649610Y-17203618D01*
X-3634055Y-17194418D01*
X-3613069Y-17184137D01*
X-3596268Y-17177486D01*
X-3559035Y-17150433D01*
X-3553201Y-17146600D01*
X-3513580Y-17123170D01*
X-3500815Y-17110403D01*
X-3483028Y-17095212D01*
X-3468419Y-17084598D01*
X-3468413Y-17084594D01*
X-3439077Y-17049130D01*
X-3434376Y-17043964D01*
X-3093163Y-16702751D01*
X-3079982Y-16692195D01*
X-3080343Y-16691758D01*
X-3073122Y-16685785D01*
X-3025759Y-16635348D01*
X-3015411Y-16625000D01*
X-3004880Y-16614470D01*
X-3000988Y-16609452D01*
X-2996446Y-16604133D01*
X-2964938Y-16570582D01*
X-2956232Y-16554744D01*
X-2943404Y-16535216D01*
X-2932326Y-16520936D01*
X-2914053Y-16478703D01*
X-2910962Y-16472397D01*
X-2888804Y-16432094D01*
X-2888383Y-16430455D01*
X-2884310Y-16414591D01*
X-2876741Y-16392483D01*
X-2869562Y-16375895D01*
X-2862364Y-16330438D01*
X-2860941Y-16323573D01*
X-2857969Y-16312002D01*
X-2849500Y-16279019D01*
X-2849500Y-16260954D01*
X-2847666Y-16237646D01*
X-2846768Y-16231974D01*
X-2844840Y-16219804D01*
X-2848124Y-16185062D01*
X-2849169Y-16174003D01*
X-2849500Y-16166988D01*
X-2849500Y-13075103D01*
X-2829538Y-13000603D01*
X-2775000Y-12946065D01*
X-2700500Y-12926103D01*
X-2626000Y-12946065D01*
X-2595141Y-12969744D01*
X-2484187Y-13080698D01*
X-2464045Y-13098791D01*
X-2464044Y-13098791D01*
X-2464043Y-13098792D01*
X-2432858Y-13123922D01*
X-2388974Y-13155567D01*
X-2258097Y-13215338D01*
X-2234101Y-13222384D01*
X-2191056Y-13235024D01*
X-2191045Y-13235026D01*
X-2048653Y-13255498D01*
X-2048649Y-13255498D01*
X-2048638Y-13255500D01*
X-1181948Y-13255500D01*
X-1107448Y-13275462D01*
X-1052910Y-13330000D01*
X-1032948Y-13404500D01*
X-1052910Y-13479000D01*
X-1096484Y-13526552D01*
X-1103325Y-13531343D01*
X-1146403Y-13561506D01*
X-1313493Y-13728596D01*
X-1437965Y-13906362D01*
X-1449035Y-13922171D01*
X-1528904Y-14093450D01*
X-1548904Y-14136340D01*
X-1610063Y-14364590D01*
X-1610063Y-14364592D01*
X-1625500Y-14541034D01*
X-1625500Y-14908966D01*
X-1621558Y-14954017D01*
X-1610063Y-15085409D01*
X-1587565Y-15169372D01*
X-1548903Y-15313663D01*
X-1449035Y-15527829D01*
X-1313495Y-15721401D01*
X-1146401Y-15888495D01*
X-952830Y-16024035D01*
X-738663Y-16123903D01*
X-510408Y-16185063D01*
X-275000Y-16205659D01*
X-39592Y-16185063D01*
X188663Y-16123903D01*
X402829Y-16024035D01*
X596401Y-15888495D01*
X763495Y-15721401D01*
X852948Y-15593648D01*
X912029Y-15544073D01*
X987986Y-15530680D01*
X1060463Y-15557059D01*
X1097051Y-15593647D01*
X1186505Y-15721401D01*
X1353599Y-15888495D01*
X1547170Y-16024035D01*
X1761337Y-16123903D01*
X1989592Y-16185063D01*
X2225000Y-16205659D01*
X2460408Y-16185063D01*
X2688663Y-16123903D01*
X2902829Y-16024035D01*
X3096401Y-15888495D01*
X3263495Y-15721401D01*
X3353252Y-15593214D01*
X3412334Y-15543637D01*
X3488291Y-15530244D01*
X3560767Y-15556623D01*
X3597359Y-15593214D01*
X3686891Y-15721079D01*
X3853923Y-15888111D01*
X4047411Y-16023593D01*
X4047420Y-16023599D01*
X4261508Y-16123430D01*
X4261513Y-16123432D01*
X4475000Y-16180634D01*
X4475000Y-15133018D01*
X4589801Y-15185446D01*
X4691025Y-15200000D01*
X4758975Y-15200000D01*
X4860199Y-15185446D01*
X4975000Y-15133018D01*
X4975000Y-16180633D01*
X5188486Y-16123432D01*
X5402580Y-16023597D01*
X5596079Y-15888108D01*
X5720974Y-15763213D01*
X5787768Y-15724649D01*
X5864896Y-15724649D01*
X5931692Y-15763213D01*
X5953146Y-15790347D01*
X6032288Y-15918656D01*
X6156344Y-16042712D01*
X6305666Y-16134814D01*
X6472203Y-16189999D01*
X6574991Y-16200500D01*
X7875008Y-16200499D01*
X7977797Y-16189999D01*
X8144334Y-16134814D01*
X8293656Y-16042712D01*
X8417712Y-15918656D01*
X8509814Y-15769334D01*
X8564999Y-15602797D01*
X8575500Y-15500009D01*
X8575500Y-15500000D01*
X12095006Y-15500000D01*
X12114965Y-15868136D01*
X12114965Y-15868142D01*
X12174613Y-16231974D01*
X12174613Y-16231976D01*
X12273247Y-16587221D01*
X12273249Y-16587226D01*
X12409709Y-16929715D01*
X12409715Y-16929728D01*
X12582404Y-17255456D01*
X12582407Y-17255461D01*
X12789303Y-17560608D01*
X12789312Y-17560620D01*
X12925496Y-17720948D01*
X12925497Y-17720948D01*
X14241350Y-16405094D01*
X14295456Y-16483480D01*
X14468816Y-16663966D01*
X14594865Y-16758686D01*
X13276520Y-18077031D01*
X13295657Y-18095159D01*
X13295658Y-18095160D01*
X13589165Y-18318278D01*
X13905066Y-18508350D01*
X14239684Y-18663160D01*
X14239694Y-18663165D01*
X14589063Y-18780880D01*
X14949131Y-18860137D01*
X15315656Y-18899999D01*
X15315666Y-18900000D01*
X15684334Y-18900000D01*
X15684343Y-18899999D01*
X16050868Y-18860137D01*
X16050869Y-18860137D01*
X16410936Y-18780880D01*
X16760305Y-18663165D01*
X16760315Y-18663160D01*
X17094933Y-18508350D01*
X17410834Y-18318278D01*
X17704352Y-18095151D01*
X17723479Y-18077032D01*
X16406879Y-16760432D01*
X16434180Y-16743168D01*
X16621501Y-16577216D01*
X16760511Y-16406958D01*
X18074501Y-17720948D01*
X18210690Y-17560617D01*
X18210694Y-17560611D01*
X18417592Y-17255461D01*
X18417595Y-17255456D01*
X18590284Y-16929728D01*
X18590290Y-16929715D01*
X18726750Y-16587226D01*
X18726752Y-16587221D01*
X18825386Y-16231976D01*
X18825386Y-16231974D01*
X18885034Y-15868142D01*
X18885034Y-15868136D01*
X18904994Y-15500000D01*
X18904994Y-15499991D01*
X18885034Y-15131863D01*
X18885034Y-15131857D01*
X18825386Y-14768025D01*
X18825386Y-14768023D01*
X18726752Y-14412778D01*
X18726750Y-14412773D01*
X18590290Y-14070284D01*
X18590284Y-14070271D01*
X18417595Y-13744543D01*
X18417592Y-13744538D01*
X18210696Y-13439391D01*
X18210687Y-13439379D01*
X18074502Y-13279050D01*
X18074501Y-13279050D01*
X16758648Y-14594903D01*
X16704544Y-14516520D01*
X16531184Y-14336034D01*
X16405132Y-14241312D01*
X17723479Y-12922966D01*
X17704347Y-12904844D01*
X17410834Y-12681721D01*
X17094933Y-12491649D01*
X16760315Y-12336839D01*
X16760305Y-12336834D01*
X16410936Y-12219119D01*
X16050868Y-12139862D01*
X15684343Y-12100000D01*
X15315656Y-12100000D01*
X14949131Y-12139862D01*
X14949130Y-12139862D01*
X14589063Y-12219119D01*
X14239694Y-12336834D01*
X14239684Y-12336839D01*
X13905066Y-12491649D01*
X13589165Y-12681721D01*
X13295663Y-12904835D01*
X13276520Y-12922967D01*
X14593120Y-14239567D01*
X14565820Y-14256832D01*
X14378499Y-14422784D01*
X14239488Y-14593041D01*
X12925497Y-13279050D01*
X12925496Y-13279050D01*
X12789308Y-13439383D01*
X12789306Y-13439386D01*
X12582402Y-13744547D01*
X12409715Y-14070271D01*
X12409709Y-14070284D01*
X12273249Y-14412773D01*
X12273247Y-14412778D01*
X12174613Y-14768023D01*
X12174613Y-14768025D01*
X12114965Y-15131857D01*
X12114965Y-15131863D01*
X12095006Y-15499991D01*
X12095006Y-15500000D01*
X8575500Y-15500000D01*
X8575499Y-13949992D01*
X8564999Y-13847203D01*
X8509814Y-13680666D01*
X8417712Y-13531344D01*
X8293656Y-13407288D01*
X8144334Y-13315186D01*
X8035283Y-13279050D01*
X7977798Y-13260001D01*
X7960665Y-13258250D01*
X7875009Y-13249500D01*
X7875004Y-13249500D01*
X6574996Y-13249500D01*
X6472202Y-13260001D01*
X6305666Y-13315186D01*
X6156343Y-13407288D01*
X6032288Y-13531343D01*
X5953150Y-13659648D01*
X5897049Y-13712577D01*
X5822000Y-13730364D01*
X5748112Y-13708244D01*
X5720974Y-13686786D01*
X5596079Y-13561891D01*
X5536485Y-13520163D01*
X5486908Y-13461079D01*
X5473515Y-13385123D01*
X5499894Y-13312646D01*
X5558978Y-13263069D01*
X5569870Y-13258506D01*
X5617257Y-13240832D01*
X5678580Y-13207347D01*
X5793761Y-13121123D01*
X6805697Y-12109188D01*
X6817555Y-12095987D01*
X6823791Y-12089045D01*
X6823791Y-12089044D01*
X6848922Y-12057858D01*
X6880567Y-12013974D01*
X6940338Y-11883097D01*
X6952028Y-11843285D01*
X6960024Y-11816056D01*
X6960024Y-11816055D01*
X6960026Y-11816044D01*
X6980498Y-11673652D01*
X6980500Y-11673634D01*
X6980500Y-4830102D01*
X7000462Y-4755602D01*
X7055000Y-4701064D01*
X7129500Y-4681102D01*
X7204000Y-4701064D01*
X7234858Y-4724742D01*
X7878560Y-5368445D01*
X8515813Y-6005698D01*
X8535955Y-6023791D01*
X8535956Y-6023791D01*
X8535957Y-6023792D01*
X8567142Y-6048922D01*
X8611026Y-6080567D01*
X8741903Y-6140338D01*
X8765899Y-6147384D01*
X8808944Y-6160024D01*
X8808955Y-6160026D01*
X8951347Y-6180498D01*
X8951351Y-6180498D01*
X8951362Y-6180500D01*
X8951366Y-6180500D01*
X11862174Y-6180500D01*
X11862177Y-6180500D01*
X11869780Y-6180092D01*
X11889205Y-6179052D01*
X11889204Y-6179052D01*
X11889210Y-6179051D01*
X11889216Y-6179051D01*
X11900768Y-6177808D01*
X11929024Y-6174771D01*
X11932448Y-6174216D01*
X11982448Y-6166114D01*
X12117257Y-6115832D01*
X12178580Y-6082347D01*
X12293761Y-5996123D01*
X12855697Y-5434188D01*
X12855698Y-5434187D01*
X12873791Y-5414045D01*
X12873791Y-5414044D01*
X12898922Y-5382858D01*
X12930567Y-5338974D01*
X12990338Y-5208097D01*
X13010023Y-5141058D01*
X13010024Y-5141056D01*
X13010024Y-5141055D01*
X13010026Y-5141044D01*
X13030498Y-4998652D01*
X13030500Y-4998634D01*
X13030500Y-3924500D01*
X13050462Y-3850000D01*
X13105000Y-3795462D01*
X13179500Y-3775500D01*
X14744829Y-3775500D01*
X14819329Y-3795462D01*
X14873867Y-3850000D01*
X14892466Y-3882215D01*
X14892467Y-3882216D01*
X14957275Y-3954193D01*
X15019129Y-4022888D01*
X15172270Y-4134151D01*
X15172271Y-4134151D01*
X15172272Y-4134152D01*
X15196748Y-4145049D01*
X15345197Y-4211144D01*
X15486315Y-4241139D01*
X15530352Y-4250500D01*
X15530354Y-4250500D01*
X15719648Y-4250500D01*
X15787186Y-4236144D01*
X15904803Y-4211144D01*
X15998819Y-4169283D01*
X16074997Y-4157218D01*
X16120028Y-4169284D01*
X16172993Y-4192865D01*
X16270197Y-4236144D01*
X16411315Y-4266139D01*
X16455352Y-4275500D01*
X16455354Y-4275500D01*
X16644648Y-4275500D01*
X16684004Y-4267134D01*
X16829803Y-4236144D01*
X17002730Y-4159151D01*
X17155871Y-4047888D01*
X17240235Y-3954193D01*
X17282530Y-3907220D01*
X17282531Y-3907218D01*
X17282533Y-3907216D01*
X17377179Y-3743284D01*
X17435674Y-3563256D01*
X17455460Y-3375000D01*
X17435674Y-3186744D01*
X17377179Y-3006716D01*
X17282533Y-2842784D01*
X17282532Y-2842783D01*
X17282530Y-2842779D01*
X17155871Y-2702112D01*
X17155867Y-2702109D01*
X17041880Y-2619292D01*
X16993342Y-2559353D01*
X16982352Y-2507651D01*
X16981276Y-2507765D01*
X16976579Y-2463079D01*
X16960674Y-2311744D01*
X16902179Y-2131716D01*
X16807533Y-1967784D01*
X16807532Y-1967783D01*
X16807530Y-1967779D01*
X16680872Y-1827113D01*
X16663104Y-1814204D01*
X16527730Y-1715849D01*
X16527729Y-1715848D01*
X16527727Y-1715847D01*
X16354805Y-1638857D01*
X16354803Y-1638856D01*
X16248360Y-1616231D01*
X16169648Y-1599500D01*
X16169646Y-1599500D01*
X15980354Y-1599500D01*
X15980352Y-1599500D01*
X15880392Y-1620747D01*
X15795197Y-1638856D01*
X15795195Y-1638856D01*
X15795194Y-1638857D01*
X15622272Y-1715847D01*
X15469127Y-1827113D01*
X15342469Y-1967779D01*
X15247822Y-2131714D01*
X15247819Y-2131721D01*
X15189325Y-2311745D01*
X15180988Y-2391074D01*
X15153348Y-2463080D01*
X15093408Y-2511618D01*
X15032804Y-2524500D01*
X14249583Y-2524500D01*
X14175083Y-2504538D01*
X14120545Y-2450000D01*
X14100583Y-2375500D01*
X14120545Y-2301000D01*
X14162004Y-2254956D01*
X14165722Y-2252254D01*
X14181371Y-2240885D01*
X14279663Y-2131721D01*
X14308030Y-2100217D01*
X14308031Y-2100215D01*
X14308033Y-2100213D01*
X14402679Y-1936281D01*
X14461174Y-1756253D01*
X14480960Y-1567997D01*
X14461174Y-1379741D01*
X14402679Y-1199713D01*
X14400285Y-1195566D01*
X14380322Y-1121066D01*
X14399223Y-1050522D01*
X14399001Y-1050423D01*
X14399627Y-1049015D01*
X14400284Y-1046566D01*
X14402179Y-1043284D01*
X14460674Y-863256D01*
X14480460Y-675000D01*
X14460674Y-486744D01*
X14402179Y-306716D01*
X14307533Y-142784D01*
X14307532Y-142783D01*
X14307530Y-142779D01*
X14180872Y-2113D01*
X14063415Y83224D01*
X14027730Y109151D01*
X14027729Y109152D01*
X14027727Y109153D01*
X13854805Y186143D01*
X13854803Y186144D01*
X13727448Y213214D01*
X13669648Y225500D01*
X13669646Y225500D01*
X13480354Y225500D01*
X13480352Y225500D01*
X13386251Y205498D01*
X13295197Y186144D01*
X13295195Y186144D01*
X13295194Y186143D01*
X13122272Y109153D01*
X12969127Y-2113D01*
X12842469Y-142779D01*
X12747822Y-306714D01*
X12747819Y-306721D01*
X12689325Y-486745D01*
X12669540Y-675000D01*
X12689325Y-863254D01*
X12747820Y-1043283D01*
X12747824Y-1043292D01*
X12750216Y-1047434D01*
X12770177Y-1121934D01*
X12751277Y-1192480D01*
X12751498Y-1192579D01*
X12750878Y-1193970D01*
X12750223Y-1196417D01*
X12748325Y-1199703D01*
X12748319Y-1199718D01*
X12689825Y-1379742D01*
X12670040Y-1567997D01*
X12689825Y-1756251D01*
X12740826Y-1913214D01*
X12748321Y-1936281D01*
X12792870Y-2013443D01*
X12842969Y-2100217D01*
X12969628Y-2240884D01*
X12969630Y-2240886D01*
X12988996Y-2254956D01*
X13037535Y-2314895D01*
X13049601Y-2391074D01*
X13021961Y-2463079D01*
X12962022Y-2511618D01*
X12901417Y-2524500D01*
X11176169Y-2524500D01*
X11101669Y-2504538D01*
X11070810Y-2480859D01*
X9688340Y-1098389D01*
X9649776Y-1031594D01*
X9649776Y-954466D01*
X9688338Y-887673D01*
X9720808Y-855204D01*
X9807789Y-716775D01*
X9811614Y-705842D01*
X9855057Y-642118D01*
X9872976Y-628892D01*
X10005204Y-545808D01*
X10120808Y-430204D01*
X10207789Y-291775D01*
X10211614Y-280842D01*
X10255057Y-217118D01*
X10272976Y-203892D01*
X10405204Y-120808D01*
X10520808Y-5204D01*
X10607789Y133225D01*
X10607788Y133225D01*
X10612241Y140310D01*
X10614010Y139198D01*
X10656711Y188832D01*
X10729507Y214318D01*
X10757348Y213799D01*
X10762538Y213215D01*
X10762539Y213214D01*
X10802114Y208755D01*
X10924999Y194909D01*
X10925000Y194909D01*
X10925001Y194909D01*
X10965615Y199486D01*
X11087461Y213214D01*
X11241775Y267211D01*
X11380204Y354192D01*
X11495808Y469796D01*
X11582789Y608225D01*
X11636786Y762539D01*
X11655091Y925000D01*
X11653802Y936436D01*
X11636786Y1087459D01*
X11636786Y1087461D01*
X11582789Y1241775D01*
X11495808Y1380204D01*
X11380204Y1495808D01*
X11241775Y1582789D01*
X11087461Y1636786D01*
X11087460Y1636787D01*
X11087458Y1636787D01*
X10925001Y1655091D01*
X10924999Y1655091D01*
X10762541Y1636787D01*
X10685382Y1609788D01*
X10608225Y1582789D01*
X10608223Y1582789D01*
X10608223Y1582788D01*
X10469796Y1495808D01*
X10354192Y1380204D01*
X10262759Y1234690D01*
X10260994Y1235799D01*
X10218257Y1186147D01*
X10145454Y1160681D01*
X10117652Y1161202D01*
X9950002Y1180091D01*
X9949999Y1180091D01*
X9787541Y1161787D01*
X9710382Y1134788D01*
X9633225Y1107789D01*
X9633223Y1107789D01*
X9633223Y1107788D01*
X9494796Y1020808D01*
X9379192Y905204D01*
X9292210Y766775D01*
X9288383Y755837D01*
X9244934Y692112D01*
X9227018Y678889D01*
X9094796Y595808D01*
X8979192Y480204D01*
X8892210Y341775D01*
X8888383Y330837D01*
X8844934Y267112D01*
X8827018Y253889D01*
X8694796Y170808D01*
X8694794Y170807D01*
X8662327Y138340D01*
X8595531Y99777D01*
X8518403Y99778D01*
X8451610Y138341D01*
X6608112Y1981839D01*
X6597555Y1995016D01*
X6597120Y1994655D01*
X6591145Y2001878D01*
X6540724Y2049228D01*
X6519831Y2070121D01*
X6514814Y2074012D01*
X6509478Y2078570D01*
X6475942Y2110062D01*
X6460109Y2118766D01*
X6440568Y2131602D01*
X6426296Y2142673D01*
X6426294Y2142674D01*
X6426292Y2142676D01*
X6384063Y2160950D01*
X6377767Y2164035D01*
X6337452Y2186197D01*
X6337451Y2186198D01*
X6337450Y2186198D01*
X6319957Y2190689D01*
X6297840Y2198262D01*
X6281256Y2205438D01*
X6281254Y2205439D01*
X6281253Y2205439D01*
X6235809Y2212637D01*
X6228935Y2214061D01*
X6206371Y2219854D01*
X6184379Y2225500D01*
X6184377Y2225500D01*
X6166314Y2225500D01*
X6143007Y2227334D01*
X6125164Y2230160D01*
X6125163Y2230160D01*
X6079364Y2225831D01*
X6072349Y2225500D01*
X5256502Y2225500D01*
X5182002Y2245462D01*
X5127464Y2300000D01*
X5107502Y2374500D01*
X5114795Y2420544D01*
X5128261Y2461989D01*
X5160674Y2561744D01*
X5180460Y2750000D01*
X5160674Y2938256D01*
X5102179Y3118284D01*
X5007533Y3282216D01*
X5007532Y3282217D01*
X5007530Y3282221D01*
X4938711Y3358651D01*
X4903695Y3427373D01*
X4907731Y3504395D01*
X4908770Y3507476D01*
X4917115Y3531325D01*
X4960563Y3595047D01*
X5030053Y3628511D01*
X5041051Y3630169D01*
X5112461Y3638214D01*
X5266775Y3692211D01*
X5405204Y3779192D01*
X5520808Y3894796D01*
X5607789Y4033225D01*
X5607789Y4033227D01*
X5612241Y4040311D01*
X5614035Y4039184D01*
X5656676Y4088732D01*
X5667454Y4094956D01*
X5673003Y4098444D01*
X5673009Y4098445D01*
X5811438Y4185426D01*
X5927042Y4301030D01*
X6014023Y4439459D01*
X6068020Y4593773D01*
X6074354Y4650000D01*
X12819909Y4650000D01*
X12838213Y4487542D01*
X12838213Y4487540D01*
X12838214Y4487539D01*
X12892211Y4333225D01*
X12979192Y4194796D01*
X13094796Y4079192D01*
X13233225Y3992211D01*
X13387539Y3938214D01*
X13495846Y3926011D01*
X13549999Y3919909D01*
X13550000Y3919909D01*
X13550001Y3919909D01*
X13590615Y3924486D01*
X13712461Y3938214D01*
X13866775Y3992211D01*
X14005204Y4079192D01*
X14120808Y4194796D01*
X14207789Y4333225D01*
X14261786Y4487539D01*
X14280091Y4650000D01*
X14261786Y4812461D01*
X14207789Y4966775D01*
X14120808Y5105204D01*
X14005204Y5220808D01*
X13866775Y5307789D01*
X13712461Y5361786D01*
X13712460Y5361787D01*
X13712458Y5361787D01*
X13550001Y5380091D01*
X13549999Y5380091D01*
X13387541Y5361787D01*
X13318254Y5337542D01*
X13233225Y5307789D01*
X13233223Y5307789D01*
X13233223Y5307788D01*
X13094796Y5220808D01*
X12979192Y5105204D01*
X12902549Y4983227D01*
X12892211Y4966775D01*
X12879060Y4929192D01*
X12838213Y4812459D01*
X12819909Y4650001D01*
X12819909Y4650000D01*
X6074354Y4650000D01*
X6075516Y4660311D01*
X6103693Y4732105D01*
X6163994Y4780194D01*
X6179605Y4785331D01*
X6179563Y4785451D01*
X6187458Y4788214D01*
X6187461Y4788214D01*
X6341775Y4842211D01*
X6480204Y4929192D01*
X6595808Y5044796D01*
X6682789Y5183225D01*
X6736786Y5337539D01*
X6755091Y5500000D01*
X6755090Y5500001D01*
X6755421Y5502930D01*
X6783599Y5574726D01*
X6843900Y5622815D01*
X6872507Y5631991D01*
X6897433Y5637290D01*
X6904803Y5638856D01*
X7040522Y5699283D01*
X7116695Y5711348D01*
X7161723Y5699283D01*
X7295197Y5639856D01*
X7415438Y5614299D01*
X7480352Y5600500D01*
X7480354Y5600500D01*
X7669648Y5600500D01*
X7709004Y5608866D01*
X7854803Y5639856D01*
X8027730Y5716849D01*
X8180871Y5828112D01*
X8284573Y5943284D01*
X8307530Y5968780D01*
X8307531Y5968782D01*
X8307533Y5968784D01*
X8402179Y6132716D01*
X8460674Y6312744D01*
X8480460Y6501000D01*
X8460674Y6689256D01*
X8402179Y6869284D01*
X8307533Y7033216D01*
X8307532Y7033217D01*
X8307530Y7033221D01*
X8180872Y7173887D01*
X8029103Y7284153D01*
X8027730Y7285151D01*
X8027729Y7285152D01*
X8027727Y7285153D01*
X7854805Y7362143D01*
X7854803Y7362144D01*
X7748360Y7384769D01*
X7669648Y7401500D01*
X7669646Y7401500D01*
X7480354Y7401500D01*
X7480352Y7401500D01*
X7380392Y7380253D01*
X7295197Y7362144D01*
X7295195Y7362144D01*
X7295194Y7362143D01*
X7159481Y7301719D01*
X7083303Y7289653D01*
X7038273Y7301719D01*
X6904805Y7361143D01*
X6904803Y7361144D01*
X6798360Y7383769D01*
X6719648Y7400500D01*
X6719646Y7400500D01*
X6530354Y7400500D01*
X6530352Y7400500D01*
X6430392Y7379253D01*
X6345197Y7361144D01*
X6345195Y7361144D01*
X6345194Y7361143D01*
X6172272Y7284153D01*
X6019127Y7172887D01*
X5892469Y7032221D01*
X5797822Y6868286D01*
X5797819Y6868279D01*
X5739325Y6688255D01*
X5719540Y6500000D01*
X5739326Y6311741D01*
X5739712Y6310553D01*
X5739755Y6309719D01*
X5740949Y6304104D01*
X5740060Y6303916D01*
X5743751Y6233531D01*
X5708737Y6164809D01*
X5677280Y6138346D01*
X5569798Y6070810D01*
X5454192Y5955204D01*
X5374335Y5828112D01*
X5367211Y5816775D01*
X5340212Y5739618D01*
X5313213Y5662459D01*
X5305717Y5595925D01*
X5277539Y5524128D01*
X5217237Y5476040D01*
X5201627Y5470903D01*
X5201669Y5470783D01*
X5176585Y5462006D01*
X5099673Y5456243D01*
X5030183Y5489708D01*
X4986736Y5553435D01*
X4979191Y5587071D01*
X4978260Y5595925D01*
X4960674Y5763256D01*
X4902179Y5943284D01*
X4807533Y6107216D01*
X4807532Y6107217D01*
X4807530Y6107221D01*
X4728865Y6194586D01*
X4693849Y6263308D01*
X4697885Y6340330D01*
X4734232Y6399644D01*
X4856837Y6522249D01*
X4870018Y6532805D01*
X4869657Y6533242D01*
X4876878Y6539215D01*
X4924241Y6589652D01*
X4945120Y6610530D01*
X4949012Y6615548D01*
X4953554Y6620867D01*
X4985062Y6654418D01*
X4993768Y6670256D01*
X5006596Y6689784D01*
X5017674Y6704064D01*
X5035947Y6746297D01*
X5039038Y6752603D01*
X5061196Y6792906D01*
X5061197Y6792908D01*
X5065690Y6810409D01*
X5073259Y6832517D01*
X5080438Y6849105D01*
X5087636Y6894562D01*
X5089059Y6901427D01*
X5100500Y6945980D01*
X5100500Y6964046D01*
X5102334Y6987354D01*
X5105160Y7005196D01*
X5102421Y7034161D01*
X5100831Y7050997D01*
X5100500Y7058012D01*
X5100500Y7645500D01*
X5120462Y7720000D01*
X5175000Y7774538D01*
X5249500Y7794500D01*
X6587174Y7794500D01*
X6587177Y7794500D01*
X6594780Y7794908D01*
X6614205Y7795948D01*
X6614204Y7795948D01*
X6614210Y7795949D01*
X6614216Y7795949D01*
X6625768Y7797192D01*
X6654024Y7800229D01*
X6657448Y7800784D01*
X6707448Y7808886D01*
X6842257Y7859168D01*
X6903580Y7892653D01*
X7018761Y7978877D01*
X7280697Y8240812D01*
X7280698Y8240813D01*
X7298791Y8260955D01*
X7298791Y8260956D01*
X7323922Y8292142D01*
X7355567Y8336026D01*
X7415338Y8466903D01*
X7435023Y8533942D01*
X7435024Y8533944D01*
X7435024Y8533945D01*
X7435026Y8533956D01*
X7455498Y8676348D01*
X7455500Y8676366D01*
X7455500Y10012174D01*
X7454052Y10039205D01*
X7454052Y10039204D01*
X7454051Y10039216D01*
X7452808Y10050768D01*
X7449771Y10079024D01*
X7449088Y10083237D01*
X7441114Y10132448D01*
X7390832Y10267257D01*
X7357347Y10328580D01*
X7356391Y10329857D01*
X7271125Y10443759D01*
X7271120Y10443764D01*
X6884187Y10830698D01*
X6864045Y10848791D01*
X6864044Y10848791D01*
X6864043Y10848792D01*
X6832858Y10873922D01*
X6788974Y10905567D01*
X6658097Y10965338D01*
X6658094Y10965339D01*
X6658085Y10965342D01*
X6591056Y10985024D01*
X6591055Y10985025D01*
X6591047Y10985026D01*
X6493632Y10999032D01*
X6422731Y11029393D01*
X6376510Y11091137D01*
X6367354Y11167720D01*
X6397715Y11238621D01*
X6459459Y11284842D01*
X6483852Y11292258D01*
X6585467Y11313856D01*
X6758394Y11390849D01*
X6911535Y11502112D01*
X6987883Y11586905D01*
X7038194Y11642780D01*
X7038195Y11642782D01*
X7038197Y11642784D01*
X7132843Y11806716D01*
X7191338Y11986744D01*
X7211124Y12175000D01*
X7191338Y12363256D01*
X7132843Y12543284D01*
X7038197Y12707216D01*
X7038196Y12707217D01*
X7038194Y12707221D01*
X6911536Y12847887D01*
X6903254Y12853904D01*
X6758394Y12959151D01*
X6758393Y12959152D01*
X6758391Y12959153D01*
X6585469Y13036143D01*
X6585467Y13036144D01*
X6465369Y13061672D01*
X6426116Y13070015D01*
X6357394Y13105031D01*
X6315387Y13169716D01*
X6311351Y13246738D01*
X6346367Y13315460D01*
X6411052Y13357467D01*
X6426116Y13361503D01*
X6554803Y13388856D01*
X6727730Y13465849D01*
X6880871Y13577112D01*
X6960017Y13665012D01*
X7007530Y13717780D01*
X7007531Y13717782D01*
X7007533Y13717784D01*
X7102179Y13881716D01*
X7160674Y14061744D01*
X7180460Y14250000D01*
X7160674Y14438256D01*
X7102179Y14618284D01*
X7007533Y14782216D01*
X7007532Y14782217D01*
X7007530Y14782221D01*
X6880872Y14922887D01*
X6762139Y15009151D01*
X6727730Y15034151D01*
X6727729Y15034152D01*
X6727727Y15034153D01*
X6554800Y15111146D01*
X6548911Y15113059D01*
X6484227Y15155067D01*
X6449213Y15223790D01*
X6453252Y15300812D01*
X6495260Y15365496D01*
X6534350Y15390881D01*
X6702730Y15465849D01*
X6749735Y15500000D01*
X12095006Y15500000D01*
X12114965Y15131864D01*
X12114965Y15131858D01*
X12174613Y14768026D01*
X12174613Y14768024D01*
X12273247Y14412779D01*
X12273249Y14412774D01*
X12409709Y14070285D01*
X12409715Y14070272D01*
X12582404Y13744544D01*
X12582407Y13744539D01*
X12789303Y13439392D01*
X12789312Y13439380D01*
X12925496Y13279052D01*
X12925497Y13279052D01*
X14241350Y14594906D01*
X14295456Y14516520D01*
X14468816Y14336034D01*
X14594865Y14241314D01*
X13276520Y12922969D01*
X13295657Y12904841D01*
X13295658Y12904840D01*
X13589165Y12681722D01*
X13905066Y12491650D01*
X14239684Y12336840D01*
X14239694Y12336835D01*
X14589063Y12219120D01*
X14949131Y12139863D01*
X15315656Y12100001D01*
X15315666Y12100000D01*
X15684334Y12100000D01*
X15684343Y12100001D01*
X16050868Y12139863D01*
X16050869Y12139863D01*
X16410936Y12219120D01*
X16760305Y12336835D01*
X16760315Y12336840D01*
X17094933Y12491650D01*
X17410834Y12681722D01*
X17704352Y12904849D01*
X17723479Y12922968D01*
X16406879Y14239568D01*
X16434180Y14256832D01*
X16621501Y14422784D01*
X16760511Y14593042D01*
X18074501Y13279052D01*
X18210690Y13439383D01*
X18210694Y13439389D01*
X18417592Y13744539D01*
X18417595Y13744544D01*
X18590284Y14070272D01*
X18590290Y14070285D01*
X18726750Y14412774D01*
X18726752Y14412779D01*
X18825386Y14768024D01*
X18825386Y14768026D01*
X18885034Y15131858D01*
X18885034Y15131864D01*
X18904994Y15500000D01*
X18904994Y15500009D01*
X18885034Y15868137D01*
X18885034Y15868143D01*
X18825386Y16231975D01*
X18825386Y16231977D01*
X18726752Y16587222D01*
X18726750Y16587227D01*
X18590290Y16929716D01*
X18590284Y16929729D01*
X18417595Y17255457D01*
X18417592Y17255462D01*
X18210696Y17560609D01*
X18210687Y17560621D01*
X18074502Y17720950D01*
X18074501Y17720950D01*
X16758648Y16405097D01*
X16704544Y16483480D01*
X16531184Y16663966D01*
X16405132Y16758688D01*
X17723479Y18077034D01*
X17704347Y18095156D01*
X17410834Y18318279D01*
X17094933Y18508351D01*
X16760315Y18663161D01*
X16760305Y18663166D01*
X16410936Y18780881D01*
X16050868Y18860138D01*
X15684343Y18900000D01*
X15315656Y18900000D01*
X14949131Y18860138D01*
X14949130Y18860138D01*
X14589063Y18780881D01*
X14239694Y18663166D01*
X14239684Y18663161D01*
X13905066Y18508351D01*
X13589165Y18318279D01*
X13295663Y18095165D01*
X13276520Y18077033D01*
X14593120Y16760433D01*
X14565820Y16743168D01*
X14378499Y16577216D01*
X14239488Y16406959D01*
X12925497Y17720950D01*
X12925496Y17720950D01*
X12789308Y17560617D01*
X12789306Y17560614D01*
X12582402Y17255453D01*
X12409715Y16929729D01*
X12409709Y16929716D01*
X12273249Y16587227D01*
X12273247Y16587222D01*
X12174613Y16231977D01*
X12174613Y16231975D01*
X12114965Y15868143D01*
X12114965Y15868137D01*
X12095006Y15500009D01*
X12095006Y15500000D01*
X6749735Y15500000D01*
X6855871Y15577112D01*
X6982237Y15717455D01*
X6982530Y15717780D01*
X6982531Y15717782D01*
X6982533Y15717784D01*
X7077179Y15881716D01*
X7135674Y16061744D01*
X7155460Y16250000D01*
X7135674Y16438256D01*
X7077179Y16618284D01*
X6982533Y16782216D01*
X6982532Y16782217D01*
X6982530Y16782221D01*
X6855872Y16922887D01*
X6828110Y16943057D01*
X6702730Y17034151D01*
X6702729Y17034152D01*
X6702727Y17034153D01*
X6548791Y17102690D01*
X6529803Y17111144D01*
X6423360Y17133769D01*
X6344648Y17150500D01*
X6344646Y17150500D01*
X6155354Y17150500D01*
X6155352Y17150500D01*
X6055392Y17129253D01*
X5970197Y17111144D01*
X5970195Y17111144D01*
X5970194Y17111143D01*
X5797272Y17034153D01*
X5644127Y16922887D01*
X5517469Y16782221D01*
X5422822Y16618286D01*
X5422819Y16618279D01*
X5364325Y16438255D01*
X5344540Y16250000D01*
X5364325Y16061746D01*
X5398078Y15957866D01*
X5422821Y15881716D01*
X5463621Y15811049D01*
X5517469Y15717780D01*
X5644127Y15577114D01*
X5644129Y15577112D01*
X5797270Y15465849D01*
X5970197Y15388856D01*
X5970200Y15388856D01*
X5976082Y15386944D01*
X6040768Y15344939D01*
X6075784Y15276218D01*
X6071749Y15199195D01*
X6029744Y15134509D01*
X5990646Y15109118D01*
X5822271Y15034152D01*
X5669127Y14922887D01*
X5542469Y14782221D01*
X5447818Y14618279D01*
X5447449Y14617449D01*
X5447067Y14616979D01*
X5443917Y14611521D01*
X5443052Y14612021D01*
X5398907Y14557512D01*
X5326900Y14529875D01*
X5250723Y14541945D01*
X5190786Y14590487D01*
X5163149Y14662494D01*
X5162843Y14690364D01*
X5169279Y14768026D01*
X5180214Y14900000D01*
X5178317Y14922888D01*
X5164545Y15089102D01*
X5161390Y15127176D01*
X5105430Y15348155D01*
X5013862Y15556909D01*
X4889183Y15747745D01*
X4734794Y15915456D01*
X4560101Y16051426D01*
X4554905Y16055470D01*
X4455457Y16109288D01*
X4399437Y16162302D01*
X4377430Y16236224D01*
X4395331Y16311246D01*
X4400204Y16319591D01*
X4480456Y16447310D01*
X4536313Y16606941D01*
X4555249Y16775000D01*
X4536313Y16943059D01*
X4480456Y17102690D01*
X4390477Y17245890D01*
X4270890Y17365477D01*
X4127690Y17455456D01*
X3968059Y17511313D01*
X3968058Y17511314D01*
X3968056Y17511314D01*
X3800001Y17530249D01*
X3799999Y17530249D01*
X3631943Y17511314D01*
X3472309Y17455456D01*
X3329110Y17365477D01*
X3209523Y17245890D01*
X3119544Y17102691D01*
X3063686Y16943057D01*
X3044751Y16775001D01*
X3044751Y16775000D01*
X3063686Y16606944D01*
X3119544Y16447310D01*
X3199788Y16319603D01*
X3222522Y16245902D01*
X3205359Y16170707D01*
X3152899Y16114168D01*
X3144542Y16109289D01*
X3045099Y16055473D01*
X2865206Y15915457D01*
X2710817Y15747746D01*
X2674737Y15692521D01*
X2617278Y15641071D01*
X2541791Y15625243D01*
X2468504Y15649280D01*
X2425263Y15692521D01*
X2389182Y15747746D01*
X2330908Y15811049D01*
X2234794Y15915456D01*
X2060101Y16051426D01*
X2054905Y16055470D01*
X1955457Y16109288D01*
X1899437Y16162302D01*
X1877430Y16236224D01*
X1895331Y16311246D01*
X1900204Y16319591D01*
X1980456Y16447310D01*
X2036313Y16606941D01*
X2055249Y16775000D01*
X2036313Y16943059D01*
X1980456Y17102690D01*
X1890477Y17245890D01*
X1770890Y17365477D01*
X1627690Y17455456D01*
X1468059Y17511313D01*
X1468058Y17511314D01*
X1468056Y17511314D01*
X1300001Y17530249D01*
X1299999Y17530249D01*
X1131943Y17511314D01*
X972309Y17455456D01*
X829110Y17365477D01*
X709523Y17245890D01*
X619544Y17102691D01*
X563686Y16943057D01*
X544751Y16775001D01*
X544751Y16775000D01*
X563686Y16606944D01*
X619544Y16447310D01*
X699788Y16319603D01*
X722522Y16245902D01*
X705359Y16170707D01*
X652899Y16114168D01*
X644542Y16109289D01*
X545099Y16055473D01*
X365206Y15915457D01*
X210817Y15747746D01*
X174737Y15692521D01*
X117278Y15641071D01*
X41791Y15625243D01*
X-31496Y15649280D01*
X-74737Y15692521D01*
X-110818Y15747746D01*
X-169092Y15811049D01*
X-265206Y15915456D01*
X-439899Y16051426D01*
X-445095Y16055470D01*
X-544543Y16109288D01*
X-600563Y16162302D01*
X-622570Y16236224D01*
X-604669Y16311246D01*
X-599796Y16319591D01*
X-519544Y16447310D01*
X-463687Y16606941D01*
X-444751Y16775000D01*
X-463687Y16943059D01*
X-519544Y17102690D01*
X-609523Y17245890D01*
X-729110Y17365477D01*
X-872310Y17455456D01*
X-1031941Y17511313D01*
X-1031942Y17511314D01*
X-1031944Y17511314D01*
X-1199999Y17530249D01*
X-1200001Y17530249D01*
X-1368057Y17511314D01*
X-1527691Y17455456D01*
X-1670890Y17365477D01*
X-1790477Y17245890D01*
X-1880456Y17102691D01*
X-1936314Y16943057D01*
X-1955249Y16775001D01*
X-1955249Y16775000D01*
X-1936314Y16606944D01*
X-1880456Y16447310D01*
X-1800212Y16319603D01*
X-1777478Y16245902D01*
X-1794641Y16170707D01*
X-1847101Y16114168D01*
X-1855458Y16109289D01*
X-1954901Y16055473D01*
X-2134794Y15915457D01*
X-2289183Y15747746D01*
X-2325263Y15692521D01*
X-2382722Y15641071D01*
X-2458209Y15625243D01*
X-2531496Y15649280D01*
X-2574737Y15692521D01*
X-2610818Y15747746D01*
X-2669092Y15811049D01*
X-2765206Y15915456D01*
X-2939899Y16051426D01*
X-2945095Y16055470D01*
X-3044543Y16109288D01*
X-3100563Y16162302D01*
X-3122570Y16236224D01*
X-3104669Y16311246D01*
X-3099796Y16319591D01*
X-3019544Y16447310D01*
X-2963687Y16606941D01*
X-2944751Y16775000D01*
X-2963687Y16943059D01*
X-3019544Y17102690D01*
X-3109523Y17245890D01*
X-3229110Y17365477D01*
X-3372310Y17455456D01*
X-3531941Y17511313D01*
X-3531942Y17511314D01*
X-3531944Y17511314D01*
X-3699999Y17530249D01*
X-3700001Y17530249D01*
X-3868057Y17511314D01*
X-4027691Y17455456D01*
X-4170890Y17365477D01*
X-4290477Y17245890D01*
X-4380456Y17102691D01*
X-4436314Y16943057D01*
X-4455249Y16775001D01*
X-4455249Y16775000D01*
X-4436314Y16606944D01*
X-4380456Y16447310D01*
X-4300212Y16319603D01*
X-4277478Y16245902D01*
X-4294641Y16170707D01*
X-4347101Y16114168D01*
X-4355458Y16109289D01*
X-4454901Y16055473D01*
X-4634794Y15915457D01*
X-4789179Y15747750D01*
X-4789181Y15747748D01*
X-4789183Y15747745D01*
X-4828582Y15687440D01*
X-4913864Y15556907D01*
X-5005430Y15348157D01*
X-5061391Y15127172D01*
X-5080214Y14900002D01*
X-5080214Y14899999D01*
X-5061391Y14672829D01*
X-5061391Y14672826D01*
X-5061390Y14672824D01*
X-5041246Y14593279D01*
X-5005430Y14451844D01*
X-4913864Y14243094D01*
X-4913862Y14243091D01*
X-4789183Y14052255D01*
X-4634794Y13884544D01*
X-4454906Y13744531D01*
X-4405931Y13718027D01*
X-4349911Y13665012D01*
X-4327904Y13591091D01*
X-4345805Y13516069D01*
X-4398725Y13460107D01*
X-4520875Y13384897D01*
X-4696640Y13230205D01*
X-4843733Y13048034D01*
X-4957925Y12843622D01*
X-4957926Y12843620D01*
X-5035930Y12622847D01*
X-5076483Y12386337D01*
X-5108749Y12316282D01*
X-5171719Y12271746D01*
X-5248521Y12264661D01*
X-5318576Y12296927D01*
X-5363112Y12359897D01*
X-5365047Y12365474D01*
X-5375241Y12396849D01*
X-5422821Y12543284D01*
X-5517467Y12707216D01*
X-5517468Y12707217D01*
X-5517470Y12707221D01*
X-5644128Y12847887D01*
X-5652410Y12853904D01*
X-5797270Y12959151D01*
X-5797271Y12959152D01*
X-5797273Y12959153D01*
X-5970195Y13036143D01*
X-5970197Y13036144D01*
X-6055410Y13054257D01*
X-6124131Y13089272D01*
X-6166137Y13153957D01*
X-6170174Y13230979D01*
X-6135158Y13299701D01*
X-6070473Y13341707D01*
X-6055413Y13345743D01*
X-5970197Y13363856D01*
X-5797270Y13440849D01*
X-5644129Y13552112D01*
X-5568562Y13636037D01*
X-5517470Y13692780D01*
X-5517469Y13692782D01*
X-5517467Y13692784D01*
X-5422821Y13856716D01*
X-5364326Y14036744D01*
X-5344540Y14225000D01*
X-5364326Y14413256D01*
X-5422821Y14593284D01*
X-5517467Y14757216D01*
X-5517468Y14757217D01*
X-5517470Y14757221D01*
X-5644128Y14897887D01*
X-5678538Y14922887D01*
X-5797270Y15009151D01*
X-5797271Y15009152D01*
X-5797273Y15009153D01*
X-5970195Y15086143D01*
X-5970197Y15086144D01*
X-6009104Y15094414D01*
X-6077823Y15129428D01*
X-6119830Y15194113D01*
X-6123867Y15271136D01*
X-6088852Y15339857D01*
X-6024167Y15381864D01*
X-6009108Y15385900D01*
X-5995197Y15388856D01*
X-5822270Y15465849D01*
X-5669129Y15577112D01*
X-5542763Y15717455D01*
X-5542470Y15717780D01*
X-5542469Y15717782D01*
X-5542467Y15717784D01*
X-5447821Y15881716D01*
X-5389326Y16061744D01*
X-5369540Y16250000D01*
X-5389326Y16438256D01*
X-5447821Y16618284D01*
X-5542467Y16782216D01*
X-5542468Y16782217D01*
X-5542470Y16782221D01*
X-5669128Y16922887D01*
X-5696890Y16943057D01*
X-5822270Y17034151D01*
X-5822271Y17034152D01*
X-5822273Y17034153D01*
X-5976209Y17102690D01*
X-5995197Y17111144D01*
X-6101640Y17133769D01*
X-6180352Y17150500D01*
X-6180354Y17150500D01*
X-6369646Y17150500D01*
X-6369648Y17150500D01*
X-6469608Y17129253D01*
X-6554803Y17111144D01*
X-6554805Y17111144D01*
X-6554806Y17111143D01*
X-6727728Y17034153D01*
X-6880873Y16922887D01*
X-7007531Y16782221D01*
X-7102178Y16618286D01*
X-7102181Y16618279D01*
X-7160675Y16438255D01*
X-7180460Y16250000D01*
X-7160675Y16061746D01*
X-7126922Y15957866D01*
X-7102179Y15881716D01*
X-7061379Y15811049D01*
X-7007531Y15717780D01*
X-6880873Y15577114D01*
X-6880871Y15577112D01*
X-6727730Y15465849D01*
X-6554803Y15388856D01*
X-6515897Y15380587D01*
X-6447179Y15345574D01*
X-6405171Y15280890D01*
X-6401133Y15203868D01*
X-6436148Y15135145D01*
X-6500832Y15093137D01*
X-6515892Y15089102D01*
X-6529802Y15086145D01*
X-6702728Y15009153D01*
X-6855873Y14897887D01*
X-6982531Y14757221D01*
X-7077178Y14593286D01*
X-7077181Y14593279D01*
X-7135675Y14413255D01*
X-7155460Y14225000D01*
X-7135675Y14036746D01*
X-7107489Y13950000D01*
X-7077179Y13856716D01*
X-7077178Y13856715D01*
X-6982531Y13692780D01*
X-6859305Y13555926D01*
X-6855871Y13552112D01*
X-6702730Y13440849D01*
X-6702729Y13440849D01*
X-6702728Y13440848D01*
X-6699431Y13439380D01*
X-6529803Y13363856D01*
X-6444592Y13345744D01*
X-6375870Y13310728D01*
X-6333863Y13246043D01*
X-6329827Y13169021D01*
X-6364843Y13100299D01*
X-6429528Y13058292D01*
X-6444592Y13054257D01*
X-6529803Y13036144D01*
X-6529805Y13036144D01*
X-6529806Y13036143D01*
X-6702728Y12959153D01*
X-6855873Y12847887D01*
X-6982531Y12707221D01*
X-7077178Y12543286D01*
X-7077181Y12543279D01*
X-7135675Y12363255D01*
X-7155460Y12175000D01*
X-7135675Y11986746D01*
X-7077181Y11806722D01*
X-7077179Y11806716D01*
X-7077178Y11806715D01*
X-7036296Y11735905D01*
X-7016334Y11661404D01*
X-7036296Y11586905D01*
X-7090834Y11532367D01*
X-7148651Y11513342D01*
X-7162459Y11511787D01*
X-7190102Y11502114D01*
X-7316775Y11457789D01*
X-7316777Y11457789D01*
X-7316777Y11457788D01*
X-7455204Y11370808D01*
X-7570808Y11255204D01*
X-7657791Y11116773D01*
X-7657792Y11116772D01*
X-7662195Y11104188D01*
X-7705646Y11040464D01*
X-7775137Y11007002D01*
X-7815717Y11006107D01*
X-7815787Y11005120D01*
X-7821095Y11005500D01*
X-7821098Y11005500D01*
X-9212177Y11005500D01*
X-9219268Y11005120D01*
X-9239205Y11004052D01*
X-9239211Y11004052D01*
X-9239216Y11004051D01*
X-9250768Y11002809D01*
X-9279024Y10999771D01*
X-9332444Y10991115D01*
X-9332446Y10991115D01*
X-9332448Y10991114D01*
X-9398763Y10966380D01*
X-9467253Y10940834D01*
X-9467256Y10940833D01*
X-9528576Y10907350D01*
X-9528584Y10907345D01*
X-9643759Y10821126D01*
X-10519942Y9944943D01*
X-11528402Y8936484D01*
X-11595197Y8897920D01*
X-11672325Y8897920D01*
X-11739120Y8936484D01*
X-11759923Y8962570D01*
X-11768132Y8975634D01*
X-11841692Y9092704D01*
X-11957296Y9208308D01*
X-12095725Y9295289D01*
X-12250039Y9349286D01*
X-12250040Y9349287D01*
X-12250042Y9349287D01*
X-12412499Y9367591D01*
X-12412501Y9367591D01*
X-12574959Y9349287D01*
X-12652118Y9322288D01*
X-12729275Y9295289D01*
X-12867704Y9208308D01*
X-12983308Y9092704D01*
X-13070289Y8954275D01*
X-13097288Y8877118D01*
X-13124287Y8799959D01*
X-13142591Y8637501D01*
X-13142591Y8637500D01*
X-13124287Y8475042D01*
X-13124287Y8475040D01*
X-13124286Y8475039D01*
X-13070289Y8320725D01*
X-12983308Y8182296D01*
X-12867704Y8066692D01*
X-12770442Y8005578D01*
X-12722190Y7975259D01*
X-12722963Y7974030D01*
X-12671469Y7929717D01*
X-12645994Y7856918D01*
X-12660332Y7781134D01*
X-12710641Y7722673D01*
X-12716306Y7718995D01*
X-12717950Y7717981D01*
X-12833123Y7631762D01*
X-12833129Y7631757D01*
X-14727211Y5737675D01*
X-14727219Y5737666D01*
X-14792215Y5657848D01*
X-14792216Y5657847D01*
X-14819811Y5615854D01*
X-14867283Y5524535D01*
X-14900730Y5384599D01*
X-14900732Y5384590D01*
X-14907137Y5315027D01*
X-14907137Y5315016D01*
X-14899804Y5171324D01*
X-14899803Y5171319D01*
X-14852283Y5035515D01*
X-14852282Y5035511D01*
X-14820058Y4973523D01*
X-14820058Y4973522D01*
X-14769041Y4902392D01*
X-14741843Y4830219D01*
X-14754375Y4754116D01*
X-14803279Y4694474D01*
X-14810844Y4689391D01*
X-14880205Y4645808D01*
X-14880205Y4645807D01*
X-14995808Y4530204D01*
X-15078889Y4397982D01*
X-15135428Y4345522D01*
X-15155837Y4336617D01*
X-15166775Y4332790D01*
X-15305204Y4245808D01*
X-15420810Y4130202D01*
X-15489799Y4020408D01*
X-15546338Y3967948D01*
X-15566747Y3959044D01*
X-15611511Y3943380D01*
X-15688424Y3937615D01*
X-15709934Y3943379D01*
X-15762538Y3961786D01*
X-15762542Y3961787D01*
X-15924999Y3980091D01*
X-15925001Y3980091D01*
X-16087459Y3961787D01*
X-16164618Y3934788D01*
X-16241775Y3907789D01*
X-16241777Y3907789D01*
X-16241777Y3907788D01*
X-16380204Y3820808D01*
X-16495808Y3705204D01*
X-16565024Y3595047D01*
X-16582789Y3566775D01*
X-16595748Y3529740D01*
X-16636787Y3412459D01*
X-16648054Y3312459D01*
X-16655091Y3250000D01*
X-16640250Y3118279D01*
X-16636786Y3087540D01*
X-16635680Y3084379D01*
X-16635492Y3081868D01*
X-16634924Y3079380D01*
X-16635300Y3079295D01*
X-16629917Y3007467D01*
X-16663381Y2937977D01*
X-16727108Y2894529D01*
X-16759625Y2887106D01*
X-16762458Y2886787D01*
X-16762461Y2886787D01*
X-16762461Y2886786D01*
X-16916775Y2832789D01*
X-16916777Y2832789D01*
X-16916777Y2832788D01*
X-17055204Y2745808D01*
X-17170808Y2630204D01*
X-17213824Y2561744D01*
X-17257789Y2491775D01*
X-17276531Y2438214D01*
X-17311787Y2337459D01*
X-17330091Y2175001D01*
X-17330091Y2175000D01*
X-20999500Y2175000D01*
X-20999500Y15500000D01*
X-18904994Y15500000D01*
X-18885035Y15131864D01*
X-18885035Y15131858D01*
X-18825387Y14768026D01*
X-18825387Y14768024D01*
X-18726753Y14412779D01*
X-18726751Y14412774D01*
X-18590291Y14070285D01*
X-18590285Y14070272D01*
X-18417596Y13744544D01*
X-18417593Y13744539D01*
X-18210697Y13439392D01*
X-18210688Y13439380D01*
X-18074504Y13279052D01*
X-18074503Y13279052D01*
X-16758650Y14594906D01*
X-16704544Y14516520D01*
X-16531184Y14336034D01*
X-16405135Y14241314D01*
X-17723480Y12922969D01*
X-17704343Y12904841D01*
X-17704342Y12904840D01*
X-17410835Y12681722D01*
X-17094934Y12491650D01*
X-16760316Y12336840D01*
X-16760306Y12336835D01*
X-16410937Y12219120D01*
X-16050869Y12139863D01*
X-15684344Y12100001D01*
X-15684334Y12100000D01*
X-15315666Y12100000D01*
X-15315657Y12100001D01*
X-14949132Y12139863D01*
X-14949131Y12139863D01*
X-14589064Y12219120D01*
X-14239695Y12336835D01*
X-14239685Y12336840D01*
X-13905067Y12491650D01*
X-13589166Y12681722D01*
X-13295648Y12904849D01*
X-13276521Y12922968D01*
X-14593121Y14239568D01*
X-14565820Y14256832D01*
X-14378499Y14422784D01*
X-14239489Y14593042D01*
X-12925499Y13279052D01*
X-12789310Y13439383D01*
X-12789306Y13439389D01*
X-12582408Y13744539D01*
X-12582405Y13744544D01*
X-12409716Y14070272D01*
X-12409710Y14070285D01*
X-12273250Y14412774D01*
X-12273248Y14412779D01*
X-12174614Y14768024D01*
X-12174614Y14768026D01*
X-12114966Y15131858D01*
X-12114966Y15131864D01*
X-12095006Y15500000D01*
X-12095006Y15500009D01*
X-12114966Y15868137D01*
X-12114966Y15868143D01*
X-12174614Y16231975D01*
X-12174614Y16231977D01*
X-12273248Y16587222D01*
X-12273250Y16587227D01*
X-12409710Y16929716D01*
X-12409716Y16929729D01*
X-12582405Y17255457D01*
X-12582408Y17255462D01*
X-12789304Y17560609D01*
X-12789313Y17560621D01*
X-12925498Y17720950D01*
X-12925499Y17720950D01*
X-14241352Y16405097D01*
X-14295456Y16483480D01*
X-14468816Y16663966D01*
X-14594868Y16758688D01*
X-13276521Y18077034D01*
X-13295653Y18095156D01*
X-13589166Y18318279D01*
X-13905067Y18508351D01*
X-14239685Y18663161D01*
X-14239695Y18663166D01*
X-14589064Y18780881D01*
X-14949132Y18860138D01*
X-15315657Y18900000D01*
X-15684344Y18900000D01*
X-16050869Y18860138D01*
X-16050870Y18860138D01*
X-16410937Y18780881D01*
X-16760306Y18663166D01*
X-16760316Y18663161D01*
X-17094934Y18508351D01*
X-17410835Y18318279D01*
X-17704337Y18095165D01*
X-17723480Y18077033D01*
X-16406880Y16760433D01*
X-16434180Y16743168D01*
X-16621501Y16577216D01*
X-16760512Y16406959D01*
X-18074503Y17720950D01*
X-18074504Y17720950D01*
X-18210692Y17560617D01*
X-18210694Y17560614D01*
X-18417598Y17255453D01*
X-18590285Y16929729D01*
X-18590291Y16929716D01*
X-18726751Y16587227D01*
X-18726753Y16587222D01*
X-18825387Y16231977D01*
X-18825387Y16231975D01*
X-18885035Y15868143D01*
X-18885035Y15868137D01*
X-18904994Y15500009D01*
X-18904994Y15500000D01*
X-20999500Y15500000D01*
X-20996311Y15577112D01*
X-20990492Y15717784D01*
X-20980008Y15957908D01*
X-20979511Y15963817D01*
X-20950917Y16193206D01*
X-20920869Y16421442D01*
X-20919923Y16426988D01*
X-20908078Y16483480D01*
X-20872030Y16655405D01*
X-20822623Y16878260D01*
X-20821298Y16883365D01*
X-20809532Y16922887D01*
X-20754409Y17108042D01*
X-20685973Y17325092D01*
X-20684360Y17329668D01*
X-20598906Y17548667D01*
X-20511922Y17758666D01*
X-20510088Y17762733D01*
X-20406638Y17974345D01*
X-20301728Y18175873D01*
X-20299692Y18179524D01*
X-20178980Y18382105D01*
X-20178972Y18382116D01*
X-20056915Y18573709D01*
X-20054752Y18576915D01*
X-19917560Y18769064D01*
X-19779196Y18949383D01*
X-19777022Y18952079D01*
X-19624282Y19132418D01*
X-19469596Y19301229D01*
X-19301229Y19469596D01*
X-19132435Y19624268D01*
X-18952079Y19777022D01*
X-18949383Y19779196D01*
X-18769064Y19917560D01*
X-18576915Y20054752D01*
X-18573709Y20056915D01*
X-18382110Y20178977D01*
X-18179524Y20299692D01*
X-18175873Y20301728D01*
X-17974352Y20406634D01*
X-17762733Y20510088D01*
X-17758666Y20511922D01*
X-17548667Y20598906D01*
X-17329668Y20684360D01*
X-17325092Y20685973D01*
X-17108042Y20754409D01*
X-16883360Y20821300D01*
X-16878260Y20822623D01*
X-16655405Y20872030D01*
X-16426988Y20919923D01*
X-16421442Y20920869D01*
X-16193201Y20950919D01*
X-15963817Y20979511D01*
X-15957908Y20980008D01*
X-15717577Y20990501D01*
X-15500000Y20999500D01*
X-15499500Y20999500D01*
X15499500Y20999500D01*
X15500000Y20999500D01*
X15717445Y20990507D01*
G37*
%TD.AperFunction*%
%TD*%
%TA.AperFunction,Conductor*%
%TO.N,Vmot*%
G36*
X5986211Y1254815D02*
G01*
X6006853Y1238181D01*
X10613228Y-3368195D01*
X10616883Y-3372184D01*
X10642901Y-3403190D01*
X10642902Y-3403191D01*
X10642905Y-3403194D01*
X10671747Y-3419845D01*
X10677964Y-3423435D01*
X10682514Y-3426333D01*
X10715676Y-3449553D01*
X10715678Y-3449553D01*
X10715679Y-3449554D01*
X10720528Y-3451815D01*
X10737307Y-3458765D01*
X10742312Y-3460587D01*
X10742313Y-3460587D01*
X10742315Y-3460588D01*
X10782189Y-3467618D01*
X10787452Y-3468786D01*
X10799267Y-3471951D01*
X10826553Y-3479263D01*
X10866870Y-3475735D01*
X10872272Y-3475500D01*
X12149138Y-3475500D01*
X12216177Y-3495185D01*
X12236819Y-3511819D01*
X12488681Y-3763681D01*
X12522166Y-3825004D01*
X12525000Y-3851362D01*
X12525000Y-4998638D01*
X12505315Y-5065677D01*
X12488681Y-5086319D01*
X11936319Y-5638681D01*
X11874996Y-5672166D01*
X11848638Y-5675000D01*
X8951362Y-5675000D01*
X8884323Y-5655315D01*
X8863681Y-5638681D01*
X7016819Y-3791819D01*
X6983334Y-3730496D01*
X6980500Y-3704138D01*
X6980500Y-2662827D01*
X6979050Y-2635773D01*
X6979050Y-2635772D01*
X6974769Y-2595964D01*
X6966114Y-2542554D01*
X6966114Y-2542552D01*
X6915833Y-2407747D01*
X6915832Y-2407743D01*
X6882347Y-2346420D01*
X6796123Y-2231239D01*
X6796117Y-2231233D01*
X6796113Y-2231228D01*
X6126481Y-1561596D01*
X6126480Y-1561595D01*
X6126474Y-1561589D01*
X6105386Y-1542738D01*
X6072689Y-1516646D01*
X6062105Y-1509129D01*
X6026608Y-1483916D01*
X6026599Y-1483911D01*
X5895156Y-1425396D01*
X5827930Y-1406354D01*
X5711440Y-1390741D01*
X5685329Y-1387242D01*
X5685328Y-1387242D01*
X5543124Y-1409078D01*
X5543105Y-1409082D01*
X5476274Y-1429403D01*
X5476259Y-1429408D01*
X5470683Y-1432020D01*
X5401622Y-1442623D01*
X5337792Y-1414205D01*
X5303537Y-1367174D01*
X5274537Y-1297161D01*
X5274536Y-1297160D01*
X5274536Y-1297159D01*
X5178282Y-1171718D01*
X5052841Y-1075464D01*
X4906762Y-1014956D01*
X4860786Y-1008903D01*
X4751757Y-994549D01*
X4687861Y-966282D01*
X4649390Y-907958D01*
X4644378Y-866442D01*
X4644354Y-866443D01*
X4644350Y-866211D01*
X4644146Y-864518D01*
X4644290Y-862007D01*
X4638539Y-795044D01*
X4638493Y-793980D01*
X4638311Y-792393D01*
X4605724Y-652258D01*
X4605722Y-652254D01*
X4605722Y-652252D01*
X4534971Y-526969D01*
X4492305Y-471639D01*
X4492303Y-471636D01*
X4389135Y-371374D01*
X4389125Y-371364D01*
X4294777Y-302816D01*
X4275516Y-285474D01*
X4237397Y-243138D01*
X4222163Y-222171D01*
X4193675Y-172826D01*
X4183133Y-149148D01*
X4178133Y-133760D01*
X4178131Y-133753D01*
X4178126Y-133743D01*
X4178123Y-133733D01*
X4141030Y-47687D01*
X4119076Y-7487D01*
X4119072Y-7481D01*
X4066719Y70254D01*
X3960705Y167530D01*
X3879020Y223372D01*
X3834786Y277456D01*
X3825000Y325738D01*
X3825000Y773638D01*
X3844685Y840677D01*
X3861319Y861319D01*
X4238181Y1238181D01*
X4299504Y1271666D01*
X4325862Y1274500D01*
X5919172Y1274500D01*
X5986211Y1254815D01*
G37*
%TD.AperFunction*%
%TD*%
%TA.AperFunction,Conductor*%
%TO.N,GNDA*%
G36*
X3792539Y7774815D02*
G01*
X3838294Y7722011D01*
X3849500Y7670500D01*
X3849500Y7335454D01*
X3829815Y7268415D01*
X3813181Y7247773D01*
X1841208Y5275801D01*
X1828951Y5265980D01*
X1829134Y5265759D01*
X1823123Y5260787D01*
X1775772Y5210364D01*
X1754889Y5189481D01*
X1754877Y5189468D01*
X1750621Y5183983D01*
X1746837Y5179553D01*
X1714937Y5145582D01*
X1714936Y5145580D01*
X1705284Y5128024D01*
X1694610Y5111774D01*
X1682329Y5095939D01*
X1682324Y5095932D01*
X1663815Y5053162D01*
X1661245Y5047916D01*
X1638803Y5007094D01*
X1633822Y4987693D01*
X1627521Y4969290D01*
X1619562Y4950898D01*
X1619561Y4950895D01*
X1612271Y4904873D01*
X1611087Y4899154D01*
X1599501Y4854028D01*
X1599500Y4854018D01*
X1599500Y4833984D01*
X1597973Y4814585D01*
X1594840Y4794806D01*
X1594840Y4794805D01*
X1599225Y4748417D01*
X1599500Y4742579D01*
X1599500Y2298688D01*
X1579815Y2231649D01*
X1567650Y2215716D01*
X1492466Y2132216D01*
X1397821Y1968285D01*
X1397818Y1968278D01*
X1339327Y1788260D01*
X1339326Y1788256D01*
X1319540Y1600000D01*
X1339326Y1411744D01*
X1339327Y1411741D01*
X1397821Y1231715D01*
X1437246Y1163429D01*
X1453719Y1095529D01*
X1437247Y1039430D01*
X1396459Y968783D01*
X1337966Y788758D01*
X1337965Y788754D01*
X1318179Y600498D01*
X1337965Y412242D01*
X1337966Y412239D01*
X1396457Y232221D01*
X1396460Y232214D01*
X1491106Y68282D01*
X1573196Y-22888D01*
X1617768Y-72390D01*
X1770904Y-183650D01*
X1770909Y-183653D01*
X1943831Y-260644D01*
X1943836Y-260646D01*
X2128993Y-300002D01*
X2128994Y-300002D01*
X2318283Y-300002D01*
X2318285Y-300002D01*
X2503442Y-260646D01*
X2676369Y-183653D01*
X2829510Y-72390D01*
X2956172Y68282D01*
X2970802Y93622D01*
X3021368Y141837D01*
X3089975Y155061D01*
X3154840Y129093D01*
X3170339Y114594D01*
X3294129Y-22888D01*
X3447265Y-134148D01*
X3447270Y-134151D01*
X3626134Y-213788D01*
X3625351Y-215546D01*
X3675426Y-249778D01*
X3697373Y-289965D01*
X3722818Y-368277D01*
X3722821Y-368284D01*
X3817467Y-532216D01*
X3886740Y-609151D01*
X3944129Y-672888D01*
X4091999Y-780322D01*
X4134665Y-835652D01*
X4140644Y-905265D01*
X4111264Y-963612D01*
X4017466Y-1067785D01*
X3922821Y-1231715D01*
X3922818Y-1231722D01*
X3864327Y-1411740D01*
X3864326Y-1411744D01*
X3844540Y-1600000D01*
X3864326Y-1788256D01*
X3864327Y-1788259D01*
X3922818Y-1968277D01*
X3922821Y-1968284D01*
X4017467Y-2132216D01*
X4132333Y-2259787D01*
X4144129Y-2272888D01*
X4297265Y-2384148D01*
X4297270Y-2384151D01*
X4470192Y-2461142D01*
X4470197Y-2461144D01*
X4655354Y-2500500D01*
X4655355Y-2500500D01*
X4844644Y-2500500D01*
X4844646Y-2500500D01*
X5029803Y-2461144D01*
X5202730Y-2384151D01*
X5355871Y-2272888D01*
X5482533Y-2132216D01*
X5577179Y-1968284D01*
X5577183Y-1968270D01*
X5578069Y-1966283D01*
X5578895Y-1965310D01*
X5580428Y-1962656D01*
X5580913Y-1962936D01*
X5623317Y-1913044D01*
X5690165Y-1892719D01*
X5757389Y-1911761D01*
X5779032Y-1929032D01*
X6438681Y-2588681D01*
X6472166Y-2650004D01*
X6475000Y-2676362D01*
X6475000Y-11673638D01*
X6455315Y-11740677D01*
X6438681Y-11761319D01*
X5436319Y-12763681D01*
X5374996Y-12797166D01*
X5348638Y-12800000D01*
X2051362Y-12800000D01*
X1984323Y-12780315D01*
X1963681Y-12763681D01*
X1906070Y-12706070D01*
X1872585Y-12644747D01*
X1877569Y-12575055D01*
X1888867Y-12552932D01*
X1888737Y-12552858D01*
X1890260Y-12550204D01*
X1890531Y-12549675D01*
X1890775Y-12549307D01*
X1890777Y-12549305D01*
X1923022Y-12493147D01*
X1973538Y-12369948D01*
X1989940Y-12227005D01*
X1987945Y-12157164D01*
X1963411Y-12015391D01*
X1940529Y-11944967D01*
X1935142Y-11919624D01*
X1929186Y-11862955D01*
X1929186Y-11837036D01*
X1931286Y-11817055D01*
X1935141Y-11780372D01*
X1940529Y-11755026D01*
X1958135Y-11700843D01*
X1968675Y-11677168D01*
X1996162Y-11629562D01*
X2046662Y-11507645D01*
X2063275Y-11445645D01*
X2080500Y-11314811D01*
X2080500Y-9849000D01*
X2100185Y-9781961D01*
X2152989Y-9736206D01*
X2204500Y-9725000D01*
X3325000Y-9725000D01*
X3775000Y-9275000D01*
X3775000Y-3875000D01*
X3400000Y-3500000D01*
X3227374Y-3500000D01*
X3160335Y-3480315D01*
X3139693Y-3463681D01*
X3080204Y-3404192D01*
X2941774Y-3317210D01*
X2787455Y-3263212D01*
X2625004Y-3244909D01*
X2624996Y-3244909D01*
X2462544Y-3263212D01*
X2308225Y-3317210D01*
X2169795Y-3404192D01*
X2110307Y-3463681D01*
X2048984Y-3497166D01*
X2022626Y-3500000D01*
X2002374Y-3500000D01*
X1935335Y-3480315D01*
X1914693Y-3463681D01*
X1880204Y-3429192D01*
X1741774Y-3342210D01*
X1587455Y-3288212D01*
X1425004Y-3269909D01*
X1424996Y-3269909D01*
X1262544Y-3288212D01*
X1140954Y-3330758D01*
X1071175Y-3334319D01*
X1059046Y-3330758D01*
X937455Y-3288212D01*
X775004Y-3269909D01*
X774996Y-3269909D01*
X627547Y-3286522D01*
X558725Y-3274467D01*
X525983Y-3250983D01*
X-863681Y-1861319D01*
X-897166Y-1799996D01*
X-900000Y-1773638D01*
X-900000Y1225000D01*
X-2750886Y3075886D01*
X-2784371Y3137209D01*
X-2786046Y3146657D01*
X-2789930Y3174920D01*
X-2797079Y3191378D01*
X-2803820Y3211422D01*
X-2808067Y3228852D01*
X-2815228Y3241587D01*
X-2829761Y3267436D01*
X-2832586Y3273124D01*
X-2839415Y3288843D01*
X-2850220Y3313720D01*
X-2861546Y3327641D01*
X-2873444Y3345123D01*
X-2882236Y3360760D01*
X-2913528Y3392052D01*
X-2917785Y3396769D01*
X-2945722Y3431108D01*
X-2960387Y3441460D01*
X-2976559Y3455083D01*
X-6504093Y6982618D01*
X-6525180Y7005196D01*
X-6549320Y7031044D01*
X-6561736Y7038595D01*
X-6587139Y7054043D01*
X-6592390Y7057617D01*
X-6627659Y7084362D01*
X-6627658Y7084362D01*
X-6644358Y7090948D01*
X-6663284Y7100348D01*
X-6678620Y7109673D01*
X-6721242Y7121616D01*
X-6727260Y7123640D01*
X-6768435Y7139876D01*
X-6768444Y7139878D01*
X-6786284Y7141712D01*
X-6807049Y7145658D01*
X-6824331Y7150500D01*
X-6824335Y7150500D01*
X-6868594Y7150500D01*
X-6874936Y7150825D01*
X-6902573Y7153667D01*
X-6918971Y7155352D01*
X-6918976Y7155352D01*
X-6936656Y7152303D01*
X-6957724Y7150500D01*
X-7174138Y7150500D01*
X-7241177Y7170185D01*
X-7261819Y7186819D01*
X-7400319Y7325319D01*
X-7433804Y7386642D01*
X-7428820Y7456334D01*
X-7386948Y7512267D01*
X-7321484Y7536684D01*
X-7312638Y7537000D01*
X-2706567Y7537000D01*
X-2639528Y7517315D01*
X-2601574Y7478972D01*
X-2595808Y7469796D01*
X-2480204Y7354192D01*
X-2341775Y7267211D01*
X-2187461Y7213214D01*
X-2187458Y7213214D01*
X-2187456Y7213213D01*
X-2025004Y7194909D01*
X-2025000Y7194909D01*
X-2024996Y7194909D01*
X-1862545Y7213213D01*
X-1862544Y7213214D01*
X-1862539Y7213214D01*
X-1708225Y7267211D01*
X-1569796Y7354192D01*
X-1454192Y7469796D01*
X-1367211Y7608225D01*
X-1358976Y7631759D01*
X-1331088Y7711455D01*
X-1290367Y7768231D01*
X-1225414Y7793978D01*
X-1214047Y7794500D01*
X3725500Y7794500D01*
X3792539Y7774815D01*
G37*
%TD.AperFunction*%
%TD*%
%TA.AperFunction,Conductor*%
%TO.N,+3V3*%
G36*
X-7754059Y10480315D02*
G01*
X-7708304Y10427511D01*
X-7698360Y10358353D01*
X-7704056Y10335052D01*
X-7709846Y10318504D01*
X-7711788Y10312953D01*
X-7730091Y10150501D01*
X-7730091Y10150494D01*
X-7711788Y9988042D01*
X-7657790Y9833723D01*
X-7657789Y9833722D01*
X-7570808Y9695293D01*
X-7455204Y9579689D01*
X-7316775Y9492708D01*
X-7162461Y9438711D01*
X-7162458Y9438711D01*
X-7162456Y9438710D01*
X-7000004Y9420406D01*
X-7000000Y9420406D01*
X-6999996Y9420406D01*
X-6837545Y9438710D01*
X-6837544Y9438711D01*
X-6837539Y9438711D01*
X-6683225Y9492708D01*
X-6544796Y9579689D01*
X-6429192Y9695293D01*
X-6342211Y9833722D01*
X-6288214Y9988036D01*
X-6287019Y9998638D01*
X-6269909Y10150494D01*
X-6269909Y10150501D01*
X-6288213Y10312954D01*
X-6295943Y10335047D01*
X-6299504Y10404826D01*
X-6264774Y10465453D01*
X-6202780Y10497679D01*
X-6178901Y10500000D01*
X6448638Y10500000D01*
X6515677Y10480315D01*
X6536319Y10463681D01*
X6913681Y10086319D01*
X6947166Y10024996D01*
X6950000Y9998638D01*
X6950000Y8676362D01*
X6930315Y8609323D01*
X6913681Y8588681D01*
X6661319Y8336319D01*
X6599996Y8302834D01*
X6573638Y8300000D01*
X-1335264Y8300000D01*
X-1402303Y8319685D01*
X-1440258Y8358028D01*
X-1454192Y8380204D01*
X-1569796Y8495808D01*
X-1625297Y8530682D01*
X-1708226Y8582790D01*
X-1862545Y8636788D01*
X-2024996Y8655091D01*
X-2025002Y8655091D01*
X-2051991Y8652050D01*
X-2082060Y8652331D01*
X-2163099Y8663000D01*
X-2169229Y8663807D01*
X-2169234Y8663808D01*
X-2199997Y8667858D01*
X-2200001Y8667858D01*
X-2218435Y8665431D01*
X-2232867Y8663531D01*
X-2240966Y8663000D01*
X-7588538Y8663000D01*
X-7596638Y8663531D01*
X-7611070Y8665431D01*
X-7629503Y8667858D01*
X-7629508Y8667858D01*
X-7660321Y8663802D01*
X-7660337Y8663799D01*
X-7776475Y8648510D01*
X-7776477Y8648509D01*
X-7913431Y8591781D01*
X-7993056Y8530682D01*
X-8031040Y8501537D01*
X-8051222Y8475236D01*
X-8056574Y8469134D01*
X-8225708Y8300000D01*
X-8875000Y8300000D01*
X-10162500Y9587500D01*
X-9286319Y10463681D01*
X-9224996Y10497166D01*
X-9198638Y10500000D01*
X-7821098Y10500000D01*
X-7754059Y10480315D01*
G37*
%TD.AperFunction*%
%TD*%
%TA.AperFunction,Conductor*%
%TO.N,+3V3*%
G36*
X-8875000Y8300000D02*
G01*
X-8225708Y8300000D01*
X-8851303Y7674404D01*
X-8912626Y7640919D01*
X-8955167Y7639145D01*
X-8963405Y7640230D01*
X-8983364Y7642857D01*
X-8983366Y7642857D01*
X-8983367Y7642857D01*
X-9017822Y7638321D01*
X-9017840Y7638319D01*
X-9020263Y7638000D01*
X-9020265Y7638000D01*
X-9043347Y7634962D01*
X-9130335Y7623510D01*
X-9130340Y7623508D01*
X-9227181Y7583395D01*
X-9267292Y7566781D01*
X-9267296Y7566779D01*
X-9355372Y7499194D01*
X-9384900Y7476537D01*
X-9405081Y7450237D01*
X-9410433Y7444134D01*
X-9656634Y7197933D01*
X-9662737Y7192581D01*
X-9689036Y7172401D01*
X-9711695Y7142871D01*
X-9779421Y7054611D01*
X-9780061Y7052908D01*
X-9836008Y6917840D01*
X-9836010Y6917835D01*
X-9846679Y6836786D01*
X-9855358Y6770865D01*
X-9851031Y6738001D01*
X-9850500Y6729899D01*
X-9850500Y5697065D01*
X-9870185Y5630026D01*
X-9886819Y5609384D01*
X-12819134Y2677069D01*
X-12825237Y2671717D01*
X-12851536Y2651537D01*
X-12874195Y2622007D01*
X-12941780Y2533931D01*
X-12946813Y2521777D01*
X-12950639Y2512539D01*
X-12981426Y2438214D01*
X-12998509Y2396972D01*
X-12998510Y2396971D01*
X-13013000Y2286901D01*
X-13017858Y2250002D01*
X-13017858Y2250001D01*
X-13013531Y2217137D01*
X-13013000Y2209035D01*
X-13013000Y940968D01*
X-13013531Y932866D01*
X-13017858Y900001D01*
X-13017858Y899998D01*
X-13013620Y867806D01*
X-13013619Y867799D01*
X-13013000Y863099D01*
X-12998509Y753028D01*
X-12966188Y675000D01*
X-12941779Y616070D01*
X-12914171Y580091D01*
X-12889560Y548018D01*
X-12851539Y498467D01*
X-12851538Y498466D01*
X-12851536Y498464D01*
X-12836262Y486744D01*
X-12825236Y478283D01*
X-12819141Y472939D01*
X-12429427Y83225D01*
X-12111319Y-234883D01*
X-12077834Y-296206D01*
X-12075000Y-322564D01*
X-12075000Y-1425000D01*
X-11025000Y-2475000D01*
X-9922564Y-2475000D01*
X-9855525Y-2494685D01*
X-9834883Y-2511319D01*
X-9738167Y-2608035D01*
X-9704682Y-2669358D01*
X-9709666Y-2739050D01*
X-9751538Y-2794983D01*
X-9759875Y-2800709D01*
X-9805202Y-2829190D01*
X-9805205Y-2829192D01*
X-9920808Y-2944795D01*
X-10007790Y-3083225D01*
X-10061788Y-3237544D01*
X-10080091Y-3399996D01*
X-10080091Y-3400003D01*
X-10061788Y-3562455D01*
X-10007790Y-3716774D01*
X-9958694Y-3794909D01*
X-9920808Y-3855204D01*
X-9805204Y-3970808D01*
X-9666775Y-4057789D01*
X-9512461Y-4111786D01*
X-9512458Y-4111786D01*
X-9512456Y-4111787D01*
X-9350004Y-4130091D01*
X-9350000Y-4130091D01*
X-9349996Y-4130091D01*
X-9187545Y-4111787D01*
X-9187544Y-4111786D01*
X-9187539Y-4111786D01*
X-9033225Y-4057789D01*
X-8894796Y-3970808D01*
X-8779192Y-3855204D01*
X-8724680Y-3768447D01*
X-8672349Y-3722158D01*
X-8660651Y-3717382D01*
X-8589749Y-3692573D01*
X-8451320Y-3605592D01*
X-8335716Y-3489988D01*
X-8275178Y-3393641D01*
X-8222846Y-3347352D01*
X-8194122Y-3339237D01*
X-8194327Y-3338335D01*
X-8187543Y-3336786D01*
X-8187539Y-3336786D01*
X-8033225Y-3282789D01*
X-7894796Y-3195808D01*
X-7779192Y-3080204D01*
X-7692211Y-2941775D01*
X-7638214Y-2787461D01*
X-7635024Y-2759148D01*
X-7619909Y-2625003D01*
X-7619909Y-2624998D01*
X-7621274Y-2612885D01*
X-7609220Y-2544063D01*
X-7561871Y-2492683D01*
X-7498054Y-2475000D01*
X-4955749Y-2475000D01*
X-4888710Y-2494685D01*
X-4863599Y-2516028D01*
X-4744871Y-2647888D01*
X-4591735Y-2759148D01*
X-4591730Y-2759151D01*
X-4418808Y-2836142D01*
X-4418803Y-2836144D01*
X-4233646Y-2875500D01*
X-4233645Y-2875500D01*
X-4044356Y-2875500D01*
X-4044354Y-2875500D01*
X-3859197Y-2836144D01*
X-3686270Y-2759151D01*
X-3615324Y-2707605D01*
X-3549519Y-2684125D01*
X-3481465Y-2699950D01*
X-3454758Y-2720242D01*
X-3075146Y-3099854D01*
X-3041661Y-3161177D01*
X-3046645Y-3230869D01*
X-3088517Y-3286802D01*
X-3096855Y-3292529D01*
X-3155205Y-3329192D01*
X-3270808Y-3444795D01*
X-3357790Y-3583225D01*
X-3411788Y-3737544D01*
X-3430091Y-3899996D01*
X-3430091Y-3900003D01*
X-3411788Y-4062455D01*
X-3357790Y-4216774D01*
X-3336558Y-4250564D01*
X-3270808Y-4355204D01*
X-3155204Y-4470808D01*
X-3016775Y-4557789D01*
X-2862461Y-4611786D01*
X-2862458Y-4611786D01*
X-2862456Y-4611787D01*
X-2700004Y-4630091D01*
X-2700000Y-4630091D01*
X-2699996Y-4630091D01*
X-2537545Y-4611787D01*
X-2537544Y-4611786D01*
X-2537539Y-4611786D01*
X-2383225Y-4557789D01*
X-2244796Y-4470808D01*
X-2129192Y-4355204D01*
X-2092529Y-4296854D01*
X-2040194Y-4250564D01*
X-1971141Y-4239916D01*
X-1907292Y-4268291D01*
X-1899854Y-4275146D01*
X-1891933Y-4283067D01*
X-1874620Y-4304776D01*
X-1795808Y-4430204D01*
X-1680204Y-4545808D01*
X-1554775Y-4624621D01*
X-1533069Y-4641931D01*
X-449110Y-5725890D01*
X-415625Y-5787213D01*
X-420609Y-5856905D01*
X-462481Y-5912838D01*
X-511009Y-5934861D01*
X-529804Y-5938856D01*
X-529808Y-5938857D01*
X-702730Y-6015848D01*
X-702735Y-6015851D01*
X-855871Y-6127111D01*
X-982534Y-6267785D01*
X-1077179Y-6431715D01*
X-1077182Y-6431722D01*
X-1131322Y-6598350D01*
X-1135674Y-6611744D01*
X-1155460Y-6800000D01*
X-1135674Y-6988256D01*
X-1135673Y-6988259D01*
X-1077182Y-7168277D01*
X-1077179Y-7168284D01*
X-982533Y-7332216D01*
X-891976Y-7432789D01*
X-855871Y-7472888D01*
X-702735Y-7584148D01*
X-702730Y-7584151D01*
X-529808Y-7661142D01*
X-529803Y-7661144D01*
X-344646Y-7700500D01*
X-344645Y-7700500D01*
X-155356Y-7700500D01*
X-155354Y-7700500D01*
X29803Y-7661144D01*
X202730Y-7584151D01*
X355871Y-7472888D01*
X482533Y-7332216D01*
X577179Y-7168284D01*
X616694Y-7046668D01*
X656131Y-6988994D01*
X720490Y-6961795D01*
X789336Y-6973709D01*
X822306Y-6997306D01*
X1538681Y-7713681D01*
X1572166Y-7775004D01*
X1575000Y-7801362D01*
X1575000Y-11314811D01*
X1558387Y-11376811D01*
X1497821Y-11481714D01*
X1449177Y-11631426D01*
X1439326Y-11661744D01*
X1419540Y-11850000D01*
X1439326Y-12038256D01*
X1439327Y-12038259D01*
X1482651Y-12171598D01*
X1484646Y-12241439D01*
X1452401Y-12297597D01*
X1036319Y-12713681D01*
X974996Y-12747166D01*
X948638Y-12750000D01*
X-2048638Y-12750000D01*
X-2115677Y-12730315D01*
X-2136319Y-12713681D01*
X-3013681Y-11836319D01*
X-3047166Y-11774996D01*
X-3050000Y-11748638D01*
X-3050000Y-7596625D01*
X-3030315Y-7529586D01*
X-2977511Y-7483831D01*
X-2966954Y-7479583D01*
X-2947821Y-7472888D01*
X-2833225Y-7432789D01*
X-2694796Y-7345808D01*
X-2579192Y-7230204D01*
X-2492211Y-7091775D01*
X-2438214Y-6937461D01*
X-2435024Y-6909151D01*
X-2419909Y-6775003D01*
X-2419909Y-6774996D01*
X-2438213Y-6612544D01*
X-2438214Y-6612542D01*
X-2438214Y-6612539D01*
X-2492211Y-6458225D01*
X-2579192Y-6319796D01*
X-2694796Y-6204192D01*
X-2814143Y-6129201D01*
X-2833226Y-6117210D01*
X-2987545Y-6063212D01*
X-3149996Y-6044909D01*
X-3150004Y-6044909D01*
X-3312456Y-6063212D01*
X-3466775Y-6117210D01*
X-3605205Y-6204192D01*
X-3662825Y-6261813D01*
X-3724148Y-6295298D01*
X-3793840Y-6290314D01*
X-3838187Y-6261813D01*
X-4900000Y-5200000D01*
X-8831105Y-5200000D01*
X-8889558Y-5185358D01*
X-9042045Y-5103852D01*
X-9042048Y-5103851D01*
X-9042050Y-5103850D01*
X-9230645Y-5046640D01*
X-9230648Y-5046639D01*
X-9426777Y-5027323D01*
X-9622907Y-5046639D01*
X-9699244Y-5069796D01*
X-9811504Y-5103850D01*
X-9811505Y-5103850D01*
X-9811510Y-5103852D01*
X-9963996Y-5185358D01*
X-10022449Y-5200000D01*
X-10482139Y-5200000D01*
X-10549178Y-5180315D01*
X-10586649Y-5137954D01*
X-10588506Y-5139121D01*
X-10679193Y-4994795D01*
X-10794796Y-4879192D01*
X-10933226Y-4792210D01*
X-11087545Y-4738212D01*
X-11249996Y-4719909D01*
X-11249997Y-4719909D01*
X-11249999Y-4719909D01*
X-11250000Y-4719909D01*
X-11268781Y-4722025D01*
X-11285113Y-4723865D01*
X-11353934Y-4711809D01*
X-11386675Y-4688325D01*
X-13714215Y-2360785D01*
X-13744465Y-2311422D01*
X-13803139Y-2130843D01*
X-13803140Y-2130842D01*
X-13803141Y-2130837D01*
X-13897787Y-1966905D01*
X-14024449Y-1826233D01*
X-14024450Y-1826232D01*
X-14177586Y-1714972D01*
X-14177588Y-1714971D01*
X-14295830Y-1662325D01*
X-14349066Y-1617074D01*
X-14369387Y-1550225D01*
X-14350341Y-1483001D01*
X-14311367Y-1444054D01*
X-14194796Y-1370808D01*
X-14079192Y-1255204D01*
X-13992211Y-1116775D01*
X-13938214Y-962461D01*
X-13934750Y-931716D01*
X-13919909Y-800003D01*
X-13919909Y-799996D01*
X-13938213Y-637544D01*
X-13938214Y-637542D01*
X-13938214Y-637539D01*
X-13992211Y-483225D01*
X-13992211Y-483224D01*
X-14028369Y-425679D01*
X-14047369Y-358442D01*
X-14040417Y-318754D01*
X-14038214Y-312461D01*
X-14023701Y-183653D01*
X-14019909Y-150003D01*
X-14019909Y-149996D01*
X-14038213Y12456D01*
X-14038214Y12458D01*
X-14038214Y12461D01*
X-14092211Y166775D01*
X-14179192Y305204D01*
X-14294796Y420808D01*
X-14377749Y472931D01*
X-14433226Y507790D01*
X-14587545Y561788D01*
X-14749996Y580091D01*
X-14750004Y580091D01*
X-14912456Y561788D01*
X-15040882Y516850D01*
X-15110661Y513289D01*
X-15171288Y548018D01*
X-15198877Y592937D01*
X-15242210Y716773D01*
X-15246052Y722888D01*
X-15329192Y855204D01*
X-15338681Y864693D01*
X-15372166Y926016D01*
X-15375000Y952374D01*
X-15375000Y997626D01*
X-15355315Y1064665D01*
X-15338681Y1085307D01*
X-15335132Y1088856D01*
X-15329192Y1094796D01*
X-15242211Y1233225D01*
X-15188214Y1387539D01*
X-15188138Y1388214D01*
X-15169909Y1549997D01*
X-15169909Y1550004D01*
X-15188213Y1712458D01*
X-15204228Y1758225D01*
X-15238886Y1857271D01*
X-15242447Y1927048D01*
X-15238891Y1939162D01*
X-15213214Y2012539D01*
X-15213213Y2012547D01*
X-15194909Y2174997D01*
X-15194909Y2175004D01*
X-15213213Y2337454D01*
X-15213214Y2337455D01*
X-15213214Y2337461D01*
X-15237111Y2405753D01*
X-15240671Y2475528D01*
X-15205942Y2536156D01*
X-15161027Y2563744D01*
X-15008225Y2617211D01*
X-14869796Y2704192D01*
X-14754192Y2819796D01*
X-14680548Y2937001D01*
X-14628215Y2983291D01*
X-14616521Y2988065D01*
X-14533225Y3017211D01*
X-14394796Y3104192D01*
X-14279192Y3219796D01*
X-14192211Y3358225D01*
X-14192211Y3358228D01*
X-14191457Y3359426D01*
X-14139122Y3405717D01*
X-14127415Y3410496D01*
X-14108228Y3417210D01*
X-14108225Y3417211D01*
X-14086108Y3431108D01*
X-13969796Y3504192D01*
X-13854192Y3619796D01*
X-13767211Y3758225D01*
X-13764190Y3764498D01*
X-13761965Y3763427D01*
X-13727944Y3810874D01*
X-13692563Y3830196D01*
X-13658225Y3842211D01*
X-13519796Y3929192D01*
X-13404192Y4044796D01*
X-13317211Y4183225D01*
X-13263214Y4337539D01*
X-13244909Y4500000D01*
X-13252786Y4569909D01*
X-13263213Y4662456D01*
X-13263214Y4662458D01*
X-13263214Y4662461D01*
X-13317211Y4816775D01*
X-13404192Y4955204D01*
X-13519796Y5070808D01*
X-13642579Y5147958D01*
X-13658226Y5157790D01*
X-13812545Y5211788D01*
X-13974996Y5230091D01*
X-13975004Y5230091D01*
X-14137456Y5211788D01*
X-14241133Y5175510D01*
X-14310912Y5171949D01*
X-14371539Y5206678D01*
X-14403766Y5268672D01*
X-14397360Y5338247D01*
X-14369770Y5380231D01*
X-12475684Y7274317D01*
X-12414365Y7307799D01*
X-12344673Y7302815D01*
X-12300326Y7274314D01*
X-12255204Y7229192D01*
X-12116775Y7142211D01*
X-11962461Y7088214D01*
X-11962458Y7088214D01*
X-11962456Y7088213D01*
X-11800004Y7069909D01*
X-11800000Y7069909D01*
X-11799996Y7069909D01*
X-11637545Y7088213D01*
X-11637544Y7088214D01*
X-11637539Y7088214D01*
X-11483225Y7142211D01*
X-11344796Y7229192D01*
X-11229192Y7344796D01*
X-11142211Y7483225D01*
X-11088214Y7637539D01*
X-11087833Y7640919D01*
X-11069909Y7799997D01*
X-11069909Y7800004D01*
X-11088213Y7962456D01*
X-11088214Y7962458D01*
X-11088214Y7962461D01*
X-11142211Y8116775D01*
X-11229192Y8255204D01*
X-11274314Y8300326D01*
X-11307799Y8361649D01*
X-11302815Y8431341D01*
X-11274318Y8475683D01*
X-10162500Y9587500D01*
X-8875000Y8300000D01*
G37*
%TD.AperFunction*%
%TD*%
M02*
