M48
; DRILL file {KiCad 7.0.8} date 2023 October 26, Thursday 11:06:21
; FORMAT={-:-/ absolute / inch / decimal}
; #@! TF.CreationDate,2023-10-26T11:06:21-04:00
; #@! TF.GenerationSoftware,Kicad,Pcbnew,7.0.8
; #@! TF.FileFunction,Plated,1,4,PTH
FMAT,2
INCH
; #@! TA.AperFunction,Plated,PTH,ViaDrill
T1C0.0079
; #@! TA.AperFunction,Plated,PTH,ComponentDrill
T2C0.0118
; #@! TA.AperFunction,Plated,PTH,ViaDrill
T3C0.0157
; #@! TA.AperFunction,Plated,PTH,ComponentDrill
T4C0.0276
; #@! TA.AperFunction,Plated,PTH,ComponentDrill
T5C0.0354
; #@! TA.AperFunction,Plated,PTH,ComponentDrill
T6C0.0374
; #@! TA.AperFunction,Plated,PTH,ComponentDrill
T7C0.0413
; #@! TA.AperFunction,Plated,PTH,ComponentDrill
T8C0.1220
%
G90
G05
T1
X-0.626Y0.0236
X-0.623Y0.0679
X-0.6186Y0.1344
X-0.6127Y-0.0172
X-0.6043Y0.0344
X-0.5925Y0.001
X-0.5856Y0.1437
X-0.5679Y0.1604
X-0.5601Y-0.0068
X-0.5502Y0.1772
X-0.4931Y0.3406
X-0.3799Y-0.3484
X-0.3504Y-0.0974
X-0.3465Y-0.3799
X-0.3356Y0.247
X-0.3169Y0.2264
X-0.315Y0.2884
X-0.2992Y0.2057
X-0.2844Y-0.0886
X-0.2835Y-0.0423
X-0.2736Y0.2047
X-0.2657Y-0.0207
X-0.2618Y-0.0876
X-0.2185Y0.1378
X-0.2067Y0.2244
X-0.1939Y0.1378
X-0.185Y0.2077
X-0.171Y0.1378
X-0.124Y-0.2667
X-0.0384Y-0.1722
X-0.0128Y0.2549
X-0.0098Y-0.1713
X0.0187Y-0.1722
X0.0453Y-0.1722
X0.0728Y-0.1722
X0.1142Y-0.1575
X0.136Y-0.1358
X0.1663Y0.1476
X0.188Y0.1683
X0.2057Y0.2559
X0.2057Y0.187
X0.2234Y0.2052
X0.3602Y-0.0226
X0.4065Y0.0177
X0.4331Y0.0177
X0.4567Y0.0167
T2
X-0.1457Y0.6604
X-0.0472Y0.6604
X0.0512Y0.6604
X0.1496Y0.6604
T3
X-0.6142Y0.2736
X-0.6024Y-0.314
X-0.5561Y-0.2805
X-0.5256Y-0.2067
X-0.5207Y0.2913
X-0.5069Y-0.1075
X-0.4587Y0.0778
X-0.4541Y-0.1263
X-0.442Y-0.3885
X-0.4085Y0.124
X-0.4085Y0.0768
X-0.4085Y0.0266
X-0.3968Y-0.4339
X-0.3593Y0.0778
X-0.3474Y0.3524
X-0.3297Y-0.2776
X-0.2865Y-0.3382
X-0.2638Y0.2992
X-0.247Y0.6398
X-0.2461Y0.56
X-0.2461Y0.4793
X-0.2461Y-0.6545
X-0.2146Y0.3521
X-0.2124Y-0.251
X-0.2116Y-0.0394
X-0.186Y-0.3504
X-0.1728Y-0.0089
X-0.126Y0.1329
X-0.0945Y-0.6506
X-0.0935Y-0.5748
X-0.0866Y-0.4409
X-0.0787Y0.2943
X-0.0768Y-0.0512
X-0.0669Y-0.4783
X-0.0443Y-0.4409
X-0.0295Y0.3501
X-0.0246Y-0.4783
X-0.0118Y-0.3425
X-0.003Y-0.2402
X0.0Y-0.4409
X0.0197Y-0.4783
X0.061Y-0.2116
X0.0875Y0.0187
X0.0876Y0.063
X0.0915Y-0.4665
X0.124Y0.2909
X0.1368Y-0.4291
X0.1368Y-0.4656
X0.1535Y0.0256
X0.1683Y0.1083
X0.1772Y0.3494
X0.1791Y0.0
X0.2146Y0.0069
X0.2392Y0.2825
X0.2392Y-0.0659
X0.2461Y0.6398
X0.247Y0.561
X0.2483Y0.4793
X0.2608Y0.1102
X0.2953Y-0.1713
X0.3022Y0.1083
X0.3022Y0.0679
X0.3031Y0.1486
X0.3415Y0.1073
X0.3553Y-0.1722
X0.3661Y-0.2451
X0.3878Y-0.1969
X0.3917Y-0.1565
X0.3937Y-0.0679
X0.5364Y0.2598
X0.5374Y0.2116
X0.5374Y0.1644
X0.5374Y0.1191
X0.5856Y-0.2648
X0.5856Y-0.3002
X0.5856Y-0.3337
X0.6152Y0.188
X0.6161Y0.1417
X0.623Y-0.1289
X0.6339Y-0.3327
X0.6348Y-0.2648
X0.6348Y-0.2992
T4
X-0.4682Y-0.2598
T5
X-0.4904Y-0.3572
X-0.3707Y-0.2375
X-0.3568Y-0.4909
X-0.2371Y-0.3712
T6
X-0.0108Y-0.5797
X0.0876Y-0.5797
X0.186Y-0.5797
X0.2844Y-0.5797
T7
X-0.1457Y0.4783
X-0.0472Y0.4783
X0.0512Y0.4783
X0.1496Y0.4783
T8
X-0.6102Y0.6102
X-0.6102Y-0.6102
X0.6102Y0.6102
X0.6102Y-0.6102
T6
G00X-0.1516Y0.5866
M15
G01X-0.1398Y0.5866
M16
G05
G00X-0.0531Y0.5866
M15
G01X-0.0413Y0.5866
M16
G05
G00X0.0453Y0.5866
M15
G01X0.0571Y0.5866
M16
G05
G00X0.1437Y0.5866
M15
G01X0.1555Y0.5866
M16
G05
T0
M30
