%TF.GenerationSoftware,KiCad,Pcbnew,7.0.8*%
%TF.CreationDate,2023-11-08T18:05:51-05:00*%
%TF.ProjectId,lemon-pepper,6c656d6f-6e2d-4706-9570-7065722e6b69,rev?*%
%TF.SameCoordinates,PX8b85c60PY52f2218*%
%TF.FileFunction,Drillmap*%
%TF.FilePolarity,Positive*%
%FSLAX45Y45*%
G04 Gerber Fmt 4.5, Leading zero omitted, Abs format (unit mm)*
G04 Created by KiCad (PCBNEW 7.0.8) date 2023-11-08 18:05:51*
%MOMM*%
%LPD*%
G01*
G04 APERTURE LIST*
%ADD10C,0.200000*%
%ADD11C,0.099060*%
G04 APERTURE END LIST*
D10*
D11*
X-1021363Y-1518935D02*
X-922303Y-1617995D01*
X-922303Y-1518935D02*
X-1021363Y-1617995D01*
X-542083Y-1322271D02*
X-443023Y-1421331D01*
X-443023Y-1322271D02*
X-542083Y-1421331D01*
X-503310Y-1521738D02*
X-404250Y-1620798D01*
X-404250Y-1521738D02*
X-503310Y-1620798D01*
D10*
X-1840023Y-2412284D02*
X-1840023Y-2212284D01*
X-1840023Y-2212284D02*
X-1792404Y-2212284D01*
X-1792404Y-2212284D02*
X-1763833Y-2221808D01*
X-1763833Y-2221808D02*
X-1744785Y-2240855D01*
X-1744785Y-2240855D02*
X-1735261Y-2259903D01*
X-1735261Y-2259903D02*
X-1725737Y-2297998D01*
X-1725737Y-2297998D02*
X-1725737Y-2326570D01*
X-1725737Y-2326570D02*
X-1735261Y-2364665D01*
X-1735261Y-2364665D02*
X-1744785Y-2383712D01*
X-1744785Y-2383712D02*
X-1763833Y-2402760D01*
X-1763833Y-2402760D02*
X-1792404Y-2412284D01*
X-1792404Y-2412284D02*
X-1840023Y-2412284D01*
X-1640023Y-2412284D02*
X-1640023Y-2278950D01*
X-1640023Y-2317046D02*
X-1630499Y-2297998D01*
X-1630499Y-2297998D02*
X-1620976Y-2288474D01*
X-1620976Y-2288474D02*
X-1601928Y-2278950D01*
X-1601928Y-2278950D02*
X-1582880Y-2278950D01*
X-1516214Y-2412284D02*
X-1516214Y-2278950D01*
X-1516214Y-2212284D02*
X-1525737Y-2221808D01*
X-1525737Y-2221808D02*
X-1516214Y-2231331D01*
X-1516214Y-2231331D02*
X-1506690Y-2221808D01*
X-1506690Y-2221808D02*
X-1516214Y-2212284D01*
X-1516214Y-2212284D02*
X-1516214Y-2231331D01*
X-1392404Y-2412284D02*
X-1411452Y-2402760D01*
X-1411452Y-2402760D02*
X-1420976Y-2383712D01*
X-1420976Y-2383712D02*
X-1420976Y-2212284D01*
X-1287642Y-2412284D02*
X-1306690Y-2402760D01*
X-1306690Y-2402760D02*
X-1316214Y-2383712D01*
X-1316214Y-2383712D02*
X-1316214Y-2212284D01*
X-1059071Y-2412284D02*
X-1059071Y-2212284D01*
X-1059071Y-2212284D02*
X-992404Y-2355141D01*
X-992404Y-2355141D02*
X-925737Y-2212284D01*
X-925737Y-2212284D02*
X-925737Y-2412284D01*
X-744785Y-2412284D02*
X-744785Y-2307522D01*
X-744785Y-2307522D02*
X-754309Y-2288474D01*
X-754309Y-2288474D02*
X-773356Y-2278950D01*
X-773356Y-2278950D02*
X-811452Y-2278950D01*
X-811452Y-2278950D02*
X-830499Y-2288474D01*
X-744785Y-2402760D02*
X-763833Y-2412284D01*
X-763833Y-2412284D02*
X-811452Y-2412284D01*
X-811452Y-2412284D02*
X-830499Y-2402760D01*
X-830499Y-2402760D02*
X-840023Y-2383712D01*
X-840023Y-2383712D02*
X-840023Y-2364665D01*
X-840023Y-2364665D02*
X-830499Y-2345617D01*
X-830499Y-2345617D02*
X-811452Y-2336093D01*
X-811452Y-2336093D02*
X-763833Y-2336093D01*
X-763833Y-2336093D02*
X-744785Y-2326570D01*
X-649547Y-2278950D02*
X-649547Y-2478950D01*
X-649547Y-2288474D02*
X-630499Y-2278950D01*
X-630499Y-2278950D02*
X-592404Y-2278950D01*
X-592404Y-2278950D02*
X-573357Y-2288474D01*
X-573357Y-2288474D02*
X-563833Y-2297998D01*
X-563833Y-2297998D02*
X-554309Y-2317046D01*
X-554309Y-2317046D02*
X-554309Y-2374189D01*
X-554309Y-2374189D02*
X-563833Y-2393236D01*
X-563833Y-2393236D02*
X-573357Y-2402760D01*
X-573357Y-2402760D02*
X-592404Y-2412284D01*
X-592404Y-2412284D02*
X-630499Y-2412284D01*
X-630499Y-2412284D02*
X-649547Y-2402760D01*
X-468595Y-2393236D02*
X-459071Y-2402760D01*
X-459071Y-2402760D02*
X-468595Y-2412284D01*
X-468595Y-2412284D02*
X-478118Y-2402760D01*
X-478118Y-2402760D02*
X-468595Y-2393236D01*
X-468595Y-2393236D02*
X-468595Y-2412284D01*
X-468595Y-2288474D02*
X-459071Y-2297998D01*
X-459071Y-2297998D02*
X-468595Y-2307522D01*
X-468595Y-2307522D02*
X-478118Y-2297998D01*
X-478118Y-2297998D02*
X-468595Y-2288474D01*
X-468595Y-2288474D02*
X-468595Y-2307522D01*
D11*
X-2199860Y-2691270D02*
X-2100800Y-2790330D01*
X-2100800Y-2691270D02*
X-2199860Y-2790330D01*
D10*
X-1801928Y-2632284D02*
X-1782880Y-2632284D01*
X-1782880Y-2632284D02*
X-1763833Y-2641808D01*
X-1763833Y-2641808D02*
X-1754309Y-2651331D01*
X-1754309Y-2651331D02*
X-1744785Y-2670379D01*
X-1744785Y-2670379D02*
X-1735261Y-2708474D01*
X-1735261Y-2708474D02*
X-1735261Y-2756093D01*
X-1735261Y-2756093D02*
X-1744785Y-2794189D01*
X-1744785Y-2794189D02*
X-1754309Y-2813236D01*
X-1754309Y-2813236D02*
X-1763833Y-2822760D01*
X-1763833Y-2822760D02*
X-1782880Y-2832284D01*
X-1782880Y-2832284D02*
X-1801928Y-2832284D01*
X-1801928Y-2832284D02*
X-1820976Y-2822760D01*
X-1820976Y-2822760D02*
X-1830499Y-2813236D01*
X-1830499Y-2813236D02*
X-1840023Y-2794189D01*
X-1840023Y-2794189D02*
X-1849547Y-2756093D01*
X-1849547Y-2756093D02*
X-1849547Y-2708474D01*
X-1849547Y-2708474D02*
X-1840023Y-2670379D01*
X-1840023Y-2670379D02*
X-1830499Y-2651331D01*
X-1830499Y-2651331D02*
X-1820976Y-2641808D01*
X-1820976Y-2641808D02*
X-1801928Y-2632284D01*
X-1649547Y-2813236D02*
X-1640023Y-2822760D01*
X-1640023Y-2822760D02*
X-1649547Y-2832284D01*
X-1649547Y-2832284D02*
X-1659071Y-2822760D01*
X-1659071Y-2822760D02*
X-1649547Y-2813236D01*
X-1649547Y-2813236D02*
X-1649547Y-2832284D01*
X-1544785Y-2832284D02*
X-1506690Y-2832284D01*
X-1506690Y-2832284D02*
X-1487642Y-2822760D01*
X-1487642Y-2822760D02*
X-1478118Y-2813236D01*
X-1478118Y-2813236D02*
X-1459071Y-2784665D01*
X-1459071Y-2784665D02*
X-1449547Y-2746570D01*
X-1449547Y-2746570D02*
X-1449547Y-2670379D01*
X-1449547Y-2670379D02*
X-1459071Y-2651331D01*
X-1459071Y-2651331D02*
X-1468595Y-2641808D01*
X-1468595Y-2641808D02*
X-1487642Y-2632284D01*
X-1487642Y-2632284D02*
X-1525737Y-2632284D01*
X-1525737Y-2632284D02*
X-1544785Y-2641808D01*
X-1544785Y-2641808D02*
X-1554309Y-2651331D01*
X-1554309Y-2651331D02*
X-1563833Y-2670379D01*
X-1563833Y-2670379D02*
X-1563833Y-2717998D01*
X-1563833Y-2717998D02*
X-1554309Y-2737046D01*
X-1554309Y-2737046D02*
X-1544785Y-2746570D01*
X-1544785Y-2746570D02*
X-1525737Y-2756093D01*
X-1525737Y-2756093D02*
X-1487642Y-2756093D01*
X-1487642Y-2756093D02*
X-1468595Y-2746570D01*
X-1468595Y-2746570D02*
X-1459071Y-2737046D01*
X-1459071Y-2737046D02*
X-1449547Y-2717998D01*
X-1354309Y-2832284D02*
X-1316214Y-2832284D01*
X-1316214Y-2832284D02*
X-1297166Y-2822760D01*
X-1297166Y-2822760D02*
X-1287642Y-2813236D01*
X-1287642Y-2813236D02*
X-1268595Y-2784665D01*
X-1268595Y-2784665D02*
X-1259071Y-2746570D01*
X-1259071Y-2746570D02*
X-1259071Y-2670379D01*
X-1259071Y-2670379D02*
X-1268595Y-2651331D01*
X-1268595Y-2651331D02*
X-1278118Y-2641808D01*
X-1278118Y-2641808D02*
X-1297166Y-2632284D01*
X-1297166Y-2632284D02*
X-1335261Y-2632284D01*
X-1335261Y-2632284D02*
X-1354309Y-2641808D01*
X-1354309Y-2641808D02*
X-1363833Y-2651331D01*
X-1363833Y-2651331D02*
X-1373357Y-2670379D01*
X-1373357Y-2670379D02*
X-1373357Y-2717998D01*
X-1373357Y-2717998D02*
X-1363833Y-2737046D01*
X-1363833Y-2737046D02*
X-1354309Y-2746570D01*
X-1354309Y-2746570D02*
X-1335261Y-2756093D01*
X-1335261Y-2756093D02*
X-1297166Y-2756093D01*
X-1297166Y-2756093D02*
X-1278118Y-2746570D01*
X-1278118Y-2746570D02*
X-1268595Y-2737046D01*
X-1268595Y-2737046D02*
X-1259071Y-2717998D01*
X-1068595Y-2832284D02*
X-1182880Y-2832284D01*
X-1125738Y-2832284D02*
X-1125738Y-2632284D01*
X-1125738Y-2632284D02*
X-1144785Y-2660855D01*
X-1144785Y-2660855D02*
X-1163833Y-2679903D01*
X-1163833Y-2679903D02*
X-1182880Y-2689427D01*
X-982880Y-2832284D02*
X-982880Y-2698950D01*
X-982880Y-2717998D02*
X-973356Y-2708474D01*
X-973356Y-2708474D02*
X-954309Y-2698950D01*
X-954309Y-2698950D02*
X-925737Y-2698950D01*
X-925737Y-2698950D02*
X-906690Y-2708474D01*
X-906690Y-2708474D02*
X-897166Y-2727522D01*
X-897166Y-2727522D02*
X-897166Y-2832284D01*
X-897166Y-2727522D02*
X-887642Y-2708474D01*
X-887642Y-2708474D02*
X-868595Y-2698950D01*
X-868595Y-2698950D02*
X-840023Y-2698950D01*
X-840023Y-2698950D02*
X-820975Y-2708474D01*
X-820975Y-2708474D02*
X-811452Y-2727522D01*
X-811452Y-2727522D02*
X-811452Y-2832284D01*
X-716214Y-2832284D02*
X-716214Y-2698950D01*
X-716214Y-2717998D02*
X-706690Y-2708474D01*
X-706690Y-2708474D02*
X-687642Y-2698950D01*
X-687642Y-2698950D02*
X-659071Y-2698950D01*
X-659071Y-2698950D02*
X-640023Y-2708474D01*
X-640023Y-2708474D02*
X-630499Y-2727522D01*
X-630499Y-2727522D02*
X-630499Y-2832284D01*
X-630499Y-2727522D02*
X-620976Y-2708474D01*
X-620976Y-2708474D02*
X-601928Y-2698950D01*
X-601928Y-2698950D02*
X-573357Y-2698950D01*
X-573357Y-2698950D02*
X-554309Y-2708474D01*
X-554309Y-2708474D02*
X-544785Y-2727522D01*
X-544785Y-2727522D02*
X-544785Y-2832284D01*
X-154309Y-2622760D02*
X-325737Y-2879903D01*
X102834Y-2632284D02*
X121882Y-2632284D01*
X121882Y-2632284D02*
X140929Y-2641808D01*
X140929Y-2641808D02*
X150453Y-2651331D01*
X150453Y-2651331D02*
X159977Y-2670379D01*
X159977Y-2670379D02*
X169501Y-2708474D01*
X169501Y-2708474D02*
X169501Y-2756093D01*
X169501Y-2756093D02*
X159977Y-2794189D01*
X159977Y-2794189D02*
X150453Y-2813236D01*
X150453Y-2813236D02*
X140929Y-2822760D01*
X140929Y-2822760D02*
X121882Y-2832284D01*
X121882Y-2832284D02*
X102834Y-2832284D01*
X102834Y-2832284D02*
X83787Y-2822760D01*
X83787Y-2822760D02*
X74263Y-2813236D01*
X74263Y-2813236D02*
X64739Y-2794189D01*
X64739Y-2794189D02*
X55215Y-2756093D01*
X55215Y-2756093D02*
X55215Y-2708474D01*
X55215Y-2708474D02*
X64739Y-2670379D01*
X64739Y-2670379D02*
X74263Y-2651331D01*
X74263Y-2651331D02*
X83787Y-2641808D01*
X83787Y-2641808D02*
X102834Y-2632284D01*
X255215Y-2813236D02*
X264739Y-2822760D01*
X264739Y-2822760D02*
X255215Y-2832284D01*
X255215Y-2832284D02*
X245691Y-2822760D01*
X245691Y-2822760D02*
X255215Y-2813236D01*
X255215Y-2813236D02*
X255215Y-2832284D01*
X388548Y-2632284D02*
X407596Y-2632284D01*
X407596Y-2632284D02*
X426644Y-2641808D01*
X426644Y-2641808D02*
X436167Y-2651331D01*
X436167Y-2651331D02*
X445691Y-2670379D01*
X445691Y-2670379D02*
X455215Y-2708474D01*
X455215Y-2708474D02*
X455215Y-2756093D01*
X455215Y-2756093D02*
X445691Y-2794189D01*
X445691Y-2794189D02*
X436167Y-2813236D01*
X436167Y-2813236D02*
X426644Y-2822760D01*
X426644Y-2822760D02*
X407596Y-2832284D01*
X407596Y-2832284D02*
X388548Y-2832284D01*
X388548Y-2832284D02*
X369501Y-2822760D01*
X369501Y-2822760D02*
X359977Y-2813236D01*
X359977Y-2813236D02*
X350453Y-2794189D01*
X350453Y-2794189D02*
X340929Y-2756093D01*
X340929Y-2756093D02*
X340929Y-2708474D01*
X340929Y-2708474D02*
X350453Y-2670379D01*
X350453Y-2670379D02*
X359977Y-2651331D01*
X359977Y-2651331D02*
X369501Y-2641808D01*
X369501Y-2641808D02*
X388548Y-2632284D01*
X521882Y-2632284D02*
X645691Y-2632284D01*
X645691Y-2632284D02*
X579025Y-2708474D01*
X579025Y-2708474D02*
X607596Y-2708474D01*
X607596Y-2708474D02*
X626644Y-2717998D01*
X626644Y-2717998D02*
X636168Y-2727522D01*
X636168Y-2727522D02*
X645691Y-2746570D01*
X645691Y-2746570D02*
X645691Y-2794189D01*
X645691Y-2794189D02*
X636168Y-2813236D01*
X636168Y-2813236D02*
X626644Y-2822760D01*
X626644Y-2822760D02*
X607596Y-2832284D01*
X607596Y-2832284D02*
X550453Y-2832284D01*
X550453Y-2832284D02*
X531406Y-2822760D01*
X531406Y-2822760D02*
X521882Y-2813236D01*
X740929Y-2832284D02*
X779025Y-2832284D01*
X779025Y-2832284D02*
X798072Y-2822760D01*
X798072Y-2822760D02*
X807596Y-2813236D01*
X807596Y-2813236D02*
X826644Y-2784665D01*
X826644Y-2784665D02*
X836167Y-2746570D01*
X836167Y-2746570D02*
X836167Y-2670379D01*
X836167Y-2670379D02*
X826644Y-2651331D01*
X826644Y-2651331D02*
X817120Y-2641808D01*
X817120Y-2641808D02*
X798072Y-2632284D01*
X798072Y-2632284D02*
X759977Y-2632284D01*
X759977Y-2632284D02*
X740929Y-2641808D01*
X740929Y-2641808D02*
X731406Y-2651331D01*
X731406Y-2651331D02*
X721882Y-2670379D01*
X721882Y-2670379D02*
X721882Y-2717998D01*
X721882Y-2717998D02*
X731406Y-2737046D01*
X731406Y-2737046D02*
X740929Y-2746570D01*
X740929Y-2746570D02*
X759977Y-2756093D01*
X759977Y-2756093D02*
X798072Y-2756093D01*
X798072Y-2756093D02*
X817120Y-2746570D01*
X817120Y-2746570D02*
X826644Y-2737046D01*
X826644Y-2737046D02*
X836167Y-2717998D01*
X959977Y-2632284D02*
X979025Y-2632284D01*
X979025Y-2632284D02*
X998072Y-2641808D01*
X998072Y-2641808D02*
X1007596Y-2651331D01*
X1007596Y-2651331D02*
X1017120Y-2670379D01*
X1017120Y-2670379D02*
X1026644Y-2708474D01*
X1026644Y-2708474D02*
X1026644Y-2756093D01*
X1026644Y-2756093D02*
X1017120Y-2794189D01*
X1017120Y-2794189D02*
X1007596Y-2813236D01*
X1007596Y-2813236D02*
X998072Y-2822760D01*
X998072Y-2822760D02*
X979025Y-2832284D01*
X979025Y-2832284D02*
X959977Y-2832284D01*
X959977Y-2832284D02*
X940929Y-2822760D01*
X940929Y-2822760D02*
X931406Y-2813236D01*
X931406Y-2813236D02*
X921882Y-2794189D01*
X921882Y-2794189D02*
X912358Y-2756093D01*
X912358Y-2756093D02*
X912358Y-2708474D01*
X912358Y-2708474D02*
X921882Y-2670379D01*
X921882Y-2670379D02*
X931406Y-2651331D01*
X931406Y-2651331D02*
X940929Y-2641808D01*
X940929Y-2641808D02*
X959977Y-2632284D01*
X1102834Y-2632284D02*
X1102834Y-2670379D01*
X1179025Y-2632284D02*
X1179025Y-2670379D01*
X1474263Y-2908474D02*
X1464739Y-2898950D01*
X1464739Y-2898950D02*
X1445691Y-2870379D01*
X1445691Y-2870379D02*
X1436168Y-2851331D01*
X1436168Y-2851331D02*
X1426644Y-2822760D01*
X1426644Y-2822760D02*
X1417120Y-2775141D01*
X1417120Y-2775141D02*
X1417120Y-2737046D01*
X1417120Y-2737046D02*
X1426644Y-2689427D01*
X1426644Y-2689427D02*
X1436168Y-2660855D01*
X1436168Y-2660855D02*
X1445691Y-2641808D01*
X1445691Y-2641808D02*
X1464739Y-2613236D01*
X1464739Y-2613236D02*
X1474263Y-2603712D01*
X1531406Y-2632284D02*
X1655215Y-2632284D01*
X1655215Y-2632284D02*
X1588548Y-2708474D01*
X1588548Y-2708474D02*
X1617120Y-2708474D01*
X1617120Y-2708474D02*
X1636168Y-2717998D01*
X1636168Y-2717998D02*
X1645691Y-2727522D01*
X1645691Y-2727522D02*
X1655215Y-2746570D01*
X1655215Y-2746570D02*
X1655215Y-2794189D01*
X1655215Y-2794189D02*
X1645691Y-2813236D01*
X1645691Y-2813236D02*
X1636168Y-2822760D01*
X1636168Y-2822760D02*
X1617120Y-2832284D01*
X1617120Y-2832284D02*
X1559977Y-2832284D01*
X1559977Y-2832284D02*
X1540929Y-2822760D01*
X1540929Y-2822760D02*
X1531406Y-2813236D01*
X1893310Y-2832284D02*
X1893310Y-2632284D01*
X1979025Y-2832284D02*
X1979025Y-2727522D01*
X1979025Y-2727522D02*
X1969501Y-2708474D01*
X1969501Y-2708474D02*
X1950453Y-2698950D01*
X1950453Y-2698950D02*
X1921882Y-2698950D01*
X1921882Y-2698950D02*
X1902834Y-2708474D01*
X1902834Y-2708474D02*
X1893310Y-2717998D01*
X2102834Y-2832284D02*
X2083787Y-2822760D01*
X2083787Y-2822760D02*
X2074263Y-2813236D01*
X2074263Y-2813236D02*
X2064739Y-2794189D01*
X2064739Y-2794189D02*
X2064739Y-2737046D01*
X2064739Y-2737046D02*
X2074263Y-2717998D01*
X2074263Y-2717998D02*
X2083787Y-2708474D01*
X2083787Y-2708474D02*
X2102834Y-2698950D01*
X2102834Y-2698950D02*
X2131406Y-2698950D01*
X2131406Y-2698950D02*
X2150453Y-2708474D01*
X2150453Y-2708474D02*
X2159977Y-2717998D01*
X2159977Y-2717998D02*
X2169501Y-2737046D01*
X2169501Y-2737046D02*
X2169501Y-2794189D01*
X2169501Y-2794189D02*
X2159977Y-2813236D01*
X2159977Y-2813236D02*
X2150453Y-2822760D01*
X2150453Y-2822760D02*
X2131406Y-2832284D01*
X2131406Y-2832284D02*
X2102834Y-2832284D01*
X2283787Y-2832284D02*
X2264739Y-2822760D01*
X2264739Y-2822760D02*
X2255215Y-2803712D01*
X2255215Y-2803712D02*
X2255215Y-2632284D01*
X2436168Y-2822760D02*
X2417120Y-2832284D01*
X2417120Y-2832284D02*
X2379025Y-2832284D01*
X2379025Y-2832284D02*
X2359977Y-2822760D01*
X2359977Y-2822760D02*
X2350453Y-2803712D01*
X2350453Y-2803712D02*
X2350453Y-2727522D01*
X2350453Y-2727522D02*
X2359977Y-2708474D01*
X2359977Y-2708474D02*
X2379025Y-2698950D01*
X2379025Y-2698950D02*
X2417120Y-2698950D01*
X2417120Y-2698950D02*
X2436168Y-2708474D01*
X2436168Y-2708474D02*
X2445692Y-2727522D01*
X2445692Y-2727522D02*
X2445692Y-2746570D01*
X2445692Y-2746570D02*
X2350453Y-2765617D01*
X2521882Y-2822760D02*
X2540930Y-2832284D01*
X2540930Y-2832284D02*
X2579025Y-2832284D01*
X2579025Y-2832284D02*
X2598073Y-2822760D01*
X2598073Y-2822760D02*
X2607596Y-2803712D01*
X2607596Y-2803712D02*
X2607596Y-2794189D01*
X2607596Y-2794189D02*
X2598073Y-2775141D01*
X2598073Y-2775141D02*
X2579025Y-2765617D01*
X2579025Y-2765617D02*
X2550453Y-2765617D01*
X2550453Y-2765617D02*
X2531406Y-2756093D01*
X2531406Y-2756093D02*
X2521882Y-2737046D01*
X2521882Y-2737046D02*
X2521882Y-2727522D01*
X2521882Y-2727522D02*
X2531406Y-2708474D01*
X2531406Y-2708474D02*
X2550453Y-2698950D01*
X2550453Y-2698950D02*
X2579025Y-2698950D01*
X2579025Y-2698950D02*
X2598073Y-2708474D01*
X2674263Y-2908474D02*
X2683787Y-2898950D01*
X2683787Y-2898950D02*
X2702834Y-2870379D01*
X2702834Y-2870379D02*
X2712358Y-2851331D01*
X2712358Y-2851331D02*
X2721882Y-2822760D01*
X2721882Y-2822760D02*
X2731406Y-2775141D01*
X2731406Y-2775141D02*
X2731406Y-2737046D01*
X2731406Y-2737046D02*
X2721882Y-2689427D01*
X2721882Y-2689427D02*
X2712358Y-2660855D01*
X2712358Y-2660855D02*
X2702834Y-2641808D01*
X2702834Y-2641808D02*
X2683787Y-2613236D01*
X2683787Y-2613236D02*
X2674263Y-2603712D01*
X3036168Y-2908474D02*
X3026644Y-2898950D01*
X3026644Y-2898950D02*
X3007596Y-2870379D01*
X3007596Y-2870379D02*
X2998072Y-2851331D01*
X2998072Y-2851331D02*
X2988549Y-2822760D01*
X2988549Y-2822760D02*
X2979025Y-2775141D01*
X2979025Y-2775141D02*
X2979025Y-2737046D01*
X2979025Y-2737046D02*
X2988549Y-2689427D01*
X2988549Y-2689427D02*
X2998072Y-2660855D01*
X2998072Y-2660855D02*
X3007596Y-2641808D01*
X3007596Y-2641808D02*
X3026644Y-2613236D01*
X3026644Y-2613236D02*
X3036168Y-2603712D01*
X3112358Y-2698950D02*
X3112358Y-2832284D01*
X3112358Y-2717998D02*
X3121882Y-2708474D01*
X3121882Y-2708474D02*
X3140930Y-2698950D01*
X3140930Y-2698950D02*
X3169501Y-2698950D01*
X3169501Y-2698950D02*
X3188549Y-2708474D01*
X3188549Y-2708474D02*
X3198072Y-2727522D01*
X3198072Y-2727522D02*
X3198072Y-2832284D01*
X3321882Y-2832284D02*
X3302834Y-2822760D01*
X3302834Y-2822760D02*
X3293311Y-2813236D01*
X3293311Y-2813236D02*
X3283787Y-2794189D01*
X3283787Y-2794189D02*
X3283787Y-2737046D01*
X3283787Y-2737046D02*
X3293311Y-2717998D01*
X3293311Y-2717998D02*
X3302834Y-2708474D01*
X3302834Y-2708474D02*
X3321882Y-2698950D01*
X3321882Y-2698950D02*
X3350453Y-2698950D01*
X3350453Y-2698950D02*
X3369501Y-2708474D01*
X3369501Y-2708474D02*
X3379025Y-2717998D01*
X3379025Y-2717998D02*
X3388549Y-2737046D01*
X3388549Y-2737046D02*
X3388549Y-2794189D01*
X3388549Y-2794189D02*
X3379025Y-2813236D01*
X3379025Y-2813236D02*
X3369501Y-2822760D01*
X3369501Y-2822760D02*
X3350453Y-2832284D01*
X3350453Y-2832284D02*
X3321882Y-2832284D01*
X3445692Y-2698950D02*
X3521882Y-2698950D01*
X3474263Y-2632284D02*
X3474263Y-2803712D01*
X3474263Y-2803712D02*
X3483787Y-2822760D01*
X3483787Y-2822760D02*
X3502834Y-2832284D01*
X3502834Y-2832284D02*
X3521882Y-2832284D01*
X3740930Y-2698950D02*
X3740930Y-2898950D01*
X3740930Y-2708474D02*
X3759977Y-2698950D01*
X3759977Y-2698950D02*
X3798073Y-2698950D01*
X3798073Y-2698950D02*
X3817120Y-2708474D01*
X3817120Y-2708474D02*
X3826644Y-2717998D01*
X3826644Y-2717998D02*
X3836168Y-2737046D01*
X3836168Y-2737046D02*
X3836168Y-2794189D01*
X3836168Y-2794189D02*
X3826644Y-2813236D01*
X3826644Y-2813236D02*
X3817120Y-2822760D01*
X3817120Y-2822760D02*
X3798073Y-2832284D01*
X3798073Y-2832284D02*
X3759977Y-2832284D01*
X3759977Y-2832284D02*
X3740930Y-2822760D01*
X3950453Y-2832284D02*
X3931406Y-2822760D01*
X3931406Y-2822760D02*
X3921882Y-2803712D01*
X3921882Y-2803712D02*
X3921882Y-2632284D01*
X4112358Y-2832284D02*
X4112358Y-2727522D01*
X4112358Y-2727522D02*
X4102834Y-2708474D01*
X4102834Y-2708474D02*
X4083787Y-2698950D01*
X4083787Y-2698950D02*
X4045692Y-2698950D01*
X4045692Y-2698950D02*
X4026644Y-2708474D01*
X4112358Y-2822760D02*
X4093311Y-2832284D01*
X4093311Y-2832284D02*
X4045692Y-2832284D01*
X4045692Y-2832284D02*
X4026644Y-2822760D01*
X4026644Y-2822760D02*
X4017120Y-2803712D01*
X4017120Y-2803712D02*
X4017120Y-2784665D01*
X4017120Y-2784665D02*
X4026644Y-2765617D01*
X4026644Y-2765617D02*
X4045692Y-2756093D01*
X4045692Y-2756093D02*
X4093311Y-2756093D01*
X4093311Y-2756093D02*
X4112358Y-2746570D01*
X4179025Y-2698950D02*
X4255215Y-2698950D01*
X4207596Y-2632284D02*
X4207596Y-2803712D01*
X4207596Y-2803712D02*
X4217120Y-2822760D01*
X4217120Y-2822760D02*
X4236168Y-2832284D01*
X4236168Y-2832284D02*
X4255215Y-2832284D01*
X4398073Y-2822760D02*
X4379025Y-2832284D01*
X4379025Y-2832284D02*
X4340930Y-2832284D01*
X4340930Y-2832284D02*
X4321882Y-2822760D01*
X4321882Y-2822760D02*
X4312358Y-2803712D01*
X4312358Y-2803712D02*
X4312358Y-2727522D01*
X4312358Y-2727522D02*
X4321882Y-2708474D01*
X4321882Y-2708474D02*
X4340930Y-2698950D01*
X4340930Y-2698950D02*
X4379025Y-2698950D01*
X4379025Y-2698950D02*
X4398073Y-2708474D01*
X4398073Y-2708474D02*
X4407596Y-2727522D01*
X4407596Y-2727522D02*
X4407596Y-2746570D01*
X4407596Y-2746570D02*
X4312358Y-2765617D01*
X4579025Y-2832284D02*
X4579025Y-2632284D01*
X4579025Y-2822760D02*
X4559977Y-2832284D01*
X4559977Y-2832284D02*
X4521882Y-2832284D01*
X4521882Y-2832284D02*
X4502835Y-2822760D01*
X4502835Y-2822760D02*
X4493311Y-2813236D01*
X4493311Y-2813236D02*
X4483787Y-2794189D01*
X4483787Y-2794189D02*
X4483787Y-2737046D01*
X4483787Y-2737046D02*
X4493311Y-2717998D01*
X4493311Y-2717998D02*
X4502835Y-2708474D01*
X4502835Y-2708474D02*
X4521882Y-2698950D01*
X4521882Y-2698950D02*
X4559977Y-2698950D01*
X4559977Y-2698950D02*
X4579025Y-2708474D01*
X4655216Y-2908474D02*
X4664739Y-2898950D01*
X4664739Y-2898950D02*
X4683787Y-2870379D01*
X4683787Y-2870379D02*
X4693311Y-2851331D01*
X4693311Y-2851331D02*
X4702835Y-2822760D01*
X4702835Y-2822760D02*
X4712358Y-2775141D01*
X4712358Y-2775141D02*
X4712358Y-2737046D01*
X4712358Y-2737046D02*
X4702835Y-2689427D01*
X4702835Y-2689427D02*
X4693311Y-2660855D01*
X4693311Y-2660855D02*
X4683787Y-2641808D01*
X4683787Y-2641808D02*
X4664739Y-2613236D01*
X4664739Y-2613236D02*
X4655216Y-2603712D01*
M02*
