%TF.GenerationSoftware,KiCad,Pcbnew,7.0.10*%
%TF.CreationDate,2024-01-29T19:46:04-05:00*%
%TF.ProjectId,lemon-pepper,6c656d6f-6e2d-4706-9570-7065722e6b69,rev?*%
%TF.SameCoordinates,PX8b85c60PY52f2218*%
%TF.FileFunction,Copper,L2,Inr*%
%TF.FilePolarity,Positive*%
%FSLAX46Y46*%
G04 Gerber Fmt 4.6, Leading zero omitted, Abs format (unit mm)*
G04 Created by KiCad (PCBNEW 7.0.10) date 2024-01-29 19:46:04*
%MOMM*%
%LPD*%
G01*
G04 APERTURE LIST*
G04 Aperture macros list*
%AMRoundRect*
0 Rectangle with rounded corners*
0 $1 Rounding radius*
0 $2 $3 $4 $5 $6 $7 $8 $9 X,Y pos of 4 corners*
0 Add a 4 corners polygon primitive as box body*
4,1,4,$2,$3,$4,$5,$6,$7,$8,$9,$2,$3,0*
0 Add four circle primitives for the rounded corners*
1,1,$1+$1,$2,$3*
1,1,$1+$1,$4,$5*
1,1,$1+$1,$6,$7*
1,1,$1+$1,$8,$9*
0 Add four rect primitives between the rounded corners*
20,1,$1+$1,$2,$3,$4,$5,0*
20,1,$1+$1,$4,$5,$6,$7,0*
20,1,$1+$1,$6,$7,$8,$9,0*
20,1,$1+$1,$8,$9,$2,$3,0*%
G04 Aperture macros list end*
%TA.AperFunction,ComponentPad*%
%ADD10C,5.800000*%
%TD*%
%TA.AperFunction,ComponentPad*%
%ADD11C,1.000000*%
%TD*%
%TA.AperFunction,HeatsinkPad*%
%ADD12C,0.500000*%
%TD*%
%TA.AperFunction,ComponentPad*%
%ADD13O,1.750000X1.750000*%
%TD*%
%TA.AperFunction,ComponentPad*%
%ADD14O,1.750000X2.000000*%
%TD*%
%TA.AperFunction,ComponentPad*%
%ADD15RoundRect,0.250000X0.600000X0.725000X-0.600000X0.725000X-0.600000X-0.725000X0.600000X-0.725000X0*%
%TD*%
%TA.AperFunction,ComponentPad*%
%ADD16O,1.700000X1.950000*%
%TD*%
%TA.AperFunction,ViaPad*%
%ADD17C,0.800000*%
%TD*%
%TA.AperFunction,ViaPad*%
%ADD18C,0.450000*%
%TD*%
%TA.AperFunction,Conductor*%
%ADD19C,0.100000*%
%TD*%
%TA.AperFunction,Conductor*%
%ADD20C,0.250000*%
%TD*%
G04 APERTURE END LIST*
D10*
%TO.N,GND*%
%TO.C,H101*%
X-15500000Y15500000D03*
X-15500000Y-15500000D03*
X15500000Y15500000D03*
X15500000Y-15500000D03*
%TD*%
D11*
%TO.N,GND*%
%TO.C,J201*%
X-9426777Y-6032664D03*
X-12467336Y-9073223D03*
X-6032664Y-9426777D03*
X-9073223Y-12467336D03*
%TD*%
D12*
%TO.N,/current sense/U_OUT*%
%TO.C,M101*%
X-3700000Y16775000D03*
D13*
X-3700000Y14900000D03*
D14*
X-3700000Y12150000D03*
D12*
%TO.N,/current sense/W_IN*%
X-1200000Y16775000D03*
D13*
X-1200000Y14900000D03*
D14*
X-1200000Y12150000D03*
D12*
%TO.N,/half bridges/OUT1B*%
X1300000Y16775000D03*
D13*
X1300000Y14900000D03*
D14*
X1300000Y12150000D03*
D12*
%TO.N,/current sense/V_OUT*%
X3800000Y16775000D03*
D13*
X3800000Y14900000D03*
D14*
X3800000Y12150000D03*
%TD*%
D15*
%TO.N,Vmot*%
%TO.C,J101*%
X7225000Y-14725000D03*
D16*
%TO.N,GND*%
X4725000Y-14725000D03*
%TO.N,/mcu/CANL*%
X2225000Y-14725000D03*
%TO.N,/mcu/CANH*%
X-275000Y-14725000D03*
%TD*%
D17*
%TO.N,GND*%
X-5130000Y5450000D03*
%TO.N,+3V3*%
X-10100000Y7275000D03*
%TO.N,GND*%
X-5143750Y7475000D03*
X7675000Y2750000D03*
X-14630320Y-2499121D03*
X-5143750Y6825000D03*
X-2375000Y-14600000D03*
X-11650000Y1950000D03*
X-10375000Y675000D03*
X-9125000Y1975000D03*
X16675000Y-11200000D03*
X-10375000Y1950000D03*
X10585647Y5435647D03*
X11325000Y4725000D03*
X-10375000Y3150000D03*
X3475000Y-11825000D03*
X-1950000Y-1300000D03*
X3475000Y-10900000D03*
X8675000Y2725000D03*
X8070845Y-7288732D03*
X-4139000Y-1975000D03*
X1506250Y6850000D03*
X1475000Y-6125000D03*
X9910647Y6110647D03*
X-7550000Y-13000000D03*
X-250000Y-6800000D03*
X-1975000Y50000D03*
X-5395400Y-6375500D03*
X-2400000Y-16525000D03*
X7700000Y3775000D03*
X2223639Y600498D03*
X1506250Y7500000D03*
X2325000Y-11850000D03*
%TO.N,Vmot*%
X13575000Y-675000D03*
X3900000Y650000D03*
X-6275000Y16250000D03*
X4550000Y0D03*
X6305664Y12175000D03*
X6275000Y14250000D03*
X9950000Y-3975000D03*
X13575500Y-1567997D03*
X9025000Y-4375000D03*
X5450000Y175000D03*
X-6250000Y12175000D03*
X-6250000Y14225000D03*
X9850000Y-5000000D03*
X6250000Y16250000D03*
D18*
%TO.N,/mcu/USBD_P*%
X-5375000Y-10325000D03*
X-9650000Y-8850000D03*
X-8825000Y-9650000D03*
D17*
%TO.N,+3V3*%
X500000Y-12150000D03*
X-5075000Y-1225000D03*
X-6250000Y-16625000D03*
X-1700000Y-12150000D03*
X-625000Y-12150000D03*
X16075000Y-2500000D03*
X15625000Y-3350000D03*
X-12874972Y-2731439D03*
X2225000Y1600000D03*
X16550000Y-3375000D03*
X-2200000Y-11200000D03*
X220000Y9205000D03*
X-1125000Y-11200000D03*
X-7820000Y8645000D03*
X-300000Y-8700000D03*
X-10524127Y-3153111D03*
D18*
%TO.N,/mcu/RESET*%
X-15925000Y3250000D03*
X-11500000Y9605000D03*
X-3150000Y-6775000D03*
D17*
%TO.N,/current sense/W_IN*%
X4075000Y4700500D03*
X4075000Y5575000D03*
D18*
%TO.N,/current sense/U_SENSE*%
X-7060000Y10655000D03*
X-15325000Y3275000D03*
%TO.N,/current sense/V_SENSE*%
X-1000000Y7705000D03*
X-8906524Y-3034784D03*
D17*
%TO.N,/usb/USB_5V*%
X-9725000Y-11475000D03*
X-11550000Y-9800000D03*
X-6975000Y-8750000D03*
X-4725000Y-8900000D03*
X-8806854Y-7050000D03*
D18*
%TO.N,/mcu/USER_2*%
X-11950000Y-5525000D03*
X-15525241Y-5099495D03*
D17*
%TO.N,Net-(D603-K)*%
X4750000Y-1600000D03*
X4275000Y2750000D03*
D18*
%TO.N,Net-(D601-K)*%
X6025000Y5500000D03*
X10925000Y925000D03*
%TO.N,/usb/UCPD_CC2*%
X-7700000Y-10825000D03*
X-6075000Y-10850000D03*
%TO.N,/half bridges/ENA*%
X9150000Y-400000D03*
X4225000Y3750000D03*
X-9350000Y-3400000D03*
%TO.N,/encoder/SCK*%
X775000Y-4000000D03*
X-16600000Y2175000D03*
%TO.N,/encoder/CIPO*%
X-15900000Y1550000D03*
X-600000Y-4000000D03*
%TO.N,/encoder/COPI*%
X62132Y-4000000D03*
X-15925000Y2175000D03*
%TO.N,/encoder/CS*%
X1425000Y-4000000D03*
X-14650000Y-800000D03*
%TO.N,/encoder/CAL_EN*%
X-15900000Y400000D03*
X-1225000Y-3975000D03*
%TO.N,/mcu/USER_3*%
X-11250000Y-5450000D03*
X-15522442Y-4525000D03*
X-8350000Y-2625000D03*
X-5525000Y3150000D03*
%TO.N,/mcu/USER_1*%
X-11060733Y-6359180D03*
X-15524934Y-5673997D03*
%TO.N,/mcu/CAN_TX*%
X-3775000Y2675000D03*
X-7000021Y5305275D03*
%TO.N,/mcu/CAN_RX*%
X-6208321Y5326679D03*
X-3775000Y2100000D03*
%TO.N,/half bridges/IN2B*%
X4950000Y4350000D03*
X-14425000Y4075000D03*
%TO.N,/mcu/TIM4_CH1*%
X-7575000Y5300000D03*
X-14750000Y-150000D03*
%TO.N,/half bridges/IN1A*%
X-6375000Y-1425000D03*
X9550000Y25000D03*
%TO.N,/half bridges/IN2A*%
X9950000Y450000D03*
X-6950497Y-1450000D03*
%TO.N,/half bridges/IN1B*%
X-13975000Y4500000D03*
X5356234Y4756234D03*
%TO.N,/mcu/TIM4_CH2*%
X-15325000Y-575000D03*
X-7968766Y5718766D03*
D17*
%TO.N,/half bridges/OUT1B*%
X7575000Y6501000D03*
X6625000Y6500000D03*
D18*
%TO.N,/mcu/DIR*%
X2625000Y-3975000D03*
X-4600000Y2075000D03*
X-7525000Y-1450000D03*
%TO.N,/mcu/STEP*%
X-2700000Y-3900000D03*
X-4600497Y2675000D03*
%TO.N,/mcu/ADC1_IN12*%
X-14850000Y3675000D03*
X-8240000Y11265000D03*
%TO.N,/mcu/USER_BTN*%
X-11860000Y8425000D03*
X13550000Y4650000D03*
%TO.N,/current sense/GAIN_1*%
X-8765000Y7420000D03*
X-84208Y6245221D03*
%TO.N,/current sense/GAIN_0*%
X-3983000Y5788000D03*
X490000Y6215000D03*
X-8560000Y6755000D03*
%TD*%
D19*
%TO.N,/current sense/V_SENSE*%
X-1000000Y7705000D02*
X-1020000Y7685000D01*
X-1020000Y7685000D02*
X-2368842Y7685000D01*
X-3865842Y6188000D02*
X-8512000Y6188000D01*
X-12450000Y508692D02*
X-8906524Y-3034784D01*
X-8512000Y6188000D02*
X-12450000Y2250000D01*
X-2368842Y7685000D02*
X-3865842Y6188000D01*
X-12450000Y2250000D02*
X-12450000Y508692D01*
%TO.N,/current sense/GAIN_0*%
X490000Y6215000D02*
X490000Y6815000D01*
X490000Y6815000D02*
X180000Y7125000D01*
X180000Y7125000D02*
X-2646000Y7125000D01*
X-2646000Y7125000D02*
X-3983000Y5788000D01*
%TO.N,/mcu/CAN_RX*%
X-6208321Y5326679D02*
X-4376642Y3495000D01*
X-4376642Y3495000D02*
X-3795000Y3495000D01*
X-3795000Y3495000D02*
X-3325000Y3025000D01*
X-3325000Y3025000D02*
X-3325000Y2550000D01*
X-3325000Y2550000D02*
X-3775000Y2100000D01*
%TO.N,/mcu/CAN_TX*%
X-7000021Y5305275D02*
X-4989746Y3295000D01*
X-3775000Y2980000D02*
X-3775000Y2675000D01*
X-4989746Y3295000D02*
X-4090000Y3295000D01*
X-4090000Y3295000D02*
X-3775000Y2980000D01*
D20*
%TO.N,GND*%
X3450000Y-11850000D02*
X3475000Y-11825000D01*
X3475000Y-11825000D02*
X3475000Y-11600000D01*
X3475000Y-11825000D02*
X3475000Y-11500000D01*
%TO.N,+3V3*%
X-3475000Y-16200000D02*
X-3475000Y-12475000D01*
X10855360Y-3150000D02*
X6105360Y1600000D01*
X-5075000Y-1225000D02*
X-5500000Y-1650000D01*
X-3900000Y-16625000D02*
X-3475000Y-16200000D01*
X-6250000Y-16625000D02*
X-3900000Y-16625000D01*
X-5500000Y-2600000D02*
X-5900000Y-3000000D01*
X-3475000Y-12475000D02*
X-2200000Y-11200000D01*
X-5500000Y-1650000D02*
X-5500000Y-2600000D01*
X16075000Y-2500000D02*
X15425000Y-3150000D01*
X2225000Y4775000D02*
X4475000Y7025000D01*
X6105360Y1600000D02*
X2225000Y1600000D01*
X2225000Y1600000D02*
X2225000Y4775000D01*
X4475000Y7025000D02*
X4475000Y8450000D01*
X15425000Y-3150000D02*
X10855360Y-3150000D01*
%TD*%
%TA.AperFunction,Conductor*%
%TO.N,GND*%
G36*
X3775000Y-3875000D02*
G01*
X3775000Y-9275000D01*
X3325000Y-9725000D01*
X2080500Y-9725000D01*
X2080500Y-7801362D01*
X2077603Y-7747322D01*
X2074769Y-7720964D01*
X2074764Y-7720933D01*
X2066116Y-7667559D01*
X2066114Y-7667554D01*
X2066114Y-7667552D01*
X2015832Y-7532743D01*
X1982347Y-7471420D01*
X1969460Y-7454205D01*
X1896125Y-7356241D01*
X1179746Y-6639862D01*
X1142802Y-6608536D01*
X1116510Y-6586241D01*
X1083540Y-6562644D01*
X1083541Y-6562644D01*
X1083529Y-6562636D01*
X1012377Y-6520075D01*
X1012374Y-6520074D01*
X1012373Y-6520073D01*
X1012372Y-6520073D01*
X937155Y-6495634D01*
X875534Y-6475612D01*
X806688Y-6463698D01*
X806257Y-6463661D01*
X804549Y-6463637D01*
X662863Y-6459589D01*
X523717Y-6496167D01*
X523715Y-6496167D01*
X523710Y-6496169D01*
X486549Y-6511873D01*
X459350Y-6523368D01*
X336147Y-6597662D01*
X336146Y-6597662D01*
X336146Y-6597663D01*
X335514Y-6598352D01*
X238856Y-6703666D01*
X238849Y-6703674D01*
X201252Y-6758657D01*
X199950Y-6760474D01*
X199414Y-6761348D01*
X135934Y-6890458D01*
X117674Y-6946657D01*
X105006Y-6975109D01*
X79153Y-7019889D01*
X60842Y-7045092D01*
X26243Y-7083518D01*
X3095Y-7104361D01*
X-38747Y-7134761D01*
X-65724Y-7150336D01*
X-112957Y-7171365D01*
X-142577Y-7180989D01*
X-193164Y-7191743D01*
X-224147Y-7195000D01*
X-275856Y-7195000D01*
X-306832Y-7191744D01*
X-357418Y-7180992D01*
X-387042Y-7171366D01*
X-434280Y-7150334D01*
X-461254Y-7134761D01*
X-503101Y-7104358D01*
X-526244Y-7083519D01*
X-556425Y-7050000D01*
X-560847Y-7045089D01*
X-579150Y-7019897D01*
X-605013Y-6975101D01*
X-617676Y-6946657D01*
X-633658Y-6897470D01*
X-640132Y-6867009D01*
X-645539Y-6815574D01*
X-645540Y-6784432D01*
X-640134Y-6732988D01*
X-633661Y-6702536D01*
X-617677Y-6653340D01*
X-605014Y-6624900D01*
X-579148Y-6580099D01*
X-560843Y-6554907D01*
X-526242Y-6516478D01*
X-503099Y-6495638D01*
X-461253Y-6465235D01*
X-434287Y-6449667D01*
X-346466Y-6410565D01*
X-332429Y-6405147D01*
X-302108Y-6395177D01*
X-253580Y-6373154D01*
X-159551Y-6317515D01*
X-57811Y-6215778D01*
X-20991Y-6166593D01*
X-15938Y-6159844D01*
X-15937Y-6159844D01*
X-1642Y-6133664D01*
X53020Y-6033556D01*
X83603Y-5892964D01*
X87644Y-5836458D01*
X88587Y-5823278D01*
X88587Y-5823266D01*
X80164Y-5705500D01*
X78323Y-5679761D01*
X28041Y-5544952D01*
X-5444Y-5483629D01*
X-35290Y-5443760D01*
X-91666Y-5368450D01*
X-500092Y-4960024D01*
X-538656Y-4893229D01*
X-538656Y-4816101D01*
X-500092Y-4749306D01*
X-443944Y-4714026D01*
X-437544Y-4711786D01*
X-437539Y-4711786D01*
X-318145Y-4670007D01*
X-241232Y-4664245D01*
X-219728Y-4670006D01*
X-100329Y-4711786D01*
X7978Y-4723989D01*
X62131Y-4730091D01*
X62132Y-4730091D01*
X62133Y-4730091D01*
X102747Y-4725514D01*
X224593Y-4711786D01*
X369356Y-4661130D01*
X446267Y-4655368D01*
X467768Y-4661128D01*
X612539Y-4711786D01*
X720846Y-4723989D01*
X774999Y-4730091D01*
X775000Y-4730091D01*
X775001Y-4730091D01*
X793306Y-4728028D01*
X937461Y-4711786D01*
X1050788Y-4672130D01*
X1127700Y-4666366D01*
X1149211Y-4672130D01*
X1262539Y-4711786D01*
X1404369Y-4727766D01*
X1424999Y-4730091D01*
X1425000Y-4730091D01*
X1425001Y-4730091D01*
X1465615Y-4725514D01*
X1587461Y-4711786D01*
X1741775Y-4657789D01*
X1880204Y-4570808D01*
X1932141Y-4518871D01*
X1998936Y-4480307D01*
X2076064Y-4480307D01*
X2142859Y-4518871D01*
X2169796Y-4545808D01*
X2308225Y-4632789D01*
X2462539Y-4686786D01*
X2570846Y-4698989D01*
X2624999Y-4705091D01*
X2625000Y-4705091D01*
X2625001Y-4705091D01*
X2665615Y-4700514D01*
X2787461Y-4686786D01*
X2941775Y-4632789D01*
X3080204Y-4545808D01*
X3195808Y-4430204D01*
X3282789Y-4291775D01*
X3336786Y-4137461D01*
X3355091Y-3975000D01*
X3352746Y-3954192D01*
X3336786Y-3812541D01*
X3336786Y-3812539D01*
X3282789Y-3658225D01*
X3195808Y-3519796D01*
X3176012Y-3500000D01*
X3400000Y-3500000D01*
X3775000Y-3875000D01*
G37*
%TD.AperFunction*%
%TA.AperFunction,Conductor*%
G36*
X-8493385Y5217373D02*
G01*
X-8423970Y5147958D01*
X-8296942Y5068141D01*
X-8244483Y5011603D01*
X-8235579Y4991196D01*
X-8235016Y4989588D01*
X-8232789Y4983225D01*
X-8145808Y4844796D01*
X-8030204Y4729192D01*
X-7891775Y4642211D01*
X-7737461Y4588214D01*
X-7629154Y4576011D01*
X-7575001Y4569909D01*
X-7575000Y4569909D01*
X-7574999Y4569909D01*
X-7520847Y4576011D01*
X-7412539Y4588214D01*
X-7329183Y4617383D01*
X-7252276Y4623147D01*
X-7230768Y4617384D01*
X-7162482Y4593489D01*
X-7106417Y4587173D01*
X-7034621Y4558996D01*
X-7017739Y4544469D01*
X-6173141Y3699870D01*
X-6134577Y3633075D01*
X-6134577Y3555947D01*
X-6152338Y3515238D01*
X-6182788Y3466778D01*
X-6236787Y3312459D01*
X-6255091Y3150001D01*
X-6255091Y3150000D01*
X-6236787Y2987542D01*
X-6236787Y2987540D01*
X-6236786Y2987539D01*
X-6182789Y2833225D01*
X-6095808Y2694796D01*
X-5980204Y2579192D01*
X-5841775Y2492211D01*
X-5687461Y2438214D01*
X-5525000Y2419909D01*
X-5472091Y2425871D01*
X-5395827Y2414377D01*
X-5335525Y2366289D01*
X-5307346Y2294493D01*
X-5310144Y2244655D01*
X-5311786Y2237461D01*
X-5330091Y2075001D01*
X-5330091Y2075000D01*
X-5311787Y1912542D01*
X-5311787Y1912540D01*
X-5311786Y1912539D01*
X-5257789Y1758225D01*
X-5170808Y1619796D01*
X-5055204Y1504192D01*
X-4916775Y1417211D01*
X-4762461Y1363214D01*
X-4654154Y1351011D01*
X-4600001Y1344909D01*
X-4600000Y1344909D01*
X-4599999Y1344909D01*
X-4559385Y1349486D01*
X-4437539Y1363214D01*
X-4283225Y1417211D01*
X-4246879Y1440050D01*
X-4173183Y1462784D01*
X-4097988Y1445623D01*
X-4093612Y1443097D01*
X-4091785Y1442218D01*
X-4091775Y1442211D01*
X-3937461Y1388214D01*
X-3866379Y1380205D01*
X-3775001Y1369909D01*
X-3775000Y1369909D01*
X-3774999Y1369909D01*
X-3734385Y1374486D01*
X-3612539Y1388214D01*
X-3458225Y1442211D01*
X-3319796Y1529192D01*
X-3204192Y1644796D01*
X-3117211Y1783225D01*
X-3063214Y1937539D01*
X-3056898Y1993608D01*
X-3028722Y2065402D01*
X-3014201Y2082277D01*
X-2944166Y2152312D01*
X-2940568Y2155790D01*
X-2893956Y2199320D01*
X-2873273Y2233335D01*
X-2864698Y2245934D01*
X-2840639Y2277658D01*
X-2834840Y2292365D01*
X-2823542Y2315112D01*
X-2815328Y2328618D01*
X-2804588Y2366953D01*
X-2799733Y2381393D01*
X-2785124Y2418436D01*
X-2783508Y2434155D01*
X-2778766Y2459112D01*
X-2774500Y2474335D01*
X-2774500Y2514137D01*
X-2773719Y2529375D01*
X-2769648Y2568972D01*
X-2772334Y2584553D01*
X-2774500Y2609866D01*
X-2774500Y3013064D01*
X-2774413Y3018151D01*
X-2772238Y3081826D01*
X-2777205Y3102205D01*
X-900000Y1225000D01*
X-900000Y-1825000D01*
X575999Y-3300999D01*
X467777Y-3338868D01*
X390865Y-3344631D01*
X369355Y-3338868D01*
X278001Y-3306902D01*
X224593Y-3288214D01*
X143362Y-3279061D01*
X62133Y-3269909D01*
X62131Y-3269909D01*
X-100327Y-3288213D01*
X-149360Y-3305370D01*
X-219724Y-3329992D01*
X-296635Y-3335755D01*
X-318141Y-3329993D01*
X-437539Y-3288214D01*
X-437540Y-3288213D01*
X-437542Y-3288213D01*
X-599999Y-3269909D01*
X-600001Y-3269909D01*
X-762463Y-3288214D01*
X-827568Y-3310995D01*
X-904480Y-3316758D01*
X-925989Y-3310995D01*
X-952676Y-3301657D01*
X-1062539Y-3263214D01*
X-1143770Y-3254061D01*
X-1224999Y-3244909D01*
X-1225001Y-3244909D01*
X-1387459Y-3263213D01*
X-1458904Y-3288213D01*
X-1541775Y-3317211D01*
X-1541777Y-3317211D01*
X-1541777Y-3317212D01*
X-1633745Y-3375000D01*
X-1680204Y-3404192D01*
X-1795808Y-3519796D01*
X-1811516Y-3544796D01*
X-1812775Y-3546799D01*
X-1869314Y-3599259D01*
X-1944509Y-3616422D01*
X-2018210Y-3593688D01*
X-2065099Y-3546799D01*
X-2097840Y-3494693D01*
X-2129192Y-3444796D01*
X-2244796Y-3329192D01*
X-2383225Y-3242211D01*
X-2383228Y-3242209D01*
X-2383227Y-3242209D01*
X-2445686Y-3220354D01*
X-2509412Y-3176906D01*
X-2542877Y-3107416D01*
X-2545094Y-3090344D01*
X-2545865Y-3079567D01*
X-2547713Y-3053725D01*
X-2565247Y-3006714D01*
X-2597990Y-2918928D01*
X-2597995Y-2918917D01*
X-2597995Y-2918916D01*
X-2631480Y-2857593D01*
X-2642570Y-2842779D01*
X-2717702Y-2742414D01*
X-3097316Y-2362800D01*
X-3148938Y-2317743D01*
X-3148946Y-2317737D01*
X-3175642Y-2297454D01*
X-3175643Y-2297453D01*
X-3175646Y-2297451D01*
X-3223961Y-2265665D01*
X-3232895Y-2259787D01*
X-3366973Y-2207586D01*
X-3428256Y-2193336D01*
X-3430586Y-2192678D01*
X-3435023Y-2191762D01*
X-3435029Y-2191761D01*
X-3435030Y-2191761D01*
X-3578383Y-2179450D01*
X-3578384Y-2179450D01*
X-3578385Y-2179450D01*
X-3719400Y-2208025D01*
X-3719406Y-2208027D01*
X-3785199Y-2231503D01*
X-3785200Y-2231503D01*
X-3912446Y-2298644D01*
X-3912448Y-2298646D01*
X-3927752Y-2309765D01*
X-3954720Y-2325334D01*
X-4001961Y-2346366D01*
X-4031577Y-2355990D01*
X-4082169Y-2366744D01*
X-4113147Y-2370000D01*
X-4164856Y-2370000D01*
X-4195832Y-2366744D01*
X-4246418Y-2355992D01*
X-4276043Y-2346366D01*
X-4323278Y-2325335D01*
X-4350254Y-2309760D01*
X-4392097Y-2279359D01*
X-4415244Y-2258517D01*
X-4474527Y-2192678D01*
X-4487940Y-2177781D01*
X-4487943Y-2177778D01*
X-4487953Y-2177767D01*
X-4511220Y-2155157D01*
X-4517759Y-2148802D01*
X-4557274Y-2082568D01*
X-4558378Y-2005448D01*
X-4520774Y-1938108D01*
X-4501503Y-1921408D01*
X-4469129Y-1897888D01*
X-4373113Y-1791252D01*
X-4342470Y-1757220D01*
X-4342469Y-1757218D01*
X-4342467Y-1757216D01*
X-4247821Y-1593284D01*
X-4189326Y-1413256D01*
X-4169540Y-1225000D01*
X-4189326Y-1036744D01*
X-4247821Y-856716D01*
X-4342467Y-692784D01*
X-4342468Y-692783D01*
X-4342470Y-692779D01*
X-4469128Y-552113D01*
X-4559100Y-486745D01*
X-4622270Y-440849D01*
X-4622271Y-440848D01*
X-4622273Y-440847D01*
X-4785252Y-368284D01*
X-4795197Y-363856D01*
X-4901640Y-341231D01*
X-4980352Y-324500D01*
X-4980354Y-324500D01*
X-5169646Y-324500D01*
X-5169648Y-324500D01*
X-5269608Y-345747D01*
X-5354803Y-363856D01*
X-5354805Y-363856D01*
X-5354806Y-363857D01*
X-5527728Y-440847D01*
X-5680873Y-552113D01*
X-5807532Y-692781D01*
X-5828462Y-729032D01*
X-5883001Y-783568D01*
X-5957501Y-803529D01*
X-6032001Y-783565D01*
X-6036770Y-780691D01*
X-6058221Y-767212D01*
X-6212542Y-713213D01*
X-6374999Y-694909D01*
X-6375001Y-694909D01*
X-6537463Y-713214D01*
X-6649263Y-752334D01*
X-6726175Y-758097D01*
X-6747684Y-752334D01*
X-6788036Y-738214D01*
X-6869528Y-729032D01*
X-6950496Y-719909D01*
X-6950498Y-719909D01*
X-7112956Y-738213D01*
X-7112960Y-738214D01*
X-7188539Y-764660D01*
X-7265452Y-770423D01*
X-7286960Y-764660D01*
X-7322186Y-752334D01*
X-7362539Y-738214D01*
X-7444031Y-729032D01*
X-7524999Y-719909D01*
X-7525001Y-719909D01*
X-7687459Y-738213D01*
X-7729177Y-752811D01*
X-7841775Y-792211D01*
X-7841777Y-792211D01*
X-7841777Y-792212D01*
X-7980204Y-879192D01*
X-8095808Y-994796D01*
X-8175694Y-1121934D01*
X-8182789Y-1133225D01*
X-8187192Y-1145808D01*
X-8236787Y-1287541D01*
X-8247175Y-1379741D01*
X-8255091Y-1450000D01*
X-8236786Y-1612461D01*
X-8207310Y-1696698D01*
X-8201547Y-1773610D01*
X-8235011Y-1843100D01*
X-8298738Y-1886548D01*
X-8341700Y-1893847D01*
X-8341685Y-1893972D01*
X-8343909Y-1894222D01*
X-8347949Y-1894909D01*
X-8350001Y-1894909D01*
X-8512459Y-1913213D01*
X-8578385Y-1936282D01*
X-8666775Y-1967211D01*
X-8666777Y-1967211D01*
X-8666777Y-1967212D01*
X-8805204Y-2054192D01*
X-8805206Y-2054193D01*
X-8851540Y-2100527D01*
X-8918335Y-2139090D01*
X-8995463Y-2139090D01*
X-9062257Y-2100526D01*
X-11855859Y693076D01*
X-11894423Y759871D01*
X-11899500Y798435D01*
X-11899500Y1960258D01*
X-11879538Y2034758D01*
X-11855863Y2065613D01*
X-8704103Y5217374D01*
X-8637308Y5255937D01*
X-8560180Y5255937D01*
X-8493385Y5217373D01*
G37*
%TD.AperFunction*%
%TA.AperFunction,Conductor*%
G36*
X-3720500Y4045500D02*
G01*
X-3759135Y4045500D01*
X-3774372Y4046281D01*
X-3787855Y4047667D01*
X-3813972Y4050352D01*
X-3813973Y4050352D01*
X-3813974Y4050352D01*
X-3825646Y4048340D01*
X-3829546Y4047667D01*
X-3854862Y4045500D01*
X-4086900Y4045500D01*
X-4161400Y4065462D01*
X-4192259Y4089141D01*
X-5447515Y5344397D01*
X-5486079Y5411192D01*
X-5490218Y5433068D01*
X-5494584Y5471821D01*
X-5483088Y5548085D01*
X-5434999Y5608386D01*
X-5363202Y5636563D01*
X-5346521Y5637500D01*
X-5312500Y5637500D01*
X-3720500Y4045500D01*
G37*
%TD.AperFunction*%
%TA.AperFunction,Conductor*%
G36*
X-6813500Y6738500D02*
G01*
X-7061899Y6738500D01*
X-7136399Y6758462D01*
X-7190937Y6813000D01*
X-7210899Y6887500D01*
X-7190937Y6962000D01*
X-7167258Y6992859D01*
X-7117559Y7042559D01*
X-6813500Y6738500D01*
G37*
%TD.AperFunction*%
%TA.AperFunction,Conductor*%
G36*
X15503070Y20999374D02*
G01*
X15717453Y20990506D01*
X15717453Y20990500D01*
X15717738Y20990495D01*
X15717776Y20990493D01*
X15954898Y20980139D01*
X15966781Y20979141D01*
X16192972Y20950947D01*
X16193553Y20950872D01*
X16418634Y20921240D01*
X16429710Y20919353D01*
X16654617Y20872195D01*
X16656162Y20871861D01*
X16875654Y20823201D01*
X16885888Y20820547D01*
X17106975Y20754727D01*
X17109003Y20754105D01*
X17322706Y20686725D01*
X17332003Y20683449D01*
X17547322Y20599431D01*
X17549955Y20598372D01*
X17756481Y20512826D01*
X17764871Y20509042D01*
X17972782Y20407401D01*
X17975911Y20405822D01*
X18173925Y20302742D01*
X18181383Y20298584D01*
X18380249Y20180085D01*
X18383953Y20177803D01*
X18572017Y20057992D01*
X18578539Y20053591D01*
X18766955Y19919065D01*
X18771080Y19916011D01*
X18947909Y19780326D01*
X18953485Y19775830D01*
X19033815Y19707794D01*
X19130181Y19626175D01*
X19134545Y19622331D01*
X19298848Y19471776D01*
X19303544Y19467280D01*
X19467278Y19303546D01*
X19471774Y19298850D01*
X19622329Y19134547D01*
X19626173Y19130183D01*
X19775813Y18953505D01*
X19780324Y18947911D01*
X19916009Y18771082D01*
X19919063Y18766957D01*
X20053589Y18578541D01*
X20057990Y18572019D01*
X20177775Y18383996D01*
X20180109Y18380209D01*
X20298579Y18181390D01*
X20302744Y18173920D01*
X20353180Y18077034D01*
X20405788Y17975975D01*
X20407432Y17972719D01*
X20434248Y17917866D01*
X20509031Y17764893D01*
X20512828Y17756474D01*
X20598325Y17550068D01*
X20599469Y17547222D01*
X20613481Y17511314D01*
X20683436Y17332035D01*
X20686733Y17322677D01*
X20754063Y17109134D01*
X20754765Y17106844D01*
X20820540Y16885908D01*
X20823202Y16875642D01*
X20871849Y16656209D01*
X20872210Y16654537D01*
X20919346Y16429737D01*
X20921242Y16418608D01*
X20950839Y16193793D01*
X20950970Y16192775D01*
X20979137Y15966806D01*
X20980139Y15954875D01*
X20990490Y15717797D01*
X20990497Y15717455D01*
X20990505Y15717455D01*
X20999373Y15503071D01*
X20999500Y15496913D01*
X20999500Y-15496912D01*
X20999373Y-15503070D01*
X20990505Y-15717454D01*
X20990490Y-15717795D01*
X20980139Y-15954873D01*
X20979137Y-15966804D01*
X20950970Y-16192773D01*
X20950839Y-16193791D01*
X20921242Y-16418606D01*
X20919346Y-16429735D01*
X20872210Y-16654535D01*
X20871849Y-16656207D01*
X20823202Y-16875640D01*
X20820540Y-16885906D01*
X20754765Y-17106842D01*
X20754063Y-17109132D01*
X20686733Y-17322675D01*
X20683436Y-17332033D01*
X20599474Y-17547209D01*
X20598325Y-17550066D01*
X20512828Y-17756472D01*
X20509031Y-17764891D01*
X20414577Y-17958101D01*
X20407487Y-17972607D01*
X20407466Y-17972649D01*
X20405769Y-17976011D01*
X20302744Y-18173918D01*
X20298579Y-18181388D01*
X20180109Y-18380207D01*
X20177775Y-18383994D01*
X20057990Y-18572017D01*
X20053589Y-18578539D01*
X19919063Y-18766955D01*
X19916009Y-18771080D01*
X19780324Y-18947909D01*
X19775813Y-18953503D01*
X19626173Y-19130181D01*
X19622329Y-19134545D01*
X19471774Y-19298848D01*
X19467278Y-19303544D01*
X19303544Y-19467278D01*
X19298848Y-19471774D01*
X19134545Y-19622329D01*
X19130181Y-19626173D01*
X18953503Y-19775813D01*
X18947909Y-19780324D01*
X18771080Y-19916009D01*
X18766955Y-19919063D01*
X18578539Y-20053589D01*
X18572017Y-20057990D01*
X18383994Y-20177775D01*
X18380207Y-20180109D01*
X18181388Y-20298579D01*
X18173918Y-20302744D01*
X17976011Y-20405769D01*
X17972649Y-20407466D01*
X17764891Y-20509031D01*
X17756472Y-20512828D01*
X17550066Y-20598325D01*
X17547209Y-20599474D01*
X17332033Y-20683436D01*
X17322675Y-20686733D01*
X17109132Y-20754063D01*
X17106842Y-20754765D01*
X16885906Y-20820540D01*
X16875640Y-20823202D01*
X16656207Y-20871849D01*
X16654535Y-20872210D01*
X16429735Y-20919346D01*
X16418606Y-20921242D01*
X16193791Y-20950839D01*
X16192773Y-20950970D01*
X15966804Y-20979137D01*
X15954873Y-20980139D01*
X15717795Y-20990490D01*
X15717454Y-20990505D01*
X15503070Y-20999373D01*
X15496912Y-20999500D01*
X-15496912Y-20999500D01*
X-15503070Y-20999373D01*
X-15717455Y-20990505D01*
X-15717455Y-20990497D01*
X-15717797Y-20990490D01*
X-15954875Y-20980139D01*
X-15966806Y-20979137D01*
X-16192692Y-20950981D01*
X-16193712Y-20950850D01*
X-16418624Y-20921238D01*
X-16429751Y-20919342D01*
X-16654509Y-20872216D01*
X-16656182Y-20871855D01*
X-16875641Y-20823202D01*
X-16885905Y-20820540D01*
X-17106843Y-20754765D01*
X-17109134Y-20754063D01*
X-17322677Y-20686733D01*
X-17332035Y-20683436D01*
X-17547211Y-20599474D01*
X-17550068Y-20598325D01*
X-17756474Y-20512828D01*
X-17764894Y-20509030D01*
X-17972609Y-20407485D01*
X-17975970Y-20405790D01*
X-18173944Y-20302731D01*
X-18181414Y-20298565D01*
X-18380192Y-20180118D01*
X-18383978Y-20177785D01*
X-18572021Y-20057989D01*
X-18578544Y-20053587D01*
X-18766957Y-19919063D01*
X-18771082Y-19916009D01*
X-18947911Y-19780324D01*
X-18953505Y-19775813D01*
X-19130183Y-19626173D01*
X-19134547Y-19622329D01*
X-19298850Y-19471774D01*
X-19303546Y-19467278D01*
X-19467280Y-19303544D01*
X-19471776Y-19298848D01*
X-19622331Y-19134545D01*
X-19626175Y-19130181D01*
X-19707794Y-19033815D01*
X-19775830Y-18953485D01*
X-19780326Y-18947909D01*
X-19916011Y-18771080D01*
X-19919065Y-18766955D01*
X-20053589Y-18578542D01*
X-20057982Y-18572033D01*
X-20177789Y-18383973D01*
X-20180120Y-18380190D01*
X-20298567Y-18181412D01*
X-20302725Y-18173957D01*
X-20405809Y-17975934D01*
X-20407469Y-17972643D01*
X-20509035Y-17764886D01*
X-20512830Y-17756472D01*
X-20598372Y-17549955D01*
X-20599431Y-17547322D01*
X-20683449Y-17332003D01*
X-20686725Y-17322706D01*
X-20754104Y-17109005D01*
X-20754737Y-17106939D01*
X-20820542Y-16885903D01*
X-20823202Y-16875650D01*
X-20871888Y-16656037D01*
X-20872212Y-16654535D01*
X-20919344Y-16429749D01*
X-20921240Y-16418622D01*
X-20924976Y-16390247D01*
X-20950912Y-16193246D01*
X-20950926Y-16193137D01*
X-20979141Y-15966781D01*
X-20980139Y-15954898D01*
X-20990493Y-15717786D01*
X-20999373Y-15503070D01*
X-20999436Y-15500008D01*
X-18904994Y-15500008D01*
X-18885035Y-15868136D01*
X-18885035Y-15868142D01*
X-18825387Y-16231974D01*
X-18825387Y-16231976D01*
X-18726753Y-16587221D01*
X-18726751Y-16587226D01*
X-18590291Y-16929715D01*
X-18590285Y-16929728D01*
X-18417596Y-17255456D01*
X-18417593Y-17255461D01*
X-18210697Y-17560608D01*
X-18210688Y-17560620D01*
X-18074504Y-17720948D01*
X-18074503Y-17720948D01*
X-16758650Y-16405094D01*
X-16704544Y-16483480D01*
X-16531184Y-16663966D01*
X-16405135Y-16758686D01*
X-17723480Y-18077031D01*
X-17704343Y-18095159D01*
X-17704342Y-18095160D01*
X-17410835Y-18318278D01*
X-17094934Y-18508350D01*
X-16760316Y-18663160D01*
X-16760306Y-18663165D01*
X-16410937Y-18780880D01*
X-16050869Y-18860137D01*
X-15684344Y-18899999D01*
X-15684334Y-18900000D01*
X-15315666Y-18900000D01*
X-15315657Y-18899999D01*
X-14949132Y-18860137D01*
X-14949131Y-18860137D01*
X-14589064Y-18780880D01*
X-14239695Y-18663165D01*
X-14239685Y-18663160D01*
X-13905067Y-18508350D01*
X-13589166Y-18318278D01*
X-13295648Y-18095151D01*
X-13276521Y-18077032D01*
X-14593121Y-16760432D01*
X-14565820Y-16743168D01*
X-14378499Y-16577216D01*
X-14239489Y-16406958D01*
X-12925499Y-17720948D01*
X-12789310Y-17560617D01*
X-12789306Y-17560611D01*
X-12582408Y-17255461D01*
X-12582405Y-17255456D01*
X-12409716Y-16929728D01*
X-12409710Y-16929715D01*
X-12273250Y-16587226D01*
X-12273248Y-16587221D01*
X-12174614Y-16231976D01*
X-12174614Y-16231974D01*
X-12114966Y-15868142D01*
X-12114966Y-15868136D01*
X-12107385Y-15728315D01*
X-10467940Y-15728315D01*
X-10437665Y-15900011D01*
X-10368612Y-16060095D01*
X-10264502Y-16199938D01*
X-10130950Y-16312002D01*
X-10130949Y-16312002D01*
X-10130947Y-16312004D01*
X-9975148Y-16390249D01*
X-9805504Y-16430455D01*
X-9805502Y-16430455D01*
X-9674894Y-16430455D01*
X-9674890Y-16430454D01*
X-9545169Y-16415292D01*
X-9381340Y-16355663D01*
X-9235679Y-16259860D01*
X-9209371Y-16231976D01*
X-9165110Y-16185062D01*
X-9116037Y-16133048D01*
X-9028866Y-15982062D01*
X-8978864Y-15815043D01*
X-8968726Y-15640995D01*
X-8999001Y-15469301D01*
X-9068054Y-15309217D01*
X-9068055Y-15309214D01*
X-9172165Y-15169371D01*
X-9305717Y-15057307D01*
X-9461515Y-14979062D01*
X-9461517Y-14979061D01*
X-9461518Y-14979061D01*
X-9631162Y-14938855D01*
X-9761769Y-14938855D01*
X-9761778Y-14938855D01*
X-9891493Y-14954017D01*
X-9891497Y-14954017D01*
X-10055322Y-15013645D01*
X-10055324Y-15013646D01*
X-10055326Y-15013647D01*
X-10136992Y-15067360D01*
X-10200992Y-15109453D01*
X-10320624Y-15236255D01*
X-10320632Y-15236266D01*
X-10407800Y-15387246D01*
X-10407801Y-15387248D01*
X-10441406Y-15499500D01*
X-10454619Y-15543637D01*
X-10457802Y-15554268D01*
X-10467940Y-15728309D01*
X-10467940Y-15728315D01*
X-12107385Y-15728315D01*
X-12095006Y-15500008D01*
X-12095006Y-15499991D01*
X-12114966Y-15131863D01*
X-12114966Y-15131857D01*
X-12174614Y-14768025D01*
X-12174614Y-14768023D01*
X-12273248Y-14412778D01*
X-12273250Y-14412773D01*
X-12409710Y-14070284D01*
X-12409716Y-14070271D01*
X-12582405Y-13744543D01*
X-12582408Y-13744538D01*
X-12789304Y-13439391D01*
X-12789313Y-13439379D01*
X-12925498Y-13279050D01*
X-12925499Y-13279050D01*
X-14241352Y-14594903D01*
X-14295456Y-14516520D01*
X-14468816Y-14336034D01*
X-14594868Y-14241312D01*
X-13276521Y-12922966D01*
X-13295653Y-12904844D01*
X-13542315Y-12717336D01*
X-10042384Y-12717336D01*
X-10001574Y-12851869D01*
X-9908715Y-13025596D01*
X-9908714Y-13025598D01*
X-9783754Y-13177861D01*
X-9783749Y-13177866D01*
X-9631486Y-13302826D01*
X-9631484Y-13302827D01*
X-9457755Y-13395686D01*
X-9457756Y-13395686D01*
X-9323224Y-13436495D01*
X-9323223Y-13436495D01*
X-9323223Y-12717336D01*
X-10042384Y-12717336D01*
X-13542315Y-12717336D01*
X-13589166Y-12681721D01*
X-13905067Y-12491649D01*
X-14239685Y-12336839D01*
X-14239695Y-12336834D01*
X-14589064Y-12219119D01*
X-14949132Y-12139862D01*
X-15315657Y-12100000D01*
X-15684344Y-12100000D01*
X-16050869Y-12139862D01*
X-16050870Y-12139862D01*
X-16410937Y-12219119D01*
X-16760306Y-12336834D01*
X-16760316Y-12336839D01*
X-17094934Y-12491649D01*
X-17410835Y-12681721D01*
X-17704337Y-12904835D01*
X-17723480Y-12922967D01*
X-16406880Y-14239567D01*
X-16434180Y-14256832D01*
X-16621501Y-14422784D01*
X-16760512Y-14593041D01*
X-18074503Y-13279050D01*
X-18074504Y-13279050D01*
X-18210692Y-13439383D01*
X-18210694Y-13439386D01*
X-18417598Y-13744547D01*
X-18590285Y-14070271D01*
X-18590291Y-14070284D01*
X-18726751Y-14412773D01*
X-18726753Y-14412778D01*
X-18825387Y-14768023D01*
X-18825387Y-14768025D01*
X-18885035Y-15131857D01*
X-18885035Y-15131863D01*
X-18904994Y-15499991D01*
X-18904994Y-15500008D01*
X-20999436Y-15500008D01*
X-20999500Y-15496913D01*
X-20999500Y-11475000D01*
X-10630460Y-11475000D01*
X-10610675Y-11663254D01*
X-10552181Y-11843278D01*
X-10552179Y-11843284D01*
X-10509617Y-11917004D01*
X-10457531Y-12007220D01*
X-10355753Y-12120254D01*
X-10330871Y-12147888D01*
X-10177730Y-12259151D01*
X-10004803Y-12336144D01*
X-9863685Y-12366139D01*
X-9819648Y-12375500D01*
X-9819646Y-12375500D01*
X-9630352Y-12375500D01*
X-9590996Y-12367134D01*
X-9445197Y-12336144D01*
X-9386382Y-12309957D01*
X-9417205Y-12380228D01*
X-9426851Y-12496638D01*
X-9398176Y-12609874D01*
X-9334287Y-12707663D01*
X-9242108Y-12779408D01*
X-9131628Y-12817336D01*
X-9044218Y-12817336D01*
X-8958007Y-12802950D01*
X-8855276Y-12747355D01*
X-8827642Y-12717336D01*
X-8823223Y-12717336D01*
X-8823223Y-13436495D01*
X-8688691Y-13395686D01*
X-8514963Y-13302827D01*
X-8514961Y-13302826D01*
X-8362698Y-13177866D01*
X-8362693Y-13177861D01*
X-8237733Y-13025598D01*
X-8237732Y-13025596D01*
X-8144873Y-12851869D01*
X-8104062Y-12717336D01*
X-8823223Y-12717336D01*
X-8827642Y-12717336D01*
X-8776163Y-12661415D01*
X-8729241Y-12554444D01*
X-8719595Y-12438034D01*
X-8748270Y-12324798D01*
X-8812159Y-12227009D01*
X-8824587Y-12217336D01*
X-8104062Y-12217336D01*
X-8104062Y-12217335D01*
X-8144873Y-12082802D01*
X-8237732Y-11909075D01*
X-8237733Y-11909073D01*
X-8362693Y-11756810D01*
X-8362698Y-11756805D01*
X-8514961Y-11631845D01*
X-8514963Y-11631844D01*
X-8688692Y-11538985D01*
X-8688693Y-11538984D01*
X-8722307Y-11528787D01*
X-8787803Y-11488057D01*
X-8824160Y-11420036D01*
X-8827236Y-11401778D01*
X-8827864Y-11395807D01*
X-8839326Y-11286744D01*
X-8897821Y-11106716D01*
X-8992467Y-10942784D01*
X-8992468Y-10942783D01*
X-8992470Y-10942779D01*
X-9119128Y-10802113D01*
X-9149285Y-10780203D01*
X-9272270Y-10690849D01*
X-9272271Y-10690848D01*
X-9272273Y-10690847D01*
X-9445195Y-10613857D01*
X-9445197Y-10613856D01*
X-9551640Y-10591231D01*
X-9630352Y-10574500D01*
X-9630354Y-10574500D01*
X-9819646Y-10574500D01*
X-9819648Y-10574500D01*
X-9919608Y-10595747D01*
X-10004803Y-10613856D01*
X-10004805Y-10613856D01*
X-10004806Y-10613857D01*
X-10177728Y-10690847D01*
X-10330873Y-10802113D01*
X-10457531Y-10942779D01*
X-10552178Y-11106714D01*
X-10552181Y-11106721D01*
X-10610675Y-11286745D01*
X-10630460Y-11475000D01*
X-20999500Y-11475000D01*
X-20999500Y-9323223D01*
X-13436497Y-9323223D01*
X-13395687Y-9457756D01*
X-13302828Y-9631483D01*
X-13302827Y-9631485D01*
X-13177867Y-9783748D01*
X-13177862Y-9783753D01*
X-13025599Y-9908713D01*
X-13025597Y-9908714D01*
X-12851868Y-10001573D01*
X-12851869Y-10001573D01*
X-12717337Y-10042382D01*
X-12710731Y-10037483D01*
X-12697374Y-9987636D01*
X-12642836Y-9933098D01*
X-12568336Y-9913136D01*
X-12493836Y-9933098D01*
X-12439298Y-9987636D01*
X-12426631Y-10016088D01*
X-12377179Y-10168284D01*
X-12325932Y-10257046D01*
X-12282531Y-10332220D01*
X-12209387Y-10413453D01*
X-12155871Y-10472888D01*
X-12002730Y-10584151D01*
X-11829803Y-10661144D01*
X-11690060Y-10690847D01*
X-11644648Y-10700500D01*
X-11644646Y-10700500D01*
X-11455352Y-10700500D01*
X-11415996Y-10692134D01*
X-11270197Y-10661144D01*
X-11097270Y-10584151D01*
X-10944129Y-10472888D01*
X-10833234Y-10349727D01*
X-10817470Y-10332220D01*
X-10817469Y-10332218D01*
X-10817467Y-10332216D01*
X-10722821Y-10168284D01*
X-10664326Y-9988256D01*
X-10644540Y-9800000D01*
X-10664326Y-9611744D01*
X-10722821Y-9431716D01*
X-10817467Y-9267784D01*
X-10817468Y-9267783D01*
X-10817470Y-9267779D01*
X-10944128Y-9127113D01*
X-10947729Y-9124497D01*
X-11097270Y-9015849D01*
X-11097271Y-9015848D01*
X-11097273Y-9015847D01*
X-11270195Y-8938857D01*
X-11270197Y-8938856D01*
X-11390332Y-8913320D01*
X-11459053Y-8878305D01*
X-11501059Y-8813620D01*
X-11501936Y-8810828D01*
X-11538985Y-8688693D01*
X-11538986Y-8688691D01*
X-11631845Y-8514962D01*
X-11631846Y-8514960D01*
X-11756806Y-8362697D01*
X-11756811Y-8362692D01*
X-11909074Y-8237732D01*
X-11909076Y-8237731D01*
X-12082803Y-8144872D01*
X-12217336Y-8104061D01*
X-12217336Y-8824284D01*
X-12298451Y-8761151D01*
X-12408931Y-8723223D01*
X-12496341Y-8723223D01*
X-12582552Y-8737609D01*
X-12685283Y-8793204D01*
X-12764396Y-8879144D01*
X-12811318Y-8986115D01*
X-12820964Y-9102525D01*
X-12792289Y-9215761D01*
X-12728400Y-9313550D01*
X-12636221Y-9385295D01*
X-12525741Y-9423223D01*
X-12438331Y-9423223D01*
X-12365234Y-9411025D01*
X-12377178Y-9431714D01*
X-12377181Y-9431721D01*
X-12408391Y-9527777D01*
X-12424293Y-9576719D01*
X-12426629Y-9583907D01*
X-12468636Y-9648592D01*
X-12537357Y-9683607D01*
X-12614380Y-9679570D01*
X-12679065Y-9637563D01*
X-12714080Y-9568842D01*
X-12717336Y-9537863D01*
X-12717336Y-9323223D01*
X-13436497Y-9323223D01*
X-20999500Y-9323223D01*
X-20999500Y-8823222D01*
X-13436498Y-8823222D01*
X-13436497Y-8823223D01*
X-12717336Y-8823223D01*
X-12717336Y-8104062D01*
X-12717337Y-8104061D01*
X-12851870Y-8144872D01*
X-13025597Y-8237731D01*
X-13025599Y-8237732D01*
X-13177862Y-8362692D01*
X-13177867Y-8362697D01*
X-13302827Y-8514960D01*
X-13302828Y-8514962D01*
X-13395687Y-8688689D01*
X-13436498Y-8823222D01*
X-20999500Y-8823222D01*
X-20999500Y-5099495D01*
X-16255332Y-5099495D01*
X-16237028Y-5261953D01*
X-16237027Y-5261957D01*
X-16210428Y-5337974D01*
X-16204665Y-5414887D01*
X-16210428Y-5436393D01*
X-16236719Y-5511531D01*
X-16236721Y-5511538D01*
X-16255025Y-5673996D01*
X-16255025Y-5673997D01*
X-16236721Y-5836455D01*
X-16236721Y-5836457D01*
X-16236720Y-5836458D01*
X-16182723Y-5990772D01*
X-16095742Y-6129201D01*
X-15980138Y-6244805D01*
X-15841709Y-6331786D01*
X-15687395Y-6385783D01*
X-15604030Y-6395176D01*
X-15524935Y-6404088D01*
X-15524934Y-6404088D01*
X-15524933Y-6404088D01*
X-15484319Y-6399511D01*
X-15362473Y-6385783D01*
X-15208159Y-6331786D01*
X-15069730Y-6244805D01*
X-14954126Y-6129201D01*
X-14867145Y-5990772D01*
X-14813148Y-5836458D01*
X-14794843Y-5673997D01*
X-14813148Y-5511536D01*
X-14839749Y-5435517D01*
X-14845513Y-5358608D01*
X-14839751Y-5337101D01*
X-14813455Y-5261956D01*
X-14795150Y-5099495D01*
X-14813455Y-4937034D01*
X-14838502Y-4865457D01*
X-14844266Y-4788547D01*
X-14838506Y-4767048D01*
X-14810656Y-4687461D01*
X-14792351Y-4525000D01*
X-14793042Y-4518871D01*
X-14810656Y-4362541D01*
X-14810656Y-4362539D01*
X-14864653Y-4208225D01*
X-14951634Y-4069796D01*
X-15067238Y-3954192D01*
X-15205667Y-3867211D01*
X-15359981Y-3813214D01*
X-15359982Y-3813213D01*
X-15359984Y-3813213D01*
X-15522441Y-3794909D01*
X-15522443Y-3794909D01*
X-15684901Y-3813213D01*
X-15762060Y-3840212D01*
X-15839217Y-3867211D01*
X-15839219Y-3867211D01*
X-15839219Y-3867212D01*
X-15977646Y-3954192D01*
X-16093250Y-4069796D01*
X-16143179Y-4149258D01*
X-16180231Y-4208225D01*
X-16190000Y-4236144D01*
X-16234229Y-4362541D01*
X-16252533Y-4524999D01*
X-16252533Y-4525000D01*
X-16234228Y-4687461D01*
X-16224932Y-4714026D01*
X-16209183Y-4759036D01*
X-16203420Y-4835949D01*
X-16209183Y-4857456D01*
X-16237026Y-4937029D01*
X-16237028Y-4937036D01*
X-16255332Y-5099494D01*
X-16255332Y-5099495D01*
X-20999500Y-5099495D01*
X-20999500Y2175000D01*
X-17330091Y2175000D01*
X-17311787Y2012542D01*
X-17311787Y2012540D01*
X-17311786Y2012539D01*
X-17257789Y1858225D01*
X-17170808Y1719796D01*
X-17055204Y1604192D01*
X-16916775Y1517211D01*
X-16762461Y1463214D01*
X-16726204Y1459129D01*
X-16654407Y1430951D01*
X-16606318Y1370650D01*
X-16602248Y1360278D01*
X-16557791Y1233227D01*
X-16528208Y1186147D01*
X-16470808Y1094796D01*
X-16470807Y1094795D01*
X-16456371Y1080359D01*
X-16417807Y1013564D01*
X-16417807Y936436D01*
X-16456371Y869641D01*
X-16470808Y855204D01*
X-16543913Y738858D01*
X-16557789Y716775D01*
X-16566419Y692112D01*
X-16611787Y562459D01*
X-16630091Y400001D01*
X-16630091Y400000D01*
X-16611787Y237542D01*
X-16611787Y237540D01*
X-16611786Y237539D01*
X-16557789Y83225D01*
X-16470808Y-55204D01*
X-16355204Y-170808D01*
X-16216775Y-257789D01*
X-16138994Y-285006D01*
X-16075269Y-328453D01*
X-16041804Y-397943D01*
X-16040143Y-442326D01*
X-16055091Y-574997D01*
X-16055091Y-575000D01*
X-16036787Y-737458D01*
X-16036787Y-737460D01*
X-16036786Y-737461D01*
X-15982789Y-891775D01*
X-15895808Y-1030204D01*
X-15780204Y-1145808D01*
X-15641775Y-1232789D01*
X-15487461Y-1286786D01*
X-15379154Y-1298989D01*
X-15325001Y-1305091D01*
X-15325001Y-1305090D01*
X-15325000Y-1305091D01*
X-15257828Y-1297522D01*
X-15181562Y-1309017D01*
X-15135786Y-1340226D01*
X-15105204Y-1370808D01*
X-15047075Y-1407333D01*
X-14966779Y-1457787D01*
X-14959240Y-1461417D01*
X-14960164Y-1463335D01*
X-14906180Y-1500140D01*
X-14872715Y-1569630D01*
X-14871842Y-1574726D01*
X-14853037Y-1697239D01*
X-14853035Y-1697246D01*
X-14832714Y-1764095D01*
X-14771704Y-1894395D01*
X-14768619Y-1897888D01*
X-14676454Y-2002234D01*
X-14676452Y-2002235D01*
X-14627812Y-2043580D01*
X-14625881Y-2045360D01*
X-14623219Y-2047485D01*
X-14623214Y-2047488D01*
X-14501440Y-2124120D01*
X-14446035Y-2148788D01*
X-14419066Y-2164359D01*
X-14400582Y-2177788D01*
X-14377226Y-2194757D01*
X-14354079Y-2215599D01*
X-14319478Y-2254027D01*
X-14301171Y-2279224D01*
X-14275310Y-2324017D01*
X-14262644Y-2352466D01*
X-14225227Y-2467626D01*
X-14195317Y-2532504D01*
X-14175473Y-2575547D01*
X-14145223Y-2624910D01*
X-14096498Y-2686717D01*
X-14071658Y-2718226D01*
X-13731300Y-3058584D01*
X-13707214Y-3093629D01*
X-13706055Y-3092960D01*
X-13702152Y-3099720D01*
X-13702151Y-3099723D01*
X-13651909Y-3186745D01*
X-13607503Y-3263659D01*
X-13480965Y-3404192D01*
X-13480843Y-3404327D01*
X-13327702Y-3515590D01*
X-13327699Y-3515591D01*
X-13327698Y-3515592D01*
X-13256661Y-3547220D01*
X-13211905Y-3577979D01*
X-12179547Y-4610337D01*
X-12140983Y-4677132D01*
X-12140983Y-4754260D01*
X-12179547Y-4821055D01*
X-12235692Y-4856334D01*
X-12266776Y-4867211D01*
X-12405204Y-4954192D01*
X-12520808Y-5069796D01*
X-12607788Y-5208223D01*
X-12661787Y-5362541D01*
X-12680091Y-5524999D01*
X-12680091Y-5525000D01*
X-12661787Y-5687458D01*
X-12661787Y-5687460D01*
X-12661786Y-5687461D01*
X-12607789Y-5841775D01*
X-12520808Y-5980204D01*
X-12520807Y-5980205D01*
X-12408505Y-6092507D01*
X-12369941Y-6159302D01*
X-12369941Y-6236430D01*
X-12395651Y-6288567D01*
X-12408715Y-6305593D01*
X-12408718Y-6305598D01*
X-12467210Y-6446811D01*
X-12487159Y-6598347D01*
X-12487159Y-6598352D01*
X-12467210Y-6749888D01*
X-12408717Y-6891104D01*
X-12355072Y-6961014D01*
X-12315667Y-7012367D01*
X-12282142Y-7038092D01*
X-12194405Y-7105416D01*
X-12053189Y-7163909D01*
X-11964884Y-7175534D01*
X-11939702Y-7178849D01*
X-11939699Y-7178850D01*
X-11939697Y-7178850D01*
X-11863601Y-7178850D01*
X-11863600Y-7178849D01*
X-11822637Y-7173456D01*
X-11750112Y-7163909D01*
X-11750110Y-7163908D01*
X-11750109Y-7163908D01*
X-11608896Y-7105416D01*
X-11521157Y-7038090D01*
X-11449903Y-7008576D01*
X-11381241Y-7015662D01*
X-11377511Y-7016967D01*
X-11377508Y-7016969D01*
X-11223194Y-7070966D01*
X-11114887Y-7083169D01*
X-11060734Y-7089271D01*
X-11060733Y-7089271D01*
X-11060732Y-7089271D01*
X-11009674Y-7083518D01*
X-10898272Y-7070966D01*
X-10743958Y-7016969D01*
X-10605529Y-6929988D01*
X-10489925Y-6814384D01*
X-10421763Y-6705904D01*
X-10365226Y-6653445D01*
X-10290031Y-6636282D01*
X-10216330Y-6659016D01*
X-10180424Y-6690652D01*
X-10137304Y-6743193D01*
X-10137303Y-6743194D01*
X-9985040Y-6868154D01*
X-9985038Y-6868155D01*
X-9811309Y-6961014D01*
X-9804551Y-6963814D01*
X-9805225Y-6965440D01*
X-9747828Y-7001122D01*
X-9711462Y-7069139D01*
X-9708382Y-7087415D01*
X-9692529Y-7238254D01*
X-9657582Y-7345808D01*
X-9634033Y-7418284D01*
X-9601022Y-7475460D01*
X-9539385Y-7582220D01*
X-9414444Y-7720979D01*
X-9412725Y-7722888D01*
X-9259584Y-7834151D01*
X-9086657Y-7911144D01*
X-8945539Y-7941139D01*
X-8901502Y-7950500D01*
X-8901500Y-7950500D01*
X-8712206Y-7950500D01*
X-8672850Y-7942134D01*
X-8527051Y-7911144D01*
X-8354124Y-7834151D01*
X-8200983Y-7722888D01*
X-8087292Y-7596622D01*
X-8074324Y-7582220D01*
X-8074323Y-7582218D01*
X-8074321Y-7582216D01*
X-7979675Y-7418284D01*
X-7921180Y-7238256D01*
X-7901394Y-7050000D01*
X-7921180Y-6861744D01*
X-7979675Y-6681716D01*
X-8074321Y-6517784D01*
X-8074322Y-6517783D01*
X-8074324Y-6517779D01*
X-8200982Y-6377113D01*
X-8225665Y-6359180D01*
X-8354124Y-6265849D01*
X-8354125Y-6265848D01*
X-8354127Y-6265847D01*
X-8527049Y-6188857D01*
X-8527051Y-6188856D01*
X-8634045Y-6166114D01*
X-8712206Y-6149500D01*
X-8712208Y-6149500D01*
X-8901500Y-6149500D01*
X-8901502Y-6149500D01*
X-8979673Y-6166116D01*
X-9086657Y-6188856D01*
X-9086659Y-6188856D01*
X-9086660Y-6188857D01*
X-9119516Y-6203485D01*
X-9082795Y-6119772D01*
X-9073149Y-6003362D01*
X-9101824Y-5890126D01*
X-9165713Y-5792337D01*
X-9178141Y-5782664D01*
X-8457615Y-5782664D01*
X-8445065Y-5765742D01*
X-8384652Y-5717794D01*
X-8325387Y-5705500D01*
X-5171102Y-5705500D01*
X-5096602Y-5725462D01*
X-5065743Y-5749141D01*
X-4195629Y-6619255D01*
X-4118125Y-6681714D01*
X-4111487Y-6687063D01*
X-4067140Y-6715564D01*
X-4067138Y-6715565D01*
X-4067129Y-6715570D01*
X-3981051Y-6758657D01*
X-3970491Y-6763943D01*
X-3970483Y-6763944D01*
X-3965693Y-6765635D01*
X-3902076Y-6809242D01*
X-3868786Y-6878816D01*
X-3867194Y-6889466D01*
X-3861787Y-6937459D01*
X-3853358Y-6961546D01*
X-3807789Y-7091775D01*
X-3720808Y-7230204D01*
X-3720807Y-7230205D01*
X-3605205Y-7345807D01*
X-3598663Y-7351024D01*
X-3600091Y-7352814D01*
X-3556071Y-7400265D01*
X-3538915Y-7475460D01*
X-3540326Y-7491079D01*
X-3555500Y-7596622D01*
X-3555500Y-8644523D01*
X-3575462Y-8719023D01*
X-3630000Y-8773561D01*
X-3704500Y-8793523D01*
X-3779000Y-8773561D01*
X-3833538Y-8719023D01*
X-3846207Y-8690567D01*
X-3846816Y-8688693D01*
X-3897821Y-8531716D01*
X-3992467Y-8367784D01*
X-3992468Y-8367783D01*
X-3992470Y-8367779D01*
X-4119128Y-8227113D01*
X-4167167Y-8192211D01*
X-4272270Y-8115849D01*
X-4272271Y-8115848D01*
X-4272273Y-8115847D01*
X-4445195Y-8038857D01*
X-4445197Y-8038856D01*
X-4551640Y-8016231D01*
X-4630352Y-7999500D01*
X-4630354Y-7999500D01*
X-4819646Y-7999500D01*
X-4819648Y-7999500D01*
X-4919608Y-8020747D01*
X-5004803Y-8038856D01*
X-5004805Y-8038856D01*
X-5004806Y-8038857D01*
X-5177728Y-8115847D01*
X-5330873Y-8227113D01*
X-5457532Y-8367781D01*
X-5490998Y-8425746D01*
X-5545536Y-8480283D01*
X-5620036Y-8500245D01*
X-5663288Y-8493829D01*
X-5782664Y-8457615D01*
X-5782664Y-8636348D01*
X-5802626Y-8710848D01*
X-5839969Y-8748190D01*
X-5795546Y-8803047D01*
X-5782664Y-8863651D01*
X-5782664Y-9177838D01*
X-5863779Y-9114705D01*
X-5974259Y-9076777D01*
X-6061669Y-9076777D01*
X-6138501Y-9089597D01*
X-6089326Y-8938256D01*
X-6079848Y-8848077D01*
X-6052208Y-8776072D01*
X-6020862Y-8750688D01*
X-6060702Y-8710848D01*
X-6079848Y-8651922D01*
X-6089326Y-8561745D01*
X-6089326Y-8561744D01*
X-6147821Y-8381716D01*
X-6242467Y-8217784D01*
X-6242468Y-8217783D01*
X-6242470Y-8217779D01*
X-6369128Y-8077113D01*
X-6522273Y-7965847D01*
X-6695195Y-7888857D01*
X-6695197Y-7888856D01*
X-6801640Y-7866231D01*
X-6880352Y-7849500D01*
X-6880354Y-7849500D01*
X-7069646Y-7849500D01*
X-7069648Y-7849500D01*
X-7169608Y-7870747D01*
X-7254803Y-7888856D01*
X-7254805Y-7888856D01*
X-7254806Y-7888857D01*
X-7427728Y-7965847D01*
X-7580873Y-8077113D01*
X-7707531Y-8217779D01*
X-7802178Y-8381714D01*
X-7802181Y-8381721D01*
X-7860675Y-8561745D01*
X-7880460Y-8750000D01*
X-7860675Y-8938254D01*
X-7805055Y-9109432D01*
X-7802179Y-9118284D01*
X-7780706Y-9155476D01*
X-7707531Y-9282220D01*
X-7603753Y-9397475D01*
X-7580871Y-9422888D01*
X-7427730Y-9534151D01*
X-7254803Y-9611144D01*
X-7105128Y-9642958D01*
X-7091735Y-9645805D01*
X-7023013Y-9680821D01*
X-6981006Y-9745506D01*
X-6980130Y-9748295D01*
X-6961014Y-9811311D01*
X-6868156Y-9985037D01*
X-6868155Y-9985039D01*
X-6743195Y-10137302D01*
X-6743190Y-10137307D01*
X-6673680Y-10194353D01*
X-6628755Y-10257046D01*
X-6621195Y-10333803D01*
X-6642043Y-10388804D01*
X-6732790Y-10533226D01*
X-6742490Y-10560945D01*
X-6785939Y-10624670D01*
X-6855430Y-10658132D01*
X-6932343Y-10652366D01*
X-6996068Y-10608917D01*
X-7023766Y-10560939D01*
X-7042211Y-10508225D01*
X-7064416Y-10472886D01*
X-7129192Y-10369796D01*
X-7244796Y-10254192D01*
X-7383225Y-10167211D01*
X-7537539Y-10113214D01*
X-7537540Y-10113213D01*
X-7537542Y-10113213D01*
X-7699999Y-10094909D01*
X-7700001Y-10094909D01*
X-7862461Y-10113214D01*
X-7976083Y-10152972D01*
X-8052995Y-10158735D01*
X-8122485Y-10125271D01*
X-8165933Y-10061544D01*
X-8171696Y-9984632D01*
X-8165935Y-9963128D01*
X-8113214Y-9812461D01*
X-8094909Y-9650000D01*
X-8113214Y-9487539D01*
X-8167211Y-9333225D01*
X-8254192Y-9194796D01*
X-8369796Y-9079192D01*
X-8508225Y-8992211D01*
X-8660701Y-8938857D01*
X-8662541Y-8938213D01*
X-8795077Y-8923280D01*
X-8866873Y-8895102D01*
X-8914961Y-8834800D01*
X-8926456Y-8791902D01*
X-8938214Y-8687539D01*
X-8992211Y-8533225D01*
X-9079192Y-8394796D01*
X-9194796Y-8279192D01*
X-9333225Y-8192211D01*
X-9487539Y-8138214D01*
X-9487540Y-8138213D01*
X-9487542Y-8138213D01*
X-9649999Y-8119909D01*
X-9650001Y-8119909D01*
X-9812459Y-8138213D01*
X-9889618Y-8165212D01*
X-9966775Y-8192211D01*
X-9966777Y-8192211D01*
X-9966777Y-8192212D01*
X-10105204Y-8279192D01*
X-10220808Y-8394796D01*
X-10296312Y-8514960D01*
X-10307789Y-8533225D01*
X-10334788Y-8610382D01*
X-10361787Y-8687541D01*
X-10380091Y-8849999D01*
X-10380091Y-8850000D01*
X-10361787Y-9012458D01*
X-10361787Y-9012460D01*
X-10361786Y-9012461D01*
X-10307789Y-9166775D01*
X-10220808Y-9305204D01*
X-10105204Y-9420808D01*
X-9966775Y-9507789D01*
X-9812461Y-9561786D01*
X-9679925Y-9576719D01*
X-9608129Y-9604897D01*
X-9560040Y-9665198D01*
X-9548545Y-9708099D01*
X-9536787Y-9812458D01*
X-9536787Y-9812460D01*
X-9536786Y-9812461D01*
X-9482789Y-9966775D01*
X-9395808Y-10105204D01*
X-9280204Y-10220808D01*
X-9141775Y-10307789D01*
X-8987461Y-10361786D01*
X-8916379Y-10369795D01*
X-8825001Y-10380091D01*
X-8825000Y-10380091D01*
X-8824999Y-10380091D01*
X-8808548Y-10378237D01*
X-8662539Y-10361786D01*
X-8548917Y-10322027D01*
X-8472007Y-10316263D01*
X-8402517Y-10349727D01*
X-8359069Y-10413453D01*
X-8353304Y-10490366D01*
X-8359068Y-10511877D01*
X-8411786Y-10662539D01*
X-8430091Y-10824999D01*
X-8430091Y-10825000D01*
X-8411787Y-10987458D01*
X-8411787Y-10987460D01*
X-8411786Y-10987461D01*
X-8357789Y-11141775D01*
X-8270808Y-11280204D01*
X-8155204Y-11395808D01*
X-8016775Y-11482789D01*
X-7862461Y-11536786D01*
X-7754154Y-11548989D01*
X-7700001Y-11555091D01*
X-7700000Y-11555091D01*
X-7699999Y-11555091D01*
X-7659385Y-11550514D01*
X-7537539Y-11536786D01*
X-7485438Y-11518554D01*
X-7408527Y-11512792D01*
X-7339037Y-11546256D01*
X-7295589Y-11609982D01*
X-7287315Y-11664280D01*
X-7292534Y-11817054D01*
X-7256705Y-11964079D01*
X-7256702Y-11964086D01*
X-7182538Y-12095987D01*
X-6819560Y-12458965D01*
X-6729274Y-12527430D01*
X-6729273Y-12527431D01*
X-6729272Y-12527431D01*
X-6729271Y-12527432D01*
X-6588493Y-12582947D01*
X-6437957Y-12598423D01*
X-6288828Y-12572711D01*
X-6152167Y-12507718D01*
X-6038108Y-12408263D01*
X-5955112Y-12281724D01*
X-5912634Y-12147888D01*
X-5909334Y-12137491D01*
X-5909334Y-12137490D01*
X-5909333Y-12137487D01*
X-5904167Y-11986245D01*
X-5939996Y-11839219D01*
X-5978705Y-11770375D01*
X-5997817Y-11695654D01*
X-5977009Y-11621386D01*
X-5921854Y-11567473D01*
X-5898047Y-11556714D01*
X-5758225Y-11507789D01*
X-5619796Y-11420808D01*
X-5504192Y-11305204D01*
X-5417211Y-11166775D01*
X-5409182Y-11143827D01*
X-5365735Y-11080102D01*
X-5296246Y-11046636D01*
X-5285242Y-11044977D01*
X-5212539Y-11036786D01*
X-5058225Y-10982789D01*
X-4919796Y-10895808D01*
X-4804192Y-10780204D01*
X-4717211Y-10641775D01*
X-4663214Y-10487461D01*
X-4644909Y-10325000D01*
X-4663214Y-10162539D01*
X-4717211Y-10008225D01*
X-4717212Y-10008223D01*
X-4717569Y-10007482D01*
X-4717684Y-10006874D01*
X-4719975Y-10000327D01*
X-4718989Y-9999981D01*
X-4731908Y-9931699D01*
X-4706436Y-9858899D01*
X-4647975Y-9808588D01*
X-4614308Y-9797089D01*
X-4445197Y-9761144D01*
X-4272270Y-9684151D01*
X-4119129Y-9572888D01*
X-4013953Y-9456079D01*
X-3992470Y-9432220D01*
X-3992469Y-9432218D01*
X-3992467Y-9432216D01*
X-3897821Y-9268284D01*
X-3846207Y-9109430D01*
X-3804200Y-9044747D01*
X-3735479Y-9009732D01*
X-3658456Y-9013769D01*
X-3593771Y-9055776D01*
X-3558756Y-9124497D01*
X-3555500Y-9155476D01*
X-3555500Y-11609190D01*
X-3575462Y-11683690D01*
X-3599141Y-11714549D01*
X-3856843Y-11972250D01*
X-3870017Y-11982806D01*
X-3869657Y-11983241D01*
X-3876878Y-11989214D01*
X-3922640Y-12037944D01*
X-3925893Y-12041301D01*
X-3945116Y-12060524D01*
X-3945124Y-12060533D01*
X-3946866Y-12062779D01*
X-3955962Y-12073428D01*
X-3985063Y-12104418D01*
X-3985065Y-12104421D01*
X-3993769Y-12120254D01*
X-4006599Y-12139786D01*
X-4017672Y-12154062D01*
X-4017675Y-12154066D01*
X-4034553Y-12193068D01*
X-4040724Y-12205665D01*
X-4061197Y-12242908D01*
X-4061200Y-12242914D01*
X-4065693Y-12260412D01*
X-4073260Y-12282513D01*
X-4080436Y-12299098D01*
X-4080440Y-12299110D01*
X-4087088Y-12341083D01*
X-4089933Y-12354821D01*
X-4100500Y-12395978D01*
X-4100500Y-12414045D01*
X-4102334Y-12437351D01*
X-4105160Y-12455195D01*
X-4101161Y-12497500D01*
X-4100500Y-12511522D01*
X-4100500Y-13127647D01*
X-4120462Y-13202147D01*
X-4175000Y-13256685D01*
X-4249500Y-13276647D01*
X-4324000Y-13256685D01*
X-4369016Y-13216625D01*
X-4369974Y-13215338D01*
X-4379361Y-13202729D01*
X-4379363Y-13202727D01*
X-4512913Y-13090664D01*
X-4668711Y-13012419D01*
X-4668713Y-13012418D01*
X-4668714Y-13012418D01*
X-4838358Y-12972212D01*
X-4968965Y-12972212D01*
X-4968974Y-12972212D01*
X-5098689Y-12987374D01*
X-5098693Y-12987374D01*
X-5262518Y-13047002D01*
X-5262520Y-13047003D01*
X-5262522Y-13047004D01*
X-5354164Y-13107278D01*
X-5408188Y-13142810D01*
X-5527820Y-13269612D01*
X-5527828Y-13269623D01*
X-5614996Y-13420603D01*
X-5614997Y-13420605D01*
X-5639561Y-13502658D01*
X-5657178Y-13561505D01*
X-5664998Y-13587625D01*
X-5675136Y-13761666D01*
X-5675136Y-13761672D01*
X-5644861Y-13933368D01*
X-5575808Y-14093452D01*
X-5471698Y-14233295D01*
X-5338146Y-14345359D01*
X-5338145Y-14345359D01*
X-5338143Y-14345361D01*
X-5182344Y-14423606D01*
X-5012700Y-14463812D01*
X-5012698Y-14463812D01*
X-4882090Y-14463812D01*
X-4882086Y-14463811D01*
X-4752365Y-14448649D01*
X-4588536Y-14389020D01*
X-4442875Y-14293217D01*
X-4442871Y-14293213D01*
X-4357878Y-14203127D01*
X-4292233Y-14162636D01*
X-4215138Y-14160393D01*
X-4147250Y-14196999D01*
X-4106759Y-14262644D01*
X-4100500Y-14305377D01*
X-4100500Y-14861420D01*
X-4120462Y-14935920D01*
X-4175000Y-14990458D01*
X-4249500Y-15010420D01*
X-4283857Y-15006404D01*
X-4450634Y-14966878D01*
X-4581241Y-14966878D01*
X-4581250Y-14966878D01*
X-4710965Y-14982040D01*
X-4710969Y-14982040D01*
X-4874794Y-15041668D01*
X-4874796Y-15041669D01*
X-4874798Y-15041670D01*
X-4972678Y-15106047D01*
X-5020464Y-15137476D01*
X-5140096Y-15264278D01*
X-5140104Y-15264289D01*
X-5227272Y-15415269D01*
X-5227273Y-15415271D01*
X-5277274Y-15582291D01*
X-5287412Y-15756332D01*
X-5287412Y-15756338D01*
X-5275371Y-15824627D01*
X-5282093Y-15901461D01*
X-5326332Y-15964641D01*
X-5396234Y-15997236D01*
X-5422107Y-15999500D01*
X-5535122Y-15999500D01*
X-5609622Y-15979538D01*
X-5637782Y-15956733D01*
X-5638326Y-15957338D01*
X-5644126Y-15952115D01*
X-5644129Y-15952112D01*
X-5797270Y-15840849D01*
X-5797271Y-15840848D01*
X-5797273Y-15840847D01*
X-5970195Y-15763857D01*
X-5970197Y-15763856D01*
X-6076640Y-15741231D01*
X-6155352Y-15724500D01*
X-6155354Y-15724500D01*
X-6344646Y-15724500D01*
X-6344648Y-15724500D01*
X-6444608Y-15745747D01*
X-6529803Y-15763856D01*
X-6529805Y-15763856D01*
X-6529806Y-15763857D01*
X-6702728Y-15840847D01*
X-6855873Y-15952113D01*
X-6982531Y-16092779D01*
X-7077178Y-16256714D01*
X-7077181Y-16256721D01*
X-7135675Y-16436745D01*
X-7155460Y-16625000D01*
X-7135675Y-16813254D01*
X-7097834Y-16929715D01*
X-7077179Y-16993284D01*
X-7024462Y-17084592D01*
X-6982531Y-17157220D01*
X-6866859Y-17285685D01*
X-6855871Y-17297888D01*
X-6702730Y-17409151D01*
X-6529803Y-17486144D01*
X-6388685Y-17516139D01*
X-6344648Y-17525500D01*
X-6344646Y-17525500D01*
X-6155352Y-17525500D01*
X-6115996Y-17517134D01*
X-5970197Y-17486144D01*
X-5797270Y-17409151D01*
X-5644129Y-17297888D01*
X-5644121Y-17297879D01*
X-5638326Y-17292662D01*
X-5637046Y-17294084D01*
X-5581175Y-17257796D01*
X-5535122Y-17250500D01*
X-3985503Y-17250500D01*
X-3968717Y-17252353D01*
X-3968663Y-17251791D01*
X-3959334Y-17252672D01*
X-3959333Y-17252673D01*
X-3959333Y-17252672D01*
X-3959332Y-17252673D01*
X-3892541Y-17250574D01*
X-3887860Y-17250500D01*
X-3860653Y-17250500D01*
X-3860650Y-17250500D01*
X-3857850Y-17250146D01*
X-3843862Y-17249043D01*
X-3801373Y-17247709D01*
X-3784029Y-17242669D01*
X-3761132Y-17237927D01*
X-3743208Y-17235664D01*
X-3703690Y-17220017D01*
X-3690426Y-17215475D01*
X-3649610Y-17203618D01*
X-3634055Y-17194418D01*
X-3613069Y-17184137D01*
X-3596268Y-17177486D01*
X-3561883Y-17152502D01*
X-3550172Y-17144809D01*
X-3513580Y-17123170D01*
X-3500815Y-17110403D01*
X-3483028Y-17095212D01*
X-3468419Y-17084598D01*
X-3468413Y-17084594D01*
X-3441320Y-17051842D01*
X-3431892Y-17041480D01*
X-3093163Y-16702751D01*
X-3079982Y-16692195D01*
X-3080343Y-16691758D01*
X-3073122Y-16685785D01*
X-3027348Y-16637040D01*
X-3024119Y-16633707D01*
X-3004880Y-16614470D01*
X-3003147Y-16612235D01*
X-2994036Y-16601567D01*
X-2964938Y-16570582D01*
X-2956232Y-16554744D01*
X-2943404Y-16535216D01*
X-2932326Y-16520936D01*
X-2915444Y-16481919D01*
X-2909269Y-16469317D01*
X-2888804Y-16432094D01*
X-2888383Y-16430455D01*
X-2884310Y-16414591D01*
X-2876741Y-16392483D01*
X-2869562Y-16375895D01*
X-2862913Y-16333903D01*
X-2860067Y-16320169D01*
X-2857969Y-16312002D01*
X-2849500Y-16279019D01*
X-2849500Y-16260954D01*
X-2847666Y-16237646D01*
X-2846768Y-16231974D01*
X-2844840Y-16219804D01*
X-2848839Y-16177499D01*
X-2849500Y-16163477D01*
X-2849500Y-13075102D01*
X-2829538Y-13000602D01*
X-2775000Y-12946064D01*
X-2700500Y-12926102D01*
X-2626000Y-12946064D01*
X-2595141Y-12969743D01*
X-2493761Y-13071123D01*
X-2453500Y-13107288D01*
X-2453482Y-13107303D01*
X-2453479Y-13107305D01*
X-2432859Y-13123921D01*
X-2432860Y-13123921D01*
X-2419404Y-13133624D01*
X-2388974Y-13155567D01*
X-2258097Y-13215338D01*
X-2219981Y-13226530D01*
X-2191062Y-13235022D01*
X-2191060Y-13235022D01*
X-2191058Y-13235023D01*
X-2191054Y-13235024D01*
X-2191053Y-13235024D01*
X-2191049Y-13235025D01*
X-2191045Y-13235026D01*
X-2048653Y-13255498D01*
X-2048649Y-13255498D01*
X-2048638Y-13255500D01*
X-1181948Y-13255500D01*
X-1107448Y-13275462D01*
X-1052910Y-13330000D01*
X-1032948Y-13404500D01*
X-1052910Y-13479000D01*
X-1096484Y-13526552D01*
X-1103325Y-13531343D01*
X-1146403Y-13561506D01*
X-1313493Y-13728596D01*
X-1437965Y-13906362D01*
X-1449035Y-13922171D01*
X-1528904Y-14093450D01*
X-1548904Y-14136340D01*
X-1610063Y-14364590D01*
X-1625500Y-14541033D01*
X-1625500Y-14908966D01*
X-1610063Y-15085409D01*
X-1587565Y-15169372D01*
X-1548903Y-15313663D01*
X-1449035Y-15527829D01*
X-1313495Y-15721401D01*
X-1146401Y-15888495D01*
X-952830Y-16024035D01*
X-738663Y-16123903D01*
X-510408Y-16185063D01*
X-275000Y-16205659D01*
X-39592Y-16185063D01*
X188663Y-16123903D01*
X402829Y-16024035D01*
X596401Y-15888495D01*
X763495Y-15721401D01*
X852948Y-15593648D01*
X912029Y-15544073D01*
X987986Y-15530680D01*
X1060463Y-15557059D01*
X1097051Y-15593647D01*
X1186505Y-15721401D01*
X1353599Y-15888495D01*
X1547170Y-16024035D01*
X1761337Y-16123903D01*
X1989592Y-16185063D01*
X2225000Y-16205659D01*
X2460408Y-16185063D01*
X2688663Y-16123903D01*
X2902829Y-16024035D01*
X3096401Y-15888495D01*
X3263495Y-15721401D01*
X3353252Y-15593214D01*
X3412334Y-15543637D01*
X3488291Y-15530244D01*
X3560767Y-15556623D01*
X3597359Y-15593214D01*
X3686891Y-15721079D01*
X3853923Y-15888111D01*
X4047411Y-16023593D01*
X4047420Y-16023599D01*
X4261508Y-16123430D01*
X4261513Y-16123432D01*
X4475000Y-16180634D01*
X4475000Y-15133018D01*
X4589801Y-15185446D01*
X4691025Y-15200000D01*
X4758975Y-15200000D01*
X4860199Y-15185446D01*
X4975000Y-15133018D01*
X4975000Y-16180633D01*
X5188486Y-16123432D01*
X5402580Y-16023597D01*
X5596079Y-15888108D01*
X5720974Y-15763213D01*
X5787768Y-15724649D01*
X5864896Y-15724649D01*
X5931692Y-15763213D01*
X5953146Y-15790347D01*
X6032288Y-15918656D01*
X6156344Y-16042712D01*
X6305666Y-16134814D01*
X6472203Y-16189999D01*
X6574991Y-16200500D01*
X7875008Y-16200499D01*
X7977797Y-16189999D01*
X8144334Y-16134814D01*
X8293656Y-16042712D01*
X8417712Y-15918656D01*
X8509814Y-15769334D01*
X8564999Y-15602797D01*
X8575500Y-15500009D01*
X8575500Y-15500008D01*
X12095006Y-15500008D01*
X12114965Y-15868136D01*
X12114965Y-15868142D01*
X12174613Y-16231974D01*
X12174613Y-16231976D01*
X12273247Y-16587221D01*
X12273249Y-16587226D01*
X12409709Y-16929715D01*
X12409715Y-16929728D01*
X12582404Y-17255456D01*
X12582407Y-17255461D01*
X12789303Y-17560608D01*
X12789312Y-17560620D01*
X12925496Y-17720948D01*
X12925497Y-17720948D01*
X14241350Y-16405094D01*
X14295456Y-16483480D01*
X14468816Y-16663966D01*
X14594865Y-16758686D01*
X13276520Y-18077031D01*
X13295657Y-18095159D01*
X13295658Y-18095160D01*
X13589165Y-18318278D01*
X13905066Y-18508350D01*
X14239684Y-18663160D01*
X14239694Y-18663165D01*
X14589063Y-18780880D01*
X14949131Y-18860137D01*
X15315656Y-18899999D01*
X15315666Y-18900000D01*
X15684334Y-18900000D01*
X15684343Y-18899999D01*
X16050868Y-18860137D01*
X16050869Y-18860137D01*
X16410936Y-18780880D01*
X16760305Y-18663165D01*
X16760315Y-18663160D01*
X17094933Y-18508350D01*
X17410834Y-18318278D01*
X17704352Y-18095151D01*
X17723479Y-18077032D01*
X16406879Y-16760432D01*
X16434180Y-16743168D01*
X16621501Y-16577216D01*
X16760511Y-16406958D01*
X18074501Y-17720948D01*
X18210690Y-17560617D01*
X18210694Y-17560611D01*
X18417592Y-17255461D01*
X18417595Y-17255456D01*
X18590284Y-16929728D01*
X18590290Y-16929715D01*
X18726750Y-16587226D01*
X18726752Y-16587221D01*
X18825386Y-16231976D01*
X18825386Y-16231974D01*
X18885034Y-15868142D01*
X18885034Y-15868136D01*
X18904994Y-15500008D01*
X18904994Y-15499991D01*
X18885034Y-15131863D01*
X18885034Y-15131857D01*
X18825386Y-14768025D01*
X18825386Y-14768023D01*
X18726752Y-14412778D01*
X18726750Y-14412773D01*
X18590290Y-14070284D01*
X18590284Y-14070271D01*
X18417595Y-13744543D01*
X18417592Y-13744538D01*
X18210696Y-13439391D01*
X18210687Y-13439379D01*
X18074502Y-13279050D01*
X18074501Y-13279050D01*
X16758648Y-14594903D01*
X16704544Y-14516520D01*
X16531184Y-14336034D01*
X16405132Y-14241312D01*
X17723479Y-12922966D01*
X17704347Y-12904844D01*
X17410834Y-12681721D01*
X17094933Y-12491649D01*
X16760315Y-12336839D01*
X16760305Y-12336834D01*
X16410936Y-12219119D01*
X16050868Y-12139862D01*
X15684343Y-12100000D01*
X15315656Y-12100000D01*
X14949131Y-12139862D01*
X14949130Y-12139862D01*
X14589063Y-12219119D01*
X14239694Y-12336834D01*
X14239684Y-12336839D01*
X13905066Y-12491649D01*
X13589165Y-12681721D01*
X13295663Y-12904835D01*
X13276520Y-12922967D01*
X14593120Y-14239567D01*
X14565820Y-14256832D01*
X14378499Y-14422784D01*
X14239488Y-14593041D01*
X12925497Y-13279050D01*
X12925496Y-13279050D01*
X12789308Y-13439383D01*
X12789306Y-13439386D01*
X12582402Y-13744547D01*
X12409715Y-14070271D01*
X12409709Y-14070284D01*
X12273249Y-14412773D01*
X12273247Y-14412778D01*
X12174613Y-14768023D01*
X12174613Y-14768025D01*
X12114965Y-15131857D01*
X12114965Y-15131863D01*
X12095006Y-15499991D01*
X12095006Y-15500008D01*
X8575500Y-15500008D01*
X8575499Y-13949992D01*
X8564999Y-13847203D01*
X8509814Y-13680666D01*
X8417712Y-13531344D01*
X8293656Y-13407288D01*
X8144334Y-13315186D01*
X8035283Y-13279050D01*
X7977798Y-13260001D01*
X7960665Y-13258250D01*
X7875009Y-13249500D01*
X7875004Y-13249500D01*
X6574996Y-13249500D01*
X6472202Y-13260001D01*
X6305666Y-13315186D01*
X6156343Y-13407288D01*
X6032288Y-13531343D01*
X5953150Y-13659648D01*
X5897049Y-13712577D01*
X5822000Y-13730364D01*
X5748112Y-13708244D01*
X5720974Y-13686786D01*
X5596076Y-13561888D01*
X5402588Y-13426406D01*
X5402579Y-13426400D01*
X5188491Y-13326569D01*
X5188489Y-13326568D01*
X4975000Y-13269364D01*
X4975000Y-14316981D01*
X4860199Y-14264554D01*
X4758975Y-14250000D01*
X4691025Y-14250000D01*
X4589801Y-14264554D01*
X4475000Y-14316981D01*
X4475000Y-13269364D01*
X4474999Y-13269364D01*
X4261512Y-13326568D01*
X4047419Y-13426402D01*
X3853920Y-13561891D01*
X3686888Y-13728923D01*
X3597358Y-13856785D01*
X3538274Y-13906362D01*
X3462318Y-13919755D01*
X3389842Y-13893375D01*
X3353251Y-13856785D01*
X3346541Y-13847202D01*
X3263495Y-13728599D01*
X3096401Y-13561505D01*
X2902830Y-13425965D01*
X2688663Y-13326097D01*
X2688661Y-13326096D01*
X2460409Y-13264937D01*
X2225000Y-13244341D01*
X1989590Y-13264937D01*
X1761340Y-13326096D01*
X1761339Y-13326096D01*
X1761337Y-13326097D01*
X1547171Y-13425965D01*
X1547168Y-13425966D01*
X1547168Y-13425967D01*
X1353596Y-13561507D01*
X1186506Y-13728597D01*
X1097054Y-13856349D01*
X1037970Y-13905926D01*
X962014Y-13919319D01*
X889537Y-13892940D01*
X852946Y-13856349D01*
X846541Y-13847202D01*
X763495Y-13728599D01*
X596401Y-13561505D01*
X546483Y-13526552D01*
X496908Y-13467470D01*
X483515Y-13391514D01*
X509894Y-13319037D01*
X568978Y-13269460D01*
X631948Y-13255500D01*
X948643Y-13255500D01*
X1002649Y-13252605D01*
X1002678Y-13252603D01*
X1029020Y-13249771D01*
X1029026Y-13249770D01*
X1029036Y-13249769D01*
X1037856Y-13248339D01*
X1082440Y-13241116D01*
X1082443Y-13241114D01*
X1082448Y-13241114D01*
X1217257Y-13190832D01*
X1278580Y-13157347D01*
X1393762Y-13071123D01*
X1809844Y-12655039D01*
X1829439Y-12629439D01*
X2000000Y-12800000D01*
X5400000Y-12800000D01*
X6475000Y-11725000D01*
X6475000Y-3704161D01*
X6477894Y-3758149D01*
X6477896Y-3758178D01*
X6480728Y-3784520D01*
X6480735Y-3784566D01*
X6489383Y-3837940D01*
X6539666Y-3972752D01*
X6539667Y-3972755D01*
X6573150Y-4034075D01*
X6573155Y-4034083D01*
X6659374Y-4149258D01*
X6659377Y-4149261D01*
X8506239Y-5996123D01*
X8546500Y-6032288D01*
X8546518Y-6032303D01*
X8546521Y-6032305D01*
X8567141Y-6048921D01*
X8567140Y-6048921D01*
X8580596Y-6058624D01*
X8611026Y-6080567D01*
X8741903Y-6140338D01*
X8773105Y-6149500D01*
X8808938Y-6160022D01*
X8808940Y-6160022D01*
X8808942Y-6160023D01*
X8808946Y-6160024D01*
X8808947Y-6160024D01*
X8808951Y-6160025D01*
X8808955Y-6160026D01*
X8951347Y-6180498D01*
X8951351Y-6180498D01*
X8951362Y-6180500D01*
X8951366Y-6180500D01*
X11848643Y-6180500D01*
X11902649Y-6177605D01*
X11902678Y-6177603D01*
X11929020Y-6174771D01*
X11929026Y-6174770D01*
X11929036Y-6174769D01*
X11937856Y-6173339D01*
X11982440Y-6166116D01*
X11982443Y-6166114D01*
X11982448Y-6166114D01*
X12117257Y-6115832D01*
X12178580Y-6082347D01*
X12293761Y-5996123D01*
X12846123Y-5443761D01*
X12882288Y-5403500D01*
X12898922Y-5382858D01*
X12930567Y-5338974D01*
X12990338Y-5208097D01*
X13010023Y-5141058D01*
X13010024Y-5141054D01*
X13010025Y-5141048D01*
X13010026Y-5141044D01*
X13030498Y-4998652D01*
X13030500Y-4998634D01*
X13030500Y-3924500D01*
X13050462Y-3850000D01*
X13105000Y-3795462D01*
X13179500Y-3775500D01*
X14744829Y-3775500D01*
X14819329Y-3795462D01*
X14873867Y-3850000D01*
X14892466Y-3882215D01*
X14892467Y-3882216D01*
X14957275Y-3954193D01*
X15019129Y-4022888D01*
X15172270Y-4134151D01*
X15172271Y-4134151D01*
X15172272Y-4134152D01*
X15196748Y-4145049D01*
X15345197Y-4211144D01*
X15486315Y-4241139D01*
X15530352Y-4250500D01*
X15530354Y-4250500D01*
X15719648Y-4250500D01*
X15787186Y-4236144D01*
X15904803Y-4211144D01*
X15998819Y-4169283D01*
X16074997Y-4157218D01*
X16120028Y-4169284D01*
X16172993Y-4192865D01*
X16270197Y-4236144D01*
X16411315Y-4266139D01*
X16455352Y-4275500D01*
X16455354Y-4275500D01*
X16644648Y-4275500D01*
X16684004Y-4267134D01*
X16829803Y-4236144D01*
X17002730Y-4159151D01*
X17155871Y-4047888D01*
X17240235Y-3954193D01*
X17282530Y-3907220D01*
X17282531Y-3907218D01*
X17282533Y-3907216D01*
X17377179Y-3743284D01*
X17435674Y-3563256D01*
X17455460Y-3375000D01*
X17435674Y-3186744D01*
X17377179Y-3006716D01*
X17282533Y-2842784D01*
X17282532Y-2842783D01*
X17282530Y-2842779D01*
X17155871Y-2702112D01*
X17155867Y-2702109D01*
X17041880Y-2619292D01*
X16993342Y-2559353D01*
X16982352Y-2507651D01*
X16981276Y-2507765D01*
X16976579Y-2463079D01*
X16960674Y-2311744D01*
X16902179Y-2131716D01*
X16807533Y-1967784D01*
X16807532Y-1967783D01*
X16807530Y-1967779D01*
X16680872Y-1827113D01*
X16631513Y-1791252D01*
X16527730Y-1715849D01*
X16527729Y-1715848D01*
X16527727Y-1715847D01*
X16354805Y-1638857D01*
X16354803Y-1638856D01*
X16248360Y-1616231D01*
X16169648Y-1599500D01*
X16169646Y-1599500D01*
X15980354Y-1599500D01*
X15980352Y-1599500D01*
X15880392Y-1620747D01*
X15795197Y-1638856D01*
X15795195Y-1638856D01*
X15795194Y-1638857D01*
X15622272Y-1715847D01*
X15469127Y-1827113D01*
X15342469Y-1967779D01*
X15247822Y-2131714D01*
X15247819Y-2131721D01*
X15189325Y-2311745D01*
X15180988Y-2391074D01*
X15153348Y-2463080D01*
X15093408Y-2511618D01*
X15032804Y-2524500D01*
X14249583Y-2524500D01*
X14175083Y-2504538D01*
X14120545Y-2450000D01*
X14100583Y-2375500D01*
X14120545Y-2301000D01*
X14162004Y-2254956D01*
X14165722Y-2252254D01*
X14181371Y-2240885D01*
X14279214Y-2132220D01*
X14308030Y-2100217D01*
X14308031Y-2100215D01*
X14308033Y-2100213D01*
X14402679Y-1936281D01*
X14461174Y-1756253D01*
X14480960Y-1567997D01*
X14461174Y-1379741D01*
X14402679Y-1199713D01*
X14400285Y-1195566D01*
X14380322Y-1121066D01*
X14399223Y-1050522D01*
X14399001Y-1050423D01*
X14399627Y-1049015D01*
X14400284Y-1046566D01*
X14402179Y-1043284D01*
X14460674Y-863256D01*
X14480460Y-675000D01*
X14460674Y-486744D01*
X14402179Y-306716D01*
X14307533Y-142784D01*
X14307532Y-142783D01*
X14307530Y-142779D01*
X14180872Y-2113D01*
X14063415Y83224D01*
X14027730Y109151D01*
X14027729Y109152D01*
X14027727Y109153D01*
X13854805Y186143D01*
X13854803Y186144D01*
X13727448Y213214D01*
X13669648Y225500D01*
X13669646Y225500D01*
X13480354Y225500D01*
X13480352Y225500D01*
X13422552Y213214D01*
X13295197Y186144D01*
X13295195Y186144D01*
X13295194Y186143D01*
X13122272Y109153D01*
X12969127Y-2113D01*
X12842469Y-142779D01*
X12747822Y-306714D01*
X12747819Y-306721D01*
X12689325Y-486745D01*
X12669540Y-675000D01*
X12689325Y-863254D01*
X12747820Y-1043283D01*
X12747824Y-1043292D01*
X12750216Y-1047434D01*
X12770177Y-1121934D01*
X12751277Y-1192480D01*
X12751498Y-1192579D01*
X12750878Y-1193970D01*
X12750223Y-1196417D01*
X12748325Y-1199703D01*
X12748319Y-1199718D01*
X12689825Y-1379742D01*
X12670040Y-1567997D01*
X12689825Y-1756251D01*
X12712850Y-1827113D01*
X12748321Y-1936281D01*
X12802966Y-2030930D01*
X12842969Y-2100217D01*
X12969628Y-2240884D01*
X12969630Y-2240886D01*
X12988996Y-2254956D01*
X13037535Y-2314895D01*
X13049601Y-2391074D01*
X13021961Y-2463079D01*
X12962022Y-2511618D01*
X12901417Y-2524500D01*
X11176169Y-2524500D01*
X11101669Y-2504538D01*
X11070810Y-2480859D01*
X9688340Y-1098389D01*
X9649776Y-1031594D01*
X9649776Y-954466D01*
X9688338Y-887673D01*
X9720808Y-855204D01*
X9807789Y-716775D01*
X9811614Y-705842D01*
X9855057Y-642118D01*
X9872976Y-628892D01*
X10005204Y-545808D01*
X10120808Y-430204D01*
X10207789Y-291775D01*
X10211614Y-280842D01*
X10255057Y-217118D01*
X10272976Y-203892D01*
X10405204Y-120808D01*
X10520808Y-5204D01*
X10607789Y133225D01*
X10607788Y133225D01*
X10612241Y140310D01*
X10614010Y139198D01*
X10656711Y188832D01*
X10729507Y214318D01*
X10757348Y213799D01*
X10762538Y213215D01*
X10762539Y213214D01*
X10841458Y204322D01*
X10924999Y194909D01*
X10925000Y194909D01*
X10925001Y194909D01*
X10965615Y199486D01*
X11087461Y213214D01*
X11241775Y267211D01*
X11380204Y354192D01*
X11495808Y469796D01*
X11582789Y608225D01*
X11636786Y762539D01*
X11655091Y925000D01*
X11653802Y936436D01*
X11644296Y1020808D01*
X11636786Y1087461D01*
X11582789Y1241775D01*
X11495808Y1380204D01*
X11380204Y1495808D01*
X11241775Y1582789D01*
X11087461Y1636786D01*
X11087460Y1636787D01*
X11087458Y1636787D01*
X10925001Y1655091D01*
X10924999Y1655091D01*
X10762541Y1636787D01*
X10685382Y1609788D01*
X10608225Y1582789D01*
X10608223Y1582789D01*
X10608223Y1582788D01*
X10469796Y1495808D01*
X10354192Y1380204D01*
X10262759Y1234690D01*
X10260994Y1235799D01*
X10218257Y1186147D01*
X10145454Y1160681D01*
X10117652Y1161202D01*
X9950002Y1180091D01*
X9949999Y1180091D01*
X9787541Y1161787D01*
X9710382Y1134788D01*
X9633225Y1107789D01*
X9633223Y1107789D01*
X9633223Y1107788D01*
X9494796Y1020808D01*
X9379192Y905204D01*
X9292210Y766775D01*
X9288383Y755837D01*
X9244934Y692112D01*
X9227018Y678889D01*
X9094796Y595808D01*
X8979192Y480204D01*
X8892210Y341775D01*
X8888383Y330837D01*
X8844934Y267112D01*
X8827018Y253889D01*
X8694796Y170808D01*
X8694794Y170807D01*
X8662327Y138340D01*
X8595531Y99777D01*
X8518403Y99778D01*
X8451610Y138341D01*
X6608112Y1981839D01*
X6597555Y1995016D01*
X6597120Y1994655D01*
X6591149Y2001872D01*
X6591146Y2001877D01*
X6542430Y2047625D01*
X6539070Y2050881D01*
X6519829Y2070122D01*
X6517586Y2071862D01*
X6506920Y2080972D01*
X6475942Y2110062D01*
X6460109Y2118766D01*
X6440568Y2131602D01*
X6426296Y2142673D01*
X6426294Y2142674D01*
X6426291Y2142676D01*
X6387285Y2159556D01*
X6374691Y2165725D01*
X6337452Y2186197D01*
X6337451Y2186198D01*
X6337450Y2186198D01*
X6319957Y2190689D01*
X6297840Y2198262D01*
X6281256Y2205438D01*
X6281253Y2205439D01*
X6281252Y2205439D01*
X6239276Y2212088D01*
X6225543Y2214932D01*
X6184379Y2225500D01*
X6184376Y2225500D01*
X6166314Y2225500D01*
X6143007Y2227334D01*
X6125164Y2230160D01*
X6125163Y2230160D01*
X6082860Y2226161D01*
X6068838Y2225500D01*
X5256502Y2225500D01*
X5182002Y2245462D01*
X5127464Y2300000D01*
X5107502Y2374500D01*
X5114795Y2420544D01*
X5116526Y2425871D01*
X5160674Y2561744D01*
X5180460Y2750000D01*
X5160674Y2938256D01*
X5102179Y3118284D01*
X5007533Y3282216D01*
X5007532Y3282217D01*
X5007530Y3282221D01*
X4938711Y3358651D01*
X4903695Y3427373D01*
X4907731Y3504395D01*
X4908770Y3507476D01*
X4917115Y3531325D01*
X4960563Y3595047D01*
X5030053Y3628511D01*
X5041051Y3630169D01*
X5112461Y3638214D01*
X5266775Y3692211D01*
X5405204Y3779192D01*
X5520808Y3894796D01*
X5607789Y4033225D01*
X5607789Y4033227D01*
X5612241Y4040311D01*
X5614035Y4039184D01*
X5656676Y4088732D01*
X5667454Y4094956D01*
X5673003Y4098444D01*
X5673009Y4098445D01*
X5811438Y4185426D01*
X5927042Y4301030D01*
X6014023Y4439459D01*
X6068020Y4593773D01*
X6074354Y4650000D01*
X12819909Y4650000D01*
X12838213Y4487542D01*
X12838213Y4487540D01*
X12838214Y4487539D01*
X12892211Y4333225D01*
X12979192Y4194796D01*
X13094796Y4079192D01*
X13233225Y3992211D01*
X13387539Y3938214D01*
X13495515Y3926048D01*
X13549999Y3919909D01*
X13550000Y3919909D01*
X13550001Y3919909D01*
X13590615Y3924486D01*
X13712461Y3938214D01*
X13866775Y3992211D01*
X14005204Y4079192D01*
X14120808Y4194796D01*
X14207789Y4333225D01*
X14261786Y4487539D01*
X14280091Y4650000D01*
X14261786Y4812461D01*
X14207789Y4966775D01*
X14120808Y5105204D01*
X14005204Y5220808D01*
X13866775Y5307789D01*
X13712461Y5361786D01*
X13712460Y5361787D01*
X13712458Y5361787D01*
X13550001Y5380091D01*
X13549999Y5380091D01*
X13387541Y5361787D01*
X13337844Y5344397D01*
X13233225Y5307789D01*
X13233223Y5307789D01*
X13233223Y5307788D01*
X13094796Y5220808D01*
X12979192Y5105204D01*
X12899416Y4978241D01*
X12892211Y4966775D01*
X12879060Y4929192D01*
X12838213Y4812459D01*
X12819909Y4650001D01*
X12819909Y4650000D01*
X6074354Y4650000D01*
X6075516Y4660311D01*
X6103693Y4732105D01*
X6163994Y4780194D01*
X6179605Y4785331D01*
X6179563Y4785451D01*
X6187458Y4788214D01*
X6187461Y4788214D01*
X6341775Y4842211D01*
X6480204Y4929192D01*
X6595808Y5044796D01*
X6682789Y5183225D01*
X6736786Y5337539D01*
X6755091Y5500000D01*
X6755090Y5500001D01*
X6755421Y5502930D01*
X6783599Y5574726D01*
X6843900Y5622815D01*
X6872507Y5631991D01*
X6898423Y5637500D01*
X6904803Y5638856D01*
X7040522Y5699283D01*
X7116695Y5711348D01*
X7161723Y5699283D01*
X7295197Y5639856D01*
X7415438Y5614299D01*
X7480352Y5600500D01*
X7480354Y5600500D01*
X7669648Y5600500D01*
X7709004Y5608866D01*
X7854803Y5639856D01*
X8027730Y5716849D01*
X8180871Y5828112D01*
X8253195Y5908437D01*
X8307530Y5968780D01*
X8307531Y5968782D01*
X8307533Y5968784D01*
X8402179Y6132716D01*
X8460674Y6312744D01*
X8480460Y6501000D01*
X8460674Y6689256D01*
X8402179Y6869284D01*
X8307533Y7033216D01*
X8307532Y7033217D01*
X8307530Y7033221D01*
X8180872Y7173887D01*
X8166534Y7184304D01*
X8027730Y7285151D01*
X8027729Y7285152D01*
X8027727Y7285153D01*
X7854805Y7362143D01*
X7854803Y7362144D01*
X7748360Y7384769D01*
X7669648Y7401500D01*
X7669646Y7401500D01*
X7480354Y7401500D01*
X7480352Y7401500D01*
X7380392Y7380253D01*
X7295197Y7362144D01*
X7295195Y7362144D01*
X7295194Y7362143D01*
X7159481Y7301719D01*
X7083303Y7289653D01*
X7038273Y7301719D01*
X6904805Y7361143D01*
X6904803Y7361144D01*
X6798360Y7383769D01*
X6719648Y7400500D01*
X6719646Y7400500D01*
X6530354Y7400500D01*
X6530352Y7400500D01*
X6430392Y7379253D01*
X6345197Y7361144D01*
X6345195Y7361144D01*
X6345194Y7361143D01*
X6172272Y7284153D01*
X6019127Y7172887D01*
X5892469Y7032221D01*
X5797822Y6868286D01*
X5797819Y6868279D01*
X5739325Y6688255D01*
X5719540Y6500000D01*
X5739326Y6311741D01*
X5739712Y6310553D01*
X5739755Y6309719D01*
X5740949Y6304104D01*
X5740060Y6303916D01*
X5743751Y6233531D01*
X5708737Y6164809D01*
X5677280Y6138346D01*
X5569798Y6070810D01*
X5454192Y5955204D01*
X5374335Y5828112D01*
X5367211Y5816775D01*
X5347273Y5759796D01*
X5313213Y5662459D01*
X5305717Y5595925D01*
X5277539Y5524128D01*
X5217237Y5476040D01*
X5201627Y5470903D01*
X5201669Y5470783D01*
X5176585Y5462006D01*
X5099673Y5456243D01*
X5030183Y5489708D01*
X4986736Y5553435D01*
X4979191Y5587071D01*
X4978260Y5595925D01*
X4960674Y5763256D01*
X4902179Y5943284D01*
X4807533Y6107216D01*
X4807532Y6107217D01*
X4807530Y6107221D01*
X4728865Y6194586D01*
X4693849Y6263308D01*
X4697885Y6340330D01*
X4734232Y6399644D01*
X4856837Y6522249D01*
X4870018Y6532805D01*
X4869657Y6533242D01*
X4876878Y6539215D01*
X4922652Y6587960D01*
X4925881Y6591293D01*
X4945120Y6610530D01*
X4946853Y6612765D01*
X4955964Y6623433D01*
X4985062Y6654418D01*
X4993768Y6670256D01*
X5006596Y6689784D01*
X5017674Y6704064D01*
X5034556Y6743081D01*
X5040731Y6755683D01*
X5045025Y6763492D01*
X5061197Y6792908D01*
X5065690Y6810409D01*
X5073259Y6832517D01*
X5080438Y6849105D01*
X5087087Y6891097D01*
X5089933Y6904831D01*
X5100500Y6945980D01*
X5100500Y6964046D01*
X5102334Y6987354D01*
X5103206Y6992859D01*
X5105160Y7005196D01*
X5101161Y7047501D01*
X5100500Y7061523D01*
X5100500Y7645500D01*
X5120462Y7720000D01*
X5175000Y7774538D01*
X5249500Y7794500D01*
X6573643Y7794500D01*
X6627649Y7797395D01*
X6627678Y7797397D01*
X6654020Y7800229D01*
X6654026Y7800230D01*
X6654036Y7800231D01*
X6662856Y7801661D01*
X6707440Y7808884D01*
X6707443Y7808886D01*
X6707448Y7808886D01*
X6842257Y7859168D01*
X6903580Y7892653D01*
X7018761Y7978877D01*
X7271123Y8231239D01*
X7307288Y8271500D01*
X7323922Y8292142D01*
X7355567Y8336026D01*
X7415338Y8466903D01*
X7435023Y8533942D01*
X7435024Y8533946D01*
X7435025Y8533952D01*
X7435026Y8533956D01*
X7455498Y8676348D01*
X7455500Y8676366D01*
X7455500Y9998644D01*
X7452605Y10052650D01*
X7452603Y10052679D01*
X7449771Y10079021D01*
X7449764Y10079067D01*
X7441116Y10132441D01*
X7441114Y10132446D01*
X7441114Y10132448D01*
X7390832Y10267257D01*
X7357347Y10328580D01*
X7352473Y10335091D01*
X7271125Y10443759D01*
X6893760Y10821124D01*
X6853510Y10857279D01*
X6853500Y10857288D01*
X6832858Y10873922D01*
X6832859Y10873922D01*
X6810916Y10889745D01*
X6788974Y10905567D01*
X6658097Y10965338D01*
X6658094Y10965339D01*
X6658085Y10965342D01*
X6591061Y10985023D01*
X6591048Y10985026D01*
X6591047Y10985026D01*
X6493632Y10999032D01*
X6422731Y11029393D01*
X6376510Y11091137D01*
X6367354Y11167720D01*
X6397715Y11238621D01*
X6459459Y11284842D01*
X6483852Y11292258D01*
X6585467Y11313856D01*
X6758394Y11390849D01*
X6911535Y11502112D01*
X7028552Y11632072D01*
X7038194Y11642780D01*
X7038195Y11642782D01*
X7038197Y11642784D01*
X7132843Y11806716D01*
X7191338Y11986744D01*
X7211124Y12175000D01*
X7191338Y12363256D01*
X7132843Y12543284D01*
X7038197Y12707216D01*
X7038196Y12707217D01*
X7038194Y12707221D01*
X6911536Y12847887D01*
X6903254Y12853904D01*
X6758394Y12959151D01*
X6758393Y12959152D01*
X6758391Y12959153D01*
X6585469Y13036143D01*
X6585467Y13036144D01*
X6465369Y13061672D01*
X6426116Y13070015D01*
X6357394Y13105031D01*
X6315387Y13169716D01*
X6311351Y13246738D01*
X6346367Y13315460D01*
X6411052Y13357467D01*
X6426116Y13361503D01*
X6554803Y13388856D01*
X6727730Y13465849D01*
X6880871Y13577112D01*
X6960017Y13665012D01*
X7007530Y13717780D01*
X7007531Y13717782D01*
X7007533Y13717784D01*
X7102179Y13881716D01*
X7160674Y14061744D01*
X7180460Y14250000D01*
X7160674Y14438256D01*
X7102179Y14618284D01*
X7007533Y14782216D01*
X7007532Y14782217D01*
X7007530Y14782221D01*
X6880872Y14922887D01*
X6762139Y15009151D01*
X6727730Y15034151D01*
X6727729Y15034152D01*
X6727727Y15034153D01*
X6554800Y15111146D01*
X6548911Y15113059D01*
X6484227Y15155067D01*
X6449213Y15223790D01*
X6453252Y15300812D01*
X6495260Y15365496D01*
X6534350Y15390881D01*
X6702730Y15465849D01*
X6749724Y15499992D01*
X12095006Y15499992D01*
X12114965Y15131864D01*
X12114965Y15131858D01*
X12174613Y14768026D01*
X12174613Y14768024D01*
X12273247Y14412779D01*
X12273249Y14412774D01*
X12409709Y14070285D01*
X12409715Y14070272D01*
X12582404Y13744544D01*
X12582407Y13744539D01*
X12789303Y13439392D01*
X12789312Y13439380D01*
X12925496Y13279052D01*
X12925497Y13279052D01*
X14241350Y14594906D01*
X14295456Y14516520D01*
X14468816Y14336034D01*
X14594865Y14241314D01*
X13276520Y12922969D01*
X13295657Y12904841D01*
X13295658Y12904840D01*
X13589165Y12681722D01*
X13905066Y12491650D01*
X14239684Y12336840D01*
X14239694Y12336835D01*
X14589063Y12219120D01*
X14949131Y12139863D01*
X15315656Y12100001D01*
X15315666Y12100000D01*
X15684334Y12100000D01*
X15684343Y12100001D01*
X16050868Y12139863D01*
X16050869Y12139863D01*
X16410936Y12219120D01*
X16760305Y12336835D01*
X16760315Y12336840D01*
X17094933Y12491650D01*
X17410834Y12681722D01*
X17704352Y12904849D01*
X17723479Y12922968D01*
X16406879Y14239568D01*
X16434180Y14256832D01*
X16621501Y14422784D01*
X16760511Y14593042D01*
X18074501Y13279052D01*
X18210690Y13439383D01*
X18210694Y13439389D01*
X18417592Y13744539D01*
X18417595Y13744544D01*
X18590284Y14070272D01*
X18590290Y14070285D01*
X18726750Y14412774D01*
X18726752Y14412779D01*
X18825386Y14768024D01*
X18825386Y14768026D01*
X18885034Y15131858D01*
X18885034Y15131864D01*
X18904994Y15499992D01*
X18904994Y15500009D01*
X18885034Y15868137D01*
X18885034Y15868143D01*
X18825386Y16231975D01*
X18825386Y16231977D01*
X18726752Y16587222D01*
X18726750Y16587227D01*
X18590290Y16929716D01*
X18590284Y16929729D01*
X18417595Y17255457D01*
X18417592Y17255462D01*
X18210696Y17560609D01*
X18210687Y17560621D01*
X18074502Y17720950D01*
X18074501Y17720950D01*
X16758648Y16405097D01*
X16704544Y16483480D01*
X16531184Y16663966D01*
X16405132Y16758688D01*
X17723479Y18077034D01*
X17704347Y18095156D01*
X17410834Y18318279D01*
X17094933Y18508351D01*
X16760315Y18663161D01*
X16760305Y18663166D01*
X16410936Y18780881D01*
X16050868Y18860138D01*
X15684343Y18900000D01*
X15315656Y18900000D01*
X14949131Y18860138D01*
X14949130Y18860138D01*
X14589063Y18780881D01*
X14239694Y18663166D01*
X14239684Y18663161D01*
X13905066Y18508351D01*
X13589165Y18318279D01*
X13295663Y18095165D01*
X13276520Y18077033D01*
X14593120Y16760433D01*
X14565820Y16743168D01*
X14378499Y16577216D01*
X14239488Y16406959D01*
X12925497Y17720950D01*
X12925496Y17720950D01*
X12789308Y17560617D01*
X12789306Y17560614D01*
X12582402Y17255453D01*
X12409715Y16929729D01*
X12409709Y16929716D01*
X12273249Y16587227D01*
X12273247Y16587222D01*
X12174613Y16231977D01*
X12174613Y16231975D01*
X12114965Y15868143D01*
X12114965Y15868137D01*
X12095006Y15500009D01*
X12095006Y15499992D01*
X6749724Y15499992D01*
X6855871Y15577112D01*
X6959786Y15692521D01*
X6982530Y15717780D01*
X6982531Y15717782D01*
X6982533Y15717784D01*
X7077179Y15881716D01*
X7135674Y16061744D01*
X7155460Y16250000D01*
X7135674Y16438256D01*
X7077179Y16618284D01*
X6982533Y16782216D01*
X6982532Y16782217D01*
X6982530Y16782221D01*
X6855872Y16922887D01*
X6828110Y16943057D01*
X6702730Y17034151D01*
X6702729Y17034152D01*
X6702727Y17034153D01*
X6548791Y17102690D01*
X6529803Y17111144D01*
X6423360Y17133769D01*
X6344648Y17150500D01*
X6344646Y17150500D01*
X6155354Y17150500D01*
X6155352Y17150500D01*
X6055392Y17129253D01*
X5970197Y17111144D01*
X5970195Y17111144D01*
X5970194Y17111143D01*
X5797272Y17034153D01*
X5644127Y16922887D01*
X5517469Y16782221D01*
X5422822Y16618286D01*
X5422819Y16618279D01*
X5364325Y16438255D01*
X5344540Y16250000D01*
X5364325Y16061746D01*
X5395173Y15966806D01*
X5422821Y15881716D01*
X5463621Y15811049D01*
X5517469Y15717780D01*
X5644127Y15577114D01*
X5644129Y15577112D01*
X5797270Y15465849D01*
X5970197Y15388856D01*
X5970200Y15388856D01*
X5976082Y15386944D01*
X6040768Y15344939D01*
X6075784Y15276218D01*
X6071749Y15199195D01*
X6029744Y15134509D01*
X5990646Y15109118D01*
X5822271Y15034152D01*
X5669127Y14922887D01*
X5542469Y14782221D01*
X5447818Y14618279D01*
X5447449Y14617449D01*
X5447067Y14616979D01*
X5443917Y14611521D01*
X5443052Y14612021D01*
X5398907Y14557512D01*
X5326900Y14529875D01*
X5250723Y14541945D01*
X5190786Y14590487D01*
X5163149Y14662494D01*
X5162843Y14690364D01*
X5169279Y14768026D01*
X5180214Y14900000D01*
X5178317Y14922888D01*
X5164545Y15089102D01*
X5161390Y15127176D01*
X5105430Y15348155D01*
X5013862Y15556909D01*
X4889183Y15747745D01*
X4734794Y15915456D01*
X4560101Y16051426D01*
X4554905Y16055470D01*
X4455457Y16109288D01*
X4399437Y16162302D01*
X4377430Y16236224D01*
X4395331Y16311246D01*
X4400204Y16319591D01*
X4480456Y16447310D01*
X4536313Y16606941D01*
X4555249Y16775000D01*
X4536313Y16943059D01*
X4480456Y17102690D01*
X4390477Y17245890D01*
X4270890Y17365477D01*
X4127690Y17455456D01*
X3968059Y17511313D01*
X3968058Y17511314D01*
X3968056Y17511314D01*
X3800001Y17530249D01*
X3799999Y17530249D01*
X3631943Y17511314D01*
X3472309Y17455456D01*
X3329110Y17365477D01*
X3209523Y17245890D01*
X3119544Y17102691D01*
X3063686Y16943057D01*
X3044751Y16775001D01*
X3044751Y16775000D01*
X3063686Y16606944D01*
X3119544Y16447310D01*
X3199788Y16319603D01*
X3222522Y16245902D01*
X3205359Y16170707D01*
X3152899Y16114168D01*
X3144542Y16109289D01*
X3045099Y16055473D01*
X2865206Y15915457D01*
X2710817Y15747746D01*
X2674737Y15692521D01*
X2617278Y15641071D01*
X2541791Y15625243D01*
X2468504Y15649280D01*
X2425263Y15692521D01*
X2389182Y15747746D01*
X2330908Y15811049D01*
X2234794Y15915456D01*
X2060101Y16051426D01*
X2054905Y16055470D01*
X1955457Y16109288D01*
X1899437Y16162302D01*
X1877430Y16236224D01*
X1895331Y16311246D01*
X1900204Y16319591D01*
X1980456Y16447310D01*
X2036313Y16606941D01*
X2055249Y16775000D01*
X2036313Y16943059D01*
X1980456Y17102690D01*
X1890477Y17245890D01*
X1770890Y17365477D01*
X1627690Y17455456D01*
X1468059Y17511313D01*
X1468058Y17511314D01*
X1468056Y17511314D01*
X1300001Y17530249D01*
X1299999Y17530249D01*
X1131943Y17511314D01*
X972309Y17455456D01*
X829110Y17365477D01*
X709523Y17245890D01*
X619544Y17102691D01*
X563686Y16943057D01*
X544751Y16775001D01*
X544751Y16775000D01*
X563686Y16606944D01*
X619544Y16447310D01*
X699788Y16319603D01*
X722522Y16245902D01*
X705359Y16170707D01*
X652899Y16114168D01*
X644542Y16109289D01*
X545099Y16055473D01*
X365206Y15915457D01*
X210817Y15747746D01*
X174737Y15692521D01*
X117278Y15641071D01*
X41791Y15625243D01*
X-31496Y15649280D01*
X-74737Y15692521D01*
X-110818Y15747746D01*
X-169092Y15811049D01*
X-265206Y15915456D01*
X-439899Y16051426D01*
X-445095Y16055470D01*
X-544543Y16109288D01*
X-600563Y16162302D01*
X-622570Y16236224D01*
X-604669Y16311246D01*
X-599796Y16319591D01*
X-519544Y16447310D01*
X-463687Y16606941D01*
X-444751Y16775000D01*
X-463687Y16943059D01*
X-519544Y17102690D01*
X-609523Y17245890D01*
X-729110Y17365477D01*
X-872310Y17455456D01*
X-1031941Y17511313D01*
X-1031942Y17511314D01*
X-1031944Y17511314D01*
X-1199999Y17530249D01*
X-1200001Y17530249D01*
X-1368057Y17511314D01*
X-1527691Y17455456D01*
X-1670890Y17365477D01*
X-1790477Y17245890D01*
X-1880456Y17102691D01*
X-1936314Y16943057D01*
X-1955249Y16775001D01*
X-1955249Y16775000D01*
X-1936314Y16606944D01*
X-1880456Y16447310D01*
X-1800212Y16319603D01*
X-1777478Y16245902D01*
X-1794641Y16170707D01*
X-1847101Y16114168D01*
X-1855458Y16109289D01*
X-1954901Y16055473D01*
X-2134794Y15915457D01*
X-2289183Y15747746D01*
X-2325263Y15692521D01*
X-2382722Y15641071D01*
X-2458209Y15625243D01*
X-2531496Y15649280D01*
X-2574737Y15692521D01*
X-2610818Y15747746D01*
X-2669092Y15811049D01*
X-2765206Y15915456D01*
X-2939899Y16051426D01*
X-2945095Y16055470D01*
X-3044543Y16109288D01*
X-3100563Y16162302D01*
X-3122570Y16236224D01*
X-3104669Y16311246D01*
X-3099796Y16319591D01*
X-3019544Y16447310D01*
X-2963687Y16606941D01*
X-2944751Y16775000D01*
X-2963687Y16943059D01*
X-3019544Y17102690D01*
X-3109523Y17245890D01*
X-3229110Y17365477D01*
X-3372310Y17455456D01*
X-3531941Y17511313D01*
X-3531942Y17511314D01*
X-3531944Y17511314D01*
X-3699999Y17530249D01*
X-3700001Y17530249D01*
X-3868057Y17511314D01*
X-4027691Y17455456D01*
X-4170890Y17365477D01*
X-4290477Y17245890D01*
X-4380456Y17102691D01*
X-4436314Y16943057D01*
X-4455249Y16775001D01*
X-4455249Y16775000D01*
X-4436314Y16606944D01*
X-4380456Y16447310D01*
X-4300212Y16319603D01*
X-4277478Y16245902D01*
X-4294641Y16170707D01*
X-4347101Y16114168D01*
X-4355458Y16109289D01*
X-4454901Y16055473D01*
X-4634794Y15915457D01*
X-4789179Y15747750D01*
X-4789181Y15747748D01*
X-4789183Y15747745D01*
X-4828582Y15687440D01*
X-4913864Y15556907D01*
X-5005430Y15348157D01*
X-5061391Y15127172D01*
X-5080214Y14900002D01*
X-5080214Y14899999D01*
X-5061391Y14672829D01*
X-5061391Y14672826D01*
X-5061390Y14672824D01*
X-5041246Y14593279D01*
X-5005430Y14451844D01*
X-4913864Y14243094D01*
X-4913862Y14243091D01*
X-4789183Y14052255D01*
X-4634794Y13884544D01*
X-4454906Y13744531D01*
X-4405931Y13718027D01*
X-4349911Y13665012D01*
X-4327904Y13591091D01*
X-4345805Y13516069D01*
X-4398725Y13460107D01*
X-4520875Y13384897D01*
X-4696640Y13230205D01*
X-4843733Y13048034D01*
X-4957925Y12843622D01*
X-4957926Y12843620D01*
X-5035930Y12622847D01*
X-5076483Y12386337D01*
X-5108749Y12316282D01*
X-5171719Y12271746D01*
X-5248521Y12264661D01*
X-5318576Y12296927D01*
X-5363112Y12359897D01*
X-5365047Y12365474D01*
X-5375241Y12396849D01*
X-5422821Y12543284D01*
X-5517467Y12707216D01*
X-5517468Y12707217D01*
X-5517470Y12707221D01*
X-5644128Y12847887D01*
X-5652410Y12853904D01*
X-5797270Y12959151D01*
X-5797271Y12959152D01*
X-5797273Y12959153D01*
X-5970195Y13036143D01*
X-5970197Y13036144D01*
X-6055410Y13054257D01*
X-6124131Y13089272D01*
X-6166137Y13153957D01*
X-6170174Y13230979D01*
X-6135158Y13299701D01*
X-6070473Y13341707D01*
X-6055413Y13345743D01*
X-5970197Y13363856D01*
X-5797270Y13440849D01*
X-5644129Y13552112D01*
X-5568562Y13636037D01*
X-5517470Y13692780D01*
X-5517469Y13692782D01*
X-5517467Y13692784D01*
X-5422821Y13856716D01*
X-5364326Y14036744D01*
X-5344540Y14225000D01*
X-5364326Y14413256D01*
X-5422821Y14593284D01*
X-5517467Y14757216D01*
X-5517468Y14757217D01*
X-5517470Y14757221D01*
X-5644128Y14897887D01*
X-5678538Y14922887D01*
X-5797270Y15009151D01*
X-5797271Y15009152D01*
X-5797273Y15009153D01*
X-5970195Y15086143D01*
X-5970197Y15086144D01*
X-6009104Y15094414D01*
X-6077823Y15129428D01*
X-6119830Y15194113D01*
X-6123867Y15271136D01*
X-6088852Y15339857D01*
X-6024167Y15381864D01*
X-6009108Y15385900D01*
X-5995197Y15388856D01*
X-5822270Y15465849D01*
X-5669129Y15577112D01*
X-5565214Y15692521D01*
X-5542470Y15717780D01*
X-5542469Y15717782D01*
X-5542467Y15717784D01*
X-5447821Y15881716D01*
X-5389326Y16061744D01*
X-5369540Y16250000D01*
X-5389326Y16438256D01*
X-5447821Y16618284D01*
X-5542467Y16782216D01*
X-5542468Y16782217D01*
X-5542470Y16782221D01*
X-5669128Y16922887D01*
X-5696890Y16943057D01*
X-5822270Y17034151D01*
X-5822271Y17034152D01*
X-5822273Y17034153D01*
X-5976209Y17102690D01*
X-5995197Y17111144D01*
X-6101640Y17133769D01*
X-6180352Y17150500D01*
X-6180354Y17150500D01*
X-6369646Y17150500D01*
X-6369648Y17150500D01*
X-6469608Y17129253D01*
X-6554803Y17111144D01*
X-6554805Y17111144D01*
X-6554806Y17111143D01*
X-6727728Y17034153D01*
X-6880873Y16922887D01*
X-7007531Y16782221D01*
X-7102178Y16618286D01*
X-7102181Y16618279D01*
X-7160675Y16438255D01*
X-7180460Y16250000D01*
X-7160675Y16061746D01*
X-7129827Y15966806D01*
X-7102179Y15881716D01*
X-7061379Y15811049D01*
X-7007531Y15717780D01*
X-6880873Y15577114D01*
X-6880871Y15577112D01*
X-6727730Y15465849D01*
X-6554803Y15388856D01*
X-6515897Y15380587D01*
X-6447179Y15345574D01*
X-6405171Y15280890D01*
X-6401133Y15203868D01*
X-6436148Y15135145D01*
X-6500832Y15093137D01*
X-6515892Y15089102D01*
X-6529802Y15086145D01*
X-6702728Y15009153D01*
X-6855873Y14897887D01*
X-6982531Y14757221D01*
X-7077178Y14593286D01*
X-7077181Y14593279D01*
X-7135675Y14413255D01*
X-7155460Y14225000D01*
X-7135675Y14036746D01*
X-7107489Y13950000D01*
X-7077179Y13856716D01*
X-7077178Y13856715D01*
X-6982531Y13692780D01*
X-6859305Y13555926D01*
X-6855871Y13552112D01*
X-6702730Y13440849D01*
X-6702729Y13440849D01*
X-6702728Y13440848D01*
X-6699431Y13439380D01*
X-6529803Y13363856D01*
X-6444592Y13345744D01*
X-6375870Y13310728D01*
X-6333863Y13246043D01*
X-6329827Y13169021D01*
X-6364843Y13100299D01*
X-6429528Y13058292D01*
X-6444592Y13054257D01*
X-6529803Y13036144D01*
X-6529805Y13036144D01*
X-6529806Y13036143D01*
X-6702728Y12959153D01*
X-6855873Y12847887D01*
X-6982531Y12707221D01*
X-7077178Y12543286D01*
X-7077181Y12543279D01*
X-7135675Y12363255D01*
X-7155460Y12175000D01*
X-7135675Y11986746D01*
X-7086632Y11835808D01*
X-7077179Y11806716D01*
X-6982533Y11642784D01*
X-6982531Y11642781D01*
X-6972889Y11632072D01*
X-6937875Y11563350D01*
X-6941912Y11486328D01*
X-6983920Y11421643D01*
X-7052642Y11386629D01*
X-7066936Y11384310D01*
X-7222461Y11366786D01*
X-7335403Y11327266D01*
X-7412315Y11321503D01*
X-7481805Y11354967D01*
X-7525253Y11418694D01*
X-7525745Y11420401D01*
X-7528214Y11427456D01*
X-7528214Y11427461D01*
X-7582211Y11581775D01*
X-7669192Y11720204D01*
X-7784796Y11835808D01*
X-7923225Y11922789D01*
X-8077539Y11976786D01*
X-8077540Y11976787D01*
X-8077542Y11976787D01*
X-8239999Y11995091D01*
X-8240001Y11995091D01*
X-8402459Y11976787D01*
X-8418568Y11971150D01*
X-8556775Y11922789D01*
X-8556777Y11922789D01*
X-8556777Y11922788D01*
X-8695204Y11835808D01*
X-8810808Y11720204D01*
X-8897788Y11581777D01*
X-8951787Y11427459D01*
X-8970091Y11265001D01*
X-8970091Y11265000D01*
X-8959520Y11171183D01*
X-8971015Y11094917D01*
X-9019103Y11034615D01*
X-9090900Y11006437D01*
X-9107583Y11005500D01*
X-9198643Y11005500D01*
X-9252650Y11002606D01*
X-9252679Y11002604D01*
X-9279021Y10999772D01*
X-9279067Y10999765D01*
X-9332441Y10991117D01*
X-9467253Y10940834D01*
X-9467256Y10940833D01*
X-9528576Y10907350D01*
X-9528584Y10907345D01*
X-9643759Y10821126D01*
X-10519943Y9944942D01*
X-10597004Y9867882D01*
X-10663799Y9829319D01*
X-10740927Y9829319D01*
X-10807722Y9867884D01*
X-10837249Y9914880D01*
X-10838581Y9914238D01*
X-10842210Y9921773D01*
X-10842211Y9921775D01*
X-10929192Y10060204D01*
X-11044796Y10175808D01*
X-11183225Y10262789D01*
X-11337539Y10316786D01*
X-11337540Y10316787D01*
X-11337542Y10316787D01*
X-11499999Y10335091D01*
X-11500001Y10335091D01*
X-11662459Y10316787D01*
X-11739618Y10289788D01*
X-11816775Y10262789D01*
X-11955204Y10175808D01*
X-12070808Y10060204D01*
X-12157789Y9921775D01*
X-12160426Y9914238D01*
X-12211787Y9767459D01*
X-12230091Y9605001D01*
X-12230091Y9605000D01*
X-12211787Y9442542D01*
X-12157788Y9288223D01*
X-12149891Y9275655D01*
X-12127157Y9201953D01*
X-12144320Y9126759D01*
X-12196779Y9070221D01*
X-12315202Y8995810D01*
X-12430808Y8880204D01*
X-12517788Y8741777D01*
X-12571787Y8587459D01*
X-12590091Y8425001D01*
X-12590091Y8425000D01*
X-12571787Y8262542D01*
X-12517787Y8108219D01*
X-12514158Y8100684D01*
X-12515756Y8099915D01*
X-12496098Y8036175D01*
X-12513264Y7960981D01*
X-12539635Y7925252D01*
X-14727211Y5737675D01*
X-14727219Y5737666D01*
X-14792215Y5657848D01*
X-14792216Y5657847D01*
X-14819811Y5615854D01*
X-14867283Y5524535D01*
X-14900730Y5384599D01*
X-14900732Y5384590D01*
X-14907137Y5315027D01*
X-14907137Y5315011D01*
X-14899804Y5171324D01*
X-14899803Y5171319D01*
X-14868123Y5080783D01*
X-14855370Y5044335D01*
X-14852283Y5035515D01*
X-14852282Y5035511D01*
X-14820058Y4973523D01*
X-14820058Y4973522D01*
X-14769041Y4902392D01*
X-14741843Y4830219D01*
X-14754375Y4754116D01*
X-14803279Y4694474D01*
X-14810844Y4689391D01*
X-14880205Y4645808D01*
X-14880205Y4645807D01*
X-14995808Y4530204D01*
X-15078889Y4397982D01*
X-15135428Y4345522D01*
X-15155837Y4336617D01*
X-15166775Y4332790D01*
X-15305204Y4245808D01*
X-15420810Y4130202D01*
X-15489799Y4020408D01*
X-15546338Y3967948D01*
X-15566747Y3959044D01*
X-15611511Y3943380D01*
X-15688424Y3937615D01*
X-15709934Y3943379D01*
X-15762538Y3961786D01*
X-15762542Y3961787D01*
X-15924999Y3980091D01*
X-15925001Y3980091D01*
X-16087459Y3961787D01*
X-16164618Y3934788D01*
X-16241775Y3907789D01*
X-16241777Y3907789D01*
X-16241777Y3907788D01*
X-16380204Y3820808D01*
X-16495808Y3705204D01*
X-16569741Y3587540D01*
X-16582789Y3566775D01*
X-16600823Y3515238D01*
X-16636787Y3412459D01*
X-16655091Y3250001D01*
X-16655091Y3250000D01*
X-16640250Y3118279D01*
X-16636786Y3087540D01*
X-16635680Y3084379D01*
X-16635492Y3081868D01*
X-16634924Y3079380D01*
X-16635300Y3079295D01*
X-16629917Y3007467D01*
X-16663381Y2937977D01*
X-16727108Y2894529D01*
X-16759625Y2887106D01*
X-16762458Y2886787D01*
X-16762461Y2886787D01*
X-16762461Y2886786D01*
X-16916775Y2832789D01*
X-16916777Y2832789D01*
X-16916777Y2832788D01*
X-17055204Y2745808D01*
X-17170808Y2630204D01*
X-17238937Y2521777D01*
X-17257789Y2491775D01*
X-17269214Y2459125D01*
X-17311787Y2337459D01*
X-17330091Y2175001D01*
X-17330091Y2175000D01*
X-20999500Y2175000D01*
X-20999500Y15496914D01*
X-20999437Y15499992D01*
X-18904994Y15499992D01*
X-18885035Y15131864D01*
X-18885035Y15131858D01*
X-18825387Y14768026D01*
X-18825387Y14768024D01*
X-18726753Y14412779D01*
X-18726751Y14412774D01*
X-18590291Y14070285D01*
X-18590285Y14070272D01*
X-18417596Y13744544D01*
X-18417593Y13744539D01*
X-18210697Y13439392D01*
X-18210688Y13439380D01*
X-18074504Y13279052D01*
X-18074503Y13279052D01*
X-16758650Y14594906D01*
X-16704544Y14516520D01*
X-16531184Y14336034D01*
X-16405135Y14241314D01*
X-17723480Y12922969D01*
X-17704343Y12904841D01*
X-17704342Y12904840D01*
X-17410835Y12681722D01*
X-17094934Y12491650D01*
X-16760316Y12336840D01*
X-16760306Y12336835D01*
X-16410937Y12219120D01*
X-16050869Y12139863D01*
X-15684344Y12100001D01*
X-15684334Y12100000D01*
X-15315666Y12100000D01*
X-15315657Y12100001D01*
X-14949132Y12139863D01*
X-14949131Y12139863D01*
X-14589064Y12219120D01*
X-14239695Y12336835D01*
X-14239685Y12336840D01*
X-13905067Y12491650D01*
X-13589166Y12681722D01*
X-13295648Y12904849D01*
X-13276521Y12922968D01*
X-14593121Y14239568D01*
X-14565820Y14256832D01*
X-14378499Y14422784D01*
X-14239489Y14593042D01*
X-12925499Y13279052D01*
X-12789310Y13439383D01*
X-12789306Y13439389D01*
X-12582408Y13744539D01*
X-12582405Y13744544D01*
X-12409716Y14070272D01*
X-12409710Y14070285D01*
X-12273250Y14412774D01*
X-12273248Y14412779D01*
X-12174614Y14768024D01*
X-12174614Y14768026D01*
X-12114966Y15131858D01*
X-12114966Y15131864D01*
X-12095006Y15499992D01*
X-12095006Y15500009D01*
X-12114966Y15868137D01*
X-12114966Y15868143D01*
X-12174614Y16231975D01*
X-12174614Y16231977D01*
X-12273248Y16587222D01*
X-12273250Y16587227D01*
X-12409710Y16929716D01*
X-12409716Y16929729D01*
X-12582405Y17255457D01*
X-12582408Y17255462D01*
X-12789304Y17560609D01*
X-12789313Y17560621D01*
X-12925498Y17720950D01*
X-12925499Y17720950D01*
X-14241352Y16405097D01*
X-14295456Y16483480D01*
X-14468816Y16663966D01*
X-14594868Y16758688D01*
X-13276521Y18077034D01*
X-13295653Y18095156D01*
X-13589166Y18318279D01*
X-13905067Y18508351D01*
X-14239685Y18663161D01*
X-14239695Y18663166D01*
X-14589064Y18780881D01*
X-14949132Y18860138D01*
X-15315657Y18900000D01*
X-15684344Y18900000D01*
X-16050869Y18860138D01*
X-16050870Y18860138D01*
X-16410937Y18780881D01*
X-16760306Y18663166D01*
X-16760316Y18663161D01*
X-17094934Y18508351D01*
X-17410835Y18318279D01*
X-17704337Y18095165D01*
X-17723480Y18077033D01*
X-16406880Y16760433D01*
X-16434180Y16743168D01*
X-16621501Y16577216D01*
X-16760512Y16406959D01*
X-18074503Y17720950D01*
X-18074504Y17720950D01*
X-18210692Y17560617D01*
X-18210694Y17560614D01*
X-18417598Y17255453D01*
X-18590285Y16929729D01*
X-18590291Y16929716D01*
X-18726751Y16587227D01*
X-18726753Y16587222D01*
X-18825387Y16231977D01*
X-18825387Y16231975D01*
X-18885035Y15868143D01*
X-18885035Y15868137D01*
X-18904994Y15500009D01*
X-18904994Y15499992D01*
X-20999437Y15499992D01*
X-20999373Y15503071D01*
X-20996311Y15577112D01*
X-20990506Y15717455D01*
X-20990455Y15717453D01*
X-20990492Y15717791D01*
X-20980139Y15954903D01*
X-20979142Y15966777D01*
X-20950922Y16193168D01*
X-20921239Y16418634D01*
X-20919344Y16429751D01*
X-20917561Y16438255D01*
X-20872181Y16654685D01*
X-20871904Y16655965D01*
X-20823198Y16875665D01*
X-20820542Y16885905D01*
X-20809532Y16922887D01*
X-20754715Y17107016D01*
X-20754126Y17108937D01*
X-20686719Y17322726D01*
X-20683456Y17331985D01*
X-20599403Y17547395D01*
X-20598400Y17549889D01*
X-20512816Y17756506D01*
X-20509047Y17764863D01*
X-20407436Y17972711D01*
X-20405842Y17975873D01*
X-20302709Y18173989D01*
X-20298580Y18181390D01*
X-20180092Y18380239D01*
X-20177827Y18383915D01*
X-20057959Y18572070D01*
X-20053616Y18578505D01*
X-19919017Y18767023D01*
X-19916039Y18771045D01*
X-19780294Y18947951D01*
X-19775864Y18953446D01*
X-19626154Y19130208D01*
X-19622353Y19134523D01*
X-19471731Y19298898D01*
X-19467326Y19303499D01*
X-19303499Y19467326D01*
X-19298898Y19471731D01*
X-19134523Y19622353D01*
X-19130208Y19626154D01*
X-18953446Y19775864D01*
X-18947951Y19780294D01*
X-18771045Y19916039D01*
X-18767023Y19919017D01*
X-18578505Y20053616D01*
X-18572070Y20057959D01*
X-18383915Y20177827D01*
X-18380239Y20180092D01*
X-18181371Y20298592D01*
X-18173989Y20302709D01*
X-17975873Y20405842D01*
X-17972711Y20407436D01*
X-17764863Y20509047D01*
X-17756506Y20512816D01*
X-17549889Y20598400D01*
X-17547395Y20599403D01*
X-17331985Y20683456D01*
X-17322726Y20686719D01*
X-17108937Y20754126D01*
X-17107016Y20754715D01*
X-16885895Y20820545D01*
X-16875665Y20823198D01*
X-16655965Y20871904D01*
X-16654685Y20872181D01*
X-16429744Y20919346D01*
X-16418634Y20921239D01*
X-16193168Y20950922D01*
X-16193153Y20950924D01*
X-15966777Y20979142D01*
X-15954903Y20980139D01*
X-15717894Y20990488D01*
X-15717794Y20990492D01*
X-15717452Y20990416D01*
X-15717455Y20990506D01*
X-15503071Y20999374D01*
X-15496914Y20999500D01*
X15496914Y20999500D01*
X15503070Y20999374D01*
G37*
%TD.AperFunction*%
%TD*%
%TA.AperFunction,Conductor*%
%TO.N,Vmot*%
G36*
X5986211Y1254815D02*
G01*
X6006853Y1238181D01*
X10611315Y-3366282D01*
X10618622Y-3374256D01*
X10642902Y-3403190D01*
X10642905Y-3403194D01*
X10675621Y-3422082D01*
X10684726Y-3427882D01*
X10715676Y-3449553D01*
X10715678Y-3449553D01*
X10715679Y-3449554D01*
X10720528Y-3451815D01*
X10737307Y-3458765D01*
X10742312Y-3460587D01*
X10742313Y-3460587D01*
X10742315Y-3460588D01*
X10779522Y-3467148D01*
X10790061Y-3469484D01*
X10826553Y-3479263D01*
X10864171Y-3475971D01*
X10874978Y-3475500D01*
X12149138Y-3475500D01*
X12216177Y-3495185D01*
X12236819Y-3511819D01*
X12488681Y-3763681D01*
X12522166Y-3825004D01*
X12525000Y-3851362D01*
X12525000Y-4998638D01*
X12505315Y-5065677D01*
X12488681Y-5086319D01*
X11936319Y-5638681D01*
X11874996Y-5672166D01*
X11848638Y-5675000D01*
X8951362Y-5675000D01*
X8884323Y-5655315D01*
X8863681Y-5638681D01*
X7016819Y-3791819D01*
X6983334Y-3730496D01*
X6980500Y-3704138D01*
X6980500Y-2625000D01*
X6980499Y-2624983D01*
X6974570Y-2569843D01*
X6968948Y-2517548D01*
X6968946Y-2517544D01*
X6968946Y-2517541D01*
X6918667Y-2382740D01*
X6832442Y-2267558D01*
X6832437Y-2267553D01*
X6832432Y-2267547D01*
X5993362Y-1428478D01*
X5892708Y-1350500D01*
X5892704Y-1350498D01*
X5762961Y-1297159D01*
X5759636Y-1295792D01*
X5759635Y-1295791D01*
X5759633Y-1295791D01*
X5616542Y-1280790D01*
X5616539Y-1280791D01*
X5475012Y-1306712D01*
X5475007Y-1306714D01*
X5427398Y-1330703D01*
X5358672Y-1343290D01*
X5294050Y-1316722D01*
X5273226Y-1295452D01*
X5178283Y-1171719D01*
X5178282Y-1171718D01*
X5052841Y-1075464D01*
X4906762Y-1014956D01*
X4860786Y-1008903D01*
X4751757Y-994549D01*
X4687861Y-966282D01*
X4649390Y-907958D01*
X4644378Y-866442D01*
X4644354Y-866443D01*
X4644350Y-866211D01*
X4644146Y-864518D01*
X4644290Y-862007D01*
X4638766Y-797691D01*
X4638674Y-795560D01*
X4638311Y-792393D01*
X4605724Y-652258D01*
X4605722Y-652254D01*
X4605722Y-652252D01*
X4534971Y-526969D01*
X4492305Y-471639D01*
X4492303Y-471636D01*
X4389135Y-371374D01*
X4389125Y-371364D01*
X4294777Y-302816D01*
X4275516Y-285474D01*
X4237397Y-243138D01*
X4222163Y-222171D01*
X4193675Y-172826D01*
X4183133Y-149148D01*
X4178133Y-133760D01*
X4178131Y-133753D01*
X4178126Y-133743D01*
X4178123Y-133733D01*
X4141030Y-47687D01*
X4119076Y-7487D01*
X4119072Y-7481D01*
X4066719Y70254D01*
X3960705Y167530D01*
X3879020Y223372D01*
X3834786Y277456D01*
X3825000Y325738D01*
X3825000Y773638D01*
X3844685Y840677D01*
X3861319Y861319D01*
X4238181Y1238181D01*
X4299504Y1271666D01*
X4325862Y1274500D01*
X5919172Y1274500D01*
X5986211Y1254815D01*
G37*
%TD.AperFunction*%
%TD*%
%TA.AperFunction,Conductor*%
%TO.N,GND*%
G36*
X1560512Y7892291D02*
G01*
X1590218Y7885978D01*
X1616234Y7880448D01*
X1640885Y7872438D01*
X1693695Y7848925D01*
X1794200Y7816268D01*
X1794202Y7816268D01*
X1794204Y7816267D01*
X1801150Y7814791D01*
X1844636Y7805547D01*
X1949740Y7794500D01*
X3725500Y7794500D01*
X3792539Y7774815D01*
X3838294Y7722011D01*
X3849500Y7670500D01*
X3849500Y7335454D01*
X3829815Y7268415D01*
X3813181Y7247773D01*
X1841208Y5275801D01*
X1828951Y5265980D01*
X1829134Y5265759D01*
X1823122Y5260786D01*
X1777098Y5211777D01*
X1774391Y5208984D01*
X1754889Y5189483D01*
X1754875Y5189466D01*
X1752407Y5186285D01*
X1744843Y5177430D01*
X1714937Y5145582D01*
X1714936Y5145580D01*
X1705284Y5128024D01*
X1694610Y5111774D01*
X1682329Y5095939D01*
X1682324Y5095932D01*
X1664975Y5055842D01*
X1659838Y5045356D01*
X1638803Y5007094D01*
X1633822Y4987693D01*
X1627521Y4969290D01*
X1619562Y4950898D01*
X1619561Y4950895D01*
X1612728Y4907757D01*
X1610360Y4896326D01*
X1599501Y4854029D01*
X1599500Y4854018D01*
X1599500Y4833984D01*
X1597973Y4814585D01*
X1594840Y4794806D01*
X1594840Y4794805D01*
X1598950Y4751326D01*
X1599500Y4739657D01*
X1599500Y2298688D01*
X1579815Y2231649D01*
X1567650Y2215716D01*
X1492466Y2132216D01*
X1397821Y1968285D01*
X1397818Y1968278D01*
X1339327Y1788260D01*
X1339326Y1788256D01*
X1319540Y1600000D01*
X1339326Y1411744D01*
X1339327Y1411741D01*
X1397818Y1231723D01*
X1397821Y1231716D01*
X1492467Y1067784D01*
X1555638Y997626D01*
X1619129Y927112D01*
X1772265Y815852D01*
X1772270Y815849D01*
X1945192Y738858D01*
X1945197Y738856D01*
X2130354Y699500D01*
X2130355Y699500D01*
X2319644Y699500D01*
X2319646Y699500D01*
X2504803Y738856D01*
X2677730Y815849D01*
X2814290Y915066D01*
X2880092Y938544D01*
X2920959Y929041D01*
X3001784Y848216D01*
X3010717Y804135D01*
X3010494Y801802D01*
X2994540Y650000D01*
X3014326Y461744D01*
X3014327Y461741D01*
X3072818Y281723D01*
X3072821Y281716D01*
X3167467Y117784D01*
X3265916Y8446D01*
X3294129Y-22888D01*
X3447265Y-134148D01*
X3447270Y-134151D01*
X3626134Y-213788D01*
X3625351Y-215546D01*
X3675426Y-249778D01*
X3697373Y-289965D01*
X3722818Y-368277D01*
X3722821Y-368284D01*
X3817467Y-532216D01*
X3886740Y-609151D01*
X3944129Y-672888D01*
X4091999Y-780322D01*
X4134665Y-835652D01*
X4140644Y-905265D01*
X4111264Y-963612D01*
X4017466Y-1067785D01*
X3922821Y-1231715D01*
X3922818Y-1231722D01*
X3864327Y-1411740D01*
X3864326Y-1411744D01*
X3844540Y-1600000D01*
X3864326Y-1788256D01*
X3864327Y-1788259D01*
X3922818Y-1968277D01*
X3922821Y-1968284D01*
X4017467Y-2132216D01*
X4132333Y-2259787D01*
X4144129Y-2272888D01*
X4297265Y-2384148D01*
X4297270Y-2384151D01*
X4470192Y-2461142D01*
X4470197Y-2461144D01*
X4655354Y-2500500D01*
X4655355Y-2500500D01*
X4844644Y-2500500D01*
X4844646Y-2500500D01*
X5029803Y-2461144D01*
X5202730Y-2384151D01*
X5355871Y-2272888D01*
X5482533Y-2132216D01*
X5577179Y-1968284D01*
X5635674Y-1788256D01*
X5635919Y-1785919D01*
X6475000Y-2625000D01*
X6475000Y-11725000D01*
X5400000Y-12800000D01*
X2000000Y-12800000D01*
X1829439Y-12629439D01*
X1890777Y-12549305D01*
X1923022Y-12493147D01*
X1973538Y-12369948D01*
X1989940Y-12227005D01*
X1987945Y-12157164D01*
X1963411Y-12015391D01*
X1940529Y-11944967D01*
X1935142Y-11919624D01*
X1929186Y-11862955D01*
X1929186Y-11837036D01*
X1931286Y-11817055D01*
X1935141Y-11780372D01*
X1940529Y-11755026D01*
X1958135Y-11700843D01*
X1968675Y-11677168D01*
X1996162Y-11629562D01*
X2046662Y-11507645D01*
X2063275Y-11445645D01*
X2080500Y-11314811D01*
X2080500Y-9725000D01*
X3325000Y-9725000D01*
X3775000Y-9275000D01*
X3775000Y-3875000D01*
X3400000Y-3500000D01*
X3176012Y-3500000D01*
X3080204Y-3404192D01*
X2941774Y-3317210D01*
X2787455Y-3263212D01*
X2625004Y-3244909D01*
X2624996Y-3244909D01*
X2462544Y-3263212D01*
X2308225Y-3317210D01*
X2169795Y-3404192D01*
X2100181Y-3473807D01*
X2052212Y-3500000D01*
X1965575Y-3500000D01*
X1924819Y-3473807D01*
X1880204Y-3429192D01*
X1741774Y-3342210D01*
X1587455Y-3288212D01*
X1425004Y-3269909D01*
X1424996Y-3269909D01*
X1262544Y-3288212D01*
X1140954Y-3330758D01*
X1071175Y-3334319D01*
X1059046Y-3330758D01*
X937455Y-3288212D01*
X775004Y-3269909D01*
X774996Y-3269909D01*
X612544Y-3288212D01*
X575999Y-3300999D01*
X-900000Y-1825000D01*
X-900000Y1225000D01*
X-2777205Y3102205D01*
X-2781965Y3121740D01*
X-2784336Y3134216D01*
X-2789930Y3174917D01*
X-2789930Y3174920D01*
X-2797079Y3191378D01*
X-2803820Y3211422D01*
X-2808067Y3228852D01*
X-2828205Y3264668D01*
X-2833852Y3276037D01*
X-2836536Y3282216D01*
X-2850220Y3313720D01*
X-2861546Y3327641D01*
X-2873444Y3345123D01*
X-2882236Y3360760D01*
X-2911282Y3389806D01*
X-2919790Y3399233D01*
X-2945722Y3431109D01*
X-2960387Y3441460D01*
X-2976559Y3455083D01*
X-3397594Y3876119D01*
X-3400536Y3879163D01*
X-3444321Y3926045D01*
X-3479425Y3947392D01*
X-3489921Y3954536D01*
X-3522659Y3979362D01*
X-3522658Y3979362D01*
X-3539358Y3985948D01*
X-3558284Y3995348D01*
X-3573620Y4004673D01*
X-3613184Y4015759D01*
X-3625214Y4019804D01*
X-3663436Y4034876D01*
X-3663444Y4034878D01*
X-3681284Y4036712D01*
X-3702049Y4040658D01*
X-3719331Y4045500D01*
X-3719335Y4045500D01*
X-3720500Y4045500D01*
X-5312500Y5637500D01*
X-4786954Y5637500D01*
X-4719915Y5617815D01*
X-4674160Y5565011D01*
X-4669912Y5554454D01*
X-4640790Y5471226D01*
X-4597286Y5401991D01*
X-4553808Y5332796D01*
X-4438204Y5217192D01*
X-4299775Y5130211D01*
X-4145461Y5076214D01*
X-4145458Y5076214D01*
X-4145456Y5076213D01*
X-3983004Y5057909D01*
X-3983000Y5057909D01*
X-3982996Y5057909D01*
X-3820545Y5076213D01*
X-3820544Y5076214D01*
X-3820539Y5076214D01*
X-3666225Y5130211D01*
X-3527796Y5217192D01*
X-3412192Y5332796D01*
X-3325211Y5471225D01*
X-3314018Y5503213D01*
X-3271216Y5625532D01*
X-3271215Y5625537D01*
X-3271214Y5625539D01*
X-3263918Y5690302D01*
X-3236853Y5754713D01*
X-3228389Y5764088D01*
X-2454294Y6538181D01*
X-2392971Y6571666D01*
X-2366613Y6574500D01*
X-912383Y6574500D01*
X-845344Y6554815D01*
X-799589Y6502011D01*
X-789645Y6432853D01*
X-795342Y6409544D01*
X-795996Y6407677D01*
X-814299Y6245225D01*
X-814299Y6245218D01*
X-795996Y6082766D01*
X-741998Y5928447D01*
X-671829Y5816775D01*
X-655016Y5790017D01*
X-539412Y5674413D01*
X-400983Y5587432D01*
X-246669Y5533435D01*
X-246666Y5533435D01*
X-246664Y5533434D01*
X-84212Y5515130D01*
X-84208Y5515130D01*
X-84204Y5515130D01*
X78248Y5533434D01*
X78249Y5533435D01*
X78253Y5533435D01*
X118757Y5547609D01*
X188532Y5551172D01*
X200666Y5547609D01*
X327542Y5503213D01*
X489996Y5484909D01*
X490000Y5484909D01*
X490004Y5484909D01*
X652455Y5503213D01*
X652456Y5503214D01*
X652461Y5503214D01*
X806775Y5557211D01*
X945204Y5644192D01*
X1060808Y5759796D01*
X1147789Y5898225D01*
X1201786Y6052539D01*
X1201787Y6052545D01*
X1220091Y6214997D01*
X1220091Y6215004D01*
X1201787Y6377456D01*
X1201786Y6377458D01*
X1201786Y6377461D01*
X1147789Y6531775D01*
X1060808Y6670204D01*
X1060807Y6670205D01*
X1059506Y6672276D01*
X1040500Y6738248D01*
X1040500Y6803479D01*
X1040572Y6807711D01*
X1041380Y6831376D01*
X1042762Y6871826D01*
X1033035Y6911740D01*
X1030664Y6924216D01*
X1025070Y6964917D01*
X1025070Y6964920D01*
X1017921Y6981378D01*
X1011180Y7001422D01*
X1006933Y7018852D01*
X993603Y7042559D01*
X986795Y7054668D01*
X981148Y7066037D01*
X964780Y7103720D01*
X953454Y7117641D01*
X941556Y7135123D01*
X932764Y7150760D01*
X903718Y7179806D01*
X895210Y7189233D01*
X869278Y7221109D01*
X854613Y7231460D01*
X838441Y7245083D01*
X577408Y7506117D01*
X574465Y7509162D01*
X530682Y7556042D01*
X530675Y7556048D01*
X516690Y7564552D01*
X469638Y7616203D01*
X457980Y7685093D01*
X485417Y7749350D01*
X543239Y7788573D01*
X581118Y7794500D01*
X1062755Y7794500D01*
X1062760Y7794500D01*
X1167864Y7805547D01*
X1218300Y7816268D01*
X1318807Y7848926D01*
X1371608Y7872437D01*
X1396256Y7880446D01*
X1429097Y7887426D01*
X1451990Y7892291D01*
X1477768Y7895000D01*
X1534734Y7895000D01*
X1560512Y7892291D01*
G37*
%TD.AperFunction*%
%TA.AperFunction,Conductor*%
G36*
X-5089488Y7867291D02*
G01*
X-5053822Y7859711D01*
X-5033635Y7855420D01*
X-5014978Y7849894D01*
X-5012475Y7848934D01*
X-5012455Y7848925D01*
X-4911950Y7816268D01*
X-4911948Y7816268D01*
X-4911946Y7816267D01*
X-4905000Y7814791D01*
X-4861514Y7805547D01*
X-4756410Y7794500D01*
X-3337229Y7794500D01*
X-3270190Y7774815D01*
X-3224435Y7722011D01*
X-3214491Y7652853D01*
X-3243516Y7589297D01*
X-3249548Y7582819D01*
X-4057548Y6774819D01*
X-4118871Y6741334D01*
X-4145229Y6738500D01*
X-6813500Y6738500D01*
X-7117559Y7042559D01*
X-6401935Y7758181D01*
X-6340612Y7791666D01*
X-6314254Y7794500D01*
X-5531095Y7794500D01*
X-5531090Y7794500D01*
X-5425986Y7805547D01*
X-5375550Y7816268D01*
X-5275043Y7848926D01*
X-5275033Y7848931D01*
X-5272551Y7849883D01*
X-5253885Y7855415D01*
X-5198008Y7867292D01*
X-5172234Y7870000D01*
X-5115266Y7870000D01*
X-5089488Y7867291D01*
G37*
%TD.AperFunction*%
%TD*%
%TA.AperFunction,Conductor*%
%TO.N,+3V3*%
G36*
X-7795341Y10480315D02*
G01*
X-7749586Y10427511D01*
X-7745339Y10416955D01*
X-7717791Y10338228D01*
X-7717789Y10338225D01*
X-7630808Y10199796D01*
X-7515204Y10084192D01*
X-7376775Y9997211D01*
X-7222461Y9943214D01*
X-7222458Y9943214D01*
X-7222456Y9943213D01*
X-7060004Y9924909D01*
X-7060000Y9924909D01*
X-7059996Y9924909D01*
X-6897545Y9943213D01*
X-6897544Y9943214D01*
X-6897539Y9943214D01*
X-6743225Y9997211D01*
X-6604796Y10084192D01*
X-6489192Y10199796D01*
X-6402211Y10338225D01*
X-6400999Y10341691D01*
X-6374661Y10416955D01*
X-6333940Y10473731D01*
X-6268987Y10499478D01*
X-6257620Y10500000D01*
X6448638Y10500000D01*
X6515677Y10480315D01*
X6536319Y10463681D01*
X6913681Y10086319D01*
X6947166Y10024996D01*
X6950000Y9998638D01*
X6950000Y8676362D01*
X6930315Y8609323D01*
X6913681Y8588681D01*
X6661319Y8336319D01*
X6599996Y8302834D01*
X6573638Y8300000D01*
X1949740Y8300000D01*
X1899304Y8310721D01*
X1786057Y8361143D01*
X1786052Y8361145D01*
X1640251Y8392135D01*
X1600896Y8400500D01*
X1411604Y8400500D01*
X1379147Y8393602D01*
X1226447Y8361145D01*
X1226442Y8361143D01*
X1113196Y8310721D01*
X1062760Y8300000D01*
X-547573Y8300000D01*
X-613545Y8319006D01*
X-683226Y8362790D01*
X-837545Y8416788D01*
X-999996Y8435091D01*
X-1000004Y8435091D01*
X-1162456Y8416788D01*
X-1316775Y8362790D01*
X-1386455Y8319006D01*
X-1452427Y8300000D01*
X-4756410Y8300000D01*
X-4806846Y8310721D01*
X-4863944Y8336143D01*
X-4863948Y8336145D01*
X-5009749Y8367135D01*
X-5049104Y8375500D01*
X-5238396Y8375500D01*
X-5270853Y8368602D01*
X-5423553Y8336145D01*
X-5423557Y8336143D01*
X-5480654Y8310721D01*
X-5531090Y8300000D01*
X-8875000Y8300000D01*
X-10162500Y9587500D01*
X-9286319Y10463681D01*
X-9224996Y10497166D01*
X-9198638Y10500000D01*
X-7862380Y10500000D01*
X-7795341Y10480315D01*
G37*
%TD.AperFunction*%
%TD*%
%TA.AperFunction,Conductor*%
%TO.N,+3V3*%
G36*
X-8875000Y8300000D02*
G01*
X-6575001Y8300000D01*
X-7754067Y7120935D01*
X-7815390Y7087450D01*
X-7885082Y7092434D01*
X-7941015Y7134306D01*
X-7946732Y7142629D01*
X-7989192Y7210204D01*
X-8009300Y7230312D01*
X-8042785Y7291635D01*
X-8044839Y7331878D01*
X-8034909Y7420000D01*
X-8034909Y7420004D01*
X-8053213Y7582456D01*
X-8053214Y7582458D01*
X-8053214Y7582461D01*
X-8107211Y7736775D01*
X-8194192Y7875204D01*
X-8309796Y7990808D01*
X-8335909Y8007216D01*
X-8448226Y8077790D01*
X-8602545Y8131788D01*
X-8764996Y8150091D01*
X-8765004Y8150091D01*
X-8927456Y8131788D01*
X-9081775Y8077790D01*
X-9220205Y7990808D01*
X-9335808Y7875205D01*
X-9422790Y7736775D01*
X-9476788Y7582456D01*
X-9495091Y7420004D01*
X-9495091Y7419997D01*
X-9476788Y7257545D01*
X-9422790Y7103226D01*
X-9335808Y6964796D01*
X-9315701Y6944689D01*
X-9282216Y6883366D01*
X-9280162Y6843124D01*
X-9290091Y6755003D01*
X-9290091Y6754997D01*
X-9271788Y6592545D01*
X-9271787Y6592540D01*
X-9271786Y6592539D01*
X-9217789Y6438225D01*
X-9201912Y6412957D01*
X-9182911Y6345721D01*
X-9203278Y6278886D01*
X-9219224Y6259303D01*
X-12831106Y2647421D01*
X-12834148Y2644481D01*
X-12881042Y2600684D01*
X-12902394Y2565573D01*
X-12909530Y2555089D01*
X-12915301Y2547477D01*
X-12934361Y2522342D01*
X-12934364Y2522337D01*
X-12940945Y2505648D01*
X-12950347Y2486717D01*
X-12959673Y2471381D01*
X-12970758Y2431819D01*
X-12974802Y2419792D01*
X-12989878Y2381560D01*
X-12991712Y2363716D01*
X-12995658Y2342952D01*
X-13000499Y2325672D01*
X-13000500Y2325663D01*
X-13000500Y2284582D01*
X-13001150Y2271902D01*
X-13005352Y2231030D01*
X-13005352Y2231025D01*
X-13002303Y2213344D01*
X-13000500Y2192276D01*
X-13000500Y520215D01*
X-13000572Y515983D01*
X-13002762Y451863D01*
X-12993037Y411959D01*
X-12990666Y399484D01*
X-12985070Y358772D01*
X-12977921Y342313D01*
X-12971181Y322272D01*
X-12966933Y304840D01*
X-12966933Y304839D01*
X-12946794Y269021D01*
X-12941154Y257667D01*
X-12932722Y238256D01*
X-12924779Y219969D01*
X-12913459Y206056D01*
X-12901561Y188575D01*
X-12892766Y172932D01*
X-12892764Y172931D01*
X-12863714Y143881D01*
X-12855216Y134466D01*
X-12829278Y102584D01*
X-12814619Y92237D01*
X-12798448Y78615D01*
X-12111319Y-608514D01*
X-12077834Y-669837D01*
X-12075000Y-696195D01*
X-12075000Y-1425000D01*
X-11025000Y-2475000D01*
X-10296195Y-2475000D01*
X-10229156Y-2494685D01*
X-10208514Y-2511319D01*
X-9934482Y-2785351D01*
X-9900997Y-2846674D01*
X-9905981Y-2916366D01*
X-9917169Y-2939004D01*
X-10007790Y-3083225D01*
X-10061788Y-3237544D01*
X-10080091Y-3399996D01*
X-10080091Y-3400003D01*
X-10061788Y-3562455D01*
X-10007790Y-3716774D01*
X-9958694Y-3794909D01*
X-9920808Y-3855204D01*
X-9805204Y-3970808D01*
X-9666775Y-4057789D01*
X-9512461Y-4111786D01*
X-9512458Y-4111786D01*
X-9512456Y-4111787D01*
X-9350004Y-4130091D01*
X-9350000Y-4130091D01*
X-9349996Y-4130091D01*
X-9187545Y-4111787D01*
X-9187544Y-4111786D01*
X-9187539Y-4111786D01*
X-9033225Y-4057789D01*
X-8894796Y-3970808D01*
X-8779192Y-3855204D01*
X-8724680Y-3768447D01*
X-8672349Y-3722158D01*
X-8660651Y-3717382D01*
X-8589749Y-3692573D01*
X-8451320Y-3605592D01*
X-8335716Y-3489988D01*
X-8275178Y-3393641D01*
X-8222846Y-3347352D01*
X-8194122Y-3339237D01*
X-8194327Y-3338335D01*
X-8187543Y-3336786D01*
X-8187539Y-3336786D01*
X-8033225Y-3282789D01*
X-7894796Y-3195808D01*
X-7779192Y-3080204D01*
X-7692211Y-2941775D01*
X-7638214Y-2787461D01*
X-7635024Y-2759148D01*
X-7619909Y-2625003D01*
X-7619909Y-2624998D01*
X-7621274Y-2612885D01*
X-7609220Y-2544063D01*
X-7561871Y-2492683D01*
X-7498054Y-2475000D01*
X-4955749Y-2475000D01*
X-4888710Y-2494685D01*
X-4863599Y-2516028D01*
X-4744871Y-2647888D01*
X-4591735Y-2759148D01*
X-4591730Y-2759151D01*
X-4418808Y-2836142D01*
X-4418803Y-2836144D01*
X-4233646Y-2875500D01*
X-4233645Y-2875500D01*
X-4044356Y-2875500D01*
X-4044354Y-2875500D01*
X-3859197Y-2836144D01*
X-3686270Y-2759151D01*
X-3615324Y-2707605D01*
X-3549519Y-2684125D01*
X-3481465Y-2699950D01*
X-3454758Y-2720242D01*
X-3075146Y-3099854D01*
X-3041661Y-3161177D01*
X-3046645Y-3230869D01*
X-3088517Y-3286802D01*
X-3096855Y-3292529D01*
X-3155205Y-3329192D01*
X-3270808Y-3444795D01*
X-3357790Y-3583225D01*
X-3411788Y-3737544D01*
X-3430091Y-3899996D01*
X-3430091Y-3900003D01*
X-3411788Y-4062455D01*
X-3357790Y-4216774D01*
X-3336558Y-4250564D01*
X-3270808Y-4355204D01*
X-3155204Y-4470808D01*
X-3016775Y-4557789D01*
X-2862461Y-4611786D01*
X-2862458Y-4611786D01*
X-2862456Y-4611787D01*
X-2700004Y-4630091D01*
X-2700000Y-4630091D01*
X-2699996Y-4630091D01*
X-2537545Y-4611787D01*
X-2537544Y-4611786D01*
X-2537539Y-4611786D01*
X-2383225Y-4557789D01*
X-2244796Y-4470808D01*
X-2129192Y-4355204D01*
X-2092529Y-4296854D01*
X-2040194Y-4250564D01*
X-1971141Y-4239916D01*
X-1907292Y-4268291D01*
X-1899854Y-4275146D01*
X-1891933Y-4283067D01*
X-1874620Y-4304776D01*
X-1795808Y-4430204D01*
X-1680204Y-4545808D01*
X-1554775Y-4624621D01*
X-1533069Y-4641931D01*
X-449110Y-5725890D01*
X-415625Y-5787213D01*
X-420609Y-5856905D01*
X-462481Y-5912838D01*
X-511009Y-5934861D01*
X-529804Y-5938856D01*
X-529808Y-5938857D01*
X-702730Y-6015848D01*
X-702735Y-6015851D01*
X-855871Y-6127111D01*
X-982534Y-6267785D01*
X-1077179Y-6431715D01*
X-1077182Y-6431722D01*
X-1131322Y-6598350D01*
X-1135674Y-6611744D01*
X-1155460Y-6800000D01*
X-1135674Y-6988256D01*
X-1135673Y-6988259D01*
X-1077182Y-7168277D01*
X-1077179Y-7168284D01*
X-982533Y-7332216D01*
X-891976Y-7432789D01*
X-855871Y-7472888D01*
X-702735Y-7584148D01*
X-702730Y-7584151D01*
X-529808Y-7661142D01*
X-529803Y-7661144D01*
X-344646Y-7700500D01*
X-344645Y-7700500D01*
X-155356Y-7700500D01*
X-155354Y-7700500D01*
X29803Y-7661144D01*
X202730Y-7584151D01*
X355871Y-7472888D01*
X482533Y-7332216D01*
X577179Y-7168284D01*
X616694Y-7046668D01*
X656131Y-6988994D01*
X720490Y-6961795D01*
X789336Y-6973709D01*
X822306Y-6997306D01*
X1538681Y-7713681D01*
X1572166Y-7775004D01*
X1575000Y-7801362D01*
X1575000Y-11314811D01*
X1558387Y-11376811D01*
X1497821Y-11481714D01*
X1449177Y-11631426D01*
X1439326Y-11661744D01*
X1419540Y-11850000D01*
X1439326Y-12038256D01*
X1439327Y-12038259D01*
X1482651Y-12171598D01*
X1484646Y-12241439D01*
X1452401Y-12297597D01*
X1036319Y-12713681D01*
X974996Y-12747166D01*
X948638Y-12750000D01*
X-2048638Y-12750000D01*
X-2115677Y-12730315D01*
X-2136319Y-12713681D01*
X-3013681Y-11836319D01*
X-3047166Y-11774996D01*
X-3050000Y-11748638D01*
X-3050000Y-7596625D01*
X-3030315Y-7529586D01*
X-2977511Y-7483831D01*
X-2966954Y-7479583D01*
X-2947821Y-7472888D01*
X-2833225Y-7432789D01*
X-2694796Y-7345808D01*
X-2579192Y-7230204D01*
X-2492211Y-7091775D01*
X-2438214Y-6937461D01*
X-2435024Y-6909151D01*
X-2419909Y-6775003D01*
X-2419909Y-6774996D01*
X-2438213Y-6612544D01*
X-2438214Y-6612542D01*
X-2438214Y-6612539D01*
X-2492211Y-6458225D01*
X-2579192Y-6319796D01*
X-2694796Y-6204192D01*
X-2814143Y-6129201D01*
X-2833226Y-6117210D01*
X-2987545Y-6063212D01*
X-3149996Y-6044909D01*
X-3150004Y-6044909D01*
X-3312456Y-6063212D01*
X-3466775Y-6117210D01*
X-3605205Y-6204192D01*
X-3662825Y-6261813D01*
X-3724148Y-6295298D01*
X-3793840Y-6290314D01*
X-3838187Y-6261813D01*
X-4900000Y-5200000D01*
X-8831105Y-5200000D01*
X-8889558Y-5185358D01*
X-9042045Y-5103852D01*
X-9042048Y-5103851D01*
X-9042050Y-5103850D01*
X-9230645Y-5046640D01*
X-9230648Y-5046639D01*
X-9426777Y-5027323D01*
X-9622907Y-5046639D01*
X-9699244Y-5069796D01*
X-9811504Y-5103850D01*
X-9811505Y-5103850D01*
X-9811510Y-5103852D01*
X-9963996Y-5185358D01*
X-10022449Y-5200000D01*
X-10482139Y-5200000D01*
X-10549178Y-5180315D01*
X-10586649Y-5137954D01*
X-10588506Y-5139121D01*
X-10679193Y-4994795D01*
X-10794796Y-4879192D01*
X-10933226Y-4792210D01*
X-11087545Y-4738212D01*
X-11249996Y-4719909D01*
X-11249997Y-4719909D01*
X-11249999Y-4719909D01*
X-11250000Y-4719909D01*
X-11268781Y-4722025D01*
X-11285113Y-4723865D01*
X-11353934Y-4711809D01*
X-11386675Y-4688325D01*
X-13714215Y-2360785D01*
X-13744465Y-2311422D01*
X-13803139Y-2130843D01*
X-13803140Y-2130842D01*
X-13803141Y-2130837D01*
X-13897787Y-1966905D01*
X-14024449Y-1826233D01*
X-14024450Y-1826232D01*
X-14177586Y-1714972D01*
X-14177588Y-1714971D01*
X-14295830Y-1662325D01*
X-14349066Y-1617074D01*
X-14369387Y-1550225D01*
X-14350341Y-1483001D01*
X-14311367Y-1444054D01*
X-14194796Y-1370808D01*
X-14079192Y-1255204D01*
X-13992211Y-1116775D01*
X-13938214Y-962461D01*
X-13934750Y-931716D01*
X-13919909Y-800003D01*
X-13919909Y-799996D01*
X-13938213Y-637544D01*
X-13938214Y-637542D01*
X-13938214Y-637539D01*
X-13992211Y-483225D01*
X-13992211Y-483224D01*
X-14028369Y-425679D01*
X-14047369Y-358442D01*
X-14040417Y-318754D01*
X-14038214Y-312461D01*
X-14023701Y-183653D01*
X-14019909Y-150003D01*
X-14019909Y-149996D01*
X-14038213Y12456D01*
X-14038214Y12458D01*
X-14038214Y12461D01*
X-14092211Y166775D01*
X-14179192Y305204D01*
X-14294796Y420808D01*
X-14325569Y440144D01*
X-14433226Y507790D01*
X-14587545Y561788D01*
X-14749996Y580091D01*
X-14750004Y580091D01*
X-14912456Y561788D01*
X-15040882Y516850D01*
X-15110661Y513289D01*
X-15171288Y548018D01*
X-15198877Y592937D01*
X-15242210Y716773D01*
X-15246052Y722888D01*
X-15329192Y855204D01*
X-15338681Y864693D01*
X-15372166Y926016D01*
X-15375000Y952374D01*
X-15375000Y997626D01*
X-15355315Y1064665D01*
X-15338681Y1085307D01*
X-15335132Y1088856D01*
X-15329192Y1094796D01*
X-15242211Y1233225D01*
X-15188214Y1387539D01*
X-15188138Y1388214D01*
X-15169909Y1549997D01*
X-15169909Y1550004D01*
X-15188213Y1712458D01*
X-15204228Y1758225D01*
X-15238886Y1857271D01*
X-15242447Y1927048D01*
X-15238891Y1939162D01*
X-15213214Y2012539D01*
X-15213213Y2012547D01*
X-15194909Y2174997D01*
X-15194909Y2175004D01*
X-15213213Y2337454D01*
X-15213214Y2337455D01*
X-15213214Y2337461D01*
X-15237111Y2405753D01*
X-15240671Y2475528D01*
X-15205942Y2536156D01*
X-15161027Y2563744D01*
X-15008225Y2617211D01*
X-14869796Y2704192D01*
X-14754192Y2819796D01*
X-14680548Y2937001D01*
X-14628215Y2983291D01*
X-14616521Y2988065D01*
X-14533225Y3017211D01*
X-14394796Y3104192D01*
X-14279192Y3219796D01*
X-14192211Y3358225D01*
X-14192211Y3358228D01*
X-14191457Y3359426D01*
X-14139122Y3405717D01*
X-14127415Y3410496D01*
X-14108228Y3417210D01*
X-14108225Y3417211D01*
X-14086108Y3431108D01*
X-13969796Y3504192D01*
X-13854192Y3619796D01*
X-13767211Y3758225D01*
X-13764190Y3764498D01*
X-13761965Y3763427D01*
X-13727944Y3810874D01*
X-13692563Y3830196D01*
X-13658225Y3842211D01*
X-13519796Y3929192D01*
X-13404192Y4044796D01*
X-13317211Y4183225D01*
X-13263214Y4337539D01*
X-13244909Y4500000D01*
X-13252786Y4569909D01*
X-13263213Y4662456D01*
X-13263214Y4662458D01*
X-13263214Y4662461D01*
X-13317211Y4816775D01*
X-13404192Y4955204D01*
X-13519796Y5070808D01*
X-13642579Y5147958D01*
X-13658226Y5157790D01*
X-13812545Y5211788D01*
X-13974996Y5230091D01*
X-13975004Y5230091D01*
X-14137456Y5211788D01*
X-14241133Y5175510D01*
X-14310912Y5171949D01*
X-14371539Y5206678D01*
X-14403766Y5268672D01*
X-14397360Y5338247D01*
X-14369770Y5380231D01*
X-12077558Y7672443D01*
X-12016239Y7705925D01*
X-11975999Y7707979D01*
X-11915300Y7701140D01*
X-11860002Y7694909D01*
X-11860000Y7694909D01*
X-11859996Y7694909D01*
X-11697545Y7713213D01*
X-11697544Y7713214D01*
X-11697539Y7713214D01*
X-11543225Y7767211D01*
X-11404796Y7854192D01*
X-11289192Y7969796D01*
X-11202211Y8108225D01*
X-11148214Y8262539D01*
X-11143993Y8300000D01*
X-11129909Y8424997D01*
X-11129909Y8425003D01*
X-11142979Y8540997D01*
X-11130925Y8609819D01*
X-11107446Y8642555D01*
X-10162500Y9587500D01*
X-8875000Y8300000D01*
G37*
%TD.AperFunction*%
%TD*%
M02*
