%TF.GenerationSoftware,KiCad,Pcbnew,7.0.9*%
%TF.CreationDate,2024-01-12T19:02:56-05:00*%
%TF.ProjectId,lemon-pepper,6c656d6f-6e2d-4706-9570-7065722e6b69,rev?*%
%TF.SameCoordinates,PX8b85c60PY52f2218*%
%TF.FileFunction,Copper,L3,Inr*%
%TF.FilePolarity,Positive*%
%FSLAX46Y46*%
G04 Gerber Fmt 4.6, Leading zero omitted, Abs format (unit mm)*
G04 Created by KiCad (PCBNEW 7.0.9) date 2024-01-12 19:02:56*
%MOMM*%
%LPD*%
G01*
G04 APERTURE LIST*
G04 Aperture macros list*
%AMRoundRect*
0 Rectangle with rounded corners*
0 $1 Rounding radius*
0 $2 $3 $4 $5 $6 $7 $8 $9 X,Y pos of 4 corners*
0 Add a 4 corners polygon primitive as box body*
4,1,4,$2,$3,$4,$5,$6,$7,$8,$9,$2,$3,0*
0 Add four circle primitives for the rounded corners*
1,1,$1+$1,$2,$3*
1,1,$1+$1,$4,$5*
1,1,$1+$1,$6,$7*
1,1,$1+$1,$8,$9*
0 Add four rect primitives between the rounded corners*
20,1,$1+$1,$2,$3,$4,$5,0*
20,1,$1+$1,$4,$5,$6,$7,0*
20,1,$1+$1,$6,$7,$8,$9,0*
20,1,$1+$1,$8,$9,$2,$3,0*%
G04 Aperture macros list end*
%TA.AperFunction,ComponentPad*%
%ADD10C,5.800000*%
%TD*%
%TA.AperFunction,ComponentPad*%
%ADD11C,1.000000*%
%TD*%
%TA.AperFunction,HeatsinkPad*%
%ADD12C,0.500000*%
%TD*%
%TA.AperFunction,ComponentPad*%
%ADD13O,1.750000X1.750000*%
%TD*%
%TA.AperFunction,ComponentPad*%
%ADD14O,1.750000X2.000000*%
%TD*%
%TA.AperFunction,ComponentPad*%
%ADD15RoundRect,0.250000X0.600000X0.725000X-0.600000X0.725000X-0.600000X-0.725000X0.600000X-0.725000X0*%
%TD*%
%TA.AperFunction,ComponentPad*%
%ADD16O,1.700000X1.950000*%
%TD*%
%TA.AperFunction,ViaPad*%
%ADD17C,0.800000*%
%TD*%
%TA.AperFunction,ViaPad*%
%ADD18C,0.450000*%
%TD*%
%TA.AperFunction,Conductor*%
%ADD19C,1.000000*%
%TD*%
%TA.AperFunction,Conductor*%
%ADD20C,0.400000*%
%TD*%
G04 APERTURE END LIST*
D10*
%TO.N,GND*%
%TO.C,H101*%
X-15500000Y15500000D03*
X-15500000Y-15500000D03*
X15500000Y15500000D03*
X15500000Y-15500000D03*
%TD*%
D11*
%TO.N,GND*%
%TO.C,J201*%
X-9426777Y-6032664D03*
X-12467336Y-9073223D03*
X-6032664Y-9426777D03*
X-9073223Y-12467336D03*
%TD*%
D12*
%TO.N,/current sense/U_OUT*%
%TO.C,M101*%
X-3700000Y16775000D03*
D13*
X-3700000Y14900000D03*
D14*
X-3700000Y12150000D03*
D12*
%TO.N,/current sense/W_IN*%
X-1200000Y16775000D03*
D13*
X-1200000Y14900000D03*
D14*
X-1200000Y12150000D03*
D12*
%TO.N,/half bridges/OUT1B*%
X1300000Y16775000D03*
D13*
X1300000Y14900000D03*
D14*
X1300000Y12150000D03*
D12*
%TO.N,/current sense/V_OUT*%
X3800000Y16775000D03*
D13*
X3800000Y14900000D03*
D14*
X3800000Y12150000D03*
%TD*%
D15*
%TO.N,Vmot*%
%TO.C,J101*%
X7225000Y-14725000D03*
D16*
%TO.N,GND*%
X4725000Y-14725000D03*
%TO.N,/mcu/CANL*%
X2225000Y-14725000D03*
%TO.N,/mcu/CANH*%
X-275000Y-14725000D03*
%TD*%
D17*
%TO.N,GND*%
X7675000Y2750000D03*
X-14630320Y-2499121D03*
X-2375000Y-14600000D03*
X-11650000Y1950000D03*
X-10375000Y675000D03*
X-9125000Y1975000D03*
X16675000Y-11200000D03*
X-10375000Y1950000D03*
X10585647Y5435647D03*
X11325000Y4725000D03*
X-10375000Y3150000D03*
X-1950000Y-1300000D03*
X8675000Y2725000D03*
X8070845Y-7288732D03*
X-4139000Y-1975000D03*
X1475000Y-6125000D03*
X9910647Y6110647D03*
X-7550000Y-13000000D03*
X-250000Y-6800000D03*
X-1975000Y50000D03*
X-5395400Y-6375500D03*
X-2400000Y-16525000D03*
X7700000Y3775000D03*
X2223639Y600498D03*
%TO.N,Vmot*%
X13575000Y-675000D03*
X3900000Y650000D03*
X-6275000Y16250000D03*
X4550000Y0D03*
X6305664Y12175000D03*
X6275000Y14250000D03*
X9950000Y-3975000D03*
X13575500Y-1567997D03*
X9025000Y-4375000D03*
X5450000Y175000D03*
X-6250000Y12175000D03*
X-6250000Y14225000D03*
X9850000Y-5000000D03*
X6250000Y16250000D03*
D18*
%TO.N,/mcu/USBD_P*%
X-5375000Y-10325000D03*
X-9650000Y-8850000D03*
X-8825000Y-9650000D03*
D17*
%TO.N,+3V3*%
X500000Y-12150000D03*
X-5075000Y-1225000D03*
X-6250000Y-16625000D03*
X-1700000Y-12150000D03*
X-625000Y-12150000D03*
X16075000Y-2500000D03*
X15625000Y-3350000D03*
X-12874972Y-2731439D03*
X2225000Y1600000D03*
X16550000Y-3375000D03*
X-2200000Y-11200000D03*
D18*
X-293750Y9250000D03*
D17*
X-1125000Y-11200000D03*
X-7850000Y8675000D03*
X-300000Y-8700000D03*
X-10524127Y-3153111D03*
D18*
%TO.N,/mcu/RESET*%
X-15925000Y3250000D03*
X-12412500Y8637500D03*
X-3150000Y-6775000D03*
D17*
%TO.N,/current sense/W_IN*%
X4075000Y4700500D03*
X4075000Y5575000D03*
D18*
%TO.N,/current sense/U_SENSE*%
X-7000000Y10800000D03*
X-15325000Y3275000D03*
%TO.N,/current sense/V_SENSE*%
X-2025000Y7925000D03*
X-8906524Y-3034784D03*
D17*
%TO.N,/usb/USB_5V*%
X-9725000Y-11475000D03*
X-11550000Y-9800000D03*
X-6975000Y-8750000D03*
X-4725000Y-8900000D03*
X-8806854Y-7050000D03*
D18*
%TO.N,/mcu/USER_2*%
X-11950000Y-5525000D03*
X-15525241Y-5099495D03*
D17*
%TO.N,Net-(D603-K)*%
X4750000Y-1600000D03*
X4275000Y2750000D03*
D18*
%TO.N,Net-(D601-K)*%
X6025000Y5500000D03*
X10925000Y925000D03*
%TO.N,/usb/UCPD_CC2*%
X-7700000Y-10825000D03*
X-6075000Y-10850000D03*
%TO.N,/half bridges/ENA*%
X9150000Y-400000D03*
X4225000Y3750000D03*
X-9350000Y-3400000D03*
%TO.N,/encoder/SCK*%
X775000Y-4000000D03*
X-16600000Y2175000D03*
%TO.N,/encoder/CIPO*%
X-15900000Y1550000D03*
X-600000Y-4000000D03*
%TO.N,/encoder/COPI*%
X62132Y-4000000D03*
X-15925000Y2175000D03*
%TO.N,/encoder/CS*%
X1425000Y-4000000D03*
X-14650000Y-800000D03*
%TO.N,/encoder/CAL_EN*%
X-15900000Y400000D03*
X-1225000Y-3975000D03*
%TO.N,/mcu/USER_3*%
X-11250000Y-5450000D03*
X-15522442Y-4525000D03*
X-8350000Y-2625000D03*
X-5525000Y3150000D03*
%TO.N,/mcu/USER_1*%
X-11060733Y-6359180D03*
X-15524934Y-5673997D03*
%TO.N,/mcu/CAN_TX*%
X-3775000Y2675000D03*
X-8500000Y6125000D03*
%TO.N,/mcu/CAN_RX*%
X-8875000Y6600000D03*
X-3775000Y2100000D03*
%TO.N,/half bridges/IN2B*%
X4950000Y4350000D03*
X-14425000Y4075000D03*
%TO.N,/mcu/TIM4_CH1*%
X-7575000Y5300000D03*
X-14750000Y-150000D03*
%TO.N,/half bridges/IN1A*%
X-6375000Y-1425000D03*
X9550000Y25000D03*
%TO.N,/half bridges/IN2A*%
X9950000Y450000D03*
X-6950497Y-1450000D03*
%TO.N,/half bridges/IN1B*%
X-13975000Y4500000D03*
X5356234Y4756234D03*
%TO.N,/mcu/TIM4_CH2*%
X-15325000Y-575000D03*
X-7968766Y5718766D03*
D17*
%TO.N,/half bridges/OUT1B*%
X7575000Y6501000D03*
X6625000Y6500000D03*
D18*
%TO.N,/mcu/DIR*%
X2625000Y-3975000D03*
X-4600000Y2075000D03*
X-7525000Y-1450000D03*
%TO.N,/mcu/STEP*%
X-2700000Y-3900000D03*
X-4600497Y2675000D03*
%TO.N,GNDA*%
X-5143750Y6825000D03*
D17*
X3475000Y-11825000D03*
X3475000Y-10900000D03*
D18*
X1506250Y6850000D03*
X1506250Y7500000D03*
D17*
X2325000Y-11850000D03*
D18*
X-5143750Y7475000D03*
%TO.N,/mcu/ADC1_IN12*%
X-14850000Y3675000D03*
X-7000000Y10150497D03*
%TO.N,/mcu/USER_BTN*%
X-11800000Y7800000D03*
X13550000Y4650000D03*
%TD*%
D19*
%TO.N,/current sense/W_IN*%
X-1200000Y11925000D02*
X-1200000Y12150000D01*
X4075000Y6650000D02*
X-1200000Y11925000D01*
X4075000Y4700500D02*
X4075000Y6650000D01*
%TO.N,/half bridges/OUT1B*%
X7575000Y6501000D02*
X6574000Y6501000D01*
X1500000Y11575000D02*
X1500000Y12150000D01*
X6574000Y6501000D02*
X1500000Y11575000D01*
D20*
X1500000Y12150000D02*
X1300000Y12150000D01*
%TD*%
%TA.AperFunction,Conductor*%
%TO.N,GND*%
G36*
X15717445Y20990507D02*
G01*
X15957903Y20980008D01*
X15963820Y20979510D01*
X16193208Y20950917D01*
X16421445Y20920870D01*
X16426956Y20919930D01*
X16655391Y20872032D01*
X16878249Y20822625D01*
X16883366Y20821298D01*
X17107969Y20754431D01*
X17325072Y20685979D01*
X17329686Y20684353D01*
X17548675Y20598903D01*
X17758613Y20511943D01*
X17762795Y20510057D01*
X17974350Y20406635D01*
X18175836Y20301748D01*
X18179536Y20299685D01*
X18382116Y20178973D01*
X18567962Y20060576D01*
X18573676Y20056935D01*
X18576938Y20054734D01*
X18769063Y19917560D01*
X18949335Y19779232D01*
X18952118Y19776987D01*
X18997598Y19738468D01*
X19132414Y19624283D01*
X19301239Y19469585D01*
X19469584Y19301240D01*
X19624282Y19132415D01*
X19776974Y18952134D01*
X19779230Y18949337D01*
X19917559Y18769063D01*
X19964250Y18703670D01*
X20054732Y18576940D01*
X20056933Y18573679D01*
X20178973Y18382116D01*
X20299674Y18179553D01*
X20301757Y18175817D01*
X20406638Y17974343D01*
X20510045Y17762819D01*
X20511944Y17758608D01*
X20598915Y17548643D01*
X20684338Y17329723D01*
X20685987Y17325043D01*
X20754426Y17107983D01*
X20821297Y16883366D01*
X20822628Y16878232D01*
X20872038Y16655360D01*
X20919925Y16426974D01*
X20920874Y16421408D01*
X20950917Y16193206D01*
X20979507Y15963834D01*
X20980009Y15957866D01*
X20990505Y15717455D01*
X20999500Y15500001D01*
X20999500Y-15500001D01*
X20990505Y-15717454D01*
X20980009Y-15957864D01*
X20979507Y-15963832D01*
X20950917Y-16193205D01*
X20920874Y-16421406D01*
X20919925Y-16426972D01*
X20872038Y-16655359D01*
X20822628Y-16878230D01*
X20821297Y-16883364D01*
X20754426Y-17107982D01*
X20685987Y-17325042D01*
X20684338Y-17329721D01*
X20598915Y-17548642D01*
X20511944Y-17758606D01*
X20510045Y-17762817D01*
X20406638Y-17974342D01*
X20301757Y-18175816D01*
X20299674Y-18179551D01*
X20178973Y-18382115D01*
X20056933Y-18573677D01*
X20054732Y-18576938D01*
X19917565Y-18769055D01*
X19779230Y-18949335D01*
X19776974Y-18952132D01*
X19624283Y-19132414D01*
X19469584Y-19301239D01*
X19301239Y-19469584D01*
X19132414Y-19624283D01*
X18952132Y-19776974D01*
X18949335Y-19779230D01*
X18769055Y-19917565D01*
X18576938Y-20054732D01*
X18573677Y-20056933D01*
X18382115Y-20178973D01*
X18179551Y-20299674D01*
X18175816Y-20301757D01*
X17974342Y-20406638D01*
X17762817Y-20510045D01*
X17758606Y-20511944D01*
X17548642Y-20598915D01*
X17329721Y-20684338D01*
X17325042Y-20685987D01*
X17107982Y-20754426D01*
X16883364Y-20821297D01*
X16878230Y-20822628D01*
X16655359Y-20872038D01*
X16426972Y-20919925D01*
X16421406Y-20920874D01*
X16193205Y-20950917D01*
X15963832Y-20979507D01*
X15957864Y-20980009D01*
X15717454Y-20990505D01*
X15510286Y-20999074D01*
X15500000Y-20999500D01*
X-15500000Y-20999500D01*
X-15510798Y-20999053D01*
X-15717455Y-20990505D01*
X-15957866Y-20980009D01*
X-15963834Y-20979507D01*
X-16193142Y-20950925D01*
X-16421422Y-20920870D01*
X-16426987Y-20919921D01*
X-16655313Y-20872048D01*
X-16878231Y-20822628D01*
X-16883365Y-20821297D01*
X-17107983Y-20754426D01*
X-17325043Y-20685987D01*
X-17329723Y-20684338D01*
X-17548643Y-20598915D01*
X-17758608Y-20511945D01*
X-17762798Y-20510055D01*
X-17894184Y-20445825D01*
X-17974333Y-20406642D01*
X-18175841Y-20301743D01*
X-18179577Y-20299660D01*
X-18382099Y-20178982D01*
X-18573682Y-20056930D01*
X-18576944Y-20054729D01*
X-18711209Y-19958867D01*
X-18769056Y-19917564D01*
X-18949337Y-19779230D01*
X-18952134Y-19776974D01*
X-19132415Y-19624282D01*
X-19301240Y-19469584D01*
X-19469585Y-19301239D01*
X-19624283Y-19132414D01*
X-19738468Y-18997598D01*
X-19776987Y-18952118D01*
X-19779232Y-18949335D01*
X-19908492Y-18780880D01*
X-19917560Y-18769063D01*
X-20054734Y-18576938D01*
X-20056932Y-18573680D01*
X-20178983Y-18382098D01*
X-20217159Y-18318031D01*
X-20299675Y-18179551D01*
X-20301745Y-18175839D01*
X-20406643Y-17974332D01*
X-20434248Y-17917866D01*
X-20510076Y-17762757D01*
X-20511932Y-17758640D01*
X-20598903Y-17548675D01*
X-20684353Y-17329686D01*
X-20685979Y-17325072D01*
X-20754436Y-17107951D01*
X-20765486Y-17070834D01*
X-20821304Y-16883347D01*
X-20822626Y-16878245D01*
X-20872039Y-16655359D01*
X-20913320Y-16458477D01*
X-20919923Y-16426986D01*
X-20920872Y-16421420D01*
X-20950914Y-16193234D01*
X-20979510Y-15963820D01*
X-20980008Y-15957903D01*
X-20990509Y-15717381D01*
X-20999500Y-15500000D01*
X-18904994Y-15500000D01*
X-18885035Y-15868136D01*
X-18885035Y-15868142D01*
X-18825387Y-16231974D01*
X-18825387Y-16231976D01*
X-18726753Y-16587221D01*
X-18726751Y-16587226D01*
X-18590291Y-16929715D01*
X-18590285Y-16929728D01*
X-18417596Y-17255456D01*
X-18417593Y-17255461D01*
X-18210697Y-17560608D01*
X-18210688Y-17560620D01*
X-18074504Y-17720948D01*
X-18074503Y-17720948D01*
X-16758650Y-16405094D01*
X-16704544Y-16483480D01*
X-16531184Y-16663966D01*
X-16405135Y-16758686D01*
X-17723480Y-18077031D01*
X-17704343Y-18095159D01*
X-17704342Y-18095160D01*
X-17410835Y-18318278D01*
X-17094934Y-18508350D01*
X-16760316Y-18663160D01*
X-16760306Y-18663165D01*
X-16410937Y-18780880D01*
X-16050869Y-18860137D01*
X-15684344Y-18899999D01*
X-15684334Y-18900000D01*
X-15315666Y-18900000D01*
X-15315657Y-18899999D01*
X-14949132Y-18860137D01*
X-14949131Y-18860137D01*
X-14589064Y-18780880D01*
X-14239695Y-18663165D01*
X-14239685Y-18663160D01*
X-13905067Y-18508350D01*
X-13589166Y-18318278D01*
X-13295648Y-18095151D01*
X-13276521Y-18077032D01*
X-14593121Y-16760432D01*
X-14565820Y-16743168D01*
X-14378499Y-16577216D01*
X-14239489Y-16406958D01*
X-12925499Y-17720948D01*
X-12789310Y-17560617D01*
X-12789306Y-17560611D01*
X-12582408Y-17255461D01*
X-12582405Y-17255456D01*
X-12409716Y-16929728D01*
X-12409710Y-16929715D01*
X-12288301Y-16625000D01*
X-7155460Y-16625000D01*
X-7135675Y-16813254D01*
X-7097834Y-16929715D01*
X-7077179Y-16993284D01*
X-7022534Y-17087933D01*
X-6982531Y-17157220D01*
X-6894073Y-17255461D01*
X-6855871Y-17297888D01*
X-6702730Y-17409151D01*
X-6529803Y-17486144D01*
X-6388685Y-17516139D01*
X-6344648Y-17525500D01*
X-6344646Y-17525500D01*
X-6155352Y-17525500D01*
X-6115996Y-17517134D01*
X-5970197Y-17486144D01*
X-5797270Y-17409151D01*
X-5644129Y-17297888D01*
X-5571805Y-17217563D01*
X-5517470Y-17157220D01*
X-5517469Y-17157218D01*
X-5517467Y-17157216D01*
X-5422821Y-16993284D01*
X-5364326Y-16813256D01*
X-5344540Y-16625000D01*
X-5364326Y-16436744D01*
X-5421670Y-16260261D01*
X-5424793Y-16200676D01*
X-5445960Y-16192267D01*
X-5486021Y-16147251D01*
X-5494218Y-16133054D01*
X-5517467Y-16092784D01*
X-5517468Y-16092783D01*
X-5517470Y-16092779D01*
X-5644128Y-15952113D01*
X-5677273Y-15928032D01*
X-5797270Y-15840849D01*
X-5797271Y-15840848D01*
X-5797273Y-15840847D01*
X-5970195Y-15763857D01*
X-5970197Y-15763856D01*
X-6005567Y-15756338D01*
X-5287412Y-15756338D01*
X-5257137Y-15928034D01*
X-5220169Y-16013735D01*
X-5209181Y-16088754D01*
X-5180262Y-16103489D01*
X-5160446Y-16125241D01*
X-5083974Y-16227961D01*
X-4950422Y-16340025D01*
X-4950421Y-16340025D01*
X-4950419Y-16340027D01*
X-4794620Y-16418272D01*
X-4624976Y-16458478D01*
X-4624974Y-16458478D01*
X-4494366Y-16458478D01*
X-4494362Y-16458477D01*
X-4364641Y-16443315D01*
X-4200812Y-16383686D01*
X-4055151Y-16287883D01*
X-3935509Y-16161071D01*
X-3848338Y-16010085D01*
X-3798336Y-15843066D01*
X-3788198Y-15669018D01*
X-3818473Y-15497324D01*
X-3865955Y-15387246D01*
X-3887527Y-15337237D01*
X-3991637Y-15197394D01*
X-4125189Y-15085330D01*
X-4280987Y-15007085D01*
X-4280989Y-15007084D01*
X-4280990Y-15007084D01*
X-4450634Y-14966878D01*
X-4581241Y-14966878D01*
X-4581250Y-14966878D01*
X-4710965Y-14982040D01*
X-4710969Y-14982040D01*
X-4874794Y-15041668D01*
X-4874796Y-15041669D01*
X-4874798Y-15041670D01*
X-4974745Y-15107406D01*
X-5020464Y-15137476D01*
X-5140096Y-15264278D01*
X-5140104Y-15264289D01*
X-5227272Y-15415269D01*
X-5227273Y-15415271D01*
X-5277274Y-15582291D01*
X-5287412Y-15756332D01*
X-5287412Y-15756338D01*
X-6005567Y-15756338D01*
X-6076640Y-15741231D01*
X-6155352Y-15724500D01*
X-6155354Y-15724500D01*
X-6344646Y-15724500D01*
X-6344648Y-15724500D01*
X-6444608Y-15745747D01*
X-6529803Y-15763856D01*
X-6529805Y-15763856D01*
X-6529806Y-15763857D01*
X-6702728Y-15840847D01*
X-6855873Y-15952113D01*
X-6982531Y-16092779D01*
X-7077178Y-16256714D01*
X-7077181Y-16256721D01*
X-7135675Y-16436745D01*
X-7155460Y-16625000D01*
X-12288301Y-16625000D01*
X-12273250Y-16587226D01*
X-12273248Y-16587221D01*
X-12174614Y-16231976D01*
X-12174614Y-16231974D01*
X-12114966Y-15868142D01*
X-12114966Y-15868136D01*
X-12107385Y-15728315D01*
X-10467940Y-15728315D01*
X-10437665Y-15900011D01*
X-10368612Y-16060095D01*
X-10264502Y-16199938D01*
X-10130950Y-16312002D01*
X-10130949Y-16312002D01*
X-10130947Y-16312004D01*
X-9975148Y-16390249D01*
X-9805504Y-16430455D01*
X-9805502Y-16430455D01*
X-9674894Y-16430455D01*
X-9674890Y-16430454D01*
X-9545169Y-16415292D01*
X-9381340Y-16355663D01*
X-9235679Y-16259860D01*
X-9209371Y-16231976D01*
X-9165110Y-16185062D01*
X-9116037Y-16133048D01*
X-9028866Y-15982062D01*
X-8978864Y-15815043D01*
X-8968726Y-15640995D01*
X-8999001Y-15469301D01*
X-9068054Y-15309217D01*
X-9068055Y-15309214D01*
X-9172165Y-15169371D01*
X-9305717Y-15057307D01*
X-9461515Y-14979062D01*
X-9461517Y-14979061D01*
X-9461518Y-14979061D01*
X-9631162Y-14938855D01*
X-9761769Y-14938855D01*
X-9761778Y-14938855D01*
X-9891493Y-14954017D01*
X-9891497Y-14954017D01*
X-10055322Y-15013645D01*
X-10055324Y-15013646D01*
X-10055326Y-15013647D01*
X-10136992Y-15067360D01*
X-10200992Y-15109453D01*
X-10320624Y-15236255D01*
X-10320632Y-15236266D01*
X-10407800Y-15387246D01*
X-10407801Y-15387248D01*
X-10441406Y-15499500D01*
X-10454619Y-15543637D01*
X-10457802Y-15554268D01*
X-10467940Y-15728309D01*
X-10467940Y-15728315D01*
X-12107385Y-15728315D01*
X-12095006Y-15500000D01*
X-12095006Y-15499991D01*
X-12114966Y-15131863D01*
X-12114966Y-15131857D01*
X-12174614Y-14768025D01*
X-12174614Y-14768023D01*
X-12273248Y-14412778D01*
X-12273250Y-14412773D01*
X-12409710Y-14070284D01*
X-12409716Y-14070271D01*
X-12573324Y-13761672D01*
X-5675136Y-13761672D01*
X-5644861Y-13933368D01*
X-5575808Y-14093452D01*
X-5471698Y-14233295D01*
X-5338146Y-14345359D01*
X-5338145Y-14345359D01*
X-5338143Y-14345361D01*
X-5182344Y-14423606D01*
X-5012700Y-14463812D01*
X-5012698Y-14463812D01*
X-4882090Y-14463812D01*
X-4882086Y-14463811D01*
X-4752365Y-14448649D01*
X-4588536Y-14389020D01*
X-4442875Y-14293217D01*
X-4402101Y-14250000D01*
X-4386341Y-14233295D01*
X-4323233Y-14166405D01*
X-4236062Y-14015419D01*
X-4186060Y-13848400D01*
X-4175922Y-13674352D01*
X-4206197Y-13502658D01*
X-4233487Y-13439391D01*
X-4275251Y-13342571D01*
X-4379361Y-13202728D01*
X-4512913Y-13090664D01*
X-4668711Y-13012419D01*
X-4668713Y-13012418D01*
X-4668714Y-13012418D01*
X-4838358Y-12972212D01*
X-4968965Y-12972212D01*
X-4968974Y-12972212D01*
X-5098689Y-12987374D01*
X-5098693Y-12987374D01*
X-5262518Y-13047002D01*
X-5262520Y-13047003D01*
X-5262522Y-13047004D01*
X-5362469Y-13112740D01*
X-5408188Y-13142810D01*
X-5527820Y-13269612D01*
X-5527828Y-13269623D01*
X-5614996Y-13420603D01*
X-5614997Y-13420605D01*
X-5639560Y-13502655D01*
X-5657178Y-13561505D01*
X-5664998Y-13587625D01*
X-5675136Y-13761666D01*
X-5675136Y-13761672D01*
X-12573324Y-13761672D01*
X-12582405Y-13744543D01*
X-12582408Y-13744538D01*
X-12789304Y-13439391D01*
X-12789313Y-13439379D01*
X-12925498Y-13279050D01*
X-12925499Y-13279050D01*
X-14241352Y-14594903D01*
X-14295456Y-14516520D01*
X-14468816Y-14336034D01*
X-14594868Y-14241312D01*
X-13276521Y-12922966D01*
X-13295653Y-12904844D01*
X-13542315Y-12717336D01*
X-10042384Y-12717336D01*
X-10001574Y-12851869D01*
X-9908715Y-13025596D01*
X-9908714Y-13025598D01*
X-9783754Y-13177861D01*
X-9783749Y-13177866D01*
X-9631486Y-13302826D01*
X-9631484Y-13302827D01*
X-9457755Y-13395686D01*
X-9457756Y-13395686D01*
X-9323224Y-13436495D01*
X-9323223Y-13436495D01*
X-9323223Y-12717336D01*
X-10042384Y-12717336D01*
X-13542315Y-12717336D01*
X-13589166Y-12681721D01*
X-13905067Y-12491649D01*
X-14239685Y-12336839D01*
X-14239695Y-12336834D01*
X-14589064Y-12219119D01*
X-14949132Y-12139862D01*
X-15315657Y-12100000D01*
X-15684344Y-12100000D01*
X-16050869Y-12139862D01*
X-16050870Y-12139862D01*
X-16410937Y-12219119D01*
X-16760306Y-12336834D01*
X-16760316Y-12336839D01*
X-17094934Y-12491649D01*
X-17410835Y-12681721D01*
X-17704337Y-12904835D01*
X-17723480Y-12922967D01*
X-16406880Y-14239567D01*
X-16434180Y-14256832D01*
X-16621501Y-14422784D01*
X-16760512Y-14593041D01*
X-18074503Y-13279050D01*
X-18074504Y-13279050D01*
X-18210692Y-13439383D01*
X-18210694Y-13439386D01*
X-18417598Y-13744547D01*
X-18590285Y-14070271D01*
X-18590291Y-14070284D01*
X-18726751Y-14412773D01*
X-18726753Y-14412778D01*
X-18825387Y-14768023D01*
X-18825387Y-14768025D01*
X-18885035Y-15131857D01*
X-18885035Y-15131863D01*
X-18904994Y-15499991D01*
X-18904994Y-15500000D01*
X-20999500Y-15500000D01*
X-20999500Y-11475000D01*
X-10630460Y-11475000D01*
X-10610675Y-11663254D01*
X-10552181Y-11843278D01*
X-10552179Y-11843284D01*
X-10497534Y-11937933D01*
X-10457531Y-12007220D01*
X-10345427Y-12131722D01*
X-10330871Y-12147888D01*
X-10177730Y-12259151D01*
X-10004803Y-12336144D01*
X-9863685Y-12366139D01*
X-9819648Y-12375500D01*
X-9819646Y-12375500D01*
X-9630352Y-12375500D01*
X-9590996Y-12367134D01*
X-9445197Y-12336144D01*
X-9386382Y-12309957D01*
X-9417205Y-12380228D01*
X-9426851Y-12496638D01*
X-9398176Y-12609874D01*
X-9334287Y-12707663D01*
X-9242108Y-12779408D01*
X-9131628Y-12817336D01*
X-9044218Y-12817336D01*
X-8958007Y-12802950D01*
X-8855276Y-12747355D01*
X-8827642Y-12717336D01*
X-8823223Y-12717336D01*
X-8823223Y-13436495D01*
X-8688691Y-13395686D01*
X-8514963Y-13302827D01*
X-8514961Y-13302826D01*
X-8362698Y-13177866D01*
X-8362693Y-13177861D01*
X-8237733Y-13025598D01*
X-8237732Y-13025596D01*
X-8144873Y-12851869D01*
X-8104062Y-12717336D01*
X-8823223Y-12717336D01*
X-8827642Y-12717336D01*
X-8776163Y-12661415D01*
X-8729241Y-12554444D01*
X-8719595Y-12438034D01*
X-8748270Y-12324798D01*
X-8812159Y-12227009D01*
X-8824587Y-12217336D01*
X-8104062Y-12217336D01*
X-8104062Y-12217335D01*
X-8144873Y-12082802D01*
X-8237732Y-11909075D01*
X-8237733Y-11909073D01*
X-8362693Y-11756810D01*
X-8362698Y-11756805D01*
X-8514961Y-11631845D01*
X-8514963Y-11631844D01*
X-8688692Y-11538985D01*
X-8688693Y-11538984D01*
X-8722307Y-11528787D01*
X-8787803Y-11488057D01*
X-8824160Y-11420036D01*
X-8827236Y-11401778D01*
X-8827864Y-11395807D01*
X-8839326Y-11286744D01*
X-8897821Y-11106716D01*
X-8992467Y-10942784D01*
X-8992468Y-10942783D01*
X-8992470Y-10942779D01*
X-9119128Y-10802113D01*
X-9149285Y-10780203D01*
X-9272270Y-10690849D01*
X-9272271Y-10690848D01*
X-9272273Y-10690847D01*
X-9445195Y-10613857D01*
X-9445197Y-10613856D01*
X-9551640Y-10591231D01*
X-9630352Y-10574500D01*
X-9630354Y-10574500D01*
X-9819646Y-10574500D01*
X-9819648Y-10574500D01*
X-9919608Y-10595747D01*
X-10004803Y-10613856D01*
X-10004805Y-10613856D01*
X-10004806Y-10613857D01*
X-10177728Y-10690847D01*
X-10330873Y-10802113D01*
X-10457531Y-10942779D01*
X-10552178Y-11106714D01*
X-10552181Y-11106721D01*
X-10610675Y-11286745D01*
X-10630460Y-11475000D01*
X-20999500Y-11475000D01*
X-20999500Y-9323223D01*
X-13436497Y-9323223D01*
X-13395687Y-9457756D01*
X-13302828Y-9631483D01*
X-13302827Y-9631485D01*
X-13177867Y-9783748D01*
X-13177862Y-9783753D01*
X-13025599Y-9908713D01*
X-13025597Y-9908714D01*
X-12851868Y-10001573D01*
X-12851869Y-10001573D01*
X-12717337Y-10042382D01*
X-12710731Y-10037483D01*
X-12697374Y-9987636D01*
X-12642836Y-9933098D01*
X-12568336Y-9913136D01*
X-12493836Y-9933098D01*
X-12439298Y-9987636D01*
X-12426631Y-10016088D01*
X-12377179Y-10168284D01*
X-12325932Y-10257046D01*
X-12282531Y-10332220D01*
X-12184179Y-10441449D01*
X-12155871Y-10472888D01*
X-12002730Y-10584151D01*
X-11829803Y-10661144D01*
X-11690060Y-10690847D01*
X-11644648Y-10700500D01*
X-11644646Y-10700500D01*
X-11455352Y-10700500D01*
X-11415996Y-10692134D01*
X-11270197Y-10661144D01*
X-11097270Y-10584151D01*
X-10944129Y-10472888D01*
X-10851303Y-10369795D01*
X-10817470Y-10332220D01*
X-10817469Y-10332218D01*
X-10817467Y-10332216D01*
X-10722821Y-10168284D01*
X-10664326Y-9988256D01*
X-10644540Y-9800000D01*
X-10664326Y-9611744D01*
X-10722821Y-9431716D01*
X-10817467Y-9267784D01*
X-10817468Y-9267783D01*
X-10817470Y-9267779D01*
X-10944128Y-9127113D01*
X-10956279Y-9118285D01*
X-11097270Y-9015849D01*
X-11097271Y-9015848D01*
X-11097273Y-9015847D01*
X-11270195Y-8938857D01*
X-11270197Y-8938856D01*
X-11390332Y-8913320D01*
X-11459053Y-8878305D01*
X-11477434Y-8850000D01*
X-10380091Y-8850000D01*
X-10361787Y-9012458D01*
X-10361787Y-9012460D01*
X-10361786Y-9012461D01*
X-10307789Y-9166775D01*
X-10220808Y-9305204D01*
X-10105204Y-9420808D01*
X-9966775Y-9507789D01*
X-9812461Y-9561786D01*
X-9679925Y-9576719D01*
X-9608129Y-9604897D01*
X-9560040Y-9665198D01*
X-9548545Y-9708099D01*
X-9536787Y-9812458D01*
X-9536787Y-9812460D01*
X-9536786Y-9812461D01*
X-9482789Y-9966775D01*
X-9395808Y-10105204D01*
X-9280204Y-10220808D01*
X-9141775Y-10307789D01*
X-8987461Y-10361786D01*
X-8916379Y-10369795D01*
X-8825001Y-10380091D01*
X-8825000Y-10380091D01*
X-8824999Y-10380091D01*
X-8808548Y-10378237D01*
X-8662539Y-10361786D01*
X-8548917Y-10322027D01*
X-8472007Y-10316263D01*
X-8402517Y-10349727D01*
X-8359069Y-10413453D01*
X-8353304Y-10490366D01*
X-8359068Y-10511877D01*
X-8411786Y-10662539D01*
X-8430091Y-10824999D01*
X-8430091Y-10825000D01*
X-8411787Y-10987458D01*
X-8411787Y-10987460D01*
X-8411786Y-10987461D01*
X-8357789Y-11141775D01*
X-8270808Y-11280204D01*
X-8155204Y-11395808D01*
X-8016775Y-11482789D01*
X-7862461Y-11536786D01*
X-7754154Y-11548989D01*
X-7700001Y-11555091D01*
X-7700000Y-11555091D01*
X-7699999Y-11555091D01*
X-7659385Y-11550514D01*
X-7537539Y-11536786D01*
X-7485438Y-11518554D01*
X-7408527Y-11512792D01*
X-7339037Y-11546256D01*
X-7295589Y-11609982D01*
X-7287315Y-11664280D01*
X-7292534Y-11817054D01*
X-7256705Y-11964079D01*
X-7256702Y-11964086D01*
X-7182538Y-12095987D01*
X-6819560Y-12458965D01*
X-6729274Y-12527430D01*
X-6729273Y-12527431D01*
X-6729272Y-12527431D01*
X-6729271Y-12527432D01*
X-6588493Y-12582947D01*
X-6437957Y-12598423D01*
X-6288828Y-12572711D01*
X-6152167Y-12507718D01*
X-6038108Y-12408263D01*
X-5955112Y-12281724D01*
X-5912634Y-12147888D01*
X-5909334Y-12137491D01*
X-5909334Y-12137490D01*
X-5909333Y-12137487D01*
X-5904167Y-11986245D01*
X-5939996Y-11839219D01*
X-5978705Y-11770375D01*
X-5997817Y-11695654D01*
X-5977009Y-11621386D01*
X-5921854Y-11567473D01*
X-5898047Y-11556714D01*
X-5758225Y-11507789D01*
X-5619796Y-11420808D01*
X-5504192Y-11305204D01*
X-5438088Y-11200000D01*
X-3105460Y-11200000D01*
X-3085675Y-11388254D01*
X-3037413Y-11536786D01*
X-3027179Y-11568284D01*
X-2990483Y-11631844D01*
X-2932531Y-11732220D01*
X-2832527Y-11843284D01*
X-2805871Y-11872888D01*
X-2662214Y-11977260D01*
X-2613677Y-12037199D01*
X-2601611Y-12113376D01*
X-2605460Y-12149999D01*
X-2585675Y-12338254D01*
X-2546454Y-12458962D01*
X-2527179Y-12518284D01*
X-2491044Y-12580871D01*
X-2432531Y-12682220D01*
X-2310870Y-12817336D01*
X-2305871Y-12822888D01*
X-2152730Y-12934151D01*
X-1979803Y-13011144D01*
X-1838685Y-13041139D01*
X-1794648Y-13050500D01*
X-1794646Y-13050500D01*
X-1605352Y-13050500D01*
X-1563106Y-13041520D01*
X-1420197Y-13011144D01*
X-1247270Y-12934151D01*
X-1247270Y-12934150D01*
X-1247268Y-12934150D01*
X-1240509Y-12930248D01*
X-1239436Y-12932106D01*
X-1178075Y-12908552D01*
X-1101897Y-12920618D01*
X-1084673Y-12930562D01*
X-1084491Y-12930248D01*
X-1077733Y-12934150D01*
X-1019681Y-12959996D01*
X-904803Y-13011144D01*
X-761891Y-13041520D01*
X-693171Y-13076535D01*
X-651164Y-13141220D01*
X-647127Y-13218243D01*
X-682142Y-13286964D01*
X-733557Y-13321653D01*
X-732766Y-13323348D01*
X-738659Y-13326095D01*
X-738663Y-13326097D01*
X-952829Y-13425965D01*
X-952832Y-13425966D01*
X-952832Y-13425967D01*
X-1146404Y-13561507D01*
X-1313493Y-13728596D01*
X-1437965Y-13906362D01*
X-1449035Y-13922171D01*
X-1528904Y-14093450D01*
X-1548904Y-14136340D01*
X-1610063Y-14364590D01*
X-1610063Y-14364592D01*
X-1625500Y-14541034D01*
X-1625500Y-14908966D01*
X-1616342Y-15013645D01*
X-1610063Y-15085409D01*
X-1587565Y-15169372D01*
X-1548903Y-15313663D01*
X-1449035Y-15527829D01*
X-1313495Y-15721401D01*
X-1146401Y-15888495D01*
X-952830Y-16024035D01*
X-738663Y-16123903D01*
X-510408Y-16185063D01*
X-275000Y-16205659D01*
X-39592Y-16185063D01*
X188663Y-16123903D01*
X402829Y-16024035D01*
X596401Y-15888495D01*
X763495Y-15721401D01*
X852948Y-15593648D01*
X912029Y-15544073D01*
X987986Y-15530680D01*
X1060463Y-15557059D01*
X1097051Y-15593647D01*
X1186505Y-15721401D01*
X1353599Y-15888495D01*
X1547170Y-16024035D01*
X1761337Y-16123903D01*
X1989592Y-16185063D01*
X2225000Y-16205659D01*
X2460408Y-16185063D01*
X2688663Y-16123903D01*
X2902829Y-16024035D01*
X3096401Y-15888495D01*
X3263495Y-15721401D01*
X3353252Y-15593214D01*
X3412334Y-15543637D01*
X3488291Y-15530244D01*
X3560767Y-15556623D01*
X3597359Y-15593214D01*
X3686891Y-15721079D01*
X3853923Y-15888111D01*
X4047411Y-16023593D01*
X4047420Y-16023599D01*
X4261508Y-16123430D01*
X4261513Y-16123432D01*
X4475000Y-16180634D01*
X4475000Y-15133018D01*
X4589801Y-15185446D01*
X4691025Y-15200000D01*
X4758975Y-15200000D01*
X4860199Y-15185446D01*
X4975000Y-15133018D01*
X4975000Y-16180633D01*
X5188486Y-16123432D01*
X5402580Y-16023597D01*
X5596079Y-15888108D01*
X5720974Y-15763213D01*
X5787768Y-15724649D01*
X5864896Y-15724649D01*
X5931692Y-15763213D01*
X5953146Y-15790347D01*
X6032288Y-15918656D01*
X6156344Y-16042712D01*
X6305666Y-16134814D01*
X6472203Y-16189999D01*
X6574991Y-16200500D01*
X7875008Y-16200499D01*
X7977797Y-16189999D01*
X8144334Y-16134814D01*
X8293656Y-16042712D01*
X8417712Y-15918656D01*
X8509814Y-15769334D01*
X8564999Y-15602797D01*
X8575500Y-15500009D01*
X8575500Y-15500000D01*
X12095006Y-15500000D01*
X12114965Y-15868136D01*
X12114965Y-15868142D01*
X12174613Y-16231974D01*
X12174613Y-16231976D01*
X12273247Y-16587221D01*
X12273249Y-16587226D01*
X12409709Y-16929715D01*
X12409715Y-16929728D01*
X12582404Y-17255456D01*
X12582407Y-17255461D01*
X12789303Y-17560608D01*
X12789312Y-17560620D01*
X12925496Y-17720948D01*
X12925497Y-17720948D01*
X14241350Y-16405094D01*
X14295456Y-16483480D01*
X14468816Y-16663966D01*
X14594865Y-16758686D01*
X13276520Y-18077031D01*
X13295657Y-18095159D01*
X13295658Y-18095160D01*
X13589165Y-18318278D01*
X13905066Y-18508350D01*
X14239684Y-18663160D01*
X14239694Y-18663165D01*
X14589063Y-18780880D01*
X14949131Y-18860137D01*
X15315656Y-18899999D01*
X15315666Y-18900000D01*
X15684334Y-18900000D01*
X15684343Y-18899999D01*
X16050868Y-18860137D01*
X16050869Y-18860137D01*
X16410936Y-18780880D01*
X16760305Y-18663165D01*
X16760315Y-18663160D01*
X17094933Y-18508350D01*
X17410834Y-18318278D01*
X17704352Y-18095151D01*
X17723479Y-18077032D01*
X16406879Y-16760432D01*
X16434180Y-16743168D01*
X16621501Y-16577216D01*
X16760511Y-16406958D01*
X18074501Y-17720948D01*
X18210690Y-17560617D01*
X18210694Y-17560611D01*
X18417592Y-17255461D01*
X18417595Y-17255456D01*
X18590284Y-16929728D01*
X18590290Y-16929715D01*
X18726750Y-16587226D01*
X18726752Y-16587221D01*
X18825386Y-16231976D01*
X18825386Y-16231974D01*
X18885034Y-15868142D01*
X18885034Y-15868136D01*
X18904994Y-15500000D01*
X18904994Y-15499991D01*
X18885034Y-15131863D01*
X18885034Y-15131857D01*
X18825386Y-14768025D01*
X18825386Y-14768023D01*
X18726752Y-14412778D01*
X18726750Y-14412773D01*
X18590290Y-14070284D01*
X18590284Y-14070271D01*
X18417595Y-13744543D01*
X18417592Y-13744538D01*
X18210696Y-13439391D01*
X18210687Y-13439379D01*
X18074502Y-13279050D01*
X18074501Y-13279050D01*
X16758648Y-14594903D01*
X16704544Y-14516520D01*
X16531184Y-14336034D01*
X16405132Y-14241312D01*
X17723479Y-12922966D01*
X17704347Y-12904844D01*
X17410834Y-12681721D01*
X17094933Y-12491649D01*
X16760315Y-12336839D01*
X16760305Y-12336834D01*
X16410936Y-12219119D01*
X16050868Y-12139862D01*
X15684343Y-12100000D01*
X15315656Y-12100000D01*
X14949131Y-12139862D01*
X14949130Y-12139862D01*
X14589063Y-12219119D01*
X14239694Y-12336834D01*
X14239684Y-12336839D01*
X13905066Y-12491649D01*
X13589165Y-12681721D01*
X13295663Y-12904835D01*
X13276520Y-12922967D01*
X14593120Y-14239567D01*
X14565820Y-14256832D01*
X14378499Y-14422784D01*
X14239488Y-14593041D01*
X12925497Y-13279050D01*
X12925496Y-13279050D01*
X12789308Y-13439383D01*
X12789306Y-13439386D01*
X12582402Y-13744547D01*
X12409715Y-14070271D01*
X12409709Y-14070284D01*
X12273249Y-14412773D01*
X12273247Y-14412778D01*
X12174613Y-14768023D01*
X12174613Y-14768025D01*
X12114965Y-15131857D01*
X12114965Y-15131863D01*
X12095006Y-15499991D01*
X12095006Y-15500000D01*
X8575500Y-15500000D01*
X8575499Y-13949992D01*
X8564999Y-13847203D01*
X8509814Y-13680666D01*
X8417712Y-13531344D01*
X8293656Y-13407288D01*
X8144334Y-13315186D01*
X8035283Y-13279050D01*
X7977798Y-13260001D01*
X7960665Y-13258250D01*
X7875009Y-13249500D01*
X7875004Y-13249500D01*
X6574996Y-13249500D01*
X6472202Y-13260001D01*
X6305666Y-13315186D01*
X6156343Y-13407288D01*
X6032288Y-13531343D01*
X5953150Y-13659648D01*
X5897049Y-13712577D01*
X5822000Y-13730364D01*
X5748112Y-13708244D01*
X5720974Y-13686786D01*
X5596076Y-13561888D01*
X5402588Y-13426406D01*
X5402579Y-13426400D01*
X5188491Y-13326569D01*
X5188489Y-13326568D01*
X4975000Y-13269364D01*
X4975000Y-14316981D01*
X4860199Y-14264554D01*
X4758975Y-14250000D01*
X4691025Y-14250000D01*
X4589801Y-14264554D01*
X4475000Y-14316981D01*
X4475000Y-13269364D01*
X4474999Y-13269364D01*
X4261512Y-13326568D01*
X4047419Y-13426402D01*
X3853920Y-13561891D01*
X3686888Y-13728923D01*
X3597358Y-13856785D01*
X3538274Y-13906362D01*
X3462318Y-13919755D01*
X3389842Y-13893375D01*
X3353251Y-13856785D01*
X3347380Y-13848400D01*
X3263495Y-13728599D01*
X3096401Y-13561505D01*
X2902830Y-13425965D01*
X2688663Y-13326097D01*
X2688661Y-13326096D01*
X2460409Y-13264937D01*
X2225000Y-13244341D01*
X1989590Y-13264937D01*
X1761340Y-13326096D01*
X1761339Y-13326096D01*
X1761337Y-13326097D01*
X1547171Y-13425965D01*
X1547168Y-13425966D01*
X1547168Y-13425967D01*
X1353596Y-13561507D01*
X1186506Y-13728597D01*
X1097054Y-13856349D01*
X1037970Y-13905926D01*
X962014Y-13919319D01*
X889537Y-13892940D01*
X852946Y-13856349D01*
X846541Y-13847202D01*
X763495Y-13728599D01*
X596401Y-13561505D01*
X402830Y-13425965D01*
X188663Y-13326097D01*
X188661Y-13326096D01*
X-39591Y-13264937D01*
X-197473Y-13251123D01*
X-269950Y-13224743D01*
X-319526Y-13165659D01*
X-332919Y-13089703D01*
X-306539Y-13017226D01*
X-247455Y-12967650D01*
X-245229Y-12966634D01*
X-172270Y-12934151D01*
X-150080Y-12918028D01*
X-78076Y-12890388D01*
X-1898Y-12902453D01*
X25076Y-12918026D01*
X47270Y-12934151D01*
X220197Y-13011144D01*
X361315Y-13041139D01*
X405352Y-13050500D01*
X405354Y-13050500D01*
X594648Y-13050500D01*
X636894Y-13041520D01*
X779803Y-13011144D01*
X952730Y-12934151D01*
X1105871Y-12822888D01*
X1206488Y-12711142D01*
X1232530Y-12682220D01*
X1232531Y-12682218D01*
X1232533Y-12682216D01*
X1327179Y-12518284D01*
X1350264Y-12447233D01*
X1392269Y-12382553D01*
X1460990Y-12347537D01*
X1538013Y-12351573D01*
X1602698Y-12393580D01*
X1714984Y-12518285D01*
X1719129Y-12522888D01*
X1872270Y-12634151D01*
X2045197Y-12711144D01*
X2186315Y-12741139D01*
X2230352Y-12750500D01*
X2230354Y-12750500D01*
X2419648Y-12750500D01*
X2459004Y-12742134D01*
X2604803Y-12711144D01*
X2777730Y-12634151D01*
X2829625Y-12596446D01*
X2901627Y-12568806D01*
X2977806Y-12580871D01*
X3004781Y-12596444D01*
X3022270Y-12609151D01*
X3195197Y-12686144D01*
X3336315Y-12716139D01*
X3380352Y-12725500D01*
X3380354Y-12725500D01*
X3569648Y-12725500D01*
X3609004Y-12717134D01*
X3754803Y-12686144D01*
X3927730Y-12609151D01*
X4080871Y-12497888D01*
X4174791Y-12393580D01*
X4207530Y-12357220D01*
X4207531Y-12357218D01*
X4207533Y-12357216D01*
X4302179Y-12193284D01*
X4360674Y-12013256D01*
X4380460Y-11825000D01*
X4360674Y-11636744D01*
X4302179Y-11456716D01*
X4290796Y-11437001D01*
X4270833Y-11362504D01*
X4290792Y-11288006D01*
X4302179Y-11268284D01*
X4360674Y-11088256D01*
X4380460Y-10900000D01*
X4360674Y-10711744D01*
X4302179Y-10531716D01*
X4207533Y-10367784D01*
X4207532Y-10367783D01*
X4207530Y-10367779D01*
X4080872Y-10227113D01*
X4032833Y-10192211D01*
X3927730Y-10115849D01*
X3927729Y-10115848D01*
X3927727Y-10115847D01*
X3754805Y-10038857D01*
X3754803Y-10038856D01*
X3647706Y-10016092D01*
X3569648Y-9999500D01*
X3569646Y-9999500D01*
X3380354Y-9999500D01*
X3380352Y-9999500D01*
X3302294Y-10016092D01*
X3195197Y-10038856D01*
X3195195Y-10038856D01*
X3195194Y-10038857D01*
X3022272Y-10115847D01*
X2869127Y-10227113D01*
X2742469Y-10367779D01*
X2647822Y-10531714D01*
X2647819Y-10531721D01*
X2589325Y-10711745D01*
X2578330Y-10816358D01*
X2550689Y-10888363D01*
X2490749Y-10936901D01*
X2427455Y-10946935D01*
X2427455Y-10949500D01*
X2230352Y-10949500D01*
X2130392Y-10970747D01*
X2045197Y-10988856D01*
X2045195Y-10988856D01*
X2045194Y-10988857D01*
X1872272Y-11065847D01*
X1719127Y-11177113D01*
X1592469Y-11317779D01*
X1497822Y-11481714D01*
X1497820Y-11481719D01*
X1474736Y-11552763D01*
X1432728Y-11617448D01*
X1364006Y-11652462D01*
X1286984Y-11648425D01*
X1222301Y-11606419D01*
X1105872Y-11477113D01*
X1062499Y-11445601D01*
X952730Y-11365849D01*
X952729Y-11365848D01*
X952727Y-11365847D01*
X779805Y-11288857D01*
X779803Y-11288856D01*
X673360Y-11266231D01*
X594648Y-11249500D01*
X594646Y-11249500D01*
X405354Y-11249500D01*
X405352Y-11249500D01*
X316986Y-11268283D01*
X220197Y-11288856D01*
X220195Y-11288856D01*
X220194Y-11288857D01*
X47270Y-11365848D01*
X25076Y-11381973D01*
X-46930Y-11409611D01*
X-123108Y-11397544D01*
X-150083Y-11381969D01*
X-162788Y-11372738D01*
X-211325Y-11312798D01*
X-223390Y-11236623D01*
X-219540Y-11200000D01*
X-239326Y-11011744D01*
X-297821Y-10831716D01*
X-392467Y-10667784D01*
X-392468Y-10667783D01*
X-392470Y-10667779D01*
X-519128Y-10527113D01*
X-540099Y-10511877D01*
X-672270Y-10415849D01*
X-672271Y-10415848D01*
X-672273Y-10415847D01*
X-845195Y-10338857D01*
X-845197Y-10338856D01*
X-951640Y-10316231D01*
X-1030352Y-10299500D01*
X-1030354Y-10299500D01*
X-1219646Y-10299500D01*
X-1219648Y-10299500D01*
X-1319608Y-10320747D01*
X-1404803Y-10338856D01*
X-1404805Y-10338856D01*
X-1404806Y-10338857D01*
X-1577733Y-10415849D01*
X-1584493Y-10419753D01*
X-1585565Y-10417896D01*
X-1646945Y-10441449D01*
X-1723122Y-10429373D01*
X-1740327Y-10419440D01*
X-1740507Y-10419753D01*
X-1747268Y-10415849D01*
X-1920195Y-10338857D01*
X-1920197Y-10338856D01*
X-2026640Y-10316231D01*
X-2105352Y-10299500D01*
X-2105354Y-10299500D01*
X-2294646Y-10299500D01*
X-2294648Y-10299500D01*
X-2394608Y-10320747D01*
X-2479803Y-10338856D01*
X-2479805Y-10338856D01*
X-2479806Y-10338857D01*
X-2652728Y-10415847D01*
X-2805873Y-10527113D01*
X-2932531Y-10667779D01*
X-3027178Y-10831714D01*
X-3027181Y-10831721D01*
X-3085675Y-11011745D01*
X-3105460Y-11200000D01*
X-5438088Y-11200000D01*
X-5417211Y-11166775D01*
X-5409182Y-11143827D01*
X-5365735Y-11080102D01*
X-5296246Y-11046636D01*
X-5285242Y-11044977D01*
X-5212539Y-11036786D01*
X-5058225Y-10982789D01*
X-4919796Y-10895808D01*
X-4804192Y-10780204D01*
X-4717211Y-10641775D01*
X-4663214Y-10487461D01*
X-4644909Y-10325000D01*
X-4663214Y-10162539D01*
X-4717211Y-10008225D01*
X-4717212Y-10008223D01*
X-4717569Y-10007482D01*
X-4717684Y-10006874D01*
X-4719975Y-10000327D01*
X-4718989Y-9999981D01*
X-4731908Y-9931699D01*
X-4706436Y-9858899D01*
X-4647975Y-9808588D01*
X-4614308Y-9797089D01*
X-4445197Y-9761144D01*
X-4272270Y-9684151D01*
X-4119129Y-9572888D01*
X-4042280Y-9487539D01*
X-3992470Y-9432220D01*
X-3992469Y-9432218D01*
X-3992467Y-9432216D01*
X-3897821Y-9268284D01*
X-3839326Y-9088256D01*
X-3819540Y-8900000D01*
X-3839326Y-8711744D01*
X-3843142Y-8700000D01*
X-1205460Y-8700000D01*
X-1185675Y-8888254D01*
X-1145318Y-9012458D01*
X-1127179Y-9068284D01*
X-1098311Y-9118285D01*
X-1032531Y-9232220D01*
X-905873Y-9372886D01*
X-905871Y-9372888D01*
X-752730Y-9484151D01*
X-579803Y-9561144D01*
X-438685Y-9591139D01*
X-394648Y-9600500D01*
X-394646Y-9600500D01*
X-205352Y-9600500D01*
X-165996Y-9592134D01*
X-20197Y-9561144D01*
X152730Y-9484151D01*
X305871Y-9372888D01*
X387513Y-9282216D01*
X432530Y-9232220D01*
X432531Y-9232218D01*
X432533Y-9232216D01*
X527179Y-9068284D01*
X585674Y-8888256D01*
X605460Y-8700000D01*
X585674Y-8511744D01*
X527179Y-8331716D01*
X432533Y-8167784D01*
X432532Y-8167783D01*
X432530Y-8167779D01*
X305872Y-8027113D01*
X221546Y-7965847D01*
X152730Y-7915849D01*
X152729Y-7915848D01*
X152727Y-7915847D01*
X-20195Y-7838857D01*
X-20197Y-7838856D01*
X-126640Y-7816231D01*
X-205352Y-7799500D01*
X-205354Y-7799500D01*
X-394646Y-7799500D01*
X-394648Y-7799500D01*
X-494608Y-7820747D01*
X-579803Y-7838856D01*
X-579805Y-7838856D01*
X-579806Y-7838857D01*
X-752728Y-7915847D01*
X-905873Y-8027113D01*
X-1032531Y-8167779D01*
X-1127178Y-8331714D01*
X-1127181Y-8331721D01*
X-1185675Y-8511745D01*
X-1205460Y-8700000D01*
X-3843142Y-8700000D01*
X-3897821Y-8531716D01*
X-3992467Y-8367784D01*
X-3992468Y-8367783D01*
X-3992470Y-8367779D01*
X-4119128Y-8227113D01*
X-4167167Y-8192211D01*
X-4272270Y-8115849D01*
X-4272271Y-8115848D01*
X-4272273Y-8115847D01*
X-4445195Y-8038857D01*
X-4445197Y-8038856D01*
X-4551640Y-8016231D01*
X-4630352Y-7999500D01*
X-4630354Y-7999500D01*
X-4819646Y-7999500D01*
X-4819648Y-7999500D01*
X-4919608Y-8020747D01*
X-5004803Y-8038856D01*
X-5004805Y-8038856D01*
X-5004806Y-8038857D01*
X-5177728Y-8115847D01*
X-5330873Y-8227113D01*
X-5457532Y-8367781D01*
X-5490998Y-8425746D01*
X-5545536Y-8480283D01*
X-5620036Y-8500245D01*
X-5663288Y-8493829D01*
X-5782664Y-8457615D01*
X-5782664Y-8636348D01*
X-5802626Y-8710848D01*
X-5839969Y-8748190D01*
X-5795546Y-8803047D01*
X-5782664Y-8863651D01*
X-5782664Y-9177838D01*
X-5863779Y-9114705D01*
X-5974259Y-9076777D01*
X-6061669Y-9076777D01*
X-6138501Y-9089597D01*
X-6089326Y-8938256D01*
X-6079848Y-8848077D01*
X-6052208Y-8776072D01*
X-6020862Y-8750688D01*
X-6060702Y-8710848D01*
X-6079848Y-8651922D01*
X-6089326Y-8561745D01*
X-6089326Y-8561744D01*
X-6147821Y-8381716D01*
X-6242467Y-8217784D01*
X-6242468Y-8217783D01*
X-6242470Y-8217779D01*
X-6369128Y-8077113D01*
X-6437949Y-8027112D01*
X-6522270Y-7965849D01*
X-6522271Y-7965848D01*
X-6522273Y-7965847D01*
X-6695195Y-7888857D01*
X-6695197Y-7888856D01*
X-6801640Y-7866231D01*
X-6880352Y-7849500D01*
X-6880354Y-7849500D01*
X-7069646Y-7849500D01*
X-7069648Y-7849500D01*
X-7169608Y-7870747D01*
X-7254803Y-7888856D01*
X-7254805Y-7888856D01*
X-7254806Y-7888857D01*
X-7427728Y-7965847D01*
X-7580873Y-8077113D01*
X-7707531Y-8217779D01*
X-7802178Y-8381714D01*
X-7802181Y-8381721D01*
X-7860675Y-8561745D01*
X-7880460Y-8750000D01*
X-7860675Y-8938254D01*
X-7803342Y-9114705D01*
X-7802179Y-9118284D01*
X-7777903Y-9160331D01*
X-7707531Y-9282220D01*
X-7603753Y-9397475D01*
X-7580871Y-9422888D01*
X-7427730Y-9534151D01*
X-7254803Y-9611144D01*
X-7105128Y-9642958D01*
X-7091735Y-9645805D01*
X-7023013Y-9680821D01*
X-6981006Y-9745506D01*
X-6980130Y-9748295D01*
X-6961014Y-9811311D01*
X-6868156Y-9985037D01*
X-6868155Y-9985039D01*
X-6743195Y-10137302D01*
X-6743190Y-10137307D01*
X-6673680Y-10194353D01*
X-6628755Y-10257046D01*
X-6621195Y-10333803D01*
X-6642043Y-10388804D01*
X-6732790Y-10533226D01*
X-6742490Y-10560945D01*
X-6785939Y-10624670D01*
X-6855430Y-10658132D01*
X-6932343Y-10652366D01*
X-6996068Y-10608917D01*
X-7023766Y-10560939D01*
X-7033990Y-10531721D01*
X-7042211Y-10508225D01*
X-7129192Y-10369796D01*
X-7244796Y-10254192D01*
X-7383225Y-10167211D01*
X-7537539Y-10113214D01*
X-7537540Y-10113213D01*
X-7537542Y-10113213D01*
X-7699999Y-10094909D01*
X-7700001Y-10094909D01*
X-7862461Y-10113214D01*
X-7976083Y-10152972D01*
X-8052995Y-10158735D01*
X-8122485Y-10125271D01*
X-8165933Y-10061544D01*
X-8171696Y-9984632D01*
X-8165935Y-9963128D01*
X-8113214Y-9812461D01*
X-8094909Y-9650000D01*
X-8113214Y-9487539D01*
X-8167211Y-9333225D01*
X-8254192Y-9194796D01*
X-8369796Y-9079192D01*
X-8508225Y-8992211D01*
X-8660701Y-8938857D01*
X-8662541Y-8938213D01*
X-8795077Y-8923280D01*
X-8866873Y-8895102D01*
X-8914961Y-8834800D01*
X-8926456Y-8791902D01*
X-8938214Y-8687539D01*
X-8992211Y-8533225D01*
X-9079192Y-8394796D01*
X-9194796Y-8279192D01*
X-9333225Y-8192211D01*
X-9487539Y-8138214D01*
X-9487540Y-8138213D01*
X-9487542Y-8138213D01*
X-9649999Y-8119909D01*
X-9650001Y-8119909D01*
X-9812459Y-8138213D01*
X-9889618Y-8165212D01*
X-9966775Y-8192211D01*
X-9966777Y-8192211D01*
X-9966777Y-8192212D01*
X-10105204Y-8279192D01*
X-10220808Y-8394796D01*
X-10296312Y-8514960D01*
X-10307789Y-8533225D01*
X-10334788Y-8610382D01*
X-10361787Y-8687541D01*
X-10380091Y-8849999D01*
X-10380091Y-8850000D01*
X-11477434Y-8850000D01*
X-11501059Y-8813620D01*
X-11501936Y-8810828D01*
X-11538985Y-8688693D01*
X-11538986Y-8688691D01*
X-11631845Y-8514962D01*
X-11631846Y-8514960D01*
X-11756806Y-8362697D01*
X-11756811Y-8362692D01*
X-11909074Y-8237732D01*
X-11909076Y-8237731D01*
X-12082803Y-8144872D01*
X-12217336Y-8104061D01*
X-12217336Y-8824284D01*
X-12298451Y-8761151D01*
X-12408931Y-8723223D01*
X-12496341Y-8723223D01*
X-12582552Y-8737609D01*
X-12685283Y-8793204D01*
X-12764396Y-8879144D01*
X-12811318Y-8986115D01*
X-12820964Y-9102525D01*
X-12792289Y-9215761D01*
X-12728400Y-9313550D01*
X-12636221Y-9385295D01*
X-12525741Y-9423223D01*
X-12438331Y-9423223D01*
X-12365234Y-9411025D01*
X-12377178Y-9431714D01*
X-12377181Y-9431721D01*
X-12408391Y-9527777D01*
X-12424293Y-9576719D01*
X-12426629Y-9583907D01*
X-12468636Y-9648592D01*
X-12537357Y-9683607D01*
X-12614380Y-9679570D01*
X-12679065Y-9637563D01*
X-12714080Y-9568842D01*
X-12717336Y-9537863D01*
X-12717336Y-9323223D01*
X-13436497Y-9323223D01*
X-20999500Y-9323223D01*
X-20999500Y-8823222D01*
X-13436498Y-8823222D01*
X-13436497Y-8823223D01*
X-12717336Y-8823223D01*
X-12717336Y-8104062D01*
X-12717337Y-8104061D01*
X-12851870Y-8144872D01*
X-13025597Y-8237731D01*
X-13025599Y-8237732D01*
X-13177862Y-8362692D01*
X-13177867Y-8362697D01*
X-13302827Y-8514960D01*
X-13302828Y-8514962D01*
X-13395687Y-8688689D01*
X-13436498Y-8823222D01*
X-20999500Y-8823222D01*
X-20999500Y-5099495D01*
X-16255332Y-5099495D01*
X-16237028Y-5261953D01*
X-16237027Y-5261957D01*
X-16210428Y-5337974D01*
X-16204665Y-5414887D01*
X-16210428Y-5436393D01*
X-16236719Y-5511531D01*
X-16236721Y-5511538D01*
X-16255025Y-5673996D01*
X-16255025Y-5673997D01*
X-16236721Y-5836455D01*
X-16236721Y-5836457D01*
X-16236720Y-5836458D01*
X-16182723Y-5990772D01*
X-16095742Y-6129201D01*
X-15980138Y-6244805D01*
X-15841709Y-6331786D01*
X-15687395Y-6385783D01*
X-15579088Y-6397986D01*
X-15524935Y-6404088D01*
X-15524934Y-6404088D01*
X-15524933Y-6404088D01*
X-15484319Y-6399511D01*
X-15362473Y-6385783D01*
X-15208159Y-6331786D01*
X-15069730Y-6244805D01*
X-14954126Y-6129201D01*
X-14867145Y-5990772D01*
X-14813148Y-5836458D01*
X-14794843Y-5673997D01*
X-14811631Y-5525000D01*
X-12680091Y-5525000D01*
X-12661787Y-5687458D01*
X-12661787Y-5687460D01*
X-12661786Y-5687461D01*
X-12607789Y-5841775D01*
X-12520808Y-5980204D01*
X-12520807Y-5980205D01*
X-12408505Y-6092507D01*
X-12369941Y-6159302D01*
X-12369941Y-6236430D01*
X-12395651Y-6288567D01*
X-12408715Y-6305593D01*
X-12408718Y-6305598D01*
X-12467210Y-6446811D01*
X-12487159Y-6598347D01*
X-12487159Y-6598352D01*
X-12467210Y-6749888D01*
X-12408717Y-6891104D01*
X-12373145Y-6937461D01*
X-12315667Y-7012367D01*
X-12282142Y-7038092D01*
X-12194405Y-7105416D01*
X-12053189Y-7163909D01*
X-11964884Y-7175534D01*
X-11939702Y-7178849D01*
X-11939699Y-7178850D01*
X-11939697Y-7178850D01*
X-11863601Y-7178850D01*
X-11863600Y-7178849D01*
X-11822637Y-7173456D01*
X-11750112Y-7163909D01*
X-11750110Y-7163908D01*
X-11750109Y-7163908D01*
X-11608896Y-7105416D01*
X-11521157Y-7038090D01*
X-11449903Y-7008576D01*
X-11381241Y-7015662D01*
X-11377511Y-7016967D01*
X-11377508Y-7016969D01*
X-11223194Y-7070966D01*
X-11114887Y-7083169D01*
X-11060734Y-7089271D01*
X-11060733Y-7089271D01*
X-11060732Y-7089271D01*
X-11020118Y-7084694D01*
X-10898272Y-7070966D01*
X-10743958Y-7016969D01*
X-10605529Y-6929988D01*
X-10489925Y-6814384D01*
X-10421763Y-6705904D01*
X-10365226Y-6653445D01*
X-10290031Y-6636282D01*
X-10216330Y-6659016D01*
X-10180424Y-6690652D01*
X-10137304Y-6743193D01*
X-10137303Y-6743194D01*
X-9985040Y-6868154D01*
X-9985038Y-6868155D01*
X-9811309Y-6961014D01*
X-9804551Y-6963814D01*
X-9805225Y-6965440D01*
X-9747828Y-7001122D01*
X-9711462Y-7069139D01*
X-9708382Y-7087415D01*
X-9692529Y-7238254D01*
X-9657582Y-7345808D01*
X-9634033Y-7418284D01*
X-9594483Y-7486786D01*
X-9539385Y-7582220D01*
X-9412727Y-7722886D01*
X-9412725Y-7722888D01*
X-9259584Y-7834151D01*
X-9086657Y-7911144D01*
X-8945539Y-7941139D01*
X-8901502Y-7950500D01*
X-8901500Y-7950500D01*
X-8712206Y-7950500D01*
X-8672850Y-7942134D01*
X-8527051Y-7911144D01*
X-8354124Y-7834151D01*
X-8200983Y-7722888D01*
X-8128659Y-7642563D01*
X-8074324Y-7582220D01*
X-8074323Y-7582218D01*
X-8074321Y-7582216D01*
X-7979675Y-7418284D01*
X-7921180Y-7238256D01*
X-7901394Y-7050000D01*
X-7921180Y-6861744D01*
X-7949365Y-6775000D01*
X-3880091Y-6775000D01*
X-3861787Y-6937458D01*
X-3861787Y-6937460D01*
X-3861786Y-6937461D01*
X-3807789Y-7091775D01*
X-3720808Y-7230204D01*
X-3605204Y-7345808D01*
X-3466775Y-7432789D01*
X-3312461Y-7486786D01*
X-3204154Y-7498989D01*
X-3150001Y-7505091D01*
X-3150000Y-7505091D01*
X-3149999Y-7505091D01*
X-3109385Y-7500514D01*
X-2987539Y-7486786D01*
X-2833225Y-7432789D01*
X-2694796Y-7345808D01*
X-2579192Y-7230204D01*
X-2492211Y-7091775D01*
X-2438214Y-6937461D01*
X-2419909Y-6775000D01*
X-2438214Y-6612539D01*
X-2492211Y-6458225D01*
X-2579192Y-6319796D01*
X-2694796Y-6204192D01*
X-2833225Y-6117211D01*
X-2987539Y-6063214D01*
X-2987540Y-6063213D01*
X-2987542Y-6063213D01*
X-3149999Y-6044909D01*
X-3150001Y-6044909D01*
X-3312459Y-6063213D01*
X-3389618Y-6090212D01*
X-3466775Y-6117211D01*
X-3466777Y-6117211D01*
X-3466777Y-6117212D01*
X-3605204Y-6204192D01*
X-3720808Y-6319796D01*
X-3807788Y-6458223D01*
X-3861787Y-6612541D01*
X-3880091Y-6774999D01*
X-3880091Y-6775000D01*
X-7949365Y-6775000D01*
X-7979675Y-6681716D01*
X-8074321Y-6517784D01*
X-8074322Y-6517783D01*
X-8074324Y-6517779D01*
X-8200982Y-6377113D01*
X-8225665Y-6359180D01*
X-8354124Y-6265849D01*
X-8354125Y-6265848D01*
X-8354127Y-6265847D01*
X-8527049Y-6188857D01*
X-8527051Y-6188856D01*
X-8633494Y-6166231D01*
X-8712206Y-6149500D01*
X-8712208Y-6149500D01*
X-8901500Y-6149500D01*
X-8901502Y-6149500D01*
X-8981917Y-6166593D01*
X-9086657Y-6188856D01*
X-9086659Y-6188856D01*
X-9086660Y-6188857D01*
X-9119516Y-6203485D01*
X-9082795Y-6119772D01*
X-9073149Y-6003362D01*
X-9101824Y-5890126D01*
X-9165713Y-5792337D01*
X-9257892Y-5720592D01*
X-9368372Y-5682664D01*
X-9455782Y-5682664D01*
X-9541993Y-5697050D01*
X-9644724Y-5752645D01*
X-9676777Y-5787463D01*
X-9676777Y-5063503D01*
X-9676778Y-5063502D01*
X-9176777Y-5063502D01*
X-9176777Y-5782664D01*
X-8457616Y-5782664D01*
X-8457616Y-5782663D01*
X-8498427Y-5648130D01*
X-8591286Y-5474403D01*
X-8591287Y-5474401D01*
X-8716247Y-5322138D01*
X-8716252Y-5322133D01*
X-8868515Y-5197173D01*
X-8868517Y-5197172D01*
X-9042244Y-5104313D01*
X-9176777Y-5063502D01*
X-9676778Y-5063502D01*
X-9811311Y-5104313D01*
X-9985038Y-5197172D01*
X-9985040Y-5197173D01*
X-10137303Y-5322133D01*
X-10137308Y-5322138D01*
X-10262639Y-5474853D01*
X-10325333Y-5519778D01*
X-10402090Y-5527338D01*
X-10472342Y-5495506D01*
X-10517267Y-5432812D01*
X-10525880Y-5397010D01*
X-10527086Y-5386307D01*
X-10538214Y-5287539D01*
X-10592211Y-5133225D01*
X-10679192Y-4994796D01*
X-10794796Y-4879192D01*
X-10933225Y-4792211D01*
X-11087539Y-4738214D01*
X-11087540Y-4738213D01*
X-11087542Y-4738213D01*
X-11249999Y-4719909D01*
X-11250001Y-4719909D01*
X-11412459Y-4738213D01*
X-11566778Y-4792212D01*
X-11606459Y-4817144D01*
X-11680161Y-4839876D01*
X-11734937Y-4831619D01*
X-11787535Y-4813215D01*
X-11787542Y-4813213D01*
X-11949999Y-4794909D01*
X-11950001Y-4794909D01*
X-12112459Y-4813213D01*
X-12177434Y-4835949D01*
X-12266775Y-4867211D01*
X-12266777Y-4867211D01*
X-12266777Y-4867212D01*
X-12405204Y-4954192D01*
X-12520808Y-5069796D01*
X-12595240Y-5188254D01*
X-12607789Y-5208225D01*
X-12617558Y-5236144D01*
X-12661787Y-5362541D01*
X-12680091Y-5524999D01*
X-12680091Y-5525000D01*
X-14811631Y-5525000D01*
X-14813148Y-5511536D01*
X-14839749Y-5435517D01*
X-14845513Y-5358608D01*
X-14839751Y-5337101D01*
X-14813455Y-5261956D01*
X-14795150Y-5099495D01*
X-14813455Y-4937034D01*
X-14838502Y-4865457D01*
X-14844266Y-4788547D01*
X-14838506Y-4767048D01*
X-14810656Y-4687461D01*
X-14792351Y-4525000D01*
X-14793042Y-4518871D01*
X-14810656Y-4362541D01*
X-14810656Y-4362539D01*
X-14864653Y-4208225D01*
X-14951634Y-4069796D01*
X-15067238Y-3954192D01*
X-15205667Y-3867211D01*
X-15359981Y-3813214D01*
X-15359982Y-3813213D01*
X-15359984Y-3813213D01*
X-15522441Y-3794909D01*
X-15522443Y-3794909D01*
X-15684901Y-3813213D01*
X-15751236Y-3836425D01*
X-15839217Y-3867211D01*
X-15839219Y-3867211D01*
X-15839219Y-3867212D01*
X-15938106Y-3929347D01*
X-15977646Y-3954192D01*
X-16093250Y-4069796D01*
X-16180231Y-4208225D01*
X-16190000Y-4236144D01*
X-16234229Y-4362541D01*
X-16252533Y-4524999D01*
X-16252533Y-4525000D01*
X-16234228Y-4687461D01*
X-16225716Y-4711786D01*
X-16209183Y-4759036D01*
X-16203420Y-4835949D01*
X-16209183Y-4857456D01*
X-16237026Y-4937029D01*
X-16237028Y-4937036D01*
X-16255332Y-5099494D01*
X-16255332Y-5099495D01*
X-20999500Y-5099495D01*
X-20999500Y-2731439D01*
X-13780432Y-2731439D01*
X-13760647Y-2919693D01*
X-13708493Y-3080204D01*
X-13702151Y-3099723D01*
X-13651909Y-3186745D01*
X-13607503Y-3263659D01*
X-13482149Y-3402877D01*
X-13480843Y-3404327D01*
X-13327702Y-3515590D01*
X-13327701Y-3515590D01*
X-13327700Y-3515591D01*
X-13314664Y-3521395D01*
X-13154775Y-3592583D01*
X-13013657Y-3622578D01*
X-12969620Y-3631939D01*
X-12969618Y-3631939D01*
X-12780324Y-3631939D01*
X-12740968Y-3623573D01*
X-12595169Y-3592583D01*
X-12422242Y-3515590D01*
X-12269101Y-3404327D01*
X-12148070Y-3269909D01*
X-12142442Y-3263659D01*
X-12142441Y-3263657D01*
X-12142439Y-3263655D01*
X-12078617Y-3153111D01*
X-11429587Y-3153111D01*
X-11409802Y-3341365D01*
X-11359982Y-3494693D01*
X-11351306Y-3521395D01*
X-11302695Y-3605592D01*
X-11256658Y-3685331D01*
X-11142116Y-3812541D01*
X-11129998Y-3825999D01*
X-10976857Y-3937262D01*
X-10803930Y-4014255D01*
X-10662812Y-4044250D01*
X-10618775Y-4053611D01*
X-10618773Y-4053611D01*
X-10429479Y-4053611D01*
X-10390123Y-4045245D01*
X-10244324Y-4014255D01*
X-10071397Y-3937262D01*
X-10039604Y-3914162D01*
X-9967600Y-3886522D01*
X-9891421Y-3898587D01*
X-9846665Y-3929347D01*
X-9805204Y-3970808D01*
X-9666775Y-4057789D01*
X-9512461Y-4111786D01*
X-9404154Y-4123989D01*
X-9350001Y-4130091D01*
X-9350000Y-4130091D01*
X-9349999Y-4130091D01*
X-9309385Y-4125514D01*
X-9187539Y-4111786D01*
X-9033225Y-4057789D01*
X-8894796Y-3970808D01*
X-8823988Y-3900000D01*
X-3430091Y-3900000D01*
X-3411787Y-4062458D01*
X-3411787Y-4062460D01*
X-3411786Y-4062461D01*
X-3357789Y-4216775D01*
X-3270808Y-4355204D01*
X-3155204Y-4470808D01*
X-3016775Y-4557789D01*
X-2862461Y-4611786D01*
X-2758266Y-4623526D01*
X-2700001Y-4630091D01*
X-2700000Y-4630091D01*
X-2699999Y-4630091D01*
X-2648515Y-4624290D01*
X-2537539Y-4611786D01*
X-2383225Y-4557789D01*
X-2244796Y-4470808D01*
X-2129192Y-4355204D01*
X-2112225Y-4328200D01*
X-2055686Y-4275741D01*
X-1980491Y-4258578D01*
X-1906790Y-4281312D01*
X-1859901Y-4328201D01*
X-1795808Y-4430204D01*
X-1680204Y-4545808D01*
X-1541775Y-4632789D01*
X-1387461Y-4686786D01*
X-1279154Y-4698989D01*
X-1225001Y-4705091D01*
X-1225000Y-4705091D01*
X-1224999Y-4705091D01*
X-1184385Y-4700514D01*
X-1062539Y-4686786D01*
X-997437Y-4664004D01*
X-920525Y-4658240D01*
X-899019Y-4664002D01*
X-762461Y-4711786D01*
X-654154Y-4723989D01*
X-600001Y-4730091D01*
X-600000Y-4730091D01*
X-599999Y-4730091D01*
X-559385Y-4725514D01*
X-437539Y-4711786D01*
X-318145Y-4670007D01*
X-241233Y-4664245D01*
X-219728Y-4670006D01*
X-100329Y-4711786D01*
X7978Y-4723989D01*
X62131Y-4730091D01*
X62132Y-4730091D01*
X62133Y-4730091D01*
X102747Y-4725514D01*
X224593Y-4711786D01*
X369356Y-4661130D01*
X446267Y-4655368D01*
X467768Y-4661128D01*
X612539Y-4711786D01*
X720846Y-4723989D01*
X774999Y-4730091D01*
X775000Y-4730091D01*
X775001Y-4730091D01*
X793306Y-4728028D01*
X937461Y-4711786D01*
X1050788Y-4672130D01*
X1127700Y-4666366D01*
X1149211Y-4672130D01*
X1262539Y-4711786D01*
X1404369Y-4727766D01*
X1424999Y-4730091D01*
X1425000Y-4730091D01*
X1425001Y-4730091D01*
X1465615Y-4725514D01*
X1587461Y-4711786D01*
X1741775Y-4657789D01*
X1880204Y-4570808D01*
X1932141Y-4518871D01*
X1998936Y-4480307D01*
X2076064Y-4480307D01*
X2142859Y-4518871D01*
X2169796Y-4545808D01*
X2308225Y-4632789D01*
X2462539Y-4686786D01*
X2570846Y-4698989D01*
X2624999Y-4705091D01*
X2625000Y-4705091D01*
X2625001Y-4705091D01*
X2665615Y-4700514D01*
X2787461Y-4686786D01*
X2941775Y-4632789D01*
X3080204Y-4545808D01*
X3195808Y-4430204D01*
X3230495Y-4375000D01*
X8119540Y-4375000D01*
X8139325Y-4563254D01*
X8179683Y-4687461D01*
X8197821Y-4743284D01*
X8238195Y-4813214D01*
X8292469Y-4907220D01*
X8376010Y-5000000D01*
X8419129Y-5047888D01*
X8572270Y-5159151D01*
X8745197Y-5236144D01*
X8866620Y-5261953D01*
X8913152Y-5271844D01*
X8981874Y-5306860D01*
X9017695Y-5362020D01*
X9019646Y-5361152D01*
X9022822Y-5368286D01*
X9033733Y-5387184D01*
X9113300Y-5524999D01*
X9117469Y-5532219D01*
X9244127Y-5672886D01*
X9244129Y-5672888D01*
X9397270Y-5784151D01*
X9570197Y-5861144D01*
X9706548Y-5890126D01*
X9755352Y-5900500D01*
X9755354Y-5900500D01*
X9944648Y-5900500D01*
X9993452Y-5890126D01*
X10129803Y-5861144D01*
X10302730Y-5784151D01*
X10455871Y-5672888D01*
X10528195Y-5592563D01*
X10582530Y-5532220D01*
X10582531Y-5532218D01*
X10582533Y-5532216D01*
X10677179Y-5368284D01*
X10735674Y-5188256D01*
X10755460Y-5000000D01*
X10735674Y-4811744D01*
X10677179Y-4631716D01*
X10677178Y-4631715D01*
X10674766Y-4624290D01*
X10677116Y-4623526D01*
X10667025Y-4559850D01*
X10686171Y-4500914D01*
X10777179Y-4343284D01*
X10835674Y-4163256D01*
X10855460Y-3975000D01*
X10835674Y-3786744D01*
X10777179Y-3606716D01*
X10682533Y-3442784D01*
X10682532Y-3442783D01*
X10682530Y-3442779D01*
X10598990Y-3350000D01*
X14719540Y-3350000D01*
X14739325Y-3538254D01*
X14787114Y-3685331D01*
X14797821Y-3718284D01*
X14831061Y-3775857D01*
X14892469Y-3882220D01*
X15004572Y-4006721D01*
X15019129Y-4022888D01*
X15172270Y-4134151D01*
X15172271Y-4134151D01*
X15172272Y-4134152D01*
X15196748Y-4145049D01*
X15345197Y-4211144D01*
X15486315Y-4241139D01*
X15530352Y-4250500D01*
X15530354Y-4250500D01*
X15719648Y-4250500D01*
X15787186Y-4236144D01*
X15904803Y-4211144D01*
X15998819Y-4169283D01*
X16074997Y-4157218D01*
X16120028Y-4169284D01*
X16159244Y-4186744D01*
X16270197Y-4236144D01*
X16411315Y-4266139D01*
X16455352Y-4275500D01*
X16455354Y-4275500D01*
X16644648Y-4275500D01*
X16684004Y-4267134D01*
X16829803Y-4236144D01*
X17002730Y-4159151D01*
X17155871Y-4047888D01*
X17240235Y-3954193D01*
X17282530Y-3907220D01*
X17282531Y-3907218D01*
X17282533Y-3907216D01*
X17377179Y-3743284D01*
X17435674Y-3563256D01*
X17455460Y-3375000D01*
X17435674Y-3186744D01*
X17377179Y-3006716D01*
X17282533Y-2842784D01*
X17282532Y-2842783D01*
X17282530Y-2842779D01*
X17155871Y-2702112D01*
X17155867Y-2702109D01*
X17041880Y-2619292D01*
X16993342Y-2559353D01*
X16982352Y-2507651D01*
X16981276Y-2507765D01*
X16978381Y-2480224D01*
X16960674Y-2311744D01*
X16902179Y-2131716D01*
X16807533Y-1967784D01*
X16807532Y-1967783D01*
X16807530Y-1967779D01*
X16680872Y-1827113D01*
X16657250Y-1809951D01*
X16527730Y-1715849D01*
X16527729Y-1715848D01*
X16527727Y-1715847D01*
X16354805Y-1638857D01*
X16354803Y-1638856D01*
X16248360Y-1616231D01*
X16169648Y-1599500D01*
X16169646Y-1599500D01*
X15980354Y-1599500D01*
X15980352Y-1599500D01*
X15880392Y-1620747D01*
X15795197Y-1638856D01*
X15795195Y-1638856D01*
X15795194Y-1638857D01*
X15622272Y-1715847D01*
X15469127Y-1827113D01*
X15342469Y-1967779D01*
X15247822Y-2131714D01*
X15247819Y-2131721D01*
X15189325Y-2311745D01*
X15168755Y-2507465D01*
X15141115Y-2579470D01*
X15108151Y-2612433D01*
X15019132Y-2677108D01*
X15019128Y-2677112D01*
X14892469Y-2817779D01*
X14797822Y-2981714D01*
X14797819Y-2981721D01*
X14739325Y-3161745D01*
X14719540Y-3350000D01*
X10598990Y-3350000D01*
X10555872Y-3302113D01*
X10555869Y-3302111D01*
X10402730Y-3190849D01*
X10402729Y-3190848D01*
X10402727Y-3190847D01*
X10229805Y-3113857D01*
X10229803Y-3113856D01*
X10123360Y-3091231D01*
X10044648Y-3074500D01*
X10044646Y-3074500D01*
X9855354Y-3074500D01*
X9855352Y-3074500D01*
X9755392Y-3095747D01*
X9670197Y-3113856D01*
X9670195Y-3113856D01*
X9670194Y-3113857D01*
X9497272Y-3190847D01*
X9363259Y-3288213D01*
X9344129Y-3302112D01*
X9233297Y-3425202D01*
X9168614Y-3467207D01*
X9122571Y-3474500D01*
X8930352Y-3474500D01*
X8830392Y-3495747D01*
X8745197Y-3513856D01*
X8745195Y-3513856D01*
X8745194Y-3513857D01*
X8572272Y-3590847D01*
X8419127Y-3702113D01*
X8292469Y-3842779D01*
X8197822Y-4006714D01*
X8197819Y-4006721D01*
X8139325Y-4186745D01*
X8119540Y-4375000D01*
X3230495Y-4375000D01*
X3282789Y-4291775D01*
X3336786Y-4137461D01*
X3355091Y-3975000D01*
X3352746Y-3954192D01*
X3347454Y-3907216D01*
X3336786Y-3812539D01*
X3282789Y-3658225D01*
X3195808Y-3519796D01*
X3080204Y-3404192D01*
X2941775Y-3317211D01*
X2787461Y-3263214D01*
X2787460Y-3263213D01*
X2787458Y-3263213D01*
X2625001Y-3244909D01*
X2624999Y-3244909D01*
X2462541Y-3263213D01*
X2406600Y-3282788D01*
X2308225Y-3317211D01*
X2308223Y-3317211D01*
X2308223Y-3317212D01*
X2169796Y-3404192D01*
X2117859Y-3456129D01*
X2051064Y-3494693D01*
X1973936Y-3494693D01*
X1907141Y-3456129D01*
X1880205Y-3429193D01*
X1880204Y-3429192D01*
X1741775Y-3342211D01*
X1587461Y-3288214D01*
X1587460Y-3288213D01*
X1587458Y-3288213D01*
X1425001Y-3269909D01*
X1424999Y-3269909D01*
X1262539Y-3288214D01*
X1149211Y-3327869D01*
X1072299Y-3333632D01*
X1050789Y-3327869D01*
X977176Y-3302111D01*
X937461Y-3288214D01*
X856230Y-3279061D01*
X775001Y-3269909D01*
X774999Y-3269909D01*
X612539Y-3288214D01*
X467777Y-3338868D01*
X390865Y-3344631D01*
X369355Y-3338868D01*
X264308Y-3302111D01*
X224593Y-3288214D01*
X143362Y-3279061D01*
X62133Y-3269909D01*
X62131Y-3269909D01*
X-100327Y-3288213D01*
X-140044Y-3302111D01*
X-219724Y-3329992D01*
X-296635Y-3335755D01*
X-318141Y-3329993D01*
X-437539Y-3288214D01*
X-437540Y-3288213D01*
X-437542Y-3288213D01*
X-599999Y-3269909D01*
X-600001Y-3269909D01*
X-762463Y-3288214D01*
X-827568Y-3310995D01*
X-904480Y-3316758D01*
X-925989Y-3310995D01*
X-952676Y-3301657D01*
X-1062539Y-3263214D01*
X-1143770Y-3254061D01*
X-1224999Y-3244909D01*
X-1225001Y-3244909D01*
X-1387459Y-3263213D01*
X-1443400Y-3282788D01*
X-1541775Y-3317211D01*
X-1541777Y-3317211D01*
X-1541777Y-3317212D01*
X-1680204Y-3404192D01*
X-1795807Y-3519795D01*
X-1795812Y-3519801D01*
X-1812779Y-3546802D01*
X-1869320Y-3599261D01*
X-1944515Y-3616421D01*
X-2018215Y-3593684D01*
X-2065100Y-3546798D01*
X-2070467Y-3538256D01*
X-2129192Y-3444796D01*
X-2244796Y-3329192D01*
X-2383225Y-3242211D01*
X-2537539Y-3188214D01*
X-2537540Y-3188213D01*
X-2537542Y-3188213D01*
X-2699999Y-3169909D01*
X-2700001Y-3169909D01*
X-2862459Y-3188213D01*
X-2939618Y-3215212D01*
X-3016775Y-3242211D01*
X-3016777Y-3242211D01*
X-3016777Y-3242212D01*
X-3155204Y-3329192D01*
X-3270808Y-3444796D01*
X-3345240Y-3563254D01*
X-3357789Y-3583225D01*
X-3369405Y-3616421D01*
X-3411787Y-3737541D01*
X-3430091Y-3899999D01*
X-3430091Y-3900000D01*
X-8823988Y-3900000D01*
X-8779192Y-3855204D01*
X-8729334Y-3775853D01*
X-8672799Y-3723396D01*
X-8652389Y-3714491D01*
X-8589749Y-3692573D01*
X-8451320Y-3605592D01*
X-8335716Y-3489988D01*
X-8280980Y-3402875D01*
X-8224443Y-3350416D01*
X-8195405Y-3339642D01*
X-8195437Y-3339549D01*
X-8190444Y-3337801D01*
X-8187970Y-3336884D01*
X-8187545Y-3336786D01*
X-8187539Y-3336786D01*
X-8033225Y-3282789D01*
X-7894796Y-3195808D01*
X-7779192Y-3080204D01*
X-7692211Y-2941775D01*
X-7638214Y-2787461D01*
X-7619909Y-2625000D01*
X-7620372Y-2620895D01*
X-7623757Y-2590849D01*
X-7638214Y-2462539D01*
X-7667691Y-2378301D01*
X-7673453Y-2301390D01*
X-7639989Y-2231900D01*
X-7576262Y-2188452D01*
X-7533301Y-2181152D01*
X-7533315Y-2181028D01*
X-7531092Y-2180777D01*
X-7527051Y-2180091D01*
X-7524999Y-2180091D01*
X-7433621Y-2169795D01*
X-7362539Y-2161786D01*
X-7286959Y-2135338D01*
X-7210050Y-2129574D01*
X-7188545Y-2135336D01*
X-7112958Y-2161786D01*
X-6968803Y-2178028D01*
X-6950498Y-2180091D01*
X-6950497Y-2180091D01*
X-6950496Y-2180091D01*
X-6909882Y-2175514D01*
X-6788036Y-2161786D01*
X-6676235Y-2122664D01*
X-6599324Y-2116902D01*
X-6577815Y-2122665D01*
X-6537461Y-2136786D01*
X-6393306Y-2153028D01*
X-6375001Y-2155091D01*
X-6375000Y-2155091D01*
X-6374999Y-2155091D01*
X-6334385Y-2150514D01*
X-6212539Y-2136786D01*
X-6058225Y-2082789D01*
X-5919796Y-1995808D01*
X-5852524Y-1928535D01*
X-5785731Y-1889972D01*
X-5708603Y-1889972D01*
X-5659588Y-1913351D01*
X-5628027Y-1936281D01*
X-5527731Y-2009151D01*
X-5458340Y-2040046D01*
X-5354803Y-2086144D01*
X-5213685Y-2116139D01*
X-5169648Y-2125500D01*
X-5169646Y-2125500D01*
X-4980352Y-2125500D01*
X-4939903Y-2116902D01*
X-4795197Y-2086144D01*
X-4622270Y-2009151D01*
X-4469129Y-1897888D01*
X-4389950Y-1809951D01*
X-4342470Y-1757220D01*
X-4342469Y-1757218D01*
X-4342467Y-1757216D01*
X-4247821Y-1593284D01*
X-4189326Y-1413256D01*
X-4169540Y-1225000D01*
X-4189326Y-1036744D01*
X-4247821Y-856716D01*
X-4342467Y-692784D01*
X-4342468Y-692783D01*
X-4342470Y-692779D01*
X-4469128Y-552113D01*
X-4543763Y-497888D01*
X-4622270Y-440849D01*
X-4622271Y-440848D01*
X-4622273Y-440847D01*
X-4770719Y-374754D01*
X-4795197Y-363856D01*
X-4901640Y-341231D01*
X-4980352Y-324500D01*
X-4980354Y-324500D01*
X-5169646Y-324500D01*
X-5169648Y-324500D01*
X-5269608Y-345747D01*
X-5354803Y-363856D01*
X-5354805Y-363856D01*
X-5354806Y-363857D01*
X-5527728Y-440847D01*
X-5680873Y-552113D01*
X-5807532Y-692781D01*
X-5828462Y-729032D01*
X-5883001Y-783568D01*
X-5957501Y-803529D01*
X-6032001Y-783565D01*
X-6036770Y-780691D01*
X-6058221Y-767212D01*
X-6212542Y-713213D01*
X-6374999Y-694909D01*
X-6375001Y-694909D01*
X-6537463Y-713214D01*
X-6649263Y-752334D01*
X-6726175Y-758097D01*
X-6747684Y-752334D01*
X-6758378Y-748592D01*
X-6788036Y-738214D01*
X-6871978Y-728756D01*
X-6950496Y-719909D01*
X-6950498Y-719909D01*
X-7112956Y-738213D01*
X-7112960Y-738214D01*
X-7188539Y-764660D01*
X-7265452Y-770423D01*
X-7286960Y-764660D01*
X-7322186Y-752334D01*
X-7362539Y-738214D01*
X-7446481Y-728756D01*
X-7524999Y-719909D01*
X-7525001Y-719909D01*
X-7687459Y-738213D01*
X-7744283Y-758097D01*
X-7841775Y-792211D01*
X-7841777Y-792211D01*
X-7841777Y-792212D01*
X-7980204Y-879192D01*
X-8095808Y-994796D01*
X-8175694Y-1121934D01*
X-8182789Y-1133225D01*
X-8187192Y-1145808D01*
X-8236787Y-1287541D01*
X-8247175Y-1379741D01*
X-8255091Y-1450000D01*
X-8236786Y-1612461D01*
X-8207310Y-1696698D01*
X-8201547Y-1773610D01*
X-8235011Y-1843100D01*
X-8298738Y-1886548D01*
X-8341700Y-1893847D01*
X-8341685Y-1893972D01*
X-8343909Y-1894222D01*
X-8347949Y-1894909D01*
X-8350001Y-1894909D01*
X-8512459Y-1913213D01*
X-8578385Y-1936282D01*
X-8666775Y-1967211D01*
X-8666777Y-1967211D01*
X-8666777Y-1967212D01*
X-8805204Y-2054192D01*
X-8920807Y-2169795D01*
X-8920813Y-2169802D01*
X-8975545Y-2256907D01*
X-9032084Y-2309368D01*
X-9061120Y-2320142D01*
X-9061087Y-2320235D01*
X-9066016Y-2321959D01*
X-9068539Y-2322896D01*
X-9068979Y-2322996D01*
X-9068985Y-2322997D01*
X-9068985Y-2322998D01*
X-9223299Y-2376995D01*
X-9223301Y-2376995D01*
X-9223301Y-2376996D01*
X-9361728Y-2463976D01*
X-9477331Y-2579579D01*
X-9477335Y-2579582D01*
X-9521981Y-2650636D01*
X-9578521Y-2703096D01*
X-9653715Y-2720258D01*
X-9727416Y-2697523D01*
X-9777181Y-2645860D01*
X-9791594Y-2620895D01*
X-9791595Y-2620894D01*
X-9828793Y-2579582D01*
X-9918256Y-2480223D01*
X-10071397Y-2368960D01*
X-10071398Y-2368959D01*
X-10071400Y-2368958D01*
X-10244322Y-2291968D01*
X-10244324Y-2291967D01*
X-10350767Y-2269342D01*
X-10429479Y-2252611D01*
X-10429481Y-2252611D01*
X-10618773Y-2252611D01*
X-10618775Y-2252611D01*
X-10714160Y-2272886D01*
X-10803930Y-2291967D01*
X-10803932Y-2291967D01*
X-10803933Y-2291968D01*
X-10976855Y-2368958D01*
X-11130000Y-2480224D01*
X-11256658Y-2620890D01*
X-11351305Y-2784825D01*
X-11351308Y-2784832D01*
X-11409802Y-2964856D01*
X-11429587Y-3153111D01*
X-12078617Y-3153111D01*
X-12047793Y-3099723D01*
X-11989298Y-2919695D01*
X-11969512Y-2731439D01*
X-11989298Y-2543183D01*
X-12047793Y-2363155D01*
X-12142439Y-2199223D01*
X-12142440Y-2199222D01*
X-12142442Y-2199218D01*
X-12269100Y-2058552D01*
X-12393344Y-1968284D01*
X-12422242Y-1947288D01*
X-12422243Y-1947287D01*
X-12422245Y-1947286D01*
X-12595167Y-1870296D01*
X-12595169Y-1870295D01*
X-12701612Y-1847670D01*
X-12780324Y-1830939D01*
X-12780326Y-1830939D01*
X-12969618Y-1830939D01*
X-12969620Y-1830939D01*
X-13069580Y-1852186D01*
X-13154775Y-1870295D01*
X-13154777Y-1870295D01*
X-13154778Y-1870296D01*
X-13327700Y-1947286D01*
X-13480845Y-2058552D01*
X-13607503Y-2199218D01*
X-13702150Y-2363153D01*
X-13702153Y-2363160D01*
X-13760647Y-2543184D01*
X-13780432Y-2731439D01*
X-20999500Y-2731439D01*
X-20999500Y2175000D01*
X-17330091Y2175000D01*
X-17311787Y2012542D01*
X-17311787Y2012540D01*
X-17311786Y2012539D01*
X-17257789Y1858225D01*
X-17170808Y1719796D01*
X-17055204Y1604192D01*
X-16916775Y1517211D01*
X-16762461Y1463214D01*
X-16726204Y1459129D01*
X-16654407Y1430951D01*
X-16606318Y1370650D01*
X-16602248Y1360278D01*
X-16557791Y1233227D01*
X-16528208Y1186147D01*
X-16470808Y1094796D01*
X-16470807Y1094795D01*
X-16456371Y1080359D01*
X-16417807Y1013564D01*
X-16417807Y936436D01*
X-16456371Y869641D01*
X-16470808Y855204D01*
X-16543913Y738858D01*
X-16557789Y716775D01*
X-16566419Y692112D01*
X-16611787Y562459D01*
X-16630091Y400001D01*
X-16630091Y400000D01*
X-16611787Y237542D01*
X-16611787Y237540D01*
X-16611786Y237539D01*
X-16557789Y83225D01*
X-16470808Y-55204D01*
X-16355204Y-170808D01*
X-16216775Y-257789D01*
X-16138994Y-285006D01*
X-16075269Y-328453D01*
X-16041804Y-397943D01*
X-16040143Y-442326D01*
X-16055091Y-574997D01*
X-16055091Y-575000D01*
X-16036787Y-737458D01*
X-16036787Y-737460D01*
X-16036786Y-737461D01*
X-15982789Y-891775D01*
X-15895808Y-1030204D01*
X-15780204Y-1145808D01*
X-15641775Y-1232789D01*
X-15487461Y-1286786D01*
X-15379154Y-1298989D01*
X-15325001Y-1305091D01*
X-15325001Y-1305090D01*
X-15325000Y-1305091D01*
X-15257828Y-1297522D01*
X-15181562Y-1309017D01*
X-15135786Y-1340226D01*
X-15105204Y-1370808D01*
X-14966775Y-1457789D01*
X-14812461Y-1511786D01*
X-14704154Y-1523989D01*
X-14650001Y-1530091D01*
X-14650000Y-1530091D01*
X-14649999Y-1530091D01*
X-14609385Y-1525514D01*
X-14487539Y-1511786D01*
X-14333225Y-1457789D01*
X-14194796Y-1370808D01*
X-14079192Y-1255204D01*
X-13992211Y-1116775D01*
X-13938214Y-962461D01*
X-13919909Y-800000D01*
X-13923242Y-770423D01*
X-13929286Y-716775D01*
X-13938214Y-637539D01*
X-13992211Y-483225D01*
X-13992213Y-483222D01*
X-13992213Y-483221D01*
X-14021963Y-435875D01*
X-14044698Y-362173D01*
X-14038483Y-320983D01*
X-14040076Y-320620D01*
X-14038215Y-312463D01*
X-14038214Y-312461D01*
X-14019909Y-150000D01*
X-14038214Y12461D01*
X-14092211Y166775D01*
X-14179192Y305204D01*
X-14294796Y420808D01*
X-14433225Y507789D01*
X-14587539Y561786D01*
X-14587540Y561787D01*
X-14587542Y561787D01*
X-14749999Y580091D01*
X-14750001Y580091D01*
X-14912463Y561786D01*
X-15017287Y525107D01*
X-15094199Y519344D01*
X-15163689Y552809D01*
X-15207135Y616534D01*
X-15242211Y716775D01*
X-15329192Y855204D01*
X-15343629Y869641D01*
X-15382193Y936436D01*
X-15382193Y1013564D01*
X-15343629Y1080359D01*
X-15329193Y1094795D01*
X-15329192Y1094796D01*
X-15242211Y1233225D01*
X-15188214Y1387539D01*
X-15169909Y1550000D01*
X-15188214Y1712461D01*
X-15235997Y1849015D01*
X-15241759Y1925925D01*
X-15235995Y1947438D01*
X-15213214Y2012539D01*
X-15194909Y2175000D01*
X-15213214Y2337461D01*
X-15228699Y2381715D01*
X-15228852Y2382152D01*
X-15234617Y2459064D01*
X-15201152Y2528554D01*
X-15137428Y2572001D01*
X-15008225Y2617211D01*
X-14869796Y2704192D01*
X-14754192Y2819796D01*
X-14685202Y2929594D01*
X-14628665Y2982053D01*
X-14608262Y2990955D01*
X-14533225Y3017211D01*
X-14394796Y3104192D01*
X-14348988Y3150000D01*
X-6255091Y3150000D01*
X-6236787Y2987542D01*
X-6236787Y2987540D01*
X-6236786Y2987539D01*
X-6182789Y2833225D01*
X-6095808Y2694796D01*
X-5980204Y2579192D01*
X-5841775Y2492211D01*
X-5687461Y2438214D01*
X-5525000Y2419909D01*
X-5472091Y2425871D01*
X-5395827Y2414377D01*
X-5335525Y2366289D01*
X-5307346Y2294493D01*
X-5310144Y2244655D01*
X-5311786Y2237461D01*
X-5330091Y2075001D01*
X-5330091Y2075000D01*
X-5311787Y1912542D01*
X-5311787Y1912540D01*
X-5311786Y1912539D01*
X-5257789Y1758225D01*
X-5170808Y1619796D01*
X-5055204Y1504192D01*
X-4916775Y1417211D01*
X-4762461Y1363214D01*
X-4666200Y1352368D01*
X-4600001Y1344909D01*
X-4600000Y1344909D01*
X-4599999Y1344909D01*
X-4533800Y1352368D01*
X-4437539Y1363214D01*
X-4283225Y1417211D01*
X-4246879Y1440050D01*
X-4173183Y1462784D01*
X-4097988Y1445623D01*
X-4093612Y1443097D01*
X-4091785Y1442218D01*
X-4091775Y1442211D01*
X-3937461Y1388214D01*
X-3866379Y1380205D01*
X-3775001Y1369909D01*
X-3775000Y1369909D01*
X-3774999Y1369909D01*
X-3734385Y1374486D01*
X-3612539Y1388214D01*
X-3458225Y1442211D01*
X-3319796Y1529192D01*
X-3248988Y1600000D01*
X1319540Y1600000D01*
X1339325Y1411746D01*
X1394552Y1241777D01*
X1397821Y1231716D01*
X1438195Y1161786D01*
X1492469Y1067780D01*
X1614519Y932232D01*
X1619129Y927112D01*
X1772270Y815849D01*
X1945197Y738856D01*
X2086315Y708861D01*
X2130352Y699500D01*
X2130354Y699500D01*
X2319648Y699500D01*
X2359004Y707866D01*
X2504803Y738856D01*
X2677730Y815849D01*
X2768859Y882059D01*
X2840864Y909699D01*
X2917042Y897633D01*
X2976982Y849095D01*
X3004623Y777090D01*
X3004623Y745942D01*
X2994540Y650001D01*
X3014325Y461746D01*
X3065189Y305205D01*
X3072821Y281716D01*
X3127466Y187067D01*
X3167469Y117780D01*
X3262302Y12459D01*
X3294129Y-22888D01*
X3447270Y-134151D01*
X3447271Y-134151D01*
X3447272Y-134152D01*
X3466660Y-142784D01*
X3619881Y-211003D01*
X3679821Y-259541D01*
X3700983Y-301076D01*
X3722821Y-368284D01*
X3758571Y-430205D01*
X3817469Y-532220D01*
X3912302Y-637541D01*
X3944129Y-672888D01*
X4061410Y-758097D01*
X4069536Y-764001D01*
X4118074Y-823941D01*
X4130140Y-900120D01*
X4102500Y-972125D01*
X4092685Y-984245D01*
X4017469Y-1067780D01*
X3922822Y-1231714D01*
X3922819Y-1231721D01*
X3864325Y-1411745D01*
X3844540Y-1600000D01*
X3864325Y-1788254D01*
X3922819Y-1968278D01*
X3922821Y-1968284D01*
X3938712Y-1995808D01*
X4017469Y-2132220D01*
X4144127Y-2272886D01*
X4144129Y-2272888D01*
X4297270Y-2384151D01*
X4470197Y-2461144D01*
X4611315Y-2491139D01*
X4655352Y-2500500D01*
X4655354Y-2500500D01*
X4844648Y-2500500D01*
X4884004Y-2492134D01*
X5029803Y-2461144D01*
X5202730Y-2384151D01*
X5355871Y-2272888D01*
X5439426Y-2180091D01*
X5482530Y-2132220D01*
X5482531Y-2132218D01*
X5482533Y-2132216D01*
X5577179Y-1968284D01*
X5635674Y-1788256D01*
X5655460Y-1600000D01*
X5635674Y-1411744D01*
X5577179Y-1231716D01*
X5482533Y-1067784D01*
X5482532Y-1067783D01*
X5482530Y-1067779D01*
X5398271Y-974201D01*
X5363255Y-905479D01*
X5367291Y-828457D01*
X5409298Y-763772D01*
X5478020Y-728756D01*
X5508999Y-725500D01*
X5544648Y-725500D01*
X5585685Y-716777D01*
X5729803Y-686144D01*
X5902730Y-609151D01*
X6055871Y-497888D01*
X6144010Y-400000D01*
X8419909Y-400000D01*
X8438213Y-562458D01*
X8438213Y-562460D01*
X8438214Y-562461D01*
X8492211Y-716775D01*
X8579192Y-855204D01*
X8694796Y-970808D01*
X8833225Y-1057789D01*
X8987539Y-1111786D01*
X9077578Y-1121931D01*
X9149999Y-1130091D01*
X9150000Y-1130091D01*
X9150001Y-1130091D01*
X9190615Y-1125514D01*
X9312461Y-1111786D01*
X9466775Y-1057789D01*
X9605204Y-970808D01*
X9720808Y-855204D01*
X9807789Y-716775D01*
X9811614Y-705842D01*
X9832640Y-675000D01*
X12669540Y-675000D01*
X12689325Y-863254D01*
X12747820Y-1043283D01*
X12747824Y-1043292D01*
X12750216Y-1047434D01*
X12770177Y-1121934D01*
X12751277Y-1192480D01*
X12751498Y-1192579D01*
X12750878Y-1193970D01*
X12750223Y-1196417D01*
X12748325Y-1199703D01*
X12748319Y-1199718D01*
X12689825Y-1379742D01*
X12670040Y-1567997D01*
X12689825Y-1756251D01*
X12712850Y-1827113D01*
X12748321Y-1936281D01*
X12790393Y-2009152D01*
X12842969Y-2100217D01*
X12932116Y-2199223D01*
X12969629Y-2240885D01*
X13122770Y-2352148D01*
X13295697Y-2429141D01*
X13436815Y-2459136D01*
X13480852Y-2468497D01*
X13480854Y-2468497D01*
X13670148Y-2468497D01*
X13709504Y-2460131D01*
X13855303Y-2429141D01*
X14028230Y-2352148D01*
X14181371Y-2240885D01*
X14253695Y-2160560D01*
X14308030Y-2100217D01*
X14308031Y-2100215D01*
X14308033Y-2100213D01*
X14402679Y-1936281D01*
X14461174Y-1756253D01*
X14480960Y-1567997D01*
X14461174Y-1379741D01*
X14402679Y-1199713D01*
X14400285Y-1195566D01*
X14380322Y-1121066D01*
X14399223Y-1050522D01*
X14399001Y-1050423D01*
X14399627Y-1049015D01*
X14400284Y-1046566D01*
X14402179Y-1043284D01*
X14460674Y-863256D01*
X14480460Y-675000D01*
X14460674Y-486744D01*
X14402179Y-306716D01*
X14307533Y-142784D01*
X14307532Y-142783D01*
X14307530Y-142779D01*
X14180872Y-2113D01*
X14160815Y12459D01*
X14027730Y109151D01*
X14027729Y109152D01*
X14027727Y109153D01*
X13854805Y186143D01*
X13854803Y186144D01*
X13727448Y213214D01*
X13669648Y225500D01*
X13669646Y225500D01*
X13480354Y225500D01*
X13480352Y225500D01*
X13422552Y213214D01*
X13295197Y186144D01*
X13295195Y186144D01*
X13295194Y186143D01*
X13122272Y109153D01*
X12969127Y-2113D01*
X12842469Y-142779D01*
X12747822Y-306714D01*
X12747819Y-306721D01*
X12689325Y-486745D01*
X12669540Y-675000D01*
X9832640Y-675000D01*
X9855057Y-642118D01*
X9872976Y-628892D01*
X10005204Y-545808D01*
X10120808Y-430204D01*
X10207789Y-291775D01*
X10211614Y-280842D01*
X10255057Y-217118D01*
X10272976Y-203892D01*
X10405204Y-120808D01*
X10520808Y-5204D01*
X10607789Y133225D01*
X10607788Y133225D01*
X10612241Y140310D01*
X10614010Y139198D01*
X10656711Y188832D01*
X10729507Y214318D01*
X10757348Y213799D01*
X10762538Y213215D01*
X10762539Y213214D01*
X10841458Y204322D01*
X10924999Y194909D01*
X10925000Y194909D01*
X10925001Y194909D01*
X10965615Y199486D01*
X11087461Y213214D01*
X11241775Y267211D01*
X11380204Y354192D01*
X11495808Y469796D01*
X11582789Y608225D01*
X11636786Y762539D01*
X11655091Y925000D01*
X11653802Y936436D01*
X11642568Y1036144D01*
X11636786Y1087461D01*
X11582789Y1241775D01*
X11495808Y1380204D01*
X11380204Y1495808D01*
X11241775Y1582789D01*
X11087461Y1636786D01*
X11087460Y1636787D01*
X11087458Y1636787D01*
X10925001Y1655091D01*
X10924999Y1655091D01*
X10762541Y1636787D01*
X10685382Y1609788D01*
X10608225Y1582789D01*
X10608223Y1582789D01*
X10608223Y1582788D01*
X10469796Y1495808D01*
X10354192Y1380204D01*
X10262759Y1234690D01*
X10260994Y1235799D01*
X10218257Y1186147D01*
X10145454Y1160681D01*
X10117652Y1161202D01*
X9950002Y1180091D01*
X9949999Y1180091D01*
X9787541Y1161787D01*
X9710382Y1134788D01*
X9633225Y1107789D01*
X9633223Y1107789D01*
X9633223Y1107788D01*
X9494796Y1020808D01*
X9379192Y905204D01*
X9292210Y766775D01*
X9288383Y755837D01*
X9244934Y692112D01*
X9227018Y678889D01*
X9094796Y595808D01*
X8979192Y480204D01*
X8892210Y341775D01*
X8888383Y330837D01*
X8844934Y267112D01*
X8827018Y253889D01*
X8694796Y170808D01*
X8579192Y55204D01*
X8530125Y-22886D01*
X8492211Y-83225D01*
X8474391Y-134151D01*
X8438213Y-237541D01*
X8419909Y-399999D01*
X8419909Y-400000D01*
X6144010Y-400000D01*
X6166414Y-375118D01*
X6182530Y-357220D01*
X6182531Y-357218D01*
X6182533Y-357216D01*
X6277179Y-193284D01*
X6335674Y-13256D01*
X6355460Y175000D01*
X6335674Y363256D01*
X6277179Y543284D01*
X6182533Y707216D01*
X6182532Y707217D01*
X6182530Y707221D01*
X6055872Y847887D01*
X6054209Y849095D01*
X5902730Y959151D01*
X5902729Y959152D01*
X5902727Y959153D01*
X5729805Y1036143D01*
X5729803Y1036144D01*
X5623360Y1058769D01*
X5544648Y1075500D01*
X5544646Y1075500D01*
X5355354Y1075500D01*
X5355352Y1075500D01*
X5255392Y1054253D01*
X5170197Y1036144D01*
X5170195Y1036144D01*
X5170194Y1036143D01*
X4997267Y959151D01*
X4997266Y959150D01*
X4960216Y932232D01*
X4888211Y904593D01*
X4812032Y916660D01*
X4752094Y965200D01*
X4730932Y1006733D01*
X4727179Y1018284D01*
X4632533Y1182216D01*
X4632532Y1182217D01*
X4632530Y1182221D01*
X4505872Y1322887D01*
X4481902Y1340302D01*
X4352730Y1434151D01*
X4352729Y1434152D01*
X4352727Y1434153D01*
X4179805Y1511143D01*
X4179803Y1511144D01*
X4073360Y1533769D01*
X3994648Y1550500D01*
X3994646Y1550500D01*
X3805354Y1550500D01*
X3805352Y1550500D01*
X3705392Y1529253D01*
X3620197Y1511144D01*
X3620195Y1511144D01*
X3620194Y1511143D01*
X3447270Y1434152D01*
X3356139Y1367942D01*
X3284133Y1340302D01*
X3207955Y1352368D01*
X3148016Y1400907D01*
X3120376Y1472913D01*
X3120376Y1504055D01*
X3130460Y1600000D01*
X3110674Y1788256D01*
X3052179Y1968284D01*
X2957533Y2132216D01*
X2957532Y2132217D01*
X2957530Y2132221D01*
X2830872Y2272887D01*
X2741993Y2337461D01*
X2677730Y2384151D01*
X2677729Y2384152D01*
X2677727Y2384153D01*
X2504805Y2461143D01*
X2504803Y2461144D01*
X2398360Y2483769D01*
X2319648Y2500500D01*
X2319646Y2500500D01*
X2130354Y2500500D01*
X2130352Y2500500D01*
X2030392Y2479253D01*
X1945197Y2461144D01*
X1945195Y2461144D01*
X1945194Y2461143D01*
X1772272Y2384153D01*
X1619127Y2272887D01*
X1492469Y2132221D01*
X1397822Y1968286D01*
X1397819Y1968279D01*
X1339325Y1788255D01*
X1319540Y1600000D01*
X-3248988Y1600000D01*
X-3204192Y1644796D01*
X-3117211Y1783225D01*
X-3063214Y1937539D01*
X-3044909Y2100000D01*
X-3063214Y2262461D01*
X-3089749Y2338291D01*
X-3095513Y2415199D01*
X-3089752Y2436701D01*
X-3063214Y2512539D01*
X-3044909Y2675000D01*
X-3063214Y2837461D01*
X-3117211Y2991775D01*
X-3204192Y3130204D01*
X-3319796Y3245808D01*
X-3458225Y3332789D01*
X-3612539Y3386786D01*
X-3612540Y3386787D01*
X-3612542Y3386787D01*
X-3774999Y3405091D01*
X-3775001Y3405091D01*
X-3937459Y3386787D01*
X-4091777Y3332789D01*
X-4108481Y3322293D01*
X-4182184Y3299562D01*
X-4257377Y3316728D01*
X-4267021Y3322296D01*
X-4283718Y3332788D01*
X-4438039Y3386787D01*
X-4600496Y3405091D01*
X-4600499Y3405091D01*
X-4720347Y3391588D01*
X-4796614Y3403084D01*
X-4856914Y3451172D01*
X-4863191Y3460378D01*
X-4954192Y3605204D01*
X-5069795Y3720807D01*
X-5069796Y3720808D01*
X-5208225Y3807789D01*
X-5362539Y3861786D01*
X-5362540Y3861787D01*
X-5362542Y3861787D01*
X-5524999Y3880091D01*
X-5525001Y3880091D01*
X-5687459Y3861787D01*
X-5743397Y3842213D01*
X-5841775Y3807789D01*
X-5841777Y3807789D01*
X-5841777Y3807788D01*
X-5933739Y3750004D01*
X-5980204Y3720808D01*
X-6095808Y3605204D01*
X-6182789Y3466775D01*
X-6208970Y3391953D01*
X-6236787Y3312459D01*
X-6255091Y3150001D01*
X-6255091Y3150000D01*
X-14348988Y3150000D01*
X-14279192Y3219796D01*
X-14196110Y3352021D01*
X-14139572Y3404480D01*
X-14119168Y3413383D01*
X-14108225Y3417211D01*
X-13969796Y3504192D01*
X-13854192Y3619796D01*
X-13767211Y3758225D01*
X-13767212Y3758225D01*
X-13762759Y3765310D01*
X-13761576Y3764567D01*
X-13717140Y3816213D01*
X-13682404Y3833751D01*
X-13658225Y3842211D01*
X-13519796Y3929192D01*
X-13404192Y4044796D01*
X-13317211Y4183225D01*
X-13263214Y4337539D01*
X-13244909Y4500000D01*
X-13263214Y4662461D01*
X-13317211Y4816775D01*
X-13404192Y4955204D01*
X-13519796Y5070808D01*
X-13658225Y5157789D01*
X-13812539Y5211786D01*
X-13812540Y5211787D01*
X-13812542Y5211787D01*
X-13974999Y5230091D01*
X-13975001Y5230091D01*
X-14137459Y5211787D01*
X-14214618Y5184788D01*
X-14291775Y5157789D01*
X-14291777Y5157789D01*
X-14291777Y5157788D01*
X-14430204Y5070808D01*
X-14545807Y4955205D01*
X-14545808Y4955205D01*
X-14585595Y4891885D01*
X-14632789Y4816775D01*
X-14632790Y4816773D01*
X-14637240Y4809690D01*
X-14638421Y4810432D01*
X-14682887Y4758770D01*
X-14717597Y4741250D01*
X-14741775Y4732790D01*
X-14880204Y4645808D01*
X-14995808Y4530204D01*
X-15078889Y4397982D01*
X-15135428Y4345522D01*
X-15155837Y4336617D01*
X-15166775Y4332790D01*
X-15305204Y4245808D01*
X-15420810Y4130202D01*
X-15489799Y4020408D01*
X-15546338Y3967948D01*
X-15566747Y3959044D01*
X-15611511Y3943380D01*
X-15688424Y3937615D01*
X-15709934Y3943379D01*
X-15762538Y3961786D01*
X-15762542Y3961787D01*
X-15924999Y3980091D01*
X-15925001Y3980091D01*
X-16087459Y3961787D01*
X-16164618Y3934788D01*
X-16241775Y3907789D01*
X-16241777Y3907789D01*
X-16241777Y3907788D01*
X-16380204Y3820808D01*
X-16495808Y3705204D01*
X-16569741Y3587540D01*
X-16582789Y3566775D01*
X-16603507Y3507566D01*
X-16636787Y3412459D01*
X-16651461Y3282221D01*
X-16655091Y3250000D01*
X-16640250Y3118279D01*
X-16636786Y3087540D01*
X-16635680Y3084379D01*
X-16635492Y3081868D01*
X-16634924Y3079380D01*
X-16635300Y3079295D01*
X-16629917Y3007467D01*
X-16663381Y2937977D01*
X-16727108Y2894529D01*
X-16759625Y2887106D01*
X-16762458Y2886787D01*
X-16762461Y2886787D01*
X-16762461Y2886786D01*
X-16916775Y2832789D01*
X-16916777Y2832789D01*
X-16916777Y2832788D01*
X-17055204Y2745808D01*
X-17170808Y2630204D01*
X-17213824Y2561744D01*
X-17257789Y2491775D01*
X-17269235Y2459064D01*
X-17311787Y2337459D01*
X-17330091Y2175001D01*
X-17330091Y2175000D01*
X-20999500Y2175000D01*
X-20999500Y6600000D01*
X-9605091Y6600000D01*
X-9586787Y6437542D01*
X-9586787Y6437540D01*
X-9586786Y6437539D01*
X-9532789Y6283225D01*
X-9445808Y6144796D01*
X-9330204Y6029192D01*
X-9295148Y6007165D01*
X-9252455Y5980339D01*
X-9199995Y5923800D01*
X-9191090Y5903390D01*
X-9157790Y5808226D01*
X-9157789Y5808225D01*
X-9070808Y5669796D01*
X-8955204Y5554192D01*
X-8816775Y5467211D01*
X-8674687Y5417492D01*
X-8610961Y5374045D01*
X-8597738Y5356127D01*
X-8539579Y5263569D01*
X-8539576Y5263565D01*
X-8539574Y5263562D01*
X-8423970Y5147958D01*
X-8296942Y5068141D01*
X-8244483Y5011603D01*
X-8235579Y4991196D01*
X-8232790Y4983227D01*
X-8232789Y4983225D01*
X-8145808Y4844796D01*
X-8030204Y4729192D01*
X-7891775Y4642211D01*
X-7737461Y4588214D01*
X-7629154Y4576011D01*
X-7575001Y4569909D01*
X-7575000Y4569909D01*
X-7574999Y4569909D01*
X-7534385Y4574486D01*
X-7412539Y4588214D01*
X-7258225Y4642211D01*
X-7119796Y4729192D01*
X-7004192Y4844796D01*
X-6917211Y4983225D01*
X-6863214Y5137539D01*
X-6844909Y5300000D01*
X-6863214Y5462461D01*
X-6917211Y5616775D01*
X-7004192Y5755204D01*
X-7119796Y5870808D01*
X-7246825Y5950626D01*
X-7299285Y6007165D01*
X-7308188Y6027568D01*
X-7310977Y6035541D01*
X-7310980Y6035545D01*
X-7310979Y6035545D01*
X-7348281Y6094909D01*
X-7397958Y6173970D01*
X-7513562Y6289574D01*
X-7630583Y6363104D01*
X-7651994Y6376557D01*
X-7651993Y6376557D01*
X-7794081Y6426276D01*
X-7857807Y6469724D01*
X-7871031Y6487641D01*
X-7883964Y6508224D01*
X-7929192Y6580204D01*
X-8044796Y6695808D01*
X-8044799Y6695810D01*
X-8122548Y6744664D01*
X-8175008Y6801203D01*
X-8183913Y6821613D01*
X-8185098Y6825000D01*
X-5873841Y6825000D01*
X-5855537Y6662542D01*
X-5855537Y6662540D01*
X-5855536Y6662539D01*
X-5801539Y6508225D01*
X-5714558Y6369796D01*
X-5598954Y6254192D01*
X-5460525Y6167211D01*
X-5306211Y6113214D01*
X-5197904Y6101011D01*
X-5143751Y6094909D01*
X-5143750Y6094909D01*
X-5143749Y6094909D01*
X-5103135Y6099486D01*
X-4981289Y6113214D01*
X-4826975Y6167211D01*
X-4688546Y6254192D01*
X-4572942Y6369796D01*
X-4485961Y6508225D01*
X-4431964Y6662539D01*
X-4413659Y6825000D01*
X-4431964Y6987461D01*
X-4471620Y7100789D01*
X-4477384Y7177700D01*
X-4471619Y7199212D01*
X-4431964Y7312539D01*
X-4413659Y7475000D01*
X-4431964Y7637461D01*
X-4485961Y7791775D01*
X-4569672Y7925000D01*
X-2755091Y7925000D01*
X-2736787Y7762542D01*
X-2736787Y7762540D01*
X-2736786Y7762539D01*
X-2682789Y7608225D01*
X-2595808Y7469796D01*
X-2480204Y7354192D01*
X-2341775Y7267211D01*
X-2187461Y7213214D01*
X-2079154Y7201011D01*
X-2025001Y7194909D01*
X-2025000Y7194909D01*
X-2024999Y7194909D01*
X-1984385Y7199486D01*
X-1862539Y7213214D01*
X-1708225Y7267211D01*
X-1569796Y7354192D01*
X-1454192Y7469796D01*
X-1367211Y7608225D01*
X-1313214Y7762539D01*
X-1294909Y7925000D01*
X-1313214Y8087461D01*
X-1367211Y8241775D01*
X-1454192Y8380204D01*
X-1569796Y8495808D01*
X-1708225Y8582789D01*
X-1862539Y8636786D01*
X-1862540Y8636787D01*
X-1862542Y8636787D01*
X-2024999Y8655091D01*
X-2025001Y8655091D01*
X-2187459Y8636787D01*
X-2264618Y8609788D01*
X-2341775Y8582789D01*
X-2341777Y8582789D01*
X-2341777Y8582788D01*
X-2480204Y8495808D01*
X-2595808Y8380204D01*
X-2674350Y8255205D01*
X-2682789Y8241775D01*
X-2703601Y8182297D01*
X-2736787Y8087459D01*
X-2755091Y7925001D01*
X-2755091Y7925000D01*
X-4569672Y7925000D01*
X-4572942Y7930204D01*
X-4688546Y8045808D01*
X-4826975Y8132789D01*
X-4981289Y8186786D01*
X-4981290Y8186787D01*
X-4981292Y8186787D01*
X-5143749Y8205091D01*
X-5143751Y8205091D01*
X-5306209Y8186787D01*
X-5383368Y8159788D01*
X-5460525Y8132789D01*
X-5460527Y8132789D01*
X-5460527Y8132788D01*
X-5598954Y8045808D01*
X-5714558Y7930204D01*
X-5801538Y7791777D01*
X-5855537Y7637459D01*
X-5873841Y7475001D01*
X-5873841Y7475000D01*
X-5855536Y7312539D01*
X-5836378Y7257789D01*
X-5815881Y7199211D01*
X-5810118Y7122299D01*
X-5815881Y7100789D01*
X-5855536Y6987461D01*
X-5873841Y6825001D01*
X-5873841Y6825000D01*
X-8185098Y6825000D01*
X-8217211Y6916775D01*
X-8217213Y6916779D01*
X-8261626Y6987461D01*
X-8304192Y7055204D01*
X-8419796Y7170808D01*
X-8558225Y7257789D01*
X-8712539Y7311786D01*
X-8712540Y7311787D01*
X-8712542Y7311787D01*
X-8874999Y7330091D01*
X-8875001Y7330091D01*
X-9037459Y7311787D01*
X-9114618Y7284788D01*
X-9191775Y7257789D01*
X-9191777Y7257789D01*
X-9191777Y7257788D01*
X-9330204Y7170808D01*
X-9445808Y7055204D01*
X-9532788Y6916777D01*
X-9586787Y6762459D01*
X-9605091Y6600001D01*
X-9605091Y6600000D01*
X-20999500Y6600000D01*
X-20999500Y8637500D01*
X-13142591Y8637500D01*
X-13124287Y8475042D01*
X-13124287Y8475040D01*
X-13124286Y8475039D01*
X-13070289Y8320725D01*
X-12983308Y8182296D01*
X-12867704Y8066692D01*
X-12729275Y7979711D01*
X-12629878Y7944931D01*
X-12566154Y7901485D01*
X-12532689Y7831995D01*
X-12530091Y7804293D01*
X-12530091Y7800000D01*
X-12511787Y7637542D01*
X-12511787Y7637540D01*
X-12511786Y7637539D01*
X-12457789Y7483225D01*
X-12370808Y7344796D01*
X-12255204Y7229192D01*
X-12116775Y7142211D01*
X-11962461Y7088214D01*
X-11854154Y7076011D01*
X-11800001Y7069909D01*
X-11800000Y7069909D01*
X-11799999Y7069909D01*
X-11759385Y7074486D01*
X-11637539Y7088214D01*
X-11483225Y7142211D01*
X-11344796Y7229192D01*
X-11229192Y7344796D01*
X-11142211Y7483225D01*
X-11088214Y7637539D01*
X-11069909Y7800000D01*
X-11088214Y7962461D01*
X-11142211Y8116775D01*
X-11229192Y8255204D01*
X-11344796Y8370808D01*
X-11483225Y8457789D01*
X-11582622Y8492570D01*
X-11646347Y8536017D01*
X-11679811Y8605507D01*
X-11682409Y8633208D01*
X-11682409Y8637501D01*
X-11686634Y8675000D01*
X-8755460Y8675000D01*
X-8735675Y8486746D01*
X-8735674Y8486744D01*
X-8677179Y8306716D01*
X-8639685Y8241775D01*
X-8582531Y8142780D01*
X-8455873Y8002114D01*
X-8455871Y8002112D01*
X-8302730Y7890849D01*
X-8129803Y7813856D01*
X-7988685Y7783861D01*
X-7944648Y7774500D01*
X-7944646Y7774500D01*
X-7755352Y7774500D01*
X-7715996Y7782866D01*
X-7570197Y7813856D01*
X-7397270Y7890849D01*
X-7244129Y8002112D01*
X-7167280Y8087461D01*
X-7117470Y8142780D01*
X-7117469Y8142782D01*
X-7117467Y8142784D01*
X-7022821Y8306716D01*
X-6964326Y8486744D01*
X-6944540Y8675000D01*
X-6964326Y8863256D01*
X-7022821Y9043284D01*
X-7112076Y9197879D01*
X-7132037Y9272375D01*
X-7112075Y9346875D01*
X-7057537Y9401413D01*
X-6999721Y9420438D01*
X-6837539Y9438711D01*
X-6683225Y9492708D01*
X-6544796Y9579689D01*
X-6429192Y9695293D01*
X-6342211Y9833722D01*
X-6288214Y9988036D01*
X-6269909Y10150497D01*
X-6288214Y10312958D01*
X-6327783Y10426037D01*
X-6333547Y10502948D01*
X-6327783Y10524459D01*
X-6288214Y10637539D01*
X-6269909Y10800000D01*
X-6288214Y10962461D01*
X-6325772Y11069796D01*
X-6328044Y11076289D01*
X-6333807Y11153201D01*
X-6300342Y11222691D01*
X-6236616Y11266139D01*
X-6187405Y11274500D01*
X-6155352Y11274500D01*
X-6115996Y11282866D01*
X-5970197Y11313856D01*
X-5797270Y11390849D01*
X-5644129Y11502112D01*
X-5567781Y11586905D01*
X-5517470Y11642780D01*
X-5517469Y11642782D01*
X-5517467Y11642784D01*
X-5422821Y11806716D01*
X-5364497Y11986220D01*
X-5322493Y12050899D01*
X-5253771Y12085915D01*
X-5176749Y12081879D01*
X-5112064Y12039872D01*
X-5077048Y11971150D01*
X-5074329Y11952808D01*
X-5060616Y11791699D01*
X-5001618Y11565113D01*
X-5001615Y11565105D01*
X-4905174Y11351753D01*
X-4774061Y11157764D01*
X-4774059Y11157762D01*
X-4774057Y11157759D01*
X-4612044Y10988717D01*
X-4423792Y10849487D01*
X-4214718Y10744074D01*
X-3990837Y10675511D01*
X-3758589Y10645771D01*
X-3524655Y10655708D01*
X-3295766Y10705038D01*
X-3078506Y10792340D01*
X-2879125Y10915104D01*
X-2703359Y11069797D01*
X-2563868Y11242555D01*
X-2501537Y11287975D01*
X-2424843Y11296147D01*
X-2354339Y11264876D01*
X-2324495Y11232384D01*
X-2274061Y11157764D01*
X-2274059Y11157762D01*
X-2274057Y11157759D01*
X-2112044Y10988717D01*
X-1923792Y10849487D01*
X-1714718Y10744074D01*
X-1490837Y10675511D01*
X-1397478Y10663557D01*
X-1326118Y10634295D01*
X-1311044Y10621123D01*
X-734318Y10044397D01*
X-695754Y9977602D01*
X-695754Y9900474D01*
X-734318Y9833679D01*
X-746770Y9822551D01*
X-748949Y9820814D01*
X-864557Y9705205D01*
X-864558Y9705204D01*
X-945991Y9575604D01*
X-951539Y9566775D01*
X-977456Y9492710D01*
X-1005537Y9412459D01*
X-1023841Y9250001D01*
X-1023841Y9250000D01*
X-1005537Y9087542D01*
X-1005537Y9087540D01*
X-1005536Y9087539D01*
X-951539Y8933225D01*
X-864558Y8794796D01*
X-748954Y8679192D01*
X-610525Y8592211D01*
X-456211Y8538214D01*
X-347904Y8526011D01*
X-293751Y8519909D01*
X-293750Y8519909D01*
X-293749Y8519909D01*
X-253135Y8524486D01*
X-131289Y8538214D01*
X23025Y8592211D01*
X161454Y8679192D01*
X277058Y8794796D01*
X277062Y8794804D01*
X278788Y8796966D01*
X280468Y8798207D01*
X282975Y8800713D01*
X283352Y8800336D01*
X340842Y8842770D01*
X417484Y8851411D01*
X488179Y8820573D01*
X500646Y8809433D01*
X1039799Y8270280D01*
X1078363Y8203485D01*
X1078363Y8126357D01*
X1039799Y8059563D01*
X935447Y7955211D01*
X935442Y7955204D01*
X916464Y7925000D01*
X848461Y7816775D01*
X842592Y7800001D01*
X794463Y7662459D01*
X781245Y7545141D01*
X776159Y7500000D01*
X794464Y7337539D01*
X814985Y7278893D01*
X834119Y7224211D01*
X839882Y7147299D01*
X834119Y7125789D01*
X794464Y7012461D01*
X776159Y6850001D01*
X776159Y6850000D01*
X794463Y6687542D01*
X794463Y6687540D01*
X794464Y6687539D01*
X848461Y6533225D01*
X935442Y6394796D01*
X1051046Y6279192D01*
X1189475Y6192211D01*
X1343789Y6138214D01*
X1452096Y6126011D01*
X1506249Y6119909D01*
X1506250Y6119909D01*
X1506251Y6119909D01*
X1546865Y6124486D01*
X1668711Y6138214D01*
X1823025Y6192211D01*
X1961454Y6279192D01*
X2077058Y6394796D01*
X2164039Y6533225D01*
X2218036Y6687539D01*
X2224355Y6743627D01*
X2252532Y6815422D01*
X2312833Y6863510D01*
X2389100Y6875006D01*
X2460897Y6846829D01*
X2477777Y6832302D01*
X3030859Y6279220D01*
X3069423Y6212425D01*
X3074500Y6173861D01*
X3074500Y4649749D01*
X3089925Y4498066D01*
X3089925Y4498065D01*
X3150840Y4303914D01*
X3247257Y4130202D01*
X3249591Y4125998D01*
X3382134Y3971605D01*
X3418599Y3943379D01*
X3442590Y3924808D01*
X3489284Y3863420D01*
X3499449Y3790302D01*
X3494909Y3750004D01*
X3494909Y3750000D01*
X3513214Y3587539D01*
X3547082Y3490749D01*
X3569185Y3427583D01*
X3574948Y3350671D01*
X3545550Y3289626D01*
X3547056Y3288532D01*
X3542466Y3282216D01*
X3447822Y3118286D01*
X3447819Y3118279D01*
X3389325Y2938255D01*
X3369540Y2750000D01*
X3389325Y2561746D01*
X3429951Y2436714D01*
X3447821Y2381716D01*
X3473372Y2337461D01*
X3542469Y2217780D01*
X3648520Y2100000D01*
X3669129Y2077112D01*
X3822270Y1965849D01*
X3995197Y1888856D01*
X4136315Y1858861D01*
X4180352Y1849500D01*
X4180354Y1849500D01*
X4369648Y1849500D01*
X4409004Y1857866D01*
X4554803Y1888856D01*
X4727730Y1965849D01*
X4880871Y2077112D01*
X4969011Y2175001D01*
X5007530Y2217780D01*
X5007531Y2217782D01*
X5007533Y2217784D01*
X5102179Y2381716D01*
X5160674Y2561744D01*
X5180460Y2750000D01*
X5160674Y2938256D01*
X5102179Y3118284D01*
X5007533Y3282216D01*
X5007532Y3282217D01*
X5007530Y3282221D01*
X4938711Y3358651D01*
X4903695Y3427373D01*
X4907731Y3504395D01*
X4908770Y3507476D01*
X4917115Y3531325D01*
X4960563Y3595047D01*
X5030053Y3628511D01*
X5041051Y3630169D01*
X5112461Y3638214D01*
X5266775Y3692211D01*
X5405204Y3779192D01*
X5520808Y3894796D01*
X5607789Y4033225D01*
X5607789Y4033227D01*
X5612241Y4040311D01*
X5614035Y4039184D01*
X5656676Y4088732D01*
X5667454Y4094956D01*
X5673003Y4098444D01*
X5673009Y4098445D01*
X5811438Y4185426D01*
X5927042Y4301030D01*
X6014023Y4439459D01*
X6068020Y4593773D01*
X6074354Y4650000D01*
X12819909Y4650000D01*
X12838213Y4487542D01*
X12838213Y4487540D01*
X12838214Y4487539D01*
X12892211Y4333225D01*
X12979192Y4194796D01*
X13094796Y4079192D01*
X13233225Y3992211D01*
X13387539Y3938214D01*
X13495846Y3926011D01*
X13549999Y3919909D01*
X13550000Y3919909D01*
X13550001Y3919909D01*
X13593480Y3924808D01*
X13712461Y3938214D01*
X13866775Y3992211D01*
X14005204Y4079192D01*
X14120808Y4194796D01*
X14207789Y4333225D01*
X14261786Y4487539D01*
X14280091Y4650000D01*
X14261786Y4812461D01*
X14207789Y4966775D01*
X14120808Y5105204D01*
X14005204Y5220808D01*
X13866775Y5307789D01*
X13712461Y5361786D01*
X13712460Y5361787D01*
X13712458Y5361787D01*
X13550001Y5380091D01*
X13549999Y5380091D01*
X13387541Y5361787D01*
X13318251Y5337541D01*
X13233225Y5307789D01*
X13233223Y5307789D01*
X13233223Y5307788D01*
X13094796Y5220808D01*
X12979192Y5105204D01*
X12902547Y4983224D01*
X12892211Y4966775D01*
X12879060Y4929192D01*
X12838213Y4812459D01*
X12819909Y4650001D01*
X12819909Y4650000D01*
X6074354Y4650000D01*
X6075516Y4660311D01*
X6103693Y4732105D01*
X6163994Y4780194D01*
X6179605Y4785331D01*
X6179563Y4785451D01*
X6187458Y4788214D01*
X6187461Y4788214D01*
X6341775Y4842211D01*
X6480204Y4929192D01*
X6595808Y5044796D01*
X6682789Y5183225D01*
X6736786Y5337539D01*
X6740239Y5368184D01*
X6768418Y5439980D01*
X6828719Y5488068D01*
X6888302Y5500500D01*
X7625751Y5500500D01*
X7730762Y5511180D01*
X7777438Y5515926D01*
X7971588Y5576841D01*
X8149502Y5675591D01*
X8303895Y5808134D01*
X8428448Y5969042D01*
X8518060Y6151729D01*
X8569063Y6348715D01*
X8579369Y6551936D01*
X8548556Y6753071D01*
X8487927Y6916775D01*
X8477888Y6943882D01*
X8477883Y6943892D01*
X8370253Y7116570D01*
X8230060Y7264052D01*
X8225521Y7267211D01*
X8135179Y7330091D01*
X8063048Y7380296D01*
X7876063Y7460539D01*
X7876056Y7460541D01*
X7728294Y7490906D01*
X7676741Y7501500D01*
X7676740Y7501500D01*
X7050138Y7501500D01*
X6975638Y7521462D01*
X6944779Y7545141D01*
X4052628Y10437292D01*
X4014064Y10504087D01*
X4014064Y10581215D01*
X4052628Y10648010D01*
X4119423Y10686574D01*
X4126548Y10688296D01*
X4204234Y10705038D01*
X4421494Y10792340D01*
X4620875Y10915104D01*
X4796641Y11069797D01*
X4943735Y11251970D01*
X5057926Y11456381D01*
X5135929Y11677151D01*
X5166780Y11857078D01*
X5199044Y11927129D01*
X5262014Y11971666D01*
X5338816Y11978751D01*
X5408871Y11946486D01*
X5453408Y11883516D01*
X5455343Y11877939D01*
X5478485Y11806716D01*
X5478486Y11806715D01*
X5573133Y11642780D01*
X5691082Y11511786D01*
X5699793Y11502112D01*
X5852934Y11390849D01*
X6025861Y11313856D01*
X6147623Y11287975D01*
X6211016Y11274500D01*
X6211018Y11274500D01*
X6400312Y11274500D01*
X6439668Y11282866D01*
X6585467Y11313856D01*
X6758394Y11390849D01*
X6911535Y11502112D01*
X6987883Y11586905D01*
X7038194Y11642780D01*
X7038195Y11642782D01*
X7038197Y11642784D01*
X7132843Y11806716D01*
X7191338Y11986744D01*
X7211124Y12175000D01*
X7191338Y12363256D01*
X7132843Y12543284D01*
X7038197Y12707216D01*
X7038196Y12707217D01*
X7038194Y12707221D01*
X6911536Y12847887D01*
X6903254Y12853904D01*
X6758394Y12959151D01*
X6758393Y12959152D01*
X6758391Y12959153D01*
X6585469Y13036143D01*
X6585467Y13036144D01*
X6465369Y13061672D01*
X6426116Y13070015D01*
X6357394Y13105031D01*
X6315387Y13169716D01*
X6311351Y13246738D01*
X6346367Y13315460D01*
X6411052Y13357467D01*
X6426116Y13361503D01*
X6554803Y13388856D01*
X6727730Y13465849D01*
X6880871Y13577112D01*
X6960017Y13665012D01*
X7007530Y13717780D01*
X7007531Y13717782D01*
X7007533Y13717784D01*
X7102179Y13881716D01*
X7160674Y14061744D01*
X7180460Y14250000D01*
X7160674Y14438256D01*
X7102179Y14618284D01*
X7007533Y14782216D01*
X7007532Y14782217D01*
X7007530Y14782221D01*
X6880872Y14922887D01*
X6762139Y15009151D01*
X6727730Y15034151D01*
X6727729Y15034152D01*
X6727727Y15034153D01*
X6554800Y15111146D01*
X6548911Y15113059D01*
X6484227Y15155067D01*
X6449213Y15223790D01*
X6453252Y15300812D01*
X6495260Y15365496D01*
X6534350Y15390881D01*
X6702730Y15465849D01*
X6749735Y15500000D01*
X12095006Y15500000D01*
X12114965Y15131864D01*
X12114965Y15131858D01*
X12174613Y14768026D01*
X12174613Y14768024D01*
X12273247Y14412779D01*
X12273249Y14412774D01*
X12409709Y14070285D01*
X12409715Y14070272D01*
X12582404Y13744544D01*
X12582407Y13744539D01*
X12789303Y13439392D01*
X12789312Y13439380D01*
X12925496Y13279052D01*
X12925497Y13279052D01*
X14241350Y14594906D01*
X14295456Y14516520D01*
X14468816Y14336034D01*
X14594865Y14241314D01*
X13276520Y12922969D01*
X13295657Y12904841D01*
X13295658Y12904840D01*
X13589165Y12681722D01*
X13905066Y12491650D01*
X14239684Y12336840D01*
X14239694Y12336835D01*
X14589063Y12219120D01*
X14949131Y12139863D01*
X15315656Y12100001D01*
X15315666Y12100000D01*
X15684334Y12100000D01*
X15684343Y12100001D01*
X16050868Y12139863D01*
X16050869Y12139863D01*
X16410936Y12219120D01*
X16760305Y12336835D01*
X16760315Y12336840D01*
X17094933Y12491650D01*
X17410834Y12681722D01*
X17704352Y12904849D01*
X17723479Y12922968D01*
X16406879Y14239568D01*
X16434180Y14256832D01*
X16621501Y14422784D01*
X16760511Y14593042D01*
X18074501Y13279052D01*
X18210690Y13439383D01*
X18210694Y13439389D01*
X18417592Y13744539D01*
X18417595Y13744544D01*
X18590284Y14070272D01*
X18590290Y14070285D01*
X18726750Y14412774D01*
X18726752Y14412779D01*
X18825386Y14768024D01*
X18825386Y14768026D01*
X18885034Y15131858D01*
X18885034Y15131864D01*
X18904994Y15500000D01*
X18904994Y15500009D01*
X18885034Y15868137D01*
X18885034Y15868143D01*
X18825386Y16231975D01*
X18825386Y16231977D01*
X18726752Y16587222D01*
X18726750Y16587227D01*
X18590290Y16929716D01*
X18590284Y16929729D01*
X18417595Y17255457D01*
X18417592Y17255462D01*
X18210696Y17560609D01*
X18210687Y17560621D01*
X18074502Y17720950D01*
X18074501Y17720950D01*
X16758648Y16405097D01*
X16704544Y16483480D01*
X16531184Y16663966D01*
X16405132Y16758688D01*
X17723479Y18077034D01*
X17704347Y18095156D01*
X17410834Y18318279D01*
X17094933Y18508351D01*
X16760315Y18663161D01*
X16760305Y18663166D01*
X16410936Y18780881D01*
X16050868Y18860138D01*
X15684343Y18900000D01*
X15315656Y18900000D01*
X14949131Y18860138D01*
X14949130Y18860138D01*
X14589063Y18780881D01*
X14239694Y18663166D01*
X14239684Y18663161D01*
X13905066Y18508351D01*
X13589165Y18318279D01*
X13295663Y18095165D01*
X13276520Y18077033D01*
X14593120Y16760433D01*
X14565820Y16743168D01*
X14378499Y16577216D01*
X14239488Y16406959D01*
X12925497Y17720950D01*
X12925496Y17720950D01*
X12789308Y17560617D01*
X12789306Y17560614D01*
X12582402Y17255453D01*
X12409715Y16929729D01*
X12409709Y16929716D01*
X12273249Y16587227D01*
X12273247Y16587222D01*
X12174613Y16231977D01*
X12174613Y16231975D01*
X12114965Y15868143D01*
X12114965Y15868137D01*
X12095006Y15500009D01*
X12095006Y15500000D01*
X6749735Y15500000D01*
X6855871Y15577112D01*
X6982237Y15717455D01*
X6982530Y15717780D01*
X6982531Y15717782D01*
X6982533Y15717784D01*
X7077179Y15881716D01*
X7135674Y16061744D01*
X7155460Y16250000D01*
X7135674Y16438256D01*
X7077179Y16618284D01*
X6982533Y16782216D01*
X6982532Y16782217D01*
X6982530Y16782221D01*
X6855872Y16922887D01*
X6828110Y16943057D01*
X6702730Y17034151D01*
X6702729Y17034152D01*
X6702727Y17034153D01*
X6548791Y17102690D01*
X6529803Y17111144D01*
X6423360Y17133769D01*
X6344648Y17150500D01*
X6344646Y17150500D01*
X6155354Y17150500D01*
X6155352Y17150500D01*
X6055392Y17129253D01*
X5970197Y17111144D01*
X5970195Y17111144D01*
X5970194Y17111143D01*
X5797272Y17034153D01*
X5644127Y16922887D01*
X5517469Y16782221D01*
X5422822Y16618286D01*
X5422819Y16618279D01*
X5364325Y16438255D01*
X5344540Y16250000D01*
X5364325Y16061746D01*
X5398078Y15957866D01*
X5422821Y15881716D01*
X5463621Y15811049D01*
X5517469Y15717780D01*
X5644127Y15577114D01*
X5644129Y15577112D01*
X5797270Y15465849D01*
X5970197Y15388856D01*
X5970200Y15388856D01*
X5976082Y15386944D01*
X6040768Y15344939D01*
X6075784Y15276218D01*
X6071749Y15199195D01*
X6029744Y15134509D01*
X5990646Y15109118D01*
X5822271Y15034152D01*
X5669127Y14922887D01*
X5542469Y14782221D01*
X5447818Y14618279D01*
X5447449Y14617449D01*
X5447067Y14616979D01*
X5443917Y14611521D01*
X5443052Y14612021D01*
X5398907Y14557512D01*
X5326900Y14529875D01*
X5250723Y14541945D01*
X5190786Y14590487D01*
X5163149Y14662494D01*
X5162843Y14690364D01*
X5169279Y14768026D01*
X5180214Y14900000D01*
X5178317Y14922888D01*
X5164545Y15089102D01*
X5161390Y15127176D01*
X5105430Y15348155D01*
X5013862Y15556909D01*
X4889183Y15747745D01*
X4734794Y15915456D01*
X4560101Y16051426D01*
X4554905Y16055470D01*
X4455457Y16109288D01*
X4399437Y16162302D01*
X4377430Y16236224D01*
X4395331Y16311246D01*
X4400204Y16319591D01*
X4480456Y16447310D01*
X4536313Y16606941D01*
X4555249Y16775000D01*
X4536313Y16943059D01*
X4480456Y17102690D01*
X4390477Y17245890D01*
X4270890Y17365477D01*
X4127690Y17455456D01*
X3968059Y17511313D01*
X3968058Y17511314D01*
X3968056Y17511314D01*
X3800001Y17530249D01*
X3799999Y17530249D01*
X3631943Y17511314D01*
X3472309Y17455456D01*
X3329110Y17365477D01*
X3209523Y17245890D01*
X3119544Y17102691D01*
X3063686Y16943057D01*
X3044751Y16775001D01*
X3044751Y16775000D01*
X3063686Y16606944D01*
X3119544Y16447310D01*
X3199788Y16319603D01*
X3222522Y16245902D01*
X3205359Y16170707D01*
X3152899Y16114168D01*
X3144542Y16109289D01*
X3045099Y16055473D01*
X2865206Y15915457D01*
X2710817Y15747746D01*
X2674737Y15692521D01*
X2617278Y15641071D01*
X2541791Y15625243D01*
X2468504Y15649280D01*
X2425263Y15692521D01*
X2389182Y15747746D01*
X2330908Y15811049D01*
X2234794Y15915456D01*
X2060101Y16051426D01*
X2054905Y16055470D01*
X1955457Y16109288D01*
X1899437Y16162302D01*
X1877430Y16236224D01*
X1895331Y16311246D01*
X1900204Y16319591D01*
X1980456Y16447310D01*
X2036313Y16606941D01*
X2055249Y16775000D01*
X2036313Y16943059D01*
X1980456Y17102690D01*
X1890477Y17245890D01*
X1770890Y17365477D01*
X1627690Y17455456D01*
X1468059Y17511313D01*
X1468058Y17511314D01*
X1468056Y17511314D01*
X1300001Y17530249D01*
X1299999Y17530249D01*
X1131943Y17511314D01*
X972309Y17455456D01*
X829110Y17365477D01*
X709523Y17245890D01*
X619544Y17102691D01*
X563686Y16943057D01*
X544751Y16775001D01*
X544751Y16775000D01*
X563686Y16606944D01*
X619544Y16447310D01*
X699788Y16319603D01*
X722522Y16245902D01*
X705359Y16170707D01*
X652899Y16114168D01*
X644542Y16109289D01*
X545099Y16055473D01*
X365206Y15915457D01*
X210817Y15747746D01*
X174737Y15692521D01*
X117278Y15641071D01*
X41791Y15625243D01*
X-31496Y15649280D01*
X-74737Y15692521D01*
X-110818Y15747746D01*
X-169092Y15811049D01*
X-265206Y15915456D01*
X-439899Y16051426D01*
X-445095Y16055470D01*
X-544543Y16109288D01*
X-600563Y16162302D01*
X-622570Y16236224D01*
X-604669Y16311246D01*
X-599796Y16319591D01*
X-519544Y16447310D01*
X-463687Y16606941D01*
X-444751Y16775000D01*
X-463687Y16943059D01*
X-519544Y17102690D01*
X-609523Y17245890D01*
X-729110Y17365477D01*
X-872310Y17455456D01*
X-1031941Y17511313D01*
X-1031942Y17511314D01*
X-1031944Y17511314D01*
X-1199999Y17530249D01*
X-1200001Y17530249D01*
X-1368057Y17511314D01*
X-1527691Y17455456D01*
X-1670890Y17365477D01*
X-1790477Y17245890D01*
X-1880456Y17102691D01*
X-1936314Y16943057D01*
X-1955249Y16775001D01*
X-1955249Y16775000D01*
X-1936314Y16606944D01*
X-1880456Y16447310D01*
X-1800212Y16319603D01*
X-1777478Y16245902D01*
X-1794641Y16170707D01*
X-1847101Y16114168D01*
X-1855458Y16109289D01*
X-1954901Y16055473D01*
X-2134794Y15915457D01*
X-2289183Y15747746D01*
X-2325263Y15692521D01*
X-2382722Y15641071D01*
X-2458209Y15625243D01*
X-2531496Y15649280D01*
X-2574737Y15692521D01*
X-2610818Y15747746D01*
X-2669092Y15811049D01*
X-2765206Y15915456D01*
X-2939899Y16051426D01*
X-2945095Y16055470D01*
X-3044543Y16109288D01*
X-3100563Y16162302D01*
X-3122570Y16236224D01*
X-3104669Y16311246D01*
X-3099796Y16319591D01*
X-3019544Y16447310D01*
X-2963687Y16606941D01*
X-2944751Y16775000D01*
X-2963687Y16943059D01*
X-3019544Y17102690D01*
X-3109523Y17245890D01*
X-3229110Y17365477D01*
X-3372310Y17455456D01*
X-3531941Y17511313D01*
X-3531942Y17511314D01*
X-3531944Y17511314D01*
X-3699999Y17530249D01*
X-3700001Y17530249D01*
X-3868057Y17511314D01*
X-4027691Y17455456D01*
X-4170890Y17365477D01*
X-4290477Y17245890D01*
X-4380456Y17102691D01*
X-4436314Y16943057D01*
X-4455249Y16775001D01*
X-4455249Y16775000D01*
X-4436314Y16606944D01*
X-4380456Y16447310D01*
X-4300212Y16319603D01*
X-4277478Y16245902D01*
X-4294641Y16170707D01*
X-4347101Y16114168D01*
X-4355458Y16109289D01*
X-4454901Y16055473D01*
X-4634794Y15915457D01*
X-4789179Y15747750D01*
X-4789181Y15747748D01*
X-4789183Y15747745D01*
X-4828582Y15687440D01*
X-4913864Y15556907D01*
X-5005430Y15348157D01*
X-5061391Y15127172D01*
X-5080214Y14900002D01*
X-5080214Y14899999D01*
X-5061391Y14672829D01*
X-5061391Y14672826D01*
X-5061390Y14672824D01*
X-5041246Y14593279D01*
X-5005430Y14451844D01*
X-4913864Y14243094D01*
X-4913862Y14243091D01*
X-4789183Y14052255D01*
X-4634794Y13884544D01*
X-4454906Y13744531D01*
X-4405931Y13718027D01*
X-4349911Y13665012D01*
X-4327904Y13591091D01*
X-4345805Y13516069D01*
X-4398725Y13460107D01*
X-4520875Y13384897D01*
X-4696640Y13230205D01*
X-4843733Y13048034D01*
X-4957925Y12843622D01*
X-4957926Y12843620D01*
X-5035930Y12622847D01*
X-5076483Y12386337D01*
X-5108749Y12316282D01*
X-5171719Y12271746D01*
X-5248521Y12264661D01*
X-5318576Y12296927D01*
X-5363112Y12359897D01*
X-5365047Y12365474D01*
X-5375241Y12396849D01*
X-5422821Y12543284D01*
X-5517467Y12707216D01*
X-5517468Y12707217D01*
X-5517470Y12707221D01*
X-5644128Y12847887D01*
X-5652410Y12853904D01*
X-5797270Y12959151D01*
X-5797271Y12959152D01*
X-5797273Y12959153D01*
X-5970195Y13036143D01*
X-5970197Y13036144D01*
X-6055410Y13054257D01*
X-6124131Y13089272D01*
X-6166137Y13153957D01*
X-6170174Y13230979D01*
X-6135158Y13299701D01*
X-6070473Y13341707D01*
X-6055413Y13345743D01*
X-5970197Y13363856D01*
X-5797270Y13440849D01*
X-5644129Y13552112D01*
X-5568562Y13636037D01*
X-5517470Y13692780D01*
X-5517469Y13692782D01*
X-5517467Y13692784D01*
X-5422821Y13856716D01*
X-5364326Y14036744D01*
X-5344540Y14225000D01*
X-5364326Y14413256D01*
X-5422821Y14593284D01*
X-5517467Y14757216D01*
X-5517468Y14757217D01*
X-5517470Y14757221D01*
X-5644128Y14897887D01*
X-5678538Y14922887D01*
X-5797270Y15009151D01*
X-5797271Y15009152D01*
X-5797273Y15009153D01*
X-5970195Y15086143D01*
X-5970197Y15086144D01*
X-6009104Y15094414D01*
X-6077823Y15129428D01*
X-6119830Y15194113D01*
X-6123867Y15271136D01*
X-6088852Y15339857D01*
X-6024167Y15381864D01*
X-6009108Y15385900D01*
X-5995197Y15388856D01*
X-5822270Y15465849D01*
X-5669129Y15577112D01*
X-5542763Y15717455D01*
X-5542470Y15717780D01*
X-5542469Y15717782D01*
X-5542467Y15717784D01*
X-5447821Y15881716D01*
X-5389326Y16061744D01*
X-5369540Y16250000D01*
X-5389326Y16438256D01*
X-5447821Y16618284D01*
X-5542467Y16782216D01*
X-5542468Y16782217D01*
X-5542470Y16782221D01*
X-5669128Y16922887D01*
X-5696890Y16943057D01*
X-5822270Y17034151D01*
X-5822271Y17034152D01*
X-5822273Y17034153D01*
X-5976209Y17102690D01*
X-5995197Y17111144D01*
X-6101640Y17133769D01*
X-6180352Y17150500D01*
X-6180354Y17150500D01*
X-6369646Y17150500D01*
X-6369648Y17150500D01*
X-6469608Y17129253D01*
X-6554803Y17111144D01*
X-6554805Y17111144D01*
X-6554806Y17111143D01*
X-6727728Y17034153D01*
X-6880873Y16922887D01*
X-7007531Y16782221D01*
X-7102178Y16618286D01*
X-7102181Y16618279D01*
X-7160675Y16438255D01*
X-7180460Y16250000D01*
X-7160675Y16061746D01*
X-7126922Y15957866D01*
X-7102179Y15881716D01*
X-7061379Y15811049D01*
X-7007531Y15717780D01*
X-6880873Y15577114D01*
X-6880871Y15577112D01*
X-6727730Y15465849D01*
X-6554803Y15388856D01*
X-6515897Y15380587D01*
X-6447179Y15345574D01*
X-6405171Y15280890D01*
X-6401133Y15203868D01*
X-6436148Y15135145D01*
X-6500832Y15093137D01*
X-6515892Y15089102D01*
X-6529802Y15086145D01*
X-6702728Y15009153D01*
X-6855873Y14897887D01*
X-6982531Y14757221D01*
X-7077178Y14593286D01*
X-7077181Y14593279D01*
X-7135675Y14413255D01*
X-7155460Y14225000D01*
X-7135675Y14036746D01*
X-7107489Y13950000D01*
X-7077179Y13856716D01*
X-7077178Y13856715D01*
X-6982531Y13692780D01*
X-6859305Y13555926D01*
X-6855871Y13552112D01*
X-6702730Y13440849D01*
X-6702729Y13440849D01*
X-6702728Y13440848D01*
X-6699431Y13439380D01*
X-6529803Y13363856D01*
X-6444592Y13345744D01*
X-6375870Y13310728D01*
X-6333863Y13246043D01*
X-6329827Y13169021D01*
X-6364843Y13100299D01*
X-6429528Y13058292D01*
X-6444592Y13054257D01*
X-6529803Y13036144D01*
X-6529805Y13036144D01*
X-6529806Y13036143D01*
X-6702728Y12959153D01*
X-6855873Y12847887D01*
X-6982531Y12707221D01*
X-7077178Y12543286D01*
X-7077181Y12543279D01*
X-7135675Y12363255D01*
X-7155460Y12175000D01*
X-7135675Y11986746D01*
X-7077181Y11806722D01*
X-7077179Y11806716D01*
X-7077178Y11806715D01*
X-7036296Y11735905D01*
X-7016334Y11661404D01*
X-7036296Y11586905D01*
X-7090834Y11532367D01*
X-7148651Y11513342D01*
X-7162459Y11511787D01*
X-7190102Y11502114D01*
X-7316775Y11457789D01*
X-7316777Y11457789D01*
X-7316777Y11457788D01*
X-7455204Y11370808D01*
X-7570808Y11255204D01*
X-7657788Y11116777D01*
X-7711787Y10962459D01*
X-7717122Y10915104D01*
X-7730091Y10800000D01*
X-7712714Y10645771D01*
X-7711786Y10637540D01*
X-7672218Y10524459D01*
X-7666455Y10447546D01*
X-7672218Y10426037D01*
X-7711786Y10312958D01*
X-7730091Y10150498D01*
X-7730091Y10150497D01*
X-7711787Y9988039D01*
X-7711787Y9988037D01*
X-7711786Y9988036D01*
X-7681147Y9900474D01*
X-7657788Y9833720D01*
X-7638971Y9803773D01*
X-7616237Y9730071D01*
X-7633400Y9654877D01*
X-7685860Y9598338D01*
X-7759562Y9575604D01*
X-7765133Y9575500D01*
X-7944648Y9575500D01*
X-8044608Y9554253D01*
X-8129803Y9536144D01*
X-8129805Y9536144D01*
X-8129806Y9536143D01*
X-8302728Y9459153D01*
X-8455873Y9347887D01*
X-8582531Y9207221D01*
X-8677178Y9043286D01*
X-8677181Y9043279D01*
X-8735675Y8863255D01*
X-8755460Y8675000D01*
X-11686634Y8675000D01*
X-11700377Y8796966D01*
X-11700714Y8799961D01*
X-11754711Y8954275D01*
X-11841692Y9092704D01*
X-11957296Y9208308D01*
X-12095725Y9295289D01*
X-12250039Y9349286D01*
X-12250040Y9349287D01*
X-12250042Y9349287D01*
X-12412499Y9367591D01*
X-12412501Y9367591D01*
X-12574959Y9349287D01*
X-12652118Y9322288D01*
X-12729275Y9295289D01*
X-12729277Y9295289D01*
X-12729277Y9295288D01*
X-12867704Y9208308D01*
X-12983308Y9092704D01*
X-13014359Y9043286D01*
X-13070289Y8954275D01*
X-13077655Y8933225D01*
X-13124287Y8799959D01*
X-13142591Y8637501D01*
X-13142591Y8637500D01*
X-20999500Y8637500D01*
X-20999500Y15500000D01*
X-18904994Y15500000D01*
X-18885035Y15131864D01*
X-18885035Y15131858D01*
X-18825387Y14768026D01*
X-18825387Y14768024D01*
X-18726753Y14412779D01*
X-18726751Y14412774D01*
X-18590291Y14070285D01*
X-18590285Y14070272D01*
X-18417596Y13744544D01*
X-18417593Y13744539D01*
X-18210697Y13439392D01*
X-18210688Y13439380D01*
X-18074504Y13279052D01*
X-18074503Y13279052D01*
X-16758650Y14594906D01*
X-16704544Y14516520D01*
X-16531184Y14336034D01*
X-16405135Y14241314D01*
X-17723480Y12922969D01*
X-17704343Y12904841D01*
X-17704342Y12904840D01*
X-17410835Y12681722D01*
X-17094934Y12491650D01*
X-16760316Y12336840D01*
X-16760306Y12336835D01*
X-16410937Y12219120D01*
X-16050869Y12139863D01*
X-15684344Y12100001D01*
X-15684334Y12100000D01*
X-15315666Y12100000D01*
X-15315657Y12100001D01*
X-14949132Y12139863D01*
X-14949131Y12139863D01*
X-14589064Y12219120D01*
X-14239695Y12336835D01*
X-14239685Y12336840D01*
X-13905067Y12491650D01*
X-13589166Y12681722D01*
X-13295648Y12904849D01*
X-13276521Y12922968D01*
X-14593121Y14239568D01*
X-14565820Y14256832D01*
X-14378499Y14422784D01*
X-14239489Y14593042D01*
X-12925499Y13279052D01*
X-12789310Y13439383D01*
X-12789306Y13439389D01*
X-12582408Y13744539D01*
X-12582405Y13744544D01*
X-12409716Y14070272D01*
X-12409710Y14070285D01*
X-12273250Y14412774D01*
X-12273248Y14412779D01*
X-12174614Y14768024D01*
X-12174614Y14768026D01*
X-12114966Y15131858D01*
X-12114966Y15131864D01*
X-12095006Y15500000D01*
X-12095006Y15500009D01*
X-12114966Y15868137D01*
X-12114966Y15868143D01*
X-12174614Y16231975D01*
X-12174614Y16231977D01*
X-12273248Y16587222D01*
X-12273250Y16587227D01*
X-12409710Y16929716D01*
X-12409716Y16929729D01*
X-12582405Y17255457D01*
X-12582408Y17255462D01*
X-12789304Y17560609D01*
X-12789313Y17560621D01*
X-12925498Y17720950D01*
X-12925499Y17720950D01*
X-14241352Y16405097D01*
X-14295456Y16483480D01*
X-14468816Y16663966D01*
X-14594868Y16758688D01*
X-13276521Y18077034D01*
X-13295653Y18095156D01*
X-13589166Y18318279D01*
X-13905067Y18508351D01*
X-14239685Y18663161D01*
X-14239695Y18663166D01*
X-14589064Y18780881D01*
X-14949132Y18860138D01*
X-15315657Y18900000D01*
X-15684344Y18900000D01*
X-16050869Y18860138D01*
X-16050870Y18860138D01*
X-16410937Y18780881D01*
X-16760306Y18663166D01*
X-16760316Y18663161D01*
X-17094934Y18508351D01*
X-17410835Y18318279D01*
X-17704337Y18095165D01*
X-17723480Y18077033D01*
X-16406880Y16760433D01*
X-16434180Y16743168D01*
X-16621501Y16577216D01*
X-16760512Y16406959D01*
X-18074503Y17720950D01*
X-18074504Y17720950D01*
X-18210692Y17560617D01*
X-18210694Y17560614D01*
X-18417598Y17255453D01*
X-18590285Y16929729D01*
X-18590291Y16929716D01*
X-18726751Y16587227D01*
X-18726753Y16587222D01*
X-18825387Y16231977D01*
X-18825387Y16231975D01*
X-18885035Y15868143D01*
X-18885035Y15868137D01*
X-18904994Y15500009D01*
X-18904994Y15500000D01*
X-20999500Y15500000D01*
X-20996311Y15577112D01*
X-20990492Y15717784D01*
X-20980008Y15957908D01*
X-20979511Y15963817D01*
X-20950917Y16193206D01*
X-20920869Y16421442D01*
X-20919923Y16426988D01*
X-20908078Y16483480D01*
X-20872030Y16655405D01*
X-20822623Y16878260D01*
X-20821298Y16883365D01*
X-20809532Y16922887D01*
X-20754409Y17108042D01*
X-20685973Y17325092D01*
X-20684360Y17329668D01*
X-20598906Y17548667D01*
X-20511922Y17758666D01*
X-20510088Y17762733D01*
X-20406638Y17974345D01*
X-20301728Y18175873D01*
X-20299692Y18179524D01*
X-20178980Y18382105D01*
X-20178972Y18382116D01*
X-20056915Y18573709D01*
X-20054752Y18576915D01*
X-19917560Y18769064D01*
X-19779196Y18949383D01*
X-19777022Y18952079D01*
X-19624282Y19132418D01*
X-19469596Y19301229D01*
X-19301229Y19469596D01*
X-19132435Y19624268D01*
X-18952079Y19777022D01*
X-18949383Y19779196D01*
X-18769064Y19917560D01*
X-18576915Y20054752D01*
X-18573709Y20056915D01*
X-18382110Y20178977D01*
X-18179524Y20299692D01*
X-18175873Y20301728D01*
X-17974352Y20406634D01*
X-17762733Y20510088D01*
X-17758666Y20511922D01*
X-17548667Y20598906D01*
X-17329668Y20684360D01*
X-17325092Y20685973D01*
X-17108042Y20754409D01*
X-16883360Y20821300D01*
X-16878260Y20822623D01*
X-16655405Y20872030D01*
X-16426988Y20919923D01*
X-16421442Y20920869D01*
X-16193201Y20950919D01*
X-15963817Y20979511D01*
X-15957908Y20980008D01*
X-15717577Y20990501D01*
X-15500000Y20999500D01*
X-15499500Y20999500D01*
X15499500Y20999500D01*
X15500000Y20999500D01*
X15717445Y20990507D01*
G37*
%TD.AperFunction*%
%TD*%
M02*
