%TF.GenerationSoftware,KiCad,Pcbnew,7.0.10*%
%TF.CreationDate,2024-01-29T19:46:04-05:00*%
%TF.ProjectId,lemon-pepper,6c656d6f-6e2d-4706-9570-7065722e6b69,rev?*%
%TF.SameCoordinates,PX8b85c60PY52f2218*%
%TF.FileFunction,Copper,L3,Inr*%
%TF.FilePolarity,Positive*%
%FSLAX46Y46*%
G04 Gerber Fmt 4.6, Leading zero omitted, Abs format (unit mm)*
G04 Created by KiCad (PCBNEW 7.0.10) date 2024-01-29 19:46:04*
%MOMM*%
%LPD*%
G01*
G04 APERTURE LIST*
G04 Aperture macros list*
%AMRoundRect*
0 Rectangle with rounded corners*
0 $1 Rounding radius*
0 $2 $3 $4 $5 $6 $7 $8 $9 X,Y pos of 4 corners*
0 Add a 4 corners polygon primitive as box body*
4,1,4,$2,$3,$4,$5,$6,$7,$8,$9,$2,$3,0*
0 Add four circle primitives for the rounded corners*
1,1,$1+$1,$2,$3*
1,1,$1+$1,$4,$5*
1,1,$1+$1,$6,$7*
1,1,$1+$1,$8,$9*
0 Add four rect primitives between the rounded corners*
20,1,$1+$1,$2,$3,$4,$5,0*
20,1,$1+$1,$4,$5,$6,$7,0*
20,1,$1+$1,$6,$7,$8,$9,0*
20,1,$1+$1,$8,$9,$2,$3,0*%
G04 Aperture macros list end*
%TA.AperFunction,ComponentPad*%
%ADD10C,5.800000*%
%TD*%
%TA.AperFunction,ComponentPad*%
%ADD11C,1.000000*%
%TD*%
%TA.AperFunction,HeatsinkPad*%
%ADD12C,0.500000*%
%TD*%
%TA.AperFunction,ComponentPad*%
%ADD13O,1.750000X1.750000*%
%TD*%
%TA.AperFunction,ComponentPad*%
%ADD14O,1.750000X2.000000*%
%TD*%
%TA.AperFunction,ComponentPad*%
%ADD15RoundRect,0.250000X0.600000X0.725000X-0.600000X0.725000X-0.600000X-0.725000X0.600000X-0.725000X0*%
%TD*%
%TA.AperFunction,ComponentPad*%
%ADD16O,1.700000X1.950000*%
%TD*%
%TA.AperFunction,ViaPad*%
%ADD17C,0.800000*%
%TD*%
%TA.AperFunction,ViaPad*%
%ADD18C,0.450000*%
%TD*%
%TA.AperFunction,Conductor*%
%ADD19C,0.400000*%
%TD*%
G04 APERTURE END LIST*
D10*
%TO.N,GND*%
%TO.C,H101*%
X-15500000Y15500000D03*
X-15500000Y-15500000D03*
X15500000Y15500000D03*
X15500000Y-15500000D03*
%TD*%
D11*
%TO.N,GND*%
%TO.C,J201*%
X-9426777Y-6032664D03*
X-12467336Y-9073223D03*
X-6032664Y-9426777D03*
X-9073223Y-12467336D03*
%TD*%
D12*
%TO.N,/current sense/U_OUT*%
%TO.C,M101*%
X-3700000Y16775000D03*
D13*
X-3700000Y14900000D03*
D14*
X-3700000Y12150000D03*
D12*
%TO.N,/current sense/W_IN*%
X-1200000Y16775000D03*
D13*
X-1200000Y14900000D03*
D14*
X-1200000Y12150000D03*
D12*
%TO.N,/half bridges/OUT1B*%
X1300000Y16775000D03*
D13*
X1300000Y14900000D03*
D14*
X1300000Y12150000D03*
D12*
%TO.N,/current sense/V_OUT*%
X3800000Y16775000D03*
D13*
X3800000Y14900000D03*
D14*
X3800000Y12150000D03*
%TD*%
D15*
%TO.N,Vmot*%
%TO.C,J101*%
X7225000Y-14725000D03*
D16*
%TO.N,GND*%
X4725000Y-14725000D03*
%TO.N,/mcu/CANL*%
X2225000Y-14725000D03*
%TO.N,/mcu/CANH*%
X-275000Y-14725000D03*
%TD*%
D17*
%TO.N,GND*%
X-5130000Y5450000D03*
%TO.N,+3V3*%
X-10100000Y7275000D03*
%TO.N,GND*%
X-5143750Y7475000D03*
X7675000Y2750000D03*
X-14630320Y-2499121D03*
X-5143750Y6825000D03*
X-2375000Y-14600000D03*
X-11650000Y1950000D03*
X-10375000Y675000D03*
X-9125000Y1975000D03*
X16675000Y-11200000D03*
X-10375000Y1950000D03*
X10585647Y5435647D03*
X11325000Y4725000D03*
X-10375000Y3150000D03*
X3475000Y-11825000D03*
X-1950000Y-1300000D03*
X3475000Y-10900000D03*
X8675000Y2725000D03*
X8070845Y-7288732D03*
X-4139000Y-1975000D03*
X1506250Y6850000D03*
X1475000Y-6125000D03*
X9910647Y6110647D03*
X-7550000Y-13000000D03*
X-250000Y-6800000D03*
X-1975000Y50000D03*
X-5395400Y-6375500D03*
X-2400000Y-16525000D03*
X7700000Y3775000D03*
X2223639Y600498D03*
X1506250Y7500000D03*
X2325000Y-11850000D03*
%TO.N,Vmot*%
X13575000Y-675000D03*
X3900000Y650000D03*
X-6275000Y16250000D03*
X4550000Y0D03*
X6305664Y12175000D03*
X6275000Y14250000D03*
X9950000Y-3975000D03*
X13575500Y-1567997D03*
X9025000Y-4375000D03*
X5450000Y175000D03*
X-6250000Y12175000D03*
X-6250000Y14225000D03*
X9850000Y-5000000D03*
X6250000Y16250000D03*
D18*
%TO.N,/mcu/USBD_P*%
X-5375000Y-10325000D03*
X-9650000Y-8850000D03*
X-8825000Y-9650000D03*
D17*
%TO.N,+3V3*%
X500000Y-12150000D03*
X-5075000Y-1225000D03*
X-6250000Y-16625000D03*
X-1700000Y-12150000D03*
X-625000Y-12150000D03*
X16075000Y-2500000D03*
X15625000Y-3350000D03*
X-12874972Y-2731439D03*
X2225000Y1600000D03*
X16550000Y-3375000D03*
X-2200000Y-11200000D03*
X220000Y9205000D03*
X-1125000Y-11200000D03*
X-7820000Y8645000D03*
X-300000Y-8700000D03*
X-10524127Y-3153111D03*
D18*
%TO.N,/mcu/RESET*%
X-15925000Y3250000D03*
X-11500000Y9605000D03*
X-3150000Y-6775000D03*
D17*
%TO.N,/current sense/W_IN*%
X4075000Y4700500D03*
X4075000Y5575000D03*
D18*
%TO.N,/current sense/U_SENSE*%
X-7060000Y10655000D03*
X-15325000Y3275000D03*
%TO.N,/current sense/V_SENSE*%
X-1000000Y7705000D03*
X-8906524Y-3034784D03*
D17*
%TO.N,/usb/USB_5V*%
X-9725000Y-11475000D03*
X-11550000Y-9800000D03*
X-6975000Y-8750000D03*
X-4725000Y-8900000D03*
X-8806854Y-7050000D03*
D18*
%TO.N,/mcu/USER_2*%
X-11950000Y-5525000D03*
X-15525241Y-5099495D03*
D17*
%TO.N,Net-(D603-K)*%
X4750000Y-1600000D03*
X4275000Y2750000D03*
D18*
%TO.N,Net-(D601-K)*%
X6025000Y5500000D03*
X10925000Y925000D03*
%TO.N,/usb/UCPD_CC2*%
X-7700000Y-10825000D03*
X-6075000Y-10850000D03*
%TO.N,/half bridges/ENA*%
X9150000Y-400000D03*
X4225000Y3750000D03*
X-9350000Y-3400000D03*
%TO.N,/encoder/SCK*%
X775000Y-4000000D03*
X-16600000Y2175000D03*
%TO.N,/encoder/CIPO*%
X-15900000Y1550000D03*
X-600000Y-4000000D03*
%TO.N,/encoder/COPI*%
X62132Y-4000000D03*
X-15925000Y2175000D03*
%TO.N,/encoder/CS*%
X1425000Y-4000000D03*
X-14650000Y-800000D03*
%TO.N,/encoder/CAL_EN*%
X-15900000Y400000D03*
X-1225000Y-3975000D03*
%TO.N,/mcu/USER_3*%
X-11250000Y-5450000D03*
X-15522442Y-4525000D03*
X-8350000Y-2625000D03*
X-5525000Y3150000D03*
%TO.N,/mcu/USER_1*%
X-11060733Y-6359180D03*
X-15524934Y-5673997D03*
%TO.N,/mcu/CAN_TX*%
X-3775000Y2675000D03*
X-7000021Y5305275D03*
%TO.N,/mcu/CAN_RX*%
X-6208321Y5326679D03*
X-3775000Y2100000D03*
%TO.N,/half bridges/IN2B*%
X4950000Y4350000D03*
X-14425000Y4075000D03*
%TO.N,/mcu/TIM4_CH1*%
X-7575000Y5300000D03*
X-14750000Y-150000D03*
%TO.N,/half bridges/IN1A*%
X-6375000Y-1425000D03*
X9550000Y25000D03*
%TO.N,/half bridges/IN2A*%
X9950000Y450000D03*
X-6950497Y-1450000D03*
%TO.N,/half bridges/IN1B*%
X-13975000Y4500000D03*
X5356234Y4756234D03*
%TO.N,/mcu/TIM4_CH2*%
X-15325000Y-575000D03*
X-7968766Y5718766D03*
D17*
%TO.N,/half bridges/OUT1B*%
X7575000Y6501000D03*
X6625000Y6500000D03*
D18*
%TO.N,/mcu/DIR*%
X2625000Y-3975000D03*
X-4600000Y2075000D03*
X-7525000Y-1450000D03*
%TO.N,/mcu/STEP*%
X-2700000Y-3900000D03*
X-4600497Y2675000D03*
%TO.N,/mcu/ADC1_IN12*%
X-14850000Y3675000D03*
X-8240000Y11265000D03*
%TO.N,/mcu/USER_BTN*%
X-11860000Y8425000D03*
X13550000Y4650000D03*
%TO.N,/current sense/GAIN_1*%
X-8765000Y7420000D03*
X-84208Y6245221D03*
%TO.N,/current sense/GAIN_0*%
X-3983000Y5788000D03*
X490000Y6215000D03*
X-8560000Y6755000D03*
%TD*%
D19*
%TO.N,/current sense/W_IN*%
X-1200000Y11925000D02*
X-1200000Y12150000D01*
X4075000Y6650000D02*
X-1200000Y11925000D01*
X4075000Y4700500D02*
X4075000Y6650000D01*
%TO.N,/half bridges/OUT1B*%
X7575000Y6501000D02*
X6574000Y6501000D01*
X1500000Y11575000D02*
X1500000Y12150000D01*
X6574000Y6501000D02*
X1500000Y11575000D01*
X1500000Y12150000D02*
X1300000Y12150000D01*
%TD*%
%TA.AperFunction,Conductor*%
%TO.N,GND*%
G36*
X15503070Y20999374D02*
G01*
X15717453Y20990506D01*
X15717453Y20990500D01*
X15717738Y20990495D01*
X15717776Y20990493D01*
X15954898Y20980139D01*
X15966781Y20979141D01*
X16192972Y20950947D01*
X16193553Y20950872D01*
X16418634Y20921240D01*
X16429710Y20919353D01*
X16654617Y20872195D01*
X16656162Y20871861D01*
X16875654Y20823201D01*
X16885888Y20820547D01*
X17106975Y20754727D01*
X17109003Y20754105D01*
X17322706Y20686725D01*
X17332003Y20683449D01*
X17547322Y20599431D01*
X17549955Y20598372D01*
X17756481Y20512826D01*
X17764871Y20509042D01*
X17972782Y20407401D01*
X17975911Y20405822D01*
X18173925Y20302742D01*
X18181383Y20298584D01*
X18380249Y20180085D01*
X18383953Y20177803D01*
X18572017Y20057992D01*
X18578539Y20053591D01*
X18766955Y19919065D01*
X18771080Y19916011D01*
X18947909Y19780326D01*
X18953485Y19775830D01*
X19033815Y19707794D01*
X19130181Y19626175D01*
X19134545Y19622331D01*
X19298848Y19471776D01*
X19303544Y19467280D01*
X19467278Y19303546D01*
X19471774Y19298850D01*
X19622329Y19134547D01*
X19626173Y19130183D01*
X19775813Y18953505D01*
X19780324Y18947911D01*
X19916009Y18771082D01*
X19919063Y18766957D01*
X20053589Y18578541D01*
X20057990Y18572019D01*
X20177775Y18383996D01*
X20180109Y18380209D01*
X20298579Y18181390D01*
X20302744Y18173920D01*
X20353180Y18077034D01*
X20405788Y17975975D01*
X20407432Y17972719D01*
X20434248Y17917866D01*
X20509031Y17764893D01*
X20512828Y17756474D01*
X20598325Y17550068D01*
X20599469Y17547222D01*
X20613481Y17511314D01*
X20683436Y17332035D01*
X20686733Y17322677D01*
X20754063Y17109134D01*
X20754765Y17106844D01*
X20820540Y16885908D01*
X20823202Y16875642D01*
X20871849Y16656209D01*
X20872210Y16654537D01*
X20919346Y16429737D01*
X20921242Y16418608D01*
X20950839Y16193793D01*
X20950970Y16192775D01*
X20979137Y15966806D01*
X20980139Y15954875D01*
X20990490Y15717797D01*
X20990497Y15717455D01*
X20990505Y15717455D01*
X20999373Y15503071D01*
X20999500Y15496913D01*
X20999500Y-15496912D01*
X20999373Y-15503070D01*
X20990505Y-15717454D01*
X20990490Y-15717795D01*
X20980139Y-15954873D01*
X20979137Y-15966804D01*
X20950970Y-16192773D01*
X20950839Y-16193791D01*
X20921242Y-16418606D01*
X20919346Y-16429735D01*
X20872210Y-16654535D01*
X20871849Y-16656207D01*
X20823202Y-16875640D01*
X20820540Y-16885906D01*
X20754765Y-17106842D01*
X20754063Y-17109132D01*
X20686733Y-17322675D01*
X20683436Y-17332033D01*
X20599474Y-17547209D01*
X20598325Y-17550066D01*
X20512828Y-17756472D01*
X20509031Y-17764891D01*
X20414577Y-17958101D01*
X20407487Y-17972607D01*
X20407466Y-17972649D01*
X20405769Y-17976011D01*
X20302744Y-18173918D01*
X20298579Y-18181388D01*
X20180109Y-18380207D01*
X20177775Y-18383994D01*
X20057990Y-18572017D01*
X20053589Y-18578539D01*
X19919063Y-18766955D01*
X19916009Y-18771080D01*
X19780324Y-18947909D01*
X19775813Y-18953503D01*
X19626173Y-19130181D01*
X19622329Y-19134545D01*
X19471774Y-19298848D01*
X19467278Y-19303544D01*
X19303544Y-19467278D01*
X19298848Y-19471774D01*
X19134545Y-19622329D01*
X19130181Y-19626173D01*
X18953503Y-19775813D01*
X18947909Y-19780324D01*
X18771080Y-19916009D01*
X18766955Y-19919063D01*
X18578539Y-20053589D01*
X18572017Y-20057990D01*
X18383994Y-20177775D01*
X18380207Y-20180109D01*
X18181388Y-20298579D01*
X18173918Y-20302744D01*
X17976011Y-20405769D01*
X17972649Y-20407466D01*
X17764891Y-20509031D01*
X17756472Y-20512828D01*
X17550066Y-20598325D01*
X17547209Y-20599474D01*
X17332033Y-20683436D01*
X17322675Y-20686733D01*
X17109132Y-20754063D01*
X17106842Y-20754765D01*
X16885906Y-20820540D01*
X16875640Y-20823202D01*
X16656207Y-20871849D01*
X16654535Y-20872210D01*
X16429735Y-20919346D01*
X16418606Y-20921242D01*
X16193791Y-20950839D01*
X16192773Y-20950970D01*
X15966804Y-20979137D01*
X15954873Y-20980139D01*
X15717795Y-20990490D01*
X15717454Y-20990505D01*
X15503070Y-20999373D01*
X15496912Y-20999500D01*
X-15496912Y-20999500D01*
X-15503070Y-20999373D01*
X-15717455Y-20990505D01*
X-15717455Y-20990497D01*
X-15717797Y-20990490D01*
X-15954875Y-20980139D01*
X-15966806Y-20979137D01*
X-16192692Y-20950981D01*
X-16193712Y-20950850D01*
X-16418624Y-20921238D01*
X-16429751Y-20919342D01*
X-16654509Y-20872216D01*
X-16656182Y-20871855D01*
X-16875641Y-20823202D01*
X-16885905Y-20820540D01*
X-17106843Y-20754765D01*
X-17109134Y-20754063D01*
X-17322677Y-20686733D01*
X-17332035Y-20683436D01*
X-17547211Y-20599474D01*
X-17550068Y-20598325D01*
X-17756474Y-20512828D01*
X-17764894Y-20509030D01*
X-17972609Y-20407485D01*
X-17975970Y-20405790D01*
X-18173944Y-20302731D01*
X-18181414Y-20298565D01*
X-18380192Y-20180118D01*
X-18383978Y-20177785D01*
X-18572021Y-20057989D01*
X-18578544Y-20053587D01*
X-18766957Y-19919063D01*
X-18771082Y-19916009D01*
X-18947911Y-19780324D01*
X-18953505Y-19775813D01*
X-19130183Y-19626173D01*
X-19134547Y-19622329D01*
X-19298850Y-19471774D01*
X-19303546Y-19467278D01*
X-19467280Y-19303544D01*
X-19471776Y-19298848D01*
X-19622331Y-19134545D01*
X-19626175Y-19130181D01*
X-19707794Y-19033815D01*
X-19775830Y-18953485D01*
X-19780326Y-18947909D01*
X-19916011Y-18771080D01*
X-19919065Y-18766955D01*
X-20053589Y-18578542D01*
X-20057982Y-18572033D01*
X-20177789Y-18383973D01*
X-20180120Y-18380190D01*
X-20298567Y-18181412D01*
X-20302725Y-18173957D01*
X-20405809Y-17975934D01*
X-20407469Y-17972643D01*
X-20509035Y-17764886D01*
X-20512830Y-17756472D01*
X-20598372Y-17549955D01*
X-20599431Y-17547322D01*
X-20683449Y-17332003D01*
X-20686725Y-17322706D01*
X-20754104Y-17109005D01*
X-20754737Y-17106939D01*
X-20820542Y-16885903D01*
X-20823202Y-16875650D01*
X-20871888Y-16656037D01*
X-20872212Y-16654535D01*
X-20919344Y-16429749D01*
X-20921240Y-16418622D01*
X-20924976Y-16390247D01*
X-20950912Y-16193246D01*
X-20950926Y-16193137D01*
X-20979141Y-15966781D01*
X-20980139Y-15954898D01*
X-20990493Y-15717786D01*
X-20999373Y-15503070D01*
X-20999436Y-15500008D01*
X-18904994Y-15500008D01*
X-18885035Y-15868136D01*
X-18885035Y-15868142D01*
X-18825387Y-16231974D01*
X-18825387Y-16231976D01*
X-18726753Y-16587221D01*
X-18726751Y-16587226D01*
X-18590291Y-16929715D01*
X-18590285Y-16929728D01*
X-18417596Y-17255456D01*
X-18417593Y-17255461D01*
X-18210697Y-17560608D01*
X-18210688Y-17560620D01*
X-18074504Y-17720948D01*
X-18074503Y-17720948D01*
X-16758650Y-16405094D01*
X-16704544Y-16483480D01*
X-16531184Y-16663966D01*
X-16405135Y-16758686D01*
X-17723480Y-18077031D01*
X-17704343Y-18095159D01*
X-17704342Y-18095160D01*
X-17410835Y-18318278D01*
X-17094934Y-18508350D01*
X-16760316Y-18663160D01*
X-16760306Y-18663165D01*
X-16410937Y-18780880D01*
X-16050869Y-18860137D01*
X-15684344Y-18899999D01*
X-15684334Y-18900000D01*
X-15315666Y-18900000D01*
X-15315657Y-18899999D01*
X-14949132Y-18860137D01*
X-14949131Y-18860137D01*
X-14589064Y-18780880D01*
X-14239695Y-18663165D01*
X-14239685Y-18663160D01*
X-13905067Y-18508350D01*
X-13589166Y-18318278D01*
X-13295648Y-18095151D01*
X-13276521Y-18077032D01*
X-14593121Y-16760432D01*
X-14565820Y-16743168D01*
X-14378499Y-16577216D01*
X-14239489Y-16406958D01*
X-12925499Y-17720948D01*
X-12789310Y-17560617D01*
X-12789306Y-17560611D01*
X-12582408Y-17255461D01*
X-12582405Y-17255456D01*
X-12409716Y-16929728D01*
X-12409710Y-16929715D01*
X-12288301Y-16625000D01*
X-7155460Y-16625000D01*
X-7135675Y-16813254D01*
X-7097834Y-16929715D01*
X-7077179Y-16993284D01*
X-7022534Y-17087933D01*
X-6982531Y-17157220D01*
X-6894073Y-17255461D01*
X-6855871Y-17297888D01*
X-6702730Y-17409151D01*
X-6529803Y-17486144D01*
X-6388685Y-17516139D01*
X-6344648Y-17525500D01*
X-6344646Y-17525500D01*
X-6155352Y-17525500D01*
X-6115996Y-17517134D01*
X-5970197Y-17486144D01*
X-5797270Y-17409151D01*
X-5644129Y-17297888D01*
X-5571805Y-17217563D01*
X-5517470Y-17157220D01*
X-5517469Y-17157218D01*
X-5517467Y-17157216D01*
X-5422821Y-16993284D01*
X-5364326Y-16813256D01*
X-5344540Y-16625000D01*
X-5364326Y-16436744D01*
X-5421670Y-16260261D01*
X-5424793Y-16200676D01*
X-5445960Y-16192267D01*
X-5486021Y-16147251D01*
X-5494218Y-16133054D01*
X-5517467Y-16092784D01*
X-5517468Y-16092783D01*
X-5517470Y-16092779D01*
X-5644128Y-15952113D01*
X-5677273Y-15928032D01*
X-5797270Y-15840849D01*
X-5797271Y-15840848D01*
X-5797273Y-15840847D01*
X-5970195Y-15763857D01*
X-5970197Y-15763856D01*
X-6005567Y-15756338D01*
X-5287412Y-15756338D01*
X-5257137Y-15928034D01*
X-5220169Y-16013735D01*
X-5209181Y-16088754D01*
X-5180262Y-16103489D01*
X-5160446Y-16125241D01*
X-5083974Y-16227961D01*
X-4950422Y-16340025D01*
X-4950421Y-16340025D01*
X-4950419Y-16340027D01*
X-4794620Y-16418272D01*
X-4624976Y-16458478D01*
X-4624974Y-16458478D01*
X-4494366Y-16458478D01*
X-4494362Y-16458477D01*
X-4364641Y-16443315D01*
X-4200812Y-16383686D01*
X-4055151Y-16287883D01*
X-3935509Y-16161071D01*
X-3848338Y-16010085D01*
X-3798336Y-15843066D01*
X-3788198Y-15669018D01*
X-3818473Y-15497324D01*
X-3818650Y-15496912D01*
X-3887527Y-15337237D01*
X-3991637Y-15197394D01*
X-4125189Y-15085330D01*
X-4280987Y-15007085D01*
X-4280989Y-15007084D01*
X-4280990Y-15007084D01*
X-4450634Y-14966878D01*
X-4581241Y-14966878D01*
X-4581250Y-14966878D01*
X-4710965Y-14982040D01*
X-4710969Y-14982040D01*
X-4874794Y-15041668D01*
X-4874796Y-15041669D01*
X-4874798Y-15041670D01*
X-4974745Y-15107406D01*
X-5020464Y-15137476D01*
X-5140096Y-15264278D01*
X-5140104Y-15264289D01*
X-5227272Y-15415269D01*
X-5227273Y-15415271D01*
X-5277274Y-15582291D01*
X-5287412Y-15756332D01*
X-5287412Y-15756338D01*
X-6005567Y-15756338D01*
X-6076640Y-15741231D01*
X-6155352Y-15724500D01*
X-6155354Y-15724500D01*
X-6344646Y-15724500D01*
X-6344648Y-15724500D01*
X-6444608Y-15745747D01*
X-6529803Y-15763856D01*
X-6529805Y-15763856D01*
X-6529806Y-15763857D01*
X-6702728Y-15840847D01*
X-6855873Y-15952113D01*
X-6982531Y-16092779D01*
X-7077178Y-16256714D01*
X-7077181Y-16256721D01*
X-7135675Y-16436745D01*
X-7155460Y-16625000D01*
X-12288301Y-16625000D01*
X-12273250Y-16587226D01*
X-12273248Y-16587221D01*
X-12174614Y-16231976D01*
X-12174614Y-16231974D01*
X-12114966Y-15868142D01*
X-12114966Y-15868136D01*
X-12107385Y-15728315D01*
X-10467940Y-15728315D01*
X-10437665Y-15900011D01*
X-10368612Y-16060095D01*
X-10264502Y-16199938D01*
X-10130950Y-16312002D01*
X-10130949Y-16312002D01*
X-10130947Y-16312004D01*
X-9975148Y-16390249D01*
X-9805504Y-16430455D01*
X-9805502Y-16430455D01*
X-9674894Y-16430455D01*
X-9674890Y-16430454D01*
X-9545169Y-16415292D01*
X-9381340Y-16355663D01*
X-9235679Y-16259860D01*
X-9209371Y-16231976D01*
X-9165110Y-16185062D01*
X-9116037Y-16133048D01*
X-9028866Y-15982062D01*
X-8978864Y-15815043D01*
X-8968726Y-15640995D01*
X-8999001Y-15469301D01*
X-9068054Y-15309217D01*
X-9068055Y-15309214D01*
X-9172165Y-15169371D01*
X-9305717Y-15057307D01*
X-9461515Y-14979062D01*
X-9461517Y-14979061D01*
X-9461518Y-14979061D01*
X-9631162Y-14938855D01*
X-9761769Y-14938855D01*
X-9761778Y-14938855D01*
X-9891493Y-14954017D01*
X-9891497Y-14954017D01*
X-10055322Y-15013645D01*
X-10055324Y-15013646D01*
X-10055326Y-15013647D01*
X-10136992Y-15067360D01*
X-10200992Y-15109453D01*
X-10320624Y-15236255D01*
X-10320632Y-15236266D01*
X-10407800Y-15387246D01*
X-10407801Y-15387248D01*
X-10441406Y-15499500D01*
X-10454619Y-15543637D01*
X-10457802Y-15554268D01*
X-10467940Y-15728309D01*
X-10467940Y-15728315D01*
X-12107385Y-15728315D01*
X-12095006Y-15500008D01*
X-12095006Y-15499991D01*
X-12114966Y-15131863D01*
X-12114966Y-15131857D01*
X-12174614Y-14768025D01*
X-12174614Y-14768023D01*
X-12273248Y-14412778D01*
X-12273250Y-14412773D01*
X-12409710Y-14070284D01*
X-12409716Y-14070271D01*
X-12573324Y-13761672D01*
X-5675136Y-13761672D01*
X-5644861Y-13933368D01*
X-5575808Y-14093452D01*
X-5471698Y-14233295D01*
X-5338146Y-14345359D01*
X-5338145Y-14345359D01*
X-5338143Y-14345361D01*
X-5182344Y-14423606D01*
X-5012700Y-14463812D01*
X-5012698Y-14463812D01*
X-4882090Y-14463812D01*
X-4882086Y-14463811D01*
X-4752365Y-14448649D01*
X-4588536Y-14389020D01*
X-4442875Y-14293217D01*
X-4402101Y-14250000D01*
X-4386341Y-14233295D01*
X-4323233Y-14166405D01*
X-4236062Y-14015419D01*
X-4186060Y-13848400D01*
X-4175922Y-13674352D01*
X-4206197Y-13502658D01*
X-4233487Y-13439391D01*
X-4275251Y-13342571D01*
X-4379361Y-13202728D01*
X-4512913Y-13090664D01*
X-4668711Y-13012419D01*
X-4668713Y-13012418D01*
X-4668714Y-13012418D01*
X-4838358Y-12972212D01*
X-4968965Y-12972212D01*
X-4968974Y-12972212D01*
X-5098689Y-12987374D01*
X-5098693Y-12987374D01*
X-5262518Y-13047002D01*
X-5262520Y-13047003D01*
X-5262522Y-13047004D01*
X-5362469Y-13112740D01*
X-5408188Y-13142810D01*
X-5527820Y-13269612D01*
X-5527828Y-13269623D01*
X-5614996Y-13420603D01*
X-5614997Y-13420605D01*
X-5639560Y-13502655D01*
X-5657178Y-13561505D01*
X-5664998Y-13587625D01*
X-5675136Y-13761666D01*
X-5675136Y-13761672D01*
X-12573324Y-13761672D01*
X-12582405Y-13744543D01*
X-12582408Y-13744538D01*
X-12789304Y-13439391D01*
X-12789313Y-13439379D01*
X-12925498Y-13279050D01*
X-12925499Y-13279050D01*
X-14241352Y-14594903D01*
X-14295456Y-14516520D01*
X-14468816Y-14336034D01*
X-14594868Y-14241312D01*
X-13276521Y-12922966D01*
X-13295653Y-12904844D01*
X-13542315Y-12717336D01*
X-10042384Y-12717336D01*
X-10001574Y-12851869D01*
X-9908715Y-13025596D01*
X-9908714Y-13025598D01*
X-9783754Y-13177861D01*
X-9783749Y-13177866D01*
X-9631486Y-13302826D01*
X-9631484Y-13302827D01*
X-9457755Y-13395686D01*
X-9457756Y-13395686D01*
X-9323224Y-13436495D01*
X-9323223Y-13436495D01*
X-9323223Y-12717336D01*
X-10042384Y-12717336D01*
X-13542315Y-12717336D01*
X-13589166Y-12681721D01*
X-13905067Y-12491649D01*
X-14239685Y-12336839D01*
X-14239695Y-12336834D01*
X-14589064Y-12219119D01*
X-14949132Y-12139862D01*
X-15315657Y-12100000D01*
X-15684344Y-12100000D01*
X-16050869Y-12139862D01*
X-16050870Y-12139862D01*
X-16410937Y-12219119D01*
X-16760306Y-12336834D01*
X-16760316Y-12336839D01*
X-17094934Y-12491649D01*
X-17410835Y-12681721D01*
X-17704337Y-12904835D01*
X-17723480Y-12922967D01*
X-16406880Y-14239567D01*
X-16434180Y-14256832D01*
X-16621501Y-14422784D01*
X-16760512Y-14593041D01*
X-18074503Y-13279050D01*
X-18074504Y-13279050D01*
X-18210692Y-13439383D01*
X-18210694Y-13439386D01*
X-18417598Y-13744547D01*
X-18590285Y-14070271D01*
X-18590291Y-14070284D01*
X-18726751Y-14412773D01*
X-18726753Y-14412778D01*
X-18825387Y-14768023D01*
X-18825387Y-14768025D01*
X-18885035Y-15131857D01*
X-18885035Y-15131863D01*
X-18904994Y-15499991D01*
X-18904994Y-15500008D01*
X-20999436Y-15500008D01*
X-20999500Y-15496913D01*
X-20999500Y-11475000D01*
X-10630460Y-11475000D01*
X-10610675Y-11663254D01*
X-10552181Y-11843278D01*
X-10552179Y-11843284D01*
X-10497534Y-11937933D01*
X-10457531Y-12007220D01*
X-10345427Y-12131722D01*
X-10330871Y-12147888D01*
X-10177730Y-12259151D01*
X-10004803Y-12336144D01*
X-9863685Y-12366139D01*
X-9819648Y-12375500D01*
X-9819646Y-12375500D01*
X-9630352Y-12375500D01*
X-9590996Y-12367134D01*
X-9445197Y-12336144D01*
X-9386382Y-12309957D01*
X-9417205Y-12380228D01*
X-9426851Y-12496638D01*
X-9398176Y-12609874D01*
X-9334287Y-12707663D01*
X-9242108Y-12779408D01*
X-9131628Y-12817336D01*
X-9044218Y-12817336D01*
X-8958007Y-12802950D01*
X-8855276Y-12747355D01*
X-8827642Y-12717336D01*
X-8823223Y-12717336D01*
X-8823223Y-13436495D01*
X-8688691Y-13395686D01*
X-8514963Y-13302827D01*
X-8514961Y-13302826D01*
X-8362698Y-13177866D01*
X-8362693Y-13177861D01*
X-8237733Y-13025598D01*
X-8237732Y-13025596D01*
X-8144873Y-12851869D01*
X-8104062Y-12717336D01*
X-8823223Y-12717336D01*
X-8827642Y-12717336D01*
X-8776163Y-12661415D01*
X-8729241Y-12554444D01*
X-8719595Y-12438034D01*
X-8748270Y-12324798D01*
X-8812159Y-12227009D01*
X-8824587Y-12217336D01*
X-8104062Y-12217336D01*
X-8104062Y-12217335D01*
X-8144873Y-12082802D01*
X-8237732Y-11909075D01*
X-8237733Y-11909073D01*
X-8362693Y-11756810D01*
X-8362698Y-11756805D01*
X-8514961Y-11631845D01*
X-8514963Y-11631844D01*
X-8688692Y-11538985D01*
X-8688693Y-11538984D01*
X-8722307Y-11528787D01*
X-8787803Y-11488057D01*
X-8824160Y-11420036D01*
X-8827236Y-11401778D01*
X-8827864Y-11395807D01*
X-8839326Y-11286744D01*
X-8897821Y-11106716D01*
X-8992467Y-10942784D01*
X-8992468Y-10942783D01*
X-8992470Y-10942779D01*
X-9119128Y-10802113D01*
X-9149285Y-10780203D01*
X-9272270Y-10690849D01*
X-9272271Y-10690848D01*
X-9272273Y-10690847D01*
X-9445195Y-10613857D01*
X-9445197Y-10613856D01*
X-9551640Y-10591231D01*
X-9630352Y-10574500D01*
X-9630354Y-10574500D01*
X-9819646Y-10574500D01*
X-9819648Y-10574500D01*
X-9919608Y-10595747D01*
X-10004803Y-10613856D01*
X-10004805Y-10613856D01*
X-10004806Y-10613857D01*
X-10177728Y-10690847D01*
X-10330873Y-10802113D01*
X-10457531Y-10942779D01*
X-10552178Y-11106714D01*
X-10552181Y-11106721D01*
X-10610675Y-11286745D01*
X-10630460Y-11475000D01*
X-20999500Y-11475000D01*
X-20999500Y-9323223D01*
X-13436497Y-9323223D01*
X-13395687Y-9457756D01*
X-13302828Y-9631483D01*
X-13302827Y-9631485D01*
X-13177867Y-9783748D01*
X-13177862Y-9783753D01*
X-13025599Y-9908713D01*
X-13025597Y-9908714D01*
X-12851868Y-10001573D01*
X-12851869Y-10001573D01*
X-12717337Y-10042382D01*
X-12710731Y-10037483D01*
X-12697374Y-9987636D01*
X-12642836Y-9933098D01*
X-12568336Y-9913136D01*
X-12493836Y-9933098D01*
X-12439298Y-9987636D01*
X-12426631Y-10016088D01*
X-12377179Y-10168284D01*
X-12325932Y-10257046D01*
X-12282531Y-10332220D01*
X-12184179Y-10441449D01*
X-12155871Y-10472888D01*
X-12002730Y-10584151D01*
X-11829803Y-10661144D01*
X-11690060Y-10690847D01*
X-11644648Y-10700500D01*
X-11644646Y-10700500D01*
X-11455352Y-10700500D01*
X-11415996Y-10692134D01*
X-11270197Y-10661144D01*
X-11097270Y-10584151D01*
X-10944129Y-10472888D01*
X-10833234Y-10349727D01*
X-10817470Y-10332220D01*
X-10817469Y-10332218D01*
X-10817467Y-10332216D01*
X-10722821Y-10168284D01*
X-10664326Y-9988256D01*
X-10644540Y-9800000D01*
X-10664326Y-9611744D01*
X-10722821Y-9431716D01*
X-10817467Y-9267784D01*
X-10817468Y-9267783D01*
X-10817470Y-9267779D01*
X-10944128Y-9127113D01*
X-10956279Y-9118285D01*
X-11097270Y-9015849D01*
X-11097271Y-9015848D01*
X-11097273Y-9015847D01*
X-11270195Y-8938857D01*
X-11270197Y-8938856D01*
X-11390332Y-8913320D01*
X-11459053Y-8878305D01*
X-11477434Y-8850000D01*
X-10380091Y-8850000D01*
X-10361787Y-9012458D01*
X-10361787Y-9012460D01*
X-10361786Y-9012461D01*
X-10307789Y-9166775D01*
X-10220808Y-9305204D01*
X-10105204Y-9420808D01*
X-9966775Y-9507789D01*
X-9812461Y-9561786D01*
X-9679925Y-9576719D01*
X-9608129Y-9604897D01*
X-9560040Y-9665198D01*
X-9548545Y-9708099D01*
X-9536787Y-9812458D01*
X-9536787Y-9812460D01*
X-9536786Y-9812461D01*
X-9482789Y-9966775D01*
X-9395808Y-10105204D01*
X-9280204Y-10220808D01*
X-9141775Y-10307789D01*
X-8987461Y-10361786D01*
X-8916379Y-10369795D01*
X-8825001Y-10380091D01*
X-8825000Y-10380091D01*
X-8824999Y-10380091D01*
X-8808548Y-10378237D01*
X-8662539Y-10361786D01*
X-8548917Y-10322027D01*
X-8472007Y-10316263D01*
X-8402517Y-10349727D01*
X-8359069Y-10413453D01*
X-8353304Y-10490366D01*
X-8359068Y-10511877D01*
X-8411786Y-10662539D01*
X-8430091Y-10824999D01*
X-8430091Y-10825000D01*
X-8411787Y-10987458D01*
X-8411787Y-10987460D01*
X-8411786Y-10987461D01*
X-8357789Y-11141775D01*
X-8270808Y-11280204D01*
X-8155204Y-11395808D01*
X-8016775Y-11482789D01*
X-7862461Y-11536786D01*
X-7754154Y-11548989D01*
X-7700001Y-11555091D01*
X-7700000Y-11555091D01*
X-7699999Y-11555091D01*
X-7659385Y-11550514D01*
X-7537539Y-11536786D01*
X-7485438Y-11518554D01*
X-7408527Y-11512792D01*
X-7339037Y-11546256D01*
X-7295589Y-11609982D01*
X-7287315Y-11664280D01*
X-7292534Y-11817054D01*
X-7256705Y-11964079D01*
X-7256702Y-11964086D01*
X-7182538Y-12095987D01*
X-6819560Y-12458965D01*
X-6729274Y-12527430D01*
X-6729273Y-12527431D01*
X-6729272Y-12527431D01*
X-6729271Y-12527432D01*
X-6588493Y-12582947D01*
X-6437957Y-12598423D01*
X-6288828Y-12572711D01*
X-6152167Y-12507718D01*
X-6038108Y-12408263D01*
X-5955112Y-12281724D01*
X-5912634Y-12147888D01*
X-5909334Y-12137491D01*
X-5909334Y-12137490D01*
X-5909333Y-12137487D01*
X-5904167Y-11986245D01*
X-5939996Y-11839219D01*
X-5978705Y-11770375D01*
X-5997817Y-11695654D01*
X-5977009Y-11621386D01*
X-5921854Y-11567473D01*
X-5898047Y-11556714D01*
X-5758225Y-11507789D01*
X-5619796Y-11420808D01*
X-5504192Y-11305204D01*
X-5438088Y-11200000D01*
X-3105460Y-11200000D01*
X-3085675Y-11388254D01*
X-3037413Y-11536786D01*
X-3027179Y-11568284D01*
X-2990483Y-11631844D01*
X-2932531Y-11732220D01*
X-2832527Y-11843284D01*
X-2805871Y-11872888D01*
X-2662214Y-11977260D01*
X-2613677Y-12037199D01*
X-2601611Y-12113376D01*
X-2605460Y-12149999D01*
X-2585675Y-12338254D01*
X-2562927Y-12408263D01*
X-2527179Y-12518284D01*
X-2489846Y-12582947D01*
X-2432531Y-12682220D01*
X-2310870Y-12817336D01*
X-2305871Y-12822888D01*
X-2152730Y-12934151D01*
X-1979803Y-13011144D01*
X-1838685Y-13041139D01*
X-1794648Y-13050500D01*
X-1794646Y-13050500D01*
X-1605352Y-13050500D01*
X-1563106Y-13041520D01*
X-1420197Y-13011144D01*
X-1247270Y-12934151D01*
X-1247270Y-12934150D01*
X-1247268Y-12934150D01*
X-1240509Y-12930248D01*
X-1239436Y-12932106D01*
X-1178075Y-12908552D01*
X-1101897Y-12920618D01*
X-1084673Y-12930562D01*
X-1084491Y-12930248D01*
X-1077733Y-12934150D01*
X-1019681Y-12959996D01*
X-904803Y-13011144D01*
X-761891Y-13041520D01*
X-693171Y-13076535D01*
X-651164Y-13141220D01*
X-647127Y-13218243D01*
X-682142Y-13286964D01*
X-733557Y-13321653D01*
X-732766Y-13323348D01*
X-738659Y-13326095D01*
X-738663Y-13326097D01*
X-952829Y-13425965D01*
X-952832Y-13425966D01*
X-952832Y-13425967D01*
X-1146404Y-13561507D01*
X-1313493Y-13728596D01*
X-1437965Y-13906362D01*
X-1449035Y-13922171D01*
X-1528904Y-14093450D01*
X-1548904Y-14136340D01*
X-1610063Y-14364590D01*
X-1625500Y-14541033D01*
X-1625500Y-14908966D01*
X-1610063Y-15085409D01*
X-1587565Y-15169372D01*
X-1548903Y-15313663D01*
X-1449035Y-15527829D01*
X-1313495Y-15721401D01*
X-1146401Y-15888495D01*
X-952830Y-16024035D01*
X-738663Y-16123903D01*
X-510408Y-16185063D01*
X-275000Y-16205659D01*
X-39592Y-16185063D01*
X188663Y-16123903D01*
X402829Y-16024035D01*
X596401Y-15888495D01*
X763495Y-15721401D01*
X852948Y-15593648D01*
X912029Y-15544073D01*
X987986Y-15530680D01*
X1060463Y-15557059D01*
X1097051Y-15593647D01*
X1186505Y-15721401D01*
X1353599Y-15888495D01*
X1547170Y-16024035D01*
X1761337Y-16123903D01*
X1989592Y-16185063D01*
X2225000Y-16205659D01*
X2460408Y-16185063D01*
X2688663Y-16123903D01*
X2902829Y-16024035D01*
X3096401Y-15888495D01*
X3263495Y-15721401D01*
X3353252Y-15593214D01*
X3412334Y-15543637D01*
X3488291Y-15530244D01*
X3560767Y-15556623D01*
X3597359Y-15593214D01*
X3686891Y-15721079D01*
X3853923Y-15888111D01*
X4047411Y-16023593D01*
X4047420Y-16023599D01*
X4261508Y-16123430D01*
X4261513Y-16123432D01*
X4475000Y-16180634D01*
X4475000Y-15133018D01*
X4589801Y-15185446D01*
X4691025Y-15200000D01*
X4758975Y-15200000D01*
X4860199Y-15185446D01*
X4975000Y-15133018D01*
X4975000Y-16180633D01*
X5188486Y-16123432D01*
X5402580Y-16023597D01*
X5596079Y-15888108D01*
X5720974Y-15763213D01*
X5787768Y-15724649D01*
X5864896Y-15724649D01*
X5931692Y-15763213D01*
X5953146Y-15790347D01*
X6032288Y-15918656D01*
X6156344Y-16042712D01*
X6305666Y-16134814D01*
X6472203Y-16189999D01*
X6574991Y-16200500D01*
X7875008Y-16200499D01*
X7977797Y-16189999D01*
X8144334Y-16134814D01*
X8293656Y-16042712D01*
X8417712Y-15918656D01*
X8509814Y-15769334D01*
X8564999Y-15602797D01*
X8575500Y-15500009D01*
X8575500Y-15500008D01*
X12095006Y-15500008D01*
X12114965Y-15868136D01*
X12114965Y-15868142D01*
X12174613Y-16231974D01*
X12174613Y-16231976D01*
X12273247Y-16587221D01*
X12273249Y-16587226D01*
X12409709Y-16929715D01*
X12409715Y-16929728D01*
X12582404Y-17255456D01*
X12582407Y-17255461D01*
X12789303Y-17560608D01*
X12789312Y-17560620D01*
X12925496Y-17720948D01*
X12925497Y-17720948D01*
X14241350Y-16405094D01*
X14295456Y-16483480D01*
X14468816Y-16663966D01*
X14594865Y-16758686D01*
X13276520Y-18077031D01*
X13295657Y-18095159D01*
X13295658Y-18095160D01*
X13589165Y-18318278D01*
X13905066Y-18508350D01*
X14239684Y-18663160D01*
X14239694Y-18663165D01*
X14589063Y-18780880D01*
X14949131Y-18860137D01*
X15315656Y-18899999D01*
X15315666Y-18900000D01*
X15684334Y-18900000D01*
X15684343Y-18899999D01*
X16050868Y-18860137D01*
X16050869Y-18860137D01*
X16410936Y-18780880D01*
X16760305Y-18663165D01*
X16760315Y-18663160D01*
X17094933Y-18508350D01*
X17410834Y-18318278D01*
X17704352Y-18095151D01*
X17723479Y-18077032D01*
X16406879Y-16760432D01*
X16434180Y-16743168D01*
X16621501Y-16577216D01*
X16760511Y-16406958D01*
X18074501Y-17720948D01*
X18210690Y-17560617D01*
X18210694Y-17560611D01*
X18417592Y-17255461D01*
X18417595Y-17255456D01*
X18590284Y-16929728D01*
X18590290Y-16929715D01*
X18726750Y-16587226D01*
X18726752Y-16587221D01*
X18825386Y-16231976D01*
X18825386Y-16231974D01*
X18885034Y-15868142D01*
X18885034Y-15868136D01*
X18904994Y-15500008D01*
X18904994Y-15499991D01*
X18885034Y-15131863D01*
X18885034Y-15131857D01*
X18825386Y-14768025D01*
X18825386Y-14768023D01*
X18726752Y-14412778D01*
X18726750Y-14412773D01*
X18590290Y-14070284D01*
X18590284Y-14070271D01*
X18417595Y-13744543D01*
X18417592Y-13744538D01*
X18210696Y-13439391D01*
X18210687Y-13439379D01*
X18074502Y-13279050D01*
X18074501Y-13279050D01*
X16758648Y-14594903D01*
X16704544Y-14516520D01*
X16531184Y-14336034D01*
X16405132Y-14241312D01*
X17723479Y-12922966D01*
X17704347Y-12904844D01*
X17410834Y-12681721D01*
X17094933Y-12491649D01*
X16760315Y-12336839D01*
X16760305Y-12336834D01*
X16410936Y-12219119D01*
X16050868Y-12139862D01*
X15684343Y-12100000D01*
X15315656Y-12100000D01*
X14949131Y-12139862D01*
X14949130Y-12139862D01*
X14589063Y-12219119D01*
X14239694Y-12336834D01*
X14239684Y-12336839D01*
X13905066Y-12491649D01*
X13589165Y-12681721D01*
X13295663Y-12904835D01*
X13276520Y-12922967D01*
X14593120Y-14239567D01*
X14565820Y-14256832D01*
X14378499Y-14422784D01*
X14239488Y-14593041D01*
X12925497Y-13279050D01*
X12925496Y-13279050D01*
X12789308Y-13439383D01*
X12789306Y-13439386D01*
X12582402Y-13744547D01*
X12409715Y-14070271D01*
X12409709Y-14070284D01*
X12273249Y-14412773D01*
X12273247Y-14412778D01*
X12174613Y-14768023D01*
X12174613Y-14768025D01*
X12114965Y-15131857D01*
X12114965Y-15131863D01*
X12095006Y-15499991D01*
X12095006Y-15500008D01*
X8575500Y-15500008D01*
X8575499Y-13949992D01*
X8564999Y-13847203D01*
X8509814Y-13680666D01*
X8417712Y-13531344D01*
X8293656Y-13407288D01*
X8144334Y-13315186D01*
X8035283Y-13279050D01*
X7977798Y-13260001D01*
X7960665Y-13258250D01*
X7875009Y-13249500D01*
X7875004Y-13249500D01*
X6574996Y-13249500D01*
X6472202Y-13260001D01*
X6305666Y-13315186D01*
X6156343Y-13407288D01*
X6032288Y-13531343D01*
X5953150Y-13659648D01*
X5897049Y-13712577D01*
X5822000Y-13730364D01*
X5748112Y-13708244D01*
X5720974Y-13686786D01*
X5596076Y-13561888D01*
X5402588Y-13426406D01*
X5402579Y-13426400D01*
X5188491Y-13326569D01*
X5188489Y-13326568D01*
X4975000Y-13269364D01*
X4975000Y-14316981D01*
X4860199Y-14264554D01*
X4758975Y-14250000D01*
X4691025Y-14250000D01*
X4589801Y-14264554D01*
X4475000Y-14316981D01*
X4475000Y-13269364D01*
X4474999Y-13269364D01*
X4261512Y-13326568D01*
X4047419Y-13426402D01*
X3853920Y-13561891D01*
X3686888Y-13728923D01*
X3597358Y-13856785D01*
X3538274Y-13906362D01*
X3462318Y-13919755D01*
X3389842Y-13893375D01*
X3353251Y-13856785D01*
X3347380Y-13848400D01*
X3263495Y-13728599D01*
X3096401Y-13561505D01*
X2902830Y-13425965D01*
X2688663Y-13326097D01*
X2688661Y-13326096D01*
X2460409Y-13264937D01*
X2225000Y-13244341D01*
X1989590Y-13264937D01*
X1761340Y-13326096D01*
X1761339Y-13326096D01*
X1761337Y-13326097D01*
X1547171Y-13425965D01*
X1547168Y-13425966D01*
X1547168Y-13425967D01*
X1353596Y-13561507D01*
X1186506Y-13728597D01*
X1097054Y-13856349D01*
X1037970Y-13905926D01*
X962014Y-13919319D01*
X889537Y-13892940D01*
X852946Y-13856349D01*
X846541Y-13847202D01*
X763495Y-13728599D01*
X596401Y-13561505D01*
X402830Y-13425965D01*
X188663Y-13326097D01*
X188661Y-13326096D01*
X-39591Y-13264937D01*
X-197473Y-13251123D01*
X-269950Y-13224743D01*
X-319526Y-13165659D01*
X-332919Y-13089703D01*
X-306539Y-13017226D01*
X-247455Y-12967650D01*
X-245229Y-12966634D01*
X-172270Y-12934151D01*
X-150080Y-12918028D01*
X-78076Y-12890388D01*
X-1898Y-12902453D01*
X25076Y-12918026D01*
X47270Y-12934151D01*
X220197Y-13011144D01*
X361315Y-13041139D01*
X405352Y-13050500D01*
X405354Y-13050500D01*
X594648Y-13050500D01*
X636894Y-13041520D01*
X779803Y-13011144D01*
X952730Y-12934151D01*
X1105871Y-12822888D01*
X1200911Y-12717336D01*
X1232530Y-12682220D01*
X1232531Y-12682218D01*
X1232533Y-12682216D01*
X1327179Y-12518284D01*
X1385674Y-12338256D01*
X1405460Y-12150000D01*
X1385674Y-11961744D01*
X1327179Y-11781716D01*
X1232533Y-11617784D01*
X1232532Y-11617783D01*
X1232530Y-11617779D01*
X1105872Y-11477113D01*
X1062499Y-11445601D01*
X952730Y-11365849D01*
X952729Y-11365848D01*
X952727Y-11365847D01*
X779805Y-11288857D01*
X779803Y-11288856D01*
X673360Y-11266231D01*
X594648Y-11249500D01*
X594646Y-11249500D01*
X405354Y-11249500D01*
X405352Y-11249500D01*
X305392Y-11270747D01*
X220197Y-11288856D01*
X220195Y-11288856D01*
X220194Y-11288857D01*
X47270Y-11365848D01*
X25076Y-11381973D01*
X-46930Y-11409611D01*
X-123108Y-11397544D01*
X-150083Y-11381969D01*
X-162788Y-11372738D01*
X-211325Y-11312798D01*
X-223390Y-11236623D01*
X-219540Y-11200000D01*
X-239326Y-11011744D01*
X-297821Y-10831716D01*
X-392467Y-10667784D01*
X-392468Y-10667783D01*
X-392470Y-10667779D01*
X-519128Y-10527113D01*
X-540099Y-10511877D01*
X-672270Y-10415849D01*
X-672271Y-10415848D01*
X-672273Y-10415847D01*
X-845195Y-10338857D01*
X-845197Y-10338856D01*
X-951640Y-10316231D01*
X-1030352Y-10299500D01*
X-1030354Y-10299500D01*
X-1219646Y-10299500D01*
X-1219648Y-10299500D01*
X-1319608Y-10320747D01*
X-1404803Y-10338856D01*
X-1404805Y-10338856D01*
X-1404806Y-10338857D01*
X-1577733Y-10415849D01*
X-1584493Y-10419753D01*
X-1585565Y-10417896D01*
X-1646945Y-10441449D01*
X-1723122Y-10429373D01*
X-1740327Y-10419440D01*
X-1740507Y-10419753D01*
X-1747268Y-10415849D01*
X-1920195Y-10338857D01*
X-1920197Y-10338856D01*
X-2026640Y-10316231D01*
X-2105352Y-10299500D01*
X-2105354Y-10299500D01*
X-2294646Y-10299500D01*
X-2294648Y-10299500D01*
X-2394608Y-10320747D01*
X-2479803Y-10338856D01*
X-2479805Y-10338856D01*
X-2479806Y-10338857D01*
X-2652728Y-10415847D01*
X-2805873Y-10527113D01*
X-2932531Y-10667779D01*
X-3027178Y-10831714D01*
X-3027181Y-10831721D01*
X-3085675Y-11011745D01*
X-3105460Y-11200000D01*
X-5438088Y-11200000D01*
X-5417211Y-11166775D01*
X-5409182Y-11143827D01*
X-5365735Y-11080102D01*
X-5296246Y-11046636D01*
X-5285242Y-11044977D01*
X-5212539Y-11036786D01*
X-5058225Y-10982789D01*
X-4919796Y-10895808D01*
X-4804192Y-10780204D01*
X-4717211Y-10641775D01*
X-4663214Y-10487461D01*
X-4644909Y-10325000D01*
X-4663214Y-10162539D01*
X-4717211Y-10008225D01*
X-4717212Y-10008223D01*
X-4717569Y-10007482D01*
X-4717684Y-10006874D01*
X-4719975Y-10000327D01*
X-4718989Y-9999981D01*
X-4731908Y-9931699D01*
X-4706436Y-9858899D01*
X-4647975Y-9808588D01*
X-4614308Y-9797089D01*
X-4445197Y-9761144D01*
X-4272270Y-9684151D01*
X-4119129Y-9572888D01*
X-4042280Y-9487539D01*
X-3992470Y-9432220D01*
X-3992469Y-9432218D01*
X-3992467Y-9432216D01*
X-3897821Y-9268284D01*
X-3839326Y-9088256D01*
X-3819540Y-8900000D01*
X-3839326Y-8711744D01*
X-3843142Y-8700000D01*
X-1205460Y-8700000D01*
X-1185675Y-8888254D01*
X-1145318Y-9012458D01*
X-1127179Y-9068284D01*
X-1098311Y-9118285D01*
X-1032531Y-9232220D01*
X-905873Y-9372886D01*
X-905871Y-9372888D01*
X-752730Y-9484151D01*
X-579803Y-9561144D01*
X-438685Y-9591139D01*
X-394648Y-9600500D01*
X-394646Y-9600500D01*
X-205352Y-9600500D01*
X-165996Y-9592134D01*
X-20197Y-9561144D01*
X152730Y-9484151D01*
X305871Y-9372888D01*
X387513Y-9282216D01*
X432530Y-9232220D01*
X432531Y-9232218D01*
X432533Y-9232216D01*
X527179Y-9068284D01*
X585674Y-8888256D01*
X605460Y-8700000D01*
X585674Y-8511744D01*
X527179Y-8331716D01*
X432533Y-8167784D01*
X432532Y-8167783D01*
X432530Y-8167779D01*
X305872Y-8027113D01*
X221546Y-7965847D01*
X152730Y-7915849D01*
X152729Y-7915848D01*
X152727Y-7915847D01*
X-20195Y-7838857D01*
X-20197Y-7838856D01*
X-126640Y-7816231D01*
X-205352Y-7799500D01*
X-205354Y-7799500D01*
X-394646Y-7799500D01*
X-394648Y-7799500D01*
X-494608Y-7820747D01*
X-579803Y-7838856D01*
X-579805Y-7838856D01*
X-579806Y-7838857D01*
X-752728Y-7915847D01*
X-905873Y-8027113D01*
X-1032531Y-8167779D01*
X-1127178Y-8331714D01*
X-1127181Y-8331721D01*
X-1185675Y-8511745D01*
X-1205460Y-8700000D01*
X-3843142Y-8700000D01*
X-3897821Y-8531716D01*
X-3992467Y-8367784D01*
X-3992468Y-8367783D01*
X-3992470Y-8367779D01*
X-4119128Y-8227113D01*
X-4167167Y-8192211D01*
X-4272270Y-8115849D01*
X-4272271Y-8115848D01*
X-4272273Y-8115847D01*
X-4445195Y-8038857D01*
X-4445197Y-8038856D01*
X-4551640Y-8016231D01*
X-4630352Y-7999500D01*
X-4630354Y-7999500D01*
X-4819646Y-7999500D01*
X-4819648Y-7999500D01*
X-4919608Y-8020747D01*
X-5004803Y-8038856D01*
X-5004805Y-8038856D01*
X-5004806Y-8038857D01*
X-5177728Y-8115847D01*
X-5330873Y-8227113D01*
X-5457532Y-8367781D01*
X-5490998Y-8425746D01*
X-5545536Y-8480283D01*
X-5620036Y-8500245D01*
X-5663288Y-8493829D01*
X-5782664Y-8457615D01*
X-5782664Y-8636348D01*
X-5802626Y-8710848D01*
X-5839969Y-8748190D01*
X-5795546Y-8803047D01*
X-5782664Y-8863651D01*
X-5782664Y-9177838D01*
X-5863779Y-9114705D01*
X-5974259Y-9076777D01*
X-6061669Y-9076777D01*
X-6138501Y-9089597D01*
X-6089326Y-8938256D01*
X-6079848Y-8848077D01*
X-6052208Y-8776072D01*
X-6020862Y-8750688D01*
X-6060702Y-8710848D01*
X-6079848Y-8651922D01*
X-6089326Y-8561745D01*
X-6089326Y-8561744D01*
X-6147821Y-8381716D01*
X-6242467Y-8217784D01*
X-6242468Y-8217783D01*
X-6242470Y-8217779D01*
X-6369128Y-8077113D01*
X-6437949Y-8027112D01*
X-6522270Y-7965849D01*
X-6522271Y-7965848D01*
X-6522273Y-7965847D01*
X-6695195Y-7888857D01*
X-6695197Y-7888856D01*
X-6801640Y-7866231D01*
X-6880352Y-7849500D01*
X-6880354Y-7849500D01*
X-7069646Y-7849500D01*
X-7069648Y-7849500D01*
X-7169608Y-7870747D01*
X-7254803Y-7888856D01*
X-7254805Y-7888856D01*
X-7254806Y-7888857D01*
X-7427728Y-7965847D01*
X-7580873Y-8077113D01*
X-7707531Y-8217779D01*
X-7802178Y-8381714D01*
X-7802181Y-8381721D01*
X-7860675Y-8561745D01*
X-7880460Y-8750000D01*
X-7860675Y-8938254D01*
X-7803342Y-9114705D01*
X-7802179Y-9118284D01*
X-7777903Y-9160331D01*
X-7707531Y-9282220D01*
X-7603753Y-9397475D01*
X-7580871Y-9422888D01*
X-7427730Y-9534151D01*
X-7254803Y-9611144D01*
X-7105128Y-9642958D01*
X-7091735Y-9645805D01*
X-7023013Y-9680821D01*
X-6981006Y-9745506D01*
X-6980130Y-9748295D01*
X-6961014Y-9811311D01*
X-6868156Y-9985037D01*
X-6868155Y-9985039D01*
X-6743195Y-10137302D01*
X-6743190Y-10137307D01*
X-6673680Y-10194353D01*
X-6628755Y-10257046D01*
X-6621195Y-10333803D01*
X-6642043Y-10388804D01*
X-6732790Y-10533226D01*
X-6742490Y-10560945D01*
X-6785939Y-10624670D01*
X-6855430Y-10658132D01*
X-6932343Y-10652366D01*
X-6996068Y-10608917D01*
X-7023766Y-10560939D01*
X-7042211Y-10508225D01*
X-7055260Y-10487458D01*
X-7129192Y-10369796D01*
X-7244796Y-10254192D01*
X-7383225Y-10167211D01*
X-7537539Y-10113214D01*
X-7537540Y-10113213D01*
X-7537542Y-10113213D01*
X-7699999Y-10094909D01*
X-7700001Y-10094909D01*
X-7862461Y-10113214D01*
X-7976083Y-10152972D01*
X-8052995Y-10158735D01*
X-8122485Y-10125271D01*
X-8165933Y-10061544D01*
X-8171696Y-9984632D01*
X-8165935Y-9963128D01*
X-8113214Y-9812461D01*
X-8094909Y-9650000D01*
X-8113214Y-9487539D01*
X-8167211Y-9333225D01*
X-8254192Y-9194796D01*
X-8369796Y-9079192D01*
X-8508225Y-8992211D01*
X-8660701Y-8938857D01*
X-8662541Y-8938213D01*
X-8795077Y-8923280D01*
X-8866873Y-8895102D01*
X-8914961Y-8834800D01*
X-8926456Y-8791902D01*
X-8938214Y-8687539D01*
X-8992211Y-8533225D01*
X-9079192Y-8394796D01*
X-9194796Y-8279192D01*
X-9333225Y-8192211D01*
X-9487539Y-8138214D01*
X-9487540Y-8138213D01*
X-9487542Y-8138213D01*
X-9649999Y-8119909D01*
X-9650001Y-8119909D01*
X-9812459Y-8138213D01*
X-9889618Y-8165212D01*
X-9966775Y-8192211D01*
X-9966777Y-8192211D01*
X-9966777Y-8192212D01*
X-10105204Y-8279192D01*
X-10220808Y-8394796D01*
X-10296312Y-8514960D01*
X-10307789Y-8533225D01*
X-10334788Y-8610382D01*
X-10361787Y-8687541D01*
X-10380091Y-8849999D01*
X-10380091Y-8850000D01*
X-11477434Y-8850000D01*
X-11501059Y-8813620D01*
X-11501936Y-8810828D01*
X-11538985Y-8688693D01*
X-11538986Y-8688691D01*
X-11631845Y-8514962D01*
X-11631846Y-8514960D01*
X-11756806Y-8362697D01*
X-11756811Y-8362692D01*
X-11909074Y-8237732D01*
X-11909076Y-8237731D01*
X-12082803Y-8144872D01*
X-12217336Y-8104061D01*
X-12217336Y-8824284D01*
X-12298451Y-8761151D01*
X-12408931Y-8723223D01*
X-12496341Y-8723223D01*
X-12582552Y-8737609D01*
X-12685283Y-8793204D01*
X-12764396Y-8879144D01*
X-12811318Y-8986115D01*
X-12820964Y-9102525D01*
X-12792289Y-9215761D01*
X-12728400Y-9313550D01*
X-12636221Y-9385295D01*
X-12525741Y-9423223D01*
X-12438331Y-9423223D01*
X-12365234Y-9411025D01*
X-12377178Y-9431714D01*
X-12377181Y-9431721D01*
X-12408391Y-9527777D01*
X-12424293Y-9576719D01*
X-12426629Y-9583907D01*
X-12468636Y-9648592D01*
X-12537357Y-9683607D01*
X-12614380Y-9679570D01*
X-12679065Y-9637563D01*
X-12714080Y-9568842D01*
X-12717336Y-9537863D01*
X-12717336Y-9323223D01*
X-13436497Y-9323223D01*
X-20999500Y-9323223D01*
X-20999500Y-8823222D01*
X-13436498Y-8823222D01*
X-13436497Y-8823223D01*
X-12717336Y-8823223D01*
X-12717336Y-8104062D01*
X-12717337Y-8104061D01*
X-12851870Y-8144872D01*
X-13025597Y-8237731D01*
X-13025599Y-8237732D01*
X-13177862Y-8362692D01*
X-13177867Y-8362697D01*
X-13302827Y-8514960D01*
X-13302828Y-8514962D01*
X-13395687Y-8688689D01*
X-13436498Y-8823222D01*
X-20999500Y-8823222D01*
X-20999500Y-5099495D01*
X-16255332Y-5099495D01*
X-16237028Y-5261953D01*
X-16237027Y-5261957D01*
X-16210428Y-5337974D01*
X-16204665Y-5414887D01*
X-16210428Y-5436393D01*
X-16236719Y-5511531D01*
X-16236721Y-5511538D01*
X-16255025Y-5673996D01*
X-16255025Y-5673997D01*
X-16236721Y-5836455D01*
X-16236721Y-5836457D01*
X-16236720Y-5836458D01*
X-16182723Y-5990772D01*
X-16095742Y-6129201D01*
X-15980138Y-6244805D01*
X-15841709Y-6331786D01*
X-15687395Y-6385783D01*
X-15579088Y-6397986D01*
X-15524935Y-6404088D01*
X-15524934Y-6404088D01*
X-15524933Y-6404088D01*
X-15484319Y-6399511D01*
X-15362473Y-6385783D01*
X-15208159Y-6331786D01*
X-15069730Y-6244805D01*
X-14954126Y-6129201D01*
X-14867145Y-5990772D01*
X-14813148Y-5836458D01*
X-14794843Y-5673997D01*
X-14811631Y-5525000D01*
X-12680091Y-5525000D01*
X-12661787Y-5687458D01*
X-12661787Y-5687460D01*
X-12661786Y-5687461D01*
X-12607789Y-5841775D01*
X-12520808Y-5980204D01*
X-12520807Y-5980205D01*
X-12408505Y-6092507D01*
X-12369941Y-6159302D01*
X-12369941Y-6236430D01*
X-12395651Y-6288567D01*
X-12408715Y-6305593D01*
X-12408718Y-6305598D01*
X-12467210Y-6446811D01*
X-12487159Y-6598347D01*
X-12487159Y-6598352D01*
X-12467210Y-6749888D01*
X-12408717Y-6891104D01*
X-12373145Y-6937461D01*
X-12315667Y-7012367D01*
X-12282142Y-7038092D01*
X-12194405Y-7105416D01*
X-12053189Y-7163909D01*
X-11964884Y-7175534D01*
X-11939702Y-7178849D01*
X-11939699Y-7178850D01*
X-11939697Y-7178850D01*
X-11863601Y-7178850D01*
X-11863600Y-7178849D01*
X-11822637Y-7173456D01*
X-11750112Y-7163909D01*
X-11750110Y-7163908D01*
X-11750109Y-7163908D01*
X-11608896Y-7105416D01*
X-11521157Y-7038090D01*
X-11449903Y-7008576D01*
X-11381241Y-7015662D01*
X-11377511Y-7016967D01*
X-11377508Y-7016969D01*
X-11223194Y-7070966D01*
X-11114887Y-7083169D01*
X-11060734Y-7089271D01*
X-11060733Y-7089271D01*
X-11060732Y-7089271D01*
X-11020118Y-7084694D01*
X-10898272Y-7070966D01*
X-10743958Y-7016969D01*
X-10605529Y-6929988D01*
X-10489925Y-6814384D01*
X-10421763Y-6705904D01*
X-10365226Y-6653445D01*
X-10290031Y-6636282D01*
X-10216330Y-6659016D01*
X-10180424Y-6690652D01*
X-10137304Y-6743193D01*
X-10137303Y-6743194D01*
X-9985040Y-6868154D01*
X-9985038Y-6868155D01*
X-9811309Y-6961014D01*
X-9804551Y-6963814D01*
X-9805225Y-6965440D01*
X-9747828Y-7001122D01*
X-9711462Y-7069139D01*
X-9708382Y-7087415D01*
X-9692529Y-7238254D01*
X-9657582Y-7345808D01*
X-9634033Y-7418284D01*
X-9594483Y-7486786D01*
X-9539385Y-7582220D01*
X-9412727Y-7722886D01*
X-9412725Y-7722888D01*
X-9259584Y-7834151D01*
X-9086657Y-7911144D01*
X-8945539Y-7941139D01*
X-8901502Y-7950500D01*
X-8901500Y-7950500D01*
X-8712206Y-7950500D01*
X-8672850Y-7942134D01*
X-8527051Y-7911144D01*
X-8354124Y-7834151D01*
X-8200983Y-7722888D01*
X-8128659Y-7642563D01*
X-8074324Y-7582220D01*
X-8074323Y-7582218D01*
X-8074321Y-7582216D01*
X-7979675Y-7418284D01*
X-7921180Y-7238256D01*
X-7901394Y-7050000D01*
X-7921180Y-6861744D01*
X-7949365Y-6775000D01*
X-3880091Y-6775000D01*
X-3861787Y-6937458D01*
X-3861787Y-6937460D01*
X-3861786Y-6937461D01*
X-3807789Y-7091775D01*
X-3720808Y-7230204D01*
X-3605204Y-7345808D01*
X-3466775Y-7432789D01*
X-3312461Y-7486786D01*
X-3204154Y-7498989D01*
X-3150001Y-7505091D01*
X-3150000Y-7505091D01*
X-3149999Y-7505091D01*
X-3109385Y-7500514D01*
X-2987539Y-7486786D01*
X-2833225Y-7432789D01*
X-2694796Y-7345808D01*
X-2579192Y-7230204D01*
X-2492211Y-7091775D01*
X-2438214Y-6937461D01*
X-2419909Y-6775000D01*
X-2438214Y-6612539D01*
X-2492211Y-6458225D01*
X-2579192Y-6319796D01*
X-2694796Y-6204192D01*
X-2833225Y-6117211D01*
X-2987539Y-6063214D01*
X-2987540Y-6063213D01*
X-2987542Y-6063213D01*
X-3149999Y-6044909D01*
X-3150001Y-6044909D01*
X-3312459Y-6063213D01*
X-3389618Y-6090212D01*
X-3466775Y-6117211D01*
X-3466777Y-6117211D01*
X-3466777Y-6117212D01*
X-3605204Y-6204192D01*
X-3720808Y-6319796D01*
X-3807788Y-6458223D01*
X-3861787Y-6612541D01*
X-3880091Y-6774999D01*
X-3880091Y-6775000D01*
X-7949365Y-6775000D01*
X-7979675Y-6681716D01*
X-8074321Y-6517784D01*
X-8074322Y-6517783D01*
X-8074324Y-6517779D01*
X-8200982Y-6377113D01*
X-8225665Y-6359180D01*
X-8354124Y-6265849D01*
X-8354125Y-6265848D01*
X-8354127Y-6265847D01*
X-8527049Y-6188857D01*
X-8527051Y-6188856D01*
X-8633494Y-6166231D01*
X-8712206Y-6149500D01*
X-8712208Y-6149500D01*
X-8901500Y-6149500D01*
X-8901502Y-6149500D01*
X-8981917Y-6166593D01*
X-9086657Y-6188856D01*
X-9086659Y-6188856D01*
X-9086660Y-6188857D01*
X-9119516Y-6203485D01*
X-9082795Y-6119772D01*
X-9073149Y-6003362D01*
X-9101824Y-5890126D01*
X-9165713Y-5792337D01*
X-9257892Y-5720592D01*
X-9368372Y-5682664D01*
X-9455782Y-5682664D01*
X-9541993Y-5697050D01*
X-9644724Y-5752645D01*
X-9676777Y-5787463D01*
X-9676777Y-5063503D01*
X-9676778Y-5063502D01*
X-9176777Y-5063502D01*
X-9176777Y-5782664D01*
X-8457616Y-5782664D01*
X-8457616Y-5782663D01*
X-8498427Y-5648130D01*
X-8591286Y-5474403D01*
X-8591287Y-5474401D01*
X-8716247Y-5322138D01*
X-8716252Y-5322133D01*
X-8868515Y-5197173D01*
X-8868517Y-5197172D01*
X-9042244Y-5104313D01*
X-9176777Y-5063502D01*
X-9676778Y-5063502D01*
X-9811311Y-5104313D01*
X-9985038Y-5197172D01*
X-9985040Y-5197173D01*
X-10137303Y-5322133D01*
X-10137308Y-5322138D01*
X-10262639Y-5474853D01*
X-10325333Y-5519778D01*
X-10402090Y-5527338D01*
X-10472342Y-5495506D01*
X-10517267Y-5432812D01*
X-10525880Y-5397010D01*
X-10527086Y-5386307D01*
X-10538214Y-5287539D01*
X-10592211Y-5133225D01*
X-10679192Y-4994796D01*
X-10794796Y-4879192D01*
X-10933225Y-4792211D01*
X-11087539Y-4738214D01*
X-11087540Y-4738213D01*
X-11087542Y-4738213D01*
X-11249999Y-4719909D01*
X-11250001Y-4719909D01*
X-11412459Y-4738213D01*
X-11566778Y-4792212D01*
X-11606459Y-4817144D01*
X-11680161Y-4839876D01*
X-11734937Y-4831619D01*
X-11787535Y-4813215D01*
X-11787542Y-4813213D01*
X-11949999Y-4794909D01*
X-11950001Y-4794909D01*
X-12112459Y-4813213D01*
X-12177434Y-4835949D01*
X-12266775Y-4867211D01*
X-12266777Y-4867211D01*
X-12266777Y-4867212D01*
X-12405204Y-4954192D01*
X-12520808Y-5069796D01*
X-12595240Y-5188254D01*
X-12607789Y-5208225D01*
X-12617558Y-5236144D01*
X-12661787Y-5362541D01*
X-12680091Y-5524999D01*
X-12680091Y-5525000D01*
X-14811631Y-5525000D01*
X-14813148Y-5511536D01*
X-14839749Y-5435517D01*
X-14845513Y-5358608D01*
X-14839751Y-5337101D01*
X-14813455Y-5261956D01*
X-14795150Y-5099495D01*
X-14813455Y-4937034D01*
X-14838502Y-4865457D01*
X-14844266Y-4788547D01*
X-14838506Y-4767048D01*
X-14810656Y-4687461D01*
X-14792351Y-4525000D01*
X-14793042Y-4518871D01*
X-14810656Y-4362541D01*
X-14810656Y-4362539D01*
X-14864653Y-4208225D01*
X-14951634Y-4069796D01*
X-15067238Y-3954192D01*
X-15205667Y-3867211D01*
X-15359981Y-3813214D01*
X-15359982Y-3813213D01*
X-15359984Y-3813213D01*
X-15522441Y-3794909D01*
X-15522443Y-3794909D01*
X-15684901Y-3813213D01*
X-15751236Y-3836425D01*
X-15839217Y-3867211D01*
X-15839219Y-3867211D01*
X-15839219Y-3867212D01*
X-15938106Y-3929347D01*
X-15977646Y-3954192D01*
X-16093250Y-4069796D01*
X-16180231Y-4208225D01*
X-16190000Y-4236144D01*
X-16234229Y-4362541D01*
X-16252533Y-4524999D01*
X-16252533Y-4525000D01*
X-16234228Y-4687461D01*
X-16225716Y-4711786D01*
X-16209183Y-4759036D01*
X-16203420Y-4835949D01*
X-16209183Y-4857456D01*
X-16237026Y-4937029D01*
X-16237028Y-4937036D01*
X-16255332Y-5099494D01*
X-16255332Y-5099495D01*
X-20999500Y-5099495D01*
X-20999500Y-2731439D01*
X-13780432Y-2731439D01*
X-13760647Y-2919693D01*
X-13708493Y-3080204D01*
X-13702151Y-3099723D01*
X-13651909Y-3186745D01*
X-13607503Y-3263659D01*
X-13482149Y-3402877D01*
X-13480843Y-3404327D01*
X-13327702Y-3515590D01*
X-13327701Y-3515590D01*
X-13327700Y-3515591D01*
X-13314664Y-3521395D01*
X-13154775Y-3592583D01*
X-13013657Y-3622578D01*
X-12969620Y-3631939D01*
X-12969618Y-3631939D01*
X-12780324Y-3631939D01*
X-12740968Y-3623573D01*
X-12595169Y-3592583D01*
X-12422242Y-3515590D01*
X-12269101Y-3404327D01*
X-12148070Y-3269909D01*
X-12142442Y-3263659D01*
X-12142441Y-3263657D01*
X-12142439Y-3263655D01*
X-12078617Y-3153111D01*
X-11429587Y-3153111D01*
X-11409802Y-3341365D01*
X-11359982Y-3494693D01*
X-11351306Y-3521395D01*
X-11302695Y-3605592D01*
X-11256658Y-3685331D01*
X-11142116Y-3812541D01*
X-11129998Y-3825999D01*
X-10976857Y-3937262D01*
X-10803930Y-4014255D01*
X-10662812Y-4044250D01*
X-10618775Y-4053611D01*
X-10618773Y-4053611D01*
X-10429479Y-4053611D01*
X-10390123Y-4045245D01*
X-10244324Y-4014255D01*
X-10071397Y-3937262D01*
X-10039604Y-3914162D01*
X-9967600Y-3886522D01*
X-9891421Y-3898587D01*
X-9846665Y-3929347D01*
X-9805204Y-3970808D01*
X-9666775Y-4057789D01*
X-9512461Y-4111786D01*
X-9404154Y-4123989D01*
X-9350001Y-4130091D01*
X-9350000Y-4130091D01*
X-9349999Y-4130091D01*
X-9309385Y-4125514D01*
X-9187539Y-4111786D01*
X-9033225Y-4057789D01*
X-8894796Y-3970808D01*
X-8823988Y-3900000D01*
X-3430091Y-3900000D01*
X-3411787Y-4062458D01*
X-3411787Y-4062460D01*
X-3411786Y-4062461D01*
X-3357789Y-4216775D01*
X-3270808Y-4355204D01*
X-3155204Y-4470808D01*
X-3016775Y-4557789D01*
X-2862461Y-4611786D01*
X-2758266Y-4623526D01*
X-2700001Y-4630091D01*
X-2700000Y-4630091D01*
X-2699999Y-4630091D01*
X-2648515Y-4624290D01*
X-2537539Y-4611786D01*
X-2383225Y-4557789D01*
X-2244796Y-4470808D01*
X-2129192Y-4355204D01*
X-2112225Y-4328200D01*
X-2055686Y-4275741D01*
X-1980491Y-4258578D01*
X-1906790Y-4281312D01*
X-1859901Y-4328201D01*
X-1795808Y-4430204D01*
X-1680204Y-4545808D01*
X-1541775Y-4632789D01*
X-1387461Y-4686786D01*
X-1279154Y-4698989D01*
X-1225001Y-4705091D01*
X-1225000Y-4705091D01*
X-1224999Y-4705091D01*
X-1184385Y-4700514D01*
X-1062539Y-4686786D01*
X-997437Y-4664004D01*
X-920525Y-4658240D01*
X-899019Y-4664002D01*
X-762461Y-4711786D01*
X-654154Y-4723989D01*
X-600001Y-4730091D01*
X-600000Y-4730091D01*
X-599999Y-4730091D01*
X-559385Y-4725514D01*
X-437539Y-4711786D01*
X-318145Y-4670007D01*
X-241233Y-4664245D01*
X-219728Y-4670006D01*
X-100329Y-4711786D01*
X7978Y-4723989D01*
X62131Y-4730091D01*
X62132Y-4730091D01*
X62133Y-4730091D01*
X102747Y-4725514D01*
X224593Y-4711786D01*
X369356Y-4661130D01*
X446267Y-4655368D01*
X467768Y-4661128D01*
X612539Y-4711786D01*
X720846Y-4723989D01*
X774999Y-4730091D01*
X775000Y-4730091D01*
X775001Y-4730091D01*
X793306Y-4728028D01*
X937461Y-4711786D01*
X1050788Y-4672130D01*
X1127700Y-4666366D01*
X1149211Y-4672130D01*
X1262539Y-4711786D01*
X1404369Y-4727766D01*
X1424999Y-4730091D01*
X1425000Y-4730091D01*
X1425001Y-4730091D01*
X1465615Y-4725514D01*
X1587461Y-4711786D01*
X1741775Y-4657789D01*
X1880204Y-4570808D01*
X1932141Y-4518871D01*
X1998936Y-4480307D01*
X2076064Y-4480307D01*
X2142859Y-4518871D01*
X2169796Y-4545808D01*
X2308225Y-4632789D01*
X2462539Y-4686786D01*
X2570846Y-4698989D01*
X2624999Y-4705091D01*
X2625000Y-4705091D01*
X2625001Y-4705091D01*
X2665615Y-4700514D01*
X2787461Y-4686786D01*
X2941775Y-4632789D01*
X3080204Y-4545808D01*
X3195808Y-4430204D01*
X3230495Y-4375000D01*
X8119540Y-4375000D01*
X8139325Y-4563254D01*
X8179683Y-4687461D01*
X8197821Y-4743284D01*
X8238195Y-4813214D01*
X8292469Y-4907220D01*
X8376010Y-5000000D01*
X8419129Y-5047888D01*
X8572270Y-5159151D01*
X8745197Y-5236144D01*
X8866620Y-5261953D01*
X8913152Y-5271844D01*
X8981874Y-5306860D01*
X9017695Y-5362020D01*
X9019646Y-5361152D01*
X9022822Y-5368286D01*
X9033733Y-5387184D01*
X9113300Y-5524999D01*
X9117469Y-5532219D01*
X9244127Y-5672886D01*
X9244129Y-5672888D01*
X9397270Y-5784151D01*
X9570197Y-5861144D01*
X9706548Y-5890126D01*
X9755352Y-5900500D01*
X9755354Y-5900500D01*
X9944648Y-5900500D01*
X9993452Y-5890126D01*
X10129803Y-5861144D01*
X10302730Y-5784151D01*
X10455871Y-5672888D01*
X10528195Y-5592563D01*
X10582530Y-5532220D01*
X10582531Y-5532218D01*
X10582533Y-5532216D01*
X10677179Y-5368284D01*
X10735674Y-5188256D01*
X10755460Y-5000000D01*
X10735674Y-4811744D01*
X10677179Y-4631716D01*
X10677178Y-4631715D01*
X10674766Y-4624290D01*
X10677116Y-4623526D01*
X10667025Y-4559850D01*
X10686171Y-4500914D01*
X10777179Y-4343284D01*
X10835674Y-4163256D01*
X10855460Y-3975000D01*
X10835674Y-3786744D01*
X10777179Y-3606716D01*
X10682533Y-3442784D01*
X10682532Y-3442783D01*
X10682530Y-3442779D01*
X10598990Y-3350000D01*
X14719540Y-3350000D01*
X14739325Y-3538254D01*
X14787114Y-3685331D01*
X14797821Y-3718284D01*
X14831061Y-3775857D01*
X14892469Y-3882220D01*
X15004572Y-4006721D01*
X15019129Y-4022888D01*
X15172270Y-4134151D01*
X15172271Y-4134151D01*
X15172272Y-4134152D01*
X15196748Y-4145049D01*
X15345197Y-4211144D01*
X15486315Y-4241139D01*
X15530352Y-4250500D01*
X15530354Y-4250500D01*
X15719648Y-4250500D01*
X15787186Y-4236144D01*
X15904803Y-4211144D01*
X15998819Y-4169283D01*
X16074997Y-4157218D01*
X16120028Y-4169284D01*
X16159244Y-4186744D01*
X16270197Y-4236144D01*
X16411315Y-4266139D01*
X16455352Y-4275500D01*
X16455354Y-4275500D01*
X16644648Y-4275500D01*
X16684004Y-4267134D01*
X16829803Y-4236144D01*
X17002730Y-4159151D01*
X17155871Y-4047888D01*
X17240235Y-3954193D01*
X17282530Y-3907220D01*
X17282531Y-3907218D01*
X17282533Y-3907216D01*
X17377179Y-3743284D01*
X17435674Y-3563256D01*
X17455460Y-3375000D01*
X17435674Y-3186744D01*
X17377179Y-3006716D01*
X17282533Y-2842784D01*
X17282532Y-2842783D01*
X17282530Y-2842779D01*
X17155871Y-2702112D01*
X17155867Y-2702109D01*
X17041880Y-2619292D01*
X16993342Y-2559353D01*
X16982352Y-2507651D01*
X16981276Y-2507765D01*
X16978381Y-2480224D01*
X16960674Y-2311744D01*
X16902179Y-2131716D01*
X16807533Y-1967784D01*
X16807532Y-1967783D01*
X16807530Y-1967779D01*
X16680872Y-1827113D01*
X16657250Y-1809951D01*
X16527730Y-1715849D01*
X16527729Y-1715848D01*
X16527727Y-1715847D01*
X16354805Y-1638857D01*
X16354803Y-1638856D01*
X16248360Y-1616231D01*
X16169648Y-1599500D01*
X16169646Y-1599500D01*
X15980354Y-1599500D01*
X15980352Y-1599500D01*
X15880392Y-1620747D01*
X15795197Y-1638856D01*
X15795195Y-1638856D01*
X15795194Y-1638857D01*
X15622272Y-1715847D01*
X15469127Y-1827113D01*
X15342469Y-1967779D01*
X15247822Y-2131714D01*
X15247819Y-2131721D01*
X15189325Y-2311745D01*
X15168755Y-2507465D01*
X15141115Y-2579470D01*
X15108151Y-2612433D01*
X15019132Y-2677108D01*
X15019128Y-2677112D01*
X14892469Y-2817779D01*
X14797822Y-2981714D01*
X14797819Y-2981721D01*
X14739325Y-3161745D01*
X14719540Y-3350000D01*
X10598990Y-3350000D01*
X10555872Y-3302113D01*
X10555869Y-3302111D01*
X10402730Y-3190849D01*
X10402729Y-3190848D01*
X10402727Y-3190847D01*
X10229805Y-3113857D01*
X10229803Y-3113856D01*
X10123360Y-3091231D01*
X10044648Y-3074500D01*
X10044646Y-3074500D01*
X9855354Y-3074500D01*
X9855352Y-3074500D01*
X9755392Y-3095747D01*
X9670197Y-3113856D01*
X9670195Y-3113856D01*
X9670194Y-3113857D01*
X9497272Y-3190847D01*
X9363259Y-3288213D01*
X9344129Y-3302112D01*
X9233297Y-3425202D01*
X9168614Y-3467207D01*
X9122571Y-3474500D01*
X8930352Y-3474500D01*
X8830392Y-3495747D01*
X8745197Y-3513856D01*
X8745195Y-3513856D01*
X8745194Y-3513857D01*
X8572272Y-3590847D01*
X8419127Y-3702113D01*
X8292469Y-3842779D01*
X8197822Y-4006714D01*
X8197819Y-4006721D01*
X8139325Y-4186745D01*
X8119540Y-4375000D01*
X3230495Y-4375000D01*
X3282789Y-4291775D01*
X3336786Y-4137461D01*
X3355091Y-3975000D01*
X3352746Y-3954192D01*
X3347454Y-3907216D01*
X3336786Y-3812539D01*
X3282789Y-3658225D01*
X3195808Y-3519796D01*
X3080204Y-3404192D01*
X2941775Y-3317211D01*
X2787461Y-3263214D01*
X2787460Y-3263213D01*
X2787458Y-3263213D01*
X2625001Y-3244909D01*
X2624999Y-3244909D01*
X2462541Y-3263213D01*
X2406600Y-3282788D01*
X2308225Y-3317211D01*
X2308223Y-3317211D01*
X2308223Y-3317212D01*
X2169796Y-3404192D01*
X2117859Y-3456129D01*
X2051064Y-3494693D01*
X1973936Y-3494693D01*
X1907141Y-3456129D01*
X1880205Y-3429193D01*
X1880204Y-3429192D01*
X1741775Y-3342211D01*
X1587461Y-3288214D01*
X1587460Y-3288213D01*
X1587458Y-3288213D01*
X1425001Y-3269909D01*
X1424999Y-3269909D01*
X1262539Y-3288214D01*
X1149211Y-3327869D01*
X1072299Y-3333632D01*
X1050789Y-3327869D01*
X977176Y-3302111D01*
X937461Y-3288214D01*
X856230Y-3279061D01*
X775001Y-3269909D01*
X774999Y-3269909D01*
X612539Y-3288214D01*
X467777Y-3338868D01*
X390865Y-3344631D01*
X369355Y-3338868D01*
X264308Y-3302111D01*
X224593Y-3288214D01*
X143362Y-3279061D01*
X62133Y-3269909D01*
X62131Y-3269909D01*
X-100327Y-3288213D01*
X-140044Y-3302111D01*
X-219724Y-3329992D01*
X-296635Y-3335755D01*
X-318141Y-3329993D01*
X-437539Y-3288214D01*
X-437540Y-3288213D01*
X-437542Y-3288213D01*
X-599999Y-3269909D01*
X-600001Y-3269909D01*
X-762463Y-3288214D01*
X-827568Y-3310995D01*
X-904480Y-3316758D01*
X-925989Y-3310995D01*
X-952676Y-3301657D01*
X-1062539Y-3263214D01*
X-1143770Y-3254061D01*
X-1224999Y-3244909D01*
X-1225001Y-3244909D01*
X-1387459Y-3263213D01*
X-1443400Y-3282788D01*
X-1541775Y-3317211D01*
X-1541777Y-3317211D01*
X-1541777Y-3317212D01*
X-1680204Y-3404192D01*
X-1795807Y-3519795D01*
X-1795812Y-3519801D01*
X-1812779Y-3546802D01*
X-1869320Y-3599261D01*
X-1944515Y-3616421D01*
X-2018215Y-3593684D01*
X-2065100Y-3546798D01*
X-2070467Y-3538256D01*
X-2129192Y-3444796D01*
X-2244796Y-3329192D01*
X-2383225Y-3242211D01*
X-2537539Y-3188214D01*
X-2537540Y-3188213D01*
X-2537542Y-3188213D01*
X-2699999Y-3169909D01*
X-2700001Y-3169909D01*
X-2862459Y-3188213D01*
X-2939618Y-3215212D01*
X-3016775Y-3242211D01*
X-3016777Y-3242211D01*
X-3016777Y-3242212D01*
X-3155204Y-3329192D01*
X-3270808Y-3444796D01*
X-3345240Y-3563254D01*
X-3357789Y-3583225D01*
X-3369405Y-3616421D01*
X-3411787Y-3737541D01*
X-3430091Y-3899999D01*
X-3430091Y-3900000D01*
X-8823988Y-3900000D01*
X-8779192Y-3855204D01*
X-8729334Y-3775853D01*
X-8672799Y-3723396D01*
X-8652389Y-3714491D01*
X-8589749Y-3692573D01*
X-8451320Y-3605592D01*
X-8335716Y-3489988D01*
X-8280980Y-3402875D01*
X-8224443Y-3350416D01*
X-8195405Y-3339642D01*
X-8195437Y-3339549D01*
X-8190444Y-3337801D01*
X-8187970Y-3336884D01*
X-8187545Y-3336786D01*
X-8187539Y-3336786D01*
X-8033225Y-3282789D01*
X-7894796Y-3195808D01*
X-7779192Y-3080204D01*
X-7692211Y-2941775D01*
X-7638214Y-2787461D01*
X-7619909Y-2625000D01*
X-7620372Y-2620895D01*
X-7623757Y-2590849D01*
X-7638214Y-2462539D01*
X-7667691Y-2378301D01*
X-7673453Y-2301390D01*
X-7639989Y-2231900D01*
X-7576262Y-2188452D01*
X-7533301Y-2181152D01*
X-7533315Y-2181028D01*
X-7531092Y-2180777D01*
X-7527051Y-2180091D01*
X-7524999Y-2180091D01*
X-7433621Y-2169795D01*
X-7362539Y-2161786D01*
X-7286959Y-2135338D01*
X-7210050Y-2129574D01*
X-7188545Y-2135336D01*
X-7112958Y-2161786D01*
X-6968803Y-2178028D01*
X-6950498Y-2180091D01*
X-6950497Y-2180091D01*
X-6950496Y-2180091D01*
X-6909882Y-2175514D01*
X-6788036Y-2161786D01*
X-6676235Y-2122664D01*
X-6599324Y-2116902D01*
X-6577815Y-2122665D01*
X-6537461Y-2136786D01*
X-6393306Y-2153028D01*
X-6375001Y-2155091D01*
X-6375000Y-2155091D01*
X-6374999Y-2155091D01*
X-6334385Y-2150514D01*
X-6212539Y-2136786D01*
X-6058225Y-2082789D01*
X-5919796Y-1995808D01*
X-5852524Y-1928535D01*
X-5785731Y-1889972D01*
X-5708603Y-1889972D01*
X-5659588Y-1913351D01*
X-5628027Y-1936281D01*
X-5527731Y-2009151D01*
X-5458340Y-2040046D01*
X-5354803Y-2086144D01*
X-5213685Y-2116139D01*
X-5169648Y-2125500D01*
X-5169646Y-2125500D01*
X-4980352Y-2125500D01*
X-4939903Y-2116902D01*
X-4795197Y-2086144D01*
X-4622270Y-2009151D01*
X-4469129Y-1897888D01*
X-4389950Y-1809951D01*
X-4342470Y-1757220D01*
X-4342469Y-1757218D01*
X-4342467Y-1757216D01*
X-4247821Y-1593284D01*
X-4189326Y-1413256D01*
X-4169540Y-1225000D01*
X-4189326Y-1036744D01*
X-4247821Y-856716D01*
X-4342467Y-692784D01*
X-4342468Y-692783D01*
X-4342470Y-692779D01*
X-4469128Y-552113D01*
X-4543763Y-497888D01*
X-4622270Y-440849D01*
X-4622271Y-440848D01*
X-4622273Y-440847D01*
X-4770719Y-374754D01*
X-4795197Y-363856D01*
X-4901640Y-341231D01*
X-4980352Y-324500D01*
X-4980354Y-324500D01*
X-5169646Y-324500D01*
X-5169648Y-324500D01*
X-5269608Y-345747D01*
X-5354803Y-363856D01*
X-5354805Y-363856D01*
X-5354806Y-363857D01*
X-5527728Y-440847D01*
X-5680873Y-552113D01*
X-5807532Y-692781D01*
X-5828462Y-729032D01*
X-5883001Y-783568D01*
X-5957501Y-803529D01*
X-6032001Y-783565D01*
X-6036770Y-780691D01*
X-6058221Y-767212D01*
X-6212542Y-713213D01*
X-6374999Y-694909D01*
X-6375001Y-694909D01*
X-6537463Y-713214D01*
X-6649263Y-752334D01*
X-6726175Y-758097D01*
X-6747684Y-752334D01*
X-6758378Y-748592D01*
X-6788036Y-738214D01*
X-6871978Y-728756D01*
X-6950496Y-719909D01*
X-6950498Y-719909D01*
X-7112956Y-738213D01*
X-7112960Y-738214D01*
X-7188539Y-764660D01*
X-7265452Y-770423D01*
X-7286960Y-764660D01*
X-7322186Y-752334D01*
X-7362539Y-738214D01*
X-7446481Y-728756D01*
X-7524999Y-719909D01*
X-7525001Y-719909D01*
X-7687459Y-738213D01*
X-7744283Y-758097D01*
X-7841775Y-792211D01*
X-7841777Y-792211D01*
X-7841777Y-792212D01*
X-7980204Y-879192D01*
X-8095808Y-994796D01*
X-8175694Y-1121934D01*
X-8182789Y-1133225D01*
X-8187192Y-1145808D01*
X-8236787Y-1287541D01*
X-8247175Y-1379741D01*
X-8255091Y-1450000D01*
X-8236786Y-1612461D01*
X-8207310Y-1696698D01*
X-8201547Y-1773610D01*
X-8235011Y-1843100D01*
X-8298738Y-1886548D01*
X-8341700Y-1893847D01*
X-8341685Y-1893972D01*
X-8343909Y-1894222D01*
X-8347949Y-1894909D01*
X-8350001Y-1894909D01*
X-8512459Y-1913213D01*
X-8578385Y-1936282D01*
X-8666775Y-1967211D01*
X-8666777Y-1967211D01*
X-8666777Y-1967212D01*
X-8805204Y-2054192D01*
X-8920807Y-2169795D01*
X-8920813Y-2169802D01*
X-8975545Y-2256907D01*
X-9032084Y-2309368D01*
X-9061120Y-2320142D01*
X-9061087Y-2320235D01*
X-9066016Y-2321959D01*
X-9068539Y-2322896D01*
X-9068979Y-2322996D01*
X-9068985Y-2322997D01*
X-9068985Y-2322998D01*
X-9223299Y-2376995D01*
X-9223301Y-2376995D01*
X-9223301Y-2376996D01*
X-9361728Y-2463976D01*
X-9477331Y-2579579D01*
X-9477335Y-2579582D01*
X-9521981Y-2650636D01*
X-9578521Y-2703096D01*
X-9653715Y-2720258D01*
X-9727416Y-2697523D01*
X-9777181Y-2645860D01*
X-9791594Y-2620895D01*
X-9791595Y-2620894D01*
X-9828793Y-2579582D01*
X-9918256Y-2480223D01*
X-10071397Y-2368960D01*
X-10071398Y-2368959D01*
X-10071400Y-2368958D01*
X-10244322Y-2291968D01*
X-10244324Y-2291967D01*
X-10350767Y-2269342D01*
X-10429479Y-2252611D01*
X-10429481Y-2252611D01*
X-10618773Y-2252611D01*
X-10618775Y-2252611D01*
X-10714160Y-2272886D01*
X-10803930Y-2291967D01*
X-10803932Y-2291967D01*
X-10803933Y-2291968D01*
X-10976855Y-2368958D01*
X-11130000Y-2480224D01*
X-11256658Y-2620890D01*
X-11351305Y-2784825D01*
X-11351308Y-2784832D01*
X-11409802Y-2964856D01*
X-11429587Y-3153111D01*
X-12078617Y-3153111D01*
X-12047793Y-3099723D01*
X-11989298Y-2919695D01*
X-11969512Y-2731439D01*
X-11989298Y-2543183D01*
X-12047793Y-2363155D01*
X-12142439Y-2199223D01*
X-12142440Y-2199222D01*
X-12142442Y-2199218D01*
X-12269100Y-2058552D01*
X-12393344Y-1968284D01*
X-12422242Y-1947288D01*
X-12422243Y-1947287D01*
X-12422245Y-1947286D01*
X-12595167Y-1870296D01*
X-12595169Y-1870295D01*
X-12701612Y-1847670D01*
X-12780324Y-1830939D01*
X-12780326Y-1830939D01*
X-12969618Y-1830939D01*
X-12969620Y-1830939D01*
X-13069580Y-1852186D01*
X-13154775Y-1870295D01*
X-13154777Y-1870295D01*
X-13154778Y-1870296D01*
X-13327700Y-1947286D01*
X-13480845Y-2058552D01*
X-13607503Y-2199218D01*
X-13702150Y-2363153D01*
X-13702153Y-2363160D01*
X-13760647Y-2543184D01*
X-13780432Y-2731439D01*
X-20999500Y-2731439D01*
X-20999500Y2175000D01*
X-17330091Y2175000D01*
X-17311787Y2012542D01*
X-17311787Y2012540D01*
X-17311786Y2012539D01*
X-17257789Y1858225D01*
X-17170808Y1719796D01*
X-17055204Y1604192D01*
X-16916775Y1517211D01*
X-16762461Y1463214D01*
X-16726204Y1459129D01*
X-16654407Y1430951D01*
X-16606318Y1370650D01*
X-16602248Y1360278D01*
X-16557791Y1233227D01*
X-16528208Y1186147D01*
X-16470808Y1094796D01*
X-16470807Y1094795D01*
X-16456371Y1080359D01*
X-16417807Y1013564D01*
X-16417807Y936436D01*
X-16456371Y869641D01*
X-16470808Y855204D01*
X-16543913Y738858D01*
X-16557789Y716775D01*
X-16566419Y692112D01*
X-16611787Y562459D01*
X-16630091Y400001D01*
X-16630091Y400000D01*
X-16611787Y237542D01*
X-16611787Y237540D01*
X-16611786Y237539D01*
X-16557789Y83225D01*
X-16470808Y-55204D01*
X-16355204Y-170808D01*
X-16216775Y-257789D01*
X-16138994Y-285006D01*
X-16075269Y-328453D01*
X-16041804Y-397943D01*
X-16040143Y-442326D01*
X-16055091Y-574997D01*
X-16055091Y-575000D01*
X-16036787Y-737458D01*
X-16036787Y-737460D01*
X-16036786Y-737461D01*
X-15982789Y-891775D01*
X-15895808Y-1030204D01*
X-15780204Y-1145808D01*
X-15641775Y-1232789D01*
X-15487461Y-1286786D01*
X-15379154Y-1298989D01*
X-15325001Y-1305091D01*
X-15325001Y-1305090D01*
X-15325000Y-1305091D01*
X-15257828Y-1297522D01*
X-15181562Y-1309017D01*
X-15135786Y-1340226D01*
X-15105204Y-1370808D01*
X-14966775Y-1457789D01*
X-14812461Y-1511786D01*
X-14704154Y-1523989D01*
X-14650001Y-1530091D01*
X-14650000Y-1530091D01*
X-14649999Y-1530091D01*
X-14609385Y-1525514D01*
X-14487539Y-1511786D01*
X-14333225Y-1457789D01*
X-14194796Y-1370808D01*
X-14079192Y-1255204D01*
X-13992211Y-1116775D01*
X-13938214Y-962461D01*
X-13919909Y-800000D01*
X-13923242Y-770423D01*
X-13929286Y-716775D01*
X-13938214Y-637539D01*
X-13992211Y-483225D01*
X-13992213Y-483222D01*
X-13992213Y-483221D01*
X-14021963Y-435875D01*
X-14044698Y-362173D01*
X-14038483Y-320983D01*
X-14040076Y-320620D01*
X-14038215Y-312463D01*
X-14038214Y-312461D01*
X-14019909Y-150000D01*
X-14038214Y12461D01*
X-14092211Y166775D01*
X-14179192Y305204D01*
X-14294796Y420808D01*
X-14433225Y507789D01*
X-14587539Y561786D01*
X-14587540Y561787D01*
X-14587542Y561787D01*
X-14749999Y580091D01*
X-14750001Y580091D01*
X-14912463Y561786D01*
X-15017287Y525107D01*
X-15094199Y519344D01*
X-15163689Y552809D01*
X-15207135Y616534D01*
X-15242211Y716775D01*
X-15329192Y855204D01*
X-15343629Y869641D01*
X-15382193Y936436D01*
X-15382193Y1013564D01*
X-15343629Y1080359D01*
X-15329193Y1094795D01*
X-15329192Y1094796D01*
X-15242211Y1233225D01*
X-15188214Y1387539D01*
X-15169909Y1550000D01*
X-15188214Y1712461D01*
X-15235997Y1849015D01*
X-15241759Y1925925D01*
X-15235995Y1947438D01*
X-15213214Y2012539D01*
X-15194909Y2175000D01*
X-15213214Y2337461D01*
X-15228699Y2381715D01*
X-15228852Y2382152D01*
X-15234617Y2459064D01*
X-15201152Y2528554D01*
X-15137428Y2572001D01*
X-15008225Y2617211D01*
X-14869796Y2704192D01*
X-14754192Y2819796D01*
X-14685202Y2929594D01*
X-14628665Y2982053D01*
X-14608262Y2990955D01*
X-14533225Y3017211D01*
X-14394796Y3104192D01*
X-14348988Y3150000D01*
X-6255091Y3150000D01*
X-6236787Y2987542D01*
X-6236787Y2987540D01*
X-6236786Y2987539D01*
X-6182789Y2833225D01*
X-6095808Y2694796D01*
X-5980204Y2579192D01*
X-5841775Y2492211D01*
X-5687461Y2438214D01*
X-5525000Y2419909D01*
X-5472091Y2425871D01*
X-5395827Y2414377D01*
X-5335525Y2366289D01*
X-5307346Y2294493D01*
X-5310144Y2244655D01*
X-5311786Y2237461D01*
X-5330091Y2075001D01*
X-5330091Y2075000D01*
X-5311787Y1912542D01*
X-5311787Y1912540D01*
X-5311786Y1912539D01*
X-5257789Y1758225D01*
X-5170808Y1619796D01*
X-5055204Y1504192D01*
X-4916775Y1417211D01*
X-4762461Y1363214D01*
X-4666200Y1352368D01*
X-4600001Y1344909D01*
X-4600000Y1344909D01*
X-4599999Y1344909D01*
X-4533800Y1352368D01*
X-4437539Y1363214D01*
X-4283225Y1417211D01*
X-4246879Y1440050D01*
X-4173183Y1462784D01*
X-4097988Y1445623D01*
X-4093612Y1443097D01*
X-4091785Y1442218D01*
X-4091775Y1442211D01*
X-3937461Y1388214D01*
X-3866379Y1380205D01*
X-3775001Y1369909D01*
X-3775000Y1369909D01*
X-3774999Y1369909D01*
X-3734385Y1374486D01*
X-3612539Y1388214D01*
X-3458225Y1442211D01*
X-3319796Y1529192D01*
X-3248988Y1600000D01*
X1319540Y1600000D01*
X1339325Y1411746D01*
X1394552Y1241777D01*
X1397821Y1231716D01*
X1438195Y1161786D01*
X1492469Y1067780D01*
X1614519Y932232D01*
X1619129Y927112D01*
X1772270Y815849D01*
X1945197Y738856D01*
X2086315Y708861D01*
X2130352Y699500D01*
X2130354Y699500D01*
X2319648Y699500D01*
X2359004Y707866D01*
X2504803Y738856D01*
X2677730Y815849D01*
X2768859Y882059D01*
X2840864Y909699D01*
X2917042Y897633D01*
X2976982Y849095D01*
X3004623Y777090D01*
X3004623Y745942D01*
X2994540Y650001D01*
X3014325Y461746D01*
X3065189Y305205D01*
X3072821Y281716D01*
X3127466Y187067D01*
X3167469Y117780D01*
X3262302Y12459D01*
X3294129Y-22888D01*
X3447270Y-134151D01*
X3447271Y-134151D01*
X3447272Y-134152D01*
X3466660Y-142784D01*
X3619881Y-211003D01*
X3679821Y-259541D01*
X3700983Y-301076D01*
X3722821Y-368284D01*
X3758571Y-430205D01*
X3817469Y-532220D01*
X3912302Y-637541D01*
X3944129Y-672888D01*
X4061410Y-758097D01*
X4069536Y-764001D01*
X4118074Y-823941D01*
X4130140Y-900120D01*
X4102500Y-972125D01*
X4092685Y-984245D01*
X4017469Y-1067780D01*
X3922822Y-1231714D01*
X3922819Y-1231721D01*
X3864325Y-1411745D01*
X3844540Y-1600000D01*
X3864325Y-1788254D01*
X3922819Y-1968278D01*
X3922821Y-1968284D01*
X3938712Y-1995808D01*
X4017469Y-2132220D01*
X4144127Y-2272886D01*
X4144129Y-2272888D01*
X4297270Y-2384151D01*
X4470197Y-2461144D01*
X4611315Y-2491139D01*
X4655352Y-2500500D01*
X4655354Y-2500500D01*
X4844648Y-2500500D01*
X4884004Y-2492134D01*
X5029803Y-2461144D01*
X5202730Y-2384151D01*
X5355871Y-2272888D01*
X5439426Y-2180091D01*
X5482530Y-2132220D01*
X5482531Y-2132218D01*
X5482533Y-2132216D01*
X5577179Y-1968284D01*
X5635674Y-1788256D01*
X5655460Y-1600000D01*
X5635674Y-1411744D01*
X5577179Y-1231716D01*
X5482533Y-1067784D01*
X5482532Y-1067783D01*
X5482530Y-1067779D01*
X5398271Y-974201D01*
X5363255Y-905479D01*
X5367291Y-828457D01*
X5409298Y-763772D01*
X5478020Y-728756D01*
X5508999Y-725500D01*
X5544648Y-725500D01*
X5585685Y-716777D01*
X5729803Y-686144D01*
X5902730Y-609151D01*
X6055871Y-497888D01*
X6144010Y-400000D01*
X8419909Y-400000D01*
X8438213Y-562458D01*
X8438213Y-562460D01*
X8438214Y-562461D01*
X8492211Y-716775D01*
X8579192Y-855204D01*
X8694796Y-970808D01*
X8833225Y-1057789D01*
X8987539Y-1111786D01*
X9077578Y-1121931D01*
X9149999Y-1130091D01*
X9150000Y-1130091D01*
X9150001Y-1130091D01*
X9190615Y-1125514D01*
X9312461Y-1111786D01*
X9466775Y-1057789D01*
X9605204Y-970808D01*
X9720808Y-855204D01*
X9807789Y-716775D01*
X9811614Y-705842D01*
X9832640Y-675000D01*
X12669540Y-675000D01*
X12689325Y-863254D01*
X12747820Y-1043283D01*
X12747824Y-1043292D01*
X12750216Y-1047434D01*
X12770177Y-1121934D01*
X12751277Y-1192480D01*
X12751498Y-1192579D01*
X12750878Y-1193970D01*
X12750223Y-1196417D01*
X12748325Y-1199703D01*
X12748319Y-1199718D01*
X12689825Y-1379742D01*
X12670040Y-1567997D01*
X12689825Y-1756251D01*
X12712850Y-1827113D01*
X12748321Y-1936281D01*
X12790393Y-2009152D01*
X12842969Y-2100217D01*
X12932116Y-2199223D01*
X12969629Y-2240885D01*
X13122770Y-2352148D01*
X13295697Y-2429141D01*
X13436815Y-2459136D01*
X13480852Y-2468497D01*
X13480854Y-2468497D01*
X13670148Y-2468497D01*
X13709504Y-2460131D01*
X13855303Y-2429141D01*
X14028230Y-2352148D01*
X14181371Y-2240885D01*
X14253695Y-2160560D01*
X14308030Y-2100217D01*
X14308031Y-2100215D01*
X14308033Y-2100213D01*
X14402679Y-1936281D01*
X14461174Y-1756253D01*
X14480960Y-1567997D01*
X14461174Y-1379741D01*
X14402679Y-1199713D01*
X14400285Y-1195566D01*
X14380322Y-1121066D01*
X14399223Y-1050522D01*
X14399001Y-1050423D01*
X14399627Y-1049015D01*
X14400284Y-1046566D01*
X14402179Y-1043284D01*
X14460674Y-863256D01*
X14480460Y-675000D01*
X14460674Y-486744D01*
X14402179Y-306716D01*
X14307533Y-142784D01*
X14307532Y-142783D01*
X14307530Y-142779D01*
X14180872Y-2113D01*
X14160815Y12459D01*
X14027730Y109151D01*
X14027729Y109152D01*
X14027727Y109153D01*
X13854805Y186143D01*
X13854803Y186144D01*
X13727448Y213214D01*
X13669648Y225500D01*
X13669646Y225500D01*
X13480354Y225500D01*
X13480352Y225500D01*
X13422552Y213214D01*
X13295197Y186144D01*
X13295195Y186144D01*
X13295194Y186143D01*
X13122272Y109153D01*
X12969127Y-2113D01*
X12842469Y-142779D01*
X12747822Y-306714D01*
X12747819Y-306721D01*
X12689325Y-486745D01*
X12669540Y-675000D01*
X9832640Y-675000D01*
X9855057Y-642118D01*
X9872976Y-628892D01*
X10005204Y-545808D01*
X10120808Y-430204D01*
X10207789Y-291775D01*
X10211614Y-280842D01*
X10255057Y-217118D01*
X10272976Y-203892D01*
X10405204Y-120808D01*
X10520808Y-5204D01*
X10607789Y133225D01*
X10607788Y133225D01*
X10612241Y140310D01*
X10614010Y139198D01*
X10656711Y188832D01*
X10729507Y214318D01*
X10757348Y213799D01*
X10762538Y213215D01*
X10762539Y213214D01*
X10841458Y204322D01*
X10924999Y194909D01*
X10925000Y194909D01*
X10925001Y194909D01*
X10965615Y199486D01*
X11087461Y213214D01*
X11241775Y267211D01*
X11380204Y354192D01*
X11495808Y469796D01*
X11582789Y608225D01*
X11636786Y762539D01*
X11655091Y925000D01*
X11653802Y936436D01*
X11642568Y1036144D01*
X11636786Y1087461D01*
X11582789Y1241775D01*
X11495808Y1380204D01*
X11380204Y1495808D01*
X11241775Y1582789D01*
X11087461Y1636786D01*
X11087460Y1636787D01*
X11087458Y1636787D01*
X10925001Y1655091D01*
X10924999Y1655091D01*
X10762541Y1636787D01*
X10685382Y1609788D01*
X10608225Y1582789D01*
X10608223Y1582789D01*
X10608223Y1582788D01*
X10469796Y1495808D01*
X10354192Y1380204D01*
X10262759Y1234690D01*
X10260994Y1235799D01*
X10218257Y1186147D01*
X10145454Y1160681D01*
X10117652Y1161202D01*
X9950002Y1180091D01*
X9949999Y1180091D01*
X9787541Y1161787D01*
X9710382Y1134788D01*
X9633225Y1107789D01*
X9633223Y1107789D01*
X9633223Y1107788D01*
X9494796Y1020808D01*
X9379192Y905204D01*
X9292210Y766775D01*
X9288383Y755837D01*
X9244934Y692112D01*
X9227018Y678889D01*
X9094796Y595808D01*
X8979192Y480204D01*
X8892210Y341775D01*
X8888383Y330837D01*
X8844934Y267112D01*
X8827018Y253889D01*
X8694796Y170808D01*
X8579192Y55204D01*
X8530125Y-22886D01*
X8492211Y-83225D01*
X8474391Y-134151D01*
X8438213Y-237541D01*
X8419909Y-399999D01*
X8419909Y-400000D01*
X6144010Y-400000D01*
X6166414Y-375118D01*
X6182530Y-357220D01*
X6182531Y-357218D01*
X6182533Y-357216D01*
X6277179Y-193284D01*
X6335674Y-13256D01*
X6355460Y175000D01*
X6335674Y363256D01*
X6277179Y543284D01*
X6182533Y707216D01*
X6182532Y707217D01*
X6182530Y707221D01*
X6055872Y847887D01*
X6054209Y849095D01*
X5902730Y959151D01*
X5902729Y959152D01*
X5902727Y959153D01*
X5729805Y1036143D01*
X5729803Y1036144D01*
X5623360Y1058769D01*
X5544648Y1075500D01*
X5544646Y1075500D01*
X5355354Y1075500D01*
X5355352Y1075500D01*
X5255392Y1054253D01*
X5170197Y1036144D01*
X5170195Y1036144D01*
X5170194Y1036143D01*
X4997267Y959151D01*
X4997266Y959150D01*
X4960216Y932232D01*
X4888211Y904593D01*
X4812032Y916660D01*
X4752094Y965200D01*
X4730932Y1006733D01*
X4727179Y1018284D01*
X4632533Y1182216D01*
X4632532Y1182217D01*
X4632530Y1182221D01*
X4505872Y1322887D01*
X4481902Y1340302D01*
X4352730Y1434151D01*
X4352729Y1434152D01*
X4352727Y1434153D01*
X4179805Y1511143D01*
X4179803Y1511144D01*
X4073360Y1533769D01*
X3994648Y1550500D01*
X3994646Y1550500D01*
X3805354Y1550500D01*
X3805352Y1550500D01*
X3705392Y1529253D01*
X3620197Y1511144D01*
X3620195Y1511144D01*
X3620194Y1511143D01*
X3447270Y1434152D01*
X3356139Y1367942D01*
X3284133Y1340302D01*
X3207955Y1352368D01*
X3148016Y1400907D01*
X3120376Y1472913D01*
X3120376Y1504055D01*
X3130460Y1600000D01*
X3110674Y1788256D01*
X3052179Y1968284D01*
X2957533Y2132216D01*
X2957532Y2132217D01*
X2957530Y2132221D01*
X2830872Y2272887D01*
X2741993Y2337461D01*
X2677730Y2384151D01*
X2677729Y2384152D01*
X2677727Y2384153D01*
X2504805Y2461143D01*
X2504803Y2461144D01*
X2398360Y2483769D01*
X2319648Y2500500D01*
X2319646Y2500500D01*
X2130354Y2500500D01*
X2130352Y2500500D01*
X2030392Y2479253D01*
X1945197Y2461144D01*
X1945195Y2461144D01*
X1945194Y2461143D01*
X1772272Y2384153D01*
X1619127Y2272887D01*
X1492469Y2132221D01*
X1397822Y1968286D01*
X1397819Y1968279D01*
X1339325Y1788255D01*
X1319540Y1600000D01*
X-3248988Y1600000D01*
X-3204192Y1644796D01*
X-3117211Y1783225D01*
X-3063214Y1937539D01*
X-3044909Y2100000D01*
X-3063214Y2262461D01*
X-3089749Y2338291D01*
X-3095513Y2415199D01*
X-3089752Y2436701D01*
X-3063214Y2512539D01*
X-3044909Y2675000D01*
X-3063214Y2837461D01*
X-3117211Y2991775D01*
X-3204192Y3130204D01*
X-3319796Y3245808D01*
X-3458225Y3332789D01*
X-3612539Y3386786D01*
X-3612540Y3386787D01*
X-3612542Y3386787D01*
X-3774999Y3405091D01*
X-3775001Y3405091D01*
X-3937459Y3386787D01*
X-4091777Y3332789D01*
X-4108481Y3322293D01*
X-4182184Y3299562D01*
X-4257377Y3316728D01*
X-4267021Y3322296D01*
X-4283718Y3332788D01*
X-4438039Y3386787D01*
X-4600496Y3405091D01*
X-4600499Y3405091D01*
X-4720347Y3391588D01*
X-4796614Y3403084D01*
X-4856914Y3451172D01*
X-4863191Y3460378D01*
X-4954192Y3605204D01*
X-5069795Y3720807D01*
X-5069796Y3720808D01*
X-5208225Y3807789D01*
X-5362539Y3861786D01*
X-5362540Y3861787D01*
X-5362542Y3861787D01*
X-5524999Y3880091D01*
X-5525001Y3880091D01*
X-5687459Y3861787D01*
X-5743397Y3842213D01*
X-5841775Y3807789D01*
X-5841777Y3807789D01*
X-5841777Y3807788D01*
X-5933741Y3750003D01*
X-5980204Y3720808D01*
X-6095808Y3605204D01*
X-6182789Y3466775D01*
X-6208970Y3391953D01*
X-6236787Y3312459D01*
X-6255091Y3150001D01*
X-6255091Y3150000D01*
X-14348988Y3150000D01*
X-14279192Y3219796D01*
X-14196110Y3352021D01*
X-14139572Y3404480D01*
X-14119168Y3413383D01*
X-14108225Y3417211D01*
X-13969796Y3504192D01*
X-13854192Y3619796D01*
X-13767211Y3758225D01*
X-13767212Y3758225D01*
X-13762759Y3765310D01*
X-13761576Y3764567D01*
X-13717140Y3816213D01*
X-13682404Y3833751D01*
X-13658225Y3842211D01*
X-13519796Y3929192D01*
X-13404192Y4044796D01*
X-13317211Y4183225D01*
X-13263214Y4337539D01*
X-13244909Y4500000D01*
X-13246289Y4512244D01*
X-13258135Y4617382D01*
X-13263214Y4662461D01*
X-13317211Y4816775D01*
X-13404192Y4955204D01*
X-13519796Y5070808D01*
X-13658225Y5157789D01*
X-13812539Y5211786D01*
X-13812540Y5211787D01*
X-13812542Y5211787D01*
X-13974999Y5230091D01*
X-13975001Y5230091D01*
X-14137459Y5211787D01*
X-14172338Y5199582D01*
X-14291775Y5157789D01*
X-14291777Y5157789D01*
X-14291777Y5157788D01*
X-14430204Y5070808D01*
X-14545807Y4955205D01*
X-14545808Y4955205D01*
X-14585595Y4891885D01*
X-14632789Y4816775D01*
X-14632790Y4816773D01*
X-14637240Y4809690D01*
X-14638421Y4810432D01*
X-14682887Y4758770D01*
X-14717597Y4741250D01*
X-14741775Y4732790D01*
X-14880204Y4645808D01*
X-14995808Y4530204D01*
X-15078889Y4397982D01*
X-15135428Y4345522D01*
X-15155837Y4336617D01*
X-15166775Y4332790D01*
X-15305204Y4245808D01*
X-15420810Y4130202D01*
X-15489799Y4020408D01*
X-15546338Y3967948D01*
X-15566747Y3959044D01*
X-15611511Y3943380D01*
X-15688424Y3937615D01*
X-15709934Y3943379D01*
X-15762538Y3961786D01*
X-15762542Y3961787D01*
X-15924999Y3980091D01*
X-15925001Y3980091D01*
X-16087459Y3961787D01*
X-16164618Y3934788D01*
X-16241775Y3907789D01*
X-16241777Y3907789D01*
X-16241777Y3907788D01*
X-16380204Y3820808D01*
X-16495808Y3705204D01*
X-16569741Y3587540D01*
X-16582789Y3566775D01*
X-16603507Y3507566D01*
X-16636787Y3412459D01*
X-16651461Y3282221D01*
X-16655091Y3250000D01*
X-16640250Y3118279D01*
X-16636786Y3087540D01*
X-16635680Y3084379D01*
X-16635492Y3081868D01*
X-16634924Y3079380D01*
X-16635300Y3079295D01*
X-16629917Y3007467D01*
X-16663381Y2937977D01*
X-16727108Y2894529D01*
X-16759625Y2887106D01*
X-16762458Y2886787D01*
X-16762461Y2886787D01*
X-16762461Y2886786D01*
X-16916775Y2832789D01*
X-16916777Y2832789D01*
X-16916777Y2832788D01*
X-17055204Y2745808D01*
X-17170808Y2630204D01*
X-17213824Y2561744D01*
X-17257789Y2491775D01*
X-17269235Y2459064D01*
X-17311787Y2337459D01*
X-17330091Y2175001D01*
X-17330091Y2175000D01*
X-20999500Y2175000D01*
X-20999500Y7275000D01*
X-11005460Y7275000D01*
X-10985675Y7086746D01*
X-10943520Y6957008D01*
X-10927179Y6906716D01*
X-10888012Y6838877D01*
X-10832531Y6742780D01*
X-10729930Y6628832D01*
X-10705871Y6602112D01*
X-10552730Y6490849D01*
X-10379803Y6413856D01*
X-10245028Y6385209D01*
X-10194648Y6374500D01*
X-10194646Y6374500D01*
X-10005352Y6374500D01*
X-9954972Y6385209D01*
X-9820197Y6413856D01*
X-9647270Y6490849D01*
X-9494129Y6602112D01*
X-9494122Y6602121D01*
X-9493999Y6602230D01*
X-9493893Y6602285D01*
X-9487812Y6606702D01*
X-9487113Y6605740D01*
X-9425279Y6637249D01*
X-9348256Y6633217D01*
X-9283569Y6591214D01*
X-9253654Y6540721D01*
X-9217789Y6438225D01*
X-9130808Y6299796D01*
X-9015204Y6184192D01*
X-8876775Y6097211D01*
X-8775095Y6061632D01*
X-8711371Y6018185D01*
X-8677906Y5948696D01*
X-8679042Y5887847D01*
X-8680552Y5881233D01*
X-8698857Y5718767D01*
X-8698857Y5718766D01*
X-8680553Y5556308D01*
X-8680553Y5556306D01*
X-8680552Y5556305D01*
X-8626555Y5401991D01*
X-8539574Y5263562D01*
X-8423970Y5147958D01*
X-8296942Y5068141D01*
X-8244483Y5011603D01*
X-8235579Y4991196D01*
X-8232790Y4983227D01*
X-8232789Y4983225D01*
X-8145808Y4844796D01*
X-8030204Y4729192D01*
X-7891775Y4642211D01*
X-7737461Y4588214D01*
X-7629154Y4576011D01*
X-7575001Y4569909D01*
X-7575000Y4569909D01*
X-7574999Y4569909D01*
X-7520847Y4576011D01*
X-7412539Y4588214D01*
X-7329183Y4617383D01*
X-7252276Y4623147D01*
X-7230768Y4617384D01*
X-7162482Y4593489D01*
X-7018327Y4577247D01*
X-7000022Y4575184D01*
X-7000021Y4575184D01*
X-7000020Y4575184D01*
X-6959406Y4579761D01*
X-6837560Y4593489D01*
X-6683246Y4647486D01*
X-6665073Y4658906D01*
X-6591373Y4681641D01*
X-6533709Y4669612D01*
X-6532994Y4671654D01*
X-6525098Y4668891D01*
X-6525096Y4668890D01*
X-6370782Y4614893D01*
X-6262475Y4602690D01*
X-6208322Y4596588D01*
X-6208321Y4596588D01*
X-6208320Y4596588D01*
X-6167706Y4601165D01*
X-6045860Y4614893D01*
X-5891546Y4668890D01*
X-5753117Y4755871D01*
X-5637513Y4871475D01*
X-5550532Y5009904D01*
X-5496535Y5164218D01*
X-5478230Y5326679D01*
X-5496535Y5489140D01*
X-5550532Y5643454D01*
X-5637513Y5781883D01*
X-5643630Y5788000D01*
X-4713091Y5788000D01*
X-4694787Y5625542D01*
X-4694787Y5625540D01*
X-4694786Y5625539D01*
X-4640789Y5471225D01*
X-4553808Y5332796D01*
X-4438204Y5217192D01*
X-4299775Y5130211D01*
X-4145461Y5076214D01*
X-4073820Y5068142D01*
X-3983001Y5057909D01*
X-3983000Y5057909D01*
X-3982999Y5057909D01*
X-3942385Y5062486D01*
X-3820539Y5076214D01*
X-3666225Y5130211D01*
X-3527796Y5217192D01*
X-3412192Y5332796D01*
X-3325211Y5471225D01*
X-3271214Y5625539D01*
X-3252909Y5788000D01*
X-3271214Y5950461D01*
X-3325211Y6104775D01*
X-3412192Y6243204D01*
X-3527796Y6358808D01*
X-3666225Y6445789D01*
X-3820539Y6499786D01*
X-3820540Y6499787D01*
X-3820542Y6499787D01*
X-3982999Y6518091D01*
X-3983001Y6518091D01*
X-4145459Y6499787D01*
X-4222618Y6472788D01*
X-4299775Y6445789D01*
X-4299777Y6445789D01*
X-4299777Y6445788D01*
X-4438204Y6358808D01*
X-4553808Y6243204D01*
X-4639256Y6107214D01*
X-4640789Y6104775D01*
X-4655885Y6061633D01*
X-4694787Y5950459D01*
X-4713091Y5788001D01*
X-4713091Y5788000D01*
X-5643630Y5788000D01*
X-5753117Y5897487D01*
X-5891546Y5984468D01*
X-6045860Y6038465D01*
X-6045861Y6038466D01*
X-6045863Y6038466D01*
X-6208320Y6056770D01*
X-6208322Y6056770D01*
X-6370780Y6038466D01*
X-6525096Y5984468D01*
X-6543276Y5973045D01*
X-6616979Y5950314D01*
X-6674634Y5962343D01*
X-6675348Y5960300D01*
X-6683245Y5963064D01*
X-6683246Y5963064D01*
X-6837560Y6017061D01*
X-6837561Y6017062D01*
X-6837563Y6017062D01*
X-7000020Y6035366D01*
X-7000022Y6035366D01*
X-7162480Y6017062D01*
X-7162483Y6017061D01*
X-7162520Y6017048D01*
X-7162548Y6017038D01*
X-7162598Y6017035D01*
X-7170638Y6015199D01*
X-7170915Y6016412D01*
X-7239460Y6011279D01*
X-7308948Y6044748D01*
X-7337912Y6078407D01*
X-7354480Y6104775D01*
X-7397958Y6173970D01*
X-7513562Y6289574D01*
X-7651991Y6376555D01*
X-7753673Y6412136D01*
X-7817397Y6455582D01*
X-7850861Y6525072D01*
X-7849723Y6585931D01*
X-7848218Y6592530D01*
X-7848214Y6592539D01*
X-7829909Y6755000D01*
X-7848214Y6917461D01*
X-7902211Y7071775D01*
X-7989192Y7210204D01*
X-8000787Y7221799D01*
X-8039351Y7288594D01*
X-8043491Y7343840D01*
X-8034909Y7420000D01*
X-8052804Y7578820D01*
X-8041309Y7655083D01*
X-8001503Y7705000D01*
X-1730091Y7705000D01*
X-1711787Y7542542D01*
X-1711787Y7542540D01*
X-1711786Y7542539D01*
X-1657789Y7388225D01*
X-1570808Y7249796D01*
X-1455204Y7134192D01*
X-1316775Y7047211D01*
X-1162461Y6993214D01*
X-1080072Y6983931D01*
X-1000001Y6974909D01*
X-1000000Y6974909D01*
X-999999Y6974909D01*
X-973188Y6977930D01*
X-837539Y6993214D01*
X-722563Y7033447D01*
X-645652Y7039211D01*
X-576162Y7005746D01*
X-532714Y6942020D01*
X-526949Y6865108D01*
X-560414Y6795618D01*
X-567993Y6787450D01*
X-655011Y6700432D01*
X-655016Y6700425D01*
X-722805Y6592539D01*
X-741997Y6561996D01*
X-766893Y6490848D01*
X-795995Y6407680D01*
X-814299Y6245222D01*
X-814299Y6245221D01*
X-795995Y6082763D01*
X-795995Y6082761D01*
X-795994Y6082760D01*
X-741997Y5928446D01*
X-655016Y5790017D01*
X-539412Y5674413D01*
X-400983Y5587432D01*
X-246669Y5533435D01*
X-164067Y5524128D01*
X-84209Y5515130D01*
X-84208Y5515130D01*
X-84207Y5515130D01*
X-4349Y5524128D01*
X78253Y5533435D01*
X110500Y5544720D01*
X187411Y5550484D01*
X208915Y5544723D01*
X327539Y5503214D01*
X435846Y5491011D01*
X489999Y5484909D01*
X490000Y5484909D01*
X490001Y5484909D01*
X532592Y5489708D01*
X652461Y5503214D01*
X806775Y5557211D01*
X945204Y5644192D01*
X1060808Y5759796D01*
X1147789Y5898225D01*
X1201786Y6052539D01*
X1220091Y6215000D01*
X1201786Y6377461D01*
X1147789Y6531775D01*
X1060808Y6670204D01*
X945204Y6785808D01*
X806775Y6872789D01*
X652461Y6926786D01*
X652460Y6926787D01*
X652458Y6926787D01*
X490001Y6945091D01*
X489999Y6945091D01*
X327534Y6926786D01*
X327531Y6926785D01*
X295286Y6915502D01*
X218374Y6909739D01*
X196873Y6915500D01*
X78253Y6957007D01*
X78252Y6957008D01*
X78250Y6957008D01*
X-84207Y6975312D01*
X-84209Y6975312D01*
X-246669Y6957007D01*
X-361646Y6916775D01*
X-438558Y6911012D01*
X-508048Y6944477D01*
X-551496Y7008203D01*
X-557259Y7085115D01*
X-523794Y7154605D01*
X-516215Y7162773D01*
X-429197Y7249791D01*
X-429192Y7249796D01*
X-342211Y7388225D01*
X-288214Y7542539D01*
X-269909Y7705000D01*
X-288214Y7867461D01*
X-342211Y8021775D01*
X-429192Y8160204D01*
X-544796Y8275808D01*
X-683225Y8362789D01*
X-837539Y8416786D01*
X-837540Y8416787D01*
X-837542Y8416787D01*
X-999999Y8435091D01*
X-1000001Y8435091D01*
X-1162459Y8416787D01*
X-1239618Y8389788D01*
X-1316775Y8362789D01*
X-1316777Y8362789D01*
X-1316777Y8362788D01*
X-1455204Y8275808D01*
X-1570808Y8160204D01*
X-1657788Y8021777D01*
X-1711787Y7867459D01*
X-1730091Y7705001D01*
X-1730091Y7705000D01*
X-8001503Y7705000D01*
X-7993221Y7715385D01*
X-7921424Y7743563D01*
X-7904741Y7744500D01*
X-7725352Y7744500D01*
X-7685996Y7752866D01*
X-7540197Y7783856D01*
X-7367270Y7860849D01*
X-7214129Y7972112D01*
X-7141805Y8052437D01*
X-7087470Y8112780D01*
X-7087469Y8112782D01*
X-7087467Y8112784D01*
X-6992821Y8276716D01*
X-6934326Y8456744D01*
X-6914540Y8645000D01*
X-6934326Y8833256D01*
X-6992821Y9013284D01*
X-7087467Y9177216D01*
X-7087468Y9177217D01*
X-7087470Y9177221D01*
X-7214128Y9317887D01*
X-7367273Y9429153D01*
X-7540195Y9506143D01*
X-7540197Y9506144D01*
X-7646640Y9528769D01*
X-7725352Y9545500D01*
X-7725354Y9545500D01*
X-7914646Y9545500D01*
X-7914648Y9545500D01*
X-8014608Y9524253D01*
X-8099803Y9506144D01*
X-8099805Y9506144D01*
X-8099806Y9506143D01*
X-8272728Y9429153D01*
X-8425873Y9317887D01*
X-8552531Y9177221D01*
X-8647178Y9013286D01*
X-8647181Y9013279D01*
X-8705675Y8833255D01*
X-8725460Y8645000D01*
X-8713596Y8532112D01*
X-8705674Y8456744D01*
X-8668995Y8343858D01*
X-8668076Y8341031D01*
X-8664040Y8264009D01*
X-8699056Y8195287D01*
X-8763741Y8153280D01*
X-8793101Y8146925D01*
X-8927459Y8131787D01*
X-8981777Y8112780D01*
X-9081775Y8077789D01*
X-9081777Y8077789D01*
X-9081777Y8077788D01*
X-9220204Y7990808D01*
X-9220206Y7990807D01*
X-9273656Y7937357D01*
X-9340451Y7898794D01*
X-9417579Y7898794D01*
X-9484374Y7937359D01*
X-9489729Y7943001D01*
X-9494129Y7947888D01*
X-9647270Y8059151D01*
X-9647271Y8059152D01*
X-9647273Y8059153D01*
X-9820195Y8136143D01*
X-9820197Y8136144D01*
X-9933396Y8160205D01*
X-10005352Y8175500D01*
X-10005354Y8175500D01*
X-10194646Y8175500D01*
X-10194648Y8175500D01*
X-10266604Y8160205D01*
X-10379803Y8136144D01*
X-10379805Y8136144D01*
X-10379806Y8136143D01*
X-10552728Y8059153D01*
X-10705873Y7947887D01*
X-10832531Y7807221D01*
X-10927178Y7643286D01*
X-10927181Y7643279D01*
X-10985675Y7463255D01*
X-11005460Y7275000D01*
X-20999500Y7275000D01*
X-20999500Y8425000D01*
X-12590091Y8425000D01*
X-12571787Y8262542D01*
X-12571787Y8262540D01*
X-12571786Y8262539D01*
X-12517789Y8108225D01*
X-12430808Y7969796D01*
X-12315204Y7854192D01*
X-12176775Y7767211D01*
X-12022461Y7713214D01*
X-11914154Y7701011D01*
X-11860001Y7694909D01*
X-11860000Y7694909D01*
X-11859999Y7694909D01*
X-11819385Y7699486D01*
X-11697539Y7713214D01*
X-11543225Y7767211D01*
X-11404796Y7854192D01*
X-11289192Y7969796D01*
X-11202211Y8108225D01*
X-11148214Y8262539D01*
X-11129909Y8425000D01*
X-11148214Y8587461D01*
X-11202211Y8741775D01*
X-11210109Y8754345D01*
X-11232844Y8828046D01*
X-11215682Y8903241D01*
X-11163222Y8959780D01*
X-11163223Y8959780D01*
X-11044796Y9034192D01*
X-10929192Y9149796D01*
X-10842211Y9288225D01*
X-10788214Y9442539D01*
X-10769909Y9605000D01*
X-10788214Y9767461D01*
X-10842211Y9921775D01*
X-10929192Y10060204D01*
X-11044796Y10175808D01*
X-11183225Y10262789D01*
X-11337539Y10316786D01*
X-11337540Y10316787D01*
X-11337542Y10316787D01*
X-11499999Y10335091D01*
X-11500001Y10335091D01*
X-11662459Y10316787D01*
X-11739618Y10289788D01*
X-11816775Y10262789D01*
X-11816777Y10262789D01*
X-11816777Y10262788D01*
X-11955204Y10175808D01*
X-12070808Y10060204D01*
X-12157788Y9921777D01*
X-12211787Y9767459D01*
X-12230091Y9605001D01*
X-12230091Y9605000D01*
X-12211787Y9442542D01*
X-12211787Y9442540D01*
X-12211786Y9442539D01*
X-12168169Y9317888D01*
X-12157788Y9288223D01*
X-12149891Y9275655D01*
X-12127157Y9201953D01*
X-12144320Y9126759D01*
X-12196779Y9070221D01*
X-12315202Y8995810D01*
X-12430808Y8880204D01*
X-12517788Y8741777D01*
X-12571787Y8587459D01*
X-12590091Y8425001D01*
X-12590091Y8425000D01*
X-20999500Y8425000D01*
X-20999500Y11265000D01*
X-8970091Y11265000D01*
X-8951787Y11102542D01*
X-8951787Y11102540D01*
X-8951786Y11102539D01*
X-8897789Y10948225D01*
X-8810808Y10809796D01*
X-8695204Y10694192D01*
X-8556775Y10607211D01*
X-8402461Y10553214D01*
X-8294154Y10541011D01*
X-8240001Y10534909D01*
X-8240000Y10534909D01*
X-8239999Y10534909D01*
X-8223548Y10536763D01*
X-8077539Y10553214D01*
X-7964598Y10592735D01*
X-7887687Y10598499D01*
X-7818197Y10565034D01*
X-7774749Y10501309D01*
X-7774258Y10499606D01*
X-7771787Y10492543D01*
X-7771786Y10492539D01*
X-7717789Y10338225D01*
X-7630808Y10199796D01*
X-7515204Y10084192D01*
X-7376775Y9997211D01*
X-7222461Y9943214D01*
X-7114154Y9931011D01*
X-7060001Y9924909D01*
X-7060000Y9924909D01*
X-7059999Y9924909D01*
X-7019385Y9929486D01*
X-6897539Y9943214D01*
X-6743225Y9997211D01*
X-6604796Y10084192D01*
X-6489192Y10199796D01*
X-6402211Y10338225D01*
X-6348214Y10492539D01*
X-6329909Y10655000D01*
X-6348214Y10817461D01*
X-6402211Y10971775D01*
X-6448992Y11046227D01*
X-6471726Y11119929D01*
X-6454563Y11195123D01*
X-6402103Y11251662D01*
X-6328401Y11274396D01*
X-6322830Y11274500D01*
X-6155352Y11274500D01*
X-6115996Y11282866D01*
X-5970197Y11313856D01*
X-5797270Y11390849D01*
X-5644129Y11502112D01*
X-5527112Y11632072D01*
X-5517470Y11642780D01*
X-5517469Y11642782D01*
X-5517467Y11642784D01*
X-5422821Y11806716D01*
X-5364497Y11986220D01*
X-5322493Y12050899D01*
X-5253771Y12085915D01*
X-5176749Y12081879D01*
X-5112064Y12039872D01*
X-5077048Y11971150D01*
X-5074329Y11952808D01*
X-5060616Y11791699D01*
X-5001618Y11565113D01*
X-5001615Y11565105D01*
X-4905174Y11351753D01*
X-4774061Y11157764D01*
X-4774059Y11157762D01*
X-4774057Y11157759D01*
X-4612044Y10988717D01*
X-4423792Y10849487D01*
X-4214718Y10744074D01*
X-3990837Y10675511D01*
X-3758589Y10645771D01*
X-3524655Y10655708D01*
X-3295766Y10705038D01*
X-3078506Y10792340D01*
X-2879125Y10915104D01*
X-2703359Y11069797D01*
X-2563868Y11242555D01*
X-2501537Y11287975D01*
X-2424843Y11296147D01*
X-2354339Y11264876D01*
X-2324495Y11232384D01*
X-2274061Y11157764D01*
X-2274059Y11157762D01*
X-2274057Y11157759D01*
X-2112044Y10988717D01*
X-1923792Y10849487D01*
X-1714718Y10744074D01*
X-1490837Y10675511D01*
X-1258589Y10645771D01*
X-1024655Y10655708D01*
X-1019037Y10656919D01*
X-942003Y10653104D01*
X-882281Y10616625D01*
X-368876Y10103220D01*
X-330313Y10036426D01*
X-330313Y9959298D01*
X-368877Y9892503D01*
X-383752Y9879797D01*
X-385868Y9877893D01*
X-512531Y9737221D01*
X-607178Y9573286D01*
X-607181Y9573279D01*
X-665675Y9393255D01*
X-685460Y9205000D01*
X-665675Y9016746D01*
X-628513Y8902374D01*
X-607179Y8836716D01*
X-602173Y8828046D01*
X-512531Y8672780D01*
X-385873Y8532114D01*
X-385871Y8532112D01*
X-232730Y8420849D01*
X-232729Y8420849D01*
X-232728Y8420848D01*
X-208252Y8409951D01*
X-59803Y8343856D01*
X81315Y8313861D01*
X125352Y8304500D01*
X125354Y8304500D01*
X314648Y8304500D01*
X354004Y8312866D01*
X499803Y8343856D01*
X672730Y8420849D01*
X825871Y8532112D01*
X899128Y8613473D01*
X963811Y8655478D01*
X1040833Y8659515D01*
X1109555Y8624500D01*
X1115214Y8619130D01*
X3330859Y6403485D01*
X3369423Y6336690D01*
X3374500Y6298126D01*
X3374500Y6199718D01*
X3354538Y6125218D01*
X3346040Y6112133D01*
X3342465Y6107214D01*
X3247822Y5943286D01*
X3247819Y5943279D01*
X3189325Y5763255D01*
X3169540Y5575000D01*
X3189325Y5386746D01*
X3244417Y5217193D01*
X3247821Y5206716D01*
X3247823Y5206711D01*
X3250998Y5199582D01*
X3248345Y5198401D01*
X3264588Y5137699D01*
X3248349Y5077098D01*
X3250998Y5075918D01*
X3247819Y5068779D01*
X3189325Y4888755D01*
X3169540Y4700500D01*
X3189325Y4512246D01*
X3189326Y4512244D01*
X3247821Y4332216D01*
X3247822Y4332215D01*
X3342469Y4168280D01*
X3474354Y4021809D01*
X3472090Y4019771D01*
X3506002Y3967538D01*
X3512353Y3904828D01*
X3494909Y3750003D01*
X3494909Y3750000D01*
X3513214Y3587539D01*
X3547082Y3490749D01*
X3569185Y3427583D01*
X3574948Y3350671D01*
X3545550Y3289626D01*
X3547056Y3288532D01*
X3542466Y3282216D01*
X3447822Y3118286D01*
X3447819Y3118279D01*
X3389325Y2938255D01*
X3369540Y2750000D01*
X3389325Y2561746D01*
X3429951Y2436714D01*
X3447821Y2381716D01*
X3473372Y2337461D01*
X3542469Y2217780D01*
X3648520Y2100000D01*
X3669129Y2077112D01*
X3822270Y1965849D01*
X3995197Y1888856D01*
X4136315Y1858861D01*
X4180352Y1849500D01*
X4180354Y1849500D01*
X4369648Y1849500D01*
X4409004Y1857866D01*
X4554803Y1888856D01*
X4727730Y1965849D01*
X4880871Y2077112D01*
X4969011Y2175001D01*
X5007530Y2217780D01*
X5007531Y2217782D01*
X5007533Y2217784D01*
X5102179Y2381716D01*
X5160674Y2561744D01*
X5180460Y2750000D01*
X5160674Y2938256D01*
X5102179Y3118284D01*
X5007533Y3282216D01*
X5007532Y3282217D01*
X5007530Y3282221D01*
X4938711Y3358651D01*
X4903695Y3427373D01*
X4907731Y3504395D01*
X4908770Y3507476D01*
X4917115Y3531325D01*
X4960563Y3595047D01*
X5030053Y3628511D01*
X5041051Y3630169D01*
X5112461Y3638214D01*
X5266775Y3692211D01*
X5405204Y3779192D01*
X5520808Y3894796D01*
X5607789Y4033225D01*
X5607789Y4033227D01*
X5612241Y4040311D01*
X5614035Y4039184D01*
X5656676Y4088732D01*
X5667454Y4094956D01*
X5673003Y4098444D01*
X5673009Y4098445D01*
X5811438Y4185426D01*
X5927042Y4301030D01*
X6014023Y4439459D01*
X6068020Y4593773D01*
X6074354Y4650000D01*
X12819909Y4650000D01*
X12838213Y4487542D01*
X12838213Y4487540D01*
X12838214Y4487539D01*
X12892211Y4333225D01*
X12979192Y4194796D01*
X13094796Y4079192D01*
X13233225Y3992211D01*
X13387539Y3938214D01*
X13495846Y3926011D01*
X13549999Y3919909D01*
X13550000Y3919909D01*
X13550001Y3919909D01*
X13590615Y3924486D01*
X13712461Y3938214D01*
X13866775Y3992211D01*
X14005204Y4079192D01*
X14120808Y4194796D01*
X14207789Y4333225D01*
X14261786Y4487539D01*
X14280091Y4650000D01*
X14261786Y4812461D01*
X14207789Y4966775D01*
X14120808Y5105204D01*
X14005204Y5220808D01*
X13866775Y5307789D01*
X13712461Y5361786D01*
X13712460Y5361787D01*
X13712458Y5361787D01*
X13550001Y5380091D01*
X13549999Y5380091D01*
X13387541Y5361787D01*
X13318254Y5337542D01*
X13233225Y5307789D01*
X13233223Y5307789D01*
X13233223Y5307788D01*
X13094796Y5220808D01*
X12979192Y5105204D01*
X12902549Y4983227D01*
X12892211Y4966775D01*
X12879060Y4929192D01*
X12838213Y4812459D01*
X12819909Y4650001D01*
X12819909Y4650000D01*
X6074354Y4650000D01*
X6075516Y4660311D01*
X6103693Y4732105D01*
X6163994Y4780194D01*
X6179605Y4785331D01*
X6179563Y4785451D01*
X6187458Y4788214D01*
X6187461Y4788214D01*
X6341775Y4842211D01*
X6480204Y4929192D01*
X6595808Y5044796D01*
X6682789Y5183225D01*
X6736786Y5337539D01*
X6755091Y5500000D01*
X6755090Y5500001D01*
X6755421Y5502930D01*
X6783599Y5574726D01*
X6843900Y5622815D01*
X6872507Y5631991D01*
X6897433Y5637290D01*
X6904803Y5638856D01*
X7040522Y5699283D01*
X7116695Y5711348D01*
X7161723Y5699283D01*
X7295197Y5639856D01*
X7415438Y5614299D01*
X7480352Y5600500D01*
X7480354Y5600500D01*
X7669648Y5600500D01*
X7709004Y5608866D01*
X7854803Y5639856D01*
X8027730Y5716849D01*
X8180871Y5828112D01*
X8267281Y5924080D01*
X8307530Y5968780D01*
X8307531Y5968782D01*
X8307533Y5968784D01*
X8402179Y6132716D01*
X8460674Y6312744D01*
X8480460Y6501000D01*
X8460674Y6689256D01*
X8402179Y6869284D01*
X8307533Y7033216D01*
X8307532Y7033217D01*
X8307530Y7033221D01*
X8180872Y7173887D01*
X8167178Y7183836D01*
X8027730Y7285151D01*
X8027729Y7285152D01*
X8027727Y7285153D01*
X7854805Y7362143D01*
X7854803Y7362144D01*
X7748360Y7384769D01*
X7669648Y7401500D01*
X7669646Y7401500D01*
X7480354Y7401500D01*
X7480352Y7401500D01*
X7380392Y7380253D01*
X7295197Y7362144D01*
X7295195Y7362144D01*
X7295194Y7362143D01*
X7159481Y7301719D01*
X7083303Y7289653D01*
X7038273Y7301719D01*
X6904805Y7361143D01*
X6904803Y7361144D01*
X6826669Y7377752D01*
X6719645Y7400501D01*
X6711885Y7401316D01*
X6712212Y7404429D01*
X6652374Y7420462D01*
X6621515Y7444141D01*
X3672817Y10392840D01*
X3634253Y10459635D01*
X3634253Y10536763D01*
X3672817Y10603558D01*
X3739612Y10642122D01*
X3771844Y10647064D01*
X3975345Y10655708D01*
X4204234Y10705038D01*
X4421494Y10792340D01*
X4620875Y10915104D01*
X4796641Y11069797D01*
X4943735Y11251970D01*
X5057926Y11456381D01*
X5135929Y11677151D01*
X5166780Y11857078D01*
X5199044Y11927129D01*
X5262014Y11971666D01*
X5338816Y11978751D01*
X5408871Y11946486D01*
X5453408Y11883516D01*
X5455343Y11877939D01*
X5478485Y11806716D01*
X5478486Y11806715D01*
X5573133Y11642780D01*
X5699791Y11502114D01*
X5699793Y11502112D01*
X5852934Y11390849D01*
X5852935Y11390849D01*
X5852936Y11390848D01*
X5867621Y11384310D01*
X6025861Y11313856D01*
X6147623Y11287975D01*
X6211016Y11274500D01*
X6211018Y11274500D01*
X6400312Y11274500D01*
X6439668Y11282866D01*
X6585467Y11313856D01*
X6758394Y11390849D01*
X6911535Y11502112D01*
X7028552Y11632072D01*
X7038194Y11642780D01*
X7038195Y11642782D01*
X7038197Y11642784D01*
X7132843Y11806716D01*
X7191338Y11986744D01*
X7211124Y12175000D01*
X7191338Y12363256D01*
X7132843Y12543284D01*
X7038197Y12707216D01*
X7038196Y12707217D01*
X7038194Y12707221D01*
X6911536Y12847887D01*
X6903254Y12853904D01*
X6758394Y12959151D01*
X6758393Y12959152D01*
X6758391Y12959153D01*
X6585469Y13036143D01*
X6585467Y13036144D01*
X6465369Y13061672D01*
X6426116Y13070015D01*
X6357394Y13105031D01*
X6315387Y13169716D01*
X6311351Y13246738D01*
X6346367Y13315460D01*
X6411052Y13357467D01*
X6426116Y13361503D01*
X6554803Y13388856D01*
X6727730Y13465849D01*
X6880871Y13577112D01*
X6960017Y13665012D01*
X7007530Y13717780D01*
X7007531Y13717782D01*
X7007533Y13717784D01*
X7102179Y13881716D01*
X7160674Y14061744D01*
X7180460Y14250000D01*
X7160674Y14438256D01*
X7102179Y14618284D01*
X7007533Y14782216D01*
X7007532Y14782217D01*
X7007530Y14782221D01*
X6880872Y14922887D01*
X6762139Y15009151D01*
X6727730Y15034151D01*
X6727729Y15034152D01*
X6727727Y15034153D01*
X6554800Y15111146D01*
X6548911Y15113059D01*
X6484227Y15155067D01*
X6449213Y15223790D01*
X6453252Y15300812D01*
X6495260Y15365496D01*
X6534350Y15390881D01*
X6702730Y15465849D01*
X6749724Y15499992D01*
X12095006Y15499992D01*
X12114965Y15131864D01*
X12114965Y15131858D01*
X12174613Y14768026D01*
X12174613Y14768024D01*
X12273247Y14412779D01*
X12273249Y14412774D01*
X12409709Y14070285D01*
X12409715Y14070272D01*
X12582404Y13744544D01*
X12582407Y13744539D01*
X12789303Y13439392D01*
X12789312Y13439380D01*
X12925496Y13279052D01*
X12925497Y13279052D01*
X14241350Y14594906D01*
X14295456Y14516520D01*
X14468816Y14336034D01*
X14594865Y14241314D01*
X13276520Y12922969D01*
X13295657Y12904841D01*
X13295658Y12904840D01*
X13589165Y12681722D01*
X13905066Y12491650D01*
X14239684Y12336840D01*
X14239694Y12336835D01*
X14589063Y12219120D01*
X14949131Y12139863D01*
X15315656Y12100001D01*
X15315666Y12100000D01*
X15684334Y12100000D01*
X15684343Y12100001D01*
X16050868Y12139863D01*
X16050869Y12139863D01*
X16410936Y12219120D01*
X16760305Y12336835D01*
X16760315Y12336840D01*
X17094933Y12491650D01*
X17410834Y12681722D01*
X17704352Y12904849D01*
X17723479Y12922968D01*
X16406879Y14239568D01*
X16434180Y14256832D01*
X16621501Y14422784D01*
X16760511Y14593042D01*
X18074501Y13279052D01*
X18210690Y13439383D01*
X18210694Y13439389D01*
X18417592Y13744539D01*
X18417595Y13744544D01*
X18590284Y14070272D01*
X18590290Y14070285D01*
X18726750Y14412774D01*
X18726752Y14412779D01*
X18825386Y14768024D01*
X18825386Y14768026D01*
X18885034Y15131858D01*
X18885034Y15131864D01*
X18904994Y15499992D01*
X18904994Y15500009D01*
X18885034Y15868137D01*
X18885034Y15868143D01*
X18825386Y16231975D01*
X18825386Y16231977D01*
X18726752Y16587222D01*
X18726750Y16587227D01*
X18590290Y16929716D01*
X18590284Y16929729D01*
X18417595Y17255457D01*
X18417592Y17255462D01*
X18210696Y17560609D01*
X18210687Y17560621D01*
X18074502Y17720950D01*
X18074501Y17720950D01*
X16758648Y16405097D01*
X16704544Y16483480D01*
X16531184Y16663966D01*
X16405132Y16758688D01*
X17723479Y18077034D01*
X17704347Y18095156D01*
X17410834Y18318279D01*
X17094933Y18508351D01*
X16760315Y18663161D01*
X16760305Y18663166D01*
X16410936Y18780881D01*
X16050868Y18860138D01*
X15684343Y18900000D01*
X15315656Y18900000D01*
X14949131Y18860138D01*
X14949130Y18860138D01*
X14589063Y18780881D01*
X14239694Y18663166D01*
X14239684Y18663161D01*
X13905066Y18508351D01*
X13589165Y18318279D01*
X13295663Y18095165D01*
X13276520Y18077033D01*
X14593120Y16760433D01*
X14565820Y16743168D01*
X14378499Y16577216D01*
X14239488Y16406959D01*
X12925497Y17720950D01*
X12925496Y17720950D01*
X12789308Y17560617D01*
X12789306Y17560614D01*
X12582402Y17255453D01*
X12409715Y16929729D01*
X12409709Y16929716D01*
X12273249Y16587227D01*
X12273247Y16587222D01*
X12174613Y16231977D01*
X12174613Y16231975D01*
X12114965Y15868143D01*
X12114965Y15868137D01*
X12095006Y15500009D01*
X12095006Y15499992D01*
X6749724Y15499992D01*
X6855871Y15577112D01*
X6959786Y15692521D01*
X6982530Y15717780D01*
X6982531Y15717782D01*
X6982533Y15717784D01*
X7077179Y15881716D01*
X7135674Y16061744D01*
X7155460Y16250000D01*
X7135674Y16438256D01*
X7077179Y16618284D01*
X6982533Y16782216D01*
X6982532Y16782217D01*
X6982530Y16782221D01*
X6855872Y16922887D01*
X6828110Y16943057D01*
X6702730Y17034151D01*
X6702729Y17034152D01*
X6702727Y17034153D01*
X6548791Y17102690D01*
X6529803Y17111144D01*
X6423360Y17133769D01*
X6344648Y17150500D01*
X6344646Y17150500D01*
X6155354Y17150500D01*
X6155352Y17150500D01*
X6055392Y17129253D01*
X5970197Y17111144D01*
X5970195Y17111144D01*
X5970194Y17111143D01*
X5797272Y17034153D01*
X5644127Y16922887D01*
X5517469Y16782221D01*
X5422822Y16618286D01*
X5422819Y16618279D01*
X5364325Y16438255D01*
X5344540Y16250000D01*
X5364325Y16061746D01*
X5395173Y15966806D01*
X5422821Y15881716D01*
X5463621Y15811049D01*
X5517469Y15717780D01*
X5644127Y15577114D01*
X5644129Y15577112D01*
X5797270Y15465849D01*
X5970197Y15388856D01*
X5970200Y15388856D01*
X5976082Y15386944D01*
X6040768Y15344939D01*
X6075784Y15276218D01*
X6071749Y15199195D01*
X6029744Y15134509D01*
X5990646Y15109118D01*
X5822271Y15034152D01*
X5669127Y14922887D01*
X5542469Y14782221D01*
X5447818Y14618279D01*
X5447449Y14617449D01*
X5447067Y14616979D01*
X5443917Y14611521D01*
X5443052Y14612021D01*
X5398907Y14557512D01*
X5326900Y14529875D01*
X5250723Y14541945D01*
X5190786Y14590487D01*
X5163149Y14662494D01*
X5162843Y14690364D01*
X5169279Y14768026D01*
X5180214Y14900000D01*
X5178317Y14922888D01*
X5164545Y15089102D01*
X5161390Y15127176D01*
X5105430Y15348155D01*
X5013862Y15556909D01*
X4889183Y15747745D01*
X4734794Y15915456D01*
X4560101Y16051426D01*
X4554905Y16055470D01*
X4455457Y16109288D01*
X4399437Y16162302D01*
X4377430Y16236224D01*
X4395331Y16311246D01*
X4400204Y16319591D01*
X4480456Y16447310D01*
X4536313Y16606941D01*
X4555249Y16775000D01*
X4536313Y16943059D01*
X4480456Y17102690D01*
X4390477Y17245890D01*
X4270890Y17365477D01*
X4127690Y17455456D01*
X3968059Y17511313D01*
X3968058Y17511314D01*
X3968056Y17511314D01*
X3800001Y17530249D01*
X3799999Y17530249D01*
X3631943Y17511314D01*
X3472309Y17455456D01*
X3329110Y17365477D01*
X3209523Y17245890D01*
X3119544Y17102691D01*
X3063686Y16943057D01*
X3044751Y16775001D01*
X3044751Y16775000D01*
X3063686Y16606944D01*
X3119544Y16447310D01*
X3199788Y16319603D01*
X3222522Y16245902D01*
X3205359Y16170707D01*
X3152899Y16114168D01*
X3144542Y16109289D01*
X3045099Y16055473D01*
X2865206Y15915457D01*
X2710817Y15747746D01*
X2674737Y15692521D01*
X2617278Y15641071D01*
X2541791Y15625243D01*
X2468504Y15649280D01*
X2425263Y15692521D01*
X2389182Y15747746D01*
X2330908Y15811049D01*
X2234794Y15915456D01*
X2060101Y16051426D01*
X2054905Y16055470D01*
X1955457Y16109288D01*
X1899437Y16162302D01*
X1877430Y16236224D01*
X1895331Y16311246D01*
X1900204Y16319591D01*
X1980456Y16447310D01*
X2036313Y16606941D01*
X2055249Y16775000D01*
X2036313Y16943059D01*
X1980456Y17102690D01*
X1890477Y17245890D01*
X1770890Y17365477D01*
X1627690Y17455456D01*
X1468059Y17511313D01*
X1468058Y17511314D01*
X1468056Y17511314D01*
X1300001Y17530249D01*
X1299999Y17530249D01*
X1131943Y17511314D01*
X972309Y17455456D01*
X829110Y17365477D01*
X709523Y17245890D01*
X619544Y17102691D01*
X563686Y16943057D01*
X544751Y16775001D01*
X544751Y16775000D01*
X563686Y16606944D01*
X619544Y16447310D01*
X699788Y16319603D01*
X722522Y16245902D01*
X705359Y16170707D01*
X652899Y16114168D01*
X644542Y16109289D01*
X545099Y16055473D01*
X365206Y15915457D01*
X210817Y15747746D01*
X174737Y15692521D01*
X117278Y15641071D01*
X41791Y15625243D01*
X-31496Y15649280D01*
X-74737Y15692521D01*
X-110818Y15747746D01*
X-169092Y15811049D01*
X-265206Y15915456D01*
X-439899Y16051426D01*
X-445095Y16055470D01*
X-544543Y16109288D01*
X-600563Y16162302D01*
X-622570Y16236224D01*
X-604669Y16311246D01*
X-599796Y16319591D01*
X-519544Y16447310D01*
X-463687Y16606941D01*
X-444751Y16775000D01*
X-463687Y16943059D01*
X-519544Y17102690D01*
X-609523Y17245890D01*
X-729110Y17365477D01*
X-872310Y17455456D01*
X-1031941Y17511313D01*
X-1031942Y17511314D01*
X-1031944Y17511314D01*
X-1199999Y17530249D01*
X-1200001Y17530249D01*
X-1368057Y17511314D01*
X-1527691Y17455456D01*
X-1670890Y17365477D01*
X-1790477Y17245890D01*
X-1880456Y17102691D01*
X-1936314Y16943057D01*
X-1955249Y16775001D01*
X-1955249Y16775000D01*
X-1936314Y16606944D01*
X-1880456Y16447310D01*
X-1800212Y16319603D01*
X-1777478Y16245902D01*
X-1794641Y16170707D01*
X-1847101Y16114168D01*
X-1855458Y16109289D01*
X-1954901Y16055473D01*
X-2134794Y15915457D01*
X-2289183Y15747746D01*
X-2325263Y15692521D01*
X-2382722Y15641071D01*
X-2458209Y15625243D01*
X-2531496Y15649280D01*
X-2574737Y15692521D01*
X-2610818Y15747746D01*
X-2669092Y15811049D01*
X-2765206Y15915456D01*
X-2939899Y16051426D01*
X-2945095Y16055470D01*
X-3044543Y16109288D01*
X-3100563Y16162302D01*
X-3122570Y16236224D01*
X-3104669Y16311246D01*
X-3099796Y16319591D01*
X-3019544Y16447310D01*
X-2963687Y16606941D01*
X-2944751Y16775000D01*
X-2963687Y16943059D01*
X-3019544Y17102690D01*
X-3109523Y17245890D01*
X-3229110Y17365477D01*
X-3372310Y17455456D01*
X-3531941Y17511313D01*
X-3531942Y17511314D01*
X-3531944Y17511314D01*
X-3699999Y17530249D01*
X-3700001Y17530249D01*
X-3868057Y17511314D01*
X-4027691Y17455456D01*
X-4170890Y17365477D01*
X-4290477Y17245890D01*
X-4380456Y17102691D01*
X-4436314Y16943057D01*
X-4455249Y16775001D01*
X-4455249Y16775000D01*
X-4436314Y16606944D01*
X-4380456Y16447310D01*
X-4300212Y16319603D01*
X-4277478Y16245902D01*
X-4294641Y16170707D01*
X-4347101Y16114168D01*
X-4355458Y16109289D01*
X-4454901Y16055473D01*
X-4634794Y15915457D01*
X-4789179Y15747750D01*
X-4789181Y15747748D01*
X-4789183Y15747745D01*
X-4828582Y15687440D01*
X-4913864Y15556907D01*
X-5005430Y15348157D01*
X-5061391Y15127172D01*
X-5080214Y14900002D01*
X-5080214Y14899999D01*
X-5061391Y14672829D01*
X-5061391Y14672826D01*
X-5061390Y14672824D01*
X-5041246Y14593279D01*
X-5005430Y14451844D01*
X-4913864Y14243094D01*
X-4913862Y14243091D01*
X-4789183Y14052255D01*
X-4634794Y13884544D01*
X-4454906Y13744531D01*
X-4405931Y13718027D01*
X-4349911Y13665012D01*
X-4327904Y13591091D01*
X-4345805Y13516069D01*
X-4398725Y13460107D01*
X-4520875Y13384897D01*
X-4696640Y13230205D01*
X-4843733Y13048034D01*
X-4957925Y12843622D01*
X-4957926Y12843620D01*
X-5035930Y12622847D01*
X-5076483Y12386337D01*
X-5108749Y12316282D01*
X-5171719Y12271746D01*
X-5248521Y12264661D01*
X-5318576Y12296927D01*
X-5363112Y12359897D01*
X-5365047Y12365474D01*
X-5375241Y12396849D01*
X-5422821Y12543284D01*
X-5517467Y12707216D01*
X-5517468Y12707217D01*
X-5517470Y12707221D01*
X-5644128Y12847887D01*
X-5652410Y12853904D01*
X-5797270Y12959151D01*
X-5797271Y12959152D01*
X-5797273Y12959153D01*
X-5970195Y13036143D01*
X-5970197Y13036144D01*
X-6055410Y13054257D01*
X-6124131Y13089272D01*
X-6166137Y13153957D01*
X-6170174Y13230979D01*
X-6135158Y13299701D01*
X-6070473Y13341707D01*
X-6055413Y13345743D01*
X-5970197Y13363856D01*
X-5797270Y13440849D01*
X-5644129Y13552112D01*
X-5568562Y13636037D01*
X-5517470Y13692780D01*
X-5517469Y13692782D01*
X-5517467Y13692784D01*
X-5422821Y13856716D01*
X-5364326Y14036744D01*
X-5344540Y14225000D01*
X-5364326Y14413256D01*
X-5422821Y14593284D01*
X-5517467Y14757216D01*
X-5517468Y14757217D01*
X-5517470Y14757221D01*
X-5644128Y14897887D01*
X-5678538Y14922887D01*
X-5797270Y15009151D01*
X-5797271Y15009152D01*
X-5797273Y15009153D01*
X-5970195Y15086143D01*
X-5970197Y15086144D01*
X-6009104Y15094414D01*
X-6077823Y15129428D01*
X-6119830Y15194113D01*
X-6123867Y15271136D01*
X-6088852Y15339857D01*
X-6024167Y15381864D01*
X-6009108Y15385900D01*
X-5995197Y15388856D01*
X-5822270Y15465849D01*
X-5669129Y15577112D01*
X-5565214Y15692521D01*
X-5542470Y15717780D01*
X-5542469Y15717782D01*
X-5542467Y15717784D01*
X-5447821Y15881716D01*
X-5389326Y16061744D01*
X-5369540Y16250000D01*
X-5389326Y16438256D01*
X-5447821Y16618284D01*
X-5542467Y16782216D01*
X-5542468Y16782217D01*
X-5542470Y16782221D01*
X-5669128Y16922887D01*
X-5696890Y16943057D01*
X-5822270Y17034151D01*
X-5822271Y17034152D01*
X-5822273Y17034153D01*
X-5976209Y17102690D01*
X-5995197Y17111144D01*
X-6101640Y17133769D01*
X-6180352Y17150500D01*
X-6180354Y17150500D01*
X-6369646Y17150500D01*
X-6369648Y17150500D01*
X-6469608Y17129253D01*
X-6554803Y17111144D01*
X-6554805Y17111144D01*
X-6554806Y17111143D01*
X-6727728Y17034153D01*
X-6880873Y16922887D01*
X-7007531Y16782221D01*
X-7102178Y16618286D01*
X-7102181Y16618279D01*
X-7160675Y16438255D01*
X-7180460Y16250000D01*
X-7160675Y16061746D01*
X-7129827Y15966806D01*
X-7102179Y15881716D01*
X-7061379Y15811049D01*
X-7007531Y15717780D01*
X-6880873Y15577114D01*
X-6880871Y15577112D01*
X-6727730Y15465849D01*
X-6554803Y15388856D01*
X-6515897Y15380587D01*
X-6447179Y15345574D01*
X-6405171Y15280890D01*
X-6401133Y15203868D01*
X-6436148Y15135145D01*
X-6500832Y15093137D01*
X-6515892Y15089102D01*
X-6529802Y15086145D01*
X-6702728Y15009153D01*
X-6855873Y14897887D01*
X-6982531Y14757221D01*
X-7077178Y14593286D01*
X-7077181Y14593279D01*
X-7135675Y14413255D01*
X-7155460Y14225000D01*
X-7135675Y14036746D01*
X-7107489Y13950000D01*
X-7077179Y13856716D01*
X-7077178Y13856715D01*
X-6982531Y13692780D01*
X-6859305Y13555926D01*
X-6855871Y13552112D01*
X-6702730Y13440849D01*
X-6702729Y13440849D01*
X-6702728Y13440848D01*
X-6699431Y13439380D01*
X-6529803Y13363856D01*
X-6444592Y13345744D01*
X-6375870Y13310728D01*
X-6333863Y13246043D01*
X-6329827Y13169021D01*
X-6364843Y13100299D01*
X-6429528Y13058292D01*
X-6444592Y13054257D01*
X-6529803Y13036144D01*
X-6529805Y13036144D01*
X-6529806Y13036143D01*
X-6702728Y12959153D01*
X-6855873Y12847887D01*
X-6982531Y12707221D01*
X-7077178Y12543286D01*
X-7077181Y12543279D01*
X-7135675Y12363255D01*
X-7155460Y12175000D01*
X-7135675Y11986746D01*
X-7086632Y11835808D01*
X-7077179Y11806716D01*
X-6982533Y11642784D01*
X-6982531Y11642781D01*
X-6972889Y11632072D01*
X-6937875Y11563350D01*
X-6941912Y11486328D01*
X-6983920Y11421643D01*
X-7052642Y11386629D01*
X-7066936Y11384310D01*
X-7222461Y11366786D01*
X-7335403Y11327266D01*
X-7412315Y11321503D01*
X-7481805Y11354967D01*
X-7525253Y11418694D01*
X-7525745Y11420401D01*
X-7528214Y11427456D01*
X-7528214Y11427461D01*
X-7582211Y11581775D01*
X-7669192Y11720204D01*
X-7784796Y11835808D01*
X-7923225Y11922789D01*
X-8077539Y11976786D01*
X-8077540Y11976787D01*
X-8077542Y11976787D01*
X-8239999Y11995091D01*
X-8240001Y11995091D01*
X-8402459Y11976787D01*
X-8418568Y11971150D01*
X-8556775Y11922789D01*
X-8556777Y11922789D01*
X-8556777Y11922788D01*
X-8695204Y11835808D01*
X-8810808Y11720204D01*
X-8897788Y11581777D01*
X-8951787Y11427459D01*
X-8970091Y11265001D01*
X-8970091Y11265000D01*
X-20999500Y11265000D01*
X-20999500Y15496914D01*
X-20999437Y15499992D01*
X-18904994Y15499992D01*
X-18885035Y15131864D01*
X-18885035Y15131858D01*
X-18825387Y14768026D01*
X-18825387Y14768024D01*
X-18726753Y14412779D01*
X-18726751Y14412774D01*
X-18590291Y14070285D01*
X-18590285Y14070272D01*
X-18417596Y13744544D01*
X-18417593Y13744539D01*
X-18210697Y13439392D01*
X-18210688Y13439380D01*
X-18074504Y13279052D01*
X-18074503Y13279052D01*
X-16758650Y14594906D01*
X-16704544Y14516520D01*
X-16531184Y14336034D01*
X-16405135Y14241314D01*
X-17723480Y12922969D01*
X-17704343Y12904841D01*
X-17704342Y12904840D01*
X-17410835Y12681722D01*
X-17094934Y12491650D01*
X-16760316Y12336840D01*
X-16760306Y12336835D01*
X-16410937Y12219120D01*
X-16050869Y12139863D01*
X-15684344Y12100001D01*
X-15684334Y12100000D01*
X-15315666Y12100000D01*
X-15315657Y12100001D01*
X-14949132Y12139863D01*
X-14949131Y12139863D01*
X-14589064Y12219120D01*
X-14239695Y12336835D01*
X-14239685Y12336840D01*
X-13905067Y12491650D01*
X-13589166Y12681722D01*
X-13295648Y12904849D01*
X-13276521Y12922968D01*
X-14593121Y14239568D01*
X-14565820Y14256832D01*
X-14378499Y14422784D01*
X-14239489Y14593042D01*
X-12925499Y13279052D01*
X-12789310Y13439383D01*
X-12789306Y13439389D01*
X-12582408Y13744539D01*
X-12582405Y13744544D01*
X-12409716Y14070272D01*
X-12409710Y14070285D01*
X-12273250Y14412774D01*
X-12273248Y14412779D01*
X-12174614Y14768024D01*
X-12174614Y14768026D01*
X-12114966Y15131858D01*
X-12114966Y15131864D01*
X-12095006Y15499992D01*
X-12095006Y15500009D01*
X-12114966Y15868137D01*
X-12114966Y15868143D01*
X-12174614Y16231975D01*
X-12174614Y16231977D01*
X-12273248Y16587222D01*
X-12273250Y16587227D01*
X-12409710Y16929716D01*
X-12409716Y16929729D01*
X-12582405Y17255457D01*
X-12582408Y17255462D01*
X-12789304Y17560609D01*
X-12789313Y17560621D01*
X-12925498Y17720950D01*
X-12925499Y17720950D01*
X-14241352Y16405097D01*
X-14295456Y16483480D01*
X-14468816Y16663966D01*
X-14594868Y16758688D01*
X-13276521Y18077034D01*
X-13295653Y18095156D01*
X-13589166Y18318279D01*
X-13905067Y18508351D01*
X-14239685Y18663161D01*
X-14239695Y18663166D01*
X-14589064Y18780881D01*
X-14949132Y18860138D01*
X-15315657Y18900000D01*
X-15684344Y18900000D01*
X-16050869Y18860138D01*
X-16050870Y18860138D01*
X-16410937Y18780881D01*
X-16760306Y18663166D01*
X-16760316Y18663161D01*
X-17094934Y18508351D01*
X-17410835Y18318279D01*
X-17704337Y18095165D01*
X-17723480Y18077033D01*
X-16406880Y16760433D01*
X-16434180Y16743168D01*
X-16621501Y16577216D01*
X-16760512Y16406959D01*
X-18074503Y17720950D01*
X-18074504Y17720950D01*
X-18210692Y17560617D01*
X-18210694Y17560614D01*
X-18417598Y17255453D01*
X-18590285Y16929729D01*
X-18590291Y16929716D01*
X-18726751Y16587227D01*
X-18726753Y16587222D01*
X-18825387Y16231977D01*
X-18825387Y16231975D01*
X-18885035Y15868143D01*
X-18885035Y15868137D01*
X-18904994Y15500009D01*
X-18904994Y15499992D01*
X-20999437Y15499992D01*
X-20999373Y15503071D01*
X-20996311Y15577112D01*
X-20990506Y15717455D01*
X-20990455Y15717453D01*
X-20990492Y15717791D01*
X-20980139Y15954903D01*
X-20979142Y15966777D01*
X-20950922Y16193168D01*
X-20921239Y16418634D01*
X-20919344Y16429751D01*
X-20917561Y16438255D01*
X-20872181Y16654685D01*
X-20871904Y16655965D01*
X-20823198Y16875665D01*
X-20820542Y16885905D01*
X-20809532Y16922887D01*
X-20754715Y17107016D01*
X-20754126Y17108937D01*
X-20686719Y17322726D01*
X-20683456Y17331985D01*
X-20599403Y17547395D01*
X-20598400Y17549889D01*
X-20512816Y17756506D01*
X-20509047Y17764863D01*
X-20407436Y17972711D01*
X-20405842Y17975873D01*
X-20302709Y18173989D01*
X-20298580Y18181390D01*
X-20180092Y18380239D01*
X-20177827Y18383915D01*
X-20057959Y18572070D01*
X-20053616Y18578505D01*
X-19919017Y18767023D01*
X-19916039Y18771045D01*
X-19780294Y18947951D01*
X-19775864Y18953446D01*
X-19626154Y19130208D01*
X-19622353Y19134523D01*
X-19471731Y19298898D01*
X-19467326Y19303499D01*
X-19303499Y19467326D01*
X-19298898Y19471731D01*
X-19134523Y19622353D01*
X-19130208Y19626154D01*
X-18953446Y19775864D01*
X-18947951Y19780294D01*
X-18771045Y19916039D01*
X-18767023Y19919017D01*
X-18578505Y20053616D01*
X-18572070Y20057959D01*
X-18383915Y20177827D01*
X-18380239Y20180092D01*
X-18181371Y20298592D01*
X-18173989Y20302709D01*
X-17975873Y20405842D01*
X-17972711Y20407436D01*
X-17764863Y20509047D01*
X-17756506Y20512816D01*
X-17549889Y20598400D01*
X-17547395Y20599403D01*
X-17331985Y20683456D01*
X-17322726Y20686719D01*
X-17108937Y20754126D01*
X-17107016Y20754715D01*
X-16885895Y20820545D01*
X-16875665Y20823198D01*
X-16655965Y20871904D01*
X-16654685Y20872181D01*
X-16429744Y20919346D01*
X-16418634Y20921239D01*
X-16193168Y20950922D01*
X-16193153Y20950924D01*
X-15966777Y20979142D01*
X-15954903Y20980139D01*
X-15717894Y20990488D01*
X-15717794Y20990492D01*
X-15717452Y20990416D01*
X-15717455Y20990506D01*
X-15503071Y20999374D01*
X-15496914Y20999500D01*
X15496914Y20999500D01*
X15503070Y20999374D01*
G37*
%TD.AperFunction*%
%TD*%
M02*
