%TF.GenerationSoftware,KiCad,Pcbnew,7.0.9*%
%TF.CreationDate,2024-01-12T19:02:58-05:00*%
%TF.ProjectId,lemon-pepper,6c656d6f-6e2d-4706-9570-7065722e6b69,rev?*%
%TF.SameCoordinates,PX8b85c60PY52f2218*%
%TF.FileFunction,Drillmap*%
%TF.FilePolarity,Positive*%
%FSLAX45Y45*%
G04 Gerber Fmt 4.5, Leading zero omitted, Abs format (unit mm)*
G04 Created by KiCad (PCBNEW 7.0.9) date 2024-01-12 19:02:58*
%MOMM*%
%LPD*%
G01*
G04 APERTURE LIST*
%ADD10C,0.200000*%
%ADD11C,0.100000*%
G04 APERTURE END LIST*
D10*
D11*
X-689835Y-1160165D02*
X-629835Y-1220165D01*
X-629835Y-1160165D02*
X-689835Y-1220165D01*
X-695190Y-1197236D02*
X-666906Y-1225520D01*
X-666906Y-1225520D02*
G75*
G03*
X-624480Y-1183094I21213J21213D01*
G01*
X-624480Y-1183094D02*
X-652764Y-1154810D01*
X-652764Y-1154810D02*
G75*
G03*
X-695190Y-1197236I-21213J-21213D01*
G01*
X-1157165Y-659835D02*
G75*
G03*
X-1157165Y-659835I-33000J0D01*
G01*
X-971833Y-1518935D02*
X-971833Y-1617995D01*
X-1021363Y-1568465D02*
X-922303Y-1568465D01*
X-492553Y-1322271D02*
X-492553Y-1421331D01*
X-542083Y-1371801D02*
X-443023Y-1371801D01*
X-453780Y-1521738D02*
X-453780Y-1620798D01*
X-503310Y-1571268D02*
X-404250Y-1571268D01*
D10*
X-1840023Y-2412284D02*
X-1840023Y-2212284D01*
X-1840023Y-2212284D02*
X-1792404Y-2212284D01*
X-1792404Y-2212284D02*
X-1763833Y-2221808D01*
X-1763833Y-2221808D02*
X-1744785Y-2240855D01*
X-1744785Y-2240855D02*
X-1735261Y-2259903D01*
X-1735261Y-2259903D02*
X-1725737Y-2297998D01*
X-1725737Y-2297998D02*
X-1725737Y-2326570D01*
X-1725737Y-2326570D02*
X-1735261Y-2364665D01*
X-1735261Y-2364665D02*
X-1744785Y-2383712D01*
X-1744785Y-2383712D02*
X-1763833Y-2402760D01*
X-1763833Y-2402760D02*
X-1792404Y-2412284D01*
X-1792404Y-2412284D02*
X-1840023Y-2412284D01*
X-1640023Y-2412284D02*
X-1640023Y-2278950D01*
X-1640023Y-2317046D02*
X-1630499Y-2297998D01*
X-1630499Y-2297998D02*
X-1620976Y-2288474D01*
X-1620976Y-2288474D02*
X-1601928Y-2278950D01*
X-1601928Y-2278950D02*
X-1582880Y-2278950D01*
X-1516214Y-2412284D02*
X-1516214Y-2278950D01*
X-1516214Y-2212284D02*
X-1525737Y-2221808D01*
X-1525737Y-2221808D02*
X-1516214Y-2231331D01*
X-1516214Y-2231331D02*
X-1506690Y-2221808D01*
X-1506690Y-2221808D02*
X-1516214Y-2212284D01*
X-1516214Y-2212284D02*
X-1516214Y-2231331D01*
X-1392404Y-2412284D02*
X-1411452Y-2402760D01*
X-1411452Y-2402760D02*
X-1420976Y-2383712D01*
X-1420976Y-2383712D02*
X-1420976Y-2212284D01*
X-1287642Y-2412284D02*
X-1306690Y-2402760D01*
X-1306690Y-2402760D02*
X-1316214Y-2383712D01*
X-1316214Y-2383712D02*
X-1316214Y-2212284D01*
X-1059071Y-2412284D02*
X-1059071Y-2212284D01*
X-1059071Y-2212284D02*
X-992404Y-2355141D01*
X-992404Y-2355141D02*
X-925737Y-2212284D01*
X-925737Y-2212284D02*
X-925737Y-2412284D01*
X-744785Y-2412284D02*
X-744785Y-2307522D01*
X-744785Y-2307522D02*
X-754309Y-2288474D01*
X-754309Y-2288474D02*
X-773356Y-2278950D01*
X-773356Y-2278950D02*
X-811452Y-2278950D01*
X-811452Y-2278950D02*
X-830499Y-2288474D01*
X-744785Y-2402760D02*
X-763833Y-2412284D01*
X-763833Y-2412284D02*
X-811452Y-2412284D01*
X-811452Y-2412284D02*
X-830499Y-2402760D01*
X-830499Y-2402760D02*
X-840023Y-2383712D01*
X-840023Y-2383712D02*
X-840023Y-2364665D01*
X-840023Y-2364665D02*
X-830499Y-2345617D01*
X-830499Y-2345617D02*
X-811452Y-2336093D01*
X-811452Y-2336093D02*
X-763833Y-2336093D01*
X-763833Y-2336093D02*
X-744785Y-2326570D01*
X-649547Y-2278950D02*
X-649547Y-2478950D01*
X-649547Y-2288474D02*
X-630499Y-2278950D01*
X-630499Y-2278950D02*
X-592404Y-2278950D01*
X-592404Y-2278950D02*
X-573357Y-2288474D01*
X-573357Y-2288474D02*
X-563833Y-2297998D01*
X-563833Y-2297998D02*
X-554309Y-2317046D01*
X-554309Y-2317046D02*
X-554309Y-2374189D01*
X-554309Y-2374189D02*
X-563833Y-2393236D01*
X-563833Y-2393236D02*
X-573357Y-2402760D01*
X-573357Y-2402760D02*
X-592404Y-2412284D01*
X-592404Y-2412284D02*
X-630499Y-2412284D01*
X-630499Y-2412284D02*
X-649547Y-2402760D01*
X-468595Y-2393236D02*
X-459071Y-2402760D01*
X-459071Y-2402760D02*
X-468595Y-2412284D01*
X-468595Y-2412284D02*
X-478118Y-2402760D01*
X-478118Y-2402760D02*
X-468595Y-2393236D01*
X-468595Y-2393236D02*
X-468595Y-2412284D01*
X-468595Y-2288474D02*
X-459071Y-2297998D01*
X-459071Y-2297998D02*
X-468595Y-2307522D01*
X-468595Y-2307522D02*
X-478118Y-2297998D01*
X-478118Y-2297998D02*
X-468595Y-2288474D01*
X-468595Y-2288474D02*
X-468595Y-2307522D01*
D11*
X-2160800Y-2710800D02*
X-2100800Y-2770800D01*
X-2100800Y-2710800D02*
X-2160800Y-2770800D01*
D10*
X-1801928Y-2632284D02*
X-1782880Y-2632284D01*
X-1782880Y-2632284D02*
X-1763833Y-2641808D01*
X-1763833Y-2641808D02*
X-1754309Y-2651331D01*
X-1754309Y-2651331D02*
X-1744785Y-2670379D01*
X-1744785Y-2670379D02*
X-1735261Y-2708474D01*
X-1735261Y-2708474D02*
X-1735261Y-2756093D01*
X-1735261Y-2756093D02*
X-1744785Y-2794189D01*
X-1744785Y-2794189D02*
X-1754309Y-2813236D01*
X-1754309Y-2813236D02*
X-1763833Y-2822760D01*
X-1763833Y-2822760D02*
X-1782880Y-2832284D01*
X-1782880Y-2832284D02*
X-1801928Y-2832284D01*
X-1801928Y-2832284D02*
X-1820976Y-2822760D01*
X-1820976Y-2822760D02*
X-1830499Y-2813236D01*
X-1830499Y-2813236D02*
X-1840023Y-2794189D01*
X-1840023Y-2794189D02*
X-1849547Y-2756093D01*
X-1849547Y-2756093D02*
X-1849547Y-2708474D01*
X-1849547Y-2708474D02*
X-1840023Y-2670379D01*
X-1840023Y-2670379D02*
X-1830499Y-2651331D01*
X-1830499Y-2651331D02*
X-1820976Y-2641808D01*
X-1820976Y-2641808D02*
X-1801928Y-2632284D01*
X-1649547Y-2813236D02*
X-1640023Y-2822760D01*
X-1640023Y-2822760D02*
X-1649547Y-2832284D01*
X-1649547Y-2832284D02*
X-1659071Y-2822760D01*
X-1659071Y-2822760D02*
X-1649547Y-2813236D01*
X-1649547Y-2813236D02*
X-1649547Y-2832284D01*
X-1468595Y-2632284D02*
X-1506690Y-2632284D01*
X-1506690Y-2632284D02*
X-1525737Y-2641808D01*
X-1525737Y-2641808D02*
X-1535261Y-2651331D01*
X-1535261Y-2651331D02*
X-1554309Y-2679903D01*
X-1554309Y-2679903D02*
X-1563833Y-2717998D01*
X-1563833Y-2717998D02*
X-1563833Y-2794189D01*
X-1563833Y-2794189D02*
X-1554309Y-2813236D01*
X-1554309Y-2813236D02*
X-1544785Y-2822760D01*
X-1544785Y-2822760D02*
X-1525737Y-2832284D01*
X-1525737Y-2832284D02*
X-1487642Y-2832284D01*
X-1487642Y-2832284D02*
X-1468595Y-2822760D01*
X-1468595Y-2822760D02*
X-1459071Y-2813236D01*
X-1459071Y-2813236D02*
X-1449547Y-2794189D01*
X-1449547Y-2794189D02*
X-1449547Y-2746570D01*
X-1449547Y-2746570D02*
X-1459071Y-2727522D01*
X-1459071Y-2727522D02*
X-1468595Y-2717998D01*
X-1468595Y-2717998D02*
X-1487642Y-2708474D01*
X-1487642Y-2708474D02*
X-1525737Y-2708474D01*
X-1525737Y-2708474D02*
X-1544785Y-2717998D01*
X-1544785Y-2717998D02*
X-1554309Y-2727522D01*
X-1554309Y-2727522D02*
X-1563833Y-2746570D01*
X-1325738Y-2632284D02*
X-1306690Y-2632284D01*
X-1306690Y-2632284D02*
X-1287642Y-2641808D01*
X-1287642Y-2641808D02*
X-1278118Y-2651331D01*
X-1278118Y-2651331D02*
X-1268595Y-2670379D01*
X-1268595Y-2670379D02*
X-1259071Y-2708474D01*
X-1259071Y-2708474D02*
X-1259071Y-2756093D01*
X-1259071Y-2756093D02*
X-1268595Y-2794189D01*
X-1268595Y-2794189D02*
X-1278118Y-2813236D01*
X-1278118Y-2813236D02*
X-1287642Y-2822760D01*
X-1287642Y-2822760D02*
X-1306690Y-2832284D01*
X-1306690Y-2832284D02*
X-1325738Y-2832284D01*
X-1325738Y-2832284D02*
X-1344785Y-2822760D01*
X-1344785Y-2822760D02*
X-1354309Y-2813236D01*
X-1354309Y-2813236D02*
X-1363833Y-2794189D01*
X-1363833Y-2794189D02*
X-1373357Y-2756093D01*
X-1373357Y-2756093D02*
X-1373357Y-2708474D01*
X-1373357Y-2708474D02*
X-1363833Y-2670379D01*
X-1363833Y-2670379D02*
X-1354309Y-2651331D01*
X-1354309Y-2651331D02*
X-1344785Y-2641808D01*
X-1344785Y-2641808D02*
X-1325738Y-2632284D01*
X-1135261Y-2632284D02*
X-1116214Y-2632284D01*
X-1116214Y-2632284D02*
X-1097166Y-2641808D01*
X-1097166Y-2641808D02*
X-1087642Y-2651331D01*
X-1087642Y-2651331D02*
X-1078118Y-2670379D01*
X-1078118Y-2670379D02*
X-1068595Y-2708474D01*
X-1068595Y-2708474D02*
X-1068595Y-2756093D01*
X-1068595Y-2756093D02*
X-1078118Y-2794189D01*
X-1078118Y-2794189D02*
X-1087642Y-2813236D01*
X-1087642Y-2813236D02*
X-1097166Y-2822760D01*
X-1097166Y-2822760D02*
X-1116214Y-2832284D01*
X-1116214Y-2832284D02*
X-1135261Y-2832284D01*
X-1135261Y-2832284D02*
X-1154309Y-2822760D01*
X-1154309Y-2822760D02*
X-1163833Y-2813236D01*
X-1163833Y-2813236D02*
X-1173357Y-2794189D01*
X-1173357Y-2794189D02*
X-1182880Y-2756093D01*
X-1182880Y-2756093D02*
X-1182880Y-2708474D01*
X-1182880Y-2708474D02*
X-1173357Y-2670379D01*
X-1173357Y-2670379D02*
X-1163833Y-2651331D01*
X-1163833Y-2651331D02*
X-1154309Y-2641808D01*
X-1154309Y-2641808D02*
X-1135261Y-2632284D01*
X-982880Y-2832284D02*
X-982880Y-2698950D01*
X-982880Y-2717998D02*
X-973356Y-2708474D01*
X-973356Y-2708474D02*
X-954309Y-2698950D01*
X-954309Y-2698950D02*
X-925737Y-2698950D01*
X-925737Y-2698950D02*
X-906690Y-2708474D01*
X-906690Y-2708474D02*
X-897166Y-2727522D01*
X-897166Y-2727522D02*
X-897166Y-2832284D01*
X-897166Y-2727522D02*
X-887642Y-2708474D01*
X-887642Y-2708474D02*
X-868595Y-2698950D01*
X-868595Y-2698950D02*
X-840023Y-2698950D01*
X-840023Y-2698950D02*
X-820975Y-2708474D01*
X-820975Y-2708474D02*
X-811452Y-2727522D01*
X-811452Y-2727522D02*
X-811452Y-2832284D01*
X-716214Y-2832284D02*
X-716214Y-2698950D01*
X-716214Y-2717998D02*
X-706690Y-2708474D01*
X-706690Y-2708474D02*
X-687642Y-2698950D01*
X-687642Y-2698950D02*
X-659071Y-2698950D01*
X-659071Y-2698950D02*
X-640023Y-2708474D01*
X-640023Y-2708474D02*
X-630499Y-2727522D01*
X-630499Y-2727522D02*
X-630499Y-2832284D01*
X-630499Y-2727522D02*
X-620976Y-2708474D01*
X-620976Y-2708474D02*
X-601928Y-2698950D01*
X-601928Y-2698950D02*
X-573357Y-2698950D01*
X-573357Y-2698950D02*
X-554309Y-2708474D01*
X-554309Y-2708474D02*
X-544785Y-2727522D01*
X-544785Y-2727522D02*
X-544785Y-2832284D01*
X-154309Y-2622760D02*
X-325737Y-2879903D01*
X102834Y-2632284D02*
X121882Y-2632284D01*
X121882Y-2632284D02*
X140929Y-2641808D01*
X140929Y-2641808D02*
X150453Y-2651331D01*
X150453Y-2651331D02*
X159977Y-2670379D01*
X159977Y-2670379D02*
X169501Y-2708474D01*
X169501Y-2708474D02*
X169501Y-2756093D01*
X169501Y-2756093D02*
X159977Y-2794189D01*
X159977Y-2794189D02*
X150453Y-2813236D01*
X150453Y-2813236D02*
X140929Y-2822760D01*
X140929Y-2822760D02*
X121882Y-2832284D01*
X121882Y-2832284D02*
X102834Y-2832284D01*
X102834Y-2832284D02*
X83787Y-2822760D01*
X83787Y-2822760D02*
X74263Y-2813236D01*
X74263Y-2813236D02*
X64739Y-2794189D01*
X64739Y-2794189D02*
X55215Y-2756093D01*
X55215Y-2756093D02*
X55215Y-2708474D01*
X55215Y-2708474D02*
X64739Y-2670379D01*
X64739Y-2670379D02*
X74263Y-2651331D01*
X74263Y-2651331D02*
X83787Y-2641808D01*
X83787Y-2641808D02*
X102834Y-2632284D01*
X255215Y-2813236D02*
X264739Y-2822760D01*
X264739Y-2822760D02*
X255215Y-2832284D01*
X255215Y-2832284D02*
X245691Y-2822760D01*
X245691Y-2822760D02*
X255215Y-2813236D01*
X255215Y-2813236D02*
X255215Y-2832284D01*
X388548Y-2632284D02*
X407596Y-2632284D01*
X407596Y-2632284D02*
X426644Y-2641808D01*
X426644Y-2641808D02*
X436167Y-2651331D01*
X436167Y-2651331D02*
X445691Y-2670379D01*
X445691Y-2670379D02*
X455215Y-2708474D01*
X455215Y-2708474D02*
X455215Y-2756093D01*
X455215Y-2756093D02*
X445691Y-2794189D01*
X445691Y-2794189D02*
X436167Y-2813236D01*
X436167Y-2813236D02*
X426644Y-2822760D01*
X426644Y-2822760D02*
X407596Y-2832284D01*
X407596Y-2832284D02*
X388548Y-2832284D01*
X388548Y-2832284D02*
X369501Y-2822760D01*
X369501Y-2822760D02*
X359977Y-2813236D01*
X359977Y-2813236D02*
X350453Y-2794189D01*
X350453Y-2794189D02*
X340929Y-2756093D01*
X340929Y-2756093D02*
X340929Y-2708474D01*
X340929Y-2708474D02*
X350453Y-2670379D01*
X350453Y-2670379D02*
X359977Y-2651331D01*
X359977Y-2651331D02*
X369501Y-2641808D01*
X369501Y-2641808D02*
X388548Y-2632284D01*
X531406Y-2651331D02*
X540929Y-2641808D01*
X540929Y-2641808D02*
X559977Y-2632284D01*
X559977Y-2632284D02*
X607596Y-2632284D01*
X607596Y-2632284D02*
X626644Y-2641808D01*
X626644Y-2641808D02*
X636168Y-2651331D01*
X636168Y-2651331D02*
X645691Y-2670379D01*
X645691Y-2670379D02*
X645691Y-2689427D01*
X645691Y-2689427D02*
X636168Y-2717998D01*
X636168Y-2717998D02*
X521882Y-2832284D01*
X521882Y-2832284D02*
X645691Y-2832284D01*
X712358Y-2632284D02*
X836167Y-2632284D01*
X836167Y-2632284D02*
X769501Y-2708474D01*
X769501Y-2708474D02*
X798072Y-2708474D01*
X798072Y-2708474D02*
X817120Y-2717998D01*
X817120Y-2717998D02*
X826644Y-2727522D01*
X826644Y-2727522D02*
X836167Y-2746570D01*
X836167Y-2746570D02*
X836167Y-2794189D01*
X836167Y-2794189D02*
X826644Y-2813236D01*
X826644Y-2813236D02*
X817120Y-2822760D01*
X817120Y-2822760D02*
X798072Y-2832284D01*
X798072Y-2832284D02*
X740929Y-2832284D01*
X740929Y-2832284D02*
X721882Y-2822760D01*
X721882Y-2822760D02*
X712358Y-2813236D01*
X1007596Y-2632284D02*
X969501Y-2632284D01*
X969501Y-2632284D02*
X950453Y-2641808D01*
X950453Y-2641808D02*
X940929Y-2651331D01*
X940929Y-2651331D02*
X921882Y-2679903D01*
X921882Y-2679903D02*
X912358Y-2717998D01*
X912358Y-2717998D02*
X912358Y-2794189D01*
X912358Y-2794189D02*
X921882Y-2813236D01*
X921882Y-2813236D02*
X931406Y-2822760D01*
X931406Y-2822760D02*
X950453Y-2832284D01*
X950453Y-2832284D02*
X988548Y-2832284D01*
X988548Y-2832284D02*
X1007596Y-2822760D01*
X1007596Y-2822760D02*
X1017120Y-2813236D01*
X1017120Y-2813236D02*
X1026644Y-2794189D01*
X1026644Y-2794189D02*
X1026644Y-2746570D01*
X1026644Y-2746570D02*
X1017120Y-2727522D01*
X1017120Y-2727522D02*
X1007596Y-2717998D01*
X1007596Y-2717998D02*
X988548Y-2708474D01*
X988548Y-2708474D02*
X950453Y-2708474D01*
X950453Y-2708474D02*
X931406Y-2717998D01*
X931406Y-2717998D02*
X921882Y-2727522D01*
X921882Y-2727522D02*
X912358Y-2746570D01*
X1102834Y-2632284D02*
X1102834Y-2670379D01*
X1179025Y-2632284D02*
X1179025Y-2670379D01*
X1474263Y-2908474D02*
X1464739Y-2898950D01*
X1464739Y-2898950D02*
X1445691Y-2870379D01*
X1445691Y-2870379D02*
X1436168Y-2851331D01*
X1436168Y-2851331D02*
X1426644Y-2822760D01*
X1426644Y-2822760D02*
X1417120Y-2775141D01*
X1417120Y-2775141D02*
X1417120Y-2737046D01*
X1417120Y-2737046D02*
X1426644Y-2689427D01*
X1426644Y-2689427D02*
X1436168Y-2660855D01*
X1436168Y-2660855D02*
X1445691Y-2641808D01*
X1445691Y-2641808D02*
X1464739Y-2613236D01*
X1464739Y-2613236D02*
X1474263Y-2603712D01*
X1655215Y-2832284D02*
X1540929Y-2832284D01*
X1598072Y-2832284D02*
X1598072Y-2632284D01*
X1598072Y-2632284D02*
X1579025Y-2660855D01*
X1579025Y-2660855D02*
X1559977Y-2679903D01*
X1559977Y-2679903D02*
X1540929Y-2689427D01*
X1883787Y-2822760D02*
X1902834Y-2832284D01*
X1902834Y-2832284D02*
X1940929Y-2832284D01*
X1940929Y-2832284D02*
X1959977Y-2822760D01*
X1959977Y-2822760D02*
X1969501Y-2803712D01*
X1969501Y-2803712D02*
X1969501Y-2794189D01*
X1969501Y-2794189D02*
X1959977Y-2775141D01*
X1959977Y-2775141D02*
X1940929Y-2765617D01*
X1940929Y-2765617D02*
X1912358Y-2765617D01*
X1912358Y-2765617D02*
X1893310Y-2756093D01*
X1893310Y-2756093D02*
X1883787Y-2737046D01*
X1883787Y-2737046D02*
X1883787Y-2727522D01*
X1883787Y-2727522D02*
X1893310Y-2708474D01*
X1893310Y-2708474D02*
X1912358Y-2698950D01*
X1912358Y-2698950D02*
X1940929Y-2698950D01*
X1940929Y-2698950D02*
X1959977Y-2708474D01*
X2083787Y-2832284D02*
X2064739Y-2822760D01*
X2064739Y-2822760D02*
X2055215Y-2803712D01*
X2055215Y-2803712D02*
X2055215Y-2632284D01*
X2188549Y-2832284D02*
X2169501Y-2822760D01*
X2169501Y-2822760D02*
X2159977Y-2813236D01*
X2159977Y-2813236D02*
X2150453Y-2794189D01*
X2150453Y-2794189D02*
X2150453Y-2737046D01*
X2150453Y-2737046D02*
X2159977Y-2717998D01*
X2159977Y-2717998D02*
X2169501Y-2708474D01*
X2169501Y-2708474D02*
X2188549Y-2698950D01*
X2188549Y-2698950D02*
X2217120Y-2698950D01*
X2217120Y-2698950D02*
X2236168Y-2708474D01*
X2236168Y-2708474D02*
X2245692Y-2717998D01*
X2245692Y-2717998D02*
X2255215Y-2737046D01*
X2255215Y-2737046D02*
X2255215Y-2794189D01*
X2255215Y-2794189D02*
X2245692Y-2813236D01*
X2245692Y-2813236D02*
X2236168Y-2822760D01*
X2236168Y-2822760D02*
X2217120Y-2832284D01*
X2217120Y-2832284D02*
X2188549Y-2832284D01*
X2312358Y-2698950D02*
X2388549Y-2698950D01*
X2340930Y-2632284D02*
X2340930Y-2803712D01*
X2340930Y-2803712D02*
X2350453Y-2822760D01*
X2350453Y-2822760D02*
X2369501Y-2832284D01*
X2369501Y-2832284D02*
X2388549Y-2832284D01*
X2436168Y-2908474D02*
X2445692Y-2898950D01*
X2445692Y-2898950D02*
X2464739Y-2870379D01*
X2464739Y-2870379D02*
X2474263Y-2851331D01*
X2474263Y-2851331D02*
X2483787Y-2822760D01*
X2483787Y-2822760D02*
X2493311Y-2775141D01*
X2493311Y-2775141D02*
X2493311Y-2737046D01*
X2493311Y-2737046D02*
X2483787Y-2689427D01*
X2483787Y-2689427D02*
X2474263Y-2660855D01*
X2474263Y-2660855D02*
X2464739Y-2641808D01*
X2464739Y-2641808D02*
X2445692Y-2613236D01*
X2445692Y-2613236D02*
X2436168Y-2603712D01*
X2798072Y-2908474D02*
X2788549Y-2898950D01*
X2788549Y-2898950D02*
X2769501Y-2870379D01*
X2769501Y-2870379D02*
X2759977Y-2851331D01*
X2759977Y-2851331D02*
X2750453Y-2822760D01*
X2750453Y-2822760D02*
X2740930Y-2775141D01*
X2740930Y-2775141D02*
X2740930Y-2737046D01*
X2740930Y-2737046D02*
X2750453Y-2689427D01*
X2750453Y-2689427D02*
X2759977Y-2660855D01*
X2759977Y-2660855D02*
X2769501Y-2641808D01*
X2769501Y-2641808D02*
X2788549Y-2613236D01*
X2788549Y-2613236D02*
X2798072Y-2603712D01*
X2874263Y-2698950D02*
X2874263Y-2832284D01*
X2874263Y-2717998D02*
X2883787Y-2708474D01*
X2883787Y-2708474D02*
X2902834Y-2698950D01*
X2902834Y-2698950D02*
X2931406Y-2698950D01*
X2931406Y-2698950D02*
X2950453Y-2708474D01*
X2950453Y-2708474D02*
X2959977Y-2727522D01*
X2959977Y-2727522D02*
X2959977Y-2832284D01*
X3083787Y-2832284D02*
X3064739Y-2822760D01*
X3064739Y-2822760D02*
X3055215Y-2813236D01*
X3055215Y-2813236D02*
X3045691Y-2794189D01*
X3045691Y-2794189D02*
X3045691Y-2737046D01*
X3045691Y-2737046D02*
X3055215Y-2717998D01*
X3055215Y-2717998D02*
X3064739Y-2708474D01*
X3064739Y-2708474D02*
X3083787Y-2698950D01*
X3083787Y-2698950D02*
X3112358Y-2698950D01*
X3112358Y-2698950D02*
X3131406Y-2708474D01*
X3131406Y-2708474D02*
X3140930Y-2717998D01*
X3140930Y-2717998D02*
X3150453Y-2737046D01*
X3150453Y-2737046D02*
X3150453Y-2794189D01*
X3150453Y-2794189D02*
X3140930Y-2813236D01*
X3140930Y-2813236D02*
X3131406Y-2822760D01*
X3131406Y-2822760D02*
X3112358Y-2832284D01*
X3112358Y-2832284D02*
X3083787Y-2832284D01*
X3207596Y-2698950D02*
X3283787Y-2698950D01*
X3236168Y-2632284D02*
X3236168Y-2803712D01*
X3236168Y-2803712D02*
X3245691Y-2822760D01*
X3245691Y-2822760D02*
X3264739Y-2832284D01*
X3264739Y-2832284D02*
X3283787Y-2832284D01*
X3502834Y-2698950D02*
X3502834Y-2898950D01*
X3502834Y-2708474D02*
X3521882Y-2698950D01*
X3521882Y-2698950D02*
X3559977Y-2698950D01*
X3559977Y-2698950D02*
X3579025Y-2708474D01*
X3579025Y-2708474D02*
X3588549Y-2717998D01*
X3588549Y-2717998D02*
X3598072Y-2737046D01*
X3598072Y-2737046D02*
X3598072Y-2794189D01*
X3598072Y-2794189D02*
X3588549Y-2813236D01*
X3588549Y-2813236D02*
X3579025Y-2822760D01*
X3579025Y-2822760D02*
X3559977Y-2832284D01*
X3559977Y-2832284D02*
X3521882Y-2832284D01*
X3521882Y-2832284D02*
X3502834Y-2822760D01*
X3712358Y-2832284D02*
X3693311Y-2822760D01*
X3693311Y-2822760D02*
X3683787Y-2803712D01*
X3683787Y-2803712D02*
X3683787Y-2632284D01*
X3874263Y-2832284D02*
X3874263Y-2727522D01*
X3874263Y-2727522D02*
X3864739Y-2708474D01*
X3864739Y-2708474D02*
X3845692Y-2698950D01*
X3845692Y-2698950D02*
X3807596Y-2698950D01*
X3807596Y-2698950D02*
X3788549Y-2708474D01*
X3874263Y-2822760D02*
X3855215Y-2832284D01*
X3855215Y-2832284D02*
X3807596Y-2832284D01*
X3807596Y-2832284D02*
X3788549Y-2822760D01*
X3788549Y-2822760D02*
X3779025Y-2803712D01*
X3779025Y-2803712D02*
X3779025Y-2784665D01*
X3779025Y-2784665D02*
X3788549Y-2765617D01*
X3788549Y-2765617D02*
X3807596Y-2756093D01*
X3807596Y-2756093D02*
X3855215Y-2756093D01*
X3855215Y-2756093D02*
X3874263Y-2746570D01*
X3940930Y-2698950D02*
X4017120Y-2698950D01*
X3969501Y-2632284D02*
X3969501Y-2803712D01*
X3969501Y-2803712D02*
X3979025Y-2822760D01*
X3979025Y-2822760D02*
X3998072Y-2832284D01*
X3998072Y-2832284D02*
X4017120Y-2832284D01*
X4159977Y-2822760D02*
X4140930Y-2832284D01*
X4140930Y-2832284D02*
X4102834Y-2832284D01*
X4102834Y-2832284D02*
X4083787Y-2822760D01*
X4083787Y-2822760D02*
X4074263Y-2803712D01*
X4074263Y-2803712D02*
X4074263Y-2727522D01*
X4074263Y-2727522D02*
X4083787Y-2708474D01*
X4083787Y-2708474D02*
X4102834Y-2698950D01*
X4102834Y-2698950D02*
X4140930Y-2698950D01*
X4140930Y-2698950D02*
X4159977Y-2708474D01*
X4159977Y-2708474D02*
X4169501Y-2727522D01*
X4169501Y-2727522D02*
X4169501Y-2746570D01*
X4169501Y-2746570D02*
X4074263Y-2765617D01*
X4340930Y-2832284D02*
X4340930Y-2632284D01*
X4340930Y-2822760D02*
X4321882Y-2832284D01*
X4321882Y-2832284D02*
X4283787Y-2832284D01*
X4283787Y-2832284D02*
X4264739Y-2822760D01*
X4264739Y-2822760D02*
X4255215Y-2813236D01*
X4255215Y-2813236D02*
X4245692Y-2794189D01*
X4245692Y-2794189D02*
X4245692Y-2737046D01*
X4245692Y-2737046D02*
X4255215Y-2717998D01*
X4255215Y-2717998D02*
X4264739Y-2708474D01*
X4264739Y-2708474D02*
X4283787Y-2698950D01*
X4283787Y-2698950D02*
X4321882Y-2698950D01*
X4321882Y-2698950D02*
X4340930Y-2708474D01*
X4417120Y-2908474D02*
X4426644Y-2898950D01*
X4426644Y-2898950D02*
X4445692Y-2870379D01*
X4445692Y-2870379D02*
X4455215Y-2851331D01*
X4455215Y-2851331D02*
X4464739Y-2822760D01*
X4464739Y-2822760D02*
X4474263Y-2775141D01*
X4474263Y-2775141D02*
X4474263Y-2737046D01*
X4474263Y-2737046D02*
X4464739Y-2689427D01*
X4464739Y-2689427D02*
X4455215Y-2660855D01*
X4455215Y-2660855D02*
X4445692Y-2641808D01*
X4445692Y-2641808D02*
X4426644Y-2613236D01*
X4426644Y-2613236D02*
X4417120Y-2603712D01*
D11*
X-2100800Y-3004800D02*
G75*
G03*
X-2100800Y-3004800I-33000J0D01*
G01*
D10*
X-1801928Y-2896284D02*
X-1782880Y-2896284D01*
X-1782880Y-2896284D02*
X-1763833Y-2905808D01*
X-1763833Y-2905808D02*
X-1754309Y-2915331D01*
X-1754309Y-2915331D02*
X-1744785Y-2934379D01*
X-1744785Y-2934379D02*
X-1735261Y-2972474D01*
X-1735261Y-2972474D02*
X-1735261Y-3020093D01*
X-1735261Y-3020093D02*
X-1744785Y-3058188D01*
X-1744785Y-3058188D02*
X-1754309Y-3077236D01*
X-1754309Y-3077236D02*
X-1763833Y-3086760D01*
X-1763833Y-3086760D02*
X-1782880Y-3096284D01*
X-1782880Y-3096284D02*
X-1801928Y-3096284D01*
X-1801928Y-3096284D02*
X-1820976Y-3086760D01*
X-1820976Y-3086760D02*
X-1830499Y-3077236D01*
X-1830499Y-3077236D02*
X-1840023Y-3058188D01*
X-1840023Y-3058188D02*
X-1849547Y-3020093D01*
X-1849547Y-3020093D02*
X-1849547Y-2972474D01*
X-1849547Y-2972474D02*
X-1840023Y-2934379D01*
X-1840023Y-2934379D02*
X-1830499Y-2915331D01*
X-1830499Y-2915331D02*
X-1820976Y-2905808D01*
X-1820976Y-2905808D02*
X-1801928Y-2896284D01*
X-1649547Y-3077236D02*
X-1640023Y-3086760D01*
X-1640023Y-3086760D02*
X-1649547Y-3096284D01*
X-1649547Y-3096284D02*
X-1659071Y-3086760D01*
X-1659071Y-3086760D02*
X-1649547Y-3077236D01*
X-1649547Y-3077236D02*
X-1649547Y-3096284D01*
X-1468595Y-2896284D02*
X-1506690Y-2896284D01*
X-1506690Y-2896284D02*
X-1525737Y-2905808D01*
X-1525737Y-2905808D02*
X-1535261Y-2915331D01*
X-1535261Y-2915331D02*
X-1554309Y-2943903D01*
X-1554309Y-2943903D02*
X-1563833Y-2981998D01*
X-1563833Y-2981998D02*
X-1563833Y-3058188D01*
X-1563833Y-3058188D02*
X-1554309Y-3077236D01*
X-1554309Y-3077236D02*
X-1544785Y-3086760D01*
X-1544785Y-3086760D02*
X-1525737Y-3096284D01*
X-1525737Y-3096284D02*
X-1487642Y-3096284D01*
X-1487642Y-3096284D02*
X-1468595Y-3086760D01*
X-1468595Y-3086760D02*
X-1459071Y-3077236D01*
X-1459071Y-3077236D02*
X-1449547Y-3058188D01*
X-1449547Y-3058188D02*
X-1449547Y-3010569D01*
X-1449547Y-3010569D02*
X-1459071Y-2991522D01*
X-1459071Y-2991522D02*
X-1468595Y-2981998D01*
X-1468595Y-2981998D02*
X-1487642Y-2972474D01*
X-1487642Y-2972474D02*
X-1525737Y-2972474D01*
X-1525737Y-2972474D02*
X-1544785Y-2981998D01*
X-1544785Y-2981998D02*
X-1554309Y-2991522D01*
X-1554309Y-2991522D02*
X-1563833Y-3010569D01*
X-1278118Y-2896284D02*
X-1316214Y-2896284D01*
X-1316214Y-2896284D02*
X-1335261Y-2905808D01*
X-1335261Y-2905808D02*
X-1344785Y-2915331D01*
X-1344785Y-2915331D02*
X-1363833Y-2943903D01*
X-1363833Y-2943903D02*
X-1373357Y-2981998D01*
X-1373357Y-2981998D02*
X-1373357Y-3058188D01*
X-1373357Y-3058188D02*
X-1363833Y-3077236D01*
X-1363833Y-3077236D02*
X-1354309Y-3086760D01*
X-1354309Y-3086760D02*
X-1335261Y-3096284D01*
X-1335261Y-3096284D02*
X-1297166Y-3096284D01*
X-1297166Y-3096284D02*
X-1278118Y-3086760D01*
X-1278118Y-3086760D02*
X-1268595Y-3077236D01*
X-1268595Y-3077236D02*
X-1259071Y-3058188D01*
X-1259071Y-3058188D02*
X-1259071Y-3010569D01*
X-1259071Y-3010569D02*
X-1268595Y-2991522D01*
X-1268595Y-2991522D02*
X-1278118Y-2981998D01*
X-1278118Y-2981998D02*
X-1297166Y-2972474D01*
X-1297166Y-2972474D02*
X-1335261Y-2972474D01*
X-1335261Y-2972474D02*
X-1354309Y-2981998D01*
X-1354309Y-2981998D02*
X-1363833Y-2991522D01*
X-1363833Y-2991522D02*
X-1373357Y-3010569D01*
X-1135261Y-2896284D02*
X-1116214Y-2896284D01*
X-1116214Y-2896284D02*
X-1097166Y-2905808D01*
X-1097166Y-2905808D02*
X-1087642Y-2915331D01*
X-1087642Y-2915331D02*
X-1078118Y-2934379D01*
X-1078118Y-2934379D02*
X-1068595Y-2972474D01*
X-1068595Y-2972474D02*
X-1068595Y-3020093D01*
X-1068595Y-3020093D02*
X-1078118Y-3058188D01*
X-1078118Y-3058188D02*
X-1087642Y-3077236D01*
X-1087642Y-3077236D02*
X-1097166Y-3086760D01*
X-1097166Y-3086760D02*
X-1116214Y-3096284D01*
X-1116214Y-3096284D02*
X-1135261Y-3096284D01*
X-1135261Y-3096284D02*
X-1154309Y-3086760D01*
X-1154309Y-3086760D02*
X-1163833Y-3077236D01*
X-1163833Y-3077236D02*
X-1173357Y-3058188D01*
X-1173357Y-3058188D02*
X-1182880Y-3020093D01*
X-1182880Y-3020093D02*
X-1182880Y-2972474D01*
X-1182880Y-2972474D02*
X-1173357Y-2934379D01*
X-1173357Y-2934379D02*
X-1163833Y-2915331D01*
X-1163833Y-2915331D02*
X-1154309Y-2905808D01*
X-1154309Y-2905808D02*
X-1135261Y-2896284D01*
X-982880Y-3096284D02*
X-982880Y-2962950D01*
X-982880Y-2981998D02*
X-973356Y-2972474D01*
X-973356Y-2972474D02*
X-954309Y-2962950D01*
X-954309Y-2962950D02*
X-925737Y-2962950D01*
X-925737Y-2962950D02*
X-906690Y-2972474D01*
X-906690Y-2972474D02*
X-897166Y-2991522D01*
X-897166Y-2991522D02*
X-897166Y-3096284D01*
X-897166Y-2991522D02*
X-887642Y-2972474D01*
X-887642Y-2972474D02*
X-868595Y-2962950D01*
X-868595Y-2962950D02*
X-840023Y-2962950D01*
X-840023Y-2962950D02*
X-820975Y-2972474D01*
X-820975Y-2972474D02*
X-811452Y-2991522D01*
X-811452Y-2991522D02*
X-811452Y-3096284D01*
X-716214Y-3096284D02*
X-716214Y-2962950D01*
X-716214Y-2981998D02*
X-706690Y-2972474D01*
X-706690Y-2972474D02*
X-687642Y-2962950D01*
X-687642Y-2962950D02*
X-659071Y-2962950D01*
X-659071Y-2962950D02*
X-640023Y-2972474D01*
X-640023Y-2972474D02*
X-630499Y-2991522D01*
X-630499Y-2991522D02*
X-630499Y-3096284D01*
X-630499Y-2991522D02*
X-620976Y-2972474D01*
X-620976Y-2972474D02*
X-601928Y-2962950D01*
X-601928Y-2962950D02*
X-573357Y-2962950D01*
X-573357Y-2962950D02*
X-554309Y-2972474D01*
X-554309Y-2972474D02*
X-544785Y-2991522D01*
X-544785Y-2991522D02*
X-544785Y-3096284D01*
X-154309Y-2886760D02*
X-325737Y-3143903D01*
X102834Y-2896284D02*
X121882Y-2896284D01*
X121882Y-2896284D02*
X140929Y-2905808D01*
X140929Y-2905808D02*
X150453Y-2915331D01*
X150453Y-2915331D02*
X159977Y-2934379D01*
X159977Y-2934379D02*
X169501Y-2972474D01*
X169501Y-2972474D02*
X169501Y-3020093D01*
X169501Y-3020093D02*
X159977Y-3058188D01*
X159977Y-3058188D02*
X150453Y-3077236D01*
X150453Y-3077236D02*
X140929Y-3086760D01*
X140929Y-3086760D02*
X121882Y-3096284D01*
X121882Y-3096284D02*
X102834Y-3096284D01*
X102834Y-3096284D02*
X83787Y-3086760D01*
X83787Y-3086760D02*
X74263Y-3077236D01*
X74263Y-3077236D02*
X64739Y-3058188D01*
X64739Y-3058188D02*
X55215Y-3020093D01*
X55215Y-3020093D02*
X55215Y-2972474D01*
X55215Y-2972474D02*
X64739Y-2934379D01*
X64739Y-2934379D02*
X74263Y-2915331D01*
X74263Y-2915331D02*
X83787Y-2905808D01*
X83787Y-2905808D02*
X102834Y-2896284D01*
X255215Y-3077236D02*
X264739Y-3086760D01*
X264739Y-3086760D02*
X255215Y-3096284D01*
X255215Y-3096284D02*
X245691Y-3086760D01*
X245691Y-3086760D02*
X255215Y-3077236D01*
X255215Y-3077236D02*
X255215Y-3096284D01*
X388548Y-2896284D02*
X407596Y-2896284D01*
X407596Y-2896284D02*
X426644Y-2905808D01*
X426644Y-2905808D02*
X436167Y-2915331D01*
X436167Y-2915331D02*
X445691Y-2934379D01*
X445691Y-2934379D02*
X455215Y-2972474D01*
X455215Y-2972474D02*
X455215Y-3020093D01*
X455215Y-3020093D02*
X445691Y-3058188D01*
X445691Y-3058188D02*
X436167Y-3077236D01*
X436167Y-3077236D02*
X426644Y-3086760D01*
X426644Y-3086760D02*
X407596Y-3096284D01*
X407596Y-3096284D02*
X388548Y-3096284D01*
X388548Y-3096284D02*
X369501Y-3086760D01*
X369501Y-3086760D02*
X359977Y-3077236D01*
X359977Y-3077236D02*
X350453Y-3058188D01*
X350453Y-3058188D02*
X340929Y-3020093D01*
X340929Y-3020093D02*
X340929Y-2972474D01*
X340929Y-2972474D02*
X350453Y-2934379D01*
X350453Y-2934379D02*
X359977Y-2915331D01*
X359977Y-2915331D02*
X369501Y-2905808D01*
X369501Y-2905808D02*
X388548Y-2896284D01*
X531406Y-2915331D02*
X540929Y-2905808D01*
X540929Y-2905808D02*
X559977Y-2896284D01*
X559977Y-2896284D02*
X607596Y-2896284D01*
X607596Y-2896284D02*
X626644Y-2905808D01*
X626644Y-2905808D02*
X636168Y-2915331D01*
X636168Y-2915331D02*
X645691Y-2934379D01*
X645691Y-2934379D02*
X645691Y-2953427D01*
X645691Y-2953427D02*
X636168Y-2981998D01*
X636168Y-2981998D02*
X521882Y-3096284D01*
X521882Y-3096284D02*
X645691Y-3096284D01*
X817120Y-2896284D02*
X779025Y-2896284D01*
X779025Y-2896284D02*
X759977Y-2905808D01*
X759977Y-2905808D02*
X750453Y-2915331D01*
X750453Y-2915331D02*
X731406Y-2943903D01*
X731406Y-2943903D02*
X721882Y-2981998D01*
X721882Y-2981998D02*
X721882Y-3058188D01*
X721882Y-3058188D02*
X731406Y-3077236D01*
X731406Y-3077236D02*
X740929Y-3086760D01*
X740929Y-3086760D02*
X759977Y-3096284D01*
X759977Y-3096284D02*
X798072Y-3096284D01*
X798072Y-3096284D02*
X817120Y-3086760D01*
X817120Y-3086760D02*
X826644Y-3077236D01*
X826644Y-3077236D02*
X836167Y-3058188D01*
X836167Y-3058188D02*
X836167Y-3010569D01*
X836167Y-3010569D02*
X826644Y-2991522D01*
X826644Y-2991522D02*
X817120Y-2981998D01*
X817120Y-2981998D02*
X798072Y-2972474D01*
X798072Y-2972474D02*
X759977Y-2972474D01*
X759977Y-2972474D02*
X740929Y-2981998D01*
X740929Y-2981998D02*
X731406Y-2991522D01*
X731406Y-2991522D02*
X721882Y-3010569D01*
X959977Y-2896284D02*
X979025Y-2896284D01*
X979025Y-2896284D02*
X998072Y-2905808D01*
X998072Y-2905808D02*
X1007596Y-2915331D01*
X1007596Y-2915331D02*
X1017120Y-2934379D01*
X1017120Y-2934379D02*
X1026644Y-2972474D01*
X1026644Y-2972474D02*
X1026644Y-3020093D01*
X1026644Y-3020093D02*
X1017120Y-3058188D01*
X1017120Y-3058188D02*
X1007596Y-3077236D01*
X1007596Y-3077236D02*
X998072Y-3086760D01*
X998072Y-3086760D02*
X979025Y-3096284D01*
X979025Y-3096284D02*
X959977Y-3096284D01*
X959977Y-3096284D02*
X940929Y-3086760D01*
X940929Y-3086760D02*
X931406Y-3077236D01*
X931406Y-3077236D02*
X921882Y-3058188D01*
X921882Y-3058188D02*
X912358Y-3020093D01*
X912358Y-3020093D02*
X912358Y-2972474D01*
X912358Y-2972474D02*
X921882Y-2934379D01*
X921882Y-2934379D02*
X931406Y-2915331D01*
X931406Y-2915331D02*
X940929Y-2905808D01*
X940929Y-2905808D02*
X959977Y-2896284D01*
X1102834Y-2896284D02*
X1102834Y-2934379D01*
X1179025Y-2896284D02*
X1179025Y-2934379D01*
X1474263Y-3172474D02*
X1464739Y-3162950D01*
X1464739Y-3162950D02*
X1445691Y-3134379D01*
X1445691Y-3134379D02*
X1436168Y-3115331D01*
X1436168Y-3115331D02*
X1426644Y-3086760D01*
X1426644Y-3086760D02*
X1417120Y-3039141D01*
X1417120Y-3039141D02*
X1417120Y-3001046D01*
X1417120Y-3001046D02*
X1426644Y-2953427D01*
X1426644Y-2953427D02*
X1436168Y-2924855D01*
X1436168Y-2924855D02*
X1445691Y-2905808D01*
X1445691Y-2905808D02*
X1464739Y-2877236D01*
X1464739Y-2877236D02*
X1474263Y-2867712D01*
X1655215Y-3096284D02*
X1540929Y-3096284D01*
X1598072Y-3096284D02*
X1598072Y-2896284D01*
X1598072Y-2896284D02*
X1579025Y-2924855D01*
X1579025Y-2924855D02*
X1559977Y-2943903D01*
X1559977Y-2943903D02*
X1540929Y-2953427D01*
X1893310Y-3096284D02*
X1893310Y-2896284D01*
X1979025Y-3096284D02*
X1979025Y-2991522D01*
X1979025Y-2991522D02*
X1969501Y-2972474D01*
X1969501Y-2972474D02*
X1950453Y-2962950D01*
X1950453Y-2962950D02*
X1921882Y-2962950D01*
X1921882Y-2962950D02*
X1902834Y-2972474D01*
X1902834Y-2972474D02*
X1893310Y-2981998D01*
X2102834Y-3096284D02*
X2083787Y-3086760D01*
X2083787Y-3086760D02*
X2074263Y-3077236D01*
X2074263Y-3077236D02*
X2064739Y-3058188D01*
X2064739Y-3058188D02*
X2064739Y-3001046D01*
X2064739Y-3001046D02*
X2074263Y-2981998D01*
X2074263Y-2981998D02*
X2083787Y-2972474D01*
X2083787Y-2972474D02*
X2102834Y-2962950D01*
X2102834Y-2962950D02*
X2131406Y-2962950D01*
X2131406Y-2962950D02*
X2150453Y-2972474D01*
X2150453Y-2972474D02*
X2159977Y-2981998D01*
X2159977Y-2981998D02*
X2169501Y-3001046D01*
X2169501Y-3001046D02*
X2169501Y-3058188D01*
X2169501Y-3058188D02*
X2159977Y-3077236D01*
X2159977Y-3077236D02*
X2150453Y-3086760D01*
X2150453Y-3086760D02*
X2131406Y-3096284D01*
X2131406Y-3096284D02*
X2102834Y-3096284D01*
X2283787Y-3096284D02*
X2264739Y-3086760D01*
X2264739Y-3086760D02*
X2255215Y-3067712D01*
X2255215Y-3067712D02*
X2255215Y-2896284D01*
X2436168Y-3086760D02*
X2417120Y-3096284D01*
X2417120Y-3096284D02*
X2379025Y-3096284D01*
X2379025Y-3096284D02*
X2359977Y-3086760D01*
X2359977Y-3086760D02*
X2350453Y-3067712D01*
X2350453Y-3067712D02*
X2350453Y-2991522D01*
X2350453Y-2991522D02*
X2359977Y-2972474D01*
X2359977Y-2972474D02*
X2379025Y-2962950D01*
X2379025Y-2962950D02*
X2417120Y-2962950D01*
X2417120Y-2962950D02*
X2436168Y-2972474D01*
X2436168Y-2972474D02*
X2445692Y-2991522D01*
X2445692Y-2991522D02*
X2445692Y-3010569D01*
X2445692Y-3010569D02*
X2350453Y-3029617D01*
X2512358Y-3172474D02*
X2521882Y-3162950D01*
X2521882Y-3162950D02*
X2540930Y-3134379D01*
X2540930Y-3134379D02*
X2550453Y-3115331D01*
X2550453Y-3115331D02*
X2559977Y-3086760D01*
X2559977Y-3086760D02*
X2569501Y-3039141D01*
X2569501Y-3039141D02*
X2569501Y-3001046D01*
X2569501Y-3001046D02*
X2559977Y-2953427D01*
X2559977Y-2953427D02*
X2550453Y-2924855D01*
X2550453Y-2924855D02*
X2540930Y-2905808D01*
X2540930Y-2905808D02*
X2521882Y-2877236D01*
X2521882Y-2877236D02*
X2512358Y-2867712D01*
X2874263Y-3172474D02*
X2864739Y-3162950D01*
X2864739Y-3162950D02*
X2845691Y-3134379D01*
X2845691Y-3134379D02*
X2836168Y-3115331D01*
X2836168Y-3115331D02*
X2826644Y-3086760D01*
X2826644Y-3086760D02*
X2817120Y-3039141D01*
X2817120Y-3039141D02*
X2817120Y-3001046D01*
X2817120Y-3001046D02*
X2826644Y-2953427D01*
X2826644Y-2953427D02*
X2836168Y-2924855D01*
X2836168Y-2924855D02*
X2845691Y-2905808D01*
X2845691Y-2905808D02*
X2864739Y-2877236D01*
X2864739Y-2877236D02*
X2874263Y-2867712D01*
X2950453Y-2962950D02*
X2950453Y-3096284D01*
X2950453Y-2981998D02*
X2959977Y-2972474D01*
X2959977Y-2972474D02*
X2979025Y-2962950D01*
X2979025Y-2962950D02*
X3007596Y-2962950D01*
X3007596Y-2962950D02*
X3026644Y-2972474D01*
X3026644Y-2972474D02*
X3036168Y-2991522D01*
X3036168Y-2991522D02*
X3036168Y-3096284D01*
X3159977Y-3096284D02*
X3140930Y-3086760D01*
X3140930Y-3086760D02*
X3131406Y-3077236D01*
X3131406Y-3077236D02*
X3121882Y-3058188D01*
X3121882Y-3058188D02*
X3121882Y-3001046D01*
X3121882Y-3001046D02*
X3131406Y-2981998D01*
X3131406Y-2981998D02*
X3140930Y-2972474D01*
X3140930Y-2972474D02*
X3159977Y-2962950D01*
X3159977Y-2962950D02*
X3188549Y-2962950D01*
X3188549Y-2962950D02*
X3207596Y-2972474D01*
X3207596Y-2972474D02*
X3217120Y-2981998D01*
X3217120Y-2981998D02*
X3226644Y-3001046D01*
X3226644Y-3001046D02*
X3226644Y-3058188D01*
X3226644Y-3058188D02*
X3217120Y-3077236D01*
X3217120Y-3077236D02*
X3207596Y-3086760D01*
X3207596Y-3086760D02*
X3188549Y-3096284D01*
X3188549Y-3096284D02*
X3159977Y-3096284D01*
X3283787Y-2962950D02*
X3359977Y-2962950D01*
X3312358Y-2896284D02*
X3312358Y-3067712D01*
X3312358Y-3067712D02*
X3321882Y-3086760D01*
X3321882Y-3086760D02*
X3340930Y-3096284D01*
X3340930Y-3096284D02*
X3359977Y-3096284D01*
X3579025Y-2962950D02*
X3579025Y-3162950D01*
X3579025Y-2972474D02*
X3598072Y-2962950D01*
X3598072Y-2962950D02*
X3636168Y-2962950D01*
X3636168Y-2962950D02*
X3655215Y-2972474D01*
X3655215Y-2972474D02*
X3664739Y-2981998D01*
X3664739Y-2981998D02*
X3674263Y-3001046D01*
X3674263Y-3001046D02*
X3674263Y-3058188D01*
X3674263Y-3058188D02*
X3664739Y-3077236D01*
X3664739Y-3077236D02*
X3655215Y-3086760D01*
X3655215Y-3086760D02*
X3636168Y-3096284D01*
X3636168Y-3096284D02*
X3598072Y-3096284D01*
X3598072Y-3096284D02*
X3579025Y-3086760D01*
X3788549Y-3096284D02*
X3769501Y-3086760D01*
X3769501Y-3086760D02*
X3759977Y-3067712D01*
X3759977Y-3067712D02*
X3759977Y-2896284D01*
X3950453Y-3096284D02*
X3950453Y-2991522D01*
X3950453Y-2991522D02*
X3940930Y-2972474D01*
X3940930Y-2972474D02*
X3921882Y-2962950D01*
X3921882Y-2962950D02*
X3883787Y-2962950D01*
X3883787Y-2962950D02*
X3864739Y-2972474D01*
X3950453Y-3086760D02*
X3931406Y-3096284D01*
X3931406Y-3096284D02*
X3883787Y-3096284D01*
X3883787Y-3096284D02*
X3864739Y-3086760D01*
X3864739Y-3086760D02*
X3855215Y-3067712D01*
X3855215Y-3067712D02*
X3855215Y-3048665D01*
X3855215Y-3048665D02*
X3864739Y-3029617D01*
X3864739Y-3029617D02*
X3883787Y-3020093D01*
X3883787Y-3020093D02*
X3931406Y-3020093D01*
X3931406Y-3020093D02*
X3950453Y-3010569D01*
X4017120Y-2962950D02*
X4093311Y-2962950D01*
X4045692Y-2896284D02*
X4045692Y-3067712D01*
X4045692Y-3067712D02*
X4055215Y-3086760D01*
X4055215Y-3086760D02*
X4074263Y-3096284D01*
X4074263Y-3096284D02*
X4093311Y-3096284D01*
X4236168Y-3086760D02*
X4217120Y-3096284D01*
X4217120Y-3096284D02*
X4179025Y-3096284D01*
X4179025Y-3096284D02*
X4159977Y-3086760D01*
X4159977Y-3086760D02*
X4150453Y-3067712D01*
X4150453Y-3067712D02*
X4150453Y-2991522D01*
X4150453Y-2991522D02*
X4159977Y-2972474D01*
X4159977Y-2972474D02*
X4179025Y-2962950D01*
X4179025Y-2962950D02*
X4217120Y-2962950D01*
X4217120Y-2962950D02*
X4236168Y-2972474D01*
X4236168Y-2972474D02*
X4245692Y-2991522D01*
X4245692Y-2991522D02*
X4245692Y-3010569D01*
X4245692Y-3010569D02*
X4150453Y-3029617D01*
X4417120Y-3096284D02*
X4417120Y-2896284D01*
X4417120Y-3086760D02*
X4398073Y-3096284D01*
X4398073Y-3096284D02*
X4359977Y-3096284D01*
X4359977Y-3096284D02*
X4340930Y-3086760D01*
X4340930Y-3086760D02*
X4331406Y-3077236D01*
X4331406Y-3077236D02*
X4321882Y-3058188D01*
X4321882Y-3058188D02*
X4321882Y-3001046D01*
X4321882Y-3001046D02*
X4331406Y-2981998D01*
X4331406Y-2981998D02*
X4340930Y-2972474D01*
X4340930Y-2972474D02*
X4359977Y-2962950D01*
X4359977Y-2962950D02*
X4398073Y-2962950D01*
X4398073Y-2962950D02*
X4417120Y-2972474D01*
X4493311Y-3172474D02*
X4502835Y-3162950D01*
X4502835Y-3162950D02*
X4521882Y-3134379D01*
X4521882Y-3134379D02*
X4531406Y-3115331D01*
X4531406Y-3115331D02*
X4540930Y-3086760D01*
X4540930Y-3086760D02*
X4550454Y-3039141D01*
X4550454Y-3039141D02*
X4550454Y-3001046D01*
X4550454Y-3001046D02*
X4540930Y-2953427D01*
X4540930Y-2953427D02*
X4531406Y-2924855D01*
X4531406Y-2924855D02*
X4521882Y-2905808D01*
X4521882Y-2905808D02*
X4502835Y-2877236D01*
X4502835Y-2877236D02*
X4493311Y-2867712D01*
D11*
X-2150330Y-3219270D02*
X-2150330Y-3318330D01*
X-2199860Y-3268800D02*
X-2100800Y-3268800D01*
D10*
X-1801928Y-3160284D02*
X-1782880Y-3160284D01*
X-1782880Y-3160284D02*
X-1763833Y-3169808D01*
X-1763833Y-3169808D02*
X-1754309Y-3179331D01*
X-1754309Y-3179331D02*
X-1744785Y-3198379D01*
X-1744785Y-3198379D02*
X-1735261Y-3236474D01*
X-1735261Y-3236474D02*
X-1735261Y-3284093D01*
X-1735261Y-3284093D02*
X-1744785Y-3322188D01*
X-1744785Y-3322188D02*
X-1754309Y-3341236D01*
X-1754309Y-3341236D02*
X-1763833Y-3350760D01*
X-1763833Y-3350760D02*
X-1782880Y-3360284D01*
X-1782880Y-3360284D02*
X-1801928Y-3360284D01*
X-1801928Y-3360284D02*
X-1820976Y-3350760D01*
X-1820976Y-3350760D02*
X-1830499Y-3341236D01*
X-1830499Y-3341236D02*
X-1840023Y-3322188D01*
X-1840023Y-3322188D02*
X-1849547Y-3284093D01*
X-1849547Y-3284093D02*
X-1849547Y-3236474D01*
X-1849547Y-3236474D02*
X-1840023Y-3198379D01*
X-1840023Y-3198379D02*
X-1830499Y-3179331D01*
X-1830499Y-3179331D02*
X-1820976Y-3169808D01*
X-1820976Y-3169808D02*
X-1801928Y-3160284D01*
X-1649547Y-3341236D02*
X-1640023Y-3350760D01*
X-1640023Y-3350760D02*
X-1649547Y-3360284D01*
X-1649547Y-3360284D02*
X-1659071Y-3350760D01*
X-1659071Y-3350760D02*
X-1649547Y-3341236D01*
X-1649547Y-3341236D02*
X-1649547Y-3360284D01*
X-1544785Y-3360284D02*
X-1506690Y-3360284D01*
X-1506690Y-3360284D02*
X-1487642Y-3350760D01*
X-1487642Y-3350760D02*
X-1478118Y-3341236D01*
X-1478118Y-3341236D02*
X-1459071Y-3312665D01*
X-1459071Y-3312665D02*
X-1449547Y-3274569D01*
X-1449547Y-3274569D02*
X-1449547Y-3198379D01*
X-1449547Y-3198379D02*
X-1459071Y-3179331D01*
X-1459071Y-3179331D02*
X-1468595Y-3169808D01*
X-1468595Y-3169808D02*
X-1487642Y-3160284D01*
X-1487642Y-3160284D02*
X-1525737Y-3160284D01*
X-1525737Y-3160284D02*
X-1544785Y-3169808D01*
X-1544785Y-3169808D02*
X-1554309Y-3179331D01*
X-1554309Y-3179331D02*
X-1563833Y-3198379D01*
X-1563833Y-3198379D02*
X-1563833Y-3245998D01*
X-1563833Y-3245998D02*
X-1554309Y-3265046D01*
X-1554309Y-3265046D02*
X-1544785Y-3274569D01*
X-1544785Y-3274569D02*
X-1525737Y-3284093D01*
X-1525737Y-3284093D02*
X-1487642Y-3284093D01*
X-1487642Y-3284093D02*
X-1468595Y-3274569D01*
X-1468595Y-3274569D02*
X-1459071Y-3265046D01*
X-1459071Y-3265046D02*
X-1449547Y-3245998D01*
X-1354309Y-3360284D02*
X-1316214Y-3360284D01*
X-1316214Y-3360284D02*
X-1297166Y-3350760D01*
X-1297166Y-3350760D02*
X-1287642Y-3341236D01*
X-1287642Y-3341236D02*
X-1268595Y-3312665D01*
X-1268595Y-3312665D02*
X-1259071Y-3274569D01*
X-1259071Y-3274569D02*
X-1259071Y-3198379D01*
X-1259071Y-3198379D02*
X-1268595Y-3179331D01*
X-1268595Y-3179331D02*
X-1278118Y-3169808D01*
X-1278118Y-3169808D02*
X-1297166Y-3160284D01*
X-1297166Y-3160284D02*
X-1335261Y-3160284D01*
X-1335261Y-3160284D02*
X-1354309Y-3169808D01*
X-1354309Y-3169808D02*
X-1363833Y-3179331D01*
X-1363833Y-3179331D02*
X-1373357Y-3198379D01*
X-1373357Y-3198379D02*
X-1373357Y-3245998D01*
X-1373357Y-3245998D02*
X-1363833Y-3265046D01*
X-1363833Y-3265046D02*
X-1354309Y-3274569D01*
X-1354309Y-3274569D02*
X-1335261Y-3284093D01*
X-1335261Y-3284093D02*
X-1297166Y-3284093D01*
X-1297166Y-3284093D02*
X-1278118Y-3274569D01*
X-1278118Y-3274569D02*
X-1268595Y-3265046D01*
X-1268595Y-3265046D02*
X-1259071Y-3245998D01*
X-1068595Y-3360284D02*
X-1182880Y-3360284D01*
X-1125738Y-3360284D02*
X-1125738Y-3160284D01*
X-1125738Y-3160284D02*
X-1144785Y-3188855D01*
X-1144785Y-3188855D02*
X-1163833Y-3207903D01*
X-1163833Y-3207903D02*
X-1182880Y-3217427D01*
X-982880Y-3360284D02*
X-982880Y-3226950D01*
X-982880Y-3245998D02*
X-973356Y-3236474D01*
X-973356Y-3236474D02*
X-954309Y-3226950D01*
X-954309Y-3226950D02*
X-925737Y-3226950D01*
X-925737Y-3226950D02*
X-906690Y-3236474D01*
X-906690Y-3236474D02*
X-897166Y-3255522D01*
X-897166Y-3255522D02*
X-897166Y-3360284D01*
X-897166Y-3255522D02*
X-887642Y-3236474D01*
X-887642Y-3236474D02*
X-868595Y-3226950D01*
X-868595Y-3226950D02*
X-840023Y-3226950D01*
X-840023Y-3226950D02*
X-820975Y-3236474D01*
X-820975Y-3236474D02*
X-811452Y-3255522D01*
X-811452Y-3255522D02*
X-811452Y-3360284D01*
X-716214Y-3360284D02*
X-716214Y-3226950D01*
X-716214Y-3245998D02*
X-706690Y-3236474D01*
X-706690Y-3236474D02*
X-687642Y-3226950D01*
X-687642Y-3226950D02*
X-659071Y-3226950D01*
X-659071Y-3226950D02*
X-640023Y-3236474D01*
X-640023Y-3236474D02*
X-630499Y-3255522D01*
X-630499Y-3255522D02*
X-630499Y-3360284D01*
X-630499Y-3255522D02*
X-620976Y-3236474D01*
X-620976Y-3236474D02*
X-601928Y-3226950D01*
X-601928Y-3226950D02*
X-573357Y-3226950D01*
X-573357Y-3226950D02*
X-554309Y-3236474D01*
X-554309Y-3236474D02*
X-544785Y-3255522D01*
X-544785Y-3255522D02*
X-544785Y-3360284D01*
X-154309Y-3150760D02*
X-325737Y-3407903D01*
X102834Y-3160284D02*
X121882Y-3160284D01*
X121882Y-3160284D02*
X140929Y-3169808D01*
X140929Y-3169808D02*
X150453Y-3179331D01*
X150453Y-3179331D02*
X159977Y-3198379D01*
X159977Y-3198379D02*
X169501Y-3236474D01*
X169501Y-3236474D02*
X169501Y-3284093D01*
X169501Y-3284093D02*
X159977Y-3322188D01*
X159977Y-3322188D02*
X150453Y-3341236D01*
X150453Y-3341236D02*
X140929Y-3350760D01*
X140929Y-3350760D02*
X121882Y-3360284D01*
X121882Y-3360284D02*
X102834Y-3360284D01*
X102834Y-3360284D02*
X83787Y-3350760D01*
X83787Y-3350760D02*
X74263Y-3341236D01*
X74263Y-3341236D02*
X64739Y-3322188D01*
X64739Y-3322188D02*
X55215Y-3284093D01*
X55215Y-3284093D02*
X55215Y-3236474D01*
X55215Y-3236474D02*
X64739Y-3198379D01*
X64739Y-3198379D02*
X74263Y-3179331D01*
X74263Y-3179331D02*
X83787Y-3169808D01*
X83787Y-3169808D02*
X102834Y-3160284D01*
X255215Y-3341236D02*
X264739Y-3350760D01*
X264739Y-3350760D02*
X255215Y-3360284D01*
X255215Y-3360284D02*
X245691Y-3350760D01*
X245691Y-3350760D02*
X255215Y-3341236D01*
X255215Y-3341236D02*
X255215Y-3360284D01*
X388548Y-3160284D02*
X407596Y-3160284D01*
X407596Y-3160284D02*
X426644Y-3169808D01*
X426644Y-3169808D02*
X436167Y-3179331D01*
X436167Y-3179331D02*
X445691Y-3198379D01*
X445691Y-3198379D02*
X455215Y-3236474D01*
X455215Y-3236474D02*
X455215Y-3284093D01*
X455215Y-3284093D02*
X445691Y-3322188D01*
X445691Y-3322188D02*
X436167Y-3341236D01*
X436167Y-3341236D02*
X426644Y-3350760D01*
X426644Y-3350760D02*
X407596Y-3360284D01*
X407596Y-3360284D02*
X388548Y-3360284D01*
X388548Y-3360284D02*
X369501Y-3350760D01*
X369501Y-3350760D02*
X359977Y-3341236D01*
X359977Y-3341236D02*
X350453Y-3322188D01*
X350453Y-3322188D02*
X340929Y-3284093D01*
X340929Y-3284093D02*
X340929Y-3236474D01*
X340929Y-3236474D02*
X350453Y-3198379D01*
X350453Y-3198379D02*
X359977Y-3179331D01*
X359977Y-3179331D02*
X369501Y-3169808D01*
X369501Y-3169808D02*
X388548Y-3160284D01*
X521882Y-3160284D02*
X645691Y-3160284D01*
X645691Y-3160284D02*
X579025Y-3236474D01*
X579025Y-3236474D02*
X607596Y-3236474D01*
X607596Y-3236474D02*
X626644Y-3245998D01*
X626644Y-3245998D02*
X636168Y-3255522D01*
X636168Y-3255522D02*
X645691Y-3274569D01*
X645691Y-3274569D02*
X645691Y-3322188D01*
X645691Y-3322188D02*
X636168Y-3341236D01*
X636168Y-3341236D02*
X626644Y-3350760D01*
X626644Y-3350760D02*
X607596Y-3360284D01*
X607596Y-3360284D02*
X550453Y-3360284D01*
X550453Y-3360284D02*
X531406Y-3350760D01*
X531406Y-3350760D02*
X521882Y-3341236D01*
X740929Y-3360284D02*
X779025Y-3360284D01*
X779025Y-3360284D02*
X798072Y-3350760D01*
X798072Y-3350760D02*
X807596Y-3341236D01*
X807596Y-3341236D02*
X826644Y-3312665D01*
X826644Y-3312665D02*
X836167Y-3274569D01*
X836167Y-3274569D02*
X836167Y-3198379D01*
X836167Y-3198379D02*
X826644Y-3179331D01*
X826644Y-3179331D02*
X817120Y-3169808D01*
X817120Y-3169808D02*
X798072Y-3160284D01*
X798072Y-3160284D02*
X759977Y-3160284D01*
X759977Y-3160284D02*
X740929Y-3169808D01*
X740929Y-3169808D02*
X731406Y-3179331D01*
X731406Y-3179331D02*
X721882Y-3198379D01*
X721882Y-3198379D02*
X721882Y-3245998D01*
X721882Y-3245998D02*
X731406Y-3265046D01*
X731406Y-3265046D02*
X740929Y-3274569D01*
X740929Y-3274569D02*
X759977Y-3284093D01*
X759977Y-3284093D02*
X798072Y-3284093D01*
X798072Y-3284093D02*
X817120Y-3274569D01*
X817120Y-3274569D02*
X826644Y-3265046D01*
X826644Y-3265046D02*
X836167Y-3245998D01*
X959977Y-3160284D02*
X979025Y-3160284D01*
X979025Y-3160284D02*
X998072Y-3169808D01*
X998072Y-3169808D02*
X1007596Y-3179331D01*
X1007596Y-3179331D02*
X1017120Y-3198379D01*
X1017120Y-3198379D02*
X1026644Y-3236474D01*
X1026644Y-3236474D02*
X1026644Y-3284093D01*
X1026644Y-3284093D02*
X1017120Y-3322188D01*
X1017120Y-3322188D02*
X1007596Y-3341236D01*
X1007596Y-3341236D02*
X998072Y-3350760D01*
X998072Y-3350760D02*
X979025Y-3360284D01*
X979025Y-3360284D02*
X959977Y-3360284D01*
X959977Y-3360284D02*
X940929Y-3350760D01*
X940929Y-3350760D02*
X931406Y-3341236D01*
X931406Y-3341236D02*
X921882Y-3322188D01*
X921882Y-3322188D02*
X912358Y-3284093D01*
X912358Y-3284093D02*
X912358Y-3236474D01*
X912358Y-3236474D02*
X921882Y-3198379D01*
X921882Y-3198379D02*
X931406Y-3179331D01*
X931406Y-3179331D02*
X940929Y-3169808D01*
X940929Y-3169808D02*
X959977Y-3160284D01*
X1102834Y-3160284D02*
X1102834Y-3198379D01*
X1179025Y-3160284D02*
X1179025Y-3198379D01*
X1474263Y-3436474D02*
X1464739Y-3426950D01*
X1464739Y-3426950D02*
X1445691Y-3398379D01*
X1445691Y-3398379D02*
X1436168Y-3379331D01*
X1436168Y-3379331D02*
X1426644Y-3350760D01*
X1426644Y-3350760D02*
X1417120Y-3303141D01*
X1417120Y-3303141D02*
X1417120Y-3265046D01*
X1417120Y-3265046D02*
X1426644Y-3217427D01*
X1426644Y-3217427D02*
X1436168Y-3188855D01*
X1436168Y-3188855D02*
X1445691Y-3169808D01*
X1445691Y-3169808D02*
X1464739Y-3141236D01*
X1464739Y-3141236D02*
X1474263Y-3131712D01*
X1531406Y-3160284D02*
X1655215Y-3160284D01*
X1655215Y-3160284D02*
X1588548Y-3236474D01*
X1588548Y-3236474D02*
X1617120Y-3236474D01*
X1617120Y-3236474D02*
X1636168Y-3245998D01*
X1636168Y-3245998D02*
X1645691Y-3255522D01*
X1645691Y-3255522D02*
X1655215Y-3274569D01*
X1655215Y-3274569D02*
X1655215Y-3322188D01*
X1655215Y-3322188D02*
X1645691Y-3341236D01*
X1645691Y-3341236D02*
X1636168Y-3350760D01*
X1636168Y-3350760D02*
X1617120Y-3360284D01*
X1617120Y-3360284D02*
X1559977Y-3360284D01*
X1559977Y-3360284D02*
X1540929Y-3350760D01*
X1540929Y-3350760D02*
X1531406Y-3341236D01*
X1893310Y-3360284D02*
X1893310Y-3160284D01*
X1979025Y-3360284D02*
X1979025Y-3255522D01*
X1979025Y-3255522D02*
X1969501Y-3236474D01*
X1969501Y-3236474D02*
X1950453Y-3226950D01*
X1950453Y-3226950D02*
X1921882Y-3226950D01*
X1921882Y-3226950D02*
X1902834Y-3236474D01*
X1902834Y-3236474D02*
X1893310Y-3245998D01*
X2102834Y-3360284D02*
X2083787Y-3350760D01*
X2083787Y-3350760D02*
X2074263Y-3341236D01*
X2074263Y-3341236D02*
X2064739Y-3322188D01*
X2064739Y-3322188D02*
X2064739Y-3265046D01*
X2064739Y-3265046D02*
X2074263Y-3245998D01*
X2074263Y-3245998D02*
X2083787Y-3236474D01*
X2083787Y-3236474D02*
X2102834Y-3226950D01*
X2102834Y-3226950D02*
X2131406Y-3226950D01*
X2131406Y-3226950D02*
X2150453Y-3236474D01*
X2150453Y-3236474D02*
X2159977Y-3245998D01*
X2159977Y-3245998D02*
X2169501Y-3265046D01*
X2169501Y-3265046D02*
X2169501Y-3322188D01*
X2169501Y-3322188D02*
X2159977Y-3341236D01*
X2159977Y-3341236D02*
X2150453Y-3350760D01*
X2150453Y-3350760D02*
X2131406Y-3360284D01*
X2131406Y-3360284D02*
X2102834Y-3360284D01*
X2283787Y-3360284D02*
X2264739Y-3350760D01*
X2264739Y-3350760D02*
X2255215Y-3331712D01*
X2255215Y-3331712D02*
X2255215Y-3160284D01*
X2436168Y-3350760D02*
X2417120Y-3360284D01*
X2417120Y-3360284D02*
X2379025Y-3360284D01*
X2379025Y-3360284D02*
X2359977Y-3350760D01*
X2359977Y-3350760D02*
X2350453Y-3331712D01*
X2350453Y-3331712D02*
X2350453Y-3255522D01*
X2350453Y-3255522D02*
X2359977Y-3236474D01*
X2359977Y-3236474D02*
X2379025Y-3226950D01*
X2379025Y-3226950D02*
X2417120Y-3226950D01*
X2417120Y-3226950D02*
X2436168Y-3236474D01*
X2436168Y-3236474D02*
X2445692Y-3255522D01*
X2445692Y-3255522D02*
X2445692Y-3274569D01*
X2445692Y-3274569D02*
X2350453Y-3293617D01*
X2521882Y-3350760D02*
X2540930Y-3360284D01*
X2540930Y-3360284D02*
X2579025Y-3360284D01*
X2579025Y-3360284D02*
X2598073Y-3350760D01*
X2598073Y-3350760D02*
X2607596Y-3331712D01*
X2607596Y-3331712D02*
X2607596Y-3322188D01*
X2607596Y-3322188D02*
X2598073Y-3303141D01*
X2598073Y-3303141D02*
X2579025Y-3293617D01*
X2579025Y-3293617D02*
X2550453Y-3293617D01*
X2550453Y-3293617D02*
X2531406Y-3284093D01*
X2531406Y-3284093D02*
X2521882Y-3265046D01*
X2521882Y-3265046D02*
X2521882Y-3255522D01*
X2521882Y-3255522D02*
X2531406Y-3236474D01*
X2531406Y-3236474D02*
X2550453Y-3226950D01*
X2550453Y-3226950D02*
X2579025Y-3226950D01*
X2579025Y-3226950D02*
X2598073Y-3236474D01*
X2674263Y-3436474D02*
X2683787Y-3426950D01*
X2683787Y-3426950D02*
X2702834Y-3398379D01*
X2702834Y-3398379D02*
X2712358Y-3379331D01*
X2712358Y-3379331D02*
X2721882Y-3350760D01*
X2721882Y-3350760D02*
X2731406Y-3303141D01*
X2731406Y-3303141D02*
X2731406Y-3265046D01*
X2731406Y-3265046D02*
X2721882Y-3217427D01*
X2721882Y-3217427D02*
X2712358Y-3188855D01*
X2712358Y-3188855D02*
X2702834Y-3169808D01*
X2702834Y-3169808D02*
X2683787Y-3141236D01*
X2683787Y-3141236D02*
X2674263Y-3131712D01*
X3036168Y-3436474D02*
X3026644Y-3426950D01*
X3026644Y-3426950D02*
X3007596Y-3398379D01*
X3007596Y-3398379D02*
X2998072Y-3379331D01*
X2998072Y-3379331D02*
X2988549Y-3350760D01*
X2988549Y-3350760D02*
X2979025Y-3303141D01*
X2979025Y-3303141D02*
X2979025Y-3265046D01*
X2979025Y-3265046D02*
X2988549Y-3217427D01*
X2988549Y-3217427D02*
X2998072Y-3188855D01*
X2998072Y-3188855D02*
X3007596Y-3169808D01*
X3007596Y-3169808D02*
X3026644Y-3141236D01*
X3026644Y-3141236D02*
X3036168Y-3131712D01*
X3112358Y-3226950D02*
X3112358Y-3360284D01*
X3112358Y-3245998D02*
X3121882Y-3236474D01*
X3121882Y-3236474D02*
X3140930Y-3226950D01*
X3140930Y-3226950D02*
X3169501Y-3226950D01*
X3169501Y-3226950D02*
X3188549Y-3236474D01*
X3188549Y-3236474D02*
X3198072Y-3255522D01*
X3198072Y-3255522D02*
X3198072Y-3360284D01*
X3321882Y-3360284D02*
X3302834Y-3350760D01*
X3302834Y-3350760D02*
X3293311Y-3341236D01*
X3293311Y-3341236D02*
X3283787Y-3322188D01*
X3283787Y-3322188D02*
X3283787Y-3265046D01*
X3283787Y-3265046D02*
X3293311Y-3245998D01*
X3293311Y-3245998D02*
X3302834Y-3236474D01*
X3302834Y-3236474D02*
X3321882Y-3226950D01*
X3321882Y-3226950D02*
X3350453Y-3226950D01*
X3350453Y-3226950D02*
X3369501Y-3236474D01*
X3369501Y-3236474D02*
X3379025Y-3245998D01*
X3379025Y-3245998D02*
X3388549Y-3265046D01*
X3388549Y-3265046D02*
X3388549Y-3322188D01*
X3388549Y-3322188D02*
X3379025Y-3341236D01*
X3379025Y-3341236D02*
X3369501Y-3350760D01*
X3369501Y-3350760D02*
X3350453Y-3360284D01*
X3350453Y-3360284D02*
X3321882Y-3360284D01*
X3445692Y-3226950D02*
X3521882Y-3226950D01*
X3474263Y-3160284D02*
X3474263Y-3331712D01*
X3474263Y-3331712D02*
X3483787Y-3350760D01*
X3483787Y-3350760D02*
X3502834Y-3360284D01*
X3502834Y-3360284D02*
X3521882Y-3360284D01*
X3740930Y-3226950D02*
X3740930Y-3426950D01*
X3740930Y-3236474D02*
X3759977Y-3226950D01*
X3759977Y-3226950D02*
X3798073Y-3226950D01*
X3798073Y-3226950D02*
X3817120Y-3236474D01*
X3817120Y-3236474D02*
X3826644Y-3245998D01*
X3826644Y-3245998D02*
X3836168Y-3265046D01*
X3836168Y-3265046D02*
X3836168Y-3322188D01*
X3836168Y-3322188D02*
X3826644Y-3341236D01*
X3826644Y-3341236D02*
X3817120Y-3350760D01*
X3817120Y-3350760D02*
X3798073Y-3360284D01*
X3798073Y-3360284D02*
X3759977Y-3360284D01*
X3759977Y-3360284D02*
X3740930Y-3350760D01*
X3950453Y-3360284D02*
X3931406Y-3350760D01*
X3931406Y-3350760D02*
X3921882Y-3331712D01*
X3921882Y-3331712D02*
X3921882Y-3160284D01*
X4112358Y-3360284D02*
X4112358Y-3255522D01*
X4112358Y-3255522D02*
X4102834Y-3236474D01*
X4102834Y-3236474D02*
X4083787Y-3226950D01*
X4083787Y-3226950D02*
X4045692Y-3226950D01*
X4045692Y-3226950D02*
X4026644Y-3236474D01*
X4112358Y-3350760D02*
X4093311Y-3360284D01*
X4093311Y-3360284D02*
X4045692Y-3360284D01*
X4045692Y-3360284D02*
X4026644Y-3350760D01*
X4026644Y-3350760D02*
X4017120Y-3331712D01*
X4017120Y-3331712D02*
X4017120Y-3312665D01*
X4017120Y-3312665D02*
X4026644Y-3293617D01*
X4026644Y-3293617D02*
X4045692Y-3284093D01*
X4045692Y-3284093D02*
X4093311Y-3284093D01*
X4093311Y-3284093D02*
X4112358Y-3274569D01*
X4179025Y-3226950D02*
X4255215Y-3226950D01*
X4207596Y-3160284D02*
X4207596Y-3331712D01*
X4207596Y-3331712D02*
X4217120Y-3350760D01*
X4217120Y-3350760D02*
X4236168Y-3360284D01*
X4236168Y-3360284D02*
X4255215Y-3360284D01*
X4398073Y-3350760D02*
X4379025Y-3360284D01*
X4379025Y-3360284D02*
X4340930Y-3360284D01*
X4340930Y-3360284D02*
X4321882Y-3350760D01*
X4321882Y-3350760D02*
X4312358Y-3331712D01*
X4312358Y-3331712D02*
X4312358Y-3255522D01*
X4312358Y-3255522D02*
X4321882Y-3236474D01*
X4321882Y-3236474D02*
X4340930Y-3226950D01*
X4340930Y-3226950D02*
X4379025Y-3226950D01*
X4379025Y-3226950D02*
X4398073Y-3236474D01*
X4398073Y-3236474D02*
X4407596Y-3255522D01*
X4407596Y-3255522D02*
X4407596Y-3274569D01*
X4407596Y-3274569D02*
X4312358Y-3293617D01*
X4579025Y-3360284D02*
X4579025Y-3160284D01*
X4579025Y-3350760D02*
X4559977Y-3360284D01*
X4559977Y-3360284D02*
X4521882Y-3360284D01*
X4521882Y-3360284D02*
X4502835Y-3350760D01*
X4502835Y-3350760D02*
X4493311Y-3341236D01*
X4493311Y-3341236D02*
X4483787Y-3322188D01*
X4483787Y-3322188D02*
X4483787Y-3265046D01*
X4483787Y-3265046D02*
X4493311Y-3245998D01*
X4493311Y-3245998D02*
X4502835Y-3236474D01*
X4502835Y-3236474D02*
X4521882Y-3226950D01*
X4521882Y-3226950D02*
X4559977Y-3226950D01*
X4559977Y-3226950D02*
X4579025Y-3236474D01*
X4655216Y-3436474D02*
X4664739Y-3426950D01*
X4664739Y-3426950D02*
X4683787Y-3398379D01*
X4683787Y-3398379D02*
X4693311Y-3379331D01*
X4693311Y-3379331D02*
X4702835Y-3350760D01*
X4702835Y-3350760D02*
X4712358Y-3303141D01*
X4712358Y-3303141D02*
X4712358Y-3265046D01*
X4712358Y-3265046D02*
X4702835Y-3217427D01*
X4702835Y-3217427D02*
X4693311Y-3188855D01*
X4693311Y-3188855D02*
X4683787Y-3169808D01*
X4683787Y-3169808D02*
X4664739Y-3141236D01*
X4664739Y-3141236D02*
X4655216Y-3131712D01*
M02*
