%TF.GenerationSoftware,KiCad,Pcbnew,7.0.8*%
%TF.CreationDate,2023-10-26T11:05:39-04:00*%
%TF.ProjectId,lemon-pepper,6c656d6f-6e2d-4706-9570-7065722e6b69,rev?*%
%TF.SameCoordinates,PX8b85c60PY52f2218*%
%TF.FileFunction,Legend,Top*%
%TF.FilePolarity,Positive*%
%FSLAX46Y46*%
G04 Gerber Fmt 4.6, Leading zero omitted, Abs format (unit mm)*
G04 Created by KiCad (PCBNEW 7.0.8) date 2023-10-26 11:05:39*
%MOMM*%
%LPD*%
G01*
G04 APERTURE LIST*
%ADD10C,0.150000*%
%ADD11C,0.120000*%
%ADD12C,0.250000*%
%ADD13C,0.300000*%
%ADD14C,0.100000*%
G04 APERTURE END LIST*
D10*
X1454819Y-1714285D02*
X454819Y-1714285D01*
X931009Y-1714285D02*
X931009Y-1142857D01*
X1454819Y-1142857D02*
X454819Y-1142857D01*
X1454819Y-142857D02*
X1454819Y-714285D01*
X1454819Y-428571D02*
X454819Y-428571D01*
X454819Y-428571D02*
X597676Y-523809D01*
X597676Y-523809D02*
X692914Y-619047D01*
X692914Y-619047D02*
X740533Y-714285D01*
X454819Y476191D02*
X454819Y571429D01*
X454819Y571429D02*
X502438Y666667D01*
X502438Y666667D02*
X550057Y714286D01*
X550057Y714286D02*
X645295Y761905D01*
X645295Y761905D02*
X835771Y809524D01*
X835771Y809524D02*
X1073866Y809524D01*
X1073866Y809524D02*
X1264342Y761905D01*
X1264342Y761905D02*
X1359580Y714286D01*
X1359580Y714286D02*
X1407200Y666667D01*
X1407200Y666667D02*
X1454819Y571429D01*
X1454819Y571429D02*
X1454819Y476191D01*
X1454819Y476191D02*
X1407200Y380953D01*
X1407200Y380953D02*
X1359580Y333334D01*
X1359580Y333334D02*
X1264342Y285715D01*
X1264342Y285715D02*
X1073866Y238096D01*
X1073866Y238096D02*
X835771Y238096D01*
X835771Y238096D02*
X645295Y285715D01*
X645295Y285715D02*
X550057Y333334D01*
X550057Y333334D02*
X502438Y380953D01*
X502438Y380953D02*
X454819Y476191D01*
X1454819Y1761905D02*
X1454819Y1190477D01*
X1454819Y1476191D02*
X454819Y1476191D01*
X454819Y1476191D02*
X597676Y1380953D01*
X597676Y1380953D02*
X692914Y1285715D01*
X692914Y1285715D02*
X740533Y1190477D01*
X-545181Y-1261904D02*
X-1545181Y-1261904D01*
X-1545181Y-1261904D02*
X-1545181Y-880952D01*
X-1545181Y-880952D02*
X-1497562Y-785714D01*
X-1497562Y-785714D02*
X-1449943Y-738095D01*
X-1449943Y-738095D02*
X-1354705Y-690476D01*
X-1354705Y-690476D02*
X-1211848Y-690476D01*
X-1211848Y-690476D02*
X-1116610Y-738095D01*
X-1116610Y-738095D02*
X-1068991Y-785714D01*
X-1068991Y-785714D02*
X-1021372Y-880952D01*
X-1021372Y-880952D02*
X-1021372Y-1261904D01*
X-640420Y309524D02*
X-592800Y261905D01*
X-592800Y261905D02*
X-545181Y119048D01*
X-545181Y119048D02*
X-545181Y23810D01*
X-545181Y23810D02*
X-592800Y-119047D01*
X-592800Y-119047D02*
X-688039Y-214285D01*
X-688039Y-214285D02*
X-783277Y-261904D01*
X-783277Y-261904D02*
X-973753Y-309523D01*
X-973753Y-309523D02*
X-1116610Y-309523D01*
X-1116610Y-309523D02*
X-1307086Y-261904D01*
X-1307086Y-261904D02*
X-1402324Y-214285D01*
X-1402324Y-214285D02*
X-1497562Y-119047D01*
X-1497562Y-119047D02*
X-1545181Y23810D01*
X-1545181Y23810D02*
X-1545181Y119048D01*
X-1545181Y119048D02*
X-1497562Y261905D01*
X-1497562Y261905D02*
X-1449943Y309524D01*
X-1068991Y1071429D02*
X-1021372Y1214286D01*
X-1021372Y1214286D02*
X-973753Y1261905D01*
X-973753Y1261905D02*
X-878515Y1309524D01*
X-878515Y1309524D02*
X-735658Y1309524D01*
X-735658Y1309524D02*
X-640420Y1261905D01*
X-640420Y1261905D02*
X-592800Y1214286D01*
X-592800Y1214286D02*
X-545181Y1119048D01*
X-545181Y1119048D02*
X-545181Y738096D01*
X-545181Y738096D02*
X-1545181Y738096D01*
X-1545181Y738096D02*
X-1545181Y1071429D01*
X-1545181Y1071429D02*
X-1497562Y1166667D01*
X-1497562Y1166667D02*
X-1449943Y1214286D01*
X-1449943Y1214286D02*
X-1354705Y1261905D01*
X-1354705Y1261905D02*
X-1259467Y1261905D01*
X-1259467Y1261905D02*
X-1164229Y1214286D01*
X-1164229Y1214286D02*
X-1116610Y1166667D01*
X-1116610Y1166667D02*
X-1068991Y1071429D01*
X-1068991Y1071429D02*
X-1068991Y738096D01*
D11*
%TO.C,C103*%
X-8536252Y12910000D02*
X-8013748Y12910000D01*
X-8536252Y11440000D02*
X-8013748Y11440000D01*
%TO.C,J301*%
X-8852672Y-16810158D02*
X-8973836Y-16186824D01*
X-8229339Y-16688994D02*
X-8852672Y-16810158D01*
%TO.C,Q501*%
X12762500Y9710000D02*
X11087500Y9710000D01*
X12762500Y9710000D02*
X13412500Y9710000D01*
X12762500Y6590000D02*
X12112500Y6590000D01*
X12762500Y6590000D02*
X13412500Y6590000D01*
%TO.C,R601*%
X15711359Y-1570000D02*
X16018641Y-1570000D01*
X15711359Y-2330000D02*
X16018641Y-2330000D01*
%TO.C,D502*%
X10675000Y10760000D02*
X8975000Y10760000D01*
X10675000Y10760000D02*
X10675000Y8100000D01*
X8975000Y10760000D02*
X8975000Y8100000D01*
%TO.C,U302*%
X550000Y-5485000D02*
X-2900000Y-5485000D01*
X550000Y-5485000D02*
X2500000Y-5485000D01*
X550000Y-10605000D02*
X-1400000Y-10605000D01*
X550000Y-10605000D02*
X2500000Y-10605000D01*
%TO.C,D501*%
X8650000Y11060000D02*
X6950000Y11060000D01*
X8650000Y11060000D02*
X8650000Y8400000D01*
X6950000Y11060000D02*
X6950000Y8400000D01*
%TO.C,R101*%
X-4555000Y-11028641D02*
X-4555000Y-10721359D01*
X-3795000Y-11028641D02*
X-3795000Y-10721359D01*
%TO.C,R103*%
X5661359Y-5720000D02*
X5968641Y-5720000D01*
X5661359Y-6480000D02*
X5968641Y-6480000D01*
%TO.C,R302*%
X-10972659Y-4485060D02*
X-11189940Y-4702341D01*
X-11510060Y-3947659D02*
X-11727341Y-4164940D01*
%TO.C,C304*%
X-5105461Y1088358D02*
X-4952958Y1240861D01*
X-4596344Y579241D02*
X-4443841Y731744D01*
%TO.C,D101*%
X17250000Y5635000D02*
X13950000Y5635000D01*
X17250000Y5635000D02*
X17250000Y125000D01*
X13950000Y5635000D02*
X13950000Y125000D01*
%TO.C,kibuzzard-65380501*%
G36*
X12363862Y6295941D02*
G01*
X12434185Y6285509D01*
X12503146Y6268235D01*
X12570083Y6244285D01*
X12634349Y6213889D01*
X12695327Y6177341D01*
X12752429Y6134991D01*
X12805105Y6087249D01*
X12852847Y6034573D01*
X12895197Y5977471D01*
X12931745Y5916494D01*
X12962141Y5852227D01*
X12986091Y5785291D01*
X13003365Y5716329D01*
X13013797Y5646006D01*
X13017285Y5575000D01*
X13013797Y5503994D01*
X13003365Y5433671D01*
X12986091Y5364709D01*
X12962141Y5297773D01*
X12931745Y5233506D01*
X12895197Y5172529D01*
X12852847Y5115427D01*
X12805105Y5062751D01*
X12752429Y5015009D01*
X12695327Y4972659D01*
X12634349Y4936111D01*
X12570083Y4905715D01*
X12503146Y4881765D01*
X12434185Y4864491D01*
X12363862Y4854059D01*
X12292856Y4850571D01*
X12160564Y4850571D01*
X12017689Y4850571D01*
X11257277Y4850571D01*
X11257144Y4850571D01*
X11186138Y4854059D01*
X11115815Y4864491D01*
X11046854Y4881765D01*
X10979917Y4905715D01*
X10915651Y4936111D01*
X10854673Y4972659D01*
X10797571Y5015009D01*
X10744895Y5062751D01*
X10697153Y5115427D01*
X10689506Y5125738D01*
X11257277Y5125738D01*
X11298552Y5025725D01*
X11396977Y4982863D01*
X12017689Y4982863D01*
X12116114Y5001912D01*
X12150245Y5043188D01*
X12160564Y5123356D01*
X12151039Y5204319D01*
X12113733Y5250356D01*
X12020864Y5265438D01*
X11730352Y5265438D01*
X11730352Y5273375D01*
X11770039Y5289250D01*
X11868464Y5342828D01*
X11979589Y5430537D01*
X12031183Y5487687D01*
X12074839Y5560713D01*
X12104605Y5644056D01*
X12114527Y5732162D01*
X12101297Y5841259D01*
X12061610Y5942065D01*
X11995464Y6034581D01*
X11908063Y6108224D01*
X11804611Y6152409D01*
X11685108Y6167138D01*
X11565693Y6152585D01*
X11462505Y6108929D01*
X11375545Y6036169D01*
X11309840Y5945064D01*
X11270418Y5846374D01*
X11257277Y5740100D01*
X11265214Y5659138D01*
X11308473Y5613894D01*
X11396977Y5598812D01*
X11477939Y5608337D01*
X11520802Y5636912D01*
X11535883Y5676600D01*
X11538264Y5728988D01*
X11538264Y5738512D01*
X11544614Y5775025D01*
X11586683Y5848844D01*
X11674789Y5886150D01*
X11754164Y5871863D01*
X11796233Y5840906D01*
X11820839Y5798044D01*
X11831952Y5757563D01*
X11817069Y5688109D01*
X11772420Y5622625D01*
X11706738Y5562498D01*
X11628752Y5509119D01*
X11544614Y5458716D01*
X11460477Y5407519D01*
X11382491Y5350766D01*
X11316808Y5283694D01*
X11272159Y5208089D01*
X11257277Y5125738D01*
X10689506Y5125738D01*
X10654803Y5172529D01*
X10618255Y5233506D01*
X10587859Y5297773D01*
X10563909Y5364709D01*
X10546635Y5433671D01*
X10536203Y5503994D01*
X10532715Y5575000D01*
X10536203Y5646006D01*
X10546635Y5716329D01*
X10563909Y5785291D01*
X10587859Y5852227D01*
X10618255Y5916494D01*
X10654803Y5977471D01*
X10697153Y6034573D01*
X10744895Y6087249D01*
X10797571Y6134991D01*
X10854673Y6177341D01*
X10915651Y6213889D01*
X10979917Y6244285D01*
X11046854Y6268235D01*
X11115815Y6285509D01*
X11186138Y6295941D01*
X11257144Y6299429D01*
X11257277Y6299429D01*
X12160564Y6299429D01*
X12292856Y6299429D01*
X12363862Y6295941D01*
G37*
%TO.C,C106*%
X7090000Y-4786252D02*
X7090000Y-4263748D01*
X8560000Y-4786252D02*
X8560000Y-4263748D01*
%TO.C,D601*%
X13760000Y1085000D02*
X12290000Y1085000D01*
X12290000Y1085000D02*
X12290000Y-1200000D01*
X13760000Y-1200000D02*
X13760000Y1085000D01*
%TO.C,D301*%
X-16722500Y-3565000D02*
X-16722500Y-5035000D01*
X-16722500Y-5035000D02*
X-14437500Y-5035000D01*
X-14437500Y-3565000D02*
X-16722500Y-3565000D01*
%TO.C,L501*%
X13922936Y-6190000D02*
X15127064Y-6190000D01*
X13922936Y-8910000D02*
X15127064Y-8910000D01*
%TO.C,C305*%
X-15758601Y8537282D02*
X-15911104Y8384779D01*
X-16267718Y9046399D02*
X-16420221Y8893896D01*
%TO.C,C701*%
X-6072164Y6140000D02*
X-6287836Y6140000D01*
X-6072164Y6860000D02*
X-6287836Y6860000D01*
%TO.C,C308*%
X-11666399Y9167718D02*
X-11513896Y9320221D01*
X-11157282Y8658601D02*
X-11004779Y8811104D01*
%TO.C,C307*%
X-13194190Y-2278307D02*
X-13346693Y-2430810D01*
X-13703307Y-1769190D02*
X-13855810Y-1921693D01*
%TO.C,U201*%
X-3840000Y-6500000D02*
X-3840000Y-4700000D01*
X-3840000Y-6500000D02*
X-3840000Y-7300000D01*
X-6960000Y-6500000D02*
X-6960000Y-5700000D01*
X-6960000Y-6500000D02*
X-6960000Y-7300000D01*
D12*
%TO.C,U703*%
X1390000Y7090000D02*
X-270000Y7090000D01*
X1390000Y7730000D02*
X1390000Y7090000D01*
X1390000Y10140000D02*
X1390000Y10780000D01*
X1390000Y10780000D02*
X-270000Y10780000D01*
X-1660000Y7090000D02*
X-2300000Y7090000D01*
X-2300000Y7090000D02*
X-2300000Y7860000D01*
X-2300000Y10140000D02*
X-2300000Y10780000D01*
X-2300000Y10780000D02*
X-1660000Y10780000D01*
X2070000Y7350000D02*
G75*
G03*
X2070000Y7350000I-180000J0D01*
G01*
D11*
%TO.C,C302*%
X-11694190Y-3778307D02*
X-11846693Y-3930810D01*
X-12203307Y-3269190D02*
X-12355810Y-3421693D01*
%TO.C,C602*%
X11360000Y-3642164D02*
X11360000Y-3857836D01*
X10640000Y-3642164D02*
X10640000Y-3857836D01*
%TO.C,C401*%
X1707836Y3665000D02*
X1492164Y3665000D01*
X1707836Y4385000D02*
X1492164Y4385000D01*
%TO.C,D302*%
X-16722500Y-5215000D02*
X-16722500Y-6685000D01*
X-16722500Y-6685000D02*
X-14437500Y-6685000D01*
X-14437500Y-5215000D02*
X-16722500Y-5215000D01*
%TO.C,R102*%
X-8030000Y-5528641D02*
X-8030000Y-5221359D01*
X-7270000Y-5528641D02*
X-7270000Y-5221359D01*
%TO.C,R105*%
X4305000Y-1896359D02*
X4305000Y-2203641D01*
X3545000Y-1896359D02*
X3545000Y-2203641D01*
%TO.C,C503*%
X15090000Y-4461252D02*
X15090000Y-3938748D01*
X16560000Y-4461252D02*
X16560000Y-3938748D01*
%TO.C,R501*%
X11043641Y-9740000D02*
X10736359Y-9740000D01*
X11043641Y-8980000D02*
X10736359Y-8980000D01*
%TO.C,R301*%
X-15646359Y-3355000D02*
X-15953641Y-3355000D01*
X-15646359Y-2595000D02*
X-15953641Y-2595000D01*
%TO.C,C201*%
X-6492164Y-4260000D02*
X-6707836Y-4260000D01*
X-6492164Y-3540000D02*
X-6707836Y-3540000D01*
%TO.C,C102*%
X-8013748Y13490000D02*
X-8536252Y13490000D01*
X-8013748Y14960000D02*
X-8536252Y14960000D01*
%TO.C,C101*%
X-8536252Y16985000D02*
X-8013748Y16985000D01*
X-8536252Y15515000D02*
X-8013748Y15515000D01*
D12*
%TO.C,J201*%
X-10653930Y-5715095D02*
X-10300376Y-6068648D01*
X-12775250Y-7836415D02*
X-12421697Y-8189969D01*
X-9451848Y-6917177D02*
X-6906264Y-9462761D01*
X-11573168Y-9038497D02*
X-9027584Y-11584081D01*
X-6057735Y-10311289D02*
X-5760751Y-10608274D01*
X-8179056Y-12432610D02*
X-7882071Y-12729594D01*
X-10647769Y-5718193D02*
G75*
G03*
X-12775249Y-7836415I-713267J-1411116D01*
G01*
X-7882071Y-12729593D02*
G75*
G03*
X-5755321Y-10619077I714178J1407141D01*
G01*
D13*
X-10115021Y-5396897D02*
G75*
G03*
X-10115021Y-5396897I-150000J0D01*
G01*
D11*
%TO.C,C703*%
X-1372164Y6101143D02*
X-1587836Y6101143D01*
X-1372164Y6821143D02*
X-1587836Y6821143D01*
%TO.C,kibuzzard-65305A5A*%
G36*
X7585581Y-2140500D02*
G01*
X7613363Y-2208763D01*
X7582803Y-2288534D01*
X7491125Y-2315125D01*
X7389525Y-2278612D01*
X7374444Y-2243688D01*
X7370475Y-2197650D01*
X7403019Y-2138119D01*
X7496681Y-2108750D01*
X7585581Y-2140500D01*
G37*
G36*
X10408156Y-2140500D02*
G01*
X10435938Y-2208763D01*
X10405378Y-2288534D01*
X10313700Y-2315125D01*
X10212100Y-2278612D01*
X10197019Y-2243688D01*
X10193050Y-2197650D01*
X10225594Y-2138119D01*
X10319256Y-2108750D01*
X10408156Y-2140500D01*
G37*
G36*
X10788156Y-1195882D02*
G01*
X10861715Y-1206794D01*
X10933850Y-1224863D01*
X11003867Y-1249915D01*
X11071091Y-1281709D01*
X11134875Y-1319940D01*
X11194604Y-1364238D01*
X11249704Y-1414178D01*
X11299644Y-1469278D01*
X11343942Y-1529007D01*
X11382173Y-1592791D01*
X11413967Y-1660015D01*
X11439020Y-1730032D01*
X11457089Y-1802167D01*
X11468000Y-1875726D01*
X11471649Y-1950000D01*
X11468000Y-2024274D01*
X11457089Y-2097833D01*
X11439020Y-2169968D01*
X11413967Y-2239985D01*
X11382173Y-2307209D01*
X11343942Y-2370993D01*
X11299644Y-2430722D01*
X11249704Y-2485822D01*
X11194604Y-2535762D01*
X11134875Y-2580060D01*
X11071091Y-2618291D01*
X11003867Y-2650085D01*
X10933850Y-2675137D01*
X10861715Y-2693206D01*
X10788156Y-2704118D01*
X10713882Y-2707767D01*
X10713750Y-2707767D01*
X10320050Y-2707767D01*
X9697750Y-2707767D01*
X8730963Y-2707767D01*
X7497475Y-2707767D01*
X6916450Y-2707767D01*
X6586250Y-2707767D01*
X6586118Y-2707767D01*
X6511844Y-2704118D01*
X6438285Y-2693206D01*
X6366150Y-2675137D01*
X6296133Y-2650085D01*
X6228909Y-2618291D01*
X6165125Y-2580060D01*
X6105396Y-2535762D01*
X6050296Y-2485822D01*
X6000356Y-2430722D01*
X5956058Y-2370993D01*
X5917827Y-2307209D01*
X5886033Y-2239985D01*
X5878837Y-2219875D01*
X6586250Y-2219875D01*
X6597363Y-2366719D01*
X6630700Y-2467525D01*
X6688644Y-2520309D01*
X6789450Y-2548488D01*
X6916450Y-2555631D01*
X6986300Y-2538963D01*
X7010113Y-2497291D01*
X7018050Y-2416725D01*
X6986300Y-2304012D01*
X6959313Y-2290519D01*
X6915656Y-2288138D01*
X6873588Y-2273056D01*
X6864063Y-2200825D01*
X6864063Y-2100812D01*
X7081550Y-2100812D01*
X7093192Y-2231958D01*
X7128117Y-2345993D01*
X7186325Y-2442919D01*
X7267464Y-2516561D01*
X7371181Y-2560747D01*
X7497475Y-2575475D01*
X7601104Y-2563481D01*
X7693972Y-2527497D01*
X7776081Y-2467525D01*
X7819144Y-2415137D01*
X7970550Y-2415137D01*
X8011825Y-2515150D01*
X8110250Y-2558013D01*
X8730963Y-2558013D01*
X8829388Y-2538963D01*
X8863519Y-2497688D01*
X8873838Y-2417519D01*
X8873558Y-2415137D01*
X8937338Y-2415137D01*
X8978613Y-2515150D01*
X9077038Y-2558013D01*
X9697750Y-2558013D01*
X9796175Y-2538963D01*
X9830306Y-2497688D01*
X9840625Y-2417519D01*
X9831100Y-2336556D01*
X9793794Y-2290519D01*
X9700925Y-2275438D01*
X9410413Y-2275438D01*
X9410413Y-2267500D01*
X9450100Y-2251625D01*
X9548525Y-2198047D01*
X9659650Y-2110338D01*
X9668250Y-2100812D01*
X9904125Y-2100812D01*
X9915767Y-2231958D01*
X9950692Y-2345993D01*
X10008900Y-2442919D01*
X10090039Y-2516561D01*
X10193756Y-2560747D01*
X10320050Y-2575475D01*
X10423679Y-2563481D01*
X10516547Y-2527497D01*
X10598656Y-2467525D01*
X10662597Y-2389738D01*
X10700962Y-2300308D01*
X10713750Y-2199237D01*
X10701315Y-2115365D01*
X10664008Y-2037312D01*
X10601831Y-1965081D01*
X10522192Y-1907314D01*
X10432498Y-1872653D01*
X10332750Y-1861100D01*
X10215275Y-1888088D01*
X10223213Y-1865862D01*
X10252581Y-1810300D01*
X10308938Y-1748387D01*
X10404981Y-1694412D01*
X10531188Y-1672188D01*
X10623263Y-1662663D01*
X10655013Y-1642025D01*
X10674063Y-1600750D01*
X10682000Y-1527725D01*
X10672475Y-1451525D01*
X10635169Y-1406281D01*
X10547063Y-1391200D01*
X10432731Y-1399328D01*
X10328496Y-1423712D01*
X10234357Y-1464352D01*
X10150315Y-1521248D01*
X10076369Y-1594400D01*
X10014361Y-1679680D01*
X9966133Y-1772962D01*
X9931684Y-1874244D01*
X9911015Y-1983528D01*
X9904125Y-2100812D01*
X9668250Y-2100812D01*
X9711244Y-2053188D01*
X9754900Y-1980162D01*
X9784666Y-1896819D01*
X9794588Y-1808713D01*
X9781358Y-1699616D01*
X9741671Y-1598810D01*
X9675525Y-1506294D01*
X9588124Y-1432651D01*
X9484672Y-1388466D01*
X9365169Y-1373737D01*
X9245754Y-1388290D01*
X9142566Y-1431946D01*
X9055606Y-1504706D01*
X8989901Y-1595811D01*
X8950479Y-1694501D01*
X8937338Y-1800775D01*
X8945275Y-1881737D01*
X8988534Y-1926981D01*
X9077038Y-1942063D01*
X9158000Y-1932538D01*
X9200863Y-1903963D01*
X9215944Y-1864275D01*
X9218325Y-1811887D01*
X9218325Y-1802363D01*
X9224675Y-1765850D01*
X9266744Y-1692031D01*
X9354850Y-1654725D01*
X9434225Y-1669013D01*
X9476294Y-1699969D01*
X9500900Y-1742831D01*
X9512013Y-1783313D01*
X9497130Y-1852766D01*
X9452481Y-1918250D01*
X9386798Y-1978377D01*
X9308813Y-2031756D01*
X9224675Y-2082159D01*
X9140538Y-2133356D01*
X9062552Y-2190109D01*
X8996869Y-2257181D01*
X8952220Y-2332786D01*
X8937338Y-2415137D01*
X8873558Y-2415137D01*
X8864313Y-2336556D01*
X8827006Y-2290519D01*
X8734138Y-2275438D01*
X8443625Y-2275438D01*
X8443625Y-2267500D01*
X8483313Y-2251625D01*
X8581738Y-2198047D01*
X8692863Y-2110338D01*
X8744456Y-2053188D01*
X8788113Y-1980162D01*
X8817878Y-1896819D01*
X8827800Y-1808713D01*
X8814571Y-1699616D01*
X8774883Y-1598810D01*
X8708738Y-1506294D01*
X8621337Y-1432651D01*
X8517885Y-1388466D01*
X8398381Y-1373737D01*
X8278966Y-1388290D01*
X8175779Y-1431946D01*
X8088819Y-1504706D01*
X8023114Y-1595811D01*
X7983691Y-1694501D01*
X7970550Y-1800775D01*
X7978488Y-1881737D01*
X8021747Y-1926981D01*
X8110250Y-1942063D01*
X8191213Y-1932538D01*
X8234075Y-1903963D01*
X8249156Y-1864275D01*
X8251538Y-1811887D01*
X8251538Y-1802363D01*
X8257888Y-1765850D01*
X8299956Y-1692031D01*
X8388063Y-1654725D01*
X8467438Y-1669013D01*
X8509506Y-1699969D01*
X8534113Y-1742831D01*
X8545225Y-1783313D01*
X8530342Y-1852766D01*
X8485694Y-1918250D01*
X8420011Y-1978377D01*
X8342025Y-2031756D01*
X8257888Y-2082159D01*
X8173750Y-2133356D01*
X8095764Y-2190109D01*
X8030081Y-2257181D01*
X7985433Y-2332786D01*
X7970550Y-2415137D01*
X7819144Y-2415137D01*
X7840022Y-2389738D01*
X7878387Y-2300308D01*
X7891175Y-2199237D01*
X7878740Y-2115365D01*
X7841433Y-2037312D01*
X7779256Y-1965081D01*
X7699617Y-1907314D01*
X7609923Y-1872653D01*
X7510175Y-1861100D01*
X7392700Y-1888088D01*
X7400638Y-1865862D01*
X7430006Y-1810300D01*
X7486363Y-1748387D01*
X7582406Y-1694412D01*
X7708613Y-1672188D01*
X7800688Y-1662663D01*
X7832438Y-1642025D01*
X7851488Y-1600750D01*
X7859425Y-1527725D01*
X7849900Y-1451525D01*
X7812594Y-1406281D01*
X7724488Y-1391200D01*
X7610156Y-1399328D01*
X7505921Y-1423712D01*
X7411782Y-1464352D01*
X7327740Y-1521248D01*
X7253794Y-1594400D01*
X7191786Y-1679680D01*
X7143558Y-1772962D01*
X7109109Y-1874244D01*
X7088440Y-1983528D01*
X7081550Y-2100812D01*
X6864063Y-2100812D01*
X6864063Y-1465813D01*
X6861681Y-1410250D01*
X6846600Y-1367387D01*
X6804531Y-1335241D01*
X6725950Y-1324525D01*
X6644194Y-1335241D01*
X6602125Y-1367387D01*
X6588631Y-1409456D01*
X6586250Y-1464225D01*
X6586250Y-2219875D01*
X5878837Y-2219875D01*
X5860980Y-2169968D01*
X5842911Y-2097833D01*
X5832000Y-2024274D01*
X5828351Y-1950000D01*
X5832000Y-1875726D01*
X5842911Y-1802167D01*
X5860980Y-1730032D01*
X5886033Y-1660015D01*
X5917827Y-1592791D01*
X5956058Y-1529007D01*
X6000356Y-1469278D01*
X6050296Y-1414178D01*
X6105396Y-1364238D01*
X6165125Y-1319940D01*
X6228909Y-1281709D01*
X6296133Y-1249915D01*
X6366150Y-1224863D01*
X6438285Y-1206794D01*
X6511844Y-1195882D01*
X6586118Y-1192233D01*
X6586250Y-1192233D01*
X10713750Y-1192233D01*
X10713882Y-1192233D01*
X10788156Y-1195882D01*
G37*
%TO.C,C202*%
X-4707836Y-3540000D02*
X-4492164Y-3540000D01*
X-4707836Y-4260000D02*
X-4492164Y-4260000D01*
%TO.C,C301*%
X-13869190Y-1603307D02*
X-14021693Y-1755810D01*
X-14378307Y-1094190D02*
X-14530810Y-1246693D01*
%TO.C,R502*%
X9745000Y-9656359D02*
X9745000Y-9963641D01*
X8985000Y-9656359D02*
X8985000Y-9963641D01*
%TO.C,D201*%
X-13565000Y-8825000D02*
X-13565000Y-7125000D01*
X-13565000Y-8825000D02*
X-16225000Y-8825000D01*
X-13565000Y-7125000D02*
X-16225000Y-7125000D01*
D10*
%TO.C,U601*%
X11348671Y2750000D02*
X10995118Y3103553D01*
X7700000Y6398671D02*
X8053553Y6045118D01*
X10995118Y2396447D02*
X11348671Y2750000D01*
X7346447Y6045118D02*
X7700000Y6398671D01*
X8053553Y-545118D02*
X7700000Y-898671D01*
X4404882Y3103553D02*
X4051329Y2750000D01*
X7700000Y-898671D02*
X7346447Y-545118D01*
X4051329Y2750000D02*
X4404882Y2396447D01*
X11157041Y3662168D02*
G75*
G03*
X11157041Y3662168I-70000J0D01*
G01*
D11*
%TO.C,C601*%
X11390000Y-1082836D02*
X11390000Y-867164D01*
X12110000Y-1082836D02*
X12110000Y-867164D01*
D14*
%TO.C,U501*%
X8215000Y-6560000D02*
X10215000Y-6560000D01*
X8215000Y-8760000D02*
X10215000Y-8760000D01*
D13*
X7975000Y-6470000D02*
G75*
G03*
X7975000Y-6470000I0J0D01*
G01*
D11*
%TO.C,U301*%
X-15454962Y1935051D02*
X-15119086Y2270927D01*
X-10013775Y6704486D02*
X-10349651Y7040362D01*
X-15119086Y1599175D02*
X-15454962Y1935051D01*
X-5580216Y2270927D02*
X-5244340Y1935051D01*
X-10685527Y-2834384D02*
X-10349651Y-3170260D01*
X-5244340Y1935051D02*
X-5580216Y1599175D01*
X-10349651Y-3170260D02*
X-10013775Y-2834384D01*
%TO.C,R503*%
X8670000Y-9656359D02*
X8670000Y-9963641D01*
X7910000Y-9656359D02*
X7910000Y-9963641D01*
%TO.C,C104*%
X8113748Y16985000D02*
X8636252Y16985000D01*
X8113748Y15515000D02*
X8636252Y15515000D01*
%TO.C,kibuzzard-652C57F7*%
G36*
X-6905306Y-2337287D02*
G01*
X-6868794Y-2430950D01*
X-6906894Y-2523025D01*
X-7002937Y-2565094D01*
X-7101362Y-2523819D01*
X-7141844Y-2430950D01*
X-7103744Y-2336494D01*
X-7003731Y-2293631D01*
X-6905306Y-2337287D01*
G37*
G36*
X-3948050Y-1551325D02*
G01*
X-3860390Y-1564328D01*
X-3774428Y-1585861D01*
X-3690990Y-1615716D01*
X-3610879Y-1653605D01*
X-3534869Y-1699164D01*
X-3463690Y-1751954D01*
X-3398028Y-1811466D01*
X-3338515Y-1877128D01*
X-3285725Y-1948307D01*
X-3240166Y-2024318D01*
X-3202277Y-2104428D01*
X-3172422Y-2187866D01*
X-3150890Y-2273829D01*
X-3137887Y-2361488D01*
X-3133539Y-2450000D01*
X-3137887Y-2538512D01*
X-3150890Y-2626171D01*
X-3172422Y-2712134D01*
X-3202277Y-2795572D01*
X-3240166Y-2875682D01*
X-3285725Y-2951693D01*
X-3338515Y-3022872D01*
X-3398028Y-3088534D01*
X-3463690Y-3148046D01*
X-3534869Y-3200836D01*
X-3610879Y-3246395D01*
X-3690990Y-3284284D01*
X-3774428Y-3314139D01*
X-3860390Y-3335672D01*
X-3948050Y-3348675D01*
X-4036561Y-3353023D01*
X-4036694Y-3353023D01*
X-4177981Y-3353023D01*
X-5105081Y-3353023D01*
X-5786119Y-3353023D01*
X-7000556Y-3353023D01*
X-7413306Y-3353023D01*
X-7413439Y-3353023D01*
X-7501950Y-3348675D01*
X-7589610Y-3335672D01*
X-7675572Y-3314139D01*
X-7759010Y-3284284D01*
X-7839121Y-3246395D01*
X-7915131Y-3200836D01*
X-7986310Y-3148046D01*
X-8051972Y-3088534D01*
X-8111485Y-3022872D01*
X-8164275Y-2951693D01*
X-8209834Y-2875682D01*
X-8247723Y-2795572D01*
X-8277578Y-2712134D01*
X-8299110Y-2626171D01*
X-8312113Y-2538512D01*
X-8316461Y-2450000D01*
X-8315486Y-2430156D01*
X-7413306Y-2430156D01*
X-7400518Y-2533608D01*
X-7362153Y-2628065D01*
X-7298212Y-2713525D01*
X-7219631Y-2780994D01*
X-7137346Y-2821475D01*
X-7051356Y-2834969D01*
X-6937453Y-2815125D01*
X-6859269Y-2755594D01*
X-6859269Y-2803219D01*
X-6897369Y-2917519D01*
X-6995794Y-2965144D01*
X-7081519Y-2950459D01*
X-7160894Y-2906406D01*
X-7206931Y-2887356D01*
X-7245825Y-2900056D01*
X-7292656Y-2946094D01*
X-7340281Y-3055631D01*
X-7312897Y-3106034D01*
X-7230744Y-3161994D01*
X-7118428Y-3206047D01*
X-7000556Y-3220731D01*
X-6898251Y-3208296D01*
X-6803001Y-3170990D01*
X-6714806Y-3108813D01*
X-6644251Y-3026351D01*
X-6601917Y-2928190D01*
X-6587806Y-2814331D01*
X-6587806Y-2395231D01*
X-6500494Y-2395231D01*
X-6492556Y-2463494D01*
X-6449297Y-2508737D01*
X-6360794Y-2523819D01*
X-5930581Y-2523819D01*
X-5930581Y-2717494D01*
X-5921056Y-2800044D01*
X-5900419Y-2831794D01*
X-5859144Y-2850844D01*
X-5786119Y-2858781D01*
X-5709125Y-2849256D01*
X-5663087Y-2810363D01*
X-5648006Y-2719081D01*
X-5648006Y-2514294D01*
X-5544819Y-2514294D01*
X-5527356Y-2600019D01*
X-5524181Y-2615894D01*
X-5506719Y-2657169D01*
X-5467428Y-2720272D01*
X-5422581Y-2769881D01*
X-5330859Y-2831617D01*
X-5225026Y-2868659D01*
X-5105081Y-2881006D01*
X-4984255Y-2868747D01*
X-4877892Y-2831970D01*
X-4785994Y-2770675D01*
X-4715438Y-2690506D01*
X-4673105Y-2597108D01*
X-4658994Y-2490481D01*
X-4672091Y-2409519D01*
X-4711381Y-2338081D01*
X-4761387Y-2286488D01*
X-4808219Y-2252356D01*
X-4808219Y-2241244D01*
X-4739427Y-2191414D01*
X-4698152Y-2124474D01*
X-4688941Y-2068206D01*
X-4595494Y-2068206D01*
X-4545487Y-2166631D01*
X-4449444Y-2222194D01*
X-4338319Y-2172981D01*
X-4317681Y-2153931D01*
X-4317681Y-2720669D01*
X-4315300Y-2778613D01*
X-4300219Y-2822269D01*
X-4257753Y-2853225D01*
X-4177981Y-2863544D01*
X-4096225Y-2852828D01*
X-4054156Y-2820681D01*
X-4039075Y-2778613D01*
X-4036694Y-2723844D01*
X-4036694Y-1839606D01*
X-4044631Y-1755469D01*
X-4066856Y-1721338D01*
X-4108131Y-1703081D01*
X-4183537Y-1695144D01*
X-4273231Y-1736419D01*
X-4277994Y-1739594D01*
X-4538344Y-1974544D01*
X-4595494Y-2068206D01*
X-4688941Y-2068206D01*
X-4684394Y-2040425D01*
X-4696917Y-1950908D01*
X-4734488Y-1867564D01*
X-4797106Y-1790394D01*
X-4881420Y-1728658D01*
X-4984078Y-1691616D01*
X-5105081Y-1679269D01*
X-5183861Y-1684825D01*
X-5255100Y-1701494D01*
X-5359875Y-1750706D01*
X-5425756Y-1813412D01*
X-5460681Y-1863419D01*
X-5497194Y-1971369D01*
X-5477350Y-2028122D01*
X-5417819Y-2077731D01*
X-5330506Y-2106306D01*
X-5270181Y-2086463D01*
X-5225731Y-2026931D01*
X-5216206Y-2007881D01*
X-5174931Y-1969781D01*
X-5085237Y-1950731D01*
X-4997131Y-1980894D01*
X-4965381Y-2044394D01*
X-4995544Y-2090828D01*
X-5086031Y-2106306D01*
X-5168581Y-2114244D01*
X-5212634Y-2157503D01*
X-5227319Y-2246006D01*
X-5216603Y-2327366D01*
X-5184456Y-2368244D01*
X-5143181Y-2384119D01*
X-5070950Y-2387294D01*
X-4978875Y-2419838D01*
X-4939981Y-2495244D01*
X-4979669Y-2572237D01*
X-5030469Y-2597836D01*
X-5103494Y-2606369D01*
X-5170169Y-2596844D01*
X-5257481Y-2520644D01*
X-5305106Y-2438094D01*
X-5389244Y-2422219D01*
X-5505925Y-2445237D01*
X-5544819Y-2514294D01*
X-5648006Y-2514294D01*
X-5648006Y-1836431D01*
X-5650387Y-1780869D01*
X-5665469Y-1738800D01*
X-5708331Y-1705462D01*
X-5788500Y-1695144D01*
X-5869462Y-1703875D01*
X-5913119Y-1734831D01*
X-5928200Y-1774519D01*
X-5930581Y-1828494D01*
X-5930581Y-2261881D01*
X-6189344Y-2261881D01*
X-6092506Y-1874531D01*
X-6090919Y-1869769D01*
X-6079806Y-1803094D01*
X-6107587Y-1741975D01*
X-6190931Y-1701494D01*
X-6263956Y-1690381D01*
X-6318725Y-1707844D01*
X-6347300Y-1744356D01*
X-6363969Y-1799919D01*
X-6495731Y-2331731D01*
X-6500494Y-2395231D01*
X-6587806Y-2395231D01*
X-6587806Y-2157106D01*
X-6590187Y-2103131D01*
X-6604475Y-2062650D01*
X-6644956Y-2030106D01*
X-6735444Y-2020581D01*
X-6825137Y-2043600D01*
X-6857681Y-2111069D01*
X-6883875Y-2080113D01*
X-6944994Y-2043600D01*
X-7043419Y-2023756D01*
X-7133024Y-2037338D01*
X-7217691Y-2078084D01*
X-7297419Y-2145994D01*
X-7361801Y-2231895D01*
X-7400430Y-2326616D01*
X-7413306Y-2430156D01*
X-8315486Y-2430156D01*
X-8312113Y-2361488D01*
X-8299110Y-2273829D01*
X-8277578Y-2187866D01*
X-8247723Y-2104428D01*
X-8209834Y-2024318D01*
X-8164275Y-1948307D01*
X-8111485Y-1877128D01*
X-8051972Y-1811466D01*
X-7986310Y-1751954D01*
X-7915131Y-1699164D01*
X-7839121Y-1653605D01*
X-7759010Y-1615716D01*
X-7675572Y-1585861D01*
X-7589610Y-1564328D01*
X-7501950Y-1551325D01*
X-7413439Y-1546977D01*
X-7413306Y-1546977D01*
X-4036694Y-1546977D01*
X-4036561Y-1546977D01*
X-3948050Y-1551325D01*
G37*
D12*
%TO.C,U702*%
X6640000Y7090000D02*
X4980000Y7090000D01*
X6640000Y7730000D02*
X6640000Y7090000D01*
X6640000Y10140000D02*
X6640000Y10780000D01*
X6640000Y10780000D02*
X4980000Y10780000D01*
X3590000Y7090000D02*
X2950000Y7090000D01*
X2950000Y7090000D02*
X2950000Y7860000D01*
X2950000Y10140000D02*
X2950000Y10780000D01*
X2950000Y10780000D02*
X3590000Y10780000D01*
X7320000Y7350000D02*
G75*
G03*
X7320000Y7350000I-180000J0D01*
G01*
D11*
%TO.C,C702*%
X3907836Y6115000D02*
X3692164Y6115000D01*
X3907836Y6835000D02*
X3692164Y6835000D01*
%TO.C,C105*%
X8636252Y11440000D02*
X8113748Y11440000D01*
X8636252Y12910000D02*
X8113748Y12910000D01*
%TO.C,R505*%
X9696359Y7380000D02*
X10003641Y7380000D01*
X9696359Y6620000D02*
X10003641Y6620000D01*
%TO.C,C303*%
X-9463896Y7229779D02*
X-9616399Y7382282D01*
X-8954779Y7738896D02*
X-9107282Y7891399D01*
%TO.C,Y301*%
X-11895837Y7323629D02*
X-14229290Y9657082D01*
X-14229290Y9657082D02*
X-17057717Y6828655D01*
%TO.C,D602*%
X14760000Y-5775000D02*
X14760000Y-4075000D01*
X14760000Y-5775000D02*
X12100000Y-5775000D01*
X14760000Y-4075000D02*
X12100000Y-4075000D01*
%TO.C,J101*%
X10075000Y-17475000D02*
X10075000Y-16225000D01*
X9785000Y-17185000D02*
X9785000Y-11215000D01*
X9785000Y-11215000D02*
X-2835000Y-11215000D01*
X9775000Y-17175000D02*
X9775000Y-16425000D01*
X9775000Y-16425000D02*
X7975000Y-16425000D01*
X9775000Y-14925000D02*
X9025000Y-14925000D01*
X9025000Y-14925000D02*
X9025000Y-11975000D01*
X9025000Y-11975000D02*
X3475000Y-11975000D01*
X8825000Y-17475000D02*
X10075000Y-17475000D01*
X7975000Y-17175000D02*
X9775000Y-17175000D01*
X7975000Y-16425000D02*
X7975000Y-17175000D01*
X6475000Y-17175000D02*
X6475000Y-16425000D01*
X6475000Y-16425000D02*
X475000Y-16425000D01*
X475000Y-17175000D02*
X6475000Y-17175000D01*
X475000Y-16425000D02*
X475000Y-17175000D01*
X-1025000Y-17175000D02*
X-1025000Y-16425000D01*
X-1025000Y-16425000D02*
X-2825000Y-16425000D01*
X-2075000Y-14925000D02*
X-2075000Y-11975000D01*
X-2075000Y-11975000D02*
X3475000Y-11975000D01*
X-2825000Y-17175000D02*
X-1025000Y-17175000D01*
X-2825000Y-16425000D02*
X-2825000Y-17175000D01*
X-2825000Y-14925000D02*
X-2075000Y-14925000D01*
X-2835000Y-17185000D02*
X9785000Y-17185000D01*
X-2835000Y-11215000D02*
X-2835000Y-17185000D01*
%TO.C,kibuzzard-652C580D*%
G36*
X-2308250Y4540062D02*
G01*
X-2272531Y4458306D01*
X-2307456Y4376550D01*
X-2412231Y4338450D01*
X-2518594Y4376550D01*
X-2555106Y4459100D01*
X-2518594Y4540856D01*
X-2413025Y4578162D01*
X-2308250Y4540062D01*
G37*
G36*
X-2334444Y4982181D02*
G01*
X-2307456Y4922650D01*
X-2333650Y4862325D01*
X-2411438Y4833750D01*
X-2490813Y4862325D01*
X-2518594Y4923444D01*
X-2493194Y4982975D01*
X-2414613Y5009962D01*
X-2334444Y4982181D01*
G37*
G36*
X-3221063Y4506725D02*
G01*
X-3193281Y4438462D01*
X-3223841Y4358691D01*
X-3315519Y4332100D01*
X-3417119Y4368612D01*
X-3432200Y4403537D01*
X-3436169Y4449575D01*
X-3403625Y4509106D01*
X-3309963Y4538475D01*
X-3221063Y4506725D01*
G37*
G36*
X-112585Y5408580D02*
G01*
X-41030Y5397965D01*
X29141Y5380389D01*
X97251Y5356019D01*
X162644Y5325090D01*
X224691Y5287901D01*
X282793Y5244809D01*
X336393Y5196229D01*
X384972Y5142630D01*
X428064Y5084527D01*
X465253Y5022480D01*
X496182Y4957087D01*
X520552Y4888977D01*
X538129Y4818807D01*
X548743Y4747251D01*
X552293Y4675000D01*
X548743Y4602749D01*
X538129Y4531193D01*
X520552Y4461023D01*
X496182Y4392913D01*
X465253Y4327520D01*
X428064Y4265473D01*
X384972Y4207370D01*
X336393Y4153771D01*
X282793Y4105191D01*
X224691Y4062099D01*
X162644Y4024910D01*
X97251Y3993981D01*
X29141Y3969611D01*
X-41030Y3952035D01*
X-112585Y3941420D01*
X-184836Y3937871D01*
X-184969Y3937871D01*
X-583431Y3937871D01*
X-1472431Y3937871D01*
X-2413819Y3937871D01*
X-3309169Y3937871D01*
X-3971156Y3937871D01*
X-4680769Y3937871D01*
X-5765031Y3937871D01*
X-5765164Y3937871D01*
X-5837415Y3941420D01*
X-5908970Y3952035D01*
X-5979141Y3969611D01*
X-6047251Y3993981D01*
X-6112644Y4024910D01*
X-6174691Y4062099D01*
X-6232793Y4105191D01*
X-6286393Y4153771D01*
X-6334972Y4207370D01*
X-6353303Y4232087D01*
X-5765031Y4232087D01*
X-5762650Y4176525D01*
X-5749156Y4135250D01*
X-5707484Y4103103D01*
X-5626919Y4092387D01*
X-5545956Y4102706D01*
X-5503094Y4133662D01*
X-5488013Y4175731D01*
X-5485631Y4230500D01*
X-5485631Y4511487D01*
X-5461819Y4615072D01*
X-5390381Y4649600D01*
X-5316563Y4615072D01*
X-5291956Y4511487D01*
X-5291956Y4233675D01*
X-5289575Y4178906D01*
X-5276081Y4136837D01*
X-5234409Y4103500D01*
X-5153844Y4092387D01*
X-5072088Y4103103D01*
X-5030019Y4135250D01*
X-5014938Y4176525D01*
X-5012556Y4232087D01*
X-5012556Y4509900D01*
X-4992713Y4613087D01*
X-4917306Y4649600D01*
X-4843488Y4615072D01*
X-4818881Y4511487D01*
X-4818881Y4233675D01*
X-4816500Y4178906D01*
X-4803006Y4136837D01*
X-4761334Y4103500D01*
X-4680769Y4092387D01*
X-4599409Y4103103D01*
X-4558531Y4135250D01*
X-4543450Y4177319D01*
X-4541069Y4232087D01*
X-4541069Y4509900D01*
X-4550594Y4645984D01*
X-4579169Y4753669D01*
X-4588175Y4768662D01*
X-4453756Y4768662D01*
X-4430738Y4676587D01*
X-4372794Y4649600D01*
X-4307706Y4654362D01*
X-4307706Y4419412D01*
X-4298181Y4312344D01*
X-4269606Y4228207D01*
X-4221981Y4167000D01*
X-4156012Y4125549D01*
X-4072403Y4100678D01*
X-3971156Y4092387D01*
X-3917975Y4094769D01*
X-3875906Y4108262D01*
X-3842569Y4149934D01*
X-3831456Y4230500D01*
X-3867969Y4336862D01*
X-3910038Y4351944D01*
X-3967188Y4354325D01*
X-4017988Y4373375D01*
X-4031481Y4435287D01*
X-4031481Y4546412D01*
X-3725094Y4546412D01*
X-3713452Y4415267D01*
X-3678527Y4301232D01*
X-3620319Y4204306D01*
X-3539180Y4130664D01*
X-3435463Y4086478D01*
X-3309169Y4071750D01*
X-3205540Y4083744D01*
X-3112672Y4119728D01*
X-3030563Y4179700D01*
X-2966622Y4257487D01*
X-2928257Y4346917D01*
X-2915469Y4447987D01*
X-2918058Y4465450D01*
X-2836094Y4465450D01*
X-2821718Y4353796D01*
X-2778591Y4258017D01*
X-2706713Y4178112D01*
X-2616666Y4118140D01*
X-2519035Y4082157D01*
X-2413819Y4070162D01*
X-2308603Y4082245D01*
X-2210972Y4118493D01*
X-2120925Y4178906D01*
X-2049047Y4259075D01*
X-2005919Y4354590D01*
X-1995043Y4438462D01*
X-1912169Y4438462D01*
X-1894706Y4352737D01*
X-1891531Y4336862D01*
X-1874069Y4295587D01*
X-1834778Y4232484D01*
X-1789931Y4182875D01*
X-1698209Y4121139D01*
X-1592376Y4084097D01*
X-1472431Y4071750D01*
X-1351605Y4084009D01*
X-1245242Y4120786D01*
X-1153344Y4182081D01*
X-1082788Y4262250D01*
X-1074154Y4281300D01*
X-962844Y4281300D01*
X-902519Y4186050D01*
X-889819Y4174937D01*
X-850131Y4144775D01*
X-767581Y4103324D01*
X-678681Y4078453D01*
X-583431Y4070162D01*
X-476363Y4083303D01*
X-381642Y4122726D01*
X-299269Y4188431D01*
X-235769Y4272392D01*
X-197669Y4366584D01*
X-184969Y4471006D01*
X-198374Y4574899D01*
X-238591Y4667503D01*
X-305619Y4748819D01*
X-389403Y4811878D01*
X-479891Y4849713D01*
X-577081Y4862325D01*
X-632644Y4859150D01*
X-616769Y4979800D01*
X-338956Y4979800D01*
X-287363Y4982181D01*
X-248469Y4997262D01*
X-218703Y5036553D01*
X-208781Y5113150D01*
X-219497Y5197287D01*
X-251644Y5240150D01*
X-292919Y5255231D01*
X-348481Y5257612D01*
X-497706Y5257612D01*
X-739006Y5259200D01*
X-803300Y5244119D01*
X-844575Y5209988D01*
X-867594Y5167125D01*
X-878706Y5133787D01*
X-887834Y5067906D01*
X-912044Y4889312D01*
X-935856Y4707941D01*
X-943794Y4633725D01*
X-926331Y4594831D01*
X-852512Y4546412D01*
X-752500Y4516250D01*
X-665981Y4552762D01*
X-589781Y4581337D01*
X-504850Y4550381D01*
X-467544Y4466244D01*
X-501675Y4382900D01*
X-606450Y4352737D01*
X-705669Y4386075D01*
X-812031Y4436875D01*
X-904106Y4384487D01*
X-962844Y4281300D01*
X-1074154Y4281300D01*
X-1040455Y4355648D01*
X-1026344Y4462275D01*
X-1039441Y4543237D01*
X-1078731Y4614675D01*
X-1128737Y4666269D01*
X-1175569Y4700400D01*
X-1175569Y4711512D01*
X-1106777Y4761342D01*
X-1065502Y4828282D01*
X-1051744Y4912331D01*
X-1064267Y5001849D01*
X-1101838Y5085192D01*
X-1164456Y5162363D01*
X-1248770Y5224099D01*
X-1351428Y5261140D01*
X-1472431Y5273488D01*
X-1551211Y5267931D01*
X-1622450Y5251262D01*
X-1727225Y5202050D01*
X-1793106Y5139344D01*
X-1828031Y5089337D01*
X-1864544Y4981387D01*
X-1844700Y4924634D01*
X-1785169Y4875025D01*
X-1697856Y4846450D01*
X-1637531Y4866294D01*
X-1593081Y4925825D01*
X-1583556Y4944875D01*
X-1542281Y4982975D01*
X-1452587Y5002025D01*
X-1364481Y4971863D01*
X-1332731Y4908362D01*
X-1362894Y4861928D01*
X-1453381Y4846450D01*
X-1535931Y4838512D01*
X-1579984Y4795253D01*
X-1594669Y4706750D01*
X-1583953Y4625391D01*
X-1551806Y4584512D01*
X-1510531Y4568637D01*
X-1438300Y4565462D01*
X-1346225Y4532919D01*
X-1307331Y4457512D01*
X-1347019Y4380519D01*
X-1397819Y4354920D01*
X-1470844Y4346387D01*
X-1537519Y4355913D01*
X-1624831Y4432112D01*
X-1672456Y4514662D01*
X-1756594Y4530538D01*
X-1873275Y4507519D01*
X-1912169Y4438462D01*
X-1995043Y4438462D01*
X-1991544Y4465450D01*
X-2000473Y4531728D01*
X-2027263Y4597212D01*
X-2084413Y4683731D01*
X-2120131Y4716275D01*
X-2096319Y4741675D01*
X-2049488Y4816287D01*
X-2026469Y4913125D01*
X-2039169Y5013667D01*
X-2077269Y5101508D01*
X-2140769Y5176650D01*
X-2221555Y5233976D01*
X-2311513Y5268372D01*
X-2410644Y5279838D01*
X-2510127Y5268549D01*
X-2601144Y5234682D01*
X-2683694Y5178237D01*
X-2748958Y5104507D01*
X-2788116Y5018782D01*
X-2801169Y4921062D01*
X-2774975Y4810731D01*
X-2732906Y4741675D01*
X-2705919Y4716275D01*
X-2739256Y4686112D01*
X-2803550Y4594831D01*
X-2827958Y4531133D01*
X-2836094Y4465450D01*
X-2918058Y4465450D01*
X-2927904Y4531860D01*
X-2965210Y4609912D01*
X-3027388Y4682144D01*
X-3107027Y4739911D01*
X-3196721Y4774572D01*
X-3296469Y4786125D01*
X-3413944Y4759137D01*
X-3406006Y4781362D01*
X-3376638Y4836925D01*
X-3320281Y4898837D01*
X-3224238Y4952812D01*
X-3098031Y4975037D01*
X-3005956Y4984562D01*
X-2974206Y5005200D01*
X-2955156Y5046475D01*
X-2947219Y5119500D01*
X-2956744Y5195700D01*
X-2994050Y5240944D01*
X-3082156Y5256025D01*
X-3196488Y5247897D01*
X-3300723Y5223513D01*
X-3394862Y5182873D01*
X-3478904Y5125977D01*
X-3552850Y5052825D01*
X-3614858Y4967544D01*
X-3663086Y4874263D01*
X-3697535Y4772981D01*
X-3718204Y4663697D01*
X-3725094Y4546412D01*
X-4031481Y4546412D01*
X-4031481Y4654362D01*
X-3928294Y4648012D01*
X-3873525Y4650394D01*
X-3831456Y4663887D01*
X-3799309Y4705559D01*
X-3788594Y4786125D01*
X-3798913Y4867484D01*
X-3829869Y4908362D01*
X-3871938Y4923444D01*
X-3925913Y4925825D01*
X-4031481Y4919475D01*
X-4031481Y5075050D01*
X-4039419Y5156013D01*
X-4081884Y5200066D01*
X-4168006Y5214750D01*
X-4249366Y5204828D01*
X-4290244Y5175063D01*
X-4305325Y5136962D01*
X-4307706Y5082987D01*
X-4307706Y4919475D01*
X-4360094Y4925825D01*
X-4423594Y4905187D01*
X-4445819Y4863119D01*
X-4453756Y4768662D01*
X-4588175Y4768662D01*
X-4626794Y4832956D01*
X-4722838Y4906180D01*
X-4839519Y4930587D01*
X-4950644Y4899631D01*
X-5029225Y4842481D01*
X-5071294Y4792475D01*
X-5133383Y4869204D01*
X-5213816Y4915242D01*
X-5312594Y4930587D01*
X-5409828Y4902409D01*
X-5491981Y4817875D01*
X-5518969Y4900425D01*
X-5634856Y4929000D01*
X-5707484Y4918284D01*
X-5747569Y4886137D01*
X-5762650Y4845656D01*
X-5765031Y4790887D01*
X-5765031Y4232087D01*
X-6353303Y4232087D01*
X-6378064Y4265473D01*
X-6415253Y4327520D01*
X-6446182Y4392913D01*
X-6470552Y4461023D01*
X-6488129Y4531193D01*
X-6498743Y4602749D01*
X-6502293Y4675000D01*
X-6498743Y4747251D01*
X-6488129Y4818807D01*
X-6470552Y4888977D01*
X-6446182Y4957087D01*
X-6415253Y5022480D01*
X-6378064Y5084527D01*
X-6334972Y5142630D01*
X-6286393Y5196229D01*
X-6232793Y5244809D01*
X-6174691Y5287901D01*
X-6112644Y5325090D01*
X-6047251Y5356019D01*
X-5979141Y5380389D01*
X-5908970Y5397965D01*
X-5837415Y5408580D01*
X-5765164Y5412129D01*
X-5765031Y5412129D01*
X-184969Y5412129D01*
X-184836Y5412129D01*
X-112585Y5408580D01*
G37*
D10*
%TO.C,U401*%
X-2825000Y-3375000D02*
X-2825000Y2250000D01*
X2725000Y-2250000D02*
X2725000Y2250000D01*
D11*
%TO.C,C108*%
X6286252Y-8410000D02*
X5763748Y-8410000D01*
X6286252Y-6940000D02*
X5763748Y-6940000D01*
%TO.C,C502*%
X11860000Y-7777164D02*
X11860000Y-7992836D01*
X11140000Y-7777164D02*
X11140000Y-7992836D01*
%TO.C,D603*%
X11540000Y-2075000D02*
X11540000Y-3775000D01*
X11540000Y-2075000D02*
X14200000Y-2075000D01*
X11540000Y-3775000D02*
X14200000Y-3775000D01*
%TO.C,C501*%
X6286252Y-10485000D02*
X5763748Y-10485000D01*
X6286252Y-9015000D02*
X5763748Y-9015000D01*
%TO.C,JP101*%
X3700000Y-4600000D02*
X3700000Y-4000000D01*
X4400000Y-3300000D02*
X5800000Y-3300000D01*
X5800000Y-5300000D02*
X4400000Y-5300000D01*
X6500000Y-4000000D02*
X6500000Y-4600000D01*
X4400000Y-3300000D02*
G75*
G03*
X3700000Y-4000000I-1J-699999D01*
G01*
X3700000Y-4600000D02*
G75*
G03*
X4400000Y-5300000I699999J-1D01*
G01*
X6500000Y-4000000D02*
G75*
G03*
X5800000Y-3300000I-700000J0D01*
G01*
X5800000Y-5300000D02*
G75*
G03*
X6500000Y-4600000I0J700000D01*
G01*
%TO.C,R306*%
X-11002341Y8435060D02*
X-10785060Y8652341D01*
X-10464940Y7897659D02*
X-10247659Y8114940D01*
%TO.C,R104*%
X4570000Y-2203641D02*
X4570000Y-1896359D01*
X5330000Y-2203641D02*
X5330000Y-1896359D01*
%TO.C,R504*%
X14977500Y7687742D02*
X14977500Y8162258D01*
X16022500Y7687742D02*
X16022500Y8162258D01*
%TO.C,C306*%
X-15978307Y4319190D02*
X-16130810Y4471693D01*
X-15469190Y4828307D02*
X-15621693Y4980810D01*
%TO.C,C107*%
X8636252Y13490000D02*
X8113748Y13490000D01*
X8636252Y14960000D02*
X8113748Y14960000D01*
D12*
%TO.C,U701*%
X-3310000Y7140000D02*
X-4970000Y7140000D01*
X-3310000Y7780000D02*
X-3310000Y7140000D01*
X-3310000Y10190000D02*
X-3310000Y10830000D01*
X-3310000Y10830000D02*
X-4970000Y10830000D01*
X-6360000Y7140000D02*
X-7000000Y7140000D01*
X-7000000Y7140000D02*
X-7000000Y7910000D01*
X-7000000Y10190000D02*
X-7000000Y10830000D01*
X-7000000Y10830000D02*
X-6360000Y10830000D01*
X-2630000Y7400000D02*
G75*
G03*
X-2630000Y7400000I-180000J0D01*
G01*
%TD*%
M02*
