%TF.GenerationSoftware,KiCad,Pcbnew,7.0.9*%
%TF.CreationDate,2023-11-17T16:04:09-05:00*%
%TF.ProjectId,lemon-pepper,6c656d6f-6e2d-4706-9570-7065722e6b69,rev?*%
%TF.SameCoordinates,PX8b85c60PY52f2218*%
%TF.FileFunction,Copper,L3,Inr*%
%TF.FilePolarity,Positive*%
%FSLAX46Y46*%
G04 Gerber Fmt 4.6, Leading zero omitted, Abs format (unit mm)*
G04 Created by KiCad (PCBNEW 7.0.9) date 2023-11-17 16:04:09*
%MOMM*%
%LPD*%
G01*
G04 APERTURE LIST*
G04 Aperture macros list*
%AMRoundRect*
0 Rectangle with rounded corners*
0 $1 Rounding radius*
0 $2 $3 $4 $5 $6 $7 $8 $9 X,Y pos of 4 corners*
0 Add a 4 corners polygon primitive as box body*
4,1,4,$2,$3,$4,$5,$6,$7,$8,$9,$2,$3,0*
0 Add four circle primitives for the rounded corners*
1,1,$1+$1,$2,$3*
1,1,$1+$1,$4,$5*
1,1,$1+$1,$6,$7*
1,1,$1+$1,$8,$9*
0 Add four rect primitives between the rounded corners*
20,1,$1+$1,$2,$3,$4,$5,0*
20,1,$1+$1,$4,$5,$6,$7,0*
20,1,$1+$1,$6,$7,$8,$9,0*
20,1,$1+$1,$8,$9,$2,$3,0*%
G04 Aperture macros list end*
%TA.AperFunction,ComponentPad*%
%ADD10C,1.000000*%
%TD*%
%TA.AperFunction,ComponentPad*%
%ADD11O,1.750000X2.000000*%
%TD*%
%TA.AperFunction,ComponentPad*%
%ADD12O,1.750000X1.750000*%
%TD*%
%TA.AperFunction,HeatsinkPad*%
%ADD13C,0.500000*%
%TD*%
%TA.AperFunction,ComponentPad*%
%ADD14C,5.800000*%
%TD*%
%TA.AperFunction,ComponentPad*%
%ADD15O,1.700000X1.950000*%
%TD*%
%TA.AperFunction,ComponentPad*%
%ADD16RoundRect,0.250000X0.600000X0.725000X-0.600000X0.725000X-0.600000X-0.725000X0.600000X-0.725000X0*%
%TD*%
%TA.AperFunction,ViaPad*%
%ADD17C,0.800000*%
%TD*%
%TA.AperFunction,ViaPad*%
%ADD18C,0.450000*%
%TD*%
%TA.AperFunction,Conductor*%
%ADD19C,1.000000*%
%TD*%
%TA.AperFunction,Conductor*%
%ADD20C,0.400000*%
%TD*%
G04 APERTURE END LIST*
D10*
%TO.N,GND*%
%TO.C,J201*%
X-9073223Y-12467336D03*
X-6032664Y-9426777D03*
X-12467336Y-9073223D03*
X-9426777Y-6032664D03*
%TD*%
D11*
%TO.N,/current sense/V_OUT*%
%TO.C,M101*%
X3800000Y12150000D03*
D12*
X3800000Y14900000D03*
D13*
X3800000Y16775000D03*
D11*
%TO.N,/half bridges/OUT1B*%
X1300000Y12150000D03*
D12*
X1300000Y14900000D03*
D13*
X1300000Y16775000D03*
D11*
%TO.N,/current sense/W_IN*%
X-1200000Y12150000D03*
D12*
X-1200000Y14900000D03*
D13*
X-1200000Y16775000D03*
D11*
%TO.N,/current sense/U_OUT*%
X-3700000Y12150000D03*
D12*
X-3700000Y14900000D03*
D13*
X-3700000Y16775000D03*
%TD*%
D14*
%TO.N,GND*%
%TO.C,H101*%
X13000000Y-13000000D03*
X13000000Y13000000D03*
X-13000000Y-13000000D03*
X-13000000Y13000000D03*
%TD*%
D15*
%TO.N,/mcu/CANH*%
%TO.C,J101*%
X-275000Y-14725000D03*
%TO.N,/mcu/CANL*%
X2225000Y-14725000D03*
%TO.N,GND*%
X4725000Y-14725000D03*
D16*
%TO.N,Vmot*%
X7225000Y-14725000D03*
%TD*%
D17*
%TO.N,GND*%
X-11650000Y1950000D03*
D18*
%TO.N,/current sense/U_SENSE*%
X-7000000Y10800000D03*
X-15325000Y3275000D03*
%TO.N,/current sense/V_SENSE*%
X-8800000Y-2750000D03*
X-2025000Y7925000D03*
%TO.N,/half bridges/IN1B*%
X-13975000Y4500000D03*
%TO.N,/mcu/USER_BTN*%
X-11800000Y7800000D03*
%TO.N,/half bridges/IN2B*%
X4950000Y4350000D03*
X-14425000Y4075000D03*
%TO.N,/half bridges/IN1B*%
X5356234Y4756234D03*
%TO.N,/mcu/USER_BTN*%
X13550000Y4650000D03*
D17*
%TO.N,/half bridges/OUT1B*%
X6625000Y6500000D03*
%TO.N,/current sense/W_IN*%
X4075000Y5575000D03*
%TO.N,GND*%
X-1975000Y50000D03*
X7675000Y2750000D03*
X-14630320Y-2499121D03*
X-4239500Y50000D03*
X-2375000Y-14600000D03*
X15825000Y-2175000D03*
X-10375000Y675000D03*
X7675000Y1725000D03*
X-9125000Y1975000D03*
X-10375000Y1950000D03*
X10585647Y5435647D03*
X11325000Y4725000D03*
X-10375000Y3150000D03*
X-1950000Y-1300000D03*
X8675000Y2725000D03*
X9241218Y-6299500D03*
X1475000Y-6125000D03*
X6625000Y2800000D03*
X9910647Y6110647D03*
X-7550000Y-13000000D03*
X-250000Y-6800000D03*
X-5395400Y-6375500D03*
X-2400000Y-16525000D03*
X7700000Y3775000D03*
X2223639Y600498D03*
%TO.N,Vmot*%
X3900000Y650000D03*
X-6275000Y16250000D03*
X4550000Y0D03*
X6305664Y12175000D03*
X6275000Y14250000D03*
X9950000Y-3975000D03*
X9025000Y-4375000D03*
X5450000Y175000D03*
X-6250000Y12175000D03*
X-6250000Y14225000D03*
X9850000Y-5000000D03*
X6250000Y16250000D03*
D18*
%TO.N,/mcu/USBD_P*%
X-5375000Y-10325000D03*
X-9650000Y-8850000D03*
X-8825000Y-9650000D03*
D17*
%TO.N,+3V3*%
X16800000Y-5900000D03*
X500000Y-12150000D03*
X-6250000Y-16625000D03*
X-1700000Y-12150000D03*
X14875000Y-6725000D03*
X-625000Y-12150000D03*
X-4964000Y-1025000D03*
X-12874972Y-2731439D03*
X2225000Y1600000D03*
X-2200000Y-11200000D03*
D18*
X-293750Y9250000D03*
D17*
X-1125000Y-11200000D03*
X-7850000Y8675000D03*
X14875000Y-7625000D03*
X-300000Y-8700000D03*
X14425000Y-3550000D03*
X-10524127Y-3153111D03*
X14875000Y-8475000D03*
D18*
%TO.N,/mcu/RESET*%
X-15925000Y3250000D03*
X-12412500Y8637500D03*
X-3150000Y-6775000D03*
D17*
%TO.N,/current sense/W_IN*%
X4075000Y4700500D03*
%TO.N,/usb/USB_5V*%
X-9725000Y-11475000D03*
X-11550000Y-9800000D03*
X-6975000Y-8750000D03*
X-4725000Y-8900000D03*
X-8806854Y-7050000D03*
D18*
%TO.N,/mcu/USER_2*%
X-11950000Y-5525000D03*
X-15525241Y-5099495D03*
D17*
%TO.N,Net-(D603-K)*%
X4750000Y-1600000D03*
X4275000Y2750000D03*
D18*
%TO.N,Net-(D601-K)*%
X6025000Y5500000D03*
X10300000Y800000D03*
X10850000Y-5650000D03*
%TO.N,/usb/UCPD_CC2*%
X-7700000Y-10825000D03*
X-6075000Y-10850000D03*
%TO.N,/half bridges/ENA*%
X8913556Y-536444D03*
X4225000Y3750000D03*
X9675000Y-1225000D03*
X-9248497Y-3163205D03*
%TO.N,/encoder/SCK*%
X775000Y-4000000D03*
X-16600000Y2175000D03*
%TO.N,/encoder/CIPO*%
X-15900000Y1550000D03*
X-600000Y-4000000D03*
%TO.N,/encoder/COPI*%
X62132Y-4000000D03*
X-15925000Y2175000D03*
%TO.N,/encoder/CS*%
X1425000Y-4000000D03*
X-14650000Y-800000D03*
%TO.N,/encoder/CAL_EN*%
X-15900000Y400000D03*
X-1225000Y-3975000D03*
%TO.N,/mcu/USER_3*%
X-11250000Y-5450000D03*
X-15522442Y-4525000D03*
%TO.N,/mcu/USER_1*%
X-11060733Y-6359180D03*
X-15524934Y-5673997D03*
%TO.N,/mcu/CAN_TX*%
X-3975000Y2675000D03*
X-8500000Y6125000D03*
%TO.N,/mcu/CAN_RX*%
X-8875000Y6600000D03*
X-3375000Y2675000D03*
%TO.N,/mcu/TIM4_CH1*%
X-7575000Y5300000D03*
X-14750000Y-150000D03*
%TO.N,/half bridges/IN1A*%
X-6375000Y-1425000D03*
X9362009Y-75504D03*
%TO.N,/half bridges/IN2A*%
X9798998Y297449D03*
X-6950497Y-1450000D03*
%TO.N,/mcu/TIM4_CH2*%
X-15325000Y-575000D03*
X-7968766Y5718766D03*
D17*
%TO.N,/half bridges/OUT1B*%
X7575000Y6501000D03*
D18*
%TO.N,/mcu/DIR*%
X2625000Y-3975000D03*
X-5175000Y2675000D03*
X-7525000Y-1450000D03*
%TO.N,/mcu/STEP*%
X-2700000Y-3900000D03*
X-4600497Y2675000D03*
%TO.N,GNDA*%
X-5143750Y6825000D03*
D17*
X3475000Y-11825000D03*
X3475000Y-10900000D03*
D18*
X1506250Y6850000D03*
X1506250Y7500000D03*
D17*
X2325000Y-11850000D03*
D18*
X-5143750Y7475000D03*
%TO.N,/mcu/ADC1_IN12*%
X-14850000Y3675000D03*
X-7000000Y10150497D03*
%TD*%
D19*
%TO.N,/current sense/W_IN*%
X4075000Y4700500D02*
X4075000Y6650000D01*
X4075000Y6650000D02*
X-1200000Y11925000D01*
X-1200000Y11925000D02*
X-1200000Y12150000D01*
%TO.N,/half bridges/OUT1B*%
X7575000Y6501000D02*
X6574000Y6501000D01*
X6574000Y6501000D02*
X1500000Y11575000D01*
X1500000Y11575000D02*
X1500000Y12150000D01*
D20*
X1500000Y12150000D02*
X1300000Y12150000D01*
%TD*%
%TA.AperFunction,Conductor*%
%TO.N,GND*%
G36*
X-4322085Y17479538D02*
G01*
X-4267547Y17425000D01*
X-4247585Y17350500D01*
X-4267547Y17276000D01*
X-4285490Y17252617D01*
X-4285259Y17252433D01*
X-4290477Y17245890D01*
X-4380456Y17102691D01*
X-4436314Y16943057D01*
X-4455249Y16775001D01*
X-4455249Y16775000D01*
X-4436314Y16606944D01*
X-4380456Y16447310D01*
X-4300212Y16319603D01*
X-4277478Y16245902D01*
X-4294641Y16170707D01*
X-4347101Y16114168D01*
X-4355458Y16109289D01*
X-4454901Y16055473D01*
X-4634794Y15915457D01*
X-4789179Y15747750D01*
X-4789181Y15747748D01*
X-4789183Y15747745D01*
X-4853270Y15649653D01*
X-4913864Y15556907D01*
X-5005430Y15348157D01*
X-5061391Y15127172D01*
X-5080214Y14900002D01*
X-5080214Y14899999D01*
X-5061391Y14672829D01*
X-5061391Y14672826D01*
X-5061390Y14672824D01*
X-5041246Y14593279D01*
X-5005430Y14451844D01*
X-4913864Y14243094D01*
X-4913862Y14243091D01*
X-4789183Y14052255D01*
X-4634794Y13884544D01*
X-4454906Y13744531D01*
X-4405931Y13718027D01*
X-4349911Y13665012D01*
X-4327904Y13591091D01*
X-4345805Y13516069D01*
X-4398725Y13460107D01*
X-4520875Y13384897D01*
X-4696640Y13230205D01*
X-4843733Y13048034D01*
X-4957925Y12843622D01*
X-4957926Y12843620D01*
X-5035930Y12622847D01*
X-5076483Y12386337D01*
X-5108749Y12316282D01*
X-5171719Y12271746D01*
X-5248521Y12264661D01*
X-5318576Y12296927D01*
X-5363112Y12359897D01*
X-5365047Y12365474D01*
X-5375241Y12396849D01*
X-5422821Y12543284D01*
X-5517467Y12707216D01*
X-5517468Y12707217D01*
X-5517470Y12707221D01*
X-5644128Y12847887D01*
X-5652410Y12853904D01*
X-5797270Y12959151D01*
X-5797271Y12959152D01*
X-5797273Y12959153D01*
X-5970195Y13036143D01*
X-5970197Y13036144D01*
X-6055410Y13054257D01*
X-6124131Y13089272D01*
X-6166137Y13153957D01*
X-6170174Y13230979D01*
X-6135158Y13299701D01*
X-6070473Y13341707D01*
X-6055413Y13345743D01*
X-5970197Y13363856D01*
X-5797270Y13440849D01*
X-5644129Y13552112D01*
X-5568562Y13636037D01*
X-5517470Y13692780D01*
X-5517469Y13692782D01*
X-5517467Y13692784D01*
X-5422821Y13856716D01*
X-5364326Y14036744D01*
X-5344540Y14225000D01*
X-5364326Y14413256D01*
X-5422821Y14593284D01*
X-5517467Y14757216D01*
X-5517468Y14757217D01*
X-5517470Y14757221D01*
X-5644128Y14897887D01*
X-5649199Y14901571D01*
X-5797270Y15009151D01*
X-5797271Y15009152D01*
X-5797273Y15009153D01*
X-5970195Y15086143D01*
X-5970197Y15086144D01*
X-6009104Y15094414D01*
X-6077823Y15129428D01*
X-6119830Y15194113D01*
X-6123867Y15271136D01*
X-6088852Y15339857D01*
X-6024167Y15381864D01*
X-6009108Y15385900D01*
X-5995197Y15388856D01*
X-5822270Y15465849D01*
X-5669129Y15577112D01*
X-5565214Y15692521D01*
X-5542470Y15717780D01*
X-5542469Y15717782D01*
X-5542467Y15717784D01*
X-5447821Y15881716D01*
X-5389326Y16061744D01*
X-5369540Y16250000D01*
X-5389326Y16438256D01*
X-5447821Y16618284D01*
X-5542467Y16782216D01*
X-5542468Y16782217D01*
X-5542470Y16782221D01*
X-5669128Y16922887D01*
X-5696890Y16943057D01*
X-5822270Y17034151D01*
X-5822271Y17034152D01*
X-5822273Y17034153D01*
X-5976209Y17102690D01*
X-5995197Y17111144D01*
X-6101640Y17133769D01*
X-6180352Y17150500D01*
X-6180354Y17150500D01*
X-6369646Y17150500D01*
X-6369648Y17150500D01*
X-6449541Y17133518D01*
X-6554803Y17111144D01*
X-6554805Y17111144D01*
X-6554806Y17111143D01*
X-6727728Y17034153D01*
X-6880873Y16922887D01*
X-7007531Y16782221D01*
X-7102178Y16618286D01*
X-7102181Y16618279D01*
X-7160675Y16438255D01*
X-7180460Y16250000D01*
X-7160675Y16061746D01*
X-7126880Y15957736D01*
X-7102179Y15881716D01*
X-7102178Y15881715D01*
X-7007531Y15717780D01*
X-6897126Y15595165D01*
X-6880871Y15577112D01*
X-6727730Y15465849D01*
X-6554803Y15388856D01*
X-6515897Y15380587D01*
X-6447179Y15345574D01*
X-6405171Y15280890D01*
X-6401133Y15203868D01*
X-6436148Y15135145D01*
X-6500832Y15093137D01*
X-6515892Y15089102D01*
X-6529802Y15086145D01*
X-6702728Y15009153D01*
X-6855873Y14897887D01*
X-6982531Y14757221D01*
X-7077178Y14593286D01*
X-7077181Y14593279D01*
X-7135675Y14413255D01*
X-7155460Y14225000D01*
X-7135675Y14036746D01*
X-7115617Y13975015D01*
X-7077179Y13856716D01*
X-7041887Y13795588D01*
X-6982531Y13692780D01*
X-6859305Y13555926D01*
X-6855871Y13552112D01*
X-6702730Y13440849D01*
X-6529803Y13363856D01*
X-6444592Y13345744D01*
X-6375870Y13310728D01*
X-6333863Y13246043D01*
X-6329827Y13169021D01*
X-6364843Y13100299D01*
X-6429528Y13058292D01*
X-6444592Y13054257D01*
X-6529803Y13036144D01*
X-6529805Y13036144D01*
X-6529806Y13036143D01*
X-6702728Y12959153D01*
X-6855873Y12847887D01*
X-6982531Y12707221D01*
X-7077178Y12543286D01*
X-7077181Y12543279D01*
X-7135675Y12363255D01*
X-7155460Y12175000D01*
X-7135675Y11986746D01*
X-7086705Y11836034D01*
X-7077179Y11806716D01*
X-7036296Y11735905D01*
X-7016334Y11661404D01*
X-7036296Y11586905D01*
X-7090834Y11532367D01*
X-7148651Y11513342D01*
X-7162459Y11511787D01*
X-7190102Y11502114D01*
X-7316775Y11457789D01*
X-7316777Y11457789D01*
X-7316777Y11457788D01*
X-7455204Y11370808D01*
X-7570808Y11255204D01*
X-7657788Y11116777D01*
X-7711787Y10962459D01*
X-7714387Y10939380D01*
X-7730091Y10800000D01*
X-7712714Y10645771D01*
X-7711786Y10637540D01*
X-7672218Y10524459D01*
X-7666455Y10447546D01*
X-7672218Y10426037D01*
X-7711786Y10312958D01*
X-7730091Y10150498D01*
X-7730091Y10150497D01*
X-7711787Y9988039D01*
X-7711787Y9988037D01*
X-7711786Y9988036D01*
X-7681147Y9900474D01*
X-7657788Y9833720D01*
X-7638971Y9803773D01*
X-7616237Y9730071D01*
X-7633400Y9654877D01*
X-7685860Y9598338D01*
X-7759562Y9575604D01*
X-7765133Y9575500D01*
X-7944648Y9575500D01*
X-8044608Y9554253D01*
X-8129803Y9536144D01*
X-8129805Y9536144D01*
X-8129806Y9536143D01*
X-8302728Y9459153D01*
X-8455873Y9347887D01*
X-8582531Y9207221D01*
X-8677178Y9043286D01*
X-8677181Y9043279D01*
X-8735675Y8863255D01*
X-8755460Y8675000D01*
X-8735675Y8486746D01*
X-8735674Y8486744D01*
X-8677179Y8306716D01*
X-8639685Y8241775D01*
X-8582531Y8142780D01*
X-8455873Y8002114D01*
X-8455871Y8002112D01*
X-8302730Y7890849D01*
X-8129803Y7813856D01*
X-7988685Y7783861D01*
X-7944648Y7774500D01*
X-7944646Y7774500D01*
X-7755352Y7774500D01*
X-7715996Y7782866D01*
X-7570197Y7813856D01*
X-7397270Y7890849D01*
X-7244129Y8002112D01*
X-7167280Y8087461D01*
X-7117470Y8142780D01*
X-7117469Y8142782D01*
X-7117467Y8142784D01*
X-7022821Y8306716D01*
X-6964326Y8486744D01*
X-6944540Y8675000D01*
X-6964326Y8863256D01*
X-7022821Y9043284D01*
X-7112076Y9197879D01*
X-7132037Y9272375D01*
X-7112075Y9346875D01*
X-7057537Y9401413D01*
X-6999721Y9420438D01*
X-6837539Y9438711D01*
X-6683225Y9492708D01*
X-6544796Y9579689D01*
X-6429192Y9695293D01*
X-6342211Y9833722D01*
X-6288214Y9988036D01*
X-6269909Y10150497D01*
X-6288214Y10312958D01*
X-6327783Y10426037D01*
X-6333547Y10502948D01*
X-6327783Y10524459D01*
X-6288214Y10637539D01*
X-6269909Y10800000D01*
X-6288214Y10962461D01*
X-6325772Y11069796D01*
X-6328044Y11076289D01*
X-6333807Y11153201D01*
X-6300342Y11222691D01*
X-6236616Y11266139D01*
X-6187405Y11274500D01*
X-6155352Y11274500D01*
X-6115996Y11282866D01*
X-5970197Y11313856D01*
X-5797270Y11390849D01*
X-5644129Y11502112D01*
X-5535210Y11623078D01*
X-5517470Y11642780D01*
X-5517469Y11642782D01*
X-5517467Y11642784D01*
X-5422821Y11806716D01*
X-5364497Y11986220D01*
X-5322493Y12050899D01*
X-5253771Y12085915D01*
X-5176749Y12081879D01*
X-5112064Y12039872D01*
X-5077048Y11971150D01*
X-5074329Y11952808D01*
X-5060616Y11791699D01*
X-5001618Y11565113D01*
X-5001615Y11565105D01*
X-4905174Y11351753D01*
X-4774061Y11157764D01*
X-4774059Y11157762D01*
X-4774057Y11157759D01*
X-4612044Y10988717D01*
X-4423792Y10849487D01*
X-4214718Y10744074D01*
X-3990837Y10675511D01*
X-3758589Y10645771D01*
X-3524655Y10655708D01*
X-3295766Y10705038D01*
X-3078506Y10792340D01*
X-2879125Y10915104D01*
X-2703359Y11069797D01*
X-2563868Y11242555D01*
X-2501537Y11287975D01*
X-2424843Y11296147D01*
X-2354339Y11264876D01*
X-2324495Y11232384D01*
X-2274061Y11157764D01*
X-2274059Y11157762D01*
X-2274057Y11157759D01*
X-2112044Y10988717D01*
X-1923792Y10849487D01*
X-1714718Y10744074D01*
X-1490837Y10675511D01*
X-1397478Y10663557D01*
X-1326118Y10634295D01*
X-1311044Y10621123D01*
X-734318Y10044397D01*
X-695754Y9977602D01*
X-695754Y9900474D01*
X-734318Y9833679D01*
X-746770Y9822551D01*
X-748949Y9820814D01*
X-864557Y9705205D01*
X-864558Y9705204D01*
X-945991Y9575604D01*
X-951539Y9566775D01*
X-965559Y9526709D01*
X-1005537Y9412459D01*
X-1023841Y9250001D01*
X-1023841Y9250000D01*
X-1005537Y9087542D01*
X-1005537Y9087540D01*
X-1005536Y9087539D01*
X-951539Y8933225D01*
X-864558Y8794796D01*
X-748954Y8679192D01*
X-610525Y8592211D01*
X-456211Y8538214D01*
X-347904Y8526011D01*
X-293751Y8519909D01*
X-293750Y8519909D01*
X-293749Y8519909D01*
X-253135Y8524486D01*
X-131289Y8538214D01*
X23025Y8592211D01*
X161454Y8679192D01*
X277058Y8794796D01*
X277062Y8794804D01*
X278788Y8796966D01*
X280468Y8798207D01*
X282975Y8800713D01*
X283352Y8800336D01*
X340842Y8842770D01*
X417484Y8851411D01*
X488179Y8820573D01*
X500646Y8809433D01*
X1039799Y8270280D01*
X1078363Y8203485D01*
X1078363Y8126357D01*
X1039799Y8059563D01*
X935447Y7955211D01*
X935442Y7955204D01*
X916464Y7925000D01*
X848461Y7816775D01*
X842592Y7800001D01*
X794463Y7662459D01*
X781245Y7545141D01*
X776159Y7500000D01*
X794464Y7337539D01*
X814985Y7278893D01*
X834119Y7224211D01*
X839882Y7147299D01*
X834119Y7125789D01*
X794464Y7012461D01*
X776159Y6850001D01*
X776159Y6850000D01*
X794463Y6687542D01*
X794463Y6687540D01*
X794464Y6687539D01*
X848461Y6533225D01*
X935442Y6394796D01*
X1051046Y6279192D01*
X1189475Y6192211D01*
X1343789Y6138214D01*
X1452096Y6126011D01*
X1506249Y6119909D01*
X1506250Y6119909D01*
X1506251Y6119909D01*
X1546865Y6124486D01*
X1668711Y6138214D01*
X1823025Y6192211D01*
X1961454Y6279192D01*
X2077058Y6394796D01*
X2164039Y6533225D01*
X2218036Y6687539D01*
X2224355Y6743627D01*
X2252532Y6815422D01*
X2312833Y6863510D01*
X2389100Y6875006D01*
X2460897Y6846829D01*
X2477777Y6832302D01*
X3030859Y6279220D01*
X3069423Y6212425D01*
X3074500Y6173861D01*
X3074500Y4649749D01*
X3089925Y4498066D01*
X3089925Y4498065D01*
X3150840Y4303914D01*
X3247257Y4130202D01*
X3249591Y4125998D01*
X3382134Y3971605D01*
X3418599Y3943379D01*
X3442590Y3924808D01*
X3489284Y3863420D01*
X3499449Y3790302D01*
X3494909Y3750004D01*
X3494909Y3750000D01*
X3513214Y3587539D01*
X3547082Y3490749D01*
X3569185Y3427583D01*
X3574948Y3350671D01*
X3545550Y3289626D01*
X3547056Y3288532D01*
X3542466Y3282216D01*
X3447822Y3118286D01*
X3447819Y3118279D01*
X3389325Y2938255D01*
X3369540Y2750000D01*
X3389325Y2561746D01*
X3422013Y2461144D01*
X3447821Y2381716D01*
X3473372Y2337461D01*
X3542469Y2217780D01*
X3644745Y2104193D01*
X3669129Y2077112D01*
X3822270Y1965849D01*
X3995197Y1888856D01*
X4136315Y1858861D01*
X4180352Y1849500D01*
X4180354Y1849500D01*
X4369648Y1849500D01*
X4410694Y1858225D01*
X4554803Y1888856D01*
X4727730Y1965849D01*
X4880871Y2077112D01*
X4969011Y2175001D01*
X5007530Y2217780D01*
X5007531Y2217782D01*
X5007533Y2217784D01*
X5102179Y2381716D01*
X5160674Y2561744D01*
X5180460Y2750000D01*
X5160674Y2938256D01*
X5102179Y3118284D01*
X5007533Y3282216D01*
X5007532Y3282217D01*
X5007530Y3282221D01*
X4938711Y3358651D01*
X4903695Y3427373D01*
X4907731Y3504395D01*
X4908770Y3507476D01*
X4917115Y3531325D01*
X4960563Y3595047D01*
X5030053Y3628511D01*
X5041051Y3630169D01*
X5112461Y3638214D01*
X5266775Y3692211D01*
X5405204Y3779192D01*
X5520808Y3894796D01*
X5607789Y4033225D01*
X5607789Y4033227D01*
X5612241Y4040311D01*
X5614035Y4039184D01*
X5656676Y4088732D01*
X5667454Y4094956D01*
X5673003Y4098444D01*
X5673009Y4098445D01*
X5811438Y4185426D01*
X5927042Y4301030D01*
X6014023Y4439459D01*
X6068020Y4593773D01*
X6074354Y4650000D01*
X12819909Y4650000D01*
X12838213Y4487542D01*
X12838213Y4487540D01*
X12838214Y4487539D01*
X12892211Y4333225D01*
X12979192Y4194796D01*
X13094796Y4079192D01*
X13233225Y3992211D01*
X13387539Y3938214D01*
X13495846Y3926011D01*
X13549999Y3919909D01*
X13550000Y3919909D01*
X13550001Y3919909D01*
X13593480Y3924808D01*
X13712461Y3938214D01*
X13866775Y3992211D01*
X14005204Y4079192D01*
X14120808Y4194796D01*
X14207789Y4333225D01*
X14261786Y4487539D01*
X14280091Y4650000D01*
X14261786Y4812461D01*
X14207789Y4966775D01*
X14120808Y5105204D01*
X14005204Y5220808D01*
X13866775Y5307789D01*
X13712461Y5361786D01*
X13712460Y5361787D01*
X13712458Y5361787D01*
X13550001Y5380091D01*
X13549999Y5380091D01*
X13387541Y5361787D01*
X13318251Y5337541D01*
X13233225Y5307789D01*
X13233223Y5307789D01*
X13233223Y5307788D01*
X13094796Y5220808D01*
X12979192Y5105204D01*
X12902547Y4983224D01*
X12892211Y4966775D01*
X12879060Y4929192D01*
X12838213Y4812459D01*
X12819909Y4650001D01*
X12819909Y4650000D01*
X6074354Y4650000D01*
X6075516Y4660311D01*
X6103693Y4732105D01*
X6163994Y4780194D01*
X6179605Y4785331D01*
X6179563Y4785451D01*
X6187458Y4788214D01*
X6187461Y4788214D01*
X6341775Y4842211D01*
X6480204Y4929192D01*
X6595808Y5044796D01*
X6682789Y5183225D01*
X6736786Y5337539D01*
X6740239Y5368184D01*
X6768418Y5439980D01*
X6828719Y5488068D01*
X6888302Y5500500D01*
X7625751Y5500500D01*
X7730762Y5511180D01*
X7777438Y5515926D01*
X7971588Y5576841D01*
X8149502Y5675591D01*
X8303895Y5808134D01*
X8428448Y5969042D01*
X8518060Y6151729D01*
X8569063Y6348715D01*
X8579369Y6551936D01*
X8548556Y6753071D01*
X8487927Y6916775D01*
X8477888Y6943882D01*
X8477883Y6943892D01*
X8370253Y7116570D01*
X8230060Y7264052D01*
X8225521Y7267211D01*
X8135179Y7330091D01*
X8063048Y7380296D01*
X7876063Y7460539D01*
X7876056Y7460541D01*
X7728294Y7490906D01*
X7676741Y7501500D01*
X7676740Y7501500D01*
X7050138Y7501500D01*
X6975638Y7521462D01*
X6944779Y7545141D01*
X4052628Y10437292D01*
X4014064Y10504087D01*
X4014064Y10581215D01*
X4052628Y10648010D01*
X4119423Y10686574D01*
X4126548Y10688296D01*
X4204234Y10705038D01*
X4421494Y10792340D01*
X4620875Y10915104D01*
X4796641Y11069797D01*
X4943735Y11251970D01*
X5057926Y11456381D01*
X5135929Y11677151D01*
X5166780Y11857078D01*
X5199044Y11927129D01*
X5262014Y11971666D01*
X5338816Y11978751D01*
X5408871Y11946486D01*
X5453408Y11883516D01*
X5455343Y11877939D01*
X5478485Y11806716D01*
X5519368Y11735905D01*
X5573133Y11642780D01*
X5691082Y11511786D01*
X5699793Y11502112D01*
X5852934Y11390849D01*
X6025861Y11313856D01*
X6147623Y11287975D01*
X6211016Y11274500D01*
X6211018Y11274500D01*
X6400312Y11274500D01*
X6439668Y11282866D01*
X6585467Y11313856D01*
X6758394Y11390849D01*
X6911535Y11502112D01*
X7020454Y11623078D01*
X7038194Y11642780D01*
X7038195Y11642782D01*
X7038197Y11642784D01*
X7132843Y11806716D01*
X7191338Y11986744D01*
X7211124Y12175000D01*
X7191338Y12363256D01*
X7132843Y12543284D01*
X7038197Y12707216D01*
X7038196Y12707217D01*
X7038194Y12707221D01*
X6911536Y12847887D01*
X6903254Y12853904D01*
X6758394Y12959151D01*
X6758393Y12959152D01*
X6758391Y12959153D01*
X6666647Y13000000D01*
X9595006Y13000000D01*
X9614965Y12631864D01*
X9614965Y12631858D01*
X9674613Y12268026D01*
X9674613Y12268024D01*
X9773247Y11912779D01*
X9773249Y11912774D01*
X9909709Y11570285D01*
X9909715Y11570272D01*
X10082404Y11244544D01*
X10082407Y11244539D01*
X10289303Y10939392D01*
X10289312Y10939380D01*
X10425496Y10779052D01*
X10425497Y10779052D01*
X11741350Y12094906D01*
X11795456Y12016520D01*
X11968816Y11836034D01*
X12094865Y11741314D01*
X10776520Y10422969D01*
X10795657Y10404841D01*
X10795658Y10404840D01*
X11089165Y10181722D01*
X11405066Y9991650D01*
X11739684Y9836840D01*
X11739694Y9836835D01*
X12089063Y9719120D01*
X12449131Y9639863D01*
X12815656Y9600001D01*
X12815666Y9600000D01*
X13184334Y9600000D01*
X13184343Y9600001D01*
X13550868Y9639863D01*
X13550869Y9639863D01*
X13910936Y9719120D01*
X14260305Y9836835D01*
X14260315Y9836840D01*
X14594933Y9991650D01*
X14910834Y10181722D01*
X15204352Y10404849D01*
X15223479Y10422968D01*
X13906879Y11739568D01*
X13934180Y11756832D01*
X14121501Y11922784D01*
X14260511Y12093042D01*
X15574501Y10779052D01*
X15710690Y10939383D01*
X15710694Y10939389D01*
X15917592Y11244539D01*
X15917595Y11244544D01*
X16090284Y11570272D01*
X16090290Y11570285D01*
X16226750Y11912774D01*
X16226752Y11912779D01*
X16325386Y12268024D01*
X16325386Y12268026D01*
X16385034Y12631858D01*
X16385034Y12631864D01*
X16404994Y13000000D01*
X16404994Y13000009D01*
X16385034Y13368137D01*
X16385034Y13368143D01*
X16325386Y13731975D01*
X16325386Y13731977D01*
X16226752Y14087222D01*
X16226750Y14087227D01*
X16090290Y14429716D01*
X16090284Y14429729D01*
X15917595Y14755457D01*
X15917592Y14755462D01*
X15710696Y15060609D01*
X15710687Y15060621D01*
X15574502Y15220950D01*
X15574501Y15220950D01*
X14258648Y13905097D01*
X14204544Y13983480D01*
X14031184Y14163966D01*
X13905132Y14258688D01*
X15223479Y15577034D01*
X15204347Y15595156D01*
X14910834Y15818279D01*
X14594933Y16008351D01*
X14260315Y16163161D01*
X14260305Y16163166D01*
X13910936Y16280881D01*
X13550868Y16360138D01*
X13184343Y16400000D01*
X12815656Y16400000D01*
X12449131Y16360138D01*
X12449130Y16360138D01*
X12089063Y16280881D01*
X11739694Y16163166D01*
X11739684Y16163161D01*
X11405066Y16008351D01*
X11089165Y15818279D01*
X10795663Y15595165D01*
X10776520Y15577033D01*
X12093120Y14260433D01*
X12065820Y14243168D01*
X11878499Y14077216D01*
X11739488Y13906959D01*
X10425497Y15220950D01*
X10425496Y15220950D01*
X10289308Y15060617D01*
X10289306Y15060614D01*
X10082402Y14755453D01*
X9909715Y14429729D01*
X9909709Y14429716D01*
X9773249Y14087227D01*
X9773247Y14087222D01*
X9674613Y13731977D01*
X9674613Y13731975D01*
X9614965Y13368143D01*
X9614965Y13368137D01*
X9595006Y13000009D01*
X9595006Y13000000D01*
X6666647Y13000000D01*
X6585469Y13036143D01*
X6585467Y13036144D01*
X6460930Y13062615D01*
X6426116Y13070015D01*
X6357394Y13105031D01*
X6315387Y13169716D01*
X6311351Y13246738D01*
X6346367Y13315460D01*
X6411052Y13357467D01*
X6426116Y13361503D01*
X6554803Y13388856D01*
X6727730Y13465849D01*
X6880871Y13577112D01*
X6961478Y13666635D01*
X7007530Y13717780D01*
X7007531Y13717782D01*
X7007533Y13717784D01*
X7102179Y13881716D01*
X7160674Y14061744D01*
X7180460Y14250000D01*
X7160674Y14438256D01*
X7102179Y14618284D01*
X7007533Y14782216D01*
X7007532Y14782217D01*
X7007530Y14782221D01*
X6880872Y14922887D01*
X6849322Y14945809D01*
X6727730Y15034151D01*
X6727729Y15034152D01*
X6727727Y15034153D01*
X6554800Y15111146D01*
X6548911Y15113059D01*
X6484227Y15155067D01*
X6449213Y15223790D01*
X6453252Y15300812D01*
X6495260Y15365496D01*
X6534350Y15390881D01*
X6702730Y15465849D01*
X6855871Y15577112D01*
X6959786Y15692521D01*
X6982530Y15717780D01*
X6982531Y15717782D01*
X6982533Y15717784D01*
X7077179Y15881716D01*
X7135674Y16061744D01*
X7155460Y16250000D01*
X7135674Y16438256D01*
X7077179Y16618284D01*
X6982533Y16782216D01*
X6982532Y16782217D01*
X6982530Y16782221D01*
X6855872Y16922887D01*
X6828110Y16943057D01*
X6702730Y17034151D01*
X6702729Y17034152D01*
X6702727Y17034153D01*
X6548791Y17102690D01*
X6529803Y17111144D01*
X6423360Y17133769D01*
X6344648Y17150500D01*
X6344646Y17150500D01*
X6155354Y17150500D01*
X6155352Y17150500D01*
X6075459Y17133518D01*
X5970197Y17111144D01*
X5970195Y17111144D01*
X5970194Y17111143D01*
X5797272Y17034153D01*
X5644127Y16922887D01*
X5517469Y16782221D01*
X5422822Y16618286D01*
X5422819Y16618279D01*
X5364325Y16438255D01*
X5344540Y16250000D01*
X5364325Y16061746D01*
X5398120Y15957736D01*
X5422821Y15881716D01*
X5422822Y15881715D01*
X5517469Y15717780D01*
X5627874Y15595165D01*
X5644129Y15577112D01*
X5797270Y15465849D01*
X5970197Y15388856D01*
X5970200Y15388856D01*
X5976082Y15386944D01*
X6040768Y15344939D01*
X6075784Y15276218D01*
X6071749Y15199195D01*
X6029744Y15134509D01*
X5990646Y15109118D01*
X5822271Y15034152D01*
X5669127Y14922887D01*
X5542469Y14782221D01*
X5447818Y14618279D01*
X5447449Y14617449D01*
X5447067Y14616979D01*
X5443917Y14611521D01*
X5443052Y14612021D01*
X5398907Y14557512D01*
X5326900Y14529875D01*
X5250723Y14541945D01*
X5190786Y14590487D01*
X5163149Y14662494D01*
X5162843Y14690364D01*
X5168237Y14755453D01*
X5180214Y14900000D01*
X5178317Y14922888D01*
X5164545Y15089102D01*
X5161390Y15127176D01*
X5105430Y15348155D01*
X5013862Y15556909D01*
X4889183Y15747745D01*
X4734794Y15915456D01*
X4554906Y16055469D01*
X4554905Y16055470D01*
X4455457Y16109288D01*
X4399437Y16162302D01*
X4377430Y16236224D01*
X4395331Y16311246D01*
X4400204Y16319591D01*
X4480456Y16447310D01*
X4536313Y16606941D01*
X4555249Y16775000D01*
X4536313Y16943059D01*
X4480456Y17102690D01*
X4390477Y17245890D01*
X4390472Y17245895D01*
X4385259Y17252433D01*
X4386462Y17253393D01*
X4352662Y17311936D01*
X4352662Y17389064D01*
X4391226Y17455859D01*
X4458021Y17494423D01*
X4496585Y17499500D01*
X12999500Y17499500D01*
X13000000Y17499500D01*
X13194602Y17491004D01*
X13394966Y17481740D01*
X13401221Y17481185D01*
X13601571Y17454808D01*
X13795578Y17427745D01*
X13801345Y17426705D01*
X13999710Y17382729D01*
X14189661Y17338052D01*
X14194977Y17336592D01*
X14322788Y17296293D01*
X14389219Y17275347D01*
X14422180Y17264300D01*
X14574134Y17213371D01*
X14578906Y17211585D01*
X14767440Y17133491D01*
X14945794Y17054740D01*
X14950060Y17052690D01*
X15131369Y16958307D01*
X15158747Y16943057D01*
X15301681Y16863443D01*
X15305458Y16861190D01*
X15391522Y16806363D01*
X15478058Y16751233D01*
X15639014Y16640976D01*
X15642239Y16638636D01*
X15804780Y16513914D01*
X15955012Y16389163D01*
X15957715Y16386804D01*
X16107011Y16250000D01*
X16108911Y16248259D01*
X16248258Y16108912D01*
X16386798Y15957722D01*
X16389175Y15954998D01*
X16513912Y15804783D01*
X16638634Y15642241D01*
X16640984Y15639002D01*
X16751229Y15478064D01*
X16759012Y15465848D01*
X16861188Y15305460D01*
X16863440Y15301684D01*
X16958309Y15131364D01*
X17052688Y14950062D01*
X17054751Y14945769D01*
X17133488Y14767447D01*
X17165417Y14690364D01*
X17211574Y14578930D01*
X17213380Y14574103D01*
X17224159Y14541945D01*
X17275346Y14389220D01*
X17336583Y14195001D01*
X17338052Y14189654D01*
X17382737Y13999669D01*
X17426697Y13801378D01*
X17427749Y13795544D01*
X17454816Y13601505D01*
X17481181Y13401242D01*
X17481739Y13394956D01*
X17491009Y13194465D01*
X17499500Y13000000D01*
X17499500Y-5002708D01*
X17479538Y-5077208D01*
X17425000Y-5131746D01*
X17350500Y-5151708D01*
X17276000Y-5131746D01*
X17262925Y-5123255D01*
X17252730Y-5115848D01*
X17079805Y-5038857D01*
X17079803Y-5038856D01*
X16973360Y-5016231D01*
X16894648Y-4999500D01*
X16894646Y-4999500D01*
X16705354Y-4999500D01*
X16705352Y-4999500D01*
X16605392Y-5020747D01*
X16520197Y-5038856D01*
X16520195Y-5038856D01*
X16520194Y-5038857D01*
X16347272Y-5115847D01*
X16194127Y-5227113D01*
X16067469Y-5367779D01*
X15972822Y-5531714D01*
X15972819Y-5531721D01*
X15914325Y-5711745D01*
X15894540Y-5900000D01*
X15914325Y-6088254D01*
X15937410Y-6159302D01*
X15948289Y-6192784D01*
X15948825Y-6194432D01*
X15952584Y-6266152D01*
X15967581Y-6273794D01*
X15996918Y-6310022D01*
X16051227Y-6404088D01*
X16067469Y-6432219D01*
X16194127Y-6572886D01*
X16194129Y-6572888D01*
X16347270Y-6684151D01*
X16520197Y-6761144D01*
X16661315Y-6791139D01*
X16705352Y-6800500D01*
X16705354Y-6800500D01*
X16894648Y-6800500D01*
X16934004Y-6792134D01*
X17079803Y-6761144D01*
X17252730Y-6684151D01*
X17262921Y-6676746D01*
X17334925Y-6649107D01*
X17411104Y-6661173D01*
X17471044Y-6709711D01*
X17498684Y-6781716D01*
X17499500Y-6797291D01*
X17499500Y-13000000D01*
X17491009Y-13194464D01*
X17481739Y-13394954D01*
X17481181Y-13401240D01*
X17454816Y-13601504D01*
X17427749Y-13795542D01*
X17426697Y-13801376D01*
X17382737Y-13999668D01*
X17338052Y-14189652D01*
X17336583Y-14194999D01*
X17275346Y-14389219D01*
X17213384Y-14574092D01*
X17211574Y-14578928D01*
X17133501Y-14767416D01*
X17089966Y-14866016D01*
X17054759Y-14945751D01*
X17052689Y-14950060D01*
X16958309Y-15131363D01*
X16863440Y-15301682D01*
X16861188Y-15305458D01*
X16751235Y-15478055D01*
X16640992Y-15638989D01*
X16638634Y-15642239D01*
X16513912Y-15804782D01*
X16389175Y-15954996D01*
X16386786Y-15957734D01*
X16248258Y-16108911D01*
X16108911Y-16248258D01*
X15957734Y-16386786D01*
X15954996Y-16389175D01*
X15804782Y-16513912D01*
X15642239Y-16638634D01*
X15638989Y-16640992D01*
X15478055Y-16751235D01*
X15305458Y-16861188D01*
X15301682Y-16863440D01*
X15131363Y-16958309D01*
X14950060Y-17052689D01*
X14945751Y-17054759D01*
X14897214Y-17076190D01*
X14767416Y-17133501D01*
X14578928Y-17211574D01*
X14574092Y-17213384D01*
X14389219Y-17275346D01*
X14194999Y-17336583D01*
X14189652Y-17338052D01*
X13999668Y-17382737D01*
X13801376Y-17426697D01*
X13795542Y-17427749D01*
X13601504Y-17454816D01*
X13401240Y-17481181D01*
X13394954Y-17481739D01*
X13194464Y-17491009D01*
X13000000Y-17499500D01*
X-5491001Y-17499500D01*
X-5565501Y-17479538D01*
X-5620039Y-17425000D01*
X-5640001Y-17350500D01*
X-5620039Y-17276000D01*
X-5601729Y-17250799D01*
X-5517470Y-17157220D01*
X-5517469Y-17157218D01*
X-5517467Y-17157216D01*
X-5422821Y-16993284D01*
X-5364326Y-16813256D01*
X-5344540Y-16625000D01*
X-5364326Y-16436744D01*
X-5421670Y-16260261D01*
X-5424793Y-16200676D01*
X-5445960Y-16192267D01*
X-5486021Y-16147251D01*
X-5494218Y-16133054D01*
X-5517467Y-16092784D01*
X-5517468Y-16092783D01*
X-5517470Y-16092779D01*
X-5644128Y-15952113D01*
X-5677273Y-15928032D01*
X-5797270Y-15840849D01*
X-5797271Y-15840848D01*
X-5797273Y-15840847D01*
X-5970195Y-15763857D01*
X-5970197Y-15763856D01*
X-6005567Y-15756338D01*
X-5287412Y-15756338D01*
X-5257137Y-15928034D01*
X-5220169Y-16013735D01*
X-5209181Y-16088754D01*
X-5180262Y-16103489D01*
X-5160446Y-16125241D01*
X-5083974Y-16227961D01*
X-4950422Y-16340025D01*
X-4950421Y-16340025D01*
X-4950419Y-16340027D01*
X-4794620Y-16418272D01*
X-4624976Y-16458478D01*
X-4624974Y-16458478D01*
X-4494366Y-16458478D01*
X-4494362Y-16458477D01*
X-4364641Y-16443315D01*
X-4200812Y-16383686D01*
X-4055151Y-16287883D01*
X-3935509Y-16161071D01*
X-3848338Y-16010085D01*
X-3798336Y-15843066D01*
X-3788198Y-15669018D01*
X-3818473Y-15497324D01*
X-3825614Y-15480768D01*
X-3887527Y-15337237D01*
X-3991637Y-15197394D01*
X-4125189Y-15085330D01*
X-4280987Y-15007085D01*
X-4280989Y-15007084D01*
X-4280990Y-15007084D01*
X-4450634Y-14966878D01*
X-4581241Y-14966878D01*
X-4581250Y-14966878D01*
X-4710965Y-14982040D01*
X-4710969Y-14982040D01*
X-4874794Y-15041668D01*
X-4874796Y-15041669D01*
X-4874798Y-15041670D01*
X-4974745Y-15107406D01*
X-5020464Y-15137476D01*
X-5140096Y-15264278D01*
X-5140104Y-15264289D01*
X-5227272Y-15415269D01*
X-5227273Y-15415271D01*
X-5252641Y-15500009D01*
X-5275699Y-15577031D01*
X-5277274Y-15582291D01*
X-5287412Y-15756332D01*
X-5287412Y-15756338D01*
X-6005567Y-15756338D01*
X-6076640Y-15741231D01*
X-6155352Y-15724500D01*
X-6155354Y-15724500D01*
X-6344646Y-15724500D01*
X-6344648Y-15724500D01*
X-6428582Y-15742341D01*
X-6529803Y-15763856D01*
X-6529805Y-15763856D01*
X-6529806Y-15763857D01*
X-6702728Y-15840847D01*
X-6855873Y-15952113D01*
X-6982531Y-16092779D01*
X-7077178Y-16256714D01*
X-7077181Y-16256721D01*
X-7135675Y-16436745D01*
X-7155460Y-16625000D01*
X-7135675Y-16813254D01*
X-7088545Y-16958304D01*
X-7077179Y-16993284D01*
X-7041689Y-17054754D01*
X-6982531Y-17157220D01*
X-6898271Y-17250799D01*
X-6863255Y-17319521D01*
X-6867291Y-17396543D01*
X-6909298Y-17461228D01*
X-6978020Y-17496244D01*
X-7008999Y-17499500D01*
X-13000000Y-17499500D01*
X-13194465Y-17491009D01*
X-13394956Y-17481739D01*
X-13401242Y-17481181D01*
X-13601505Y-17454816D01*
X-13795544Y-17427749D01*
X-13801379Y-17426697D01*
X-13999708Y-17382728D01*
X-14189637Y-17338057D01*
X-14194984Y-17336588D01*
X-14389288Y-17275325D01*
X-14510529Y-17234690D01*
X-14574085Y-17213388D01*
X-14578912Y-17211581D01*
X-14767478Y-17133475D01*
X-14945763Y-17054754D01*
X-14950072Y-17052683D01*
X-15131373Y-16958304D01*
X-15301684Y-16863441D01*
X-15305461Y-16861189D01*
X-15478070Y-16751225D01*
X-15639002Y-16640984D01*
X-15642252Y-16638626D01*
X-15804792Y-16513905D01*
X-15954981Y-16389190D01*
X-15957719Y-16386801D01*
X-16108936Y-16248236D01*
X-16248237Y-16108935D01*
X-16263041Y-16092779D01*
X-16386808Y-15957712D01*
X-16389192Y-15954979D01*
X-16513906Y-15804791D01*
X-16638628Y-15642250D01*
X-16640986Y-15639000D01*
X-16640994Y-15638989D01*
X-16751226Y-15478069D01*
X-16791234Y-15415269D01*
X-16861198Y-15305447D01*
X-16863444Y-15301681D01*
X-16908412Y-15220948D01*
X-16958310Y-15131363D01*
X-17052690Y-14950060D01*
X-17054745Y-14945784D01*
X-17133478Y-14767471D01*
X-17211591Y-14578890D01*
X-17213386Y-14574092D01*
X-17275320Y-14389308D01*
X-17336592Y-14194976D01*
X-17338055Y-14189652D01*
X-17382738Y-13999668D01*
X-17386327Y-13983480D01*
X-17426705Y-13801345D01*
X-17427745Y-13795578D01*
X-17454817Y-13601504D01*
X-17481185Y-13401221D01*
X-17481740Y-13394966D01*
X-17491004Y-13194602D01*
X-17499500Y-13000000D01*
X-16404994Y-13000000D01*
X-16385035Y-13368136D01*
X-16385035Y-13368142D01*
X-16325387Y-13731974D01*
X-16325387Y-13731976D01*
X-16226753Y-14087221D01*
X-16226751Y-14087226D01*
X-16090291Y-14429715D01*
X-16090285Y-14429728D01*
X-15917596Y-14755456D01*
X-15917593Y-14755461D01*
X-15710697Y-15060608D01*
X-15710688Y-15060620D01*
X-15574504Y-15220948D01*
X-15574503Y-15220948D01*
X-14258650Y-13905094D01*
X-14204544Y-13983480D01*
X-14031184Y-14163966D01*
X-13905135Y-14258686D01*
X-15223480Y-15577031D01*
X-15204343Y-15595159D01*
X-15204342Y-15595160D01*
X-14910835Y-15818278D01*
X-14594934Y-16008350D01*
X-14260316Y-16163160D01*
X-14260306Y-16163165D01*
X-13910937Y-16280880D01*
X-13550869Y-16360137D01*
X-13184344Y-16399999D01*
X-13184334Y-16400000D01*
X-12815666Y-16400000D01*
X-12815657Y-16399999D01*
X-12449132Y-16360137D01*
X-12449131Y-16360137D01*
X-12089064Y-16280880D01*
X-11739695Y-16163165D01*
X-11739685Y-16163160D01*
X-11405067Y-16008350D01*
X-11089166Y-15818278D01*
X-10795654Y-15595155D01*
X-10713683Y-15517509D01*
X-10645868Y-15480768D01*
X-10568768Y-15482856D01*
X-10503042Y-15523214D01*
X-10466301Y-15591029D01*
X-10462467Y-15634346D01*
X-10467940Y-15728308D01*
X-10467940Y-15728315D01*
X-10437665Y-15900011D01*
X-10368612Y-16060095D01*
X-10264502Y-16199938D01*
X-10130950Y-16312002D01*
X-10130949Y-16312002D01*
X-10130947Y-16312004D01*
X-9975148Y-16390249D01*
X-9805504Y-16430455D01*
X-9805502Y-16430455D01*
X-9674894Y-16430455D01*
X-9674890Y-16430454D01*
X-9545169Y-16415292D01*
X-9381340Y-16355663D01*
X-9235679Y-16259860D01*
X-9205583Y-16227961D01*
X-9161869Y-16181627D01*
X-9116037Y-16133048D01*
X-9028866Y-15982062D01*
X-8978864Y-15815043D01*
X-8968726Y-15640995D01*
X-8999001Y-15469301D01*
X-9020085Y-15420421D01*
X-9068055Y-15309214D01*
X-9172165Y-15169371D01*
X-9305717Y-15057307D01*
X-9461515Y-14979062D01*
X-9461517Y-14979061D01*
X-9461518Y-14979061D01*
X-9631162Y-14938855D01*
X-9761769Y-14938855D01*
X-9761778Y-14938855D01*
X-9891493Y-14954017D01*
X-9891498Y-14954018D01*
X-9894404Y-14955076D01*
X-9896871Y-14955291D01*
X-9899939Y-14956019D01*
X-9900046Y-14955569D01*
X-9971238Y-14961795D01*
X-10041139Y-14929197D01*
X-10085376Y-14866016D01*
X-10092095Y-14789182D01*
X-10077003Y-14745267D01*
X-9909716Y-14429728D01*
X-9909710Y-14429715D01*
X-9773250Y-14087226D01*
X-9773248Y-14087221D01*
X-9682859Y-13761672D01*
X-5675136Y-13761672D01*
X-5644861Y-13933368D01*
X-5575808Y-14093452D01*
X-5471698Y-14233295D01*
X-5338146Y-14345359D01*
X-5338145Y-14345359D01*
X-5338143Y-14345361D01*
X-5182344Y-14423606D01*
X-5012700Y-14463812D01*
X-5012698Y-14463812D01*
X-4882090Y-14463812D01*
X-4882086Y-14463811D01*
X-4752365Y-14448649D01*
X-4588536Y-14389020D01*
X-4442875Y-14293217D01*
X-4402101Y-14250000D01*
X-4323239Y-14166411D01*
X-4323233Y-14166405D01*
X-4236062Y-14015419D01*
X-4186060Y-13848400D01*
X-4175922Y-13674352D01*
X-4206197Y-13502658D01*
X-4234736Y-13436495D01*
X-4275251Y-13342571D01*
X-4379361Y-13202728D01*
X-4512913Y-13090664D01*
X-4668711Y-13012419D01*
X-4668713Y-13012418D01*
X-4668714Y-13012418D01*
X-4838358Y-12972212D01*
X-4968965Y-12972212D01*
X-4968974Y-12972212D01*
X-5098689Y-12987374D01*
X-5098693Y-12987374D01*
X-5262518Y-13047002D01*
X-5262520Y-13047003D01*
X-5262522Y-13047004D01*
X-5362469Y-13112740D01*
X-5408188Y-13142810D01*
X-5527820Y-13269612D01*
X-5527828Y-13269623D01*
X-5614996Y-13420603D01*
X-5614997Y-13420605D01*
X-5648149Y-13531343D01*
X-5664998Y-13587624D01*
X-5665806Y-13601504D01*
X-5675136Y-13761666D01*
X-5675136Y-13761672D01*
X-9682859Y-13761672D01*
X-9674614Y-13731976D01*
X-9674614Y-13731974D01*
X-9639338Y-13516805D01*
X-9607586Y-13446516D01*
X-9544944Y-13401520D01*
X-9468195Y-13393874D01*
X-9449049Y-13398327D01*
X-9323223Y-13436495D01*
X-9323223Y-12716274D01*
X-9242108Y-12779408D01*
X-9131628Y-12817336D01*
X-9044218Y-12817336D01*
X-8958007Y-12802950D01*
X-8855276Y-12747355D01*
X-8827642Y-12717336D01*
X-8823223Y-12717336D01*
X-8823223Y-13436495D01*
X-8688691Y-13395686D01*
X-8514963Y-13302827D01*
X-8514961Y-13302826D01*
X-8362698Y-13177866D01*
X-8362693Y-13177861D01*
X-8237733Y-13025598D01*
X-8237732Y-13025596D01*
X-8144873Y-12851869D01*
X-8104062Y-12717336D01*
X-8823223Y-12717336D01*
X-8827642Y-12717336D01*
X-8776163Y-12661415D01*
X-8729241Y-12554444D01*
X-8719595Y-12438034D01*
X-8748270Y-12324798D01*
X-8812159Y-12227009D01*
X-8824587Y-12217336D01*
X-8104062Y-12217336D01*
X-8104062Y-12217335D01*
X-8144873Y-12082802D01*
X-8237732Y-11909075D01*
X-8237733Y-11909073D01*
X-8362693Y-11756810D01*
X-8362698Y-11756805D01*
X-8514961Y-11631845D01*
X-8514963Y-11631844D01*
X-8688692Y-11538985D01*
X-8688693Y-11538984D01*
X-8722307Y-11528787D01*
X-8787803Y-11488057D01*
X-8824160Y-11420036D01*
X-8827236Y-11401778D01*
X-8827864Y-11395807D01*
X-8839326Y-11286744D01*
X-8897821Y-11106716D01*
X-8992467Y-10942784D01*
X-8992468Y-10942783D01*
X-8992470Y-10942779D01*
X-9119128Y-10802113D01*
X-9149285Y-10780203D01*
X-9272270Y-10690849D01*
X-9272271Y-10690848D01*
X-9272273Y-10690847D01*
X-9445195Y-10613857D01*
X-9445197Y-10613856D01*
X-9551640Y-10591231D01*
X-9630352Y-10574500D01*
X-9630354Y-10574500D01*
X-9819646Y-10574500D01*
X-9819648Y-10574500D01*
X-9919608Y-10595747D01*
X-10004803Y-10613856D01*
X-10004805Y-10613856D01*
X-10004806Y-10613857D01*
X-10177730Y-10690848D01*
X-10265542Y-10754647D01*
X-10337547Y-10782287D01*
X-10360137Y-10778709D01*
X-10360258Y-10781702D01*
X-10425499Y-10779050D01*
X-11741352Y-12094903D01*
X-11795456Y-12016520D01*
X-11968816Y-11836034D01*
X-12094868Y-11741312D01*
X-10776521Y-10422966D01*
X-10776757Y-10405540D01*
X-10791865Y-10380935D01*
X-10793953Y-10303835D01*
X-10778079Y-10263993D01*
X-10722821Y-10168284D01*
X-10664326Y-9988256D01*
X-10644540Y-9800000D01*
X-10664326Y-9611744D01*
X-10722821Y-9431716D01*
X-10817467Y-9267784D01*
X-10817468Y-9267783D01*
X-10817470Y-9267779D01*
X-10944128Y-9127113D01*
X-10956279Y-9118285D01*
X-11097270Y-9015849D01*
X-11097271Y-9015848D01*
X-11097273Y-9015847D01*
X-11270195Y-8938857D01*
X-11270197Y-8938856D01*
X-11390332Y-8913320D01*
X-11459053Y-8878305D01*
X-11477434Y-8850000D01*
X-10380091Y-8850000D01*
X-10361787Y-9012458D01*
X-10361787Y-9012460D01*
X-10361786Y-9012461D01*
X-10307789Y-9166775D01*
X-10220808Y-9305204D01*
X-10105204Y-9420808D01*
X-9966775Y-9507789D01*
X-9812461Y-9561786D01*
X-9679925Y-9576719D01*
X-9608129Y-9604897D01*
X-9560040Y-9665198D01*
X-9548545Y-9708099D01*
X-9536787Y-9812458D01*
X-9536787Y-9812460D01*
X-9536786Y-9812461D01*
X-9482789Y-9966775D01*
X-9395808Y-10105204D01*
X-9280204Y-10220808D01*
X-9141775Y-10307789D01*
X-8987461Y-10361786D01*
X-8916379Y-10369795D01*
X-8825001Y-10380091D01*
X-8825000Y-10380091D01*
X-8824999Y-10380091D01*
X-8808548Y-10378237D01*
X-8662539Y-10361786D01*
X-8548917Y-10322027D01*
X-8472007Y-10316263D01*
X-8402517Y-10349727D01*
X-8359069Y-10413453D01*
X-8353304Y-10490366D01*
X-8359068Y-10511877D01*
X-8411786Y-10662539D01*
X-8430091Y-10824999D01*
X-8430091Y-10825000D01*
X-8411787Y-10987458D01*
X-8411787Y-10987460D01*
X-8411786Y-10987461D01*
X-8357789Y-11141775D01*
X-8270808Y-11280204D01*
X-8155204Y-11395808D01*
X-8016775Y-11482789D01*
X-7862461Y-11536786D01*
X-7754154Y-11548989D01*
X-7700001Y-11555091D01*
X-7700000Y-11555091D01*
X-7699999Y-11555091D01*
X-7659385Y-11550514D01*
X-7537539Y-11536786D01*
X-7485438Y-11518554D01*
X-7408527Y-11512792D01*
X-7339037Y-11546256D01*
X-7295589Y-11609982D01*
X-7287315Y-11664280D01*
X-7292534Y-11817054D01*
X-7256705Y-11964079D01*
X-7256702Y-11964086D01*
X-7182538Y-12095987D01*
X-6819560Y-12458965D01*
X-6729274Y-12527430D01*
X-6729273Y-12527431D01*
X-6729272Y-12527431D01*
X-6729271Y-12527432D01*
X-6588493Y-12582947D01*
X-6437957Y-12598423D01*
X-6288828Y-12572711D01*
X-6152167Y-12507718D01*
X-6038108Y-12408263D01*
X-5955112Y-12281724D01*
X-5909333Y-12137487D01*
X-5904167Y-11986245D01*
X-5939996Y-11839219D01*
X-5978705Y-11770375D01*
X-5997817Y-11695654D01*
X-5977009Y-11621386D01*
X-5921854Y-11567473D01*
X-5898047Y-11556714D01*
X-5758225Y-11507789D01*
X-5619796Y-11420808D01*
X-5504192Y-11305204D01*
X-5438088Y-11200000D01*
X-3105460Y-11200000D01*
X-3085675Y-11388254D01*
X-3037413Y-11536786D01*
X-3027179Y-11568284D01*
X-2995544Y-11623078D01*
X-2932531Y-11732220D01*
X-2836187Y-11839219D01*
X-2805871Y-11872888D01*
X-2662214Y-11977260D01*
X-2613677Y-12037199D01*
X-2601611Y-12113376D01*
X-2605460Y-12149999D01*
X-2585675Y-12338254D01*
X-2549829Y-12448574D01*
X-2527179Y-12518284D01*
X-2491044Y-12580871D01*
X-2432531Y-12682220D01*
X-2310870Y-12817336D01*
X-2305871Y-12822888D01*
X-2152730Y-12934151D01*
X-2152729Y-12934151D01*
X-2152728Y-12934152D01*
X-2128252Y-12945049D01*
X-1979803Y-13011144D01*
X-1838685Y-13041139D01*
X-1794648Y-13050500D01*
X-1794646Y-13050500D01*
X-1605352Y-13050500D01*
X-1563106Y-13041520D01*
X-1420197Y-13011144D01*
X-1247270Y-12934151D01*
X-1247270Y-12934150D01*
X-1247268Y-12934150D01*
X-1240509Y-12930248D01*
X-1239436Y-12932106D01*
X-1178075Y-12908552D01*
X-1101897Y-12920618D01*
X-1084673Y-12930562D01*
X-1084491Y-12930248D01*
X-1077733Y-12934150D01*
X-1019681Y-12959996D01*
X-904803Y-13011144D01*
X-761891Y-13041520D01*
X-693171Y-13076535D01*
X-651164Y-13141220D01*
X-647127Y-13218243D01*
X-682142Y-13286964D01*
X-733557Y-13321653D01*
X-732766Y-13323348D01*
X-738659Y-13326095D01*
X-738663Y-13326097D01*
X-952829Y-13425965D01*
X-952832Y-13425966D01*
X-952832Y-13425967D01*
X-1146404Y-13561507D01*
X-1313493Y-13728596D01*
X-1437965Y-13906362D01*
X-1449035Y-13922171D01*
X-1526002Y-14087226D01*
X-1548904Y-14136340D01*
X-1610063Y-14364590D01*
X-1610063Y-14364592D01*
X-1625500Y-14541034D01*
X-1625500Y-14908966D01*
X-1616341Y-15013647D01*
X-1610063Y-15085409D01*
X-1587565Y-15169372D01*
X-1548903Y-15313663D01*
X-1449035Y-15527829D01*
X-1313495Y-15721401D01*
X-1146401Y-15888495D01*
X-952830Y-16024035D01*
X-738663Y-16123903D01*
X-510408Y-16185063D01*
X-275000Y-16205659D01*
X-39592Y-16185063D01*
X188663Y-16123903D01*
X402829Y-16024035D01*
X596401Y-15888495D01*
X763495Y-15721401D01*
X852948Y-15593648D01*
X912029Y-15544073D01*
X987986Y-15530680D01*
X1060463Y-15557059D01*
X1097051Y-15593647D01*
X1186505Y-15721401D01*
X1353599Y-15888495D01*
X1547170Y-16024035D01*
X1761337Y-16123903D01*
X1989592Y-16185063D01*
X2225000Y-16205659D01*
X2460408Y-16185063D01*
X2688663Y-16123903D01*
X2902829Y-16024035D01*
X3096401Y-15888495D01*
X3263495Y-15721401D01*
X3353252Y-15593214D01*
X3412334Y-15543637D01*
X3488291Y-15530244D01*
X3560767Y-15556623D01*
X3597359Y-15593214D01*
X3686891Y-15721079D01*
X3853923Y-15888111D01*
X4047411Y-16023593D01*
X4047420Y-16023599D01*
X4261508Y-16123430D01*
X4261513Y-16123432D01*
X4475000Y-16180634D01*
X4475000Y-15133018D01*
X4589801Y-15185446D01*
X4691025Y-15200000D01*
X4758975Y-15200000D01*
X4860199Y-15185446D01*
X4975000Y-15133018D01*
X4975000Y-16180633D01*
X5188486Y-16123432D01*
X5402580Y-16023597D01*
X5596079Y-15888108D01*
X5720974Y-15763213D01*
X5787768Y-15724649D01*
X5864896Y-15724649D01*
X5931692Y-15763213D01*
X5953146Y-15790347D01*
X6032288Y-15918656D01*
X6156344Y-16042712D01*
X6305666Y-16134814D01*
X6472203Y-16189999D01*
X6574991Y-16200500D01*
X7875008Y-16200499D01*
X7977797Y-16189999D01*
X8144334Y-16134814D01*
X8293656Y-16042712D01*
X8417712Y-15918656D01*
X8509814Y-15769334D01*
X8564999Y-15602797D01*
X8575500Y-15500009D01*
X8575499Y-13949992D01*
X8564999Y-13847203D01*
X8509814Y-13680666D01*
X8417712Y-13531344D01*
X8293656Y-13407288D01*
X8144334Y-13315186D01*
X8059166Y-13286964D01*
X7977798Y-13260001D01*
X7960665Y-13258250D01*
X7875009Y-13249500D01*
X7875004Y-13249500D01*
X6574996Y-13249500D01*
X6472202Y-13260001D01*
X6305666Y-13315186D01*
X6156343Y-13407288D01*
X6032288Y-13531343D01*
X5953150Y-13659648D01*
X5897049Y-13712577D01*
X5822000Y-13730364D01*
X5748112Y-13708244D01*
X5720974Y-13686786D01*
X5596076Y-13561888D01*
X5402588Y-13426406D01*
X5402579Y-13426400D01*
X5188491Y-13326569D01*
X5188489Y-13326568D01*
X4975000Y-13269364D01*
X4975000Y-14316981D01*
X4860199Y-14264554D01*
X4758975Y-14250000D01*
X4691025Y-14250000D01*
X4589801Y-14264554D01*
X4475000Y-14316981D01*
X4475000Y-13269364D01*
X4474999Y-13269364D01*
X4261512Y-13326568D01*
X4047419Y-13426402D01*
X3853920Y-13561891D01*
X3686888Y-13728923D01*
X3597358Y-13856785D01*
X3538274Y-13906362D01*
X3462318Y-13919755D01*
X3389842Y-13893375D01*
X3353251Y-13856785D01*
X3347380Y-13848400D01*
X3263495Y-13728599D01*
X3096401Y-13561505D01*
X2902830Y-13425965D01*
X2688663Y-13326097D01*
X2688661Y-13326096D01*
X2460409Y-13264937D01*
X2225000Y-13244341D01*
X1989590Y-13264937D01*
X1761340Y-13326096D01*
X1761339Y-13326096D01*
X1761337Y-13326097D01*
X1547171Y-13425965D01*
X1547168Y-13425966D01*
X1547168Y-13425967D01*
X1353596Y-13561507D01*
X1186506Y-13728597D01*
X1097054Y-13856349D01*
X1037970Y-13905926D01*
X962014Y-13919319D01*
X889537Y-13892940D01*
X852946Y-13856349D01*
X814454Y-13801377D01*
X763495Y-13728599D01*
X596401Y-13561505D01*
X402830Y-13425965D01*
X188663Y-13326097D01*
X188661Y-13326096D01*
X-39591Y-13264937D01*
X-197473Y-13251123D01*
X-269950Y-13224743D01*
X-319526Y-13165659D01*
X-332919Y-13089703D01*
X-306539Y-13017226D01*
X-247455Y-12967650D01*
X-245229Y-12966634D01*
X-172270Y-12934151D01*
X-150080Y-12918028D01*
X-78076Y-12890388D01*
X-1898Y-12902453D01*
X25076Y-12918026D01*
X47270Y-12934151D01*
X47271Y-12934151D01*
X47272Y-12934152D01*
X71748Y-12945049D01*
X220197Y-13011144D01*
X361315Y-13041139D01*
X405352Y-13050500D01*
X405354Y-13050500D01*
X594648Y-13050500D01*
X636894Y-13041520D01*
X779803Y-13011144D01*
X804833Y-13000000D01*
X9595006Y-13000000D01*
X9614965Y-13368136D01*
X9614965Y-13368142D01*
X9674613Y-13731974D01*
X9674613Y-13731976D01*
X9773247Y-14087221D01*
X9773249Y-14087226D01*
X9909709Y-14429715D01*
X9909715Y-14429728D01*
X10082404Y-14755456D01*
X10082407Y-14755461D01*
X10289303Y-15060608D01*
X10289312Y-15060620D01*
X10425496Y-15220948D01*
X10425497Y-15220948D01*
X11741350Y-13905094D01*
X11795456Y-13983480D01*
X11968816Y-14163966D01*
X12094865Y-14258686D01*
X10776520Y-15577031D01*
X10795657Y-15595159D01*
X10795658Y-15595160D01*
X11089165Y-15818278D01*
X11405066Y-16008350D01*
X11739684Y-16163160D01*
X11739694Y-16163165D01*
X12089063Y-16280880D01*
X12449131Y-16360137D01*
X12815656Y-16399999D01*
X12815666Y-16400000D01*
X13184334Y-16400000D01*
X13184343Y-16399999D01*
X13550868Y-16360137D01*
X13550869Y-16360137D01*
X13910936Y-16280880D01*
X14260305Y-16163165D01*
X14260315Y-16163160D01*
X14594933Y-16008350D01*
X14910834Y-15818278D01*
X15204352Y-15595151D01*
X15223479Y-15577032D01*
X13906879Y-14260432D01*
X13934180Y-14243168D01*
X14121501Y-14077216D01*
X14260511Y-13906958D01*
X15574501Y-15220948D01*
X15710690Y-15060617D01*
X15710694Y-15060611D01*
X15917592Y-14755461D01*
X15917595Y-14755456D01*
X16090284Y-14429728D01*
X16090290Y-14429715D01*
X16226750Y-14087226D01*
X16226752Y-14087221D01*
X16325386Y-13731976D01*
X16325386Y-13731974D01*
X16385034Y-13368142D01*
X16385034Y-13368136D01*
X16404994Y-13000000D01*
X16404994Y-12999991D01*
X16385034Y-12631863D01*
X16385034Y-12631857D01*
X16325386Y-12268025D01*
X16325386Y-12268023D01*
X16226752Y-11912778D01*
X16226750Y-11912773D01*
X16090290Y-11570284D01*
X16090284Y-11570271D01*
X15917595Y-11244543D01*
X15917592Y-11244538D01*
X15710696Y-10939391D01*
X15710687Y-10939379D01*
X15574502Y-10779050D01*
X15574501Y-10779050D01*
X14258648Y-12094903D01*
X14204544Y-12016520D01*
X14031184Y-11836034D01*
X13905132Y-11741312D01*
X15223479Y-10422966D01*
X15204347Y-10404844D01*
X14910834Y-10181721D01*
X14594933Y-9991649D01*
X14260315Y-9836839D01*
X14260305Y-9836834D01*
X13910936Y-9719119D01*
X13550868Y-9639862D01*
X13184343Y-9600000D01*
X12815656Y-9600000D01*
X12449131Y-9639862D01*
X12449130Y-9639862D01*
X12089063Y-9719119D01*
X11739694Y-9836834D01*
X11739684Y-9836839D01*
X11405066Y-9991649D01*
X11089165Y-10181721D01*
X10795663Y-10404835D01*
X10776520Y-10422967D01*
X12093120Y-11739567D01*
X12065820Y-11756832D01*
X11878499Y-11922784D01*
X11739488Y-12093041D01*
X10425497Y-10779050D01*
X10425496Y-10779050D01*
X10289308Y-10939383D01*
X10289306Y-10939386D01*
X10082402Y-11244547D01*
X9909715Y-11570271D01*
X9909709Y-11570284D01*
X9773249Y-11912773D01*
X9773247Y-11912778D01*
X9674613Y-12268023D01*
X9674613Y-12268025D01*
X9614965Y-12631857D01*
X9614965Y-12631863D01*
X9595006Y-12999991D01*
X9595006Y-13000000D01*
X804833Y-13000000D01*
X952730Y-12934151D01*
X1105871Y-12822888D01*
X1206488Y-12711142D01*
X1232530Y-12682220D01*
X1232531Y-12682218D01*
X1232533Y-12682216D01*
X1327179Y-12518284D01*
X1350264Y-12447233D01*
X1392269Y-12382553D01*
X1460990Y-12347537D01*
X1538013Y-12351573D01*
X1602698Y-12393580D01*
X1714984Y-12518285D01*
X1719129Y-12522888D01*
X1872270Y-12634151D01*
X2045197Y-12711144D01*
X2186315Y-12741139D01*
X2230352Y-12750500D01*
X2230354Y-12750500D01*
X2419648Y-12750500D01*
X2459004Y-12742134D01*
X2604803Y-12711144D01*
X2777730Y-12634151D01*
X2829625Y-12596446D01*
X2901627Y-12568806D01*
X2977806Y-12580871D01*
X3004781Y-12596444D01*
X3022270Y-12609151D01*
X3195197Y-12686144D01*
X3336315Y-12716139D01*
X3380352Y-12725500D01*
X3380354Y-12725500D01*
X3569648Y-12725500D01*
X3609004Y-12717134D01*
X3754803Y-12686144D01*
X3927730Y-12609151D01*
X4080871Y-12497888D01*
X4174791Y-12393580D01*
X4207530Y-12357220D01*
X4207531Y-12357218D01*
X4207533Y-12357216D01*
X4302179Y-12193284D01*
X4360674Y-12013256D01*
X4380460Y-11825000D01*
X4360674Y-11636744D01*
X4302179Y-11456716D01*
X4290796Y-11437001D01*
X4270833Y-11362504D01*
X4290792Y-11288006D01*
X4302179Y-11268284D01*
X4360674Y-11088256D01*
X4380460Y-10900000D01*
X4360674Y-10711744D01*
X4302179Y-10531716D01*
X4207533Y-10367784D01*
X4207532Y-10367783D01*
X4207530Y-10367779D01*
X4080872Y-10227113D01*
X4032833Y-10192211D01*
X3927730Y-10115849D01*
X3927729Y-10115848D01*
X3927727Y-10115847D01*
X3754805Y-10038857D01*
X3754803Y-10038856D01*
X3648360Y-10016231D01*
X3569648Y-9999500D01*
X3569646Y-9999500D01*
X3380354Y-9999500D01*
X3380352Y-9999500D01*
X3280392Y-10020747D01*
X3195197Y-10038856D01*
X3195195Y-10038856D01*
X3195194Y-10038857D01*
X3022272Y-10115847D01*
X2869127Y-10227113D01*
X2742469Y-10367779D01*
X2647822Y-10531714D01*
X2647819Y-10531721D01*
X2589325Y-10711745D01*
X2578330Y-10816358D01*
X2550689Y-10888363D01*
X2490749Y-10936901D01*
X2427455Y-10946935D01*
X2427455Y-10949500D01*
X2230352Y-10949500D01*
X2130392Y-10970747D01*
X2045197Y-10988856D01*
X2045195Y-10988856D01*
X2045194Y-10988857D01*
X1872272Y-11065847D01*
X1719127Y-11177113D01*
X1592469Y-11317779D01*
X1497822Y-11481714D01*
X1497820Y-11481719D01*
X1474736Y-11552763D01*
X1432728Y-11617448D01*
X1364006Y-11652462D01*
X1286984Y-11648425D01*
X1222301Y-11606419D01*
X1105872Y-11477113D01*
X1089329Y-11465094D01*
X952730Y-11365849D01*
X952729Y-11365848D01*
X952727Y-11365847D01*
X779805Y-11288857D01*
X779803Y-11288856D01*
X673360Y-11266231D01*
X594648Y-11249500D01*
X594646Y-11249500D01*
X405354Y-11249500D01*
X405352Y-11249500D01*
X316986Y-11268283D01*
X220197Y-11288856D01*
X220195Y-11288856D01*
X220194Y-11288857D01*
X47270Y-11365848D01*
X25076Y-11381973D01*
X-46930Y-11409611D01*
X-123108Y-11397544D01*
X-150083Y-11381969D01*
X-162788Y-11372738D01*
X-211325Y-11312798D01*
X-223390Y-11236623D01*
X-219540Y-11200000D01*
X-239326Y-11011744D01*
X-297821Y-10831716D01*
X-392467Y-10667784D01*
X-392468Y-10667783D01*
X-392470Y-10667779D01*
X-519128Y-10527113D01*
X-540099Y-10511877D01*
X-672270Y-10415849D01*
X-672271Y-10415848D01*
X-672273Y-10415847D01*
X-845195Y-10338857D01*
X-845197Y-10338856D01*
X-951640Y-10316231D01*
X-1030352Y-10299500D01*
X-1030354Y-10299500D01*
X-1219646Y-10299500D01*
X-1219648Y-10299500D01*
X-1319608Y-10320747D01*
X-1404803Y-10338856D01*
X-1404805Y-10338856D01*
X-1404806Y-10338857D01*
X-1577733Y-10415849D01*
X-1584493Y-10419753D01*
X-1585565Y-10417896D01*
X-1646945Y-10441449D01*
X-1723122Y-10429373D01*
X-1740327Y-10419440D01*
X-1740507Y-10419753D01*
X-1747268Y-10415849D01*
X-1920195Y-10338857D01*
X-1920197Y-10338856D01*
X-2026640Y-10316231D01*
X-2105352Y-10299500D01*
X-2105354Y-10299500D01*
X-2294646Y-10299500D01*
X-2294648Y-10299500D01*
X-2394608Y-10320747D01*
X-2479803Y-10338856D01*
X-2479805Y-10338856D01*
X-2479806Y-10338857D01*
X-2652728Y-10415847D01*
X-2805873Y-10527113D01*
X-2932531Y-10667779D01*
X-3027178Y-10831714D01*
X-3027181Y-10831721D01*
X-3085675Y-11011745D01*
X-3105460Y-11200000D01*
X-5438088Y-11200000D01*
X-5417211Y-11166775D01*
X-5409182Y-11143827D01*
X-5365735Y-11080102D01*
X-5296246Y-11046636D01*
X-5285242Y-11044977D01*
X-5212539Y-11036786D01*
X-5058225Y-10982789D01*
X-4919796Y-10895808D01*
X-4804192Y-10780204D01*
X-4717211Y-10641775D01*
X-4663214Y-10487461D01*
X-4644909Y-10325000D01*
X-4663214Y-10162539D01*
X-4717211Y-10008225D01*
X-4717212Y-10008223D01*
X-4717569Y-10007482D01*
X-4717684Y-10006874D01*
X-4719975Y-10000327D01*
X-4718989Y-9999981D01*
X-4731908Y-9931699D01*
X-4706436Y-9858899D01*
X-4647975Y-9808588D01*
X-4614308Y-9797089D01*
X-4445197Y-9761144D01*
X-4272270Y-9684151D01*
X-4119129Y-9572888D01*
X-4042280Y-9487539D01*
X-3992470Y-9432220D01*
X-3992469Y-9432218D01*
X-3992467Y-9432216D01*
X-3897821Y-9268284D01*
X-3839326Y-9088256D01*
X-3819540Y-8900000D01*
X-3839326Y-8711744D01*
X-3843142Y-8700000D01*
X-1205460Y-8700000D01*
X-1185675Y-8888254D01*
X-1147021Y-9007216D01*
X-1127179Y-9068284D01*
X-1098311Y-9118285D01*
X-1032531Y-9232220D01*
X-905873Y-9372886D01*
X-905871Y-9372888D01*
X-752730Y-9484151D01*
X-579803Y-9561144D01*
X-439980Y-9590864D01*
X-394648Y-9600500D01*
X-394646Y-9600500D01*
X-205352Y-9600500D01*
X-160020Y-9590864D01*
X-20197Y-9561144D01*
X152730Y-9484151D01*
X305871Y-9372888D01*
X387513Y-9282216D01*
X432530Y-9232220D01*
X432531Y-9232218D01*
X432533Y-9232216D01*
X527179Y-9068284D01*
X585674Y-8888256D01*
X605460Y-8700000D01*
X585674Y-8511744D01*
X573735Y-8475000D01*
X13969540Y-8475000D01*
X13989325Y-8663254D01*
X14041302Y-8823222D01*
X14047821Y-8843284D01*
X14073786Y-8888256D01*
X14142469Y-9007220D01*
X14269127Y-9147886D01*
X14269129Y-9147888D01*
X14422270Y-9259151D01*
X14595197Y-9336144D01*
X14736315Y-9366139D01*
X14780352Y-9375500D01*
X14780354Y-9375500D01*
X14969648Y-9375500D01*
X15009004Y-9367134D01*
X15154803Y-9336144D01*
X15327730Y-9259151D01*
X15480871Y-9147888D01*
X15599762Y-9015847D01*
X15607530Y-9007220D01*
X15607531Y-9007218D01*
X15607533Y-9007216D01*
X15702179Y-8843284D01*
X15760674Y-8663256D01*
X15780460Y-8475000D01*
X15760674Y-8286744D01*
X15702179Y-8106716D01*
X15702178Y-8106715D01*
X15699766Y-8099290D01*
X15702006Y-8098561D01*
X15691840Y-8034455D01*
X15700792Y-8001043D01*
X15699766Y-8000710D01*
X15728868Y-7911144D01*
X15760674Y-7813256D01*
X15780460Y-7625000D01*
X15760674Y-7436744D01*
X15702179Y-7256716D01*
X15698013Y-7249501D01*
X15678050Y-7175006D01*
X15698009Y-7100506D01*
X15702179Y-7093284D01*
X15760674Y-6913256D01*
X15780460Y-6725000D01*
X15760674Y-6536744D01*
X15726173Y-6430564D01*
X15722414Y-6358846D01*
X15707418Y-6351205D01*
X15678080Y-6314976D01*
X15676756Y-6312683D01*
X15607533Y-6192784D01*
X15607532Y-6192783D01*
X15607530Y-6192779D01*
X15480872Y-6052113D01*
X15396444Y-5990773D01*
X15327730Y-5940849D01*
X15327729Y-5940848D01*
X15327727Y-5940847D01*
X15154805Y-5863857D01*
X15154803Y-5863856D01*
X15048360Y-5841231D01*
X14969648Y-5824500D01*
X14969646Y-5824500D01*
X14780354Y-5824500D01*
X14780352Y-5824500D01*
X14699076Y-5841776D01*
X14595197Y-5863856D01*
X14595195Y-5863856D01*
X14595194Y-5863857D01*
X14422272Y-5940847D01*
X14269127Y-6052113D01*
X14142469Y-6192779D01*
X14047822Y-6356714D01*
X14047819Y-6356721D01*
X13989325Y-6536745D01*
X13969540Y-6725000D01*
X13989325Y-6913254D01*
X14029888Y-7038092D01*
X14047821Y-7093284D01*
X14047823Y-7093287D01*
X14051990Y-7100505D01*
X14071949Y-7175006D01*
X14051990Y-7249495D01*
X14047823Y-7256712D01*
X14047819Y-7256721D01*
X13989325Y-7436745D01*
X13969540Y-7625000D01*
X13989325Y-7813254D01*
X14050234Y-8000710D01*
X14047998Y-8001436D01*
X14058155Y-8065583D01*
X14049212Y-8098958D01*
X14050234Y-8099290D01*
X14047821Y-8106715D01*
X14047821Y-8106716D01*
X14043534Y-8119909D01*
X13989325Y-8286745D01*
X13969540Y-8475000D01*
X573735Y-8475000D01*
X527179Y-8331716D01*
X432533Y-8167784D01*
X432532Y-8167783D01*
X432530Y-8167779D01*
X305872Y-8027113D01*
X269531Y-8000710D01*
X152730Y-7915849D01*
X152729Y-7915848D01*
X152727Y-7915847D01*
X-20195Y-7838857D01*
X-20197Y-7838856D01*
X-126640Y-7816231D01*
X-205352Y-7799500D01*
X-205354Y-7799500D01*
X-394646Y-7799500D01*
X-394648Y-7799500D01*
X-494608Y-7820747D01*
X-579803Y-7838856D01*
X-579805Y-7838856D01*
X-579806Y-7838857D01*
X-752728Y-7915847D01*
X-905873Y-8027113D01*
X-1032531Y-8167779D01*
X-1127178Y-8331714D01*
X-1127181Y-8331721D01*
X-1185675Y-8511745D01*
X-1205460Y-8700000D01*
X-3843142Y-8700000D01*
X-3897821Y-8531716D01*
X-3992467Y-8367784D01*
X-3992468Y-8367783D01*
X-3992470Y-8367779D01*
X-4119128Y-8227113D01*
X-4167167Y-8192211D01*
X-4272270Y-8115849D01*
X-4272271Y-8115848D01*
X-4272273Y-8115847D01*
X-4445195Y-8038857D01*
X-4445197Y-8038856D01*
X-4551640Y-8016231D01*
X-4630352Y-7999500D01*
X-4630354Y-7999500D01*
X-4819646Y-7999500D01*
X-4819648Y-7999500D01*
X-4919608Y-8020747D01*
X-5004803Y-8038856D01*
X-5004805Y-8038856D01*
X-5004806Y-8038857D01*
X-5177728Y-8115847D01*
X-5330873Y-8227113D01*
X-5457532Y-8367781D01*
X-5490998Y-8425746D01*
X-5545536Y-8480283D01*
X-5620036Y-8500245D01*
X-5663288Y-8493829D01*
X-5782664Y-8457615D01*
X-5782664Y-8636348D01*
X-5802626Y-8710848D01*
X-5839969Y-8748190D01*
X-5795546Y-8803047D01*
X-5782664Y-8863651D01*
X-5782664Y-9177838D01*
X-5863779Y-9114705D01*
X-5974259Y-9076777D01*
X-6061669Y-9076777D01*
X-6138501Y-9089597D01*
X-6089326Y-8938256D01*
X-6079848Y-8848077D01*
X-6052208Y-8776072D01*
X-6020862Y-8750688D01*
X-6060702Y-8710848D01*
X-6079848Y-8651922D01*
X-6089326Y-8561745D01*
X-6089326Y-8561744D01*
X-6147821Y-8381716D01*
X-6242467Y-8217784D01*
X-6242468Y-8217783D01*
X-6242470Y-8217779D01*
X-6369128Y-8077113D01*
X-6384998Y-8065583D01*
X-6522270Y-7965849D01*
X-6522271Y-7965848D01*
X-6522273Y-7965847D01*
X-6695195Y-7888857D01*
X-6695197Y-7888856D01*
X-6801640Y-7866231D01*
X-6880352Y-7849500D01*
X-6880354Y-7849500D01*
X-7069646Y-7849500D01*
X-7069648Y-7849500D01*
X-7169608Y-7870747D01*
X-7254803Y-7888856D01*
X-7254805Y-7888856D01*
X-7254806Y-7888857D01*
X-7427728Y-7965847D01*
X-7580873Y-8077113D01*
X-7707531Y-8217779D01*
X-7802178Y-8381714D01*
X-7802181Y-8381721D01*
X-7860675Y-8561745D01*
X-7880460Y-8750000D01*
X-7860675Y-8938254D01*
X-7803342Y-9114705D01*
X-7802179Y-9118284D01*
X-7785088Y-9147886D01*
X-7707531Y-9282220D01*
X-7603753Y-9397475D01*
X-7580871Y-9422888D01*
X-7427730Y-9534151D01*
X-7254803Y-9611144D01*
X-7119694Y-9639862D01*
X-7091735Y-9645805D01*
X-7023013Y-9680821D01*
X-6981006Y-9745506D01*
X-6980130Y-9748295D01*
X-6961014Y-9811311D01*
X-6868156Y-9985037D01*
X-6868155Y-9985039D01*
X-6743195Y-10137302D01*
X-6743190Y-10137307D01*
X-6673680Y-10194353D01*
X-6628755Y-10257046D01*
X-6621195Y-10333803D01*
X-6642043Y-10388804D01*
X-6732790Y-10533226D01*
X-6742490Y-10560945D01*
X-6785939Y-10624670D01*
X-6855430Y-10658132D01*
X-6932343Y-10652366D01*
X-6996068Y-10608917D01*
X-7023766Y-10560939D01*
X-7033990Y-10531721D01*
X-7042211Y-10508225D01*
X-7129192Y-10369796D01*
X-7244796Y-10254192D01*
X-7383225Y-10167211D01*
X-7537539Y-10113214D01*
X-7537540Y-10113213D01*
X-7537542Y-10113213D01*
X-7699999Y-10094909D01*
X-7700001Y-10094909D01*
X-7862461Y-10113214D01*
X-7976083Y-10152972D01*
X-8052995Y-10158735D01*
X-8122485Y-10125271D01*
X-8165933Y-10061544D01*
X-8171696Y-9984632D01*
X-8165935Y-9963128D01*
X-8113214Y-9812461D01*
X-8094909Y-9650000D01*
X-8096052Y-9639860D01*
X-8103166Y-9576719D01*
X-8113214Y-9487539D01*
X-8167211Y-9333225D01*
X-8254192Y-9194796D01*
X-8369796Y-9079192D01*
X-8508225Y-8992211D01*
X-8660701Y-8938857D01*
X-8662541Y-8938213D01*
X-8795077Y-8923280D01*
X-8866873Y-8895102D01*
X-8914961Y-8834800D01*
X-8926456Y-8791902D01*
X-8938214Y-8687539D01*
X-8992211Y-8533225D01*
X-9079192Y-8394796D01*
X-9194796Y-8279192D01*
X-9333225Y-8192211D01*
X-9487539Y-8138214D01*
X-9487540Y-8138213D01*
X-9487542Y-8138213D01*
X-9649999Y-8119909D01*
X-9650001Y-8119909D01*
X-9812459Y-8138213D01*
X-9889618Y-8165212D01*
X-9966775Y-8192211D01*
X-9966777Y-8192211D01*
X-9966777Y-8192212D01*
X-10105204Y-8279192D01*
X-10220808Y-8394796D01*
X-10296312Y-8514960D01*
X-10307789Y-8533225D01*
X-10334788Y-8610382D01*
X-10361787Y-8687541D01*
X-10380091Y-8849999D01*
X-10380091Y-8850000D01*
X-11477434Y-8850000D01*
X-11501059Y-8813620D01*
X-11501936Y-8810828D01*
X-11538985Y-8688693D01*
X-11538986Y-8688691D01*
X-11631845Y-8514962D01*
X-11631846Y-8514960D01*
X-11756806Y-8362697D01*
X-11756811Y-8362692D01*
X-11909074Y-8237732D01*
X-11909076Y-8237731D01*
X-12082803Y-8144872D01*
X-12217336Y-8104061D01*
X-12217336Y-8824284D01*
X-12298451Y-8761151D01*
X-12408931Y-8723223D01*
X-12496341Y-8723223D01*
X-12582552Y-8737609D01*
X-12685283Y-8793204D01*
X-12764396Y-8879144D01*
X-12811318Y-8986115D01*
X-12820964Y-9102525D01*
X-12792289Y-9215761D01*
X-12728400Y-9313550D01*
X-12715972Y-9323223D01*
X-13436497Y-9323223D01*
X-13399327Y-9445756D01*
X-13396803Y-9522843D01*
X-13433161Y-9590864D01*
X-13498658Y-9631593D01*
X-13525799Y-9637135D01*
X-13550861Y-9639860D01*
X-13910937Y-9719119D01*
X-14260306Y-9836834D01*
X-14260316Y-9836839D01*
X-14594934Y-9991649D01*
X-14910835Y-10181721D01*
X-15204337Y-10404835D01*
X-15223480Y-10422967D01*
X-13906880Y-11739567D01*
X-13934180Y-11756832D01*
X-14121501Y-11922784D01*
X-14260512Y-12093041D01*
X-15574503Y-10779050D01*
X-15574504Y-10779050D01*
X-15710692Y-10939383D01*
X-15710694Y-10939386D01*
X-15917598Y-11244547D01*
X-16090285Y-11570271D01*
X-16090291Y-11570284D01*
X-16226751Y-11912773D01*
X-16226753Y-11912778D01*
X-16325387Y-12268023D01*
X-16325387Y-12268025D01*
X-16385035Y-12631857D01*
X-16385035Y-12631863D01*
X-16404994Y-12999991D01*
X-16404994Y-13000000D01*
X-17499500Y-13000000D01*
X-17499500Y-12999500D01*
X-17499500Y-8823222D01*
X-13436498Y-8823222D01*
X-13436497Y-8823223D01*
X-12717336Y-8823223D01*
X-12717336Y-8104062D01*
X-12717337Y-8104061D01*
X-12851870Y-8144872D01*
X-13025597Y-8237731D01*
X-13025599Y-8237732D01*
X-13177862Y-8362692D01*
X-13177867Y-8362697D01*
X-13302827Y-8514960D01*
X-13302828Y-8514962D01*
X-13395687Y-8688689D01*
X-13436498Y-8823222D01*
X-17499500Y-8823222D01*
X-17499500Y-5099495D01*
X-16255332Y-5099495D01*
X-16237028Y-5261953D01*
X-16237027Y-5261957D01*
X-16210428Y-5337974D01*
X-16204665Y-5414887D01*
X-16210428Y-5436393D01*
X-16236719Y-5511531D01*
X-16236721Y-5511538D01*
X-16255025Y-5673996D01*
X-16255025Y-5673997D01*
X-16236721Y-5836455D01*
X-16236721Y-5836457D01*
X-16236720Y-5836458D01*
X-16182723Y-5990772D01*
X-16095742Y-6129201D01*
X-15980138Y-6244805D01*
X-15841709Y-6331786D01*
X-15687395Y-6385783D01*
X-15579088Y-6397986D01*
X-15524935Y-6404088D01*
X-15524934Y-6404088D01*
X-15524933Y-6404088D01*
X-15484319Y-6399511D01*
X-15362473Y-6385783D01*
X-15208159Y-6331786D01*
X-15069730Y-6244805D01*
X-14954126Y-6129201D01*
X-14867145Y-5990772D01*
X-14813148Y-5836458D01*
X-14794843Y-5673997D01*
X-14811631Y-5525000D01*
X-12680091Y-5525000D01*
X-12661787Y-5687458D01*
X-12661787Y-5687460D01*
X-12661786Y-5687461D01*
X-12607789Y-5841775D01*
X-12520808Y-5980204D01*
X-12520807Y-5980205D01*
X-12408505Y-6092507D01*
X-12369941Y-6159302D01*
X-12369941Y-6236430D01*
X-12395651Y-6288567D01*
X-12408715Y-6305593D01*
X-12408718Y-6305598D01*
X-12467210Y-6446811D01*
X-12487159Y-6598347D01*
X-12487159Y-6598352D01*
X-12467210Y-6749888D01*
X-12408717Y-6891104D01*
X-12373145Y-6937461D01*
X-12315667Y-7012367D01*
X-12282142Y-7038092D01*
X-12194405Y-7105416D01*
X-12053189Y-7163909D01*
X-11968940Y-7175000D01*
X-11939702Y-7178849D01*
X-11939699Y-7178850D01*
X-11939697Y-7178850D01*
X-11863601Y-7178850D01*
X-11863600Y-7178849D01*
X-11822637Y-7173456D01*
X-11750112Y-7163909D01*
X-11750110Y-7163908D01*
X-11750109Y-7163908D01*
X-11608896Y-7105416D01*
X-11521157Y-7038090D01*
X-11449903Y-7008576D01*
X-11381241Y-7015662D01*
X-11377511Y-7016967D01*
X-11377508Y-7016969D01*
X-11223194Y-7070966D01*
X-11114887Y-7083169D01*
X-11060734Y-7089271D01*
X-11060733Y-7089271D01*
X-11060732Y-7089271D01*
X-11020118Y-7084694D01*
X-10898272Y-7070966D01*
X-10743958Y-7016969D01*
X-10605529Y-6929988D01*
X-10489925Y-6814384D01*
X-10421763Y-6705904D01*
X-10365226Y-6653445D01*
X-10290031Y-6636282D01*
X-10216330Y-6659016D01*
X-10180424Y-6690652D01*
X-10137304Y-6743193D01*
X-10137303Y-6743194D01*
X-9985040Y-6868154D01*
X-9985038Y-6868155D01*
X-9811309Y-6961014D01*
X-9804551Y-6963814D01*
X-9805225Y-6965440D01*
X-9747828Y-7001122D01*
X-9711462Y-7069139D01*
X-9708382Y-7087415D01*
X-9692529Y-7238254D01*
X-9657582Y-7345808D01*
X-9634033Y-7418284D01*
X-9594483Y-7486786D01*
X-9539385Y-7582220D01*
X-9412727Y-7722886D01*
X-9412725Y-7722888D01*
X-9259584Y-7834151D01*
X-9086657Y-7911144D01*
X-8945539Y-7941139D01*
X-8901502Y-7950500D01*
X-8901500Y-7950500D01*
X-8712206Y-7950500D01*
X-8672850Y-7942134D01*
X-8527051Y-7911144D01*
X-8354124Y-7834151D01*
X-8200983Y-7722888D01*
X-8112844Y-7625000D01*
X-8074324Y-7582220D01*
X-8074323Y-7582218D01*
X-8074321Y-7582216D01*
X-7979675Y-7418284D01*
X-7921180Y-7238256D01*
X-7901394Y-7050000D01*
X-7921180Y-6861744D01*
X-7949365Y-6775000D01*
X-3880091Y-6775000D01*
X-3861787Y-6937458D01*
X-3861787Y-6937460D01*
X-3861786Y-6937461D01*
X-3807789Y-7091775D01*
X-3720808Y-7230204D01*
X-3605204Y-7345808D01*
X-3466775Y-7432789D01*
X-3312461Y-7486786D01*
X-3204154Y-7498989D01*
X-3150001Y-7505091D01*
X-3150000Y-7505091D01*
X-3149999Y-7505091D01*
X-3109385Y-7500514D01*
X-2987539Y-7486786D01*
X-2833225Y-7432789D01*
X-2694796Y-7345808D01*
X-2579192Y-7230204D01*
X-2492211Y-7091775D01*
X-2438214Y-6937461D01*
X-2419909Y-6775000D01*
X-2438214Y-6612539D01*
X-2492211Y-6458225D01*
X-2579192Y-6319796D01*
X-2694796Y-6204192D01*
X-2833225Y-6117211D01*
X-2987539Y-6063214D01*
X-2987540Y-6063213D01*
X-2987542Y-6063213D01*
X-3149999Y-6044909D01*
X-3150001Y-6044909D01*
X-3312459Y-6063213D01*
X-3384021Y-6088254D01*
X-3466775Y-6117211D01*
X-3466777Y-6117211D01*
X-3466777Y-6117212D01*
X-3605204Y-6204192D01*
X-3720808Y-6319796D01*
X-3791448Y-6432219D01*
X-3807789Y-6458225D01*
X-3811525Y-6468902D01*
X-3861787Y-6612541D01*
X-3880091Y-6774999D01*
X-3880091Y-6775000D01*
X-7949365Y-6775000D01*
X-7979675Y-6681716D01*
X-8074321Y-6517784D01*
X-8074322Y-6517783D01*
X-8074324Y-6517779D01*
X-8200982Y-6377113D01*
X-8225665Y-6359180D01*
X-8354124Y-6265849D01*
X-8354125Y-6265848D01*
X-8354127Y-6265847D01*
X-8527049Y-6188857D01*
X-8527051Y-6188856D01*
X-8633494Y-6166231D01*
X-8712206Y-6149500D01*
X-8712208Y-6149500D01*
X-8901500Y-6149500D01*
X-8901502Y-6149500D01*
X-8981917Y-6166593D01*
X-9086657Y-6188856D01*
X-9086659Y-6188856D01*
X-9086660Y-6188857D01*
X-9119516Y-6203485D01*
X-9082795Y-6119772D01*
X-9073149Y-6003362D01*
X-9101824Y-5890126D01*
X-9165713Y-5792337D01*
X-9257892Y-5720592D01*
X-9368372Y-5682664D01*
X-9455782Y-5682664D01*
X-9541993Y-5697050D01*
X-9644724Y-5752645D01*
X-9676777Y-5787463D01*
X-9676777Y-5063503D01*
X-9676778Y-5063502D01*
X-9176777Y-5063502D01*
X-9176777Y-5782664D01*
X-8457616Y-5782664D01*
X-8457616Y-5782663D01*
X-8498427Y-5648130D01*
X-8591286Y-5474403D01*
X-8591287Y-5474401D01*
X-8716247Y-5322138D01*
X-8716252Y-5322133D01*
X-8868515Y-5197173D01*
X-8868517Y-5197172D01*
X-9042244Y-5104313D01*
X-9176777Y-5063502D01*
X-9676778Y-5063502D01*
X-9811311Y-5104313D01*
X-9985038Y-5197172D01*
X-9985040Y-5197173D01*
X-10137303Y-5322133D01*
X-10137308Y-5322138D01*
X-10262639Y-5474853D01*
X-10325333Y-5519778D01*
X-10402090Y-5527338D01*
X-10472342Y-5495506D01*
X-10517267Y-5432812D01*
X-10525880Y-5397010D01*
X-10527086Y-5386307D01*
X-10538214Y-5287539D01*
X-10592211Y-5133225D01*
X-10679192Y-4994796D01*
X-10794796Y-4879192D01*
X-10933225Y-4792211D01*
X-11087539Y-4738214D01*
X-11087540Y-4738213D01*
X-11087542Y-4738213D01*
X-11249999Y-4719909D01*
X-11250001Y-4719909D01*
X-11412459Y-4738213D01*
X-11566778Y-4792212D01*
X-11606459Y-4817144D01*
X-11680161Y-4839876D01*
X-11734937Y-4831619D01*
X-11787535Y-4813215D01*
X-11787542Y-4813213D01*
X-11949999Y-4794909D01*
X-11950001Y-4794909D01*
X-12112459Y-4813213D01*
X-12168749Y-4832910D01*
X-12266775Y-4867211D01*
X-12266777Y-4867211D01*
X-12266777Y-4867212D01*
X-12405204Y-4954192D01*
X-12520808Y-5069796D01*
X-12599350Y-5194795D01*
X-12607789Y-5208225D01*
X-12617558Y-5236144D01*
X-12661787Y-5362541D01*
X-12680091Y-5524999D01*
X-12680091Y-5525000D01*
X-14811631Y-5525000D01*
X-14813148Y-5511536D01*
X-14839749Y-5435517D01*
X-14845513Y-5358608D01*
X-14839751Y-5337101D01*
X-14813455Y-5261956D01*
X-14795150Y-5099495D01*
X-14813455Y-4937034D01*
X-14838502Y-4865457D01*
X-14844266Y-4788547D01*
X-14838506Y-4767048D01*
X-14810656Y-4687461D01*
X-14792351Y-4525000D01*
X-14793042Y-4518871D01*
X-14810656Y-4362541D01*
X-14810656Y-4362539D01*
X-14864653Y-4208225D01*
X-14951634Y-4069796D01*
X-15067238Y-3954192D01*
X-15205667Y-3867211D01*
X-15359981Y-3813214D01*
X-15359982Y-3813213D01*
X-15359984Y-3813213D01*
X-15522441Y-3794909D01*
X-15522443Y-3794909D01*
X-15684901Y-3813213D01*
X-15762060Y-3840212D01*
X-15839217Y-3867211D01*
X-15839219Y-3867211D01*
X-15839219Y-3867212D01*
X-15977646Y-3954192D01*
X-16093250Y-4069796D01*
X-16180230Y-4208223D01*
X-16234229Y-4362541D01*
X-16252533Y-4524999D01*
X-16252533Y-4525000D01*
X-16234228Y-4687461D01*
X-16225716Y-4711786D01*
X-16209183Y-4759036D01*
X-16203420Y-4835949D01*
X-16209183Y-4857456D01*
X-16237026Y-4937029D01*
X-16237028Y-4937036D01*
X-16255332Y-5099494D01*
X-16255332Y-5099495D01*
X-17499500Y-5099495D01*
X-17499500Y-2731439D01*
X-13780432Y-2731439D01*
X-13760647Y-2919693D01*
X-13702153Y-3099717D01*
X-13702151Y-3099723D01*
X-13651061Y-3188213D01*
X-13607503Y-3263659D01*
X-13480965Y-3404192D01*
X-13480843Y-3404327D01*
X-13327702Y-3515590D01*
X-13327701Y-3515590D01*
X-13327700Y-3515591D01*
X-13314664Y-3521395D01*
X-13154775Y-3592583D01*
X-13033267Y-3618410D01*
X-12969620Y-3631939D01*
X-12969618Y-3631939D01*
X-12780324Y-3631939D01*
X-12740968Y-3623573D01*
X-12595169Y-3592583D01*
X-12422242Y-3515590D01*
X-12269101Y-3404327D01*
X-12148070Y-3269909D01*
X-12142442Y-3263659D01*
X-12142441Y-3263657D01*
X-12142439Y-3263655D01*
X-12078617Y-3153111D01*
X-11429587Y-3153111D01*
X-11409802Y-3341365D01*
X-11359982Y-3494693D01*
X-11351306Y-3521395D01*
X-11311208Y-3590847D01*
X-11256658Y-3685331D01*
X-11134505Y-3820994D01*
X-11129998Y-3825999D01*
X-10976857Y-3937262D01*
X-10803930Y-4014255D01*
X-10662812Y-4044250D01*
X-10618775Y-4053611D01*
X-10618773Y-4053611D01*
X-10429479Y-4053611D01*
X-10390123Y-4045245D01*
X-10244324Y-4014255D01*
X-10071397Y-3937262D01*
X-10020110Y-3900000D01*
X-3430091Y-3900000D01*
X-3411787Y-4062458D01*
X-3411787Y-4062460D01*
X-3411786Y-4062461D01*
X-3357789Y-4216775D01*
X-3270808Y-4355204D01*
X-3155204Y-4470808D01*
X-3016775Y-4557789D01*
X-2862461Y-4611786D01*
X-2758266Y-4623526D01*
X-2700001Y-4630091D01*
X-2700000Y-4630091D01*
X-2699999Y-4630091D01*
X-2648515Y-4624290D01*
X-2537539Y-4611786D01*
X-2383225Y-4557789D01*
X-2244796Y-4470808D01*
X-2129192Y-4355204D01*
X-2112225Y-4328200D01*
X-2055686Y-4275741D01*
X-1980491Y-4258578D01*
X-1906790Y-4281312D01*
X-1859901Y-4328201D01*
X-1795808Y-4430204D01*
X-1680204Y-4545808D01*
X-1541775Y-4632789D01*
X-1387461Y-4686786D01*
X-1279154Y-4698989D01*
X-1225001Y-4705091D01*
X-1225000Y-4705091D01*
X-1224999Y-4705091D01*
X-1184385Y-4700514D01*
X-1062539Y-4686786D01*
X-997437Y-4664004D01*
X-920525Y-4658240D01*
X-899019Y-4664002D01*
X-762461Y-4711786D01*
X-654154Y-4723989D01*
X-600001Y-4730091D01*
X-600000Y-4730091D01*
X-599999Y-4730091D01*
X-559385Y-4725514D01*
X-437539Y-4711786D01*
X-318145Y-4670007D01*
X-241233Y-4664245D01*
X-219728Y-4670006D01*
X-100329Y-4711786D01*
X7978Y-4723989D01*
X62131Y-4730091D01*
X62132Y-4730091D01*
X62133Y-4730091D01*
X102747Y-4725514D01*
X224593Y-4711786D01*
X369356Y-4661130D01*
X446267Y-4655368D01*
X467768Y-4661128D01*
X612539Y-4711786D01*
X720846Y-4723989D01*
X774999Y-4730091D01*
X775000Y-4730091D01*
X775001Y-4730091D01*
X793306Y-4728028D01*
X937461Y-4711786D01*
X1050788Y-4672130D01*
X1127700Y-4666366D01*
X1149211Y-4672130D01*
X1262539Y-4711786D01*
X1404369Y-4727766D01*
X1424999Y-4730091D01*
X1425000Y-4730091D01*
X1425001Y-4730091D01*
X1465615Y-4725514D01*
X1587461Y-4711786D01*
X1741775Y-4657789D01*
X1880204Y-4570808D01*
X1932141Y-4518871D01*
X1998936Y-4480307D01*
X2076064Y-4480307D01*
X2142859Y-4518871D01*
X2169796Y-4545808D01*
X2308225Y-4632789D01*
X2462539Y-4686786D01*
X2570846Y-4698989D01*
X2624999Y-4705091D01*
X2625000Y-4705091D01*
X2625001Y-4705091D01*
X2665615Y-4700514D01*
X2787461Y-4686786D01*
X2941775Y-4632789D01*
X3080204Y-4545808D01*
X3195808Y-4430204D01*
X3230495Y-4375000D01*
X8119540Y-4375000D01*
X8139325Y-4563254D01*
X8179683Y-4687461D01*
X8197821Y-4743284D01*
X8251321Y-4835949D01*
X8292469Y-4907220D01*
X8410997Y-5038857D01*
X8419129Y-5047888D01*
X8572270Y-5159151D01*
X8745197Y-5236144D01*
X8866620Y-5261953D01*
X8913152Y-5271844D01*
X8981874Y-5306860D01*
X9017695Y-5362020D01*
X9019646Y-5361152D01*
X9022822Y-5368286D01*
X9033733Y-5387184D01*
X9117178Y-5531716D01*
X9117469Y-5532219D01*
X9223520Y-5650000D01*
X9244129Y-5672888D01*
X9397270Y-5784151D01*
X9570197Y-5861144D01*
X9706548Y-5890126D01*
X9755352Y-5900500D01*
X9755354Y-5900500D01*
X9944647Y-5900500D01*
X9993452Y-5890126D01*
X10025815Y-5883247D01*
X10102837Y-5887283D01*
X10167522Y-5929290D01*
X10191034Y-5964334D01*
X10192205Y-5966767D01*
X10215200Y-6003362D01*
X10279192Y-6105204D01*
X10394796Y-6220808D01*
X10533225Y-6307789D01*
X10687539Y-6361786D01*
X10795846Y-6373989D01*
X10849999Y-6380091D01*
X10850000Y-6380091D01*
X10850001Y-6380091D01*
X10890615Y-6375514D01*
X11012461Y-6361786D01*
X11166775Y-6307789D01*
X11305204Y-6220808D01*
X11420808Y-6105204D01*
X11507789Y-5966775D01*
X11561786Y-5812461D01*
X11580091Y-5650000D01*
X11561786Y-5487539D01*
X11507789Y-5333225D01*
X11420808Y-5194796D01*
X11305204Y-5079192D01*
X11166775Y-4992211D01*
X11058123Y-4954192D01*
X11012459Y-4938213D01*
X10863152Y-4921390D01*
X10791356Y-4893211D01*
X10743268Y-4832910D01*
X10738804Y-4818937D01*
X10738087Y-4819171D01*
X10729327Y-4792212D01*
X10677179Y-4631716D01*
X10677178Y-4631715D01*
X10674766Y-4624290D01*
X10677116Y-4623526D01*
X10667025Y-4559850D01*
X10686171Y-4500914D01*
X10777179Y-4343284D01*
X10835674Y-4163256D01*
X10855460Y-3975000D01*
X10835674Y-3786744D01*
X10777179Y-3606716D01*
X10744434Y-3550000D01*
X13519540Y-3550000D01*
X13539325Y-3738254D01*
X13583754Y-3874991D01*
X13597821Y-3918284D01*
X13630566Y-3975000D01*
X13692469Y-4082220D01*
X13819127Y-4222886D01*
X13819129Y-4222888D01*
X13972270Y-4334151D01*
X14145197Y-4411144D01*
X14286315Y-4441139D01*
X14330352Y-4450500D01*
X14330354Y-4450500D01*
X14519648Y-4450500D01*
X14559004Y-4442134D01*
X14704803Y-4411144D01*
X14877730Y-4334151D01*
X15030871Y-4222888D01*
X15107793Y-4137458D01*
X15157530Y-4082220D01*
X15157531Y-4082218D01*
X15157533Y-4082216D01*
X15252179Y-3918284D01*
X15310674Y-3738256D01*
X15330460Y-3550000D01*
X15310674Y-3361744D01*
X15252179Y-3181716D01*
X15157533Y-3017784D01*
X15157532Y-3017783D01*
X15157530Y-3017779D01*
X15030872Y-2877113D01*
X14877727Y-2765847D01*
X14704805Y-2688857D01*
X14704803Y-2688856D01*
X14562219Y-2658549D01*
X14519648Y-2649500D01*
X14519646Y-2649500D01*
X14330354Y-2649500D01*
X14330352Y-2649500D01*
X14230392Y-2670747D01*
X14145197Y-2688856D01*
X14145195Y-2688856D01*
X14145194Y-2688857D01*
X13972272Y-2765847D01*
X13819127Y-2877113D01*
X13692469Y-3017779D01*
X13597822Y-3181714D01*
X13597819Y-3181721D01*
X13539325Y-3361745D01*
X13519540Y-3550000D01*
X10744434Y-3550000D01*
X10682533Y-3442784D01*
X10682532Y-3442783D01*
X10682530Y-3442779D01*
X10555872Y-3302113D01*
X10555869Y-3302111D01*
X10402730Y-3190849D01*
X10402729Y-3190848D01*
X10402727Y-3190847D01*
X10229805Y-3113857D01*
X10229803Y-3113856D01*
X10123360Y-3091231D01*
X10044648Y-3074500D01*
X10044646Y-3074500D01*
X9855354Y-3074500D01*
X9855352Y-3074500D01*
X9755392Y-3095747D01*
X9670197Y-3113856D01*
X9670195Y-3113856D01*
X9670194Y-3113857D01*
X9497272Y-3190847D01*
X9363259Y-3288213D01*
X9344129Y-3302112D01*
X9233297Y-3425202D01*
X9168614Y-3467207D01*
X9122571Y-3474500D01*
X8930352Y-3474500D01*
X8830392Y-3495747D01*
X8745197Y-3513856D01*
X8745195Y-3513856D01*
X8745194Y-3513857D01*
X8572272Y-3590847D01*
X8419127Y-3702113D01*
X8292469Y-3842779D01*
X8197822Y-4006714D01*
X8197819Y-4006721D01*
X8139325Y-4186745D01*
X8119540Y-4375000D01*
X3230495Y-4375000D01*
X3282789Y-4291775D01*
X3336786Y-4137461D01*
X3355091Y-3975000D01*
X3352746Y-3954192D01*
X3348700Y-3918278D01*
X3336786Y-3812539D01*
X3282789Y-3658225D01*
X3195808Y-3519796D01*
X3080204Y-3404192D01*
X2941775Y-3317211D01*
X2787461Y-3263214D01*
X2787460Y-3263213D01*
X2787458Y-3263213D01*
X2625001Y-3244909D01*
X2624999Y-3244909D01*
X2462541Y-3263213D01*
X2391096Y-3288213D01*
X2308225Y-3317211D01*
X2308223Y-3317211D01*
X2308223Y-3317212D01*
X2169796Y-3404192D01*
X2117859Y-3456129D01*
X2051064Y-3494693D01*
X1973936Y-3494693D01*
X1907141Y-3456129D01*
X1880205Y-3429193D01*
X1880204Y-3429192D01*
X1741775Y-3342211D01*
X1587461Y-3288214D01*
X1587460Y-3288213D01*
X1587458Y-3288213D01*
X1425001Y-3269909D01*
X1424999Y-3269909D01*
X1262539Y-3288214D01*
X1149211Y-3327869D01*
X1072299Y-3333632D01*
X1050789Y-3327869D01*
X977176Y-3302111D01*
X937461Y-3288214D01*
X856230Y-3279061D01*
X775001Y-3269909D01*
X774999Y-3269909D01*
X612539Y-3288214D01*
X467777Y-3338868D01*
X390865Y-3344631D01*
X369355Y-3338868D01*
X264308Y-3302111D01*
X224593Y-3288214D01*
X143362Y-3279061D01*
X62133Y-3269909D01*
X62131Y-3269909D01*
X-100327Y-3288213D01*
X-140044Y-3302111D01*
X-219724Y-3329992D01*
X-296635Y-3335755D01*
X-318141Y-3329993D01*
X-437539Y-3288214D01*
X-437540Y-3288213D01*
X-437542Y-3288213D01*
X-599999Y-3269909D01*
X-600001Y-3269909D01*
X-762463Y-3288214D01*
X-827568Y-3310995D01*
X-904480Y-3316758D01*
X-925989Y-3310995D01*
X-952676Y-3301657D01*
X-1062539Y-3263214D01*
X-1143770Y-3254061D01*
X-1224999Y-3244909D01*
X-1225001Y-3244909D01*
X-1387459Y-3263213D01*
X-1458904Y-3288213D01*
X-1541775Y-3317211D01*
X-1541777Y-3317211D01*
X-1541777Y-3317212D01*
X-1680204Y-3404192D01*
X-1795807Y-3519795D01*
X-1795812Y-3519801D01*
X-1812779Y-3546802D01*
X-1869320Y-3599261D01*
X-1944515Y-3616421D01*
X-2018215Y-3593684D01*
X-2065100Y-3546798D01*
X-2081061Y-3521396D01*
X-2129192Y-3444796D01*
X-2244796Y-3329192D01*
X-2383225Y-3242211D01*
X-2537539Y-3188214D01*
X-2537540Y-3188213D01*
X-2537542Y-3188213D01*
X-2699999Y-3169909D01*
X-2700001Y-3169909D01*
X-2862459Y-3188213D01*
X-2939618Y-3215212D01*
X-3016775Y-3242211D01*
X-3016777Y-3242211D01*
X-3016777Y-3242212D01*
X-3155204Y-3329192D01*
X-3270808Y-3444796D01*
X-3334900Y-3546798D01*
X-3357789Y-3583225D01*
X-3369405Y-3616421D01*
X-3411787Y-3737541D01*
X-3430091Y-3899999D01*
X-3430091Y-3900000D01*
X-10020110Y-3900000D01*
X-9918256Y-3825999D01*
X-9871703Y-3774295D01*
X-9807019Y-3732290D01*
X-9729997Y-3728253D01*
X-9681704Y-3747834D01*
X-9620806Y-3786099D01*
X-9565276Y-3820992D01*
X-9565275Y-3820992D01*
X-9565272Y-3820994D01*
X-9410958Y-3874991D01*
X-9302651Y-3887194D01*
X-9248498Y-3893296D01*
X-9248497Y-3893296D01*
X-9248496Y-3893296D01*
X-9207882Y-3888719D01*
X-9086036Y-3874991D01*
X-8931722Y-3820994D01*
X-8793293Y-3734013D01*
X-8677689Y-3618409D01*
X-8590708Y-3479980D01*
X-8590708Y-3479977D01*
X-8590595Y-3479799D01*
X-8534057Y-3427338D01*
X-8513646Y-3418433D01*
X-8483225Y-3407789D01*
X-8344796Y-3320808D01*
X-8229192Y-3205204D01*
X-8142211Y-3066775D01*
X-8088214Y-2912461D01*
X-8069909Y-2750000D01*
X-8088214Y-2587539D01*
X-8142211Y-2433225D01*
X-8229192Y-2294796D01*
X-8344796Y-2179192D01*
X-8483225Y-2092211D01*
X-8637539Y-2038214D01*
X-8637540Y-2038213D01*
X-8637542Y-2038213D01*
X-8799999Y-2019909D01*
X-8800001Y-2019909D01*
X-8962459Y-2038213D01*
X-9039618Y-2065212D01*
X-9116775Y-2092211D01*
X-9116777Y-2092211D01*
X-9116777Y-2092212D01*
X-9255204Y-2179192D01*
X-9370807Y-2294795D01*
X-9370808Y-2294795D01*
X-9411090Y-2358903D01*
X-9457789Y-2433225D01*
X-9457790Y-2433227D01*
X-9457902Y-2433406D01*
X-9514441Y-2485866D01*
X-9534845Y-2494768D01*
X-9547450Y-2499179D01*
X-9565271Y-2505415D01*
X-9670094Y-2571280D01*
X-9743796Y-2594013D01*
X-9818990Y-2576850D01*
X-9860094Y-2544818D01*
X-9918255Y-2480224D01*
X-9982695Y-2433406D01*
X-10071397Y-2368960D01*
X-10071398Y-2368959D01*
X-10071400Y-2368958D01*
X-10244322Y-2291968D01*
X-10244324Y-2291967D01*
X-10350767Y-2269342D01*
X-10429479Y-2252611D01*
X-10429481Y-2252611D01*
X-10618773Y-2252611D01*
X-10618775Y-2252611D01*
X-10714160Y-2272886D01*
X-10803930Y-2291967D01*
X-10803932Y-2291967D01*
X-10803933Y-2291968D01*
X-10976855Y-2368958D01*
X-11130000Y-2480224D01*
X-11256658Y-2620890D01*
X-11351305Y-2784825D01*
X-11351308Y-2784832D01*
X-11409802Y-2964856D01*
X-11429587Y-3153111D01*
X-12078617Y-3153111D01*
X-12047793Y-3099723D01*
X-11989298Y-2919695D01*
X-11969512Y-2731439D01*
X-11989298Y-2543183D01*
X-12047793Y-2363155D01*
X-12142439Y-2199223D01*
X-12142440Y-2199222D01*
X-12142442Y-2199218D01*
X-12269100Y-2058552D01*
X-12321052Y-2020807D01*
X-12422242Y-1947288D01*
X-12422243Y-1947287D01*
X-12422245Y-1947286D01*
X-12595167Y-1870296D01*
X-12595169Y-1870295D01*
X-12701612Y-1847670D01*
X-12780324Y-1830939D01*
X-12780326Y-1830939D01*
X-12969618Y-1830939D01*
X-12969620Y-1830939D01*
X-13069580Y-1852186D01*
X-13154775Y-1870295D01*
X-13154777Y-1870295D01*
X-13154778Y-1870296D01*
X-13327700Y-1947286D01*
X-13480845Y-2058552D01*
X-13607503Y-2199218D01*
X-13702150Y-2363153D01*
X-13702153Y-2363160D01*
X-13760647Y-2543184D01*
X-13780432Y-2731439D01*
X-17499500Y-2731439D01*
X-17499500Y1725716D01*
X-17479538Y1800216D01*
X-17425000Y1854754D01*
X-17350500Y1874716D01*
X-17276000Y1854754D01*
X-17224340Y1804991D01*
X-17170808Y1719796D01*
X-17055204Y1604192D01*
X-16916775Y1517211D01*
X-16762461Y1463214D01*
X-16726204Y1459129D01*
X-16654407Y1430951D01*
X-16606318Y1370650D01*
X-16602248Y1360278D01*
X-16557791Y1233227D01*
X-16525741Y1182221D01*
X-16470808Y1094796D01*
X-16470807Y1094795D01*
X-16456371Y1080359D01*
X-16417807Y1013564D01*
X-16417807Y936436D01*
X-16456371Y869641D01*
X-16470808Y855204D01*
X-16557788Y716777D01*
X-16611787Y562459D01*
X-16630091Y400001D01*
X-16630091Y400000D01*
X-16611787Y237542D01*
X-16611787Y237540D01*
X-16611786Y237539D01*
X-16557789Y83225D01*
X-16470808Y-55204D01*
X-16355204Y-170808D01*
X-16216775Y-257789D01*
X-16138994Y-285006D01*
X-16075269Y-328453D01*
X-16041804Y-397943D01*
X-16040143Y-442326D01*
X-16055091Y-574997D01*
X-16055091Y-575000D01*
X-16036787Y-737458D01*
X-16036787Y-737460D01*
X-16036786Y-737461D01*
X-15982789Y-891775D01*
X-15895808Y-1030204D01*
X-15780204Y-1145808D01*
X-15641775Y-1232789D01*
X-15487461Y-1286786D01*
X-15379154Y-1298989D01*
X-15325001Y-1305091D01*
X-15325001Y-1305090D01*
X-15325000Y-1305091D01*
X-15257828Y-1297522D01*
X-15181562Y-1309017D01*
X-15135786Y-1340226D01*
X-15105204Y-1370808D01*
X-14966775Y-1457789D01*
X-14812461Y-1511786D01*
X-14704154Y-1523989D01*
X-14650001Y-1530091D01*
X-14650000Y-1530091D01*
X-14649999Y-1530091D01*
X-14609385Y-1525514D01*
X-14487539Y-1511786D01*
X-14333225Y-1457789D01*
X-14320829Y-1450000D01*
X-8255091Y-1450000D01*
X-8236787Y-1612458D01*
X-8236787Y-1612460D01*
X-8236786Y-1612461D01*
X-8182789Y-1766775D01*
X-8095808Y-1905204D01*
X-7980204Y-2020808D01*
X-7841775Y-2107789D01*
X-7687461Y-2161786D01*
X-7579154Y-2173989D01*
X-7525001Y-2180091D01*
X-7525000Y-2180091D01*
X-7524999Y-2180091D01*
X-7470847Y-2173989D01*
X-7362539Y-2161786D01*
X-7286959Y-2135338D01*
X-7210050Y-2129574D01*
X-7188545Y-2135336D01*
X-7112958Y-2161786D01*
X-6968803Y-2178028D01*
X-6950498Y-2180091D01*
X-6950497Y-2180091D01*
X-6950496Y-2180091D01*
X-6909882Y-2175514D01*
X-6788036Y-2161786D01*
X-6676235Y-2122664D01*
X-6599324Y-2116902D01*
X-6577815Y-2122665D01*
X-6537461Y-2136786D01*
X-6393306Y-2153028D01*
X-6375001Y-2155091D01*
X-6375000Y-2155091D01*
X-6374999Y-2155091D01*
X-6334385Y-2150514D01*
X-6212539Y-2136786D01*
X-6058225Y-2082789D01*
X-5919796Y-1995808D01*
X-5804192Y-1880204D01*
X-5736894Y-1773099D01*
X-5680356Y-1720641D01*
X-5605162Y-1703478D01*
X-5531460Y-1726212D01*
X-5523163Y-1731823D01*
X-5416730Y-1809151D01*
X-5243803Y-1886144D01*
X-5102685Y-1916139D01*
X-5058648Y-1925500D01*
X-5058646Y-1925500D01*
X-4869352Y-1925500D01*
X-4829996Y-1917134D01*
X-4684197Y-1886144D01*
X-4511270Y-1809151D01*
X-4358129Y-1697888D01*
X-4263082Y-1592328D01*
X-4231470Y-1557220D01*
X-4231469Y-1557218D01*
X-4231467Y-1557216D01*
X-4136821Y-1393284D01*
X-4078326Y-1213256D01*
X-4058540Y-1025000D01*
X-4078326Y-836744D01*
X-4136821Y-656716D01*
X-4231467Y-492784D01*
X-4231468Y-492783D01*
X-4231470Y-492779D01*
X-4358128Y-352113D01*
X-4401475Y-320620D01*
X-4511270Y-240849D01*
X-4511271Y-240848D01*
X-4511273Y-240847D01*
X-4684195Y-163857D01*
X-4684197Y-163856D01*
X-4790640Y-141231D01*
X-4869352Y-124500D01*
X-4869354Y-124500D01*
X-5058646Y-124500D01*
X-5058648Y-124500D01*
X-5158608Y-145747D01*
X-5243803Y-163856D01*
X-5243805Y-163856D01*
X-5243806Y-163857D01*
X-5416728Y-240847D01*
X-5569873Y-352113D01*
X-5696531Y-492779D01*
X-5791178Y-656714D01*
X-5791181Y-656721D01*
X-5807186Y-705980D01*
X-5849193Y-770665D01*
X-5917915Y-805680D01*
X-5994937Y-801643D01*
X-6028165Y-786098D01*
X-6058221Y-767212D01*
X-6212542Y-713213D01*
X-6374999Y-694909D01*
X-6375001Y-694909D01*
X-6537463Y-713214D01*
X-6649263Y-752334D01*
X-6726175Y-758097D01*
X-6747684Y-752334D01*
X-6758378Y-748592D01*
X-6788036Y-738214D01*
X-6871978Y-728756D01*
X-6950496Y-719909D01*
X-6950498Y-719909D01*
X-7112956Y-738213D01*
X-7112960Y-738214D01*
X-7188539Y-764660D01*
X-7265452Y-770423D01*
X-7286960Y-764660D01*
X-7322186Y-752334D01*
X-7362539Y-738214D01*
X-7446481Y-728756D01*
X-7524999Y-719909D01*
X-7525001Y-719909D01*
X-7687459Y-738213D01*
X-7744283Y-758097D01*
X-7841775Y-792211D01*
X-7841777Y-792211D01*
X-7841777Y-792212D01*
X-7980204Y-879192D01*
X-8095808Y-994796D01*
X-8172453Y-1116776D01*
X-8182789Y-1133225D01*
X-8187192Y-1145808D01*
X-8236787Y-1287541D01*
X-8255091Y-1449999D01*
X-8255091Y-1450000D01*
X-14320829Y-1450000D01*
X-14194796Y-1370808D01*
X-14079192Y-1255204D01*
X-13992211Y-1116775D01*
X-13938214Y-962461D01*
X-13919909Y-800000D01*
X-13923242Y-770423D01*
X-13928933Y-719909D01*
X-13938214Y-637539D01*
X-13992211Y-483225D01*
X-13992213Y-483222D01*
X-13992213Y-483221D01*
X-14021963Y-435875D01*
X-14044698Y-362173D01*
X-14038483Y-320983D01*
X-14040076Y-320620D01*
X-14038215Y-312463D01*
X-14038214Y-312461D01*
X-14019909Y-150000D01*
X-14038214Y12461D01*
X-14092211Y166775D01*
X-14179192Y305204D01*
X-14294796Y420808D01*
X-14433225Y507789D01*
X-14587539Y561786D01*
X-14587540Y561787D01*
X-14587542Y561787D01*
X-14749999Y580091D01*
X-14750001Y580091D01*
X-14912463Y561786D01*
X-15017287Y525107D01*
X-15094199Y519344D01*
X-15163689Y552809D01*
X-15207135Y616534D01*
X-15242211Y716775D01*
X-15329192Y855204D01*
X-15343629Y869641D01*
X-15382193Y936436D01*
X-15382193Y1013564D01*
X-15343629Y1080359D01*
X-15329193Y1094795D01*
X-15329192Y1094796D01*
X-15242211Y1233225D01*
X-15188214Y1387539D01*
X-15169909Y1550000D01*
X-15175543Y1600000D01*
X1319540Y1600000D01*
X1339325Y1411746D01*
X1390189Y1255205D01*
X1397821Y1231716D01*
X1397822Y1231715D01*
X1492469Y1067780D01*
X1614519Y932232D01*
X1619129Y927112D01*
X1772270Y815849D01*
X1945197Y738856D01*
X2086315Y708861D01*
X2130352Y699500D01*
X2130354Y699500D01*
X2319648Y699500D01*
X2359004Y707866D01*
X2504803Y738856D01*
X2677730Y815849D01*
X2768859Y882059D01*
X2840864Y909699D01*
X2917042Y897633D01*
X2976982Y849095D01*
X3004623Y777090D01*
X3004623Y745942D01*
X2994540Y650001D01*
X3014325Y461746D01*
X3052325Y344796D01*
X3072821Y281716D01*
X3096172Y241271D01*
X3167469Y117780D01*
X3262302Y12459D01*
X3294129Y-22888D01*
X3447270Y-134151D01*
X3619881Y-211003D01*
X3679821Y-259541D01*
X3700983Y-301076D01*
X3722821Y-368284D01*
X3726767Y-375118D01*
X3817469Y-532220D01*
X3929572Y-656721D01*
X3944129Y-672888D01*
X4061410Y-758097D01*
X4069536Y-764001D01*
X4118074Y-823941D01*
X4130140Y-900120D01*
X4102500Y-972125D01*
X4092685Y-984245D01*
X4017469Y-1067780D01*
X3922822Y-1231714D01*
X3922819Y-1231721D01*
X3864325Y-1411745D01*
X3844540Y-1600000D01*
X3864325Y-1788254D01*
X3912587Y-1936786D01*
X3922821Y-1968284D01*
X3963195Y-2038214D01*
X4017469Y-2132220D01*
X4125871Y-2252611D01*
X4144129Y-2272888D01*
X4297270Y-2384151D01*
X4470197Y-2461144D01*
X4611315Y-2491139D01*
X4655352Y-2500500D01*
X4655354Y-2500500D01*
X4844648Y-2500500D01*
X4884004Y-2492134D01*
X5029803Y-2461144D01*
X5202730Y-2384151D01*
X5355871Y-2272888D01*
X5440235Y-2179193D01*
X5482530Y-2132220D01*
X5482531Y-2132218D01*
X5482533Y-2132216D01*
X5577179Y-1968284D01*
X5635674Y-1788256D01*
X5655460Y-1600000D01*
X5635674Y-1411744D01*
X5577179Y-1231716D01*
X5482533Y-1067784D01*
X5482532Y-1067783D01*
X5482530Y-1067779D01*
X5398271Y-974201D01*
X5363255Y-905479D01*
X5367291Y-828457D01*
X5409298Y-763772D01*
X5478020Y-728756D01*
X5508999Y-725500D01*
X5544648Y-725500D01*
X5584004Y-717134D01*
X5729803Y-686144D01*
X5902730Y-609151D01*
X6002803Y-536444D01*
X8183465Y-536444D01*
X8201769Y-698902D01*
X8201769Y-698904D01*
X8201770Y-698905D01*
X8255767Y-853219D01*
X8342748Y-991648D01*
X8458352Y-1107252D01*
X8596781Y-1194233D01*
X8751095Y-1248230D01*
X8831976Y-1257343D01*
X8903772Y-1285521D01*
X8951861Y-1345822D01*
X8960862Y-1379415D01*
X8961352Y-1379304D01*
X8963212Y-1387453D01*
X8963213Y-1387457D01*
X8963214Y-1387461D01*
X9017211Y-1541775D01*
X9104192Y-1680204D01*
X9219796Y-1795808D01*
X9358225Y-1882789D01*
X9512539Y-1936786D01*
X9605729Y-1947286D01*
X9674999Y-1955091D01*
X9675000Y-1955091D01*
X9675001Y-1955091D01*
X9744253Y-1947288D01*
X9837461Y-1936786D01*
X9991775Y-1882789D01*
X10130204Y-1795808D01*
X10245808Y-1680204D01*
X10332789Y-1541775D01*
X10386786Y-1387461D01*
X10405091Y-1225000D01*
X10386786Y-1062539D01*
X10332789Y-908225D01*
X10245808Y-769796D01*
X10130204Y-654192D01*
X10130201Y-654190D01*
X10086635Y-626815D01*
X10034175Y-570276D01*
X10017013Y-495081D01*
X10039748Y-421380D01*
X10096287Y-368920D01*
X10114002Y-361192D01*
X10115768Y-360341D01*
X10115773Y-360340D01*
X10254202Y-273359D01*
X10369806Y-157755D01*
X10456787Y-19326D01*
X10475177Y33233D01*
X10518621Y96954D01*
X10566599Y124655D01*
X10616775Y142211D01*
X10755204Y229192D01*
X10870808Y344796D01*
X10957789Y483225D01*
X11011786Y637539D01*
X11030091Y800000D01*
X11011786Y962461D01*
X10957789Y1116775D01*
X10870808Y1255204D01*
X10755204Y1370808D01*
X10616775Y1457789D01*
X10462461Y1511786D01*
X10462460Y1511787D01*
X10462458Y1511787D01*
X10300001Y1530091D01*
X10299999Y1530091D01*
X10137541Y1511787D01*
X10135701Y1511143D01*
X9983225Y1457789D01*
X9983223Y1457789D01*
X9983223Y1457788D01*
X9844796Y1370808D01*
X9729192Y1255204D01*
X9642211Y1116776D01*
X9623820Y1064219D01*
X9580371Y1000494D01*
X9532395Y972795D01*
X9482223Y955239D01*
X9343794Y868257D01*
X9228191Y752654D01*
X9228187Y752651D01*
X9170270Y660477D01*
X9113730Y608017D01*
X9093323Y599113D01*
X9045233Y582285D01*
X8906805Y495304D01*
X8791201Y379700D01*
X8704219Y241272D01*
X8695089Y215178D01*
X8651640Y151452D01*
X8603670Y123756D01*
X8596783Y121347D01*
X8458351Y34364D01*
X8458351Y34363D01*
X8342748Y-81240D01*
X8261124Y-211144D01*
X8255767Y-219669D01*
X8248356Y-240849D01*
X8201769Y-373985D01*
X8183465Y-536443D01*
X8183465Y-536444D01*
X6002803Y-536444D01*
X6055871Y-497888D01*
X6166414Y-375118D01*
X6182530Y-357220D01*
X6182531Y-357218D01*
X6182533Y-357216D01*
X6277179Y-193284D01*
X6335674Y-13256D01*
X6355460Y175000D01*
X6335674Y363256D01*
X6277179Y543284D01*
X6182533Y707216D01*
X6182532Y707217D01*
X6182530Y707221D01*
X6055872Y847887D01*
X6054209Y849095D01*
X5902730Y959151D01*
X5902729Y959152D01*
X5902727Y959153D01*
X5729805Y1036143D01*
X5729803Y1036144D01*
X5623360Y1058769D01*
X5544648Y1075500D01*
X5544646Y1075500D01*
X5355354Y1075500D01*
X5355352Y1075500D01*
X5255392Y1054253D01*
X5170197Y1036144D01*
X5170195Y1036144D01*
X5170194Y1036143D01*
X4997267Y959151D01*
X4997266Y959150D01*
X4960216Y932232D01*
X4888211Y904593D01*
X4812032Y916660D01*
X4752094Y965200D01*
X4730932Y1006733D01*
X4727179Y1018284D01*
X4632533Y1182216D01*
X4632532Y1182217D01*
X4632530Y1182221D01*
X4505872Y1322887D01*
X4481902Y1340302D01*
X4352730Y1434151D01*
X4352729Y1434152D01*
X4352727Y1434153D01*
X4179805Y1511143D01*
X4179803Y1511144D01*
X4073360Y1533769D01*
X3994648Y1550500D01*
X3994646Y1550500D01*
X3805354Y1550500D01*
X3805352Y1550500D01*
X3709336Y1530091D01*
X3620197Y1511144D01*
X3620195Y1511144D01*
X3620194Y1511143D01*
X3447270Y1434152D01*
X3356139Y1367942D01*
X3284133Y1340302D01*
X3207955Y1352368D01*
X3148016Y1400907D01*
X3120376Y1472913D01*
X3120376Y1504055D01*
X3130460Y1600000D01*
X3110674Y1788256D01*
X3052179Y1968284D01*
X2957533Y2132216D01*
X2957532Y2132217D01*
X2957530Y2132221D01*
X2830872Y2272887D01*
X2741993Y2337461D01*
X2677730Y2384151D01*
X2677729Y2384152D01*
X2677727Y2384153D01*
X2504805Y2461143D01*
X2504803Y2461144D01*
X2398360Y2483769D01*
X2319648Y2500500D01*
X2319646Y2500500D01*
X2130354Y2500500D01*
X2130352Y2500500D01*
X2030392Y2479253D01*
X1945197Y2461144D01*
X1945195Y2461144D01*
X1945194Y2461143D01*
X1772272Y2384153D01*
X1619127Y2272887D01*
X1492469Y2132221D01*
X1397822Y1968286D01*
X1397819Y1968279D01*
X1339325Y1788255D01*
X1319540Y1600000D01*
X-15175543Y1600000D01*
X-15188214Y1712461D01*
X-15235997Y1849015D01*
X-15241759Y1925925D01*
X-15235995Y1947438D01*
X-15213214Y2012539D01*
X-15194909Y2175000D01*
X-15213214Y2337461D01*
X-15228699Y2381715D01*
X-15228852Y2382152D01*
X-15234617Y2459064D01*
X-15201152Y2528554D01*
X-15137428Y2572001D01*
X-15008225Y2617211D01*
X-14916255Y2675000D01*
X-5905091Y2675000D01*
X-5886787Y2512542D01*
X-5886787Y2512540D01*
X-5886786Y2512539D01*
X-5832789Y2358225D01*
X-5745808Y2219796D01*
X-5630204Y2104192D01*
X-5491775Y2017211D01*
X-5337461Y1963214D01*
X-5229154Y1951011D01*
X-5175001Y1944909D01*
X-5175000Y1944909D01*
X-5174999Y1944909D01*
X-5120847Y1951011D01*
X-5012539Y1963214D01*
X-4936959Y1989662D01*
X-4860050Y1995426D01*
X-4838545Y1989664D01*
X-4762958Y1963214D01*
X-4622942Y1947438D01*
X-4600498Y1944909D01*
X-4600497Y1944909D01*
X-4600496Y1944909D01*
X-4546344Y1951011D01*
X-4438036Y1963214D01*
X-4336959Y1998584D01*
X-4260050Y2004348D01*
X-4238545Y1998586D01*
X-4137461Y1963214D01*
X-3997445Y1947438D01*
X-3975001Y1944909D01*
X-3975000Y1944909D01*
X-3974999Y1944909D01*
X-3952555Y1947438D01*
X-3812539Y1963214D01*
X-3724211Y1994123D01*
X-3647301Y1999887D01*
X-3625797Y1994125D01*
X-3537461Y1963214D01*
X-3397445Y1947438D01*
X-3375001Y1944909D01*
X-3375000Y1944909D01*
X-3374999Y1944909D01*
X-3334385Y1949486D01*
X-3212539Y1963214D01*
X-3058225Y2017211D01*
X-2919796Y2104192D01*
X-2804192Y2219796D01*
X-2717211Y2358225D01*
X-2663214Y2512539D01*
X-2644909Y2675000D01*
X-2663214Y2837461D01*
X-2717211Y2991775D01*
X-2804192Y3130204D01*
X-2919796Y3245808D01*
X-3058225Y3332789D01*
X-3212539Y3386786D01*
X-3212540Y3386787D01*
X-3212542Y3386787D01*
X-3374999Y3405091D01*
X-3375001Y3405091D01*
X-3537461Y3386786D01*
X-3625789Y3355879D01*
X-3702702Y3350116D01*
X-3724211Y3355879D01*
X-3766289Y3370603D01*
X-3812539Y3386786D01*
X-3893770Y3395939D01*
X-3974999Y3405091D01*
X-3975001Y3405091D01*
X-4137459Y3386787D01*
X-4137463Y3386786D01*
X-4238539Y3351418D01*
X-4315451Y3345655D01*
X-4336960Y3351418D01*
X-4376701Y3365324D01*
X-4438036Y3386786D01*
X-4519267Y3395939D01*
X-4600496Y3405091D01*
X-4600498Y3405091D01*
X-4762956Y3386787D01*
X-4762960Y3386786D01*
X-4838539Y3360340D01*
X-4915452Y3354577D01*
X-4936960Y3360340D01*
X-4971256Y3372341D01*
X-5012539Y3386786D01*
X-5093770Y3395939D01*
X-5174999Y3405091D01*
X-5175001Y3405091D01*
X-5337459Y3386787D01*
X-5412668Y3360470D01*
X-5491775Y3332789D01*
X-5491777Y3332789D01*
X-5491777Y3332788D01*
X-5630204Y3245808D01*
X-5745808Y3130204D01*
X-5816806Y3017211D01*
X-5832789Y2991775D01*
X-5851614Y2937977D01*
X-5886787Y2837459D01*
X-5905091Y2675001D01*
X-5905091Y2675000D01*
X-14916255Y2675000D01*
X-14869796Y2704192D01*
X-14754192Y2819796D01*
X-14685202Y2929594D01*
X-14628665Y2982053D01*
X-14608262Y2990955D01*
X-14533225Y3017211D01*
X-14394796Y3104192D01*
X-14279192Y3219796D01*
X-14196110Y3352021D01*
X-14139572Y3404480D01*
X-14119168Y3413383D01*
X-14108225Y3417211D01*
X-13969796Y3504192D01*
X-13854192Y3619796D01*
X-13767211Y3758225D01*
X-13767212Y3758225D01*
X-13762759Y3765310D01*
X-13761576Y3764567D01*
X-13717140Y3816213D01*
X-13682404Y3833751D01*
X-13658225Y3842211D01*
X-13519796Y3929192D01*
X-13404192Y4044796D01*
X-13317211Y4183225D01*
X-13263214Y4337539D01*
X-13244909Y4500000D01*
X-13263214Y4662461D01*
X-13317211Y4816775D01*
X-13404192Y4955204D01*
X-13519796Y5070808D01*
X-13658225Y5157789D01*
X-13812539Y5211786D01*
X-13812540Y5211787D01*
X-13812542Y5211787D01*
X-13974999Y5230091D01*
X-13975001Y5230091D01*
X-14137459Y5211787D01*
X-14214618Y5184788D01*
X-14291775Y5157789D01*
X-14291777Y5157789D01*
X-14291777Y5157788D01*
X-14430204Y5070808D01*
X-14545807Y4955205D01*
X-14545808Y4955205D01*
X-14585595Y4891885D01*
X-14632789Y4816775D01*
X-14632790Y4816773D01*
X-14637240Y4809690D01*
X-14638421Y4810432D01*
X-14682887Y4758770D01*
X-14717597Y4741250D01*
X-14741775Y4732790D01*
X-14880204Y4645808D01*
X-14995808Y4530204D01*
X-15078889Y4397982D01*
X-15135428Y4345522D01*
X-15155837Y4336617D01*
X-15166775Y4332790D01*
X-15305204Y4245808D01*
X-15420810Y4130202D01*
X-15489799Y4020408D01*
X-15546338Y3967948D01*
X-15566747Y3959044D01*
X-15611511Y3943380D01*
X-15688424Y3937615D01*
X-15709934Y3943379D01*
X-15762538Y3961786D01*
X-15762542Y3961787D01*
X-15924999Y3980091D01*
X-15925001Y3980091D01*
X-16087459Y3961787D01*
X-16164618Y3934788D01*
X-16241775Y3907789D01*
X-16241777Y3907789D01*
X-16241777Y3907788D01*
X-16380204Y3820808D01*
X-16495808Y3705204D01*
X-16569741Y3587540D01*
X-16582789Y3566775D01*
X-16603507Y3507566D01*
X-16636787Y3412459D01*
X-16651461Y3282221D01*
X-16655091Y3250000D01*
X-16640250Y3118279D01*
X-16636786Y3087540D01*
X-16635680Y3084379D01*
X-16635492Y3081868D01*
X-16634924Y3079380D01*
X-16635300Y3079295D01*
X-16629917Y3007467D01*
X-16663381Y2937977D01*
X-16727108Y2894529D01*
X-16759625Y2887106D01*
X-16762458Y2886787D01*
X-16762461Y2886787D01*
X-16762461Y2886786D01*
X-16916775Y2832789D01*
X-16916777Y2832789D01*
X-16916777Y2832788D01*
X-17055204Y2745808D01*
X-17170808Y2630204D01*
X-17224338Y2545012D01*
X-17280878Y2492552D01*
X-17356072Y2475389D01*
X-17429773Y2498123D01*
X-17482233Y2554663D01*
X-17499500Y2624285D01*
X-17499500Y6600000D01*
X-9605091Y6600000D01*
X-9586787Y6437542D01*
X-9586787Y6437540D01*
X-9586786Y6437539D01*
X-9532789Y6283225D01*
X-9445808Y6144796D01*
X-9330204Y6029192D01*
X-9295148Y6007165D01*
X-9252455Y5980339D01*
X-9199995Y5923800D01*
X-9191090Y5903390D01*
X-9157790Y5808226D01*
X-9157789Y5808225D01*
X-9070808Y5669796D01*
X-8955204Y5554192D01*
X-8816775Y5467211D01*
X-8674687Y5417492D01*
X-8610961Y5374045D01*
X-8597738Y5356127D01*
X-8539579Y5263569D01*
X-8539576Y5263565D01*
X-8539574Y5263562D01*
X-8423970Y5147958D01*
X-8296942Y5068141D01*
X-8244483Y5011603D01*
X-8235579Y4991196D01*
X-8232790Y4983227D01*
X-8232789Y4983225D01*
X-8145808Y4844796D01*
X-8030204Y4729192D01*
X-7891775Y4642211D01*
X-7737461Y4588214D01*
X-7629154Y4576011D01*
X-7575001Y4569909D01*
X-7575000Y4569909D01*
X-7574999Y4569909D01*
X-7534385Y4574486D01*
X-7412539Y4588214D01*
X-7258225Y4642211D01*
X-7119796Y4729192D01*
X-7004192Y4844796D01*
X-6917211Y4983225D01*
X-6863214Y5137539D01*
X-6844909Y5300000D01*
X-6863214Y5462461D01*
X-6917211Y5616775D01*
X-7004192Y5755204D01*
X-7119796Y5870808D01*
X-7246825Y5950626D01*
X-7299285Y6007165D01*
X-7308188Y6027568D01*
X-7310977Y6035541D01*
X-7310980Y6035545D01*
X-7310979Y6035545D01*
X-7348281Y6094909D01*
X-7397958Y6173970D01*
X-7513562Y6289574D01*
X-7630583Y6363104D01*
X-7651994Y6376557D01*
X-7651993Y6376557D01*
X-7794081Y6426276D01*
X-7857807Y6469724D01*
X-7871031Y6487641D01*
X-7883964Y6508224D01*
X-7929192Y6580204D01*
X-8044796Y6695808D01*
X-8044799Y6695810D01*
X-8122548Y6744664D01*
X-8175008Y6801203D01*
X-8183913Y6821613D01*
X-8185098Y6825000D01*
X-5873841Y6825000D01*
X-5855537Y6662542D01*
X-5855537Y6662540D01*
X-5855536Y6662539D01*
X-5801539Y6508225D01*
X-5714558Y6369796D01*
X-5598954Y6254192D01*
X-5460525Y6167211D01*
X-5306211Y6113214D01*
X-5197904Y6101011D01*
X-5143751Y6094909D01*
X-5143750Y6094909D01*
X-5143749Y6094909D01*
X-5103135Y6099486D01*
X-4981289Y6113214D01*
X-4826975Y6167211D01*
X-4688546Y6254192D01*
X-4572942Y6369796D01*
X-4485961Y6508225D01*
X-4431964Y6662539D01*
X-4413659Y6825000D01*
X-4431964Y6987461D01*
X-4471620Y7100789D01*
X-4477384Y7177700D01*
X-4471619Y7199212D01*
X-4431964Y7312539D01*
X-4413659Y7475000D01*
X-4431964Y7637461D01*
X-4485961Y7791775D01*
X-4569672Y7925000D01*
X-2755091Y7925000D01*
X-2736787Y7762542D01*
X-2736787Y7762540D01*
X-2736786Y7762539D01*
X-2682789Y7608225D01*
X-2595808Y7469796D01*
X-2480204Y7354192D01*
X-2341775Y7267211D01*
X-2187461Y7213214D01*
X-2079154Y7201011D01*
X-2025001Y7194909D01*
X-2025000Y7194909D01*
X-2024999Y7194909D01*
X-1984385Y7199486D01*
X-1862539Y7213214D01*
X-1708225Y7267211D01*
X-1569796Y7354192D01*
X-1454192Y7469796D01*
X-1367211Y7608225D01*
X-1313214Y7762539D01*
X-1294909Y7925000D01*
X-1313214Y8087461D01*
X-1367211Y8241775D01*
X-1454192Y8380204D01*
X-1569796Y8495808D01*
X-1708225Y8582789D01*
X-1862539Y8636786D01*
X-1862540Y8636787D01*
X-1862542Y8636787D01*
X-2024999Y8655091D01*
X-2025001Y8655091D01*
X-2187459Y8636787D01*
X-2264618Y8609788D01*
X-2341775Y8582789D01*
X-2341777Y8582789D01*
X-2341777Y8582788D01*
X-2480204Y8495808D01*
X-2595808Y8380204D01*
X-2674350Y8255205D01*
X-2682789Y8241775D01*
X-2703601Y8182297D01*
X-2736787Y8087459D01*
X-2755091Y7925001D01*
X-2755091Y7925000D01*
X-4569672Y7925000D01*
X-4572942Y7930204D01*
X-4688546Y8045808D01*
X-4826975Y8132789D01*
X-4981289Y8186786D01*
X-4981290Y8186787D01*
X-4981292Y8186787D01*
X-5143749Y8205091D01*
X-5143751Y8205091D01*
X-5306209Y8186787D01*
X-5383368Y8159788D01*
X-5460525Y8132789D01*
X-5460527Y8132789D01*
X-5460527Y8132788D01*
X-5598954Y8045808D01*
X-5714558Y7930204D01*
X-5801538Y7791777D01*
X-5855537Y7637459D01*
X-5873841Y7475001D01*
X-5873841Y7475000D01*
X-5855536Y7312539D01*
X-5836378Y7257789D01*
X-5815881Y7199211D01*
X-5810118Y7122299D01*
X-5815881Y7100789D01*
X-5855536Y6987461D01*
X-5873841Y6825001D01*
X-5873841Y6825000D01*
X-8185098Y6825000D01*
X-8217211Y6916775D01*
X-8217213Y6916779D01*
X-8261626Y6987461D01*
X-8304192Y7055204D01*
X-8419796Y7170808D01*
X-8558225Y7257789D01*
X-8712539Y7311786D01*
X-8712540Y7311787D01*
X-8712542Y7311787D01*
X-8874999Y7330091D01*
X-8875001Y7330091D01*
X-9037459Y7311787D01*
X-9114618Y7284788D01*
X-9191775Y7257789D01*
X-9191777Y7257789D01*
X-9191777Y7257788D01*
X-9330204Y7170808D01*
X-9445808Y7055204D01*
X-9532788Y6916777D01*
X-9586787Y6762459D01*
X-9605091Y6600001D01*
X-9605091Y6600000D01*
X-17499500Y6600000D01*
X-17499500Y13000000D01*
X-16404994Y13000000D01*
X-16385035Y12631864D01*
X-16385035Y12631858D01*
X-16325387Y12268026D01*
X-16325387Y12268024D01*
X-16226753Y11912779D01*
X-16226751Y11912774D01*
X-16090291Y11570285D01*
X-16090285Y11570272D01*
X-15917596Y11244544D01*
X-15917593Y11244539D01*
X-15710697Y10939392D01*
X-15710688Y10939380D01*
X-15574504Y10779052D01*
X-15574503Y10779052D01*
X-14258650Y12094906D01*
X-14204544Y12016520D01*
X-14031184Y11836034D01*
X-13905135Y11741314D01*
X-15223480Y10422969D01*
X-15204343Y10404841D01*
X-15204342Y10404840D01*
X-14910835Y10181722D01*
X-14594934Y9991650D01*
X-14260316Y9836840D01*
X-14260306Y9836835D01*
X-13910937Y9719120D01*
X-13550869Y9639863D01*
X-13184344Y9600001D01*
X-13184334Y9600000D01*
X-12815666Y9600000D01*
X-12815641Y9600002D01*
X-12718979Y9610515D01*
X-12642758Y9598726D01*
X-12582642Y9550405D01*
X-12554742Y9478500D01*
X-12566531Y9402279D01*
X-12614852Y9342163D01*
X-12653655Y9321751D01*
X-12729275Y9295290D01*
X-12867704Y9208308D01*
X-12983308Y9092704D01*
X-13014359Y9043286D01*
X-13070289Y8954275D01*
X-13077655Y8933225D01*
X-13124287Y8799959D01*
X-13142591Y8637501D01*
X-13142591Y8637500D01*
X-13124287Y8475042D01*
X-13124287Y8475040D01*
X-13124286Y8475039D01*
X-13070289Y8320725D01*
X-12983308Y8182296D01*
X-12867704Y8066692D01*
X-12729275Y7979711D01*
X-12629878Y7944931D01*
X-12566154Y7901485D01*
X-12532689Y7831995D01*
X-12530091Y7804293D01*
X-12530091Y7800000D01*
X-12511787Y7637542D01*
X-12511787Y7637540D01*
X-12511786Y7637539D01*
X-12457789Y7483225D01*
X-12370808Y7344796D01*
X-12255204Y7229192D01*
X-12116775Y7142211D01*
X-11962461Y7088214D01*
X-11854154Y7076011D01*
X-11800001Y7069909D01*
X-11800000Y7069909D01*
X-11799999Y7069909D01*
X-11759385Y7074486D01*
X-11637539Y7088214D01*
X-11483225Y7142211D01*
X-11344796Y7229192D01*
X-11229192Y7344796D01*
X-11142211Y7483225D01*
X-11088214Y7637539D01*
X-11069909Y7800000D01*
X-11088214Y7962461D01*
X-11142211Y8116775D01*
X-11229192Y8255204D01*
X-11344796Y8370808D01*
X-11483225Y8457789D01*
X-11582622Y8492570D01*
X-11646347Y8536017D01*
X-11679811Y8605507D01*
X-11682409Y8633208D01*
X-11682409Y8637501D01*
X-11700377Y8796966D01*
X-11700714Y8799961D01*
X-11754711Y8954275D01*
X-11841692Y9092704D01*
X-11957296Y9208308D01*
X-12095725Y9295289D01*
X-12250039Y9349286D01*
X-12250040Y9349287D01*
X-12250042Y9349287D01*
X-12362549Y9361963D01*
X-12434345Y9390141D01*
X-12482434Y9450442D01*
X-12493929Y9526709D01*
X-12465751Y9598505D01*
X-12405450Y9646594D01*
X-12377896Y9655543D01*
X-12089064Y9719120D01*
X-11739695Y9836835D01*
X-11739685Y9836840D01*
X-11405067Y9991650D01*
X-11089166Y10181722D01*
X-10795648Y10404849D01*
X-10776521Y10422968D01*
X-12093121Y11739568D01*
X-12065820Y11756832D01*
X-11878499Y11922784D01*
X-11739489Y12093042D01*
X-10425499Y10779052D01*
X-10289310Y10939383D01*
X-10289306Y10939389D01*
X-10082408Y11244539D01*
X-10082405Y11244544D01*
X-9909716Y11570272D01*
X-9909710Y11570285D01*
X-9773250Y11912774D01*
X-9773248Y11912779D01*
X-9674614Y12268024D01*
X-9674614Y12268026D01*
X-9614966Y12631858D01*
X-9614966Y12631864D01*
X-9595006Y13000000D01*
X-9595006Y13000009D01*
X-9614966Y13368137D01*
X-9614966Y13368143D01*
X-9674614Y13731975D01*
X-9674614Y13731977D01*
X-9773248Y14087222D01*
X-9773250Y14087227D01*
X-9909710Y14429716D01*
X-9909716Y14429729D01*
X-10082405Y14755457D01*
X-10082408Y14755462D01*
X-10289304Y15060609D01*
X-10289313Y15060621D01*
X-10425498Y15220950D01*
X-10425499Y15220950D01*
X-11741352Y13905097D01*
X-11795456Y13983480D01*
X-11968816Y14163966D01*
X-12094868Y14258688D01*
X-10776521Y15577034D01*
X-10795653Y15595156D01*
X-11089166Y15818279D01*
X-11405067Y16008351D01*
X-11739685Y16163161D01*
X-11739695Y16163166D01*
X-12089064Y16280881D01*
X-12449132Y16360138D01*
X-12815657Y16400000D01*
X-13184344Y16400000D01*
X-13550869Y16360138D01*
X-13550870Y16360138D01*
X-13910937Y16280881D01*
X-14260306Y16163166D01*
X-14260316Y16163161D01*
X-14594934Y16008351D01*
X-14910835Y15818279D01*
X-15204337Y15595165D01*
X-15223480Y15577033D01*
X-13906880Y14260433D01*
X-13934180Y14243168D01*
X-14121501Y14077216D01*
X-14260512Y13906959D01*
X-15574503Y15220950D01*
X-15574504Y15220950D01*
X-15710692Y15060617D01*
X-15710694Y15060614D01*
X-15917598Y14755453D01*
X-16090285Y14429729D01*
X-16090291Y14429716D01*
X-16226751Y14087227D01*
X-16226753Y14087222D01*
X-16325387Y13731977D01*
X-16325387Y13731975D01*
X-16385035Y13368143D01*
X-16385035Y13368137D01*
X-16404994Y13000009D01*
X-16404994Y13000000D01*
X-17499500Y13000000D01*
X-17498975Y13012025D01*
X-17491000Y13194704D01*
X-17481740Y13394971D01*
X-17481186Y13401217D01*
X-17454810Y13601557D01*
X-17427744Y13795588D01*
X-17426707Y13801337D01*
X-17382727Y13999719D01*
X-17370371Y14052251D01*
X-17338050Y14189674D01*
X-17336596Y14194963D01*
X-17275319Y14389310D01*
X-17261776Y14429716D01*
X-17213375Y14574127D01*
X-17211599Y14578872D01*
X-17133458Y14767521D01*
X-17054734Y14945809D01*
X-17052705Y14950033D01*
X-16958296Y15131391D01*
X-16863423Y15301720D01*
X-16861217Y15305419D01*
X-16751218Y15478084D01*
X-16640955Y15639046D01*
X-16638667Y15642201D01*
X-16513902Y15804798D01*
X-16389154Y15955025D01*
X-16386844Y15957673D01*
X-16248226Y16108948D01*
X-16108948Y16248226D01*
X-15957673Y16386844D01*
X-15955025Y16389154D01*
X-15804809Y16513893D01*
X-15642201Y16638667D01*
X-15639046Y16640955D01*
X-15478084Y16751218D01*
X-15305419Y16861217D01*
X-15301720Y16863423D01*
X-15131391Y16958296D01*
X-14950033Y17052705D01*
X-14945809Y17054734D01*
X-14767477Y17133476D01*
X-14578872Y17211599D01*
X-14574127Y17213375D01*
X-14389308Y17275320D01*
X-14194963Y17336596D01*
X-14189674Y17338050D01*
X-13999767Y17382716D01*
X-13801337Y17426707D01*
X-13795588Y17427744D01*
X-13601542Y17454812D01*
X-13401217Y17481186D01*
X-13394971Y17481740D01*
X-13194704Y17491000D01*
X-13000000Y17499500D01*
X-12999500Y17499500D01*
X-4396585Y17499500D01*
X-4322085Y17479538D01*
G37*
%TD.AperFunction*%
%TD*%
M02*
