%TF.GenerationSoftware,KiCad,Pcbnew,7.0.8*%
%TF.CreationDate,2023-11-08T18:05:17-05:00*%
%TF.ProjectId,lemon-pepper,6c656d6f-6e2d-4706-9570-7065722e6b69,rev?*%
%TF.SameCoordinates,PX8b85c60PY52f2218*%
%TF.FileFunction,Drillmap*%
%TF.FilePolarity,Positive*%
%FSLAX45Y45*%
G04 Gerber Fmt 4.5, Leading zero omitted, Abs format (unit mm)*
G04 Created by KiCad (PCBNEW 7.0.8) date 2023-11-08 18:05:17*
%MOMM*%
%LPD*%
G01*
G04 APERTURE LIST*
%ADD10C,0.200000*%
%ADD11C,0.020000*%
%ADD12C,0.030000*%
%ADD13C,0.040000*%
%ADD14C,0.070000*%
%ADD15C,0.090002*%
%ADD16C,0.095000*%
%ADD17C,0.105000*%
%ADD18C,0.310000*%
G04 APERTURE END LIST*
D10*
D11*
X-1630000Y387500D02*
X-1610000Y367500D01*
X-1610000Y387500D02*
X-1630000Y367500D01*
X-1600000Y70000D02*
X-1580000Y50000D01*
X-1580000Y70000D02*
X-1600000Y50000D01*
X-1592500Y182500D02*
X-1572500Y162500D01*
X-1572500Y182500D02*
X-1592500Y162500D01*
X-1545000Y97500D02*
X-1525000Y77500D01*
X-1525000Y97500D02*
X-1545000Y77500D01*
X-1542500Y7500D02*
X-1522500Y-12500D01*
X-1522500Y7500D02*
X-1542500Y-12500D01*
X-1540000Y337500D02*
X-1520000Y317500D01*
X-1520000Y337500D02*
X-1540000Y317500D01*
X-1495000Y377500D02*
X-1475000Y357500D01*
X-1475000Y377500D02*
X-1495000Y357500D01*
X-1477500Y-57500D02*
X-1457500Y-77500D01*
X-1457500Y-57500D02*
X-1477500Y-77500D01*
X-1452500Y417500D02*
X-1432500Y397500D01*
X-1432500Y417500D02*
X-1452500Y397500D01*
X-1432623Y-7377D02*
X-1412623Y-27377D01*
X-1412623Y-7377D02*
X-1432623Y-27377D01*
X-1407500Y460000D02*
X-1387500Y440000D01*
X-1387500Y460000D02*
X-1407500Y440000D01*
X-1220000Y832500D02*
X-1200000Y812500D01*
X-1200000Y832500D02*
X-1220000Y812500D01*
X-975000Y-875000D02*
X-955000Y-895000D01*
X-955000Y-875000D02*
X-975000Y-895000D01*
X-900000Y-237500D02*
X-880000Y-257500D01*
X-880000Y-237500D02*
X-900000Y-257500D01*
X-890000Y-955000D02*
X-870000Y-975000D01*
X-870000Y-955000D02*
X-890000Y-975000D01*
X-862500Y637500D02*
X-842500Y617500D01*
X-842500Y637500D02*
X-862500Y617500D01*
X-815000Y585000D02*
X-795000Y565000D01*
X-795000Y585000D02*
X-815000Y565000D01*
X-800562Y789714D02*
X-780562Y769714D01*
X-780562Y789714D02*
X-800562Y769714D01*
X-770000Y532500D02*
X-750000Y512500D01*
X-750000Y532500D02*
X-770000Y512500D01*
X-762500Y842500D02*
X-742500Y822500D01*
X-742500Y842500D02*
X-762500Y822500D01*
X-732391Y-215109D02*
X-712391Y-235109D01*
X-712391Y-215109D02*
X-732391Y-235109D01*
X-730000Y-97500D02*
X-710000Y-117500D01*
X-710000Y-97500D02*
X-730000Y-117500D01*
X-705000Y530000D02*
X-685000Y510000D01*
X-685000Y530000D02*
X-705000Y510000D01*
X-685000Y-42500D02*
X-665000Y-62500D01*
X-665000Y-42500D02*
X-685000Y-62500D01*
X-675000Y-212500D02*
X-655000Y-232500D01*
X-655000Y-212500D02*
X-675000Y-232500D01*
X-565000Y360000D02*
X-545000Y340000D01*
X-545000Y360000D02*
X-565000Y340000D01*
X-535000Y580000D02*
X-515000Y560000D01*
X-515000Y580000D02*
X-535000Y560000D01*
X-502500Y360000D02*
X-482500Y340000D01*
X-482500Y360000D02*
X-502500Y340000D01*
X-480000Y537500D02*
X-460000Y517500D01*
X-460000Y537500D02*
X-480000Y517500D01*
X-444216Y360000D02*
X-424216Y340000D01*
X-424216Y360000D02*
X-444216Y340000D01*
X-325000Y-667500D02*
X-305000Y-687500D01*
X-305000Y-667500D02*
X-325000Y-687500D01*
X-132500Y-387500D02*
X-112500Y-407500D01*
X-112500Y-387500D02*
X-132500Y-407500D01*
X-70000Y-390000D02*
X-50000Y-410000D01*
X-50000Y-390000D02*
X-70000Y-410000D01*
X-42500Y657500D02*
X-22500Y637500D01*
X-22500Y657500D02*
X-42500Y637500D01*
X-3787Y-390000D02*
X16213Y-410000D01*
X16213Y-390000D02*
X-3787Y-410000D01*
X67500Y-390000D02*
X87500Y-410000D01*
X87500Y-390000D02*
X67500Y-410000D01*
X67500Y-455000D02*
X87500Y-475000D01*
X87500Y-455000D02*
X67500Y-475000D01*
X222500Y-475000D02*
X242500Y-495000D01*
X242500Y-475000D02*
X222500Y-495000D01*
X225000Y-415000D02*
X245000Y-435000D01*
X245000Y-415000D02*
X225000Y-435000D01*
X412500Y385000D02*
X432500Y365000D01*
X432500Y385000D02*
X412500Y365000D01*
X467475Y437546D02*
X487475Y417546D01*
X487475Y437546D02*
X467475Y417546D01*
X512450Y660000D02*
X532450Y640000D01*
X532450Y660000D02*
X512450Y640000D01*
X512500Y485000D02*
X532500Y465000D01*
X532500Y485000D02*
X512500Y465000D01*
X557487Y531324D02*
X577487Y511324D01*
X577487Y531324D02*
X557487Y511324D01*
X905000Y-47500D02*
X925000Y-67500D01*
X925000Y-47500D02*
X905000Y-67500D01*
X1022500Y55000D02*
X1042500Y35000D01*
X1042500Y55000D02*
X1022500Y35000D01*
X1090000Y55000D02*
X1110000Y35000D01*
X1110000Y55000D02*
X1090000Y35000D01*
X1150000Y52500D02*
X1170000Y32500D01*
X1170000Y52500D02*
X1150000Y32500D01*
D12*
X-355000Y1677500D02*
G75*
G03*
X-355000Y1677500I-15000J0D01*
G01*
X-105000Y1677500D02*
G75*
G03*
X-105000Y1677500I-15000J0D01*
G01*
X145000Y1677500D02*
G75*
G03*
X145000Y1677500I-15000J0D01*
G01*
X395000Y1677500D02*
G75*
G03*
X395000Y1677500I-15000J0D01*
G01*
D13*
X-1487500Y-247500D02*
X-1487500Y-287500D01*
X-1507500Y-267500D02*
X-1467500Y-267500D01*
X-1287497Y-253144D02*
X-1287497Y-293144D01*
X-1307497Y-273144D02*
X-1267497Y-273144D01*
X-1165000Y217500D02*
X-1165000Y177500D01*
X-1185000Y197500D02*
X-1145000Y197500D01*
X-1153393Y-300857D02*
X-1153393Y-340857D01*
X-1173393Y-320857D02*
X-1133393Y-320857D01*
X-1122566Y-966775D02*
X-1122566Y-1006775D01*
X-1142566Y-986775D02*
X-1102566Y-986775D01*
X-1037500Y335000D02*
X-1037500Y295000D01*
X-1057500Y315000D02*
X-1017500Y315000D01*
X-1037500Y215000D02*
X-1037500Y175000D01*
X-1057500Y195000D02*
X-1017500Y195000D01*
X-1037500Y87500D02*
X-1037500Y47500D01*
X-1057500Y67500D02*
X-1017500Y67500D01*
X-1007842Y-1082045D02*
X-1007842Y-1122045D01*
X-1027842Y-1102045D02*
X-987842Y-1102045D01*
X-912500Y217500D02*
X-912500Y177500D01*
X-932500Y197500D02*
X-892500Y197500D01*
X-862500Y840000D02*
X-862500Y800000D01*
X-882500Y820000D02*
X-842500Y820000D01*
X-837500Y-685000D02*
X-837500Y-725000D01*
X-857500Y-705000D02*
X-817500Y-705000D01*
X-727742Y-839078D02*
X-727742Y-879078D01*
X-747742Y-859078D02*
X-707742Y-859078D01*
X-669950Y780000D02*
X-669950Y740000D01*
X-689950Y760000D02*
X-649950Y760000D01*
X-627500Y1645000D02*
X-627500Y1605000D01*
X-647500Y1625000D02*
X-607500Y1625000D01*
X-625000Y1442500D02*
X-625000Y1402500D01*
X-645000Y1422500D02*
X-605000Y1422500D01*
X-625000Y1237500D02*
X-625000Y1197500D01*
X-645000Y1217500D02*
X-605000Y1217500D01*
X-625000Y-1642500D02*
X-625000Y-1682500D01*
X-645000Y-1662500D02*
X-605000Y-1662500D01*
X-545000Y914322D02*
X-545000Y874322D01*
X-565000Y894322D02*
X-525000Y894322D01*
X-539540Y-617550D02*
X-539540Y-657550D01*
X-559540Y-637550D02*
X-519540Y-637550D01*
X-537550Y-80000D02*
X-537550Y-120000D01*
X-557550Y-100000D02*
X-517550Y-100000D01*
X-472500Y-870000D02*
X-472500Y-910000D01*
X-492500Y-890000D02*
X-452500Y-890000D01*
X-438956Y-2653D02*
X-438956Y-42653D01*
X-458956Y-22652D02*
X-418956Y-22652D01*
X-240000Y-1632500D02*
X-240000Y-1672500D01*
X-260000Y-1652500D02*
X-220000Y-1652500D01*
X-237500Y-1440000D02*
X-237500Y-1480000D01*
X-257500Y-1460000D02*
X-217500Y-1460000D01*
X-220000Y-1100000D02*
X-220000Y-1140000D01*
X-240000Y-1120000D02*
X-200000Y-1120000D01*
X-199950Y767500D02*
X-199950Y727500D01*
X-219950Y747500D02*
X-179950Y747500D01*
X-195000Y-110000D02*
X-195000Y-150000D01*
X-215000Y-130000D02*
X-175000Y-130000D01*
X-170000Y-1195000D02*
X-170000Y-1235000D01*
X-190000Y-1215000D02*
X-150000Y-1215000D01*
X-112500Y-1100000D02*
X-112500Y-1140000D01*
X-132500Y-1120000D02*
X-92500Y-1120000D01*
X-75000Y909130D02*
X-75000Y869130D01*
X-95000Y889130D02*
X-55000Y889130D01*
X-62500Y-1195000D02*
X-62500Y-1235000D01*
X-82500Y-1215000D02*
X-42500Y-1215000D01*
X-30000Y-850000D02*
X-30000Y-890000D01*
X-50000Y-870000D02*
X-10000Y-870000D01*
X-25000Y-660000D02*
X-25000Y-700000D01*
X-45000Y-680000D02*
X-5000Y-680000D01*
X50000Y-1195000D02*
X50000Y-1235000D01*
X30000Y-1215000D02*
X70000Y-1215000D01*
X147500Y-592500D02*
X147500Y-632500D01*
X127500Y-612500D02*
X167500Y-612500D01*
X222371Y67584D02*
X222371Y27584D01*
X202371Y47584D02*
X242371Y47584D01*
X222500Y180000D02*
X222500Y140000D01*
X202500Y160000D02*
X242500Y160000D01*
X232500Y-1165000D02*
X232500Y-1205000D01*
X212500Y-1185000D02*
X252500Y-1185000D01*
X315000Y758799D02*
X315000Y718799D01*
X295000Y738799D02*
X335000Y738799D01*
X347500Y-1070000D02*
X347500Y-1110000D01*
X327500Y-1090000D02*
X367500Y-1090000D01*
X347500Y-1162500D02*
X347500Y-1202500D01*
X327500Y-1182500D02*
X367500Y-1182500D01*
X390000Y85000D02*
X390000Y45000D01*
X370000Y65000D02*
X410000Y65000D01*
X427500Y295000D02*
X427500Y255000D01*
X407500Y275000D02*
X447500Y275000D01*
X450000Y907500D02*
X450000Y867500D01*
X430000Y887500D02*
X470000Y887500D01*
X455000Y20000D02*
X455000Y-20000D01*
X435000Y0D02*
X475000Y0D01*
X545000Y37500D02*
X545000Y-2500D01*
X525000Y17500D02*
X565000Y17500D01*
X607500Y737500D02*
X607500Y697500D01*
X587500Y717500D02*
X627500Y717500D01*
X625000Y1645000D02*
X625000Y1605000D01*
X605000Y1625000D02*
X645000Y1625000D01*
X627500Y1445000D02*
X627500Y1405000D01*
X607500Y1425000D02*
X647500Y1425000D01*
X630566Y1237500D02*
X630566Y1197500D01*
X610566Y1217500D02*
X650566Y1217500D01*
X662500Y300000D02*
X662500Y260000D01*
X642500Y280000D02*
X682500Y280000D01*
X767500Y295000D02*
X767500Y255000D01*
X747500Y275000D02*
X787500Y275000D01*
X767500Y192500D02*
X767500Y152500D01*
X747500Y172500D02*
X787500Y172500D01*
X770000Y397500D02*
X770000Y357500D01*
X750000Y377500D02*
X790000Y377500D01*
X867500Y292500D02*
X867500Y252500D01*
X847500Y272500D02*
X887500Y272500D01*
X902500Y-417500D02*
X902500Y-457500D01*
X882500Y-437500D02*
X922500Y-437500D01*
X930000Y-602500D02*
X930000Y-642500D01*
X910000Y-622500D02*
X950000Y-622500D01*
X985000Y-480000D02*
X985000Y-520000D01*
X965000Y-500000D02*
X1005000Y-500000D01*
X995000Y-377500D02*
X995000Y-417500D01*
X975000Y-397500D02*
X1015000Y-397500D01*
X1000000Y-152500D02*
X1000000Y-192500D01*
X980000Y-172500D02*
X1020000Y-172500D01*
X1362500Y680000D02*
X1362500Y640000D01*
X1342500Y660000D02*
X1382500Y660000D01*
X1365000Y557500D02*
X1365000Y517500D01*
X1345000Y537500D02*
X1385000Y537500D01*
X1365000Y437500D02*
X1365000Y397500D01*
X1345000Y417500D02*
X1385000Y417500D01*
X1365000Y322500D02*
X1365000Y282500D01*
X1345000Y302500D02*
X1385000Y302500D01*
X1487500Y-562500D02*
X1487500Y-602500D01*
X1467500Y-582500D02*
X1507500Y-582500D01*
X1487500Y-652500D02*
X1487500Y-692500D01*
X1467500Y-672500D02*
X1507500Y-672500D01*
X1487500Y-742500D02*
X1487500Y-782500D01*
X1467500Y-762500D02*
X1507500Y-762500D01*
X1487500Y-827500D02*
X1487500Y-867500D01*
X1467500Y-847500D02*
X1507500Y-847500D01*
X1550000Y617500D02*
X1550000Y577500D01*
X1530000Y597500D02*
X1570000Y597500D01*
X1550415Y795050D02*
X1550415Y755050D01*
X1530415Y775050D02*
X1570415Y775050D01*
X1582500Y-307500D02*
X1582500Y-347500D01*
X1562500Y-327500D02*
X1602500Y-327500D01*
X1680000Y-570000D02*
X1680000Y-610000D01*
X1660000Y-590000D02*
X1700000Y-590000D01*
D14*
X-1164388Y-684647D02*
X-1164388Y-635149D01*
X-1213886Y-635149D01*
X-1213886Y-684647D01*
X-1164388Y-684647D01*
D15*
X-1245705Y-952386D02*
X-1200704Y-907385D01*
X-1245705Y-862384D01*
X-1290706Y-907385D01*
X-1245705Y-952386D01*
X-941649Y-648331D02*
X-896648Y-603329D01*
X-941649Y-558328D01*
X-986650Y-603329D01*
X-941649Y-648331D01*
X-906294Y-1291798D02*
X-861293Y-1246797D01*
X-906294Y-1201795D01*
X-951295Y-1246797D01*
X-906294Y-1291798D01*
X-602238Y-987742D02*
X-557237Y-942741D01*
X-602238Y-897739D01*
X-647239Y-942741D01*
X-602238Y-987742D01*
D16*
X-417500Y1537500D02*
X-322500Y1442500D01*
X-322500Y1537500D02*
X-417500Y1442500D01*
X-322500Y1490000D02*
G75*
G03*
X-322500Y1490000I-47500J0D01*
G01*
D10*
X-385000Y1442500D02*
X-355000Y1442500D01*
X-355000Y1442500D02*
G75*
G03*
X-355000Y1537500I0J47500D01*
G01*
X-355000Y1537500D02*
X-385000Y1537500D01*
X-385000Y1537500D02*
G75*
G03*
X-385000Y1442500I0J-47500D01*
G01*
D16*
X-167500Y1537500D02*
X-72500Y1442500D01*
X-72500Y1537500D02*
X-167500Y1442500D01*
X-72500Y1490000D02*
G75*
G03*
X-72500Y1490000I-47500J0D01*
G01*
D10*
X-135000Y1442500D02*
X-105000Y1442500D01*
X-105000Y1442500D02*
G75*
G03*
X-105000Y1537500I0J47500D01*
G01*
X-105000Y1537500D02*
X-135000Y1537500D01*
X-135000Y1537500D02*
G75*
G03*
X-135000Y1442500I0J-47500D01*
G01*
D16*
X-75000Y-1425000D02*
X20000Y-1520000D01*
X20000Y-1425000D02*
X-75000Y-1520000D01*
X20000Y-1472500D02*
G75*
G03*
X20000Y-1472500I-47500J0D01*
G01*
X82500Y1537500D02*
X177500Y1442500D01*
X177500Y1537500D02*
X82500Y1442500D01*
X177500Y1490000D02*
G75*
G03*
X177500Y1490000I-47500J0D01*
G01*
D10*
X115000Y1442500D02*
X145000Y1442500D01*
X145000Y1442500D02*
G75*
G03*
X145000Y1537500I0J47500D01*
G01*
X145000Y1537500D02*
X115000Y1537500D01*
X115000Y1537500D02*
G75*
G03*
X115000Y1442500I0J-47500D01*
G01*
D16*
X175000Y-1425000D02*
X270000Y-1520000D01*
X270000Y-1425000D02*
X175000Y-1520000D01*
X270000Y-1472500D02*
G75*
G03*
X270000Y-1472500I-47500J0D01*
G01*
X332500Y1537500D02*
X427500Y1442500D01*
X427500Y1537500D02*
X332500Y1442500D01*
X427500Y1490000D02*
G75*
G03*
X427500Y1490000I-47500J0D01*
G01*
D10*
X365000Y1442500D02*
X395000Y1442500D01*
X395000Y1442500D02*
G75*
G03*
X395000Y1537500I0J47500D01*
G01*
X395000Y1537500D02*
X365000Y1537500D01*
X365000Y1537500D02*
G75*
G03*
X365000Y1442500I0J-47500D01*
G01*
D16*
X425000Y-1425000D02*
X520000Y-1520000D01*
X520000Y-1425000D02*
X425000Y-1520000D01*
X520000Y-1472500D02*
G75*
G03*
X520000Y-1472500I-47500J0D01*
G01*
X675000Y-1425000D02*
X770000Y-1520000D01*
X770000Y-1425000D02*
X675000Y-1520000D01*
X770000Y-1472500D02*
G75*
G03*
X770000Y-1472500I-47500J0D01*
G01*
D17*
X-422500Y1267500D02*
X-317500Y1162500D01*
X-317500Y1267500D02*
X-422500Y1162500D01*
X-370000Y1267500D02*
X-370000Y1162500D01*
X-422500Y1215000D02*
X-317500Y1215000D01*
X-172500Y1267500D02*
X-67500Y1162500D01*
X-67500Y1267500D02*
X-172500Y1162500D01*
X-120000Y1267500D02*
X-120000Y1162500D01*
X-172500Y1215000D02*
X-67500Y1215000D01*
X77500Y1267500D02*
X182500Y1162500D01*
X182500Y1267500D02*
X77500Y1162500D01*
X130000Y1267500D02*
X130000Y1162500D01*
X77500Y1215000D02*
X182500Y1215000D01*
X327500Y1267500D02*
X432500Y1162500D01*
X432500Y1267500D02*
X327500Y1162500D01*
X380000Y1267500D02*
X380000Y1162500D01*
X327500Y1215000D02*
X432500Y1215000D01*
D18*
X-1455000Y1455000D02*
X-1145000Y1145000D01*
X-1145000Y1455000D02*
X-1455000Y1145000D01*
X-1190397Y1190397D02*
X-1190397Y1409603D01*
X-1409603Y1409603D01*
X-1409603Y1190397D01*
X-1190397Y1190397D01*
X-1455000Y-1145000D02*
X-1145000Y-1455000D01*
X-1145000Y-1145000D02*
X-1455000Y-1455000D01*
X-1190397Y-1409603D02*
X-1190397Y-1190397D01*
X-1409603Y-1190397D01*
X-1409603Y-1409603D01*
X-1190397Y-1409603D01*
X1145000Y1455000D02*
X1455000Y1145000D01*
X1455000Y1455000D02*
X1145000Y1145000D01*
X1409603Y1190397D02*
X1409603Y1409603D01*
X1190397Y1409603D01*
X1190397Y1190397D01*
X1409603Y1190397D01*
X1145000Y-1145000D02*
X1455000Y-1455000D01*
X1455000Y-1145000D02*
X1145000Y-1455000D01*
X1409603Y-1409603D02*
X1409603Y-1190397D01*
X1190397Y-1190397D01*
X1190397Y-1409603D01*
X1409603Y-1409603D01*
D10*
X-1496723Y-2068984D02*
X-1496723Y-1868984D01*
X-1496723Y-1868984D02*
X-1449104Y-1868984D01*
X-1449104Y-1868984D02*
X-1420533Y-1878508D01*
X-1420533Y-1878508D02*
X-1401485Y-1897555D01*
X-1401485Y-1897555D02*
X-1391961Y-1916603D01*
X-1391961Y-1916603D02*
X-1382438Y-1954698D01*
X-1382438Y-1954698D02*
X-1382438Y-1983269D01*
X-1382438Y-1983269D02*
X-1391961Y-2021365D01*
X-1391961Y-2021365D02*
X-1401485Y-2040412D01*
X-1401485Y-2040412D02*
X-1420533Y-2059460D01*
X-1420533Y-2059460D02*
X-1449104Y-2068984D01*
X-1449104Y-2068984D02*
X-1496723Y-2068984D01*
X-1296723Y-2068984D02*
X-1296723Y-1935650D01*
X-1296723Y-1973746D02*
X-1287199Y-1954698D01*
X-1287199Y-1954698D02*
X-1277676Y-1945174D01*
X-1277676Y-1945174D02*
X-1258628Y-1935650D01*
X-1258628Y-1935650D02*
X-1239580Y-1935650D01*
X-1172914Y-2068984D02*
X-1172914Y-1935650D01*
X-1172914Y-1868984D02*
X-1182438Y-1878508D01*
X-1182438Y-1878508D02*
X-1172914Y-1888031D01*
X-1172914Y-1888031D02*
X-1163390Y-1878508D01*
X-1163390Y-1878508D02*
X-1172914Y-1868984D01*
X-1172914Y-1868984D02*
X-1172914Y-1888031D01*
X-1049104Y-2068984D02*
X-1068152Y-2059460D01*
X-1068152Y-2059460D02*
X-1077676Y-2040412D01*
X-1077676Y-2040412D02*
X-1077676Y-1868984D01*
X-944342Y-2068984D02*
X-963390Y-2059460D01*
X-963390Y-2059460D02*
X-972914Y-2040412D01*
X-972914Y-2040412D02*
X-972914Y-1868984D01*
X-715771Y-2068984D02*
X-715771Y-1868984D01*
X-715771Y-1868984D02*
X-649104Y-2011841D01*
X-649104Y-2011841D02*
X-582438Y-1868984D01*
X-582438Y-1868984D02*
X-582438Y-2068984D01*
X-401485Y-2068984D02*
X-401485Y-1964222D01*
X-401485Y-1964222D02*
X-411009Y-1945174D01*
X-411009Y-1945174D02*
X-430056Y-1935650D01*
X-430056Y-1935650D02*
X-468152Y-1935650D01*
X-468152Y-1935650D02*
X-487199Y-1945174D01*
X-401485Y-2059460D02*
X-420533Y-2068984D01*
X-420533Y-2068984D02*
X-468152Y-2068984D01*
X-468152Y-2068984D02*
X-487199Y-2059460D01*
X-487199Y-2059460D02*
X-496723Y-2040412D01*
X-496723Y-2040412D02*
X-496723Y-2021365D01*
X-496723Y-2021365D02*
X-487199Y-2002317D01*
X-487199Y-2002317D02*
X-468152Y-1992793D01*
X-468152Y-1992793D02*
X-420533Y-1992793D01*
X-420533Y-1992793D02*
X-401485Y-1983269D01*
X-306247Y-1935650D02*
X-306247Y-2135650D01*
X-306247Y-1945174D02*
X-287199Y-1935650D01*
X-287199Y-1935650D02*
X-249104Y-1935650D01*
X-249104Y-1935650D02*
X-230056Y-1945174D01*
X-230056Y-1945174D02*
X-220533Y-1954698D01*
X-220533Y-1954698D02*
X-211009Y-1973746D01*
X-211009Y-1973746D02*
X-211009Y-2030888D01*
X-211009Y-2030888D02*
X-220533Y-2049936D01*
X-220533Y-2049936D02*
X-230056Y-2059460D01*
X-230056Y-2059460D02*
X-249104Y-2068984D01*
X-249104Y-2068984D02*
X-287199Y-2068984D01*
X-287199Y-2068984D02*
X-306247Y-2059460D01*
X-125295Y-2049936D02*
X-115771Y-2059460D01*
X-115771Y-2059460D02*
X-125295Y-2068984D01*
X-125295Y-2068984D02*
X-134818Y-2059460D01*
X-134818Y-2059460D02*
X-125295Y-2049936D01*
X-125295Y-2049936D02*
X-125295Y-2068984D01*
X-125295Y-1945174D02*
X-115771Y-1954698D01*
X-115771Y-1954698D02*
X-125295Y-1964222D01*
X-125295Y-1964222D02*
X-134818Y-1954698D01*
X-134818Y-1954698D02*
X-125295Y-1945174D01*
X-125295Y-1945174D02*
X-125295Y-1964222D01*
D11*
X-1777500Y-2387500D02*
X-1757500Y-2407500D01*
X-1757500Y-2387500D02*
X-1777500Y-2407500D01*
D10*
X-1458628Y-2288984D02*
X-1439580Y-2288984D01*
X-1439580Y-2288984D02*
X-1420533Y-2298508D01*
X-1420533Y-2298508D02*
X-1411009Y-2308031D01*
X-1411009Y-2308031D02*
X-1401485Y-2327079D01*
X-1401485Y-2327079D02*
X-1391961Y-2365174D01*
X-1391961Y-2365174D02*
X-1391961Y-2412793D01*
X-1391961Y-2412793D02*
X-1401485Y-2450889D01*
X-1401485Y-2450889D02*
X-1411009Y-2469936D01*
X-1411009Y-2469936D02*
X-1420533Y-2479460D01*
X-1420533Y-2479460D02*
X-1439580Y-2488984D01*
X-1439580Y-2488984D02*
X-1458628Y-2488984D01*
X-1458628Y-2488984D02*
X-1477676Y-2479460D01*
X-1477676Y-2479460D02*
X-1487199Y-2469936D01*
X-1487199Y-2469936D02*
X-1496723Y-2450889D01*
X-1496723Y-2450889D02*
X-1506247Y-2412793D01*
X-1506247Y-2412793D02*
X-1506247Y-2365174D01*
X-1506247Y-2365174D02*
X-1496723Y-2327079D01*
X-1496723Y-2327079D02*
X-1487199Y-2308031D01*
X-1487199Y-2308031D02*
X-1477676Y-2298508D01*
X-1477676Y-2298508D02*
X-1458628Y-2288984D01*
X-1306247Y-2469936D02*
X-1296723Y-2479460D01*
X-1296723Y-2479460D02*
X-1306247Y-2488984D01*
X-1306247Y-2488984D02*
X-1315771Y-2479460D01*
X-1315771Y-2479460D02*
X-1306247Y-2469936D01*
X-1306247Y-2469936D02*
X-1306247Y-2488984D01*
X-1220533Y-2308031D02*
X-1211009Y-2298508D01*
X-1211009Y-2298508D02*
X-1191961Y-2288984D01*
X-1191961Y-2288984D02*
X-1144342Y-2288984D01*
X-1144342Y-2288984D02*
X-1125295Y-2298508D01*
X-1125295Y-2298508D02*
X-1115771Y-2308031D01*
X-1115771Y-2308031D02*
X-1106247Y-2327079D01*
X-1106247Y-2327079D02*
X-1106247Y-2346127D01*
X-1106247Y-2346127D02*
X-1115771Y-2374698D01*
X-1115771Y-2374698D02*
X-1230057Y-2488984D01*
X-1230057Y-2488984D02*
X-1106247Y-2488984D01*
X-982437Y-2288984D02*
X-963390Y-2288984D01*
X-963390Y-2288984D02*
X-944342Y-2298508D01*
X-944342Y-2298508D02*
X-934818Y-2308031D01*
X-934818Y-2308031D02*
X-925295Y-2327079D01*
X-925295Y-2327079D02*
X-915771Y-2365174D01*
X-915771Y-2365174D02*
X-915771Y-2412793D01*
X-915771Y-2412793D02*
X-925295Y-2450889D01*
X-925295Y-2450889D02*
X-934818Y-2469936D01*
X-934818Y-2469936D02*
X-944342Y-2479460D01*
X-944342Y-2479460D02*
X-963390Y-2488984D01*
X-963390Y-2488984D02*
X-982437Y-2488984D01*
X-982437Y-2488984D02*
X-1001485Y-2479460D01*
X-1001485Y-2479460D02*
X-1011009Y-2469936D01*
X-1011009Y-2469936D02*
X-1020533Y-2450889D01*
X-1020533Y-2450889D02*
X-1030056Y-2412793D01*
X-1030056Y-2412793D02*
X-1030056Y-2365174D01*
X-1030056Y-2365174D02*
X-1020533Y-2327079D01*
X-1020533Y-2327079D02*
X-1011009Y-2308031D01*
X-1011009Y-2308031D02*
X-1001485Y-2298508D01*
X-1001485Y-2298508D02*
X-982437Y-2288984D01*
X-791961Y-2288984D02*
X-772914Y-2288984D01*
X-772914Y-2288984D02*
X-753866Y-2298508D01*
X-753866Y-2298508D02*
X-744342Y-2308031D01*
X-744342Y-2308031D02*
X-734818Y-2327079D01*
X-734818Y-2327079D02*
X-725295Y-2365174D01*
X-725295Y-2365174D02*
X-725295Y-2412793D01*
X-725295Y-2412793D02*
X-734818Y-2450889D01*
X-734818Y-2450889D02*
X-744342Y-2469936D01*
X-744342Y-2469936D02*
X-753866Y-2479460D01*
X-753866Y-2479460D02*
X-772914Y-2488984D01*
X-772914Y-2488984D02*
X-791961Y-2488984D01*
X-791961Y-2488984D02*
X-811009Y-2479460D01*
X-811009Y-2479460D02*
X-820533Y-2469936D01*
X-820533Y-2469936D02*
X-830056Y-2450889D01*
X-830056Y-2450889D02*
X-839580Y-2412793D01*
X-839580Y-2412793D02*
X-839580Y-2365174D01*
X-839580Y-2365174D02*
X-830056Y-2327079D01*
X-830056Y-2327079D02*
X-820533Y-2308031D01*
X-820533Y-2308031D02*
X-811009Y-2298508D01*
X-811009Y-2298508D02*
X-791961Y-2288984D01*
X-639580Y-2488984D02*
X-639580Y-2355650D01*
X-639580Y-2374698D02*
X-630057Y-2365174D01*
X-630057Y-2365174D02*
X-611009Y-2355650D01*
X-611009Y-2355650D02*
X-582437Y-2355650D01*
X-582437Y-2355650D02*
X-563390Y-2365174D01*
X-563390Y-2365174D02*
X-553866Y-2384222D01*
X-553866Y-2384222D02*
X-553866Y-2488984D01*
X-553866Y-2384222D02*
X-544342Y-2365174D01*
X-544342Y-2365174D02*
X-525295Y-2355650D01*
X-525295Y-2355650D02*
X-496723Y-2355650D01*
X-496723Y-2355650D02*
X-477675Y-2365174D01*
X-477675Y-2365174D02*
X-468152Y-2384222D01*
X-468152Y-2384222D02*
X-468152Y-2488984D01*
X-372914Y-2488984D02*
X-372914Y-2355650D01*
X-372914Y-2374698D02*
X-363390Y-2365174D01*
X-363390Y-2365174D02*
X-344342Y-2355650D01*
X-344342Y-2355650D02*
X-315771Y-2355650D01*
X-315771Y-2355650D02*
X-296723Y-2365174D01*
X-296723Y-2365174D02*
X-287199Y-2384222D01*
X-287199Y-2384222D02*
X-287199Y-2488984D01*
X-287199Y-2384222D02*
X-277676Y-2365174D01*
X-277676Y-2365174D02*
X-258628Y-2355650D01*
X-258628Y-2355650D02*
X-230056Y-2355650D01*
X-230056Y-2355650D02*
X-211009Y-2365174D01*
X-211009Y-2365174D02*
X-201485Y-2384222D01*
X-201485Y-2384222D02*
X-201485Y-2488984D01*
X188991Y-2279460D02*
X17563Y-2536603D01*
X446134Y-2288984D02*
X465182Y-2288984D01*
X465182Y-2288984D02*
X484229Y-2298508D01*
X484229Y-2298508D02*
X493753Y-2308031D01*
X493753Y-2308031D02*
X503277Y-2327079D01*
X503277Y-2327079D02*
X512801Y-2365174D01*
X512801Y-2365174D02*
X512801Y-2412793D01*
X512801Y-2412793D02*
X503277Y-2450889D01*
X503277Y-2450889D02*
X493753Y-2469936D01*
X493753Y-2469936D02*
X484229Y-2479460D01*
X484229Y-2479460D02*
X465182Y-2488984D01*
X465182Y-2488984D02*
X446134Y-2488984D01*
X446134Y-2488984D02*
X427086Y-2479460D01*
X427086Y-2479460D02*
X417563Y-2469936D01*
X417563Y-2469936D02*
X408039Y-2450889D01*
X408039Y-2450889D02*
X398515Y-2412793D01*
X398515Y-2412793D02*
X398515Y-2365174D01*
X398515Y-2365174D02*
X408039Y-2327079D01*
X408039Y-2327079D02*
X417563Y-2308031D01*
X417563Y-2308031D02*
X427086Y-2298508D01*
X427086Y-2298508D02*
X446134Y-2288984D01*
X598515Y-2469936D02*
X608039Y-2479460D01*
X608039Y-2479460D02*
X598515Y-2488984D01*
X598515Y-2488984D02*
X588991Y-2479460D01*
X588991Y-2479460D02*
X598515Y-2469936D01*
X598515Y-2469936D02*
X598515Y-2488984D01*
X731848Y-2288984D02*
X750896Y-2288984D01*
X750896Y-2288984D02*
X769944Y-2298508D01*
X769944Y-2298508D02*
X779467Y-2308031D01*
X779467Y-2308031D02*
X788991Y-2327079D01*
X788991Y-2327079D02*
X798515Y-2365174D01*
X798515Y-2365174D02*
X798515Y-2412793D01*
X798515Y-2412793D02*
X788991Y-2450889D01*
X788991Y-2450889D02*
X779467Y-2469936D01*
X779467Y-2469936D02*
X769944Y-2479460D01*
X769944Y-2479460D02*
X750896Y-2488984D01*
X750896Y-2488984D02*
X731848Y-2488984D01*
X731848Y-2488984D02*
X712801Y-2479460D01*
X712801Y-2479460D02*
X703277Y-2469936D01*
X703277Y-2469936D02*
X693753Y-2450889D01*
X693753Y-2450889D02*
X684229Y-2412793D01*
X684229Y-2412793D02*
X684229Y-2365174D01*
X684229Y-2365174D02*
X693753Y-2327079D01*
X693753Y-2327079D02*
X703277Y-2308031D01*
X703277Y-2308031D02*
X712801Y-2298508D01*
X712801Y-2298508D02*
X731848Y-2288984D01*
X922325Y-2288984D02*
X941372Y-2288984D01*
X941372Y-2288984D02*
X960420Y-2298508D01*
X960420Y-2298508D02*
X969944Y-2308031D01*
X969944Y-2308031D02*
X979467Y-2327079D01*
X979467Y-2327079D02*
X988991Y-2365174D01*
X988991Y-2365174D02*
X988991Y-2412793D01*
X988991Y-2412793D02*
X979467Y-2450889D01*
X979467Y-2450889D02*
X969944Y-2469936D01*
X969944Y-2469936D02*
X960420Y-2479460D01*
X960420Y-2479460D02*
X941372Y-2488984D01*
X941372Y-2488984D02*
X922325Y-2488984D01*
X922325Y-2488984D02*
X903277Y-2479460D01*
X903277Y-2479460D02*
X893753Y-2469936D01*
X893753Y-2469936D02*
X884229Y-2450889D01*
X884229Y-2450889D02*
X874706Y-2412793D01*
X874706Y-2412793D02*
X874706Y-2365174D01*
X874706Y-2365174D02*
X884229Y-2327079D01*
X884229Y-2327079D02*
X893753Y-2308031D01*
X893753Y-2308031D02*
X903277Y-2298508D01*
X903277Y-2298508D02*
X922325Y-2288984D01*
X1055658Y-2288984D02*
X1188991Y-2288984D01*
X1188991Y-2288984D02*
X1103277Y-2488984D01*
X1274706Y-2488984D02*
X1312801Y-2488984D01*
X1312801Y-2488984D02*
X1331849Y-2479460D01*
X1331849Y-2479460D02*
X1341372Y-2469936D01*
X1341372Y-2469936D02*
X1360420Y-2441365D01*
X1360420Y-2441365D02*
X1369944Y-2403270D01*
X1369944Y-2403270D02*
X1369944Y-2327079D01*
X1369944Y-2327079D02*
X1360420Y-2308031D01*
X1360420Y-2308031D02*
X1350896Y-2298508D01*
X1350896Y-2298508D02*
X1331849Y-2288984D01*
X1331849Y-2288984D02*
X1293753Y-2288984D01*
X1293753Y-2288984D02*
X1274706Y-2298508D01*
X1274706Y-2298508D02*
X1265182Y-2308031D01*
X1265182Y-2308031D02*
X1255658Y-2327079D01*
X1255658Y-2327079D02*
X1255658Y-2374698D01*
X1255658Y-2374698D02*
X1265182Y-2393746D01*
X1265182Y-2393746D02*
X1274706Y-2403270D01*
X1274706Y-2403270D02*
X1293753Y-2412793D01*
X1293753Y-2412793D02*
X1331849Y-2412793D01*
X1331849Y-2412793D02*
X1350896Y-2403270D01*
X1350896Y-2403270D02*
X1360420Y-2393746D01*
X1360420Y-2393746D02*
X1369944Y-2374698D01*
X1446134Y-2288984D02*
X1446134Y-2327079D01*
X1522325Y-2288984D02*
X1522325Y-2327079D01*
X1817563Y-2565174D02*
X1808039Y-2555650D01*
X1808039Y-2555650D02*
X1788991Y-2527079D01*
X1788991Y-2527079D02*
X1779468Y-2508031D01*
X1779468Y-2508031D02*
X1769944Y-2479460D01*
X1769944Y-2479460D02*
X1760420Y-2431841D01*
X1760420Y-2431841D02*
X1760420Y-2393746D01*
X1760420Y-2393746D02*
X1769944Y-2346127D01*
X1769944Y-2346127D02*
X1779468Y-2317555D01*
X1779468Y-2317555D02*
X1788991Y-2298508D01*
X1788991Y-2298508D02*
X1808039Y-2269936D01*
X1808039Y-2269936D02*
X1817563Y-2260412D01*
X1979468Y-2355650D02*
X1979468Y-2488984D01*
X1931848Y-2279460D02*
X1884229Y-2422317D01*
X1884229Y-2422317D02*
X2008039Y-2422317D01*
X2112801Y-2374698D02*
X2093753Y-2365174D01*
X2093753Y-2365174D02*
X2084229Y-2355650D01*
X2084229Y-2355650D02*
X2074706Y-2336603D01*
X2074706Y-2336603D02*
X2074706Y-2327079D01*
X2074706Y-2327079D02*
X2084229Y-2308031D01*
X2084229Y-2308031D02*
X2093753Y-2298508D01*
X2093753Y-2298508D02*
X2112801Y-2288984D01*
X2112801Y-2288984D02*
X2150896Y-2288984D01*
X2150896Y-2288984D02*
X2169944Y-2298508D01*
X2169944Y-2298508D02*
X2179468Y-2308031D01*
X2179468Y-2308031D02*
X2188991Y-2327079D01*
X2188991Y-2327079D02*
X2188991Y-2336603D01*
X2188991Y-2336603D02*
X2179468Y-2355650D01*
X2179468Y-2355650D02*
X2169944Y-2365174D01*
X2169944Y-2365174D02*
X2150896Y-2374698D01*
X2150896Y-2374698D02*
X2112801Y-2374698D01*
X2112801Y-2374698D02*
X2093753Y-2384222D01*
X2093753Y-2384222D02*
X2084229Y-2393746D01*
X2084229Y-2393746D02*
X2074706Y-2412793D01*
X2074706Y-2412793D02*
X2074706Y-2450889D01*
X2074706Y-2450889D02*
X2084229Y-2469936D01*
X2084229Y-2469936D02*
X2093753Y-2479460D01*
X2093753Y-2479460D02*
X2112801Y-2488984D01*
X2112801Y-2488984D02*
X2150896Y-2488984D01*
X2150896Y-2488984D02*
X2169944Y-2479460D01*
X2169944Y-2479460D02*
X2179468Y-2469936D01*
X2179468Y-2469936D02*
X2188991Y-2450889D01*
X2188991Y-2450889D02*
X2188991Y-2412793D01*
X2188991Y-2412793D02*
X2179468Y-2393746D01*
X2179468Y-2393746D02*
X2169944Y-2384222D01*
X2169944Y-2384222D02*
X2150896Y-2374698D01*
X2427087Y-2488984D02*
X2427087Y-2288984D01*
X2512801Y-2488984D02*
X2512801Y-2384222D01*
X2512801Y-2384222D02*
X2503277Y-2365174D01*
X2503277Y-2365174D02*
X2484230Y-2355650D01*
X2484230Y-2355650D02*
X2455658Y-2355650D01*
X2455658Y-2355650D02*
X2436611Y-2365174D01*
X2436611Y-2365174D02*
X2427087Y-2374698D01*
X2636611Y-2488984D02*
X2617563Y-2479460D01*
X2617563Y-2479460D02*
X2608039Y-2469936D01*
X2608039Y-2469936D02*
X2598515Y-2450889D01*
X2598515Y-2450889D02*
X2598515Y-2393746D01*
X2598515Y-2393746D02*
X2608039Y-2374698D01*
X2608039Y-2374698D02*
X2617563Y-2365174D01*
X2617563Y-2365174D02*
X2636611Y-2355650D01*
X2636611Y-2355650D02*
X2665182Y-2355650D01*
X2665182Y-2355650D02*
X2684230Y-2365174D01*
X2684230Y-2365174D02*
X2693753Y-2374698D01*
X2693753Y-2374698D02*
X2703277Y-2393746D01*
X2703277Y-2393746D02*
X2703277Y-2450889D01*
X2703277Y-2450889D02*
X2693753Y-2469936D01*
X2693753Y-2469936D02*
X2684230Y-2479460D01*
X2684230Y-2479460D02*
X2665182Y-2488984D01*
X2665182Y-2488984D02*
X2636611Y-2488984D01*
X2817563Y-2488984D02*
X2798515Y-2479460D01*
X2798515Y-2479460D02*
X2788992Y-2460412D01*
X2788992Y-2460412D02*
X2788992Y-2288984D01*
X2969944Y-2479460D02*
X2950896Y-2488984D01*
X2950896Y-2488984D02*
X2912801Y-2488984D01*
X2912801Y-2488984D02*
X2893753Y-2479460D01*
X2893753Y-2479460D02*
X2884230Y-2460412D01*
X2884230Y-2460412D02*
X2884230Y-2384222D01*
X2884230Y-2384222D02*
X2893753Y-2365174D01*
X2893753Y-2365174D02*
X2912801Y-2355650D01*
X2912801Y-2355650D02*
X2950896Y-2355650D01*
X2950896Y-2355650D02*
X2969944Y-2365174D01*
X2969944Y-2365174D02*
X2979468Y-2384222D01*
X2979468Y-2384222D02*
X2979468Y-2403270D01*
X2979468Y-2403270D02*
X2884230Y-2422317D01*
X3055658Y-2479460D02*
X3074706Y-2488984D01*
X3074706Y-2488984D02*
X3112801Y-2488984D01*
X3112801Y-2488984D02*
X3131849Y-2479460D01*
X3131849Y-2479460D02*
X3141372Y-2460412D01*
X3141372Y-2460412D02*
X3141372Y-2450889D01*
X3141372Y-2450889D02*
X3131849Y-2431841D01*
X3131849Y-2431841D02*
X3112801Y-2422317D01*
X3112801Y-2422317D02*
X3084230Y-2422317D01*
X3084230Y-2422317D02*
X3065182Y-2412793D01*
X3065182Y-2412793D02*
X3055658Y-2393746D01*
X3055658Y-2393746D02*
X3055658Y-2384222D01*
X3055658Y-2384222D02*
X3065182Y-2365174D01*
X3065182Y-2365174D02*
X3084230Y-2355650D01*
X3084230Y-2355650D02*
X3112801Y-2355650D01*
X3112801Y-2355650D02*
X3131849Y-2365174D01*
X3208039Y-2565174D02*
X3217563Y-2555650D01*
X3217563Y-2555650D02*
X3236611Y-2527079D01*
X3236611Y-2527079D02*
X3246134Y-2508031D01*
X3246134Y-2508031D02*
X3255658Y-2479460D01*
X3255658Y-2479460D02*
X3265182Y-2431841D01*
X3265182Y-2431841D02*
X3265182Y-2393746D01*
X3265182Y-2393746D02*
X3255658Y-2346127D01*
X3255658Y-2346127D02*
X3246134Y-2317555D01*
X3246134Y-2317555D02*
X3236611Y-2298508D01*
X3236611Y-2298508D02*
X3217563Y-2269936D01*
X3217563Y-2269936D02*
X3208039Y-2260412D01*
D12*
X-1757500Y-2661500D02*
G75*
G03*
X-1757500Y-2661500I-15000J0D01*
G01*
D10*
X-1458628Y-2552984D02*
X-1439580Y-2552984D01*
X-1439580Y-2552984D02*
X-1420533Y-2562508D01*
X-1420533Y-2562508D02*
X-1411009Y-2572031D01*
X-1411009Y-2572031D02*
X-1401485Y-2591079D01*
X-1401485Y-2591079D02*
X-1391961Y-2629174D01*
X-1391961Y-2629174D02*
X-1391961Y-2676793D01*
X-1391961Y-2676793D02*
X-1401485Y-2714889D01*
X-1401485Y-2714889D02*
X-1411009Y-2733936D01*
X-1411009Y-2733936D02*
X-1420533Y-2743460D01*
X-1420533Y-2743460D02*
X-1439580Y-2752984D01*
X-1439580Y-2752984D02*
X-1458628Y-2752984D01*
X-1458628Y-2752984D02*
X-1477676Y-2743460D01*
X-1477676Y-2743460D02*
X-1487199Y-2733936D01*
X-1487199Y-2733936D02*
X-1496723Y-2714889D01*
X-1496723Y-2714889D02*
X-1506247Y-2676793D01*
X-1506247Y-2676793D02*
X-1506247Y-2629174D01*
X-1506247Y-2629174D02*
X-1496723Y-2591079D01*
X-1496723Y-2591079D02*
X-1487199Y-2572031D01*
X-1487199Y-2572031D02*
X-1477676Y-2562508D01*
X-1477676Y-2562508D02*
X-1458628Y-2552984D01*
X-1306247Y-2733936D02*
X-1296723Y-2743460D01*
X-1296723Y-2743460D02*
X-1306247Y-2752984D01*
X-1306247Y-2752984D02*
X-1315771Y-2743460D01*
X-1315771Y-2743460D02*
X-1306247Y-2733936D01*
X-1306247Y-2733936D02*
X-1306247Y-2752984D01*
X-1230057Y-2552984D02*
X-1106247Y-2552984D01*
X-1106247Y-2552984D02*
X-1172914Y-2629174D01*
X-1172914Y-2629174D02*
X-1144342Y-2629174D01*
X-1144342Y-2629174D02*
X-1125295Y-2638698D01*
X-1125295Y-2638698D02*
X-1115771Y-2648222D01*
X-1115771Y-2648222D02*
X-1106247Y-2667270D01*
X-1106247Y-2667270D02*
X-1106247Y-2714889D01*
X-1106247Y-2714889D02*
X-1115771Y-2733936D01*
X-1115771Y-2733936D02*
X-1125295Y-2743460D01*
X-1125295Y-2743460D02*
X-1144342Y-2752984D01*
X-1144342Y-2752984D02*
X-1201485Y-2752984D01*
X-1201485Y-2752984D02*
X-1220533Y-2743460D01*
X-1220533Y-2743460D02*
X-1230057Y-2733936D01*
X-982437Y-2552984D02*
X-963390Y-2552984D01*
X-963390Y-2552984D02*
X-944342Y-2562508D01*
X-944342Y-2562508D02*
X-934818Y-2572031D01*
X-934818Y-2572031D02*
X-925295Y-2591079D01*
X-925295Y-2591079D02*
X-915771Y-2629174D01*
X-915771Y-2629174D02*
X-915771Y-2676793D01*
X-915771Y-2676793D02*
X-925295Y-2714889D01*
X-925295Y-2714889D02*
X-934818Y-2733936D01*
X-934818Y-2733936D02*
X-944342Y-2743460D01*
X-944342Y-2743460D02*
X-963390Y-2752984D01*
X-963390Y-2752984D02*
X-982437Y-2752984D01*
X-982437Y-2752984D02*
X-1001485Y-2743460D01*
X-1001485Y-2743460D02*
X-1011009Y-2733936D01*
X-1011009Y-2733936D02*
X-1020533Y-2714889D01*
X-1020533Y-2714889D02*
X-1030056Y-2676793D01*
X-1030056Y-2676793D02*
X-1030056Y-2629174D01*
X-1030056Y-2629174D02*
X-1020533Y-2591079D01*
X-1020533Y-2591079D02*
X-1011009Y-2572031D01*
X-1011009Y-2572031D02*
X-1001485Y-2562508D01*
X-1001485Y-2562508D02*
X-982437Y-2552984D01*
X-791961Y-2552984D02*
X-772914Y-2552984D01*
X-772914Y-2552984D02*
X-753866Y-2562508D01*
X-753866Y-2562508D02*
X-744342Y-2572031D01*
X-744342Y-2572031D02*
X-734818Y-2591079D01*
X-734818Y-2591079D02*
X-725295Y-2629174D01*
X-725295Y-2629174D02*
X-725295Y-2676793D01*
X-725295Y-2676793D02*
X-734818Y-2714889D01*
X-734818Y-2714889D02*
X-744342Y-2733936D01*
X-744342Y-2733936D02*
X-753866Y-2743460D01*
X-753866Y-2743460D02*
X-772914Y-2752984D01*
X-772914Y-2752984D02*
X-791961Y-2752984D01*
X-791961Y-2752984D02*
X-811009Y-2743460D01*
X-811009Y-2743460D02*
X-820533Y-2733936D01*
X-820533Y-2733936D02*
X-830056Y-2714889D01*
X-830056Y-2714889D02*
X-839580Y-2676793D01*
X-839580Y-2676793D02*
X-839580Y-2629174D01*
X-839580Y-2629174D02*
X-830056Y-2591079D01*
X-830056Y-2591079D02*
X-820533Y-2572031D01*
X-820533Y-2572031D02*
X-811009Y-2562508D01*
X-811009Y-2562508D02*
X-791961Y-2552984D01*
X-639580Y-2752984D02*
X-639580Y-2619650D01*
X-639580Y-2638698D02*
X-630057Y-2629174D01*
X-630057Y-2629174D02*
X-611009Y-2619650D01*
X-611009Y-2619650D02*
X-582437Y-2619650D01*
X-582437Y-2619650D02*
X-563390Y-2629174D01*
X-563390Y-2629174D02*
X-553866Y-2648222D01*
X-553866Y-2648222D02*
X-553866Y-2752984D01*
X-553866Y-2648222D02*
X-544342Y-2629174D01*
X-544342Y-2629174D02*
X-525295Y-2619650D01*
X-525295Y-2619650D02*
X-496723Y-2619650D01*
X-496723Y-2619650D02*
X-477675Y-2629174D01*
X-477675Y-2629174D02*
X-468152Y-2648222D01*
X-468152Y-2648222D02*
X-468152Y-2752984D01*
X-372914Y-2752984D02*
X-372914Y-2619650D01*
X-372914Y-2638698D02*
X-363390Y-2629174D01*
X-363390Y-2629174D02*
X-344342Y-2619650D01*
X-344342Y-2619650D02*
X-315771Y-2619650D01*
X-315771Y-2619650D02*
X-296723Y-2629174D01*
X-296723Y-2629174D02*
X-287199Y-2648222D01*
X-287199Y-2648222D02*
X-287199Y-2752984D01*
X-287199Y-2648222D02*
X-277676Y-2629174D01*
X-277676Y-2629174D02*
X-258628Y-2619650D01*
X-258628Y-2619650D02*
X-230056Y-2619650D01*
X-230056Y-2619650D02*
X-211009Y-2629174D01*
X-211009Y-2629174D02*
X-201485Y-2648222D01*
X-201485Y-2648222D02*
X-201485Y-2752984D01*
X188991Y-2543460D02*
X17563Y-2800603D01*
X446134Y-2552984D02*
X465182Y-2552984D01*
X465182Y-2552984D02*
X484229Y-2562508D01*
X484229Y-2562508D02*
X493753Y-2572031D01*
X493753Y-2572031D02*
X503277Y-2591079D01*
X503277Y-2591079D02*
X512801Y-2629174D01*
X512801Y-2629174D02*
X512801Y-2676793D01*
X512801Y-2676793D02*
X503277Y-2714889D01*
X503277Y-2714889D02*
X493753Y-2733936D01*
X493753Y-2733936D02*
X484229Y-2743460D01*
X484229Y-2743460D02*
X465182Y-2752984D01*
X465182Y-2752984D02*
X446134Y-2752984D01*
X446134Y-2752984D02*
X427086Y-2743460D01*
X427086Y-2743460D02*
X417563Y-2733936D01*
X417563Y-2733936D02*
X408039Y-2714889D01*
X408039Y-2714889D02*
X398515Y-2676793D01*
X398515Y-2676793D02*
X398515Y-2629174D01*
X398515Y-2629174D02*
X408039Y-2591079D01*
X408039Y-2591079D02*
X417563Y-2572031D01*
X417563Y-2572031D02*
X427086Y-2562508D01*
X427086Y-2562508D02*
X446134Y-2552984D01*
X598515Y-2733936D02*
X608039Y-2743460D01*
X608039Y-2743460D02*
X598515Y-2752984D01*
X598515Y-2752984D02*
X588991Y-2743460D01*
X588991Y-2743460D02*
X598515Y-2733936D01*
X598515Y-2733936D02*
X598515Y-2752984D01*
X731848Y-2552984D02*
X750896Y-2552984D01*
X750896Y-2552984D02*
X769944Y-2562508D01*
X769944Y-2562508D02*
X779467Y-2572031D01*
X779467Y-2572031D02*
X788991Y-2591079D01*
X788991Y-2591079D02*
X798515Y-2629174D01*
X798515Y-2629174D02*
X798515Y-2676793D01*
X798515Y-2676793D02*
X788991Y-2714889D01*
X788991Y-2714889D02*
X779467Y-2733936D01*
X779467Y-2733936D02*
X769944Y-2743460D01*
X769944Y-2743460D02*
X750896Y-2752984D01*
X750896Y-2752984D02*
X731848Y-2752984D01*
X731848Y-2752984D02*
X712801Y-2743460D01*
X712801Y-2743460D02*
X703277Y-2733936D01*
X703277Y-2733936D02*
X693753Y-2714889D01*
X693753Y-2714889D02*
X684229Y-2676793D01*
X684229Y-2676793D02*
X684229Y-2629174D01*
X684229Y-2629174D02*
X693753Y-2591079D01*
X693753Y-2591079D02*
X703277Y-2572031D01*
X703277Y-2572031D02*
X712801Y-2562508D01*
X712801Y-2562508D02*
X731848Y-2552984D01*
X988991Y-2752984D02*
X874706Y-2752984D01*
X931848Y-2752984D02*
X931848Y-2552984D01*
X931848Y-2552984D02*
X912801Y-2581555D01*
X912801Y-2581555D02*
X893753Y-2600603D01*
X893753Y-2600603D02*
X874706Y-2610127D01*
X1179468Y-2752984D02*
X1065182Y-2752984D01*
X1122325Y-2752984D02*
X1122325Y-2552984D01*
X1122325Y-2552984D02*
X1103277Y-2581555D01*
X1103277Y-2581555D02*
X1084229Y-2600603D01*
X1084229Y-2600603D02*
X1065182Y-2610127D01*
X1293753Y-2638698D02*
X1274706Y-2629174D01*
X1274706Y-2629174D02*
X1265182Y-2619650D01*
X1265182Y-2619650D02*
X1255658Y-2600603D01*
X1255658Y-2600603D02*
X1255658Y-2591079D01*
X1255658Y-2591079D02*
X1265182Y-2572031D01*
X1265182Y-2572031D02*
X1274706Y-2562508D01*
X1274706Y-2562508D02*
X1293753Y-2552984D01*
X1293753Y-2552984D02*
X1331849Y-2552984D01*
X1331849Y-2552984D02*
X1350896Y-2562508D01*
X1350896Y-2562508D02*
X1360420Y-2572031D01*
X1360420Y-2572031D02*
X1369944Y-2591079D01*
X1369944Y-2591079D02*
X1369944Y-2600603D01*
X1369944Y-2600603D02*
X1360420Y-2619650D01*
X1360420Y-2619650D02*
X1350896Y-2629174D01*
X1350896Y-2629174D02*
X1331849Y-2638698D01*
X1331849Y-2638698D02*
X1293753Y-2638698D01*
X1293753Y-2638698D02*
X1274706Y-2648222D01*
X1274706Y-2648222D02*
X1265182Y-2657746D01*
X1265182Y-2657746D02*
X1255658Y-2676793D01*
X1255658Y-2676793D02*
X1255658Y-2714889D01*
X1255658Y-2714889D02*
X1265182Y-2733936D01*
X1265182Y-2733936D02*
X1274706Y-2743460D01*
X1274706Y-2743460D02*
X1293753Y-2752984D01*
X1293753Y-2752984D02*
X1331849Y-2752984D01*
X1331849Y-2752984D02*
X1350896Y-2743460D01*
X1350896Y-2743460D02*
X1360420Y-2733936D01*
X1360420Y-2733936D02*
X1369944Y-2714889D01*
X1369944Y-2714889D02*
X1369944Y-2676793D01*
X1369944Y-2676793D02*
X1360420Y-2657746D01*
X1360420Y-2657746D02*
X1350896Y-2648222D01*
X1350896Y-2648222D02*
X1331849Y-2638698D01*
X1446134Y-2552984D02*
X1446134Y-2591079D01*
X1522325Y-2552984D02*
X1522325Y-2591079D01*
X1817563Y-2829174D02*
X1808039Y-2819650D01*
X1808039Y-2819650D02*
X1788991Y-2791079D01*
X1788991Y-2791079D02*
X1779468Y-2772031D01*
X1779468Y-2772031D02*
X1769944Y-2743460D01*
X1769944Y-2743460D02*
X1760420Y-2695841D01*
X1760420Y-2695841D02*
X1760420Y-2657746D01*
X1760420Y-2657746D02*
X1769944Y-2610127D01*
X1769944Y-2610127D02*
X1779468Y-2581555D01*
X1779468Y-2581555D02*
X1788991Y-2562508D01*
X1788991Y-2562508D02*
X1808039Y-2533936D01*
X1808039Y-2533936D02*
X1817563Y-2524412D01*
X1979468Y-2619650D02*
X1979468Y-2752984D01*
X1931848Y-2543460D02*
X1884229Y-2686317D01*
X1884229Y-2686317D02*
X2008039Y-2686317D01*
X2236611Y-2752984D02*
X2236611Y-2552984D01*
X2322325Y-2752984D02*
X2322325Y-2648222D01*
X2322325Y-2648222D02*
X2312801Y-2629174D01*
X2312801Y-2629174D02*
X2293753Y-2619650D01*
X2293753Y-2619650D02*
X2265182Y-2619650D01*
X2265182Y-2619650D02*
X2246134Y-2629174D01*
X2246134Y-2629174D02*
X2236611Y-2638698D01*
X2446134Y-2752984D02*
X2427087Y-2743460D01*
X2427087Y-2743460D02*
X2417563Y-2733936D01*
X2417563Y-2733936D02*
X2408039Y-2714889D01*
X2408039Y-2714889D02*
X2408039Y-2657746D01*
X2408039Y-2657746D02*
X2417563Y-2638698D01*
X2417563Y-2638698D02*
X2427087Y-2629174D01*
X2427087Y-2629174D02*
X2446134Y-2619650D01*
X2446134Y-2619650D02*
X2474706Y-2619650D01*
X2474706Y-2619650D02*
X2493753Y-2629174D01*
X2493753Y-2629174D02*
X2503277Y-2638698D01*
X2503277Y-2638698D02*
X2512801Y-2657746D01*
X2512801Y-2657746D02*
X2512801Y-2714889D01*
X2512801Y-2714889D02*
X2503277Y-2733936D01*
X2503277Y-2733936D02*
X2493753Y-2743460D01*
X2493753Y-2743460D02*
X2474706Y-2752984D01*
X2474706Y-2752984D02*
X2446134Y-2752984D01*
X2627087Y-2752984D02*
X2608039Y-2743460D01*
X2608039Y-2743460D02*
X2598515Y-2724412D01*
X2598515Y-2724412D02*
X2598515Y-2552984D01*
X2779468Y-2743460D02*
X2760420Y-2752984D01*
X2760420Y-2752984D02*
X2722325Y-2752984D01*
X2722325Y-2752984D02*
X2703277Y-2743460D01*
X2703277Y-2743460D02*
X2693753Y-2724412D01*
X2693753Y-2724412D02*
X2693753Y-2648222D01*
X2693753Y-2648222D02*
X2703277Y-2629174D01*
X2703277Y-2629174D02*
X2722325Y-2619650D01*
X2722325Y-2619650D02*
X2760420Y-2619650D01*
X2760420Y-2619650D02*
X2779468Y-2629174D01*
X2779468Y-2629174D02*
X2788992Y-2648222D01*
X2788992Y-2648222D02*
X2788992Y-2667270D01*
X2788992Y-2667270D02*
X2693753Y-2686317D01*
X2865182Y-2743460D02*
X2884230Y-2752984D01*
X2884230Y-2752984D02*
X2922325Y-2752984D01*
X2922325Y-2752984D02*
X2941372Y-2743460D01*
X2941372Y-2743460D02*
X2950896Y-2724412D01*
X2950896Y-2724412D02*
X2950896Y-2714889D01*
X2950896Y-2714889D02*
X2941372Y-2695841D01*
X2941372Y-2695841D02*
X2922325Y-2686317D01*
X2922325Y-2686317D02*
X2893753Y-2686317D01*
X2893753Y-2686317D02*
X2874706Y-2676793D01*
X2874706Y-2676793D02*
X2865182Y-2657746D01*
X2865182Y-2657746D02*
X2865182Y-2648222D01*
X2865182Y-2648222D02*
X2874706Y-2629174D01*
X2874706Y-2629174D02*
X2893753Y-2619650D01*
X2893753Y-2619650D02*
X2922325Y-2619650D01*
X2922325Y-2619650D02*
X2941372Y-2629174D01*
X3017563Y-2829174D02*
X3027087Y-2819650D01*
X3027087Y-2819650D02*
X3046134Y-2791079D01*
X3046134Y-2791079D02*
X3055658Y-2772031D01*
X3055658Y-2772031D02*
X3065182Y-2743460D01*
X3065182Y-2743460D02*
X3074706Y-2695841D01*
X3074706Y-2695841D02*
X3074706Y-2657746D01*
X3074706Y-2657746D02*
X3065182Y-2610127D01*
X3065182Y-2610127D02*
X3055658Y-2581555D01*
X3055658Y-2581555D02*
X3046134Y-2562508D01*
X3046134Y-2562508D02*
X3027087Y-2533936D01*
X3027087Y-2533936D02*
X3017563Y-2524412D01*
D13*
X-1777500Y-2905500D02*
X-1777500Y-2945500D01*
X-1797500Y-2925500D02*
X-1757500Y-2925500D01*
D10*
X-1458628Y-2816984D02*
X-1439580Y-2816984D01*
X-1439580Y-2816984D02*
X-1420533Y-2826508D01*
X-1420533Y-2826508D02*
X-1411009Y-2836031D01*
X-1411009Y-2836031D02*
X-1401485Y-2855079D01*
X-1401485Y-2855079D02*
X-1391961Y-2893174D01*
X-1391961Y-2893174D02*
X-1391961Y-2940793D01*
X-1391961Y-2940793D02*
X-1401485Y-2978888D01*
X-1401485Y-2978888D02*
X-1411009Y-2997936D01*
X-1411009Y-2997936D02*
X-1420533Y-3007460D01*
X-1420533Y-3007460D02*
X-1439580Y-3016984D01*
X-1439580Y-3016984D02*
X-1458628Y-3016984D01*
X-1458628Y-3016984D02*
X-1477676Y-3007460D01*
X-1477676Y-3007460D02*
X-1487199Y-2997936D01*
X-1487199Y-2997936D02*
X-1496723Y-2978888D01*
X-1496723Y-2978888D02*
X-1506247Y-2940793D01*
X-1506247Y-2940793D02*
X-1506247Y-2893174D01*
X-1506247Y-2893174D02*
X-1496723Y-2855079D01*
X-1496723Y-2855079D02*
X-1487199Y-2836031D01*
X-1487199Y-2836031D02*
X-1477676Y-2826508D01*
X-1477676Y-2826508D02*
X-1458628Y-2816984D01*
X-1306247Y-2997936D02*
X-1296723Y-3007460D01*
X-1296723Y-3007460D02*
X-1306247Y-3016984D01*
X-1306247Y-3016984D02*
X-1315771Y-3007460D01*
X-1315771Y-3007460D02*
X-1306247Y-2997936D01*
X-1306247Y-2997936D02*
X-1306247Y-3016984D01*
X-1125295Y-2883650D02*
X-1125295Y-3016984D01*
X-1172914Y-2807460D02*
X-1220533Y-2950317D01*
X-1220533Y-2950317D02*
X-1096723Y-2950317D01*
X-982437Y-2816984D02*
X-963390Y-2816984D01*
X-963390Y-2816984D02*
X-944342Y-2826508D01*
X-944342Y-2826508D02*
X-934818Y-2836031D01*
X-934818Y-2836031D02*
X-925295Y-2855079D01*
X-925295Y-2855079D02*
X-915771Y-2893174D01*
X-915771Y-2893174D02*
X-915771Y-2940793D01*
X-915771Y-2940793D02*
X-925295Y-2978888D01*
X-925295Y-2978888D02*
X-934818Y-2997936D01*
X-934818Y-2997936D02*
X-944342Y-3007460D01*
X-944342Y-3007460D02*
X-963390Y-3016984D01*
X-963390Y-3016984D02*
X-982437Y-3016984D01*
X-982437Y-3016984D02*
X-1001485Y-3007460D01*
X-1001485Y-3007460D02*
X-1011009Y-2997936D01*
X-1011009Y-2997936D02*
X-1020533Y-2978888D01*
X-1020533Y-2978888D02*
X-1030056Y-2940793D01*
X-1030056Y-2940793D02*
X-1030056Y-2893174D01*
X-1030056Y-2893174D02*
X-1020533Y-2855079D01*
X-1020533Y-2855079D02*
X-1011009Y-2836031D01*
X-1011009Y-2836031D02*
X-1001485Y-2826508D01*
X-1001485Y-2826508D02*
X-982437Y-2816984D01*
X-791961Y-2816984D02*
X-772914Y-2816984D01*
X-772914Y-2816984D02*
X-753866Y-2826508D01*
X-753866Y-2826508D02*
X-744342Y-2836031D01*
X-744342Y-2836031D02*
X-734818Y-2855079D01*
X-734818Y-2855079D02*
X-725295Y-2893174D01*
X-725295Y-2893174D02*
X-725295Y-2940793D01*
X-725295Y-2940793D02*
X-734818Y-2978888D01*
X-734818Y-2978888D02*
X-744342Y-2997936D01*
X-744342Y-2997936D02*
X-753866Y-3007460D01*
X-753866Y-3007460D02*
X-772914Y-3016984D01*
X-772914Y-3016984D02*
X-791961Y-3016984D01*
X-791961Y-3016984D02*
X-811009Y-3007460D01*
X-811009Y-3007460D02*
X-820533Y-2997936D01*
X-820533Y-2997936D02*
X-830056Y-2978888D01*
X-830056Y-2978888D02*
X-839580Y-2940793D01*
X-839580Y-2940793D02*
X-839580Y-2893174D01*
X-839580Y-2893174D02*
X-830056Y-2855079D01*
X-830056Y-2855079D02*
X-820533Y-2836031D01*
X-820533Y-2836031D02*
X-811009Y-2826508D01*
X-811009Y-2826508D02*
X-791961Y-2816984D01*
X-639580Y-3016984D02*
X-639580Y-2883650D01*
X-639580Y-2902698D02*
X-630057Y-2893174D01*
X-630057Y-2893174D02*
X-611009Y-2883650D01*
X-611009Y-2883650D02*
X-582437Y-2883650D01*
X-582437Y-2883650D02*
X-563390Y-2893174D01*
X-563390Y-2893174D02*
X-553866Y-2912222D01*
X-553866Y-2912222D02*
X-553866Y-3016984D01*
X-553866Y-2912222D02*
X-544342Y-2893174D01*
X-544342Y-2893174D02*
X-525295Y-2883650D01*
X-525295Y-2883650D02*
X-496723Y-2883650D01*
X-496723Y-2883650D02*
X-477675Y-2893174D01*
X-477675Y-2893174D02*
X-468152Y-2912222D01*
X-468152Y-2912222D02*
X-468152Y-3016984D01*
X-372914Y-3016984D02*
X-372914Y-2883650D01*
X-372914Y-2902698D02*
X-363390Y-2893174D01*
X-363390Y-2893174D02*
X-344342Y-2883650D01*
X-344342Y-2883650D02*
X-315771Y-2883650D01*
X-315771Y-2883650D02*
X-296723Y-2893174D01*
X-296723Y-2893174D02*
X-287199Y-2912222D01*
X-287199Y-2912222D02*
X-287199Y-3016984D01*
X-287199Y-2912222D02*
X-277676Y-2893174D01*
X-277676Y-2893174D02*
X-258628Y-2883650D01*
X-258628Y-2883650D02*
X-230056Y-2883650D01*
X-230056Y-2883650D02*
X-211009Y-2893174D01*
X-211009Y-2893174D02*
X-201485Y-2912222D01*
X-201485Y-2912222D02*
X-201485Y-3016984D01*
X188991Y-2807460D02*
X17563Y-3064603D01*
X446134Y-2816984D02*
X465182Y-2816984D01*
X465182Y-2816984D02*
X484229Y-2826508D01*
X484229Y-2826508D02*
X493753Y-2836031D01*
X493753Y-2836031D02*
X503277Y-2855079D01*
X503277Y-2855079D02*
X512801Y-2893174D01*
X512801Y-2893174D02*
X512801Y-2940793D01*
X512801Y-2940793D02*
X503277Y-2978888D01*
X503277Y-2978888D02*
X493753Y-2997936D01*
X493753Y-2997936D02*
X484229Y-3007460D01*
X484229Y-3007460D02*
X465182Y-3016984D01*
X465182Y-3016984D02*
X446134Y-3016984D01*
X446134Y-3016984D02*
X427086Y-3007460D01*
X427086Y-3007460D02*
X417563Y-2997936D01*
X417563Y-2997936D02*
X408039Y-2978888D01*
X408039Y-2978888D02*
X398515Y-2940793D01*
X398515Y-2940793D02*
X398515Y-2893174D01*
X398515Y-2893174D02*
X408039Y-2855079D01*
X408039Y-2855079D02*
X417563Y-2836031D01*
X417563Y-2836031D02*
X427086Y-2826508D01*
X427086Y-2826508D02*
X446134Y-2816984D01*
X598515Y-2997936D02*
X608039Y-3007460D01*
X608039Y-3007460D02*
X598515Y-3016984D01*
X598515Y-3016984D02*
X588991Y-3007460D01*
X588991Y-3007460D02*
X598515Y-2997936D01*
X598515Y-2997936D02*
X598515Y-3016984D01*
X731848Y-2816984D02*
X750896Y-2816984D01*
X750896Y-2816984D02*
X769944Y-2826508D01*
X769944Y-2826508D02*
X779467Y-2836031D01*
X779467Y-2836031D02*
X788991Y-2855079D01*
X788991Y-2855079D02*
X798515Y-2893174D01*
X798515Y-2893174D02*
X798515Y-2940793D01*
X798515Y-2940793D02*
X788991Y-2978888D01*
X788991Y-2978888D02*
X779467Y-2997936D01*
X779467Y-2997936D02*
X769944Y-3007460D01*
X769944Y-3007460D02*
X750896Y-3016984D01*
X750896Y-3016984D02*
X731848Y-3016984D01*
X731848Y-3016984D02*
X712801Y-3007460D01*
X712801Y-3007460D02*
X703277Y-2997936D01*
X703277Y-2997936D02*
X693753Y-2978888D01*
X693753Y-2978888D02*
X684229Y-2940793D01*
X684229Y-2940793D02*
X684229Y-2893174D01*
X684229Y-2893174D02*
X693753Y-2855079D01*
X693753Y-2855079D02*
X703277Y-2836031D01*
X703277Y-2836031D02*
X712801Y-2826508D01*
X712801Y-2826508D02*
X731848Y-2816984D01*
X988991Y-3016984D02*
X874706Y-3016984D01*
X931848Y-3016984D02*
X931848Y-2816984D01*
X931848Y-2816984D02*
X912801Y-2845555D01*
X912801Y-2845555D02*
X893753Y-2864603D01*
X893753Y-2864603D02*
X874706Y-2874127D01*
X1169944Y-2816984D02*
X1074706Y-2816984D01*
X1074706Y-2816984D02*
X1065182Y-2912222D01*
X1065182Y-2912222D02*
X1074706Y-2902698D01*
X1074706Y-2902698D02*
X1093753Y-2893174D01*
X1093753Y-2893174D02*
X1141372Y-2893174D01*
X1141372Y-2893174D02*
X1160420Y-2902698D01*
X1160420Y-2902698D02*
X1169944Y-2912222D01*
X1169944Y-2912222D02*
X1179468Y-2931269D01*
X1179468Y-2931269D02*
X1179468Y-2978888D01*
X1179468Y-2978888D02*
X1169944Y-2997936D01*
X1169944Y-2997936D02*
X1160420Y-3007460D01*
X1160420Y-3007460D02*
X1141372Y-3016984D01*
X1141372Y-3016984D02*
X1093753Y-3016984D01*
X1093753Y-3016984D02*
X1074706Y-3007460D01*
X1074706Y-3007460D02*
X1065182Y-2997936D01*
X1246134Y-2816984D02*
X1379468Y-2816984D01*
X1379468Y-2816984D02*
X1293753Y-3016984D01*
X1446134Y-2816984D02*
X1446134Y-2855079D01*
X1522325Y-2816984D02*
X1522325Y-2855079D01*
X1817563Y-3093174D02*
X1808039Y-3083650D01*
X1808039Y-3083650D02*
X1788991Y-3055079D01*
X1788991Y-3055079D02*
X1779468Y-3036031D01*
X1779468Y-3036031D02*
X1769944Y-3007460D01*
X1769944Y-3007460D02*
X1760420Y-2959841D01*
X1760420Y-2959841D02*
X1760420Y-2921746D01*
X1760420Y-2921746D02*
X1769944Y-2874127D01*
X1769944Y-2874127D02*
X1779468Y-2845555D01*
X1779468Y-2845555D02*
X1788991Y-2826508D01*
X1788991Y-2826508D02*
X1808039Y-2797936D01*
X1808039Y-2797936D02*
X1817563Y-2788412D01*
X1874706Y-2816984D02*
X2008039Y-2816984D01*
X2008039Y-2816984D02*
X1922325Y-3016984D01*
X2065182Y-2816984D02*
X2188991Y-2816984D01*
X2188991Y-2816984D02*
X2122325Y-2893174D01*
X2122325Y-2893174D02*
X2150896Y-2893174D01*
X2150896Y-2893174D02*
X2169944Y-2902698D01*
X2169944Y-2902698D02*
X2179468Y-2912222D01*
X2179468Y-2912222D02*
X2188991Y-2931269D01*
X2188991Y-2931269D02*
X2188991Y-2978888D01*
X2188991Y-2978888D02*
X2179468Y-2997936D01*
X2179468Y-2997936D02*
X2169944Y-3007460D01*
X2169944Y-3007460D02*
X2150896Y-3016984D01*
X2150896Y-3016984D02*
X2093753Y-3016984D01*
X2093753Y-3016984D02*
X2074706Y-3007460D01*
X2074706Y-3007460D02*
X2065182Y-2997936D01*
X2427087Y-3016984D02*
X2427087Y-2816984D01*
X2512801Y-3016984D02*
X2512801Y-2912222D01*
X2512801Y-2912222D02*
X2503277Y-2893174D01*
X2503277Y-2893174D02*
X2484230Y-2883650D01*
X2484230Y-2883650D02*
X2455658Y-2883650D01*
X2455658Y-2883650D02*
X2436611Y-2893174D01*
X2436611Y-2893174D02*
X2427087Y-2902698D01*
X2636611Y-3016984D02*
X2617563Y-3007460D01*
X2617563Y-3007460D02*
X2608039Y-2997936D01*
X2608039Y-2997936D02*
X2598515Y-2978888D01*
X2598515Y-2978888D02*
X2598515Y-2921746D01*
X2598515Y-2921746D02*
X2608039Y-2902698D01*
X2608039Y-2902698D02*
X2617563Y-2893174D01*
X2617563Y-2893174D02*
X2636611Y-2883650D01*
X2636611Y-2883650D02*
X2665182Y-2883650D01*
X2665182Y-2883650D02*
X2684230Y-2893174D01*
X2684230Y-2893174D02*
X2693753Y-2902698D01*
X2693753Y-2902698D02*
X2703277Y-2921746D01*
X2703277Y-2921746D02*
X2703277Y-2978888D01*
X2703277Y-2978888D02*
X2693753Y-2997936D01*
X2693753Y-2997936D02*
X2684230Y-3007460D01*
X2684230Y-3007460D02*
X2665182Y-3016984D01*
X2665182Y-3016984D02*
X2636611Y-3016984D01*
X2817563Y-3016984D02*
X2798515Y-3007460D01*
X2798515Y-3007460D02*
X2788992Y-2988412D01*
X2788992Y-2988412D02*
X2788992Y-2816984D01*
X2969944Y-3007460D02*
X2950896Y-3016984D01*
X2950896Y-3016984D02*
X2912801Y-3016984D01*
X2912801Y-3016984D02*
X2893753Y-3007460D01*
X2893753Y-3007460D02*
X2884230Y-2988412D01*
X2884230Y-2988412D02*
X2884230Y-2912222D01*
X2884230Y-2912222D02*
X2893753Y-2893174D01*
X2893753Y-2893174D02*
X2912801Y-2883650D01*
X2912801Y-2883650D02*
X2950896Y-2883650D01*
X2950896Y-2883650D02*
X2969944Y-2893174D01*
X2969944Y-2893174D02*
X2979468Y-2912222D01*
X2979468Y-2912222D02*
X2979468Y-2931269D01*
X2979468Y-2931269D02*
X2884230Y-2950317D01*
X3055658Y-3007460D02*
X3074706Y-3016984D01*
X3074706Y-3016984D02*
X3112801Y-3016984D01*
X3112801Y-3016984D02*
X3131849Y-3007460D01*
X3131849Y-3007460D02*
X3141372Y-2988412D01*
X3141372Y-2988412D02*
X3141372Y-2978888D01*
X3141372Y-2978888D02*
X3131849Y-2959841D01*
X3131849Y-2959841D02*
X3112801Y-2950317D01*
X3112801Y-2950317D02*
X3084230Y-2950317D01*
X3084230Y-2950317D02*
X3065182Y-2940793D01*
X3065182Y-2940793D02*
X3055658Y-2921746D01*
X3055658Y-2921746D02*
X3055658Y-2912222D01*
X3055658Y-2912222D02*
X3065182Y-2893174D01*
X3065182Y-2893174D02*
X3084230Y-2883650D01*
X3084230Y-2883650D02*
X3112801Y-2883650D01*
X3112801Y-2883650D02*
X3131849Y-2893174D01*
X3208039Y-3093174D02*
X3217563Y-3083650D01*
X3217563Y-3083650D02*
X3236611Y-3055079D01*
X3236611Y-3055079D02*
X3246134Y-3036031D01*
X3246134Y-3036031D02*
X3255658Y-3007460D01*
X3255658Y-3007460D02*
X3265182Y-2959841D01*
X3265182Y-2959841D02*
X3265182Y-2921746D01*
X3265182Y-2921746D02*
X3255658Y-2874127D01*
X3255658Y-2874127D02*
X3246134Y-2845555D01*
X3246134Y-2845555D02*
X3236611Y-2826508D01*
X3236611Y-2826508D02*
X3217563Y-2797936D01*
X3217563Y-2797936D02*
X3208039Y-2788412D01*
D14*
X-1767751Y-3214249D02*
X-1767751Y-3164751D01*
X-1817249Y-3164751D01*
X-1817249Y-3214249D01*
X-1767751Y-3214249D01*
D10*
X-1458628Y-3080984D02*
X-1439580Y-3080984D01*
X-1439580Y-3080984D02*
X-1420533Y-3090508D01*
X-1420533Y-3090508D02*
X-1411009Y-3100031D01*
X-1411009Y-3100031D02*
X-1401485Y-3119079D01*
X-1401485Y-3119079D02*
X-1391961Y-3157174D01*
X-1391961Y-3157174D02*
X-1391961Y-3204793D01*
X-1391961Y-3204793D02*
X-1401485Y-3242888D01*
X-1401485Y-3242888D02*
X-1411009Y-3261936D01*
X-1411009Y-3261936D02*
X-1420533Y-3271460D01*
X-1420533Y-3271460D02*
X-1439580Y-3280984D01*
X-1439580Y-3280984D02*
X-1458628Y-3280984D01*
X-1458628Y-3280984D02*
X-1477676Y-3271460D01*
X-1477676Y-3271460D02*
X-1487199Y-3261936D01*
X-1487199Y-3261936D02*
X-1496723Y-3242888D01*
X-1496723Y-3242888D02*
X-1506247Y-3204793D01*
X-1506247Y-3204793D02*
X-1506247Y-3157174D01*
X-1506247Y-3157174D02*
X-1496723Y-3119079D01*
X-1496723Y-3119079D02*
X-1487199Y-3100031D01*
X-1487199Y-3100031D02*
X-1477676Y-3090508D01*
X-1477676Y-3090508D02*
X-1458628Y-3080984D01*
X-1306247Y-3261936D02*
X-1296723Y-3271460D01*
X-1296723Y-3271460D02*
X-1306247Y-3280984D01*
X-1306247Y-3280984D02*
X-1315771Y-3271460D01*
X-1315771Y-3271460D02*
X-1306247Y-3261936D01*
X-1306247Y-3261936D02*
X-1306247Y-3280984D01*
X-1230057Y-3080984D02*
X-1096723Y-3080984D01*
X-1096723Y-3080984D02*
X-1182438Y-3280984D01*
X-982437Y-3080984D02*
X-963390Y-3080984D01*
X-963390Y-3080984D02*
X-944342Y-3090508D01*
X-944342Y-3090508D02*
X-934818Y-3100031D01*
X-934818Y-3100031D02*
X-925295Y-3119079D01*
X-925295Y-3119079D02*
X-915771Y-3157174D01*
X-915771Y-3157174D02*
X-915771Y-3204793D01*
X-915771Y-3204793D02*
X-925295Y-3242888D01*
X-925295Y-3242888D02*
X-934818Y-3261936D01*
X-934818Y-3261936D02*
X-944342Y-3271460D01*
X-944342Y-3271460D02*
X-963390Y-3280984D01*
X-963390Y-3280984D02*
X-982437Y-3280984D01*
X-982437Y-3280984D02*
X-1001485Y-3271460D01*
X-1001485Y-3271460D02*
X-1011009Y-3261936D01*
X-1011009Y-3261936D02*
X-1020533Y-3242888D01*
X-1020533Y-3242888D02*
X-1030056Y-3204793D01*
X-1030056Y-3204793D02*
X-1030056Y-3157174D01*
X-1030056Y-3157174D02*
X-1020533Y-3119079D01*
X-1020533Y-3119079D02*
X-1011009Y-3100031D01*
X-1011009Y-3100031D02*
X-1001485Y-3090508D01*
X-1001485Y-3090508D02*
X-982437Y-3080984D01*
X-791961Y-3080984D02*
X-772914Y-3080984D01*
X-772914Y-3080984D02*
X-753866Y-3090508D01*
X-753866Y-3090508D02*
X-744342Y-3100031D01*
X-744342Y-3100031D02*
X-734818Y-3119079D01*
X-734818Y-3119079D02*
X-725295Y-3157174D01*
X-725295Y-3157174D02*
X-725295Y-3204793D01*
X-725295Y-3204793D02*
X-734818Y-3242888D01*
X-734818Y-3242888D02*
X-744342Y-3261936D01*
X-744342Y-3261936D02*
X-753866Y-3271460D01*
X-753866Y-3271460D02*
X-772914Y-3280984D01*
X-772914Y-3280984D02*
X-791961Y-3280984D01*
X-791961Y-3280984D02*
X-811009Y-3271460D01*
X-811009Y-3271460D02*
X-820533Y-3261936D01*
X-820533Y-3261936D02*
X-830056Y-3242888D01*
X-830056Y-3242888D02*
X-839580Y-3204793D01*
X-839580Y-3204793D02*
X-839580Y-3157174D01*
X-839580Y-3157174D02*
X-830056Y-3119079D01*
X-830056Y-3119079D02*
X-820533Y-3100031D01*
X-820533Y-3100031D02*
X-811009Y-3090508D01*
X-811009Y-3090508D02*
X-791961Y-3080984D01*
X-639580Y-3280984D02*
X-639580Y-3147650D01*
X-639580Y-3166698D02*
X-630057Y-3157174D01*
X-630057Y-3157174D02*
X-611009Y-3147650D01*
X-611009Y-3147650D02*
X-582437Y-3147650D01*
X-582437Y-3147650D02*
X-563390Y-3157174D01*
X-563390Y-3157174D02*
X-553866Y-3176222D01*
X-553866Y-3176222D02*
X-553866Y-3280984D01*
X-553866Y-3176222D02*
X-544342Y-3157174D01*
X-544342Y-3157174D02*
X-525295Y-3147650D01*
X-525295Y-3147650D02*
X-496723Y-3147650D01*
X-496723Y-3147650D02*
X-477675Y-3157174D01*
X-477675Y-3157174D02*
X-468152Y-3176222D01*
X-468152Y-3176222D02*
X-468152Y-3280984D01*
X-372914Y-3280984D02*
X-372914Y-3147650D01*
X-372914Y-3166698D02*
X-363390Y-3157174D01*
X-363390Y-3157174D02*
X-344342Y-3147650D01*
X-344342Y-3147650D02*
X-315771Y-3147650D01*
X-315771Y-3147650D02*
X-296723Y-3157174D01*
X-296723Y-3157174D02*
X-287199Y-3176222D01*
X-287199Y-3176222D02*
X-287199Y-3280984D01*
X-287199Y-3176222D02*
X-277676Y-3157174D01*
X-277676Y-3157174D02*
X-258628Y-3147650D01*
X-258628Y-3147650D02*
X-230056Y-3147650D01*
X-230056Y-3147650D02*
X-211009Y-3157174D01*
X-211009Y-3157174D02*
X-201485Y-3176222D01*
X-201485Y-3176222D02*
X-201485Y-3280984D01*
X188991Y-3071460D02*
X17563Y-3328603D01*
X446134Y-3080984D02*
X465182Y-3080984D01*
X465182Y-3080984D02*
X484229Y-3090508D01*
X484229Y-3090508D02*
X493753Y-3100031D01*
X493753Y-3100031D02*
X503277Y-3119079D01*
X503277Y-3119079D02*
X512801Y-3157174D01*
X512801Y-3157174D02*
X512801Y-3204793D01*
X512801Y-3204793D02*
X503277Y-3242888D01*
X503277Y-3242888D02*
X493753Y-3261936D01*
X493753Y-3261936D02*
X484229Y-3271460D01*
X484229Y-3271460D02*
X465182Y-3280984D01*
X465182Y-3280984D02*
X446134Y-3280984D01*
X446134Y-3280984D02*
X427086Y-3271460D01*
X427086Y-3271460D02*
X417563Y-3261936D01*
X417563Y-3261936D02*
X408039Y-3242888D01*
X408039Y-3242888D02*
X398515Y-3204793D01*
X398515Y-3204793D02*
X398515Y-3157174D01*
X398515Y-3157174D02*
X408039Y-3119079D01*
X408039Y-3119079D02*
X417563Y-3100031D01*
X417563Y-3100031D02*
X427086Y-3090508D01*
X427086Y-3090508D02*
X446134Y-3080984D01*
X598515Y-3261936D02*
X608039Y-3271460D01*
X608039Y-3271460D02*
X598515Y-3280984D01*
X598515Y-3280984D02*
X588991Y-3271460D01*
X588991Y-3271460D02*
X598515Y-3261936D01*
X598515Y-3261936D02*
X598515Y-3280984D01*
X731848Y-3080984D02*
X750896Y-3080984D01*
X750896Y-3080984D02*
X769944Y-3090508D01*
X769944Y-3090508D02*
X779467Y-3100031D01*
X779467Y-3100031D02*
X788991Y-3119079D01*
X788991Y-3119079D02*
X798515Y-3157174D01*
X798515Y-3157174D02*
X798515Y-3204793D01*
X798515Y-3204793D02*
X788991Y-3242888D01*
X788991Y-3242888D02*
X779467Y-3261936D01*
X779467Y-3261936D02*
X769944Y-3271460D01*
X769944Y-3271460D02*
X750896Y-3280984D01*
X750896Y-3280984D02*
X731848Y-3280984D01*
X731848Y-3280984D02*
X712801Y-3271460D01*
X712801Y-3271460D02*
X703277Y-3261936D01*
X703277Y-3261936D02*
X693753Y-3242888D01*
X693753Y-3242888D02*
X684229Y-3204793D01*
X684229Y-3204793D02*
X684229Y-3157174D01*
X684229Y-3157174D02*
X693753Y-3119079D01*
X693753Y-3119079D02*
X703277Y-3100031D01*
X703277Y-3100031D02*
X712801Y-3090508D01*
X712801Y-3090508D02*
X731848Y-3080984D01*
X874706Y-3100031D02*
X884229Y-3090508D01*
X884229Y-3090508D02*
X903277Y-3080984D01*
X903277Y-3080984D02*
X950896Y-3080984D01*
X950896Y-3080984D02*
X969944Y-3090508D01*
X969944Y-3090508D02*
X979467Y-3100031D01*
X979467Y-3100031D02*
X988991Y-3119079D01*
X988991Y-3119079D02*
X988991Y-3138127D01*
X988991Y-3138127D02*
X979467Y-3166698D01*
X979467Y-3166698D02*
X865182Y-3280984D01*
X865182Y-3280984D02*
X988991Y-3280984D01*
X1055658Y-3080984D02*
X1188991Y-3080984D01*
X1188991Y-3080984D02*
X1103277Y-3280984D01*
X1350896Y-3080984D02*
X1312801Y-3080984D01*
X1312801Y-3080984D02*
X1293753Y-3090508D01*
X1293753Y-3090508D02*
X1284229Y-3100031D01*
X1284229Y-3100031D02*
X1265182Y-3128603D01*
X1265182Y-3128603D02*
X1255658Y-3166698D01*
X1255658Y-3166698D02*
X1255658Y-3242888D01*
X1255658Y-3242888D02*
X1265182Y-3261936D01*
X1265182Y-3261936D02*
X1274706Y-3271460D01*
X1274706Y-3271460D02*
X1293753Y-3280984D01*
X1293753Y-3280984D02*
X1331849Y-3280984D01*
X1331849Y-3280984D02*
X1350896Y-3271460D01*
X1350896Y-3271460D02*
X1360420Y-3261936D01*
X1360420Y-3261936D02*
X1369944Y-3242888D01*
X1369944Y-3242888D02*
X1369944Y-3195269D01*
X1369944Y-3195269D02*
X1360420Y-3176222D01*
X1360420Y-3176222D02*
X1350896Y-3166698D01*
X1350896Y-3166698D02*
X1331849Y-3157174D01*
X1331849Y-3157174D02*
X1293753Y-3157174D01*
X1293753Y-3157174D02*
X1274706Y-3166698D01*
X1274706Y-3166698D02*
X1265182Y-3176222D01*
X1265182Y-3176222D02*
X1255658Y-3195269D01*
X1446134Y-3080984D02*
X1446134Y-3119079D01*
X1522325Y-3080984D02*
X1522325Y-3119079D01*
X1817563Y-3357174D02*
X1808039Y-3347650D01*
X1808039Y-3347650D02*
X1788991Y-3319079D01*
X1788991Y-3319079D02*
X1779468Y-3300031D01*
X1779468Y-3300031D02*
X1769944Y-3271460D01*
X1769944Y-3271460D02*
X1760420Y-3223841D01*
X1760420Y-3223841D02*
X1760420Y-3185746D01*
X1760420Y-3185746D02*
X1769944Y-3138127D01*
X1769944Y-3138127D02*
X1779468Y-3109555D01*
X1779468Y-3109555D02*
X1788991Y-3090508D01*
X1788991Y-3090508D02*
X1808039Y-3061936D01*
X1808039Y-3061936D02*
X1817563Y-3052412D01*
X1998515Y-3280984D02*
X1884229Y-3280984D01*
X1941372Y-3280984D02*
X1941372Y-3080984D01*
X1941372Y-3080984D02*
X1922325Y-3109555D01*
X1922325Y-3109555D02*
X1903277Y-3128603D01*
X1903277Y-3128603D02*
X1884229Y-3138127D01*
X2236611Y-3280984D02*
X2236611Y-3080984D01*
X2322325Y-3280984D02*
X2322325Y-3176222D01*
X2322325Y-3176222D02*
X2312801Y-3157174D01*
X2312801Y-3157174D02*
X2293753Y-3147650D01*
X2293753Y-3147650D02*
X2265182Y-3147650D01*
X2265182Y-3147650D02*
X2246134Y-3157174D01*
X2246134Y-3157174D02*
X2236611Y-3166698D01*
X2446134Y-3280984D02*
X2427087Y-3271460D01*
X2427087Y-3271460D02*
X2417563Y-3261936D01*
X2417563Y-3261936D02*
X2408039Y-3242888D01*
X2408039Y-3242888D02*
X2408039Y-3185746D01*
X2408039Y-3185746D02*
X2417563Y-3166698D01*
X2417563Y-3166698D02*
X2427087Y-3157174D01*
X2427087Y-3157174D02*
X2446134Y-3147650D01*
X2446134Y-3147650D02*
X2474706Y-3147650D01*
X2474706Y-3147650D02*
X2493753Y-3157174D01*
X2493753Y-3157174D02*
X2503277Y-3166698D01*
X2503277Y-3166698D02*
X2512801Y-3185746D01*
X2512801Y-3185746D02*
X2512801Y-3242888D01*
X2512801Y-3242888D02*
X2503277Y-3261936D01*
X2503277Y-3261936D02*
X2493753Y-3271460D01*
X2493753Y-3271460D02*
X2474706Y-3280984D01*
X2474706Y-3280984D02*
X2446134Y-3280984D01*
X2627087Y-3280984D02*
X2608039Y-3271460D01*
X2608039Y-3271460D02*
X2598515Y-3252412D01*
X2598515Y-3252412D02*
X2598515Y-3080984D01*
X2779468Y-3271460D02*
X2760420Y-3280984D01*
X2760420Y-3280984D02*
X2722325Y-3280984D01*
X2722325Y-3280984D02*
X2703277Y-3271460D01*
X2703277Y-3271460D02*
X2693753Y-3252412D01*
X2693753Y-3252412D02*
X2693753Y-3176222D01*
X2693753Y-3176222D02*
X2703277Y-3157174D01*
X2703277Y-3157174D02*
X2722325Y-3147650D01*
X2722325Y-3147650D02*
X2760420Y-3147650D01*
X2760420Y-3147650D02*
X2779468Y-3157174D01*
X2779468Y-3157174D02*
X2788992Y-3176222D01*
X2788992Y-3176222D02*
X2788992Y-3195269D01*
X2788992Y-3195269D02*
X2693753Y-3214317D01*
X2855658Y-3357174D02*
X2865182Y-3347650D01*
X2865182Y-3347650D02*
X2884230Y-3319079D01*
X2884230Y-3319079D02*
X2893753Y-3300031D01*
X2893753Y-3300031D02*
X2903277Y-3271460D01*
X2903277Y-3271460D02*
X2912801Y-3223841D01*
X2912801Y-3223841D02*
X2912801Y-3185746D01*
X2912801Y-3185746D02*
X2903277Y-3138127D01*
X2903277Y-3138127D02*
X2893753Y-3109555D01*
X2893753Y-3109555D02*
X2884230Y-3090508D01*
X2884230Y-3090508D02*
X2865182Y-3061936D01*
X2865182Y-3061936D02*
X2855658Y-3052412D01*
D15*
X-1802501Y-3498501D02*
X-1757500Y-3453500D01*
X-1802501Y-3408499D01*
X-1847502Y-3453500D01*
X-1802501Y-3498501D01*
D10*
X-1458628Y-3344984D02*
X-1439580Y-3344984D01*
X-1439580Y-3344984D02*
X-1420533Y-3354508D01*
X-1420533Y-3354508D02*
X-1411009Y-3364031D01*
X-1411009Y-3364031D02*
X-1401485Y-3383079D01*
X-1401485Y-3383079D02*
X-1391961Y-3421174D01*
X-1391961Y-3421174D02*
X-1391961Y-3468793D01*
X-1391961Y-3468793D02*
X-1401485Y-3506888D01*
X-1401485Y-3506888D02*
X-1411009Y-3525936D01*
X-1411009Y-3525936D02*
X-1420533Y-3535460D01*
X-1420533Y-3535460D02*
X-1439580Y-3544984D01*
X-1439580Y-3544984D02*
X-1458628Y-3544984D01*
X-1458628Y-3544984D02*
X-1477676Y-3535460D01*
X-1477676Y-3535460D02*
X-1487199Y-3525936D01*
X-1487199Y-3525936D02*
X-1496723Y-3506888D01*
X-1496723Y-3506888D02*
X-1506247Y-3468793D01*
X-1506247Y-3468793D02*
X-1506247Y-3421174D01*
X-1506247Y-3421174D02*
X-1496723Y-3383079D01*
X-1496723Y-3383079D02*
X-1487199Y-3364031D01*
X-1487199Y-3364031D02*
X-1477676Y-3354508D01*
X-1477676Y-3354508D02*
X-1458628Y-3344984D01*
X-1306247Y-3525936D02*
X-1296723Y-3535460D01*
X-1296723Y-3535460D02*
X-1306247Y-3544984D01*
X-1306247Y-3544984D02*
X-1315771Y-3535460D01*
X-1315771Y-3535460D02*
X-1306247Y-3525936D01*
X-1306247Y-3525936D02*
X-1306247Y-3544984D01*
X-1201485Y-3544984D02*
X-1163390Y-3544984D01*
X-1163390Y-3544984D02*
X-1144342Y-3535460D01*
X-1144342Y-3535460D02*
X-1134818Y-3525936D01*
X-1134818Y-3525936D02*
X-1115771Y-3497365D01*
X-1115771Y-3497365D02*
X-1106247Y-3459269D01*
X-1106247Y-3459269D02*
X-1106247Y-3383079D01*
X-1106247Y-3383079D02*
X-1115771Y-3364031D01*
X-1115771Y-3364031D02*
X-1125295Y-3354508D01*
X-1125295Y-3354508D02*
X-1144342Y-3344984D01*
X-1144342Y-3344984D02*
X-1182438Y-3344984D01*
X-1182438Y-3344984D02*
X-1201485Y-3354508D01*
X-1201485Y-3354508D02*
X-1211009Y-3364031D01*
X-1211009Y-3364031D02*
X-1220533Y-3383079D01*
X-1220533Y-3383079D02*
X-1220533Y-3430698D01*
X-1220533Y-3430698D02*
X-1211009Y-3449746D01*
X-1211009Y-3449746D02*
X-1201485Y-3459269D01*
X-1201485Y-3459269D02*
X-1182438Y-3468793D01*
X-1182438Y-3468793D02*
X-1144342Y-3468793D01*
X-1144342Y-3468793D02*
X-1125295Y-3459269D01*
X-1125295Y-3459269D02*
X-1115771Y-3449746D01*
X-1115771Y-3449746D02*
X-1106247Y-3430698D01*
X-982437Y-3344984D02*
X-963390Y-3344984D01*
X-963390Y-3344984D02*
X-944342Y-3354508D01*
X-944342Y-3354508D02*
X-934818Y-3364031D01*
X-934818Y-3364031D02*
X-925295Y-3383079D01*
X-925295Y-3383079D02*
X-915771Y-3421174D01*
X-915771Y-3421174D02*
X-915771Y-3468793D01*
X-915771Y-3468793D02*
X-925295Y-3506888D01*
X-925295Y-3506888D02*
X-934818Y-3525936D01*
X-934818Y-3525936D02*
X-944342Y-3535460D01*
X-944342Y-3535460D02*
X-963390Y-3544984D01*
X-963390Y-3544984D02*
X-982437Y-3544984D01*
X-982437Y-3544984D02*
X-1001485Y-3535460D01*
X-1001485Y-3535460D02*
X-1011009Y-3525936D01*
X-1011009Y-3525936D02*
X-1020533Y-3506888D01*
X-1020533Y-3506888D02*
X-1030056Y-3468793D01*
X-1030056Y-3468793D02*
X-1030056Y-3421174D01*
X-1030056Y-3421174D02*
X-1020533Y-3383079D01*
X-1020533Y-3383079D02*
X-1011009Y-3364031D01*
X-1011009Y-3364031D02*
X-1001485Y-3354508D01*
X-1001485Y-3354508D02*
X-982437Y-3344984D01*
X-791961Y-3344984D02*
X-772914Y-3344984D01*
X-772914Y-3344984D02*
X-753866Y-3354508D01*
X-753866Y-3354508D02*
X-744342Y-3364031D01*
X-744342Y-3364031D02*
X-734818Y-3383079D01*
X-734818Y-3383079D02*
X-725295Y-3421174D01*
X-725295Y-3421174D02*
X-725295Y-3468793D01*
X-725295Y-3468793D02*
X-734818Y-3506888D01*
X-734818Y-3506888D02*
X-744342Y-3525936D01*
X-744342Y-3525936D02*
X-753866Y-3535460D01*
X-753866Y-3535460D02*
X-772914Y-3544984D01*
X-772914Y-3544984D02*
X-791961Y-3544984D01*
X-791961Y-3544984D02*
X-811009Y-3535460D01*
X-811009Y-3535460D02*
X-820533Y-3525936D01*
X-820533Y-3525936D02*
X-830056Y-3506888D01*
X-830056Y-3506888D02*
X-839580Y-3468793D01*
X-839580Y-3468793D02*
X-839580Y-3421174D01*
X-839580Y-3421174D02*
X-830056Y-3383079D01*
X-830056Y-3383079D02*
X-820533Y-3364031D01*
X-820533Y-3364031D02*
X-811009Y-3354508D01*
X-811009Y-3354508D02*
X-791961Y-3344984D01*
X-639580Y-3544984D02*
X-639580Y-3411650D01*
X-639580Y-3430698D02*
X-630057Y-3421174D01*
X-630057Y-3421174D02*
X-611009Y-3411650D01*
X-611009Y-3411650D02*
X-582437Y-3411650D01*
X-582437Y-3411650D02*
X-563390Y-3421174D01*
X-563390Y-3421174D02*
X-553866Y-3440222D01*
X-553866Y-3440222D02*
X-553866Y-3544984D01*
X-553866Y-3440222D02*
X-544342Y-3421174D01*
X-544342Y-3421174D02*
X-525295Y-3411650D01*
X-525295Y-3411650D02*
X-496723Y-3411650D01*
X-496723Y-3411650D02*
X-477675Y-3421174D01*
X-477675Y-3421174D02*
X-468152Y-3440222D01*
X-468152Y-3440222D02*
X-468152Y-3544984D01*
X-372914Y-3544984D02*
X-372914Y-3411650D01*
X-372914Y-3430698D02*
X-363390Y-3421174D01*
X-363390Y-3421174D02*
X-344342Y-3411650D01*
X-344342Y-3411650D02*
X-315771Y-3411650D01*
X-315771Y-3411650D02*
X-296723Y-3421174D01*
X-296723Y-3421174D02*
X-287199Y-3440222D01*
X-287199Y-3440222D02*
X-287199Y-3544984D01*
X-287199Y-3440222D02*
X-277676Y-3421174D01*
X-277676Y-3421174D02*
X-258628Y-3411650D01*
X-258628Y-3411650D02*
X-230056Y-3411650D01*
X-230056Y-3411650D02*
X-211009Y-3421174D01*
X-211009Y-3421174D02*
X-201485Y-3440222D01*
X-201485Y-3440222D02*
X-201485Y-3544984D01*
X188991Y-3335460D02*
X17563Y-3592603D01*
X446134Y-3344984D02*
X465182Y-3344984D01*
X465182Y-3344984D02*
X484229Y-3354508D01*
X484229Y-3354508D02*
X493753Y-3364031D01*
X493753Y-3364031D02*
X503277Y-3383079D01*
X503277Y-3383079D02*
X512801Y-3421174D01*
X512801Y-3421174D02*
X512801Y-3468793D01*
X512801Y-3468793D02*
X503277Y-3506888D01*
X503277Y-3506888D02*
X493753Y-3525936D01*
X493753Y-3525936D02*
X484229Y-3535460D01*
X484229Y-3535460D02*
X465182Y-3544984D01*
X465182Y-3544984D02*
X446134Y-3544984D01*
X446134Y-3544984D02*
X427086Y-3535460D01*
X427086Y-3535460D02*
X417563Y-3525936D01*
X417563Y-3525936D02*
X408039Y-3506888D01*
X408039Y-3506888D02*
X398515Y-3468793D01*
X398515Y-3468793D02*
X398515Y-3421174D01*
X398515Y-3421174D02*
X408039Y-3383079D01*
X408039Y-3383079D02*
X417563Y-3364031D01*
X417563Y-3364031D02*
X427086Y-3354508D01*
X427086Y-3354508D02*
X446134Y-3344984D01*
X598515Y-3525936D02*
X608039Y-3535460D01*
X608039Y-3535460D02*
X598515Y-3544984D01*
X598515Y-3544984D02*
X588991Y-3535460D01*
X588991Y-3535460D02*
X598515Y-3525936D01*
X598515Y-3525936D02*
X598515Y-3544984D01*
X731848Y-3344984D02*
X750896Y-3344984D01*
X750896Y-3344984D02*
X769944Y-3354508D01*
X769944Y-3354508D02*
X779467Y-3364031D01*
X779467Y-3364031D02*
X788991Y-3383079D01*
X788991Y-3383079D02*
X798515Y-3421174D01*
X798515Y-3421174D02*
X798515Y-3468793D01*
X798515Y-3468793D02*
X788991Y-3506888D01*
X788991Y-3506888D02*
X779467Y-3525936D01*
X779467Y-3525936D02*
X769944Y-3535460D01*
X769944Y-3535460D02*
X750896Y-3544984D01*
X750896Y-3544984D02*
X731848Y-3544984D01*
X731848Y-3544984D02*
X712801Y-3535460D01*
X712801Y-3535460D02*
X703277Y-3525936D01*
X703277Y-3525936D02*
X693753Y-3506888D01*
X693753Y-3506888D02*
X684229Y-3468793D01*
X684229Y-3468793D02*
X684229Y-3421174D01*
X684229Y-3421174D02*
X693753Y-3383079D01*
X693753Y-3383079D02*
X703277Y-3364031D01*
X703277Y-3364031D02*
X712801Y-3354508D01*
X712801Y-3354508D02*
X731848Y-3344984D01*
X865182Y-3344984D02*
X988991Y-3344984D01*
X988991Y-3344984D02*
X922325Y-3421174D01*
X922325Y-3421174D02*
X950896Y-3421174D01*
X950896Y-3421174D02*
X969944Y-3430698D01*
X969944Y-3430698D02*
X979467Y-3440222D01*
X979467Y-3440222D02*
X988991Y-3459269D01*
X988991Y-3459269D02*
X988991Y-3506888D01*
X988991Y-3506888D02*
X979467Y-3525936D01*
X979467Y-3525936D02*
X969944Y-3535460D01*
X969944Y-3535460D02*
X950896Y-3544984D01*
X950896Y-3544984D02*
X893753Y-3544984D01*
X893753Y-3544984D02*
X874706Y-3535460D01*
X874706Y-3535460D02*
X865182Y-3525936D01*
X1169944Y-3344984D02*
X1074706Y-3344984D01*
X1074706Y-3344984D02*
X1065182Y-3440222D01*
X1065182Y-3440222D02*
X1074706Y-3430698D01*
X1074706Y-3430698D02*
X1093753Y-3421174D01*
X1093753Y-3421174D02*
X1141372Y-3421174D01*
X1141372Y-3421174D02*
X1160420Y-3430698D01*
X1160420Y-3430698D02*
X1169944Y-3440222D01*
X1169944Y-3440222D02*
X1179468Y-3459269D01*
X1179468Y-3459269D02*
X1179468Y-3506888D01*
X1179468Y-3506888D02*
X1169944Y-3525936D01*
X1169944Y-3525936D02*
X1160420Y-3535460D01*
X1160420Y-3535460D02*
X1141372Y-3544984D01*
X1141372Y-3544984D02*
X1093753Y-3544984D01*
X1093753Y-3544984D02*
X1074706Y-3535460D01*
X1074706Y-3535460D02*
X1065182Y-3525936D01*
X1350896Y-3411650D02*
X1350896Y-3544984D01*
X1303277Y-3335460D02*
X1255658Y-3478317D01*
X1255658Y-3478317D02*
X1379468Y-3478317D01*
X1446134Y-3344984D02*
X1446134Y-3383079D01*
X1522325Y-3344984D02*
X1522325Y-3383079D01*
X1817563Y-3621174D02*
X1808039Y-3611650D01*
X1808039Y-3611650D02*
X1788991Y-3583079D01*
X1788991Y-3583079D02*
X1779468Y-3564031D01*
X1779468Y-3564031D02*
X1769944Y-3535460D01*
X1769944Y-3535460D02*
X1760420Y-3487841D01*
X1760420Y-3487841D02*
X1760420Y-3449746D01*
X1760420Y-3449746D02*
X1769944Y-3402127D01*
X1769944Y-3402127D02*
X1779468Y-3373555D01*
X1779468Y-3373555D02*
X1788991Y-3354508D01*
X1788991Y-3354508D02*
X1808039Y-3325936D01*
X1808039Y-3325936D02*
X1817563Y-3316412D01*
X1979468Y-3411650D02*
X1979468Y-3544984D01*
X1931848Y-3335460D02*
X1884229Y-3478317D01*
X1884229Y-3478317D02*
X2008039Y-3478317D01*
X2236611Y-3544984D02*
X2236611Y-3344984D01*
X2322325Y-3544984D02*
X2322325Y-3440222D01*
X2322325Y-3440222D02*
X2312801Y-3421174D01*
X2312801Y-3421174D02*
X2293753Y-3411650D01*
X2293753Y-3411650D02*
X2265182Y-3411650D01*
X2265182Y-3411650D02*
X2246134Y-3421174D01*
X2246134Y-3421174D02*
X2236611Y-3430698D01*
X2446134Y-3544984D02*
X2427087Y-3535460D01*
X2427087Y-3535460D02*
X2417563Y-3525936D01*
X2417563Y-3525936D02*
X2408039Y-3506888D01*
X2408039Y-3506888D02*
X2408039Y-3449746D01*
X2408039Y-3449746D02*
X2417563Y-3430698D01*
X2417563Y-3430698D02*
X2427087Y-3421174D01*
X2427087Y-3421174D02*
X2446134Y-3411650D01*
X2446134Y-3411650D02*
X2474706Y-3411650D01*
X2474706Y-3411650D02*
X2493753Y-3421174D01*
X2493753Y-3421174D02*
X2503277Y-3430698D01*
X2503277Y-3430698D02*
X2512801Y-3449746D01*
X2512801Y-3449746D02*
X2512801Y-3506888D01*
X2512801Y-3506888D02*
X2503277Y-3525936D01*
X2503277Y-3525936D02*
X2493753Y-3535460D01*
X2493753Y-3535460D02*
X2474706Y-3544984D01*
X2474706Y-3544984D02*
X2446134Y-3544984D01*
X2627087Y-3544984D02*
X2608039Y-3535460D01*
X2608039Y-3535460D02*
X2598515Y-3516412D01*
X2598515Y-3516412D02*
X2598515Y-3344984D01*
X2779468Y-3535460D02*
X2760420Y-3544984D01*
X2760420Y-3544984D02*
X2722325Y-3544984D01*
X2722325Y-3544984D02*
X2703277Y-3535460D01*
X2703277Y-3535460D02*
X2693753Y-3516412D01*
X2693753Y-3516412D02*
X2693753Y-3440222D01*
X2693753Y-3440222D02*
X2703277Y-3421174D01*
X2703277Y-3421174D02*
X2722325Y-3411650D01*
X2722325Y-3411650D02*
X2760420Y-3411650D01*
X2760420Y-3411650D02*
X2779468Y-3421174D01*
X2779468Y-3421174D02*
X2788992Y-3440222D01*
X2788992Y-3440222D02*
X2788992Y-3459269D01*
X2788992Y-3459269D02*
X2693753Y-3478317D01*
X2865182Y-3535460D02*
X2884230Y-3544984D01*
X2884230Y-3544984D02*
X2922325Y-3544984D01*
X2922325Y-3544984D02*
X2941372Y-3535460D01*
X2941372Y-3535460D02*
X2950896Y-3516412D01*
X2950896Y-3516412D02*
X2950896Y-3506888D01*
X2950896Y-3506888D02*
X2941372Y-3487841D01*
X2941372Y-3487841D02*
X2922325Y-3478317D01*
X2922325Y-3478317D02*
X2893753Y-3478317D01*
X2893753Y-3478317D02*
X2874706Y-3468793D01*
X2874706Y-3468793D02*
X2865182Y-3449746D01*
X2865182Y-3449746D02*
X2865182Y-3440222D01*
X2865182Y-3440222D02*
X2874706Y-3421174D01*
X2874706Y-3421174D02*
X2893753Y-3411650D01*
X2893753Y-3411650D02*
X2922325Y-3411650D01*
X2922325Y-3411650D02*
X2941372Y-3421174D01*
X3017563Y-3621174D02*
X3027087Y-3611650D01*
X3027087Y-3611650D02*
X3046134Y-3583079D01*
X3046134Y-3583079D02*
X3055658Y-3564031D01*
X3055658Y-3564031D02*
X3065182Y-3535460D01*
X3065182Y-3535460D02*
X3074706Y-3487841D01*
X3074706Y-3487841D02*
X3074706Y-3449746D01*
X3074706Y-3449746D02*
X3065182Y-3402127D01*
X3065182Y-3402127D02*
X3055658Y-3373555D01*
X3055658Y-3373555D02*
X3046134Y-3354508D01*
X3046134Y-3354508D02*
X3027087Y-3325936D01*
X3027087Y-3325936D02*
X3017563Y-3316412D01*
D16*
X-1852500Y-3670000D02*
X-1757500Y-3765000D01*
X-1757500Y-3670000D02*
X-1852500Y-3765000D01*
X-1757500Y-3717500D02*
G75*
G03*
X-1757500Y-3717500I-47500J0D01*
G01*
D10*
X-1458628Y-3608984D02*
X-1439580Y-3608984D01*
X-1439580Y-3608984D02*
X-1420533Y-3618508D01*
X-1420533Y-3618508D02*
X-1411009Y-3628031D01*
X-1411009Y-3628031D02*
X-1401485Y-3647079D01*
X-1401485Y-3647079D02*
X-1391961Y-3685174D01*
X-1391961Y-3685174D02*
X-1391961Y-3732793D01*
X-1391961Y-3732793D02*
X-1401485Y-3770888D01*
X-1401485Y-3770888D02*
X-1411009Y-3789936D01*
X-1411009Y-3789936D02*
X-1420533Y-3799460D01*
X-1420533Y-3799460D02*
X-1439580Y-3808984D01*
X-1439580Y-3808984D02*
X-1458628Y-3808984D01*
X-1458628Y-3808984D02*
X-1477676Y-3799460D01*
X-1477676Y-3799460D02*
X-1487199Y-3789936D01*
X-1487199Y-3789936D02*
X-1496723Y-3770888D01*
X-1496723Y-3770888D02*
X-1506247Y-3732793D01*
X-1506247Y-3732793D02*
X-1506247Y-3685174D01*
X-1506247Y-3685174D02*
X-1496723Y-3647079D01*
X-1496723Y-3647079D02*
X-1487199Y-3628031D01*
X-1487199Y-3628031D02*
X-1477676Y-3618508D01*
X-1477676Y-3618508D02*
X-1458628Y-3608984D01*
X-1306247Y-3789936D02*
X-1296723Y-3799460D01*
X-1296723Y-3799460D02*
X-1306247Y-3808984D01*
X-1306247Y-3808984D02*
X-1315771Y-3799460D01*
X-1315771Y-3799460D02*
X-1306247Y-3789936D01*
X-1306247Y-3789936D02*
X-1306247Y-3808984D01*
X-1201485Y-3808984D02*
X-1163390Y-3808984D01*
X-1163390Y-3808984D02*
X-1144342Y-3799460D01*
X-1144342Y-3799460D02*
X-1134818Y-3789936D01*
X-1134818Y-3789936D02*
X-1115771Y-3761365D01*
X-1115771Y-3761365D02*
X-1106247Y-3723269D01*
X-1106247Y-3723269D02*
X-1106247Y-3647079D01*
X-1106247Y-3647079D02*
X-1115771Y-3628031D01*
X-1115771Y-3628031D02*
X-1125295Y-3618508D01*
X-1125295Y-3618508D02*
X-1144342Y-3608984D01*
X-1144342Y-3608984D02*
X-1182438Y-3608984D01*
X-1182438Y-3608984D02*
X-1201485Y-3618508D01*
X-1201485Y-3618508D02*
X-1211009Y-3628031D01*
X-1211009Y-3628031D02*
X-1220533Y-3647079D01*
X-1220533Y-3647079D02*
X-1220533Y-3694698D01*
X-1220533Y-3694698D02*
X-1211009Y-3713746D01*
X-1211009Y-3713746D02*
X-1201485Y-3723269D01*
X-1201485Y-3723269D02*
X-1182438Y-3732793D01*
X-1182438Y-3732793D02*
X-1144342Y-3732793D01*
X-1144342Y-3732793D02*
X-1125295Y-3723269D01*
X-1125295Y-3723269D02*
X-1115771Y-3713746D01*
X-1115771Y-3713746D02*
X-1106247Y-3694698D01*
X-925295Y-3608984D02*
X-1020533Y-3608984D01*
X-1020533Y-3608984D02*
X-1030056Y-3704222D01*
X-1030056Y-3704222D02*
X-1020533Y-3694698D01*
X-1020533Y-3694698D02*
X-1001485Y-3685174D01*
X-1001485Y-3685174D02*
X-953866Y-3685174D01*
X-953866Y-3685174D02*
X-934818Y-3694698D01*
X-934818Y-3694698D02*
X-925295Y-3704222D01*
X-925295Y-3704222D02*
X-915771Y-3723269D01*
X-915771Y-3723269D02*
X-915771Y-3770888D01*
X-915771Y-3770888D02*
X-925295Y-3789936D01*
X-925295Y-3789936D02*
X-934818Y-3799460D01*
X-934818Y-3799460D02*
X-953866Y-3808984D01*
X-953866Y-3808984D02*
X-1001485Y-3808984D01*
X-1001485Y-3808984D02*
X-1020533Y-3799460D01*
X-1020533Y-3799460D02*
X-1030056Y-3789936D01*
X-791961Y-3608984D02*
X-772914Y-3608984D01*
X-772914Y-3608984D02*
X-753866Y-3618508D01*
X-753866Y-3618508D02*
X-744342Y-3628031D01*
X-744342Y-3628031D02*
X-734818Y-3647079D01*
X-734818Y-3647079D02*
X-725295Y-3685174D01*
X-725295Y-3685174D02*
X-725295Y-3732793D01*
X-725295Y-3732793D02*
X-734818Y-3770888D01*
X-734818Y-3770888D02*
X-744342Y-3789936D01*
X-744342Y-3789936D02*
X-753866Y-3799460D01*
X-753866Y-3799460D02*
X-772914Y-3808984D01*
X-772914Y-3808984D02*
X-791961Y-3808984D01*
X-791961Y-3808984D02*
X-811009Y-3799460D01*
X-811009Y-3799460D02*
X-820533Y-3789936D01*
X-820533Y-3789936D02*
X-830056Y-3770888D01*
X-830056Y-3770888D02*
X-839580Y-3732793D01*
X-839580Y-3732793D02*
X-839580Y-3685174D01*
X-839580Y-3685174D02*
X-830056Y-3647079D01*
X-830056Y-3647079D02*
X-820533Y-3628031D01*
X-820533Y-3628031D02*
X-811009Y-3618508D01*
X-811009Y-3618508D02*
X-791961Y-3608984D01*
X-639580Y-3808984D02*
X-639580Y-3675650D01*
X-639580Y-3694698D02*
X-630057Y-3685174D01*
X-630057Y-3685174D02*
X-611009Y-3675650D01*
X-611009Y-3675650D02*
X-582437Y-3675650D01*
X-582437Y-3675650D02*
X-563390Y-3685174D01*
X-563390Y-3685174D02*
X-553866Y-3704222D01*
X-553866Y-3704222D02*
X-553866Y-3808984D01*
X-553866Y-3704222D02*
X-544342Y-3685174D01*
X-544342Y-3685174D02*
X-525295Y-3675650D01*
X-525295Y-3675650D02*
X-496723Y-3675650D01*
X-496723Y-3675650D02*
X-477675Y-3685174D01*
X-477675Y-3685174D02*
X-468152Y-3704222D01*
X-468152Y-3704222D02*
X-468152Y-3808984D01*
X-372914Y-3808984D02*
X-372914Y-3675650D01*
X-372914Y-3694698D02*
X-363390Y-3685174D01*
X-363390Y-3685174D02*
X-344342Y-3675650D01*
X-344342Y-3675650D02*
X-315771Y-3675650D01*
X-315771Y-3675650D02*
X-296723Y-3685174D01*
X-296723Y-3685174D02*
X-287199Y-3704222D01*
X-287199Y-3704222D02*
X-287199Y-3808984D01*
X-287199Y-3704222D02*
X-277676Y-3685174D01*
X-277676Y-3685174D02*
X-258628Y-3675650D01*
X-258628Y-3675650D02*
X-230056Y-3675650D01*
X-230056Y-3675650D02*
X-211009Y-3685174D01*
X-211009Y-3685174D02*
X-201485Y-3704222D01*
X-201485Y-3704222D02*
X-201485Y-3808984D01*
X188991Y-3599460D02*
X17563Y-3856603D01*
X446134Y-3608984D02*
X465182Y-3608984D01*
X465182Y-3608984D02*
X484229Y-3618508D01*
X484229Y-3618508D02*
X493753Y-3628031D01*
X493753Y-3628031D02*
X503277Y-3647079D01*
X503277Y-3647079D02*
X512801Y-3685174D01*
X512801Y-3685174D02*
X512801Y-3732793D01*
X512801Y-3732793D02*
X503277Y-3770888D01*
X503277Y-3770888D02*
X493753Y-3789936D01*
X493753Y-3789936D02*
X484229Y-3799460D01*
X484229Y-3799460D02*
X465182Y-3808984D01*
X465182Y-3808984D02*
X446134Y-3808984D01*
X446134Y-3808984D02*
X427086Y-3799460D01*
X427086Y-3799460D02*
X417563Y-3789936D01*
X417563Y-3789936D02*
X408039Y-3770888D01*
X408039Y-3770888D02*
X398515Y-3732793D01*
X398515Y-3732793D02*
X398515Y-3685174D01*
X398515Y-3685174D02*
X408039Y-3647079D01*
X408039Y-3647079D02*
X417563Y-3628031D01*
X417563Y-3628031D02*
X427086Y-3618508D01*
X427086Y-3618508D02*
X446134Y-3608984D01*
X598515Y-3789936D02*
X608039Y-3799460D01*
X608039Y-3799460D02*
X598515Y-3808984D01*
X598515Y-3808984D02*
X588991Y-3799460D01*
X588991Y-3799460D02*
X598515Y-3789936D01*
X598515Y-3789936D02*
X598515Y-3808984D01*
X731848Y-3608984D02*
X750896Y-3608984D01*
X750896Y-3608984D02*
X769944Y-3618508D01*
X769944Y-3618508D02*
X779467Y-3628031D01*
X779467Y-3628031D02*
X788991Y-3647079D01*
X788991Y-3647079D02*
X798515Y-3685174D01*
X798515Y-3685174D02*
X798515Y-3732793D01*
X798515Y-3732793D02*
X788991Y-3770888D01*
X788991Y-3770888D02*
X779467Y-3789936D01*
X779467Y-3789936D02*
X769944Y-3799460D01*
X769944Y-3799460D02*
X750896Y-3808984D01*
X750896Y-3808984D02*
X731848Y-3808984D01*
X731848Y-3808984D02*
X712801Y-3799460D01*
X712801Y-3799460D02*
X703277Y-3789936D01*
X703277Y-3789936D02*
X693753Y-3770888D01*
X693753Y-3770888D02*
X684229Y-3732793D01*
X684229Y-3732793D02*
X684229Y-3685174D01*
X684229Y-3685174D02*
X693753Y-3647079D01*
X693753Y-3647079D02*
X703277Y-3628031D01*
X703277Y-3628031D02*
X712801Y-3618508D01*
X712801Y-3618508D02*
X731848Y-3608984D01*
X865182Y-3608984D02*
X988991Y-3608984D01*
X988991Y-3608984D02*
X922325Y-3685174D01*
X922325Y-3685174D02*
X950896Y-3685174D01*
X950896Y-3685174D02*
X969944Y-3694698D01*
X969944Y-3694698D02*
X979467Y-3704222D01*
X979467Y-3704222D02*
X988991Y-3723269D01*
X988991Y-3723269D02*
X988991Y-3770888D01*
X988991Y-3770888D02*
X979467Y-3789936D01*
X979467Y-3789936D02*
X969944Y-3799460D01*
X969944Y-3799460D02*
X950896Y-3808984D01*
X950896Y-3808984D02*
X893753Y-3808984D01*
X893753Y-3808984D02*
X874706Y-3799460D01*
X874706Y-3799460D02*
X865182Y-3789936D01*
X1055658Y-3608984D02*
X1188991Y-3608984D01*
X1188991Y-3608984D02*
X1103277Y-3808984D01*
X1350896Y-3675650D02*
X1350896Y-3808984D01*
X1303277Y-3599460D02*
X1255658Y-3742317D01*
X1255658Y-3742317D02*
X1379468Y-3742317D01*
X1446134Y-3608984D02*
X1446134Y-3647079D01*
X1522325Y-3608984D02*
X1522325Y-3647079D01*
X1817563Y-3885174D02*
X1808039Y-3875650D01*
X1808039Y-3875650D02*
X1788991Y-3847079D01*
X1788991Y-3847079D02*
X1779468Y-3828031D01*
X1779468Y-3828031D02*
X1769944Y-3799460D01*
X1769944Y-3799460D02*
X1760420Y-3751841D01*
X1760420Y-3751841D02*
X1760420Y-3713746D01*
X1760420Y-3713746D02*
X1769944Y-3666127D01*
X1769944Y-3666127D02*
X1779468Y-3637555D01*
X1779468Y-3637555D02*
X1788991Y-3618508D01*
X1788991Y-3618508D02*
X1808039Y-3589936D01*
X1808039Y-3589936D02*
X1817563Y-3580412D01*
X1979468Y-3675650D02*
X1979468Y-3808984D01*
X1931848Y-3599460D02*
X1884229Y-3742317D01*
X1884229Y-3742317D02*
X2008039Y-3742317D01*
X2236611Y-3808984D02*
X2236611Y-3608984D01*
X2322325Y-3808984D02*
X2322325Y-3704222D01*
X2322325Y-3704222D02*
X2312801Y-3685174D01*
X2312801Y-3685174D02*
X2293753Y-3675650D01*
X2293753Y-3675650D02*
X2265182Y-3675650D01*
X2265182Y-3675650D02*
X2246134Y-3685174D01*
X2246134Y-3685174D02*
X2236611Y-3694698D01*
X2446134Y-3808984D02*
X2427087Y-3799460D01*
X2427087Y-3799460D02*
X2417563Y-3789936D01*
X2417563Y-3789936D02*
X2408039Y-3770888D01*
X2408039Y-3770888D02*
X2408039Y-3713746D01*
X2408039Y-3713746D02*
X2417563Y-3694698D01*
X2417563Y-3694698D02*
X2427087Y-3685174D01*
X2427087Y-3685174D02*
X2446134Y-3675650D01*
X2446134Y-3675650D02*
X2474706Y-3675650D01*
X2474706Y-3675650D02*
X2493753Y-3685174D01*
X2493753Y-3685174D02*
X2503277Y-3694698D01*
X2503277Y-3694698D02*
X2512801Y-3713746D01*
X2512801Y-3713746D02*
X2512801Y-3770888D01*
X2512801Y-3770888D02*
X2503277Y-3789936D01*
X2503277Y-3789936D02*
X2493753Y-3799460D01*
X2493753Y-3799460D02*
X2474706Y-3808984D01*
X2474706Y-3808984D02*
X2446134Y-3808984D01*
X2627087Y-3808984D02*
X2608039Y-3799460D01*
X2608039Y-3799460D02*
X2598515Y-3780412D01*
X2598515Y-3780412D02*
X2598515Y-3608984D01*
X2779468Y-3799460D02*
X2760420Y-3808984D01*
X2760420Y-3808984D02*
X2722325Y-3808984D01*
X2722325Y-3808984D02*
X2703277Y-3799460D01*
X2703277Y-3799460D02*
X2693753Y-3780412D01*
X2693753Y-3780412D02*
X2693753Y-3704222D01*
X2693753Y-3704222D02*
X2703277Y-3685174D01*
X2703277Y-3685174D02*
X2722325Y-3675650D01*
X2722325Y-3675650D02*
X2760420Y-3675650D01*
X2760420Y-3675650D02*
X2779468Y-3685174D01*
X2779468Y-3685174D02*
X2788992Y-3704222D01*
X2788992Y-3704222D02*
X2788992Y-3723269D01*
X2788992Y-3723269D02*
X2693753Y-3742317D01*
X2865182Y-3799460D02*
X2884230Y-3808984D01*
X2884230Y-3808984D02*
X2922325Y-3808984D01*
X2922325Y-3808984D02*
X2941372Y-3799460D01*
X2941372Y-3799460D02*
X2950896Y-3780412D01*
X2950896Y-3780412D02*
X2950896Y-3770888D01*
X2950896Y-3770888D02*
X2941372Y-3751841D01*
X2941372Y-3751841D02*
X2922325Y-3742317D01*
X2922325Y-3742317D02*
X2893753Y-3742317D01*
X2893753Y-3742317D02*
X2874706Y-3732793D01*
X2874706Y-3732793D02*
X2865182Y-3713746D01*
X2865182Y-3713746D02*
X2865182Y-3704222D01*
X2865182Y-3704222D02*
X2874706Y-3685174D01*
X2874706Y-3685174D02*
X2893753Y-3675650D01*
X2893753Y-3675650D02*
X2922325Y-3675650D01*
X2922325Y-3675650D02*
X2941372Y-3685174D01*
X3188992Y-3732793D02*
X3341373Y-3732793D01*
X3265182Y-3808984D02*
X3265182Y-3656603D01*
X3674706Y-3675650D02*
X3674706Y-3808984D01*
X3627087Y-3599460D02*
X3579468Y-3742317D01*
X3579468Y-3742317D02*
X3703277Y-3742317D01*
X3922325Y-3799460D02*
X3941373Y-3808984D01*
X3941373Y-3808984D02*
X3979468Y-3808984D01*
X3979468Y-3808984D02*
X3998515Y-3799460D01*
X3998515Y-3799460D02*
X4008039Y-3780412D01*
X4008039Y-3780412D02*
X4008039Y-3770888D01*
X4008039Y-3770888D02*
X3998515Y-3751841D01*
X3998515Y-3751841D02*
X3979468Y-3742317D01*
X3979468Y-3742317D02*
X3950896Y-3742317D01*
X3950896Y-3742317D02*
X3931849Y-3732793D01*
X3931849Y-3732793D02*
X3922325Y-3713746D01*
X3922325Y-3713746D02*
X3922325Y-3704222D01*
X3922325Y-3704222D02*
X3931849Y-3685174D01*
X3931849Y-3685174D02*
X3950896Y-3675650D01*
X3950896Y-3675650D02*
X3979468Y-3675650D01*
X3979468Y-3675650D02*
X3998515Y-3685174D01*
X4122325Y-3808984D02*
X4103277Y-3799460D01*
X4103277Y-3799460D02*
X4093754Y-3780412D01*
X4093754Y-3780412D02*
X4093754Y-3608984D01*
X4227087Y-3808984D02*
X4208039Y-3799460D01*
X4208039Y-3799460D02*
X4198516Y-3789936D01*
X4198516Y-3789936D02*
X4188992Y-3770888D01*
X4188992Y-3770888D02*
X4188992Y-3713746D01*
X4188992Y-3713746D02*
X4198516Y-3694698D01*
X4198516Y-3694698D02*
X4208039Y-3685174D01*
X4208039Y-3685174D02*
X4227087Y-3675650D01*
X4227087Y-3675650D02*
X4255658Y-3675650D01*
X4255658Y-3675650D02*
X4274706Y-3685174D01*
X4274706Y-3685174D02*
X4284230Y-3694698D01*
X4284230Y-3694698D02*
X4293754Y-3713746D01*
X4293754Y-3713746D02*
X4293754Y-3770888D01*
X4293754Y-3770888D02*
X4284230Y-3789936D01*
X4284230Y-3789936D02*
X4274706Y-3799460D01*
X4274706Y-3799460D02*
X4255658Y-3808984D01*
X4255658Y-3808984D02*
X4227087Y-3808984D01*
X4350897Y-3675650D02*
X4427087Y-3675650D01*
X4379468Y-3608984D02*
X4379468Y-3780412D01*
X4379468Y-3780412D02*
X4388992Y-3799460D01*
X4388992Y-3799460D02*
X4408039Y-3808984D01*
X4408039Y-3808984D02*
X4427087Y-3808984D01*
X4484230Y-3799460D02*
X4503277Y-3808984D01*
X4503277Y-3808984D02*
X4541373Y-3808984D01*
X4541373Y-3808984D02*
X4560420Y-3799460D01*
X4560420Y-3799460D02*
X4569944Y-3780412D01*
X4569944Y-3780412D02*
X4569944Y-3770888D01*
X4569944Y-3770888D02*
X4560420Y-3751841D01*
X4560420Y-3751841D02*
X4541373Y-3742317D01*
X4541373Y-3742317D02*
X4512801Y-3742317D01*
X4512801Y-3742317D02*
X4493754Y-3732793D01*
X4493754Y-3732793D02*
X4484230Y-3713746D01*
X4484230Y-3713746D02*
X4484230Y-3704222D01*
X4484230Y-3704222D02*
X4493754Y-3685174D01*
X4493754Y-3685174D02*
X4512801Y-3675650D01*
X4512801Y-3675650D02*
X4541373Y-3675650D01*
X4541373Y-3675650D02*
X4560420Y-3685174D01*
X4636611Y-3885174D02*
X4646135Y-3875650D01*
X4646135Y-3875650D02*
X4665182Y-3847079D01*
X4665182Y-3847079D02*
X4674706Y-3828031D01*
X4674706Y-3828031D02*
X4684230Y-3799460D01*
X4684230Y-3799460D02*
X4693754Y-3751841D01*
X4693754Y-3751841D02*
X4693754Y-3713746D01*
X4693754Y-3713746D02*
X4684230Y-3666127D01*
X4684230Y-3666127D02*
X4674706Y-3637555D01*
X4674706Y-3637555D02*
X4665182Y-3618508D01*
X4665182Y-3618508D02*
X4646135Y-3589936D01*
X4646135Y-3589936D02*
X4636611Y-3580412D01*
D17*
X-1862500Y-3929000D02*
X-1757500Y-4034000D01*
X-1757500Y-3929000D02*
X-1862500Y-4034000D01*
X-1810000Y-3929000D02*
X-1810000Y-4034000D01*
X-1862500Y-3981500D02*
X-1757500Y-3981500D01*
D10*
X-1391961Y-4072984D02*
X-1506247Y-4072984D01*
X-1449104Y-4072984D02*
X-1449104Y-3872984D01*
X-1449104Y-3872984D02*
X-1468152Y-3901555D01*
X-1468152Y-3901555D02*
X-1487199Y-3920603D01*
X-1487199Y-3920603D02*
X-1506247Y-3930127D01*
X-1306247Y-4053936D02*
X-1296723Y-4063460D01*
X-1296723Y-4063460D02*
X-1306247Y-4072984D01*
X-1306247Y-4072984D02*
X-1315771Y-4063460D01*
X-1315771Y-4063460D02*
X-1306247Y-4053936D01*
X-1306247Y-4053936D02*
X-1306247Y-4072984D01*
X-1172914Y-3872984D02*
X-1153866Y-3872984D01*
X-1153866Y-3872984D02*
X-1134818Y-3882508D01*
X-1134818Y-3882508D02*
X-1125295Y-3892031D01*
X-1125295Y-3892031D02*
X-1115771Y-3911079D01*
X-1115771Y-3911079D02*
X-1106247Y-3949174D01*
X-1106247Y-3949174D02*
X-1106247Y-3996793D01*
X-1106247Y-3996793D02*
X-1115771Y-4034888D01*
X-1115771Y-4034888D02*
X-1125295Y-4053936D01*
X-1125295Y-4053936D02*
X-1134818Y-4063460D01*
X-1134818Y-4063460D02*
X-1153866Y-4072984D01*
X-1153866Y-4072984D02*
X-1172914Y-4072984D01*
X-1172914Y-4072984D02*
X-1191961Y-4063460D01*
X-1191961Y-4063460D02*
X-1201485Y-4053936D01*
X-1201485Y-4053936D02*
X-1211009Y-4034888D01*
X-1211009Y-4034888D02*
X-1220533Y-3996793D01*
X-1220533Y-3996793D02*
X-1220533Y-3949174D01*
X-1220533Y-3949174D02*
X-1211009Y-3911079D01*
X-1211009Y-3911079D02*
X-1201485Y-3892031D01*
X-1201485Y-3892031D02*
X-1191961Y-3882508D01*
X-1191961Y-3882508D02*
X-1172914Y-3872984D01*
X-925295Y-3872984D02*
X-1020533Y-3872984D01*
X-1020533Y-3872984D02*
X-1030056Y-3968222D01*
X-1030056Y-3968222D02*
X-1020533Y-3958698D01*
X-1020533Y-3958698D02*
X-1001485Y-3949174D01*
X-1001485Y-3949174D02*
X-953866Y-3949174D01*
X-953866Y-3949174D02*
X-934818Y-3958698D01*
X-934818Y-3958698D02*
X-925295Y-3968222D01*
X-925295Y-3968222D02*
X-915771Y-3987269D01*
X-915771Y-3987269D02*
X-915771Y-4034888D01*
X-915771Y-4034888D02*
X-925295Y-4053936D01*
X-925295Y-4053936D02*
X-934818Y-4063460D01*
X-934818Y-4063460D02*
X-953866Y-4072984D01*
X-953866Y-4072984D02*
X-1001485Y-4072984D01*
X-1001485Y-4072984D02*
X-1020533Y-4063460D01*
X-1020533Y-4063460D02*
X-1030056Y-4053936D01*
X-791961Y-3872984D02*
X-772914Y-3872984D01*
X-772914Y-3872984D02*
X-753866Y-3882508D01*
X-753866Y-3882508D02*
X-744342Y-3892031D01*
X-744342Y-3892031D02*
X-734818Y-3911079D01*
X-734818Y-3911079D02*
X-725295Y-3949174D01*
X-725295Y-3949174D02*
X-725295Y-3996793D01*
X-725295Y-3996793D02*
X-734818Y-4034888D01*
X-734818Y-4034888D02*
X-744342Y-4053936D01*
X-744342Y-4053936D02*
X-753866Y-4063460D01*
X-753866Y-4063460D02*
X-772914Y-4072984D01*
X-772914Y-4072984D02*
X-791961Y-4072984D01*
X-791961Y-4072984D02*
X-811009Y-4063460D01*
X-811009Y-4063460D02*
X-820533Y-4053936D01*
X-820533Y-4053936D02*
X-830056Y-4034888D01*
X-830056Y-4034888D02*
X-839580Y-3996793D01*
X-839580Y-3996793D02*
X-839580Y-3949174D01*
X-839580Y-3949174D02*
X-830056Y-3911079D01*
X-830056Y-3911079D02*
X-820533Y-3892031D01*
X-820533Y-3892031D02*
X-811009Y-3882508D01*
X-811009Y-3882508D02*
X-791961Y-3872984D01*
X-639580Y-4072984D02*
X-639580Y-3939650D01*
X-639580Y-3958698D02*
X-630057Y-3949174D01*
X-630057Y-3949174D02*
X-611009Y-3939650D01*
X-611009Y-3939650D02*
X-582437Y-3939650D01*
X-582437Y-3939650D02*
X-563390Y-3949174D01*
X-563390Y-3949174D02*
X-553866Y-3968222D01*
X-553866Y-3968222D02*
X-553866Y-4072984D01*
X-553866Y-3968222D02*
X-544342Y-3949174D01*
X-544342Y-3949174D02*
X-525295Y-3939650D01*
X-525295Y-3939650D02*
X-496723Y-3939650D01*
X-496723Y-3939650D02*
X-477675Y-3949174D01*
X-477675Y-3949174D02*
X-468152Y-3968222D01*
X-468152Y-3968222D02*
X-468152Y-4072984D01*
X-372914Y-4072984D02*
X-372914Y-3939650D01*
X-372914Y-3958698D02*
X-363390Y-3949174D01*
X-363390Y-3949174D02*
X-344342Y-3939650D01*
X-344342Y-3939650D02*
X-315771Y-3939650D01*
X-315771Y-3939650D02*
X-296723Y-3949174D01*
X-296723Y-3949174D02*
X-287199Y-3968222D01*
X-287199Y-3968222D02*
X-287199Y-4072984D01*
X-287199Y-3968222D02*
X-277676Y-3949174D01*
X-277676Y-3949174D02*
X-258628Y-3939650D01*
X-258628Y-3939650D02*
X-230056Y-3939650D01*
X-230056Y-3939650D02*
X-211009Y-3949174D01*
X-211009Y-3949174D02*
X-201485Y-3968222D01*
X-201485Y-3968222D02*
X-201485Y-4072984D01*
X188991Y-3863460D02*
X17563Y-4120603D01*
X446134Y-3872984D02*
X465182Y-3872984D01*
X465182Y-3872984D02*
X484229Y-3882508D01*
X484229Y-3882508D02*
X493753Y-3892031D01*
X493753Y-3892031D02*
X503277Y-3911079D01*
X503277Y-3911079D02*
X512801Y-3949174D01*
X512801Y-3949174D02*
X512801Y-3996793D01*
X512801Y-3996793D02*
X503277Y-4034888D01*
X503277Y-4034888D02*
X493753Y-4053936D01*
X493753Y-4053936D02*
X484229Y-4063460D01*
X484229Y-4063460D02*
X465182Y-4072984D01*
X465182Y-4072984D02*
X446134Y-4072984D01*
X446134Y-4072984D02*
X427086Y-4063460D01*
X427086Y-4063460D02*
X417563Y-4053936D01*
X417563Y-4053936D02*
X408039Y-4034888D01*
X408039Y-4034888D02*
X398515Y-3996793D01*
X398515Y-3996793D02*
X398515Y-3949174D01*
X398515Y-3949174D02*
X408039Y-3911079D01*
X408039Y-3911079D02*
X417563Y-3892031D01*
X417563Y-3892031D02*
X427086Y-3882508D01*
X427086Y-3882508D02*
X446134Y-3872984D01*
X598515Y-4053936D02*
X608039Y-4063460D01*
X608039Y-4063460D02*
X598515Y-4072984D01*
X598515Y-4072984D02*
X588991Y-4063460D01*
X588991Y-4063460D02*
X598515Y-4053936D01*
X598515Y-4053936D02*
X598515Y-4072984D01*
X731848Y-3872984D02*
X750896Y-3872984D01*
X750896Y-3872984D02*
X769944Y-3882508D01*
X769944Y-3882508D02*
X779467Y-3892031D01*
X779467Y-3892031D02*
X788991Y-3911079D01*
X788991Y-3911079D02*
X798515Y-3949174D01*
X798515Y-3949174D02*
X798515Y-3996793D01*
X798515Y-3996793D02*
X788991Y-4034888D01*
X788991Y-4034888D02*
X779467Y-4053936D01*
X779467Y-4053936D02*
X769944Y-4063460D01*
X769944Y-4063460D02*
X750896Y-4072984D01*
X750896Y-4072984D02*
X731848Y-4072984D01*
X731848Y-4072984D02*
X712801Y-4063460D01*
X712801Y-4063460D02*
X703277Y-4053936D01*
X703277Y-4053936D02*
X693753Y-4034888D01*
X693753Y-4034888D02*
X684229Y-3996793D01*
X684229Y-3996793D02*
X684229Y-3949174D01*
X684229Y-3949174D02*
X693753Y-3911079D01*
X693753Y-3911079D02*
X703277Y-3892031D01*
X703277Y-3892031D02*
X712801Y-3882508D01*
X712801Y-3882508D02*
X731848Y-3872984D01*
X969944Y-3939650D02*
X969944Y-4072984D01*
X922325Y-3863460D02*
X874706Y-4006317D01*
X874706Y-4006317D02*
X998515Y-4006317D01*
X1179468Y-4072984D02*
X1065182Y-4072984D01*
X1122325Y-4072984D02*
X1122325Y-3872984D01*
X1122325Y-3872984D02*
X1103277Y-3901555D01*
X1103277Y-3901555D02*
X1084229Y-3920603D01*
X1084229Y-3920603D02*
X1065182Y-3930127D01*
X1246134Y-3872984D02*
X1369944Y-3872984D01*
X1369944Y-3872984D02*
X1303277Y-3949174D01*
X1303277Y-3949174D02*
X1331849Y-3949174D01*
X1331849Y-3949174D02*
X1350896Y-3958698D01*
X1350896Y-3958698D02*
X1360420Y-3968222D01*
X1360420Y-3968222D02*
X1369944Y-3987269D01*
X1369944Y-3987269D02*
X1369944Y-4034888D01*
X1369944Y-4034888D02*
X1360420Y-4053936D01*
X1360420Y-4053936D02*
X1350896Y-4063460D01*
X1350896Y-4063460D02*
X1331849Y-4072984D01*
X1331849Y-4072984D02*
X1274706Y-4072984D01*
X1274706Y-4072984D02*
X1255658Y-4063460D01*
X1255658Y-4063460D02*
X1246134Y-4053936D01*
X1446134Y-3872984D02*
X1446134Y-3911079D01*
X1522325Y-3872984D02*
X1522325Y-3911079D01*
X1817563Y-4149174D02*
X1808039Y-4139650D01*
X1808039Y-4139650D02*
X1788991Y-4111079D01*
X1788991Y-4111079D02*
X1779468Y-4092031D01*
X1779468Y-4092031D02*
X1769944Y-4063460D01*
X1769944Y-4063460D02*
X1760420Y-4015841D01*
X1760420Y-4015841D02*
X1760420Y-3977746D01*
X1760420Y-3977746D02*
X1769944Y-3930127D01*
X1769944Y-3930127D02*
X1779468Y-3901555D01*
X1779468Y-3901555D02*
X1788991Y-3882508D01*
X1788991Y-3882508D02*
X1808039Y-3853936D01*
X1808039Y-3853936D02*
X1817563Y-3844412D01*
X1979468Y-3939650D02*
X1979468Y-4072984D01*
X1931848Y-3863460D02*
X1884229Y-4006317D01*
X1884229Y-4006317D02*
X2008039Y-4006317D01*
X2236611Y-4072984D02*
X2236611Y-3872984D01*
X2322325Y-4072984D02*
X2322325Y-3968222D01*
X2322325Y-3968222D02*
X2312801Y-3949174D01*
X2312801Y-3949174D02*
X2293753Y-3939650D01*
X2293753Y-3939650D02*
X2265182Y-3939650D01*
X2265182Y-3939650D02*
X2246134Y-3949174D01*
X2246134Y-3949174D02*
X2236611Y-3958698D01*
X2446134Y-4072984D02*
X2427087Y-4063460D01*
X2427087Y-4063460D02*
X2417563Y-4053936D01*
X2417563Y-4053936D02*
X2408039Y-4034888D01*
X2408039Y-4034888D02*
X2408039Y-3977746D01*
X2408039Y-3977746D02*
X2417563Y-3958698D01*
X2417563Y-3958698D02*
X2427087Y-3949174D01*
X2427087Y-3949174D02*
X2446134Y-3939650D01*
X2446134Y-3939650D02*
X2474706Y-3939650D01*
X2474706Y-3939650D02*
X2493753Y-3949174D01*
X2493753Y-3949174D02*
X2503277Y-3958698D01*
X2503277Y-3958698D02*
X2512801Y-3977746D01*
X2512801Y-3977746D02*
X2512801Y-4034888D01*
X2512801Y-4034888D02*
X2503277Y-4053936D01*
X2503277Y-4053936D02*
X2493753Y-4063460D01*
X2493753Y-4063460D02*
X2474706Y-4072984D01*
X2474706Y-4072984D02*
X2446134Y-4072984D01*
X2627087Y-4072984D02*
X2608039Y-4063460D01*
X2608039Y-4063460D02*
X2598515Y-4044412D01*
X2598515Y-4044412D02*
X2598515Y-3872984D01*
X2779468Y-4063460D02*
X2760420Y-4072984D01*
X2760420Y-4072984D02*
X2722325Y-4072984D01*
X2722325Y-4072984D02*
X2703277Y-4063460D01*
X2703277Y-4063460D02*
X2693753Y-4044412D01*
X2693753Y-4044412D02*
X2693753Y-3968222D01*
X2693753Y-3968222D02*
X2703277Y-3949174D01*
X2703277Y-3949174D02*
X2722325Y-3939650D01*
X2722325Y-3939650D02*
X2760420Y-3939650D01*
X2760420Y-3939650D02*
X2779468Y-3949174D01*
X2779468Y-3949174D02*
X2788992Y-3968222D01*
X2788992Y-3968222D02*
X2788992Y-3987269D01*
X2788992Y-3987269D02*
X2693753Y-4006317D01*
X2865182Y-4063460D02*
X2884230Y-4072984D01*
X2884230Y-4072984D02*
X2922325Y-4072984D01*
X2922325Y-4072984D02*
X2941372Y-4063460D01*
X2941372Y-4063460D02*
X2950896Y-4044412D01*
X2950896Y-4044412D02*
X2950896Y-4034888D01*
X2950896Y-4034888D02*
X2941372Y-4015841D01*
X2941372Y-4015841D02*
X2922325Y-4006317D01*
X2922325Y-4006317D02*
X2893753Y-4006317D01*
X2893753Y-4006317D02*
X2874706Y-3996793D01*
X2874706Y-3996793D02*
X2865182Y-3977746D01*
X2865182Y-3977746D02*
X2865182Y-3968222D01*
X2865182Y-3968222D02*
X2874706Y-3949174D01*
X2874706Y-3949174D02*
X2893753Y-3939650D01*
X2893753Y-3939650D02*
X2922325Y-3939650D01*
X2922325Y-3939650D02*
X2941372Y-3949174D01*
X3017563Y-4149174D02*
X3027087Y-4139650D01*
X3027087Y-4139650D02*
X3046134Y-4111079D01*
X3046134Y-4111079D02*
X3055658Y-4092031D01*
X3055658Y-4092031D02*
X3065182Y-4063460D01*
X3065182Y-4063460D02*
X3074706Y-4015841D01*
X3074706Y-4015841D02*
X3074706Y-3977746D01*
X3074706Y-3977746D02*
X3065182Y-3930127D01*
X3065182Y-3930127D02*
X3055658Y-3901555D01*
X3055658Y-3901555D02*
X3046134Y-3882508D01*
X3046134Y-3882508D02*
X3027087Y-3853936D01*
X3027087Y-3853936D02*
X3017563Y-3844412D01*
X-1957500Y-4145500D02*
X-1757500Y-4345500D01*
X-1757500Y-4145500D02*
X-1957500Y-4345500D01*
X-1786789Y-4316211D02*
X-1786789Y-4174789D01*
X-1928211Y-4174789D01*
X-1928211Y-4316211D01*
X-1786789Y-4316211D01*
X-1515771Y-4136984D02*
X-1391961Y-4136984D01*
X-1391961Y-4136984D02*
X-1458628Y-4213174D01*
X-1458628Y-4213174D02*
X-1430056Y-4213174D01*
X-1430056Y-4213174D02*
X-1411009Y-4222698D01*
X-1411009Y-4222698D02*
X-1401485Y-4232222D01*
X-1401485Y-4232222D02*
X-1391961Y-4251270D01*
X-1391961Y-4251270D02*
X-1391961Y-4298889D01*
X-1391961Y-4298889D02*
X-1401485Y-4317936D01*
X-1401485Y-4317936D02*
X-1411009Y-4327460D01*
X-1411009Y-4327460D02*
X-1430056Y-4336984D01*
X-1430056Y-4336984D02*
X-1487199Y-4336984D01*
X-1487199Y-4336984D02*
X-1506247Y-4327460D01*
X-1506247Y-4327460D02*
X-1515771Y-4317936D01*
X-1306247Y-4317936D02*
X-1296723Y-4327460D01*
X-1296723Y-4327460D02*
X-1306247Y-4336984D01*
X-1306247Y-4336984D02*
X-1315771Y-4327460D01*
X-1315771Y-4327460D02*
X-1306247Y-4317936D01*
X-1306247Y-4317936D02*
X-1306247Y-4336984D01*
X-1106247Y-4336984D02*
X-1220533Y-4336984D01*
X-1163390Y-4336984D02*
X-1163390Y-4136984D01*
X-1163390Y-4136984D02*
X-1182438Y-4165555D01*
X-1182438Y-4165555D02*
X-1201485Y-4184603D01*
X-1201485Y-4184603D02*
X-1220533Y-4194127D01*
X-982437Y-4136984D02*
X-963390Y-4136984D01*
X-963390Y-4136984D02*
X-944342Y-4146508D01*
X-944342Y-4146508D02*
X-934818Y-4156031D01*
X-934818Y-4156031D02*
X-925295Y-4175079D01*
X-925295Y-4175079D02*
X-915771Y-4213174D01*
X-915771Y-4213174D02*
X-915771Y-4260793D01*
X-915771Y-4260793D02*
X-925295Y-4298889D01*
X-925295Y-4298889D02*
X-934818Y-4317936D01*
X-934818Y-4317936D02*
X-944342Y-4327460D01*
X-944342Y-4327460D02*
X-963390Y-4336984D01*
X-963390Y-4336984D02*
X-982437Y-4336984D01*
X-982437Y-4336984D02*
X-1001485Y-4327460D01*
X-1001485Y-4327460D02*
X-1011009Y-4317936D01*
X-1011009Y-4317936D02*
X-1020533Y-4298889D01*
X-1020533Y-4298889D02*
X-1030056Y-4260793D01*
X-1030056Y-4260793D02*
X-1030056Y-4213174D01*
X-1030056Y-4213174D02*
X-1020533Y-4175079D01*
X-1020533Y-4175079D02*
X-1011009Y-4156031D01*
X-1011009Y-4156031D02*
X-1001485Y-4146508D01*
X-1001485Y-4146508D02*
X-982437Y-4136984D01*
X-791961Y-4136984D02*
X-772914Y-4136984D01*
X-772914Y-4136984D02*
X-753866Y-4146508D01*
X-753866Y-4146508D02*
X-744342Y-4156031D01*
X-744342Y-4156031D02*
X-734818Y-4175079D01*
X-734818Y-4175079D02*
X-725295Y-4213174D01*
X-725295Y-4213174D02*
X-725295Y-4260793D01*
X-725295Y-4260793D02*
X-734818Y-4298889D01*
X-734818Y-4298889D02*
X-744342Y-4317936D01*
X-744342Y-4317936D02*
X-753866Y-4327460D01*
X-753866Y-4327460D02*
X-772914Y-4336984D01*
X-772914Y-4336984D02*
X-791961Y-4336984D01*
X-791961Y-4336984D02*
X-811009Y-4327460D01*
X-811009Y-4327460D02*
X-820533Y-4317936D01*
X-820533Y-4317936D02*
X-830056Y-4298889D01*
X-830056Y-4298889D02*
X-839580Y-4260793D01*
X-839580Y-4260793D02*
X-839580Y-4213174D01*
X-839580Y-4213174D02*
X-830056Y-4175079D01*
X-830056Y-4175079D02*
X-820533Y-4156031D01*
X-820533Y-4156031D02*
X-811009Y-4146508D01*
X-811009Y-4146508D02*
X-791961Y-4136984D01*
X-639580Y-4336984D02*
X-639580Y-4203650D01*
X-639580Y-4222698D02*
X-630057Y-4213174D01*
X-630057Y-4213174D02*
X-611009Y-4203650D01*
X-611009Y-4203650D02*
X-582437Y-4203650D01*
X-582437Y-4203650D02*
X-563390Y-4213174D01*
X-563390Y-4213174D02*
X-553866Y-4232222D01*
X-553866Y-4232222D02*
X-553866Y-4336984D01*
X-553866Y-4232222D02*
X-544342Y-4213174D01*
X-544342Y-4213174D02*
X-525295Y-4203650D01*
X-525295Y-4203650D02*
X-496723Y-4203650D01*
X-496723Y-4203650D02*
X-477675Y-4213174D01*
X-477675Y-4213174D02*
X-468152Y-4232222D01*
X-468152Y-4232222D02*
X-468152Y-4336984D01*
X-372914Y-4336984D02*
X-372914Y-4203650D01*
X-372914Y-4222698D02*
X-363390Y-4213174D01*
X-363390Y-4213174D02*
X-344342Y-4203650D01*
X-344342Y-4203650D02*
X-315771Y-4203650D01*
X-315771Y-4203650D02*
X-296723Y-4213174D01*
X-296723Y-4213174D02*
X-287199Y-4232222D01*
X-287199Y-4232222D02*
X-287199Y-4336984D01*
X-287199Y-4232222D02*
X-277676Y-4213174D01*
X-277676Y-4213174D02*
X-258628Y-4203650D01*
X-258628Y-4203650D02*
X-230056Y-4203650D01*
X-230056Y-4203650D02*
X-211009Y-4213174D01*
X-211009Y-4213174D02*
X-201485Y-4232222D01*
X-201485Y-4232222D02*
X-201485Y-4336984D01*
X188991Y-4127460D02*
X17563Y-4384603D01*
X446134Y-4136984D02*
X465182Y-4136984D01*
X465182Y-4136984D02*
X484229Y-4146508D01*
X484229Y-4146508D02*
X493753Y-4156031D01*
X493753Y-4156031D02*
X503277Y-4175079D01*
X503277Y-4175079D02*
X512801Y-4213174D01*
X512801Y-4213174D02*
X512801Y-4260793D01*
X512801Y-4260793D02*
X503277Y-4298889D01*
X503277Y-4298889D02*
X493753Y-4317936D01*
X493753Y-4317936D02*
X484229Y-4327460D01*
X484229Y-4327460D02*
X465182Y-4336984D01*
X465182Y-4336984D02*
X446134Y-4336984D01*
X446134Y-4336984D02*
X427086Y-4327460D01*
X427086Y-4327460D02*
X417563Y-4317936D01*
X417563Y-4317936D02*
X408039Y-4298889D01*
X408039Y-4298889D02*
X398515Y-4260793D01*
X398515Y-4260793D02*
X398515Y-4213174D01*
X398515Y-4213174D02*
X408039Y-4175079D01*
X408039Y-4175079D02*
X417563Y-4156031D01*
X417563Y-4156031D02*
X427086Y-4146508D01*
X427086Y-4146508D02*
X446134Y-4136984D01*
X598515Y-4317936D02*
X608039Y-4327460D01*
X608039Y-4327460D02*
X598515Y-4336984D01*
X598515Y-4336984D02*
X588991Y-4327460D01*
X588991Y-4327460D02*
X598515Y-4317936D01*
X598515Y-4317936D02*
X598515Y-4336984D01*
X798515Y-4336984D02*
X684229Y-4336984D01*
X741372Y-4336984D02*
X741372Y-4136984D01*
X741372Y-4136984D02*
X722325Y-4165555D01*
X722325Y-4165555D02*
X703277Y-4184603D01*
X703277Y-4184603D02*
X684229Y-4194127D01*
X874706Y-4156031D02*
X884229Y-4146508D01*
X884229Y-4146508D02*
X903277Y-4136984D01*
X903277Y-4136984D02*
X950896Y-4136984D01*
X950896Y-4136984D02*
X969944Y-4146508D01*
X969944Y-4146508D02*
X979467Y-4156031D01*
X979467Y-4156031D02*
X988991Y-4175079D01*
X988991Y-4175079D02*
X988991Y-4194127D01*
X988991Y-4194127D02*
X979467Y-4222698D01*
X979467Y-4222698D02*
X865182Y-4336984D01*
X865182Y-4336984D02*
X988991Y-4336984D01*
X1065182Y-4156031D02*
X1074706Y-4146508D01*
X1074706Y-4146508D02*
X1093753Y-4136984D01*
X1093753Y-4136984D02*
X1141372Y-4136984D01*
X1141372Y-4136984D02*
X1160420Y-4146508D01*
X1160420Y-4146508D02*
X1169944Y-4156031D01*
X1169944Y-4156031D02*
X1179468Y-4175079D01*
X1179468Y-4175079D02*
X1179468Y-4194127D01*
X1179468Y-4194127D02*
X1169944Y-4222698D01*
X1169944Y-4222698D02*
X1055658Y-4336984D01*
X1055658Y-4336984D02*
X1179468Y-4336984D01*
X1303277Y-4136984D02*
X1322325Y-4136984D01*
X1322325Y-4136984D02*
X1341372Y-4146508D01*
X1341372Y-4146508D02*
X1350896Y-4156031D01*
X1350896Y-4156031D02*
X1360420Y-4175079D01*
X1360420Y-4175079D02*
X1369944Y-4213174D01*
X1369944Y-4213174D02*
X1369944Y-4260793D01*
X1369944Y-4260793D02*
X1360420Y-4298889D01*
X1360420Y-4298889D02*
X1350896Y-4317936D01*
X1350896Y-4317936D02*
X1341372Y-4327460D01*
X1341372Y-4327460D02*
X1322325Y-4336984D01*
X1322325Y-4336984D02*
X1303277Y-4336984D01*
X1303277Y-4336984D02*
X1284229Y-4327460D01*
X1284229Y-4327460D02*
X1274706Y-4317936D01*
X1274706Y-4317936D02*
X1265182Y-4298889D01*
X1265182Y-4298889D02*
X1255658Y-4260793D01*
X1255658Y-4260793D02*
X1255658Y-4213174D01*
X1255658Y-4213174D02*
X1265182Y-4175079D01*
X1265182Y-4175079D02*
X1274706Y-4156031D01*
X1274706Y-4156031D02*
X1284229Y-4146508D01*
X1284229Y-4146508D02*
X1303277Y-4136984D01*
X1446134Y-4136984D02*
X1446134Y-4175079D01*
X1522325Y-4136984D02*
X1522325Y-4175079D01*
X1817563Y-4413174D02*
X1808039Y-4403650D01*
X1808039Y-4403650D02*
X1788991Y-4375079D01*
X1788991Y-4375079D02*
X1779468Y-4356031D01*
X1779468Y-4356031D02*
X1769944Y-4327460D01*
X1769944Y-4327460D02*
X1760420Y-4279841D01*
X1760420Y-4279841D02*
X1760420Y-4241746D01*
X1760420Y-4241746D02*
X1769944Y-4194127D01*
X1769944Y-4194127D02*
X1779468Y-4165555D01*
X1779468Y-4165555D02*
X1788991Y-4146508D01*
X1788991Y-4146508D02*
X1808039Y-4117936D01*
X1808039Y-4117936D02*
X1817563Y-4108412D01*
X1979468Y-4203650D02*
X1979468Y-4336984D01*
X1931848Y-4127460D02*
X1884229Y-4270317D01*
X1884229Y-4270317D02*
X2008039Y-4270317D01*
X2236611Y-4336984D02*
X2236611Y-4136984D01*
X2322325Y-4336984D02*
X2322325Y-4232222D01*
X2322325Y-4232222D02*
X2312801Y-4213174D01*
X2312801Y-4213174D02*
X2293753Y-4203650D01*
X2293753Y-4203650D02*
X2265182Y-4203650D01*
X2265182Y-4203650D02*
X2246134Y-4213174D01*
X2246134Y-4213174D02*
X2236611Y-4222698D01*
X2446134Y-4336984D02*
X2427087Y-4327460D01*
X2427087Y-4327460D02*
X2417563Y-4317936D01*
X2417563Y-4317936D02*
X2408039Y-4298889D01*
X2408039Y-4298889D02*
X2408039Y-4241746D01*
X2408039Y-4241746D02*
X2417563Y-4222698D01*
X2417563Y-4222698D02*
X2427087Y-4213174D01*
X2427087Y-4213174D02*
X2446134Y-4203650D01*
X2446134Y-4203650D02*
X2474706Y-4203650D01*
X2474706Y-4203650D02*
X2493753Y-4213174D01*
X2493753Y-4213174D02*
X2503277Y-4222698D01*
X2503277Y-4222698D02*
X2512801Y-4241746D01*
X2512801Y-4241746D02*
X2512801Y-4298889D01*
X2512801Y-4298889D02*
X2503277Y-4317936D01*
X2503277Y-4317936D02*
X2493753Y-4327460D01*
X2493753Y-4327460D02*
X2474706Y-4336984D01*
X2474706Y-4336984D02*
X2446134Y-4336984D01*
X2627087Y-4336984D02*
X2608039Y-4327460D01*
X2608039Y-4327460D02*
X2598515Y-4308412D01*
X2598515Y-4308412D02*
X2598515Y-4136984D01*
X2779468Y-4327460D02*
X2760420Y-4336984D01*
X2760420Y-4336984D02*
X2722325Y-4336984D01*
X2722325Y-4336984D02*
X2703277Y-4327460D01*
X2703277Y-4327460D02*
X2693753Y-4308412D01*
X2693753Y-4308412D02*
X2693753Y-4232222D01*
X2693753Y-4232222D02*
X2703277Y-4213174D01*
X2703277Y-4213174D02*
X2722325Y-4203650D01*
X2722325Y-4203650D02*
X2760420Y-4203650D01*
X2760420Y-4203650D02*
X2779468Y-4213174D01*
X2779468Y-4213174D02*
X2788992Y-4232222D01*
X2788992Y-4232222D02*
X2788992Y-4251270D01*
X2788992Y-4251270D02*
X2693753Y-4270317D01*
X2865182Y-4327460D02*
X2884230Y-4336984D01*
X2884230Y-4336984D02*
X2922325Y-4336984D01*
X2922325Y-4336984D02*
X2941372Y-4327460D01*
X2941372Y-4327460D02*
X2950896Y-4308412D01*
X2950896Y-4308412D02*
X2950896Y-4298889D01*
X2950896Y-4298889D02*
X2941372Y-4279841D01*
X2941372Y-4279841D02*
X2922325Y-4270317D01*
X2922325Y-4270317D02*
X2893753Y-4270317D01*
X2893753Y-4270317D02*
X2874706Y-4260793D01*
X2874706Y-4260793D02*
X2865182Y-4241746D01*
X2865182Y-4241746D02*
X2865182Y-4232222D01*
X2865182Y-4232222D02*
X2874706Y-4213174D01*
X2874706Y-4213174D02*
X2893753Y-4203650D01*
X2893753Y-4203650D02*
X2922325Y-4203650D01*
X2922325Y-4203650D02*
X2941372Y-4213174D01*
X3017563Y-4413174D02*
X3027087Y-4403650D01*
X3027087Y-4403650D02*
X3046134Y-4375079D01*
X3046134Y-4375079D02*
X3055658Y-4356031D01*
X3055658Y-4356031D02*
X3065182Y-4327460D01*
X3065182Y-4327460D02*
X3074706Y-4279841D01*
X3074706Y-4279841D02*
X3074706Y-4241746D01*
X3074706Y-4241746D02*
X3065182Y-4194127D01*
X3065182Y-4194127D02*
X3055658Y-4165555D01*
X3055658Y-4165555D02*
X3046134Y-4146508D01*
X3046134Y-4146508D02*
X3027087Y-4117936D01*
X3027087Y-4117936D02*
X3017563Y-4108412D01*
M02*
