%TF.GenerationSoftware,KiCad,Pcbnew,7.0.8*%
%TF.CreationDate,2023-11-08T16:14:49-05:00*%
%TF.ProjectId,lemon-pepper,6c656d6f-6e2d-4706-9570-7065722e6b69,rev?*%
%TF.SameCoordinates,PX8b85c60PY52f2218*%
%TF.FileFunction,Legend,Bot*%
%TF.FilePolarity,Positive*%
%FSLAX46Y46*%
G04 Gerber Fmt 4.6, Leading zero omitted, Abs format (unit mm)*
G04 Created by KiCad (PCBNEW 7.0.8) date 2023-11-08 16:14:49*
%MOMM*%
%LPD*%
G01*
G04 APERTURE LIST*
G04 APERTURE END LIST*
%TO.C,G\u002A\u002A\u002A*%
G36*
X-2668430Y-10521716D02*
G01*
X-2691906Y-10528006D01*
X-2698196Y-10504531D01*
X-2674720Y-10498240D01*
X-2668430Y-10521716D01*
G37*
G36*
X2958263Y-157322D02*
G01*
X2934788Y-163612D01*
X2928498Y-140137D01*
X2951973Y-133847D01*
X2958263Y-157322D01*
G37*
G36*
X3027005Y-38258D02*
G01*
X3003530Y-44549D01*
X2997240Y-21073D01*
X3020715Y-14783D01*
X3027005Y-38258D01*
G37*
G36*
X3012457Y-175787D02*
G01*
X3009203Y-206576D01*
X2997957Y-221093D01*
X2977902Y-214963D01*
X2976859Y-208544D01*
X3000816Y-175276D01*
X3012457Y-175787D01*
G37*
G36*
X3208229Y-84510D02*
G01*
X3214193Y-126488D01*
X3209221Y-133103D01*
X3167242Y-139068D01*
X3160627Y-134096D01*
X3154661Y-92117D01*
X3159634Y-85501D01*
X3201613Y-79537D01*
X3208229Y-84510D01*
G37*
G36*
X3116845Y7266D02*
G01*
X3127198Y-36573D01*
X3125192Y-50789D01*
X3096886Y-58761D01*
X3088907Y-52629D01*
X3082549Y-10795D01*
X3086780Y-4255D01*
X3112861Y11393D01*
X3116845Y7266D01*
G37*
G36*
X-5033941Y-5365527D02*
G01*
X-4926198Y-5434011D01*
X-4802333Y-5538483D01*
X-4671391Y-5673219D01*
X-4658700Y-5687457D01*
X-4561904Y-5793438D01*
X-4475379Y-5884148D01*
X-4416533Y-5941277D01*
X-4407108Y-5949784D01*
X-4366898Y-6005368D01*
X-4385307Y-6036541D01*
X-4456335Y-6040513D01*
X-4573983Y-6014493D01*
X-4729587Y-5958128D01*
X-4898041Y-5874949D01*
X-5033791Y-5783390D01*
X-5119363Y-5693732D01*
X-5169695Y-5584007D01*
X-5188665Y-5460272D01*
X-5165475Y-5360392D01*
X-5164900Y-5359423D01*
X-5116523Y-5338756D01*
X-5033941Y-5365527D01*
G37*
G36*
X-6256655Y-5894454D02*
G01*
X-6186075Y-5942330D01*
X-6072891Y-6034104D01*
X-5917000Y-6168519D01*
X-5739546Y-6327391D01*
X-5554433Y-6498067D01*
X-5375568Y-6667893D01*
X-5216855Y-6824215D01*
X-5101540Y-6943995D01*
X-5001629Y-7060686D01*
X-4956789Y-7137509D01*
X-4968024Y-7176461D01*
X-5036336Y-7179540D01*
X-5162728Y-7148749D01*
X-5348202Y-7086087D01*
X-5368096Y-7078724D01*
X-5498097Y-7020132D01*
X-5622556Y-6941317D01*
X-5757346Y-6830900D01*
X-5918343Y-6677506D01*
X-5941054Y-6654628D01*
X-6103038Y-6473342D01*
X-6226306Y-6301419D01*
X-6306686Y-6146689D01*
X-6340004Y-6016982D01*
X-6322085Y-5920127D01*
X-6296860Y-5890612D01*
X-6256655Y-5894454D01*
G37*
G36*
X-7150237Y-6485509D02*
G01*
X-7077296Y-6514021D01*
X-6969107Y-6576203D01*
X-6932220Y-6599465D01*
X-6803679Y-6686598D01*
X-6625348Y-6813562D01*
X-6400090Y-6978250D01*
X-6130772Y-7178553D01*
X-5820259Y-7412365D01*
X-5471418Y-7677580D01*
X-5281413Y-7822432D01*
X-5039491Y-8006027D01*
X-4831034Y-8163000D01*
X-4643680Y-8302645D01*
X-4465071Y-8434255D01*
X-4350914Y-8522680D01*
X-4206525Y-8653384D01*
X-4105743Y-8770966D01*
X-4054047Y-8868645D01*
X-4056916Y-8939634D01*
X-4091812Y-8971591D01*
X-4181813Y-9018715D01*
X-4302723Y-9065332D01*
X-4433636Y-9104530D01*
X-4553641Y-9129397D01*
X-4641830Y-9133019D01*
X-4696954Y-9120582D01*
X-4807025Y-9085764D01*
X-4928198Y-9039538D01*
X-4973867Y-9019685D01*
X-5202800Y-8901471D01*
X-5452125Y-8747539D01*
X-5702111Y-8571585D01*
X-5933034Y-8387310D01*
X-6125162Y-8208410D01*
X-6166274Y-8165943D01*
X-6275669Y-8052960D01*
X-6373794Y-7951638D01*
X-6396845Y-7927311D01*
X-6477215Y-7839402D01*
X-6586167Y-7717634D01*
X-6712351Y-7574743D01*
X-6844418Y-7423468D01*
X-7008751Y-7228302D01*
X-7159332Y-7031876D01*
X-7264070Y-6869426D01*
X-7326562Y-6735268D01*
X-7350402Y-6623718D01*
X-7350092Y-6580131D01*
X-7326445Y-6534343D01*
X-7256240Y-6499487D01*
X-7209069Y-6485018D01*
X-7150237Y-6485509D01*
G37*
G36*
X-8238676Y-2477400D02*
G01*
X-7961128Y-2515002D01*
X-7625157Y-2572846D01*
X-7232506Y-2650742D01*
X-7137562Y-2668259D01*
X-6947391Y-2696159D01*
X-6722397Y-2723017D01*
X-6483125Y-2746460D01*
X-6250120Y-2764118D01*
X-6233653Y-2765153D01*
X-5849751Y-2791650D01*
X-5522685Y-2819468D01*
X-5241001Y-2849834D01*
X-4993245Y-2883979D01*
X-4767963Y-2923130D01*
X-4619809Y-2950951D01*
X-4397803Y-2991133D01*
X-4130673Y-3038312D01*
X-3830524Y-3090357D01*
X-3509457Y-3145129D01*
X-3405650Y-3159916D01*
X-3273588Y-3171767D01*
X-3175811Y-3172682D01*
X-3095073Y-3171658D01*
X-3058601Y-3189182D01*
X-3087638Y-3227250D01*
X-3182190Y-3285986D01*
X-3214345Y-3303587D01*
X-3312665Y-3358965D01*
X-3384019Y-3401306D01*
X-3450562Y-3429815D01*
X-3598915Y-3459909D01*
X-3805911Y-3477964D01*
X-4066257Y-3484014D01*
X-4374660Y-3478089D01*
X-4725830Y-3460219D01*
X-5114474Y-3430435D01*
X-5535299Y-3388768D01*
X-5678318Y-3373504D01*
X-5936264Y-3347669D01*
X-6183873Y-3324837D01*
X-6401842Y-3306750D01*
X-6570867Y-3295155D01*
X-6664763Y-3287610D01*
X-6859855Y-3261275D01*
X-7049341Y-3224048D01*
X-7201656Y-3181613D01*
X-7256984Y-3164281D01*
X-7380870Y-3131696D01*
X-7513096Y-3102368D01*
X-7540429Y-3096528D01*
X-7678035Y-3060180D01*
X-7841885Y-3009223D01*
X-8002198Y-2952767D01*
X-8041040Y-2938410D01*
X-8205497Y-2883132D01*
X-8366294Y-2836358D01*
X-8493498Y-2806970D01*
X-8507550Y-2804479D01*
X-8634434Y-2779896D01*
X-8713262Y-2757414D01*
X-8762421Y-2730078D01*
X-8800296Y-2690936D01*
X-8816021Y-2635186D01*
X-8783663Y-2559325D01*
X-8705417Y-2489197D01*
X-8703370Y-2487964D01*
X-8611540Y-2463691D01*
X-8456061Y-2460232D01*
X-8238676Y-2477400D01*
G37*
G36*
X-1735777Y2175748D02*
G01*
X-1720392Y2145149D01*
X-1702861Y2064002D01*
X-1688459Y1955778D01*
X-1679489Y1843168D01*
X-1678251Y1748859D01*
X-1687050Y1695542D01*
X-1695700Y1675709D01*
X-1694171Y1629168D01*
X-1686786Y1613207D01*
X-1671657Y1535227D01*
X-1661058Y1416936D01*
X-1656415Y1278307D01*
X-1659156Y1139311D01*
X-1659434Y1133884D01*
X-1664210Y1008527D01*
X-1668211Y849377D01*
X-1670597Y689505D01*
X-1670860Y663671D01*
X-1673625Y522262D01*
X-1677986Y402275D01*
X-1683124Y327370D01*
X-1683449Y324360D01*
X-1686797Y253241D01*
X-1688752Y131045D01*
X-1689166Y-25890D01*
X-1687893Y-201225D01*
X-1687254Y-288892D01*
X-1690884Y-480655D01*
X-1704079Y-631640D01*
X-1729180Y-761902D01*
X-1768532Y-891497D01*
X-1810401Y-1036009D01*
X-1845643Y-1208930D01*
X-1861970Y-1358306D01*
X-1868144Y-1464094D01*
X-1881045Y-1580728D01*
X-1896752Y-1656685D01*
X-1921470Y-1737747D01*
X-1963601Y-1932458D01*
X-1986517Y-2125739D01*
X-1987158Y-2143298D01*
X-1964654Y-2272845D01*
X-1888144Y-2410056D01*
X-1854388Y-2460265D01*
X-1785529Y-2579682D01*
X-1738648Y-2683684D01*
X-1730824Y-2705491D01*
X-1697640Y-2783501D01*
X-1672667Y-2821683D01*
X-1671023Y-2822296D01*
X-1623716Y-2816533D01*
X-1531654Y-2793100D01*
X-1413034Y-2756558D01*
X-1370440Y-2743139D01*
X-1209109Y-2698837D01*
X-1022845Y-2654653D01*
X-843931Y-2618423D01*
X-797396Y-2610060D01*
X-638043Y-2582348D01*
X-511708Y-2563197D01*
X-392975Y-2549571D01*
X-256427Y-2538433D01*
X-76647Y-2526747D01*
X43392Y-2513181D01*
X210197Y-2485615D01*
X399460Y-2448235D01*
X588970Y-2405100D01*
X676797Y-2383871D01*
X892114Y-2333330D01*
X1138747Y-2276941D01*
X1392653Y-2220170D01*
X1629790Y-2168484D01*
X1678467Y-2157945D01*
X1919856Y-2101818D01*
X2104607Y-2051622D01*
X2228897Y-2008489D01*
X2288903Y-1973548D01*
X2361454Y-1891674D01*
X2481094Y-1762357D01*
X2580395Y-1662301D01*
X2642328Y-1608210D01*
X3271544Y-1608210D01*
X3277834Y-1631685D01*
X3301310Y-1625395D01*
X3295020Y-1601919D01*
X3271544Y-1608210D01*
X2642328Y-1608210D01*
X2647754Y-1603471D01*
X2654948Y-1599122D01*
X2728476Y-1576403D01*
X2844953Y-1557492D01*
X2982633Y-1546112D01*
X2987131Y-1545910D01*
X3129737Y-1542554D01*
X3224200Y-1550367D01*
X3290211Y-1573023D01*
X3347463Y-1614197D01*
X3350489Y-1616817D01*
X3433913Y-1683390D01*
X3506107Y-1732560D01*
X3532472Y-1758857D01*
X3548254Y-1774598D01*
X3528918Y-1830533D01*
X3508594Y-1881644D01*
X3546484Y-1918883D01*
X3582152Y-1947108D01*
X3616499Y-2018838D01*
X3620020Y-2068965D01*
X3606593Y-2118682D01*
X3568813Y-2107263D01*
X3541871Y-2102593D01*
X3505043Y-2147430D01*
X3475815Y-2187330D01*
X3406283Y-2201601D01*
X3396067Y-2200163D01*
X3315671Y-2211768D01*
X3221763Y-2249431D01*
X3211671Y-2254633D01*
X3092587Y-2299834D01*
X2932488Y-2342632D01*
X2756133Y-2377976D01*
X2588279Y-2400817D01*
X2453688Y-2406104D01*
X2377152Y-2405489D01*
X2165988Y-2422906D01*
X1916187Y-2463290D01*
X1644337Y-2522772D01*
X1367025Y-2597487D01*
X1100839Y-2683566D01*
X862364Y-2777142D01*
X673195Y-2849549D01*
X379378Y-2934115D01*
X62050Y-2999232D01*
X-253251Y-3038907D01*
X-286832Y-3041686D01*
X-467987Y-3057639D01*
X-650313Y-3074992D01*
X-798954Y-3090453D01*
X-919482Y-3103071D01*
X-1055266Y-3115513D01*
X-1154914Y-3122692D01*
X-1176939Y-3124151D01*
X-1237267Y-3134147D01*
X-1245361Y-3147615D01*
X-1226353Y-3173111D01*
X-1191486Y-3249732D01*
X-1154226Y-3355749D01*
X-1123536Y-3462790D01*
X-1120227Y-3497825D01*
X-1116744Y-3534706D01*
X-1138381Y-3593673D01*
X-1191638Y-3666162D01*
X-1227184Y-3711693D01*
X-1262092Y-3769656D01*
X-1257068Y-3810128D01*
X-1214931Y-3856085D01*
X-1191350Y-3878316D01*
X-1027995Y-4031462D01*
X-898638Y-4150566D01*
X-789604Y-4247856D01*
X-687214Y-4335567D01*
X-577793Y-4425931D01*
X-575596Y-4427720D01*
X-425249Y-4542118D01*
X-251916Y-4662524D01*
X-92676Y-4763162D01*
X102673Y-4890610D01*
X345405Y-5072939D01*
X624392Y-5302886D01*
X935975Y-5577556D01*
X953362Y-5593014D01*
X1064427Y-5684905D01*
X1211725Y-5799305D01*
X1378120Y-5923140D01*
X1546474Y-6043333D01*
X1708351Y-6158906D01*
X1853273Y-6269680D01*
X1948661Y-6352483D01*
X1989859Y-6403534D01*
X2008877Y-6434174D01*
X2082761Y-6500285D01*
X2186322Y-6565328D01*
X2295953Y-6615471D01*
X2388050Y-6636881D01*
X2388657Y-6636902D01*
X2470217Y-6658956D01*
X2586086Y-6713236D01*
X2717334Y-6788850D01*
X2845032Y-6874897D01*
X2950247Y-6960483D01*
X3018989Y-7033136D01*
X3111702Y-7145517D01*
X3200666Y-7265716D01*
X3264295Y-7365298D01*
X3310481Y-7469248D01*
X3304943Y-7529065D01*
X3247599Y-7544269D01*
X3216946Y-7546810D01*
X3227550Y-7578996D01*
X3229115Y-7581327D01*
X3238701Y-7636236D01*
X3211690Y-7677950D01*
X3165389Y-7678709D01*
X3141494Y-7674286D01*
X3111742Y-7707397D01*
X3076172Y-7795873D01*
X3060436Y-7841054D01*
X3021970Y-7938330D01*
X2984918Y-7990156D01*
X2934387Y-8011468D01*
X2855490Y-8017199D01*
X2776977Y-8011367D01*
X2679516Y-7975109D01*
X2578992Y-7899616D01*
X2466105Y-7777505D01*
X2331559Y-7601400D01*
X2316001Y-7579785D01*
X2174487Y-7373197D01*
X2079623Y-7212688D01*
X2029995Y-7095574D01*
X2024184Y-7019172D01*
X2024301Y-7018738D01*
X2011457Y-6937696D01*
X1938575Y-6830683D01*
X1808037Y-6700482D01*
X1622225Y-6549873D01*
X1613298Y-6543133D01*
X1462133Y-6422809D01*
X1300086Y-6284875D01*
X1160746Y-6157860D01*
X785331Y-5823226D01*
X336355Y-5472010D01*
X-166150Y-5122145D01*
X-288209Y-5041226D01*
X-441575Y-4938156D01*
X-569489Y-4850583D01*
X-661245Y-4785856D01*
X-706132Y-4751332D01*
X-721173Y-4737566D01*
X-787434Y-4679453D01*
X-884661Y-4595896D01*
X-997614Y-4500036D01*
X-1025951Y-4475848D01*
X-1159300Y-4355974D01*
X-1287513Y-4232461D01*
X-1386279Y-4128548D01*
X-1434127Y-4075214D01*
X-1505405Y-4005029D01*
X-1556915Y-3973904D01*
X-1603111Y-3971364D01*
X-1644308Y-3984773D01*
X-1696797Y-4026889D01*
X-1741457Y-4071027D01*
X-1835400Y-4121254D01*
X-1943862Y-4155189D01*
X-2036870Y-4161013D01*
X-2096574Y-4157783D01*
X-2134972Y-4171072D01*
X-2131319Y-4203358D01*
X-2106487Y-4283061D01*
X-2065440Y-4388951D01*
X-2035001Y-4478669D01*
X-1995354Y-4666696D01*
X-1969790Y-4888323D01*
X-1960435Y-5122302D01*
X-1969419Y-5347384D01*
X-1969596Y-5349441D01*
X-1972218Y-5472573D01*
X-1965034Y-5629361D01*
X-1949553Y-5786396D01*
X-1946134Y-5813765D01*
X-1934492Y-5943343D01*
X-1932484Y-6045141D01*
X-1940678Y-6099102D01*
X-1948764Y-6122739D01*
X-1931310Y-6164895D01*
X-1912094Y-6194619D01*
X-1880240Y-6282356D01*
X-1842823Y-6413963D01*
X-1803260Y-6576195D01*
X-1764971Y-6755806D01*
X-1731374Y-6939552D01*
X-1715574Y-7031960D01*
X-1686400Y-7193772D01*
X-1659630Y-7333306D01*
X-1626512Y-7545232D01*
X-1607818Y-7769546D01*
X-1603403Y-7990074D01*
X-1613069Y-8190908D01*
X-1636617Y-8356146D01*
X-1673847Y-8469882D01*
X-1698004Y-8530809D01*
X-1731451Y-8637960D01*
X-1765457Y-8764844D01*
X-1765546Y-8765203D01*
X-1797542Y-8883738D01*
X-1827065Y-8974478D01*
X-1847734Y-9017805D01*
X-1851445Y-9023549D01*
X-1852257Y-9079130D01*
X-1830829Y-9164214D01*
X-1811869Y-9266131D01*
X-1832274Y-9388782D01*
X-1835674Y-9396455D01*
X-1872188Y-9458855D01*
X-1900501Y-9476782D01*
X-1911057Y-9446829D01*
X-1925675Y-9360681D01*
X-1941138Y-9232925D01*
X-1955466Y-9077934D01*
X-1977409Y-8893075D01*
X-2021802Y-8638670D01*
X-2083781Y-8351831D01*
X-2159974Y-8049517D01*
X-2205509Y-7873634D01*
X-2264110Y-7626890D01*
X-2316530Y-7384108D01*
X-2358365Y-7165950D01*
X-2385207Y-6993079D01*
X-2403383Y-6848528D01*
X-2428594Y-6651053D01*
X-2452171Y-6469400D01*
X-2470736Y-6329772D01*
X-2489423Y-6191411D01*
X-2511175Y-6028732D01*
X-2528680Y-5896168D01*
X-2535589Y-5810364D01*
X-2537432Y-5643560D01*
X-2530774Y-5440190D01*
X-2516949Y-5215297D01*
X-2497286Y-4983923D01*
X-2473118Y-4761113D01*
X-2445778Y-4561910D01*
X-2416595Y-4401357D01*
X-2386901Y-4294496D01*
X-2336007Y-4165128D01*
X-2526875Y-4050063D01*
X-2585968Y-4012819D01*
X-2693879Y-3928283D01*
X-2743301Y-3855656D01*
X-2766705Y-3802101D01*
X-2803723Y-3756185D01*
X-2814336Y-3747787D01*
X-2821401Y-3706291D01*
X-2822576Y-3682545D01*
X-2863748Y-3642153D01*
X-2895123Y-3616589D01*
X-2906075Y-3577984D01*
X-2903292Y-3553043D01*
X-2913672Y-3475400D01*
X-2926082Y-3423187D01*
X-1295332Y-3423187D01*
X-1289068Y-3433013D01*
X-1264031Y-3414800D01*
X-1257082Y-3397802D01*
X-1272418Y-3383499D01*
X-1278499Y-3385806D01*
X-1295332Y-3423187D01*
X-2926082Y-3423187D01*
X-2938554Y-3370715D01*
X-2975059Y-3221556D01*
X-2994433Y-3080757D01*
X-2985646Y-2991677D01*
X-2948564Y-2959752D01*
X-2940448Y-2959245D01*
X-2909624Y-2939668D01*
X-2932134Y-2898065D01*
X-3000867Y-2842395D01*
X-3108705Y-2780613D01*
X-3145741Y-2759652D01*
X-3263770Y-2672543D01*
X-3396975Y-2553402D01*
X-3527724Y-2419815D01*
X-3638380Y-2289371D01*
X-3711307Y-2179657D01*
X-3739547Y-2143902D01*
X-3816737Y-2070913D01*
X-3926620Y-1979733D01*
X-4055508Y-1882190D01*
X-4151612Y-1810646D01*
X-4353460Y-1647565D01*
X-4538427Y-1481628D01*
X-4692571Y-1325712D01*
X-4801955Y-1192692D01*
X-4817868Y-1171281D01*
X-4895669Y-1080984D01*
X-4984808Y-991715D01*
X-4989158Y-987710D01*
X-5097984Y-878427D01*
X-5236431Y-726020D01*
X-5394082Y-542299D01*
X-5560517Y-339077D01*
X-5699457Y-170983D01*
X-5963870Y124898D01*
X-6236278Y402640D01*
X-6496426Y641032D01*
X-6590700Y723516D01*
X-6770952Y897436D01*
X-6908642Y1060751D01*
X-7016098Y1229197D01*
X-7105650Y1418505D01*
X-7137727Y1503578D01*
X-7161071Y1609181D01*
X-7145619Y1670580D01*
X-7078385Y1723275D01*
X-6964978Y1749281D01*
X-6849585Y1720927D01*
X-6837623Y1714361D01*
X-6736117Y1647435D01*
X-6630952Y1562745D01*
X-6537250Y1474400D01*
X-6470134Y1396509D01*
X-6444725Y1343184D01*
X-6429886Y1297318D01*
X-6374348Y1242224D01*
X-6329671Y1207700D01*
X-6301958Y1160743D01*
X-6300674Y1154355D01*
X-6263440Y1108474D01*
X-6191099Y1056547D01*
X-6136338Y1015078D01*
X-6044865Y919596D01*
X-5957441Y802581D01*
X-5891464Y709308D01*
X-5817725Y620940D01*
X-5762025Y571196D01*
X-5745018Y559571D01*
X-5676345Y492433D01*
X-5608296Y403065D01*
X-5587265Y371929D01*
X-5526441Y293660D01*
X-5480140Y249698D01*
X-5460942Y229876D01*
X-5462188Y174942D01*
X-5472416Y142129D01*
X-5435304Y135580D01*
X-5433889Y135799D01*
X-5357288Y118825D01*
X-5259748Y46081D01*
X-5136999Y-85599D01*
X-5097467Y-127975D01*
X-4986297Y-225410D01*
X-4868488Y-307938D01*
X-4806446Y-347944D01*
X-4689072Y-432747D01*
X-4560247Y-533432D01*
X-4436914Y-636177D01*
X-4336017Y-727156D01*
X-4274499Y-792548D01*
X-4258259Y-812210D01*
X-4199180Y-868316D01*
X-4178825Y-887314D01*
X-4117638Y-953140D01*
X-4031422Y-1050691D01*
X-3931521Y-1166625D01*
X-3829280Y-1287596D01*
X-3736042Y-1400261D01*
X-3663151Y-1491275D01*
X-3621954Y-1547295D01*
X-3621161Y-1548496D01*
X-3576583Y-1593832D01*
X-3488680Y-1668196D01*
X-3369815Y-1761547D01*
X-3232347Y-1863841D01*
X-3096751Y-1963949D01*
X-2975424Y-2060654D01*
X-2885116Y-2145146D01*
X-2811339Y-2231211D01*
X-2739606Y-2332632D01*
X-2596591Y-2547876D01*
X-2525227Y-2460430D01*
X-2520688Y-2455075D01*
X-2434463Y-2384912D01*
X-2329848Y-2334685D01*
X-2310007Y-2328299D01*
X-2230877Y-2296967D01*
X-2191430Y-2271440D01*
X-2178682Y-2234031D01*
X-2153040Y-2141319D01*
X-2118684Y-2008565D01*
X-2079073Y-1849996D01*
X-2037663Y-1679835D01*
X-1997912Y-1512307D01*
X-1963276Y-1361637D01*
X-1937214Y-1242048D01*
X-1923182Y-1167766D01*
X-1916918Y-1126196D01*
X-1896519Y-998146D01*
X-1874350Y-865994D01*
X-1869732Y-828094D01*
X-1867573Y-695109D01*
X-1878279Y-532402D01*
X-1900446Y-366901D01*
X-1909586Y-311567D01*
X-1933903Y-134684D01*
X-1951124Y35508D01*
X-1957988Y168665D01*
X-1958459Y280068D01*
X-1957777Y603821D01*
X-1954059Y894853D01*
X-1947533Y1145964D01*
X-1938424Y1349958D01*
X-1926960Y1499633D01*
X-1913366Y1587792D01*
X-1897024Y1652797D01*
X-1865932Y1786794D01*
X-1836219Y1924905D01*
X-1807970Y2053885D01*
X-1783123Y2138976D01*
X-1760454Y2176112D01*
X-1735777Y2175748D01*
G37*
G36*
X591443Y8395577D02*
G01*
X675045Y8366780D01*
X779218Y8337095D01*
X924243Y8287061D01*
X1109972Y8168751D01*
X1263936Y7992589D01*
X1311731Y7918551D01*
X1353254Y7843244D01*
X1364349Y7805618D01*
X1363506Y7798368D01*
X1383690Y7746931D01*
X1430256Y7670566D01*
X1448997Y7644806D01*
X1516534Y7583012D01*
X1576632Y7587652D01*
X1635900Y7658335D01*
X1654747Y7682339D01*
X1704722Y7709584D01*
X1714819Y7711454D01*
X1776345Y7740206D01*
X1857561Y7792359D01*
X1864068Y7796874D01*
X1970704Y7850755D01*
X2122411Y7905096D01*
X2297757Y7953871D01*
X2475315Y7991053D01*
X2633655Y8010616D01*
X2675687Y8010198D01*
X2796736Y7995924D01*
X2948552Y7967142D01*
X3107984Y7927888D01*
X3188381Y7906120D01*
X3343985Y7866747D01*
X3478368Y7836100D01*
X3569149Y7819444D01*
X3574551Y7818779D01*
X3699046Y7812607D01*
X3856759Y7816310D01*
X4022216Y7828104D01*
X4169939Y7846205D01*
X4274451Y7868832D01*
X4345851Y7884940D01*
X4397203Y7882162D01*
X4416096Y7879112D01*
X4488703Y7887459D01*
X4588803Y7911039D01*
X4654662Y7925763D01*
X4803834Y7943500D01*
X4949965Y7945344D01*
X4967997Y7944477D01*
X5089086Y7942997D01*
X5255126Y7945505D01*
X5446613Y7951570D01*
X5644036Y7960756D01*
X5713752Y7964348D01*
X5885352Y7971209D01*
X6028153Y7974120D01*
X6128886Y7972914D01*
X6174289Y7967424D01*
X6203593Y7956537D01*
X6278319Y7946646D01*
X6301499Y7945816D01*
X6400897Y7935989D01*
X6531200Y7917788D01*
X6672586Y7894607D01*
X6805232Y7869838D01*
X6909319Y7846874D01*
X6965023Y7829107D01*
X6965602Y7828787D01*
X7018973Y7808135D01*
X7123412Y7774081D01*
X7264083Y7731282D01*
X7426147Y7684391D01*
X7448538Y7678047D01*
X7946204Y7523415D01*
X8378946Y7360650D01*
X8750128Y7188193D01*
X9063115Y7004491D01*
X9321274Y6807984D01*
X9391914Y6745294D01*
X9541945Y6607981D01*
X9686036Y6471158D01*
X9812742Y6346020D01*
X9910609Y6243758D01*
X9968191Y6175566D01*
X10002038Y6133749D01*
X10074479Y6053259D01*
X10162197Y5961663D01*
X10229981Y5890984D01*
X10317992Y5793590D01*
X10379311Y5719042D01*
X10397135Y5696158D01*
X10466022Y5614391D01*
X10560757Y5507074D01*
X10666355Y5391318D01*
X10716392Y5336416D01*
X10808458Y5229823D01*
X10876886Y5143049D01*
X10909655Y5090940D01*
X10946011Y5028307D01*
X11009504Y4954545D01*
X11035026Y4927903D01*
X11108125Y4838384D01*
X11180774Y4735633D01*
X11237246Y4655091D01*
X11332660Y4531658D01*
X11431659Y4414022D01*
X11510559Y4322876D01*
X11605276Y4208234D01*
X11676495Y4116303D01*
X11693616Y4092760D01*
X11764045Y3995991D01*
X11820378Y3918697D01*
X11861808Y3857739D01*
X11903106Y3787019D01*
X11922060Y3754066D01*
X11973347Y3682889D01*
X12028508Y3619093D01*
X12066883Y3587810D01*
X12085118Y3566586D01*
X12120433Y3482376D01*
X12168512Y3332664D01*
X12171339Y3323353D01*
X12231704Y3160994D01*
X12312194Y2989106D01*
X12399938Y2832935D01*
X12482063Y2717728D01*
X12508568Y2686859D01*
X12580034Y2600233D01*
X12629308Y2535773D01*
X12634842Y2527934D01*
X12682955Y2462598D01*
X12756738Y2364678D01*
X12842627Y2252209D01*
X12972785Y2072746D01*
X13073390Y1904738D01*
X13121817Y1776812D01*
X13118833Y1687397D01*
X13113800Y1672016D01*
X13116399Y1616304D01*
X13155094Y1544096D01*
X13237097Y1440331D01*
X13302710Y1356401D01*
X13389479Y1225863D01*
X13465864Y1090829D01*
X13524284Y966271D01*
X13557164Y867164D01*
X13556921Y808480D01*
X13543405Y808283D01*
X13484566Y839416D01*
X13388671Y903820D01*
X13265271Y994396D01*
X13123919Y1104043D01*
X12974162Y1225662D01*
X12825555Y1352152D01*
X12749349Y1417559D01*
X12578207Y1552166D01*
X12405687Y1666083D01*
X12200056Y1781070D01*
X12090465Y1837831D01*
X11966071Y1896874D01*
X11850017Y1942172D01*
X11723273Y1980020D01*
X11566809Y2016719D01*
X11361595Y2058567D01*
X11308357Y2069147D01*
X11113272Y2109213D01*
X10930312Y2148611D01*
X10777949Y2183292D01*
X10674651Y2209206D01*
X10643961Y2217227D01*
X10491782Y2249223D01*
X10299925Y2281339D01*
X10091279Y2310313D01*
X9888730Y2332891D01*
X9715168Y2345811D01*
X9704541Y2346609D01*
X9609496Y2363847D01*
X9468460Y2399042D01*
X9297221Y2447273D01*
X9111572Y2503623D01*
X8927301Y2563168D01*
X8760196Y2620990D01*
X8626049Y2672169D01*
X8540650Y2711785D01*
X8529653Y2718852D01*
X8461165Y2773210D01*
X8359392Y2863019D01*
X8236186Y2977591D01*
X8103399Y3106232D01*
X7940265Y3262898D01*
X7760209Y3420464D01*
X7572405Y3564952D01*
X7349954Y3718207D01*
X7337816Y3726266D01*
X7162505Y3844579D01*
X6984262Y3967930D01*
X6823297Y4082178D01*
X6699813Y4173184D01*
X6604142Y4249690D01*
X6466229Y4367283D01*
X6310528Y4505655D01*
X6147007Y4655414D01*
X5985635Y4807167D01*
X5836377Y4951520D01*
X5709207Y5079081D01*
X5614088Y5180457D01*
X5560993Y5246255D01*
X5539498Y5277044D01*
X5442089Y5390133D01*
X5310038Y5520209D01*
X5160616Y5651795D01*
X5011101Y5769414D01*
X4878761Y5857587D01*
X4864228Y5866027D01*
X4668842Y5987124D01*
X4535043Y6086614D01*
X4463770Y6163693D01*
X4455966Y6217560D01*
X4473656Y6236678D01*
X4521319Y6236443D01*
X4605533Y6194151D01*
X4674733Y6157551D01*
X4737678Y6146409D01*
X4791835Y6174829D01*
X4819375Y6194187D01*
X4856578Y6202873D01*
X4909049Y6189124D01*
X4991315Y6148577D01*
X5117903Y6076866D01*
X5163379Y6050156D01*
X5288505Y5969441D01*
X5400571Y5881844D01*
X5518245Y5771766D01*
X5660189Y5623606D01*
X5751783Y5528883D01*
X5909153Y5377964D01*
X6068511Y5236656D01*
X6206483Y5126244D01*
X6274023Y5075840D01*
X6436385Y4950959D01*
X6609777Y4813781D01*
X6766600Y4686001D01*
X6815143Y4646539D01*
X7014233Y4497006D01*
X7241382Y4341369D01*
X7470240Y4197905D01*
X7478919Y4192735D01*
X7714979Y4043207D01*
X7958133Y3874137D01*
X8191361Y3698337D01*
X8397639Y3528617D01*
X8559944Y3377790D01*
X8678141Y3279573D01*
X8839935Y3181312D01*
X9015897Y3100976D01*
X9184572Y3048244D01*
X9324506Y3032798D01*
X9358100Y3033634D01*
X9402263Y3029993D01*
X9408499Y3028731D01*
X9466744Y3022097D01*
X9570758Y3012521D01*
X9703386Y3001621D01*
X9918703Y2982717D01*
X10208708Y2950097D01*
X10466530Y2912543D01*
X10683031Y2871627D01*
X10849075Y2828925D01*
X10955528Y2786009D01*
X10964780Y2781292D01*
X11040803Y2753755D01*
X11158104Y2720064D01*
X11295410Y2686451D01*
X11321869Y2680414D01*
X11463398Y2645226D01*
X11585542Y2610488D01*
X11664334Y2582926D01*
X11680255Y2583465D01*
X11649669Y2619949D01*
X11575251Y2688271D01*
X11462394Y2783089D01*
X11406294Y2828867D01*
X11231468Y2971841D01*
X11099125Y3080970D01*
X11000688Y3163680D01*
X10927581Y3227400D01*
X10871231Y3279555D01*
X10823059Y3327576D01*
X10774492Y3378887D01*
X10692071Y3466232D01*
X10580950Y3582255D01*
X10470347Y3696331D01*
X10457972Y3709042D01*
X10368589Y3803741D01*
X10299837Y3881386D01*
X10265732Y3926231D01*
X10255528Y3944657D01*
X10229629Y3981842D01*
X10213148Y3999841D01*
X10170768Y4051746D01*
X10165252Y4058758D01*
X10115717Y4121332D01*
X10040110Y4216502D01*
X9952438Y4326631D01*
X9918845Y4368807D01*
X9812078Y4503397D01*
X9737824Y4598429D01*
X9687644Y4665041D01*
X9653096Y4714362D01*
X9625739Y4757525D01*
X9545344Y4886702D01*
X9456063Y5023452D01*
X9375489Y5140533D01*
X9312614Y5224918D01*
X9276431Y5263578D01*
X9245601Y5292640D01*
X9185545Y5364641D01*
X9114120Y5460284D01*
X9079660Y5508120D01*
X8981756Y5637851D01*
X8892573Y5747834D01*
X8822301Y5825851D01*
X8781127Y5859680D01*
X8747781Y5881675D01*
X8686007Y5939809D01*
X8625347Y6008092D01*
X8589759Y6061289D01*
X8575651Y6085453D01*
X8510998Y6159534D01*
X8411365Y6253848D01*
X8291469Y6355615D01*
X8166023Y6452054D01*
X8049738Y6530382D01*
X7953694Y6586814D01*
X7780042Y6683872D01*
X7570851Y6796992D01*
X7341344Y6918238D01*
X7106738Y7039672D01*
X6882255Y7153357D01*
X6683114Y7251357D01*
X6524537Y7325733D01*
X6509251Y7332557D01*
X6215269Y7444625D01*
X5930400Y7518696D01*
X5674474Y7549548D01*
X5662756Y7549923D01*
X5362242Y7559120D01*
X5120845Y7565126D01*
X4929315Y7567443D01*
X4778402Y7565574D01*
X4658857Y7559019D01*
X4561431Y7547278D01*
X4476874Y7529855D01*
X4395937Y7506250D01*
X4309372Y7475964D01*
X4156993Y7424197D01*
X3964256Y7365707D01*
X3761397Y7309647D01*
X3567213Y7260956D01*
X3400499Y7224575D01*
X3280051Y7205442D01*
X3174925Y7195212D01*
X3306512Y7140455D01*
X3310898Y7138617D01*
X3415526Y7090610D01*
X3557952Y7019915D01*
X3725786Y6933249D01*
X3906639Y6837330D01*
X4088116Y6738877D01*
X4257829Y6644606D01*
X4403388Y6561238D01*
X4512402Y6495488D01*
X4572479Y6454075D01*
X4603286Y6425693D01*
X4646309Y6367223D01*
X4634521Y6337479D01*
X4568182Y6343182D01*
X4515832Y6342705D01*
X4455694Y6285830D01*
X4436475Y6257932D01*
X4380444Y6220701D01*
X4300215Y6222494D01*
X4186066Y6264748D01*
X4028272Y6348894D01*
X4016318Y6355647D01*
X3916919Y6406784D01*
X3773421Y6475408D01*
X3597650Y6556357D01*
X3401435Y6644470D01*
X3196601Y6734585D01*
X2994976Y6821543D01*
X2808386Y6900181D01*
X2648657Y6965338D01*
X2527617Y7011854D01*
X2457090Y7034566D01*
X2412955Y7030052D01*
X2365760Y6986237D01*
X2304666Y6890855D01*
X2275606Y6836759D01*
X2222725Y6717557D01*
X2191993Y6618710D01*
X2180716Y6574737D01*
X2153168Y6518146D01*
X2102425Y6453167D01*
X2018729Y6367793D01*
X1892322Y6250016D01*
X1843950Y6206366D01*
X1710726Y6094165D01*
X1636094Y6043282D01*
X1619536Y6031992D01*
X1571804Y6020867D01*
X1569414Y6022228D01*
X1539362Y6027278D01*
X1540360Y5979489D01*
X1542501Y5967912D01*
X1567013Y5910344D01*
X1616180Y5903250D01*
X1703933Y5943570D01*
X1743617Y5962053D01*
X1859315Y5997595D01*
X1986041Y6019698D01*
X2085368Y6031515D01*
X2243036Y6054403D01*
X2396450Y6080361D01*
X2584197Y6100614D01*
X2894387Y6081180D01*
X3234107Y6001725D01*
X3601734Y5862673D01*
X3995645Y5664445D01*
X4002688Y5660500D01*
X4187845Y5555069D01*
X4328742Y5468919D01*
X4441441Y5389761D01*
X4542007Y5305308D01*
X4646502Y5203273D01*
X4770990Y5071369D01*
X4886690Y4956399D01*
X5073877Y4801882D01*
X5310004Y4637798D01*
X5414541Y4569174D01*
X5604219Y4442683D01*
X5793156Y4314671D01*
X5952768Y4204412D01*
X6018453Y4158535D01*
X6182739Y4044953D01*
X6345282Y3933906D01*
X6478914Y3844006D01*
X6559882Y3787885D01*
X6660737Y3711540D01*
X6776272Y3616970D01*
X6913367Y3498192D01*
X7078904Y3349229D01*
X7279764Y3164100D01*
X7522827Y2936825D01*
X7596195Y2869608D01*
X7741128Y2742169D01*
X7902230Y2605260D01*
X8056246Y2478849D01*
X8174717Y2382385D01*
X8281235Y2292752D01*
X8356626Y2225994D01*
X8389462Y2191954D01*
X8402759Y2175151D01*
X8459999Y2121139D01*
X8542073Y2053821D01*
X8572045Y2030009D01*
X8687038Y1930908D01*
X8789071Y1833362D01*
X8843061Y1777746D01*
X8947985Y1670264D01*
X9052081Y1564189D01*
X9117058Y1495331D01*
X9214741Y1382866D01*
X9288968Y1287076D01*
X9352269Y1203251D01*
X9445908Y1089165D01*
X9545480Y975209D01*
X9556054Y963502D01*
X9637267Y870345D01*
X9695659Y797739D01*
X9719203Y760547D01*
X9722649Y751781D01*
X9759536Y699636D01*
X9823449Y623349D01*
X9897999Y541198D01*
X9966797Y471455D01*
X10013459Y432397D01*
X10026134Y420364D01*
X10072187Y358115D01*
X10136975Y257702D01*
X10210715Y133927D01*
X10226191Y107101D01*
X10323075Y-57062D01*
X10426148Y-226753D01*
X10515553Y-369202D01*
X10577460Y-468235D01*
X10750859Y-792597D01*
X10876992Y-1118002D01*
X10897097Y-1179880D01*
X10949520Y-1334812D01*
X11000858Y-1479914D01*
X11008545Y-1501383D01*
X11060443Y-1661237D01*
X11120781Y-1866763D01*
X11184627Y-2099533D01*
X11247050Y-2341120D01*
X11303122Y-2573098D01*
X11347913Y-2777039D01*
X11359209Y-2832138D01*
X11389690Y-2978502D01*
X11416011Y-3101808D01*
X11433462Y-3179892D01*
X11487577Y-3468319D01*
X11517850Y-3779929D01*
X11517368Y-4065551D01*
X11514582Y-4114654D01*
X11511435Y-4239736D01*
X11515019Y-4330176D01*
X11524911Y-4369052D01*
X11534126Y-4385823D01*
X11520098Y-4437939D01*
X11514305Y-4451300D01*
X11502027Y-4530956D01*
X11505062Y-4633857D01*
X11508091Y-4684240D01*
X11502574Y-4820331D01*
X11483088Y-4956307D01*
X11471463Y-5015946D01*
X11449468Y-5155543D01*
X11437129Y-5272874D01*
X11433244Y-5313222D01*
X11409517Y-5443838D01*
X11373943Y-5573741D01*
X11340156Y-5676260D01*
X11274643Y-5886838D01*
X11222605Y-6070909D01*
X11187506Y-6215818D01*
X11172805Y-6308912D01*
X11172096Y-6320793D01*
X11142643Y-6524601D01*
X11082214Y-6764987D01*
X10997208Y-7022424D01*
X10894024Y-7277386D01*
X10779061Y-7510350D01*
X10676234Y-7696738D01*
X10555946Y-7913504D01*
X10460881Y-8082192D01*
X10386543Y-8209994D01*
X10328441Y-8304099D01*
X10282081Y-8371701D01*
X10242968Y-8419990D01*
X10206609Y-8456158D01*
X10168509Y-8487394D01*
X10152578Y-8499816D01*
X10103551Y-8541144D01*
X10054976Y-8589375D01*
X10000337Y-8652833D01*
X9933117Y-8739845D01*
X9846801Y-8858733D01*
X9734873Y-9017822D01*
X9590817Y-9225438D01*
X9402551Y-9490776D01*
X9240980Y-9703878D01*
X9108799Y-9861174D01*
X9007799Y-9960407D01*
X8991228Y-9974320D01*
X8898276Y-10058285D01*
X8768098Y-10182207D01*
X8608836Y-10338241D01*
X8428628Y-10518544D01*
X8363128Y-10583025D01*
X8266600Y-10671547D01*
X8193049Y-10730854D01*
X8154651Y-10750629D01*
X8129042Y-10755937D01*
X8084992Y-10800166D01*
X8062455Y-10830047D01*
X8029442Y-10844163D01*
X8025554Y-10844384D01*
X7992882Y-10879016D01*
X7939732Y-10957397D01*
X7875505Y-11065984D01*
X7853112Y-11106697D01*
X7784238Y-11249878D01*
X7744506Y-11378344D01*
X7723362Y-11523854D01*
X7710542Y-11633017D01*
X7689662Y-11758599D01*
X7668049Y-11845994D01*
X7646157Y-11927509D01*
X7645725Y-11932325D01*
X7640261Y-11993187D01*
X7630311Y-12032521D01*
X7592494Y-12121154D01*
X7532777Y-12242971D01*
X7457732Y-12383903D01*
X7409449Y-12470886D01*
X7337362Y-12595294D01*
X7278635Y-12682442D01*
X7220822Y-12747541D01*
X7151486Y-12805808D01*
X7058179Y-12872456D01*
X6997420Y-12913257D01*
X6885700Y-12975697D01*
X6778782Y-13009916D01*
X6658985Y-13018104D01*
X6508624Y-13002453D01*
X6310017Y-12965155D01*
X6025598Y-12906197D01*
X5784582Y-12682753D01*
X5750622Y-12651412D01*
X5678827Y-12587240D01*
X5609769Y-12530746D01*
X5534354Y-12476288D01*
X5443485Y-12418224D01*
X5328065Y-12350912D01*
X5178997Y-12268712D01*
X4987187Y-12165979D01*
X4743537Y-12037074D01*
X4547939Y-11933098D01*
X4344447Y-11823253D01*
X4166135Y-11725241D01*
X4021950Y-11644039D01*
X3920842Y-11584626D01*
X3871756Y-11551980D01*
X3852616Y-11537392D01*
X3756033Y-11501476D01*
X3608739Y-11491978D01*
X3536688Y-11492260D01*
X3405597Y-11489469D01*
X3305031Y-11483361D01*
X3208806Y-11475921D01*
X3131870Y-11473949D01*
X3105227Y-11473788D01*
X3014394Y-11468910D01*
X2902063Y-11459536D01*
X2811778Y-11450953D01*
X2657929Y-11436825D01*
X2506237Y-11423341D01*
X2407069Y-11414423D01*
X2248983Y-11397877D01*
X2140194Y-11381818D01*
X2067703Y-11364092D01*
X2018518Y-11342549D01*
X1988649Y-11330262D01*
X1897922Y-11307399D01*
X1784447Y-11289146D01*
X1673165Y-11270822D01*
X1600806Y-11241539D01*
X1552386Y-11192672D01*
X1530017Y-11165625D01*
X1493381Y-11144734D01*
X1436005Y-11142516D01*
X1342767Y-11159042D01*
X1198554Y-11194387D01*
X1156705Y-11205369D01*
X997130Y-11251196D01*
X849737Y-11298888D01*
X741911Y-11339726D01*
X580983Y-11405670D01*
X283412Y-11511695D01*
X-42622Y-11612317D01*
X-374620Y-11701228D01*
X-690080Y-11772118D01*
X-966503Y-11818681D01*
X-1055983Y-11831135D01*
X-1184307Y-11852504D01*
X-1275402Y-11872267D01*
X-1313730Y-11887349D01*
X-1331835Y-11899543D01*
X-1392047Y-11902700D01*
X-1458529Y-11905411D01*
X-1549405Y-11929668D01*
X-1625344Y-11948480D01*
X-1685725Y-11942371D01*
X-1705839Y-11934476D01*
X-1744241Y-11945601D01*
X-1766806Y-11958902D01*
X-1830049Y-11958030D01*
X-1892321Y-11952168D01*
X-2002505Y-11950784D01*
X-2132379Y-11954827D01*
X-2252105Y-11959075D01*
X-2308085Y-11958787D01*
X-2344469Y-11958600D01*
X-2388317Y-11953453D01*
X-2407865Y-11948827D01*
X-2455948Y-11954094D01*
X-2470394Y-11955676D01*
X-2503225Y-11960459D01*
X-2567779Y-11949060D01*
X-2584197Y-11942727D01*
X-2623660Y-11956485D01*
X-2628674Y-11963471D01*
X-2660442Y-11968637D01*
X-2687174Y-11954412D01*
X-2757922Y-11937934D01*
X-2877835Y-11922849D01*
X-3056690Y-11907650D01*
X-3170757Y-11894303D01*
X-3338138Y-11862443D01*
X-3480207Y-11822714D01*
X-3562814Y-11796657D01*
X-3681739Y-11769081D01*
X-3768605Y-11760649D01*
X-3775305Y-11760929D01*
X-3879178Y-11752352D01*
X-3991108Y-11727179D01*
X-4027159Y-11716296D01*
X-4139919Y-11684021D01*
X-4285918Y-11643653D01*
X-4440614Y-11602006D01*
X-4442754Y-11601430D01*
X-4536601Y-11574208D01*
X-4733604Y-11507695D01*
X-4941855Y-11428108D01*
X-5129453Y-11347255D01*
X-5262852Y-11285504D01*
X-5386649Y-11228901D01*
X-5475082Y-11189274D01*
X-5514705Y-11172714D01*
X-5535072Y-11164137D01*
X-5612167Y-11122977D01*
X-5731289Y-11054475D01*
X-5882102Y-10964988D01*
X-6054274Y-10860877D01*
X-6237468Y-10748500D01*
X-6421352Y-10634216D01*
X-6595589Y-10524385D01*
X-6749846Y-10425364D01*
X-6782003Y-10404128D01*
X-5140569Y-10404128D01*
X-5134279Y-10427603D01*
X-5110803Y-10421313D01*
X-5117094Y-10397837D01*
X-5140569Y-10404128D01*
X-6782003Y-10404128D01*
X-6873788Y-10343515D01*
X-6957081Y-10285194D01*
X-6984288Y-10264950D01*
X-7128738Y-10159162D01*
X-7273846Y-10055163D01*
X-7391912Y-9972850D01*
X-7398283Y-9968324D01*
X-7270235Y-9968324D01*
X-7263944Y-9991799D01*
X-7240469Y-9985509D01*
X-7246759Y-9962033D01*
X-7270235Y-9968324D01*
X-7398283Y-9968324D01*
X-7477131Y-9912307D01*
X-7604213Y-9814796D01*
X-7706990Y-9728055D01*
X-7736446Y-9699412D01*
X-7820716Y-9610708D01*
X-7936266Y-9483964D01*
X-8075382Y-9328104D01*
X-8230348Y-9152053D01*
X-8393451Y-8964734D01*
X-8556976Y-8775073D01*
X-8713208Y-8591994D01*
X-8854433Y-8424420D01*
X-8972935Y-8281276D01*
X-9061002Y-8171487D01*
X-9110918Y-8103977D01*
X-9124041Y-8084273D01*
X-9207677Y-7970065D01*
X-9292268Y-7868152D01*
X-9341683Y-7810930D01*
X-9463362Y-7653599D01*
X-9605006Y-7453795D01*
X-9758730Y-7224004D01*
X-9916646Y-6976718D01*
X-10070870Y-6724422D01*
X-10213517Y-6479605D01*
X-10336699Y-6254756D01*
X-10432532Y-6062363D01*
X-10463102Y-5996820D01*
X-10533125Y-5848602D01*
X-10619121Y-5668083D01*
X-10712235Y-5473724D01*
X-10803617Y-5283982D01*
X-10884413Y-5117316D01*
X-10945771Y-4992185D01*
X-10947129Y-4989398D01*
X-10980757Y-4903219D01*
X-11024156Y-4768839D01*
X-11071874Y-4604111D01*
X-11118455Y-4426891D01*
X-11151348Y-4284752D01*
X-11152971Y-4274307D01*
X-10230532Y-4274307D01*
X-10224966Y-4370083D01*
X-10209305Y-4521393D01*
X-10183252Y-4734420D01*
X-10181600Y-4747625D01*
X-10166445Y-4884381D01*
X-10150216Y-5052277D01*
X-10136157Y-5218022D01*
X-10128975Y-5300549D01*
X-10094063Y-5561273D01*
X-10038102Y-5820985D01*
X-9956228Y-6099616D01*
X-9843579Y-6417097D01*
X-9837483Y-6433229D01*
X-9739433Y-6685949D01*
X-9654644Y-6888359D01*
X-9576325Y-7054960D01*
X-9497686Y-7200251D01*
X-9411933Y-7338734D01*
X-9356898Y-7426620D01*
X-9270489Y-7574308D01*
X-9193208Y-7716049D01*
X-9191970Y-7718434D01*
X-9137175Y-7821597D01*
X-9095746Y-7894963D01*
X-9076569Y-7922787D01*
X-9061013Y-7938385D01*
X-9014737Y-7996229D01*
X-8950304Y-8082168D01*
X-8933294Y-8104867D01*
X-8844312Y-8215391D01*
X-8732740Y-8345472D01*
X-8618664Y-8471530D01*
X-8569703Y-8525006D01*
X-8487709Y-8620746D01*
X-8434141Y-8692157D01*
X-8418761Y-8726776D01*
X-8420393Y-8730052D01*
X-8411052Y-8778041D01*
X-8365430Y-8822690D01*
X-8309227Y-8837923D01*
X-8291557Y-8842353D01*
X-8224720Y-8881504D01*
X-8123674Y-8953670D01*
X-7999384Y-9050204D01*
X-7862817Y-9162462D01*
X-7724940Y-9281802D01*
X-7596719Y-9399576D01*
X-7544091Y-9447553D01*
X-7449168Y-9526767D01*
X-7356423Y-9597325D01*
X-7282309Y-9646949D01*
X-7243278Y-9663360D01*
X-7214018Y-9671630D01*
X-7138556Y-9703350D01*
X-7036285Y-9751306D01*
X-6947111Y-9792592D01*
X-6856660Y-9829090D01*
X-6805864Y-9842672D01*
X-6785803Y-9845825D01*
X-6711934Y-9870799D01*
X-6615406Y-9912741D01*
X-6611590Y-9914539D01*
X-6517663Y-9953848D01*
X-6377620Y-10006852D01*
X-6209750Y-10066832D01*
X-6032338Y-10127066D01*
X-6028969Y-10128177D01*
X-5846281Y-10188602D01*
X-5668152Y-10247732D01*
X-5514828Y-10298833D01*
X-5406555Y-10335175D01*
X-5319790Y-10361103D01*
X-5226127Y-10380127D01*
X-5173892Y-10379011D01*
X-5140420Y-10370562D01*
X-5065531Y-10377270D01*
X-5057872Y-10371197D01*
X-5095014Y-10338929D01*
X-5163669Y-10289718D01*
X-5250098Y-10232947D01*
X-5340564Y-10177999D01*
X-5421328Y-10134258D01*
X-5441866Y-10123895D01*
X-5540840Y-10070750D01*
X-5681176Y-9992453D01*
X-5852763Y-9894915D01*
X-6045487Y-9784047D01*
X-6249237Y-9665761D01*
X-6453898Y-9545970D01*
X-6649359Y-9430584D01*
X-6825507Y-9325516D01*
X-6972228Y-9236678D01*
X-7079411Y-9169980D01*
X-7136941Y-9131336D01*
X-7149194Y-9121692D01*
X-7246941Y-9036380D01*
X-7359536Y-8927705D01*
X-7470340Y-8812831D01*
X-7562711Y-8708918D01*
X-7620006Y-8633130D01*
X-7643928Y-8599630D01*
X-7691141Y-8554519D01*
X-7716699Y-8526307D01*
X-7773811Y-8448761D01*
X-7853693Y-8333490D01*
X-7949106Y-8191512D01*
X-8052807Y-8033850D01*
X-8157558Y-7871525D01*
X-8256117Y-7715561D01*
X-8341243Y-7576979D01*
X-8405695Y-7466800D01*
X-8455513Y-7378743D01*
X-8531433Y-7247010D01*
X-8594341Y-7140497D01*
X-8611380Y-7112195D01*
X-8695791Y-6970241D01*
X-8790819Y-6808241D01*
X-8888862Y-6639397D01*
X-8982317Y-6476912D01*
X-9063583Y-6333985D01*
X-9125057Y-6223822D01*
X-9159139Y-6159622D01*
X-9182689Y-6112437D01*
X-9254811Y-5975724D01*
X-9343648Y-5814074D01*
X-9437113Y-5648981D01*
X-9523116Y-5501933D01*
X-9589568Y-5394422D01*
X-9640221Y-5309533D01*
X-9712695Y-5172131D01*
X-9777902Y-5033210D01*
X-9796008Y-4992565D01*
X-9859634Y-4859186D01*
X-9936801Y-4706713D01*
X-10018840Y-4551355D01*
X-10097081Y-4409320D01*
X-10162856Y-4296813D01*
X-10207495Y-4230044D01*
X-10212572Y-4224605D01*
X-10226303Y-4227876D01*
X-10230532Y-4274307D01*
X-11152971Y-4274307D01*
X-11211035Y-3900567D01*
X-11217905Y-3549652D01*
X-11171705Y-3223738D01*
X-11072182Y-2914552D01*
X-11046169Y-2847062D01*
X-11011917Y-2737822D01*
X-10997402Y-2660469D01*
X-10986810Y-2616610D01*
X-10948141Y-2519242D01*
X-10887947Y-2390895D01*
X-10813415Y-2247693D01*
X-10758548Y-2144383D01*
X-10682583Y-1992043D01*
X-10621426Y-1858485D01*
X-10584745Y-1764150D01*
X-10555367Y-1676232D01*
X-10507397Y-1540118D01*
X-10448236Y-1376764D01*
X-10384622Y-1204996D01*
X-10326294Y-1048647D01*
X-10255896Y-858410D01*
X-10192026Y-684304D01*
X-10143556Y-550417D01*
X-10125908Y-505912D01*
X-10066254Y-376812D01*
X-9980239Y-205996D01*
X-9874238Y-4837D01*
X-9754624Y215290D01*
X-9627771Y443011D01*
X-9500053Y666953D01*
X-9377846Y875740D01*
X-9267521Y1058000D01*
X-9175453Y1202359D01*
X-9108017Y1297440D01*
X-9076310Y1338945D01*
X-9011945Y1433493D01*
X-8972785Y1505634D01*
X-8972608Y1506084D01*
X-8961014Y1549961D01*
X-8975531Y1584992D01*
X-9027962Y1624347D01*
X-9130112Y1681198D01*
X-9217209Y1729001D01*
X-9300533Y1777715D01*
X-9342454Y1806223D01*
X-9354935Y1817718D01*
X-9409985Y1861110D01*
X-9481975Y1916007D01*
X-9587568Y2008735D01*
X-9675911Y2099244D01*
X-9727603Y2168746D01*
X-9736753Y2183784D01*
X-9791884Y2253406D01*
X-9878050Y2348541D01*
X-9980981Y2453169D01*
X-10010527Y2482415D01*
X-10118304Y2595367D01*
X-10210288Y2700722D01*
X-10269169Y2778913D01*
X-10289027Y2809037D01*
X-10357480Y2905684D01*
X-10448219Y3028048D01*
X-10547066Y3156850D01*
X-10601905Y3228919D01*
X-10750294Y3453734D01*
X-10862175Y3683168D01*
X-10946646Y3938389D01*
X-11012803Y4240562D01*
X-11032410Y4338572D01*
X-11069792Y4504715D01*
X-11115410Y4692859D01*
X-11163395Y4878149D01*
X-11203131Y5036815D01*
X-11233688Y5181137D01*
X-11241311Y5229647D01*
X-10877992Y5229647D01*
X-10863295Y5196063D01*
X-10816967Y5117544D01*
X-10746161Y5005721D01*
X-10658033Y4872227D01*
X-10580044Y4755430D01*
X-10448256Y4555847D01*
X-10312622Y4348343D01*
X-10192671Y4162692D01*
X-10096549Y4019613D01*
X-9981774Y3862446D01*
X-9873252Y3726487D01*
X-9785461Y3630651D01*
X-9680234Y3526524D01*
X-9550558Y3392486D01*
X-9432630Y3265458D01*
X-9427792Y3260099D01*
X-9361758Y3189155D01*
X-9299016Y3129011D01*
X-9228979Y3072347D01*
X-9141059Y3011841D01*
X-9024668Y2940173D01*
X-8869219Y2850022D01*
X-8664123Y2734066D01*
X-8618511Y2708423D01*
X-8427477Y2601645D01*
X-8285711Y2524351D01*
X-8184548Y2472710D01*
X-8115325Y2442892D01*
X-8069377Y2431065D01*
X-8038038Y2433401D01*
X-8012647Y2446068D01*
X-7999869Y2454449D01*
X-7930780Y2499882D01*
X-7821003Y2572159D01*
X-7682737Y2663242D01*
X-7528185Y2765099D01*
X-7491193Y2789455D01*
X-7332476Y2892192D01*
X-7210925Y2964893D01*
X-7110114Y3014795D01*
X-7013620Y3049132D01*
X-6905018Y3075139D01*
X-6767886Y3100055D01*
X-6683679Y3114982D01*
X-6525421Y3145781D01*
X-6390112Y3175461D01*
X-6300233Y3199252D01*
X-6065082Y3269881D01*
X-5831616Y3325036D01*
X-5607866Y3359569D01*
X-5493695Y3374725D01*
X-5348875Y3398572D01*
X-5236679Y3422061D01*
X-5201489Y3430334D01*
X-5114799Y3444601D01*
X-5066914Y3443112D01*
X-5058998Y3440141D01*
X-5010953Y3453160D01*
X-5010148Y3454028D01*
X-5019671Y3492205D01*
X-5066781Y3564140D01*
X-5141865Y3655013D01*
X-5149023Y3662955D01*
X-5236682Y3756028D01*
X-5303885Y3811810D01*
X-5372596Y3844924D01*
X-5464785Y3869995D01*
X-5474002Y3872265D01*
X-5589663Y3911988D01*
X-5731779Y3974785D01*
X-5871733Y4048130D01*
X-6039688Y4139012D01*
X-6278071Y4255454D01*
X-6545343Y4375686D01*
X-6828644Y4494675D01*
X-7115115Y4607391D01*
X-7391895Y4708798D01*
X-7646125Y4793865D01*
X-7864942Y4857560D01*
X-8035488Y4894852D01*
X-8065091Y4900023D01*
X-8197758Y4929355D01*
X-8358722Y4971366D01*
X-8519568Y5018782D01*
X-8638587Y5055165D01*
X-8759563Y5088095D01*
X-8879000Y5114362D01*
X-9008601Y5135557D01*
X-9160069Y5153273D01*
X-9345108Y5169100D01*
X-9575421Y5184630D01*
X-9862712Y5201455D01*
X-9882758Y5202583D01*
X-10179522Y5218846D01*
X-10414331Y5230690D01*
X-10593439Y5238289D01*
X-10723101Y5241818D01*
X-10809570Y5241451D01*
X-10859102Y5237362D01*
X-10877949Y5229725D01*
X-10877992Y5229647D01*
X-11241311Y5229647D01*
X-11250963Y5291070D01*
X-11251991Y5350809D01*
X-11201957Y5420635D01*
X-11103717Y5464601D01*
X-10976691Y5471716D01*
X-10935651Y5470191D01*
X-10825497Y5476290D01*
X-10702339Y5491903D01*
X-10576750Y5507461D01*
X-10415258Y5520122D01*
X-10255253Y5526795D01*
X-10212019Y5528170D01*
X-10060311Y5537363D01*
X-9868423Y5553255D01*
X-9656563Y5574069D01*
X-9444937Y5598028D01*
X-9367474Y5607165D01*
X-9151310Y5629979D01*
X-8941125Y5648726D01*
X-8757629Y5661670D01*
X-8621532Y5667074D01*
X-8586431Y5667489D01*
X-8453571Y5670237D01*
X-8349277Y5674184D01*
X-8293636Y5678620D01*
X-8260186Y5682585D01*
X-8134977Y5681848D01*
X-7971346Y5666358D01*
X-7789672Y5637766D01*
X-7650461Y5611657D01*
X-7448192Y5573073D01*
X-7290190Y5539788D01*
X-7161678Y5506481D01*
X-7047878Y5467836D01*
X-6934015Y5418531D01*
X-6805312Y5353248D01*
X-6646992Y5266667D01*
X-6444279Y5153471D01*
X-6400676Y5129174D01*
X-6219364Y5028985D01*
X-6061003Y4942812D01*
X-5934826Y4875587D01*
X-5850067Y4832245D01*
X-5815959Y4817720D01*
X-5814203Y4824228D01*
X-5824055Y4879356D01*
X-5850568Y4978106D01*
X-5889857Y5105366D01*
X-5899074Y5134610D01*
X-5959164Y5389718D01*
X-5998030Y5694149D01*
X-6015890Y6051988D01*
X-6012968Y6467321D01*
X-5989484Y6944230D01*
X-5982531Y7077817D01*
X-5984303Y7211209D01*
X-6001221Y7332256D01*
X-6017836Y7394180D01*
X-5731605Y7394180D01*
X-5729184Y7302553D01*
X-5713702Y7167736D01*
X-5686351Y6998002D01*
X-5648325Y6801624D01*
X-5600815Y6586877D01*
X-5545012Y6362036D01*
X-5533620Y6319333D01*
X-5471826Y6104963D01*
X-5397515Y5868716D01*
X-5315221Y5623148D01*
X-5229480Y5380811D01*
X-5144826Y5154258D01*
X-5065795Y4956043D01*
X-4996920Y4798719D01*
X-4942739Y4694841D01*
X-4928947Y4669496D01*
X-4889156Y4575984D01*
X-4851270Y4464593D01*
X-4810430Y4358397D01*
X-4713804Y4179276D01*
X-4584353Y3987488D01*
X-4434507Y3800924D01*
X-4276697Y3637475D01*
X-4249395Y3612336D01*
X-4150014Y3523039D01*
X-4070180Y3454597D01*
X-4025125Y3420164D01*
X-4021796Y3418581D01*
X-3963471Y3403996D01*
X-3853364Y3384508D01*
X-3705895Y3362469D01*
X-3535486Y3340234D01*
X-3503695Y3336264D01*
X-3355560Y3314919D01*
X-3197900Y3287023D01*
X-3022684Y3250637D01*
X-2821886Y3203823D01*
X-2587475Y3144642D01*
X-2311420Y3071156D01*
X-1985694Y2981426D01*
X-1602265Y2873514D01*
X-1544715Y2857692D01*
X-1342606Y2807068D01*
X-1123630Y2757832D01*
X-926017Y2718732D01*
X-820274Y2698968D01*
X-681480Y2670133D01*
X-576618Y2644823D01*
X-522629Y2626894D01*
X-493772Y2614380D01*
X-410741Y2600417D01*
X-388596Y2602499D01*
X-365362Y2623569D01*
X-382325Y2684008D01*
X-417672Y2752211D01*
X-480009Y2854336D01*
X-555625Y2967811D01*
X-557245Y2970143D01*
X-630688Y3080131D01*
X-688840Y3174970D01*
X-719237Y3234359D01*
X-744769Y3281623D01*
X-804594Y3367961D01*
X-882235Y3466763D01*
X-948779Y3549792D01*
X-1010340Y3633812D01*
X-1041187Y3685517D01*
X-1041195Y3685539D01*
X-1071292Y3734967D01*
X-1137607Y3826447D01*
X-1231931Y3949592D01*
X-1346056Y4094016D01*
X-1471773Y4249328D01*
X-1600873Y4405142D01*
X-1725147Y4551069D01*
X-1753746Y4583918D01*
X-1876661Y4719856D01*
X-1995343Y4839737D01*
X-2124915Y4957455D01*
X-2280496Y5086900D01*
X-2477210Y5241965D01*
X-2521906Y5276868D01*
X-1034907Y5276868D01*
X-1028641Y5267042D01*
X-1003606Y5285255D01*
X-996655Y5302254D01*
X-1011993Y5316557D01*
X-1018074Y5314250D01*
X-1034907Y5276868D01*
X-2521906Y5276868D01*
X-2568164Y5312991D01*
X-2709408Y5424829D01*
X-2834822Y5525841D01*
X-2925046Y5600526D01*
X-2970003Y5637532D01*
X-3084920Y5727184D01*
X-3224159Y5831625D01*
X-3366894Y5935086D01*
X-3437044Y5985336D01*
X-3591694Y6098401D01*
X-3738278Y6208211D01*
X-3852619Y6296761D01*
X-3862946Y6304913D01*
X-4012001Y6411199D01*
X-4203696Y6533106D01*
X-4419211Y6659905D01*
X-4639725Y6780870D01*
X-4846417Y6885274D01*
X-5020467Y6962391D01*
X-5137914Y7016220D01*
X-5302652Y7109541D01*
X-5464277Y7217375D01*
X-5602677Y7326070D01*
X-5697736Y7421979D01*
X-5719774Y7434340D01*
X-5731605Y7394180D01*
X-6017836Y7394180D01*
X-6037154Y7466181D01*
X-6095974Y7638206D01*
X-6129199Y7734996D01*
X-6173438Y7885269D01*
X-6195360Y7994964D01*
X-6192359Y8052875D01*
X-6128415Y8128830D01*
X-6040455Y8164311D01*
X-5952029Y8137700D01*
X-5926693Y8124913D01*
X-5829887Y8098441D01*
X-5687362Y8075158D01*
X-5514752Y8057917D01*
X-5413922Y8049002D01*
X-5247536Y8028031D01*
X-5103947Y8002658D01*
X-5006097Y7976553D01*
X-4968777Y7962620D01*
X-4865891Y7924763D01*
X-4793058Y7898728D01*
X-4773197Y7890340D01*
X-4694930Y7852096D01*
X-4574901Y7790320D01*
X-4425353Y7711363D01*
X-4258534Y7621573D01*
X-3965138Y7454141D01*
X-3542550Y7189077D01*
X-3116689Y6897039D01*
X-2710174Y6593713D01*
X-2345619Y6294783D01*
X-2297987Y6253566D01*
X-2115467Y6097102D01*
X-1924730Y5935495D01*
X-1745730Y5785586D01*
X-1598418Y5664210D01*
X-1472247Y5561104D01*
X-1351516Y5461434D01*
X-1257190Y5382486D01*
X-1202801Y5335503D01*
X-1165179Y5304423D01*
X-1124625Y5297944D01*
X-1086314Y5348225D01*
X-1070238Y5367646D01*
X-836973Y5367646D01*
X-830683Y5344170D01*
X-807207Y5350461D01*
X-813498Y5373936D01*
X-836973Y5367646D01*
X-1070238Y5367646D01*
X-1047404Y5395231D01*
X-994941Y5399317D01*
X-971353Y5390857D01*
X-949646Y5409549D01*
X-942106Y5416735D01*
X-372065Y5416735D01*
X-365774Y5393259D01*
X-342298Y5399549D01*
X-348589Y5423024D01*
X-372065Y5416735D01*
X-942106Y5416735D01*
X-933359Y5425072D01*
X-865328Y5442087D01*
X-762161Y5450134D01*
X-645633Y5458205D01*
X-502633Y5480849D01*
X-326888Y5520377D01*
X-107845Y5579174D01*
X165047Y5659623D01*
X235628Y5680223D01*
X431053Y5728267D01*
X599734Y5756603D01*
X729215Y5763530D01*
X807045Y5747344D01*
X822385Y5727831D01*
X841186Y5649454D01*
X848146Y5531754D01*
X844102Y5393021D01*
X829893Y5251550D01*
X806358Y5125632D01*
X774333Y5033559D01*
X719102Y4938611D01*
X639261Y4832846D01*
X622345Y4810437D01*
X496283Y4682927D01*
X435404Y4633039D01*
X332602Y4548797D01*
X305334Y4529539D01*
X122987Y4400759D01*
X-140877Y4231527D01*
X-256848Y4159576D01*
X-203146Y4073522D01*
X-201165Y4070310D01*
X-158606Y3993304D01*
X-100431Y3878798D01*
X-38623Y3750329D01*
X-28181Y3728115D01*
X25887Y3617214D01*
X68400Y3536585D01*
X90916Y3502383D01*
X94512Y3499479D01*
X118058Y3453134D01*
X136084Y3387060D01*
X136826Y3342273D01*
X137281Y3327922D01*
X150020Y3259184D01*
X175106Y3148074D01*
X209200Y3009916D01*
X245553Y2858006D01*
X283560Y2650267D01*
X293194Y2500900D01*
X284092Y2458186D01*
X274236Y2411924D01*
X260532Y2398308D01*
X225525Y2413225D01*
X214966Y2421651D01*
X226459Y2381189D01*
X229234Y2375750D01*
X275242Y2326717D01*
X363845Y2252081D01*
X481979Y2161339D01*
X616580Y2063988D01*
X685103Y2017083D01*
X754585Y1969522D01*
X882927Y1887440D01*
X988545Y1827236D01*
X1009731Y1814175D01*
X1083519Y1762887D01*
X1194663Y1682246D01*
X1332242Y1580222D01*
X1485336Y1464782D01*
X1561222Y1406502D01*
X1755746Y1251880D01*
X1941596Y1097235D01*
X2111116Y949530D01*
X2256646Y815724D01*
X2370531Y702776D01*
X2445113Y617648D01*
X2472734Y567301D01*
X2479320Y539544D01*
X2516374Y538059D01*
X2526359Y539282D01*
X2581743Y513938D01*
X2661114Y455359D01*
X2748796Y378044D01*
X2829116Y296488D01*
X2886401Y225187D01*
X2904977Y178641D01*
X2904738Y177183D01*
X2927446Y131605D01*
X2990330Y81529D01*
X3021948Y62128D01*
X3051911Y33826D01*
X3023734Y24216D01*
X2998136Y18097D01*
X2990073Y16170D01*
X2937997Y-26558D01*
X2932089Y-31406D01*
X2908904Y-56537D01*
X2864420Y-53526D01*
X2786260Y-8445D01*
X2762164Y8404D01*
X2731681Y35087D01*
X2831224Y35087D01*
X2837514Y11612D01*
X2860990Y17902D01*
X2854700Y41378D01*
X2831224Y35087D01*
X2731681Y35087D01*
X2699934Y62876D01*
X2678347Y101239D01*
X2675135Y118347D01*
X2656803Y128991D01*
X2806063Y128991D01*
X2812353Y105514D01*
X2835829Y111805D01*
X2829539Y135280D01*
X2806063Y128991D01*
X2656803Y128991D01*
X2632439Y143138D01*
X2629327Y143837D01*
X2575325Y174257D01*
X2490612Y238520D01*
X2392100Y323907D01*
X2226519Y474006D01*
X1976032Y692293D01*
X1752481Y875861D01*
X1562402Y1019419D01*
X1412326Y1117674D01*
X1369605Y1141775D01*
X1246973Y1207825D01*
X1092757Y1288066D01*
X918536Y1376771D01*
X735889Y1468212D01*
X556391Y1556666D01*
X391619Y1636404D01*
X253152Y1701699D01*
X152567Y1746827D01*
X101442Y1766060D01*
X67952Y1776096D01*
X-18271Y1809435D01*
X-124628Y1855686D01*
X-182834Y1881518D01*
X-287059Y1923418D01*
X-404543Y1964318D01*
X-546049Y2007416D01*
X-722345Y2055913D01*
X-944195Y2113008D01*
X-1222366Y2181900D01*
X-1349580Y2213543D01*
X-1526336Y2259296D01*
X-1674051Y2299664D01*
X-1780107Y2331162D01*
X-1831889Y2350302D01*
X-1892129Y2378631D01*
X-2015684Y2425790D01*
X-2178458Y2481410D01*
X-2244522Y2502380D01*
X207545Y2502380D01*
X213835Y2478904D01*
X237311Y2485195D01*
X231020Y2508671D01*
X207545Y2502380D01*
X-2244522Y2502380D01*
X-2365226Y2540694D01*
X-2560764Y2598839D01*
X-2749846Y2651047D01*
X-2917249Y2692515D01*
X-2951219Y2700069D01*
X-3168470Y2741057D01*
X-3388982Y2771771D01*
X-3595284Y2790547D01*
X-3769904Y2795724D01*
X-3857706Y2788665D01*
X-3895371Y2785637D01*
X-3960445Y2778791D01*
X-4077257Y2775112D01*
X-4209705Y2777017D01*
X-4303515Y2779213D01*
X-4437704Y2775222D01*
X-4575619Y2759913D01*
X-4738028Y2730690D01*
X-4945699Y2684953D01*
X-5061481Y2660965D01*
X-5220205Y2634624D01*
X-5352451Y2619434D01*
X-5452282Y2604946D01*
X-5601954Y2570830D01*
X-5769728Y2524129D01*
X-5934216Y2471306D01*
X-6074029Y2418820D01*
X-6167780Y2373133D01*
X-6170188Y2371669D01*
X-6231075Y2342061D01*
X-6340318Y2294845D01*
X-6483189Y2236220D01*
X-6644960Y2172377D01*
X-6748042Y2132438D01*
X-6895115Y2074227D01*
X-7004648Y2026773D01*
X-7093721Y1980858D01*
X-7179417Y1927269D01*
X-7278817Y1856791D01*
X-7409004Y1760208D01*
X-7509343Y1682994D01*
X-7618018Y1590085D01*
X-7718037Y1490143D01*
X-7818155Y1372757D01*
X-7927131Y1227516D01*
X-8053719Y1044009D01*
X-8206679Y811823D01*
X-8224154Y785190D01*
X-8325444Y637565D01*
X-8431059Y492518D01*
X-8520766Y377999D01*
X-8626028Y242409D01*
X-8809824Y-35829D01*
X-8987839Y-354616D01*
X-9150634Y-696473D01*
X-9288771Y-1043928D01*
X-9309697Y-1102857D01*
X-9372714Y-1282306D01*
X-9428776Y-1444741D01*
X-9472434Y-1574276D01*
X-9498245Y-1655024D01*
X-9507180Y-1683745D01*
X-9537596Y-1763352D01*
X-9561470Y-1801563D01*
X-9567531Y-1808140D01*
X-9589405Y-1863945D01*
X-9610367Y-1954119D01*
X-9627977Y-2033535D01*
X-9665031Y-2168827D01*
X-9708776Y-2306541D01*
X-9740195Y-2414227D01*
X-9760755Y-2526115D01*
X-9760293Y-2600306D01*
X-9750687Y-2661553D01*
X-9754795Y-2755347D01*
X-9759657Y-2803046D01*
X-9746852Y-2843228D01*
X-9730993Y-2879688D01*
X-9711336Y-2966070D01*
X-9692699Y-3082854D01*
X-9670521Y-3220397D01*
X-9626906Y-3433476D01*
X-9571653Y-3665705D01*
X-9510326Y-3895319D01*
X-9448495Y-4100550D01*
X-9391726Y-4259633D01*
X-9353857Y-4356529D01*
X-9315069Y-4465243D01*
X-9293886Y-4536990D01*
X-9286508Y-4565177D01*
X-9255481Y-4658533D01*
X-9208707Y-4785223D01*
X-9152744Y-4928931D01*
X-9094148Y-5073340D01*
X-9039478Y-5202133D01*
X-8995288Y-5298994D01*
X-8968136Y-5347607D01*
X-8964058Y-5352657D01*
X-8924771Y-5416949D01*
X-8881148Y-5506273D01*
X-8857204Y-5556868D01*
X-8796040Y-5672245D01*
X-8727441Y-5789977D01*
X-8663097Y-5896737D01*
X-8578234Y-6041210D01*
X-8497376Y-6182022D01*
X-8388256Y-6366526D01*
X-8238063Y-6605186D01*
X-8067516Y-6864590D01*
X-7887570Y-7128688D01*
X-7709179Y-7381430D01*
X-7543296Y-7606766D01*
X-7400875Y-7788646D01*
X-7381358Y-7812432D01*
X-7270649Y-7947452D01*
X-7174248Y-8065180D01*
X-7101929Y-8153673D01*
X-7063465Y-8200988D01*
X-6946119Y-8340894D01*
X-6806946Y-8486974D01*
X-6655334Y-8621251D01*
X-6474964Y-8757963D01*
X-6249518Y-8911353D01*
X-6216135Y-8933260D01*
X-5874287Y-9154223D01*
X-5569098Y-9344257D01*
X-5284032Y-9513181D01*
X-5002557Y-9670818D01*
X-4708138Y-9826989D01*
X-4703023Y-9829640D01*
X-4493158Y-9938570D01*
X-4260500Y-10059669D01*
X-4033006Y-10178368D01*
X-3838634Y-10280098D01*
X-3827729Y-10285815D01*
X-3651237Y-10376268D01*
X-3518216Y-10438563D01*
X-3413402Y-10478568D01*
X-3321531Y-10502157D01*
X-3227338Y-10515199D01*
X-3152954Y-10520186D01*
X-3059904Y-10513743D01*
X-3028691Y-10487403D01*
X-3028714Y-10483473D01*
X-3012981Y-10466612D01*
X-2963695Y-10504566D01*
X-2955862Y-10511954D01*
X-2893110Y-10546878D01*
X-2826282Y-10524796D01*
X-2823727Y-10523220D01*
X-2770335Y-10502142D01*
X-2753749Y-10531712D01*
X-2733985Y-10571297D01*
X-2685497Y-10577468D01*
X-2639262Y-10539937D01*
X-2630987Y-10531743D01*
X-2569525Y-10528654D01*
X-2463332Y-10561739D01*
X-2420849Y-10577537D01*
X-2304206Y-10609876D01*
X-2210359Y-10621952D01*
X-2192119Y-10621483D01*
X-2152765Y-10616279D01*
X-2181425Y-10606209D01*
X-2263361Y-10588043D01*
X-2322654Y-10567729D01*
X-2318302Y-10554436D01*
X-2248171Y-10549963D01*
X-2190367Y-10550365D01*
X-2087053Y-10553256D01*
X-2031500Y-10561835D01*
X-2008701Y-10579849D01*
X-2003655Y-10611047D01*
X-2002679Y-10623147D01*
X-1983176Y-10642156D01*
X-1930037Y-10609724D01*
X-1885178Y-10580989D01*
X-1877674Y-10591302D01*
X-1882816Y-10606378D01*
X-1868437Y-10646244D01*
X-1852471Y-10647035D01*
X-1830961Y-10608349D01*
X-1818169Y-10579608D01*
X-1772726Y-10582440D01*
X-1751286Y-10601653D01*
X-1762267Y-10632125D01*
X-1778778Y-10645526D01*
X-1760338Y-10655226D01*
X-1707205Y-10653390D01*
X-1639032Y-10641281D01*
X-1575474Y-10620156D01*
X-1517453Y-10600101D01*
X-1469121Y-10598974D01*
X-1466083Y-10599906D01*
X-1413476Y-10594664D01*
X-1312053Y-10573864D01*
X-1176273Y-10541431D01*
X-1020595Y-10501290D01*
X-859481Y-10457363D01*
X-707389Y-10413578D01*
X-578779Y-10373859D01*
X-488111Y-10342130D01*
X-449846Y-10322317D01*
X-425635Y-10306660D01*
X-361072Y-10306040D01*
X-315892Y-10308230D01*
X-269809Y-10285449D01*
X-258553Y-10275875D01*
X-193672Y-10248026D01*
X-90824Y-10215706D01*
X29396Y-10184087D01*
X146395Y-10158347D01*
X239578Y-10143659D01*
X288353Y-10145197D01*
X333001Y-10143466D01*
X406339Y-10115644D01*
X484281Y-10088964D01*
X563920Y-10084886D01*
X606318Y-10085722D01*
X655831Y-10057027D01*
X669602Y-10040079D01*
X709876Y-10031373D01*
X756963Y-10038850D01*
X863580Y-10028505D01*
X1013274Y-9998178D01*
X1071972Y-9986650D01*
X1110762Y-9985009D01*
X1127749Y-9986313D01*
X1207959Y-9975961D01*
X1348671Y-9949901D01*
X1545927Y-9908826D01*
X1623648Y-9895461D01*
X1725282Y-9888918D01*
X1787012Y-9899187D01*
X1818506Y-9911077D01*
X1857604Y-9900255D01*
X1869996Y-9889589D01*
X1918413Y-9895675D01*
X1930972Y-9900240D01*
X2003608Y-9902049D01*
X2100961Y-9885322D01*
X2126978Y-9879224D01*
X2233031Y-9863871D01*
X2312635Y-9865767D01*
X2357519Y-9867202D01*
X2384213Y-9842696D01*
X2393496Y-9827328D01*
X2451788Y-9795745D01*
X2546100Y-9767527D01*
X2598579Y-9753665D01*
X2662642Y-9728240D01*
X3438601Y-9728240D01*
X3444866Y-9738066D01*
X3469903Y-9719853D01*
X3476852Y-9702854D01*
X3461515Y-9688552D01*
X3455434Y-9690858D01*
X3438601Y-9728240D01*
X2662642Y-9728240D01*
X2689507Y-9717578D01*
X2738566Y-9680476D01*
X2764200Y-9654690D01*
X2802578Y-9645438D01*
X3512866Y-9645438D01*
X3519156Y-9668914D01*
X3542631Y-9662623D01*
X3536341Y-9639148D01*
X3512866Y-9645438D01*
X2802578Y-9645438D01*
X2832399Y-9638249D01*
X2884033Y-9628520D01*
X2947001Y-9578821D01*
X2991030Y-9533741D01*
X3069186Y-9487488D01*
X3102814Y-9471447D01*
X3692695Y-9471447D01*
X3698986Y-9494923D01*
X3722461Y-9488633D01*
X3716172Y-9465157D01*
X3692695Y-9471447D01*
X3102814Y-9471447D01*
X3115147Y-9465564D01*
X3169520Y-9415231D01*
X3215594Y-9380299D01*
X3297193Y-9360558D01*
X3322854Y-9358351D01*
X3378455Y-9340213D01*
X3423847Y-9291478D01*
X3477072Y-9195603D01*
X3507694Y-9139790D01*
X3568153Y-9049673D01*
X3618753Y-8997064D01*
X3651280Y-8970211D01*
X3661434Y-8922486D01*
X3658953Y-8916256D01*
X3661412Y-8879009D01*
X3687752Y-8817719D01*
X3742383Y-8724705D01*
X3829722Y-8592279D01*
X3954179Y-8412761D01*
X3991243Y-8358758D01*
X4133764Y-8124343D01*
X4240263Y-7903237D01*
X4275011Y-7817437D01*
X4323438Y-7696826D01*
X4328623Y-7683352D01*
X5201307Y-7683352D01*
X5207598Y-7706828D01*
X5231073Y-7700537D01*
X5224783Y-7677062D01*
X5201307Y-7683352D01*
X4328623Y-7683352D01*
X4352975Y-7620071D01*
X4368184Y-7574190D01*
X4373628Y-7546205D01*
X4373869Y-7523134D01*
X4375198Y-7501325D01*
X4384481Y-7419823D01*
X4400728Y-7297292D01*
X4421751Y-7150745D01*
X4430339Y-7088449D01*
X4452885Y-6882118D01*
X4470633Y-6659215D01*
X4480330Y-6458192D01*
X4484340Y-6346716D01*
X4492815Y-6208153D01*
X4503351Y-6105214D01*
X4514546Y-6054456D01*
X4522470Y-6033564D01*
X4509662Y-5994172D01*
X4499013Y-5981854D01*
X4505005Y-5933498D01*
X4514941Y-5884958D01*
X4503740Y-5803782D01*
X4493099Y-5726946D01*
X4504102Y-5623848D01*
X4515175Y-5554954D01*
X4504299Y-5514820D01*
X4495539Y-5505157D01*
X4500874Y-5459462D01*
X4509019Y-5411268D01*
X4495561Y-5331180D01*
X4482607Y-5263251D01*
X4490249Y-5202898D01*
X4497345Y-5185370D01*
X4487066Y-5147680D01*
X4481720Y-5138993D01*
X4468271Y-5074313D01*
X4454772Y-4957258D01*
X4441890Y-4799433D01*
X4430291Y-4612444D01*
X4420639Y-4407891D01*
X4413602Y-4197380D01*
X4409844Y-3992513D01*
X4410032Y-3804896D01*
X4410735Y-3653213D01*
X4408582Y-3514587D01*
X4403866Y-3414645D01*
X4397036Y-3368405D01*
X4391754Y-3345874D01*
X4407503Y-3283678D01*
X4417876Y-3231744D01*
X4418527Y-3131324D01*
X4408071Y-3007727D01*
X4397179Y-2893631D01*
X4394738Y-2795378D01*
X4402272Y-2743100D01*
X4408991Y-2728875D01*
X4415795Y-2670268D01*
X4415592Y-2643484D01*
X4427018Y-2562788D01*
X4449310Y-2455446D01*
X4464760Y-2384981D01*
X4471136Y-2320167D01*
X4461028Y-2257179D01*
X4429693Y-2180837D01*
X4372391Y-2075957D01*
X4284381Y-1927363D01*
X4210202Y-1800398D01*
X4130612Y-1657343D01*
X4068610Y-1538303D01*
X4033461Y-1460513D01*
X3995165Y-1391189D01*
X3919355Y-1285142D01*
X3817702Y-1158446D01*
X3701353Y-1025695D01*
X3528086Y-836154D01*
X3361323Y-652083D01*
X3234604Y-509609D01*
X3144104Y-404106D01*
X3126716Y-382212D01*
X3198844Y-382212D01*
X3205109Y-392038D01*
X3230145Y-373825D01*
X3237095Y-356827D01*
X3221758Y-342524D01*
X3215677Y-344830D01*
X3198844Y-382212D01*
X3126716Y-382212D01*
X3086002Y-330949D01*
X3056473Y-285511D01*
X3051693Y-263167D01*
X3067838Y-259291D01*
X3103663Y-258021D01*
X3130389Y-230958D01*
X3130487Y-228031D01*
X3161050Y-188193D01*
X3220956Y-159933D01*
X3273898Y-160959D01*
X3283569Y-181627D01*
X3277745Y-242555D01*
X3276021Y-287601D01*
X3308135Y-339477D01*
X3334281Y-348799D01*
X3356200Y-330282D01*
X3356168Y-328413D01*
X3374843Y-293799D01*
X3411775Y-301779D01*
X3437574Y-346497D01*
X3437901Y-348197D01*
X3473076Y-406014D01*
X3541495Y-466441D01*
X3545768Y-469418D01*
X3610695Y-521505D01*
X3710787Y-608783D01*
X3833189Y-719817D01*
X3839262Y-725499D01*
X3965048Y-843176D01*
X4010308Y-886443D01*
X4148696Y-1024111D01*
X4244380Y-1130941D01*
X4305699Y-1216882D01*
X4340990Y-1291889D01*
X4342118Y-1295118D01*
X4391147Y-1405391D01*
X4470636Y-1553591D01*
X4570261Y-1723228D01*
X4679697Y-1897811D01*
X4788621Y-2060853D01*
X4886708Y-2195864D01*
X4963634Y-2286354D01*
X5006783Y-2331862D01*
X5075772Y-2416341D01*
X5113394Y-2479197D01*
X5132926Y-2520019D01*
X5175270Y-2568418D01*
X5189597Y-2585710D01*
X5168536Y-2626658D01*
X5147827Y-2658023D01*
X5190416Y-2677576D01*
X5192958Y-2678207D01*
X5228782Y-2705336D01*
X5265022Y-2772385D01*
X5305610Y-2888597D01*
X5354476Y-3063213D01*
X5373092Y-3134651D01*
X5435099Y-3383981D01*
X5475440Y-3568446D01*
X5494173Y-3688326D01*
X5491354Y-3743900D01*
X5489064Y-3755764D01*
X5494411Y-3820432D01*
X5512599Y-3915414D01*
X5517941Y-3939396D01*
X5542557Y-4072714D01*
X5558425Y-4194119D01*
X5559522Y-4205533D01*
X5577571Y-4313894D01*
X5603237Y-4399403D01*
X5625405Y-4459594D01*
X5650675Y-4560646D01*
X5663463Y-4627102D01*
X5688987Y-4732175D01*
X5695531Y-4793872D01*
X5675398Y-4838070D01*
X5662076Y-4852298D01*
X5696655Y-4867839D01*
X5729038Y-4879622D01*
X5722714Y-4913103D01*
X5713608Y-4936777D01*
X5712553Y-5015322D01*
X5729285Y-5119976D01*
X5747509Y-5201079D01*
X5779874Y-5372431D01*
X5789425Y-5483021D01*
X5776481Y-5535701D01*
X5770336Y-5550706D01*
X5796836Y-5586372D01*
X5817180Y-5615160D01*
X5803014Y-5679237D01*
X5800720Y-5683483D01*
X5777470Y-5766686D01*
X5772127Y-5869766D01*
X5772564Y-5878362D01*
X5766552Y-5979080D01*
X5744676Y-6054341D01*
X5727159Y-6095007D01*
X5719831Y-6159060D01*
X5718453Y-6199050D01*
X5701825Y-6298263D01*
X5668650Y-6456053D01*
X5618494Y-6674343D01*
X5550934Y-6955057D01*
X5465537Y-7300118D01*
X5433097Y-7426945D01*
X5392970Y-7567074D01*
X5350343Y-7685979D01*
X5320297Y-7752050D01*
X5296850Y-7803610D01*
X5224119Y-7939916D01*
X5123785Y-8114849D01*
X5075184Y-8197728D01*
X4958519Y-8390077D01*
X4868675Y-8527260D01*
X4807050Y-8607216D01*
X4775044Y-8627887D01*
X4763792Y-8636440D01*
X4725172Y-8678470D01*
X4713255Y-8692142D01*
X4651576Y-8759617D01*
X4575393Y-8840044D01*
X4551021Y-8865351D01*
X4451921Y-8968560D01*
X4354913Y-9069942D01*
X4316256Y-9109223D01*
X4245328Y-9175036D01*
X4199931Y-9208669D01*
X4185559Y-9217949D01*
X4130052Y-9269957D01*
X4061752Y-9347174D01*
X4038062Y-9374415D01*
X3949240Y-9457649D01*
X3866594Y-9512680D01*
X3842265Y-9525478D01*
X3816912Y-9543164D01*
X3750294Y-9589637D01*
X3659236Y-9670777D01*
X3621614Y-9708224D01*
X3587622Y-9742057D01*
X3556019Y-9769572D01*
X3323050Y-9972416D01*
X3298623Y-9991693D01*
X3201946Y-10074589D01*
X3101673Y-10168428D01*
X3011745Y-10259280D01*
X2946103Y-10333221D01*
X2918690Y-10376325D01*
X2918020Y-10383284D01*
X2923994Y-10410074D01*
X2946831Y-10441765D01*
X2991437Y-10481329D01*
X3062720Y-10531738D01*
X3165585Y-10595964D01*
X3304940Y-10676978D01*
X3485691Y-10777755D01*
X3712745Y-10901264D01*
X3991007Y-11050478D01*
X4325385Y-11228369D01*
X4346850Y-11239702D01*
X4490280Y-11312003D01*
X4639055Y-11379997D01*
X4805280Y-11448474D01*
X5001061Y-11522221D01*
X5238507Y-11606026D01*
X5529724Y-11704677D01*
X5543918Y-11709434D01*
X5755353Y-11785004D01*
X5919309Y-11856619D01*
X6054273Y-11934905D01*
X6178725Y-12030492D01*
X6311152Y-12154009D01*
X6384684Y-12225380D01*
X6502891Y-12330037D01*
X6593123Y-12390939D01*
X6665765Y-12414329D01*
X6731204Y-12406447D01*
X6810864Y-12363602D01*
X6892891Y-12276075D01*
X6972134Y-12140038D01*
X7052352Y-11948923D01*
X7063207Y-11916623D01*
X7572699Y-11916623D01*
X7578964Y-11926448D01*
X7604000Y-11908236D01*
X7610949Y-11891238D01*
X7595613Y-11876934D01*
X7589531Y-11879240D01*
X7572699Y-11916623D01*
X7063207Y-11916623D01*
X7137298Y-11696162D01*
X7273490Y-11256694D01*
X7500157Y-10992836D01*
X7547362Y-10938774D01*
X7673683Y-10800513D01*
X7798957Y-10670862D01*
X7901916Y-10572095D01*
X7916996Y-10558339D01*
X8089495Y-10368132D01*
X8270319Y-10110098D01*
X8321020Y-10031391D01*
X8420062Y-9883662D01*
X8513085Y-9751670D01*
X8585179Y-9656876D01*
X8644824Y-9576431D01*
X8743096Y-9422704D01*
X8849941Y-9237334D01*
X8956009Y-9038082D01*
X9051947Y-8842709D01*
X9128404Y-8668975D01*
X9176029Y-8534642D01*
X9203167Y-8446615D01*
X9252179Y-8315382D01*
X9299208Y-8215891D01*
X9312087Y-8191456D01*
X9357227Y-8087044D01*
X9408787Y-7947922D01*
X9457952Y-7797328D01*
X9464207Y-7777091D01*
X9529750Y-7590899D01*
X9610808Y-7391834D01*
X9691309Y-7219684D01*
X9715246Y-7172253D01*
X9779982Y-7034390D01*
X9830442Y-6913197D01*
X9857310Y-6830515D01*
X9857780Y-6828333D01*
X9886126Y-6734886D01*
X9920000Y-6668269D01*
X9932248Y-6650686D01*
X9980969Y-6546482D01*
X10032743Y-6391026D01*
X10084690Y-6197835D01*
X10133927Y-5980424D01*
X10177572Y-5752309D01*
X10212742Y-5527004D01*
X10236556Y-5318026D01*
X10246131Y-5138889D01*
X10246824Y-5110974D01*
X10250641Y-5019875D01*
X10256550Y-4906777D01*
X10257537Y-4881473D01*
X10255755Y-4751739D01*
X10246385Y-4590561D01*
X10230971Y-4426930D01*
X10223842Y-4361679D01*
X10212375Y-4232540D01*
X10207613Y-4137616D01*
X10210593Y-4093891D01*
X10213335Y-4053869D01*
X10197144Y-3979280D01*
X10183365Y-3917422D01*
X10189591Y-3885147D01*
X10192416Y-3877848D01*
X10190487Y-3819337D01*
X10178747Y-3714743D01*
X10159528Y-3578954D01*
X10135159Y-3426861D01*
X10107969Y-3273353D01*
X10080291Y-3133320D01*
X10054454Y-3021652D01*
X10050358Y-3005872D01*
X10033450Y-2937169D01*
X10019169Y-2868647D01*
X10005388Y-2786613D01*
X9989976Y-2677378D01*
X9970807Y-2527251D01*
X9945749Y-2322542D01*
X9935519Y-2240389D01*
X9914937Y-2085762D01*
X9896007Y-1955907D01*
X9881822Y-1872584D01*
X9864094Y-1784273D01*
X9838463Y-1654699D01*
X9810929Y-1514151D01*
X9783580Y-1377401D01*
X9757480Y-1253022D01*
X9738516Y-1169132D01*
X9737088Y-1163470D01*
X9708006Y-1067545D01*
X9665556Y-947533D01*
X9616857Y-821260D01*
X9569030Y-706554D01*
X9529196Y-621239D01*
X9504473Y-583147D01*
X9487825Y-563257D01*
X9466379Y-500172D01*
X9455441Y-465724D01*
X9413282Y-370466D01*
X9345551Y-233470D01*
X9258023Y-65282D01*
X9156474Y123549D01*
X9046677Y322477D01*
X8934407Y520954D01*
X8825439Y708433D01*
X8725549Y874366D01*
X8640511Y1008206D01*
X8288237Y1493213D01*
X7868177Y1986744D01*
X7380153Y2489008D01*
X7279884Y2585834D01*
X7080333Y2774175D01*
X6896531Y2939284D01*
X6719818Y3086997D01*
X6541533Y3223149D01*
X6353018Y3353577D01*
X6145612Y3484116D01*
X5910656Y3620602D01*
X5639490Y3768871D01*
X5323455Y3934759D01*
X4953890Y4124102D01*
X4828888Y4188771D01*
X4674094Y4275142D01*
X4544528Y4359117D01*
X4417322Y4455961D01*
X4269609Y4580943D01*
X4205236Y4635944D01*
X4055778Y4755390D01*
X3928526Y4845475D01*
X3836678Y4896577D01*
X3762072Y4928058D01*
X3633027Y4984881D01*
X3501158Y5044973D01*
X3400430Y5089392D01*
X3280620Y5136619D01*
X3193276Y5164752D01*
X3134072Y5180759D01*
X3016979Y5216339D01*
X2889985Y5258110D01*
X2773173Y5289329D01*
X2604298Y5317738D01*
X2442394Y5330208D01*
X2374365Y5331564D01*
X2264172Y5338935D01*
X2182278Y5359899D01*
X2101009Y5403629D01*
X1992688Y5479304D01*
X1990555Y5480845D01*
X1794696Y5619958D01*
X1642699Y5721857D01*
X1524921Y5792312D01*
X1431721Y5837098D01*
X1353456Y5861986D01*
X1248785Y5881879D01*
X1170865Y5879575D01*
X1132360Y5843433D01*
X1119571Y5767947D01*
X1115351Y5717747D01*
X1092429Y5661371D01*
X1033613Y5623870D01*
X1005474Y5611827D01*
X952660Y5608687D01*
X913822Y5657349D01*
X909227Y5666668D01*
X883458Y5755211D01*
X870562Y5862711D01*
X868345Y5890960D01*
X840648Y6016026D01*
X805947Y6103159D01*
X1532384Y6103159D01*
X1538675Y6079682D01*
X1562150Y6085973D01*
X1555860Y6109448D01*
X1532384Y6103159D01*
X805947Y6103159D01*
X792817Y6136129D01*
X791264Y6139129D01*
X753622Y6229165D01*
X705977Y6366858D01*
X654280Y6534009D01*
X604477Y6712420D01*
X593943Y6751994D01*
X505988Y7048337D01*
X418691Y7279783D01*
X330591Y7449736D01*
X240228Y7561600D01*
X228005Y7573467D01*
X154145Y7696056D01*
X124712Y7857602D01*
X140411Y8045508D01*
X201944Y8247179D01*
X236555Y8319156D01*
X272354Y8346735D01*
X324977Y8334898D01*
X380043Y8326565D01*
X457782Y8367417D01*
X505456Y8400694D01*
X578151Y8401230D01*
X591443Y8395577D01*
G37*
%TO.C,kibuzzard-65306358*%
G36*
X1860581Y10077000D02*
G01*
X1911381Y9987306D01*
X1711356Y9987306D01*
X1651031Y10038106D01*
X1678813Y10096844D01*
X1758188Y10119069D01*
X1860581Y10077000D01*
G37*
G36*
X-5208556Y10077000D02*
G01*
X-5157756Y9987306D01*
X-5357781Y9987306D01*
X-5418106Y10038106D01*
X-5390325Y10096844D01*
X-5310950Y10119069D01*
X-5208556Y10077000D01*
G37*
G36*
X3548888Y10030169D02*
G01*
X3587781Y9933331D01*
X3546506Y9838875D01*
X3446494Y9796806D01*
X3348863Y9839669D01*
X3309969Y9934125D01*
X3347275Y10030169D01*
X3447288Y10074619D01*
X3548888Y10030169D01*
G37*
G36*
X-1509681Y10029375D02*
G01*
X-1471581Y9933331D01*
X-1512856Y9838081D01*
X-1612869Y9795219D01*
X-1710500Y9838081D01*
X-1749394Y9932538D01*
X-1712087Y10028581D01*
X-1611281Y10073031D01*
X-1509681Y10029375D01*
G37*
G36*
X-2451862Y10030169D02*
G01*
X-2412969Y9933331D01*
X-2454244Y9838875D01*
X-2554256Y9796806D01*
X-2651887Y9839669D01*
X-2690781Y9934125D01*
X-2653475Y10030169D01*
X-2553462Y10074619D01*
X-2451862Y10030169D01*
G37*
G36*
X161956Y10052394D02*
G01*
X198866Y10003380D01*
X211169Y9935712D01*
X198469Y9868244D01*
X160369Y9819825D01*
X57181Y9780931D01*
X-47594Y9820619D01*
X-86884Y9869831D01*
X-99981Y9938094D01*
X-87678Y10005959D01*
X-50769Y10053981D01*
X55594Y10092081D01*
X161956Y10052394D01*
G37*
G36*
X5283566Y10870793D02*
G01*
X5373383Y10857470D01*
X5461461Y10835407D01*
X5546953Y10804818D01*
X5629035Y10765996D01*
X5706916Y10719316D01*
X5779847Y10665226D01*
X5847125Y10604249D01*
X5908102Y10536971D01*
X5962192Y10464040D01*
X6008872Y10386159D01*
X6047694Y10304077D01*
X6078283Y10218585D01*
X6100346Y10130507D01*
X6113669Y10040690D01*
X6118124Y9950000D01*
X6113669Y9859310D01*
X6100346Y9769493D01*
X6078283Y9681415D01*
X6047694Y9595923D01*
X6008872Y9513841D01*
X5962192Y9435960D01*
X5908102Y9363029D01*
X5847125Y9295751D01*
X5779847Y9234774D01*
X5706916Y9180684D01*
X5629035Y9134004D01*
X5546953Y9095182D01*
X5461461Y9064593D01*
X5373383Y9042530D01*
X5283566Y9029207D01*
X5192876Y9024752D01*
X5192744Y9024752D01*
X4108481Y9024752D01*
X3147250Y9024752D01*
X2452719Y9024752D01*
X1755806Y9024752D01*
X1006506Y9024752D01*
X55594Y9024752D01*
X-622269Y9024752D01*
X-1880362Y9024752D01*
X-2853500Y9024752D01*
X-3513106Y9024752D01*
X-4619594Y9024752D01*
X-5313331Y9024752D01*
X-5692744Y9024752D01*
X-5692876Y9024752D01*
X-5783566Y9029207D01*
X-5873383Y9042530D01*
X-5961461Y9064593D01*
X-6046953Y9095182D01*
X-6129035Y9134004D01*
X-6206916Y9180684D01*
X-6279847Y9234774D01*
X-6347125Y9295751D01*
X-6408102Y9363029D01*
X-6462192Y9435960D01*
X-6508872Y9513841D01*
X-6547694Y9595923D01*
X-6578283Y9681415D01*
X-6600346Y9769493D01*
X-6613669Y9859310D01*
X-6618124Y9950000D01*
X-6613991Y10034137D01*
X-5692744Y10034137D01*
X-5680639Y9949206D01*
X-5644325Y9889675D01*
X-5537169Y9842844D01*
X-5160931Y9842844D01*
X-5213319Y9768231D01*
X-5318094Y9738069D01*
X-5400247Y9742831D01*
X-5462556Y9757119D01*
X-5480019Y9763469D01*
X-5543519Y9780931D01*
X-5630831Y9709494D01*
X-5651469Y9636469D01*
X-5630335Y9574655D01*
X-5566934Y9530503D01*
X-5461266Y9504012D01*
X-5313331Y9495181D01*
X-5202405Y9505302D01*
X-5104575Y9535663D01*
X-5023414Y9582692D01*
X-4962494Y9642819D01*
X-4955563Y9653931D01*
X-4759294Y9653931D01*
X-4756912Y9599163D01*
X-4741831Y9557094D01*
X-4700953Y9526137D01*
X-4619594Y9515819D01*
X-4541012Y9526137D01*
X-4498944Y9557094D01*
X-4483862Y9599956D01*
X-4481481Y9657106D01*
X-4481481Y9934919D01*
X-4444969Y10036519D01*
X-4352100Y10073031D01*
X-4252881Y10038900D01*
X-4203669Y9961906D01*
X-4203669Y9653931D01*
X-4201287Y9599163D01*
X-4186206Y9557094D01*
X-4145328Y9526137D01*
X-4063969Y9515819D01*
X-3983403Y9526534D01*
X-3941731Y9558681D01*
X-3928237Y9599956D01*
X-3925856Y9655519D01*
X-3925856Y9684094D01*
X-3822669Y9684094D01*
X-3800841Y9625753D01*
X-3735356Y9571381D01*
X-3634550Y9523756D01*
X-3513106Y9507881D01*
X-3415916Y9519699D01*
X-3321195Y9555153D01*
X-3228944Y9614244D01*
X-3186225Y9657106D01*
X-2978119Y9657106D01*
X-2975737Y9602337D01*
X-2962244Y9560269D01*
X-2923945Y9529312D01*
X-2853500Y9518994D01*
X-2737612Y9540425D01*
X-2703481Y9603131D01*
X-2625098Y9540028D01*
X-2507425Y9518994D01*
X-2418084Y9532928D01*
X-2333153Y9574733D01*
X-2252631Y9644406D01*
X-2244399Y9655519D01*
X-2031969Y9655519D01*
X-2029587Y9600750D01*
X-2014506Y9560269D01*
X-1969064Y9528122D01*
X-1880362Y9517406D01*
X-1794439Y9536853D01*
X-1757331Y9595194D01*
X-1677559Y9538044D01*
X-1571594Y9518994D01*
X-1479166Y9532840D01*
X-1392383Y9574380D01*
X-1311244Y9643612D01*
X-1245980Y9731278D01*
X-1206822Y9828115D01*
X-1193769Y9934125D01*
X-1206910Y10040223D01*
X-1246333Y10137325D01*
X-1312037Y10225431D01*
X-1325021Y10236544D01*
X-1122331Y10236544D01*
X-1092169Y10125419D01*
X-1004856Y10065094D01*
X-950087Y10077794D01*
X-881031Y10090494D01*
X-800862Y10060331D01*
X-763556Y9987306D01*
X-763556Y9653931D01*
X-761175Y9599163D01*
X-746094Y9557094D01*
X-703231Y9526137D01*
X-622269Y9515819D01*
X-512731Y9542806D01*
X-484156Y9611069D01*
X-484156Y9657106D01*
X-484156Y9934919D01*
X-380969Y9934919D01*
X-363903Y9810498D01*
X-312706Y9700762D01*
X-237102Y9611862D01*
X-146812Y9549950D01*
X-47395Y9513636D01*
X55594Y9501531D01*
X158781Y9514430D01*
X258794Y9553125D01*
X275692Y9565031D01*
X595344Y9565031D01*
X609631Y9449497D01*
X652494Y9350542D01*
X723931Y9268169D01*
X812478Y9206433D01*
X906670Y9169391D01*
X1006506Y9157044D01*
X1060481Y9159425D01*
X1100169Y9172919D01*
X1131125Y9213003D01*
X1141444Y9288806D01*
X1135094Y9345513D01*
X1132911Y9365006D01*
X1107313Y9406281D01*
X1015238Y9430094D01*
X912844Y9461844D01*
X879506Y9506294D01*
X868394Y9576144D01*
X868394Y9653931D01*
X995394Y9653931D01*
X997775Y9599163D01*
X1012856Y9557094D01*
X1053734Y9526137D01*
X1135094Y9515819D01*
X1215659Y9526534D01*
X1257331Y9558681D01*
X1270825Y9599956D01*
X1273206Y9655519D01*
X1273206Y10034137D01*
X1376394Y10034137D01*
X1388498Y9949206D01*
X1424813Y9889675D01*
X1531969Y9842844D01*
X1908206Y9842844D01*
X1855819Y9768231D01*
X1751044Y9738069D01*
X1668891Y9742831D01*
X1606581Y9757119D01*
X1589119Y9763469D01*
X1525619Y9780931D01*
X1438306Y9709494D01*
X1417669Y9636469D01*
X1438802Y9574655D01*
X1502203Y9530503D01*
X1607871Y9504012D01*
X1755806Y9495181D01*
X1866733Y9505302D01*
X1964563Y9535663D01*
X2045723Y9582692D01*
X2106644Y9642819D01*
X2162206Y9731895D01*
X2195544Y9827674D01*
X2206656Y9930156D01*
X2192281Y10054599D01*
X2149153Y10161226D01*
X2110038Y10209556D01*
X2270156Y10209556D01*
X2280872Y10128991D01*
X2313019Y10087319D01*
X2355088Y10073825D01*
X2409856Y10071444D01*
X2513044Y10077794D01*
X2513044Y9858719D01*
X2499550Y9796806D01*
X2448750Y9777756D01*
X2391600Y9775375D01*
X2349531Y9760294D01*
X2313019Y9653931D01*
X2324131Y9573366D01*
X2357469Y9531694D01*
X2399538Y9518200D01*
X2452719Y9515819D01*
X2553966Y9524109D01*
X2637574Y9548980D01*
X2703544Y9590431D01*
X2751169Y9651638D01*
X2753026Y9657106D01*
X3022631Y9657106D01*
X3025013Y9602337D01*
X3038506Y9560269D01*
X3076805Y9529312D01*
X3147250Y9518994D01*
X3263138Y9540425D01*
X3297269Y9603131D01*
X3375652Y9540028D01*
X3493325Y9518994D01*
X3582666Y9532928D01*
X3667597Y9574733D01*
X3748119Y9644406D01*
X3756351Y9655519D01*
X3968781Y9655519D01*
X3971163Y9600750D01*
X3986244Y9558681D01*
X4027122Y9526534D01*
X4108481Y9515819D01*
X4189047Y9526931D01*
X4230719Y9560269D01*
X4244213Y9602337D01*
X4246594Y9657106D01*
X4246594Y9934919D01*
X4271200Y10038503D01*
X4345019Y10073031D01*
X4420425Y10036519D01*
X4440269Y9933331D01*
X4440269Y9655519D01*
X4442650Y9599956D01*
X4457731Y9558681D01*
X4499800Y9526534D01*
X4581556Y9515819D01*
X4662122Y9526931D01*
X4703794Y9560269D01*
X4717288Y9602337D01*
X4719669Y9657106D01*
X4719669Y9934919D01*
X4744275Y10038503D01*
X4818094Y10073031D01*
X4889531Y10038503D01*
X4913344Y9934919D01*
X4913344Y9653931D01*
X4915725Y9599163D01*
X4930806Y9557094D01*
X4973669Y9526137D01*
X5054631Y9515819D01*
X5135197Y9526534D01*
X5176869Y9558681D01*
X5190363Y9599956D01*
X5192744Y9655519D01*
X5192744Y10214319D01*
X5190363Y10269087D01*
X5175281Y10309569D01*
X5135197Y10341716D01*
X5062569Y10352431D01*
X4946681Y10323856D01*
X4919694Y10241306D01*
X4837541Y10325841D01*
X4740306Y10354019D01*
X4641528Y10338673D01*
X4561095Y10292635D01*
X4499006Y10215906D01*
X4456938Y10265913D01*
X4378356Y10323063D01*
X4267231Y10354019D01*
X4150550Y10329611D01*
X4054506Y10256388D01*
X4006881Y10177101D01*
X3978306Y10069415D01*
X3968781Y9933331D01*
X3968781Y9655519D01*
X3756351Y9655519D01*
X3813383Y9732512D01*
X3852541Y9829615D01*
X3865594Y9935712D01*
X3852453Y10041722D01*
X3813030Y10138560D01*
X3747325Y10226225D01*
X3665922Y10295458D01*
X3579403Y10336997D01*
X3487769Y10350844D01*
X3389344Y10331794D01*
X3327431Y10296075D01*
X3298856Y10263531D01*
X3262741Y10330206D01*
X3173444Y10352431D01*
X3081369Y10342906D01*
X3039300Y10309569D01*
X3025013Y10267500D01*
X3022631Y10212731D01*
X3022631Y9657106D01*
X2753026Y9657106D01*
X2779744Y9735776D01*
X2789269Y9842844D01*
X2789269Y10077794D01*
X2854356Y10073031D01*
X2912300Y10100019D01*
X2935319Y10192094D01*
X2927381Y10286550D01*
X2905156Y10328619D01*
X2841656Y10349256D01*
X2789269Y10342906D01*
X2789269Y10506419D01*
X2786888Y10560394D01*
X2771806Y10598494D01*
X2730928Y10628259D01*
X2649569Y10638181D01*
X2563447Y10623497D01*
X2520981Y10579444D01*
X2513044Y10498481D01*
X2513044Y10342906D01*
X2407475Y10349256D01*
X2353500Y10346875D01*
X2311431Y10331794D01*
X2280475Y10290916D01*
X2270156Y10209556D01*
X2110038Y10209556D01*
X2077275Y10250037D01*
X1983877Y10316624D01*
X1876192Y10356576D01*
X1754219Y10369894D01*
X1651230Y10360170D01*
X1562925Y10331000D01*
X1489305Y10282383D01*
X1430369Y10214319D01*
X1389888Y10127998D01*
X1376394Y10034137D01*
X1273206Y10034137D01*
X1273206Y10212731D01*
X1270825Y10267500D01*
X1257331Y10309569D01*
X1215263Y10340525D01*
X1134300Y10350744D01*
X1133506Y10350844D01*
X1025556Y10323856D01*
X996981Y10255594D01*
X995394Y10209556D01*
X995394Y9653931D01*
X868394Y9653931D01*
X868394Y10230194D01*
X853313Y10311950D01*
X808863Y10347669D01*
X733456Y10356809D01*
X730281Y10357194D01*
X652494Y10347669D01*
X612013Y10315125D01*
X597725Y10273850D01*
X595344Y10219081D01*
X595344Y9565031D01*
X275692Y9565031D01*
X349480Y9617022D01*
X424688Y9705525D01*
X475289Y9812880D01*
X492156Y9933331D01*
X477340Y10052923D01*
X432890Y10157698D01*
X358806Y10247656D01*
X265673Y10316448D01*
X164073Y10357723D01*
X54006Y10371481D01*
X-55884Y10357811D01*
X-156955Y10316801D01*
X-249206Y10248450D01*
X-322408Y10158933D01*
X-366328Y10054422D01*
X-380969Y9934919D01*
X-484156Y9934919D01*
X-484156Y10214319D01*
X-486537Y10269087D01*
X-500031Y10309569D01*
X-542100Y10341716D01*
X-623856Y10352431D01*
X-701247Y10343303D01*
X-742919Y10315919D01*
X-760381Y10263531D01*
X-783400Y10290519D01*
X-847694Y10333381D01*
X-934212Y10360369D01*
X-996919Y10356400D01*
X-1052481Y10342906D01*
X-1102487Y10310363D01*
X-1122331Y10236544D01*
X-1325021Y10236544D01*
X-1393441Y10295105D01*
X-1479960Y10336909D01*
X-1571594Y10350844D01*
X-1675972Y10331000D01*
X-1754156Y10271469D01*
X-1754156Y10600081D01*
X595344Y10600081D01*
X597725Y10547694D01*
X612806Y10508006D01*
X654875Y10477050D01*
X733456Y10468319D01*
X811244Y10477844D01*
X851725Y10510387D01*
X866013Y10551663D01*
X868256Y10603256D01*
X995394Y10603256D01*
X997775Y10548488D01*
X1012063Y10507213D01*
X1054131Y10474669D01*
X1134300Y10465144D01*
X1214469Y10474669D01*
X1256538Y10508006D01*
X1270825Y10550075D01*
X1273206Y10604844D01*
X1270825Y10659613D01*
X1257331Y10700094D01*
X1215263Y10732241D01*
X1133506Y10742956D01*
X1053338Y10732241D01*
X1012856Y10700094D01*
X997775Y10658025D01*
X995394Y10603256D01*
X868256Y10603256D01*
X868394Y10606431D01*
X866013Y10660406D01*
X852519Y10700094D01*
X810847Y10731050D01*
X730281Y10741369D01*
X652891Y10731050D01*
X611219Y10700094D01*
X597725Y10661994D01*
X595344Y10609606D01*
X595344Y10600081D01*
X-1754156Y10600081D01*
X-1754156Y10604844D01*
X-1756537Y10659613D01*
X-1770825Y10700888D01*
X-1812894Y10733431D01*
X-1893062Y10742956D01*
X-1973231Y10733431D01*
X-2015300Y10700094D01*
X-2029587Y10658025D01*
X-2031969Y10603256D01*
X-2031969Y9655519D01*
X-2244399Y9655519D01*
X-2187367Y9732512D01*
X-2148209Y9829615D01*
X-2135156Y9935712D01*
X-2148297Y10041722D01*
X-2187720Y10138560D01*
X-2253425Y10226225D01*
X-2334828Y10295458D01*
X-2421347Y10336997D01*
X-2512981Y10350844D01*
X-2611406Y10331794D01*
X-2673319Y10296075D01*
X-2701894Y10263531D01*
X-2738009Y10330206D01*
X-2827306Y10352431D01*
X-2919381Y10342906D01*
X-2961450Y10309569D01*
X-2975737Y10267500D01*
X-2978119Y10212731D01*
X-2978119Y9657106D01*
X-3186225Y9657106D01*
X-3169809Y9673577D01*
X-3122581Y9749975D01*
X-3091625Y9839272D01*
X-3081306Y9937300D01*
X-3091625Y10034931D01*
X-3122581Y10123037D01*
X-3169809Y10198245D01*
X-3228944Y10257181D01*
X-3318726Y10315390D01*
X-3412388Y10350315D01*
X-3509931Y10361956D01*
X-3627406Y10345288D01*
X-3711544Y10312744D01*
X-3736944Y10296869D01*
X-3781394Y10266706D01*
X-3822669Y10194475D01*
X-3789331Y10103194D01*
X-3733372Y10037709D01*
X-3679794Y10015881D01*
X-3594069Y10050806D01*
X-3512312Y10077794D01*
X-3413094Y10039694D01*
X-3367056Y9934125D01*
X-3411506Y9829350D01*
X-3505962Y9792044D01*
X-3599625Y9821413D01*
X-3670269Y9850781D01*
X-3723053Y9829747D01*
X-3786156Y9766644D01*
X-3822669Y9684094D01*
X-3925856Y9684094D01*
X-3925856Y10604844D01*
X-3928237Y10659613D01*
X-3941731Y10700094D01*
X-3983800Y10732241D01*
X-4065556Y10742956D01*
X-4145725Y10732241D01*
X-4186206Y10700094D01*
X-4201287Y10658025D01*
X-4203669Y10603256D01*
X-4203669Y10252419D01*
X-4289791Y10325047D01*
X-4389406Y10349256D01*
X-4489331Y10335851D01*
X-4577437Y10295634D01*
X-4653725Y10228606D01*
X-4712374Y10142176D01*
X-4747564Y10043751D01*
X-4759294Y9933331D01*
X-4759294Y9653931D01*
X-4955563Y9653931D01*
X-4906931Y9731895D01*
X-4873594Y9827674D01*
X-4862481Y9930156D01*
X-4876857Y10054599D01*
X-4919984Y10161226D01*
X-4991862Y10250037D01*
X-5085260Y10316624D01*
X-5192946Y10356576D01*
X-5314919Y10369894D01*
X-5417908Y10360170D01*
X-5506212Y10331000D01*
X-5579833Y10282383D01*
X-5638769Y10214319D01*
X-5679250Y10127998D01*
X-5692744Y10034137D01*
X-6613991Y10034137D01*
X-6613669Y10040690D01*
X-6600346Y10130507D01*
X-6578283Y10218585D01*
X-6547694Y10304077D01*
X-6508872Y10386159D01*
X-6462192Y10464040D01*
X-6408102Y10536971D01*
X-6347125Y10604249D01*
X-6279847Y10665226D01*
X-6206916Y10719316D01*
X-6129035Y10765996D01*
X-6046953Y10804818D01*
X-5961461Y10835407D01*
X-5873383Y10857470D01*
X-5783566Y10870793D01*
X-5692876Y10875248D01*
X-5692744Y10875248D01*
X5192744Y10875248D01*
X5192876Y10875248D01*
X5283566Y10870793D01*
G37*
%TD*%
M02*
