%TF.GenerationSoftware,KiCad,Pcbnew,7.0.9*%
%TF.CreationDate,2024-01-12T19:02:29-05:00*%
%TF.ProjectId,lemon-pepper,6c656d6f-6e2d-4706-9570-7065722e6b69,rev?*%
%TF.SameCoordinates,PX8b85c60PY52f2218*%
%TF.FileFunction,Copper,L4,Bot*%
%TF.FilePolarity,Positive*%
%FSLAX46Y46*%
G04 Gerber Fmt 4.6, Leading zero omitted, Abs format (unit mm)*
G04 Created by KiCad (PCBNEW 7.0.9) date 2024-01-12 19:02:29*
%MOMM*%
%LPD*%
G01*
G04 APERTURE LIST*
G04 Aperture macros list*
%AMRoundRect*
0 Rectangle with rounded corners*
0 $1 Rounding radius*
0 $2 $3 $4 $5 $6 $7 $8 $9 X,Y pos of 4 corners*
0 Add a 4 corners polygon primitive as box body*
4,1,4,$2,$3,$4,$5,$6,$7,$8,$9,$2,$3,0*
0 Add four circle primitives for the rounded corners*
1,1,$1+$1,$2,$3*
1,1,$1+$1,$4,$5*
1,1,$1+$1,$6,$7*
1,1,$1+$1,$8,$9*
0 Add four rect primitives between the rounded corners*
20,1,$1+$1,$2,$3,$4,$5,0*
20,1,$1+$1,$4,$5,$6,$7,0*
20,1,$1+$1,$6,$7,$8,$9,0*
20,1,$1+$1,$8,$9,$2,$3,0*%
G04 Aperture macros list end*
%TA.AperFunction,ComponentPad*%
%ADD10C,1.000000*%
%TD*%
%TA.AperFunction,HeatsinkPad*%
%ADD11C,0.500000*%
%TD*%
%TA.AperFunction,ComponentPad*%
%ADD12O,1.750000X1.750000*%
%TD*%
%TA.AperFunction,ComponentPad*%
%ADD13O,1.750000X2.000000*%
%TD*%
%TA.AperFunction,ComponentPad*%
%ADD14C,5.800000*%
%TD*%
%TA.AperFunction,ComponentPad*%
%ADD15RoundRect,0.250000X0.600000X0.725000X-0.600000X0.725000X-0.600000X-0.725000X0.600000X-0.725000X0*%
%TD*%
%TA.AperFunction,ComponentPad*%
%ADD16O,1.700000X1.950000*%
%TD*%
%TA.AperFunction,SMDPad,CuDef*%
%ADD17C,0.500000*%
%TD*%
%TA.AperFunction,ViaPad*%
%ADD18C,0.800000*%
%TD*%
%TA.AperFunction,ViaPad*%
%ADD19C,0.450000*%
%TD*%
%TA.AperFunction,Conductor*%
%ADD20C,0.200000*%
%TD*%
%TA.AperFunction,Conductor*%
%ADD21C,0.100000*%
%TD*%
G04 APERTURE END LIST*
%TA.AperFunction,EtchedComponent*%
%TO.C,NT701*%
G36*
X4475000Y-12075000D02*
G01*
X3475000Y-12075000D01*
X3475000Y-11575000D01*
X4475000Y-11575000D01*
X4475000Y-12075000D01*
G37*
%TD.AperFunction*%
%TD*%
D10*
%TO.P,J201,S1,SHIELD*%
%TO.N,GND*%
X-9426777Y-6032664D03*
X-12467336Y-9073223D03*
X-6032664Y-9426777D03*
X-9073223Y-12467336D03*
%TD*%
D11*
%TO.P,M101,1*%
%TO.N,/current sense/U_OUT*%
X-3700000Y16775000D03*
D12*
X-3700000Y14900000D03*
D13*
X-3700000Y12150000D03*
D11*
%TO.P,M101,2,-*%
%TO.N,/current sense/W_IN*%
X-1200000Y16775000D03*
D12*
X-1200000Y14900000D03*
D13*
X-1200000Y12150000D03*
D11*
%TO.P,M101,3*%
%TO.N,/half bridges/OUT1B*%
X1300000Y16775000D03*
D12*
X1300000Y14900000D03*
D13*
X1300000Y12150000D03*
D11*
%TO.P,M101,4*%
%TO.N,/current sense/V_OUT*%
X3800000Y16775000D03*
D12*
X3800000Y14900000D03*
D13*
X3800000Y12150000D03*
%TD*%
D14*
%TO.P,H101,1,1*%
%TO.N,GND*%
X-13000000Y13000000D03*
X-13000000Y-13000000D03*
X13000000Y13000000D03*
X13000000Y-13000000D03*
%TD*%
D15*
%TO.P,J101,1,Pin_1*%
%TO.N,Vmot*%
X7225000Y-14725000D03*
D16*
%TO.P,J101,2,Pin_2*%
%TO.N,GND*%
X4725000Y-14725000D03*
%TO.P,J101,3,Pin_3*%
%TO.N,/mcu/CANL*%
X2225000Y-14725000D03*
%TO.P,J101,4,Pin_4*%
%TO.N,/mcu/CANH*%
X-275000Y-14725000D03*
%TD*%
D17*
%TO.P,NT701,1,1*%
%TO.N,GNDA*%
X3475000Y-11825000D03*
%TO.P,NT701,2,2*%
%TO.N,GND*%
X4475000Y-11825000D03*
%TD*%
D18*
%TO.N,GND*%
X7675000Y2750000D03*
X-14630320Y-2499121D03*
X-2375000Y-14600000D03*
X-11650000Y1950000D03*
X-10375000Y675000D03*
X-9125000Y1975000D03*
X16675000Y-11200000D03*
X-10375000Y1950000D03*
X10585647Y5435647D03*
X11325000Y4725000D03*
X-10375000Y3150000D03*
X-1950000Y-1300000D03*
X8675000Y2725000D03*
X8070845Y-7288732D03*
X-4139000Y-1975000D03*
X1475000Y-6125000D03*
X9910647Y6110647D03*
X-7550000Y-13000000D03*
X-250000Y-6800000D03*
X-1975000Y50000D03*
X-5395400Y-6375500D03*
X-2400000Y-16525000D03*
X7700000Y3775000D03*
X2223639Y600498D03*
%TO.N,Vmot*%
X13575000Y-675000D03*
X3900000Y650000D03*
X-6275000Y16250000D03*
X4550000Y0D03*
X6305664Y12175000D03*
X6275000Y14250000D03*
X9950000Y-3975000D03*
X13575500Y-1567997D03*
X9025000Y-4375000D03*
X5450000Y175000D03*
X-6250000Y12175000D03*
X-6250000Y14225000D03*
X9850000Y-5000000D03*
X6250000Y16250000D03*
D19*
%TO.N,/mcu/USBD_P*%
X-5375000Y-10325000D03*
X-9650000Y-8850000D03*
X-8825000Y-9650000D03*
D18*
%TO.N,+3V3*%
X500000Y-12150000D03*
X-5075000Y-1225000D03*
X-6250000Y-16625000D03*
X-1700000Y-12150000D03*
X-625000Y-12150000D03*
X16075000Y-2500000D03*
X15625000Y-3350000D03*
X-12874972Y-2731439D03*
X2225000Y1600000D03*
X16550000Y-3375000D03*
X-2200000Y-11200000D03*
D19*
X-293750Y9250000D03*
D18*
X-1125000Y-11200000D03*
X-7850000Y8675000D03*
X-300000Y-8700000D03*
X-10524127Y-3153111D03*
D19*
%TO.N,/mcu/RESET*%
X-15925000Y3250000D03*
X-12412500Y8637500D03*
X-3150000Y-6775000D03*
D18*
%TO.N,/current sense/W_IN*%
X4075000Y4700500D03*
X4075000Y5575000D03*
D19*
%TO.N,/current sense/U_SENSE*%
X-7000000Y10800000D03*
X-15325000Y3275000D03*
%TO.N,/current sense/V_SENSE*%
X-2025000Y7925000D03*
X-8906524Y-3034784D03*
D18*
%TO.N,/usb/USB_5V*%
X-9725000Y-11475000D03*
X-11550000Y-9800000D03*
X-6975000Y-8750000D03*
X-4725000Y-8900000D03*
X-8806854Y-7050000D03*
D19*
%TO.N,/mcu/USER_2*%
X-11950000Y-5525000D03*
X-15525241Y-5099495D03*
D18*
%TO.N,Net-(D603-K)*%
X4750000Y-1600000D03*
X4275000Y2750000D03*
D19*
%TO.N,Net-(D601-K)*%
X6025000Y5500000D03*
X10925000Y925000D03*
%TO.N,/usb/UCPD_CC2*%
X-7700000Y-10825000D03*
X-6075000Y-10850000D03*
%TO.N,/half bridges/ENA*%
X9150000Y-400000D03*
X4225000Y3750000D03*
X-9350000Y-3400000D03*
%TO.N,/encoder/SCK*%
X775000Y-4000000D03*
X-16600000Y2175000D03*
%TO.N,/encoder/CIPO*%
X-15900000Y1550000D03*
X-600000Y-4000000D03*
%TO.N,/encoder/COPI*%
X62132Y-4000000D03*
X-15925000Y2175000D03*
%TO.N,/encoder/CS*%
X1425000Y-4000000D03*
X-14650000Y-800000D03*
%TO.N,/encoder/CAL_EN*%
X-15900000Y400000D03*
X-1225000Y-3975000D03*
%TO.N,/mcu/USER_3*%
X-11250000Y-5450000D03*
X-15522442Y-4525000D03*
X-8350000Y-2625000D03*
X-5525000Y3150000D03*
%TO.N,/mcu/USER_1*%
X-11060733Y-6359180D03*
X-15524934Y-5673997D03*
%TO.N,/mcu/CAN_TX*%
X-3775000Y2675000D03*
X-8500000Y6125000D03*
%TO.N,/mcu/CAN_RX*%
X-8875000Y6600000D03*
X-3775000Y2100000D03*
%TO.N,/half bridges/IN2B*%
X4950000Y4350000D03*
X-14425000Y4075000D03*
%TO.N,/mcu/TIM4_CH1*%
X-7575000Y5300000D03*
X-14750000Y-150000D03*
%TO.N,/half bridges/IN1A*%
X-6375000Y-1425000D03*
X9550000Y25000D03*
%TO.N,/half bridges/IN2A*%
X9950000Y450000D03*
X-6950497Y-1450000D03*
%TO.N,/half bridges/IN1B*%
X-13975000Y4500000D03*
X5356234Y4756234D03*
%TO.N,/mcu/TIM4_CH2*%
X-15325000Y-575000D03*
X-7968766Y5718766D03*
D18*
%TO.N,/half bridges/OUT1B*%
X7575000Y6501000D03*
X6625000Y6500000D03*
D19*
%TO.N,/mcu/DIR*%
X2625000Y-3975000D03*
X-4600000Y2075000D03*
X-7525000Y-1450000D03*
%TO.N,/mcu/STEP*%
X-2700000Y-3900000D03*
X-4600497Y2675000D03*
%TO.N,GNDA*%
X-5143750Y6825000D03*
D18*
X3475000Y-11825000D03*
X3475000Y-10900000D03*
D19*
X1506250Y6850000D03*
X1506250Y7500000D03*
D18*
X2325000Y-11850000D03*
D19*
X-5143750Y7475000D03*
%TO.N,/mcu/ADC1_IN12*%
X-14850000Y3675000D03*
X-7000000Y10150497D03*
%TO.N,/mcu/USER_BTN*%
X-11800000Y7800000D03*
X13550000Y4650000D03*
%TD*%
D20*
%TO.N,GND*%
X-12150000Y9500000D02*
X-12775000Y9500000D01*
D21*
X-12100000Y9550000D02*
X-12150000Y9500000D01*
X-12775000Y9500000D02*
X-12850000Y9425000D01*
%TO.N,/mcu/USBD_P*%
X-9625000Y-8850000D02*
X-9650000Y-8850000D01*
X-8825000Y-9650000D02*
X-8150000Y-9650000D01*
X-8150000Y-9650000D02*
X-7475000Y-10325000D01*
X-8825000Y-9650000D02*
X-9625000Y-8850000D01*
X-7475000Y-10325000D02*
X-5375000Y-10325000D01*
%TO.N,/mcu/RESET*%
X-4171889Y-4803111D02*
X-3150000Y-5825000D01*
X-3150000Y-5825000D02*
X-3150000Y-6775000D01*
X-12412500Y8637500D02*
X-15925000Y5125000D01*
X-14659779Y-4803111D02*
X-4171889Y-4803111D01*
X-17025000Y-2437890D02*
X-14659779Y-4803111D01*
X-15925000Y3250000D02*
X-16090686Y3250000D01*
X-17025000Y2315686D02*
X-17025000Y-2437890D01*
X-15925000Y5125000D02*
X-15925000Y3250000D01*
X-16090686Y3250000D02*
X-17025000Y2315686D01*
%TO.N,/current sense/U_SENSE*%
X-15325000Y3275000D02*
X-15325000Y5150000D01*
X-9350000Y8450000D02*
X-7000000Y10800000D01*
X-15325000Y5150000D02*
X-12025000Y8450000D01*
X-12025000Y8450000D02*
X-9350000Y8450000D01*
%TO.N,/mcu/USER_2*%
X-15099736Y-5525000D02*
X-11950000Y-5525000D01*
X-15525241Y-5099495D02*
X-15099736Y-5525000D01*
D20*
%TO.N,Net-(D603-K)*%
X4750000Y-1600000D02*
X5250000Y-1600000D01*
X6175000Y850000D02*
X4275000Y2750000D01*
X5250000Y-1600000D02*
X6175000Y-675000D01*
X6175000Y-675000D02*
X6175000Y850000D01*
D21*
%TO.N,Net-(D601-K)*%
X10925000Y925000D02*
X10575000Y1275000D01*
X6025000Y2500000D02*
X6025000Y5500000D01*
X7250000Y1275000D02*
X6025000Y2500000D01*
X10575000Y1275000D02*
X7250000Y1275000D01*
%TO.N,/usb/UCPD_CC2*%
X-7700000Y-10825000D02*
X-6100000Y-10825000D01*
X-6100000Y-10825000D02*
X-6075000Y-10850000D01*
%TO.N,/half bridges/ENA*%
X9150000Y925000D02*
X7075000Y925000D01*
X-9146889Y-3603111D02*
X-9350000Y-3400000D01*
X9150000Y-400000D02*
X9150000Y925000D01*
X-1282842Y-3125000D02*
X-2482842Y-4325000D01*
X10075000Y925000D02*
X10475000Y525000D01*
X10475000Y-575000D02*
X8125000Y-2925000D01*
X-2952948Y-4325000D02*
X-3674837Y-3603111D01*
X8125000Y-2925000D02*
X4375000Y-2925000D01*
X9525000Y925000D02*
X10075000Y925000D01*
X4250000Y3750000D02*
X4225000Y3750000D01*
X10475000Y525000D02*
X10475000Y-575000D01*
X-3674837Y-3603111D02*
X-9146889Y-3603111D01*
X7075000Y925000D02*
X4250000Y3750000D01*
X1125000Y-3125000D02*
X-1282842Y-3125000D01*
X9525000Y925000D02*
X9150000Y925000D01*
X2400000Y-4400000D02*
X1125000Y-3125000D01*
X-2482842Y-4325000D02*
X-2952948Y-4325000D01*
X4375000Y-2925000D02*
X2900000Y-4400000D01*
X2900000Y-4400000D02*
X2400000Y-4400000D01*
%TO.N,/encoder/SCK*%
X-3367158Y-5325000D02*
X-550000Y-5325000D01*
X-16825000Y-2355048D02*
X-14576937Y-4603111D01*
X-14576937Y-4603111D02*
X-4089047Y-4603111D01*
X-550000Y-5325000D02*
X775000Y-4000000D01*
X-4089047Y-4603111D02*
X-3367158Y-5325000D01*
X-16600000Y2175000D02*
X-16825000Y1950000D01*
X-16825000Y1950000D02*
X-16825000Y-2355048D01*
%TO.N,/encoder/CIPO*%
X-3201474Y-4925000D02*
X-1525000Y-4925000D01*
X-1525000Y-4925000D02*
X-600000Y-4000000D01*
X-16425000Y1025000D02*
X-16425000Y-2189364D01*
X-14411253Y-4203111D02*
X-3923363Y-4203111D01*
X-16425000Y-2189364D02*
X-14411253Y-4203111D01*
X-3923363Y-4203111D02*
X-3201474Y-4925000D01*
X-15900000Y1550000D02*
X-16425000Y1025000D01*
%TO.N,/encoder/COPI*%
X-1062868Y-5125000D02*
X62132Y-4000000D01*
X-4006205Y-4403111D02*
X-3284316Y-5125000D01*
X-15925000Y2175000D02*
X-16625000Y1475000D01*
X-3284316Y-5125000D02*
X-1062868Y-5125000D01*
X-14494095Y-4403111D02*
X-4006205Y-4403111D01*
X-16625000Y-2272206D02*
X-14494095Y-4403111D01*
X-16625000Y1475000D02*
X-16625000Y-2272206D01*
%TO.N,/encoder/CS*%
X-14245569Y-3803111D02*
X-3757679Y-3803111D01*
X-1200000Y-3325000D02*
X750000Y-3325000D01*
X-15575000Y-2473680D02*
X-14245569Y-3803111D01*
X-14700000Y-800000D02*
X-15575000Y-1675000D01*
X-3757679Y-3803111D02*
X-3035790Y-4525000D01*
X750000Y-3325000D02*
X1425000Y-4000000D01*
X-3035790Y-4525000D02*
X-2400000Y-4525000D01*
X-2400000Y-4525000D02*
X-1200000Y-3325000D01*
X-15575000Y-1675000D02*
X-15575000Y-2473680D01*
X-14650000Y-800000D02*
X-14700000Y-800000D01*
%TO.N,/encoder/CAL_EN*%
X-15900000Y400000D02*
X-16225000Y75000D01*
X-14328411Y-4003111D02*
X-3840521Y-4003111D01*
X-16225000Y75000D02*
X-16225000Y-2106522D01*
X-1975000Y-4725000D02*
X-1225000Y-3975000D01*
X-16225000Y-2106522D02*
X-14328411Y-4003111D01*
X-3840521Y-4003111D02*
X-3118632Y-4725000D01*
X-3118632Y-4725000D02*
X-1975000Y-4725000D01*
%TO.N,/mcu/USER_3*%
X-8325000Y-1400000D02*
X-8325000Y-2600000D01*
X-14922442Y-5125000D02*
X-15522442Y-4525000D01*
X-5525000Y3150000D02*
X-5525000Y1400000D01*
X-5525000Y1400000D02*
X-8325000Y-1400000D01*
X-11250000Y-5450000D02*
X-11575000Y-5125000D01*
X-8325000Y-2600000D02*
X-8350000Y-2625000D01*
X-11575000Y-5125000D02*
X-14922442Y-5125000D01*
%TO.N,/mcu/USER_1*%
X-11060733Y-6359180D02*
X-11494913Y-5925000D01*
X-15273931Y-5925000D02*
X-15524934Y-5673997D01*
X-11494913Y-5925000D02*
X-15273931Y-5925000D01*
%TO.N,/half bridges/IN2B*%
X3156250Y8375000D02*
X-6265749Y8375000D01*
X-13834314Y4075000D02*
X-14425000Y4075000D01*
X-10259314Y7650000D02*
X-13834314Y4075000D01*
X4950000Y6581250D02*
X3156250Y8375000D01*
X-6265749Y8375000D02*
X-6990749Y7650000D01*
X4950000Y4350000D02*
X4950000Y6581250D01*
X-6990749Y7650000D02*
X-10259314Y7650000D01*
%TO.N,/mcu/TIM4_CH1*%
X-14750000Y2592158D02*
X-12042158Y5300000D01*
X-14750000Y-150000D02*
X-14750000Y2592158D01*
X-12042158Y5300000D02*
X-7575000Y5300000D01*
%TO.N,/half bridges/IN1A*%
X-6375000Y-2050000D02*
X-6375000Y-1425000D01*
X9550000Y25000D02*
X9550000Y-934316D01*
X-5900000Y-2525000D02*
X-6375000Y-2050000D01*
X7959316Y-2525000D02*
X-5900000Y-2525000D01*
X9550000Y-934316D02*
X7959316Y-2525000D01*
%TO.N,/half bridges/IN2A*%
X9950000Y-817158D02*
X8042158Y-2725000D01*
X8042158Y-2725000D02*
X-6250002Y-2725000D01*
X9950000Y450000D02*
X9950000Y-817158D01*
X-6250002Y-2725000D02*
X-6950497Y-2024505D01*
X-6950497Y-2024505D02*
X-6950497Y-1450000D01*
%TO.N,/half bridges/IN1B*%
X-7073591Y7850000D02*
X-10342156Y7850000D01*
X-6348591Y8575000D02*
X-7073591Y7850000D01*
X5356234Y4756234D02*
X5356234Y6575016D01*
X3356250Y8575000D02*
X-6348591Y8575000D01*
X-13692156Y4500000D02*
X-13975000Y4500000D01*
X-10342156Y7850000D02*
X-13692156Y4500000D01*
X5356234Y6575016D02*
X3356250Y8575000D01*
%TO.N,/mcu/TIM4_CH2*%
X-7975000Y5725000D02*
X-7968766Y5718766D01*
X-15325000Y-575000D02*
X-15325000Y2300000D01*
X-15325000Y2300000D02*
X-11900000Y5725000D01*
X-11900000Y5725000D02*
X-7975000Y5725000D01*
%TO.N,/mcu/DIR*%
X-7525000Y-1165684D02*
X-7525000Y-1450000D01*
X1575000Y-2925000D02*
X-6625000Y-2925000D01*
X-4600000Y1759316D02*
X-7525000Y-1165684D01*
X2625000Y-3975000D02*
X1575000Y-2925000D01*
X-6625000Y-2925000D02*
X-7525000Y-2025000D01*
X-7525000Y-2025000D02*
X-7525000Y-1450000D01*
X-4600000Y2075000D02*
X-4600000Y1759316D01*
%TO.N,/mcu/STEP*%
X-5000000Y2275497D02*
X-5000000Y1642158D01*
X-6707842Y-3125000D02*
X-3475000Y-3125000D01*
X-7950000Y-1882842D02*
X-6707842Y-3125000D01*
X-7950000Y-1307842D02*
X-7950000Y-1882842D01*
X-4600497Y2675000D02*
X-5000000Y2275497D01*
X-5000000Y1642158D02*
X-7950000Y-1307842D01*
X-3475000Y-3125000D02*
X-2700000Y-3900000D01*
%TO.N,/mcu/ADC1_IN12*%
X-7249503Y10150497D02*
X-9150000Y8250000D01*
X-7000000Y10150497D02*
X-7249503Y10150497D01*
X-11942158Y8250000D02*
X-14850000Y5342158D01*
X-9150000Y8250000D02*
X-11942158Y8250000D01*
X-14850000Y5342158D02*
X-14850000Y3675000D01*
%TO.N,/mcu/USER_BTN*%
X12300000Y7325000D02*
X13550000Y6075000D01*
X-6431433Y8775000D02*
X3439092Y8775000D01*
X-11550000Y8050000D02*
X-7156433Y8050000D01*
X4889092Y7325000D02*
X12300000Y7325000D01*
X-11800000Y7800000D02*
X-11550000Y8050000D01*
X3439092Y8775000D02*
X4889092Y7325000D01*
X13550000Y6075000D02*
X13550000Y4650000D01*
X-7156433Y8050000D02*
X-6431433Y8775000D01*
%TD*%
%TA.AperFunction,Conductor*%
%TO.N,GND*%
G36*
X-17276000Y-2972595D02*
G01*
X-17245141Y-2996274D01*
X-16207193Y-4034222D01*
X-16168629Y-4101017D01*
X-16168629Y-4178145D01*
X-16178305Y-4204225D01*
X-16180230Y-4208221D01*
X-16234229Y-4362541D01*
X-16245892Y-4466058D01*
X-16252533Y-4525000D01*
X-16234228Y-4687461D01*
X-16225716Y-4711786D01*
X-16209183Y-4759036D01*
X-16203420Y-4835949D01*
X-16209183Y-4857456D01*
X-16237026Y-4937029D01*
X-16237028Y-4937036D01*
X-16255332Y-5099494D01*
X-16255332Y-5099495D01*
X-16237028Y-5261953D01*
X-16237027Y-5261957D01*
X-16210428Y-5337974D01*
X-16204665Y-5414887D01*
X-16210428Y-5436393D01*
X-16236719Y-5511531D01*
X-16236721Y-5511538D01*
X-16255025Y-5673996D01*
X-16255025Y-5673997D01*
X-16236721Y-5836455D01*
X-16182722Y-5990775D01*
X-16129381Y-6075665D01*
X-16106646Y-6149367D01*
X-16123808Y-6224561D01*
X-16150183Y-6260298D01*
X-16405698Y-6515813D01*
X-16423791Y-6535955D01*
X-16423791Y-6535956D01*
X-16448922Y-6567142D01*
X-16480567Y-6611026D01*
X-16540339Y-6741905D01*
X-16540342Y-6741914D01*
X-16560024Y-6808944D01*
X-16560027Y-6808955D01*
X-16580499Y-6951347D01*
X-16580500Y-6951365D01*
X-16580500Y-8737174D01*
X-16579052Y-8764205D01*
X-16579052Y-8764204D01*
X-16574771Y-8804024D01*
X-16570093Y-8832896D01*
X-16566114Y-8857448D01*
X-16534217Y-8942966D01*
X-16515834Y-8992252D01*
X-16515833Y-8992255D01*
X-16482350Y-9053575D01*
X-16482345Y-9053583D01*
X-16396126Y-9168758D01*
X-16396121Y-9168763D01*
X-15984187Y-9580698D01*
X-15964045Y-9598791D01*
X-15964044Y-9598791D01*
X-15964043Y-9598792D01*
X-15932858Y-9623922D01*
X-15888974Y-9655567D01*
X-15758097Y-9715338D01*
X-15745220Y-9719119D01*
X-15691056Y-9735024D01*
X-15691045Y-9735026D01*
X-15548653Y-9755498D01*
X-15548649Y-9755498D01*
X-15548638Y-9755500D01*
X-15548634Y-9755500D01*
X-14739099Y-9755500D01*
X-14664599Y-9775462D01*
X-14610061Y-9830000D01*
X-14590099Y-9904500D01*
X-14610061Y-9979000D01*
X-14662281Y-10032172D01*
X-14910839Y-10181724D01*
X-15204337Y-10404835D01*
X-15223480Y-10422967D01*
X-13906880Y-11739567D01*
X-13934180Y-11756832D01*
X-14121501Y-11922784D01*
X-14260512Y-12093041D01*
X-15574503Y-10779050D01*
X-15574504Y-10779050D01*
X-15710692Y-10939383D01*
X-15710694Y-10939386D01*
X-15917598Y-11244547D01*
X-16090285Y-11570271D01*
X-16090291Y-11570284D01*
X-16226751Y-11912773D01*
X-16226753Y-11912778D01*
X-16325387Y-12268023D01*
X-16325387Y-12268025D01*
X-16385035Y-12631857D01*
X-16385035Y-12631863D01*
X-16404994Y-12999991D01*
X-16404994Y-13000000D01*
X-16385035Y-13368136D01*
X-16385035Y-13368142D01*
X-16325387Y-13731974D01*
X-16325387Y-13731976D01*
X-16226753Y-14087221D01*
X-16226751Y-14087226D01*
X-16090291Y-14429715D01*
X-16090285Y-14429728D01*
X-15917596Y-14755456D01*
X-15917593Y-14755461D01*
X-15710697Y-15060608D01*
X-15710688Y-15060620D01*
X-15574504Y-15220948D01*
X-15574503Y-15220948D01*
X-14258650Y-13905094D01*
X-14204544Y-13983480D01*
X-14031184Y-14163966D01*
X-13905135Y-14258685D01*
X-15223480Y-15577031D01*
X-15204343Y-15595159D01*
X-15204342Y-15595160D01*
X-14910835Y-15818278D01*
X-14594934Y-16008350D01*
X-14260316Y-16163160D01*
X-14260306Y-16163165D01*
X-13910937Y-16280880D01*
X-13550869Y-16360137D01*
X-13184344Y-16399999D01*
X-13184334Y-16400000D01*
X-12815666Y-16400000D01*
X-12815657Y-16399999D01*
X-12449132Y-16360137D01*
X-12449131Y-16360137D01*
X-12089064Y-16280880D01*
X-11739695Y-16163165D01*
X-11739685Y-16163160D01*
X-11405067Y-16008350D01*
X-11089166Y-15818278D01*
X-10795654Y-15595155D01*
X-10713683Y-15517509D01*
X-10645868Y-15480768D01*
X-10568768Y-15482856D01*
X-10503042Y-15523214D01*
X-10466301Y-15591029D01*
X-10462467Y-15634346D01*
X-10467940Y-15728308D01*
X-10467940Y-15728315D01*
X-10437665Y-15900011D01*
X-10368612Y-16060095D01*
X-10264502Y-16199938D01*
X-10130950Y-16312002D01*
X-10130949Y-16312002D01*
X-10130947Y-16312004D01*
X-9975148Y-16390249D01*
X-9805504Y-16430455D01*
X-9805502Y-16430455D01*
X-9674894Y-16430455D01*
X-9674890Y-16430454D01*
X-9545169Y-16415292D01*
X-9381340Y-16355663D01*
X-9235679Y-16259860D01*
X-9205583Y-16227961D01*
X-9161869Y-16181627D01*
X-9116037Y-16133048D01*
X-9028866Y-15982062D01*
X-8978864Y-15815043D01*
X-8968726Y-15640995D01*
X-8999001Y-15469301D01*
X-9020085Y-15420421D01*
X-9068055Y-15309214D01*
X-9172165Y-15169371D01*
X-9305717Y-15057307D01*
X-9461515Y-14979062D01*
X-9461517Y-14979061D01*
X-9461518Y-14979061D01*
X-9631162Y-14938855D01*
X-9761769Y-14938855D01*
X-9761778Y-14938855D01*
X-9891493Y-14954017D01*
X-9891498Y-14954018D01*
X-9894404Y-14955076D01*
X-9896871Y-14955291D01*
X-9899939Y-14956019D01*
X-9900046Y-14955569D01*
X-9971238Y-14961795D01*
X-10041139Y-14929197D01*
X-10085376Y-14866016D01*
X-10092095Y-14789182D01*
X-10077003Y-14745267D01*
X-9909716Y-14429728D01*
X-9909710Y-14429715D01*
X-9773250Y-14087226D01*
X-9773248Y-14087221D01*
X-9682859Y-13761672D01*
X-5675136Y-13761672D01*
X-5644861Y-13933368D01*
X-5575808Y-14093452D01*
X-5471698Y-14233295D01*
X-5338146Y-14345359D01*
X-5338145Y-14345359D01*
X-5338143Y-14345361D01*
X-5182344Y-14423606D01*
X-5012700Y-14463812D01*
X-5012698Y-14463812D01*
X-4882090Y-14463812D01*
X-4882086Y-14463811D01*
X-4752365Y-14448649D01*
X-4588536Y-14389020D01*
X-4442875Y-14293217D01*
X-4402101Y-14250000D01*
X-4323239Y-14166411D01*
X-4323233Y-14166405D01*
X-4236062Y-14015419D01*
X-4186060Y-13848400D01*
X-4175922Y-13674352D01*
X-4206197Y-13502658D01*
X-4207864Y-13498792D01*
X-4275251Y-13342571D01*
X-4379361Y-13202728D01*
X-4512913Y-13090664D01*
X-4668711Y-13012419D01*
X-4668713Y-13012418D01*
X-4668714Y-13012418D01*
X-4838358Y-12972212D01*
X-4968965Y-12972212D01*
X-4968974Y-12972212D01*
X-5098689Y-12987374D01*
X-5098693Y-12987374D01*
X-5262518Y-13047002D01*
X-5262520Y-13047003D01*
X-5262522Y-13047004D01*
X-5351245Y-13105358D01*
X-5408188Y-13142810D01*
X-5527820Y-13269612D01*
X-5527828Y-13269623D01*
X-5614996Y-13420603D01*
X-5614997Y-13420605D01*
X-5645927Y-13523922D01*
X-5664998Y-13587624D01*
X-5665806Y-13601504D01*
X-5675136Y-13761666D01*
X-5675136Y-13761672D01*
X-9682859Y-13761672D01*
X-9674614Y-13731976D01*
X-9674614Y-13731974D01*
X-9639338Y-13516805D01*
X-9607586Y-13446516D01*
X-9544944Y-13401520D01*
X-9468195Y-13393874D01*
X-9449049Y-13398327D01*
X-9323223Y-13436495D01*
X-9323223Y-12716274D01*
X-9242108Y-12779408D01*
X-9131628Y-12817336D01*
X-9044218Y-12817336D01*
X-8958007Y-12802950D01*
X-8855276Y-12747355D01*
X-8827642Y-12717336D01*
X-8823223Y-12717336D01*
X-8823223Y-13436495D01*
X-8688691Y-13395686D01*
X-8514963Y-13302827D01*
X-8514961Y-13302826D01*
X-8362698Y-13177866D01*
X-8362693Y-13177861D01*
X-8237733Y-13025598D01*
X-8237732Y-13025596D01*
X-8144873Y-12851869D01*
X-8104062Y-12717336D01*
X-8823223Y-12717336D01*
X-8827642Y-12717336D01*
X-8776163Y-12661415D01*
X-8729241Y-12554444D01*
X-8719595Y-12438034D01*
X-8731373Y-12391524D01*
X-8616279Y-12405500D01*
X-8616273Y-12405500D01*
X-7415208Y-12405500D01*
X-7415203Y-12405500D01*
X-7316198Y-12395710D01*
X-7268567Y-12386197D01*
X-7173402Y-12357208D01*
X-7115009Y-12322438D01*
X-7040788Y-12301476D01*
X-6966026Y-12320432D01*
X-6933422Y-12345103D01*
X-6819560Y-12458965D01*
X-6729274Y-12527430D01*
X-6729273Y-12527431D01*
X-6729272Y-12527431D01*
X-6729271Y-12527432D01*
X-6588493Y-12582947D01*
X-6437957Y-12598423D01*
X-6288828Y-12572711D01*
X-6152167Y-12507718D01*
X-6038108Y-12408263D01*
X-5955112Y-12281724D01*
X-5916016Y-12158543D01*
X-5909334Y-12137491D01*
X-5909334Y-12137490D01*
X-5909333Y-12137487D01*
X-5904167Y-11986245D01*
X-5939996Y-11839219D01*
X-5978705Y-11770375D01*
X-5997817Y-11695654D01*
X-5977009Y-11621386D01*
X-5921854Y-11567473D01*
X-5898047Y-11556714D01*
X-5758225Y-11507789D01*
X-5619796Y-11420808D01*
X-5504192Y-11305204D01*
X-5417211Y-11166775D01*
X-5409182Y-11143827D01*
X-5365735Y-11080102D01*
X-5296246Y-11046636D01*
X-5285242Y-11044977D01*
X-5212539Y-11036786D01*
X-5058225Y-10982789D01*
X-4919796Y-10895808D01*
X-4804192Y-10780204D01*
X-4717211Y-10641775D01*
X-4717141Y-10641573D01*
X-4717052Y-10641442D01*
X-4713583Y-10634240D01*
X-4712498Y-10634762D01*
X-4673700Y-10577847D01*
X-4647919Y-10560009D01*
X-4595414Y-10531340D01*
X-4480233Y-10445116D01*
X-3794303Y-9759187D01*
X-3790989Y-9755498D01*
X-3776209Y-9739044D01*
X-3776209Y-9739043D01*
X-3776052Y-9738849D01*
X-3751078Y-9707857D01*
X-3719433Y-9663973D01*
X-3659662Y-9533096D01*
X-3647787Y-9492655D01*
X-3639976Y-9466055D01*
X-3639976Y-9466054D01*
X-3639974Y-9466043D01*
X-3619502Y-9323651D01*
X-3619500Y-9323633D01*
X-3619500Y-7862826D01*
X-3620948Y-7835795D01*
X-3620948Y-7835796D01*
X-3620949Y-7835784D01*
X-3622192Y-7824232D01*
X-3625229Y-7795976D01*
X-3633886Y-7742553D01*
X-3662265Y-7666468D01*
X-3682117Y-7613244D01*
X-3689448Y-7536466D01*
X-3657408Y-7466308D01*
X-3594582Y-7421569D01*
X-3517803Y-7414237D01*
X-3474982Y-7430538D01*
X-3474316Y-7429158D01*
X-3466782Y-7432786D01*
X-3466777Y-7432787D01*
X-3466775Y-7432789D01*
X-3312461Y-7486786D01*
X-3204219Y-7498982D01*
X-3150001Y-7505091D01*
X-3150000Y-7505091D01*
X-3149999Y-7505091D01*
X-3095790Y-7498983D01*
X-2987539Y-7486786D01*
X-2833225Y-7432789D01*
X-2694796Y-7345808D01*
X-2579192Y-7230204D01*
X-2492211Y-7091775D01*
X-2438214Y-6937461D01*
X-2419909Y-6775000D01*
X-2438214Y-6612539D01*
X-2492211Y-6458225D01*
X-2539689Y-6382664D01*
X-2576662Y-6323822D01*
X-2599396Y-6250120D01*
X-2599500Y-6244549D01*
X-2599500Y-6024500D01*
X-2579538Y-5950000D01*
X-2525000Y-5895462D01*
X-2450500Y-5875500D01*
X-559397Y-5875500D01*
X-493174Y-5877762D01*
X-450788Y-5867431D01*
X-443311Y-5866011D01*
X-400080Y-5860070D01*
X-385582Y-5853771D01*
X-361499Y-5845673D01*
X-346148Y-5841933D01*
X-308127Y-5820554D01*
X-301291Y-5817159D01*
X-261280Y-5799780D01*
X-249023Y-5789806D01*
X-228025Y-5775515D01*
X-214241Y-5767766D01*
X-183382Y-5736905D01*
X-177743Y-5731816D01*
X-143892Y-5704278D01*
X-134779Y-5691365D01*
X-118416Y-5671939D01*
X792719Y-4760804D01*
X859512Y-4722242D01*
X881388Y-4718103D01*
X937461Y-4711786D01*
X1050788Y-4672130D01*
X1127699Y-4666366D01*
X1149202Y-4672127D01*
X1262539Y-4711786D01*
X1370408Y-4723940D01*
X1424999Y-4730091D01*
X1425000Y-4730091D01*
X1425001Y-4730091D01*
X1465615Y-4725514D01*
X1587461Y-4711786D01*
X1741775Y-4657789D01*
X1741776Y-4657788D01*
X1749673Y-4655025D01*
X1750325Y-4656888D01*
X1815101Y-4644630D01*
X1887902Y-4670101D01*
X1909331Y-4687855D01*
X2004079Y-4782603D01*
X2049320Y-4831044D01*
X2086594Y-4853710D01*
X2092906Y-4858007D01*
X2127656Y-4884360D01*
X2127657Y-4884360D01*
X2127658Y-4884361D01*
X2142361Y-4890159D01*
X2165113Y-4901459D01*
X2178618Y-4909672D01*
X2220632Y-4921443D01*
X2227853Y-4923872D01*
X2261229Y-4937034D01*
X2268436Y-4939876D01*
X2284154Y-4941492D01*
X2309116Y-4946236D01*
X2316589Y-4948329D01*
X2324335Y-4950500D01*
X2367952Y-4950500D01*
X2375575Y-4950891D01*
X2388715Y-4952241D01*
X2418971Y-4955352D01*
X2434544Y-4952666D01*
X2459861Y-4950500D01*
X2890603Y-4950500D01*
X2956826Y-4952762D01*
X2999212Y-4942431D01*
X3006689Y-4941011D01*
X3049920Y-4935070D01*
X3064418Y-4928771D01*
X3088501Y-4920673D01*
X3103852Y-4916933D01*
X3141873Y-4895554D01*
X3148709Y-4892159D01*
X3188720Y-4874780D01*
X3200977Y-4864806D01*
X3221975Y-4850515D01*
X3235759Y-4842766D01*
X3266618Y-4811905D01*
X3272257Y-4806816D01*
X3306108Y-4779278D01*
X3315221Y-4766365D01*
X3331584Y-4746939D01*
X4559384Y-3519141D01*
X4626179Y-3480577D01*
X4664743Y-3475500D01*
X7770500Y-3475500D01*
X7845000Y-3495462D01*
X7899538Y-3550000D01*
X7919500Y-3624500D01*
X7919500Y-4637174D01*
X7920948Y-4664205D01*
X7920948Y-4664204D01*
X7925229Y-4704024D01*
X7930903Y-4739043D01*
X7933886Y-4757448D01*
X7971188Y-4857456D01*
X7984166Y-4892252D01*
X7984167Y-4892255D01*
X8017650Y-4953575D01*
X8017655Y-4953583D01*
X8103874Y-5068758D01*
X8103879Y-5068763D01*
X8840813Y-5805698D01*
X8860955Y-5823791D01*
X8860956Y-5823791D01*
X8860957Y-5823792D01*
X8892142Y-5848922D01*
X8936026Y-5880567D01*
X9066903Y-5940338D01*
X9090899Y-5947384D01*
X9133944Y-5960024D01*
X9133955Y-5960026D01*
X9276347Y-5980498D01*
X9276351Y-5980498D01*
X9276362Y-5980500D01*
X10194898Y-5980500D01*
X10269398Y-6000462D01*
X10323936Y-6055000D01*
X10343898Y-6129500D01*
X10323936Y-6204000D01*
X10300257Y-6234859D01*
X9159257Y-7375859D01*
X9092462Y-7414423D01*
X9053898Y-7419500D01*
X8748046Y-7419500D01*
X8736827Y-7420248D01*
X8714432Y-7421743D01*
X8714425Y-7421744D01*
X8665081Y-7428359D01*
X8665076Y-7428359D01*
X8665076Y-7428360D01*
X8599111Y-7441723D01*
X8599110Y-7441723D01*
X8599107Y-7441724D01*
X8599103Y-7441725D01*
X8467114Y-7498982D01*
X8467107Y-7498986D01*
X8466728Y-7499220D01*
X8464341Y-7500523D01*
X8461208Y-7502620D01*
X8426867Y-7523774D01*
X8414102Y-7527587D01*
X8379737Y-7552555D01*
X8376299Y-7554857D01*
X8375021Y-7555981D01*
X8309095Y-7603879D01*
X8282098Y-7623493D01*
X8255121Y-7639068D01*
X8207888Y-7660097D01*
X8178268Y-7669721D01*
X8127681Y-7680475D01*
X8096698Y-7683732D01*
X8044989Y-7683732D01*
X8014012Y-7680476D01*
X7963425Y-7669723D01*
X7933803Y-7660099D01*
X7886564Y-7639066D01*
X7859590Y-7623493D01*
X7755224Y-7547667D01*
X7747299Y-7541794D01*
X7741290Y-7537111D01*
X7737609Y-7534612D01*
X7717134Y-7519436D01*
X7717129Y-7519433D01*
X7685725Y-7505091D01*
X7586252Y-7459662D01*
X7586249Y-7459661D01*
X7586240Y-7459658D01*
X7519211Y-7439976D01*
X7519210Y-7439975D01*
X7519199Y-7439973D01*
X7376807Y-7419501D01*
X7376795Y-7419500D01*
X7376793Y-7419500D01*
X2212823Y-7419500D01*
X2205219Y-7419907D01*
X2185795Y-7420948D01*
X2185789Y-7420948D01*
X2185784Y-7420949D01*
X2174232Y-7422191D01*
X2145976Y-7425229D01*
X2092556Y-7433885D01*
X2092554Y-7433885D01*
X2092552Y-7433886D01*
X2026237Y-7458620D01*
X1957747Y-7484166D01*
X1957744Y-7484167D01*
X1896424Y-7517650D01*
X1896416Y-7517655D01*
X1781241Y-7603874D01*
X1781236Y-7603879D01*
X828157Y-8556957D01*
X761362Y-8595521D01*
X684234Y-8595521D01*
X617439Y-8556957D01*
X581093Y-8497646D01*
X527179Y-8331716D01*
X432533Y-8167784D01*
X432532Y-8167783D01*
X432530Y-8167779D01*
X305872Y-8027113D01*
X152727Y-7915847D01*
X-20195Y-7838857D01*
X-20197Y-7838856D01*
X-126640Y-7816231D01*
X-205352Y-7799500D01*
X-205354Y-7799500D01*
X-394646Y-7799500D01*
X-394648Y-7799500D01*
X-494608Y-7820747D01*
X-579803Y-7838856D01*
X-579805Y-7838856D01*
X-579806Y-7838857D01*
X-752728Y-7915847D01*
X-905873Y-8027113D01*
X-1032531Y-8167779D01*
X-1127178Y-8331714D01*
X-1127181Y-8331721D01*
X-1185675Y-8511745D01*
X-1205460Y-8700000D01*
X-1185675Y-8888254D01*
X-1151882Y-8992257D01*
X-1127179Y-9068284D01*
X-1127176Y-9068289D01*
X-1067876Y-9171001D01*
X-1047914Y-9245501D01*
X-1067877Y-9320001D01*
X-1122415Y-9374538D01*
X-1196914Y-9394500D01*
X-1937177Y-9394500D01*
X-1944781Y-9394907D01*
X-1964205Y-9395948D01*
X-1964211Y-9395948D01*
X-1964216Y-9395949D01*
X-1975768Y-9397191D01*
X-2004024Y-9400229D01*
X-2057444Y-9408885D01*
X-2057446Y-9408885D01*
X-2057448Y-9408886D01*
X-2105420Y-9426779D01*
X-2192253Y-9459166D01*
X-2192256Y-9459167D01*
X-2253576Y-9492650D01*
X-2253584Y-9492655D01*
X-2368759Y-9578874D01*
X-3155698Y-10365813D01*
X-3173791Y-10385955D01*
X-3173792Y-10385957D01*
X-3189012Y-10404844D01*
X-3198922Y-10417142D01*
X-3230567Y-10461026D01*
X-3290339Y-10591905D01*
X-3290342Y-10591914D01*
X-3310024Y-10658944D01*
X-3310027Y-10658955D01*
X-3330499Y-10801347D01*
X-3330500Y-10801365D01*
X-3330500Y-12337174D01*
X-3329052Y-12364205D01*
X-3329052Y-12364204D01*
X-3324771Y-12404024D01*
X-3324769Y-12404036D01*
X-3316114Y-12457448D01*
X-3290011Y-12527431D01*
X-3265834Y-12592252D01*
X-3265833Y-12592255D01*
X-3232350Y-12653575D01*
X-3232345Y-12653583D01*
X-3146126Y-12768758D01*
X-3146121Y-12768763D01*
X-2434187Y-13480698D01*
X-2414045Y-13498791D01*
X-2414044Y-13498791D01*
X-2414043Y-13498792D01*
X-2382858Y-13523922D01*
X-2338974Y-13555567D01*
X-2208097Y-13615338D01*
X-2184101Y-13622384D01*
X-2141056Y-13635024D01*
X-2141045Y-13635026D01*
X-1998653Y-13655498D01*
X-1998649Y-13655498D01*
X-1998638Y-13655500D01*
X-1548536Y-13655500D01*
X-1474036Y-13675462D01*
X-1419498Y-13730000D01*
X-1399536Y-13804500D01*
X-1419498Y-13879000D01*
X-1426478Y-13889955D01*
X-1428872Y-13893375D01*
X-1449033Y-13922166D01*
X-1462008Y-13949991D01*
X-1525999Y-14087221D01*
X-1548904Y-14136340D01*
X-1610063Y-14364590D01*
X-1610063Y-14364592D01*
X-1625500Y-14541034D01*
X-1625500Y-14908966D01*
X-1616341Y-15013647D01*
X-1610063Y-15085409D01*
X-1587565Y-15169372D01*
X-1548903Y-15313663D01*
X-1449035Y-15527829D01*
X-1313495Y-15721401D01*
X-1146401Y-15888495D01*
X-952830Y-16024035D01*
X-738663Y-16123903D01*
X-510408Y-16185063D01*
X-275000Y-16205659D01*
X-39592Y-16185063D01*
X188663Y-16123903D01*
X402829Y-16024035D01*
X596401Y-15888495D01*
X763495Y-15721401D01*
X852948Y-15593648D01*
X912029Y-15544073D01*
X987986Y-15530680D01*
X1060463Y-15557059D01*
X1097051Y-15593647D01*
X1186505Y-15721401D01*
X1353599Y-15888495D01*
X1547170Y-16024035D01*
X1761337Y-16123903D01*
X1989592Y-16185063D01*
X2225000Y-16205659D01*
X2460408Y-16185063D01*
X2688663Y-16123903D01*
X2902829Y-16024035D01*
X3096401Y-15888495D01*
X3263495Y-15721401D01*
X3353252Y-15593214D01*
X3412334Y-15543637D01*
X3488291Y-15530244D01*
X3560767Y-15556623D01*
X3597359Y-15593214D01*
X3686891Y-15721079D01*
X3853923Y-15888111D01*
X4047411Y-16023593D01*
X4047420Y-16023599D01*
X4261508Y-16123430D01*
X4261513Y-16123432D01*
X4475000Y-16180634D01*
X4475000Y-15133018D01*
X4589801Y-15185446D01*
X4691025Y-15200000D01*
X4758975Y-15200000D01*
X4860199Y-15185446D01*
X4975000Y-15133018D01*
X4975000Y-16180633D01*
X5188486Y-16123432D01*
X5402580Y-16023597D01*
X5596079Y-15888108D01*
X5720974Y-15763213D01*
X5787768Y-15724649D01*
X5864896Y-15724649D01*
X5931692Y-15763213D01*
X5953146Y-15790347D01*
X6032288Y-15918656D01*
X6156344Y-16042712D01*
X6305666Y-16134814D01*
X6472203Y-16189999D01*
X6574991Y-16200500D01*
X7875008Y-16200499D01*
X7977797Y-16189999D01*
X8144334Y-16134814D01*
X8293656Y-16042712D01*
X8417712Y-15918656D01*
X8509814Y-15769334D01*
X8564999Y-15602797D01*
X8575500Y-15500009D01*
X8575499Y-13949992D01*
X8564999Y-13847203D01*
X8509814Y-13680666D01*
X8417712Y-13531344D01*
X8293656Y-13407288D01*
X8144334Y-13315186D01*
X8061065Y-13287593D01*
X7977798Y-13260001D01*
X7960665Y-13258250D01*
X7875009Y-13249500D01*
X7875004Y-13249500D01*
X6574996Y-13249500D01*
X6472202Y-13260001D01*
X6305666Y-13315186D01*
X6156343Y-13407288D01*
X6032288Y-13531343D01*
X5953150Y-13659648D01*
X5897049Y-13712577D01*
X5822000Y-13730364D01*
X5748112Y-13708244D01*
X5720974Y-13686786D01*
X5596076Y-13561888D01*
X5402588Y-13426406D01*
X5402579Y-13426400D01*
X5188491Y-13326569D01*
X5188489Y-13326568D01*
X4975000Y-13269364D01*
X4975000Y-14316981D01*
X4860199Y-14264554D01*
X4758975Y-14250000D01*
X4691025Y-14250000D01*
X4589801Y-14264554D01*
X4475000Y-14316981D01*
X4475000Y-13269364D01*
X4474999Y-13269364D01*
X4261512Y-13326568D01*
X4047419Y-13426402D01*
X3853920Y-13561891D01*
X3686888Y-13728923D01*
X3597358Y-13856785D01*
X3538274Y-13906362D01*
X3462318Y-13919755D01*
X3389842Y-13893375D01*
X3353251Y-13856785D01*
X3347380Y-13848400D01*
X3263495Y-13728599D01*
X3096401Y-13561505D01*
X2902830Y-13425965D01*
X2688663Y-13326097D01*
X2688661Y-13326096D01*
X2460409Y-13264937D01*
X2225000Y-13244341D01*
X1989590Y-13264937D01*
X1960300Y-13272785D01*
X1883172Y-13272783D01*
X1816378Y-13234218D01*
X1777815Y-13167422D01*
X1777817Y-13090294D01*
X1816380Y-13023502D01*
X1824819Y-13015064D01*
X1892626Y-12930922D01*
X1902883Y-12914962D01*
X1959950Y-12863082D01*
X2035316Y-12846686D01*
X2049432Y-12848033D01*
X2062331Y-12849888D01*
X2101352Y-12855499D01*
X2101358Y-12855499D01*
X2101362Y-12855500D01*
X2101366Y-12855500D01*
X3694155Y-12855500D01*
X3694161Y-12855500D01*
X3765304Y-12848034D01*
X3799096Y-12844488D01*
X3799098Y-12844487D01*
X3799103Y-12844487D01*
X3849465Y-12833799D01*
X3949828Y-12801243D01*
X4071653Y-12724690D01*
X4124919Y-12679475D01*
X4185542Y-12610933D01*
X4249849Y-12568356D01*
X4313832Y-12561586D01*
X4474999Y-12579746D01*
X4475001Y-12579746D01*
X4642948Y-12560822D01*
X4801714Y-12505267D01*
X4406079Y-12109632D01*
X4367515Y-12042837D01*
X4363254Y-11988703D01*
X4380460Y-11825000D01*
X4828553Y-11825000D01*
X5155267Y-12151714D01*
X5210822Y-11992948D01*
X5229746Y-11825001D01*
X5229746Y-11824998D01*
X5210822Y-11657051D01*
X5155267Y-11498284D01*
X4828553Y-11824999D01*
X4828553Y-11825000D01*
X4380460Y-11825000D01*
X4363565Y-11664255D01*
X4375631Y-11588079D01*
X4401150Y-11548839D01*
X4405535Y-11543983D01*
X4405536Y-11543981D01*
X4405542Y-11543975D01*
X4405538Y-11543978D01*
X4412506Y-11534865D01*
X4419012Y-11527433D01*
X4475001Y-11471446D01*
X4801714Y-11144731D01*
X4655288Y-11093494D01*
X4591562Y-11050046D01*
X4558097Y-10980556D01*
X4555500Y-10952856D01*
X4555500Y-10587826D01*
X4554052Y-10560795D01*
X4554052Y-10560796D01*
X4554051Y-10560784D01*
X4550885Y-10531338D01*
X4549771Y-10520976D01*
X4539943Y-10460325D01*
X4541160Y-10460127D01*
X4541363Y-10390518D01*
X4580121Y-10323835D01*
X4647027Y-10285466D01*
X4685173Y-10280500D01*
X10627418Y-10280500D01*
X10701918Y-10300462D01*
X10756456Y-10355000D01*
X10773989Y-10420436D01*
X12093120Y-11739567D01*
X12065820Y-11756832D01*
X11878499Y-11922784D01*
X11739488Y-12093041D01*
X10425497Y-10779050D01*
X10425496Y-10779050D01*
X10289308Y-10939383D01*
X10289306Y-10939386D01*
X10082402Y-11244547D01*
X9909715Y-11570271D01*
X9909709Y-11570284D01*
X9773249Y-11912773D01*
X9773247Y-11912778D01*
X9674613Y-12268023D01*
X9674613Y-12268025D01*
X9614965Y-12631857D01*
X9614965Y-12631863D01*
X9595006Y-12999991D01*
X9595006Y-13000000D01*
X9614965Y-13368136D01*
X9614965Y-13368142D01*
X9674613Y-13731974D01*
X9674613Y-13731976D01*
X9773247Y-14087221D01*
X9773249Y-14087226D01*
X9909709Y-14429715D01*
X9909715Y-14429728D01*
X10082404Y-14755456D01*
X10082407Y-14755461D01*
X10289303Y-15060608D01*
X10289312Y-15060620D01*
X10425496Y-15220948D01*
X10425497Y-15220948D01*
X11741350Y-13905094D01*
X11795456Y-13983480D01*
X11968816Y-14163966D01*
X12094865Y-14258686D01*
X10776520Y-15577031D01*
X10795657Y-15595159D01*
X10795658Y-15595160D01*
X11089165Y-15818278D01*
X11405066Y-16008350D01*
X11739684Y-16163160D01*
X11739694Y-16163165D01*
X12089063Y-16280880D01*
X12449131Y-16360137D01*
X12815656Y-16399999D01*
X12815666Y-16400000D01*
X13184334Y-16400000D01*
X13184343Y-16399999D01*
X13550868Y-16360137D01*
X13550869Y-16360137D01*
X13910936Y-16280880D01*
X14260305Y-16163165D01*
X14260315Y-16163160D01*
X14594933Y-16008350D01*
X14910834Y-15818278D01*
X15204352Y-15595151D01*
X15223479Y-15577032D01*
X13906879Y-14260432D01*
X13934180Y-14243168D01*
X14121501Y-14077216D01*
X14260511Y-13906958D01*
X15574501Y-15220948D01*
X15710690Y-15060617D01*
X15710694Y-15060611D01*
X15917592Y-14755461D01*
X15917595Y-14755456D01*
X16090284Y-14429728D01*
X16090290Y-14429715D01*
X16226750Y-14087226D01*
X16226752Y-14087221D01*
X16325386Y-13731976D01*
X16325386Y-13731974D01*
X16385034Y-13368142D01*
X16385034Y-13368136D01*
X16404994Y-13000000D01*
X16404994Y-12999991D01*
X16385034Y-12631863D01*
X16385034Y-12631857D01*
X16325386Y-12268025D01*
X16325386Y-12268023D01*
X16226752Y-11912778D01*
X16226750Y-11912773D01*
X16090290Y-11570284D01*
X16090284Y-11570271D01*
X15917595Y-11244543D01*
X15917592Y-11244538D01*
X15710696Y-10939391D01*
X15710687Y-10939379D01*
X15574502Y-10779050D01*
X15574501Y-10779050D01*
X14258648Y-12094903D01*
X14204544Y-12016520D01*
X14031184Y-11836034D01*
X13905132Y-11741312D01*
X15223479Y-10422966D01*
X15204347Y-10404844D01*
X14910834Y-10181721D01*
X14594933Y-9991649D01*
X14260315Y-9836839D01*
X14260305Y-9836834D01*
X13910936Y-9719119D01*
X13550868Y-9639862D01*
X13184343Y-9600000D01*
X12974601Y-9600000D01*
X12900101Y-9580038D01*
X12845563Y-9525500D01*
X12825601Y-9451000D01*
X12845563Y-9376500D01*
X12869238Y-9345645D01*
X17245143Y-4969741D01*
X17311936Y-4931179D01*
X17389064Y-4931179D01*
X17455859Y-4969743D01*
X17494423Y-5036538D01*
X17499500Y-5075102D01*
X17499500Y-13000000D01*
X17491009Y-13194464D01*
X17481739Y-13394954D01*
X17481181Y-13401240D01*
X17454816Y-13601504D01*
X17427749Y-13795542D01*
X17426697Y-13801376D01*
X17382737Y-13999668D01*
X17338052Y-14189652D01*
X17336583Y-14194999D01*
X17275346Y-14389219D01*
X17213384Y-14574092D01*
X17211574Y-14578928D01*
X17133501Y-14767416D01*
X17089966Y-14866016D01*
X17054759Y-14945751D01*
X17052689Y-14950060D01*
X16958309Y-15131363D01*
X16863440Y-15301682D01*
X16861188Y-15305458D01*
X16751235Y-15478055D01*
X16640992Y-15638989D01*
X16638634Y-15642239D01*
X16513912Y-15804782D01*
X16389175Y-15954996D01*
X16386786Y-15957734D01*
X16248258Y-16108911D01*
X16108911Y-16248258D01*
X15957734Y-16386786D01*
X15954996Y-16389175D01*
X15804782Y-16513912D01*
X15642239Y-16638634D01*
X15638989Y-16640992D01*
X15478055Y-16751235D01*
X15305458Y-16861188D01*
X15301682Y-16863440D01*
X15131363Y-16958309D01*
X14950060Y-17052689D01*
X14945751Y-17054759D01*
X14897214Y-17076190D01*
X14767416Y-17133501D01*
X14578928Y-17211574D01*
X14574092Y-17213384D01*
X14389219Y-17275346D01*
X14194999Y-17336583D01*
X14189652Y-17338052D01*
X13999668Y-17382737D01*
X13801376Y-17426697D01*
X13795542Y-17427749D01*
X13601504Y-17454816D01*
X13401240Y-17481181D01*
X13394954Y-17481739D01*
X13194464Y-17491009D01*
X13000000Y-17499500D01*
X-5491001Y-17499500D01*
X-5565501Y-17479538D01*
X-5620039Y-17425000D01*
X-5640001Y-17350500D01*
X-5620039Y-17276000D01*
X-5601729Y-17250799D01*
X-5517470Y-17157220D01*
X-5517469Y-17157218D01*
X-5517467Y-17157216D01*
X-5422821Y-16993284D01*
X-5364326Y-16813256D01*
X-5344540Y-16625000D01*
X-5364326Y-16436744D01*
X-5421670Y-16260261D01*
X-5424793Y-16200676D01*
X-5445960Y-16192267D01*
X-5486021Y-16147251D01*
X-5494218Y-16133054D01*
X-5517467Y-16092784D01*
X-5517468Y-16092783D01*
X-5517470Y-16092779D01*
X-5644128Y-15952113D01*
X-5677273Y-15928032D01*
X-5797270Y-15840849D01*
X-5797271Y-15840848D01*
X-5797273Y-15840847D01*
X-5970195Y-15763857D01*
X-5970197Y-15763856D01*
X-6005567Y-15756338D01*
X-5287412Y-15756338D01*
X-5257137Y-15928034D01*
X-5220169Y-16013735D01*
X-5209181Y-16088754D01*
X-5180262Y-16103489D01*
X-5160446Y-16125241D01*
X-5083974Y-16227961D01*
X-4950422Y-16340025D01*
X-4950421Y-16340025D01*
X-4950419Y-16340027D01*
X-4794620Y-16418272D01*
X-4624976Y-16458478D01*
X-4624974Y-16458478D01*
X-4494366Y-16458478D01*
X-4494362Y-16458477D01*
X-4364641Y-16443315D01*
X-4200812Y-16383686D01*
X-4055151Y-16287883D01*
X-3935509Y-16161071D01*
X-3848338Y-16010085D01*
X-3798336Y-15843066D01*
X-3788198Y-15669018D01*
X-3818473Y-15497324D01*
X-3825614Y-15480768D01*
X-3887527Y-15337237D01*
X-3991637Y-15197394D01*
X-4125189Y-15085330D01*
X-4280987Y-15007085D01*
X-4280989Y-15007084D01*
X-4280990Y-15007084D01*
X-4450634Y-14966878D01*
X-4581241Y-14966878D01*
X-4581250Y-14966878D01*
X-4710965Y-14982040D01*
X-4710969Y-14982040D01*
X-4874794Y-15041668D01*
X-4874796Y-15041669D01*
X-4874798Y-15041670D01*
X-4974745Y-15107406D01*
X-5020464Y-15137476D01*
X-5140096Y-15264278D01*
X-5140104Y-15264289D01*
X-5227272Y-15415269D01*
X-5227273Y-15415271D01*
X-5252641Y-15500009D01*
X-5275699Y-15577031D01*
X-5277274Y-15582291D01*
X-5287412Y-15756332D01*
X-5287412Y-15756338D01*
X-6005567Y-15756338D01*
X-6076640Y-15741231D01*
X-6155352Y-15724500D01*
X-6155354Y-15724500D01*
X-6344646Y-15724500D01*
X-6344648Y-15724500D01*
X-6428582Y-15742341D01*
X-6529803Y-15763856D01*
X-6529805Y-15763856D01*
X-6529806Y-15763857D01*
X-6702728Y-15840847D01*
X-6855873Y-15952113D01*
X-6982531Y-16092779D01*
X-7077178Y-16256714D01*
X-7077181Y-16256721D01*
X-7135675Y-16436745D01*
X-7155460Y-16625000D01*
X-7135675Y-16813254D01*
X-7088545Y-16958304D01*
X-7077179Y-16993284D01*
X-7041689Y-17054754D01*
X-6982531Y-17157220D01*
X-6898271Y-17250799D01*
X-6863255Y-17319521D01*
X-6867291Y-17396543D01*
X-6909298Y-17461228D01*
X-6978020Y-17496244D01*
X-7008999Y-17499500D01*
X-13000000Y-17499500D01*
X-13194465Y-17491009D01*
X-13394956Y-17481739D01*
X-13401242Y-17481181D01*
X-13601505Y-17454816D01*
X-13795544Y-17427749D01*
X-13801379Y-17426697D01*
X-13999708Y-17382728D01*
X-14189637Y-17338057D01*
X-14194984Y-17336588D01*
X-14389288Y-17275325D01*
X-14510529Y-17234690D01*
X-14574085Y-17213388D01*
X-14578912Y-17211581D01*
X-14767478Y-17133475D01*
X-14945763Y-17054754D01*
X-14950072Y-17052683D01*
X-15131373Y-16958304D01*
X-15301684Y-16863441D01*
X-15305461Y-16861189D01*
X-15478070Y-16751225D01*
X-15639002Y-16640984D01*
X-15642252Y-16638626D01*
X-15804792Y-16513905D01*
X-15954981Y-16389190D01*
X-15957719Y-16386801D01*
X-16108936Y-16248236D01*
X-16248237Y-16108935D01*
X-16263041Y-16092779D01*
X-16386808Y-15957712D01*
X-16389192Y-15954979D01*
X-16513906Y-15804791D01*
X-16638628Y-15642250D01*
X-16640986Y-15639000D01*
X-16640994Y-15638989D01*
X-16751226Y-15478069D01*
X-16791234Y-15415269D01*
X-16861198Y-15305447D01*
X-16863444Y-15301681D01*
X-16908412Y-15220948D01*
X-16958310Y-15131363D01*
X-17052690Y-14950060D01*
X-17054745Y-14945784D01*
X-17133478Y-14767471D01*
X-17211591Y-14578890D01*
X-17213386Y-14574092D01*
X-17275320Y-14389308D01*
X-17336592Y-14194976D01*
X-17338055Y-14189652D01*
X-17382738Y-13999668D01*
X-17386327Y-13983480D01*
X-17426705Y-13801345D01*
X-17427745Y-13795578D01*
X-17454817Y-13601504D01*
X-17481185Y-13401221D01*
X-17481740Y-13394966D01*
X-17491004Y-13194602D01*
X-17499500Y-13000000D01*
X-17499500Y-12999500D01*
X-17499500Y-3101633D01*
X-17479538Y-3027133D01*
X-17425000Y-2972595D01*
X-17350500Y-2952633D01*
X-17276000Y-2972595D01*
G37*
%TD.AperFunction*%
%TA.AperFunction,Conductor*%
G36*
X-4387132Y-5373573D02*
G01*
X-4356273Y-5397252D01*
X-3744141Y-6009383D01*
X-3705577Y-6076178D01*
X-3700500Y-6114742D01*
X-3700500Y-6244549D01*
X-3720462Y-6319049D01*
X-3723338Y-6323822D01*
X-3807788Y-6458222D01*
X-3861787Y-6612541D01*
X-3880091Y-6774999D01*
X-3880091Y-6775000D01*
X-3861786Y-6937460D01*
X-3842785Y-6991763D01*
X-3837022Y-7068676D01*
X-3870487Y-7138165D01*
X-3934213Y-7181613D01*
X-4011126Y-7187376D01*
X-4080615Y-7153911D01*
X-4088783Y-7146333D01*
X-4243353Y-6991763D01*
X-4649580Y-6585535D01*
X-4655990Y-6579349D01*
X-4662580Y-6573101D01*
X-4780766Y-6491043D01*
X-4780769Y-6491041D01*
X-4826690Y-6468055D01*
X-4843245Y-6459768D01*
X-4979758Y-6414331D01*
X-4979760Y-6414330D01*
X-4979763Y-6414330D01*
X-5123545Y-6409194D01*
X-5123552Y-6409194D01*
X-5189065Y-6416237D01*
X-5193017Y-6416662D01*
X-5193028Y-6416663D01*
X-5193030Y-6416663D01*
X-5336020Y-6453161D01*
X-5413142Y-6452244D01*
X-5479474Y-6412889D01*
X-5498211Y-6389353D01*
X-5561126Y-6291457D01*
X-5606881Y-6238653D01*
X-5619562Y-6227664D01*
X-5715617Y-6144431D01*
X-5846490Y-6084663D01*
X-5846492Y-6084662D01*
X-5846497Y-6084660D01*
X-5846504Y-6084658D01*
X-5913533Y-6064976D01*
X-5913534Y-6064975D01*
X-5913545Y-6064973D01*
X-6055937Y-6044501D01*
X-6055949Y-6044500D01*
X-6055951Y-6044500D01*
X-8285727Y-6044500D01*
X-8360227Y-6024538D01*
X-8414765Y-5970000D01*
X-8434010Y-5910104D01*
X-8441247Y-5836627D01*
X-8498428Y-5648129D01*
X-8498428Y-5648127D01*
X-8538665Y-5572848D01*
X-8556178Y-5497735D01*
X-8533789Y-5423928D01*
X-8477495Y-5371204D01*
X-8407258Y-5353611D01*
X-4461632Y-5353611D01*
X-4387132Y-5373573D01*
G37*
%TD.AperFunction*%
%TA.AperFunction,Conductor*%
G36*
X-2789688Y7804538D02*
G01*
X-2735150Y7750000D01*
X-2723551Y7724715D01*
X-2682789Y7608225D01*
X-2595808Y7469796D01*
X-2480204Y7354192D01*
X-2341775Y7267211D01*
X-2187461Y7213214D01*
X-2094147Y7202700D01*
X-2025001Y7194909D01*
X-2025000Y7194909D01*
X-2024999Y7194909D01*
X-1963069Y7201887D01*
X-1862539Y7213214D01*
X-1708225Y7267211D01*
X-1569796Y7354192D01*
X-1454192Y7469796D01*
X-1367211Y7608225D01*
X-1326451Y7724713D01*
X-1283003Y7788438D01*
X-1213513Y7821902D01*
X-1185812Y7824500D01*
X645991Y7824500D01*
X720491Y7804538D01*
X775029Y7750000D01*
X794991Y7675500D01*
X794054Y7658828D01*
X776159Y7500000D01*
X794464Y7337539D01*
X803211Y7312541D01*
X834119Y7224211D01*
X839882Y7147299D01*
X834119Y7125789D01*
X794464Y7012461D01*
X776159Y6850001D01*
X776159Y6850000D01*
X794463Y6687542D01*
X794463Y6687540D01*
X794464Y6687539D01*
X848461Y6533225D01*
X935442Y6394796D01*
X1051046Y6279192D01*
X1189475Y6192211D01*
X1343789Y6138214D01*
X1452096Y6126011D01*
X1506249Y6119909D01*
X1506250Y6119909D01*
X1506251Y6119909D01*
X1546865Y6124486D01*
X1668711Y6138214D01*
X1823025Y6192211D01*
X1961454Y6279192D01*
X2077058Y6394796D01*
X2164039Y6533225D01*
X2218036Y6687539D01*
X2236341Y6850000D01*
X2218036Y7012461D01*
X2178380Y7125789D01*
X2172616Y7202700D01*
X2178381Y7224212D01*
X2193428Y7267213D01*
X2218036Y7337539D01*
X2236341Y7500000D01*
X2218446Y7658820D01*
X2229941Y7735083D01*
X2278029Y7795385D01*
X2349826Y7823563D01*
X2366509Y7824500D01*
X2866507Y7824500D01*
X2941007Y7804538D01*
X2971866Y7780859D01*
X4031137Y6721588D01*
X4069701Y6654793D01*
X4069701Y6577665D01*
X4031137Y6510870D01*
X3964342Y6472306D01*
X3956758Y6470485D01*
X3843740Y6446462D01*
X3795197Y6436144D01*
X3795196Y6436144D01*
X3795193Y6436143D01*
X3622272Y6359153D01*
X3469127Y6247887D01*
X3342469Y6107221D01*
X3247822Y5943286D01*
X3247819Y5943279D01*
X3189325Y5763255D01*
X3169540Y5575000D01*
X3189325Y5386746D01*
X3245328Y5214388D01*
X3247821Y5206716D01*
X3247823Y5206711D01*
X3250998Y5199582D01*
X3248345Y5198401D01*
X3264588Y5137699D01*
X3248349Y5077098D01*
X3250998Y5075918D01*
X3247819Y5068779D01*
X3189325Y4888755D01*
X3169540Y4700500D01*
X3189325Y4512246D01*
X3189326Y4512244D01*
X3247821Y4332216D01*
X3247822Y4332215D01*
X3342469Y4168280D01*
X3474354Y4021809D01*
X3472090Y4019771D01*
X3506002Y3967538D01*
X3512353Y3904828D01*
X3501603Y3809413D01*
X3494909Y3750000D01*
X3513214Y3587539D01*
X3536817Y3520085D01*
X3569185Y3427583D01*
X3574948Y3350671D01*
X3545550Y3289626D01*
X3547056Y3288532D01*
X3542466Y3282216D01*
X3447822Y3118286D01*
X3447819Y3118279D01*
X3389325Y2938255D01*
X3369540Y2750000D01*
X3389325Y2561746D01*
X3429951Y2436714D01*
X3447821Y2381716D01*
X3493605Y2302415D01*
X3542469Y2217780D01*
X3648520Y2100000D01*
X3669129Y2077112D01*
X3822270Y1965849D01*
X3995197Y1888856D01*
X4136315Y1858861D01*
X4180352Y1849500D01*
X4180354Y1849500D01*
X4264547Y1849500D01*
X4339047Y1829538D01*
X4369906Y1805859D01*
X4485244Y1690521D01*
X4523808Y1623726D01*
X4523808Y1546598D01*
X4485244Y1479803D01*
X4418449Y1441239D01*
X4341321Y1441239D01*
X4319281Y1449044D01*
X4179805Y1511143D01*
X4179803Y1511144D01*
X4073360Y1533769D01*
X3994648Y1550500D01*
X3994646Y1550500D01*
X3805354Y1550500D01*
X3805352Y1550500D01*
X3705392Y1529253D01*
X3620197Y1511144D01*
X3620195Y1511144D01*
X3620194Y1511143D01*
X3447270Y1434152D01*
X3356139Y1367942D01*
X3284133Y1340302D01*
X3207955Y1352368D01*
X3148016Y1400907D01*
X3120376Y1472913D01*
X3120376Y1504055D01*
X3130460Y1600000D01*
X3110674Y1788256D01*
X3052179Y1968284D01*
X2957533Y2132216D01*
X2957532Y2132217D01*
X2957530Y2132221D01*
X2830872Y2272887D01*
X2705282Y2364133D01*
X2677730Y2384151D01*
X2677729Y2384152D01*
X2677727Y2384153D01*
X2504805Y2461143D01*
X2504803Y2461144D01*
X2398360Y2483769D01*
X2319648Y2500500D01*
X2319646Y2500500D01*
X2130354Y2500500D01*
X2130352Y2500500D01*
X2030392Y2479253D01*
X1945197Y2461144D01*
X1945195Y2461144D01*
X1945194Y2461143D01*
X1772272Y2384153D01*
X1619127Y2272887D01*
X1492469Y2132221D01*
X1397822Y1968286D01*
X1397819Y1968279D01*
X1339325Y1788255D01*
X1319540Y1600000D01*
X1339325Y1411746D01*
X1362539Y1340302D01*
X1397821Y1231716D01*
X1397822Y1231715D01*
X1492469Y1067780D01*
X1619127Y927114D01*
X1619129Y927112D01*
X1772270Y815849D01*
X1945197Y738856D01*
X2086315Y708861D01*
X2130352Y699500D01*
X2130354Y699500D01*
X2319648Y699500D01*
X2359004Y707866D01*
X2504803Y738856D01*
X2677730Y815849D01*
X2768859Y882059D01*
X2840864Y909699D01*
X2917042Y897633D01*
X2976982Y849095D01*
X3004623Y777090D01*
X3004623Y745942D01*
X2994540Y650001D01*
X3014325Y461746D01*
X3058591Y325512D01*
X3072821Y281716D01*
X3098473Y237285D01*
X3167469Y117780D01*
X3262302Y12459D01*
X3294129Y-22888D01*
X3447270Y-134151D01*
X3619881Y-211003D01*
X3679821Y-259541D01*
X3700983Y-301076D01*
X3722821Y-368284D01*
X3722822Y-368285D01*
X3817469Y-532220D01*
X3915442Y-641028D01*
X3944129Y-672888D01*
X4000477Y-713827D01*
X4069536Y-764001D01*
X4118074Y-823941D01*
X4130140Y-900120D01*
X4102500Y-972125D01*
X4092685Y-984245D01*
X4017469Y-1067780D01*
X3922822Y-1231714D01*
X3922819Y-1231721D01*
X3864325Y-1411745D01*
X3844540Y-1600000D01*
X3864325Y-1788250D01*
X3865657Y-1794515D01*
X3861623Y-1871538D01*
X3819619Y-1936224D01*
X3750899Y-1971243D01*
X3719914Y-1974500D01*
X-4209841Y-1974500D01*
X-4284341Y-1954538D01*
X-4338879Y-1900000D01*
X-4358841Y-1825500D01*
X-4338880Y-1751002D01*
X-4247821Y-1593284D01*
X-4189326Y-1413256D01*
X-4169540Y-1225000D01*
X-4189326Y-1036744D01*
X-4247821Y-856716D01*
X-4342467Y-692784D01*
X-4342468Y-692783D01*
X-4342470Y-692779D01*
X-4469128Y-552113D01*
X-4563945Y-483225D01*
X-4622270Y-440849D01*
X-4622271Y-440848D01*
X-4622273Y-440847D01*
X-4770719Y-374754D01*
X-4795197Y-363856D01*
X-4901640Y-341231D01*
X-4980352Y-324500D01*
X-4980354Y-324500D01*
X-5169646Y-324500D01*
X-5169648Y-324500D01*
X-5269608Y-345747D01*
X-5354803Y-363856D01*
X-5354805Y-363856D01*
X-5354806Y-363857D01*
X-5527728Y-440847D01*
X-5680873Y-552113D01*
X-5807532Y-692781D01*
X-5828462Y-729032D01*
X-5883001Y-783568D01*
X-5957501Y-803529D01*
X-6032001Y-783565D01*
X-6036770Y-780691D01*
X-6058218Y-767214D01*
X-6064611Y-764136D01*
X-6123073Y-713827D01*
X-6148548Y-641028D01*
X-6134211Y-565244D01*
X-6105327Y-524534D01*
X-4217382Y1363410D01*
X-4187623Y1391203D01*
X-4119554Y1427462D01*
X-4042471Y1424828D01*
X-4036747Y1422956D01*
X-3937461Y1388214D01*
X-3866379Y1380205D01*
X-3775001Y1369909D01*
X-3775000Y1369909D01*
X-3774999Y1369909D01*
X-3734385Y1374486D01*
X-3612539Y1388214D01*
X-3458225Y1442211D01*
X-3319796Y1529192D01*
X-3204192Y1644796D01*
X-3117211Y1783225D01*
X-3063214Y1937539D01*
X-3044909Y2100000D01*
X-3063214Y2262461D01*
X-3089749Y2338291D01*
X-3095513Y2415199D01*
X-3089752Y2436701D01*
X-3063214Y2512539D01*
X-3044909Y2675000D01*
X-3063214Y2837461D01*
X-3117211Y2991775D01*
X-3204192Y3130204D01*
X-3319796Y3245808D01*
X-3458225Y3332789D01*
X-3612539Y3386786D01*
X-3612540Y3386787D01*
X-3612542Y3386787D01*
X-3774999Y3405091D01*
X-3775001Y3405091D01*
X-3937459Y3386787D01*
X-4091777Y3332789D01*
X-4108481Y3322293D01*
X-4182184Y3299562D01*
X-4257377Y3316728D01*
X-4267021Y3322296D01*
X-4283718Y3332788D01*
X-4438039Y3386787D01*
X-4600496Y3405091D01*
X-4600499Y3405091D01*
X-4720347Y3391588D01*
X-4796614Y3403084D01*
X-4856914Y3451172D01*
X-4863191Y3460378D01*
X-4954192Y3605204D01*
X-5069795Y3720807D01*
X-5069796Y3720808D01*
X-5208225Y3807789D01*
X-5362539Y3861786D01*
X-5362540Y3861787D01*
X-5362542Y3861787D01*
X-5524999Y3880091D01*
X-5525001Y3880091D01*
X-5687459Y3861787D01*
X-5764618Y3834788D01*
X-5841775Y3807789D01*
X-5980204Y3720808D01*
X-6095808Y3605204D01*
X-6182789Y3466775D01*
X-6209098Y3391588D01*
X-6236787Y3312459D01*
X-6255091Y3150001D01*
X-6255091Y3150000D01*
X-6236787Y2987542D01*
X-6236787Y2987540D01*
X-6236786Y2987539D01*
X-6182789Y2833225D01*
X-6182788Y2833224D01*
X-6098338Y2698823D01*
X-6075604Y2625122D01*
X-6075500Y2619550D01*
X-6075500Y1689744D01*
X-6095462Y1615244D01*
X-6119141Y1584385D01*
X-8707619Y-1004093D01*
X-8756044Y-1049319D01*
X-8778706Y-1086583D01*
X-8782998Y-1092891D01*
X-8809361Y-1127657D01*
X-8809362Y-1127657D01*
X-8815163Y-1142368D01*
X-8826457Y-1165108D01*
X-8834674Y-1178621D01*
X-8834675Y-1178623D01*
X-8846443Y-1220622D01*
X-8848874Y-1227853D01*
X-8864875Y-1268429D01*
X-8864877Y-1268437D01*
X-8866494Y-1284163D01*
X-8871234Y-1309105D01*
X-8875500Y-1324334D01*
X-8875500Y-1367952D01*
X-8875891Y-1375575D01*
X-8880352Y-1418972D01*
X-8877667Y-1434544D01*
X-8875500Y-1459862D01*
X-8875500Y-2062770D01*
X-8895462Y-2137270D01*
X-8919141Y-2168129D01*
X-8920807Y-2169795D01*
X-8920813Y-2169802D01*
X-8975545Y-2256907D01*
X-9032084Y-2309368D01*
X-9061120Y-2320142D01*
X-9061087Y-2320235D01*
X-9066016Y-2321959D01*
X-9068539Y-2322896D01*
X-9068979Y-2322996D01*
X-9068985Y-2322997D01*
X-9068985Y-2322998D01*
X-9223299Y-2376995D01*
X-9223301Y-2376995D01*
X-9223301Y-2376996D01*
X-9361728Y-2463976D01*
X-9477331Y-2579579D01*
X-9477335Y-2579582D01*
X-9521981Y-2650636D01*
X-9578521Y-2703096D01*
X-9653715Y-2720258D01*
X-9727416Y-2697523D01*
X-9777181Y-2645860D01*
X-9791594Y-2620895D01*
X-9791595Y-2620894D01*
X-9828793Y-2579582D01*
X-9918256Y-2480223D01*
X-10071397Y-2368960D01*
X-10071398Y-2368959D01*
X-10071400Y-2368958D01*
X-10244322Y-2291968D01*
X-10244324Y-2291967D01*
X-10350767Y-2269342D01*
X-10429479Y-2252611D01*
X-10429481Y-2252611D01*
X-10618773Y-2252611D01*
X-10618775Y-2252611D01*
X-10718735Y-2273858D01*
X-10803930Y-2291967D01*
X-10803932Y-2291967D01*
X-10803933Y-2291968D01*
X-10976855Y-2368958D01*
X-11130000Y-2480224D01*
X-11256658Y-2620890D01*
X-11351305Y-2784825D01*
X-11351308Y-2784832D01*
X-11409802Y-2964856D01*
X-11416347Y-3027133D01*
X-11424176Y-3101633D01*
X-11426021Y-3119185D01*
X-11453661Y-3191190D01*
X-11513600Y-3239729D01*
X-11574205Y-3252611D01*
X-11892389Y-3252611D01*
X-11966889Y-3232649D01*
X-12021427Y-3178111D01*
X-12041389Y-3103611D01*
X-12034096Y-3057567D01*
X-11989298Y-2919695D01*
X-11969512Y-2731439D01*
X-11989298Y-2543183D01*
X-12047793Y-2363155D01*
X-12142439Y-2199223D01*
X-12142440Y-2199222D01*
X-12142442Y-2199218D01*
X-12269100Y-2058552D01*
X-12281701Y-2049397D01*
X-12422242Y-1947288D01*
X-12422243Y-1947287D01*
X-12422245Y-1947286D01*
X-12595167Y-1870296D01*
X-12595169Y-1870295D01*
X-12701612Y-1847670D01*
X-12780324Y-1830939D01*
X-12780326Y-1830939D01*
X-12969618Y-1830939D01*
X-12969620Y-1830939D01*
X-13064977Y-1851208D01*
X-13154775Y-1870295D01*
X-13154777Y-1870295D01*
X-13154778Y-1870296D01*
X-13327700Y-1947286D01*
X-13480845Y-2058552D01*
X-13607503Y-2199218D01*
X-13702150Y-2363153D01*
X-13702153Y-2363160D01*
X-13760647Y-2543184D01*
X-13780432Y-2731439D01*
X-13760647Y-2919693D01*
X-13760646Y-2919695D01*
X-13717459Y-3052611D01*
X-13715848Y-3057567D01*
X-13711811Y-3134589D01*
X-13746826Y-3203311D01*
X-13811511Y-3245318D01*
X-13857555Y-3252611D01*
X-13955827Y-3252611D01*
X-14030327Y-3232649D01*
X-14061186Y-3208970D01*
X-14980859Y-2289296D01*
X-15019423Y-2222501D01*
X-15024500Y-2183937D01*
X-15024500Y-1964742D01*
X-15004538Y-1890242D01*
X-14980862Y-1859386D01*
X-14688631Y-1567154D01*
X-14621838Y-1528592D01*
X-14599961Y-1524452D01*
X-14487539Y-1511786D01*
X-14333225Y-1457789D01*
X-14194796Y-1370808D01*
X-14079192Y-1255204D01*
X-13992211Y-1116775D01*
X-13938214Y-962461D01*
X-13919909Y-800000D01*
X-13938214Y-637539D01*
X-13992211Y-483225D01*
X-13992213Y-483222D01*
X-13992213Y-483221D01*
X-14021963Y-435875D01*
X-14044698Y-362173D01*
X-14038483Y-320983D01*
X-14040076Y-320620D01*
X-14038215Y-312463D01*
X-14038214Y-312461D01*
X-14019909Y-150000D01*
X-14038214Y12461D01*
X-14092211Y166775D01*
X-14135724Y236026D01*
X-14176662Y301178D01*
X-14199396Y374880D01*
X-14199500Y380451D01*
X-14199500Y2302415D01*
X-14179538Y2376915D01*
X-14155859Y2407774D01*
X-11857774Y4705859D01*
X-11790979Y4744423D01*
X-11752415Y4749500D01*
X-8105450Y4749500D01*
X-8030950Y4729538D01*
X-8026191Y4726670D01*
X-7891775Y4642211D01*
X-7737461Y4588214D01*
X-7629154Y4576011D01*
X-7575001Y4569909D01*
X-7575000Y4569909D01*
X-7574999Y4569909D01*
X-7534385Y4574486D01*
X-7412539Y4588214D01*
X-7258225Y4642211D01*
X-7119796Y4729192D01*
X-7004192Y4844796D01*
X-6917211Y4983225D01*
X-6863214Y5137539D01*
X-6844909Y5300000D01*
X-6863214Y5462461D01*
X-6917211Y5616775D01*
X-7004192Y5755204D01*
X-7119796Y5870808D01*
X-7226599Y5937917D01*
X-7246825Y5950626D01*
X-7299285Y6007165D01*
X-7308188Y6027568D01*
X-7310977Y6035541D01*
X-7310980Y6035545D01*
X-7310979Y6035545D01*
X-7356017Y6107221D01*
X-7397958Y6173970D01*
X-7513562Y6289574D01*
X-7633469Y6364917D01*
X-7651994Y6376557D01*
X-7651993Y6376557D01*
X-7794081Y6426276D01*
X-7857807Y6469724D01*
X-7871031Y6487641D01*
X-7879425Y6501000D01*
X-7929192Y6580204D01*
X-8044796Y6695808D01*
X-8044799Y6695810D01*
X-8122548Y6744664D01*
X-8175008Y6801203D01*
X-8183912Y6821613D01*
X-8211792Y6901288D01*
X-8217557Y6978200D01*
X-8184092Y7047690D01*
X-8120366Y7091138D01*
X-8071154Y7099500D01*
X-7000146Y7099500D01*
X-6933923Y7097238D01*
X-6891537Y7107569D01*
X-6884060Y7108989D01*
X-6840829Y7114930D01*
X-6826331Y7121229D01*
X-6802248Y7129327D01*
X-6786897Y7133067D01*
X-6748876Y7154446D01*
X-6742040Y7157841D01*
X-6741156Y7158225D01*
X-6702029Y7175220D01*
X-6689772Y7185194D01*
X-6668774Y7199485D01*
X-6654990Y7207234D01*
X-6624131Y7238095D01*
X-6618492Y7243184D01*
X-6584641Y7270722D01*
X-6575528Y7283635D01*
X-6559165Y7303061D01*
X-6109748Y7752477D01*
X-6042955Y7791039D01*
X-5965827Y7791039D01*
X-5899032Y7752475D01*
X-5860468Y7685680D01*
X-5856328Y7630433D01*
X-5873841Y7475000D01*
X-5855536Y7312539D01*
X-5839675Y7267211D01*
X-5815881Y7199211D01*
X-5810118Y7122299D01*
X-5815881Y7100789D01*
X-5855536Y6987461D01*
X-5873841Y6825001D01*
X-5873841Y6825000D01*
X-5855537Y6662542D01*
X-5855537Y6662540D01*
X-5855536Y6662539D01*
X-5801539Y6508225D01*
X-5714558Y6369796D01*
X-5598954Y6254192D01*
X-5460525Y6167211D01*
X-5306211Y6113214D01*
X-5197904Y6101011D01*
X-5143751Y6094909D01*
X-5143750Y6094909D01*
X-5143749Y6094909D01*
X-5103135Y6099486D01*
X-4981289Y6113214D01*
X-4826975Y6167211D01*
X-4688546Y6254192D01*
X-4572942Y6369796D01*
X-4485961Y6508225D01*
X-4431964Y6662539D01*
X-4413659Y6825000D01*
X-4431964Y6987461D01*
X-4471620Y7100789D01*
X-4477384Y7177700D01*
X-4471619Y7199212D01*
X-4470683Y7201887D01*
X-4431964Y7312539D01*
X-4413659Y7475000D01*
X-4431964Y7637461D01*
X-4431966Y7637465D01*
X-4433078Y7642339D01*
X-4430197Y7719414D01*
X-4389165Y7784721D01*
X-4320976Y7820763D01*
X-4287815Y7824500D01*
X-2864188Y7824500D01*
X-2789688Y7804538D01*
G37*
%TD.AperFunction*%
%TA.AperFunction,Conductor*%
G36*
X12084757Y6754538D02*
G01*
X12115616Y6730859D01*
X12955859Y5890616D01*
X12994423Y5823821D01*
X12999500Y5785257D01*
X12999500Y5180451D01*
X12979538Y5105951D01*
X12976662Y5101178D01*
X12892212Y4966778D01*
X12838213Y4812459D01*
X12819909Y4650001D01*
X12819909Y4650000D01*
X12838213Y4487542D01*
X12838213Y4487540D01*
X12838214Y4487539D01*
X12892211Y4333225D01*
X12979192Y4194796D01*
X13094796Y4079192D01*
X13233225Y3992211D01*
X13387539Y3938214D01*
X13495846Y3926011D01*
X13549999Y3919909D01*
X13550000Y3919909D01*
X13550001Y3919909D01*
X13604153Y3926011D01*
X13712461Y3938214D01*
X13746289Y3950052D01*
X13823198Y3955816D01*
X13892689Y3922352D01*
X13936138Y3858627D01*
X13944500Y3809413D01*
X13944500Y3021104D01*
X13924538Y2946604D01*
X13900859Y2915745D01*
X11899695Y914582D01*
X11832900Y876018D01*
X11755772Y876018D01*
X11688977Y914582D01*
X11650413Y981377D01*
X11646273Y1003259D01*
X11639003Y1067780D01*
X11636786Y1087461D01*
X11582789Y1241775D01*
X11495808Y1380204D01*
X11380204Y1495808D01*
X11241775Y1582789D01*
X11087461Y1636786D01*
X11087460Y1636787D01*
X11087458Y1636787D01*
X11033607Y1642854D01*
X10961810Y1671032D01*
X10941395Y1689217D01*
X10940177Y1690521D01*
X10925680Y1706044D01*
X10925679Y1706045D01*
X10925678Y1706046D01*
X10925675Y1706048D01*
X10888411Y1728709D01*
X10882102Y1733003D01*
X10847339Y1759363D01*
X10832632Y1765163D01*
X10809884Y1776462D01*
X10796383Y1784672D01*
X10796379Y1784674D01*
X10762065Y1794288D01*
X10754367Y1796445D01*
X10747139Y1798876D01*
X10706562Y1814877D01*
X10706563Y1814877D01*
X10690843Y1816493D01*
X10665888Y1821235D01*
X10650666Y1825500D01*
X10650665Y1825500D01*
X10607048Y1825500D01*
X10599425Y1825891D01*
X10563946Y1829538D01*
X10556028Y1830352D01*
X10556027Y1830352D01*
X10546691Y1828743D01*
X10540454Y1827667D01*
X10515138Y1825500D01*
X7539743Y1825500D01*
X7465243Y1845462D01*
X7434384Y1869141D01*
X6619141Y2684384D01*
X6580577Y2751179D01*
X6575500Y2789743D01*
X6575500Y4969550D01*
X6595462Y5044050D01*
X6598338Y5048823D01*
X6682789Y5183225D01*
X6736786Y5337539D01*
X6755091Y5500000D01*
X6755090Y5500001D01*
X6755421Y5502930D01*
X6783599Y5574726D01*
X6843900Y5622815D01*
X6872507Y5631991D01*
X6897433Y5637290D01*
X6904803Y5638856D01*
X7040522Y5699283D01*
X7116695Y5711348D01*
X7161723Y5699283D01*
X7295197Y5639856D01*
X7415438Y5614299D01*
X7480352Y5600500D01*
X7480354Y5600500D01*
X7669648Y5600500D01*
X7709004Y5608866D01*
X7854803Y5639856D01*
X8027730Y5716849D01*
X8180871Y5828112D01*
X8284573Y5943284D01*
X8307530Y5968780D01*
X8307531Y5968782D01*
X8307533Y5968784D01*
X8402179Y6132716D01*
X8460674Y6312744D01*
X8480460Y6501000D01*
X8469012Y6609926D01*
X8481078Y6686105D01*
X8529617Y6746044D01*
X8601622Y6773684D01*
X8617196Y6774500D01*
X12010257Y6774500D01*
X12084757Y6754538D01*
G37*
%TD.AperFunction*%
%TA.AperFunction,Conductor*%
G36*
X-8786199Y17479538D02*
G01*
X-8731661Y17425000D01*
X-8711699Y17350500D01*
X-8718220Y17311818D01*
X-8716937Y17311474D01*
X-8738275Y17231838D01*
X-8738279Y17231817D01*
X-8755500Y17101006D01*
X-8755500Y17101000D01*
X-8755500Y10671696D01*
X-8753335Y10638670D01*
X-8746098Y10583700D01*
X-8746097Y10583695D01*
X-8746098Y10583696D01*
X-8740428Y10553303D01*
X-8736174Y10530504D01*
X-8682699Y10396931D01*
X-8682698Y10396930D01*
X-8644137Y10330139D01*
X-8644131Y10330129D01*
X-8592791Y10261548D01*
X-8572206Y10234050D01*
X-8572202Y10234047D01*
X-8565382Y10227062D01*
X-8567367Y10225125D01*
X-8530462Y10175818D01*
X-8521311Y10099235D01*
X-8551679Y10028337D01*
X-8563434Y10015093D01*
X-9534384Y9044141D01*
X-9601179Y9005577D01*
X-9639743Y9000500D01*
X-11701407Y9000500D01*
X-11775907Y9020462D01*
X-11827569Y9070227D01*
X-11841693Y9092705D01*
X-11957295Y9208307D01*
X-11957296Y9208308D01*
X-12095725Y9295289D01*
X-12250039Y9349286D01*
X-12250040Y9349287D01*
X-12250042Y9349287D01*
X-12362549Y9361963D01*
X-12434345Y9390141D01*
X-12482434Y9450442D01*
X-12493929Y9526709D01*
X-12465751Y9598505D01*
X-12405450Y9646594D01*
X-12377896Y9655543D01*
X-12089064Y9719120D01*
X-11739695Y9836835D01*
X-11739685Y9836840D01*
X-11405067Y9991650D01*
X-11089166Y10181722D01*
X-10795648Y10404849D01*
X-10776521Y10422968D01*
X-12093121Y11739568D01*
X-12065820Y11756832D01*
X-11878499Y11922784D01*
X-11739489Y12093042D01*
X-10425499Y10779052D01*
X-10289310Y10939383D01*
X-10289306Y10939389D01*
X-10082408Y11244539D01*
X-10082405Y11244544D01*
X-9909716Y11570272D01*
X-9909710Y11570285D01*
X-9773250Y11912774D01*
X-9773248Y11912779D01*
X-9674614Y12268024D01*
X-9674614Y12268026D01*
X-9614966Y12631858D01*
X-9614966Y12631864D01*
X-9595006Y13000000D01*
X-9595006Y13000009D01*
X-9614966Y13368137D01*
X-9614966Y13368143D01*
X-9674614Y13731975D01*
X-9674614Y13731977D01*
X-9773248Y14087222D01*
X-9773250Y14087227D01*
X-9909710Y14429716D01*
X-9909716Y14429729D01*
X-10082405Y14755457D01*
X-10082408Y14755462D01*
X-10289304Y15060609D01*
X-10289313Y15060621D01*
X-10425498Y15220950D01*
X-10425499Y15220950D01*
X-11741352Y13905097D01*
X-11795456Y13983480D01*
X-11968816Y14163966D01*
X-12094868Y14258688D01*
X-10776521Y15577034D01*
X-10795653Y15595156D01*
X-11089166Y15818279D01*
X-11405067Y16008351D01*
X-11739685Y16163161D01*
X-11739695Y16163166D01*
X-12089064Y16280881D01*
X-12449132Y16360138D01*
X-12815657Y16400000D01*
X-13184344Y16400000D01*
X-13550869Y16360138D01*
X-13550870Y16360138D01*
X-13910937Y16280881D01*
X-14260306Y16163166D01*
X-14260316Y16163161D01*
X-14594934Y16008351D01*
X-14910835Y15818279D01*
X-15204337Y15595165D01*
X-15223480Y15577033D01*
X-13906880Y14260433D01*
X-13934180Y14243168D01*
X-14121501Y14077216D01*
X-14260512Y13906959D01*
X-15574503Y15220950D01*
X-15574504Y15220950D01*
X-15710692Y15060617D01*
X-15710694Y15060614D01*
X-15917598Y14755453D01*
X-16090285Y14429729D01*
X-16090291Y14429716D01*
X-16226751Y14087227D01*
X-16226753Y14087222D01*
X-16325387Y13731977D01*
X-16325387Y13731975D01*
X-16385035Y13368143D01*
X-16385035Y13368137D01*
X-16404994Y13000009D01*
X-16404994Y13000000D01*
X-16385035Y12631864D01*
X-16385035Y12631858D01*
X-16325387Y12268026D01*
X-16325387Y12268024D01*
X-16226753Y11912779D01*
X-16226751Y11912774D01*
X-16090291Y11570285D01*
X-16090285Y11570272D01*
X-15917596Y11244544D01*
X-15917593Y11244539D01*
X-15710697Y10939392D01*
X-15710688Y10939380D01*
X-15574504Y10779052D01*
X-15574503Y10779052D01*
X-14258650Y12094906D01*
X-14204544Y12016520D01*
X-14031184Y11836034D01*
X-13905135Y11741314D01*
X-15223480Y10422969D01*
X-15204343Y10404841D01*
X-15204342Y10404840D01*
X-14910835Y10181722D01*
X-14594934Y9991650D01*
X-14260316Y9836840D01*
X-14260306Y9836835D01*
X-13910937Y9719120D01*
X-13550869Y9639863D01*
X-13184344Y9600001D01*
X-13184334Y9600000D01*
X-12815666Y9600000D01*
X-12815641Y9600002D01*
X-12718979Y9610515D01*
X-12642758Y9598726D01*
X-12582642Y9550405D01*
X-12554742Y9478500D01*
X-12566531Y9402279D01*
X-12614852Y9342163D01*
X-12653655Y9321751D01*
X-12729275Y9295290D01*
X-12867704Y9208308D01*
X-12983308Y9092704D01*
X-13070288Y8954277D01*
X-13124286Y8799960D01*
X-13130604Y8743892D01*
X-13158783Y8672096D01*
X-13173308Y8655218D01*
X-16307618Y5520908D01*
X-16356044Y5475681D01*
X-16378706Y5438417D01*
X-16382998Y5432109D01*
X-16409361Y5397343D01*
X-16409362Y5397343D01*
X-16415163Y5382632D01*
X-16426457Y5359892D01*
X-16434674Y5346379D01*
X-16434675Y5346377D01*
X-16446443Y5304378D01*
X-16448874Y5297147D01*
X-16464875Y5256571D01*
X-16464877Y5256563D01*
X-16466494Y5240837D01*
X-16471234Y5215895D01*
X-16475500Y5200666D01*
X-16475500Y5157048D01*
X-16475891Y5149425D01*
X-16480352Y5106028D01*
X-16477667Y5090456D01*
X-16475500Y5065138D01*
X-16475500Y3780451D01*
X-16495462Y3705951D01*
X-16498338Y3701178D01*
X-16582791Y3566773D01*
X-16587897Y3552181D01*
X-16623175Y3496038D01*
X-17245141Y2874071D01*
X-17311936Y2835507D01*
X-17389064Y2835507D01*
X-17455859Y2874071D01*
X-17494423Y2940866D01*
X-17499500Y2979430D01*
X-17499500Y13000000D01*
X-17499496Y13000099D01*
X-17491000Y13194704D01*
X-17481740Y13394971D01*
X-17481186Y13401217D01*
X-17454810Y13601557D01*
X-17427744Y13795588D01*
X-17426707Y13801337D01*
X-17382727Y13999719D01*
X-17338050Y14189674D01*
X-17336596Y14194963D01*
X-17275319Y14389310D01*
X-17261776Y14429716D01*
X-17213375Y14574127D01*
X-17211599Y14578872D01*
X-17133458Y14767521D01*
X-17054734Y14945809D01*
X-17052705Y14950033D01*
X-16958296Y15131391D01*
X-16863423Y15301720D01*
X-16861217Y15305419D01*
X-16751218Y15478084D01*
X-16640955Y15639046D01*
X-16638667Y15642201D01*
X-16513902Y15804798D01*
X-16389154Y15955025D01*
X-16386844Y15957673D01*
X-16248226Y16108948D01*
X-16108948Y16248226D01*
X-15957673Y16386844D01*
X-15955025Y16389154D01*
X-15804809Y16513893D01*
X-15642201Y16638667D01*
X-15639046Y16640955D01*
X-15478084Y16751218D01*
X-15305419Y16861217D01*
X-15301720Y16863423D01*
X-15131391Y16958296D01*
X-14950033Y17052705D01*
X-14945809Y17054734D01*
X-14767477Y17133476D01*
X-14578872Y17211599D01*
X-14574127Y17213375D01*
X-14389308Y17275320D01*
X-14194963Y17336596D01*
X-14189674Y17338050D01*
X-13999767Y17382716D01*
X-13801337Y17426707D01*
X-13795588Y17427744D01*
X-13601542Y17454812D01*
X-13401217Y17481186D01*
X-13394971Y17481740D01*
X-13194704Y17491000D01*
X-13000000Y17499500D01*
X-12999500Y17499500D01*
X-8860699Y17499500D01*
X-8786199Y17479538D01*
G37*
%TD.AperFunction*%
%TA.AperFunction,Conductor*%
G36*
X13194602Y17491004D02*
G01*
X13394966Y17481740D01*
X13401221Y17481185D01*
X13601571Y17454808D01*
X13795578Y17427745D01*
X13801345Y17426705D01*
X13999710Y17382729D01*
X14189661Y17338052D01*
X14194977Y17336592D01*
X14322788Y17296293D01*
X14389219Y17275347D01*
X14422180Y17264300D01*
X14574134Y17213371D01*
X14578906Y17211585D01*
X14767440Y17133491D01*
X14945794Y17054740D01*
X14950060Y17052690D01*
X15131369Y16958307D01*
X15197641Y16921393D01*
X15301681Y16863443D01*
X15305458Y16861190D01*
X15391522Y16806363D01*
X15478058Y16751233D01*
X15639014Y16640976D01*
X15642239Y16638636D01*
X15804780Y16513914D01*
X15955012Y16389163D01*
X15957715Y16386804D01*
X16108911Y16248259D01*
X16248258Y16108912D01*
X16386798Y15957722D01*
X16389175Y15954998D01*
X16513912Y15804783D01*
X16638634Y15642241D01*
X16640984Y15639002D01*
X16751229Y15478064D01*
X16787109Y15421744D01*
X16861188Y15305460D01*
X16863440Y15301684D01*
X16958309Y15131364D01*
X17052688Y14950062D01*
X17054751Y14945769D01*
X17133488Y14767447D01*
X17192347Y14625348D01*
X17211574Y14578930D01*
X17213384Y14574094D01*
X17275346Y14389220D01*
X17336583Y14195001D01*
X17338052Y14189654D01*
X17382737Y13999669D01*
X17426697Y13801378D01*
X17427749Y13795544D01*
X17454816Y13601505D01*
X17481181Y13401242D01*
X17481739Y13394956D01*
X17491009Y13194465D01*
X17499500Y13000000D01*
X17499500Y8325103D01*
X17479538Y8250603D01*
X17425000Y8196065D01*
X17350500Y8176103D01*
X17276000Y8196065D01*
X17245141Y8219744D01*
X15539384Y9925501D01*
X15514507Y9947319D01*
X15514508Y9947318D01*
X15470512Y9981077D01*
X15425877Y10011676D01*
X15293617Y10068313D01*
X15293602Y10068318D01*
X15219119Y10088275D01*
X15219104Y10088278D01*
X15210489Y10089412D01*
X15139233Y10118930D01*
X15092281Y10180121D01*
X15082216Y10256589D01*
X15111734Y10327845D01*
X15139771Y10355755D01*
X15204346Y10404844D01*
X15204350Y10404847D01*
X15223479Y10422968D01*
X13906879Y11739568D01*
X13934180Y11756832D01*
X14121501Y11922784D01*
X14260511Y12093042D01*
X15574501Y10779052D01*
X15710690Y10939383D01*
X15710694Y10939389D01*
X15917592Y11244539D01*
X15917595Y11244544D01*
X16090284Y11570272D01*
X16090290Y11570285D01*
X16226750Y11912774D01*
X16226752Y11912779D01*
X16325386Y12268024D01*
X16325386Y12268026D01*
X16385034Y12631858D01*
X16385034Y12631864D01*
X16404994Y13000000D01*
X16404994Y13000009D01*
X16385034Y13368137D01*
X16385034Y13368143D01*
X16325386Y13731975D01*
X16325386Y13731977D01*
X16226752Y14087222D01*
X16226750Y14087227D01*
X16090290Y14429716D01*
X16090284Y14429729D01*
X15917595Y14755457D01*
X15917592Y14755462D01*
X15710696Y15060609D01*
X15710687Y15060621D01*
X15574502Y15220950D01*
X15574501Y15220950D01*
X14258648Y13905097D01*
X14204544Y13983480D01*
X14031184Y14163966D01*
X13905132Y14258688D01*
X15223479Y15577034D01*
X15204347Y15595156D01*
X14910834Y15818279D01*
X14594933Y16008351D01*
X14260315Y16163161D01*
X14260305Y16163166D01*
X13910936Y16280881D01*
X13550868Y16360138D01*
X13184343Y16400000D01*
X12815656Y16400000D01*
X12449131Y16360138D01*
X12449130Y16360138D01*
X12089063Y16280881D01*
X11739694Y16163166D01*
X11739684Y16163161D01*
X11405066Y16008351D01*
X11089165Y15818279D01*
X10795663Y15595165D01*
X10776520Y15577033D01*
X12093120Y14260433D01*
X12065820Y14243168D01*
X11878499Y14077216D01*
X11739488Y13906959D01*
X10425496Y15220951D01*
X10385551Y15219327D01*
X10310302Y15236247D01*
X10253594Y15288525D01*
X10230623Y15362153D01*
X10230500Y15368204D01*
X10230500Y16579823D01*
X10228335Y16612856D01*
X10221098Y16667826D01*
X10221097Y16667831D01*
X10221098Y16667830D01*
X10217603Y16686559D01*
X10211174Y16721022D01*
X10157699Y16854595D01*
X10119135Y16921390D01*
X10119133Y16921393D01*
X10119132Y16921395D01*
X10038800Y17026084D01*
X9819743Y17245141D01*
X9781179Y17311936D01*
X9781179Y17389064D01*
X9819743Y17455859D01*
X9886538Y17494423D01*
X9925102Y17499500D01*
X12999500Y17499500D01*
X13000000Y17499500D01*
X13194602Y17491004D01*
G37*
%TD.AperFunction*%
%TD*%
%TA.AperFunction,Conductor*%
%TO.N,Vmot*%
G36*
X-4464406Y17230038D02*
G01*
X-4409868Y17175500D01*
X-4389906Y17101000D01*
X-4398267Y17051789D01*
X-4436314Y16943058D01*
X-4436314Y16943057D01*
X-4455249Y16775001D01*
X-4455249Y16775000D01*
X-4436314Y16606944D01*
X-4380456Y16447310D01*
X-4300212Y16319603D01*
X-4277478Y16245902D01*
X-4294641Y16170707D01*
X-4347101Y16114168D01*
X-4355458Y16109289D01*
X-4454901Y16055473D01*
X-4634794Y15915457D01*
X-4789179Y15747750D01*
X-4789181Y15747748D01*
X-4789183Y15747745D01*
X-4853270Y15649653D01*
X-4913864Y15556907D01*
X-5005430Y15348157D01*
X-5061391Y15127172D01*
X-5080214Y14900002D01*
X-5080214Y14899999D01*
X-5061391Y14672829D01*
X-5005430Y14451844D01*
X-4913864Y14243094D01*
X-4913862Y14243091D01*
X-4789183Y14052255D01*
X-4681812Y13935619D01*
X-4634794Y13884544D01*
X-4454906Y13744531D01*
X-4405931Y13718027D01*
X-4349911Y13665012D01*
X-4327904Y13591091D01*
X-4345805Y13516069D01*
X-4398725Y13460107D01*
X-4520875Y13384897D01*
X-4696640Y13230205D01*
X-4843733Y13048034D01*
X-4957925Y12843622D01*
X-4957926Y12843620D01*
X-5035930Y12622847D01*
X-5061930Y12471212D01*
X-5075500Y12392072D01*
X-5075500Y11966572D01*
X-5060616Y11791699D01*
X-5001618Y11565113D01*
X-5001615Y11565105D01*
X-4905174Y11351753D01*
X-4774061Y11157764D01*
X-4774059Y11157762D01*
X-4774057Y11157759D01*
X-4612044Y10988717D01*
X-4423792Y10849487D01*
X-4214718Y10744074D01*
X-3990837Y10675511D01*
X-3758589Y10645771D01*
X-3524655Y10655708D01*
X-3295766Y10705038D01*
X-3078506Y10792340D01*
X-2879125Y10915104D01*
X-2703359Y11069797D01*
X-2563868Y11242555D01*
X-2501537Y11287975D01*
X-2424843Y11296147D01*
X-2354339Y11264876D01*
X-2324495Y11232384D01*
X-2274061Y11157764D01*
X-2274059Y11157762D01*
X-2274057Y11157759D01*
X-2112044Y10988717D01*
X-1923792Y10849487D01*
X-1714718Y10744074D01*
X-1490837Y10675511D01*
X-1258589Y10645771D01*
X-1024655Y10655708D01*
X-795766Y10705038D01*
X-578506Y10792340D01*
X-379125Y10915104D01*
X-203359Y11069797D01*
X-63868Y11242555D01*
X-1537Y11287975D01*
X75157Y11296147D01*
X145661Y11264876D01*
X175505Y11232384D01*
X225939Y11157764D01*
X225941Y11157762D01*
X225943Y11157759D01*
X387956Y10988717D01*
X576208Y10849487D01*
X785282Y10744074D01*
X1009163Y10675511D01*
X1241411Y10645771D01*
X1475345Y10655708D01*
X1704234Y10705038D01*
X1921494Y10792340D01*
X2120875Y10915104D01*
X2296641Y11069797D01*
X2436132Y11242555D01*
X2498463Y11287975D01*
X2575157Y11296147D01*
X2645661Y11264876D01*
X2675505Y11232384D01*
X2725939Y11157764D01*
X2725941Y11157762D01*
X2725943Y11157759D01*
X2887956Y10988717D01*
X3076208Y10849487D01*
X3285282Y10744074D01*
X3509163Y10675511D01*
X3741411Y10645771D01*
X3975345Y10655708D01*
X4204234Y10705038D01*
X4421494Y10792340D01*
X4620875Y10915104D01*
X4796641Y11069797D01*
X4943735Y11251970D01*
X5057926Y11456381D01*
X5135929Y11677151D01*
X5175500Y11907928D01*
X5175500Y12333428D01*
X5160616Y12508301D01*
X5101617Y12734890D01*
X5005172Y12948250D01*
X4874057Y13142241D01*
X4712044Y13311283D01*
X4523792Y13450513D01*
X4513253Y13455827D01*
X4455718Y13507189D01*
X4431572Y13580440D01*
X4447286Y13655950D01*
X4498650Y13713487D01*
X4509418Y13719914D01*
X4554903Y13744529D01*
X4602185Y13781330D01*
X4734794Y13884544D01*
X4889183Y14052255D01*
X5013862Y14243091D01*
X5105430Y14451845D01*
X5161390Y14672824D01*
X5180214Y14900000D01*
X5161390Y15127176D01*
X5105430Y15348155D01*
X5013862Y15556909D01*
X4889183Y15747745D01*
X4734794Y15915456D01*
X4554906Y16055469D01*
X4554905Y16055470D01*
X4455457Y16109288D01*
X4399437Y16162302D01*
X4377430Y16236224D01*
X4395331Y16311246D01*
X4400204Y16319591D01*
X4480456Y16447310D01*
X4536313Y16606941D01*
X4555249Y16775000D01*
X4536313Y16943059D01*
X4498267Y17051789D01*
X4492504Y17128702D01*
X4525969Y17198192D01*
X4589695Y17241639D01*
X4638906Y17250000D01*
X9038282Y17250000D01*
X9112782Y17230038D01*
X9143641Y17206359D01*
X9681359Y16668641D01*
X9719923Y16601846D01*
X9725000Y16563282D01*
X9725000Y13935619D01*
X9719569Y13895758D01*
X9674125Y13732084D01*
X9614468Y13368195D01*
X9594506Y13000009D01*
X9594506Y12999992D01*
X9614468Y12631806D01*
X9674125Y12267919D01*
X9674125Y12267916D01*
X9719569Y12104245D01*
X9725000Y12064383D01*
X9725000Y10750000D01*
X10875000Y9600000D01*
X12806991Y9600000D01*
X12815045Y9599564D01*
X12815630Y9599500D01*
X12815638Y9599500D01*
X13184362Y9599500D01*
X13184370Y9599500D01*
X13184954Y9599564D01*
X13193009Y9600000D01*
X15088282Y9600000D01*
X15162782Y9580038D01*
X15193641Y9556359D01*
X17006359Y7743641D01*
X17044923Y7676846D01*
X17050000Y7638282D01*
X17050000Y2661718D01*
X17034324Y2603218D01*
X17036342Y2602382D01*
X17025000Y2575000D01*
X17025000Y5750000D01*
X16550000Y6225000D01*
X14925000Y6225000D01*
X14450000Y5750000D01*
X14450000Y5800000D01*
X14130059Y6119941D01*
X14091495Y6186736D01*
X14087805Y6205016D01*
X14085070Y6224920D01*
X14078772Y6239419D01*
X14070672Y6263507D01*
X14066934Y6278847D01*
X14066933Y6278852D01*
X14063602Y6284775D01*
X14045551Y6316882D01*
X14042156Y6323718D01*
X14024781Y6363718D01*
X14024780Y6363719D01*
X14024780Y6363720D01*
X14014807Y6375978D01*
X14000512Y6396982D01*
X13992765Y6410760D01*
X13961917Y6441608D01*
X13956803Y6447275D01*
X13929278Y6481108D01*
X13916365Y6490223D01*
X13896934Y6506591D01*
X12695906Y7707619D01*
X12650679Y7756045D01*
X12650675Y7756048D01*
X12613411Y7778709D01*
X12607102Y7783003D01*
X12572339Y7809363D01*
X12557632Y7815163D01*
X12534884Y7826462D01*
X12521383Y7834672D01*
X12521379Y7834674D01*
X12487065Y7844288D01*
X12479367Y7846445D01*
X12472139Y7848876D01*
X12431562Y7864877D01*
X12431563Y7864877D01*
X12415843Y7866493D01*
X12390888Y7871235D01*
X12375666Y7875500D01*
X12375665Y7875500D01*
X12332048Y7875500D01*
X12324425Y7875891D01*
X12289207Y7879512D01*
X12281028Y7880352D01*
X12281027Y7880352D01*
X12271691Y7878743D01*
X12265454Y7877667D01*
X12240138Y7875500D01*
X5736218Y7875500D01*
X5661718Y7895462D01*
X5630859Y7919141D01*
X4025000Y9525000D01*
X472638Y9525000D01*
X398138Y9544962D01*
X346477Y9594727D01*
X277062Y9705198D01*
X277057Y9705205D01*
X161455Y9820807D01*
X161454Y9820808D01*
X23025Y9907789D01*
X-131289Y9961786D01*
X-131290Y9961787D01*
X-131292Y9961787D01*
X-293749Y9980091D01*
X-293751Y9980091D01*
X-456209Y9961787D01*
X-533368Y9934788D01*
X-610525Y9907789D01*
X-610527Y9907789D01*
X-610527Y9907788D01*
X-748954Y9820808D01*
X-864557Y9705205D01*
X-864563Y9705198D01*
X-933977Y9594727D01*
X-990516Y9542266D01*
X-1060138Y9525000D01*
X-6266599Y9525000D01*
X-6341099Y9544962D01*
X-6395637Y9599500D01*
X-6415599Y9674000D01*
X-6395637Y9748500D01*
X-6392760Y9753274D01*
X-6350326Y9820807D01*
X-6342211Y9833722D01*
X-6288214Y9988036D01*
X-6269909Y10150497D01*
X-6288214Y10312958D01*
X-6327783Y10426037D01*
X-6333547Y10502948D01*
X-6327786Y10524451D01*
X-6288214Y10637539D01*
X-6269909Y10800000D01*
X-6288214Y10962461D01*
X-6342211Y11116775D01*
X-6429192Y11255204D01*
X-6544796Y11370808D01*
X-6683225Y11457789D01*
X-6837539Y11511786D01*
X-6837540Y11511787D01*
X-6837542Y11511787D01*
X-6999999Y11530091D01*
X-7000001Y11530091D01*
X-7162459Y11511787D01*
X-7239618Y11484788D01*
X-7316775Y11457789D01*
X-7455204Y11370808D01*
X-7570808Y11255204D01*
X-7657789Y11116775D01*
X-7702598Y10988717D01*
X-7711786Y10962460D01*
X-7718104Y10906393D01*
X-7746283Y10834597D01*
X-7760808Y10817719D01*
X-7995641Y10582885D01*
X-8062436Y10544321D01*
X-8139564Y10544321D01*
X-8206359Y10582885D01*
X-8244923Y10649680D01*
X-8250000Y10688244D01*
X-8250000Y17101000D01*
X-8230038Y17175500D01*
X-8175500Y17230038D01*
X-8101000Y17250000D01*
X-4538906Y17250000D01*
X-4464406Y17230038D01*
G37*
%TD.AperFunction*%
%TD*%
%TA.AperFunction,Conductor*%
%TO.N,GNDA*%
G36*
X3765677Y-10269685D02*
G01*
X3786319Y-10286319D01*
X4013681Y-10513681D01*
X4047166Y-10575004D01*
X4050000Y-10601362D01*
X4050000Y-11138211D01*
X4030315Y-11205250D01*
X4008666Y-11229231D01*
X4009034Y-11229599D01*
X3884523Y-11354109D01*
X3884518Y-11354115D01*
X3794547Y-11497302D01*
X3794545Y-11497305D01*
X3738685Y-11656943D01*
X3719751Y-11824997D01*
X3719751Y-11825002D01*
X3738685Y-11993056D01*
X3749862Y-12024996D01*
X3794544Y-12152690D01*
X3794545Y-12152691D01*
X3799153Y-12160025D01*
X3818155Y-12227261D01*
X3797789Y-12294097D01*
X3744523Y-12339312D01*
X3694161Y-12350000D01*
X2101362Y-12350000D01*
X2034323Y-12330315D01*
X2013681Y-12313681D01*
X1786319Y-12086319D01*
X1752834Y-12024996D01*
X1750000Y-11998638D01*
X1750000Y-11726362D01*
X1769685Y-11659323D01*
X1786319Y-11638681D01*
X3138681Y-10286319D01*
X3200004Y-10252834D01*
X3226362Y-10250000D01*
X3698638Y-10250000D01*
X3765677Y-10269685D01*
G37*
%TD.AperFunction*%
%TD*%
%TA.AperFunction,Conductor*%
%TO.N,/usb/USB_5V*%
G36*
X-12535230Y-6569685D02*
G01*
X-12489475Y-6622489D01*
X-12479330Y-6657815D01*
X-12467209Y-6749889D01*
X-12467207Y-6749894D01*
X-12408718Y-6891102D01*
X-12408716Y-6891105D01*
X-12315668Y-7012366D01*
X-12315667Y-7012367D01*
X-12194406Y-7105415D01*
X-12194403Y-7105417D01*
X-12105358Y-7142299D01*
X-12053191Y-7163908D01*
X-11939697Y-7178850D01*
X-11939690Y-7178850D01*
X-11863610Y-7178850D01*
X-11863603Y-7178850D01*
X-11750109Y-7163908D01*
X-11608896Y-7105416D01*
X-11487633Y-7012367D01*
X-11394584Y-6891105D01*
X-11369139Y-6829674D01*
X-11325300Y-6775273D01*
X-11259006Y-6753207D01*
X-11198285Y-6766644D01*
X-11193859Y-6768899D01*
X-11193858Y-6768899D01*
X-11193856Y-6768900D01*
X-11060735Y-6789984D01*
X-11060733Y-6789984D01*
X-11060731Y-6789984D01*
X-10927612Y-6768900D01*
X-10927612Y-6768899D01*
X-10927607Y-6768899D01*
X-10807513Y-6707708D01*
X-10712205Y-6612400D01*
X-10712203Y-6612395D01*
X-10712201Y-6612394D01*
X-10706465Y-6604501D01*
X-10704076Y-6606237D01*
X-10666941Y-6566913D01*
X-10604423Y-6550000D01*
X-9946218Y-6550000D01*
X-9879179Y-6569685D01*
X-9863993Y-6581182D01*
X-9827629Y-6613398D01*
X-9677002Y-6692454D01*
X-9511833Y-6733164D01*
X-9341721Y-6733164D01*
X-9176552Y-6692454D01*
X-9025925Y-6613398D01*
X-8989563Y-6581183D01*
X-8926329Y-6551463D01*
X-8907336Y-6550000D01*
X-6055951Y-6550000D01*
X-5988912Y-6569685D01*
X-5943157Y-6622489D01*
X-5941390Y-6626547D01*
X-5919938Y-6678338D01*
X-5919937Y-6678340D01*
X-5919936Y-6678341D01*
X-5897402Y-6707708D01*
X-5862490Y-6753207D01*
X-5823682Y-6803782D01*
X-5698241Y-6900036D01*
X-5552162Y-6960544D01*
X-5473781Y-6970863D01*
X-5395401Y-6981182D01*
X-5395400Y-6981182D01*
X-5395399Y-6981182D01*
X-5343146Y-6974302D01*
X-5238638Y-6960544D01*
X-5138987Y-6919266D01*
X-5069517Y-6911798D01*
X-5007038Y-6943073D01*
X-5003853Y-6946147D01*
X-4161319Y-7788681D01*
X-4127834Y-7850004D01*
X-4125000Y-7876362D01*
X-4125000Y-9323637D01*
X-4144685Y-9390676D01*
X-4161319Y-9411318D01*
X-4837675Y-10087674D01*
X-4898998Y-10121159D01*
X-4968690Y-10116175D01*
X-5019231Y-10078339D01*
X-5019571Y-10078680D01*
X-5021938Y-10076313D01*
X-5024623Y-10074303D01*
X-5025677Y-10072875D01*
X-5026471Y-10071782D01*
X-5026472Y-10071780D01*
X-5026475Y-10071777D01*
X-5026477Y-10071774D01*
X-5121775Y-9976476D01*
X-5121779Y-9976473D01*
X-5121780Y-9976472D01*
X-5241874Y-9915281D01*
X-5241876Y-9915280D01*
X-5241879Y-9915279D01*
X-5305270Y-9905239D01*
X-5368404Y-9875309D01*
X-5405335Y-9815997D01*
X-5404337Y-9746135D01*
X-5401832Y-9738848D01*
X-5347524Y-9595649D01*
X-5327019Y-9426777D01*
X-5347524Y-9257905D01*
X-5354209Y-9240279D01*
X-5377078Y-9179976D01*
X-5407846Y-9098847D01*
X-5504481Y-8958848D01*
X-5631812Y-8846043D01*
X-5631815Y-8846040D01*
X-5782438Y-8766987D01*
X-5947608Y-8726277D01*
X-6117720Y-8726277D01*
X-6282891Y-8766987D01*
X-6433514Y-8846040D01*
X-6560848Y-8958849D01*
X-6657482Y-9098845D01*
X-6717804Y-9257902D01*
X-6717805Y-9257907D01*
X-6738309Y-9426777D01*
X-6717805Y-9595646D01*
X-6717804Y-9595651D01*
X-6663517Y-9738794D01*
X-6657482Y-9754707D01*
X-6570955Y-9880062D01*
X-6549073Y-9946414D01*
X-6566538Y-10014065D01*
X-6617806Y-10061536D01*
X-6673006Y-10074500D01*
X-7319878Y-10074500D01*
X-7386917Y-10054815D01*
X-7407559Y-10038181D01*
X-7946783Y-9498957D01*
X-7962206Y-9480165D01*
X-7969399Y-9469399D01*
X-7969400Y-9469398D01*
X-8033188Y-9426777D01*
X-8052260Y-9414033D01*
X-8052261Y-9414032D01*
X-8149998Y-9394592D01*
X-8150001Y-9394592D01*
X-8162694Y-9397117D01*
X-8186886Y-9399500D01*
X-8422390Y-9399500D01*
X-8489429Y-9379815D01*
X-8510067Y-9363185D01*
X-8571780Y-9301472D01*
X-8691874Y-9240281D01*
X-8691876Y-9240280D01*
X-8691879Y-9240279D01*
X-8824998Y-9219196D01*
X-8825001Y-9219196D01*
X-8828683Y-9219779D01*
X-8833192Y-9219196D01*
X-8834758Y-9219196D01*
X-8834758Y-9218993D01*
X-8897976Y-9210819D01*
X-8935754Y-9184985D01*
X-9182877Y-8937862D01*
X-9216362Y-8876539D01*
X-9219196Y-8850181D01*
X-9219196Y-8849997D01*
X-9240280Y-8716878D01*
X-9240281Y-8716876D01*
X-9240281Y-8716874D01*
X-9301472Y-8596780D01*
X-9301474Y-8596778D01*
X-9301477Y-8596774D01*
X-9396775Y-8501476D01*
X-9396779Y-8501473D01*
X-9396780Y-8501472D01*
X-9516874Y-8440281D01*
X-9516876Y-8440280D01*
X-9516879Y-8440279D01*
X-9649998Y-8419196D01*
X-9650002Y-8419196D01*
X-9783122Y-8440279D01*
X-9903222Y-8501473D01*
X-9903226Y-8501476D01*
X-9998524Y-8596774D01*
X-9998527Y-8596778D01*
X-10059721Y-8716878D01*
X-10080804Y-8849997D01*
X-10080804Y-8850002D01*
X-10059721Y-8983121D01*
X-10059720Y-8983124D01*
X-10059719Y-8983126D01*
X-10013812Y-9073223D01*
X-9998527Y-9103221D01*
X-9998524Y-9103225D01*
X-9903226Y-9198523D01*
X-9903222Y-9198526D01*
X-9903220Y-9198528D01*
X-9783126Y-9259719D01*
X-9783124Y-9259719D01*
X-9783122Y-9259720D01*
X-9716563Y-9270261D01*
X-9650000Y-9280804D01*
X-9624744Y-9276803D01*
X-9555456Y-9285756D01*
X-9517666Y-9311595D01*
X-9290015Y-9539246D01*
X-9256530Y-9600569D01*
X-9255221Y-9646317D01*
X-9255804Y-9649999D01*
X-9255804Y-9650002D01*
X-9234721Y-9783121D01*
X-9234720Y-9783124D01*
X-9234719Y-9783126D01*
X-9173528Y-9903220D01*
X-9173527Y-9903221D01*
X-9173524Y-9903225D01*
X-9078226Y-9998523D01*
X-9078222Y-9998526D01*
X-9078220Y-9998528D01*
X-8958126Y-10059719D01*
X-8958124Y-10059719D01*
X-8958122Y-10059720D01*
X-8825002Y-10080804D01*
X-8825000Y-10080804D01*
X-8824998Y-10080804D01*
X-8691879Y-10059720D01*
X-8691879Y-10059719D01*
X-8691874Y-10059719D01*
X-8571780Y-9998528D01*
X-8510070Y-9936817D01*
X-8448749Y-9903334D01*
X-8422390Y-9900500D01*
X-8305122Y-9900500D01*
X-8238083Y-9920185D01*
X-8217441Y-9936819D01*
X-7891440Y-10262820D01*
X-7857955Y-10324143D01*
X-7862939Y-10393835D01*
X-7904811Y-10449768D01*
X-7922822Y-10460983D01*
X-7953220Y-10476472D01*
X-7953221Y-10476473D01*
X-7953226Y-10476476D01*
X-8048524Y-10571774D01*
X-8048527Y-10571778D01*
X-8109721Y-10691878D01*
X-8130804Y-10824997D01*
X-8130804Y-10825002D01*
X-8109721Y-10958121D01*
X-8109720Y-10958124D01*
X-8109719Y-10958126D01*
X-8048528Y-11078220D01*
X-8048527Y-11078221D01*
X-8048524Y-11078225D01*
X-7953226Y-11173523D01*
X-7953222Y-11173526D01*
X-7953220Y-11173528D01*
X-7833126Y-11234719D01*
X-7833124Y-11234719D01*
X-7833122Y-11234720D01*
X-7700002Y-11255804D01*
X-7700000Y-11255804D01*
X-7699998Y-11255804D01*
X-7566879Y-11234720D01*
X-7566879Y-11234719D01*
X-7566874Y-11234719D01*
X-7446780Y-11173528D01*
X-7385070Y-11111817D01*
X-7323749Y-11078334D01*
X-7297390Y-11075500D01*
X-7123021Y-11075500D01*
X-7055982Y-11095185D01*
X-7010227Y-11147989D01*
X-7000283Y-11217147D01*
X-7029308Y-11280703D01*
X-7041527Y-11292960D01*
X-7158592Y-11395037D01*
X-7241588Y-11521576D01*
X-7287367Y-11665811D01*
X-7287367Y-11665813D01*
X-7290817Y-11766836D01*
X-7291275Y-11780233D01*
X-7313237Y-11846562D01*
X-7367572Y-11890487D01*
X-7415203Y-11900000D01*
X-8616279Y-11900000D01*
X-8673905Y-11885796D01*
X-8822997Y-11807546D01*
X-8988167Y-11766836D01*
X-9158279Y-11766836D01*
X-9323450Y-11807546D01*
X-9472541Y-11885796D01*
X-9530167Y-11900000D01*
X-10016824Y-11900000D01*
X-10083863Y-11880315D01*
X-10129618Y-11827511D01*
X-10131385Y-11823453D01*
X-10154837Y-11766836D01*
X-10202145Y-11652624D01*
X-10370595Y-11347836D01*
X-10572112Y-11063824D01*
X-10804161Y-10804161D01*
X-11063824Y-10572112D01*
X-11347836Y-10370595D01*
X-11652624Y-10202145D01*
X-11963119Y-10073533D01*
X-12003346Y-10046654D01*
X-12163449Y-9886551D01*
X-12196934Y-9825228D01*
X-12191950Y-9755536D01*
X-12150078Y-9699603D01*
X-12133402Y-9689078D01*
X-12066484Y-9653957D01*
X-11939153Y-9541152D01*
X-11842518Y-9401153D01*
X-11782196Y-9242095D01*
X-11761691Y-9073223D01*
X-11782196Y-8904351D01*
X-11792744Y-8876539D01*
X-11834291Y-8766987D01*
X-11842518Y-8745293D01*
X-11862132Y-8716878D01*
X-11876860Y-8695541D01*
X-11939153Y-8605294D01*
X-12034020Y-8521249D01*
X-12066487Y-8492486D01*
X-12217110Y-8413433D01*
X-12382280Y-8372723D01*
X-12552392Y-8372723D01*
X-12717563Y-8413433D01*
X-12868186Y-8492486D01*
X-12995520Y-8605295D01*
X-13092154Y-8745291D01*
X-13152476Y-8904348D01*
X-13152477Y-8904353D01*
X-13172981Y-9073222D01*
X-13172981Y-9073223D01*
X-13168388Y-9111054D01*
X-13179847Y-9179976D01*
X-13226750Y-9231762D01*
X-13291483Y-9250000D01*
X-15548638Y-9250000D01*
X-15615677Y-9230315D01*
X-15636319Y-9213681D01*
X-16038681Y-8811319D01*
X-16072166Y-8749996D01*
X-16075000Y-8723638D01*
X-16075000Y-6951362D01*
X-16055315Y-6884323D01*
X-16038681Y-6863681D01*
X-15761319Y-6586319D01*
X-15699996Y-6552834D01*
X-15673638Y-6550000D01*
X-12602269Y-6550000D01*
X-12535230Y-6569685D01*
G37*
%TD.AperFunction*%
%TD*%
%TA.AperFunction,Conductor*%
%TO.N,+3V3*%
G36*
X16665677Y-2219685D02*
G01*
X16686319Y-2236319D01*
X17088681Y-2638681D01*
X17122166Y-2700004D01*
X17125000Y-2726362D01*
X17125000Y-4323638D01*
X17105315Y-4390677D01*
X17088681Y-4411319D01*
X11761319Y-9738681D01*
X11699996Y-9772166D01*
X11673638Y-9775000D01*
X4349999Y-9775000D01*
X4253575Y-9871423D01*
X4192252Y-9904907D01*
X4122560Y-9899922D01*
X4088092Y-9880295D01*
X4082863Y-9876081D01*
X4082861Y-9876080D01*
X4038974Y-9844433D01*
X3908100Y-9784663D01*
X3841063Y-9764978D01*
X3841057Y-9764976D01*
X3755604Y-9752690D01*
X3698638Y-9744500D01*
X3212823Y-9744500D01*
X3185784Y-9745949D01*
X3185776Y-9745949D01*
X3185773Y-9745950D01*
X3185772Y-9745950D01*
X3145964Y-9750231D01*
X3092554Y-9758885D01*
X3092552Y-9758885D01*
X2957747Y-9809166D01*
X2896422Y-9842651D01*
X2781240Y-9928876D01*
X2781228Y-9928886D01*
X1419296Y-11290819D01*
X1401209Y-11310956D01*
X1401209Y-11310955D01*
X1376080Y-11342139D01*
X1344433Y-11386025D01*
X1284663Y-11516899D01*
X1264978Y-11583937D01*
X1264976Y-11583942D01*
X1244500Y-11726363D01*
X1244500Y-12012173D01*
X1245950Y-12039227D01*
X1245950Y-12039228D01*
X1250231Y-12079036D01*
X1258885Y-12132445D01*
X1258885Y-12132447D01*
X1309166Y-12267252D01*
X1309168Y-12267257D01*
X1342653Y-12328580D01*
X1428877Y-12443761D01*
X1428883Y-12443767D01*
X1467376Y-12482260D01*
X1500861Y-12543583D01*
X1495877Y-12613275D01*
X1467376Y-12657622D01*
X1011319Y-13113681D01*
X949996Y-13147166D01*
X923638Y-13150000D01*
X-1998638Y-13150000D01*
X-2065677Y-13130315D01*
X-2086319Y-13113681D01*
X-2788681Y-12411319D01*
X-2822166Y-12349996D01*
X-2825000Y-12323638D01*
X-2825000Y-10801362D01*
X-2805315Y-10734323D01*
X-2788681Y-10713681D01*
X-2011319Y-9936319D01*
X-1949996Y-9902834D01*
X-1923638Y-9900000D01*
X200000Y-9900000D01*
X2138681Y-7961319D01*
X2200004Y-7927834D01*
X2226362Y-7925000D01*
X7376793Y-7925000D01*
X7443832Y-7944685D01*
X7459498Y-7957999D01*
X7460150Y-7957276D01*
X7464980Y-7961625D01*
X7618110Y-8072880D01*
X7618115Y-8072883D01*
X7791037Y-8149874D01*
X7791042Y-8149876D01*
X7976199Y-8189232D01*
X7976200Y-8189232D01*
X8165489Y-8189232D01*
X8165491Y-8189232D01*
X8350648Y-8149876D01*
X8523575Y-8072883D01*
X8676716Y-7961620D01*
X8676722Y-7961613D01*
X8681540Y-7957276D01*
X8683470Y-7959419D01*
X8732238Y-7929378D01*
X8764897Y-7925000D01*
X9325000Y-7925000D01*
X15013681Y-2236319D01*
X15075004Y-2202834D01*
X15101362Y-2200000D01*
X16598638Y-2200000D01*
X16665677Y-2219685D01*
G37*
%TD.AperFunction*%
%TD*%
%TA.AperFunction,Conductor*%
%TO.N,Vmot*%
G36*
X17025000Y5750000D02*
G01*
X17025000Y2575000D01*
X17025000Y576362D01*
X17005315Y509323D01*
X16988681Y488681D01*
X11061319Y-5438681D01*
X10999996Y-5472166D01*
X10973638Y-5475000D01*
X9276362Y-5475000D01*
X9209323Y-5455315D01*
X9188681Y-5438681D01*
X8461319Y-4711319D01*
X8427834Y-4649996D01*
X8425000Y-4623638D01*
X8425000Y-3326362D01*
X8444685Y-3259323D01*
X8461319Y-3238681D01*
X14450000Y2750000D01*
X14450000Y5750000D01*
X14925000Y6225000D01*
X16550000Y6225000D01*
X17025000Y5750000D01*
G37*
%TD.AperFunction*%
%TD*%
M02*
