%TF.GenerationSoftware,KiCad,Pcbnew,7.0.8*%
%TF.CreationDate,2023-11-08T18:05:17-05:00*%
%TF.ProjectId,lemon-pepper,6c656d6f-6e2d-4706-9570-7065722e6b69,rev?*%
%TF.SameCoordinates,PX8b85c60PY52f2218*%
%TF.FileFunction,Drillmap*%
%TF.FilePolarity,Positive*%
%FSLAX45Y45*%
G04 Gerber Fmt 4.5, Leading zero omitted, Abs format (unit mm)*
G04 Created by KiCad (PCBNEW 7.0.8) date 2023-11-08 18:05:17*
%MOMM*%
%LPD*%
G01*
G04 APERTURE LIST*
%ADD10C,0.200000*%
%ADD11C,0.099060*%
G04 APERTURE END LIST*
D10*
D11*
X-1021363Y-1518935D02*
X-922303Y-1617995D01*
X-922303Y-1518935D02*
X-1021363Y-1617995D01*
X-542083Y-1322271D02*
X-443023Y-1421331D01*
X-443023Y-1322271D02*
X-542083Y-1421331D01*
X-503310Y-1521738D02*
X-404250Y-1620798D01*
X-404250Y-1521738D02*
X-503310Y-1620798D01*
D10*
X-1496723Y-2068984D02*
X-1496723Y-1868984D01*
X-1496723Y-1868984D02*
X-1449104Y-1868984D01*
X-1449104Y-1868984D02*
X-1420533Y-1878508D01*
X-1420533Y-1878508D02*
X-1401485Y-1897555D01*
X-1401485Y-1897555D02*
X-1391961Y-1916603D01*
X-1391961Y-1916603D02*
X-1382438Y-1954698D01*
X-1382438Y-1954698D02*
X-1382438Y-1983269D01*
X-1382438Y-1983269D02*
X-1391961Y-2021365D01*
X-1391961Y-2021365D02*
X-1401485Y-2040412D01*
X-1401485Y-2040412D02*
X-1420533Y-2059460D01*
X-1420533Y-2059460D02*
X-1449104Y-2068984D01*
X-1449104Y-2068984D02*
X-1496723Y-2068984D01*
X-1296723Y-2068984D02*
X-1296723Y-1935650D01*
X-1296723Y-1973746D02*
X-1287199Y-1954698D01*
X-1287199Y-1954698D02*
X-1277676Y-1945174D01*
X-1277676Y-1945174D02*
X-1258628Y-1935650D01*
X-1258628Y-1935650D02*
X-1239580Y-1935650D01*
X-1172914Y-2068984D02*
X-1172914Y-1935650D01*
X-1172914Y-1868984D02*
X-1182438Y-1878508D01*
X-1182438Y-1878508D02*
X-1172914Y-1888031D01*
X-1172914Y-1888031D02*
X-1163390Y-1878508D01*
X-1163390Y-1878508D02*
X-1172914Y-1868984D01*
X-1172914Y-1868984D02*
X-1172914Y-1888031D01*
X-1049104Y-2068984D02*
X-1068152Y-2059460D01*
X-1068152Y-2059460D02*
X-1077676Y-2040412D01*
X-1077676Y-2040412D02*
X-1077676Y-1868984D01*
X-944342Y-2068984D02*
X-963390Y-2059460D01*
X-963390Y-2059460D02*
X-972914Y-2040412D01*
X-972914Y-2040412D02*
X-972914Y-1868984D01*
X-715771Y-2068984D02*
X-715771Y-1868984D01*
X-715771Y-1868984D02*
X-649104Y-2011841D01*
X-649104Y-2011841D02*
X-582438Y-1868984D01*
X-582438Y-1868984D02*
X-582438Y-2068984D01*
X-401485Y-2068984D02*
X-401485Y-1964222D01*
X-401485Y-1964222D02*
X-411009Y-1945174D01*
X-411009Y-1945174D02*
X-430056Y-1935650D01*
X-430056Y-1935650D02*
X-468152Y-1935650D01*
X-468152Y-1935650D02*
X-487199Y-1945174D01*
X-401485Y-2059460D02*
X-420533Y-2068984D01*
X-420533Y-2068984D02*
X-468152Y-2068984D01*
X-468152Y-2068984D02*
X-487199Y-2059460D01*
X-487199Y-2059460D02*
X-496723Y-2040412D01*
X-496723Y-2040412D02*
X-496723Y-2021365D01*
X-496723Y-2021365D02*
X-487199Y-2002317D01*
X-487199Y-2002317D02*
X-468152Y-1992793D01*
X-468152Y-1992793D02*
X-420533Y-1992793D01*
X-420533Y-1992793D02*
X-401485Y-1983269D01*
X-306247Y-1935650D02*
X-306247Y-2135650D01*
X-306247Y-1945174D02*
X-287199Y-1935650D01*
X-287199Y-1935650D02*
X-249104Y-1935650D01*
X-249104Y-1935650D02*
X-230056Y-1945174D01*
X-230056Y-1945174D02*
X-220533Y-1954698D01*
X-220533Y-1954698D02*
X-211009Y-1973746D01*
X-211009Y-1973746D02*
X-211009Y-2030888D01*
X-211009Y-2030888D02*
X-220533Y-2049936D01*
X-220533Y-2049936D02*
X-230056Y-2059460D01*
X-230056Y-2059460D02*
X-249104Y-2068984D01*
X-249104Y-2068984D02*
X-287199Y-2068984D01*
X-287199Y-2068984D02*
X-306247Y-2059460D01*
X-125295Y-2049936D02*
X-115771Y-2059460D01*
X-115771Y-2059460D02*
X-125295Y-2068984D01*
X-125295Y-2068984D02*
X-134818Y-2059460D01*
X-134818Y-2059460D02*
X-125295Y-2049936D01*
X-125295Y-2049936D02*
X-125295Y-2068984D01*
X-125295Y-1945174D02*
X-115771Y-1954698D01*
X-115771Y-1954698D02*
X-125295Y-1964222D01*
X-125295Y-1964222D02*
X-134818Y-1954698D01*
X-134818Y-1954698D02*
X-125295Y-1945174D01*
X-125295Y-1945174D02*
X-125295Y-1964222D01*
D11*
X-1856560Y-2347970D02*
X-1757500Y-2447030D01*
X-1757500Y-2347970D02*
X-1856560Y-2447030D01*
D10*
X-1458628Y-2288984D02*
X-1439580Y-2288984D01*
X-1439580Y-2288984D02*
X-1420533Y-2298508D01*
X-1420533Y-2298508D02*
X-1411009Y-2308031D01*
X-1411009Y-2308031D02*
X-1401485Y-2327079D01*
X-1401485Y-2327079D02*
X-1391961Y-2365174D01*
X-1391961Y-2365174D02*
X-1391961Y-2412793D01*
X-1391961Y-2412793D02*
X-1401485Y-2450889D01*
X-1401485Y-2450889D02*
X-1411009Y-2469936D01*
X-1411009Y-2469936D02*
X-1420533Y-2479460D01*
X-1420533Y-2479460D02*
X-1439580Y-2488984D01*
X-1439580Y-2488984D02*
X-1458628Y-2488984D01*
X-1458628Y-2488984D02*
X-1477676Y-2479460D01*
X-1477676Y-2479460D02*
X-1487199Y-2469936D01*
X-1487199Y-2469936D02*
X-1496723Y-2450889D01*
X-1496723Y-2450889D02*
X-1506247Y-2412793D01*
X-1506247Y-2412793D02*
X-1506247Y-2365174D01*
X-1506247Y-2365174D02*
X-1496723Y-2327079D01*
X-1496723Y-2327079D02*
X-1487199Y-2308031D01*
X-1487199Y-2308031D02*
X-1477676Y-2298508D01*
X-1477676Y-2298508D02*
X-1458628Y-2288984D01*
X-1306247Y-2469936D02*
X-1296723Y-2479460D01*
X-1296723Y-2479460D02*
X-1306247Y-2488984D01*
X-1306247Y-2488984D02*
X-1315771Y-2479460D01*
X-1315771Y-2479460D02*
X-1306247Y-2469936D01*
X-1306247Y-2469936D02*
X-1306247Y-2488984D01*
X-1201485Y-2488984D02*
X-1163390Y-2488984D01*
X-1163390Y-2488984D02*
X-1144342Y-2479460D01*
X-1144342Y-2479460D02*
X-1134818Y-2469936D01*
X-1134818Y-2469936D02*
X-1115771Y-2441365D01*
X-1115771Y-2441365D02*
X-1106247Y-2403270D01*
X-1106247Y-2403270D02*
X-1106247Y-2327079D01*
X-1106247Y-2327079D02*
X-1115771Y-2308031D01*
X-1115771Y-2308031D02*
X-1125295Y-2298508D01*
X-1125295Y-2298508D02*
X-1144342Y-2288984D01*
X-1144342Y-2288984D02*
X-1182438Y-2288984D01*
X-1182438Y-2288984D02*
X-1201485Y-2298508D01*
X-1201485Y-2298508D02*
X-1211009Y-2308031D01*
X-1211009Y-2308031D02*
X-1220533Y-2327079D01*
X-1220533Y-2327079D02*
X-1220533Y-2374698D01*
X-1220533Y-2374698D02*
X-1211009Y-2393746D01*
X-1211009Y-2393746D02*
X-1201485Y-2403270D01*
X-1201485Y-2403270D02*
X-1182438Y-2412793D01*
X-1182438Y-2412793D02*
X-1144342Y-2412793D01*
X-1144342Y-2412793D02*
X-1125295Y-2403270D01*
X-1125295Y-2403270D02*
X-1115771Y-2393746D01*
X-1115771Y-2393746D02*
X-1106247Y-2374698D01*
X-1011009Y-2488984D02*
X-972914Y-2488984D01*
X-972914Y-2488984D02*
X-953866Y-2479460D01*
X-953866Y-2479460D02*
X-944342Y-2469936D01*
X-944342Y-2469936D02*
X-925295Y-2441365D01*
X-925295Y-2441365D02*
X-915771Y-2403270D01*
X-915771Y-2403270D02*
X-915771Y-2327079D01*
X-915771Y-2327079D02*
X-925295Y-2308031D01*
X-925295Y-2308031D02*
X-934818Y-2298508D01*
X-934818Y-2298508D02*
X-953866Y-2288984D01*
X-953866Y-2288984D02*
X-991961Y-2288984D01*
X-991961Y-2288984D02*
X-1011009Y-2298508D01*
X-1011009Y-2298508D02*
X-1020533Y-2308031D01*
X-1020533Y-2308031D02*
X-1030056Y-2327079D01*
X-1030056Y-2327079D02*
X-1030056Y-2374698D01*
X-1030056Y-2374698D02*
X-1020533Y-2393746D01*
X-1020533Y-2393746D02*
X-1011009Y-2403270D01*
X-1011009Y-2403270D02*
X-991961Y-2412793D01*
X-991961Y-2412793D02*
X-953866Y-2412793D01*
X-953866Y-2412793D02*
X-934818Y-2403270D01*
X-934818Y-2403270D02*
X-925295Y-2393746D01*
X-925295Y-2393746D02*
X-915771Y-2374698D01*
X-725295Y-2488984D02*
X-839580Y-2488984D01*
X-782437Y-2488984D02*
X-782437Y-2288984D01*
X-782437Y-2288984D02*
X-801485Y-2317555D01*
X-801485Y-2317555D02*
X-820533Y-2336603D01*
X-820533Y-2336603D02*
X-839580Y-2346127D01*
X-639580Y-2488984D02*
X-639580Y-2355650D01*
X-639580Y-2374698D02*
X-630057Y-2365174D01*
X-630057Y-2365174D02*
X-611009Y-2355650D01*
X-611009Y-2355650D02*
X-582437Y-2355650D01*
X-582437Y-2355650D02*
X-563390Y-2365174D01*
X-563390Y-2365174D02*
X-553866Y-2384222D01*
X-553866Y-2384222D02*
X-553866Y-2488984D01*
X-553866Y-2384222D02*
X-544342Y-2365174D01*
X-544342Y-2365174D02*
X-525295Y-2355650D01*
X-525295Y-2355650D02*
X-496723Y-2355650D01*
X-496723Y-2355650D02*
X-477675Y-2365174D01*
X-477675Y-2365174D02*
X-468152Y-2384222D01*
X-468152Y-2384222D02*
X-468152Y-2488984D01*
X-372914Y-2488984D02*
X-372914Y-2355650D01*
X-372914Y-2374698D02*
X-363390Y-2365174D01*
X-363390Y-2365174D02*
X-344342Y-2355650D01*
X-344342Y-2355650D02*
X-315771Y-2355650D01*
X-315771Y-2355650D02*
X-296723Y-2365174D01*
X-296723Y-2365174D02*
X-287199Y-2384222D01*
X-287199Y-2384222D02*
X-287199Y-2488984D01*
X-287199Y-2384222D02*
X-277676Y-2365174D01*
X-277676Y-2365174D02*
X-258628Y-2355650D01*
X-258628Y-2355650D02*
X-230056Y-2355650D01*
X-230056Y-2355650D02*
X-211009Y-2365174D01*
X-211009Y-2365174D02*
X-201485Y-2384222D01*
X-201485Y-2384222D02*
X-201485Y-2488984D01*
X188991Y-2279460D02*
X17563Y-2536603D01*
X446134Y-2288984D02*
X465182Y-2288984D01*
X465182Y-2288984D02*
X484229Y-2298508D01*
X484229Y-2298508D02*
X493753Y-2308031D01*
X493753Y-2308031D02*
X503277Y-2327079D01*
X503277Y-2327079D02*
X512801Y-2365174D01*
X512801Y-2365174D02*
X512801Y-2412793D01*
X512801Y-2412793D02*
X503277Y-2450889D01*
X503277Y-2450889D02*
X493753Y-2469936D01*
X493753Y-2469936D02*
X484229Y-2479460D01*
X484229Y-2479460D02*
X465182Y-2488984D01*
X465182Y-2488984D02*
X446134Y-2488984D01*
X446134Y-2488984D02*
X427086Y-2479460D01*
X427086Y-2479460D02*
X417563Y-2469936D01*
X417563Y-2469936D02*
X408039Y-2450889D01*
X408039Y-2450889D02*
X398515Y-2412793D01*
X398515Y-2412793D02*
X398515Y-2365174D01*
X398515Y-2365174D02*
X408039Y-2327079D01*
X408039Y-2327079D02*
X417563Y-2308031D01*
X417563Y-2308031D02*
X427086Y-2298508D01*
X427086Y-2298508D02*
X446134Y-2288984D01*
X598515Y-2469936D02*
X608039Y-2479460D01*
X608039Y-2479460D02*
X598515Y-2488984D01*
X598515Y-2488984D02*
X588991Y-2479460D01*
X588991Y-2479460D02*
X598515Y-2469936D01*
X598515Y-2469936D02*
X598515Y-2488984D01*
X731848Y-2288984D02*
X750896Y-2288984D01*
X750896Y-2288984D02*
X769944Y-2298508D01*
X769944Y-2298508D02*
X779467Y-2308031D01*
X779467Y-2308031D02*
X788991Y-2327079D01*
X788991Y-2327079D02*
X798515Y-2365174D01*
X798515Y-2365174D02*
X798515Y-2412793D01*
X798515Y-2412793D02*
X788991Y-2450889D01*
X788991Y-2450889D02*
X779467Y-2469936D01*
X779467Y-2469936D02*
X769944Y-2479460D01*
X769944Y-2479460D02*
X750896Y-2488984D01*
X750896Y-2488984D02*
X731848Y-2488984D01*
X731848Y-2488984D02*
X712801Y-2479460D01*
X712801Y-2479460D02*
X703277Y-2469936D01*
X703277Y-2469936D02*
X693753Y-2450889D01*
X693753Y-2450889D02*
X684229Y-2412793D01*
X684229Y-2412793D02*
X684229Y-2365174D01*
X684229Y-2365174D02*
X693753Y-2327079D01*
X693753Y-2327079D02*
X703277Y-2308031D01*
X703277Y-2308031D02*
X712801Y-2298508D01*
X712801Y-2298508D02*
X731848Y-2288984D01*
X865182Y-2288984D02*
X988991Y-2288984D01*
X988991Y-2288984D02*
X922325Y-2365174D01*
X922325Y-2365174D02*
X950896Y-2365174D01*
X950896Y-2365174D02*
X969944Y-2374698D01*
X969944Y-2374698D02*
X979467Y-2384222D01*
X979467Y-2384222D02*
X988991Y-2403270D01*
X988991Y-2403270D02*
X988991Y-2450889D01*
X988991Y-2450889D02*
X979467Y-2469936D01*
X979467Y-2469936D02*
X969944Y-2479460D01*
X969944Y-2479460D02*
X950896Y-2488984D01*
X950896Y-2488984D02*
X893753Y-2488984D01*
X893753Y-2488984D02*
X874706Y-2479460D01*
X874706Y-2479460D02*
X865182Y-2469936D01*
X1084229Y-2488984D02*
X1122325Y-2488984D01*
X1122325Y-2488984D02*
X1141372Y-2479460D01*
X1141372Y-2479460D02*
X1150896Y-2469936D01*
X1150896Y-2469936D02*
X1169944Y-2441365D01*
X1169944Y-2441365D02*
X1179468Y-2403270D01*
X1179468Y-2403270D02*
X1179468Y-2327079D01*
X1179468Y-2327079D02*
X1169944Y-2308031D01*
X1169944Y-2308031D02*
X1160420Y-2298508D01*
X1160420Y-2298508D02*
X1141372Y-2288984D01*
X1141372Y-2288984D02*
X1103277Y-2288984D01*
X1103277Y-2288984D02*
X1084229Y-2298508D01*
X1084229Y-2298508D02*
X1074706Y-2308031D01*
X1074706Y-2308031D02*
X1065182Y-2327079D01*
X1065182Y-2327079D02*
X1065182Y-2374698D01*
X1065182Y-2374698D02*
X1074706Y-2393746D01*
X1074706Y-2393746D02*
X1084229Y-2403270D01*
X1084229Y-2403270D02*
X1103277Y-2412793D01*
X1103277Y-2412793D02*
X1141372Y-2412793D01*
X1141372Y-2412793D02*
X1160420Y-2403270D01*
X1160420Y-2403270D02*
X1169944Y-2393746D01*
X1169944Y-2393746D02*
X1179468Y-2374698D01*
X1303277Y-2288984D02*
X1322325Y-2288984D01*
X1322325Y-2288984D02*
X1341372Y-2298508D01*
X1341372Y-2298508D02*
X1350896Y-2308031D01*
X1350896Y-2308031D02*
X1360420Y-2327079D01*
X1360420Y-2327079D02*
X1369944Y-2365174D01*
X1369944Y-2365174D02*
X1369944Y-2412793D01*
X1369944Y-2412793D02*
X1360420Y-2450889D01*
X1360420Y-2450889D02*
X1350896Y-2469936D01*
X1350896Y-2469936D02*
X1341372Y-2479460D01*
X1341372Y-2479460D02*
X1322325Y-2488984D01*
X1322325Y-2488984D02*
X1303277Y-2488984D01*
X1303277Y-2488984D02*
X1284229Y-2479460D01*
X1284229Y-2479460D02*
X1274706Y-2469936D01*
X1274706Y-2469936D02*
X1265182Y-2450889D01*
X1265182Y-2450889D02*
X1255658Y-2412793D01*
X1255658Y-2412793D02*
X1255658Y-2365174D01*
X1255658Y-2365174D02*
X1265182Y-2327079D01*
X1265182Y-2327079D02*
X1274706Y-2308031D01*
X1274706Y-2308031D02*
X1284229Y-2298508D01*
X1284229Y-2298508D02*
X1303277Y-2288984D01*
X1446134Y-2288984D02*
X1446134Y-2327079D01*
X1522325Y-2288984D02*
X1522325Y-2327079D01*
X1817563Y-2565174D02*
X1808039Y-2555650D01*
X1808039Y-2555650D02*
X1788991Y-2527079D01*
X1788991Y-2527079D02*
X1779468Y-2508031D01*
X1779468Y-2508031D02*
X1769944Y-2479460D01*
X1769944Y-2479460D02*
X1760420Y-2431841D01*
X1760420Y-2431841D02*
X1760420Y-2393746D01*
X1760420Y-2393746D02*
X1769944Y-2346127D01*
X1769944Y-2346127D02*
X1779468Y-2317555D01*
X1779468Y-2317555D02*
X1788991Y-2298508D01*
X1788991Y-2298508D02*
X1808039Y-2269936D01*
X1808039Y-2269936D02*
X1817563Y-2260412D01*
X1874706Y-2288984D02*
X1998515Y-2288984D01*
X1998515Y-2288984D02*
X1931848Y-2365174D01*
X1931848Y-2365174D02*
X1960420Y-2365174D01*
X1960420Y-2365174D02*
X1979468Y-2374698D01*
X1979468Y-2374698D02*
X1988991Y-2384222D01*
X1988991Y-2384222D02*
X1998515Y-2403270D01*
X1998515Y-2403270D02*
X1998515Y-2450889D01*
X1998515Y-2450889D02*
X1988991Y-2469936D01*
X1988991Y-2469936D02*
X1979468Y-2479460D01*
X1979468Y-2479460D02*
X1960420Y-2488984D01*
X1960420Y-2488984D02*
X1903277Y-2488984D01*
X1903277Y-2488984D02*
X1884229Y-2479460D01*
X1884229Y-2479460D02*
X1874706Y-2469936D01*
X2236611Y-2488984D02*
X2236611Y-2288984D01*
X2322325Y-2488984D02*
X2322325Y-2384222D01*
X2322325Y-2384222D02*
X2312801Y-2365174D01*
X2312801Y-2365174D02*
X2293753Y-2355650D01*
X2293753Y-2355650D02*
X2265182Y-2355650D01*
X2265182Y-2355650D02*
X2246134Y-2365174D01*
X2246134Y-2365174D02*
X2236611Y-2374698D01*
X2446134Y-2488984D02*
X2427087Y-2479460D01*
X2427087Y-2479460D02*
X2417563Y-2469936D01*
X2417563Y-2469936D02*
X2408039Y-2450889D01*
X2408039Y-2450889D02*
X2408039Y-2393746D01*
X2408039Y-2393746D02*
X2417563Y-2374698D01*
X2417563Y-2374698D02*
X2427087Y-2365174D01*
X2427087Y-2365174D02*
X2446134Y-2355650D01*
X2446134Y-2355650D02*
X2474706Y-2355650D01*
X2474706Y-2355650D02*
X2493753Y-2365174D01*
X2493753Y-2365174D02*
X2503277Y-2374698D01*
X2503277Y-2374698D02*
X2512801Y-2393746D01*
X2512801Y-2393746D02*
X2512801Y-2450889D01*
X2512801Y-2450889D02*
X2503277Y-2469936D01*
X2503277Y-2469936D02*
X2493753Y-2479460D01*
X2493753Y-2479460D02*
X2474706Y-2488984D01*
X2474706Y-2488984D02*
X2446134Y-2488984D01*
X2627087Y-2488984D02*
X2608039Y-2479460D01*
X2608039Y-2479460D02*
X2598515Y-2460412D01*
X2598515Y-2460412D02*
X2598515Y-2288984D01*
X2779468Y-2479460D02*
X2760420Y-2488984D01*
X2760420Y-2488984D02*
X2722325Y-2488984D01*
X2722325Y-2488984D02*
X2703277Y-2479460D01*
X2703277Y-2479460D02*
X2693753Y-2460412D01*
X2693753Y-2460412D02*
X2693753Y-2384222D01*
X2693753Y-2384222D02*
X2703277Y-2365174D01*
X2703277Y-2365174D02*
X2722325Y-2355650D01*
X2722325Y-2355650D02*
X2760420Y-2355650D01*
X2760420Y-2355650D02*
X2779468Y-2365174D01*
X2779468Y-2365174D02*
X2788992Y-2384222D01*
X2788992Y-2384222D02*
X2788992Y-2403270D01*
X2788992Y-2403270D02*
X2693753Y-2422317D01*
X2865182Y-2479460D02*
X2884230Y-2488984D01*
X2884230Y-2488984D02*
X2922325Y-2488984D01*
X2922325Y-2488984D02*
X2941372Y-2479460D01*
X2941372Y-2479460D02*
X2950896Y-2460412D01*
X2950896Y-2460412D02*
X2950896Y-2450889D01*
X2950896Y-2450889D02*
X2941372Y-2431841D01*
X2941372Y-2431841D02*
X2922325Y-2422317D01*
X2922325Y-2422317D02*
X2893753Y-2422317D01*
X2893753Y-2422317D02*
X2874706Y-2412793D01*
X2874706Y-2412793D02*
X2865182Y-2393746D01*
X2865182Y-2393746D02*
X2865182Y-2384222D01*
X2865182Y-2384222D02*
X2874706Y-2365174D01*
X2874706Y-2365174D02*
X2893753Y-2355650D01*
X2893753Y-2355650D02*
X2922325Y-2355650D01*
X2922325Y-2355650D02*
X2941372Y-2365174D01*
X3017563Y-2565174D02*
X3027087Y-2555650D01*
X3027087Y-2555650D02*
X3046134Y-2527079D01*
X3046134Y-2527079D02*
X3055658Y-2508031D01*
X3055658Y-2508031D02*
X3065182Y-2479460D01*
X3065182Y-2479460D02*
X3074706Y-2431841D01*
X3074706Y-2431841D02*
X3074706Y-2393746D01*
X3074706Y-2393746D02*
X3065182Y-2346127D01*
X3065182Y-2346127D02*
X3055658Y-2317555D01*
X3055658Y-2317555D02*
X3046134Y-2298508D01*
X3046134Y-2298508D02*
X3027087Y-2269936D01*
X3027087Y-2269936D02*
X3017563Y-2260412D01*
X3379468Y-2565174D02*
X3369944Y-2555650D01*
X3369944Y-2555650D02*
X3350896Y-2527079D01*
X3350896Y-2527079D02*
X3341372Y-2508031D01*
X3341372Y-2508031D02*
X3331849Y-2479460D01*
X3331849Y-2479460D02*
X3322325Y-2431841D01*
X3322325Y-2431841D02*
X3322325Y-2393746D01*
X3322325Y-2393746D02*
X3331849Y-2346127D01*
X3331849Y-2346127D02*
X3341372Y-2317555D01*
X3341372Y-2317555D02*
X3350896Y-2298508D01*
X3350896Y-2298508D02*
X3369944Y-2269936D01*
X3369944Y-2269936D02*
X3379468Y-2260412D01*
X3455658Y-2355650D02*
X3455658Y-2488984D01*
X3455658Y-2374698D02*
X3465182Y-2365174D01*
X3465182Y-2365174D02*
X3484230Y-2355650D01*
X3484230Y-2355650D02*
X3512801Y-2355650D01*
X3512801Y-2355650D02*
X3531849Y-2365174D01*
X3531849Y-2365174D02*
X3541372Y-2384222D01*
X3541372Y-2384222D02*
X3541372Y-2488984D01*
X3665182Y-2488984D02*
X3646134Y-2479460D01*
X3646134Y-2479460D02*
X3636611Y-2469936D01*
X3636611Y-2469936D02*
X3627087Y-2450889D01*
X3627087Y-2450889D02*
X3627087Y-2393746D01*
X3627087Y-2393746D02*
X3636611Y-2374698D01*
X3636611Y-2374698D02*
X3646134Y-2365174D01*
X3646134Y-2365174D02*
X3665182Y-2355650D01*
X3665182Y-2355650D02*
X3693753Y-2355650D01*
X3693753Y-2355650D02*
X3712801Y-2365174D01*
X3712801Y-2365174D02*
X3722325Y-2374698D01*
X3722325Y-2374698D02*
X3731849Y-2393746D01*
X3731849Y-2393746D02*
X3731849Y-2450889D01*
X3731849Y-2450889D02*
X3722325Y-2469936D01*
X3722325Y-2469936D02*
X3712801Y-2479460D01*
X3712801Y-2479460D02*
X3693753Y-2488984D01*
X3693753Y-2488984D02*
X3665182Y-2488984D01*
X3788992Y-2355650D02*
X3865182Y-2355650D01*
X3817563Y-2288984D02*
X3817563Y-2460412D01*
X3817563Y-2460412D02*
X3827087Y-2479460D01*
X3827087Y-2479460D02*
X3846134Y-2488984D01*
X3846134Y-2488984D02*
X3865182Y-2488984D01*
X4084230Y-2355650D02*
X4084230Y-2555650D01*
X4084230Y-2365174D02*
X4103277Y-2355650D01*
X4103277Y-2355650D02*
X4141373Y-2355650D01*
X4141373Y-2355650D02*
X4160420Y-2365174D01*
X4160420Y-2365174D02*
X4169944Y-2374698D01*
X4169944Y-2374698D02*
X4179468Y-2393746D01*
X4179468Y-2393746D02*
X4179468Y-2450889D01*
X4179468Y-2450889D02*
X4169944Y-2469936D01*
X4169944Y-2469936D02*
X4160420Y-2479460D01*
X4160420Y-2479460D02*
X4141373Y-2488984D01*
X4141373Y-2488984D02*
X4103277Y-2488984D01*
X4103277Y-2488984D02*
X4084230Y-2479460D01*
X4293754Y-2488984D02*
X4274706Y-2479460D01*
X4274706Y-2479460D02*
X4265182Y-2460412D01*
X4265182Y-2460412D02*
X4265182Y-2288984D01*
X4455658Y-2488984D02*
X4455658Y-2384222D01*
X4455658Y-2384222D02*
X4446135Y-2365174D01*
X4446135Y-2365174D02*
X4427087Y-2355650D01*
X4427087Y-2355650D02*
X4388992Y-2355650D01*
X4388992Y-2355650D02*
X4369944Y-2365174D01*
X4455658Y-2479460D02*
X4436611Y-2488984D01*
X4436611Y-2488984D02*
X4388992Y-2488984D01*
X4388992Y-2488984D02*
X4369944Y-2479460D01*
X4369944Y-2479460D02*
X4360420Y-2460412D01*
X4360420Y-2460412D02*
X4360420Y-2441365D01*
X4360420Y-2441365D02*
X4369944Y-2422317D01*
X4369944Y-2422317D02*
X4388992Y-2412793D01*
X4388992Y-2412793D02*
X4436611Y-2412793D01*
X4436611Y-2412793D02*
X4455658Y-2403270D01*
X4522325Y-2355650D02*
X4598515Y-2355650D01*
X4550896Y-2288984D02*
X4550896Y-2460412D01*
X4550896Y-2460412D02*
X4560420Y-2479460D01*
X4560420Y-2479460D02*
X4579468Y-2488984D01*
X4579468Y-2488984D02*
X4598515Y-2488984D01*
X4741373Y-2479460D02*
X4722325Y-2488984D01*
X4722325Y-2488984D02*
X4684230Y-2488984D01*
X4684230Y-2488984D02*
X4665182Y-2479460D01*
X4665182Y-2479460D02*
X4655658Y-2460412D01*
X4655658Y-2460412D02*
X4655658Y-2384222D01*
X4655658Y-2384222D02*
X4665182Y-2365174D01*
X4665182Y-2365174D02*
X4684230Y-2355650D01*
X4684230Y-2355650D02*
X4722325Y-2355650D01*
X4722325Y-2355650D02*
X4741373Y-2365174D01*
X4741373Y-2365174D02*
X4750896Y-2384222D01*
X4750896Y-2384222D02*
X4750896Y-2403270D01*
X4750896Y-2403270D02*
X4655658Y-2422317D01*
X4922325Y-2488984D02*
X4922325Y-2288984D01*
X4922325Y-2479460D02*
X4903277Y-2488984D01*
X4903277Y-2488984D02*
X4865182Y-2488984D01*
X4865182Y-2488984D02*
X4846135Y-2479460D01*
X4846135Y-2479460D02*
X4836611Y-2469936D01*
X4836611Y-2469936D02*
X4827087Y-2450889D01*
X4827087Y-2450889D02*
X4827087Y-2393746D01*
X4827087Y-2393746D02*
X4836611Y-2374698D01*
X4836611Y-2374698D02*
X4846135Y-2365174D01*
X4846135Y-2365174D02*
X4865182Y-2355650D01*
X4865182Y-2355650D02*
X4903277Y-2355650D01*
X4903277Y-2355650D02*
X4922325Y-2365174D01*
X4998516Y-2565174D02*
X5008039Y-2555650D01*
X5008039Y-2555650D02*
X5027087Y-2527079D01*
X5027087Y-2527079D02*
X5036611Y-2508031D01*
X5036611Y-2508031D02*
X5046135Y-2479460D01*
X5046135Y-2479460D02*
X5055658Y-2431841D01*
X5055658Y-2431841D02*
X5055658Y-2393746D01*
X5055658Y-2393746D02*
X5046135Y-2346127D01*
X5046135Y-2346127D02*
X5036611Y-2317555D01*
X5036611Y-2317555D02*
X5027087Y-2298508D01*
X5027087Y-2298508D02*
X5008039Y-2269936D01*
X5008039Y-2269936D02*
X4998516Y-2260412D01*
M02*
