%TF.GenerationSoftware,KiCad,Pcbnew,7.0.9*%
%TF.CreationDate,2024-01-12T19:02:32-05:00*%
%TF.ProjectId,lemon-pepper,6c656d6f-6e2d-4706-9570-7065722e6b69,rev?*%
%TF.SameCoordinates,PX8b85c60PY52f2218*%
%TF.FileFunction,Drillmap*%
%TF.FilePolarity,Positive*%
%FSLAX45Y45*%
G04 Gerber Fmt 4.5, Leading zero omitted, Abs format (unit mm)*
G04 Created by KiCad (PCBNEW 7.0.9) date 2024-01-12 19:02:32*
%MOMM*%
%LPD*%
G01*
G04 APERTURE LIST*
%ADD10C,0.200000*%
%ADD11C,0.100000*%
%ADD12C,0.105000*%
%ADD13C,0.310000*%
G04 APERTURE END LIST*
D10*
D11*
X-1670000Y227500D02*
X-1650000Y207500D01*
X-1650000Y227500D02*
X-1670000Y207500D01*
X-1602500Y335000D02*
X-1582500Y315000D01*
X-1582500Y335000D02*
X-1602500Y315000D01*
X-1602500Y227500D02*
X-1582500Y207500D01*
X-1582500Y227500D02*
X-1602500Y207500D01*
X-1600000Y165000D02*
X-1580000Y145000D01*
X-1580000Y165000D02*
X-1600000Y145000D01*
X-1600000Y50000D02*
X-1580000Y30000D01*
X-1580000Y50000D02*
X-1600000Y30000D01*
X-1562524Y-499949D02*
X-1542524Y-519949D01*
X-1542524Y-499949D02*
X-1562524Y-519949D01*
X-1562493Y-557400D02*
X-1542493Y-577400D01*
X-1542493Y-557400D02*
X-1562493Y-577400D01*
X-1562244Y-442500D02*
X-1542244Y-462500D01*
X-1542244Y-442500D02*
X-1562244Y-462500D01*
X-1542500Y337500D02*
X-1522500Y317500D01*
X-1522500Y337500D02*
X-1542500Y317500D01*
X-1542500Y-47500D02*
X-1522500Y-67500D01*
X-1522500Y-47500D02*
X-1542500Y-67500D01*
X-1495000Y377500D02*
X-1475000Y357500D01*
X-1475000Y377500D02*
X-1495000Y357500D01*
X-1485000Y-5000D02*
X-1465000Y-25000D01*
X-1465000Y-5000D02*
X-1485000Y-25000D01*
X-1475000Y-70000D02*
X-1455000Y-90000D01*
X-1455000Y-70000D02*
X-1475000Y-90000D01*
X-1452500Y417500D02*
X-1432500Y397500D01*
X-1432500Y417500D02*
X-1452500Y397500D01*
X-1407500Y460000D02*
X-1387500Y440000D01*
X-1387500Y460000D02*
X-1407500Y440000D01*
X-1251250Y873750D02*
X-1231250Y853750D01*
X-1231250Y873750D02*
X-1251250Y853750D01*
X-1205000Y-542500D02*
X-1185000Y-562500D01*
X-1185000Y-542500D02*
X-1205000Y-562500D01*
X-1190000Y790000D02*
X-1170000Y770000D01*
X-1170000Y790000D02*
X-1190000Y770000D01*
X-1135000Y-535000D02*
X-1115000Y-555000D01*
X-1115000Y-535000D02*
X-1135000Y-555000D01*
X-1116073Y-625918D02*
X-1096073Y-645918D01*
X-1096073Y-625918D02*
X-1116073Y-645918D01*
X-975000Y-875000D02*
X-955000Y-895000D01*
X-955000Y-875000D02*
X-975000Y-895000D01*
X-945000Y-330000D02*
X-925000Y-350000D01*
X-925000Y-330000D02*
X-945000Y-350000D01*
X-900652Y-293478D02*
X-880652Y-313478D01*
X-880652Y-293478D02*
X-900652Y-313478D01*
X-897500Y670000D02*
X-877500Y650000D01*
X-877500Y670000D02*
X-897500Y650000D01*
X-892500Y-955000D02*
X-872500Y-975000D01*
X-872500Y-955000D02*
X-892500Y-975000D01*
X-860000Y622500D02*
X-840000Y602500D01*
X-840000Y622500D02*
X-860000Y602500D01*
X-845000Y-252500D02*
X-825000Y-272500D01*
X-825000Y-252500D02*
X-845000Y-272500D01*
X-806877Y581877D02*
X-786877Y561877D01*
X-786877Y581877D02*
X-806877Y561877D01*
X-780000Y-1072500D02*
X-760000Y-1092500D01*
X-760000Y-1072500D02*
X-780000Y-1092500D01*
X-767500Y540000D02*
X-747500Y520000D01*
X-747500Y540000D02*
X-767500Y520000D01*
X-762500Y-135000D02*
X-742500Y-155000D01*
X-742500Y-135000D02*
X-762500Y-155000D01*
X-710000Y1090000D02*
X-690000Y1070000D01*
X-690000Y1090000D02*
X-710000Y1070000D01*
X-710000Y1025050D02*
X-690000Y1005050D01*
X-690000Y1025050D02*
X-710000Y1005050D01*
X-705050Y-135000D02*
X-685050Y-155000D01*
X-685050Y-135000D02*
X-705050Y-155000D01*
X-647500Y-132500D02*
X-627500Y-152500D01*
X-627500Y-132500D02*
X-647500Y-152500D01*
X-617500Y-1075000D02*
X-597500Y-1095000D01*
X-597500Y-1075000D02*
X-617500Y-1095000D01*
X-562500Y325000D02*
X-542500Y305000D01*
X-542500Y325000D02*
X-562500Y305000D01*
X-547500Y-1022500D02*
X-527500Y-1042500D01*
X-527500Y-1022500D02*
X-547500Y-1042500D01*
X-524375Y757500D02*
X-504375Y737500D01*
X-504375Y757500D02*
X-524375Y737500D01*
X-524375Y692500D02*
X-504375Y672500D01*
X-504375Y692500D02*
X-524375Y672500D01*
X-470050Y277500D02*
X-450050Y257500D01*
X-450050Y277500D02*
X-470050Y257500D01*
X-470000Y217500D02*
X-450000Y197500D01*
X-450000Y217500D02*
X-470000Y197500D01*
X-387500Y277500D02*
X-367500Y257500D01*
X-367500Y277500D02*
X-387500Y257500D01*
X-387500Y220000D02*
X-367500Y200000D01*
X-367500Y220000D02*
X-387500Y200000D01*
X-325000Y-667500D02*
X-305000Y-687500D01*
X-305000Y-667500D02*
X-325000Y-687500D01*
X-280000Y-380000D02*
X-260000Y-400000D01*
X-260000Y-380000D02*
X-280000Y-400000D01*
X-212500Y802500D02*
X-192500Y782500D01*
X-192500Y802500D02*
X-212500Y782500D01*
X-132500Y-387500D02*
X-112500Y-407500D01*
X-112500Y-387500D02*
X-132500Y-407500D01*
X-70000Y-390000D02*
X-50000Y-410000D01*
X-50000Y-390000D02*
X-70000Y-410000D01*
X-39375Y935000D02*
X-19375Y915000D01*
X-19375Y935000D02*
X-39375Y915000D01*
X-3787Y-390000D02*
X16213Y-410000D01*
X16213Y-390000D02*
X-3787Y-410000D01*
X67500Y-390000D02*
X87500Y-410000D01*
X87500Y-390000D02*
X67500Y-410000D01*
X132500Y-390000D02*
X152500Y-410000D01*
X152500Y-390000D02*
X132500Y-410000D01*
X140625Y760000D02*
X160625Y740000D01*
X160625Y760000D02*
X140625Y740000D01*
X140625Y695000D02*
X160625Y675000D01*
X160625Y695000D02*
X140625Y675000D01*
X252500Y-387500D02*
X272500Y-407500D01*
X272500Y-387500D02*
X252500Y-407500D01*
X412500Y385000D02*
X432500Y365000D01*
X432500Y385000D02*
X412500Y365000D01*
X485000Y445000D02*
X505000Y425000D01*
X505000Y445000D02*
X485000Y425000D01*
X525623Y485623D02*
X545623Y465623D01*
X545623Y485623D02*
X525623Y465623D01*
X592500Y560000D02*
X612500Y540000D01*
X612500Y560000D02*
X592500Y540000D01*
X905000Y-30000D02*
X925000Y-50000D01*
X925000Y-30000D02*
X905000Y-50000D01*
X945000Y12500D02*
X965000Y-7500D01*
X965000Y12500D02*
X945000Y-7500D01*
X985000Y55000D02*
X1005000Y35000D01*
X1005000Y55000D02*
X985000Y35000D01*
X1082500Y102500D02*
X1102500Y82500D01*
X1102500Y102500D02*
X1082500Y82500D01*
X1345000Y475000D02*
X1365000Y455000D01*
X1365000Y475000D02*
X1345000Y455000D01*
X-355000Y1677500D02*
G75*
G03*
X-355000Y1677500I-15000J0D01*
G01*
X-105000Y1677500D02*
G75*
G03*
X-105000Y1677500I-15000J0D01*
G01*
X145000Y1677500D02*
G75*
G03*
X145000Y1677500I-15000J0D01*
G01*
X395000Y1677500D02*
G75*
G03*
X395000Y1677500I-15000J0D01*
G01*
X-1463032Y-229912D02*
X-1463032Y-269912D01*
X-1483032Y-249912D02*
X-1443032Y-249912D01*
X-1287497Y-253144D02*
X-1287497Y-293144D01*
X-1307497Y-273144D02*
X-1267497Y-273144D01*
X-1165000Y215000D02*
X-1165000Y175000D01*
X-1185000Y195000D02*
X-1145000Y195000D01*
X-1155000Y-960000D02*
X-1155000Y-1000000D01*
X-1175000Y-980000D02*
X-1135000Y-980000D01*
X-1052413Y-295311D02*
X-1052413Y-335311D01*
X-1072413Y-315311D02*
X-1032413Y-315311D01*
X-1037500Y335000D02*
X-1037500Y295000D01*
X-1057500Y315000D02*
X-1017500Y315000D01*
X-1037500Y215000D02*
X-1037500Y175000D01*
X-1057500Y195000D02*
X-1017500Y195000D01*
X-1037500Y87500D02*
X-1037500Y47500D01*
X-1057500Y67500D02*
X-1017500Y67500D01*
X-972500Y-1127500D02*
X-972500Y-1167500D01*
X-992500Y-1147500D02*
X-952500Y-1147500D01*
X-912500Y217500D02*
X-912500Y177500D01*
X-932500Y197500D02*
X-892500Y197500D01*
X-880685Y-685000D02*
X-880685Y-725000D01*
X-900685Y-705000D02*
X-860685Y-705000D01*
X-785000Y887500D02*
X-785000Y847500D01*
X-805000Y867500D02*
X-765000Y867500D01*
X-755000Y-1280000D02*
X-755000Y-1320000D01*
X-775000Y-1300000D02*
X-735000Y-1300000D01*
X-697500Y-855000D02*
X-697500Y-895000D01*
X-717500Y-875000D02*
X-677500Y-875000D01*
X-627500Y1645000D02*
X-627500Y1605000D01*
X-647500Y1625000D02*
X-607500Y1625000D01*
X-625000Y1442500D02*
X-625000Y1402500D01*
X-645000Y1422500D02*
X-605000Y1422500D01*
X-625000Y1237500D02*
X-625000Y1197500D01*
X-645000Y1217500D02*
X-605000Y1217500D01*
X-625000Y-1642500D02*
X-625000Y-1682500D01*
X-645000Y-1662500D02*
X-605000Y-1662500D01*
X-539540Y-617550D02*
X-539540Y-657550D01*
X-559540Y-637550D02*
X-519540Y-637550D01*
X-507500Y-102500D02*
X-507500Y-142500D01*
X-527500Y-122500D02*
X-487500Y-122500D01*
X-472500Y-870000D02*
X-472500Y-910000D01*
X-492500Y-890000D02*
X-452500Y-890000D01*
X-413900Y-177500D02*
X-413900Y-217500D01*
X-433900Y-197500D02*
X-393900Y-197500D01*
X-240000Y-1632500D02*
X-240000Y-1672500D01*
X-260000Y-1652500D02*
X-220000Y-1652500D01*
X-237500Y-1440000D02*
X-237500Y-1480000D01*
X-257500Y-1460000D02*
X-217500Y-1460000D01*
X-220000Y-1100000D02*
X-220000Y-1140000D01*
X-240000Y-1120000D02*
X-200000Y-1120000D01*
X-197500Y25000D02*
X-197500Y-15000D01*
X-217500Y5000D02*
X-177500Y5000D01*
X-195000Y-110000D02*
X-195000Y-150000D01*
X-215000Y-130000D02*
X-175000Y-130000D01*
X-170000Y-1195000D02*
X-170000Y-1235000D01*
X-190000Y-1215000D02*
X-150000Y-1215000D01*
X-112500Y-1100000D02*
X-112500Y-1140000D01*
X-132500Y-1120000D02*
X-92500Y-1120000D01*
X-62500Y-1195000D02*
X-62500Y-1235000D01*
X-82500Y-1215000D02*
X-42500Y-1215000D01*
X-30000Y-850000D02*
X-30000Y-890000D01*
X-50000Y-870000D02*
X-10000Y-870000D01*
X-25000Y-660000D02*
X-25000Y-700000D01*
X-45000Y-680000D02*
X-5000Y-680000D01*
X50000Y-1195000D02*
X50000Y-1235000D01*
X30000Y-1215000D02*
X70000Y-1215000D01*
X147500Y-592500D02*
X147500Y-632500D01*
X127500Y-612500D02*
X167500Y-612500D01*
X222364Y80050D02*
X222364Y40050D01*
X202364Y60050D02*
X242364Y60050D01*
X222500Y180000D02*
X222500Y140000D01*
X202500Y160000D02*
X242500Y160000D01*
X232500Y-1165000D02*
X232500Y-1205000D01*
X212500Y-1185000D02*
X252500Y-1185000D01*
X347500Y-1070000D02*
X347500Y-1110000D01*
X327500Y-1090000D02*
X367500Y-1090000D01*
X347500Y-1162500D02*
X347500Y-1202500D01*
X327500Y-1182500D02*
X367500Y-1182500D01*
X390000Y85000D02*
X390000Y45000D01*
X370000Y65000D02*
X410000Y65000D01*
X407500Y577500D02*
X407500Y537500D01*
X387500Y557500D02*
X427500Y557500D01*
X407500Y490050D02*
X407500Y450050D01*
X387500Y470050D02*
X427500Y470050D01*
X427500Y295000D02*
X427500Y255000D01*
X407500Y275000D02*
X447500Y275000D01*
X455000Y20000D02*
X455000Y-20000D01*
X435000Y0D02*
X475000Y0D01*
X475000Y-140000D02*
X475000Y-180000D01*
X455000Y-160000D02*
X495000Y-160000D01*
X545000Y37500D02*
X545000Y-2500D01*
X525000Y17500D02*
X565000Y17500D01*
X625000Y1645000D02*
X625000Y1605000D01*
X605000Y1625000D02*
X645000Y1625000D01*
X627500Y1445000D02*
X627500Y1405000D01*
X607500Y1425000D02*
X647500Y1425000D01*
X630566Y1237500D02*
X630566Y1197500D01*
X610566Y1217500D02*
X650566Y1217500D01*
X662500Y670000D02*
X662500Y630000D01*
X642500Y650000D02*
X682500Y650000D01*
X757500Y670100D02*
X757500Y630100D01*
X737500Y650100D02*
X777500Y650100D01*
X767500Y295000D02*
X767500Y255000D01*
X747500Y275000D02*
X787500Y275000D01*
X770000Y397500D02*
X770000Y357500D01*
X750000Y377500D02*
X790000Y377500D01*
X807084Y-708873D02*
X807084Y-748873D01*
X787084Y-728873D02*
X827084Y-728873D01*
X867500Y292500D02*
X867500Y252500D01*
X847500Y272500D02*
X887500Y272500D01*
X902500Y-417500D02*
X902500Y-457500D01*
X882500Y-437500D02*
X922500Y-437500D01*
X985000Y-480000D02*
X985000Y-520000D01*
X965000Y-500000D02*
X1005000Y-500000D01*
X991065Y631065D02*
X991065Y591065D01*
X971065Y611065D02*
X1011065Y611065D01*
X995000Y-377500D02*
X995000Y-417500D01*
X975000Y-397500D02*
X1015000Y-397500D01*
X1058565Y563565D02*
X1058565Y523565D01*
X1038565Y543565D02*
X1078565Y543565D01*
X1132500Y492500D02*
X1132500Y452500D01*
X1112500Y472500D02*
X1152500Y472500D01*
X1357500Y-47500D02*
X1357500Y-87500D01*
X1337500Y-67500D02*
X1377500Y-67500D01*
X1357550Y-136800D02*
X1357550Y-176800D01*
X1337550Y-156800D02*
X1377550Y-156800D01*
X1562500Y-315000D02*
X1562500Y-355000D01*
X1542500Y-335000D02*
X1582500Y-335000D01*
X1607500Y-230000D02*
X1607500Y-270000D01*
X1587500Y-250000D02*
X1627500Y-250000D01*
X1655000Y-317500D02*
X1655000Y-357500D01*
X1635000Y-337500D02*
X1675000Y-337500D01*
X1667500Y-1100000D02*
X1667500Y-1140000D01*
X1647500Y-1120000D02*
X1687500Y-1120000D01*
X-1221985Y-932071D02*
X-1221985Y-882573D01*
X-1271483Y-882573D01*
X-1271483Y-932071D01*
X-1221985Y-932071D01*
X-917929Y-628015D02*
X-917929Y-578517D01*
X-967427Y-578517D01*
X-967427Y-628015D01*
X-917929Y-628015D01*
X-882573Y-1271483D02*
X-882573Y-1221985D01*
X-932071Y-1221985D01*
X-932071Y-1271483D01*
X-882573Y-1271483D01*
X-578517Y-967427D02*
X-578517Y-917929D01*
X-628015Y-917929D01*
X-628015Y-967427D01*
X-578517Y-967427D01*
X-370000Y1442500D02*
X-322500Y1490000D01*
X-370000Y1537500D01*
X-417500Y1490000D01*
X-370000Y1442500D01*
X-385000Y1442500D02*
X-355000Y1442500D01*
X-355000Y1442500D02*
G75*
G03*
X-355000Y1537500I0J47500D01*
G01*
X-355000Y1537500D02*
X-385000Y1537500D01*
X-385000Y1537500D02*
G75*
G03*
X-385000Y1442500I0J-47500D01*
G01*
X-120000Y1442500D02*
X-72500Y1490000D01*
X-120000Y1537500D01*
X-167500Y1490000D01*
X-120000Y1442500D01*
X-135000Y1442500D02*
X-105000Y1442500D01*
X-105000Y1442500D02*
G75*
G03*
X-105000Y1537500I0J47500D01*
G01*
X-105000Y1537500D02*
X-135000Y1537500D01*
X-135000Y1537500D02*
G75*
G03*
X-135000Y1442500I0J-47500D01*
G01*
X-27500Y-1520000D02*
X20000Y-1472500D01*
X-27500Y-1425000D01*
X-75000Y-1472500D01*
X-27500Y-1520000D01*
X130000Y1442500D02*
X177500Y1490000D01*
X130000Y1537500D01*
X82500Y1490000D01*
X130000Y1442500D01*
X115000Y1442500D02*
X145000Y1442500D01*
X145000Y1442500D02*
G75*
G03*
X145000Y1537500I0J47500D01*
G01*
X145000Y1537500D02*
X115000Y1537500D01*
X115000Y1537500D02*
G75*
G03*
X115000Y1442500I0J-47500D01*
G01*
X222500Y-1520000D02*
X270000Y-1472500D01*
X222500Y-1425000D01*
X175000Y-1472500D01*
X222500Y-1520000D01*
X380000Y1442500D02*
X427500Y1490000D01*
X380000Y1537500D01*
X332500Y1490000D01*
X380000Y1442500D01*
X365000Y1442500D02*
X395000Y1442500D01*
X395000Y1442500D02*
G75*
G03*
X395000Y1537500I0J47500D01*
G01*
X395000Y1537500D02*
X365000Y1537500D01*
X365000Y1537500D02*
G75*
G03*
X365000Y1442500I0J-47500D01*
G01*
X472500Y-1520000D02*
X520000Y-1472500D01*
X472500Y-1425000D01*
X425000Y-1472500D01*
X472500Y-1520000D01*
X722500Y-1520000D02*
X770000Y-1472500D01*
X722500Y-1425000D01*
X675000Y-1472500D01*
X722500Y-1520000D01*
D12*
X-422500Y1267500D02*
X-317500Y1162500D01*
X-317500Y1267500D02*
X-422500Y1162500D01*
X-317500Y1215000D02*
G75*
G03*
X-317500Y1215000I-52500J0D01*
G01*
X-172500Y1267500D02*
X-67500Y1162500D01*
X-67500Y1267500D02*
X-172500Y1162500D01*
X-67500Y1215000D02*
G75*
G03*
X-67500Y1215000I-52500J0D01*
G01*
X77500Y1267500D02*
X182500Y1162500D01*
X182500Y1267500D02*
X77500Y1162500D01*
X182500Y1215000D02*
G75*
G03*
X182500Y1215000I-52500J0D01*
G01*
X327500Y1267500D02*
X432500Y1162500D01*
X432500Y1267500D02*
X327500Y1162500D01*
X432500Y1215000D02*
G75*
G03*
X432500Y1215000I-52500J0D01*
G01*
D13*
X-1455000Y1455000D02*
X-1145000Y1145000D01*
X-1145000Y1455000D02*
X-1455000Y1145000D01*
X-1300000Y1455000D02*
X-1300000Y1145000D01*
X-1455000Y1300000D02*
X-1145000Y1300000D01*
X-1455000Y-1145000D02*
X-1145000Y-1455000D01*
X-1145000Y-1145000D02*
X-1455000Y-1455000D01*
X-1300000Y-1145000D02*
X-1300000Y-1455000D01*
X-1455000Y-1300000D02*
X-1145000Y-1300000D01*
X1145000Y1455000D02*
X1455000Y1145000D01*
X1455000Y1455000D02*
X1145000Y1145000D01*
X1300000Y1455000D02*
X1300000Y1145000D01*
X1145000Y1300000D02*
X1455000Y1300000D01*
X1145000Y-1145000D02*
X1455000Y-1455000D01*
X1455000Y-1145000D02*
X1145000Y-1455000D01*
X1300000Y-1145000D02*
X1300000Y-1455000D01*
X1145000Y-1300000D02*
X1455000Y-1300000D01*
D10*
X-1496723Y-2068984D02*
X-1496723Y-1868984D01*
X-1496723Y-1868984D02*
X-1449104Y-1868984D01*
X-1449104Y-1868984D02*
X-1420533Y-1878508D01*
X-1420533Y-1878508D02*
X-1401485Y-1897555D01*
X-1401485Y-1897555D02*
X-1391961Y-1916603D01*
X-1391961Y-1916603D02*
X-1382438Y-1954698D01*
X-1382438Y-1954698D02*
X-1382438Y-1983269D01*
X-1382438Y-1983269D02*
X-1391961Y-2021365D01*
X-1391961Y-2021365D02*
X-1401485Y-2040412D01*
X-1401485Y-2040412D02*
X-1420533Y-2059460D01*
X-1420533Y-2059460D02*
X-1449104Y-2068984D01*
X-1449104Y-2068984D02*
X-1496723Y-2068984D01*
X-1296723Y-2068984D02*
X-1296723Y-1935650D01*
X-1296723Y-1973746D02*
X-1287199Y-1954698D01*
X-1287199Y-1954698D02*
X-1277676Y-1945174D01*
X-1277676Y-1945174D02*
X-1258628Y-1935650D01*
X-1258628Y-1935650D02*
X-1239580Y-1935650D01*
X-1172914Y-2068984D02*
X-1172914Y-1935650D01*
X-1172914Y-1868984D02*
X-1182438Y-1878508D01*
X-1182438Y-1878508D02*
X-1172914Y-1888031D01*
X-1172914Y-1888031D02*
X-1163390Y-1878508D01*
X-1163390Y-1878508D02*
X-1172914Y-1868984D01*
X-1172914Y-1868984D02*
X-1172914Y-1888031D01*
X-1049104Y-2068984D02*
X-1068152Y-2059460D01*
X-1068152Y-2059460D02*
X-1077676Y-2040412D01*
X-1077676Y-2040412D02*
X-1077676Y-1868984D01*
X-944342Y-2068984D02*
X-963390Y-2059460D01*
X-963390Y-2059460D02*
X-972914Y-2040412D01*
X-972914Y-2040412D02*
X-972914Y-1868984D01*
X-715771Y-2068984D02*
X-715771Y-1868984D01*
X-715771Y-1868984D02*
X-649104Y-2011841D01*
X-649104Y-2011841D02*
X-582438Y-1868984D01*
X-582438Y-1868984D02*
X-582438Y-2068984D01*
X-401485Y-2068984D02*
X-401485Y-1964222D01*
X-401485Y-1964222D02*
X-411009Y-1945174D01*
X-411009Y-1945174D02*
X-430056Y-1935650D01*
X-430056Y-1935650D02*
X-468152Y-1935650D01*
X-468152Y-1935650D02*
X-487199Y-1945174D01*
X-401485Y-2059460D02*
X-420533Y-2068984D01*
X-420533Y-2068984D02*
X-468152Y-2068984D01*
X-468152Y-2068984D02*
X-487199Y-2059460D01*
X-487199Y-2059460D02*
X-496723Y-2040412D01*
X-496723Y-2040412D02*
X-496723Y-2021365D01*
X-496723Y-2021365D02*
X-487199Y-2002317D01*
X-487199Y-2002317D02*
X-468152Y-1992793D01*
X-468152Y-1992793D02*
X-420533Y-1992793D01*
X-420533Y-1992793D02*
X-401485Y-1983269D01*
X-306247Y-1935650D02*
X-306247Y-2135650D01*
X-306247Y-1945174D02*
X-287199Y-1935650D01*
X-287199Y-1935650D02*
X-249104Y-1935650D01*
X-249104Y-1935650D02*
X-230056Y-1945174D01*
X-230056Y-1945174D02*
X-220533Y-1954698D01*
X-220533Y-1954698D02*
X-211009Y-1973746D01*
X-211009Y-1973746D02*
X-211009Y-2030888D01*
X-211009Y-2030888D02*
X-220533Y-2049936D01*
X-220533Y-2049936D02*
X-230056Y-2059460D01*
X-230056Y-2059460D02*
X-249104Y-2068984D01*
X-249104Y-2068984D02*
X-287199Y-2068984D01*
X-287199Y-2068984D02*
X-306247Y-2059460D01*
X-125295Y-2049936D02*
X-115771Y-2059460D01*
X-115771Y-2059460D02*
X-125295Y-2068984D01*
X-125295Y-2068984D02*
X-134818Y-2059460D01*
X-134818Y-2059460D02*
X-125295Y-2049936D01*
X-125295Y-2049936D02*
X-125295Y-2068984D01*
X-125295Y-1945174D02*
X-115771Y-1954698D01*
X-115771Y-1954698D02*
X-125295Y-1964222D01*
X-125295Y-1964222D02*
X-134818Y-1954698D01*
X-134818Y-1954698D02*
X-125295Y-1945174D01*
X-125295Y-1945174D02*
X-125295Y-1964222D01*
D11*
X-1777500Y-2387500D02*
X-1757500Y-2407500D01*
X-1757500Y-2387500D02*
X-1777500Y-2407500D01*
D10*
X-1458628Y-2288984D02*
X-1439580Y-2288984D01*
X-1439580Y-2288984D02*
X-1420533Y-2298508D01*
X-1420533Y-2298508D02*
X-1411009Y-2308031D01*
X-1411009Y-2308031D02*
X-1401485Y-2327079D01*
X-1401485Y-2327079D02*
X-1391961Y-2365174D01*
X-1391961Y-2365174D02*
X-1391961Y-2412793D01*
X-1391961Y-2412793D02*
X-1401485Y-2450889D01*
X-1401485Y-2450889D02*
X-1411009Y-2469936D01*
X-1411009Y-2469936D02*
X-1420533Y-2479460D01*
X-1420533Y-2479460D02*
X-1439580Y-2488984D01*
X-1439580Y-2488984D02*
X-1458628Y-2488984D01*
X-1458628Y-2488984D02*
X-1477676Y-2479460D01*
X-1477676Y-2479460D02*
X-1487199Y-2469936D01*
X-1487199Y-2469936D02*
X-1496723Y-2450889D01*
X-1496723Y-2450889D02*
X-1506247Y-2412793D01*
X-1506247Y-2412793D02*
X-1506247Y-2365174D01*
X-1506247Y-2365174D02*
X-1496723Y-2327079D01*
X-1496723Y-2327079D02*
X-1487199Y-2308031D01*
X-1487199Y-2308031D02*
X-1477676Y-2298508D01*
X-1477676Y-2298508D02*
X-1458628Y-2288984D01*
X-1306247Y-2469936D02*
X-1296723Y-2479460D01*
X-1296723Y-2479460D02*
X-1306247Y-2488984D01*
X-1306247Y-2488984D02*
X-1315771Y-2479460D01*
X-1315771Y-2479460D02*
X-1306247Y-2469936D01*
X-1306247Y-2469936D02*
X-1306247Y-2488984D01*
X-1220533Y-2308031D02*
X-1211009Y-2298508D01*
X-1211009Y-2298508D02*
X-1191961Y-2288984D01*
X-1191961Y-2288984D02*
X-1144342Y-2288984D01*
X-1144342Y-2288984D02*
X-1125295Y-2298508D01*
X-1125295Y-2298508D02*
X-1115771Y-2308031D01*
X-1115771Y-2308031D02*
X-1106247Y-2327079D01*
X-1106247Y-2327079D02*
X-1106247Y-2346127D01*
X-1106247Y-2346127D02*
X-1115771Y-2374698D01*
X-1115771Y-2374698D02*
X-1230057Y-2488984D01*
X-1230057Y-2488984D02*
X-1106247Y-2488984D01*
X-982437Y-2288984D02*
X-963390Y-2288984D01*
X-963390Y-2288984D02*
X-944342Y-2298508D01*
X-944342Y-2298508D02*
X-934818Y-2308031D01*
X-934818Y-2308031D02*
X-925295Y-2327079D01*
X-925295Y-2327079D02*
X-915771Y-2365174D01*
X-915771Y-2365174D02*
X-915771Y-2412793D01*
X-915771Y-2412793D02*
X-925295Y-2450889D01*
X-925295Y-2450889D02*
X-934818Y-2469936D01*
X-934818Y-2469936D02*
X-944342Y-2479460D01*
X-944342Y-2479460D02*
X-963390Y-2488984D01*
X-963390Y-2488984D02*
X-982437Y-2488984D01*
X-982437Y-2488984D02*
X-1001485Y-2479460D01*
X-1001485Y-2479460D02*
X-1011009Y-2469936D01*
X-1011009Y-2469936D02*
X-1020533Y-2450889D01*
X-1020533Y-2450889D02*
X-1030056Y-2412793D01*
X-1030056Y-2412793D02*
X-1030056Y-2365174D01*
X-1030056Y-2365174D02*
X-1020533Y-2327079D01*
X-1020533Y-2327079D02*
X-1011009Y-2308031D01*
X-1011009Y-2308031D02*
X-1001485Y-2298508D01*
X-1001485Y-2298508D02*
X-982437Y-2288984D01*
X-791961Y-2288984D02*
X-772914Y-2288984D01*
X-772914Y-2288984D02*
X-753866Y-2298508D01*
X-753866Y-2298508D02*
X-744342Y-2308031D01*
X-744342Y-2308031D02*
X-734818Y-2327079D01*
X-734818Y-2327079D02*
X-725295Y-2365174D01*
X-725295Y-2365174D02*
X-725295Y-2412793D01*
X-725295Y-2412793D02*
X-734818Y-2450889D01*
X-734818Y-2450889D02*
X-744342Y-2469936D01*
X-744342Y-2469936D02*
X-753866Y-2479460D01*
X-753866Y-2479460D02*
X-772914Y-2488984D01*
X-772914Y-2488984D02*
X-791961Y-2488984D01*
X-791961Y-2488984D02*
X-811009Y-2479460D01*
X-811009Y-2479460D02*
X-820533Y-2469936D01*
X-820533Y-2469936D02*
X-830056Y-2450889D01*
X-830056Y-2450889D02*
X-839580Y-2412793D01*
X-839580Y-2412793D02*
X-839580Y-2365174D01*
X-839580Y-2365174D02*
X-830056Y-2327079D01*
X-830056Y-2327079D02*
X-820533Y-2308031D01*
X-820533Y-2308031D02*
X-811009Y-2298508D01*
X-811009Y-2298508D02*
X-791961Y-2288984D01*
X-639580Y-2488984D02*
X-639580Y-2355650D01*
X-639580Y-2374698D02*
X-630057Y-2365174D01*
X-630057Y-2365174D02*
X-611009Y-2355650D01*
X-611009Y-2355650D02*
X-582437Y-2355650D01*
X-582437Y-2355650D02*
X-563390Y-2365174D01*
X-563390Y-2365174D02*
X-553866Y-2384222D01*
X-553866Y-2384222D02*
X-553866Y-2488984D01*
X-553866Y-2384222D02*
X-544342Y-2365174D01*
X-544342Y-2365174D02*
X-525295Y-2355650D01*
X-525295Y-2355650D02*
X-496723Y-2355650D01*
X-496723Y-2355650D02*
X-477675Y-2365174D01*
X-477675Y-2365174D02*
X-468152Y-2384222D01*
X-468152Y-2384222D02*
X-468152Y-2488984D01*
X-372914Y-2488984D02*
X-372914Y-2355650D01*
X-372914Y-2374698D02*
X-363390Y-2365174D01*
X-363390Y-2365174D02*
X-344342Y-2355650D01*
X-344342Y-2355650D02*
X-315771Y-2355650D01*
X-315771Y-2355650D02*
X-296723Y-2365174D01*
X-296723Y-2365174D02*
X-287199Y-2384222D01*
X-287199Y-2384222D02*
X-287199Y-2488984D01*
X-287199Y-2384222D02*
X-277676Y-2365174D01*
X-277676Y-2365174D02*
X-258628Y-2355650D01*
X-258628Y-2355650D02*
X-230056Y-2355650D01*
X-230056Y-2355650D02*
X-211009Y-2365174D01*
X-211009Y-2365174D02*
X-201485Y-2384222D01*
X-201485Y-2384222D02*
X-201485Y-2488984D01*
X188991Y-2279460D02*
X17563Y-2536603D01*
X446134Y-2288984D02*
X465182Y-2288984D01*
X465182Y-2288984D02*
X484229Y-2298508D01*
X484229Y-2298508D02*
X493753Y-2308031D01*
X493753Y-2308031D02*
X503277Y-2327079D01*
X503277Y-2327079D02*
X512801Y-2365174D01*
X512801Y-2365174D02*
X512801Y-2412793D01*
X512801Y-2412793D02*
X503277Y-2450889D01*
X503277Y-2450889D02*
X493753Y-2469936D01*
X493753Y-2469936D02*
X484229Y-2479460D01*
X484229Y-2479460D02*
X465182Y-2488984D01*
X465182Y-2488984D02*
X446134Y-2488984D01*
X446134Y-2488984D02*
X427086Y-2479460D01*
X427086Y-2479460D02*
X417563Y-2469936D01*
X417563Y-2469936D02*
X408039Y-2450889D01*
X408039Y-2450889D02*
X398515Y-2412793D01*
X398515Y-2412793D02*
X398515Y-2365174D01*
X398515Y-2365174D02*
X408039Y-2327079D01*
X408039Y-2327079D02*
X417563Y-2308031D01*
X417563Y-2308031D02*
X427086Y-2298508D01*
X427086Y-2298508D02*
X446134Y-2288984D01*
X598515Y-2469936D02*
X608039Y-2479460D01*
X608039Y-2479460D02*
X598515Y-2488984D01*
X598515Y-2488984D02*
X588991Y-2479460D01*
X588991Y-2479460D02*
X598515Y-2469936D01*
X598515Y-2469936D02*
X598515Y-2488984D01*
X731848Y-2288984D02*
X750896Y-2288984D01*
X750896Y-2288984D02*
X769944Y-2298508D01*
X769944Y-2298508D02*
X779467Y-2308031D01*
X779467Y-2308031D02*
X788991Y-2327079D01*
X788991Y-2327079D02*
X798515Y-2365174D01*
X798515Y-2365174D02*
X798515Y-2412793D01*
X798515Y-2412793D02*
X788991Y-2450889D01*
X788991Y-2450889D02*
X779467Y-2469936D01*
X779467Y-2469936D02*
X769944Y-2479460D01*
X769944Y-2479460D02*
X750896Y-2488984D01*
X750896Y-2488984D02*
X731848Y-2488984D01*
X731848Y-2488984D02*
X712801Y-2479460D01*
X712801Y-2479460D02*
X703277Y-2469936D01*
X703277Y-2469936D02*
X693753Y-2450889D01*
X693753Y-2450889D02*
X684229Y-2412793D01*
X684229Y-2412793D02*
X684229Y-2365174D01*
X684229Y-2365174D02*
X693753Y-2327079D01*
X693753Y-2327079D02*
X703277Y-2308031D01*
X703277Y-2308031D02*
X712801Y-2298508D01*
X712801Y-2298508D02*
X731848Y-2288984D01*
X922325Y-2288984D02*
X941372Y-2288984D01*
X941372Y-2288984D02*
X960420Y-2298508D01*
X960420Y-2298508D02*
X969944Y-2308031D01*
X969944Y-2308031D02*
X979467Y-2327079D01*
X979467Y-2327079D02*
X988991Y-2365174D01*
X988991Y-2365174D02*
X988991Y-2412793D01*
X988991Y-2412793D02*
X979467Y-2450889D01*
X979467Y-2450889D02*
X969944Y-2469936D01*
X969944Y-2469936D02*
X960420Y-2479460D01*
X960420Y-2479460D02*
X941372Y-2488984D01*
X941372Y-2488984D02*
X922325Y-2488984D01*
X922325Y-2488984D02*
X903277Y-2479460D01*
X903277Y-2479460D02*
X893753Y-2469936D01*
X893753Y-2469936D02*
X884229Y-2450889D01*
X884229Y-2450889D02*
X874706Y-2412793D01*
X874706Y-2412793D02*
X874706Y-2365174D01*
X874706Y-2365174D02*
X884229Y-2327079D01*
X884229Y-2327079D02*
X893753Y-2308031D01*
X893753Y-2308031D02*
X903277Y-2298508D01*
X903277Y-2298508D02*
X922325Y-2288984D01*
X1055658Y-2288984D02*
X1188991Y-2288984D01*
X1188991Y-2288984D02*
X1103277Y-2488984D01*
X1274706Y-2488984D02*
X1312801Y-2488984D01*
X1312801Y-2488984D02*
X1331849Y-2479460D01*
X1331849Y-2479460D02*
X1341372Y-2469936D01*
X1341372Y-2469936D02*
X1360420Y-2441365D01*
X1360420Y-2441365D02*
X1369944Y-2403270D01*
X1369944Y-2403270D02*
X1369944Y-2327079D01*
X1369944Y-2327079D02*
X1360420Y-2308031D01*
X1360420Y-2308031D02*
X1350896Y-2298508D01*
X1350896Y-2298508D02*
X1331849Y-2288984D01*
X1331849Y-2288984D02*
X1293753Y-2288984D01*
X1293753Y-2288984D02*
X1274706Y-2298508D01*
X1274706Y-2298508D02*
X1265182Y-2308031D01*
X1265182Y-2308031D02*
X1255658Y-2327079D01*
X1255658Y-2327079D02*
X1255658Y-2374698D01*
X1255658Y-2374698D02*
X1265182Y-2393746D01*
X1265182Y-2393746D02*
X1274706Y-2403270D01*
X1274706Y-2403270D02*
X1293753Y-2412793D01*
X1293753Y-2412793D02*
X1331849Y-2412793D01*
X1331849Y-2412793D02*
X1350896Y-2403270D01*
X1350896Y-2403270D02*
X1360420Y-2393746D01*
X1360420Y-2393746D02*
X1369944Y-2374698D01*
X1446134Y-2288984D02*
X1446134Y-2327079D01*
X1522325Y-2288984D02*
X1522325Y-2327079D01*
X1817563Y-2565174D02*
X1808039Y-2555650D01*
X1808039Y-2555650D02*
X1788991Y-2527079D01*
X1788991Y-2527079D02*
X1779468Y-2508031D01*
X1779468Y-2508031D02*
X1769944Y-2479460D01*
X1769944Y-2479460D02*
X1760420Y-2431841D01*
X1760420Y-2431841D02*
X1760420Y-2393746D01*
X1760420Y-2393746D02*
X1769944Y-2346127D01*
X1769944Y-2346127D02*
X1779468Y-2317555D01*
X1779468Y-2317555D02*
X1788991Y-2298508D01*
X1788991Y-2298508D02*
X1808039Y-2269936D01*
X1808039Y-2269936D02*
X1817563Y-2260412D01*
X1979468Y-2288984D02*
X1941372Y-2288984D01*
X1941372Y-2288984D02*
X1922325Y-2298508D01*
X1922325Y-2298508D02*
X1912801Y-2308031D01*
X1912801Y-2308031D02*
X1893753Y-2336603D01*
X1893753Y-2336603D02*
X1884229Y-2374698D01*
X1884229Y-2374698D02*
X1884229Y-2450889D01*
X1884229Y-2450889D02*
X1893753Y-2469936D01*
X1893753Y-2469936D02*
X1903277Y-2479460D01*
X1903277Y-2479460D02*
X1922325Y-2488984D01*
X1922325Y-2488984D02*
X1960420Y-2488984D01*
X1960420Y-2488984D02*
X1979468Y-2479460D01*
X1979468Y-2479460D02*
X1988991Y-2469936D01*
X1988991Y-2469936D02*
X1998515Y-2450889D01*
X1998515Y-2450889D02*
X1998515Y-2403270D01*
X1998515Y-2403270D02*
X1988991Y-2384222D01*
X1988991Y-2384222D02*
X1979468Y-2374698D01*
X1979468Y-2374698D02*
X1960420Y-2365174D01*
X1960420Y-2365174D02*
X1922325Y-2365174D01*
X1922325Y-2365174D02*
X1903277Y-2374698D01*
X1903277Y-2374698D02*
X1893753Y-2384222D01*
X1893753Y-2384222D02*
X1884229Y-2403270D01*
X2179468Y-2288984D02*
X2084229Y-2288984D01*
X2084229Y-2288984D02*
X2074706Y-2384222D01*
X2074706Y-2384222D02*
X2084229Y-2374698D01*
X2084229Y-2374698D02*
X2103277Y-2365174D01*
X2103277Y-2365174D02*
X2150896Y-2365174D01*
X2150896Y-2365174D02*
X2169944Y-2374698D01*
X2169944Y-2374698D02*
X2179468Y-2384222D01*
X2179468Y-2384222D02*
X2188991Y-2403270D01*
X2188991Y-2403270D02*
X2188991Y-2450889D01*
X2188991Y-2450889D02*
X2179468Y-2469936D01*
X2179468Y-2469936D02*
X2169944Y-2479460D01*
X2169944Y-2479460D02*
X2150896Y-2488984D01*
X2150896Y-2488984D02*
X2103277Y-2488984D01*
X2103277Y-2488984D02*
X2084229Y-2479460D01*
X2084229Y-2479460D02*
X2074706Y-2469936D01*
X2427087Y-2488984D02*
X2427087Y-2288984D01*
X2512801Y-2488984D02*
X2512801Y-2384222D01*
X2512801Y-2384222D02*
X2503277Y-2365174D01*
X2503277Y-2365174D02*
X2484230Y-2355650D01*
X2484230Y-2355650D02*
X2455658Y-2355650D01*
X2455658Y-2355650D02*
X2436611Y-2365174D01*
X2436611Y-2365174D02*
X2427087Y-2374698D01*
X2636611Y-2488984D02*
X2617563Y-2479460D01*
X2617563Y-2479460D02*
X2608039Y-2469936D01*
X2608039Y-2469936D02*
X2598515Y-2450889D01*
X2598515Y-2450889D02*
X2598515Y-2393746D01*
X2598515Y-2393746D02*
X2608039Y-2374698D01*
X2608039Y-2374698D02*
X2617563Y-2365174D01*
X2617563Y-2365174D02*
X2636611Y-2355650D01*
X2636611Y-2355650D02*
X2665182Y-2355650D01*
X2665182Y-2355650D02*
X2684230Y-2365174D01*
X2684230Y-2365174D02*
X2693753Y-2374698D01*
X2693753Y-2374698D02*
X2703277Y-2393746D01*
X2703277Y-2393746D02*
X2703277Y-2450889D01*
X2703277Y-2450889D02*
X2693753Y-2469936D01*
X2693753Y-2469936D02*
X2684230Y-2479460D01*
X2684230Y-2479460D02*
X2665182Y-2488984D01*
X2665182Y-2488984D02*
X2636611Y-2488984D01*
X2817563Y-2488984D02*
X2798515Y-2479460D01*
X2798515Y-2479460D02*
X2788992Y-2460412D01*
X2788992Y-2460412D02*
X2788992Y-2288984D01*
X2969944Y-2479460D02*
X2950896Y-2488984D01*
X2950896Y-2488984D02*
X2912801Y-2488984D01*
X2912801Y-2488984D02*
X2893753Y-2479460D01*
X2893753Y-2479460D02*
X2884230Y-2460412D01*
X2884230Y-2460412D02*
X2884230Y-2384222D01*
X2884230Y-2384222D02*
X2893753Y-2365174D01*
X2893753Y-2365174D02*
X2912801Y-2355650D01*
X2912801Y-2355650D02*
X2950896Y-2355650D01*
X2950896Y-2355650D02*
X2969944Y-2365174D01*
X2969944Y-2365174D02*
X2979468Y-2384222D01*
X2979468Y-2384222D02*
X2979468Y-2403270D01*
X2979468Y-2403270D02*
X2884230Y-2422317D01*
X3055658Y-2479460D02*
X3074706Y-2488984D01*
X3074706Y-2488984D02*
X3112801Y-2488984D01*
X3112801Y-2488984D02*
X3131849Y-2479460D01*
X3131849Y-2479460D02*
X3141372Y-2460412D01*
X3141372Y-2460412D02*
X3141372Y-2450889D01*
X3141372Y-2450889D02*
X3131849Y-2431841D01*
X3131849Y-2431841D02*
X3112801Y-2422317D01*
X3112801Y-2422317D02*
X3084230Y-2422317D01*
X3084230Y-2422317D02*
X3065182Y-2412793D01*
X3065182Y-2412793D02*
X3055658Y-2393746D01*
X3055658Y-2393746D02*
X3055658Y-2384222D01*
X3055658Y-2384222D02*
X3065182Y-2365174D01*
X3065182Y-2365174D02*
X3084230Y-2355650D01*
X3084230Y-2355650D02*
X3112801Y-2355650D01*
X3112801Y-2355650D02*
X3131849Y-2365174D01*
X3208039Y-2565174D02*
X3217563Y-2555650D01*
X3217563Y-2555650D02*
X3236611Y-2527079D01*
X3236611Y-2527079D02*
X3246134Y-2508031D01*
X3246134Y-2508031D02*
X3255658Y-2479460D01*
X3255658Y-2479460D02*
X3265182Y-2431841D01*
X3265182Y-2431841D02*
X3265182Y-2393746D01*
X3265182Y-2393746D02*
X3255658Y-2346127D01*
X3255658Y-2346127D02*
X3246134Y-2317555D01*
X3246134Y-2317555D02*
X3236611Y-2298508D01*
X3236611Y-2298508D02*
X3217563Y-2269936D01*
X3217563Y-2269936D02*
X3208039Y-2260412D01*
D11*
X-1757500Y-2661500D02*
G75*
G03*
X-1757500Y-2661500I-15000J0D01*
G01*
D10*
X-1458628Y-2552984D02*
X-1439580Y-2552984D01*
X-1439580Y-2552984D02*
X-1420533Y-2562508D01*
X-1420533Y-2562508D02*
X-1411009Y-2572031D01*
X-1411009Y-2572031D02*
X-1401485Y-2591079D01*
X-1401485Y-2591079D02*
X-1391961Y-2629174D01*
X-1391961Y-2629174D02*
X-1391961Y-2676793D01*
X-1391961Y-2676793D02*
X-1401485Y-2714889D01*
X-1401485Y-2714889D02*
X-1411009Y-2733936D01*
X-1411009Y-2733936D02*
X-1420533Y-2743460D01*
X-1420533Y-2743460D02*
X-1439580Y-2752984D01*
X-1439580Y-2752984D02*
X-1458628Y-2752984D01*
X-1458628Y-2752984D02*
X-1477676Y-2743460D01*
X-1477676Y-2743460D02*
X-1487199Y-2733936D01*
X-1487199Y-2733936D02*
X-1496723Y-2714889D01*
X-1496723Y-2714889D02*
X-1506247Y-2676793D01*
X-1506247Y-2676793D02*
X-1506247Y-2629174D01*
X-1506247Y-2629174D02*
X-1496723Y-2591079D01*
X-1496723Y-2591079D02*
X-1487199Y-2572031D01*
X-1487199Y-2572031D02*
X-1477676Y-2562508D01*
X-1477676Y-2562508D02*
X-1458628Y-2552984D01*
X-1306247Y-2733936D02*
X-1296723Y-2743460D01*
X-1296723Y-2743460D02*
X-1306247Y-2752984D01*
X-1306247Y-2752984D02*
X-1315771Y-2743460D01*
X-1315771Y-2743460D02*
X-1306247Y-2733936D01*
X-1306247Y-2733936D02*
X-1306247Y-2752984D01*
X-1230057Y-2552984D02*
X-1106247Y-2552984D01*
X-1106247Y-2552984D02*
X-1172914Y-2629174D01*
X-1172914Y-2629174D02*
X-1144342Y-2629174D01*
X-1144342Y-2629174D02*
X-1125295Y-2638698D01*
X-1125295Y-2638698D02*
X-1115771Y-2648222D01*
X-1115771Y-2648222D02*
X-1106247Y-2667270D01*
X-1106247Y-2667270D02*
X-1106247Y-2714889D01*
X-1106247Y-2714889D02*
X-1115771Y-2733936D01*
X-1115771Y-2733936D02*
X-1125295Y-2743460D01*
X-1125295Y-2743460D02*
X-1144342Y-2752984D01*
X-1144342Y-2752984D02*
X-1201485Y-2752984D01*
X-1201485Y-2752984D02*
X-1220533Y-2743460D01*
X-1220533Y-2743460D02*
X-1230057Y-2733936D01*
X-982437Y-2552984D02*
X-963390Y-2552984D01*
X-963390Y-2552984D02*
X-944342Y-2562508D01*
X-944342Y-2562508D02*
X-934818Y-2572031D01*
X-934818Y-2572031D02*
X-925295Y-2591079D01*
X-925295Y-2591079D02*
X-915771Y-2629174D01*
X-915771Y-2629174D02*
X-915771Y-2676793D01*
X-915771Y-2676793D02*
X-925295Y-2714889D01*
X-925295Y-2714889D02*
X-934818Y-2733936D01*
X-934818Y-2733936D02*
X-944342Y-2743460D01*
X-944342Y-2743460D02*
X-963390Y-2752984D01*
X-963390Y-2752984D02*
X-982437Y-2752984D01*
X-982437Y-2752984D02*
X-1001485Y-2743460D01*
X-1001485Y-2743460D02*
X-1011009Y-2733936D01*
X-1011009Y-2733936D02*
X-1020533Y-2714889D01*
X-1020533Y-2714889D02*
X-1030056Y-2676793D01*
X-1030056Y-2676793D02*
X-1030056Y-2629174D01*
X-1030056Y-2629174D02*
X-1020533Y-2591079D01*
X-1020533Y-2591079D02*
X-1011009Y-2572031D01*
X-1011009Y-2572031D02*
X-1001485Y-2562508D01*
X-1001485Y-2562508D02*
X-982437Y-2552984D01*
X-791961Y-2552984D02*
X-772914Y-2552984D01*
X-772914Y-2552984D02*
X-753866Y-2562508D01*
X-753866Y-2562508D02*
X-744342Y-2572031D01*
X-744342Y-2572031D02*
X-734818Y-2591079D01*
X-734818Y-2591079D02*
X-725295Y-2629174D01*
X-725295Y-2629174D02*
X-725295Y-2676793D01*
X-725295Y-2676793D02*
X-734818Y-2714889D01*
X-734818Y-2714889D02*
X-744342Y-2733936D01*
X-744342Y-2733936D02*
X-753866Y-2743460D01*
X-753866Y-2743460D02*
X-772914Y-2752984D01*
X-772914Y-2752984D02*
X-791961Y-2752984D01*
X-791961Y-2752984D02*
X-811009Y-2743460D01*
X-811009Y-2743460D02*
X-820533Y-2733936D01*
X-820533Y-2733936D02*
X-830056Y-2714889D01*
X-830056Y-2714889D02*
X-839580Y-2676793D01*
X-839580Y-2676793D02*
X-839580Y-2629174D01*
X-839580Y-2629174D02*
X-830056Y-2591079D01*
X-830056Y-2591079D02*
X-820533Y-2572031D01*
X-820533Y-2572031D02*
X-811009Y-2562508D01*
X-811009Y-2562508D02*
X-791961Y-2552984D01*
X-639580Y-2752984D02*
X-639580Y-2619650D01*
X-639580Y-2638698D02*
X-630057Y-2629174D01*
X-630057Y-2629174D02*
X-611009Y-2619650D01*
X-611009Y-2619650D02*
X-582437Y-2619650D01*
X-582437Y-2619650D02*
X-563390Y-2629174D01*
X-563390Y-2629174D02*
X-553866Y-2648222D01*
X-553866Y-2648222D02*
X-553866Y-2752984D01*
X-553866Y-2648222D02*
X-544342Y-2629174D01*
X-544342Y-2629174D02*
X-525295Y-2619650D01*
X-525295Y-2619650D02*
X-496723Y-2619650D01*
X-496723Y-2619650D02*
X-477675Y-2629174D01*
X-477675Y-2629174D02*
X-468152Y-2648222D01*
X-468152Y-2648222D02*
X-468152Y-2752984D01*
X-372914Y-2752984D02*
X-372914Y-2619650D01*
X-372914Y-2638698D02*
X-363390Y-2629174D01*
X-363390Y-2629174D02*
X-344342Y-2619650D01*
X-344342Y-2619650D02*
X-315771Y-2619650D01*
X-315771Y-2619650D02*
X-296723Y-2629174D01*
X-296723Y-2629174D02*
X-287199Y-2648222D01*
X-287199Y-2648222D02*
X-287199Y-2752984D01*
X-287199Y-2648222D02*
X-277676Y-2629174D01*
X-277676Y-2629174D02*
X-258628Y-2619650D01*
X-258628Y-2619650D02*
X-230056Y-2619650D01*
X-230056Y-2619650D02*
X-211009Y-2629174D01*
X-211009Y-2629174D02*
X-201485Y-2648222D01*
X-201485Y-2648222D02*
X-201485Y-2752984D01*
X188991Y-2543460D02*
X17563Y-2800603D01*
X446134Y-2552984D02*
X465182Y-2552984D01*
X465182Y-2552984D02*
X484229Y-2562508D01*
X484229Y-2562508D02*
X493753Y-2572031D01*
X493753Y-2572031D02*
X503277Y-2591079D01*
X503277Y-2591079D02*
X512801Y-2629174D01*
X512801Y-2629174D02*
X512801Y-2676793D01*
X512801Y-2676793D02*
X503277Y-2714889D01*
X503277Y-2714889D02*
X493753Y-2733936D01*
X493753Y-2733936D02*
X484229Y-2743460D01*
X484229Y-2743460D02*
X465182Y-2752984D01*
X465182Y-2752984D02*
X446134Y-2752984D01*
X446134Y-2752984D02*
X427086Y-2743460D01*
X427086Y-2743460D02*
X417563Y-2733936D01*
X417563Y-2733936D02*
X408039Y-2714889D01*
X408039Y-2714889D02*
X398515Y-2676793D01*
X398515Y-2676793D02*
X398515Y-2629174D01*
X398515Y-2629174D02*
X408039Y-2591079D01*
X408039Y-2591079D02*
X417563Y-2572031D01*
X417563Y-2572031D02*
X427086Y-2562508D01*
X427086Y-2562508D02*
X446134Y-2552984D01*
X598515Y-2733936D02*
X608039Y-2743460D01*
X608039Y-2743460D02*
X598515Y-2752984D01*
X598515Y-2752984D02*
X588991Y-2743460D01*
X588991Y-2743460D02*
X598515Y-2733936D01*
X598515Y-2733936D02*
X598515Y-2752984D01*
X731848Y-2552984D02*
X750896Y-2552984D01*
X750896Y-2552984D02*
X769944Y-2562508D01*
X769944Y-2562508D02*
X779467Y-2572031D01*
X779467Y-2572031D02*
X788991Y-2591079D01*
X788991Y-2591079D02*
X798515Y-2629174D01*
X798515Y-2629174D02*
X798515Y-2676793D01*
X798515Y-2676793D02*
X788991Y-2714889D01*
X788991Y-2714889D02*
X779467Y-2733936D01*
X779467Y-2733936D02*
X769944Y-2743460D01*
X769944Y-2743460D02*
X750896Y-2752984D01*
X750896Y-2752984D02*
X731848Y-2752984D01*
X731848Y-2752984D02*
X712801Y-2743460D01*
X712801Y-2743460D02*
X703277Y-2733936D01*
X703277Y-2733936D02*
X693753Y-2714889D01*
X693753Y-2714889D02*
X684229Y-2676793D01*
X684229Y-2676793D02*
X684229Y-2629174D01*
X684229Y-2629174D02*
X693753Y-2591079D01*
X693753Y-2591079D02*
X703277Y-2572031D01*
X703277Y-2572031D02*
X712801Y-2562508D01*
X712801Y-2562508D02*
X731848Y-2552984D01*
X988991Y-2752984D02*
X874706Y-2752984D01*
X931848Y-2752984D02*
X931848Y-2552984D01*
X931848Y-2552984D02*
X912801Y-2581555D01*
X912801Y-2581555D02*
X893753Y-2600603D01*
X893753Y-2600603D02*
X874706Y-2610127D01*
X1179468Y-2752984D02*
X1065182Y-2752984D01*
X1122325Y-2752984D02*
X1122325Y-2552984D01*
X1122325Y-2552984D02*
X1103277Y-2581555D01*
X1103277Y-2581555D02*
X1084229Y-2600603D01*
X1084229Y-2600603D02*
X1065182Y-2610127D01*
X1293753Y-2638698D02*
X1274706Y-2629174D01*
X1274706Y-2629174D02*
X1265182Y-2619650D01*
X1265182Y-2619650D02*
X1255658Y-2600603D01*
X1255658Y-2600603D02*
X1255658Y-2591079D01*
X1255658Y-2591079D02*
X1265182Y-2572031D01*
X1265182Y-2572031D02*
X1274706Y-2562508D01*
X1274706Y-2562508D02*
X1293753Y-2552984D01*
X1293753Y-2552984D02*
X1331849Y-2552984D01*
X1331849Y-2552984D02*
X1350896Y-2562508D01*
X1350896Y-2562508D02*
X1360420Y-2572031D01*
X1360420Y-2572031D02*
X1369944Y-2591079D01*
X1369944Y-2591079D02*
X1369944Y-2600603D01*
X1369944Y-2600603D02*
X1360420Y-2619650D01*
X1360420Y-2619650D02*
X1350896Y-2629174D01*
X1350896Y-2629174D02*
X1331849Y-2638698D01*
X1331849Y-2638698D02*
X1293753Y-2638698D01*
X1293753Y-2638698D02*
X1274706Y-2648222D01*
X1274706Y-2648222D02*
X1265182Y-2657746D01*
X1265182Y-2657746D02*
X1255658Y-2676793D01*
X1255658Y-2676793D02*
X1255658Y-2714889D01*
X1255658Y-2714889D02*
X1265182Y-2733936D01*
X1265182Y-2733936D02*
X1274706Y-2743460D01*
X1274706Y-2743460D02*
X1293753Y-2752984D01*
X1293753Y-2752984D02*
X1331849Y-2752984D01*
X1331849Y-2752984D02*
X1350896Y-2743460D01*
X1350896Y-2743460D02*
X1360420Y-2733936D01*
X1360420Y-2733936D02*
X1369944Y-2714889D01*
X1369944Y-2714889D02*
X1369944Y-2676793D01*
X1369944Y-2676793D02*
X1360420Y-2657746D01*
X1360420Y-2657746D02*
X1350896Y-2648222D01*
X1350896Y-2648222D02*
X1331849Y-2638698D01*
X1446134Y-2552984D02*
X1446134Y-2591079D01*
X1522325Y-2552984D02*
X1522325Y-2591079D01*
X1817563Y-2829174D02*
X1808039Y-2819650D01*
X1808039Y-2819650D02*
X1788991Y-2791079D01*
X1788991Y-2791079D02*
X1779468Y-2772031D01*
X1779468Y-2772031D02*
X1769944Y-2743460D01*
X1769944Y-2743460D02*
X1760420Y-2695841D01*
X1760420Y-2695841D02*
X1760420Y-2657746D01*
X1760420Y-2657746D02*
X1769944Y-2610127D01*
X1769944Y-2610127D02*
X1779468Y-2581555D01*
X1779468Y-2581555D02*
X1788991Y-2562508D01*
X1788991Y-2562508D02*
X1808039Y-2533936D01*
X1808039Y-2533936D02*
X1817563Y-2524412D01*
X1979468Y-2619650D02*
X1979468Y-2752984D01*
X1931848Y-2543460D02*
X1884229Y-2686317D01*
X1884229Y-2686317D02*
X2008039Y-2686317D01*
X2236611Y-2752984D02*
X2236611Y-2552984D01*
X2322325Y-2752984D02*
X2322325Y-2648222D01*
X2322325Y-2648222D02*
X2312801Y-2629174D01*
X2312801Y-2629174D02*
X2293753Y-2619650D01*
X2293753Y-2619650D02*
X2265182Y-2619650D01*
X2265182Y-2619650D02*
X2246134Y-2629174D01*
X2246134Y-2629174D02*
X2236611Y-2638698D01*
X2446134Y-2752984D02*
X2427087Y-2743460D01*
X2427087Y-2743460D02*
X2417563Y-2733936D01*
X2417563Y-2733936D02*
X2408039Y-2714889D01*
X2408039Y-2714889D02*
X2408039Y-2657746D01*
X2408039Y-2657746D02*
X2417563Y-2638698D01*
X2417563Y-2638698D02*
X2427087Y-2629174D01*
X2427087Y-2629174D02*
X2446134Y-2619650D01*
X2446134Y-2619650D02*
X2474706Y-2619650D01*
X2474706Y-2619650D02*
X2493753Y-2629174D01*
X2493753Y-2629174D02*
X2503277Y-2638698D01*
X2503277Y-2638698D02*
X2512801Y-2657746D01*
X2512801Y-2657746D02*
X2512801Y-2714889D01*
X2512801Y-2714889D02*
X2503277Y-2733936D01*
X2503277Y-2733936D02*
X2493753Y-2743460D01*
X2493753Y-2743460D02*
X2474706Y-2752984D01*
X2474706Y-2752984D02*
X2446134Y-2752984D01*
X2627087Y-2752984D02*
X2608039Y-2743460D01*
X2608039Y-2743460D02*
X2598515Y-2724412D01*
X2598515Y-2724412D02*
X2598515Y-2552984D01*
X2779468Y-2743460D02*
X2760420Y-2752984D01*
X2760420Y-2752984D02*
X2722325Y-2752984D01*
X2722325Y-2752984D02*
X2703277Y-2743460D01*
X2703277Y-2743460D02*
X2693753Y-2724412D01*
X2693753Y-2724412D02*
X2693753Y-2648222D01*
X2693753Y-2648222D02*
X2703277Y-2629174D01*
X2703277Y-2629174D02*
X2722325Y-2619650D01*
X2722325Y-2619650D02*
X2760420Y-2619650D01*
X2760420Y-2619650D02*
X2779468Y-2629174D01*
X2779468Y-2629174D02*
X2788992Y-2648222D01*
X2788992Y-2648222D02*
X2788992Y-2667270D01*
X2788992Y-2667270D02*
X2693753Y-2686317D01*
X2865182Y-2743460D02*
X2884230Y-2752984D01*
X2884230Y-2752984D02*
X2922325Y-2752984D01*
X2922325Y-2752984D02*
X2941372Y-2743460D01*
X2941372Y-2743460D02*
X2950896Y-2724412D01*
X2950896Y-2724412D02*
X2950896Y-2714889D01*
X2950896Y-2714889D02*
X2941372Y-2695841D01*
X2941372Y-2695841D02*
X2922325Y-2686317D01*
X2922325Y-2686317D02*
X2893753Y-2686317D01*
X2893753Y-2686317D02*
X2874706Y-2676793D01*
X2874706Y-2676793D02*
X2865182Y-2657746D01*
X2865182Y-2657746D02*
X2865182Y-2648222D01*
X2865182Y-2648222D02*
X2874706Y-2629174D01*
X2874706Y-2629174D02*
X2893753Y-2619650D01*
X2893753Y-2619650D02*
X2922325Y-2619650D01*
X2922325Y-2619650D02*
X2941372Y-2629174D01*
X3017563Y-2829174D02*
X3027087Y-2819650D01*
X3027087Y-2819650D02*
X3046134Y-2791079D01*
X3046134Y-2791079D02*
X3055658Y-2772031D01*
X3055658Y-2772031D02*
X3065182Y-2743460D01*
X3065182Y-2743460D02*
X3074706Y-2695841D01*
X3074706Y-2695841D02*
X3074706Y-2657746D01*
X3074706Y-2657746D02*
X3065182Y-2610127D01*
X3065182Y-2610127D02*
X3055658Y-2581555D01*
X3055658Y-2581555D02*
X3046134Y-2562508D01*
X3046134Y-2562508D02*
X3027087Y-2533936D01*
X3027087Y-2533936D02*
X3017563Y-2524412D01*
D11*
X-1777500Y-2905500D02*
X-1777500Y-2945500D01*
X-1797500Y-2925500D02*
X-1757500Y-2925500D01*
D10*
X-1458628Y-2816984D02*
X-1439580Y-2816984D01*
X-1439580Y-2816984D02*
X-1420533Y-2826508D01*
X-1420533Y-2826508D02*
X-1411009Y-2836031D01*
X-1411009Y-2836031D02*
X-1401485Y-2855079D01*
X-1401485Y-2855079D02*
X-1391961Y-2893174D01*
X-1391961Y-2893174D02*
X-1391961Y-2940793D01*
X-1391961Y-2940793D02*
X-1401485Y-2978888D01*
X-1401485Y-2978888D02*
X-1411009Y-2997936D01*
X-1411009Y-2997936D02*
X-1420533Y-3007460D01*
X-1420533Y-3007460D02*
X-1439580Y-3016984D01*
X-1439580Y-3016984D02*
X-1458628Y-3016984D01*
X-1458628Y-3016984D02*
X-1477676Y-3007460D01*
X-1477676Y-3007460D02*
X-1487199Y-2997936D01*
X-1487199Y-2997936D02*
X-1496723Y-2978888D01*
X-1496723Y-2978888D02*
X-1506247Y-2940793D01*
X-1506247Y-2940793D02*
X-1506247Y-2893174D01*
X-1506247Y-2893174D02*
X-1496723Y-2855079D01*
X-1496723Y-2855079D02*
X-1487199Y-2836031D01*
X-1487199Y-2836031D02*
X-1477676Y-2826508D01*
X-1477676Y-2826508D02*
X-1458628Y-2816984D01*
X-1306247Y-2997936D02*
X-1296723Y-3007460D01*
X-1296723Y-3007460D02*
X-1306247Y-3016984D01*
X-1306247Y-3016984D02*
X-1315771Y-3007460D01*
X-1315771Y-3007460D02*
X-1306247Y-2997936D01*
X-1306247Y-2997936D02*
X-1306247Y-3016984D01*
X-1125295Y-2883650D02*
X-1125295Y-3016984D01*
X-1172914Y-2807460D02*
X-1220533Y-2950317D01*
X-1220533Y-2950317D02*
X-1096723Y-2950317D01*
X-982437Y-2816984D02*
X-963390Y-2816984D01*
X-963390Y-2816984D02*
X-944342Y-2826508D01*
X-944342Y-2826508D02*
X-934818Y-2836031D01*
X-934818Y-2836031D02*
X-925295Y-2855079D01*
X-925295Y-2855079D02*
X-915771Y-2893174D01*
X-915771Y-2893174D02*
X-915771Y-2940793D01*
X-915771Y-2940793D02*
X-925295Y-2978888D01*
X-925295Y-2978888D02*
X-934818Y-2997936D01*
X-934818Y-2997936D02*
X-944342Y-3007460D01*
X-944342Y-3007460D02*
X-963390Y-3016984D01*
X-963390Y-3016984D02*
X-982437Y-3016984D01*
X-982437Y-3016984D02*
X-1001485Y-3007460D01*
X-1001485Y-3007460D02*
X-1011009Y-2997936D01*
X-1011009Y-2997936D02*
X-1020533Y-2978888D01*
X-1020533Y-2978888D02*
X-1030056Y-2940793D01*
X-1030056Y-2940793D02*
X-1030056Y-2893174D01*
X-1030056Y-2893174D02*
X-1020533Y-2855079D01*
X-1020533Y-2855079D02*
X-1011009Y-2836031D01*
X-1011009Y-2836031D02*
X-1001485Y-2826508D01*
X-1001485Y-2826508D02*
X-982437Y-2816984D01*
X-791961Y-2816984D02*
X-772914Y-2816984D01*
X-772914Y-2816984D02*
X-753866Y-2826508D01*
X-753866Y-2826508D02*
X-744342Y-2836031D01*
X-744342Y-2836031D02*
X-734818Y-2855079D01*
X-734818Y-2855079D02*
X-725295Y-2893174D01*
X-725295Y-2893174D02*
X-725295Y-2940793D01*
X-725295Y-2940793D02*
X-734818Y-2978888D01*
X-734818Y-2978888D02*
X-744342Y-2997936D01*
X-744342Y-2997936D02*
X-753866Y-3007460D01*
X-753866Y-3007460D02*
X-772914Y-3016984D01*
X-772914Y-3016984D02*
X-791961Y-3016984D01*
X-791961Y-3016984D02*
X-811009Y-3007460D01*
X-811009Y-3007460D02*
X-820533Y-2997936D01*
X-820533Y-2997936D02*
X-830056Y-2978888D01*
X-830056Y-2978888D02*
X-839580Y-2940793D01*
X-839580Y-2940793D02*
X-839580Y-2893174D01*
X-839580Y-2893174D02*
X-830056Y-2855079D01*
X-830056Y-2855079D02*
X-820533Y-2836031D01*
X-820533Y-2836031D02*
X-811009Y-2826508D01*
X-811009Y-2826508D02*
X-791961Y-2816984D01*
X-639580Y-3016984D02*
X-639580Y-2883650D01*
X-639580Y-2902698D02*
X-630057Y-2893174D01*
X-630057Y-2893174D02*
X-611009Y-2883650D01*
X-611009Y-2883650D02*
X-582437Y-2883650D01*
X-582437Y-2883650D02*
X-563390Y-2893174D01*
X-563390Y-2893174D02*
X-553866Y-2912222D01*
X-553866Y-2912222D02*
X-553866Y-3016984D01*
X-553866Y-2912222D02*
X-544342Y-2893174D01*
X-544342Y-2893174D02*
X-525295Y-2883650D01*
X-525295Y-2883650D02*
X-496723Y-2883650D01*
X-496723Y-2883650D02*
X-477675Y-2893174D01*
X-477675Y-2893174D02*
X-468152Y-2912222D01*
X-468152Y-2912222D02*
X-468152Y-3016984D01*
X-372914Y-3016984D02*
X-372914Y-2883650D01*
X-372914Y-2902698D02*
X-363390Y-2893174D01*
X-363390Y-2893174D02*
X-344342Y-2883650D01*
X-344342Y-2883650D02*
X-315771Y-2883650D01*
X-315771Y-2883650D02*
X-296723Y-2893174D01*
X-296723Y-2893174D02*
X-287199Y-2912222D01*
X-287199Y-2912222D02*
X-287199Y-3016984D01*
X-287199Y-2912222D02*
X-277676Y-2893174D01*
X-277676Y-2893174D02*
X-258628Y-2883650D01*
X-258628Y-2883650D02*
X-230056Y-2883650D01*
X-230056Y-2883650D02*
X-211009Y-2893174D01*
X-211009Y-2893174D02*
X-201485Y-2912222D01*
X-201485Y-2912222D02*
X-201485Y-3016984D01*
X188991Y-2807460D02*
X17563Y-3064603D01*
X446134Y-2816984D02*
X465182Y-2816984D01*
X465182Y-2816984D02*
X484229Y-2826508D01*
X484229Y-2826508D02*
X493753Y-2836031D01*
X493753Y-2836031D02*
X503277Y-2855079D01*
X503277Y-2855079D02*
X512801Y-2893174D01*
X512801Y-2893174D02*
X512801Y-2940793D01*
X512801Y-2940793D02*
X503277Y-2978888D01*
X503277Y-2978888D02*
X493753Y-2997936D01*
X493753Y-2997936D02*
X484229Y-3007460D01*
X484229Y-3007460D02*
X465182Y-3016984D01*
X465182Y-3016984D02*
X446134Y-3016984D01*
X446134Y-3016984D02*
X427086Y-3007460D01*
X427086Y-3007460D02*
X417563Y-2997936D01*
X417563Y-2997936D02*
X408039Y-2978888D01*
X408039Y-2978888D02*
X398515Y-2940793D01*
X398515Y-2940793D02*
X398515Y-2893174D01*
X398515Y-2893174D02*
X408039Y-2855079D01*
X408039Y-2855079D02*
X417563Y-2836031D01*
X417563Y-2836031D02*
X427086Y-2826508D01*
X427086Y-2826508D02*
X446134Y-2816984D01*
X598515Y-2997936D02*
X608039Y-3007460D01*
X608039Y-3007460D02*
X598515Y-3016984D01*
X598515Y-3016984D02*
X588991Y-3007460D01*
X588991Y-3007460D02*
X598515Y-2997936D01*
X598515Y-2997936D02*
X598515Y-3016984D01*
X731848Y-2816984D02*
X750896Y-2816984D01*
X750896Y-2816984D02*
X769944Y-2826508D01*
X769944Y-2826508D02*
X779467Y-2836031D01*
X779467Y-2836031D02*
X788991Y-2855079D01*
X788991Y-2855079D02*
X798515Y-2893174D01*
X798515Y-2893174D02*
X798515Y-2940793D01*
X798515Y-2940793D02*
X788991Y-2978888D01*
X788991Y-2978888D02*
X779467Y-2997936D01*
X779467Y-2997936D02*
X769944Y-3007460D01*
X769944Y-3007460D02*
X750896Y-3016984D01*
X750896Y-3016984D02*
X731848Y-3016984D01*
X731848Y-3016984D02*
X712801Y-3007460D01*
X712801Y-3007460D02*
X703277Y-2997936D01*
X703277Y-2997936D02*
X693753Y-2978888D01*
X693753Y-2978888D02*
X684229Y-2940793D01*
X684229Y-2940793D02*
X684229Y-2893174D01*
X684229Y-2893174D02*
X693753Y-2855079D01*
X693753Y-2855079D02*
X703277Y-2836031D01*
X703277Y-2836031D02*
X712801Y-2826508D01*
X712801Y-2826508D02*
X731848Y-2816984D01*
X988991Y-3016984D02*
X874706Y-3016984D01*
X931848Y-3016984D02*
X931848Y-2816984D01*
X931848Y-2816984D02*
X912801Y-2845555D01*
X912801Y-2845555D02*
X893753Y-2864603D01*
X893753Y-2864603D02*
X874706Y-2874127D01*
X1169944Y-2816984D02*
X1074706Y-2816984D01*
X1074706Y-2816984D02*
X1065182Y-2912222D01*
X1065182Y-2912222D02*
X1074706Y-2902698D01*
X1074706Y-2902698D02*
X1093753Y-2893174D01*
X1093753Y-2893174D02*
X1141372Y-2893174D01*
X1141372Y-2893174D02*
X1160420Y-2902698D01*
X1160420Y-2902698D02*
X1169944Y-2912222D01*
X1169944Y-2912222D02*
X1179468Y-2931269D01*
X1179468Y-2931269D02*
X1179468Y-2978888D01*
X1179468Y-2978888D02*
X1169944Y-2997936D01*
X1169944Y-2997936D02*
X1160420Y-3007460D01*
X1160420Y-3007460D02*
X1141372Y-3016984D01*
X1141372Y-3016984D02*
X1093753Y-3016984D01*
X1093753Y-3016984D02*
X1074706Y-3007460D01*
X1074706Y-3007460D02*
X1065182Y-2997936D01*
X1246134Y-2816984D02*
X1379468Y-2816984D01*
X1379468Y-2816984D02*
X1293753Y-3016984D01*
X1446134Y-2816984D02*
X1446134Y-2855079D01*
X1522325Y-2816984D02*
X1522325Y-2855079D01*
X1817563Y-3093174D02*
X1808039Y-3083650D01*
X1808039Y-3083650D02*
X1788991Y-3055079D01*
X1788991Y-3055079D02*
X1779468Y-3036031D01*
X1779468Y-3036031D02*
X1769944Y-3007460D01*
X1769944Y-3007460D02*
X1760420Y-2959841D01*
X1760420Y-2959841D02*
X1760420Y-2921746D01*
X1760420Y-2921746D02*
X1769944Y-2874127D01*
X1769944Y-2874127D02*
X1779468Y-2845555D01*
X1779468Y-2845555D02*
X1788991Y-2826508D01*
X1788991Y-2826508D02*
X1808039Y-2797936D01*
X1808039Y-2797936D02*
X1817563Y-2788412D01*
X1979468Y-2816984D02*
X1941372Y-2816984D01*
X1941372Y-2816984D02*
X1922325Y-2826508D01*
X1922325Y-2826508D02*
X1912801Y-2836031D01*
X1912801Y-2836031D02*
X1893753Y-2864603D01*
X1893753Y-2864603D02*
X1884229Y-2902698D01*
X1884229Y-2902698D02*
X1884229Y-2978888D01*
X1884229Y-2978888D02*
X1893753Y-2997936D01*
X1893753Y-2997936D02*
X1903277Y-3007460D01*
X1903277Y-3007460D02*
X1922325Y-3016984D01*
X1922325Y-3016984D02*
X1960420Y-3016984D01*
X1960420Y-3016984D02*
X1979468Y-3007460D01*
X1979468Y-3007460D02*
X1988991Y-2997936D01*
X1988991Y-2997936D02*
X1998515Y-2978888D01*
X1998515Y-2978888D02*
X1998515Y-2931269D01*
X1998515Y-2931269D02*
X1988991Y-2912222D01*
X1988991Y-2912222D02*
X1979468Y-2902698D01*
X1979468Y-2902698D02*
X1960420Y-2893174D01*
X1960420Y-2893174D02*
X1922325Y-2893174D01*
X1922325Y-2893174D02*
X1903277Y-2902698D01*
X1903277Y-2902698D02*
X1893753Y-2912222D01*
X1893753Y-2912222D02*
X1884229Y-2931269D01*
X2065182Y-2816984D02*
X2198515Y-2816984D01*
X2198515Y-2816984D02*
X2112801Y-3016984D01*
X2427087Y-3016984D02*
X2427087Y-2816984D01*
X2512801Y-3016984D02*
X2512801Y-2912222D01*
X2512801Y-2912222D02*
X2503277Y-2893174D01*
X2503277Y-2893174D02*
X2484230Y-2883650D01*
X2484230Y-2883650D02*
X2455658Y-2883650D01*
X2455658Y-2883650D02*
X2436611Y-2893174D01*
X2436611Y-2893174D02*
X2427087Y-2902698D01*
X2636611Y-3016984D02*
X2617563Y-3007460D01*
X2617563Y-3007460D02*
X2608039Y-2997936D01*
X2608039Y-2997936D02*
X2598515Y-2978888D01*
X2598515Y-2978888D02*
X2598515Y-2921746D01*
X2598515Y-2921746D02*
X2608039Y-2902698D01*
X2608039Y-2902698D02*
X2617563Y-2893174D01*
X2617563Y-2893174D02*
X2636611Y-2883650D01*
X2636611Y-2883650D02*
X2665182Y-2883650D01*
X2665182Y-2883650D02*
X2684230Y-2893174D01*
X2684230Y-2893174D02*
X2693753Y-2902698D01*
X2693753Y-2902698D02*
X2703277Y-2921746D01*
X2703277Y-2921746D02*
X2703277Y-2978888D01*
X2703277Y-2978888D02*
X2693753Y-2997936D01*
X2693753Y-2997936D02*
X2684230Y-3007460D01*
X2684230Y-3007460D02*
X2665182Y-3016984D01*
X2665182Y-3016984D02*
X2636611Y-3016984D01*
X2817563Y-3016984D02*
X2798515Y-3007460D01*
X2798515Y-3007460D02*
X2788992Y-2988412D01*
X2788992Y-2988412D02*
X2788992Y-2816984D01*
X2969944Y-3007460D02*
X2950896Y-3016984D01*
X2950896Y-3016984D02*
X2912801Y-3016984D01*
X2912801Y-3016984D02*
X2893753Y-3007460D01*
X2893753Y-3007460D02*
X2884230Y-2988412D01*
X2884230Y-2988412D02*
X2884230Y-2912222D01*
X2884230Y-2912222D02*
X2893753Y-2893174D01*
X2893753Y-2893174D02*
X2912801Y-2883650D01*
X2912801Y-2883650D02*
X2950896Y-2883650D01*
X2950896Y-2883650D02*
X2969944Y-2893174D01*
X2969944Y-2893174D02*
X2979468Y-2912222D01*
X2979468Y-2912222D02*
X2979468Y-2931269D01*
X2979468Y-2931269D02*
X2884230Y-2950317D01*
X3055658Y-3007460D02*
X3074706Y-3016984D01*
X3074706Y-3016984D02*
X3112801Y-3016984D01*
X3112801Y-3016984D02*
X3131849Y-3007460D01*
X3131849Y-3007460D02*
X3141372Y-2988412D01*
X3141372Y-2988412D02*
X3141372Y-2978888D01*
X3141372Y-2978888D02*
X3131849Y-2959841D01*
X3131849Y-2959841D02*
X3112801Y-2950317D01*
X3112801Y-2950317D02*
X3084230Y-2950317D01*
X3084230Y-2950317D02*
X3065182Y-2940793D01*
X3065182Y-2940793D02*
X3055658Y-2921746D01*
X3055658Y-2921746D02*
X3055658Y-2912222D01*
X3055658Y-2912222D02*
X3065182Y-2893174D01*
X3065182Y-2893174D02*
X3084230Y-2883650D01*
X3084230Y-2883650D02*
X3112801Y-2883650D01*
X3112801Y-2883650D02*
X3131849Y-2893174D01*
X3208039Y-3093174D02*
X3217563Y-3083650D01*
X3217563Y-3083650D02*
X3236611Y-3055079D01*
X3236611Y-3055079D02*
X3246134Y-3036031D01*
X3246134Y-3036031D02*
X3255658Y-3007460D01*
X3255658Y-3007460D02*
X3265182Y-2959841D01*
X3265182Y-2959841D02*
X3265182Y-2921746D01*
X3265182Y-2921746D02*
X3255658Y-2874127D01*
X3255658Y-2874127D02*
X3246134Y-2845555D01*
X3246134Y-2845555D02*
X3236611Y-2826508D01*
X3236611Y-2826508D02*
X3217563Y-2797936D01*
X3217563Y-2797936D02*
X3208039Y-2788412D01*
D11*
X-1767751Y-3214249D02*
X-1767751Y-3164751D01*
X-1817249Y-3164751D01*
X-1817249Y-3214249D01*
X-1767751Y-3214249D01*
D10*
X-1458628Y-3080984D02*
X-1439580Y-3080984D01*
X-1439580Y-3080984D02*
X-1420533Y-3090508D01*
X-1420533Y-3090508D02*
X-1411009Y-3100031D01*
X-1411009Y-3100031D02*
X-1401485Y-3119079D01*
X-1401485Y-3119079D02*
X-1391961Y-3157174D01*
X-1391961Y-3157174D02*
X-1391961Y-3204793D01*
X-1391961Y-3204793D02*
X-1401485Y-3242888D01*
X-1401485Y-3242888D02*
X-1411009Y-3261936D01*
X-1411009Y-3261936D02*
X-1420533Y-3271460D01*
X-1420533Y-3271460D02*
X-1439580Y-3280984D01*
X-1439580Y-3280984D02*
X-1458628Y-3280984D01*
X-1458628Y-3280984D02*
X-1477676Y-3271460D01*
X-1477676Y-3271460D02*
X-1487199Y-3261936D01*
X-1487199Y-3261936D02*
X-1496723Y-3242888D01*
X-1496723Y-3242888D02*
X-1506247Y-3204793D01*
X-1506247Y-3204793D02*
X-1506247Y-3157174D01*
X-1506247Y-3157174D02*
X-1496723Y-3119079D01*
X-1496723Y-3119079D02*
X-1487199Y-3100031D01*
X-1487199Y-3100031D02*
X-1477676Y-3090508D01*
X-1477676Y-3090508D02*
X-1458628Y-3080984D01*
X-1306247Y-3261936D02*
X-1296723Y-3271460D01*
X-1296723Y-3271460D02*
X-1306247Y-3280984D01*
X-1306247Y-3280984D02*
X-1315771Y-3271460D01*
X-1315771Y-3271460D02*
X-1306247Y-3261936D01*
X-1306247Y-3261936D02*
X-1306247Y-3280984D01*
X-1230057Y-3080984D02*
X-1096723Y-3080984D01*
X-1096723Y-3080984D02*
X-1182438Y-3280984D01*
X-982437Y-3080984D02*
X-963390Y-3080984D01*
X-963390Y-3080984D02*
X-944342Y-3090508D01*
X-944342Y-3090508D02*
X-934818Y-3100031D01*
X-934818Y-3100031D02*
X-925295Y-3119079D01*
X-925295Y-3119079D02*
X-915771Y-3157174D01*
X-915771Y-3157174D02*
X-915771Y-3204793D01*
X-915771Y-3204793D02*
X-925295Y-3242888D01*
X-925295Y-3242888D02*
X-934818Y-3261936D01*
X-934818Y-3261936D02*
X-944342Y-3271460D01*
X-944342Y-3271460D02*
X-963390Y-3280984D01*
X-963390Y-3280984D02*
X-982437Y-3280984D01*
X-982437Y-3280984D02*
X-1001485Y-3271460D01*
X-1001485Y-3271460D02*
X-1011009Y-3261936D01*
X-1011009Y-3261936D02*
X-1020533Y-3242888D01*
X-1020533Y-3242888D02*
X-1030056Y-3204793D01*
X-1030056Y-3204793D02*
X-1030056Y-3157174D01*
X-1030056Y-3157174D02*
X-1020533Y-3119079D01*
X-1020533Y-3119079D02*
X-1011009Y-3100031D01*
X-1011009Y-3100031D02*
X-1001485Y-3090508D01*
X-1001485Y-3090508D02*
X-982437Y-3080984D01*
X-791961Y-3080984D02*
X-772914Y-3080984D01*
X-772914Y-3080984D02*
X-753866Y-3090508D01*
X-753866Y-3090508D02*
X-744342Y-3100031D01*
X-744342Y-3100031D02*
X-734818Y-3119079D01*
X-734818Y-3119079D02*
X-725295Y-3157174D01*
X-725295Y-3157174D02*
X-725295Y-3204793D01*
X-725295Y-3204793D02*
X-734818Y-3242888D01*
X-734818Y-3242888D02*
X-744342Y-3261936D01*
X-744342Y-3261936D02*
X-753866Y-3271460D01*
X-753866Y-3271460D02*
X-772914Y-3280984D01*
X-772914Y-3280984D02*
X-791961Y-3280984D01*
X-791961Y-3280984D02*
X-811009Y-3271460D01*
X-811009Y-3271460D02*
X-820533Y-3261936D01*
X-820533Y-3261936D02*
X-830056Y-3242888D01*
X-830056Y-3242888D02*
X-839580Y-3204793D01*
X-839580Y-3204793D02*
X-839580Y-3157174D01*
X-839580Y-3157174D02*
X-830056Y-3119079D01*
X-830056Y-3119079D02*
X-820533Y-3100031D01*
X-820533Y-3100031D02*
X-811009Y-3090508D01*
X-811009Y-3090508D02*
X-791961Y-3080984D01*
X-639580Y-3280984D02*
X-639580Y-3147650D01*
X-639580Y-3166698D02*
X-630057Y-3157174D01*
X-630057Y-3157174D02*
X-611009Y-3147650D01*
X-611009Y-3147650D02*
X-582437Y-3147650D01*
X-582437Y-3147650D02*
X-563390Y-3157174D01*
X-563390Y-3157174D02*
X-553866Y-3176222D01*
X-553866Y-3176222D02*
X-553866Y-3280984D01*
X-553866Y-3176222D02*
X-544342Y-3157174D01*
X-544342Y-3157174D02*
X-525295Y-3147650D01*
X-525295Y-3147650D02*
X-496723Y-3147650D01*
X-496723Y-3147650D02*
X-477675Y-3157174D01*
X-477675Y-3157174D02*
X-468152Y-3176222D01*
X-468152Y-3176222D02*
X-468152Y-3280984D01*
X-372914Y-3280984D02*
X-372914Y-3147650D01*
X-372914Y-3166698D02*
X-363390Y-3157174D01*
X-363390Y-3157174D02*
X-344342Y-3147650D01*
X-344342Y-3147650D02*
X-315771Y-3147650D01*
X-315771Y-3147650D02*
X-296723Y-3157174D01*
X-296723Y-3157174D02*
X-287199Y-3176222D01*
X-287199Y-3176222D02*
X-287199Y-3280984D01*
X-287199Y-3176222D02*
X-277676Y-3157174D01*
X-277676Y-3157174D02*
X-258628Y-3147650D01*
X-258628Y-3147650D02*
X-230056Y-3147650D01*
X-230056Y-3147650D02*
X-211009Y-3157174D01*
X-211009Y-3157174D02*
X-201485Y-3176222D01*
X-201485Y-3176222D02*
X-201485Y-3280984D01*
X188991Y-3071460D02*
X17563Y-3328603D01*
X446134Y-3080984D02*
X465182Y-3080984D01*
X465182Y-3080984D02*
X484229Y-3090508D01*
X484229Y-3090508D02*
X493753Y-3100031D01*
X493753Y-3100031D02*
X503277Y-3119079D01*
X503277Y-3119079D02*
X512801Y-3157174D01*
X512801Y-3157174D02*
X512801Y-3204793D01*
X512801Y-3204793D02*
X503277Y-3242888D01*
X503277Y-3242888D02*
X493753Y-3261936D01*
X493753Y-3261936D02*
X484229Y-3271460D01*
X484229Y-3271460D02*
X465182Y-3280984D01*
X465182Y-3280984D02*
X446134Y-3280984D01*
X446134Y-3280984D02*
X427086Y-3271460D01*
X427086Y-3271460D02*
X417563Y-3261936D01*
X417563Y-3261936D02*
X408039Y-3242888D01*
X408039Y-3242888D02*
X398515Y-3204793D01*
X398515Y-3204793D02*
X398515Y-3157174D01*
X398515Y-3157174D02*
X408039Y-3119079D01*
X408039Y-3119079D02*
X417563Y-3100031D01*
X417563Y-3100031D02*
X427086Y-3090508D01*
X427086Y-3090508D02*
X446134Y-3080984D01*
X598515Y-3261936D02*
X608039Y-3271460D01*
X608039Y-3271460D02*
X598515Y-3280984D01*
X598515Y-3280984D02*
X588991Y-3271460D01*
X588991Y-3271460D02*
X598515Y-3261936D01*
X598515Y-3261936D02*
X598515Y-3280984D01*
X731848Y-3080984D02*
X750896Y-3080984D01*
X750896Y-3080984D02*
X769944Y-3090508D01*
X769944Y-3090508D02*
X779467Y-3100031D01*
X779467Y-3100031D02*
X788991Y-3119079D01*
X788991Y-3119079D02*
X798515Y-3157174D01*
X798515Y-3157174D02*
X798515Y-3204793D01*
X798515Y-3204793D02*
X788991Y-3242888D01*
X788991Y-3242888D02*
X779467Y-3261936D01*
X779467Y-3261936D02*
X769944Y-3271460D01*
X769944Y-3271460D02*
X750896Y-3280984D01*
X750896Y-3280984D02*
X731848Y-3280984D01*
X731848Y-3280984D02*
X712801Y-3271460D01*
X712801Y-3271460D02*
X703277Y-3261936D01*
X703277Y-3261936D02*
X693753Y-3242888D01*
X693753Y-3242888D02*
X684229Y-3204793D01*
X684229Y-3204793D02*
X684229Y-3157174D01*
X684229Y-3157174D02*
X693753Y-3119079D01*
X693753Y-3119079D02*
X703277Y-3100031D01*
X703277Y-3100031D02*
X712801Y-3090508D01*
X712801Y-3090508D02*
X731848Y-3080984D01*
X874706Y-3100031D02*
X884229Y-3090508D01*
X884229Y-3090508D02*
X903277Y-3080984D01*
X903277Y-3080984D02*
X950896Y-3080984D01*
X950896Y-3080984D02*
X969944Y-3090508D01*
X969944Y-3090508D02*
X979467Y-3100031D01*
X979467Y-3100031D02*
X988991Y-3119079D01*
X988991Y-3119079D02*
X988991Y-3138127D01*
X988991Y-3138127D02*
X979467Y-3166698D01*
X979467Y-3166698D02*
X865182Y-3280984D01*
X865182Y-3280984D02*
X988991Y-3280984D01*
X1055658Y-3080984D02*
X1188991Y-3080984D01*
X1188991Y-3080984D02*
X1103277Y-3280984D01*
X1350896Y-3080984D02*
X1312801Y-3080984D01*
X1312801Y-3080984D02*
X1293753Y-3090508D01*
X1293753Y-3090508D02*
X1284229Y-3100031D01*
X1284229Y-3100031D02*
X1265182Y-3128603D01*
X1265182Y-3128603D02*
X1255658Y-3166698D01*
X1255658Y-3166698D02*
X1255658Y-3242888D01*
X1255658Y-3242888D02*
X1265182Y-3261936D01*
X1265182Y-3261936D02*
X1274706Y-3271460D01*
X1274706Y-3271460D02*
X1293753Y-3280984D01*
X1293753Y-3280984D02*
X1331849Y-3280984D01*
X1331849Y-3280984D02*
X1350896Y-3271460D01*
X1350896Y-3271460D02*
X1360420Y-3261936D01*
X1360420Y-3261936D02*
X1369944Y-3242888D01*
X1369944Y-3242888D02*
X1369944Y-3195269D01*
X1369944Y-3195269D02*
X1360420Y-3176222D01*
X1360420Y-3176222D02*
X1350896Y-3166698D01*
X1350896Y-3166698D02*
X1331849Y-3157174D01*
X1331849Y-3157174D02*
X1293753Y-3157174D01*
X1293753Y-3157174D02*
X1274706Y-3166698D01*
X1274706Y-3166698D02*
X1265182Y-3176222D01*
X1265182Y-3176222D02*
X1255658Y-3195269D01*
X1446134Y-3080984D02*
X1446134Y-3119079D01*
X1522325Y-3080984D02*
X1522325Y-3119079D01*
X1817563Y-3357174D02*
X1808039Y-3347650D01*
X1808039Y-3347650D02*
X1788991Y-3319079D01*
X1788991Y-3319079D02*
X1779468Y-3300031D01*
X1779468Y-3300031D02*
X1769944Y-3271460D01*
X1769944Y-3271460D02*
X1760420Y-3223841D01*
X1760420Y-3223841D02*
X1760420Y-3185746D01*
X1760420Y-3185746D02*
X1769944Y-3138127D01*
X1769944Y-3138127D02*
X1779468Y-3109555D01*
X1779468Y-3109555D02*
X1788991Y-3090508D01*
X1788991Y-3090508D02*
X1808039Y-3061936D01*
X1808039Y-3061936D02*
X1817563Y-3052412D01*
X1979468Y-3147650D02*
X1979468Y-3280984D01*
X1931848Y-3071460D02*
X1884229Y-3214317D01*
X1884229Y-3214317D02*
X2008039Y-3214317D01*
X2236611Y-3280984D02*
X2236611Y-3080984D01*
X2322325Y-3280984D02*
X2322325Y-3176222D01*
X2322325Y-3176222D02*
X2312801Y-3157174D01*
X2312801Y-3157174D02*
X2293753Y-3147650D01*
X2293753Y-3147650D02*
X2265182Y-3147650D01*
X2265182Y-3147650D02*
X2246134Y-3157174D01*
X2246134Y-3157174D02*
X2236611Y-3166698D01*
X2446134Y-3280984D02*
X2427087Y-3271460D01*
X2427087Y-3271460D02*
X2417563Y-3261936D01*
X2417563Y-3261936D02*
X2408039Y-3242888D01*
X2408039Y-3242888D02*
X2408039Y-3185746D01*
X2408039Y-3185746D02*
X2417563Y-3166698D01*
X2417563Y-3166698D02*
X2427087Y-3157174D01*
X2427087Y-3157174D02*
X2446134Y-3147650D01*
X2446134Y-3147650D02*
X2474706Y-3147650D01*
X2474706Y-3147650D02*
X2493753Y-3157174D01*
X2493753Y-3157174D02*
X2503277Y-3166698D01*
X2503277Y-3166698D02*
X2512801Y-3185746D01*
X2512801Y-3185746D02*
X2512801Y-3242888D01*
X2512801Y-3242888D02*
X2503277Y-3261936D01*
X2503277Y-3261936D02*
X2493753Y-3271460D01*
X2493753Y-3271460D02*
X2474706Y-3280984D01*
X2474706Y-3280984D02*
X2446134Y-3280984D01*
X2627087Y-3280984D02*
X2608039Y-3271460D01*
X2608039Y-3271460D02*
X2598515Y-3252412D01*
X2598515Y-3252412D02*
X2598515Y-3080984D01*
X2779468Y-3271460D02*
X2760420Y-3280984D01*
X2760420Y-3280984D02*
X2722325Y-3280984D01*
X2722325Y-3280984D02*
X2703277Y-3271460D01*
X2703277Y-3271460D02*
X2693753Y-3252412D01*
X2693753Y-3252412D02*
X2693753Y-3176222D01*
X2693753Y-3176222D02*
X2703277Y-3157174D01*
X2703277Y-3157174D02*
X2722325Y-3147650D01*
X2722325Y-3147650D02*
X2760420Y-3147650D01*
X2760420Y-3147650D02*
X2779468Y-3157174D01*
X2779468Y-3157174D02*
X2788992Y-3176222D01*
X2788992Y-3176222D02*
X2788992Y-3195269D01*
X2788992Y-3195269D02*
X2693753Y-3214317D01*
X2865182Y-3271460D02*
X2884230Y-3280984D01*
X2884230Y-3280984D02*
X2922325Y-3280984D01*
X2922325Y-3280984D02*
X2941372Y-3271460D01*
X2941372Y-3271460D02*
X2950896Y-3252412D01*
X2950896Y-3252412D02*
X2950896Y-3242888D01*
X2950896Y-3242888D02*
X2941372Y-3223841D01*
X2941372Y-3223841D02*
X2922325Y-3214317D01*
X2922325Y-3214317D02*
X2893753Y-3214317D01*
X2893753Y-3214317D02*
X2874706Y-3204793D01*
X2874706Y-3204793D02*
X2865182Y-3185746D01*
X2865182Y-3185746D02*
X2865182Y-3176222D01*
X2865182Y-3176222D02*
X2874706Y-3157174D01*
X2874706Y-3157174D02*
X2893753Y-3147650D01*
X2893753Y-3147650D02*
X2922325Y-3147650D01*
X2922325Y-3147650D02*
X2941372Y-3157174D01*
X3017563Y-3357174D02*
X3027087Y-3347650D01*
X3027087Y-3347650D02*
X3046134Y-3319079D01*
X3046134Y-3319079D02*
X3055658Y-3300031D01*
X3055658Y-3300031D02*
X3065182Y-3271460D01*
X3065182Y-3271460D02*
X3074706Y-3223841D01*
X3074706Y-3223841D02*
X3074706Y-3185746D01*
X3074706Y-3185746D02*
X3065182Y-3138127D01*
X3065182Y-3138127D02*
X3055658Y-3109555D01*
X3055658Y-3109555D02*
X3046134Y-3090508D01*
X3046134Y-3090508D02*
X3027087Y-3061936D01*
X3027087Y-3061936D02*
X3017563Y-3052412D01*
D11*
X-1805000Y-3501000D02*
X-1757500Y-3453500D01*
X-1805000Y-3406000D01*
X-1852500Y-3453500D01*
X-1805000Y-3501000D01*
D10*
X-1458628Y-3344984D02*
X-1439580Y-3344984D01*
X-1439580Y-3344984D02*
X-1420533Y-3354508D01*
X-1420533Y-3354508D02*
X-1411009Y-3364031D01*
X-1411009Y-3364031D02*
X-1401485Y-3383079D01*
X-1401485Y-3383079D02*
X-1391961Y-3421174D01*
X-1391961Y-3421174D02*
X-1391961Y-3468793D01*
X-1391961Y-3468793D02*
X-1401485Y-3506888D01*
X-1401485Y-3506888D02*
X-1411009Y-3525936D01*
X-1411009Y-3525936D02*
X-1420533Y-3535460D01*
X-1420533Y-3535460D02*
X-1439580Y-3544984D01*
X-1439580Y-3544984D02*
X-1458628Y-3544984D01*
X-1458628Y-3544984D02*
X-1477676Y-3535460D01*
X-1477676Y-3535460D02*
X-1487199Y-3525936D01*
X-1487199Y-3525936D02*
X-1496723Y-3506888D01*
X-1496723Y-3506888D02*
X-1506247Y-3468793D01*
X-1506247Y-3468793D02*
X-1506247Y-3421174D01*
X-1506247Y-3421174D02*
X-1496723Y-3383079D01*
X-1496723Y-3383079D02*
X-1487199Y-3364031D01*
X-1487199Y-3364031D02*
X-1477676Y-3354508D01*
X-1477676Y-3354508D02*
X-1458628Y-3344984D01*
X-1306247Y-3525936D02*
X-1296723Y-3535460D01*
X-1296723Y-3535460D02*
X-1306247Y-3544984D01*
X-1306247Y-3544984D02*
X-1315771Y-3535460D01*
X-1315771Y-3535460D02*
X-1306247Y-3525936D01*
X-1306247Y-3525936D02*
X-1306247Y-3544984D01*
X-1201485Y-3544984D02*
X-1163390Y-3544984D01*
X-1163390Y-3544984D02*
X-1144342Y-3535460D01*
X-1144342Y-3535460D02*
X-1134818Y-3525936D01*
X-1134818Y-3525936D02*
X-1115771Y-3497365D01*
X-1115771Y-3497365D02*
X-1106247Y-3459269D01*
X-1106247Y-3459269D02*
X-1106247Y-3383079D01*
X-1106247Y-3383079D02*
X-1115771Y-3364031D01*
X-1115771Y-3364031D02*
X-1125295Y-3354508D01*
X-1125295Y-3354508D02*
X-1144342Y-3344984D01*
X-1144342Y-3344984D02*
X-1182438Y-3344984D01*
X-1182438Y-3344984D02*
X-1201485Y-3354508D01*
X-1201485Y-3354508D02*
X-1211009Y-3364031D01*
X-1211009Y-3364031D02*
X-1220533Y-3383079D01*
X-1220533Y-3383079D02*
X-1220533Y-3430698D01*
X-1220533Y-3430698D02*
X-1211009Y-3449746D01*
X-1211009Y-3449746D02*
X-1201485Y-3459269D01*
X-1201485Y-3459269D02*
X-1182438Y-3468793D01*
X-1182438Y-3468793D02*
X-1144342Y-3468793D01*
X-1144342Y-3468793D02*
X-1125295Y-3459269D01*
X-1125295Y-3459269D02*
X-1115771Y-3449746D01*
X-1115771Y-3449746D02*
X-1106247Y-3430698D01*
X-925295Y-3344984D02*
X-1020533Y-3344984D01*
X-1020533Y-3344984D02*
X-1030056Y-3440222D01*
X-1030056Y-3440222D02*
X-1020533Y-3430698D01*
X-1020533Y-3430698D02*
X-1001485Y-3421174D01*
X-1001485Y-3421174D02*
X-953866Y-3421174D01*
X-953866Y-3421174D02*
X-934818Y-3430698D01*
X-934818Y-3430698D02*
X-925295Y-3440222D01*
X-925295Y-3440222D02*
X-915771Y-3459269D01*
X-915771Y-3459269D02*
X-915771Y-3506888D01*
X-915771Y-3506888D02*
X-925295Y-3525936D01*
X-925295Y-3525936D02*
X-934818Y-3535460D01*
X-934818Y-3535460D02*
X-953866Y-3544984D01*
X-953866Y-3544984D02*
X-1001485Y-3544984D01*
X-1001485Y-3544984D02*
X-1020533Y-3535460D01*
X-1020533Y-3535460D02*
X-1030056Y-3525936D01*
X-791961Y-3344984D02*
X-772914Y-3344984D01*
X-772914Y-3344984D02*
X-753866Y-3354508D01*
X-753866Y-3354508D02*
X-744342Y-3364031D01*
X-744342Y-3364031D02*
X-734818Y-3383079D01*
X-734818Y-3383079D02*
X-725295Y-3421174D01*
X-725295Y-3421174D02*
X-725295Y-3468793D01*
X-725295Y-3468793D02*
X-734818Y-3506888D01*
X-734818Y-3506888D02*
X-744342Y-3525936D01*
X-744342Y-3525936D02*
X-753866Y-3535460D01*
X-753866Y-3535460D02*
X-772914Y-3544984D01*
X-772914Y-3544984D02*
X-791961Y-3544984D01*
X-791961Y-3544984D02*
X-811009Y-3535460D01*
X-811009Y-3535460D02*
X-820533Y-3525936D01*
X-820533Y-3525936D02*
X-830056Y-3506888D01*
X-830056Y-3506888D02*
X-839580Y-3468793D01*
X-839580Y-3468793D02*
X-839580Y-3421174D01*
X-839580Y-3421174D02*
X-830056Y-3383079D01*
X-830056Y-3383079D02*
X-820533Y-3364031D01*
X-820533Y-3364031D02*
X-811009Y-3354508D01*
X-811009Y-3354508D02*
X-791961Y-3344984D01*
X-639580Y-3544984D02*
X-639580Y-3411650D01*
X-639580Y-3430698D02*
X-630057Y-3421174D01*
X-630057Y-3421174D02*
X-611009Y-3411650D01*
X-611009Y-3411650D02*
X-582437Y-3411650D01*
X-582437Y-3411650D02*
X-563390Y-3421174D01*
X-563390Y-3421174D02*
X-553866Y-3440222D01*
X-553866Y-3440222D02*
X-553866Y-3544984D01*
X-553866Y-3440222D02*
X-544342Y-3421174D01*
X-544342Y-3421174D02*
X-525295Y-3411650D01*
X-525295Y-3411650D02*
X-496723Y-3411650D01*
X-496723Y-3411650D02*
X-477675Y-3421174D01*
X-477675Y-3421174D02*
X-468152Y-3440222D01*
X-468152Y-3440222D02*
X-468152Y-3544984D01*
X-372914Y-3544984D02*
X-372914Y-3411650D01*
X-372914Y-3430698D02*
X-363390Y-3421174D01*
X-363390Y-3421174D02*
X-344342Y-3411650D01*
X-344342Y-3411650D02*
X-315771Y-3411650D01*
X-315771Y-3411650D02*
X-296723Y-3421174D01*
X-296723Y-3421174D02*
X-287199Y-3440222D01*
X-287199Y-3440222D02*
X-287199Y-3544984D01*
X-287199Y-3440222D02*
X-277676Y-3421174D01*
X-277676Y-3421174D02*
X-258628Y-3411650D01*
X-258628Y-3411650D02*
X-230056Y-3411650D01*
X-230056Y-3411650D02*
X-211009Y-3421174D01*
X-211009Y-3421174D02*
X-201485Y-3440222D01*
X-201485Y-3440222D02*
X-201485Y-3544984D01*
X188991Y-3335460D02*
X17563Y-3592603D01*
X446134Y-3344984D02*
X465182Y-3344984D01*
X465182Y-3344984D02*
X484229Y-3354508D01*
X484229Y-3354508D02*
X493753Y-3364031D01*
X493753Y-3364031D02*
X503277Y-3383079D01*
X503277Y-3383079D02*
X512801Y-3421174D01*
X512801Y-3421174D02*
X512801Y-3468793D01*
X512801Y-3468793D02*
X503277Y-3506888D01*
X503277Y-3506888D02*
X493753Y-3525936D01*
X493753Y-3525936D02*
X484229Y-3535460D01*
X484229Y-3535460D02*
X465182Y-3544984D01*
X465182Y-3544984D02*
X446134Y-3544984D01*
X446134Y-3544984D02*
X427086Y-3535460D01*
X427086Y-3535460D02*
X417563Y-3525936D01*
X417563Y-3525936D02*
X408039Y-3506888D01*
X408039Y-3506888D02*
X398515Y-3468793D01*
X398515Y-3468793D02*
X398515Y-3421174D01*
X398515Y-3421174D02*
X408039Y-3383079D01*
X408039Y-3383079D02*
X417563Y-3364031D01*
X417563Y-3364031D02*
X427086Y-3354508D01*
X427086Y-3354508D02*
X446134Y-3344984D01*
X598515Y-3525936D02*
X608039Y-3535460D01*
X608039Y-3535460D02*
X598515Y-3544984D01*
X598515Y-3544984D02*
X588991Y-3535460D01*
X588991Y-3535460D02*
X598515Y-3525936D01*
X598515Y-3525936D02*
X598515Y-3544984D01*
X731848Y-3344984D02*
X750896Y-3344984D01*
X750896Y-3344984D02*
X769944Y-3354508D01*
X769944Y-3354508D02*
X779467Y-3364031D01*
X779467Y-3364031D02*
X788991Y-3383079D01*
X788991Y-3383079D02*
X798515Y-3421174D01*
X798515Y-3421174D02*
X798515Y-3468793D01*
X798515Y-3468793D02*
X788991Y-3506888D01*
X788991Y-3506888D02*
X779467Y-3525936D01*
X779467Y-3525936D02*
X769944Y-3535460D01*
X769944Y-3535460D02*
X750896Y-3544984D01*
X750896Y-3544984D02*
X731848Y-3544984D01*
X731848Y-3544984D02*
X712801Y-3535460D01*
X712801Y-3535460D02*
X703277Y-3525936D01*
X703277Y-3525936D02*
X693753Y-3506888D01*
X693753Y-3506888D02*
X684229Y-3468793D01*
X684229Y-3468793D02*
X684229Y-3421174D01*
X684229Y-3421174D02*
X693753Y-3383079D01*
X693753Y-3383079D02*
X703277Y-3364031D01*
X703277Y-3364031D02*
X712801Y-3354508D01*
X712801Y-3354508D02*
X731848Y-3344984D01*
X865182Y-3344984D02*
X988991Y-3344984D01*
X988991Y-3344984D02*
X922325Y-3421174D01*
X922325Y-3421174D02*
X950896Y-3421174D01*
X950896Y-3421174D02*
X969944Y-3430698D01*
X969944Y-3430698D02*
X979467Y-3440222D01*
X979467Y-3440222D02*
X988991Y-3459269D01*
X988991Y-3459269D02*
X988991Y-3506888D01*
X988991Y-3506888D02*
X979467Y-3525936D01*
X979467Y-3525936D02*
X969944Y-3535460D01*
X969944Y-3535460D02*
X950896Y-3544984D01*
X950896Y-3544984D02*
X893753Y-3544984D01*
X893753Y-3544984D02*
X874706Y-3535460D01*
X874706Y-3535460D02*
X865182Y-3525936D01*
X1055658Y-3344984D02*
X1188991Y-3344984D01*
X1188991Y-3344984D02*
X1103277Y-3544984D01*
X1350896Y-3411650D02*
X1350896Y-3544984D01*
X1303277Y-3335460D02*
X1255658Y-3478317D01*
X1255658Y-3478317D02*
X1379468Y-3478317D01*
X1446134Y-3344984D02*
X1446134Y-3383079D01*
X1522325Y-3344984D02*
X1522325Y-3383079D01*
X1817563Y-3621174D02*
X1808039Y-3611650D01*
X1808039Y-3611650D02*
X1788991Y-3583079D01*
X1788991Y-3583079D02*
X1779468Y-3564031D01*
X1779468Y-3564031D02*
X1769944Y-3535460D01*
X1769944Y-3535460D02*
X1760420Y-3487841D01*
X1760420Y-3487841D02*
X1760420Y-3449746D01*
X1760420Y-3449746D02*
X1769944Y-3402127D01*
X1769944Y-3402127D02*
X1779468Y-3373555D01*
X1779468Y-3373555D02*
X1788991Y-3354508D01*
X1788991Y-3354508D02*
X1808039Y-3325936D01*
X1808039Y-3325936D02*
X1817563Y-3316412D01*
X1979468Y-3411650D02*
X1979468Y-3544984D01*
X1931848Y-3335460D02*
X1884229Y-3478317D01*
X1884229Y-3478317D02*
X2008039Y-3478317D01*
X2236611Y-3544984D02*
X2236611Y-3344984D01*
X2322325Y-3544984D02*
X2322325Y-3440222D01*
X2322325Y-3440222D02*
X2312801Y-3421174D01*
X2312801Y-3421174D02*
X2293753Y-3411650D01*
X2293753Y-3411650D02*
X2265182Y-3411650D01*
X2265182Y-3411650D02*
X2246134Y-3421174D01*
X2246134Y-3421174D02*
X2236611Y-3430698D01*
X2446134Y-3544984D02*
X2427087Y-3535460D01*
X2427087Y-3535460D02*
X2417563Y-3525936D01*
X2417563Y-3525936D02*
X2408039Y-3506888D01*
X2408039Y-3506888D02*
X2408039Y-3449746D01*
X2408039Y-3449746D02*
X2417563Y-3430698D01*
X2417563Y-3430698D02*
X2427087Y-3421174D01*
X2427087Y-3421174D02*
X2446134Y-3411650D01*
X2446134Y-3411650D02*
X2474706Y-3411650D01*
X2474706Y-3411650D02*
X2493753Y-3421174D01*
X2493753Y-3421174D02*
X2503277Y-3430698D01*
X2503277Y-3430698D02*
X2512801Y-3449746D01*
X2512801Y-3449746D02*
X2512801Y-3506888D01*
X2512801Y-3506888D02*
X2503277Y-3525936D01*
X2503277Y-3525936D02*
X2493753Y-3535460D01*
X2493753Y-3535460D02*
X2474706Y-3544984D01*
X2474706Y-3544984D02*
X2446134Y-3544984D01*
X2627087Y-3544984D02*
X2608039Y-3535460D01*
X2608039Y-3535460D02*
X2598515Y-3516412D01*
X2598515Y-3516412D02*
X2598515Y-3344984D01*
X2779468Y-3535460D02*
X2760420Y-3544984D01*
X2760420Y-3544984D02*
X2722325Y-3544984D01*
X2722325Y-3544984D02*
X2703277Y-3535460D01*
X2703277Y-3535460D02*
X2693753Y-3516412D01*
X2693753Y-3516412D02*
X2693753Y-3440222D01*
X2693753Y-3440222D02*
X2703277Y-3421174D01*
X2703277Y-3421174D02*
X2722325Y-3411650D01*
X2722325Y-3411650D02*
X2760420Y-3411650D01*
X2760420Y-3411650D02*
X2779468Y-3421174D01*
X2779468Y-3421174D02*
X2788992Y-3440222D01*
X2788992Y-3440222D02*
X2788992Y-3459269D01*
X2788992Y-3459269D02*
X2693753Y-3478317D01*
X2865182Y-3535460D02*
X2884230Y-3544984D01*
X2884230Y-3544984D02*
X2922325Y-3544984D01*
X2922325Y-3544984D02*
X2941372Y-3535460D01*
X2941372Y-3535460D02*
X2950896Y-3516412D01*
X2950896Y-3516412D02*
X2950896Y-3506888D01*
X2950896Y-3506888D02*
X2941372Y-3487841D01*
X2941372Y-3487841D02*
X2922325Y-3478317D01*
X2922325Y-3478317D02*
X2893753Y-3478317D01*
X2893753Y-3478317D02*
X2874706Y-3468793D01*
X2874706Y-3468793D02*
X2865182Y-3449746D01*
X2865182Y-3449746D02*
X2865182Y-3440222D01*
X2865182Y-3440222D02*
X2874706Y-3421174D01*
X2874706Y-3421174D02*
X2893753Y-3411650D01*
X2893753Y-3411650D02*
X2922325Y-3411650D01*
X2922325Y-3411650D02*
X2941372Y-3421174D01*
X3188992Y-3468793D02*
X3341373Y-3468793D01*
X3265182Y-3544984D02*
X3265182Y-3392603D01*
X3674706Y-3411650D02*
X3674706Y-3544984D01*
X3627087Y-3335460D02*
X3579468Y-3478317D01*
X3579468Y-3478317D02*
X3703277Y-3478317D01*
X3922325Y-3535460D02*
X3941373Y-3544984D01*
X3941373Y-3544984D02*
X3979468Y-3544984D01*
X3979468Y-3544984D02*
X3998515Y-3535460D01*
X3998515Y-3535460D02*
X4008039Y-3516412D01*
X4008039Y-3516412D02*
X4008039Y-3506888D01*
X4008039Y-3506888D02*
X3998515Y-3487841D01*
X3998515Y-3487841D02*
X3979468Y-3478317D01*
X3979468Y-3478317D02*
X3950896Y-3478317D01*
X3950896Y-3478317D02*
X3931849Y-3468793D01*
X3931849Y-3468793D02*
X3922325Y-3449746D01*
X3922325Y-3449746D02*
X3922325Y-3440222D01*
X3922325Y-3440222D02*
X3931849Y-3421174D01*
X3931849Y-3421174D02*
X3950896Y-3411650D01*
X3950896Y-3411650D02*
X3979468Y-3411650D01*
X3979468Y-3411650D02*
X3998515Y-3421174D01*
X4122325Y-3544984D02*
X4103277Y-3535460D01*
X4103277Y-3535460D02*
X4093754Y-3516412D01*
X4093754Y-3516412D02*
X4093754Y-3344984D01*
X4227087Y-3544984D02*
X4208039Y-3535460D01*
X4208039Y-3535460D02*
X4198516Y-3525936D01*
X4198516Y-3525936D02*
X4188992Y-3506888D01*
X4188992Y-3506888D02*
X4188992Y-3449746D01*
X4188992Y-3449746D02*
X4198516Y-3430698D01*
X4198516Y-3430698D02*
X4208039Y-3421174D01*
X4208039Y-3421174D02*
X4227087Y-3411650D01*
X4227087Y-3411650D02*
X4255658Y-3411650D01*
X4255658Y-3411650D02*
X4274706Y-3421174D01*
X4274706Y-3421174D02*
X4284230Y-3430698D01*
X4284230Y-3430698D02*
X4293754Y-3449746D01*
X4293754Y-3449746D02*
X4293754Y-3506888D01*
X4293754Y-3506888D02*
X4284230Y-3525936D01*
X4284230Y-3525936D02*
X4274706Y-3535460D01*
X4274706Y-3535460D02*
X4255658Y-3544984D01*
X4255658Y-3544984D02*
X4227087Y-3544984D01*
X4350897Y-3411650D02*
X4427087Y-3411650D01*
X4379468Y-3344984D02*
X4379468Y-3516412D01*
X4379468Y-3516412D02*
X4388992Y-3535460D01*
X4388992Y-3535460D02*
X4408039Y-3544984D01*
X4408039Y-3544984D02*
X4427087Y-3544984D01*
X4484230Y-3535460D02*
X4503277Y-3544984D01*
X4503277Y-3544984D02*
X4541373Y-3544984D01*
X4541373Y-3544984D02*
X4560420Y-3535460D01*
X4560420Y-3535460D02*
X4569944Y-3516412D01*
X4569944Y-3516412D02*
X4569944Y-3506888D01*
X4569944Y-3506888D02*
X4560420Y-3487841D01*
X4560420Y-3487841D02*
X4541373Y-3478317D01*
X4541373Y-3478317D02*
X4512801Y-3478317D01*
X4512801Y-3478317D02*
X4493754Y-3468793D01*
X4493754Y-3468793D02*
X4484230Y-3449746D01*
X4484230Y-3449746D02*
X4484230Y-3440222D01*
X4484230Y-3440222D02*
X4493754Y-3421174D01*
X4493754Y-3421174D02*
X4512801Y-3411650D01*
X4512801Y-3411650D02*
X4541373Y-3411650D01*
X4541373Y-3411650D02*
X4560420Y-3421174D01*
X4636611Y-3621174D02*
X4646135Y-3611650D01*
X4646135Y-3611650D02*
X4665182Y-3583079D01*
X4665182Y-3583079D02*
X4674706Y-3564031D01*
X4674706Y-3564031D02*
X4684230Y-3535460D01*
X4684230Y-3535460D02*
X4693754Y-3487841D01*
X4693754Y-3487841D02*
X4693754Y-3449746D01*
X4693754Y-3449746D02*
X4684230Y-3402127D01*
X4684230Y-3402127D02*
X4674706Y-3373555D01*
X4674706Y-3373555D02*
X4665182Y-3354508D01*
X4665182Y-3354508D02*
X4646135Y-3325936D01*
X4646135Y-3325936D02*
X4636611Y-3316412D01*
D12*
X-1862500Y-3665000D02*
X-1757500Y-3770000D01*
X-1757500Y-3665000D02*
X-1862500Y-3770000D01*
X-1757500Y-3717500D02*
G75*
G03*
X-1757500Y-3717500I-52500J0D01*
G01*
D10*
X-1391961Y-3808984D02*
X-1506247Y-3808984D01*
X-1449104Y-3808984D02*
X-1449104Y-3608984D01*
X-1449104Y-3608984D02*
X-1468152Y-3637555D01*
X-1468152Y-3637555D02*
X-1487199Y-3656603D01*
X-1487199Y-3656603D02*
X-1506247Y-3666127D01*
X-1306247Y-3789936D02*
X-1296723Y-3799460D01*
X-1296723Y-3799460D02*
X-1306247Y-3808984D01*
X-1306247Y-3808984D02*
X-1315771Y-3799460D01*
X-1315771Y-3799460D02*
X-1306247Y-3789936D01*
X-1306247Y-3789936D02*
X-1306247Y-3808984D01*
X-1172914Y-3608984D02*
X-1153866Y-3608984D01*
X-1153866Y-3608984D02*
X-1134818Y-3618508D01*
X-1134818Y-3618508D02*
X-1125295Y-3628031D01*
X-1125295Y-3628031D02*
X-1115771Y-3647079D01*
X-1115771Y-3647079D02*
X-1106247Y-3685174D01*
X-1106247Y-3685174D02*
X-1106247Y-3732793D01*
X-1106247Y-3732793D02*
X-1115771Y-3770888D01*
X-1115771Y-3770888D02*
X-1125295Y-3789936D01*
X-1125295Y-3789936D02*
X-1134818Y-3799460D01*
X-1134818Y-3799460D02*
X-1153866Y-3808984D01*
X-1153866Y-3808984D02*
X-1172914Y-3808984D01*
X-1172914Y-3808984D02*
X-1191961Y-3799460D01*
X-1191961Y-3799460D02*
X-1201485Y-3789936D01*
X-1201485Y-3789936D02*
X-1211009Y-3770888D01*
X-1211009Y-3770888D02*
X-1220533Y-3732793D01*
X-1220533Y-3732793D02*
X-1220533Y-3685174D01*
X-1220533Y-3685174D02*
X-1211009Y-3647079D01*
X-1211009Y-3647079D02*
X-1201485Y-3628031D01*
X-1201485Y-3628031D02*
X-1191961Y-3618508D01*
X-1191961Y-3618508D02*
X-1172914Y-3608984D01*
X-925295Y-3608984D02*
X-1020533Y-3608984D01*
X-1020533Y-3608984D02*
X-1030056Y-3704222D01*
X-1030056Y-3704222D02*
X-1020533Y-3694698D01*
X-1020533Y-3694698D02*
X-1001485Y-3685174D01*
X-1001485Y-3685174D02*
X-953866Y-3685174D01*
X-953866Y-3685174D02*
X-934818Y-3694698D01*
X-934818Y-3694698D02*
X-925295Y-3704222D01*
X-925295Y-3704222D02*
X-915771Y-3723269D01*
X-915771Y-3723269D02*
X-915771Y-3770888D01*
X-915771Y-3770888D02*
X-925295Y-3789936D01*
X-925295Y-3789936D02*
X-934818Y-3799460D01*
X-934818Y-3799460D02*
X-953866Y-3808984D01*
X-953866Y-3808984D02*
X-1001485Y-3808984D01*
X-1001485Y-3808984D02*
X-1020533Y-3799460D01*
X-1020533Y-3799460D02*
X-1030056Y-3789936D01*
X-791961Y-3608984D02*
X-772914Y-3608984D01*
X-772914Y-3608984D02*
X-753866Y-3618508D01*
X-753866Y-3618508D02*
X-744342Y-3628031D01*
X-744342Y-3628031D02*
X-734818Y-3647079D01*
X-734818Y-3647079D02*
X-725295Y-3685174D01*
X-725295Y-3685174D02*
X-725295Y-3732793D01*
X-725295Y-3732793D02*
X-734818Y-3770888D01*
X-734818Y-3770888D02*
X-744342Y-3789936D01*
X-744342Y-3789936D02*
X-753866Y-3799460D01*
X-753866Y-3799460D02*
X-772914Y-3808984D01*
X-772914Y-3808984D02*
X-791961Y-3808984D01*
X-791961Y-3808984D02*
X-811009Y-3799460D01*
X-811009Y-3799460D02*
X-820533Y-3789936D01*
X-820533Y-3789936D02*
X-830056Y-3770888D01*
X-830056Y-3770888D02*
X-839580Y-3732793D01*
X-839580Y-3732793D02*
X-839580Y-3685174D01*
X-839580Y-3685174D02*
X-830056Y-3647079D01*
X-830056Y-3647079D02*
X-820533Y-3628031D01*
X-820533Y-3628031D02*
X-811009Y-3618508D01*
X-811009Y-3618508D02*
X-791961Y-3608984D01*
X-639580Y-3808984D02*
X-639580Y-3675650D01*
X-639580Y-3694698D02*
X-630057Y-3685174D01*
X-630057Y-3685174D02*
X-611009Y-3675650D01*
X-611009Y-3675650D02*
X-582437Y-3675650D01*
X-582437Y-3675650D02*
X-563390Y-3685174D01*
X-563390Y-3685174D02*
X-553866Y-3704222D01*
X-553866Y-3704222D02*
X-553866Y-3808984D01*
X-553866Y-3704222D02*
X-544342Y-3685174D01*
X-544342Y-3685174D02*
X-525295Y-3675650D01*
X-525295Y-3675650D02*
X-496723Y-3675650D01*
X-496723Y-3675650D02*
X-477675Y-3685174D01*
X-477675Y-3685174D02*
X-468152Y-3704222D01*
X-468152Y-3704222D02*
X-468152Y-3808984D01*
X-372914Y-3808984D02*
X-372914Y-3675650D01*
X-372914Y-3694698D02*
X-363390Y-3685174D01*
X-363390Y-3685174D02*
X-344342Y-3675650D01*
X-344342Y-3675650D02*
X-315771Y-3675650D01*
X-315771Y-3675650D02*
X-296723Y-3685174D01*
X-296723Y-3685174D02*
X-287199Y-3704222D01*
X-287199Y-3704222D02*
X-287199Y-3808984D01*
X-287199Y-3704222D02*
X-277676Y-3685174D01*
X-277676Y-3685174D02*
X-258628Y-3675650D01*
X-258628Y-3675650D02*
X-230056Y-3675650D01*
X-230056Y-3675650D02*
X-211009Y-3685174D01*
X-211009Y-3685174D02*
X-201485Y-3704222D01*
X-201485Y-3704222D02*
X-201485Y-3808984D01*
X188991Y-3599460D02*
X17563Y-3856603D01*
X446134Y-3608984D02*
X465182Y-3608984D01*
X465182Y-3608984D02*
X484229Y-3618508D01*
X484229Y-3618508D02*
X493753Y-3628031D01*
X493753Y-3628031D02*
X503277Y-3647079D01*
X503277Y-3647079D02*
X512801Y-3685174D01*
X512801Y-3685174D02*
X512801Y-3732793D01*
X512801Y-3732793D02*
X503277Y-3770888D01*
X503277Y-3770888D02*
X493753Y-3789936D01*
X493753Y-3789936D02*
X484229Y-3799460D01*
X484229Y-3799460D02*
X465182Y-3808984D01*
X465182Y-3808984D02*
X446134Y-3808984D01*
X446134Y-3808984D02*
X427086Y-3799460D01*
X427086Y-3799460D02*
X417563Y-3789936D01*
X417563Y-3789936D02*
X408039Y-3770888D01*
X408039Y-3770888D02*
X398515Y-3732793D01*
X398515Y-3732793D02*
X398515Y-3685174D01*
X398515Y-3685174D02*
X408039Y-3647079D01*
X408039Y-3647079D02*
X417563Y-3628031D01*
X417563Y-3628031D02*
X427086Y-3618508D01*
X427086Y-3618508D02*
X446134Y-3608984D01*
X598515Y-3789936D02*
X608039Y-3799460D01*
X608039Y-3799460D02*
X598515Y-3808984D01*
X598515Y-3808984D02*
X588991Y-3799460D01*
X588991Y-3799460D02*
X598515Y-3789936D01*
X598515Y-3789936D02*
X598515Y-3808984D01*
X731848Y-3608984D02*
X750896Y-3608984D01*
X750896Y-3608984D02*
X769944Y-3618508D01*
X769944Y-3618508D02*
X779467Y-3628031D01*
X779467Y-3628031D02*
X788991Y-3647079D01*
X788991Y-3647079D02*
X798515Y-3685174D01*
X798515Y-3685174D02*
X798515Y-3732793D01*
X798515Y-3732793D02*
X788991Y-3770888D01*
X788991Y-3770888D02*
X779467Y-3789936D01*
X779467Y-3789936D02*
X769944Y-3799460D01*
X769944Y-3799460D02*
X750896Y-3808984D01*
X750896Y-3808984D02*
X731848Y-3808984D01*
X731848Y-3808984D02*
X712801Y-3799460D01*
X712801Y-3799460D02*
X703277Y-3789936D01*
X703277Y-3789936D02*
X693753Y-3770888D01*
X693753Y-3770888D02*
X684229Y-3732793D01*
X684229Y-3732793D02*
X684229Y-3685174D01*
X684229Y-3685174D02*
X693753Y-3647079D01*
X693753Y-3647079D02*
X703277Y-3628031D01*
X703277Y-3628031D02*
X712801Y-3618508D01*
X712801Y-3618508D02*
X731848Y-3608984D01*
X969944Y-3675650D02*
X969944Y-3808984D01*
X922325Y-3599460D02*
X874706Y-3742317D01*
X874706Y-3742317D02*
X998515Y-3742317D01*
X1179468Y-3808984D02*
X1065182Y-3808984D01*
X1122325Y-3808984D02*
X1122325Y-3608984D01*
X1122325Y-3608984D02*
X1103277Y-3637555D01*
X1103277Y-3637555D02*
X1084229Y-3656603D01*
X1084229Y-3656603D02*
X1065182Y-3666127D01*
X1246134Y-3608984D02*
X1369944Y-3608984D01*
X1369944Y-3608984D02*
X1303277Y-3685174D01*
X1303277Y-3685174D02*
X1331849Y-3685174D01*
X1331849Y-3685174D02*
X1350896Y-3694698D01*
X1350896Y-3694698D02*
X1360420Y-3704222D01*
X1360420Y-3704222D02*
X1369944Y-3723269D01*
X1369944Y-3723269D02*
X1369944Y-3770888D01*
X1369944Y-3770888D02*
X1360420Y-3789936D01*
X1360420Y-3789936D02*
X1350896Y-3799460D01*
X1350896Y-3799460D02*
X1331849Y-3808984D01*
X1331849Y-3808984D02*
X1274706Y-3808984D01*
X1274706Y-3808984D02*
X1255658Y-3799460D01*
X1255658Y-3799460D02*
X1246134Y-3789936D01*
X1446134Y-3608984D02*
X1446134Y-3647079D01*
X1522325Y-3608984D02*
X1522325Y-3647079D01*
X1817563Y-3885174D02*
X1808039Y-3875650D01*
X1808039Y-3875650D02*
X1788991Y-3847079D01*
X1788991Y-3847079D02*
X1779468Y-3828031D01*
X1779468Y-3828031D02*
X1769944Y-3799460D01*
X1769944Y-3799460D02*
X1760420Y-3751841D01*
X1760420Y-3751841D02*
X1760420Y-3713746D01*
X1760420Y-3713746D02*
X1769944Y-3666127D01*
X1769944Y-3666127D02*
X1779468Y-3637555D01*
X1779468Y-3637555D02*
X1788991Y-3618508D01*
X1788991Y-3618508D02*
X1808039Y-3589936D01*
X1808039Y-3589936D02*
X1817563Y-3580412D01*
X1979468Y-3675650D02*
X1979468Y-3808984D01*
X1931848Y-3599460D02*
X1884229Y-3742317D01*
X1884229Y-3742317D02*
X2008039Y-3742317D01*
X2236611Y-3808984D02*
X2236611Y-3608984D01*
X2322325Y-3808984D02*
X2322325Y-3704222D01*
X2322325Y-3704222D02*
X2312801Y-3685174D01*
X2312801Y-3685174D02*
X2293753Y-3675650D01*
X2293753Y-3675650D02*
X2265182Y-3675650D01*
X2265182Y-3675650D02*
X2246134Y-3685174D01*
X2246134Y-3685174D02*
X2236611Y-3694698D01*
X2446134Y-3808984D02*
X2427087Y-3799460D01*
X2427087Y-3799460D02*
X2417563Y-3789936D01*
X2417563Y-3789936D02*
X2408039Y-3770888D01*
X2408039Y-3770888D02*
X2408039Y-3713746D01*
X2408039Y-3713746D02*
X2417563Y-3694698D01*
X2417563Y-3694698D02*
X2427087Y-3685174D01*
X2427087Y-3685174D02*
X2446134Y-3675650D01*
X2446134Y-3675650D02*
X2474706Y-3675650D01*
X2474706Y-3675650D02*
X2493753Y-3685174D01*
X2493753Y-3685174D02*
X2503277Y-3694698D01*
X2503277Y-3694698D02*
X2512801Y-3713746D01*
X2512801Y-3713746D02*
X2512801Y-3770888D01*
X2512801Y-3770888D02*
X2503277Y-3789936D01*
X2503277Y-3789936D02*
X2493753Y-3799460D01*
X2493753Y-3799460D02*
X2474706Y-3808984D01*
X2474706Y-3808984D02*
X2446134Y-3808984D01*
X2627087Y-3808984D02*
X2608039Y-3799460D01*
X2608039Y-3799460D02*
X2598515Y-3780412D01*
X2598515Y-3780412D02*
X2598515Y-3608984D01*
X2779468Y-3799460D02*
X2760420Y-3808984D01*
X2760420Y-3808984D02*
X2722325Y-3808984D01*
X2722325Y-3808984D02*
X2703277Y-3799460D01*
X2703277Y-3799460D02*
X2693753Y-3780412D01*
X2693753Y-3780412D02*
X2693753Y-3704222D01*
X2693753Y-3704222D02*
X2703277Y-3685174D01*
X2703277Y-3685174D02*
X2722325Y-3675650D01*
X2722325Y-3675650D02*
X2760420Y-3675650D01*
X2760420Y-3675650D02*
X2779468Y-3685174D01*
X2779468Y-3685174D02*
X2788992Y-3704222D01*
X2788992Y-3704222D02*
X2788992Y-3723269D01*
X2788992Y-3723269D02*
X2693753Y-3742317D01*
X2865182Y-3799460D02*
X2884230Y-3808984D01*
X2884230Y-3808984D02*
X2922325Y-3808984D01*
X2922325Y-3808984D02*
X2941372Y-3799460D01*
X2941372Y-3799460D02*
X2950896Y-3780412D01*
X2950896Y-3780412D02*
X2950896Y-3770888D01*
X2950896Y-3770888D02*
X2941372Y-3751841D01*
X2941372Y-3751841D02*
X2922325Y-3742317D01*
X2922325Y-3742317D02*
X2893753Y-3742317D01*
X2893753Y-3742317D02*
X2874706Y-3732793D01*
X2874706Y-3732793D02*
X2865182Y-3713746D01*
X2865182Y-3713746D02*
X2865182Y-3704222D01*
X2865182Y-3704222D02*
X2874706Y-3685174D01*
X2874706Y-3685174D02*
X2893753Y-3675650D01*
X2893753Y-3675650D02*
X2922325Y-3675650D01*
X2922325Y-3675650D02*
X2941372Y-3685174D01*
X3017563Y-3885174D02*
X3027087Y-3875650D01*
X3027087Y-3875650D02*
X3046134Y-3847079D01*
X3046134Y-3847079D02*
X3055658Y-3828031D01*
X3055658Y-3828031D02*
X3065182Y-3799460D01*
X3065182Y-3799460D02*
X3074706Y-3751841D01*
X3074706Y-3751841D02*
X3074706Y-3713746D01*
X3074706Y-3713746D02*
X3065182Y-3666127D01*
X3065182Y-3666127D02*
X3055658Y-3637555D01*
X3055658Y-3637555D02*
X3046134Y-3618508D01*
X3046134Y-3618508D02*
X3027087Y-3589936D01*
X3027087Y-3589936D02*
X3017563Y-3580412D01*
X-1957500Y-3881500D02*
X-1757500Y-4081500D01*
X-1757500Y-3881500D02*
X-1957500Y-4081500D01*
X-1857500Y-3881500D02*
X-1857500Y-4081500D01*
X-1957500Y-3981500D02*
X-1757500Y-3981500D01*
X-1515771Y-3872984D02*
X-1391961Y-3872984D01*
X-1391961Y-3872984D02*
X-1458628Y-3949174D01*
X-1458628Y-3949174D02*
X-1430056Y-3949174D01*
X-1430056Y-3949174D02*
X-1411009Y-3958698D01*
X-1411009Y-3958698D02*
X-1401485Y-3968222D01*
X-1401485Y-3968222D02*
X-1391961Y-3987269D01*
X-1391961Y-3987269D02*
X-1391961Y-4034888D01*
X-1391961Y-4034888D02*
X-1401485Y-4053936D01*
X-1401485Y-4053936D02*
X-1411009Y-4063460D01*
X-1411009Y-4063460D02*
X-1430056Y-4072984D01*
X-1430056Y-4072984D02*
X-1487199Y-4072984D01*
X-1487199Y-4072984D02*
X-1506247Y-4063460D01*
X-1506247Y-4063460D02*
X-1515771Y-4053936D01*
X-1306247Y-4053936D02*
X-1296723Y-4063460D01*
X-1296723Y-4063460D02*
X-1306247Y-4072984D01*
X-1306247Y-4072984D02*
X-1315771Y-4063460D01*
X-1315771Y-4063460D02*
X-1306247Y-4053936D01*
X-1306247Y-4053936D02*
X-1306247Y-4072984D01*
X-1106247Y-4072984D02*
X-1220533Y-4072984D01*
X-1163390Y-4072984D02*
X-1163390Y-3872984D01*
X-1163390Y-3872984D02*
X-1182438Y-3901555D01*
X-1182438Y-3901555D02*
X-1201485Y-3920603D01*
X-1201485Y-3920603D02*
X-1220533Y-3930127D01*
X-982437Y-3872984D02*
X-963390Y-3872984D01*
X-963390Y-3872984D02*
X-944342Y-3882508D01*
X-944342Y-3882508D02*
X-934818Y-3892031D01*
X-934818Y-3892031D02*
X-925295Y-3911079D01*
X-925295Y-3911079D02*
X-915771Y-3949174D01*
X-915771Y-3949174D02*
X-915771Y-3996793D01*
X-915771Y-3996793D02*
X-925295Y-4034888D01*
X-925295Y-4034888D02*
X-934818Y-4053936D01*
X-934818Y-4053936D02*
X-944342Y-4063460D01*
X-944342Y-4063460D02*
X-963390Y-4072984D01*
X-963390Y-4072984D02*
X-982437Y-4072984D01*
X-982437Y-4072984D02*
X-1001485Y-4063460D01*
X-1001485Y-4063460D02*
X-1011009Y-4053936D01*
X-1011009Y-4053936D02*
X-1020533Y-4034888D01*
X-1020533Y-4034888D02*
X-1030056Y-3996793D01*
X-1030056Y-3996793D02*
X-1030056Y-3949174D01*
X-1030056Y-3949174D02*
X-1020533Y-3911079D01*
X-1020533Y-3911079D02*
X-1011009Y-3892031D01*
X-1011009Y-3892031D02*
X-1001485Y-3882508D01*
X-1001485Y-3882508D02*
X-982437Y-3872984D01*
X-791961Y-3872984D02*
X-772914Y-3872984D01*
X-772914Y-3872984D02*
X-753866Y-3882508D01*
X-753866Y-3882508D02*
X-744342Y-3892031D01*
X-744342Y-3892031D02*
X-734818Y-3911079D01*
X-734818Y-3911079D02*
X-725295Y-3949174D01*
X-725295Y-3949174D02*
X-725295Y-3996793D01*
X-725295Y-3996793D02*
X-734818Y-4034888D01*
X-734818Y-4034888D02*
X-744342Y-4053936D01*
X-744342Y-4053936D02*
X-753866Y-4063460D01*
X-753866Y-4063460D02*
X-772914Y-4072984D01*
X-772914Y-4072984D02*
X-791961Y-4072984D01*
X-791961Y-4072984D02*
X-811009Y-4063460D01*
X-811009Y-4063460D02*
X-820533Y-4053936D01*
X-820533Y-4053936D02*
X-830056Y-4034888D01*
X-830056Y-4034888D02*
X-839580Y-3996793D01*
X-839580Y-3996793D02*
X-839580Y-3949174D01*
X-839580Y-3949174D02*
X-830056Y-3911079D01*
X-830056Y-3911079D02*
X-820533Y-3892031D01*
X-820533Y-3892031D02*
X-811009Y-3882508D01*
X-811009Y-3882508D02*
X-791961Y-3872984D01*
X-639580Y-4072984D02*
X-639580Y-3939650D01*
X-639580Y-3958698D02*
X-630057Y-3949174D01*
X-630057Y-3949174D02*
X-611009Y-3939650D01*
X-611009Y-3939650D02*
X-582437Y-3939650D01*
X-582437Y-3939650D02*
X-563390Y-3949174D01*
X-563390Y-3949174D02*
X-553866Y-3968222D01*
X-553866Y-3968222D02*
X-553866Y-4072984D01*
X-553866Y-3968222D02*
X-544342Y-3949174D01*
X-544342Y-3949174D02*
X-525295Y-3939650D01*
X-525295Y-3939650D02*
X-496723Y-3939650D01*
X-496723Y-3939650D02*
X-477675Y-3949174D01*
X-477675Y-3949174D02*
X-468152Y-3968222D01*
X-468152Y-3968222D02*
X-468152Y-4072984D01*
X-372914Y-4072984D02*
X-372914Y-3939650D01*
X-372914Y-3958698D02*
X-363390Y-3949174D01*
X-363390Y-3949174D02*
X-344342Y-3939650D01*
X-344342Y-3939650D02*
X-315771Y-3939650D01*
X-315771Y-3939650D02*
X-296723Y-3949174D01*
X-296723Y-3949174D02*
X-287199Y-3968222D01*
X-287199Y-3968222D02*
X-287199Y-4072984D01*
X-287199Y-3968222D02*
X-277676Y-3949174D01*
X-277676Y-3949174D02*
X-258628Y-3939650D01*
X-258628Y-3939650D02*
X-230056Y-3939650D01*
X-230056Y-3939650D02*
X-211009Y-3949174D01*
X-211009Y-3949174D02*
X-201485Y-3968222D01*
X-201485Y-3968222D02*
X-201485Y-4072984D01*
X188991Y-3863460D02*
X17563Y-4120603D01*
X446134Y-3872984D02*
X465182Y-3872984D01*
X465182Y-3872984D02*
X484229Y-3882508D01*
X484229Y-3882508D02*
X493753Y-3892031D01*
X493753Y-3892031D02*
X503277Y-3911079D01*
X503277Y-3911079D02*
X512801Y-3949174D01*
X512801Y-3949174D02*
X512801Y-3996793D01*
X512801Y-3996793D02*
X503277Y-4034888D01*
X503277Y-4034888D02*
X493753Y-4053936D01*
X493753Y-4053936D02*
X484229Y-4063460D01*
X484229Y-4063460D02*
X465182Y-4072984D01*
X465182Y-4072984D02*
X446134Y-4072984D01*
X446134Y-4072984D02*
X427086Y-4063460D01*
X427086Y-4063460D02*
X417563Y-4053936D01*
X417563Y-4053936D02*
X408039Y-4034888D01*
X408039Y-4034888D02*
X398515Y-3996793D01*
X398515Y-3996793D02*
X398515Y-3949174D01*
X398515Y-3949174D02*
X408039Y-3911079D01*
X408039Y-3911079D02*
X417563Y-3892031D01*
X417563Y-3892031D02*
X427086Y-3882508D01*
X427086Y-3882508D02*
X446134Y-3872984D01*
X598515Y-4053936D02*
X608039Y-4063460D01*
X608039Y-4063460D02*
X598515Y-4072984D01*
X598515Y-4072984D02*
X588991Y-4063460D01*
X588991Y-4063460D02*
X598515Y-4053936D01*
X598515Y-4053936D02*
X598515Y-4072984D01*
X798515Y-4072984D02*
X684229Y-4072984D01*
X741372Y-4072984D02*
X741372Y-3872984D01*
X741372Y-3872984D02*
X722325Y-3901555D01*
X722325Y-3901555D02*
X703277Y-3920603D01*
X703277Y-3920603D02*
X684229Y-3930127D01*
X874706Y-3892031D02*
X884229Y-3882508D01*
X884229Y-3882508D02*
X903277Y-3872984D01*
X903277Y-3872984D02*
X950896Y-3872984D01*
X950896Y-3872984D02*
X969944Y-3882508D01*
X969944Y-3882508D02*
X979467Y-3892031D01*
X979467Y-3892031D02*
X988991Y-3911079D01*
X988991Y-3911079D02*
X988991Y-3930127D01*
X988991Y-3930127D02*
X979467Y-3958698D01*
X979467Y-3958698D02*
X865182Y-4072984D01*
X865182Y-4072984D02*
X988991Y-4072984D01*
X1065182Y-3892031D02*
X1074706Y-3882508D01*
X1074706Y-3882508D02*
X1093753Y-3872984D01*
X1093753Y-3872984D02*
X1141372Y-3872984D01*
X1141372Y-3872984D02*
X1160420Y-3882508D01*
X1160420Y-3882508D02*
X1169944Y-3892031D01*
X1169944Y-3892031D02*
X1179468Y-3911079D01*
X1179468Y-3911079D02*
X1179468Y-3930127D01*
X1179468Y-3930127D02*
X1169944Y-3958698D01*
X1169944Y-3958698D02*
X1055658Y-4072984D01*
X1055658Y-4072984D02*
X1179468Y-4072984D01*
X1303277Y-3872984D02*
X1322325Y-3872984D01*
X1322325Y-3872984D02*
X1341372Y-3882508D01*
X1341372Y-3882508D02*
X1350896Y-3892031D01*
X1350896Y-3892031D02*
X1360420Y-3911079D01*
X1360420Y-3911079D02*
X1369944Y-3949174D01*
X1369944Y-3949174D02*
X1369944Y-3996793D01*
X1369944Y-3996793D02*
X1360420Y-4034888D01*
X1360420Y-4034888D02*
X1350896Y-4053936D01*
X1350896Y-4053936D02*
X1341372Y-4063460D01*
X1341372Y-4063460D02*
X1322325Y-4072984D01*
X1322325Y-4072984D02*
X1303277Y-4072984D01*
X1303277Y-4072984D02*
X1284229Y-4063460D01*
X1284229Y-4063460D02*
X1274706Y-4053936D01*
X1274706Y-4053936D02*
X1265182Y-4034888D01*
X1265182Y-4034888D02*
X1255658Y-3996793D01*
X1255658Y-3996793D02*
X1255658Y-3949174D01*
X1255658Y-3949174D02*
X1265182Y-3911079D01*
X1265182Y-3911079D02*
X1274706Y-3892031D01*
X1274706Y-3892031D02*
X1284229Y-3882508D01*
X1284229Y-3882508D02*
X1303277Y-3872984D01*
X1446134Y-3872984D02*
X1446134Y-3911079D01*
X1522325Y-3872984D02*
X1522325Y-3911079D01*
X1817563Y-4149174D02*
X1808039Y-4139650D01*
X1808039Y-4139650D02*
X1788991Y-4111079D01*
X1788991Y-4111079D02*
X1779468Y-4092031D01*
X1779468Y-4092031D02*
X1769944Y-4063460D01*
X1769944Y-4063460D02*
X1760420Y-4015841D01*
X1760420Y-4015841D02*
X1760420Y-3977746D01*
X1760420Y-3977746D02*
X1769944Y-3930127D01*
X1769944Y-3930127D02*
X1779468Y-3901555D01*
X1779468Y-3901555D02*
X1788991Y-3882508D01*
X1788991Y-3882508D02*
X1808039Y-3853936D01*
X1808039Y-3853936D02*
X1817563Y-3844412D01*
X1979468Y-3939650D02*
X1979468Y-4072984D01*
X1931848Y-3863460D02*
X1884229Y-4006317D01*
X1884229Y-4006317D02*
X2008039Y-4006317D01*
X2236611Y-4072984D02*
X2236611Y-3872984D01*
X2322325Y-4072984D02*
X2322325Y-3968222D01*
X2322325Y-3968222D02*
X2312801Y-3949174D01*
X2312801Y-3949174D02*
X2293753Y-3939650D01*
X2293753Y-3939650D02*
X2265182Y-3939650D01*
X2265182Y-3939650D02*
X2246134Y-3949174D01*
X2246134Y-3949174D02*
X2236611Y-3958698D01*
X2446134Y-4072984D02*
X2427087Y-4063460D01*
X2427087Y-4063460D02*
X2417563Y-4053936D01*
X2417563Y-4053936D02*
X2408039Y-4034888D01*
X2408039Y-4034888D02*
X2408039Y-3977746D01*
X2408039Y-3977746D02*
X2417563Y-3958698D01*
X2417563Y-3958698D02*
X2427087Y-3949174D01*
X2427087Y-3949174D02*
X2446134Y-3939650D01*
X2446134Y-3939650D02*
X2474706Y-3939650D01*
X2474706Y-3939650D02*
X2493753Y-3949174D01*
X2493753Y-3949174D02*
X2503277Y-3958698D01*
X2503277Y-3958698D02*
X2512801Y-3977746D01*
X2512801Y-3977746D02*
X2512801Y-4034888D01*
X2512801Y-4034888D02*
X2503277Y-4053936D01*
X2503277Y-4053936D02*
X2493753Y-4063460D01*
X2493753Y-4063460D02*
X2474706Y-4072984D01*
X2474706Y-4072984D02*
X2446134Y-4072984D01*
X2627087Y-4072984D02*
X2608039Y-4063460D01*
X2608039Y-4063460D02*
X2598515Y-4044412D01*
X2598515Y-4044412D02*
X2598515Y-3872984D01*
X2779468Y-4063460D02*
X2760420Y-4072984D01*
X2760420Y-4072984D02*
X2722325Y-4072984D01*
X2722325Y-4072984D02*
X2703277Y-4063460D01*
X2703277Y-4063460D02*
X2693753Y-4044412D01*
X2693753Y-4044412D02*
X2693753Y-3968222D01*
X2693753Y-3968222D02*
X2703277Y-3949174D01*
X2703277Y-3949174D02*
X2722325Y-3939650D01*
X2722325Y-3939650D02*
X2760420Y-3939650D01*
X2760420Y-3939650D02*
X2779468Y-3949174D01*
X2779468Y-3949174D02*
X2788992Y-3968222D01*
X2788992Y-3968222D02*
X2788992Y-3987269D01*
X2788992Y-3987269D02*
X2693753Y-4006317D01*
X2865182Y-4063460D02*
X2884230Y-4072984D01*
X2884230Y-4072984D02*
X2922325Y-4072984D01*
X2922325Y-4072984D02*
X2941372Y-4063460D01*
X2941372Y-4063460D02*
X2950896Y-4044412D01*
X2950896Y-4044412D02*
X2950896Y-4034888D01*
X2950896Y-4034888D02*
X2941372Y-4015841D01*
X2941372Y-4015841D02*
X2922325Y-4006317D01*
X2922325Y-4006317D02*
X2893753Y-4006317D01*
X2893753Y-4006317D02*
X2874706Y-3996793D01*
X2874706Y-3996793D02*
X2865182Y-3977746D01*
X2865182Y-3977746D02*
X2865182Y-3968222D01*
X2865182Y-3968222D02*
X2874706Y-3949174D01*
X2874706Y-3949174D02*
X2893753Y-3939650D01*
X2893753Y-3939650D02*
X2922325Y-3939650D01*
X2922325Y-3939650D02*
X2941372Y-3949174D01*
X3017563Y-4149174D02*
X3027087Y-4139650D01*
X3027087Y-4139650D02*
X3046134Y-4111079D01*
X3046134Y-4111079D02*
X3055658Y-4092031D01*
X3055658Y-4092031D02*
X3065182Y-4063460D01*
X3065182Y-4063460D02*
X3074706Y-4015841D01*
X3074706Y-4015841D02*
X3074706Y-3977746D01*
X3074706Y-3977746D02*
X3065182Y-3930127D01*
X3065182Y-3930127D02*
X3055658Y-3901555D01*
X3055658Y-3901555D02*
X3046134Y-3882508D01*
X3046134Y-3882508D02*
X3027087Y-3853936D01*
X3027087Y-3853936D02*
X3017563Y-3844412D01*
M02*
