%TF.GenerationSoftware,KiCad,Pcbnew,7.0.8*%
%TF.CreationDate,2023-11-08T18:05:15-05:00*%
%TF.ProjectId,lemon-pepper,6c656d6f-6e2d-4706-9570-7065722e6b69,rev?*%
%TF.SameCoordinates,PX8b85c60PY52f2218*%
%TF.FileFunction,Copper,L1,Top*%
%TF.FilePolarity,Positive*%
%FSLAX46Y46*%
G04 Gerber Fmt 4.6, Leading zero omitted, Abs format (unit mm)*
G04 Created by KiCad (PCBNEW 7.0.8) date 2023-11-08 18:05:15*
%MOMM*%
%LPD*%
G01*
G04 APERTURE LIST*
G04 Aperture macros list*
%AMRoundRect*
0 Rectangle with rounded corners*
0 $1 Rounding radius*
0 $2 $3 $4 $5 $6 $7 $8 $9 X,Y pos of 4 corners*
0 Add a 4 corners polygon primitive as box body*
4,1,4,$2,$3,$4,$5,$6,$7,$8,$9,$2,$3,0*
0 Add four circle primitives for the rounded corners*
1,1,$1+$1,$2,$3*
1,1,$1+$1,$4,$5*
1,1,$1+$1,$6,$7*
1,1,$1+$1,$8,$9*
0 Add four rect primitives between the rounded corners*
20,1,$1+$1,$2,$3,$4,$5,0*
20,1,$1+$1,$4,$5,$6,$7,0*
20,1,$1+$1,$6,$7,$8,$9,0*
20,1,$1+$1,$8,$9,$2,$3,0*%
%AMRotRect*
0 Rectangle, with rotation*
0 The origin of the aperture is its center*
0 $1 length*
0 $2 width*
0 $3 Rotation angle, in degrees counterclockwise*
0 Add horizontal line*
21,1,$1,$2,0,0,$3*%
%AMFreePoly0*
4,1,17,-0.875000,2.062500,-0.867373,2.143836,-0.824300,2.266930,-0.746859,2.371859,-0.641930,2.449300,-0.518836,2.492373,-0.437500,2.500000,0.437500,2.500000,0.518836,2.492373,0.641930,2.449300,0.746859,2.371859,0.824300,2.266930,0.867373,2.143836,0.875000,2.062500,0.875000,-2.500000,-0.875000,-2.500000,-0.875000,2.062500,-0.875000,2.062500,$1*%
G04 Aperture macros list end*
%TA.AperFunction,SMDPad,CuDef*%
%ADD10RoundRect,0.250000X-0.250000X-0.475000X0.250000X-0.475000X0.250000X0.475000X-0.250000X0.475000X0*%
%TD*%
%TA.AperFunction,ConnectorPad*%
%ADD11C,0.787400*%
%TD*%
%TA.AperFunction,SMDPad,CuDef*%
%ADD12RoundRect,0.150000X-0.587500X-0.150000X0.587500X-0.150000X0.587500X0.150000X-0.587500X0.150000X0*%
%TD*%
%TA.AperFunction,SMDPad,CuDef*%
%ADD13RoundRect,0.135000X-0.135000X-0.185000X0.135000X-0.185000X0.135000X0.185000X-0.135000X0.185000X0*%
%TD*%
%TA.AperFunction,SMDPad,CuDef*%
%ADD14RoundRect,0.112500X-0.112500X0.187500X-0.112500X-0.187500X0.112500X-0.187500X0.112500X0.187500X0*%
%TD*%
%TA.AperFunction,SMDPad,CuDef*%
%ADD15RoundRect,0.150000X-0.825000X-0.150000X0.825000X-0.150000X0.825000X0.150000X-0.825000X0.150000X0*%
%TD*%
%TA.AperFunction,SMDPad,CuDef*%
%ADD16RoundRect,0.135000X0.185000X-0.135000X0.185000X0.135000X-0.185000X0.135000X-0.185000X-0.135000X0*%
%TD*%
%TA.AperFunction,SMDPad,CuDef*%
%ADD17RoundRect,0.135000X-0.035355X0.226274X-0.226274X0.035355X0.035355X-0.226274X0.226274X-0.035355X0*%
%TD*%
%TA.AperFunction,SMDPad,CuDef*%
%ADD18RoundRect,0.140000X0.021213X-0.219203X0.219203X-0.021213X-0.021213X0.219203X-0.219203X0.021213X0*%
%TD*%
%TA.AperFunction,SMDPad,CuDef*%
%ADD19RoundRect,0.250000X-0.650000X1.000000X-0.650000X-1.000000X0.650000X-1.000000X0.650000X1.000000X0*%
%TD*%
%TA.AperFunction,SMDPad,CuDef*%
%ADD20RoundRect,0.250000X0.250000X0.475000X-0.250000X0.475000X-0.250000X-0.475000X0.250000X-0.475000X0*%
%TD*%
%TA.AperFunction,SMDPad,CuDef*%
%ADD21RoundRect,0.218750X-0.256250X0.218750X-0.256250X-0.218750X0.256250X-0.218750X0.256250X0.218750X0*%
%TD*%
%TA.AperFunction,SMDPad,CuDef*%
%ADD22RoundRect,0.218750X-0.218750X-0.256250X0.218750X-0.256250X0.218750X0.256250X-0.218750X0.256250X0*%
%TD*%
%TA.AperFunction,SMDPad,CuDef*%
%ADD23RoundRect,0.250000X-0.375000X-1.075000X0.375000X-1.075000X0.375000X1.075000X-0.375000X1.075000X0*%
%TD*%
%TA.AperFunction,SMDPad,CuDef*%
%ADD24RoundRect,0.140000X-0.021213X0.219203X-0.219203X0.021213X0.021213X-0.219203X0.219203X-0.021213X0*%
%TD*%
%TA.AperFunction,SMDPad,CuDef*%
%ADD25RoundRect,0.140000X0.140000X0.170000X-0.140000X0.170000X-0.140000X-0.170000X0.140000X-0.170000X0*%
%TD*%
%TA.AperFunction,SMDPad,CuDef*%
%ADD26RoundRect,0.150000X-0.150000X0.512500X-0.150000X-0.512500X0.150000X-0.512500X0.150000X0.512500X0*%
%TD*%
%TA.AperFunction,SMDPad,CuDef*%
%ADD27R,1.270000X0.800000*%
%TD*%
%TA.AperFunction,SMDPad,CuDef*%
%ADD28R,0.300000X0.850000*%
%TD*%
%TA.AperFunction,SMDPad,CuDef*%
%ADD29R,0.850000X0.300000*%
%TD*%
%TA.AperFunction,SMDPad,CuDef*%
%ADD30RoundRect,0.140000X-0.170000X0.140000X-0.170000X-0.140000X0.170000X-0.140000X0.170000X0.140000X0*%
%TD*%
%TA.AperFunction,SMDPad,CuDef*%
%ADD31C,0.500000*%
%TD*%
%TA.AperFunction,SMDPad,CuDef*%
%ADD32RoundRect,0.250000X0.475000X-0.250000X0.475000X0.250000X-0.475000X0.250000X-0.475000X-0.250000X0*%
%TD*%
%TA.AperFunction,SMDPad,CuDef*%
%ADD33RoundRect,0.135000X0.135000X0.185000X-0.135000X0.185000X-0.135000X-0.185000X0.135000X-0.185000X0*%
%TD*%
%TA.AperFunction,ComponentPad*%
%ADD34C,0.700000*%
%TD*%
%TA.AperFunction,SMDPad,CuDef*%
%ADD35RotRect,0.300000X0.850000X315.000000*%
%TD*%
%TA.AperFunction,ComponentPad*%
%ADD36C,1.300000*%
%TD*%
%TA.AperFunction,SMDPad,CuDef*%
%ADD37RoundRect,0.140000X-0.140000X-0.170000X0.140000X-0.170000X0.140000X0.170000X-0.140000X0.170000X0*%
%TD*%
%TA.AperFunction,HeatsinkPad*%
%ADD38C,0.500000*%
%TD*%
%TA.AperFunction,ComponentPad*%
%ADD39O,1.750000X1.750000*%
%TD*%
%TA.AperFunction,SMDPad,CuDef*%
%ADD40FreePoly0,0.000000*%
%TD*%
%TA.AperFunction,ComponentPad*%
%ADD41O,1.750000X2.000000*%
%TD*%
%TA.AperFunction,SMDPad,CuDef*%
%ADD42RoundRect,0.135000X-0.185000X0.135000X-0.185000X-0.135000X0.185000X-0.135000X0.185000X0.135000X0*%
%TD*%
%TA.AperFunction,SMDPad,CuDef*%
%ADD43RotRect,0.660000X0.280000X225.000000*%
%TD*%
%TA.AperFunction,SMDPad,CuDef*%
%ADD44RotRect,0.280000X0.660000X225.000000*%
%TD*%
%TA.AperFunction,SMDPad,CuDef*%
%ADD45RotRect,3.500000X3.500000X225.000000*%
%TD*%
%TA.AperFunction,SMDPad,CuDef*%
%ADD46R,0.800000X0.250000*%
%TD*%
%TA.AperFunction,SMDPad,CuDef*%
%ADD47RoundRect,0.062500X-0.309359X0.220971X0.220971X-0.309359X0.309359X-0.220971X-0.220971X0.309359X0*%
%TD*%
%TA.AperFunction,SMDPad,CuDef*%
%ADD48RoundRect,0.062500X-0.309359X-0.220971X-0.220971X-0.309359X0.309359X0.220971X0.220971X0.309359X0*%
%TD*%
%TA.AperFunction,SMDPad,CuDef*%
%ADD49RotRect,5.600000X5.600000X315.000000*%
%TD*%
%TA.AperFunction,ComponentPad*%
%ADD50C,5.800000*%
%TD*%
%TA.AperFunction,SMDPad,CuDef*%
%ADD51RoundRect,0.140000X0.219203X0.021213X0.021213X0.219203X-0.219203X-0.021213X-0.021213X-0.219203X0*%
%TD*%
%TA.AperFunction,SMDPad,CuDef*%
%ADD52RotRect,1.400000X1.200000X225.000000*%
%TD*%
%TA.AperFunction,SMDPad,CuDef*%
%ADD53RoundRect,0.112500X0.187500X0.112500X-0.187500X0.112500X-0.187500X-0.112500X0.187500X-0.112500X0*%
%TD*%
%TA.AperFunction,ComponentPad*%
%ADD54RoundRect,0.250000X0.600000X0.725000X-0.600000X0.725000X-0.600000X-0.725000X0.600000X-0.725000X0*%
%TD*%
%TA.AperFunction,ComponentPad*%
%ADD55O,1.700000X1.950000*%
%TD*%
%TA.AperFunction,SMDPad,CuDef*%
%ADD56R,0.450000X1.050000*%
%TD*%
%TA.AperFunction,SMDPad,CuDef*%
%ADD57RoundRect,0.140000X0.170000X-0.140000X0.170000X0.140000X-0.170000X0.140000X-0.170000X-0.140000X0*%
%TD*%
%TA.AperFunction,SMDPad,CuDef*%
%ADD58RoundRect,0.112500X-0.187500X-0.112500X0.187500X-0.112500X0.187500X0.112500X-0.187500X0.112500X0*%
%TD*%
%TA.AperFunction,SMDPad,CuDef*%
%ADD59RoundRect,0.135000X0.035355X-0.226274X0.226274X-0.035355X-0.035355X0.226274X-0.226274X0.035355X0*%
%TD*%
%TA.AperFunction,SMDPad,CuDef*%
%ADD60RoundRect,0.200000X0.275000X-0.200000X0.275000X0.200000X-0.275000X0.200000X-0.275000X-0.200000X0*%
%TD*%
%TA.AperFunction,ViaPad*%
%ADD61C,0.450000*%
%TD*%
%TA.AperFunction,ViaPad*%
%ADD62C,0.800000*%
%TD*%
%TA.AperFunction,Conductor*%
%ADD63C,0.250000*%
%TD*%
%TA.AperFunction,Conductor*%
%ADD64C,0.200000*%
%TD*%
%TA.AperFunction,Conductor*%
%ADD65C,0.100000*%
%TD*%
%TA.AperFunction,Conductor*%
%ADD66C,0.400000*%
%TD*%
G04 APERTURE END LIST*
D10*
%TO.P,C103,1*%
%TO.N,GND*%
X-9225000Y12175000D03*
%TO.P,C103,2*%
%TO.N,Vmot*%
X-7325000Y12175000D03*
%TD*%
D11*
%TO.P,J301,1,VCC*%
%TO.N,+3V3*%
X-8350503Y-16065661D03*
%TO.P,J301,2,SWDIO*%
%TO.N,/mcu/SWDIO*%
X-8592830Y-14818994D03*
%TO.P,J301,3,~{RESET}*%
%TO.N,/mcu/RESET*%
X-7103836Y-15823333D03*
%TO.P,J301,4,SWCLK*%
%TO.N,/mcu/SWCLK*%
X-7346164Y-14576667D03*
%TO.P,J301,5,GND*%
%TO.N,GND*%
X-5857170Y-15581006D03*
%TO.P,J301,6,SWO*%
%TO.N,unconnected-(J301-SWO-Pad6)*%
X-6099497Y-14334339D03*
%TD*%
D12*
%TO.P,Q501,1,B*%
%TO.N,Net-(Q501-B)*%
X11825000Y9100000D03*
%TO.P,Q501,2,E*%
%TO.N,GND*%
X11825000Y7200000D03*
%TO.P,Q501,3,C*%
%TO.N,Net-(Q501-C)*%
X13700000Y8150000D03*
%TD*%
D13*
%TO.P,R601,1*%
%TO.N,Net-(D601-A)*%
X15355000Y-1950000D03*
%TO.P,R601,2*%
%TO.N,+3V3*%
X16375000Y-1950000D03*
%TD*%
D14*
%TO.P,D502,1,K*%
%TO.N,Net-(D501-A)*%
X9825000Y10200000D03*
%TO.P,D502,2,A*%
%TO.N,Net-(D502-A)*%
X9825000Y8100000D03*
%TD*%
D15*
%TO.P,U302,1,D*%
%TO.N,/mcu/CAN_TX*%
X-1925000Y-6140000D03*
%TO.P,U302,2,GND*%
%TO.N,GND*%
X-1925000Y-7410000D03*
%TO.P,U302,3,VCC*%
%TO.N,+3V3*%
X-1925000Y-8680000D03*
%TO.P,U302,4,R*%
%TO.N,/mcu/CAN_RX*%
X-1925000Y-9950000D03*
%TO.P,U302,5,Vref*%
%TO.N,unconnected-(U302-Vref-Pad5)*%
X3025000Y-9950000D03*
%TO.P,U302,6,CANL*%
%TO.N,/mcu/CANL*%
X3025000Y-8680000D03*
%TO.P,U302,7,CANH*%
%TO.N,/mcu/CANH*%
X3025000Y-7410000D03*
%TO.P,U302,8,Rs*%
%TO.N,GND*%
X3025000Y-6140000D03*
%TD*%
D14*
%TO.P,D501,1,K*%
%TO.N,Vmot*%
X7800000Y10500000D03*
%TO.P,D501,2,A*%
%TO.N,Net-(D501-A)*%
X7800000Y8400000D03*
%TD*%
D16*
%TO.P,R101,1*%
%TO.N,GND*%
X-4175000Y-11385000D03*
%TO.P,R101,2*%
%TO.N,/usb/UCPD_CC2*%
X-4175000Y-10365000D03*
%TD*%
D13*
%TO.P,R103,1*%
%TO.N,/mcu/CANL*%
X5365000Y-3000000D03*
%TO.P,R103,2*%
%TO.N,Net-(JP101-B)*%
X6385000Y-3000000D03*
%TD*%
D17*
%TO.P,R302,1*%
%TO.N,Net-(U301-PB11)*%
X-10989376Y-3964376D03*
%TO.P,R302,2*%
%TO.N,Net-(D302-A)*%
X-11710624Y-4685624D03*
%TD*%
D18*
%TO.P,C304,1*%
%TO.N,+3V3*%
X-5114062Y570640D03*
%TO.P,C304,2*%
%TO.N,GND*%
X-4435240Y1249462D03*
%TD*%
D19*
%TO.P,D101,1,K*%
%TO.N,Vmot*%
X15600000Y4125000D03*
%TO.P,D101,2,A*%
%TO.N,GND*%
X15600000Y125000D03*
%TD*%
D20*
%TO.P,C106,1*%
%TO.N,Vmot*%
X6975000Y-5725000D03*
%TO.P,C106,2*%
%TO.N,GND*%
X5075000Y-5725000D03*
%TD*%
D21*
%TO.P,D601,1,K*%
%TO.N,Net-(D601-K)*%
X13025000Y1337500D03*
%TO.P,D601,2,A*%
%TO.N,Net-(D601-A)*%
X13025000Y-237500D03*
%TD*%
D22*
%TO.P,D301,1,K*%
%TO.N,GND*%
X-16025000Y-6375000D03*
%TO.P,D301,2,A*%
%TO.N,Net-(D301-A)*%
X-14450000Y-6375000D03*
%TD*%
D23*
%TO.P,L501,1*%
%TO.N,Net-(U501-LX)*%
X13125000Y-7550000D03*
%TO.P,L501,2*%
%TO.N,+3V3*%
X15925000Y-7550000D03*
%TD*%
D24*
%TO.P,C305,1*%
%TO.N,/mcu/XIN*%
X-15750000Y9055000D03*
%TO.P,C305,2*%
%TO.N,GND*%
X-16428822Y8376178D03*
%TD*%
D25*
%TO.P,C701,1*%
%TO.N,/current sense/U_SENSE*%
X-5700000Y6500000D03*
%TO.P,C701,2*%
%TO.N,GNDA*%
X-6660000Y6500000D03*
%TD*%
D18*
%TO.P,C308,1*%
%TO.N,/mcu/RESET*%
X-11675000Y8650000D03*
%TO.P,C308,2*%
%TO.N,GND*%
X-10996178Y9328822D03*
%TD*%
D24*
%TO.P,C307,1*%
%TO.N,Net-(U301-VREF+)*%
X-13185589Y-1760589D03*
%TO.P,C307,2*%
%TO.N,GND*%
X-13864411Y-2439411D03*
%TD*%
D26*
%TO.P,U201,1,IO1*%
%TO.N,/mcu/USBD_P*%
X-4450000Y-5362500D03*
%TO.P,U201,2,VN*%
%TO.N,GND*%
X-5400000Y-5362500D03*
%TO.P,U201,3,IO2*%
%TO.N,/mcu/USBD_N*%
X-6350000Y-5362500D03*
%TO.P,U201,4,IO3*%
X-6350000Y-7637500D03*
%TO.P,U201,5,VP*%
%TO.N,/usb/USB_5V*%
X-5400000Y-7637500D03*
%TO.P,U201,6,IO4*%
%TO.N,/mcu/USBD_P*%
X-4450000Y-7637500D03*
%TD*%
D27*
%TO.P,U703,1,IP+*%
%TO.N,/current sense/W_IN*%
X750000Y8500000D03*
%TO.P,U703,2,IP-*%
%TO.N,/current sense/W_OUT*%
X750000Y9500000D03*
D28*
%TO.P,U703,5,GND*%
%TO.N,GNDA*%
X-750000Y10450000D03*
%TO.P,U703,6,#FAULT*%
%TO.N,unconnected-(U703-#FAULT-Pad6)*%
X-1250000Y10450000D03*
D29*
%TO.P,U703,7,NC*%
%TO.N,GNDA*%
X-1950000Y9750000D03*
%TO.P,U703,8,NC*%
X-1950000Y9250000D03*
%TO.P,U703,9,NC*%
X-1950000Y8750000D03*
%TO.P,U703,10,NC*%
X-1950000Y8250000D03*
D28*
%TO.P,U703,11,VIOUT*%
%TO.N,/current sense/W_SENSE*%
X-1250000Y7550000D03*
%TO.P,U703,12,VCC*%
%TO.N,+3V3*%
X-750000Y7550000D03*
%TD*%
D24*
%TO.P,C302,1*%
%TO.N,+3V3*%
X-11685589Y-3260589D03*
%TO.P,C302,2*%
%TO.N,GND*%
X-12364411Y-3939411D03*
%TD*%
D30*
%TO.P,C602,1*%
%TO.N,Net-(D603-K)*%
X11000000Y-3270000D03*
%TO.P,C602,2*%
%TO.N,Vmot*%
X11000000Y-4230000D03*
%TD*%
D31*
%TO.P,FID102,*%
%TO.N,*%
X-16050000Y-9800000D03*
%TD*%
D25*
%TO.P,C401,1*%
%TO.N,+3V3*%
X2080000Y4025000D03*
%TO.P,C401,2*%
%TO.N,GND*%
X1120000Y4025000D03*
%TD*%
D22*
%TO.P,D302,1,K*%
%TO.N,GND*%
X-16025000Y-8025000D03*
%TO.P,D302,2,A*%
%TO.N,Net-(D302-A)*%
X-14450000Y-8025000D03*
%TD*%
D16*
%TO.P,R102,1*%
%TO.N,/usb/UCPD_CC1*%
X-7650000Y-5885000D03*
%TO.P,R102,2*%
%TO.N,GND*%
X-7650000Y-4865000D03*
%TD*%
D13*
%TO.P,R105,1*%
%TO.N,/mcu/STEP*%
X3415000Y-4075000D03*
%TO.P,R105,2*%
%TO.N,/mcu/CANH*%
X4435000Y-4075000D03*
%TD*%
D32*
%TO.P,C503,1*%
%TO.N,+3V3*%
X15825000Y-5150000D03*
%TO.P,C503,2*%
%TO.N,GND*%
X15825000Y-3250000D03*
%TD*%
D33*
%TO.P,R501,1*%
%TO.N,+3V3*%
X11400000Y-9360000D03*
%TO.P,R501,2*%
%TO.N,Net-(U501-FB{slash}VOUT)*%
X10380000Y-9360000D03*
%TD*%
%TO.P,R301,1*%
%TO.N,Net-(U301-PB10)*%
X-15290000Y-5050000D03*
%TO.P,R301,2*%
%TO.N,Net-(D301-A)*%
X-16310000Y-5050000D03*
%TD*%
D25*
%TO.P,C201,1*%
%TO.N,/mcu/USBD_N*%
X-6120000Y-3900000D03*
%TO.P,C201,2*%
%TO.N,GND*%
X-7080000Y-3900000D03*
%TD*%
D20*
%TO.P,C102,1*%
%TO.N,Vmot*%
X-7325000Y14225000D03*
%TO.P,C102,2*%
%TO.N,GND*%
X-9225000Y14225000D03*
%TD*%
D10*
%TO.P,C101,1*%
%TO.N,GND*%
X-9225000Y16250000D03*
%TO.P,C101,2*%
%TO.N,Vmot*%
X-7325000Y16250000D03*
%TD*%
D34*
%TO.P,J201,*%
%TO.N,*%
X-11891366Y-6598979D03*
D35*
%TO.P,J201,A1,GND*%
%TO.N,GND*%
X-10597361Y-6719187D03*
%TO.P,J201,A2*%
%TO.N,N/C*%
X-10243808Y-7072740D03*
%TO.P,J201,A3*%
X-9890254Y-7426294D03*
%TO.P,J201,A4,VBUS*%
%TO.N,/usb/USB_5V*%
X-9536701Y-7779847D03*
%TO.P,J201,A5,CC1*%
%TO.N,/usb/UCPD_CC1*%
X-9183147Y-8133400D03*
%TO.P,J201,A6,D+*%
%TO.N,/mcu/USBD_P*%
X-8829594Y-8486954D03*
%TO.P,J201,A7,D-*%
%TO.N,/mcu/USBD_N*%
X-8476041Y-8840507D03*
%TO.P,J201,A8,SBU1*%
%TO.N,unconnected-(J201-SBU1-PadA8)*%
X-8122487Y-9194060D03*
%TO.P,J201,A9,VBUS*%
%TO.N,/usb/USB_5V*%
X-7768934Y-9547614D03*
%TO.P,J201,A10*%
%TO.N,N/C*%
X-7415381Y-9901167D03*
%TO.P,J201,A11*%
X-7061827Y-10254721D03*
%TO.P,J201,A12,GND*%
%TO.N,GND*%
X-6708274Y-10608274D03*
%TO.P,J201,B1,GND*%
X-7875000Y-11775000D03*
%TO.P,J201,B2*%
%TO.N,N/C*%
X-8228553Y-11421447D03*
%TO.P,J201,B3*%
X-8582107Y-11067893D03*
%TO.P,J201,B4,VBUS*%
%TO.N,/usb/USB_5V*%
X-8935660Y-10714340D03*
%TO.P,J201,B5,CC2*%
%TO.N,/usb/UCPD_CC2*%
X-9289213Y-10360787D03*
%TO.P,J201,B6,D+*%
%TO.N,/mcu/USBD_P*%
X-9642767Y-10007233D03*
%TO.P,J201,B7,D-*%
%TO.N,/mcu/USBD_N*%
X-9996320Y-9653680D03*
%TO.P,J201,B8,SBU2*%
%TO.N,unconnected-(J201-SBU2-PadB8)*%
X-10349874Y-9300126D03*
%TO.P,J201,B9,VBUS*%
%TO.N,/usb/USB_5V*%
X-10703427Y-8946573D03*
%TO.P,J201,B10*%
%TO.N,N/C*%
X-11056980Y-8593020D03*
%TO.P,J201,B11*%
X-11410534Y-8239466D03*
%TO.P,J201,B12,GND*%
%TO.N,GND*%
X-11764087Y-7885913D03*
D36*
%TO.P,J201,S1,SHIELD*%
X-9416493Y-6033293D03*
X-12457052Y-9073852D03*
X-6022380Y-9427406D03*
X-9062939Y-12467965D03*
%TD*%
D25*
%TO.P,C703,1*%
%TO.N,/current sense/W_SENSE*%
X-1000000Y6461143D03*
%TO.P,C703,2*%
%TO.N,GNDA*%
X-1960000Y6461143D03*
%TD*%
D37*
%TO.P,C202,1*%
%TO.N,/mcu/USBD_P*%
X-5080000Y-3900000D03*
%TO.P,C202,2*%
%TO.N,GND*%
X-4120000Y-3900000D03*
%TD*%
D24*
%TO.P,C301,1*%
%TO.N,Net-(U301-VREF+)*%
X-13860589Y-1085589D03*
%TO.P,C301,2*%
%TO.N,GND*%
X-14539411Y-1764411D03*
%TD*%
D38*
%TO.P,M101,1*%
%TO.N,/current sense/U_OUT*%
X-3700000Y16775000D03*
D39*
X-3700000Y14900000D03*
D40*
X-3700000Y14650000D03*
D41*
X-3700000Y12150000D03*
D38*
%TO.P,M101,2,-*%
%TO.N,/current sense/W_OUT*%
X-1200000Y16775000D03*
D39*
X-1200000Y14900000D03*
D40*
X-1200000Y14650000D03*
D41*
X-1200000Y12150000D03*
D38*
%TO.P,M101,3*%
%TO.N,/half bridges/OUT1B*%
X1300000Y16775000D03*
D39*
X1300000Y14900000D03*
D40*
X1300000Y14650000D03*
D41*
X1300000Y12150000D03*
D38*
%TO.P,M101,4*%
%TO.N,/current sense/V_OUT*%
X3800000Y16775000D03*
D39*
X3800000Y14900000D03*
D40*
X3800000Y14650000D03*
D41*
X3800000Y12150000D03*
%TD*%
D42*
%TO.P,R502,1*%
%TO.N,Net-(U501-FB{slash}VOUT)*%
X9365000Y-9300000D03*
%TO.P,R502,2*%
%TO.N,Net-(R502-Pad2)*%
X9365000Y-10320000D03*
%TD*%
D43*
%TO.P,U601,1,GND*%
%TO.N,GND*%
X10641564Y3216690D03*
%TO.P,U601,2,NC*%
X10288011Y3570244D03*
%TO.P,U601,3,NC*%
X9934457Y3923797D03*
%TO.P,U601,4,NC*%
X9580904Y4277351D03*
%TO.P,U601,5,NC*%
X9227351Y4630904D03*
%TO.P,U601,6,NC*%
X8873797Y4984457D03*
%TO.P,U601,7,NC*%
X8520244Y5338011D03*
%TO.P,U601,8,NC*%
X8166690Y5691564D03*
D44*
%TO.P,U601,9,OUT1B*%
%TO.N,/half bridges/OUT1B*%
X7233310Y5691564D03*
%TO.P,U601,10,NC*%
%TO.N,GND*%
X6879756Y5338011D03*
%TO.P,U601,11,OCDB*%
%TO.N,Net-(D601-K)*%
X6526203Y4984457D03*
%TO.P,U601,12,SENSEB*%
%TO.N,GND*%
X6172649Y4630904D03*
%TO.P,U601,13,IN1B*%
%TO.N,/half bridges/IN1B*%
X5819096Y4277351D03*
%TO.P,U601,14,IN2B*%
%TO.N,/half bridges/IN2B*%
X5465543Y3923797D03*
%TO.P,U601,15,PROGCLB*%
%TO.N,GND*%
X5111989Y3570244D03*
%TO.P,U601,16,ENB*%
%TO.N,/half bridges/ENA*%
X4758436Y3216690D03*
D43*
%TO.P,U601,17,VBOOT*%
%TO.N,Net-(D603-K)*%
X4758436Y2283310D03*
%TO.P,U601,18,NC*%
%TO.N,GND*%
X5111989Y1929756D03*
%TO.P,U601,19,OUT2B*%
%TO.N,/current sense/W_IN*%
X5465543Y1576203D03*
%TO.P,U601,20,VSB*%
%TO.N,Vmot*%
X5819096Y1222649D03*
%TO.P,U601,21,GND*%
%TO.N,GND*%
X6172649Y869096D03*
%TO.P,U601,22,VSA*%
%TO.N,Vmot*%
X6526203Y515543D03*
%TO.P,U601,23,OUT2A*%
%TO.N,/current sense/U_IN*%
X6879756Y161989D03*
%TO.P,U601,24,VCP*%
%TO.N,Net-(U601-VCP)*%
X7233310Y-191564D03*
D44*
%TO.P,U601,25,ENA*%
%TO.N,/half bridges/ENA*%
X8166690Y-191564D03*
%TO.P,U601,26,PROGCLA*%
%TO.N,GND*%
X8520244Y161989D03*
%TO.P,U601,27,IN1A*%
%TO.N,/half bridges/IN1A*%
X8873797Y515543D03*
%TO.P,U601,28,IN2A*%
%TO.N,/half bridges/IN2A*%
X9227351Y869096D03*
%TO.P,U601,29,SENSEA*%
%TO.N,GND*%
X9580904Y1222649D03*
%TO.P,U601,30,OCDA*%
%TO.N,Net-(D601-K)*%
X9934457Y1576203D03*
%TO.P,U601,31,OUT1A*%
%TO.N,/current sense/V_IN*%
X10288011Y1929756D03*
%TO.P,U601,32,NC*%
%TO.N,GND*%
X10641564Y2283310D03*
D45*
%TO.P,U601,33,EP*%
X7700000Y2750000D03*
%TD*%
D25*
%TO.P,C601,1*%
%TO.N,Net-(D602-K)*%
X13305000Y-1450000D03*
%TO.P,C601,2*%
%TO.N,Net-(U601-VCP)*%
X12345000Y-1450000D03*
%TD*%
D46*
%TO.P,U501,1,VIN*%
%TO.N,Vmot*%
X8335000Y-6910000D03*
%TO.P,U501,2,EN/UVLO*%
X8335000Y-7410000D03*
%TO.P,U501,3,VCC*%
%TO.N,Net-(U501-VCC)*%
X8335000Y-7910000D03*
%TO.P,U501,4,FB/VOUT*%
%TO.N,Net-(U501-FB{slash}VOUT)*%
X8335000Y-8410000D03*
%TO.P,U501,5,MODE*%
%TO.N,GND*%
X10095000Y-8410000D03*
%TO.P,U501,6,~{RESET}*%
%TO.N,unconnected-(U501-~{RESET}-Pad6)*%
X10095000Y-7910000D03*
%TO.P,U501,7,GND*%
%TO.N,GND*%
X10095000Y-7410000D03*
%TO.P,U501,8,LX*%
%TO.N,Net-(U501-LX)*%
X10095000Y-6910000D03*
%TD*%
D47*
%TO.P,U301,1,VBAT*%
%TO.N,unconnected-(U301-VBAT-Pad1)*%
X-10835787Y6310274D03*
%TO.P,U301,2,PC13*%
%TO.N,unconnected-(U301-PC13-Pad2)*%
X-11189340Y5956721D03*
%TO.P,U301,3,PC14*%
%TO.N,unconnected-(U301-PC14-Pad3)*%
X-11542894Y5603167D03*
%TO.P,U301,4,PC15*%
%TO.N,unconnected-(U301-PC15-Pad4)*%
X-11896447Y5249614D03*
%TO.P,U301,5,PF0*%
%TO.N,/mcu/XIN*%
X-12250000Y4896061D03*
%TO.P,U301,6,PF1*%
%TO.N,/mcu/XOUT*%
X-12603554Y4542507D03*
%TO.P,U301,7,PG10*%
%TO.N,/mcu/RESET*%
X-12957107Y4188954D03*
%TO.P,U301,8,PA0*%
%TO.N,/half bridges/IN1B*%
X-13310661Y3835400D03*
%TO.P,U301,9,PA1*%
%TO.N,/half bridges/IN2B*%
X-13664214Y3481847D03*
%TO.P,U301,10,PA2*%
%TO.N,/mcu/ADC1_IN12*%
X-14017767Y3128294D03*
%TO.P,U301,11,PA3*%
%TO.N,/current sense/U_SENSE*%
X-14371321Y2774740D03*
%TO.P,U301,12,PA4*%
%TO.N,/encoder/CAL_EN*%
X-14724874Y2421187D03*
D48*
%TO.P,U301,13,PA5*%
%TO.N,/encoder/SCK*%
X-14724874Y1448915D03*
%TO.P,U301,14,PA6*%
%TO.N,/encoder/CIPO*%
X-14371321Y1095362D03*
%TO.P,U301,15,PA7*%
%TO.N,/encoder/COPI*%
X-14017767Y741808D03*
%TO.P,U301,16,PC4*%
%TO.N,/encoder/CS*%
X-13664214Y388255D03*
%TO.P,U301,17,PB0*%
%TO.N,/current sense/W_SENSE*%
X-13310661Y34702D03*
%TO.P,U301,18,PB1*%
%TO.N,unconnected-(U301-PB1-Pad18)*%
X-12957107Y-318852D03*
%TO.P,U301,19,PB2*%
%TO.N,unconnected-(U301-PB2-Pad19)*%
X-12603554Y-672405D03*
%TO.P,U301,20,VREF+*%
%TO.N,Net-(U301-VREF+)*%
X-12250000Y-1025959D03*
%TO.P,U301,21,VDDA*%
%TO.N,+3V3*%
X-11896447Y-1379512D03*
%TO.P,U301,22,PB10*%
%TO.N,Net-(U301-PB10)*%
X-11542894Y-1733065D03*
%TO.P,U301,23,VDD*%
%TO.N,+3V3*%
X-11189340Y-2086619D03*
%TO.P,U301,24,PB11*%
%TO.N,Net-(U301-PB11)*%
X-10835787Y-2440172D03*
D47*
%TO.P,U301,25,PB12*%
%TO.N,/half bridges/ENA*%
X-9863515Y-2440172D03*
%TO.P,U301,26,PB13*%
%TO.N,/current sense/V_SENSE*%
X-9509962Y-2086619D03*
%TO.P,U301,27,PB14*%
%TO.N,unconnected-(U301-PB14-Pad27)*%
X-9156408Y-1733065D03*
%TO.P,U301,28,PB15*%
%TO.N,unconnected-(U301-PB15-Pad28)*%
X-8802855Y-1379512D03*
%TO.P,U301,29,PC6*%
%TO.N,unconnected-(U301-PC6-Pad29)*%
X-8449302Y-1025959D03*
%TO.P,U301,30,PA8*%
%TO.N,/mcu/DIR*%
X-8095748Y-672405D03*
%TO.P,U301,31,PA9*%
%TO.N,/half bridges/IN1A*%
X-7742195Y-318852D03*
%TO.P,U301,32,PA10*%
%TO.N,/half bridges/IN2A*%
X-7388641Y34702D03*
%TO.P,U301,33,PA11*%
%TO.N,/mcu/USBD_N*%
X-7035088Y388255D03*
%TO.P,U301,34,PA12*%
%TO.N,/mcu/USBD_P*%
X-6681535Y741808D03*
%TO.P,U301,35,VDD*%
%TO.N,+3V3*%
X-6327981Y1095362D03*
%TO.P,U301,36,PA13*%
%TO.N,/mcu/SWDIO*%
X-5974428Y1448915D03*
D48*
%TO.P,U301,37,PA14*%
%TO.N,/mcu/SWCLK*%
X-5974428Y2421187D03*
%TO.P,U301,38,PA15*%
%TO.N,unconnected-(U301-PA15-Pad38)*%
X-6327981Y2774740D03*
%TO.P,U301,39,PC10*%
%TO.N,unconnected-(U301-PC10-Pad39)*%
X-6681535Y3128294D03*
%TO.P,U301,40,PC11*%
%TO.N,/mcu/STEP*%
X-7035088Y3481847D03*
%TO.P,U301,41,PB3*%
%TO.N,/encoder/Z*%
X-7388641Y3835400D03*
%TO.P,U301,42,PB4*%
%TO.N,/encoder/A*%
X-7742195Y4188954D03*
%TO.P,U301,43,PB5*%
%TO.N,/encoder/B*%
X-8095748Y4542507D03*
%TO.P,U301,44,PB6*%
%TO.N,unconnected-(U301-PB6-Pad44)*%
X-8449302Y4896061D03*
%TO.P,U301,45,PB7*%
%TO.N,unconnected-(U301-PB7-Pad45)*%
X-8802855Y5249614D03*
%TO.P,U301,46,PB8*%
%TO.N,/mcu/CAN_TX*%
X-9156408Y5603167D03*
%TO.P,U301,47,PB9*%
%TO.N,/mcu/CAN_RX*%
X-9509962Y5956721D03*
%TO.P,U301,48,VDD*%
%TO.N,+3V3*%
X-9863515Y6310274D03*
D49*
%TO.P,U301,49,VSS*%
%TO.N,GND*%
X-10349651Y1935051D03*
%TD*%
D33*
%TO.P,R303,1*%
%TO.N,Vmot*%
X-7740000Y10575000D03*
%TO.P,R303,2*%
%TO.N,/mcu/ADC1_IN12*%
X-8760000Y10575000D03*
%TD*%
D42*
%TO.P,R503,1*%
%TO.N,Net-(R502-Pad2)*%
X8290000Y-9300000D03*
%TO.P,R503,2*%
%TO.N,GND*%
X8290000Y-10320000D03*
%TD*%
D50*
%TO.P,H101,1,1*%
%TO.N,GND*%
X-13000000Y-13000000D03*
X13000000Y-13000000D03*
X-13000000Y13000000D03*
X13000000Y13000000D03*
%TD*%
D10*
%TO.P,C104,1*%
%TO.N,Vmot*%
X7425000Y16250000D03*
%TO.P,C104,2*%
%TO.N,GND*%
X9325000Y16250000D03*
%TD*%
D27*
%TO.P,U702,1,IP+*%
%TO.N,/current sense/V_IN*%
X6000000Y8500000D03*
%TO.P,U702,2,IP-*%
%TO.N,/current sense/V_OUT*%
X6000000Y9500000D03*
D28*
%TO.P,U702,5,GND*%
%TO.N,GNDA*%
X4500000Y10450000D03*
%TO.P,U702,6,#FAULT*%
%TO.N,unconnected-(U702-#FAULT-Pad6)*%
X4000000Y10450000D03*
D29*
%TO.P,U702,7,NC*%
%TO.N,GNDA*%
X3300000Y9750000D03*
%TO.P,U702,8,NC*%
X3300000Y9250000D03*
%TO.P,U702,9,NC*%
X3300000Y8750000D03*
%TO.P,U702,10,NC*%
X3300000Y8250000D03*
D28*
%TO.P,U702,11,VIOUT*%
%TO.N,/current sense/V_SENSE*%
X4000000Y7550000D03*
%TO.P,U702,12,VCC*%
%TO.N,+3V3*%
X4500000Y7550000D03*
%TD*%
D25*
%TO.P,C702,1*%
%TO.N,/current sense/V_SENSE*%
X4280000Y6475000D03*
%TO.P,C702,2*%
%TO.N,GNDA*%
X3320000Y6475000D03*
%TD*%
D20*
%TO.P,C105,1*%
%TO.N,GND*%
X9325000Y12175000D03*
%TO.P,C105,2*%
%TO.N,Vmot*%
X7425000Y12175000D03*
%TD*%
D13*
%TO.P,R505,1*%
%TO.N,Net-(D502-A)*%
X9340000Y7000000D03*
%TO.P,R505,2*%
%TO.N,Net-(Q501-B)*%
X10360000Y7000000D03*
%TD*%
D51*
%TO.P,C303,1*%
%TO.N,+3V3*%
X-8946178Y7221178D03*
%TO.P,C303,2*%
%TO.N,GND*%
X-9625000Y7900000D03*
%TD*%
D52*
%TO.P,Y301,1,1*%
%TO.N,/mcu/XIN*%
X-14300000Y8455000D03*
%TO.P,Y301,2,2*%
%TO.N,GND*%
X-15855635Y6899365D03*
%TO.P,Y301,3,3*%
%TO.N,/mcu/XOUT*%
X-14653554Y5697284D03*
%TO.P,Y301,4,4*%
%TO.N,GND*%
X-13097919Y7252919D03*
%TD*%
D31*
%TO.P,FID101,*%
%TO.N,*%
X-16400000Y10775000D03*
%TD*%
D53*
%TO.P,D602,1,K*%
%TO.N,Net-(D602-K)*%
X14200000Y-4925000D03*
%TO.P,D602,2,A*%
%TO.N,Vmot*%
X12100000Y-4925000D03*
%TD*%
D33*
%TO.P,R304,1*%
%TO.N,/mcu/ADC1_IN12*%
X-7740000Y9500000D03*
%TO.P,R304,2*%
%TO.N,GND*%
X-8760000Y9500000D03*
%TD*%
D54*
%TO.P,J101,1,Pin_1*%
%TO.N,Vmot*%
X7225000Y-14725000D03*
D55*
%TO.P,J101,2,Pin_2*%
%TO.N,GND*%
X4725000Y-14725000D03*
%TO.P,J101,3,Pin_3*%
%TO.N,/mcu/CANL*%
X2225000Y-14725000D03*
%TO.P,J101,4,Pin_4*%
%TO.N,/mcu/CANH*%
X-275000Y-14725000D03*
%TD*%
D56*
%TO.P,U401,1,U*%
%TO.N,unconnected-(U401-U-Pad1)*%
X-2275000Y-2775000D03*
%TO.P,U401,2,V*%
%TO.N,unconnected-(U401-V-Pad2)*%
X-1625000Y-2775000D03*
%TO.P,U401,3,W*%
%TO.N,unconnected-(U401-W-Pad3)*%
X-975000Y-2775000D03*
%TO.P,U401,4,CAL_EN*%
%TO.N,/encoder/CAL_EN*%
X-325000Y-2775000D03*
%TO.P,U401,5,MISO*%
%TO.N,/encoder/CIPO*%
X325000Y-2775000D03*
%TO.P,U401,6,MOSI*%
%TO.N,/encoder/COPI*%
X975000Y-2775000D03*
%TO.P,U401,7,SCK*%
%TO.N,/encoder/SCK*%
X1625000Y-2775000D03*
%TO.P,U401,8,CSN*%
%TO.N,/encoder/CS*%
X2275000Y-2775000D03*
%TO.P,U401,9,VDD*%
%TO.N,+3V3*%
X2275000Y2775000D03*
%TO.P,U401,10,PWM_OUT*%
%TO.N,unconnected-(U401-PWM_OUT-Pad10)*%
X1625000Y2775000D03*
%TO.P,U401,11,TEST*%
%TO.N,GND*%
X975000Y2775000D03*
%TO.P,U401,12,VSS*%
X325000Y2775000D03*
%TO.P,U401,13,TEST_EN*%
X-325000Y2775000D03*
%TO.P,U401,14,Z*%
%TO.N,/encoder/Z*%
X-975000Y2775000D03*
%TO.P,U401,15,B*%
%TO.N,/encoder/B*%
X-1625000Y2775000D03*
%TO.P,U401,16,A*%
%TO.N,/encoder/A*%
X-2275000Y2775000D03*
%TD*%
D33*
%TO.P,R401,1*%
%TO.N,+3V3*%
X-15290000Y-4000000D03*
%TO.P,R401,2*%
%TO.N,/encoder/CS*%
X-16310000Y-4000000D03*
%TD*%
D31*
%TO.P,FID103,*%
%TO.N,*%
X16200000Y10325000D03*
%TD*%
D20*
%TO.P,C108,1*%
%TO.N,Vmot*%
X6975000Y-7750000D03*
%TO.P,C108,2*%
%TO.N,GND*%
X5075000Y-7750000D03*
%TD*%
D57*
%TO.P,C502,1*%
%TO.N,Net-(U501-VCC)*%
X11500000Y-8255000D03*
%TO.P,C502,2*%
%TO.N,GND*%
X11500000Y-7295000D03*
%TD*%
D58*
%TO.P,D603,1,K*%
%TO.N,Net-(D603-K)*%
X12100000Y-2925000D03*
%TO.P,D603,2,A*%
%TO.N,Net-(D602-K)*%
X14200000Y-2925000D03*
%TD*%
D20*
%TO.P,C501,1*%
%TO.N,Vmot*%
X6975000Y-9775000D03*
%TO.P,C501,2*%
%TO.N,GND*%
X5075000Y-9775000D03*
%TD*%
D13*
%TO.P,JP101,1,A*%
%TO.N,/mcu/CANH*%
X5365000Y-4075000D03*
%TO.P,JP101,2,B*%
%TO.N,Net-(JP101-B)*%
X6385000Y-4075000D03*
%TD*%
D59*
%TO.P,R306,1*%
%TO.N,+3V3*%
X-10985624Y7914376D03*
%TO.P,R306,2*%
%TO.N,/mcu/RESET*%
X-10264376Y8635624D03*
%TD*%
D33*
%TO.P,R104,1*%
%TO.N,/mcu/CANL*%
X4435000Y-3000000D03*
%TO.P,R104,2*%
%TO.N,/mcu/DIR*%
X3415000Y-3000000D03*
%TD*%
D60*
%TO.P,R504,1*%
%TO.N,Vmot*%
X15500000Y7100000D03*
%TO.P,R504,2*%
%TO.N,Net-(Q501-C)*%
X15500000Y8750000D03*
%TD*%
D51*
%TO.P,C306,1*%
%TO.N,/mcu/XOUT*%
X-15460589Y4310589D03*
%TO.P,C306,2*%
%TO.N,GND*%
X-16139411Y4989411D03*
%TD*%
D20*
%TO.P,C107,1*%
%TO.N,GND*%
X9325000Y14225000D03*
%TO.P,C107,2*%
%TO.N,Vmot*%
X7425000Y14225000D03*
%TD*%
D27*
%TO.P,U701,1,IP+*%
%TO.N,/current sense/U_IN*%
X-3950000Y8550000D03*
%TO.P,U701,2,IP-*%
%TO.N,/current sense/U_OUT*%
X-3950000Y9550000D03*
D28*
%TO.P,U701,5,GND*%
%TO.N,GNDA*%
X-5450000Y10500000D03*
%TO.P,U701,6,#FAULT*%
%TO.N,unconnected-(U701-#FAULT-Pad6)*%
X-5950000Y10500000D03*
D29*
%TO.P,U701,7,NC*%
%TO.N,GNDA*%
X-6650000Y9800000D03*
%TO.P,U701,8,NC*%
X-6650000Y9300000D03*
%TO.P,U701,9,NC*%
X-6650000Y8800000D03*
%TO.P,U701,10,NC*%
X-6650000Y8300000D03*
D28*
%TO.P,U701,11,VIOUT*%
%TO.N,/current sense/U_SENSE*%
X-5950000Y7600000D03*
%TO.P,U701,12,VCC*%
%TO.N,+3V3*%
X-5450000Y7600000D03*
%TD*%
D61*
%TO.N,/mcu/ADC1_IN12*%
X-7525000Y8325000D03*
X-14850000Y3675000D03*
D62*
%TO.N,GND*%
X7675000Y2750000D03*
X-14875000Y-2675000D03*
X-4389562Y-226525D03*
X-2375000Y-14600000D03*
X15825000Y-3275000D03*
X-10375000Y675000D03*
X7675000Y1725000D03*
X13625000Y6600000D03*
X-9125000Y1975000D03*
X-10375000Y1950000D03*
X6075000Y7175000D03*
X-10375000Y3150000D03*
X13650000Y4175000D03*
X-1950000Y-1300000D03*
X-11650000Y1975000D03*
X8675000Y2725000D03*
X13650000Y3025000D03*
X9300000Y-6225000D03*
X1475000Y-6125000D03*
X6625000Y2800000D03*
X-250000Y-6800000D03*
X-5395400Y-6375500D03*
X-2400000Y-16525000D03*
X7700000Y3775000D03*
X2223706Y475843D03*
X13650000Y5375000D03*
%TO.N,Vmot*%
X3900000Y650000D03*
X-6275000Y16250000D03*
X15504152Y7750500D03*
X4550000Y0D03*
X6305664Y12175000D03*
X6275000Y14250000D03*
X9950000Y-3975000D03*
X9025000Y-4375000D03*
X5450000Y175000D03*
X-6250000Y12175000D03*
X-6250000Y14225000D03*
X9850000Y-5000000D03*
X15500000Y5975000D03*
X6250000Y16250000D03*
D61*
%TO.N,/mcu/USBD_P*%
X-8800000Y-9650000D03*
X-9650000Y-8850000D03*
D62*
%TO.N,+3V3*%
X-11533925Y-3208574D03*
X16800000Y-5900000D03*
X500000Y-12150000D03*
X14875000Y-5825000D03*
X4500000Y8875000D03*
X-6250000Y-16625000D03*
X-1700000Y-12150000D03*
X-5450000Y8943221D03*
X14875000Y-6725000D03*
X-625000Y-12150000D03*
X-8625000Y8200000D03*
X-5375500Y-1000000D03*
X-12874972Y-2731439D03*
X-750000Y8891300D03*
X2225000Y1600000D03*
X-2200000Y-11200000D03*
X-1125000Y-11200000D03*
X14875000Y-7625000D03*
X-300000Y-8700000D03*
X14875000Y-8475000D03*
D61*
%TO.N,/mcu/RESET*%
X-16200000Y3775000D03*
X-12100000Y8225000D03*
X-3150000Y-6775000D03*
%TO.N,/current sense/U_SENSE*%
X-7905617Y7797145D03*
X-15300000Y3275000D03*
%TO.N,/current sense/V_SENSE*%
X-4700000Y5275000D03*
X-8900000Y-2475000D03*
X-6950000Y5200000D03*
X5224500Y6500000D03*
%TO.N,/current sense/W_SENSE*%
X-7600000Y5225000D03*
X-5250000Y5700000D03*
X-14675000Y-675000D03*
X-325000Y6475000D03*
D62*
%TO.N,/usb/USB_5V*%
X-10078416Y-11020447D03*
X-11225658Y-9867749D03*
X-7277420Y-8590784D03*
X-4725000Y-8900000D03*
X-8375000Y-7050000D03*
%TO.N,Net-(D603-K)*%
X10000000Y-1725000D03*
X4275000Y2750000D03*
D61*
%TO.N,Net-(D601-K)*%
X5674866Y5213244D03*
X11600000Y425000D03*
%TO.N,/half bridges/ENA*%
X9150000Y-575000D03*
X4225000Y3750000D03*
X-6650000Y-2225000D03*
%TO.N,/encoder/SCK*%
X775000Y-4000000D03*
X-15825000Y1725000D03*
%TO.N,/encoder/CIPO*%
X-15350000Y875000D03*
X-600000Y-4000000D03*
%TO.N,/encoder/COPI*%
X62132Y-4000000D03*
X-15900000Y600000D03*
%TO.N,/encoder/CS*%
X775000Y-4650000D03*
X-14226234Y-173766D03*
%TO.N,/encoder/CAL_EN*%
X-15325000Y-25000D03*
X-1225000Y-3975000D03*
%TO.N,/mcu/CAN_TX*%
X-4925000Y3500000D03*
X-8050000Y5750000D03*
%TO.N,/mcu/CAN_RX*%
X-8525000Y6275000D03*
X-4342158Y3500000D03*
%TO.N,/half bridges/IN2B*%
X4774750Y4275460D03*
X-14425000Y4075000D03*
%TO.N,/half bridges/IN1A*%
X11000000Y450000D03*
X-7200000Y-1075000D03*
%TO.N,/half bridges/IN2A*%
X-6750000Y-525000D03*
X10325000Y450000D03*
%TO.N,/half bridges/IN1B*%
X-13975000Y4500000D03*
X5225000Y4750000D03*
%TO.N,/mcu/DIR*%
X-7223910Y-2251087D03*
X2350000Y-4250000D03*
%TO.N,/mcu/STEP*%
X2325000Y-4850000D03*
X-5550000Y3500000D03*
D62*
%TO.N,GNDA*%
X-1999500Y7475000D03*
X3150000Y7387992D03*
X3475000Y-11825000D03*
X3475000Y-10900000D03*
X-6699500Y7600000D03*
X2325000Y-11850000D03*
%TD*%
D63*
%TO.N,+3V3*%
X16375000Y-1950000D02*
X16575000Y-1950000D01*
X16575000Y-1950000D02*
X17000000Y-2375000D01*
X17000000Y-2375000D02*
X17000000Y-3975000D01*
X17000000Y-3975000D02*
X15825000Y-5150000D01*
D64*
%TO.N,Net-(D602-K)*%
X14200000Y-2925000D02*
X14200000Y-2345000D01*
X14200000Y-2345000D02*
X13305000Y-1450000D01*
%TO.N,Net-(U601-VCP)*%
X12345000Y-1450000D02*
X11945000Y-1050000D01*
X8275000Y-1050000D02*
X7416564Y-191564D01*
X7416564Y-191564D02*
X7233310Y-191564D01*
X11945000Y-1050000D02*
X8275000Y-1050000D01*
D65*
%TO.N,Net-(D601-K)*%
X13025000Y1337500D02*
X12337500Y1337500D01*
X12337500Y1337500D02*
X11875000Y875000D01*
X11875000Y875000D02*
X10635660Y875000D01*
%TO.N,Net-(D601-A)*%
X13025000Y-237500D02*
X14737500Y-1950000D01*
X14737500Y-1950000D02*
X15355000Y-1950000D01*
D63*
%TO.N,GND*%
X15600000Y125000D02*
X15600000Y425000D01*
X15600000Y425000D02*
X13650000Y2375000D01*
X13650000Y2375000D02*
X13650000Y3025000D01*
X-9225000Y12175000D02*
X-9225000Y11600000D01*
X-9225000Y11600000D02*
X-9875000Y10950000D01*
X-9875000Y10950000D02*
X-9875000Y10800000D01*
X-9625000Y7900000D02*
X-9625000Y8254983D01*
X-9625000Y8254983D02*
X-8760000Y9119983D01*
X-8760000Y9119983D02*
X-8760000Y9500000D01*
D65*
%TO.N,/current sense/U_SENSE*%
X-15300000Y3275000D02*
X-15100000Y3075000D01*
X-15100000Y3075000D02*
X-14671581Y3075000D01*
X-14671581Y3075000D02*
X-14371321Y2774740D01*
%TO.N,/mcu/RESET*%
X-14163066Y5000000D02*
X-13768153Y5000000D01*
X-16200000Y3775000D02*
X-15388066Y3775000D01*
X-15388066Y3775000D02*
X-14163066Y5000000D01*
X-13768153Y5000000D02*
X-12957107Y4188954D01*
%TO.N,/mcu/ADC1_IN12*%
X-14017767Y3128294D02*
X-14564473Y3675000D01*
X-14564473Y3675000D02*
X-14850000Y3675000D01*
X-7740000Y8540000D02*
X-7740000Y9500000D01*
X-7525000Y8325000D02*
X-7740000Y8540000D01*
D63*
%TO.N,GND*%
X-13097919Y7252919D02*
X-13000000Y7350838D01*
X-13000000Y7350838D02*
X-13000000Y13000000D01*
D65*
%TO.N,/mcu/RESET*%
X-12100000Y8225000D02*
X-11675000Y8650000D01*
D63*
%TO.N,GND*%
X-15855635Y6899365D02*
X-15855635Y7802991D01*
X-15855635Y7802991D02*
X-16428822Y8376178D01*
D65*
%TO.N,/current sense/U_SENSE*%
X-7905617Y7797145D02*
X-7905617Y6680617D01*
X-6260000Y5940000D02*
X-5700000Y6500000D01*
X-7165000Y5940000D02*
X-6260000Y5940000D01*
X-7905617Y6680617D02*
X-7165000Y5940000D01*
D63*
%TO.N,GND*%
X6275000Y2750000D02*
X7675000Y2750000D01*
X-4389562Y-1839562D02*
X-4703234Y-2153234D01*
X-14539411Y-1764411D02*
X-14539411Y-2339411D01*
X3010000Y-6125000D02*
X3025000Y-6140000D01*
X7675000Y2750000D02*
X7700000Y2750000D01*
X9580904Y1222649D02*
X8053553Y2750000D01*
X7000000Y3803553D02*
X7000000Y3800000D01*
X9300000Y-7099620D02*
X9300000Y-6225000D01*
X8760660Y2750000D02*
X7700000Y2750000D01*
X6172649Y869096D02*
X7700000Y2396447D01*
X1174157Y475843D02*
X325000Y1325000D01*
X7700000Y4150000D02*
X7700000Y2750000D01*
X10579620Y-7410000D02*
X10865000Y-7695380D01*
X7675000Y950000D02*
X7675000Y1007233D01*
X7650000Y4200000D02*
X7700000Y4150000D01*
X1015380Y4025000D02*
X1120000Y4025000D01*
X-13875000Y-7200000D02*
X-15200000Y-7200000D01*
X7003553Y3800000D02*
X7700000Y3103553D01*
X-5800000Y-11875000D02*
X-4665000Y-11875000D01*
X7700000Y1225000D02*
X7700000Y2750000D01*
X-15200000Y-7200000D02*
X-16025000Y-8025000D01*
X2223706Y475843D02*
X1174157Y475843D01*
X-4665000Y-11875000D02*
X-4175000Y-11385000D01*
X8053553Y2750000D02*
X7700000Y2750000D01*
X-11764087Y-7885913D02*
X-12457052Y-8578878D01*
X7000000Y3800000D02*
X7003553Y3800000D01*
X10865000Y-7695380D02*
X10865000Y-7710000D01*
X6879756Y5338011D02*
X7700000Y4517767D01*
X10865000Y-7710000D02*
X11280000Y-7295000D01*
X325000Y2775000D02*
X325000Y3334620D01*
X-4389562Y-226525D02*
X-4250000Y-86963D01*
X7732233Y950000D02*
X7675000Y950000D01*
X-12457052Y-8578878D02*
X-12457052Y-9073852D01*
X9227351Y4630904D02*
X7700000Y3103553D01*
X-3525000Y-16725000D02*
X-3575000Y-16775000D01*
X10640000Y-8410000D02*
X10865000Y-8185000D01*
X10174874Y2750000D02*
X9225000Y2750000D01*
X375000Y2825000D02*
X325000Y2775000D01*
X9175000Y2750000D02*
X7700000Y2750000D01*
X5111989Y1929756D02*
X5932233Y2750000D01*
X325000Y3334620D02*
X1015380Y4025000D01*
X7700000Y4350000D02*
X7700000Y2750000D01*
X9175000Y2750000D02*
X9150000Y2725000D01*
X-12364411Y-3939411D02*
X-13500000Y-5075000D01*
X7700000Y4250000D02*
X7650000Y4200000D01*
X-13500000Y-5075000D02*
X-13500000Y-6825000D01*
X9200000Y2775000D02*
X9175000Y2750000D01*
X-9062939Y-12467965D02*
X-6392965Y-12467965D01*
X-4250000Y-86963D02*
X-4250000Y1064222D01*
X-4703234Y-2153234D02*
X-4703234Y-2996766D01*
X9934457Y3923797D02*
X8760660Y2750000D01*
D65*
X5035000Y-6100000D02*
X5305000Y-6100000D01*
D63*
X10865000Y-8185000D02*
X10865000Y-7710000D01*
X-10597361Y-6719187D02*
X-11764087Y-7885913D01*
X-5857170Y-15967830D02*
X-5857170Y-15581006D01*
X10095000Y-7410000D02*
X9610380Y-7410000D01*
X10095000Y-7410000D02*
X10579620Y-7410000D01*
X-6708274Y-10608274D02*
X-6022380Y-9922380D01*
X8873797Y4984457D02*
X7700000Y3810660D01*
X-4389562Y-226525D02*
X-4389562Y-1839562D01*
X-6392965Y-12467965D02*
X-5800000Y-11875000D01*
X7700000Y982233D02*
X7700000Y1175000D01*
X7675000Y1007233D02*
X7700000Y982233D01*
X8166690Y5691564D02*
X7700000Y5224874D01*
X9580904Y4277351D02*
X8053553Y2750000D01*
X5932233Y2750000D02*
X6275000Y2750000D01*
X-860000Y-7410000D02*
X-1925000Y-7410000D01*
X10641564Y3216690D02*
X10174874Y2750000D01*
X325000Y1325000D02*
X325000Y2775000D01*
X8520244Y161989D02*
X7732233Y950000D01*
X-4703234Y-2996766D02*
X-4120000Y-3580000D01*
X-10597361Y-6719187D02*
X-9911467Y-6033293D01*
X7700000Y3810660D02*
X7700000Y2750000D01*
X9467767Y2750000D02*
X9175000Y2750000D01*
X9610380Y-7410000D02*
X9300000Y-7099620D01*
X-4250000Y1064222D02*
X-4435240Y1249462D01*
X7700000Y5224874D02*
X7700000Y4250000D01*
X-7540000Y-4865000D02*
X-7080000Y-4405000D01*
X7700000Y4517767D02*
X7700000Y4350000D01*
X-7875000Y-11775000D02*
X-8567965Y-12467965D01*
X5075000Y-7750000D02*
X5075000Y-5725000D01*
X8520244Y5338011D02*
X7700000Y4517767D01*
X-14539411Y-2339411D02*
X-14875000Y-2675000D01*
X7675000Y1200000D02*
X7700000Y1225000D01*
X5075000Y-7750000D02*
X5075000Y-9775000D01*
X9225000Y2750000D02*
X9200000Y2775000D01*
X-5400000Y-6370900D02*
X-5400000Y-5362500D01*
X-250000Y-6800000D02*
X-860000Y-7410000D01*
X10641564Y2283310D02*
X10174874Y2750000D01*
X-13864411Y-2439411D02*
X-14539411Y-1764411D01*
X-10996178Y9328822D02*
X-10996178Y9353822D01*
X-5395400Y-6375500D02*
X-5400000Y-6370900D01*
X-13500000Y-6825000D02*
X-13875000Y-7200000D01*
X-7080000Y-4405000D02*
X-7080000Y-3900000D01*
X-8567965Y-12467965D02*
X-9062939Y-12467965D01*
X7700000Y3103553D02*
X7700000Y2750000D01*
X7700000Y2396447D02*
X7700000Y2750000D01*
X10288011Y3570244D02*
X9467767Y2750000D01*
X-3575000Y-16775000D02*
X-5050000Y-16775000D01*
X10095000Y-8410000D02*
X10640000Y-8410000D01*
X-5050000Y-16775000D02*
X-5857170Y-15967830D01*
X6172649Y4630904D02*
X7000000Y3803553D01*
X9125000Y2750000D02*
X7700000Y2750000D01*
X1475000Y-6125000D02*
X3010000Y-6125000D01*
X8290000Y-10320000D02*
X8290000Y-10415000D01*
X-9911467Y-6033293D02*
X-9416493Y-6033293D01*
X11280000Y-7295000D02*
X11500000Y-7295000D01*
X7700000Y1175000D02*
X7675000Y1200000D01*
X5111989Y3570244D02*
X5932233Y2750000D01*
X8290000Y-10415000D02*
X9400000Y-11525000D01*
X9150000Y2725000D02*
X9125000Y2750000D01*
X-6022380Y-9922380D02*
X-6022380Y-9427406D01*
X-4120000Y-3580000D02*
X-4120000Y-3900000D01*
%TO.N,Vmot*%
X6275000Y14250000D02*
X7400000Y14250000D01*
X15504152Y7750500D02*
X15504152Y7104152D01*
X-6250000Y14225000D02*
X-7325000Y14225000D01*
X15600000Y4125000D02*
X15600000Y5875000D01*
X-7325000Y16250000D02*
X-6275000Y16250000D01*
X7800000Y11800000D02*
X7425000Y12175000D01*
X-6250000Y12175000D02*
X-7325000Y12175000D01*
X15500000Y7100000D02*
X15500000Y5975000D01*
X7400000Y14250000D02*
X7425000Y14225000D01*
X-7325000Y12175000D02*
X-7325000Y10990000D01*
X15600000Y5875000D02*
X15500000Y5975000D01*
X7375000Y14250000D02*
X6275000Y14250000D01*
X7800000Y10500000D02*
X7800000Y11800000D01*
X15504152Y7104152D02*
X15500000Y7100000D01*
X7425000Y16250000D02*
X6250000Y16250000D01*
X-7325000Y10990000D02*
X-7740000Y10575000D01*
X6305664Y12175000D02*
X7425000Y12175000D01*
D65*
%TO.N,/mcu/USBD_P*%
X-9642767Y-10007233D02*
X-9310534Y-9675000D01*
X-9217640Y-8875000D02*
X-8829594Y-8486954D01*
X-6039860Y-11264860D02*
X-3875000Y-9100000D01*
X-8621142Y-9650000D02*
X-7006282Y-11264860D01*
X-3875000Y-8212500D02*
X-4450000Y-7637500D01*
X-4450000Y-7637500D02*
X-4450000Y-5362500D01*
X-3875000Y-9100000D02*
X-3875000Y-8212500D01*
X-8800000Y-9650000D02*
X-8621142Y-9650000D01*
X-4450000Y-4975000D02*
X-4450000Y-5362500D01*
X-6681535Y741808D02*
X-6025000Y85273D01*
X-9310534Y-9675000D02*
X-8825000Y-9675000D01*
X-9650000Y-8875000D02*
X-9217640Y-8875000D01*
X-7006282Y-11264860D02*
X-6039860Y-11264860D01*
X-6025000Y85273D02*
X-6025000Y-2955000D01*
X-6025000Y-2955000D02*
X-5080000Y-3900000D01*
X-5080000Y-4345000D02*
X-4450000Y-4975000D01*
X-8825000Y-9675000D02*
X-8775000Y-9625000D01*
X-5080000Y-3900000D02*
X-5080000Y-4345000D01*
D63*
%TO.N,+3V3*%
X15900000Y-7575000D02*
X15925000Y-7550000D01*
X2275000Y1650000D02*
X2225000Y1600000D01*
X-5375500Y-1000000D02*
X-5114062Y-738562D01*
X14875000Y-8700000D02*
X14875000Y-8475000D01*
X-12874972Y-2358037D02*
X-11896447Y-1379512D01*
X15825000Y-6650000D02*
X15900000Y-6725000D01*
X-11633574Y-3208574D02*
X-11685589Y-3260589D01*
X-5803259Y570640D02*
X-5114062Y570640D01*
X-5450000Y8943221D02*
X-5450000Y7600000D01*
X-9392356Y6775000D02*
X-9846248Y6775000D01*
X16600000Y-9725000D02*
X16600000Y-9175000D01*
X-320000Y-8680000D02*
X-300000Y-8700000D01*
X-8946178Y7221178D02*
X-9392356Y6775000D01*
X14215000Y-9360000D02*
X14875000Y-8700000D01*
X-750000Y8891300D02*
X-750000Y7550000D01*
X-12874972Y-2731439D02*
X-14143533Y-4000000D01*
X15825000Y-5150000D02*
X15825000Y-6650000D01*
X-11685589Y-2582868D02*
X-11685589Y-3260589D01*
X4500000Y7550000D02*
X4500000Y8875000D01*
X15900000Y-7600000D02*
X15900000Y-7575000D01*
X-6250000Y-16625000D02*
X-7791164Y-16625000D01*
X-8625000Y7542356D02*
X-8946178Y7221178D01*
X2080000Y4025000D02*
X2225000Y3880000D01*
X15875000Y-7600000D02*
X15900000Y-7600000D01*
X-1925000Y-8680000D02*
X-320000Y-8680000D01*
X16600000Y-9175000D02*
X15875000Y-8450000D01*
X2225000Y3880000D02*
X2225000Y2825000D01*
X-14143533Y-4000000D02*
X-15290000Y-4000000D01*
X-11533925Y-3208574D02*
X-11633574Y-3208574D01*
X-11189340Y-2086619D02*
X-11685589Y-2582868D01*
X2225000Y2825000D02*
X2275000Y2775000D01*
X-5114062Y-738562D02*
X-5114062Y570640D01*
X-7791164Y-16625000D02*
X-8350503Y-16065661D01*
X-8625000Y8200000D02*
X-8625000Y7542356D01*
X-6327981Y1095362D02*
X-5803259Y570640D01*
X-12874972Y-2731439D02*
X-12874972Y-2358037D01*
X2275000Y2775000D02*
X2275000Y1650000D01*
X-9846248Y6775000D02*
X-10985624Y7914376D01*
X-9863515Y6310274D02*
X-9857082Y6310274D01*
X-9857082Y6310274D02*
X-8946178Y7221178D01*
X11400000Y-9360000D02*
X14215000Y-9360000D01*
D65*
%TO.N,/mcu/RESET*%
X-3205000Y-6830000D02*
X-3205000Y-13255000D01*
X-6197881Y-14917378D02*
X-7103836Y-15823333D01*
X-4867378Y-14917378D02*
X-6197881Y-14917378D01*
X-10278752Y8650000D02*
X-10264376Y8635624D01*
X-3205000Y-13255000D02*
X-4867378Y-14917378D01*
X-11675000Y8650000D02*
X-10278752Y8650000D01*
X-3150000Y-6775000D02*
X-3205000Y-6830000D01*
%TO.N,/mcu/XIN*%
X-14300000Y6946061D02*
X-12250000Y4896061D01*
X-15055000Y8455000D02*
X-15655000Y9055000D01*
X-14300000Y8455000D02*
X-14300000Y6946061D01*
X-15655000Y9055000D02*
X-15750000Y9055000D01*
X-14300000Y8455000D02*
X-15055000Y8455000D01*
%TO.N,/mcu/XOUT*%
X-14653554Y5121446D02*
X-14653554Y5697284D01*
X-15460589Y4310589D02*
X-15460589Y4314411D01*
X-15460589Y4314411D02*
X-14653554Y5121446D01*
X-13758331Y5697284D02*
X-12603554Y4542507D01*
X-14653554Y5697284D02*
X-13758331Y5697284D01*
D66*
%TO.N,/current sense/U_IN*%
X-3950000Y7377467D02*
X-3950000Y8550000D01*
X5925000Y-800000D02*
X4050000Y-800000D01*
X-475000Y5750000D02*
X-476143Y5751143D01*
X-476143Y5751143D02*
X-2323676Y5751143D01*
D64*
X6125000Y-600000D02*
X6125000Y-592767D01*
X6125000Y-592767D02*
X6879756Y161989D01*
D66*
X3075000Y4210788D02*
X1535788Y5750000D01*
X3075000Y175000D02*
X3075000Y4210788D01*
X1535788Y5750000D02*
X-475000Y5750000D01*
X4050000Y-800000D02*
X3075000Y175000D01*
X6125000Y-600000D02*
X5925000Y-800000D01*
X-2323676Y5751143D02*
X-3950000Y7377467D01*
%TO.N,/current sense/V_IN*%
X6635000Y8500000D02*
X11900000Y3235000D01*
D64*
X10867767Y1350000D02*
X10925000Y1350000D01*
D66*
X11900000Y3235000D02*
X11900000Y1900000D01*
D64*
X10288011Y1929756D02*
X10867767Y1350000D01*
D66*
X6000000Y8500000D02*
X6635000Y8500000D01*
X11900000Y1900000D02*
X11350000Y1350000D01*
X11350000Y1350000D02*
X10925000Y1350000D01*
%TO.N,/current sense/W_IN*%
X4541536Y1250000D02*
X4625000Y1250000D01*
X3575000Y2216536D02*
X4541536Y1250000D01*
X3575000Y4417894D02*
X3575000Y2216536D01*
X750000Y8500000D02*
X750000Y7242894D01*
D64*
X5465543Y1576203D02*
X5139340Y1250000D01*
X5139340Y1250000D02*
X4625000Y1250000D01*
D66*
X750000Y7242894D02*
X3575000Y4417894D01*
D65*
%TO.N,Net-(U501-VCC)*%
X10970000Y-8785000D02*
X11500000Y-8255000D01*
X9591446Y-8785000D02*
X10970000Y-8785000D01*
X8335000Y-7910000D02*
X8716446Y-7910000D01*
X8716446Y-7910000D02*
X9591446Y-8785000D01*
D64*
%TO.N,Net-(D602-K)*%
X14200000Y-4925000D02*
X14200000Y-2925000D01*
D65*
%TO.N,/current sense/U_SENSE*%
X-5700000Y6500000D02*
X-5925000Y6725000D01*
X-5925000Y7575000D02*
X-5950000Y7600000D01*
X-5925000Y6725000D02*
X-5925000Y7575000D01*
%TO.N,/current sense/V_SENSE*%
X-8900000Y-2475000D02*
X-9121581Y-2475000D01*
X-6875000Y5275000D02*
X-4700000Y5275000D01*
X4280000Y6475000D02*
X4000000Y6755000D01*
X-6950000Y5200000D02*
X-6875000Y5275000D01*
X-9121581Y-2475000D02*
X-9509962Y-2086619D01*
X4000000Y6755000D02*
X4000000Y7550000D01*
X4280000Y6475000D02*
X5199500Y6475000D01*
X5199500Y6475000D02*
X5224500Y6500000D01*
%TO.N,/current sense/W_SENSE*%
X-1250000Y6711143D02*
X-1250000Y7550000D01*
X-13415568Y34702D02*
X-13310661Y34702D01*
X-7150000Y5675000D02*
X-5275000Y5675000D01*
X-5275000Y5675000D02*
X-5250000Y5700000D01*
X-14675000Y-675000D02*
X-14125270Y-675000D01*
X-1000000Y6461143D02*
X-1250000Y6711143D01*
X-706143Y6475000D02*
X-720000Y6461143D01*
X-720000Y6461143D02*
X-1000000Y6461143D01*
X-325000Y6475000D02*
X-706143Y6475000D01*
X-14125270Y-675000D02*
X-13415568Y34702D01*
X-7600000Y5225000D02*
X-7150000Y5675000D01*
D63*
%TO.N,/usb/USB_5V*%
X-7277420Y-8590784D02*
X-7277420Y-9056100D01*
X-9690213Y-11020447D02*
X-9618287Y-11092373D01*
X-5400000Y-8225000D02*
X-5400000Y-7637500D01*
X-10078416Y-11020447D02*
X-9690213Y-11020447D01*
X-4725000Y-8900000D02*
X-5400000Y-8225000D01*
X-8375000Y-7050000D02*
X-8806854Y-7050000D01*
X-8806854Y-7050000D02*
X-9536701Y-7779847D01*
X-11225658Y-9468804D02*
X-10703427Y-8946573D01*
X-11225658Y-9867749D02*
X-11225658Y-9468804D01*
X-7277420Y-9056100D02*
X-7768934Y-9547614D01*
X-9618287Y-11092373D02*
X-9313693Y-11092373D01*
X-9313693Y-11092373D02*
X-8935660Y-10714340D01*
D65*
%TO.N,Net-(D301-A)*%
X-16212500Y-5050000D02*
X-16310000Y-5050000D01*
X-14887500Y-6375000D02*
X-16212500Y-5050000D01*
X-14450000Y-6375000D02*
X-14887500Y-6375000D01*
%TO.N,Net-(D302-A)*%
X-12825000Y-5800000D02*
X-12825000Y-7275000D01*
X-13575000Y-8025000D02*
X-14450000Y-8025000D01*
X-11710624Y-4685624D02*
X-12825000Y-5800000D01*
X-12825000Y-7275000D02*
X-13575000Y-8025000D01*
%TO.N,/mcu/CANH*%
X-275000Y-14725000D02*
X1425000Y-13025000D01*
X825000Y-5850000D02*
X1425000Y-5250000D01*
X3025000Y-7410000D02*
X1435000Y-7410000D01*
X1425000Y-13025000D02*
X1425000Y-7420000D01*
X5365000Y-4075000D02*
X4435000Y-4075000D01*
X1425000Y-5250000D02*
X3260000Y-5250000D01*
X3260000Y-5250000D02*
X4435000Y-4075000D01*
X1435000Y-7410000D02*
X825000Y-6800000D01*
X1425000Y-7420000D02*
X1435000Y-7410000D01*
X825000Y-6800000D02*
X825000Y-5850000D01*
%TO.N,/mcu/CANL*%
X1975000Y-8680000D02*
X3025000Y-8680000D01*
X5900000Y-4350000D02*
X5900000Y-3535000D01*
X4275000Y-8330000D02*
X4275000Y-5092892D01*
X2225000Y-14725000D02*
X1650000Y-14150000D01*
X5365000Y-3000000D02*
X4435000Y-3000000D01*
X3025000Y-8680000D02*
X3925000Y-8680000D01*
X1650000Y-14150000D02*
X1650000Y-9005000D01*
X3925000Y-8680000D02*
X4275000Y-8330000D01*
X1650000Y-9005000D02*
X1975000Y-8680000D01*
X5900000Y-3535000D02*
X5365000Y-3000000D01*
X4275000Y-5092892D02*
X4717892Y-4650000D01*
X5600000Y-4650000D02*
X5900000Y-4350000D01*
X4717892Y-4650000D02*
X5600000Y-4650000D01*
%TO.N,/mcu/SWDIO*%
X-4132842Y-12375000D02*
X-3605000Y-11847158D01*
X-3590000Y1515000D02*
X-4150000Y2075000D01*
X-6867476Y-13884634D02*
X-5357842Y-12375000D01*
X-4150000Y2075000D02*
X-5348343Y2075000D01*
X-3605000Y-11847158D02*
X-3605000Y-8199658D01*
X-5348343Y2075000D02*
X-5974428Y1448915D01*
X-3605000Y-8199658D02*
X-3800000Y-8004659D01*
X-3800000Y-5850000D02*
X-3590000Y-5640000D01*
X-7658470Y-13884634D02*
X-6867476Y-13884634D01*
X-8592830Y-14818994D02*
X-7658470Y-13884634D01*
X-3800000Y-8004659D02*
X-3800000Y-5850000D01*
X-3590000Y-5640000D02*
X-3590000Y1515000D01*
X-5357842Y-12375000D02*
X-4132842Y-12375000D01*
%TO.N,/mcu/SWCLK*%
X-7276667Y-14576667D02*
X-5275000Y-12575000D01*
X-3390000Y1640000D02*
X-4550000Y2800000D01*
X-7346164Y-14576667D02*
X-7276667Y-14576667D01*
X-4550000Y2800000D02*
X-5595615Y2800000D01*
X-3405000Y-11930000D02*
X-3405000Y-8116816D01*
X-3600000Y-6000000D02*
X-3390000Y-5790000D01*
X-3600000Y-7921816D02*
X-3600000Y-6000000D01*
X-5595615Y2800000D02*
X-5974428Y2421187D01*
X-3405000Y-8116816D02*
X-3600000Y-7921816D01*
X-3390000Y-5790000D02*
X-3390000Y1640000D01*
X-5275000Y-12575000D02*
X-4050000Y-12575000D01*
X-4050000Y-12575000D02*
X-3405000Y-11930000D01*
%TO.N,Net-(JP101-B)*%
X6385000Y-3000000D02*
X6385000Y-4075000D01*
D66*
%TO.N,/current sense/U_OUT*%
X-3700000Y12150000D02*
X-3700000Y9800000D01*
X-3700000Y9800000D02*
X-3950000Y9550000D01*
%TO.N,/current sense/V_OUT*%
X3800000Y12150000D02*
X4600000Y12150000D01*
X4600000Y12150000D02*
X6000000Y10750000D01*
X6000000Y10750000D02*
X6000000Y9500000D01*
%TO.N,/current sense/W_OUT*%
X750000Y10200000D02*
X750000Y9500000D01*
X-1200000Y12150000D02*
X750000Y10200000D01*
D64*
%TO.N,Net-(D603-K)*%
X4275000Y2750000D02*
X4291746Y2750000D01*
X10000000Y-1725000D02*
X10525000Y-1725000D01*
X11000000Y-3270000D02*
X11755000Y-3270000D01*
X11755000Y-3270000D02*
X12100000Y-2925000D01*
X11000000Y-2200000D02*
X11000000Y-3270000D01*
X4291746Y2750000D02*
X4758436Y2283310D01*
X10525000Y-1725000D02*
X11000000Y-2200000D01*
D65*
%TO.N,Net-(D601-K)*%
X6297416Y5213244D02*
X6526203Y4984457D01*
X9934457Y1576203D02*
X10635660Y875000D01*
X11500000Y875000D02*
X10635660Y875000D01*
X11600000Y775000D02*
X11500000Y875000D01*
X5674866Y5213244D02*
X6297416Y5213244D01*
X11600000Y425000D02*
X11600000Y775000D01*
%TO.N,Net-(U501-FB{slash}VOUT)*%
X10380000Y-9360000D02*
X9425000Y-9360000D01*
X9225000Y-9300000D02*
X8335000Y-8410000D01*
X9365000Y-9300000D02*
X9225000Y-9300000D01*
X9425000Y-9360000D02*
X9365000Y-9300000D01*
%TO.N,Net-(R502-Pad2)*%
X8290000Y-9300000D02*
X8345000Y-9300000D01*
X8345000Y-9300000D02*
X9365000Y-10320000D01*
%TO.N,/usb/UCPD_CC2*%
X-9289213Y-10360787D02*
X-8986180Y-10057754D01*
X-7230546Y-11464860D02*
X-5957018Y-11464860D01*
X-4857158Y-10365000D02*
X-4175000Y-10365000D01*
X-5957018Y-11464860D02*
X-4857158Y-10365000D01*
X-8637652Y-10057754D02*
X-7230546Y-11464860D01*
X-8986180Y-10057754D02*
X-8637652Y-10057754D01*
%TO.N,/usb/UCPD_CC1*%
X-8849747Y-7800000D02*
X-8050000Y-7800000D01*
X-9183147Y-8133400D02*
X-8849747Y-7800000D01*
X-8050000Y-7800000D02*
X-7650000Y-7400000D01*
X-7650000Y-7400000D02*
X-7650000Y-5885000D01*
%TO.N,Net-(U301-PB10)*%
X-12224972Y-3000678D02*
X-14274294Y-5050000D01*
X-12224972Y-2415143D02*
X-12224972Y-3000678D01*
X-11542894Y-1733065D02*
X-12224972Y-2415143D01*
X-14274294Y-5050000D02*
X-15290000Y-5050000D01*
%TO.N,Net-(U301-PB11)*%
X-10835787Y-2440172D02*
X-10875000Y-2479385D01*
X-10875000Y-3850000D02*
X-10989376Y-3964376D01*
X-10875000Y-2479385D02*
X-10875000Y-3850000D01*
%TO.N,/mcu/USBD_N*%
X-6120000Y-3900000D02*
X-6275000Y-4055000D01*
X-6275000Y-4055000D02*
X-6275000Y-5287500D01*
X-6250000Y-396833D02*
X-7035088Y388255D01*
X-6275000Y-5287500D02*
X-6350000Y-5362500D01*
X-6487500Y-7637500D02*
X-6350000Y-7637500D01*
X-6250000Y-3770000D02*
X-6250000Y-396833D01*
X-6120000Y-3900000D02*
X-6250000Y-3770000D01*
X-6350000Y-7637500D02*
X-6350000Y-5362500D01*
X-7385534Y-7750000D02*
X-6600000Y-7750000D01*
X-6600000Y-7750000D02*
X-6487500Y-7637500D01*
X-9592640Y-9250000D02*
X-9996320Y-9653680D01*
X-8476041Y-8840507D02*
X-8885534Y-9250000D01*
X-8476041Y-8840507D02*
X-7385534Y-7750000D01*
X-8885534Y-9250000D02*
X-9592640Y-9250000D01*
%TO.N,/half bridges/ENA*%
X-6650000Y-2350000D02*
X-7175000Y-2875000D01*
X4225000Y3750000D02*
X4225126Y3750000D01*
X-7175000Y-2875000D02*
X-9428687Y-2875000D01*
X8550126Y-575000D02*
X8166690Y-191564D01*
X4225126Y3750000D02*
X4758436Y3216690D01*
X-9428687Y-2875000D02*
X-9863515Y-2440172D01*
X-6650000Y-2225000D02*
X-6650000Y-2350000D01*
X9150000Y-575000D02*
X8550126Y-575000D01*
%TO.N,/encoder/A*%
X-7742195Y4188954D02*
X-7573890Y4357259D01*
X-7573890Y4357259D02*
X-3157259Y4357259D01*
X-2275000Y3475000D02*
X-2275000Y2775000D01*
X-3157259Y4357259D02*
X-2275000Y3475000D01*
%TO.N,/encoder/B*%
X-1625000Y3500000D02*
X-1625000Y2775000D01*
X-2925000Y4800000D02*
X-1625000Y3500000D01*
X-7838255Y4800000D02*
X-2925000Y4800000D01*
X-8095748Y4542507D02*
X-7838255Y4800000D01*
%TO.N,/encoder/Z*%
X-4128706Y4003706D02*
X-3700000Y3575000D01*
X-975000Y2250000D02*
X-975000Y2775000D01*
X-7220335Y4003706D02*
X-4128706Y4003706D01*
X-3700000Y3575000D02*
X-3700000Y2857842D01*
X-2842158Y2000000D02*
X-1225000Y2000000D01*
X-1225000Y2000000D02*
X-975000Y2250000D01*
X-7388641Y3835400D02*
X-7220335Y4003706D01*
X-3700000Y2857842D02*
X-2842158Y2000000D01*
%TO.N,Net-(D501-A)*%
X8025000Y8400000D02*
X9825000Y10200000D01*
X7800000Y8400000D02*
X8025000Y8400000D01*
%TO.N,Net-(D502-A)*%
X9825000Y8100000D02*
X9340000Y7615000D01*
X9340000Y7615000D02*
X9340000Y7000000D01*
%TO.N,/encoder/SCK*%
X-15548915Y1448915D02*
X-14724874Y1448915D01*
X775000Y-3937132D02*
X1625000Y-3087132D01*
X-15825000Y1725000D02*
X-15548915Y1448915D01*
X1625000Y-3087132D02*
X1625000Y-2775000D01*
X775000Y-4000000D02*
X775000Y-3937132D01*
%TO.N,/encoder/CIPO*%
X-15350000Y875000D02*
X-14591683Y875000D01*
X325000Y-3087132D02*
X325000Y-2775000D01*
X-14591683Y875000D02*
X-14371321Y1095362D01*
X-587868Y-4000000D02*
X325000Y-3087132D01*
X-600000Y-4000000D02*
X-587868Y-4000000D01*
%TO.N,/encoder/COPI*%
X62132Y-4000000D02*
X975000Y-3087132D01*
X975000Y-3087132D02*
X975000Y-2775000D01*
X-14300000Y450000D02*
X-14017767Y732233D01*
X-15750000Y450000D02*
X-14300000Y450000D01*
X-15900000Y600000D02*
X-15750000Y450000D01*
X-14017767Y732233D02*
X-14017767Y741808D01*
%TO.N,/encoder/CS*%
X-14226234Y-173766D02*
X-14848766Y-173766D01*
X775000Y-4650000D02*
X2275000Y-3150000D01*
X-14226234Y-173766D02*
X-14226234Y-173765D01*
X-14226234Y-173765D02*
X-13664214Y388255D01*
X-14848766Y-173766D02*
X-16310000Y-1635000D01*
X2275000Y-3150000D02*
X2275000Y-2775000D01*
X-16310000Y-1635000D02*
X-16310000Y-4000000D01*
%TO.N,/encoder/CAL_EN*%
X-325000Y-3087132D02*
X-325000Y-2775000D01*
X-16303813Y2421187D02*
X-14724874Y2421187D01*
X-15325000Y-25000D02*
X-15840686Y-25000D01*
X-1225000Y-3975000D02*
X-1212868Y-3975000D01*
X-16450000Y2275000D02*
X-16303813Y2421187D01*
X-16450000Y584314D02*
X-16450000Y2275000D01*
X-1212868Y-3975000D02*
X-325000Y-3087132D01*
X-15840686Y-25000D02*
X-16450000Y584314D01*
%TO.N,/mcu/CAN_TX*%
X-8988102Y5771473D02*
X-9156408Y5603167D01*
X-3190000Y-5810000D02*
X-2860000Y-6140000D01*
X-3190000Y1765000D02*
X-3190000Y-5810000D01*
X-8071473Y5771473D02*
X-8988102Y5771473D01*
X-8050000Y5750000D02*
X-8071473Y5771473D01*
X-4925000Y3500000D02*
X-3190000Y1765000D01*
X-2860000Y-6140000D02*
X-1925000Y-6140000D01*
%TO.N,/mcu/CAN_RX*%
X225000Y-5375000D02*
X625000Y-5775000D01*
X-9509962Y5965038D02*
X-9509962Y5956721D01*
X-2950000Y1825000D02*
X-2950000Y-5075000D01*
X-2650000Y-5375000D02*
X225000Y-5375000D01*
X-8525000Y6275000D02*
X-9200000Y6275000D01*
X25000Y-9950000D02*
X-1925000Y-9950000D01*
X625000Y-5775000D02*
X625000Y-9350000D01*
X-4342158Y3500000D02*
X-4342158Y3217158D01*
X-4342158Y3217158D02*
X-2950000Y1825000D01*
X625000Y-9350000D02*
X25000Y-9950000D01*
X-2950000Y-5075000D02*
X-2650000Y-5375000D01*
X-9200000Y6275000D02*
X-9509962Y5965038D01*
%TO.N,/half bridges/IN2B*%
X-14425000Y4075000D02*
X-14257367Y4075000D01*
X4775210Y4275000D02*
X5114340Y4275000D01*
X5114340Y4275000D02*
X5465543Y3923797D01*
X4774750Y4275460D02*
X4775210Y4275000D01*
X-14257367Y4075000D02*
X-13664214Y3481847D01*
%TO.N,/half bridges/IN1A*%
X10350000Y-200000D02*
X9589340Y-200000D01*
X9589340Y-200000D02*
X8873797Y515543D01*
X-7200000Y-861047D02*
X-7742195Y-318852D01*
X-7200000Y-1075000D02*
X-7200000Y-861047D01*
X11000000Y450000D02*
X10350000Y-200000D01*
%TO.N,/half bridges/IN2A*%
X-6828939Y-525000D02*
X-7388641Y34702D01*
X10325000Y450000D02*
X9646447Y450000D01*
X-6750000Y-525000D02*
X-6828939Y-525000D01*
X9646447Y450000D02*
X9227351Y869096D01*
%TO.N,/half bridges/IN1B*%
X5275000Y4750000D02*
X5747649Y4277351D01*
X5225000Y4750000D02*
X5275000Y4750000D01*
X-13975000Y4500000D02*
X-13975000Y4499739D01*
X-13975000Y4499739D02*
X-13310661Y3835400D01*
X5747649Y4277351D02*
X5819096Y4277351D01*
%TO.N,Net-(Q501-B)*%
X10850000Y9100000D02*
X11825000Y9100000D01*
X10360000Y7000000D02*
X10360000Y8610000D01*
X10360000Y8610000D02*
X10850000Y9100000D01*
D64*
%TO.N,Net-(Q501-C)*%
X15025000Y8750000D02*
X14425000Y8150000D01*
X14425000Y8150000D02*
X13700000Y8150000D01*
X15500000Y8750000D02*
X15025000Y8750000D01*
D66*
%TO.N,/half bridges/OUT1B*%
X2125000Y6575000D02*
X3475000Y5225000D01*
X1300000Y12150000D02*
X2125000Y11325000D01*
X3475000Y5225000D02*
X4800000Y5225000D01*
X4800000Y5225000D02*
X5850000Y6275000D01*
D64*
X7233310Y5691564D02*
X6649874Y6275000D01*
D66*
X5850000Y6275000D02*
X6475000Y6275000D01*
D64*
X6649874Y6275000D02*
X6475000Y6275000D01*
D66*
X2125000Y11325000D02*
X2125000Y6575000D01*
D65*
%TO.N,/mcu/DIR*%
X-7850000Y-1825000D02*
X-7850000Y-918153D01*
X-7850000Y-918153D02*
X-8095748Y-672405D01*
X3415000Y-3000000D02*
X3415000Y-3085000D01*
X2350000Y-4150000D02*
X2350000Y-4250000D01*
X-7223910Y-2251087D02*
X-7423913Y-2251087D01*
X3415000Y-3085000D02*
X2350000Y-4150000D01*
X-7423913Y-2251087D02*
X-7850000Y-1825000D01*
%TO.N,/mcu/STEP*%
X3415000Y-4075000D02*
X3415000Y-4085000D01*
X-6866782Y3650153D02*
X-5700153Y3650153D01*
X-5700153Y3650153D02*
X-5550000Y3500000D01*
X2650000Y-4850000D02*
X2325000Y-4850000D01*
X3415000Y-4085000D02*
X2650000Y-4850000D01*
X-7035088Y3481847D02*
X-6866782Y3650153D01*
D63*
%TO.N,GNDA*%
X3150000Y7387992D02*
X3150000Y8100000D01*
X-965380Y9700000D02*
X-750000Y9915380D01*
X-1900000Y9700000D02*
X-965380Y9700000D01*
X-6650000Y9300000D02*
X-6650000Y8800000D01*
D64*
X-1999500Y8200500D02*
X-1950000Y8250000D01*
X-6699500Y6539500D02*
X-6699500Y8250500D01*
X-2000000Y6501143D02*
X-1960000Y6461143D01*
X3150000Y6645000D02*
X3150000Y8100000D01*
D63*
X-1950000Y9750000D02*
X-1950000Y9250000D01*
X-5450000Y9965380D02*
X-5450000Y10500000D01*
X4284620Y9700000D02*
X4500000Y9915380D01*
X4500000Y9915380D02*
X4500000Y10450000D01*
D64*
X3320000Y6475000D02*
X3150000Y6645000D01*
X3150000Y8100000D02*
X3300000Y8250000D01*
D63*
X-6650000Y9800000D02*
X-6600000Y9750000D01*
X-750000Y9915380D02*
X-750000Y10450000D01*
D64*
X-6699500Y8250500D02*
X-6650000Y8300000D01*
D63*
X-6650000Y7649500D02*
X-6650000Y8800000D01*
X-1950000Y7524500D02*
X-1950000Y8750000D01*
X-6699500Y7600000D02*
X-6650000Y7649500D01*
X-1950000Y9750000D02*
X-1900000Y9700000D01*
X3300000Y9750000D02*
X3300000Y9250000D01*
X-6650000Y8800000D02*
X-6650000Y8300000D01*
X-5665380Y9750000D02*
X-5450000Y9965380D01*
X-6650000Y9800000D02*
X-6650000Y9300000D01*
X3300000Y8750000D02*
X3300000Y8250000D01*
D64*
X-6660000Y6500000D02*
X-6699500Y6539500D01*
D63*
X-6600000Y9750000D02*
X-5665380Y9750000D01*
X-1950000Y8750000D02*
X-1950000Y8250000D01*
X3300000Y9750000D02*
X3350000Y9700000D01*
D64*
X-1999500Y7475000D02*
X-1999500Y8200500D01*
D63*
X3350000Y9700000D02*
X4284620Y9700000D01*
X-1950000Y9250000D02*
X-1950000Y8750000D01*
D64*
X-2000000Y7474500D02*
X-2000000Y6501143D01*
X3300000Y8250000D02*
X3300000Y9250000D01*
X-1999500Y7475000D02*
X-2000000Y7474500D01*
D63*
X-1999500Y7475000D02*
X-1950000Y7524500D01*
D65*
%TO.N,Net-(U301-VREF+)*%
X-13010589Y-1760589D02*
X-13185589Y-1760589D01*
X-13860589Y-1085589D02*
X-13185589Y-1760589D01*
X-12275959Y-1025959D02*
X-13010589Y-1760589D01*
X-12250000Y-1025959D02*
X-12275959Y-1025959D01*
%TO.N,/mcu/ADC1_IN12*%
X-8760000Y10520000D02*
X-7740000Y9500000D01*
X-8760000Y10575000D02*
X-8760000Y10520000D01*
%TD*%
%TA.AperFunction,Conductor*%
%TO.N,+3V3*%
G36*
X16940677Y-4169685D02*
G01*
X16961319Y-4186319D01*
X17313681Y-4538681D01*
X17347166Y-4600004D01*
X17350000Y-4626362D01*
X17350000Y-10048638D01*
X17330315Y-10115677D01*
X17313681Y-10136319D01*
X17086319Y-10363681D01*
X17024996Y-10397166D01*
X16998638Y-10400000D01*
X16201362Y-10400000D01*
X16134323Y-10380315D01*
X16113681Y-10363681D01*
X15936319Y-10186319D01*
X15902834Y-10124996D01*
X15900000Y-10098638D01*
X15900000Y-9425000D01*
X15625000Y-9150000D01*
X15615590Y-9150000D01*
X15574996Y-9172166D01*
X15548638Y-9175000D01*
X14726362Y-9175000D01*
X14659323Y-9155315D01*
X14638681Y-9138681D01*
X14436319Y-8936319D01*
X14402834Y-8874996D01*
X14400000Y-8848638D01*
X14400000Y-5765316D01*
X14419685Y-5698277D01*
X14472489Y-5652522D01*
X14489396Y-5646242D01*
X14632887Y-5604555D01*
X14766198Y-5525715D01*
X14875715Y-5416198D01*
X14954555Y-5282887D01*
X14997765Y-5134156D01*
X15000500Y-5099405D01*
X15000499Y-4750596D01*
X14997765Y-4715844D01*
X14954555Y-4567113D01*
X14875715Y-4433802D01*
X14875714Y-4433801D01*
X14875713Y-4433799D01*
X14873035Y-4430346D01*
X14871777Y-4427144D01*
X14871744Y-4427087D01*
X14871753Y-4427081D01*
X14847500Y-4365310D01*
X14861180Y-4296792D01*
X14883328Y-4266671D01*
X14927403Y-4222596D01*
X14988724Y-4189113D01*
X15054083Y-4192573D01*
X15197203Y-4239999D01*
X15299991Y-4250500D01*
X16350008Y-4250499D01*
X16350016Y-4250498D01*
X16350019Y-4250498D01*
X16406302Y-4244748D01*
X16452797Y-4239999D01*
X16619334Y-4184814D01*
X16633722Y-4175938D01*
X16645847Y-4168461D01*
X16710943Y-4150000D01*
X16873638Y-4150000D01*
X16940677Y-4169685D01*
G37*
%TD.AperFunction*%
%TD*%
%TA.AperFunction,Conductor*%
%TO.N,Vmot*%
G36*
X10671129Y-3711617D02*
G01*
X10740513Y-3743972D01*
X10790099Y-3750500D01*
X11209900Y-3750499D01*
X11259487Y-3743972D01*
X11328870Y-3711617D01*
X11381275Y-3700000D01*
X12623638Y-3700000D01*
X12690677Y-3719685D01*
X12711319Y-3736319D01*
X13113681Y-4138681D01*
X13147166Y-4200004D01*
X13150000Y-4226362D01*
X13150000Y-4898638D01*
X13130315Y-4965677D01*
X13113681Y-4986319D01*
X12786319Y-5313681D01*
X12724996Y-5347166D01*
X12698638Y-5350000D01*
X10249999Y-5350000D01*
X9847613Y-5752386D01*
X9786290Y-5785871D01*
X9716598Y-5780887D01*
X9684446Y-5763081D01*
X9602842Y-5700464D01*
X9456762Y-5639956D01*
X9456760Y-5639955D01*
X9300001Y-5619318D01*
X9299999Y-5619318D01*
X9143239Y-5639955D01*
X9143237Y-5639956D01*
X8997160Y-5700463D01*
X8871718Y-5796718D01*
X8775463Y-5922160D01*
X8714956Y-6068237D01*
X8714955Y-6068239D01*
X8694318Y-6224998D01*
X8694318Y-6225001D01*
X8714955Y-6381760D01*
X8714956Y-6381762D01*
X8775464Y-6527841D01*
X8871718Y-6653282D01*
X8925987Y-6694924D01*
X8967189Y-6751349D01*
X8974500Y-6793298D01*
X8974500Y-7082698D01*
X8974264Y-7088105D01*
X8970735Y-7128428D01*
X8981212Y-7167530D01*
X8982383Y-7172810D01*
X8989411Y-7212663D01*
X8991235Y-7217675D01*
X8998197Y-7234481D01*
X9000444Y-7239300D01*
X9000445Y-7239302D01*
X9000446Y-7239304D01*
X9006764Y-7248328D01*
X9029091Y-7314532D01*
X9012079Y-7382299D01*
X8992869Y-7407129D01*
X8851522Y-7548476D01*
X8790199Y-7581961D01*
X8760840Y-7583668D01*
X8760840Y-7584500D01*
X7915247Y-7584500D01*
X7856770Y-7596131D01*
X7856769Y-7596132D01*
X7790447Y-7640447D01*
X7746132Y-7706769D01*
X7746131Y-7706770D01*
X7734500Y-7765247D01*
X7734500Y-8054752D01*
X7748515Y-8125209D01*
X7747239Y-8125462D01*
X7753317Y-8182023D01*
X7746303Y-8205910D01*
X7734500Y-8265247D01*
X7734500Y-8554752D01*
X7747617Y-8620695D01*
X7750000Y-8644886D01*
X7750000Y-10850000D01*
X8563681Y-11663681D01*
X8597166Y-11725004D01*
X8600000Y-11751362D01*
X8600000Y-14373638D01*
X8580315Y-14440677D01*
X8563681Y-14461319D01*
X8336319Y-14688681D01*
X8274996Y-14722166D01*
X8248638Y-14725000D01*
X6124000Y-14725000D01*
X6056961Y-14705315D01*
X6011206Y-14652511D01*
X6000000Y-14601000D01*
X6000000Y-5426362D01*
X6019685Y-5359323D01*
X6036319Y-5338681D01*
X6463681Y-4911319D01*
X6525004Y-4877834D01*
X6551362Y-4875000D01*
X7800000Y-4875000D01*
X8938681Y-3736319D01*
X9000004Y-3702834D01*
X9026362Y-3700000D01*
X10618725Y-3700000D01*
X10671129Y-3711617D01*
G37*
%TD.AperFunction*%
%TD*%
%TA.AperFunction,Conductor*%
%TO.N,Vmot*%
G36*
X3680703Y1543995D02*
G01*
X3687181Y1537963D01*
X4213486Y1011658D01*
X4303194Y921950D01*
X4322931Y911894D01*
X4339517Y901731D01*
X4357446Y888704D01*
X4357448Y888704D01*
X4357449Y888703D01*
X4378510Y881860D01*
X4396489Y874414D01*
X4416232Y864354D01*
X4438121Y860888D01*
X4457037Y856347D01*
X4478103Y849501D01*
X4507460Y849501D01*
X4507484Y849500D01*
X4510017Y849500D01*
X4656524Y849500D01*
X4750301Y864353D01*
X4750302Y864354D01*
X4750304Y864354D01*
X4863342Y921950D01*
X4863344Y921953D01*
X4869467Y925072D01*
X4938136Y937969D01*
X5002877Y911693D01*
X5038557Y866099D01*
X5061800Y815203D01*
X5099379Y768570D01*
X5133202Y734747D01*
X5724227Y1325773D01*
X5922217Y1127783D01*
X5331192Y536757D01*
X5365016Y502933D01*
X5411648Y465355D01*
X5542427Y405629D01*
X5542432Y405628D01*
X5596338Y397878D01*
X5659894Y368854D01*
X5697670Y310077D01*
X5701431Y292787D01*
X5709181Y238879D01*
X5709182Y238875D01*
X5768908Y108096D01*
X5806486Y61464D01*
X5840309Y27641D01*
X6406334Y593666D01*
X6604323Y395677D01*
X6004968Y-203679D01*
X5955608Y-233928D01*
X5940909Y-238704D01*
X5940908Y-238704D01*
X5864094Y-294512D01*
X5864089Y-294517D01*
X5795426Y-363181D01*
X5734103Y-396666D01*
X5707745Y-399500D01*
X4267254Y-399500D01*
X4200215Y-379815D01*
X4179573Y-363181D01*
X3511819Y304574D01*
X3478334Y365897D01*
X3475500Y392255D01*
X3475500Y1450282D01*
X3495185Y1517321D01*
X3547989Y1563076D01*
X3617147Y1573020D01*
X3680703Y1543995D01*
G37*
%TD.AperFunction*%
%TD*%
%TA.AperFunction,Conductor*%
%TO.N,Net-(U501-LX)*%
G36*
X13164352Y-5564352D02*
G01*
X13880148Y-6280148D01*
X13894500Y-6314796D01*
X13894500Y-8860203D01*
X13880148Y-8894851D01*
X13754852Y-9020148D01*
X13720204Y-9034500D01*
X12504796Y-9034500D01*
X12470148Y-9020148D01*
X12064352Y-8614352D01*
X12050000Y-8579704D01*
X12050000Y-7225000D01*
X12024851Y-7199851D01*
X12010499Y-7165203D01*
X12010499Y-7115103D01*
X12010499Y-7115100D01*
X12003972Y-7065513D01*
X11953224Y-6956684D01*
X11953223Y-6956683D01*
X11953222Y-6956681D01*
X11868318Y-6871777D01*
X11868316Y-6871776D01*
X11759489Y-6821029D01*
X11759488Y-6821028D01*
X11749569Y-6819722D01*
X11709901Y-6814500D01*
X11709897Y-6814500D01*
X11290103Y-6814500D01*
X11290098Y-6814501D01*
X11240512Y-6821027D01*
X11131684Y-6871775D01*
X11112248Y-6891211D01*
X11092811Y-6910648D01*
X11058165Y-6925000D01*
X10875000Y-6925000D01*
X10717436Y-7082562D01*
X10682788Y-7096914D01*
X10674279Y-7096169D01*
X10651200Y-7092100D01*
X10649113Y-7091637D01*
X10622128Y-7084407D01*
X10608427Y-7080736D01*
X10608426Y-7080736D01*
X10566466Y-7084407D01*
X10564330Y-7084500D01*
X9765502Y-7084500D01*
X9730854Y-7070148D01*
X9639852Y-6979146D01*
X9625500Y-6944498D01*
X9625500Y-6756312D01*
X9639852Y-6721664D01*
X9644655Y-6717450D01*
X9728282Y-6653282D01*
X9824536Y-6527841D01*
X9885044Y-6381762D01*
X9905682Y-6225000D01*
X9885044Y-6068238D01*
X9867380Y-6025593D01*
X9867380Y-5988090D01*
X9889166Y-5963836D01*
X9946099Y-5932749D01*
X9992923Y-5897696D01*
X10320767Y-5569852D01*
X10355415Y-5555500D01*
X12704144Y-5555500D01*
X12715122Y-5554912D01*
X12715123Y-5554912D01*
X12715130Y-5554911D01*
X12715134Y-5554911D01*
X12746965Y-5551488D01*
X12746975Y-5551484D01*
X12749160Y-5551030D01*
X12759156Y-5550000D01*
X13129704Y-5550000D01*
X13164352Y-5564352D01*
G37*
%TD.AperFunction*%
%TD*%
%TA.AperFunction,Conductor*%
%TO.N,GND*%
G36*
X-15750276Y7147559D02*
G01*
X-15607441Y7004724D01*
X-15568877Y6937929D01*
X-15568877Y6860801D01*
X-15607441Y6794006D01*
X-16527387Y5874060D01*
X-16527387Y5857425D01*
X-16511548Y5829990D01*
X-16511548Y5782035D01*
X-16510763Y5782004D01*
X-16511548Y5762042D01*
X-16511548Y5752862D01*
X-16511936Y5752192D01*
X-16513324Y5716877D01*
X-15941069Y5144622D01*
X-15902505Y5077827D01*
X-15902505Y5000699D01*
X-15941069Y4933904D01*
X-16178436Y4696536D01*
X-16178435Y4696538D01*
X-16202086Y4668847D01*
X-16261307Y4561123D01*
X-16314691Y4505455D01*
X-16358717Y4487641D01*
X-16362454Y4486789D01*
X-16462328Y4451841D01*
X-16516775Y4432789D01*
X-16516777Y4432789D01*
X-16516777Y4432788D01*
X-16655204Y4345808D01*
X-16770808Y4230204D01*
X-16857788Y4091777D01*
X-16911787Y3937459D01*
X-16930091Y3775001D01*
X-16930091Y3775000D01*
X-16911787Y3612542D01*
X-16911787Y3612540D01*
X-16911786Y3612539D01*
X-16857789Y3458225D01*
X-16770808Y3319796D01*
X-16655204Y3204192D01*
X-16654419Y3203699D01*
X-16578730Y3156140D01*
X-16526270Y3099601D01*
X-16509107Y3024406D01*
X-16531841Y2950705D01*
X-16584300Y2902032D01*
X-16583830Y2901259D01*
X-16587607Y2898963D01*
X-16588380Y2898245D01*
X-16590321Y2897313D01*
X-16592533Y2895967D01*
X-16604796Y2885991D01*
X-16625795Y2871700D01*
X-16639570Y2863955D01*
X-16670414Y2833112D01*
X-16676078Y2828001D01*
X-16709920Y2800467D01*
X-16709923Y2800464D01*
X-16719039Y2787550D01*
X-16735403Y2768125D01*
X-16832619Y2670907D01*
X-16881044Y2625681D01*
X-16903706Y2588417D01*
X-16907998Y2582109D01*
X-16934361Y2547343D01*
X-16934362Y2547343D01*
X-16940163Y2532632D01*
X-16951457Y2509892D01*
X-16959674Y2496379D01*
X-16959675Y2496377D01*
X-16971443Y2454378D01*
X-16973874Y2447147D01*
X-16989875Y2406571D01*
X-16989877Y2406563D01*
X-16991494Y2390837D01*
X-16996234Y2365895D01*
X-17000500Y2350666D01*
X-17000500Y2307048D01*
X-17000891Y2299425D01*
X-17005352Y2256028D01*
X-17002667Y2240456D01*
X-17000500Y2215138D01*
X-17000500Y593712D01*
X-17002763Y527488D01*
X-16992435Y485107D01*
X-16991010Y477609D01*
X-16985070Y434396D01*
X-16985070Y434395D01*
X-16978774Y419900D01*
X-16970676Y395819D01*
X-16966935Y380468D01*
X-16966934Y380466D01*
X-16966933Y380462D01*
X-16966932Y380461D01*
X-16945558Y342445D01*
X-16942164Y335612D01*
X-16924783Y295600D01*
X-16924779Y295593D01*
X-16914809Y283338D01*
X-16900516Y262337D01*
X-16892767Y248556D01*
X-16861919Y217708D01*
X-16856805Y212041D01*
X-16829279Y178207D01*
X-16816369Y169094D01*
X-16796935Y152724D01*
X-16236607Y-407603D01*
X-16191366Y-456044D01*
X-16178194Y-464054D01*
X-16124911Y-519817D01*
X-16106648Y-594752D01*
X-16128299Y-668779D01*
X-16150250Y-696723D01*
X-16692619Y-1239093D01*
X-16741044Y-1284319D01*
X-16763706Y-1321583D01*
X-16767998Y-1327891D01*
X-16794361Y-1362657D01*
X-16794362Y-1362657D01*
X-16800163Y-1377368D01*
X-16811457Y-1400108D01*
X-16819674Y-1413621D01*
X-16819675Y-1413623D01*
X-16831443Y-1455622D01*
X-16833874Y-1462853D01*
X-16849875Y-1503429D01*
X-16849877Y-1503437D01*
X-16851494Y-1519163D01*
X-16856234Y-1544105D01*
X-16860500Y-1559334D01*
X-16860500Y-1602952D01*
X-16860891Y-1610575D01*
X-16865352Y-1653972D01*
X-16862667Y-1669544D01*
X-16860500Y-1694862D01*
X-16860500Y-3270049D01*
X-16880462Y-3344549D01*
X-16904141Y-3375408D01*
X-16951134Y-3422400D01*
X-16951136Y-3422403D01*
X-17032868Y-3560604D01*
X-17077665Y-3714793D01*
X-17080500Y-3750822D01*
X-17080499Y-4249174D01*
X-17080499Y-4249175D01*
X-17077666Y-4285199D01*
X-17077665Y-4285206D01*
X-17032870Y-4439392D01*
X-17032869Y-4439394D01*
X-17027095Y-4449158D01*
X-17006357Y-4523446D01*
X-17025541Y-4598150D01*
X-17027095Y-4600842D01*
X-17032869Y-4610605D01*
X-17077665Y-4764793D01*
X-17080500Y-4800822D01*
X-17080499Y-5299174D01*
X-17080499Y-5299175D01*
X-17077666Y-5335199D01*
X-17077666Y-5335202D01*
X-17077665Y-5335204D01*
X-17032869Y-5489393D01*
X-16955261Y-5620622D01*
X-16951136Y-5627596D01*
X-16951134Y-5627599D01*
X-16930821Y-5647912D01*
X-16892257Y-5714707D01*
X-16892257Y-5791835D01*
X-16896927Y-5804666D01*
X-16896864Y-5804687D01*
X-16952444Y-5972419D01*
X-16952445Y-5972419D01*
X-16962500Y-6070846D01*
X-16962500Y-6125000D01*
X-15977743Y-6125000D01*
X-15903243Y-6144962D01*
X-15872384Y-6168641D01*
X-15818641Y-6222384D01*
X-15780077Y-6289179D01*
X-15775000Y-6327743D01*
X-15775000Y-8999999D01*
X-15758362Y-8999999D01*
X-15659917Y-8989942D01*
X-15500426Y-8937092D01*
X-15357425Y-8848889D01*
X-15357421Y-8848886D01*
X-15343215Y-8834680D01*
X-15276422Y-8796114D01*
X-15199293Y-8796112D01*
X-15132498Y-8834675D01*
X-15123358Y-8843814D01*
X-15117891Y-8849281D01*
X-14974787Y-8937549D01*
X-14815185Y-8990436D01*
X-14716674Y-9000500D01*
X-14716670Y-9000500D01*
X-14183330Y-9000500D01*
X-14183326Y-9000500D01*
X-14084815Y-8990436D01*
X-13925213Y-8937549D01*
X-13782109Y-8849281D01*
X-13777986Y-8845157D01*
X-13711197Y-8806593D01*
X-13634069Y-8806589D01*
X-13604165Y-8823852D01*
X-12832344Y-8823852D01*
X-12880688Y-8907587D01*
X-12910874Y-9039843D01*
X-12900737Y-9175120D01*
X-12851176Y-9301399D01*
X-12833270Y-9323852D01*
X-13581564Y-9323852D01*
X-13538464Y-9475334D01*
X-13537276Y-9552453D01*
X-13574807Y-9619834D01*
X-13641000Y-9659422D01*
X-13649745Y-9661626D01*
X-13910925Y-9719115D01*
X-13910936Y-9719118D01*
X-14260306Y-9836834D01*
X-14260316Y-9836839D01*
X-14594934Y-9991649D01*
X-14910835Y-10181721D01*
X-15204337Y-10404835D01*
X-15223480Y-10422967D01*
X-13906880Y-11739567D01*
X-13934180Y-11756832D01*
X-14121501Y-11922784D01*
X-14260512Y-12093041D01*
X-15574503Y-10779050D01*
X-15574504Y-10779050D01*
X-15710692Y-10939383D01*
X-15710694Y-10939386D01*
X-15917598Y-11244547D01*
X-16090285Y-11570271D01*
X-16090291Y-11570284D01*
X-16226751Y-11912773D01*
X-16226753Y-11912778D01*
X-16325387Y-12268023D01*
X-16325387Y-12268025D01*
X-16385035Y-12631857D01*
X-16385035Y-12631863D01*
X-16404994Y-12999991D01*
X-16404994Y-13000000D01*
X-16385035Y-13368136D01*
X-16385035Y-13368142D01*
X-16325387Y-13731974D01*
X-16325387Y-13731976D01*
X-16226753Y-14087221D01*
X-16226751Y-14087226D01*
X-16090291Y-14429715D01*
X-16090285Y-14429728D01*
X-15917596Y-14755456D01*
X-15917593Y-14755461D01*
X-15710697Y-15060608D01*
X-15710688Y-15060620D01*
X-15574504Y-15220948D01*
X-15574503Y-15220948D01*
X-14258650Y-13905094D01*
X-14204544Y-13983480D01*
X-14031184Y-14163966D01*
X-13905135Y-14258685D01*
X-15223480Y-15577031D01*
X-15204343Y-15595159D01*
X-15204342Y-15595160D01*
X-14910835Y-15818278D01*
X-14594934Y-16008350D01*
X-14260316Y-16163160D01*
X-14260306Y-16163165D01*
X-13910937Y-16280880D01*
X-13550869Y-16360137D01*
X-13184344Y-16399999D01*
X-13184334Y-16400000D01*
X-12815666Y-16400000D01*
X-12815657Y-16399999D01*
X-12449132Y-16360137D01*
X-12449131Y-16360137D01*
X-12089064Y-16280880D01*
X-11739695Y-16163165D01*
X-11739685Y-16163160D01*
X-11405067Y-16008350D01*
X-11089166Y-15818278D01*
X-10795654Y-15595155D01*
X-10713683Y-15517509D01*
X-10645868Y-15480768D01*
X-10568768Y-15482856D01*
X-10503042Y-15523214D01*
X-10466301Y-15591029D01*
X-10462467Y-15634346D01*
X-10467940Y-15728308D01*
X-10467940Y-15728315D01*
X-10437665Y-15900011D01*
X-10368612Y-16060095D01*
X-10264502Y-16199938D01*
X-10130950Y-16312002D01*
X-10130949Y-16312002D01*
X-10130947Y-16312004D01*
X-9975148Y-16390249D01*
X-9805504Y-16430455D01*
X-9805502Y-16430455D01*
X-9674894Y-16430455D01*
X-9674890Y-16430454D01*
X-9545169Y-16415292D01*
X-9381340Y-16355663D01*
X-9381331Y-16355656D01*
X-9377224Y-16353595D01*
X-9373603Y-16352846D01*
X-9373185Y-16352695D01*
X-9373163Y-16352756D01*
X-9301691Y-16337992D01*
X-9228476Y-16362247D01*
X-9177197Y-16419860D01*
X-9174230Y-16426126D01*
X-9171898Y-16431363D01*
X-9077915Y-16594149D01*
X-9077911Y-16594154D01*
X-8952136Y-16733842D01*
X-8952133Y-16733844D01*
X-8952130Y-16733847D01*
X-8880868Y-16785621D01*
X-8800066Y-16844327D01*
X-8628348Y-16920781D01*
X-8628342Y-16920782D01*
X-8628340Y-16920783D01*
X-8444489Y-16959861D01*
X-8444487Y-16959861D01*
X-8402611Y-16959861D01*
X-8328111Y-16979823D01*
X-8297252Y-17003502D01*
X-8293920Y-17006834D01*
X-8283363Y-17020011D01*
X-8282928Y-17019652D01*
X-8276951Y-17026877D01*
X-8226513Y-17074241D01*
X-8205634Y-17095120D01*
X-8201691Y-17098178D01*
X-8200626Y-17099005D01*
X-8195288Y-17103564D01*
X-8161746Y-17135062D01*
X-8150389Y-17141305D01*
X-8145910Y-17143768D01*
X-8126372Y-17156602D01*
X-8112100Y-17167673D01*
X-8112099Y-17167673D01*
X-8112098Y-17167674D01*
X-8112097Y-17167675D01*
X-8069875Y-17185945D01*
X-8063584Y-17189026D01*
X-8037363Y-17203441D01*
X-8023257Y-17211197D01*
X-8021322Y-17211963D01*
X-8019779Y-17213109D01*
X-8015039Y-17215715D01*
X-8015396Y-17216364D01*
X-7959402Y-17257949D01*
X-7928770Y-17328733D01*
X-7937635Y-17405350D01*
X-7983621Y-17467270D01*
X-8054405Y-17497902D01*
X-8076172Y-17499500D01*
X-13000000Y-17499500D01*
X-13194465Y-17491009D01*
X-13394956Y-17481739D01*
X-13401242Y-17481181D01*
X-13601505Y-17454816D01*
X-13795544Y-17427749D01*
X-13801379Y-17426697D01*
X-13999708Y-17382728D01*
X-14189637Y-17338057D01*
X-14194984Y-17336588D01*
X-14389288Y-17275325D01*
X-14510529Y-17234690D01*
X-14574085Y-17213388D01*
X-14578912Y-17211581D01*
X-14767478Y-17133475D01*
X-14945763Y-17054754D01*
X-14950072Y-17052683D01*
X-15131373Y-16958304D01*
X-15301684Y-16863441D01*
X-15305461Y-16861189D01*
X-15478070Y-16751225D01*
X-15639002Y-16640984D01*
X-15642252Y-16638626D01*
X-15804792Y-16513905D01*
X-15954981Y-16389190D01*
X-15957719Y-16386801D01*
X-16108936Y-16248236D01*
X-16248237Y-16108935D01*
X-16292991Y-16060095D01*
X-16386808Y-15957712D01*
X-16389192Y-15954979D01*
X-16513906Y-15804791D01*
X-16638628Y-15642250D01*
X-16640986Y-15639000D01*
X-16671018Y-15595159D01*
X-16751226Y-15478069D01*
X-16787952Y-15420421D01*
X-16861198Y-15305447D01*
X-16863444Y-15301681D01*
X-16908412Y-15220948D01*
X-16958304Y-15131373D01*
X-17052686Y-14950068D01*
X-17054745Y-14945784D01*
X-17133476Y-14767477D01*
X-17211591Y-14578890D01*
X-17213381Y-14574107D01*
X-17275326Y-14389287D01*
X-17336592Y-14194976D01*
X-17338053Y-14189660D01*
X-17382729Y-13999707D01*
X-17399337Y-13924794D01*
X-17426705Y-13801345D01*
X-17427745Y-13795578D01*
X-17454817Y-13601504D01*
X-17481185Y-13401221D01*
X-17481740Y-13394966D01*
X-17491004Y-13194602D01*
X-17499500Y-13000000D01*
X-17499500Y-12999500D01*
X-17499500Y-9800003D01*
X-16555647Y-9800003D01*
X-16535166Y-9942454D01*
X-16535166Y-9942455D01*
X-16535165Y-9942457D01*
X-16475377Y-10073373D01*
X-16381128Y-10182143D01*
X-16260053Y-10259953D01*
X-16121961Y-10300500D01*
X-16121959Y-10300500D01*
X-15978041Y-10300500D01*
X-15978039Y-10300500D01*
X-15839947Y-10259953D01*
X-15718872Y-10182143D01*
X-15624623Y-10073373D01*
X-15564835Y-9942457D01*
X-15549688Y-9837105D01*
X-15544353Y-9800003D01*
X-15544353Y-9799996D01*
X-15564565Y-9659422D01*
X-15564835Y-9657543D01*
X-15624623Y-9526627D01*
X-15718872Y-9417857D01*
X-15718873Y-9417856D01*
X-15756933Y-9393397D01*
X-15839947Y-9340047D01*
X-15855320Y-9335533D01*
X-15978033Y-9299501D01*
X-15978038Y-9299500D01*
X-15978039Y-9299500D01*
X-16121961Y-9299500D01*
X-16121963Y-9299500D01*
X-16121968Y-9299501D01*
X-16260051Y-9340046D01*
X-16381128Y-9417856D01*
X-16381130Y-9417859D01*
X-16475378Y-9526628D01*
X-16535166Y-9657545D01*
X-16555647Y-9799996D01*
X-16555647Y-9800003D01*
X-17499500Y-9800003D01*
X-17499500Y-8275000D01*
X-16962499Y-8275000D01*
X-16962499Y-8329137D01*
X-16952443Y-8427583D01*
X-16899593Y-8587074D01*
X-16811390Y-8730075D01*
X-16692576Y-8848889D01*
X-16549575Y-8937092D01*
X-16390084Y-8989942D01*
X-16291639Y-8999999D01*
X-16275001Y-8999998D01*
X-16275000Y-8999998D01*
X-16275000Y-8275000D01*
X-16962499Y-8275000D01*
X-17499500Y-8275000D01*
X-17499500Y-7775000D01*
X-16962500Y-7775000D01*
X-16275000Y-7775000D01*
X-16275000Y-6625000D01*
X-16962499Y-6625000D01*
X-16962499Y-6679137D01*
X-16952443Y-6777583D01*
X-16899593Y-6937074D01*
X-16811390Y-7080075D01*
X-16796824Y-7094641D01*
X-16758260Y-7161436D01*
X-16758260Y-7238564D01*
X-16796824Y-7305359D01*
X-16811390Y-7319924D01*
X-16899593Y-7462925D01*
X-16952445Y-7622421D01*
X-16962500Y-7720846D01*
X-16962500Y-7775000D01*
X-17499500Y-7775000D01*
X-17499500Y4887346D01*
X-16998614Y4887346D01*
X-16958402Y4730727D01*
X-16885060Y4597317D01*
X-16492965Y4989412D01*
X-16866876Y5363323D01*
X-16880498Y5347374D01*
X-16880502Y5347369D01*
X-16958402Y5205669D01*
X-16998614Y5049051D01*
X-16998614Y4887346D01*
X-17499500Y4887346D01*
X-17499500Y6526804D01*
X-17479538Y6601304D01*
X-17425000Y6655842D01*
X-17350500Y6675804D01*
X-17276000Y6655842D01*
X-17221462Y6601304D01*
X-17214965Y6588701D01*
X-17199829Y6555556D01*
X-17199827Y6555554D01*
X-17162250Y6508923D01*
X-16880940Y6227613D01*
X-15960994Y7147559D01*
X-15894199Y7186123D01*
X-15817071Y7186123D01*
X-15750276Y7147559D01*
G37*
%TD.AperFunction*%
%TA.AperFunction,Conductor*%
G36*
X17428046Y-10837913D02*
G01*
X17481272Y-10893731D01*
X17499500Y-10965143D01*
X17499500Y-13000000D01*
X17491009Y-13194464D01*
X17481739Y-13394954D01*
X17481181Y-13401240D01*
X17454816Y-13601504D01*
X17427749Y-13795542D01*
X17426697Y-13801376D01*
X17382728Y-13999707D01*
X17338057Y-14189635D01*
X17336588Y-14194982D01*
X17275325Y-14389287D01*
X17213390Y-14574075D01*
X17211581Y-14578910D01*
X17133475Y-14767477D01*
X17054753Y-14945762D01*
X17052683Y-14950070D01*
X16958304Y-15131373D01*
X16863441Y-15301682D01*
X16861189Y-15305459D01*
X16751225Y-15478069D01*
X16640984Y-15639000D01*
X16638626Y-15642250D01*
X16513905Y-15804791D01*
X16389190Y-15954979D01*
X16386802Y-15957717D01*
X16248236Y-16108935D01*
X16108935Y-16248236D01*
X15957717Y-16386802D01*
X15954979Y-16389190D01*
X15804791Y-16513905D01*
X15642250Y-16638626D01*
X15639000Y-16640984D01*
X15478069Y-16751225D01*
X15305459Y-16861189D01*
X15301682Y-16863441D01*
X15131373Y-16958304D01*
X14950070Y-17052683D01*
X14945762Y-17054753D01*
X14767477Y-17133475D01*
X14578910Y-17211581D01*
X14574075Y-17213390D01*
X14389287Y-17275325D01*
X14194982Y-17336588D01*
X14189635Y-17338057D01*
X13999707Y-17382728D01*
X13801376Y-17426697D01*
X13795542Y-17427749D01*
X13601504Y-17454816D01*
X13401240Y-17481181D01*
X13394954Y-17481739D01*
X13194464Y-17491009D01*
X13000000Y-17499500D01*
X-5491001Y-17499500D01*
X-5565501Y-17479538D01*
X-5620039Y-17425000D01*
X-5640001Y-17350500D01*
X-5620039Y-17276000D01*
X-5601729Y-17250799D01*
X-5517470Y-17157220D01*
X-5517469Y-17157218D01*
X-5517467Y-17157216D01*
X-5422821Y-16993284D01*
X-5364326Y-16813256D01*
X-5344540Y-16625000D01*
X-5364326Y-16436744D01*
X-5365142Y-16428977D01*
X-5363881Y-16428844D01*
X-5360272Y-16359847D01*
X-5318272Y-16295157D01*
X-5306137Y-16285330D01*
X-5249555Y-16244222D01*
X-5248548Y-16245609D01*
X-5188515Y-16215012D01*
X-5111492Y-16219040D01*
X-5061746Y-16246612D01*
X-5020907Y-16280880D01*
X-4950422Y-16340025D01*
X-4950421Y-16340025D01*
X-4950419Y-16340027D01*
X-4794620Y-16418272D01*
X-4624976Y-16458478D01*
X-4624974Y-16458478D01*
X-4494366Y-16458478D01*
X-4494362Y-16458477D01*
X-4364641Y-16443315D01*
X-4200812Y-16383686D01*
X-4055151Y-16287883D01*
X-3935509Y-16161071D01*
X-3848338Y-16010085D01*
X-3798336Y-15843066D01*
X-3788198Y-15669018D01*
X-3818473Y-15497324D01*
X-3825614Y-15480768D01*
X-3887527Y-15337237D01*
X-3991637Y-15197394D01*
X-4072194Y-15129799D01*
X-4116432Y-15066620D01*
X-4123154Y-14989785D01*
X-4090558Y-14919883D01*
X-4081788Y-14910311D01*
X-2822382Y-13650906D01*
X-2773956Y-13605680D01*
X-2751284Y-13568395D01*
X-2747017Y-13562125D01*
X-2720639Y-13527342D01*
X-2714838Y-13512630D01*
X-2703542Y-13489888D01*
X-2695328Y-13476382D01*
X-2683557Y-13434366D01*
X-2681131Y-13427152D01*
X-2665124Y-13386564D01*
X-2663508Y-13370845D01*
X-2658766Y-13345888D01*
X-2654500Y-13330665D01*
X-2654500Y-13287046D01*
X-2654109Y-13279422D01*
X-2651506Y-13254097D01*
X-2649648Y-13236028D01*
X-2652334Y-13220447D01*
X-2654500Y-13195134D01*
X-2654500Y-12823855D01*
X-2634538Y-12749355D01*
X-2580000Y-12694817D01*
X-2505500Y-12674855D01*
X-2431000Y-12694817D01*
X-2394772Y-12724154D01*
X-2305873Y-12822886D01*
X-2305871Y-12822888D01*
X-2152730Y-12934151D01*
X-2152729Y-12934151D01*
X-2152728Y-12934152D01*
X-2128252Y-12945049D01*
X-1979803Y-13011144D01*
X-1838685Y-13041139D01*
X-1794648Y-13050500D01*
X-1794646Y-13050500D01*
X-1605352Y-13050500D01*
X-1563106Y-13041520D01*
X-1420197Y-13011144D01*
X-1247270Y-12934151D01*
X-1247270Y-12934150D01*
X-1247268Y-12934150D01*
X-1240509Y-12930248D01*
X-1239436Y-12932106D01*
X-1178075Y-12908552D01*
X-1101897Y-12920618D01*
X-1084673Y-12930562D01*
X-1084491Y-12930248D01*
X-1077733Y-12934150D01*
X-1019681Y-12959996D01*
X-904803Y-13011144D01*
X-761891Y-13041520D01*
X-693171Y-13076535D01*
X-651164Y-13141220D01*
X-647127Y-13218243D01*
X-682142Y-13286964D01*
X-733557Y-13321653D01*
X-732766Y-13323348D01*
X-738659Y-13326095D01*
X-738663Y-13326097D01*
X-952829Y-13425965D01*
X-952832Y-13425966D01*
X-952832Y-13425967D01*
X-1146404Y-13561507D01*
X-1313493Y-13728596D01*
X-1437965Y-13906362D01*
X-1449035Y-13922171D01*
X-1526002Y-14087226D01*
X-1548904Y-14136340D01*
X-1610063Y-14364590D01*
X-1610856Y-14373652D01*
X-1623314Y-14516056D01*
X-1625500Y-14541037D01*
X-1625500Y-14908963D01*
X-1610063Y-15085409D01*
X-1596846Y-15134736D01*
X-1548903Y-15313663D01*
X-1449035Y-15527829D01*
X-1313495Y-15721401D01*
X-1146401Y-15888495D01*
X-952830Y-16024035D01*
X-738663Y-16123903D01*
X-510408Y-16185063D01*
X-275000Y-16205659D01*
X-39592Y-16185063D01*
X188663Y-16123903D01*
X402829Y-16024035D01*
X596401Y-15888495D01*
X763495Y-15721401D01*
X852948Y-15593648D01*
X912029Y-15544073D01*
X987986Y-15530680D01*
X1060463Y-15557059D01*
X1097051Y-15593647D01*
X1186505Y-15721401D01*
X1353599Y-15888495D01*
X1547170Y-16024035D01*
X1761337Y-16123903D01*
X1989592Y-16185063D01*
X2225000Y-16205659D01*
X2460408Y-16185063D01*
X2688663Y-16123903D01*
X2902829Y-16024035D01*
X3096401Y-15888495D01*
X3263495Y-15721401D01*
X3353252Y-15593214D01*
X3412334Y-15543637D01*
X3488291Y-15530244D01*
X3560767Y-15556623D01*
X3597359Y-15593214D01*
X3686891Y-15721079D01*
X3853923Y-15888111D01*
X4047411Y-16023593D01*
X4047420Y-16023599D01*
X4261508Y-16123430D01*
X4261513Y-16123432D01*
X4475000Y-16180634D01*
X4475000Y-15133018D01*
X4589801Y-15185446D01*
X4691025Y-15200000D01*
X4758975Y-15200000D01*
X4860199Y-15185446D01*
X4975000Y-15133018D01*
X4975000Y-16180633D01*
X5188486Y-16123432D01*
X5402580Y-16023597D01*
X5596079Y-15888108D01*
X5720974Y-15763213D01*
X5787768Y-15724649D01*
X5864896Y-15724649D01*
X5931692Y-15763213D01*
X5953146Y-15790347D01*
X6032288Y-15918656D01*
X6156344Y-16042712D01*
X6305666Y-16134814D01*
X6472203Y-16189999D01*
X6574991Y-16200500D01*
X7875008Y-16200499D01*
X7977797Y-16189999D01*
X8144334Y-16134814D01*
X8293656Y-16042712D01*
X8417712Y-15918656D01*
X8509814Y-15769334D01*
X8564999Y-15602797D01*
X8575500Y-15500009D01*
X8575499Y-15209236D01*
X8595461Y-15134736D01*
X8635206Y-15089956D01*
X8693761Y-15046123D01*
X8930697Y-14809188D01*
X8930698Y-14809187D01*
X8948791Y-14789045D01*
X8948791Y-14789044D01*
X8966184Y-14767461D01*
X8973922Y-14757858D01*
X9005567Y-14713974D01*
X9065338Y-14583097D01*
X9085023Y-14516058D01*
X9085024Y-14516056D01*
X9085024Y-14516055D01*
X9085026Y-14516044D01*
X9105498Y-14373652D01*
X9105500Y-14373634D01*
X9105500Y-11737826D01*
X9104052Y-11710795D01*
X9104052Y-11710796D01*
X9104051Y-11710784D01*
X9101353Y-11685693D01*
X9099771Y-11670976D01*
X9091370Y-11619133D01*
X9091114Y-11617552D01*
X9040832Y-11482743D01*
X9007347Y-11421420D01*
X8934119Y-11323600D01*
X8905454Y-11251998D01*
X8916430Y-11175655D01*
X8964107Y-11115028D01*
X9035710Y-11086362D01*
X9072172Y-11087487D01*
X9072206Y-11087067D01*
X9079792Y-11087663D01*
X9079796Y-11087665D01*
X9115819Y-11090500D01*
X9614180Y-11090499D01*
X9650204Y-11087665D01*
X9804393Y-11042869D01*
X9924468Y-10971856D01*
X9998754Y-10951115D01*
X10073459Y-10970296D01*
X10128565Y-11024259D01*
X10149307Y-11098546D01*
X10130126Y-11173251D01*
X10123641Y-11183723D01*
X10082405Y-11244542D01*
X10082404Y-11244543D01*
X9909715Y-11570271D01*
X9909709Y-11570284D01*
X9773249Y-11912773D01*
X9773247Y-11912778D01*
X9674613Y-12268023D01*
X9674613Y-12268025D01*
X9614965Y-12631857D01*
X9614965Y-12631863D01*
X9595006Y-12999991D01*
X9595006Y-13000000D01*
X9614965Y-13368136D01*
X9614965Y-13368142D01*
X9674613Y-13731974D01*
X9674613Y-13731976D01*
X9773247Y-14087221D01*
X9773249Y-14087226D01*
X9909709Y-14429715D01*
X9909715Y-14429728D01*
X10082404Y-14755456D01*
X10082407Y-14755461D01*
X10289303Y-15060608D01*
X10289312Y-15060620D01*
X10425496Y-15220948D01*
X10425497Y-15220948D01*
X11741350Y-13905094D01*
X11795456Y-13983480D01*
X11968816Y-14163966D01*
X12094865Y-14258686D01*
X10776520Y-15577031D01*
X10795657Y-15595159D01*
X10795658Y-15595160D01*
X11089165Y-15818278D01*
X11405066Y-16008350D01*
X11739684Y-16163160D01*
X11739694Y-16163165D01*
X12089063Y-16280880D01*
X12449131Y-16360137D01*
X12815656Y-16399999D01*
X12815666Y-16400000D01*
X13184334Y-16400000D01*
X13184343Y-16399999D01*
X13550868Y-16360137D01*
X13550869Y-16360137D01*
X13910936Y-16280880D01*
X14260305Y-16163165D01*
X14260315Y-16163160D01*
X14594933Y-16008350D01*
X14910834Y-15818278D01*
X15204352Y-15595151D01*
X15223479Y-15577032D01*
X13906879Y-14260432D01*
X13934180Y-14243168D01*
X14121501Y-14077216D01*
X14260511Y-13906958D01*
X15574501Y-15220948D01*
X15710690Y-15060617D01*
X15710694Y-15060611D01*
X15917592Y-14755461D01*
X15917595Y-14755456D01*
X16090284Y-14429728D01*
X16090290Y-14429715D01*
X16226750Y-14087226D01*
X16226752Y-14087221D01*
X16325386Y-13731976D01*
X16325386Y-13731974D01*
X16385034Y-13368142D01*
X16385034Y-13368136D01*
X16404994Y-13000000D01*
X16404994Y-12999991D01*
X16385034Y-12631863D01*
X16385034Y-12631857D01*
X16325386Y-12268025D01*
X16325386Y-12268023D01*
X16226752Y-11912778D01*
X16226750Y-11912773D01*
X16090290Y-11570284D01*
X16090284Y-11570271D01*
X15917595Y-11244543D01*
X15917592Y-11244538D01*
X15810150Y-11086074D01*
X15784863Y-11013209D01*
X15799398Y-10937463D01*
X15849858Y-10879132D01*
X15922723Y-10853845D01*
X15986253Y-10865278D01*
X15986924Y-10863480D01*
X15991889Y-10865331D01*
X15991903Y-10865338D01*
X16015899Y-10872384D01*
X16058944Y-10885024D01*
X16058955Y-10885026D01*
X16201347Y-10905498D01*
X16201351Y-10905498D01*
X16201362Y-10905500D01*
X16201366Y-10905500D01*
X17012174Y-10905500D01*
X17012177Y-10905500D01*
X17019780Y-10905092D01*
X17039205Y-10904052D01*
X17039204Y-10904052D01*
X17039210Y-10904051D01*
X17039216Y-10904051D01*
X17050768Y-10902808D01*
X17079024Y-10899771D01*
X17082448Y-10899216D01*
X17132448Y-10891114D01*
X17267257Y-10840832D01*
X17279090Y-10834370D01*
X17354042Y-10816185D01*
X17428046Y-10837913D01*
G37*
%TD.AperFunction*%
%TA.AperFunction,Conductor*%
G36*
X-7512769Y-11946468D02*
G01*
X-7512378Y-11945479D01*
X-7508188Y-11947131D01*
X-7503335Y-11950314D01*
X-7494635Y-11953861D01*
X-7493972Y-11954234D01*
X-7494885Y-11955856D01*
X-7457481Y-11980387D01*
X-7309315Y-12128553D01*
X-7239763Y-12059001D01*
X-7172968Y-12020437D01*
X-7134404Y-12015360D01*
X-6136446Y-12015360D01*
X-6061946Y-12035322D01*
X-6007408Y-12089860D01*
X-5987446Y-12164360D01*
X-6007408Y-12238860D01*
X-6031087Y-12269719D01*
X-7051860Y-13290493D01*
X-7118655Y-13329057D01*
X-7157219Y-13334134D01*
X-7649043Y-13334134D01*
X-7715298Y-13331870D01*
X-7757682Y-13342199D01*
X-7765179Y-13343624D01*
X-7808392Y-13349564D01*
X-7808396Y-13349565D01*
X-7822891Y-13355861D01*
X-7846955Y-13363954D01*
X-7862322Y-13367700D01*
X-7900357Y-13389085D01*
X-7907181Y-13392474D01*
X-7947182Y-13409849D01*
X-7947192Y-13409855D01*
X-7959452Y-13419829D01*
X-7980446Y-13434117D01*
X-8003109Y-13446861D01*
X-8004972Y-13443549D01*
X-8058035Y-13465128D01*
X-8080098Y-13462078D01*
X-8082137Y-13506213D01*
X-8118767Y-13566404D01*
X-8433515Y-13881153D01*
X-8500310Y-13919717D01*
X-8538874Y-13924794D01*
X-8686817Y-13924794D01*
X-8870667Y-13963871D01*
X-8870675Y-13963874D01*
X-9042392Y-14040327D01*
X-9194457Y-14150807D01*
X-9194468Y-14150818D01*
X-9320238Y-14290500D01*
X-9320242Y-14290505D01*
X-9414219Y-14453281D01*
X-9414224Y-14453292D01*
X-9472309Y-14632057D01*
X-9474899Y-14656705D01*
X-9488822Y-14789182D01*
X-9490530Y-14805429D01*
X-9518170Y-14877435D01*
X-9578110Y-14925973D01*
X-9638714Y-14938855D01*
X-9761778Y-14938855D01*
X-9891493Y-14954017D01*
X-9891498Y-14954018D01*
X-9894404Y-14955076D01*
X-9896871Y-14955291D01*
X-9899939Y-14956019D01*
X-9900046Y-14955569D01*
X-9971238Y-14961795D01*
X-10041139Y-14929197D01*
X-10085376Y-14866016D01*
X-10092095Y-14789182D01*
X-10077003Y-14745267D01*
X-9909716Y-14429728D01*
X-9909710Y-14429715D01*
X-9773250Y-14087226D01*
X-9773248Y-14087221D01*
X-9674614Y-13731976D01*
X-9674613Y-13731971D01*
X-9663045Y-13661411D01*
X-9631293Y-13591122D01*
X-9568651Y-13546125D01*
X-9491903Y-13538479D01*
X-9462183Y-13546578D01*
X-9379006Y-13578801D01*
X-9378988Y-13578806D01*
X-9312940Y-13591151D01*
X-9312939Y-13591151D01*
X-9312939Y-12842168D01*
X-9260397Y-12877991D01*
X-9130767Y-12917977D01*
X-9029216Y-12917977D01*
X-8928797Y-12902841D01*
X-8812939Y-12847046D01*
X-8812939Y-13591151D01*
X-8746891Y-13578806D01*
X-8746873Y-13578801D01*
X-8548149Y-13501815D01*
X-8548146Y-13501813D01*
X-8366939Y-13389615D01*
X-8324508Y-13350934D01*
X-8256004Y-13315495D01*
X-8221792Y-13317076D01*
X-8213815Y-13259371D01*
X-8195432Y-13227486D01*
X-8081003Y-13075958D01*
X-7986001Y-12885168D01*
X-7942036Y-12730647D01*
X-7902448Y-12664454D01*
X-7860618Y-12635886D01*
X-7796357Y-12606540D01*
X-7796352Y-12606536D01*
X-7749730Y-12568967D01*
X-7749727Y-12568964D01*
X-7521447Y-12340685D01*
X-7673052Y-12189080D01*
X-7711616Y-12122285D01*
X-7711616Y-12045157D01*
X-7673052Y-11978362D01*
X-7606257Y-11939798D01*
X-7529129Y-11939798D01*
X-7512769Y-11946468D01*
G37*
%TD.AperFunction*%
%TA.AperFunction,Conductor*%
G36*
X5250500Y-5494962D02*
G01*
X5305038Y-5549500D01*
X5325000Y-5624000D01*
X5325000Y-10999999D01*
X5345500Y-10999999D01*
X5420000Y-11019961D01*
X5474538Y-11074499D01*
X5494500Y-11148999D01*
X5494500Y-13235380D01*
X5474538Y-13309880D01*
X5420000Y-13364418D01*
X5345500Y-13384380D01*
X5282530Y-13370420D01*
X5188491Y-13326569D01*
X5188489Y-13326568D01*
X4975000Y-13269364D01*
X4975000Y-14316981D01*
X4860199Y-14264554D01*
X4758975Y-14250000D01*
X4691025Y-14250000D01*
X4589801Y-14264554D01*
X4475000Y-14316981D01*
X4475000Y-13269364D01*
X4474999Y-13269364D01*
X4261512Y-13326568D01*
X4047419Y-13426402D01*
X3853920Y-13561891D01*
X3686888Y-13728923D01*
X3597358Y-13856785D01*
X3538274Y-13906362D01*
X3462318Y-13919755D01*
X3389842Y-13893375D01*
X3353251Y-13856785D01*
X3314454Y-13801377D01*
X3263495Y-13728599D01*
X3096401Y-13561505D01*
X2902830Y-13425965D01*
X2688663Y-13326097D01*
X2688661Y-13326096D01*
X2460409Y-13264937D01*
X2336513Y-13254097D01*
X2264036Y-13227717D01*
X2214460Y-13168633D01*
X2200500Y-13105664D01*
X2200500Y-12899500D01*
X2220462Y-12825000D01*
X2275000Y-12770462D01*
X2349500Y-12750500D01*
X2419648Y-12750500D01*
X2459004Y-12742134D01*
X2604803Y-12711144D01*
X2777730Y-12634151D01*
X2829625Y-12596446D01*
X2901627Y-12568806D01*
X2977806Y-12580871D01*
X3004781Y-12596444D01*
X3022270Y-12609151D01*
X3195197Y-12686144D01*
X3336315Y-12716139D01*
X3380352Y-12725500D01*
X3380354Y-12725500D01*
X3569648Y-12725500D01*
X3609004Y-12717134D01*
X3754803Y-12686144D01*
X3927730Y-12609151D01*
X4080871Y-12497888D01*
X4198755Y-12366965D01*
X4207530Y-12357220D01*
X4207531Y-12357218D01*
X4207533Y-12357216D01*
X4302179Y-12193284D01*
X4360674Y-12013256D01*
X4380460Y-11825000D01*
X4360674Y-11636744D01*
X4302179Y-11456716D01*
X4290796Y-11437001D01*
X4270833Y-11362504D01*
X4290792Y-11288006D01*
X4302179Y-11268284D01*
X4360674Y-11088256D01*
X4361843Y-11077129D01*
X4389479Y-11005127D01*
X4449416Y-10956585D01*
X4525594Y-10944515D01*
X4556895Y-10951263D01*
X4672302Y-10989505D01*
X4672311Y-10989507D01*
X4775016Y-10999999D01*
X4825000Y-10999999D01*
X4825000Y-8414404D01*
X4825500Y-8407093D01*
X4825500Y-8362046D01*
X4825891Y-8354422D01*
X4828490Y-8329137D01*
X4830352Y-8311028D01*
X4827666Y-8295447D01*
X4825500Y-8270134D01*
X4825500Y-5624000D01*
X4845462Y-5549500D01*
X4900000Y-5494962D01*
X4974500Y-5475000D01*
X5176000Y-5475000D01*
X5250500Y-5494962D01*
G37*
%TD.AperFunction*%
%TA.AperFunction,Conductor*%
G36*
X10775757Y-10208598D02*
G01*
X10815712Y-10274570D01*
X10817329Y-10351681D01*
X10780173Y-10419270D01*
X10776520Y-10422900D01*
X10776519Y-10422966D01*
X12093120Y-11739567D01*
X12065820Y-11756832D01*
X11878499Y-11922784D01*
X11739488Y-12093041D01*
X10425497Y-10779050D01*
X10408599Y-10798944D01*
X10345154Y-10842801D01*
X10268281Y-10849061D01*
X10198576Y-10816045D01*
X10154719Y-10752600D01*
X10148459Y-10675727D01*
X10151949Y-10660926D01*
X10182665Y-10555204D01*
X10185500Y-10519181D01*
X10185499Y-10329498D01*
X10205461Y-10255000D01*
X10259998Y-10200462D01*
X10334498Y-10180499D01*
X10579175Y-10180499D01*
X10579180Y-10180499D01*
X10615204Y-10177665D01*
X10631058Y-10173058D01*
X10708168Y-10171442D01*
X10775757Y-10208598D01*
G37*
%TD.AperFunction*%
%TA.AperFunction,Conductor*%
G36*
X0Y-5945462D02*
G01*
X54538Y-6000000D01*
X74500Y-6074500D01*
X74500Y-7674984D01*
X54538Y-7749484D01*
X0Y-7804022D01*
X-74500Y-7823984D01*
X-105478Y-7820728D01*
X-205350Y-7799500D01*
X-205354Y-7799500D01*
X-302496Y-7799500D01*
X-376996Y-7779538D01*
X-431534Y-7725000D01*
X-447419Y-7665718D01*
X-452704Y-7660000D01*
X-2026000Y-7660000D01*
X-2100500Y-7640038D01*
X-2155038Y-7585500D01*
X-2175000Y-7511000D01*
X-2175000Y-7309000D01*
X-2155038Y-7234500D01*
X-2100500Y-7179962D01*
X-2026000Y-7160000D01*
X-452704Y-7160000D01*
X-452704Y-7159999D01*
X-452900Y-7157511D01*
X-498719Y-6999803D01*
X-498719Y-6999802D01*
X-586520Y-6851337D01*
X-607261Y-6777050D01*
X-588080Y-6702345D01*
X-586519Y-6699642D01*
X-581921Y-6691866D01*
X-581919Y-6691865D01*
X-498256Y-6550398D01*
X-452402Y-6392569D01*
X-449500Y-6355694D01*
X-449500Y-6074500D01*
X-429538Y-6000000D01*
X-375000Y-5945462D01*
X-300500Y-5925500D01*
X-74500Y-5925500D01*
X0Y-5945462D01*
G37*
%TD.AperFunction*%
%TA.AperFunction,Conductor*%
G36*
X-10101000Y-3094456D02*
G01*
X-10070141Y-3118135D01*
X-10014552Y-3173724D01*
X-10014547Y-3173728D01*
X-9926479Y-3241308D01*
X-9926471Y-3241313D01*
X-9809001Y-3289970D01*
X-9788830Y-3301992D01*
X-9788073Y-3300749D01*
X-9779369Y-3306042D01*
X-9779367Y-3306044D01*
X-9742093Y-3328711D01*
X-9735788Y-3333003D01*
X-9711780Y-3351208D01*
X-9701029Y-3359361D01*
X-9701028Y-3359362D01*
X-9686325Y-3365160D01*
X-9663574Y-3376459D01*
X-9650069Y-3384672D01*
X-9608055Y-3396443D01*
X-9600834Y-3398872D01*
X-9572438Y-3410070D01*
X-9560251Y-3414876D01*
X-9544533Y-3416492D01*
X-9519571Y-3421236D01*
X-9512098Y-3423329D01*
X-9504352Y-3425500D01*
X-9460735Y-3425500D01*
X-9453112Y-3425891D01*
X-9439798Y-3427259D01*
X-9409715Y-3430352D01*
X-9394142Y-3427666D01*
X-9368825Y-3425500D01*
X-7996447Y-3425500D01*
X-7921947Y-3445462D01*
X-7867409Y-3500000D01*
X-7847447Y-3574500D01*
X-7853364Y-3616073D01*
X-7857145Y-3629083D01*
X-7858791Y-3649999D01*
X-7858790Y-3650000D01*
X-7049500Y-3650000D01*
X-6975000Y-3669962D01*
X-6920462Y-3724500D01*
X-6900500Y-3799000D01*
X-6900500Y-4001000D01*
X-6920462Y-4075500D01*
X-6975000Y-4130038D01*
X-7049500Y-4150000D01*
X-7782257Y-4150000D01*
X-7856757Y-4130038D01*
X-7883397Y-4110415D01*
X-7900000Y-4095067D01*
X-7935123Y-4097832D01*
X-7935124Y-4097832D01*
X-8089192Y-4142594D01*
X-8089193Y-4142594D01*
X-8227286Y-4224262D01*
X-8227288Y-4224263D01*
X-8340737Y-4337712D01*
X-8340738Y-4337714D01*
X-8422406Y-4475807D01*
X-8422406Y-4475808D01*
X-8462845Y-4614999D01*
X-8462845Y-4615000D01*
X-7549000Y-4615000D01*
X-7474500Y-4634962D01*
X-7419962Y-4689500D01*
X-7400000Y-4764000D01*
X-7400000Y-4965500D01*
X-7419962Y-5040000D01*
X-7474500Y-5094538D01*
X-7549000Y-5114500D01*
X-7899160Y-5114500D01*
X-7899180Y-5114501D01*
X-7902620Y-5114771D01*
X-7908448Y-5115000D01*
X-8462846Y-5115000D01*
X-8467633Y-5121376D01*
X-8528328Y-5168966D01*
X-8604687Y-5179833D01*
X-8676249Y-5151064D01*
X-8687166Y-5142024D01*
X-8720493Y-5111642D01*
X-8901700Y-4999444D01*
X-8901703Y-4999442D01*
X-9100428Y-4922456D01*
X-9166493Y-4910105D01*
X-9166493Y-5659089D01*
X-9219035Y-5623267D01*
X-9348665Y-5583281D01*
X-9450216Y-5583281D01*
X-9550635Y-5598417D01*
X-9666493Y-5654211D01*
X-9666493Y-4910106D01*
X-9666494Y-4910105D01*
X-9732559Y-4922456D01*
X-9931284Y-4999442D01*
X-9931287Y-4999444D01*
X-10112494Y-5111642D01*
X-10269995Y-5255224D01*
X-10398429Y-5425296D01*
X-10493432Y-5616088D01*
X-10536140Y-5766193D01*
X-10575728Y-5832386D01*
X-10617552Y-5860951D01*
X-10676007Y-5887647D01*
X-10676008Y-5887648D01*
X-10722644Y-5925229D01*
X-10948202Y-6150786D01*
X-11014997Y-6189350D01*
X-11092125Y-6189350D01*
X-11158919Y-6150785D01*
X-11177946Y-6125040D01*
X-11178726Y-6125570D01*
X-11183263Y-6118880D01*
X-11183264Y-6118878D01*
X-11183266Y-6118875D01*
X-11184577Y-6117332D01*
X-11195517Y-6101807D01*
X-11199504Y-6096318D01*
X-11199506Y-6096315D01*
X-11199507Y-6096314D01*
X-11218887Y-6074790D01*
X-11251103Y-6039010D01*
X-11303028Y-5977880D01*
X-11308898Y-5972319D01*
X-11308875Y-5972294D01*
X-11313096Y-5968410D01*
X-11313334Y-5968676D01*
X-11319131Y-5963456D01*
X-11384012Y-5916316D01*
X-11450297Y-5865928D01*
X-11451084Y-5865455D01*
X-11455127Y-5863357D01*
X-11463769Y-5858368D01*
X-11539840Y-5824499D01*
X-11565224Y-5812755D01*
X-11624457Y-5763357D01*
X-11651055Y-5690961D01*
X-11637891Y-5614964D01*
X-11588493Y-5555731D01*
X-11539716Y-5533207D01*
X-11439469Y-5507468D01*
X-11439469Y-5507467D01*
X-11439466Y-5507467D01*
X-11298762Y-5430115D01*
X-11271285Y-5406647D01*
X-10989602Y-5124963D01*
X-10966133Y-5097486D01*
X-10888781Y-4956782D01*
X-10879968Y-4922456D01*
X-10875849Y-4906416D01*
X-10837987Y-4839220D01*
X-10771599Y-4799959D01*
X-10768584Y-4799151D01*
X-10750630Y-4794540D01*
X-10718218Y-4786219D01*
X-10577514Y-4708867D01*
X-10550037Y-4685399D01*
X-10268354Y-4403715D01*
X-10244885Y-4376238D01*
X-10167533Y-4235534D01*
X-10127602Y-4080014D01*
X-10127602Y-3919449D01*
X-10151640Y-3825826D01*
X-10167532Y-3763930D01*
X-10244884Y-3623227D01*
X-10244886Y-3623224D01*
X-10250993Y-3616073D01*
X-10268353Y-3595748D01*
X-10280859Y-3583242D01*
X-10319423Y-3516447D01*
X-10324500Y-3477883D01*
X-10324500Y-3223494D01*
X-10304538Y-3148994D01*
X-10250000Y-3094456D01*
X-10175500Y-3074494D01*
X-10101000Y-3094456D01*
G37*
%TD.AperFunction*%
%TA.AperFunction,Conductor*%
G36*
X-12782627Y-4547574D02*
G01*
X-12744063Y-4614369D01*
X-12739101Y-4647085D01*
X-12738324Y-4666874D01*
X-12716580Y-4685446D01*
X-12718625Y-4687839D01*
X-12678465Y-4735139D01*
X-12664631Y-4811016D01*
X-12690589Y-4883645D01*
X-12707778Y-4904251D01*
X-13207619Y-5404093D01*
X-13256044Y-5449319D01*
X-13278706Y-5486583D01*
X-13282998Y-5492891D01*
X-13309361Y-5527657D01*
X-13309362Y-5527657D01*
X-13315163Y-5542368D01*
X-13326457Y-5565108D01*
X-13334674Y-5578621D01*
X-13334675Y-5578623D01*
X-13346443Y-5620622D01*
X-13348874Y-5627853D01*
X-13364877Y-5668434D01*
X-13365161Y-5669602D01*
X-13365790Y-5670749D01*
X-13368614Y-5677913D01*
X-13369517Y-5677557D01*
X-13402198Y-5737256D01*
X-13468099Y-5777328D01*
X-13545207Y-5779080D01*
X-13612861Y-5742043D01*
X-13636739Y-5712540D01*
X-13663219Y-5669609D01*
X-13782109Y-5550719D01*
X-13782112Y-5550717D01*
X-13783941Y-5548888D01*
X-13822505Y-5482093D01*
X-13822505Y-5404965D01*
X-13783943Y-5338172D01*
X-12993343Y-4547572D01*
X-12926550Y-4509010D01*
X-12849422Y-4509010D01*
X-12782627Y-4547574D01*
G37*
%TD.AperFunction*%
%TA.AperFunction,Conductor*%
G36*
X825000Y2980038D02*
G01*
X879538Y2925500D01*
X899500Y2851001D01*
X899501Y2699001D01*
X879539Y2624501D01*
X825002Y2569963D01*
X750502Y2550000D01*
X550000Y2550000D01*
X550000Y1750000D01*
X597825Y1750000D01*
X597834Y1750001D01*
X634069Y1753897D01*
X665931Y1753897D01*
X702165Y1750001D01*
X702175Y1750000D01*
X750000Y1750000D01*
X750000Y1835453D01*
X769962Y1909953D01*
X824500Y1964491D01*
X899000Y1984453D01*
X973500Y1964491D01*
X1018280Y1924746D01*
X1042452Y1892456D01*
X1042455Y1892453D01*
X1079785Y1864508D01*
X1127332Y1828914D01*
X1140293Y1819212D01*
X1175289Y1774711D01*
X1210782Y1739218D01*
X1245040Y1730038D01*
X1299578Y1675500D01*
X1317754Y1607664D01*
X1318724Y1607765D01*
X1319367Y1601645D01*
X1319540Y1601000D01*
X1319540Y1600001D01*
X1339325Y1411746D01*
X1384322Y1273260D01*
X1397821Y1231716D01*
X1397822Y1231715D01*
X1492469Y1067780D01*
X1619127Y927114D01*
X1619129Y927112D01*
X1772270Y815849D01*
X1945197Y738856D01*
X2075498Y711160D01*
X2130352Y699500D01*
X2225500Y699500D01*
X2300000Y679538D01*
X2354538Y625000D01*
X2374500Y550500D01*
X2374500Y198419D01*
X2374364Y193920D01*
X2370642Y132395D01*
X2381755Y71740D01*
X2382432Y67293D01*
X2389859Y6130D01*
X2389861Y6123D01*
X2392648Y-1227D01*
X2399884Y-27185D01*
X2401303Y-34925D01*
X2401305Y-34934D01*
X2426604Y-91144D01*
X2428326Y-95302D01*
X2450181Y-152929D01*
X2454647Y-159398D01*
X2467896Y-182890D01*
X2471120Y-190053D01*
X2471124Y-190060D01*
X2509136Y-238579D01*
X2511802Y-242203D01*
X2546456Y-292406D01*
X2546817Y-292929D01*
X2589156Y-330438D01*
X2592943Y-333793D01*
X2596221Y-336878D01*
X3538119Y-1278777D01*
X3541193Y-1282041D01*
X3582071Y-1328183D01*
X3632817Y-1363211D01*
X3636400Y-1365847D01*
X3662375Y-1386197D01*
X3684938Y-1403875D01*
X3684943Y-1403878D01*
X3692107Y-1407102D01*
X3715600Y-1420352D01*
X3722069Y-1424817D01*
X3722070Y-1424818D01*
X3779711Y-1446677D01*
X3783861Y-1448397D01*
X3840063Y-1473692D01*
X3840064Y-1473692D01*
X3840068Y-1473694D01*
X3847799Y-1475110D01*
X3873774Y-1482350D01*
X3881128Y-1485140D01*
X3934010Y-1491560D01*
X3942328Y-1492571D01*
X3946744Y-1493242D01*
X4007394Y-1504357D01*
X4068913Y-1500635D01*
X4073407Y-1500500D01*
X5901582Y-1500500D01*
X5906077Y-1500635D01*
X5967606Y-1504358D01*
X6028266Y-1493241D01*
X6032688Y-1492569D01*
X6047169Y-1490810D01*
X6093872Y-1485140D01*
X6101208Y-1482357D01*
X6127193Y-1475112D01*
X6134932Y-1473695D01*
X6191190Y-1448374D01*
X6195259Y-1446689D01*
X6252930Y-1424818D01*
X6259394Y-1420355D01*
X6282891Y-1407102D01*
X6290057Y-1403878D01*
X6338580Y-1365862D01*
X6342203Y-1363196D01*
X6392929Y-1328183D01*
X6433807Y-1282040D01*
X6436862Y-1278793D01*
X6650290Y-1065367D01*
X6691063Y-1013323D01*
X6752720Y-966990D01*
X6829286Y-957692D01*
X6870250Y-969679D01*
X6922690Y-993627D01*
X6956502Y-1009069D01*
X6986104Y-1013325D01*
X7098957Y-1029551D01*
X7098960Y-1029551D01*
X7098963Y-1029551D01*
X7184434Y-1017261D01*
X7241417Y-1009069D01*
X7245761Y-1007084D01*
X7251415Y-1006133D01*
X7251643Y-1006067D01*
X7251651Y-1006094D01*
X7321821Y-994291D01*
X7394087Y-1021241D01*
X7413023Y-1037258D01*
X7819091Y-1443326D01*
X7825523Y-1450661D01*
X7846714Y-1478278D01*
X7846716Y-1478279D01*
X7846718Y-1478282D01*
X7928428Y-1540980D01*
X7972115Y-1574503D01*
X7972157Y-1574535D01*
X7972160Y-1574537D01*
X8118240Y-1635045D01*
X8274997Y-1655682D01*
X8275000Y-1655682D01*
X8275001Y-1655682D01*
X8283775Y-1654526D01*
X8309517Y-1651137D01*
X8319247Y-1650500D01*
X8952549Y-1650500D01*
X9027049Y-1670462D01*
X9081587Y-1725000D01*
X9100733Y-1783926D01*
X9114325Y-1913254D01*
X9172819Y-2093278D01*
X9172821Y-2093284D01*
X9207288Y-2152982D01*
X9267469Y-2257220D01*
X9362855Y-2363155D01*
X9394129Y-2397888D01*
X9547270Y-2509151D01*
X9720197Y-2586144D01*
X9861315Y-2616139D01*
X9905352Y-2625500D01*
X9905354Y-2625500D01*
X10094651Y-2625500D01*
X10102417Y-2624684D01*
X10102568Y-2626125D01*
X10170876Y-2629703D01*
X10235562Y-2671708D01*
X10270579Y-2740429D01*
X10266545Y-2817452D01*
X10253088Y-2847256D01*
X10237509Y-2873599D01*
X10237503Y-2873611D01*
X10209912Y-2968581D01*
X10169957Y-3034553D01*
X10102369Y-3071709D01*
X10051262Y-3075195D01*
X10044646Y-3074500D01*
X9855354Y-3074500D01*
X9855352Y-3074500D01*
X9755392Y-3095747D01*
X9670197Y-3113856D01*
X9670195Y-3113856D01*
X9670194Y-3113857D01*
X9518002Y-3181618D01*
X9457398Y-3194500D01*
X9012823Y-3194500D01*
X9005219Y-3194907D01*
X8985795Y-3195948D01*
X8985789Y-3195948D01*
X8985784Y-3195949D01*
X8974232Y-3197191D01*
X8945976Y-3200229D01*
X8892556Y-3208885D01*
X8892554Y-3208885D01*
X8892552Y-3208886D01*
X8841430Y-3227954D01*
X8757747Y-3259166D01*
X8757744Y-3259167D01*
X8696424Y-3292650D01*
X8696416Y-3292655D01*
X8581241Y-3378874D01*
X8581236Y-3378879D01*
X7634257Y-4325859D01*
X7567462Y-4364423D01*
X7528898Y-4369500D01*
X7304500Y-4369500D01*
X7230000Y-4349538D01*
X7175462Y-4295000D01*
X7155500Y-4220500D01*
X7155499Y-3825826D01*
X7155499Y-3825825D01*
X7152665Y-3789800D01*
X7152665Y-3789796D01*
X7107869Y-3635607D01*
X7094703Y-3613345D01*
X7073962Y-3539064D01*
X7093141Y-3464359D01*
X7094636Y-3461766D01*
X7107869Y-3439393D01*
X7152665Y-3285204D01*
X7155500Y-3249181D01*
X7155499Y-2750820D01*
X7152665Y-2714796D01*
X7107869Y-2560607D01*
X7026135Y-2422402D01*
X6912598Y-2308865D01*
X6808960Y-2247574D01*
X6774395Y-2227132D01*
X6774394Y-2227131D01*
X6774393Y-2227131D01*
X6709798Y-2208364D01*
X6620206Y-2182335D01*
X6608196Y-2181390D01*
X6584181Y-2179500D01*
X6584177Y-2179500D01*
X6424836Y-2179500D01*
X6185820Y-2179501D01*
X6172688Y-2180534D01*
X6149800Y-2182334D01*
X6149796Y-2182335D01*
X5995603Y-2227132D01*
X5950845Y-2253602D01*
X5876558Y-2274342D01*
X5801854Y-2255160D01*
X5799155Y-2253602D01*
X5754396Y-2227132D01*
X5754389Y-2227130D01*
X5704012Y-2212494D01*
X5600206Y-2182335D01*
X5588196Y-2181390D01*
X5564181Y-2179500D01*
X5564177Y-2179500D01*
X5404836Y-2179500D01*
X5165820Y-2179501D01*
X5152688Y-2180534D01*
X5129800Y-2182334D01*
X5129793Y-2182335D01*
X4975611Y-2227129D01*
X4967007Y-2230853D01*
X4966468Y-2229608D01*
X4901551Y-2247730D01*
X4833277Y-2230195D01*
X4832993Y-2230853D01*
X4828840Y-2229055D01*
X4826847Y-2228544D01*
X4824422Y-2227144D01*
X4824395Y-2227132D01*
X4824393Y-2227131D01*
X4824390Y-2227130D01*
X4670206Y-2182335D01*
X4658196Y-2181390D01*
X4634181Y-2179500D01*
X4634177Y-2179500D01*
X4474836Y-2179500D01*
X4235820Y-2179501D01*
X4222688Y-2180534D01*
X4199800Y-2182334D01*
X4199796Y-2182335D01*
X4045603Y-2227132D01*
X4000845Y-2253602D01*
X3926558Y-2274342D01*
X3851854Y-2255160D01*
X3849155Y-2253602D01*
X3804396Y-2227132D01*
X3804389Y-2227130D01*
X3754012Y-2212494D01*
X3650206Y-2182335D01*
X3638196Y-2181390D01*
X3614181Y-2179500D01*
X3614177Y-2179500D01*
X3454836Y-2179500D01*
X3215820Y-2179501D01*
X3202688Y-2180534D01*
X3179800Y-2182334D01*
X3179790Y-2182336D01*
X3158476Y-2188528D01*
X3081365Y-2190141D01*
X3013779Y-2152982D01*
X2977305Y-2097512D01*
X2943796Y-2007669D01*
X2943795Y-2007668D01*
X2943795Y-2007666D01*
X2857547Y-1892455D01*
X2857544Y-1892452D01*
X2742333Y-1806204D01*
X2742329Y-1806202D01*
X2607482Y-1755908D01*
X2547876Y-1749500D01*
X2002126Y-1749500D01*
X1965919Y-1753392D01*
X1934073Y-1753391D01*
X1897889Y-1749501D01*
X1897877Y-1749500D01*
X1897873Y-1749500D01*
X1897866Y-1749500D01*
X1352126Y-1749500D01*
X1315919Y-1753392D01*
X1284073Y-1753391D01*
X1247889Y-1749501D01*
X1247877Y-1749500D01*
X1247873Y-1749500D01*
X1247866Y-1749500D01*
X702126Y-1749500D01*
X665919Y-1753392D01*
X634073Y-1753391D01*
X597889Y-1749501D01*
X597877Y-1749500D01*
X597873Y-1749500D01*
X597866Y-1749500D01*
X52126Y-1749500D01*
X15919Y-1753392D01*
X-15927Y-1753391D01*
X-52111Y-1749501D01*
X-52123Y-1749500D01*
X-52127Y-1749500D01*
X-52134Y-1749500D01*
X-597874Y-1749500D01*
X-634081Y-1753392D01*
X-665927Y-1753391D01*
X-702111Y-1749501D01*
X-702123Y-1749500D01*
X-702127Y-1749500D01*
X-702134Y-1749500D01*
X-1247874Y-1749500D01*
X-1284081Y-1753392D01*
X-1315927Y-1753391D01*
X-1352111Y-1749501D01*
X-1352123Y-1749500D01*
X-1352127Y-1749500D01*
X-1352134Y-1749500D01*
X-1897874Y-1749500D01*
X-1934081Y-1753392D01*
X-1965927Y-1753391D01*
X-2002111Y-1749501D01*
X-2002123Y-1749500D01*
X-2002127Y-1749500D01*
X-2002134Y-1749500D01*
X-2250500Y-1749500D01*
X-2325000Y-1729538D01*
X-2379538Y-1675000D01*
X-2399500Y-1600500D01*
X-2399500Y1300500D01*
X-2379538Y1375000D01*
X-2325000Y1429538D01*
X-2250500Y1449500D01*
X-1234397Y1449500D01*
X-1168174Y1447238D01*
X-1125788Y1457569D01*
X-1118311Y1458989D01*
X-1075080Y1464930D01*
X-1060582Y1471229D01*
X-1036499Y1479327D01*
X-1021148Y1483067D01*
X-983127Y1504446D01*
X-976291Y1507841D01*
X-936280Y1525220D01*
X-924023Y1535194D01*
X-903025Y1549485D01*
X-889241Y1557234D01*
X-858382Y1588095D01*
X-852745Y1593182D01*
X-818892Y1620722D01*
X-809776Y1633638D01*
X-793414Y1653063D01*
X-737306Y1709171D01*
X-670513Y1747733D01*
X-616019Y1751956D01*
X-597836Y1750001D01*
X-597823Y1750000D01*
X-550000Y1750000D01*
X-531675Y1768326D01*
X-530038Y1774432D01*
X-490293Y1819212D01*
X-392454Y1892454D01*
X-368280Y1924746D01*
X-307653Y1972423D01*
X-231310Y1983399D01*
X-159707Y1954733D01*
X-112030Y1894106D01*
X-100000Y1835453D01*
X-100000Y1750000D01*
X-52175Y1750000D01*
X-52166Y1750001D01*
X-15931Y1753897D01*
X15931Y1753897D01*
X52165Y1750001D01*
X52175Y1750000D01*
X100000Y1750000D01*
X100000Y2550000D01*
X-100500Y2550000D01*
X-175000Y2569962D01*
X-229538Y2624500D01*
X-249500Y2698999D01*
X-249501Y2850999D01*
X-229539Y2925499D01*
X-175002Y2980037D01*
X-100502Y3000000D01*
X750500Y3000000D01*
X825000Y2980038D01*
G37*
%TD.AperFunction*%
%TA.AperFunction,Conductor*%
G36*
X-14483904Y-1566068D02*
G01*
X-14341069Y-1708903D01*
X-14302505Y-1775698D01*
X-14302505Y-1852826D01*
X-14341069Y-1919621D01*
X-14913323Y-2491874D01*
X-14897370Y-2505501D01*
X-14897365Y-2505504D01*
X-14747455Y-2587917D01*
X-14749185Y-2591062D01*
X-14701962Y-2626107D01*
X-14689219Y-2648170D01*
X-14687918Y-2647455D01*
X-14605504Y-2797365D01*
X-14605499Y-2797373D01*
X-14581868Y-2825041D01*
X-14322875Y-3084032D01*
X-14284311Y-3150826D01*
X-14284311Y-3227954D01*
X-14322872Y-3294747D01*
X-14334168Y-3306044D01*
X-14358982Y-3330857D01*
X-14425773Y-3369422D01*
X-14464341Y-3374500D01*
X-14635049Y-3374500D01*
X-14709549Y-3354538D01*
X-14740408Y-3330859D01*
X-14762401Y-3308866D01*
X-14762402Y-3308865D01*
X-14900607Y-3227131D01*
X-14965202Y-3208364D01*
X-15054794Y-3182335D01*
X-15066804Y-3181390D01*
X-15090819Y-3179500D01*
X-15090823Y-3179500D01*
X-15250164Y-3179500D01*
X-15489180Y-3179501D01*
X-15502312Y-3180534D01*
X-15525200Y-3182334D01*
X-15525213Y-3182336D01*
X-15568933Y-3195038D01*
X-15646044Y-3196652D01*
X-15713631Y-3159495D01*
X-15753584Y-3093521D01*
X-15759500Y-3051954D01*
X-15759500Y-1924742D01*
X-15739538Y-1850242D01*
X-15715864Y-1819387D01*
X-15649092Y-1752616D01*
X-15582301Y-1714054D01*
X-15505173Y-1714054D01*
X-15438378Y-1752617D01*
X-15399813Y-1819412D01*
X-15399417Y-1820923D01*
X-15358402Y-1980668D01*
X-15280501Y-2122370D01*
X-15266877Y-2138322D01*
X-14694622Y-1566068D01*
X-14627827Y-1527504D01*
X-14550699Y-1527504D01*
X-14483904Y-1566068D01*
G37*
%TD.AperFunction*%
%TA.AperFunction,Conductor*%
G36*
X-4184141Y143623D02*
G01*
X-4145577Y76828D01*
X-4140500Y38264D01*
X-4140500Y-2941000D01*
X-4160462Y-3015500D01*
X-4215000Y-3070038D01*
X-4289496Y-3090000D01*
X-4324629Y-3090001D01*
X-4324631Y-3090001D01*
X-4360912Y-3092854D01*
X-4516195Y-3137967D01*
X-4523666Y-3142386D01*
X-4597954Y-3163125D01*
X-4672658Y-3143942D01*
X-4675356Y-3142384D01*
X-4683601Y-3137508D01*
X-4683609Y-3137504D01*
X-4838999Y-3092358D01*
X-4839005Y-3092357D01*
X-4851108Y-3091404D01*
X-4875310Y-3089500D01*
X-4875314Y-3089500D01*
X-5050257Y-3089500D01*
X-5124757Y-3069538D01*
X-5155616Y-3045859D01*
X-5430859Y-2770616D01*
X-5469423Y-2703821D01*
X-5474500Y-2665257D01*
X-5474500Y-2049500D01*
X-5454538Y-1975000D01*
X-5400000Y-1920462D01*
X-5325500Y-1900500D01*
X-5280852Y-1900500D01*
X-5241496Y-1892134D01*
X-5095697Y-1861144D01*
X-4922770Y-1784151D01*
X-4769629Y-1672888D01*
X-4681042Y-1574503D01*
X-4642970Y-1532220D01*
X-4642969Y-1532218D01*
X-4642967Y-1532216D01*
X-4548321Y-1368284D01*
X-4489826Y-1188256D01*
X-4470040Y-1000000D01*
X-4488155Y-827655D01*
X-4488562Y-819864D01*
X-4488562Y-799512D01*
X-4486727Y-776201D01*
X-4483902Y-758366D01*
X-4488231Y-712565D01*
X-4488562Y-705550D01*
X-4488562Y-11798D01*
X-4468600Y62702D01*
X-4444921Y93561D01*
X-4394859Y143623D01*
X-4328064Y182187D01*
X-4250936Y182187D01*
X-4184141Y143623D01*
G37*
%TD.AperFunction*%
%TA.AperFunction,Conductor*%
G36*
X-13808904Y-2241068D02*
G01*
X-13762955Y-2287017D01*
X-13724391Y-2353812D01*
X-13724391Y-2430940D01*
X-13726606Y-2438419D01*
X-13757288Y-2532850D01*
X-13760647Y-2543187D01*
X-13761618Y-2552429D01*
X-13789258Y-2624435D01*
X-13849198Y-2672973D01*
X-13925376Y-2685039D01*
X-13997382Y-2657399D01*
X-14015161Y-2642214D01*
X-14112606Y-2544769D01*
X-14151170Y-2477974D01*
X-14151170Y-2400846D01*
X-14112606Y-2334051D01*
X-14112605Y-2334051D01*
X-14019621Y-2241068D01*
X-13952826Y-2202504D01*
X-13875698Y-2202504D01*
X-13808904Y-2241068D01*
G37*
%TD.AperFunction*%
%TA.AperFunction,Conductor*%
G36*
X13194602Y17491004D02*
G01*
X13394966Y17481740D01*
X13401221Y17481185D01*
X13601571Y17454808D01*
X13795578Y17427745D01*
X13801345Y17426705D01*
X13999710Y17382729D01*
X14189661Y17338052D01*
X14194977Y17336592D01*
X14322788Y17296293D01*
X14389219Y17275347D01*
X14422180Y17264300D01*
X14574134Y17213371D01*
X14578906Y17211585D01*
X14767446Y17133489D01*
X14945794Y17054740D01*
X14950060Y17052690D01*
X15131369Y16958307D01*
X15301681Y16863443D01*
X15305458Y16861190D01*
X15391522Y16806363D01*
X15478059Y16751232D01*
X15639014Y16640976D01*
X15642239Y16638636D01*
X15804780Y16513914D01*
X15955012Y16389163D01*
X15957715Y16386804D01*
X16074366Y16279914D01*
X16108911Y16248259D01*
X16248258Y16108912D01*
X16386798Y15957722D01*
X16389167Y15955007D01*
X16450023Y15881722D01*
X16513912Y15804783D01*
X16638634Y15642241D01*
X16640984Y15639002D01*
X16751229Y15478064D01*
X16771359Y15446467D01*
X16861188Y15305460D01*
X16863440Y15301684D01*
X16958309Y15131364D01*
X17052688Y14950062D01*
X17054751Y14945769D01*
X17133492Y14767436D01*
X17160314Y14702684D01*
X17211574Y14578930D01*
X17213380Y14574103D01*
X17228516Y14528944D01*
X17275346Y14389220D01*
X17336583Y14195001D01*
X17338052Y14189654D01*
X17382737Y13999669D01*
X17426697Y13801378D01*
X17427749Y13795544D01*
X17454816Y13601505D01*
X17481181Y13401242D01*
X17481739Y13394956D01*
X17491009Y13194465D01*
X17499500Y13000000D01*
X17499500Y-1630191D01*
X17479538Y-1704691D01*
X17425000Y-1759229D01*
X17350500Y-1779191D01*
X17276000Y-1759229D01*
X17245141Y-1735550D01*
X17156726Y-1647135D01*
X17119002Y-1583348D01*
X17097869Y-1510607D01*
X17016135Y-1372402D01*
X16975325Y-1331592D01*
X16936761Y-1264797D01*
X16936761Y-1187669D01*
X16939247Y-1179365D01*
X16989505Y-1027697D01*
X16989507Y-1027688D01*
X16999999Y-924989D01*
X17000000Y-924979D01*
X17000000Y-125000D01*
X15499000Y-125000D01*
X15424500Y-105038D01*
X15369962Y-50500D01*
X15350000Y24000D01*
X15350000Y1875000D01*
X15850000Y1875000D01*
X15850000Y375000D01*
X16999999Y375000D01*
X16999999Y1174974D01*
X16989505Y1277697D01*
X16934357Y1444122D01*
X16842319Y1593341D01*
X16718340Y1717320D01*
X16569121Y1809358D01*
X16402697Y1864506D01*
X16402688Y1864508D01*
X16299989Y1875000D01*
X15850000Y1875000D01*
X15350000Y1875000D01*
X14900026Y1875000D01*
X14797303Y1864506D01*
X14630878Y1809358D01*
X14481659Y1717320D01*
X14357680Y1593341D01*
X14276317Y1461428D01*
X14220216Y1408499D01*
X14145167Y1390712D01*
X14071279Y1412832D01*
X14018350Y1468933D01*
X14000500Y1539649D01*
X14000500Y1604170D01*
X13998187Y1626813D01*
X13990436Y1702685D01*
X13937549Y1862287D01*
X13849281Y2005391D01*
X13730391Y2124281D01*
X13587287Y2212549D01*
X13541000Y2227887D01*
X13427686Y2265436D01*
X13427687Y2265436D01*
X13394848Y2268791D01*
X13329174Y2275500D01*
X12749500Y2275500D01*
X12675000Y2295462D01*
X12620462Y2350000D01*
X12600500Y2424500D01*
X12600500Y3211594D01*
X12600636Y3216093D01*
X12604357Y3277606D01*
X12593242Y3338256D01*
X12592571Y3342672D01*
X12589128Y3371028D01*
X12585140Y3403872D01*
X12582350Y3411226D01*
X12575110Y3437201D01*
X12573694Y3444932D01*
X12548387Y3501160D01*
X12546685Y3505270D01*
X12524818Y3562930D01*
X12520348Y3569406D01*
X12507097Y3592900D01*
X12503877Y3600057D01*
X12465851Y3648593D01*
X12463217Y3652173D01*
X12428183Y3702929D01*
X12382054Y3743796D01*
X12378777Y3746880D01*
X10200515Y5925142D01*
X10161951Y5991937D01*
X10161951Y6069065D01*
X10200515Y6135860D01*
X10267310Y6174424D01*
X10305869Y6179501D01*
X10559180Y6179501D01*
X10595204Y6182335D01*
X10749393Y6227131D01*
X10887598Y6308865D01*
X10953853Y6375121D01*
X11020646Y6413684D01*
X11097774Y6413684D01*
X11100783Y6412844D01*
X11135003Y6402902D01*
X11135006Y6402901D01*
X11171862Y6400000D01*
X11575000Y6400000D01*
X11575000Y6950000D01*
X12075000Y6950000D01*
X12075000Y6400000D01*
X12478138Y6400000D01*
X12514993Y6402901D01*
X12672696Y6448719D01*
X12672697Y6448719D01*
X12814054Y6532317D01*
X12814057Y6532319D01*
X12930181Y6648443D01*
X12930183Y6648446D01*
X13013781Y6789803D01*
X13013781Y6789804D01*
X13059600Y6947512D01*
X13059796Y6950000D01*
X12075000Y6950000D01*
X11575000Y6950000D01*
X11575000Y8000000D01*
X11171862Y8000000D01*
X11135006Y7997100D01*
X11135003Y7997099D01*
X11101069Y7987240D01*
X11023958Y7985625D01*
X10956370Y8022782D01*
X10916416Y8088755D01*
X10910500Y8130324D01*
X10910500Y8169156D01*
X10930462Y8243656D01*
X10985000Y8298194D01*
X11059500Y8318156D01*
X11101071Y8312239D01*
X11134922Y8302404D01*
X11134926Y8302404D01*
X11134931Y8302402D01*
X11171806Y8299500D01*
X12313000Y8299500D01*
X12387500Y8279538D01*
X12442038Y8225000D01*
X12462000Y8150500D01*
X12462000Y8149000D01*
X12442038Y8074500D01*
X12387500Y8019962D01*
X12313000Y8000000D01*
X12075000Y8000000D01*
X12075000Y7450000D01*
X12723845Y7450000D01*
X12798345Y7430038D01*
X12799692Y7429251D01*
X12852102Y7398256D01*
X13009931Y7352402D01*
X13046806Y7349500D01*
X13046810Y7349500D01*
X14353185Y7349500D01*
X14353194Y7349500D01*
X14363804Y7350336D01*
X14439637Y7336286D01*
X14498289Y7286199D01*
X14524040Y7213497D01*
X14524500Y7201796D01*
X14524500Y6843384D01*
X14530389Y6778583D01*
X14530914Y6772804D01*
X14552577Y6703282D01*
X14581522Y6610394D01*
X14632054Y6526804D01*
X14662326Y6476728D01*
X14683784Y6402645D01*
X14673411Y6351303D01*
X14675234Y6350710D01*
X14614325Y6163255D01*
X14594540Y5975000D01*
X14603248Y5892140D01*
X14591182Y5815962D01*
X14542643Y5756022D01*
X14533285Y5749751D01*
X14481353Y5717720D01*
X14481347Y5717715D01*
X14357288Y5593657D01*
X14265186Y5444334D01*
X14210001Y5277799D01*
X14210001Y5277798D01*
X14210001Y5277797D01*
X14202633Y5205669D01*
X14199500Y5175005D01*
X14199500Y3074997D01*
X14209201Y2980038D01*
X14210001Y2972203D01*
X14265186Y2805666D01*
X14357288Y2656344D01*
X14481344Y2532288D01*
X14630666Y2440186D01*
X14797203Y2385001D01*
X14899991Y2374500D01*
X16300008Y2374501D01*
X16402797Y2385001D01*
X16569334Y2440186D01*
X16718656Y2532288D01*
X16842712Y2656344D01*
X16934814Y2805666D01*
X16989999Y2972203D01*
X17000500Y3074991D01*
X17000499Y5175008D01*
X16989999Y5277797D01*
X16934814Y5444334D01*
X16842712Y5593656D01*
X16718656Y5717712D01*
X16569334Y5809814D01*
X16507591Y5830274D01*
X16443153Y5872656D01*
X16408538Y5941580D01*
X16405460Y5971710D01*
X16405460Y5974999D01*
X16403677Y5991969D01*
X16385674Y6163256D01*
X16339503Y6305354D01*
X16324766Y6350711D01*
X16327101Y6351470D01*
X16316999Y6415205D01*
X16337672Y6476726D01*
X16418478Y6610394D01*
X16469086Y6772804D01*
X16475500Y6843384D01*
X16475500Y7356616D01*
X16469086Y7427196D01*
X16418478Y7589606D01*
X16418475Y7589611D01*
X16414777Y7597830D01*
X16417768Y7599177D01*
X16400968Y7657116D01*
X16401752Y7675723D01*
X16409612Y7750500D01*
X16389826Y7938756D01*
X16352926Y8052319D01*
X16348890Y8129339D01*
X16367123Y8175444D01*
X16403454Y8235542D01*
X16418476Y8260390D01*
X16418476Y8260392D01*
X16418478Y8260394D01*
X16469086Y8422804D01*
X16475500Y8493384D01*
X16475500Y9006616D01*
X16469086Y9077196D01*
X16418478Y9239606D01*
X16330472Y9385185D01*
X16210185Y9505472D01*
X16210184Y9505473D01*
X16139855Y9547988D01*
X16086426Y9603613D01*
X16067968Y9678500D01*
X16089426Y9752583D01*
X16145051Y9806012D01*
X16216938Y9824500D01*
X16271959Y9824500D01*
X16271961Y9824500D01*
X16410053Y9865047D01*
X16531128Y9942857D01*
X16625377Y10051627D01*
X16685165Y10182543D01*
X16700167Y10286885D01*
X16705647Y10324997D01*
X16705647Y10325004D01*
X16691561Y10422969D01*
X16685165Y10467457D01*
X16625377Y10598373D01*
X16531128Y10707143D01*
X16531127Y10707144D01*
X16465368Y10749404D01*
X16410053Y10784953D01*
X16406460Y10786008D01*
X16271967Y10825499D01*
X16271962Y10825500D01*
X16271961Y10825500D01*
X16128039Y10825500D01*
X16128037Y10825500D01*
X16128032Y10825499D01*
X15989949Y10784954D01*
X15989947Y10784954D01*
X15989947Y10784953D01*
X15934633Y10749405D01*
X15921891Y10741216D01*
X15848425Y10717732D01*
X15773060Y10734127D01*
X15715989Y10786008D01*
X15692505Y10859474D01*
X15708900Y10934839D01*
X15718011Y10950180D01*
X15917592Y11244539D01*
X15917595Y11244544D01*
X16090284Y11570272D01*
X16090290Y11570285D01*
X16226750Y11912774D01*
X16226752Y11912779D01*
X16325386Y12268024D01*
X16325386Y12268026D01*
X16385034Y12631858D01*
X16385034Y12631864D01*
X16404994Y13000000D01*
X16404994Y13000009D01*
X16385034Y13368137D01*
X16385034Y13368143D01*
X16325386Y13731975D01*
X16325386Y13731977D01*
X16226752Y14087222D01*
X16226750Y14087227D01*
X16090290Y14429716D01*
X16090284Y14429729D01*
X15917595Y14755457D01*
X15917592Y14755462D01*
X15710696Y15060609D01*
X15710687Y15060621D01*
X15574502Y15220950D01*
X15574501Y15220950D01*
X14258648Y13905097D01*
X14204544Y13983480D01*
X14031184Y14163966D01*
X13905132Y14258688D01*
X15223479Y15577034D01*
X15204347Y15595156D01*
X14910834Y15818279D01*
X14594933Y16008351D01*
X14260315Y16163161D01*
X14260305Y16163166D01*
X13910936Y16280881D01*
X13550868Y16360138D01*
X13184343Y16400000D01*
X12815656Y16400000D01*
X12449131Y16360138D01*
X12449130Y16360138D01*
X12089063Y16280881D01*
X11739694Y16163166D01*
X11739684Y16163161D01*
X11405066Y16008351D01*
X11089165Y15818279D01*
X10795663Y15595165D01*
X10776520Y15577033D01*
X12093120Y14260433D01*
X12065820Y14243168D01*
X11878499Y14077216D01*
X11739488Y13906959D01*
X10425496Y15220951D01*
X10386415Y15219362D01*
X10311166Y15236282D01*
X10254458Y15288560D01*
X10231487Y15362188D01*
X10248407Y15437437D01*
X10253551Y15446467D01*
X10259358Y15455882D01*
X10314505Y15622303D01*
X10314507Y15622312D01*
X10324999Y15725011D01*
X10325000Y15725021D01*
X10325000Y16000000D01*
X9575000Y16000000D01*
X9575000Y12074000D01*
X9555038Y11999500D01*
X9500500Y11944962D01*
X9426000Y11925000D01*
X9224000Y11925000D01*
X9149500Y11944962D01*
X9094962Y11999500D01*
X9075000Y12074000D01*
X9075000Y16351000D01*
X9094962Y16425500D01*
X9149500Y16480038D01*
X9224000Y16500000D01*
X10324999Y16500000D01*
X10324999Y16774974D01*
X10314505Y16877697D01*
X10259357Y17044122D01*
X10167319Y17193341D01*
X10115519Y17245141D01*
X10076955Y17311936D01*
X10076955Y17389064D01*
X10115519Y17455859D01*
X10182314Y17494423D01*
X10220878Y17499500D01*
X12999500Y17499500D01*
X13000000Y17499500D01*
X13194602Y17491004D01*
G37*
%TD.AperFunction*%
%TA.AperFunction,Conductor*%
G36*
X-531577Y5048203D02*
G01*
X-528853Y5047704D01*
X-517606Y5045643D01*
X-456088Y5049365D01*
X-451594Y5049500D01*
X622963Y5049500D01*
X697463Y5029538D01*
X752001Y4975000D01*
X771963Y4900500D01*
X752001Y4826000D01*
X698810Y4772249D01*
X584625Y4704721D01*
X584623Y4704720D01*
X470280Y4590377D01*
X470279Y4590375D01*
X387968Y4451195D01*
X387968Y4451194D01*
X342855Y4295918D01*
X341209Y4275001D01*
X341210Y4275000D01*
X1150500Y4275000D01*
X1225000Y4255038D01*
X1279538Y4200500D01*
X1299500Y4126000D01*
X1299500Y3900150D01*
X1279538Y3825650D01*
X1225000Y3771112D01*
X1202571Y3760545D01*
X1157673Y3743799D01*
X1157666Y3743796D01*
X1042455Y3657548D01*
X1042451Y3657544D01*
X1018279Y3625254D01*
X957652Y3577577D01*
X881308Y3566602D01*
X809706Y3595269D01*
X762029Y3655896D01*
X750000Y3714548D01*
X750000Y3775000D01*
X386718Y3775000D01*
X312218Y3794962D01*
X305652Y3800000D01*
X52177Y3800000D01*
X52156Y3799999D01*
X15927Y3796104D01*
X-15927Y3796104D01*
X-52157Y3799999D01*
X-52177Y3800000D01*
X-100000Y3800000D01*
X-100000Y3714548D01*
X-119962Y3640048D01*
X-174500Y3585510D01*
X-249000Y3565548D01*
X-323500Y3585510D01*
X-368279Y3625254D01*
X-392452Y3657544D01*
X-392456Y3657548D01*
X-490293Y3730789D01*
X-525284Y3775284D01*
X-550000Y3800000D01*
X-597839Y3800000D01*
X-631736Y3796356D01*
X-663583Y3796357D01*
X-702111Y3800499D01*
X-702123Y3800500D01*
X-702127Y3800500D01*
X-702134Y3800500D01*
X-1085257Y3800500D01*
X-1159757Y3820462D01*
X-1190616Y3844141D01*
X-1213083Y3866608D01*
X-1218197Y3872275D01*
X-1245722Y3906108D01*
X-1258635Y3915223D01*
X-1278066Y3931591D01*
X-2142759Y4796284D01*
X-2181323Y4863079D01*
X-2181323Y4940207D01*
X-2142759Y5007002D01*
X-2075964Y5045566D01*
X-2037400Y5050643D01*
X-558432Y5050643D01*
X-531577Y5048203D01*
G37*
%TD.AperFunction*%
%TA.AperFunction,Conductor*%
G36*
X5315425Y7599683D02*
G01*
X5317127Y7599500D01*
X6483124Y7599501D01*
X6557624Y7579539D01*
X6588483Y7555860D01*
X7069158Y7075185D01*
X7107722Y7008390D01*
X7107722Y6931262D01*
X7069158Y6864467D01*
X7002363Y6825903D01*
X6925235Y6825903D01*
X6879161Y6847199D01*
X6802930Y6899818D01*
X6802927Y6899819D01*
X6802926Y6899820D01*
X6643874Y6960140D01*
X6607729Y6964529D01*
X6517372Y6975500D01*
X6517367Y6975500D01*
X5873407Y6975500D01*
X5868915Y6975636D01*
X5853189Y6976587D01*
X5825224Y6978279D01*
X5752066Y7002704D01*
X5728864Y7021648D01*
X5679705Y7070807D01*
X5679704Y7070808D01*
X5541275Y7157789D01*
X5435704Y7194730D01*
X5386959Y7211787D01*
X5282815Y7223521D01*
X5211019Y7251700D01*
X5162931Y7312001D01*
X5150499Y7371584D01*
X5150499Y7451537D01*
X5170461Y7526037D01*
X5224999Y7580575D01*
X5299499Y7600537D01*
X5315425Y7599683D01*
G37*
%TD.AperFunction*%
%TA.AperFunction,Conductor*%
G36*
X-12693996Y7799678D02*
G01*
X-12673194Y7773594D01*
X-12670808Y7769796D01*
X-12670807Y7769795D01*
X-12554508Y7653496D01*
X-12515944Y7586701D01*
X-12515944Y7509573D01*
X-12554508Y7442778D01*
X-12992561Y7004726D01*
X-13059356Y6966162D01*
X-13136484Y6966162D01*
X-13203279Y7004726D01*
X-13346114Y7147561D01*
X-13384678Y7214356D01*
X-13384678Y7291484D01*
X-13346114Y7358279D01*
X-12904714Y7799678D01*
X-12837919Y7838242D01*
X-12760791Y7838242D01*
X-12693996Y7799678D01*
G37*
%TD.AperFunction*%
%TA.AperFunction,Conductor*%
G36*
X-10046378Y17479538D02*
G01*
X-9991840Y17425000D01*
X-9971878Y17350500D01*
X-9991840Y17276000D01*
X-10015519Y17245141D01*
X-10067320Y17193341D01*
X-10159358Y17044122D01*
X-10214506Y16877698D01*
X-10214508Y16877689D01*
X-10225000Y16774990D01*
X-10225000Y16500000D01*
X-9124000Y16500000D01*
X-9049500Y16480038D01*
X-8994962Y16425500D01*
X-8975000Y16351000D01*
X-8975000Y12074000D01*
X-8994962Y11999500D01*
X-9049500Y11944962D01*
X-9124000Y11925000D01*
X-9326000Y11925000D01*
X-9400500Y11944962D01*
X-9455038Y11999500D01*
X-9475000Y12074000D01*
X-9475000Y16000000D01*
X-10224999Y16000000D01*
X-10224999Y15725027D01*
X-10214506Y15622304D01*
X-10159358Y15455878D01*
X-10159357Y15455875D01*
X-10072909Y15315720D01*
X-10050789Y15241832D01*
X-10068577Y15166783D01*
X-10072909Y15159280D01*
X-10091559Y15129043D01*
X-10147659Y15076114D01*
X-10222708Y15058326D01*
X-10296596Y15080446D01*
X-10331938Y15110803D01*
X-10425498Y15220950D01*
X-10425499Y15220950D01*
X-11741352Y13905097D01*
X-11795456Y13983480D01*
X-11968816Y14163966D01*
X-12094868Y14258688D01*
X-10776521Y15577034D01*
X-10795653Y15595156D01*
X-11089166Y15818279D01*
X-11405067Y16008351D01*
X-11739685Y16163161D01*
X-11739695Y16163166D01*
X-12089064Y16280881D01*
X-12449132Y16360138D01*
X-12815657Y16400000D01*
X-13184344Y16400000D01*
X-13550869Y16360138D01*
X-13550870Y16360138D01*
X-13910937Y16280881D01*
X-14260306Y16163166D01*
X-14260316Y16163161D01*
X-14594934Y16008351D01*
X-14910835Y15818279D01*
X-15204337Y15595165D01*
X-15223480Y15577033D01*
X-13906880Y14260433D01*
X-13934180Y14243168D01*
X-14121501Y14077216D01*
X-14260512Y13906959D01*
X-15574503Y15220950D01*
X-15574504Y15220950D01*
X-15710692Y15060617D01*
X-15710694Y15060614D01*
X-15917598Y14755453D01*
X-16090285Y14429729D01*
X-16090291Y14429716D01*
X-16226751Y14087227D01*
X-16226753Y14087222D01*
X-16325387Y13731977D01*
X-16325387Y13731975D01*
X-16385035Y13368143D01*
X-16385035Y13368137D01*
X-16404994Y13000009D01*
X-16404994Y13000000D01*
X-16385035Y12631864D01*
X-16385035Y12631858D01*
X-16325387Y12268026D01*
X-16325387Y12268024D01*
X-16226753Y11912779D01*
X-16226751Y11912774D01*
X-16090291Y11570285D01*
X-16090288Y11570278D01*
X-16026963Y11450833D01*
X-16009704Y11375661D01*
X-16032343Y11301930D01*
X-16088815Y11249397D01*
X-16163987Y11232138D01*
X-16200581Y11238076D01*
X-16328039Y11275500D01*
X-16471961Y11275500D01*
X-16471963Y11275500D01*
X-16471968Y11275499D01*
X-16610051Y11234954D01*
X-16610053Y11234954D01*
X-16610053Y11234953D01*
X-16636543Y11217929D01*
X-16731128Y11157144D01*
X-16731130Y11157141D01*
X-16825378Y11048372D01*
X-16885166Y10917455D01*
X-16905647Y10775004D01*
X-16905647Y10774997D01*
X-16885166Y10632546D01*
X-16885166Y10632545D01*
X-16885165Y10632543D01*
X-16859128Y10575530D01*
X-16826559Y10504214D01*
X-16825377Y10501627D01*
X-16731128Y10392857D01*
X-16610053Y10315047D01*
X-16471961Y10274500D01*
X-16471959Y10274500D01*
X-16328041Y10274500D01*
X-16328039Y10274500D01*
X-16189947Y10315047D01*
X-16068872Y10392857D01*
X-15974623Y10501627D01*
X-15914835Y10632543D01*
X-15894596Y10773316D01*
X-15864236Y10844212D01*
X-15802492Y10890433D01*
X-15725909Y10899591D01*
X-15655008Y10869230D01*
X-15633551Y10848567D01*
X-15574504Y10779052D01*
X-15574503Y10779052D01*
X-14258650Y12094906D01*
X-14204544Y12016520D01*
X-14031184Y11836034D01*
X-13905135Y11741314D01*
X-15223480Y10422969D01*
X-15204343Y10404841D01*
X-15204342Y10404840D01*
X-14910835Y10181722D01*
X-14594926Y9991646D01*
X-14593199Y9990730D01*
X-14592823Y9990380D01*
X-14591470Y9989566D01*
X-14591642Y9989282D01*
X-14536723Y9938202D01*
X-14514078Y9864473D01*
X-14531331Y9789300D01*
X-14557621Y9753722D01*
X-14845915Y9465427D01*
X-14912710Y9426863D01*
X-14989838Y9426863D01*
X-15056633Y9465427D01*
X-15364053Y9772847D01*
X-15364051Y9772846D01*
X-15386958Y9792410D01*
X-15391744Y9796498D01*
X-15533555Y9874458D01*
X-15533556Y9874459D01*
X-15533557Y9874459D01*
X-15690299Y9914703D01*
X-15852127Y9914703D01*
X-15852128Y9914703D01*
X-16008870Y9874459D01*
X-16150684Y9796497D01*
X-16178375Y9772846D01*
X-16178373Y9772847D01*
X-16467847Y9483373D01*
X-16467846Y9483375D01*
X-16491497Y9455684D01*
X-16569457Y9313874D01*
X-16569458Y9313872D01*
X-16571842Y9304585D01*
X-16609707Y9237391D01*
X-16676096Y9198132D01*
X-16679096Y9197328D01*
X-16687508Y9195168D01*
X-16820918Y9121827D01*
X-16609271Y8910180D01*
X-16572942Y8847255D01*
X-16572907Y8847268D01*
X-16572816Y8847038D01*
X-16570707Y8843385D01*
X-16570314Y8841886D01*
X-16569461Y8838563D01*
X-16569459Y8838557D01*
X-16569458Y8838555D01*
X-16510999Y8732216D01*
X-16491497Y8696743D01*
X-16467846Y8669051D01*
X-16467847Y8669053D01*
X-16230480Y8431686D01*
X-16191916Y8364891D01*
X-16191916Y8287763D01*
X-16230480Y8220968D01*
X-16802735Y7648714D01*
X-16800177Y7583591D01*
X-16802405Y7583504D01*
X-16799617Y7548080D01*
X-16832822Y7478465D01*
X-16840763Y7469875D01*
X-17162243Y7148394D01*
X-17162260Y7148374D01*
X-17199825Y7101760D01*
X-17199828Y7101755D01*
X-17214965Y7068608D01*
X-17264072Y7009133D01*
X-17336337Y6982180D01*
X-17412397Y6994970D01*
X-17471872Y7044077D01*
X-17498825Y7116342D01*
X-17499500Y7130505D01*
X-17499500Y8037422D01*
X-17479538Y8111922D01*
X-17425000Y8166460D01*
X-17350500Y8186422D01*
X-17276000Y8166460D01*
X-17221462Y8111922D01*
X-17219930Y8109203D01*
X-17169912Y8018219D01*
X-17156288Y8002266D01*
X-16782376Y8376179D01*
X-17174471Y8768274D01*
X-17219929Y8685583D01*
X-17273312Y8629915D01*
X-17347378Y8608396D01*
X-17422280Y8626792D01*
X-17477948Y8680175D01*
X-17499467Y8754241D01*
X-17499500Y8757363D01*
X-17499500Y13000000D01*
X-17497922Y13036144D01*
X-17491000Y13194704D01*
X-17481740Y13394971D01*
X-17481186Y13401217D01*
X-17454810Y13601557D01*
X-17427744Y13795588D01*
X-17426707Y13801337D01*
X-17382725Y13999729D01*
X-17338049Y14189676D01*
X-17336596Y14194964D01*
X-17275347Y14389220D01*
X-17265351Y14419045D01*
X-17213364Y14574154D01*
X-17211596Y14578879D01*
X-17133476Y14767477D01*
X-17054730Y14945820D01*
X-17052701Y14950040D01*
X-16958296Y15131390D01*
X-16863425Y15301715D01*
X-16861190Y15305460D01*
X-16839277Y15339857D01*
X-16751222Y15478077D01*
X-16640963Y15639034D01*
X-16638654Y15642218D01*
X-16513909Y15804788D01*
X-16389129Y15955054D01*
X-16386841Y15957676D01*
X-16248258Y16108912D01*
X-16108912Y16248258D01*
X-16074366Y16279914D01*
X-15957676Y16386841D01*
X-15955054Y16389129D01*
X-15804781Y16513914D01*
X-15642218Y16638654D01*
X-15639034Y16640963D01*
X-15478077Y16751222D01*
X-15305458Y16861192D01*
X-15301715Y16863425D01*
X-15131390Y16958296D01*
X-14950040Y17052701D01*
X-14945820Y17054730D01*
X-14767477Y17133476D01*
X-14578879Y17211596D01*
X-14574154Y17213364D01*
X-14389220Y17275347D01*
X-14386440Y17276224D01*
X-14194964Y17336596D01*
X-14189676Y17338049D01*
X-13999729Y17382725D01*
X-13801337Y17426707D01*
X-13795588Y17427744D01*
X-13601542Y17454812D01*
X-13401217Y17481186D01*
X-13394971Y17481740D01*
X-13194704Y17491000D01*
X-13000000Y17499500D01*
X-12999500Y17499500D01*
X-10120878Y17499500D01*
X-10046378Y17479538D01*
G37*
%TD.AperFunction*%
%TA.AperFunction,Conductor*%
G36*
X-12084824Y9718613D02*
G01*
X-12013985Y9719289D01*
X-11946825Y9681364D01*
X-11907625Y9614941D01*
X-11906888Y9537816D01*
X-11944813Y9470656D01*
X-11979391Y9444435D01*
X-12075681Y9391499D01*
X-12075683Y9391498D01*
X-12103375Y9367846D01*
X-12103373Y9367847D01*
X-12392847Y9078373D01*
X-12392846Y9078375D01*
X-12416497Y9050684D01*
X-12494457Y8908874D01*
X-12494459Y8908869D01*
X-12502914Y8875939D01*
X-12540778Y8808745D01*
X-12554325Y8796510D01*
X-12555200Y8795813D01*
X-12676725Y8674287D01*
X-12679029Y8676591D01*
X-12728223Y8640381D01*
X-12804877Y8631845D01*
X-12875530Y8662780D01*
X-12918014Y8717256D01*
X-12955382Y8799081D01*
X-12955384Y8799085D01*
X-12985191Y8836072D01*
X-12993003Y8845766D01*
X-13516688Y9369451D01*
X-13555251Y9436244D01*
X-13555251Y9513372D01*
X-13516687Y9580167D01*
X-13449892Y9618731D01*
X-13395218Y9622935D01*
X-13184344Y9600001D01*
X-13184334Y9600000D01*
X-12815666Y9600000D01*
X-12815657Y9600001D01*
X-12449132Y9639863D01*
X-12449131Y9639863D01*
X-12085126Y9719986D01*
X-12084824Y9718613D01*
G37*
%TD.AperFunction*%
%TA.AperFunction,Conductor*%
G36*
X15574501Y10779052D02*
G01*
X15620137Y10780907D01*
X15695386Y10763988D01*
X15752095Y10711711D01*
X15775067Y10638083D01*
X15761725Y10570133D01*
X15714834Y10467457D01*
X15694353Y10325004D01*
X15694353Y10324997D01*
X15714834Y10182546D01*
X15714834Y10182545D01*
X15714835Y10182543D01*
X15774623Y10051627D01*
X15868872Y9942857D01*
X15896898Y9924846D01*
X15948778Y9867776D01*
X15965173Y9792410D01*
X15941689Y9718945D01*
X15884618Y9667064D01*
X15816342Y9650500D01*
X15168384Y9650500D01*
X15106626Y9644888D01*
X15097803Y9644086D01*
X14935396Y9593479D01*
X14935391Y9593476D01*
X14789815Y9505473D01*
X14669527Y9385185D01*
X14581520Y9239604D01*
X14554491Y9152864D01*
X14517597Y9091835D01*
X14419905Y8994142D01*
X14353111Y8955577D01*
X14314546Y8950500D01*
X13212000Y8950500D01*
X13137500Y8970462D01*
X13082962Y9025000D01*
X13063000Y9099500D01*
X13063000Y9315690D01*
X13061448Y9335411D01*
X13060098Y9352569D01*
X13043577Y9409431D01*
X13041963Y9486541D01*
X13079119Y9554129D01*
X13145092Y9594084D01*
X13180349Y9599102D01*
X13180313Y9599782D01*
X13184343Y9600001D01*
X13550868Y9639863D01*
X13550869Y9639863D01*
X13910936Y9719120D01*
X14260305Y9836835D01*
X14260315Y9836840D01*
X14594933Y9991650D01*
X14910834Y10181722D01*
X15204352Y10404849D01*
X15223479Y10422968D01*
X13906879Y11739568D01*
X13934180Y11756832D01*
X14121501Y11922784D01*
X14260511Y12093042D01*
X15574501Y10779052D01*
G37*
%TD.AperFunction*%
%TA.AperFunction,Conductor*%
G36*
X-10425499Y10779052D02*
G01*
X-10289313Y10939380D01*
X-10182704Y11096616D01*
X-10124373Y11147076D01*
X-10048627Y11161611D01*
X-9975761Y11136325D01*
X-9954022Y11118361D01*
X-9943343Y11107683D01*
X-9943341Y11107681D01*
X-9794122Y11015643D01*
X-9632632Y10962130D01*
X-9568193Y10919747D01*
X-9533578Y10850823D01*
X-9530500Y10820693D01*
X-9530499Y10325820D01*
X-9529385Y10311655D01*
X-9527666Y10289801D01*
X-9527666Y10289798D01*
X-9527665Y10289796D01*
X-9482869Y10135607D01*
X-9482868Y10135606D01*
X-9482867Y10135602D01*
X-9469415Y10112856D01*
X-9448673Y10038570D01*
X-9467854Y9963865D01*
X-9469413Y9961165D01*
X-9482404Y9939198D01*
X-9527168Y9785123D01*
X-9529932Y9750001D01*
X-9529931Y9750000D01*
X-8830243Y9750000D01*
X-8755743Y9730038D01*
X-8724884Y9706359D01*
X-8554141Y9535616D01*
X-8515577Y9468821D01*
X-8510500Y9430258D01*
X-8510499Y9249501D01*
X-8530461Y9175001D01*
X-8584998Y9120463D01*
X-8659498Y9100500D01*
X-8719649Y9100500D01*
X-8830022Y9077040D01*
X-8907044Y9081077D01*
X-8971729Y9123084D01*
X-9006744Y9191806D01*
X-9010000Y9222784D01*
X-9010000Y9250000D01*
X-9529932Y9250000D01*
X-9549234Y9229120D01*
X-9614464Y9187964D01*
X-9691532Y9184938D01*
X-9759789Y9220851D01*
X-9764005Y9224904D01*
X-9895746Y9356644D01*
X-9895750Y9356647D01*
X-9923225Y9380115D01*
X-9923226Y9380116D01*
X-9923231Y9380119D01*
X-10063926Y9457466D01*
X-10063929Y9457468D01*
X-10077859Y9461044D01*
X-10145053Y9498907D01*
X-10170912Y9537834D01*
X-10172672Y9536866D01*
X-10255086Y9686777D01*
X-10255088Y9686780D01*
X-10268714Y9702735D01*
X-10478036Y9493413D01*
X-10528540Y9460237D01*
X-10535533Y9457469D01*
X-10676235Y9380117D01*
X-10676237Y9380117D01*
X-10676238Y9380115D01*
X-10683435Y9373969D01*
X-10703711Y9356652D01*
X-10816220Y9244141D01*
X-10883015Y9205577D01*
X-10921579Y9200500D01*
X-11059988Y9200500D01*
X-11134488Y9220462D01*
X-11165347Y9244141D01*
X-11194521Y9273315D01*
X-11233085Y9340110D01*
X-11233085Y9417238D01*
X-11194521Y9484033D01*
X-10996178Y9682375D01*
X-10622268Y10056287D01*
X-10622267Y10056287D01*
X-10638220Y10069913D01*
X-10638225Y10069916D01*
X-10784367Y10150257D01*
X-10840035Y10203640D01*
X-10861553Y10277706D01*
X-10843156Y10352608D01*
X-10802751Y10399449D01*
X-10795650Y10404847D01*
X-10776521Y10422968D01*
X-12093121Y11739568D01*
X-12065820Y11756832D01*
X-11878499Y11922784D01*
X-11739489Y12093042D01*
X-10425499Y10779052D01*
G37*
%TD.AperFunction*%
%TD*%
M02*
