%TF.GenerationSoftware,KiCad,Pcbnew,7.0.9*%
%TF.CreationDate,2024-01-12T19:02:29-05:00*%
%TF.ProjectId,lemon-pepper,6c656d6f-6e2d-4706-9570-7065722e6b69,rev?*%
%TF.SameCoordinates,PX8b85c60PY52f2218*%
%TF.FileFunction,Soldermask,Top*%
%TF.FilePolarity,Negative*%
%FSLAX46Y46*%
G04 Gerber Fmt 4.6, Leading zero omitted, Abs format (unit mm)*
G04 Created by KiCad (PCBNEW 7.0.9) date 2024-01-12 19:02:29*
%MOMM*%
%LPD*%
G01*
G04 APERTURE LIST*
G04 Aperture macros list*
%AMRoundRect*
0 Rectangle with rounded corners*
0 $1 Rounding radius*
0 $2 $3 $4 $5 $6 $7 $8 $9 X,Y pos of 4 corners*
0 Add a 4 corners polygon primitive as box body*
4,1,4,$2,$3,$4,$5,$6,$7,$8,$9,$2,$3,0*
0 Add four circle primitives for the rounded corners*
1,1,$1+$1,$2,$3*
1,1,$1+$1,$4,$5*
1,1,$1+$1,$6,$7*
1,1,$1+$1,$8,$9*
0 Add four rect primitives between the rounded corners*
20,1,$1+$1,$2,$3,$4,$5,0*
20,1,$1+$1,$4,$5,$6,$7,0*
20,1,$1+$1,$6,$7,$8,$9,0*
20,1,$1+$1,$8,$9,$2,$3,0*%
%AMHorizOval*
0 Thick line with rounded ends*
0 $1 width*
0 $2 $3 position (X,Y) of the first rounded end (center of the circle)*
0 $4 $5 position (X,Y) of the second rounded end (center of the circle)*
0 Add line between two ends*
20,1,$1,$2,$3,$4,$5,0*
0 Add two circle primitives to create the rounded ends*
1,1,$1,$2,$3*
1,1,$1,$4,$5*%
%AMRotRect*
0 Rectangle, with rotation*
0 The origin of the aperture is its center*
0 $1 length*
0 $2 width*
0 $3 Rotation angle, in degrees counterclockwise*
0 Add horizontal line*
21,1,$1,$2,0,0,$3*%
%AMFreePoly0*
4,1,17,-0.875000,2.062500,-0.867373,2.143836,-0.824300,2.266930,-0.746859,2.371859,-0.641930,2.449300,-0.518836,2.492373,-0.437500,2.500000,0.437500,2.500000,0.518836,2.492373,0.641930,2.449300,0.746859,2.371859,0.824300,2.266930,0.867373,2.143836,0.875000,2.062500,0.875000,-2.500000,-0.875000,-2.500000,-0.875000,2.062500,-0.875000,2.062500,$1*%
G04 Aperture macros list end*
%ADD10C,0.300000*%
%ADD11RoundRect,0.250000X-0.250000X-0.475000X0.250000X-0.475000X0.250000X0.475000X-0.250000X0.475000X0*%
%ADD12C,0.990600*%
%ADD13C,0.787400*%
%ADD14RoundRect,0.150000X-0.587500X-0.150000X0.587500X-0.150000X0.587500X0.150000X-0.587500X0.150000X0*%
%ADD15RoundRect,0.135000X0.135000X0.185000X-0.135000X0.185000X-0.135000X-0.185000X0.135000X-0.185000X0*%
%ADD16RoundRect,0.112500X-0.112500X0.187500X-0.112500X-0.187500X0.112500X-0.187500X0.112500X0.187500X0*%
%ADD17RoundRect,0.150000X-0.825000X-0.150000X0.825000X-0.150000X0.825000X0.150000X-0.825000X0.150000X0*%
%ADD18RoundRect,0.135000X0.185000X-0.135000X0.185000X0.135000X-0.185000X0.135000X-0.185000X-0.135000X0*%
%ADD19R,1.700000X0.900000*%
%ADD20RoundRect,0.135000X-0.035355X0.226274X-0.226274X0.035355X0.035355X-0.226274X0.226274X-0.035355X0*%
%ADD21RoundRect,0.140000X-0.219203X-0.021213X-0.021213X-0.219203X0.219203X0.021213X0.021213X0.219203X0*%
%ADD22R,2.400000X0.740000*%
%ADD23RoundRect,0.250000X-1.000000X-0.650000X1.000000X-0.650000X1.000000X0.650000X-1.000000X0.650000X0*%
%ADD24RoundRect,0.250000X0.250000X0.475000X-0.250000X0.475000X-0.250000X-0.475000X0.250000X-0.475000X0*%
%ADD25RoundRect,0.218750X-0.218750X-0.256250X0.218750X-0.256250X0.218750X0.256250X-0.218750X0.256250X0*%
%ADD26R,1.600000X3.500000*%
%ADD27RoundRect,0.140000X-0.021213X0.219203X-0.219203X0.021213X0.021213X-0.219203X0.219203X-0.021213X0*%
%ADD28RoundRect,0.140000X-0.170000X0.140000X-0.170000X-0.140000X0.170000X-0.140000X0.170000X0.140000X0*%
%ADD29RoundRect,0.140000X0.170000X-0.140000X0.170000X0.140000X-0.170000X0.140000X-0.170000X-0.140000X0*%
%ADD30RoundRect,0.150000X-0.150000X0.512500X-0.150000X-0.512500X0.150000X-0.512500X0.150000X0.512500X0*%
%ADD31R,0.850000X0.300000*%
%ADD32R,1.750000X2.700000*%
%ADD33RoundRect,0.140000X-0.140000X-0.170000X0.140000X-0.170000X0.140000X0.170000X-0.140000X0.170000X0*%
%ADD34C,1.000000*%
%ADD35RoundRect,0.140000X0.140000X0.170000X-0.140000X0.170000X-0.140000X-0.170000X0.140000X-0.170000X0*%
%ADD36RoundRect,0.135000X-0.135000X-0.185000X0.135000X-0.185000X0.135000X0.185000X-0.135000X0.185000X0*%
%ADD37RoundRect,0.250000X-0.475000X0.250000X-0.475000X-0.250000X0.475000X-0.250000X0.475000X0.250000X0*%
%ADD38C,0.660000*%
%ADD39HorizOval,0.600000X0.141421X-0.141421X-0.141421X0.141421X0*%
%ADD40RotRect,0.300000X0.855000X315.000000*%
%ADD41RoundRect,0.250000X0.625000X-0.312500X0.625000X0.312500X-0.625000X0.312500X-0.625000X-0.312500X0*%
%ADD42O,1.750000X1.750000*%
%ADD43FreePoly0,0.000000*%
%ADD44O,1.750000X2.000000*%
%ADD45RoundRect,0.135000X-0.185000X0.135000X-0.185000X-0.135000X0.185000X-0.135000X0.185000X0.135000X0*%
%ADD46RotRect,0.660000X0.280000X225.000000*%
%ADD47RotRect,0.280000X0.660000X225.000000*%
%ADD48RotRect,3.830000X3.280000X225.000000*%
%ADD49R,0.250000X0.800000*%
%ADD50RoundRect,0.062500X-0.309359X0.220971X0.220971X-0.309359X0.309359X-0.220971X-0.220971X0.309359X0*%
%ADD51RoundRect,0.062500X-0.309359X-0.220971X-0.220971X-0.309359X0.309359X0.220971X0.220971X0.309359X0*%
%ADD52RotRect,5.600000X5.600000X315.000000*%
%ADD53C,5.800000*%
%ADD54RoundRect,0.200000X-0.275000X0.200000X-0.275000X-0.200000X0.275000X-0.200000X0.275000X0.200000X0*%
%ADD55RotRect,1.400000X1.200000X225.000000*%
%ADD56RoundRect,0.112500X-0.187500X-0.112500X0.187500X-0.112500X0.187500X0.112500X-0.187500X0.112500X0*%
%ADD57RoundRect,0.250000X0.600000X0.725000X-0.600000X0.725000X-0.600000X-0.725000X0.600000X-0.725000X0*%
%ADD58O,1.700000X1.950000*%
%ADD59R,0.450000X1.050000*%
%ADD60RoundRect,0.112500X0.187500X0.112500X-0.187500X0.112500X-0.187500X-0.112500X0.187500X-0.112500X0*%
%ADD61RoundRect,0.200000X0.275000X-0.200000X0.275000X0.200000X-0.275000X0.200000X-0.275000X-0.200000X0*%
%ADD62RoundRect,0.140000X0.219203X0.021213X0.021213X0.219203X-0.219203X-0.021213X-0.021213X-0.219203X0*%
G04 APERTURE END LIST*
D10*
X-970490Y-575828D02*
X-970490Y424172D01*
X-970490Y281315D02*
X-899061Y352743D01*
X-899061Y352743D02*
X-756204Y424172D01*
X-756204Y424172D02*
X-541918Y424172D01*
X-541918Y424172D02*
X-399061Y352743D01*
X-399061Y352743D02*
X-327632Y209886D01*
X-327632Y209886D02*
X-327632Y-575828D01*
X-327632Y209886D02*
X-256204Y352743D01*
X-256204Y352743D02*
X-113347Y424172D01*
X-113347Y424172D02*
X100939Y424172D01*
X100939Y424172D02*
X243796Y352743D01*
X243796Y352743D02*
X315225Y209886D01*
X315225Y209886D02*
X315225Y-575828D01*
X1029510Y424172D02*
X1029510Y-861542D01*
X1029510Y-861542D02*
X958082Y-1004400D01*
X958082Y-1004400D02*
X815225Y-1075828D01*
X815225Y-1075828D02*
X743796Y-1075828D01*
X1029510Y924172D02*
X958082Y852743D01*
X958082Y852743D02*
X1029510Y781315D01*
X1029510Y781315D02*
X1100939Y852743D01*
X1100939Y852743D02*
X1029510Y924172D01*
X1029510Y924172D02*
X1029510Y781315D01*
%TO.C,kibuzzard-65A1D30A*%
G36*
X16670043Y10273042D02*
G01*
X16739595Y10262724D01*
X16807801Y10245640D01*
X16874004Y10221952D01*
X16937566Y10191889D01*
X16997876Y10155741D01*
X17054352Y10113856D01*
X17106451Y10066636D01*
X17153670Y10014538D01*
X17195555Y9958061D01*
X17231704Y9897752D01*
X17261766Y9834189D01*
X17285454Y9767987D01*
X17302539Y9699781D01*
X17312856Y9630228D01*
X17316306Y9560000D01*
X17312856Y9489772D01*
X17302539Y9420219D01*
X17285454Y9352013D01*
X17261766Y9285811D01*
X17231704Y9222248D01*
X17195555Y9161939D01*
X17153670Y9105462D01*
X17106451Y9053364D01*
X17054352Y9006144D01*
X16997876Y8964259D01*
X16937566Y8928111D01*
X16874004Y8898048D01*
X16807801Y8874360D01*
X16739595Y8857276D01*
X16670043Y8846958D01*
X16599814Y8843508D01*
X16467523Y8843508D01*
X16322052Y8843508D01*
X15600318Y8843508D01*
X15600186Y8843508D01*
X15529957Y8846958D01*
X15460405Y8857276D01*
X15392199Y8874360D01*
X15325996Y8898048D01*
X15262434Y8928111D01*
X15202124Y8964259D01*
X15145648Y9006144D01*
X15093549Y9053364D01*
X15046330Y9105463D01*
X15004445Y9161939D01*
X14968296Y9222248D01*
X14938234Y9285811D01*
X14914546Y9352013D01*
X14897461Y9420219D01*
X14894623Y9439350D01*
X15607677Y9439350D01*
X15615614Y9371088D01*
X15658873Y9325844D01*
X15747377Y9310763D01*
X16177589Y9310763D01*
X16177589Y9117087D01*
X16187114Y9034537D01*
X16207752Y9002787D01*
X16249027Y8983737D01*
X16322052Y8975800D01*
X16399045Y8985325D01*
X16445083Y9024219D01*
X16460164Y9115500D01*
X16460164Y9998150D01*
X16457783Y10053713D01*
X16442702Y10095781D01*
X16399839Y10129119D01*
X16319670Y10139437D01*
X16238708Y10130706D01*
X16195052Y10099750D01*
X16179970Y10060063D01*
X16177589Y10006087D01*
X16177589Y9572700D01*
X15918827Y9572700D01*
X16015664Y9960050D01*
X16017252Y9964813D01*
X16028364Y10031488D01*
X16000583Y10092606D01*
X15917239Y10133088D01*
X15844214Y10144200D01*
X15789445Y10126738D01*
X15760870Y10090225D01*
X15744202Y10034663D01*
X15612439Y9502850D01*
X15607677Y9439350D01*
X14894623Y9439350D01*
X14887144Y9489772D01*
X14883694Y9560000D01*
X14887144Y9630228D01*
X14897461Y9699781D01*
X14914546Y9767987D01*
X14938234Y9834189D01*
X14968296Y9897752D01*
X15004445Y9958061D01*
X15046330Y10014537D01*
X15093549Y10066636D01*
X15145648Y10113856D01*
X15202124Y10155741D01*
X15262434Y10191889D01*
X15325996Y10221952D01*
X15392199Y10245640D01*
X15460405Y10262724D01*
X15529957Y10273042D01*
X15600186Y10276492D01*
X15600318Y10276492D01*
X16467523Y10276492D01*
X16599814Y10276492D01*
X16670043Y10273042D01*
G37*
%TD*%
D11*
%TO.C,C103*%
X-9225000Y12175000D03*
X-7325000Y12175000D03*
%TD*%
D12*
%TO.C,J301*%
X-9718333Y-15684655D03*
X-4925529Y-13718012D03*
X-4537805Y-15712678D03*
D13*
X-8350503Y-16065661D03*
X-8592830Y-14818994D03*
X-7103836Y-15823333D03*
X-7346164Y-14576667D03*
X-5857170Y-15581006D03*
X-6099497Y-14334339D03*
%TD*%
D14*
%TO.C,Q501*%
X12337500Y8950000D03*
X12337500Y7050000D03*
X14212500Y8000000D03*
%TD*%
D15*
%TO.C,R704*%
X1366250Y10025000D03*
X346250Y10025000D03*
%TD*%
D16*
%TO.C,D502*%
X9825000Y10200000D03*
X9825000Y8100000D03*
%TD*%
D17*
%TO.C,U302*%
X-1925000Y-6140000D03*
X-1925000Y-7410000D03*
X-1925000Y-8680000D03*
X-1925000Y-9950000D03*
X3025000Y-9950000D03*
X3025000Y-8680000D03*
X3025000Y-7410000D03*
X3025000Y-6140000D03*
%TD*%
D16*
%TO.C,D501*%
X7800000Y10200000D03*
X7800000Y8100000D03*
%TD*%
D18*
%TO.C,R101*%
X-4175000Y-11385000D03*
X-4175000Y-10365000D03*
%TD*%
D15*
%TO.C,R103*%
X1910000Y-4775000D03*
X890000Y-4775000D03*
%TD*%
D19*
%TO.C,SW301*%
X15100000Y5525000D03*
X15100000Y2125000D03*
%TD*%
D20*
%TO.C,R302*%
X-10989376Y-3964376D03*
X-11710624Y-4685624D03*
%TD*%
D21*
%TO.C,C304*%
X-5064411Y89411D03*
X-4385589Y-589411D03*
%TD*%
D22*
%TO.C,J302*%
X-17300000Y-485000D03*
X-17300000Y-1755000D03*
X-17300000Y-3025000D03*
X-17300000Y-4295000D03*
X-17300000Y-5565000D03*
%TD*%
D23*
%TO.C,D101*%
X11825000Y-675000D03*
X15825000Y-675000D03*
%TD*%
D24*
%TO.C,C106*%
X6975000Y-5725000D03*
X5075000Y-5725000D03*
%TD*%
D25*
%TO.C,D301*%
X-15612500Y-7175000D03*
X-14037500Y-7175000D03*
%TD*%
D26*
%TO.C,L501*%
X11250000Y-6525000D03*
X14450000Y-6525000D03*
%TD*%
D27*
%TO.C,C305*%
X-15385589Y9264411D03*
X-16064411Y8585589D03*
%TD*%
D28*
%TO.C,C701*%
X-7825000Y7730000D03*
X-7825000Y6770000D03*
%TD*%
D29*
%TO.C,C308*%
X-9725000Y9620000D03*
X-9725000Y10580000D03*
%TD*%
D27*
%TO.C,C307*%
X-13185589Y-1760589D03*
X-13864411Y-2439411D03*
%TD*%
D15*
%TO.C,R702*%
X-5308750Y10025000D03*
X-6328750Y10025000D03*
%TD*%
D30*
%TO.C,U201*%
X-4450000Y-5362500D03*
X-5400000Y-5362500D03*
X-6350000Y-5362500D03*
X-6350000Y-7637500D03*
X-5400000Y-7637500D03*
X-4450000Y-7637500D03*
%TD*%
D31*
%TO.C,U703*%
X2981250Y6750000D03*
X2981250Y7250000D03*
X2981250Y7750000D03*
X2981250Y8250000D03*
X2981250Y8750000D03*
X81250Y8750000D03*
X81250Y8250000D03*
X81250Y7750000D03*
X81250Y7250000D03*
X81250Y6750000D03*
D32*
X1531250Y7750000D03*
%TD*%
D27*
%TO.C,C302*%
X-11685589Y-3260589D03*
X-12364411Y-3939411D03*
%TD*%
D33*
%TO.C,C602*%
X6745000Y-2700000D03*
X7705000Y-2700000D03*
%TD*%
D34*
%TO.C,FID102*%
X-16575000Y-10450000D03*
%TD*%
D35*
%TO.C,C401*%
X1430000Y4050000D03*
X470000Y4050000D03*
%TD*%
D25*
%TO.C,D302*%
X-15612500Y-8800000D03*
X-14037500Y-8800000D03*
%TD*%
D18*
%TO.C,R102*%
X-7650000Y-5885000D03*
X-7650000Y-4865000D03*
%TD*%
D36*
%TO.C,R105*%
X-2960000Y-4775000D03*
X-1940000Y-4775000D03*
%TD*%
D37*
%TO.C,C503*%
X16325000Y-7600000D03*
X16325000Y-9500000D03*
%TD*%
D15*
%TO.C,R501*%
X12260000Y-9250000D03*
X11240000Y-9250000D03*
%TD*%
%TO.C,R301*%
X-13765000Y-5825000D03*
X-14785000Y-5825000D03*
%TD*%
D35*
%TO.C,C201*%
X-6745000Y-3900000D03*
X-7705000Y-3900000D03*
%TD*%
D24*
%TO.C,C102*%
X-7325000Y14225000D03*
X-9225000Y14225000D03*
%TD*%
D11*
%TO.C,C101*%
X-9225000Y16250000D03*
X-7325000Y16250000D03*
%TD*%
D38*
%TO.C,J201*%
X-11901650Y-6598350D03*
D39*
X-6598350Y-11901650D03*
D40*
X-10609059Y-6719972D03*
X-10255506Y-7073525D03*
X-9901953Y-7427079D03*
X-9548399Y-7780632D03*
X-9194846Y-8134185D03*
X-8841292Y-8487739D03*
X-8487739Y-8841292D03*
X-8134186Y-9194846D03*
X-7780632Y-9548399D03*
X-7427079Y-9901952D03*
X-7074232Y-10256213D03*
X-6720679Y-10609766D03*
X-7890234Y-11779321D03*
X-8243787Y-11425768D03*
X-8597340Y-11072214D03*
X-8950894Y-10718661D03*
X-9304447Y-10365107D03*
X-9658001Y-10011554D03*
X-10011554Y-9658001D03*
X-10365107Y-9304447D03*
X-10718661Y-8950894D03*
X-11072921Y-8598047D03*
X-11425768Y-8243787D03*
X-11780028Y-7890941D03*
D34*
X-9426777Y-6032664D03*
X-12467336Y-9073223D03*
X-6032664Y-9426777D03*
X-9073223Y-12467336D03*
%TD*%
D33*
%TO.C,C703*%
X470000Y5475000D03*
X1430000Y5475000D03*
%TD*%
D41*
%TO.C,R703*%
X4856250Y6812500D03*
X4856250Y9737500D03*
%TD*%
D33*
%TO.C,C202*%
X-5580000Y-3900000D03*
X-4620000Y-3900000D03*
%TD*%
D27*
%TO.C,C301*%
X-13860589Y-1085589D03*
X-14539411Y-1764411D03*
%TD*%
D42*
%TO.C,M101*%
X-3700000Y14900000D03*
D43*
X-3700000Y14650000D03*
D44*
X-3700000Y12150000D03*
D42*
X-1200000Y14900000D03*
D43*
X-1200000Y14650000D03*
D44*
X-1200000Y12150000D03*
D42*
X1300000Y14900000D03*
D43*
X1300000Y14650000D03*
D44*
X1300000Y12150000D03*
D42*
X3800000Y14900000D03*
D43*
X3800000Y14650000D03*
D44*
X3800000Y12150000D03*
%TD*%
D45*
%TO.C,R502*%
X10275000Y-9215000D03*
X10275000Y-10235000D03*
%TD*%
D46*
%TO.C,U601*%
X10641564Y3216690D03*
X10288011Y3570244D03*
X9934457Y3923797D03*
X9580904Y4277351D03*
X9227351Y4630904D03*
X8873797Y4984457D03*
X8520244Y5338011D03*
X8166690Y5691564D03*
D47*
X7233310Y5691564D03*
X6879756Y5338011D03*
X6526203Y4984457D03*
X6172649Y4630904D03*
X5819096Y4277351D03*
X5465543Y3923797D03*
X5111989Y3570244D03*
X4758436Y3216690D03*
D46*
X4758436Y2283310D03*
X5111989Y1929756D03*
X5465543Y1576203D03*
X5819096Y1222649D03*
X6172649Y869096D03*
X6526203Y515543D03*
X6879756Y161989D03*
X7233310Y-191564D03*
D47*
X8166690Y-191564D03*
X8520244Y161989D03*
X8873797Y515543D03*
X9227351Y869096D03*
X9580904Y1222649D03*
X9934457Y1576203D03*
X10288011Y1929756D03*
X10641564Y2283310D03*
D48*
X7639896Y3043449D03*
%TD*%
D33*
%TO.C,C601*%
X6745000Y-1700000D03*
X7705000Y-1700000D03*
%TD*%
D49*
%TO.C,U501*%
X8375000Y-8155000D03*
X8875000Y-8155000D03*
X9375000Y-8155000D03*
X9875000Y-8155000D03*
X9875000Y-6395000D03*
X9375000Y-6395000D03*
X8875000Y-6395000D03*
X8375000Y-6395000D03*
%TD*%
D50*
%TO.C,U301*%
X-10835787Y6310274D03*
X-11189340Y5956721D03*
X-11542894Y5603167D03*
X-11896447Y5249614D03*
X-12250000Y4896061D03*
X-12603554Y4542507D03*
X-12957107Y4188954D03*
X-13310661Y3835400D03*
X-13664214Y3481847D03*
X-14017767Y3128294D03*
X-14371321Y2774740D03*
X-14724874Y2421187D03*
D51*
X-14724874Y1448915D03*
X-14371321Y1095362D03*
X-14017767Y741808D03*
X-13664214Y388255D03*
X-13310661Y34702D03*
X-12957107Y-318852D03*
X-12603554Y-672405D03*
X-12250000Y-1025959D03*
X-11896447Y-1379512D03*
X-11542894Y-1733065D03*
X-11189340Y-2086619D03*
X-10835787Y-2440172D03*
D50*
X-9863515Y-2440172D03*
X-9509962Y-2086619D03*
X-9156408Y-1733065D03*
X-8802855Y-1379512D03*
X-8449302Y-1025959D03*
X-8095748Y-672405D03*
X-7742195Y-318852D03*
X-7388641Y34702D03*
X-7035088Y388255D03*
X-6681535Y741808D03*
X-6327981Y1095362D03*
X-5974428Y1448915D03*
D51*
X-5974428Y2421187D03*
X-6327981Y2774740D03*
X-6681535Y3128294D03*
X-7035088Y3481847D03*
X-7388641Y3835400D03*
X-7742195Y4188954D03*
X-8095748Y4542507D03*
X-8449302Y4896061D03*
X-8802855Y5249614D03*
X-9156408Y5603167D03*
X-9509962Y5956721D03*
X-9863515Y6310274D03*
D52*
X-10349651Y1935051D03*
%TD*%
D15*
%TO.C,R303*%
X-7740000Y10650000D03*
X-8760000Y10650000D03*
%TD*%
D45*
%TO.C,R503*%
X9250000Y-9215000D03*
X9250000Y-10235000D03*
%TD*%
D53*
%TO.C,H101*%
X-13000000Y13000000D03*
X-13000000Y-13000000D03*
X13000000Y13000000D03*
X13000000Y-13000000D03*
%TD*%
D33*
%TO.C,C704*%
X2276250Y10025000D03*
X3236250Y10025000D03*
%TD*%
D11*
%TO.C,C104*%
X7425000Y16250000D03*
X9325000Y16250000D03*
%TD*%
D24*
%TO.C,C105*%
X9325000Y12175000D03*
X7425000Y12175000D03*
%TD*%
D54*
%TO.C,R506*%
X16075000Y-4475000D03*
X16075000Y-6125000D03*
%TD*%
D36*
%TO.C,R505*%
X9340000Y7000000D03*
X10360000Y7000000D03*
%TD*%
D33*
%TO.C,C303*%
X-9755000Y8650000D03*
X-8795000Y8650000D03*
%TD*%
D55*
%TO.C,Y301*%
X-14148223Y8553858D03*
X-15703858Y6998223D03*
X-14501777Y5796142D03*
X-12946142Y7351777D03*
%TD*%
D45*
%TO.C,R305*%
X12875000Y2785000D03*
X12875000Y1765000D03*
%TD*%
D34*
%TO.C,FID101*%
X-16625000Y10450000D03*
%TD*%
D56*
%TO.C,D602*%
X3575000Y-3350000D03*
X5675000Y-3350000D03*
%TD*%
D15*
%TO.C,R304*%
X-7740000Y9650000D03*
X-8760000Y9650000D03*
%TD*%
D57*
%TO.C,J101*%
X7225000Y-14725000D03*
D58*
X4725000Y-14725000D03*
X2225000Y-14725000D03*
X-275000Y-14725000D03*
%TD*%
D59*
%TO.C,U401*%
X-2275000Y-2775000D03*
X-1625000Y-2775000D03*
X-975000Y-2775000D03*
X-325000Y-2775000D03*
X325000Y-2775000D03*
X975000Y-2775000D03*
X1625000Y-2775000D03*
X2275000Y-2775000D03*
X2275000Y2775000D03*
X1625000Y2775000D03*
X975000Y2775000D03*
X325000Y2775000D03*
X-325000Y2775000D03*
X-975000Y2775000D03*
X-1625000Y2775000D03*
X-2275000Y2775000D03*
%TD*%
D15*
%TO.C,R401*%
X-13765000Y-4725000D03*
X-14785000Y-4725000D03*
%TD*%
D18*
%TO.C,R601*%
X14325000Y-3910000D03*
X14325000Y-2890000D03*
%TD*%
D41*
%TO.C,R701*%
X-1793750Y6812500D03*
X-1793750Y9737500D03*
%TD*%
D34*
%TO.C,FID103*%
X16375000Y7600000D03*
%TD*%
D24*
%TO.C,C108*%
X6975000Y-7750000D03*
X5075000Y-7750000D03*
%TD*%
D28*
%TO.C,C502*%
X8250000Y-9220000D03*
X8250000Y-10180000D03*
%TD*%
D60*
%TO.C,D603*%
X5675000Y-1375000D03*
X3575000Y-1375000D03*
%TD*%
D24*
%TO.C,C501*%
X6975000Y-9775000D03*
X5075000Y-9775000D03*
%TD*%
D36*
%TO.C,JP101*%
X-1035000Y-4775000D03*
X-15000Y-4775000D03*
%TD*%
D18*
%TO.C,R306*%
X-10725000Y8615000D03*
X-10725000Y9635000D03*
%TD*%
D33*
%TO.C,C702*%
X-4373750Y10025000D03*
X-3413750Y10025000D03*
%TD*%
D25*
%TO.C,D601*%
X11412500Y-3375000D03*
X12987500Y-3375000D03*
%TD*%
D36*
%TO.C,R104*%
X2815000Y-4775000D03*
X3835000Y-4775000D03*
%TD*%
D61*
%TO.C,R504*%
X12625000Y3925000D03*
X12625000Y5575000D03*
%TD*%
D62*
%TO.C,C306*%
X-15335589Y4460589D03*
X-16014411Y5139411D03*
%TD*%
D24*
%TO.C,C107*%
X9325000Y14225000D03*
X7425000Y14225000D03*
%TD*%
D31*
%TO.C,U701*%
X-3668750Y6750000D03*
X-3668750Y7250000D03*
X-3668750Y7750000D03*
X-3668750Y8250000D03*
X-3668750Y8750000D03*
X-6568750Y8750000D03*
X-6568750Y8250000D03*
X-6568750Y7750000D03*
X-6568750Y7250000D03*
X-6568750Y6750000D03*
D32*
X-5118750Y7750000D03*
%TD*%
M02*
