%TF.GenerationSoftware,KiCad,Pcbnew,7.0.8*%
%TF.CreationDate,2023-10-19T20:56:21-04:00*%
%TF.ProjectId,lemon-pepper,6c656d6f-6e2d-4706-9570-7065722e6b69,rev?*%
%TF.SameCoordinates,Original*%
%TF.FileFunction,Copper,L2,Inr*%
%TF.FilePolarity,Positive*%
%FSLAX46Y46*%
G04 Gerber Fmt 4.6, Leading zero omitted, Abs format (unit mm)*
G04 Created by KiCad (PCBNEW 7.0.8) date 2023-10-19 20:56:21*
%MOMM*%
%LPD*%
G01*
G04 APERTURE LIST*
G04 Aperture macros list*
%AMRoundRect*
0 Rectangle with rounded corners*
0 $1 Rounding radius*
0 $2 $3 $4 $5 $6 $7 $8 $9 X,Y pos of 4 corners*
0 Add a 4 corners polygon primitive as box body*
4,1,4,$2,$3,$4,$5,$6,$7,$8,$9,$2,$3,0*
0 Add four circle primitives for the rounded corners*
1,1,$1+$1,$2,$3*
1,1,$1+$1,$4,$5*
1,1,$1+$1,$6,$7*
1,1,$1+$1,$8,$9*
0 Add four rect primitives between the rounded corners*
20,1,$1+$1,$2,$3,$4,$5,0*
20,1,$1+$1,$4,$5,$6,$7,0*
20,1,$1+$1,$6,$7,$8,$9,0*
20,1,$1+$1,$8,$9,$2,$3,0*%
G04 Aperture macros list end*
%TA.AperFunction,ComponentPad*%
%ADD10C,0.700000*%
%TD*%
%TA.AperFunction,ComponentPad*%
%ADD11C,1.300000*%
%TD*%
%TA.AperFunction,HeatsinkPad*%
%ADD12C,0.500000*%
%TD*%
%TA.AperFunction,ComponentPad*%
%ADD13O,1.750000X1.750000*%
%TD*%
%TA.AperFunction,ComponentPad*%
%ADD14O,1.750000X2.000000*%
%TD*%
%TA.AperFunction,ComponentPad*%
%ADD15C,5.800000*%
%TD*%
%TA.AperFunction,ComponentPad*%
%ADD16RoundRect,0.250000X0.600000X0.725000X-0.600000X0.725000X-0.600000X-0.725000X0.600000X-0.725000X0*%
%TD*%
%TA.AperFunction,ComponentPad*%
%ADD17O,1.700000X1.950000*%
%TD*%
%TA.AperFunction,ViaPad*%
%ADD18C,0.800000*%
%TD*%
%TA.AperFunction,ViaPad*%
%ADD19C,0.350000*%
%TD*%
G04 APERTURE END LIST*
D10*
%TO.N,*%
%TO.C,J201*%
X134408634Y-93573979D03*
D11*
%TO.N,GND*%
X136883507Y-93008293D03*
X133842948Y-96048852D03*
X140277620Y-96402406D03*
X137237061Y-99442965D03*
%TD*%
D12*
%TO.N,/current sense/U_OUT*%
%TO.C,M101*%
X142600000Y-70200000D03*
D13*
X142600000Y-72075000D03*
D14*
X142600000Y-74825000D03*
D12*
%TO.N,/current sense/W_OUT*%
X145100000Y-70200000D03*
D13*
X145100000Y-72075000D03*
D14*
X145100000Y-74825000D03*
D12*
%TO.N,/half bridges/OUT1B*%
X147600000Y-70200000D03*
D13*
X147600000Y-72075000D03*
D14*
X147600000Y-74825000D03*
D12*
%TO.N,/current sense/V_OUT*%
X150100000Y-70200000D03*
D13*
X150100000Y-72075000D03*
D14*
X150100000Y-74825000D03*
%TD*%
D15*
%TO.N,GND*%
%TO.C,H101*%
X133300000Y-99975000D03*
X159300000Y-99975000D03*
X133300000Y-73975000D03*
X159300000Y-73975000D03*
%TD*%
D16*
%TO.N,Vmot*%
%TO.C,J101*%
X153525000Y-101700000D03*
D17*
%TO.N,GND*%
X151025000Y-101700000D03*
%TO.N,/mcu/CANL*%
X148525000Y-101700000D03*
%TO.N,/mcu/CANH*%
X146025000Y-101700000D03*
%TD*%
D18*
%TO.N,GND*%
X143900000Y-103500000D03*
%TO.N,+3V3*%
X145175000Y-98175000D03*
X144100000Y-98175000D03*
X146300000Y-98175000D03*
X161175000Y-95450000D03*
X161175000Y-94600000D03*
X161175000Y-93700000D03*
%TO.N,GND*%
X153975000Y-84225000D03*
X159950000Y-85100000D03*
X154025000Y-91125000D03*
X161875000Y-87350000D03*
X141550000Y-89050000D03*
X143925000Y-101575000D03*
X130700000Y-80025000D03*
X162125000Y-90250000D03*
X135925000Y-86300000D03*
X161900000Y-86100000D03*
X153975000Y-85250000D03*
X159925000Y-80375000D03*
X137175000Y-85000000D03*
X135925000Y-85025000D03*
X152750000Y-79900000D03*
X135925000Y-83825000D03*
X159950000Y-82800000D03*
X134650000Y-85000000D03*
X154975000Y-84250000D03*
X159950000Y-83950000D03*
X133200000Y-79700000D03*
X155600000Y-93200000D03*
X147800000Y-92100000D03*
X152925000Y-84175000D03*
X152275000Y-88850500D03*
X146225000Y-93075000D03*
X140904600Y-93350500D03*
X154000000Y-83200000D03*
X159950000Y-81600000D03*
%TO.N,Vmot*%
X132150000Y-94150000D03*
X150200000Y-86325000D03*
X139000000Y-70700000D03*
X161925000Y-82200000D03*
X150850000Y-86975000D03*
X153725000Y-74775000D03*
X153750000Y-72700000D03*
X156250000Y-90950000D03*
X155325000Y-91350000D03*
X151750000Y-86800000D03*
X138975000Y-74750000D03*
X139000000Y-72750000D03*
X156150000Y-91975000D03*
X153725000Y-70725000D03*
X161950000Y-83375000D03*
D19*
%TO.N,/mcu/USBD_P*%
X137500000Y-96625000D03*
X136650000Y-95825000D03*
D18*
%TO.N,+3V3*%
X134550500Y-90189528D03*
X162425000Y-93700000D03*
X146800000Y-99125000D03*
X162425000Y-94575000D03*
X140050000Y-103600000D03*
X144600000Y-99125000D03*
X140850000Y-78425000D03*
X145675000Y-99125000D03*
X162150000Y-92100000D03*
X136084756Y-77651472D03*
X148575500Y-83099500D03*
X131015734Y-89634266D03*
X162400000Y-95425000D03*
X150800000Y-78450000D03*
X140924500Y-87975000D03*
X145550000Y-78475000D03*
X146000000Y-95675000D03*
D19*
%TO.N,/mcu/RESET*%
X130225000Y-84175000D03*
X133250000Y-77775000D03*
X142925000Y-94300000D03*
%TO.N,/current sense/U_SENSE*%
X131225000Y-83575000D03*
X139975000Y-79375000D03*
%TO.N,/current sense/V_SENSE*%
X147600000Y-83000000D03*
X137425000Y-89725000D03*
X147600000Y-81850000D03*
X149925000Y-79425000D03*
%TO.N,/current sense/W_SENSE*%
X132175000Y-87750000D03*
X138575000Y-81650000D03*
X140600000Y-81650000D03*
X144625000Y-79425000D03*
D18*
%TO.N,/usb/USB_5V*%
X136221584Y-97995447D03*
X135074342Y-96842749D03*
X139022580Y-95565784D03*
X141575000Y-95875000D03*
X131000000Y-94950000D03*
X137925000Y-94025000D03*
%TO.N,Net-(D603-K)*%
X155375500Y-88651305D03*
X150575000Y-84225000D03*
D19*
%TO.N,Net-(D601-K)*%
X151805811Y-81930811D03*
X156600000Y-86375000D03*
%TO.N,/half bridges/ENA*%
X155450000Y-87550000D03*
X150525000Y-83225000D03*
X139371900Y-88772810D03*
%TO.N,/encoder/SCK*%
X147450000Y-91350000D03*
X130625000Y-87275000D03*
%TO.N,/encoder/CIPO*%
X131025000Y-87775000D03*
X146050000Y-91325000D03*
%TO.N,/encoder/COPI*%
X146775000Y-91350000D03*
X131450000Y-88300000D03*
%TO.N,/encoder/CS*%
X148150000Y-91350000D03*
X132073766Y-87148766D03*
%TO.N,/encoder/CAL_EN*%
X132525000Y-88150000D03*
X145325000Y-91350000D03*
%TO.N,/mcu/CAN_TX*%
X140175000Y-83225000D03*
X138050000Y-80825000D03*
%TO.N,/mcu/CAN_RX*%
X137600000Y-80425000D03*
X140800000Y-83225000D03*
%TO.N,/half bridges/IN2B*%
X150950000Y-82825000D03*
X131750000Y-83075000D03*
%TO.N,/half bridges/IN1A*%
X156800000Y-86900000D03*
X139215802Y-87973175D03*
%TO.N,/half bridges/IN2A*%
X139650000Y-87678939D03*
X156177038Y-86685172D03*
%TO.N,/half bridges/IN1B*%
X132125000Y-82675000D03*
X151425000Y-82400000D03*
%TO.N,/mcu/DIR*%
X138850000Y-88825000D03*
X149724503Y-90975000D03*
%TO.N,/mcu/STEP*%
X138525000Y-89275000D03*
X149200000Y-90975000D03*
D18*
%TO.N,GNDA*%
X143584500Y-78225000D03*
X148824500Y-78225000D03*
X149775000Y-98800000D03*
X149775000Y-97875000D03*
X138675000Y-78175000D03*
X148575500Y-85324500D03*
X148625000Y-98825000D03*
%TD*%
%TA.AperFunction,Conductor*%
%TO.N,GND*%
G36*
X141977915Y-69495462D02*
G01*
X142032453Y-69550000D01*
X142052415Y-69624500D01*
X142032453Y-69699000D01*
X142014510Y-69722383D01*
X142014741Y-69722567D01*
X142009523Y-69729110D01*
X141919544Y-69872309D01*
X141863686Y-70031943D01*
X141844751Y-70199999D01*
X141844751Y-70200000D01*
X141863686Y-70368056D01*
X141919544Y-70527690D01*
X141999788Y-70655397D01*
X142022522Y-70729098D01*
X142005359Y-70804293D01*
X141952899Y-70860832D01*
X141944542Y-70865711D01*
X141845099Y-70919527D01*
X141665206Y-71059543D01*
X141510821Y-71227250D01*
X141510819Y-71227252D01*
X141510817Y-71227255D01*
X141446730Y-71325347D01*
X141386136Y-71418093D01*
X141294570Y-71626843D01*
X141238609Y-71847828D01*
X141219786Y-72074998D01*
X141219786Y-72075001D01*
X141238609Y-72302171D01*
X141238609Y-72302174D01*
X141238610Y-72302176D01*
X141258754Y-72381721D01*
X141294570Y-72523156D01*
X141386136Y-72731906D01*
X141386138Y-72731909D01*
X141510817Y-72922745D01*
X141644790Y-73068278D01*
X141665206Y-73090456D01*
X141845094Y-73230469D01*
X141894069Y-73256973D01*
X141950089Y-73309988D01*
X141972096Y-73383909D01*
X141954195Y-73458931D01*
X141901275Y-73514893D01*
X141779125Y-73590103D01*
X141603360Y-73744795D01*
X141456267Y-73926966D01*
X141342075Y-74131378D01*
X141342074Y-74131380D01*
X141264070Y-74352153D01*
X141238070Y-74503788D01*
X141224500Y-74582928D01*
X141224500Y-75008428D01*
X141233850Y-75118278D01*
X141239384Y-75183301D01*
X141298382Y-75409887D01*
X141298385Y-75409895D01*
X141394826Y-75623247D01*
X141525939Y-75817236D01*
X141525941Y-75817238D01*
X141525943Y-75817241D01*
X141687956Y-75986283D01*
X141876208Y-76125513D01*
X142085282Y-76230926D01*
X142309163Y-76299489D01*
X142541411Y-76329229D01*
X142775345Y-76319292D01*
X143004234Y-76269962D01*
X143221494Y-76182660D01*
X143420875Y-76059896D01*
X143596641Y-75905203D01*
X143736132Y-75732445D01*
X143798463Y-75687025D01*
X143875157Y-75678853D01*
X143945661Y-75710124D01*
X143975505Y-75742616D01*
X144025939Y-75817236D01*
X144025941Y-75817238D01*
X144025943Y-75817241D01*
X144187956Y-75986283D01*
X144376208Y-76125513D01*
X144585282Y-76230926D01*
X144809163Y-76299489D01*
X145041411Y-76329229D01*
X145275345Y-76319292D01*
X145504234Y-76269962D01*
X145721494Y-76182660D01*
X145920875Y-76059896D01*
X146096641Y-75905203D01*
X146236132Y-75732445D01*
X146298463Y-75687025D01*
X146375157Y-75678853D01*
X146445661Y-75710124D01*
X146475505Y-75742616D01*
X146525939Y-75817236D01*
X146525941Y-75817238D01*
X146525943Y-75817241D01*
X146687956Y-75986283D01*
X146876208Y-76125513D01*
X147085282Y-76230926D01*
X147309163Y-76299489D01*
X147541411Y-76329229D01*
X147775345Y-76319292D01*
X148004234Y-76269962D01*
X148221494Y-76182660D01*
X148420875Y-76059896D01*
X148596641Y-75905203D01*
X148736132Y-75732445D01*
X148798463Y-75687025D01*
X148875157Y-75678853D01*
X148945661Y-75710124D01*
X148975505Y-75742616D01*
X149025939Y-75817236D01*
X149025941Y-75817238D01*
X149025943Y-75817241D01*
X149187956Y-75986283D01*
X149376208Y-76125513D01*
X149585282Y-76230926D01*
X149809163Y-76299489D01*
X150041411Y-76329229D01*
X150275345Y-76319292D01*
X150504234Y-76269962D01*
X150721494Y-76182660D01*
X150920875Y-76059896D01*
X151096641Y-75905203D01*
X151243735Y-75723030D01*
X151357926Y-75518619D01*
X151435929Y-75297849D01*
X151475500Y-75067072D01*
X151475500Y-74775000D01*
X152819540Y-74775000D01*
X152839325Y-74963254D01*
X152839326Y-74963256D01*
X152897821Y-75143284D01*
X152897822Y-75143285D01*
X152992469Y-75307220D01*
X153119127Y-75447886D01*
X153119129Y-75447888D01*
X153272270Y-75559151D01*
X153445197Y-75636144D01*
X153586315Y-75666139D01*
X153630352Y-75675500D01*
X153630354Y-75675500D01*
X153819648Y-75675500D01*
X153859004Y-75667134D01*
X154004803Y-75636144D01*
X154177730Y-75559151D01*
X154330871Y-75447888D01*
X154403195Y-75367563D01*
X154457530Y-75307220D01*
X154457531Y-75307218D01*
X154457533Y-75307216D01*
X154552179Y-75143284D01*
X154610674Y-74963256D01*
X154630460Y-74775000D01*
X154610674Y-74586744D01*
X154552179Y-74406716D01*
X154457533Y-74242784D01*
X154457532Y-74242783D01*
X154457530Y-74242779D01*
X154330872Y-74102113D01*
X154296462Y-74077113D01*
X154177730Y-73990849D01*
X154177729Y-73990848D01*
X154177727Y-73990847D01*
X154142134Y-73975000D01*
X155895006Y-73975000D01*
X155914965Y-74343136D01*
X155914965Y-74343142D01*
X155974613Y-74706974D01*
X155974613Y-74706976D01*
X156073247Y-75062221D01*
X156073249Y-75062226D01*
X156209709Y-75404715D01*
X156209715Y-75404728D01*
X156382404Y-75730456D01*
X156382407Y-75730461D01*
X156589303Y-76035608D01*
X156589312Y-76035620D01*
X156725496Y-76195948D01*
X156725497Y-76195948D01*
X158041350Y-74880094D01*
X158095456Y-74958480D01*
X158268816Y-75138966D01*
X158394865Y-75233686D01*
X157076520Y-76552031D01*
X157095657Y-76570159D01*
X157095658Y-76570160D01*
X157389165Y-76793278D01*
X157705066Y-76983350D01*
X158039684Y-77138160D01*
X158039694Y-77138165D01*
X158389063Y-77255880D01*
X158749131Y-77335137D01*
X159115656Y-77374999D01*
X159115666Y-77375000D01*
X159484334Y-77375000D01*
X159484343Y-77374999D01*
X159850868Y-77335137D01*
X159850869Y-77335137D01*
X160210936Y-77255880D01*
X160560305Y-77138165D01*
X160560315Y-77138160D01*
X160894933Y-76983350D01*
X161210834Y-76793278D01*
X161504352Y-76570151D01*
X161523479Y-76552032D01*
X160206879Y-75235432D01*
X160234180Y-75218168D01*
X160421501Y-75052216D01*
X160560511Y-74881958D01*
X161874501Y-76195948D01*
X162010690Y-76035617D01*
X162010694Y-76035611D01*
X162217592Y-75730461D01*
X162217595Y-75730456D01*
X162390284Y-75404728D01*
X162390290Y-75404715D01*
X162526750Y-75062226D01*
X162526752Y-75062221D01*
X162625386Y-74706976D01*
X162625386Y-74706974D01*
X162685034Y-74343142D01*
X162685034Y-74343136D01*
X162704994Y-73975000D01*
X162704994Y-73974991D01*
X162685034Y-73606863D01*
X162685034Y-73606857D01*
X162625386Y-73243025D01*
X162625386Y-73243023D01*
X162526752Y-72887778D01*
X162526750Y-72887773D01*
X162390290Y-72545284D01*
X162390284Y-72545271D01*
X162217595Y-72219543D01*
X162217592Y-72219538D01*
X162010696Y-71914391D01*
X162010687Y-71914379D01*
X161874502Y-71754050D01*
X161874501Y-71754050D01*
X160558648Y-73069903D01*
X160504544Y-72991520D01*
X160331184Y-72811034D01*
X160205132Y-72716312D01*
X161523479Y-71397966D01*
X161504347Y-71379844D01*
X161210834Y-71156721D01*
X160894933Y-70966649D01*
X160560315Y-70811839D01*
X160560305Y-70811834D01*
X160210936Y-70694119D01*
X159850868Y-70614862D01*
X159484343Y-70575000D01*
X159115656Y-70575000D01*
X158749131Y-70614862D01*
X158749130Y-70614862D01*
X158389063Y-70694119D01*
X158039694Y-70811834D01*
X158039684Y-70811839D01*
X157705066Y-70966649D01*
X157389165Y-71156721D01*
X157095663Y-71379835D01*
X157076520Y-71397967D01*
X158393120Y-72714567D01*
X158365820Y-72731832D01*
X158178499Y-72897784D01*
X158039488Y-73068041D01*
X156725497Y-71754050D01*
X156725496Y-71754050D01*
X156589308Y-71914383D01*
X156589306Y-71914386D01*
X156382402Y-72219547D01*
X156209715Y-72545271D01*
X156209709Y-72545284D01*
X156073249Y-72887773D01*
X156073247Y-72887778D01*
X155974613Y-73243023D01*
X155974613Y-73243025D01*
X155914965Y-73606857D01*
X155914965Y-73606863D01*
X155895006Y-73974991D01*
X155895006Y-73975000D01*
X154142134Y-73975000D01*
X154004806Y-73913857D01*
X154004804Y-73913856D01*
X154004803Y-73913856D01*
X153963776Y-73905135D01*
X153873283Y-73885900D01*
X153804562Y-73850884D01*
X153762555Y-73786198D01*
X153758519Y-73709176D01*
X153793535Y-73640455D01*
X153858221Y-73598448D01*
X153873273Y-73594415D01*
X154029803Y-73561144D01*
X154202730Y-73484151D01*
X154355871Y-73372888D01*
X154472801Y-73243025D01*
X154482530Y-73232220D01*
X154482531Y-73232218D01*
X154482533Y-73232216D01*
X154577179Y-73068284D01*
X154635674Y-72888256D01*
X154655460Y-72700000D01*
X154635674Y-72511744D01*
X154577179Y-72331716D01*
X154482533Y-72167784D01*
X154482532Y-72167783D01*
X154482530Y-72167779D01*
X154355872Y-72027113D01*
X154355871Y-72027112D01*
X154202730Y-71915849D01*
X154202726Y-71915847D01*
X154039228Y-71843052D01*
X153979288Y-71794513D01*
X153951648Y-71722508D01*
X153963714Y-71646330D01*
X154012253Y-71586390D01*
X154039221Y-71570819D01*
X154177730Y-71509151D01*
X154330871Y-71397888D01*
X154434786Y-71282479D01*
X154457530Y-71257220D01*
X154457531Y-71257218D01*
X154457533Y-71257216D01*
X154552179Y-71093284D01*
X154610674Y-70913256D01*
X154630460Y-70725000D01*
X154610674Y-70536744D01*
X154552179Y-70356716D01*
X154457533Y-70192784D01*
X154457532Y-70192783D01*
X154457530Y-70192779D01*
X154330872Y-70052113D01*
X154303110Y-70031943D01*
X154177730Y-69940849D01*
X154177729Y-69940848D01*
X154177727Y-69940847D01*
X154023791Y-69872310D01*
X154004803Y-69863856D01*
X153887191Y-69838857D01*
X153819648Y-69824500D01*
X153819646Y-69824500D01*
X153630354Y-69824500D01*
X153630352Y-69824500D01*
X153550492Y-69841475D01*
X153445197Y-69863856D01*
X153445195Y-69863856D01*
X153445194Y-69863857D01*
X153272272Y-69940847D01*
X153119127Y-70052113D01*
X152992469Y-70192779D01*
X152897822Y-70356714D01*
X152897819Y-70356721D01*
X152839325Y-70536745D01*
X152819540Y-70725000D01*
X152839325Y-70913254D01*
X152873120Y-71017264D01*
X152897821Y-71093284D01*
X152897822Y-71093285D01*
X152992469Y-71257220D01*
X153102874Y-71379835D01*
X153119129Y-71397888D01*
X153272270Y-71509151D01*
X153435771Y-71581947D01*
X153495711Y-71630485D01*
X153523351Y-71702491D01*
X153511285Y-71778669D01*
X153462747Y-71838609D01*
X153435772Y-71854183D01*
X153297271Y-71915848D01*
X153144127Y-72027113D01*
X153017469Y-72167779D01*
X152922822Y-72331714D01*
X152922819Y-72331721D01*
X152864325Y-72511745D01*
X152844540Y-72700000D01*
X152864325Y-72888254D01*
X152897879Y-72991520D01*
X152922821Y-73068284D01*
X152951689Y-73118285D01*
X153017469Y-73232220D01*
X153144127Y-73372886D01*
X153144129Y-73372888D01*
X153297270Y-73484151D01*
X153470197Y-73561144D01*
X153572284Y-73582843D01*
X153601715Y-73589099D01*
X153670437Y-73624115D01*
X153712444Y-73688800D01*
X153716480Y-73765822D01*
X153681464Y-73834544D01*
X153616779Y-73876551D01*
X153601715Y-73880587D01*
X153524198Y-73897063D01*
X153445197Y-73913856D01*
X153445195Y-73913856D01*
X153445194Y-73913857D01*
X153272272Y-73990847D01*
X153119127Y-74102113D01*
X152992469Y-74242779D01*
X152897822Y-74406714D01*
X152897819Y-74406721D01*
X152839325Y-74586745D01*
X152819540Y-74775000D01*
X151475500Y-74775000D01*
X151475500Y-74641572D01*
X151460616Y-74466699D01*
X151401617Y-74240110D01*
X151305172Y-74026750D01*
X151196375Y-73865779D01*
X151174060Y-73832763D01*
X151174058Y-73832761D01*
X151174057Y-73832759D01*
X151012044Y-73663717D01*
X150823792Y-73524487D01*
X150813253Y-73519173D01*
X150755718Y-73467811D01*
X150731572Y-73394560D01*
X150747286Y-73319050D01*
X150798650Y-73261513D01*
X150809418Y-73255086D01*
X150854903Y-73230471D01*
X150920447Y-73179456D01*
X151034794Y-73090456D01*
X151189183Y-72922745D01*
X151313862Y-72731909D01*
X151405430Y-72523155D01*
X151461390Y-72302176D01*
X151480214Y-72075000D01*
X151461390Y-71847824D01*
X151405430Y-71626845D01*
X151313862Y-71418091D01*
X151189183Y-71227255D01*
X151034794Y-71059544D01*
X150854906Y-70919531D01*
X150854905Y-70919530D01*
X150755457Y-70865712D01*
X150699437Y-70812698D01*
X150677430Y-70738776D01*
X150695331Y-70663754D01*
X150700204Y-70655409D01*
X150780456Y-70527690D01*
X150836313Y-70368059D01*
X150855249Y-70200000D01*
X150836313Y-70031941D01*
X150780456Y-69872310D01*
X150690477Y-69729110D01*
X150690472Y-69729105D01*
X150685259Y-69722567D01*
X150686462Y-69721607D01*
X150652662Y-69663064D01*
X150652662Y-69585936D01*
X150691226Y-69519141D01*
X150758021Y-69480577D01*
X150796585Y-69475500D01*
X159299500Y-69475500D01*
X159300000Y-69475500D01*
X159494602Y-69483996D01*
X159694966Y-69493260D01*
X159701221Y-69493815D01*
X159901571Y-69520192D01*
X160095578Y-69547255D01*
X160101345Y-69548295D01*
X160299710Y-69592271D01*
X160489661Y-69636948D01*
X160494977Y-69638408D01*
X160622788Y-69678707D01*
X160689219Y-69699653D01*
X160722180Y-69710700D01*
X160874134Y-69761629D01*
X160878906Y-69763415D01*
X161067446Y-69841511D01*
X161245794Y-69920260D01*
X161250060Y-69922310D01*
X161431369Y-70016693D01*
X161458747Y-70031943D01*
X161601681Y-70111557D01*
X161605458Y-70113810D01*
X161690174Y-70167779D01*
X161778059Y-70223768D01*
X161939014Y-70334024D01*
X161942239Y-70336364D01*
X162104780Y-70461086D01*
X162255012Y-70585837D01*
X162257715Y-70588196D01*
X162379728Y-70700000D01*
X162408911Y-70726741D01*
X162548258Y-70866088D01*
X162686798Y-71017278D01*
X162689175Y-71020002D01*
X162813912Y-71170217D01*
X162938634Y-71332759D01*
X162940984Y-71335998D01*
X163051229Y-71496936D01*
X163059012Y-71509152D01*
X163161188Y-71669540D01*
X163163440Y-71673316D01*
X163258309Y-71843636D01*
X163352688Y-72024938D01*
X163354751Y-72029231D01*
X163433492Y-72207564D01*
X163472680Y-72302171D01*
X163511574Y-72396070D01*
X163513384Y-72400906D01*
X163575346Y-72585780D01*
X163636583Y-72779999D01*
X163638052Y-72785346D01*
X163682737Y-72975331D01*
X163726697Y-73173622D01*
X163727749Y-73179456D01*
X163754816Y-73373495D01*
X163781181Y-73573758D01*
X163781739Y-73580044D01*
X163791009Y-73780535D01*
X163799500Y-73975000D01*
X163799500Y-99975000D01*
X163791009Y-100169464D01*
X163781739Y-100369954D01*
X163781181Y-100376240D01*
X163754816Y-100576504D01*
X163727749Y-100770542D01*
X163726697Y-100776376D01*
X163682728Y-100974707D01*
X163638057Y-101164635D01*
X163636588Y-101169982D01*
X163575325Y-101364287D01*
X163513390Y-101549075D01*
X163511581Y-101553910D01*
X163433475Y-101742477D01*
X163354753Y-101920762D01*
X163352683Y-101925070D01*
X163258304Y-102106373D01*
X163163441Y-102276682D01*
X163161189Y-102280459D01*
X163051225Y-102453069D01*
X162940984Y-102614000D01*
X162938626Y-102617250D01*
X162813905Y-102779791D01*
X162689190Y-102929979D01*
X162686802Y-102932717D01*
X162548236Y-103083935D01*
X162408935Y-103223236D01*
X162257717Y-103361802D01*
X162254979Y-103364190D01*
X162104791Y-103488905D01*
X161942250Y-103613626D01*
X161939000Y-103615984D01*
X161778069Y-103726225D01*
X161605459Y-103836189D01*
X161601682Y-103838441D01*
X161431373Y-103933304D01*
X161250070Y-104027683D01*
X161245762Y-104029753D01*
X161067477Y-104108475D01*
X160878910Y-104186581D01*
X160874075Y-104188390D01*
X160689287Y-104250325D01*
X160494982Y-104311588D01*
X160489635Y-104313057D01*
X160299707Y-104357728D01*
X160101376Y-104401697D01*
X160095542Y-104402749D01*
X159901504Y-104429816D01*
X159701240Y-104456181D01*
X159694954Y-104456739D01*
X159494464Y-104466009D01*
X159300000Y-104474500D01*
X140808999Y-104474500D01*
X140734499Y-104454538D01*
X140679961Y-104400000D01*
X140659999Y-104325500D01*
X140679961Y-104251000D01*
X140698271Y-104225799D01*
X140782530Y-104132220D01*
X140782531Y-104132218D01*
X140782533Y-104132216D01*
X140877179Y-103968284D01*
X140935674Y-103788256D01*
X140955460Y-103600000D01*
X140935674Y-103411744D01*
X140878330Y-103235261D01*
X140875207Y-103175676D01*
X140854040Y-103167267D01*
X140813979Y-103122251D01*
X140805782Y-103108054D01*
X140782533Y-103067784D01*
X140782532Y-103067783D01*
X140782530Y-103067779D01*
X140655872Y-102927113D01*
X140622727Y-102903032D01*
X140502730Y-102815849D01*
X140502729Y-102815848D01*
X140502727Y-102815847D01*
X140329805Y-102738857D01*
X140329803Y-102738856D01*
X140294433Y-102731338D01*
X141012588Y-102731338D01*
X141042863Y-102903034D01*
X141079831Y-102988735D01*
X141090819Y-103063754D01*
X141119738Y-103078489D01*
X141139554Y-103100241D01*
X141216026Y-103202961D01*
X141349578Y-103315025D01*
X141349579Y-103315025D01*
X141349581Y-103315027D01*
X141505380Y-103393272D01*
X141675024Y-103433478D01*
X141675026Y-103433478D01*
X141805634Y-103433478D01*
X141805638Y-103433477D01*
X141935359Y-103418315D01*
X142099188Y-103358686D01*
X142244849Y-103262883D01*
X142364491Y-103136071D01*
X142451662Y-102985085D01*
X142501664Y-102818066D01*
X142511802Y-102644018D01*
X142481527Y-102472324D01*
X142474386Y-102455768D01*
X142412473Y-102312237D01*
X142308363Y-102172394D01*
X142174811Y-102060330D01*
X142019013Y-101982085D01*
X142019011Y-101982084D01*
X142019010Y-101982084D01*
X141849366Y-101941878D01*
X141718759Y-101941878D01*
X141718750Y-101941878D01*
X141589035Y-101957040D01*
X141589031Y-101957040D01*
X141425206Y-102016668D01*
X141425204Y-102016669D01*
X141425202Y-102016670D01*
X141325255Y-102082406D01*
X141279536Y-102112476D01*
X141159904Y-102239278D01*
X141159896Y-102239289D01*
X141072728Y-102390269D01*
X141072727Y-102390271D01*
X141047359Y-102475009D01*
X141024301Y-102552031D01*
X141022726Y-102557291D01*
X141012588Y-102731332D01*
X141012588Y-102731338D01*
X140294433Y-102731338D01*
X140223360Y-102716231D01*
X140144648Y-102699500D01*
X140144646Y-102699500D01*
X139955354Y-102699500D01*
X139955352Y-102699500D01*
X139871418Y-102717341D01*
X139770197Y-102738856D01*
X139770195Y-102738856D01*
X139770194Y-102738857D01*
X139597272Y-102815847D01*
X139444127Y-102927113D01*
X139317469Y-103067779D01*
X139222822Y-103231714D01*
X139222819Y-103231721D01*
X139164325Y-103411745D01*
X139144540Y-103600000D01*
X139164325Y-103788254D01*
X139211455Y-103933304D01*
X139222821Y-103968284D01*
X139257115Y-104027683D01*
X139317469Y-104132220D01*
X139401729Y-104225799D01*
X139436745Y-104294521D01*
X139432709Y-104371543D01*
X139390702Y-104436228D01*
X139321980Y-104471244D01*
X139291001Y-104474500D01*
X133300000Y-104474500D01*
X133105535Y-104466009D01*
X132905044Y-104456739D01*
X132898758Y-104456181D01*
X132698495Y-104429816D01*
X132504456Y-104402749D01*
X132498621Y-104401697D01*
X132300292Y-104357728D01*
X132110363Y-104313057D01*
X132105016Y-104311588D01*
X131910712Y-104250325D01*
X131789471Y-104209690D01*
X131725915Y-104188388D01*
X131721088Y-104186581D01*
X131532522Y-104108475D01*
X131354237Y-104029754D01*
X131349928Y-104027683D01*
X131168627Y-103933304D01*
X130998316Y-103838441D01*
X130994539Y-103836189D01*
X130821930Y-103726225D01*
X130660998Y-103615984D01*
X130657748Y-103613626D01*
X130495208Y-103488905D01*
X130345019Y-103364190D01*
X130342281Y-103361801D01*
X130191064Y-103223236D01*
X130051763Y-103083935D01*
X130036959Y-103067779D01*
X129913192Y-102932712D01*
X129910808Y-102929979D01*
X129786094Y-102779791D01*
X129661372Y-102617250D01*
X129659014Y-102614000D01*
X129628982Y-102570159D01*
X129548774Y-102453069D01*
X129508766Y-102390269D01*
X129438802Y-102280447D01*
X129436556Y-102276681D01*
X129391588Y-102195948D01*
X129341696Y-102106373D01*
X129247314Y-101925068D01*
X129245255Y-101920784D01*
X129166524Y-101742477D01*
X129088409Y-101553890D01*
X129086619Y-101549107D01*
X129024674Y-101364287D01*
X128963408Y-101169976D01*
X128961947Y-101164660D01*
X128917271Y-100974707D01*
X128902564Y-100908368D01*
X128873295Y-100776345D01*
X128872255Y-100770578D01*
X128845183Y-100576504D01*
X128818815Y-100376221D01*
X128818260Y-100369966D01*
X128808996Y-100169602D01*
X128800500Y-99975000D01*
X129895006Y-99975000D01*
X129914965Y-100343136D01*
X129914965Y-100343142D01*
X129974613Y-100706974D01*
X129974613Y-100706976D01*
X130073247Y-101062221D01*
X130073249Y-101062226D01*
X130209709Y-101404715D01*
X130209715Y-101404728D01*
X130382404Y-101730456D01*
X130382407Y-101730461D01*
X130589303Y-102035608D01*
X130589312Y-102035620D01*
X130725496Y-102195948D01*
X130725497Y-102195948D01*
X132041350Y-100880094D01*
X132095456Y-100958480D01*
X132268816Y-101138966D01*
X132394865Y-101233685D01*
X131076520Y-102552031D01*
X131095657Y-102570159D01*
X131095658Y-102570160D01*
X131389165Y-102793278D01*
X131705066Y-102983350D01*
X132039684Y-103138160D01*
X132039694Y-103138165D01*
X132389063Y-103255880D01*
X132749131Y-103335137D01*
X133115656Y-103374999D01*
X133115666Y-103375000D01*
X133484334Y-103375000D01*
X133484343Y-103374999D01*
X133850868Y-103335137D01*
X133850869Y-103335137D01*
X134210936Y-103255880D01*
X134560305Y-103138165D01*
X134560315Y-103138160D01*
X134894933Y-102983350D01*
X135210834Y-102793278D01*
X135504346Y-102570155D01*
X135586317Y-102492509D01*
X135654132Y-102455768D01*
X135731232Y-102457856D01*
X135796958Y-102498214D01*
X135833699Y-102566029D01*
X135837533Y-102609346D01*
X135832060Y-102703308D01*
X135832060Y-102703315D01*
X135862335Y-102875011D01*
X135931388Y-103035095D01*
X136035498Y-103174938D01*
X136169050Y-103287002D01*
X136169051Y-103287002D01*
X136169053Y-103287004D01*
X136324852Y-103365249D01*
X136494496Y-103405455D01*
X136494498Y-103405455D01*
X136625106Y-103405455D01*
X136625110Y-103405454D01*
X136754831Y-103390292D01*
X136918660Y-103330663D01*
X137064321Y-103234860D01*
X137094417Y-103202961D01*
X137138131Y-103156627D01*
X137183963Y-103108048D01*
X137271134Y-102957062D01*
X137321136Y-102790043D01*
X137331274Y-102615995D01*
X137300999Y-102444301D01*
X137279915Y-102395421D01*
X137231945Y-102284214D01*
X137127835Y-102144371D01*
X136994283Y-102032307D01*
X136838485Y-101954062D01*
X136838483Y-101954061D01*
X136838482Y-101954061D01*
X136668838Y-101913855D01*
X136538231Y-101913855D01*
X136538222Y-101913855D01*
X136408507Y-101929017D01*
X136408502Y-101929018D01*
X136405596Y-101930076D01*
X136403129Y-101930291D01*
X136400061Y-101931019D01*
X136399954Y-101930569D01*
X136328762Y-101936795D01*
X136258861Y-101904197D01*
X136214624Y-101841016D01*
X136207905Y-101764182D01*
X136222997Y-101720267D01*
X136390284Y-101404728D01*
X136390290Y-101404715D01*
X136526750Y-101062226D01*
X136526752Y-101062221D01*
X136617141Y-100736672D01*
X140624864Y-100736672D01*
X140655139Y-100908368D01*
X140724192Y-101068452D01*
X140828302Y-101208295D01*
X140961854Y-101320359D01*
X140961855Y-101320359D01*
X140961857Y-101320361D01*
X141117656Y-101398606D01*
X141287300Y-101438812D01*
X141287302Y-101438812D01*
X141417910Y-101438812D01*
X141417914Y-101438811D01*
X141547635Y-101423649D01*
X141711464Y-101364020D01*
X141857125Y-101268217D01*
X141897899Y-101225000D01*
X141976761Y-101141411D01*
X141976767Y-101141405D01*
X142063938Y-100990419D01*
X142113940Y-100823400D01*
X142124078Y-100649352D01*
X142093803Y-100477658D01*
X142093440Y-100476815D01*
X142024749Y-100317571D01*
X141920639Y-100177728D01*
X141787087Y-100065664D01*
X141631289Y-99987419D01*
X141631287Y-99987418D01*
X141631286Y-99987418D01*
X141461642Y-99947212D01*
X141331035Y-99947212D01*
X141331026Y-99947212D01*
X141201311Y-99962374D01*
X141201307Y-99962374D01*
X141037482Y-100022002D01*
X141037480Y-100022003D01*
X141037478Y-100022004D01*
X140948755Y-100080358D01*
X140891812Y-100117810D01*
X140772180Y-100244612D01*
X140772172Y-100244623D01*
X140685004Y-100395603D01*
X140685003Y-100395605D01*
X140660692Y-100476813D01*
X140635002Y-100562624D01*
X140634194Y-100576504D01*
X140624864Y-100736666D01*
X140624864Y-100736672D01*
X136617141Y-100736672D01*
X136625386Y-100706976D01*
X136625387Y-100706971D01*
X136636955Y-100636411D01*
X136668707Y-100566122D01*
X136731349Y-100521125D01*
X136808097Y-100513479D01*
X136837817Y-100521578D01*
X136920994Y-100553801D01*
X136921012Y-100553806D01*
X136987060Y-100566151D01*
X136987061Y-100566151D01*
X136987061Y-99817168D01*
X137039603Y-99852991D01*
X137169233Y-99892977D01*
X137270784Y-99892977D01*
X137371203Y-99877841D01*
X137487061Y-99822046D01*
X137487061Y-100566151D01*
X137553109Y-100553806D01*
X137553127Y-100553801D01*
X137751851Y-100476815D01*
X137751854Y-100476813D01*
X137933061Y-100364615D01*
X138090562Y-100221033D01*
X138218996Y-100050961D01*
X138313999Y-99860168D01*
X138361573Y-99692965D01*
X137612353Y-99692965D01*
X137660697Y-99609230D01*
X137690883Y-99476974D01*
X137680746Y-99341697D01*
X137631185Y-99215418D01*
X137613279Y-99192965D01*
X138361573Y-99192965D01*
X138313999Y-99025761D01*
X138218996Y-98834968D01*
X138090562Y-98664896D01*
X137933061Y-98521314D01*
X137751854Y-98409116D01*
X137751851Y-98409114D01*
X137553126Y-98332128D01*
X137487061Y-98319777D01*
X137487061Y-99068761D01*
X137434519Y-99032939D01*
X137304889Y-98992953D01*
X137203338Y-98992953D01*
X137102919Y-99008089D01*
X136987061Y-99063883D01*
X136987061Y-98510526D01*
X137007022Y-98436027D01*
X137048763Y-98363731D01*
X137107258Y-98183703D01*
X137108173Y-98175000D01*
X143194540Y-98175000D01*
X143214325Y-98363254D01*
X143258752Y-98499985D01*
X143272821Y-98543284D01*
X143273976Y-98545284D01*
X143367469Y-98707220D01*
X143494127Y-98847886D01*
X143494129Y-98847888D01*
X143637786Y-98952260D01*
X143686323Y-99012199D01*
X143698389Y-99088376D01*
X143694540Y-99124999D01*
X143714325Y-99313254D01*
X143772819Y-99493278D01*
X143772821Y-99493284D01*
X143808956Y-99555871D01*
X143867469Y-99657220D01*
X143994127Y-99797886D01*
X143994129Y-99797888D01*
X144147270Y-99909151D01*
X144147271Y-99909151D01*
X144147272Y-99909152D01*
X144171748Y-99920049D01*
X144320197Y-99986144D01*
X144461315Y-100016139D01*
X144505352Y-100025500D01*
X144505354Y-100025500D01*
X144694648Y-100025500D01*
X144736894Y-100016520D01*
X144879803Y-99986144D01*
X145052730Y-99909151D01*
X145052730Y-99909150D01*
X145052732Y-99909150D01*
X145059491Y-99905248D01*
X145060564Y-99907106D01*
X145121925Y-99883552D01*
X145198103Y-99895618D01*
X145215327Y-99905562D01*
X145215509Y-99905248D01*
X145222267Y-99909150D01*
X145280319Y-99934996D01*
X145395197Y-99986144D01*
X145538109Y-100016520D01*
X145606829Y-100051535D01*
X145648836Y-100116220D01*
X145652873Y-100193243D01*
X145617858Y-100261964D01*
X145566443Y-100296653D01*
X145567234Y-100298348D01*
X145561341Y-100301095D01*
X145561337Y-100301097D01*
X145347171Y-100400965D01*
X145347168Y-100400966D01*
X145347168Y-100400967D01*
X145153596Y-100536507D01*
X144986507Y-100703596D01*
X144862035Y-100881362D01*
X144850965Y-100897171D01*
X144773998Y-101062226D01*
X144751096Y-101111340D01*
X144689937Y-101339590D01*
X144689937Y-101339592D01*
X144674500Y-101516034D01*
X144674500Y-101883966D01*
X144683659Y-101988647D01*
X144689937Y-102060409D01*
X144712435Y-102144372D01*
X144751097Y-102288663D01*
X144850965Y-102502829D01*
X144986505Y-102696401D01*
X145153599Y-102863495D01*
X145347170Y-102999035D01*
X145561337Y-103098903D01*
X145789592Y-103160063D01*
X146025000Y-103180659D01*
X146260408Y-103160063D01*
X146488663Y-103098903D01*
X146702829Y-102999035D01*
X146896401Y-102863495D01*
X147063495Y-102696401D01*
X147152948Y-102568648D01*
X147212029Y-102519073D01*
X147287986Y-102505680D01*
X147360463Y-102532059D01*
X147397051Y-102568647D01*
X147486505Y-102696401D01*
X147653599Y-102863495D01*
X147847170Y-102999035D01*
X148061337Y-103098903D01*
X148289592Y-103160063D01*
X148525000Y-103180659D01*
X148760408Y-103160063D01*
X148988663Y-103098903D01*
X149202829Y-102999035D01*
X149396401Y-102863495D01*
X149563495Y-102696401D01*
X149653252Y-102568214D01*
X149712334Y-102518637D01*
X149788291Y-102505244D01*
X149860767Y-102531623D01*
X149897359Y-102568214D01*
X149986891Y-102696079D01*
X150153923Y-102863111D01*
X150347411Y-102998593D01*
X150347420Y-102998599D01*
X150561508Y-103098430D01*
X150561513Y-103098432D01*
X150775000Y-103155634D01*
X150775000Y-102108018D01*
X150889801Y-102160446D01*
X150991025Y-102175000D01*
X151058975Y-102175000D01*
X151160199Y-102160446D01*
X151275000Y-102108018D01*
X151275000Y-103155633D01*
X151488486Y-103098432D01*
X151702580Y-102998597D01*
X151896079Y-102863108D01*
X152020974Y-102738213D01*
X152087768Y-102699649D01*
X152164896Y-102699649D01*
X152231692Y-102738213D01*
X152253146Y-102765347D01*
X152332288Y-102893656D01*
X152456344Y-103017712D01*
X152605666Y-103109814D01*
X152772203Y-103164999D01*
X152874991Y-103175500D01*
X154175008Y-103175499D01*
X154277797Y-103164999D01*
X154444334Y-103109814D01*
X154593656Y-103017712D01*
X154717712Y-102893656D01*
X154809814Y-102744334D01*
X154864999Y-102577797D01*
X154875500Y-102475009D01*
X154875499Y-100924992D01*
X154864999Y-100822203D01*
X154809814Y-100655666D01*
X154717712Y-100506344D01*
X154593656Y-100382288D01*
X154444334Y-100290186D01*
X154359166Y-100261964D01*
X154277798Y-100235001D01*
X154260665Y-100233250D01*
X154175009Y-100224500D01*
X154175004Y-100224500D01*
X152874996Y-100224500D01*
X152772202Y-100235001D01*
X152605666Y-100290186D01*
X152456343Y-100382288D01*
X152332288Y-100506343D01*
X152253150Y-100634648D01*
X152197049Y-100687577D01*
X152122000Y-100705364D01*
X152048112Y-100683244D01*
X152020974Y-100661786D01*
X151896076Y-100536888D01*
X151702588Y-100401406D01*
X151702579Y-100401400D01*
X151488491Y-100301569D01*
X151488489Y-100301568D01*
X151275000Y-100244364D01*
X151275000Y-101291981D01*
X151160199Y-101239554D01*
X151058975Y-101225000D01*
X150991025Y-101225000D01*
X150889801Y-101239554D01*
X150775000Y-101291981D01*
X150775000Y-100244364D01*
X150774999Y-100244364D01*
X150561512Y-100301568D01*
X150347419Y-100401402D01*
X150153920Y-100536891D01*
X149986888Y-100703923D01*
X149897358Y-100831785D01*
X149838274Y-100881362D01*
X149762318Y-100894755D01*
X149689842Y-100868375D01*
X149653251Y-100831785D01*
X149647380Y-100823400D01*
X149563495Y-100703599D01*
X149396401Y-100536505D01*
X149202830Y-100400965D01*
X148988663Y-100301097D01*
X148988661Y-100301096D01*
X148760409Y-100239937D01*
X148525000Y-100219341D01*
X148289590Y-100239937D01*
X148061340Y-100301096D01*
X148061339Y-100301096D01*
X148061337Y-100301097D01*
X147847171Y-100400965D01*
X147847168Y-100400966D01*
X147847168Y-100400967D01*
X147653596Y-100536507D01*
X147486506Y-100703597D01*
X147397054Y-100831349D01*
X147337970Y-100880926D01*
X147262014Y-100894319D01*
X147189537Y-100867940D01*
X147152946Y-100831349D01*
X147114454Y-100776377D01*
X147063495Y-100703599D01*
X146896401Y-100536505D01*
X146702830Y-100400965D01*
X146488663Y-100301097D01*
X146488661Y-100301096D01*
X146260409Y-100239937D01*
X146102527Y-100226123D01*
X146030050Y-100199743D01*
X145980474Y-100140659D01*
X145967081Y-100064703D01*
X145993461Y-99992226D01*
X146052545Y-99942650D01*
X146054771Y-99941634D01*
X146127730Y-99909151D01*
X146149920Y-99893028D01*
X146221924Y-99865388D01*
X146298102Y-99877453D01*
X146325076Y-99893026D01*
X146347270Y-99909151D01*
X146347271Y-99909151D01*
X146347272Y-99909152D01*
X146371748Y-99920049D01*
X146520197Y-99986144D01*
X146661315Y-100016139D01*
X146705352Y-100025500D01*
X146705354Y-100025500D01*
X146894648Y-100025500D01*
X146936894Y-100016520D01*
X147079803Y-99986144D01*
X147104833Y-99975000D01*
X155895006Y-99975000D01*
X155914965Y-100343136D01*
X155914965Y-100343142D01*
X155974613Y-100706974D01*
X155974613Y-100706976D01*
X156073247Y-101062221D01*
X156073249Y-101062226D01*
X156209709Y-101404715D01*
X156209715Y-101404728D01*
X156382404Y-101730456D01*
X156382407Y-101730461D01*
X156589303Y-102035608D01*
X156589312Y-102035620D01*
X156725496Y-102195948D01*
X156725497Y-102195948D01*
X158041350Y-100880094D01*
X158095456Y-100958480D01*
X158268816Y-101138966D01*
X158394865Y-101233686D01*
X157076520Y-102552031D01*
X157095657Y-102570159D01*
X157095658Y-102570160D01*
X157389165Y-102793278D01*
X157705066Y-102983350D01*
X158039684Y-103138160D01*
X158039694Y-103138165D01*
X158389063Y-103255880D01*
X158749131Y-103335137D01*
X159115656Y-103374999D01*
X159115666Y-103375000D01*
X159484334Y-103375000D01*
X159484343Y-103374999D01*
X159850868Y-103335137D01*
X159850869Y-103335137D01*
X160210936Y-103255880D01*
X160560305Y-103138165D01*
X160560315Y-103138160D01*
X160894933Y-102983350D01*
X161210834Y-102793278D01*
X161504352Y-102570151D01*
X161523479Y-102552032D01*
X160206879Y-101235432D01*
X160234180Y-101218168D01*
X160421501Y-101052216D01*
X160560511Y-100881958D01*
X161874501Y-102195948D01*
X162010690Y-102035617D01*
X162010694Y-102035611D01*
X162217592Y-101730461D01*
X162217595Y-101730456D01*
X162390284Y-101404728D01*
X162390290Y-101404715D01*
X162526750Y-101062226D01*
X162526752Y-101062221D01*
X162625386Y-100706976D01*
X162625386Y-100706974D01*
X162685034Y-100343142D01*
X162685034Y-100343136D01*
X162704994Y-99975000D01*
X162704994Y-99974991D01*
X162685034Y-99606863D01*
X162685034Y-99606857D01*
X162625386Y-99243025D01*
X162625386Y-99243023D01*
X162526752Y-98887778D01*
X162526750Y-98887773D01*
X162390290Y-98545284D01*
X162390284Y-98545271D01*
X162217595Y-98219543D01*
X162217592Y-98219538D01*
X162010696Y-97914391D01*
X162010687Y-97914379D01*
X161874502Y-97754050D01*
X161874501Y-97754050D01*
X160558648Y-99069903D01*
X160504544Y-98991520D01*
X160331184Y-98811034D01*
X160205132Y-98716312D01*
X161523479Y-97397966D01*
X161504347Y-97379844D01*
X161210834Y-97156721D01*
X160894933Y-96966649D01*
X160560315Y-96811839D01*
X160560305Y-96811834D01*
X160210936Y-96694119D01*
X159850868Y-96614862D01*
X159484343Y-96575000D01*
X159115656Y-96575000D01*
X158749131Y-96614862D01*
X158749130Y-96614862D01*
X158389063Y-96694119D01*
X158039694Y-96811834D01*
X158039684Y-96811839D01*
X157705066Y-96966649D01*
X157389165Y-97156721D01*
X157095663Y-97379835D01*
X157076520Y-97397967D01*
X158393120Y-98714567D01*
X158365820Y-98731832D01*
X158178499Y-98897784D01*
X158039488Y-99068041D01*
X156725497Y-97754050D01*
X156725496Y-97754050D01*
X156589308Y-97914383D01*
X156589306Y-97914386D01*
X156382402Y-98219547D01*
X156209715Y-98545271D01*
X156209709Y-98545284D01*
X156073249Y-98887773D01*
X156073247Y-98887778D01*
X155974613Y-99243023D01*
X155974613Y-99243025D01*
X155914965Y-99606857D01*
X155914965Y-99606863D01*
X155895006Y-99974991D01*
X155895006Y-99975000D01*
X147104833Y-99975000D01*
X147252730Y-99909151D01*
X147405871Y-99797888D01*
X147493560Y-99700500D01*
X147532530Y-99657220D01*
X147532531Y-99657218D01*
X147532533Y-99657216D01*
X147627179Y-99493284D01*
X147650264Y-99422233D01*
X147692269Y-99357553D01*
X147760990Y-99322537D01*
X147838013Y-99326573D01*
X147902698Y-99368580D01*
X148014984Y-99493285D01*
X148019129Y-99497888D01*
X148172270Y-99609151D01*
X148345197Y-99686144D01*
X148486315Y-99716139D01*
X148530352Y-99725500D01*
X148530354Y-99725500D01*
X148719648Y-99725500D01*
X148759004Y-99717134D01*
X148904803Y-99686144D01*
X149077730Y-99609151D01*
X149129625Y-99571446D01*
X149201627Y-99543806D01*
X149277806Y-99555871D01*
X149304781Y-99571444D01*
X149322270Y-99584151D01*
X149495197Y-99661144D01*
X149636315Y-99691139D01*
X149680352Y-99700500D01*
X149680354Y-99700500D01*
X149869648Y-99700500D01*
X149909004Y-99692134D01*
X150054803Y-99661144D01*
X150227730Y-99584151D01*
X150380871Y-99472888D01*
X150474791Y-99368580D01*
X150507530Y-99332220D01*
X150507531Y-99332218D01*
X150507533Y-99332216D01*
X150602179Y-99168284D01*
X150660674Y-98988256D01*
X150680460Y-98800000D01*
X150660674Y-98611744D01*
X150602179Y-98431716D01*
X150590796Y-98412001D01*
X150570833Y-98337504D01*
X150590792Y-98263006D01*
X150602179Y-98243284D01*
X150660674Y-98063256D01*
X150680460Y-97875000D01*
X150660674Y-97686744D01*
X150602179Y-97506716D01*
X150507533Y-97342784D01*
X150507532Y-97342783D01*
X150507530Y-97342779D01*
X150380872Y-97202113D01*
X150357326Y-97185006D01*
X150227730Y-97090849D01*
X150227729Y-97090848D01*
X150227727Y-97090847D01*
X150054805Y-97013857D01*
X150054803Y-97013856D01*
X149948360Y-96991231D01*
X149869648Y-96974500D01*
X149869646Y-96974500D01*
X149680354Y-96974500D01*
X149680352Y-96974500D01*
X149580392Y-96995747D01*
X149495197Y-97013856D01*
X149495195Y-97013856D01*
X149495194Y-97013857D01*
X149322272Y-97090847D01*
X149169127Y-97202113D01*
X149042469Y-97342779D01*
X148947822Y-97506714D01*
X148947819Y-97506721D01*
X148889325Y-97686745D01*
X148878330Y-97791358D01*
X148850689Y-97863363D01*
X148790749Y-97911901D01*
X148727455Y-97921935D01*
X148727455Y-97924500D01*
X148530352Y-97924500D01*
X148430392Y-97945747D01*
X148345197Y-97963856D01*
X148345195Y-97963856D01*
X148345194Y-97963857D01*
X148172272Y-98040847D01*
X148019127Y-98152113D01*
X147892469Y-98292779D01*
X147797822Y-98456714D01*
X147797820Y-98456719D01*
X147774736Y-98527763D01*
X147732728Y-98592448D01*
X147664006Y-98627462D01*
X147586984Y-98623425D01*
X147522301Y-98581419D01*
X147405872Y-98452113D01*
X147405871Y-98452112D01*
X147262213Y-98347738D01*
X147213676Y-98287800D01*
X147201610Y-98211625D01*
X147205460Y-98175000D01*
X147185674Y-97986744D01*
X147127179Y-97806716D01*
X147032533Y-97642784D01*
X147032532Y-97642783D01*
X147032530Y-97642779D01*
X146905872Y-97502113D01*
X146862499Y-97470601D01*
X146752730Y-97390849D01*
X146752729Y-97390848D01*
X146752727Y-97390847D01*
X146591529Y-97319077D01*
X146579803Y-97313856D01*
X146473360Y-97291231D01*
X146394648Y-97274500D01*
X146394646Y-97274500D01*
X146205354Y-97274500D01*
X146205352Y-97274500D01*
X146105392Y-97295747D01*
X146020197Y-97313856D01*
X146020195Y-97313856D01*
X146020194Y-97313857D01*
X145847269Y-97390849D01*
X145825079Y-97406971D01*
X145753074Y-97434611D01*
X145676895Y-97422545D01*
X145649921Y-97406971D01*
X145627730Y-97390849D01*
X145540241Y-97351896D01*
X145454803Y-97313856D01*
X145348360Y-97291231D01*
X145269648Y-97274500D01*
X145269646Y-97274500D01*
X145080354Y-97274500D01*
X145080352Y-97274500D01*
X144980392Y-97295747D01*
X144895197Y-97313856D01*
X144895195Y-97313856D01*
X144895194Y-97313857D01*
X144722267Y-97390849D01*
X144715507Y-97394753D01*
X144714435Y-97392896D01*
X144653055Y-97416449D01*
X144576878Y-97404373D01*
X144559673Y-97394440D01*
X144559493Y-97394753D01*
X144552732Y-97390849D01*
X144379805Y-97313857D01*
X144379803Y-97313856D01*
X144273360Y-97291231D01*
X144194648Y-97274500D01*
X144194646Y-97274500D01*
X144005354Y-97274500D01*
X144005352Y-97274500D01*
X143905392Y-97295747D01*
X143820197Y-97313856D01*
X143820195Y-97313856D01*
X143820194Y-97313857D01*
X143647272Y-97390847D01*
X143494127Y-97502113D01*
X143367469Y-97642779D01*
X143272822Y-97806714D01*
X143272819Y-97806721D01*
X143214325Y-97986745D01*
X143194540Y-98175000D01*
X137108173Y-98175000D01*
X137127044Y-97995447D01*
X137107258Y-97807191D01*
X137048763Y-97627163D01*
X136954117Y-97463231D01*
X136954116Y-97463230D01*
X136954114Y-97463226D01*
X136853871Y-97351896D01*
X136837148Y-97319077D01*
X136834203Y-97318899D01*
X136793805Y-97298111D01*
X136674314Y-97211296D01*
X136674313Y-97211295D01*
X136674311Y-97211294D01*
X136501389Y-97134304D01*
X136501387Y-97134303D01*
X136388861Y-97110385D01*
X136316232Y-97094947D01*
X136316230Y-97094947D01*
X136126938Y-97094947D01*
X136119129Y-97094947D01*
X136119129Y-97091791D01*
X136057971Y-97082014D01*
X135998102Y-97033389D01*
X135970566Y-96961344D01*
X135970587Y-96930416D01*
X135979802Y-96842749D01*
X135960016Y-96654493D01*
X135901521Y-96474465D01*
X135827523Y-96346296D01*
X135820759Y-96321055D01*
X135802406Y-96305569D01*
X135680214Y-96169862D01*
X135667577Y-96160681D01*
X135527072Y-96058598D01*
X135527071Y-96058597D01*
X135527069Y-96058596D01*
X135370211Y-95988758D01*
X135354145Y-95981605D01*
X135239403Y-95957216D01*
X135168990Y-95942249D01*
X135168988Y-95942249D01*
X135120779Y-95942249D01*
X135046279Y-95922287D01*
X134991741Y-95867749D01*
X134977467Y-95834025D01*
X134974899Y-95825000D01*
X135969539Y-95825000D01*
X135989312Y-95987847D01*
X136050678Y-96149653D01*
X136048214Y-96150587D01*
X136050486Y-96160681D01*
X136079185Y-96187157D01*
X136140668Y-96276229D01*
X136263454Y-96385008D01*
X136408705Y-96461242D01*
X136567979Y-96500500D01*
X136567980Y-96500500D01*
X136672419Y-96500500D01*
X136746919Y-96520462D01*
X136801457Y-96575000D01*
X136820332Y-96631538D01*
X136839312Y-96787845D01*
X136897482Y-96941226D01*
X136945230Y-97010401D01*
X136990664Y-97076224D01*
X136990668Y-97076229D01*
X136990670Y-97076231D01*
X136992909Y-97078758D01*
X136994206Y-97081355D01*
X136995788Y-97083647D01*
X136995462Y-97083871D01*
X137008705Y-97110385D01*
X137010642Y-97110487D01*
X137063401Y-97140665D01*
X137113454Y-97185008D01*
X137258705Y-97261242D01*
X137417979Y-97300500D01*
X137417980Y-97300500D01*
X137582020Y-97300500D01*
X137582021Y-97300500D01*
X137741295Y-97261242D01*
X137886546Y-97185008D01*
X138009332Y-97076229D01*
X138102518Y-96941226D01*
X138160688Y-96787845D01*
X138180461Y-96625000D01*
X138160688Y-96462155D01*
X138109851Y-96328111D01*
X138102098Y-96251378D01*
X138133752Y-96181044D01*
X138138473Y-96177642D01*
X138086059Y-96191686D01*
X138011559Y-96171723D01*
X137987258Y-96154215D01*
X137951895Y-96122886D01*
X137886551Y-96064995D01*
X137886548Y-96064993D01*
X137741295Y-95988758D01*
X137737591Y-95987845D01*
X137582021Y-95949500D01*
X137477581Y-95949500D01*
X137403081Y-95929538D01*
X137348543Y-95875000D01*
X137329667Y-95818461D01*
X137329645Y-95818278D01*
X137310688Y-95662155D01*
X137252518Y-95508774D01*
X137159332Y-95373771D01*
X137036546Y-95264992D01*
X136891295Y-95188758D01*
X136732021Y-95149500D01*
X136567979Y-95149500D01*
X136488342Y-95169129D01*
X136408704Y-95188758D01*
X136332470Y-95228769D01*
X136263454Y-95264992D01*
X136140668Y-95373771D01*
X136140667Y-95373772D01*
X136140664Y-95373775D01*
X136047483Y-95508772D01*
X136047480Y-95508778D01*
X135989312Y-95662152D01*
X135969539Y-95825000D01*
X134974899Y-95825000D01*
X134919885Y-95631647D01*
X134824883Y-95440855D01*
X134696449Y-95270783D01*
X134538948Y-95127201D01*
X134357741Y-95015003D01*
X134357738Y-95015001D01*
X134159013Y-94938015D01*
X134092948Y-94925664D01*
X134092948Y-95674648D01*
X134040406Y-95638826D01*
X133910776Y-95598840D01*
X133809225Y-95598840D01*
X133708806Y-95613976D01*
X133592948Y-95669770D01*
X133592948Y-94925665D01*
X133592947Y-94925664D01*
X133526882Y-94938015D01*
X133328157Y-95015001D01*
X133328154Y-95015003D01*
X133146947Y-95127201D01*
X132989446Y-95270783D01*
X132861012Y-95440855D01*
X132766009Y-95631648D01*
X132718435Y-95798852D01*
X133467656Y-95798852D01*
X133419312Y-95882587D01*
X133389126Y-96014843D01*
X133399263Y-96150120D01*
X133448824Y-96276399D01*
X133466730Y-96298852D01*
X132718436Y-96298852D01*
X132761536Y-96450334D01*
X132762724Y-96527453D01*
X132725193Y-96594834D01*
X132659000Y-96634422D01*
X132650255Y-96636626D01*
X132389075Y-96694115D01*
X132389064Y-96694118D01*
X132039694Y-96811834D01*
X132039684Y-96811839D01*
X131705066Y-96966649D01*
X131389165Y-97156721D01*
X131095663Y-97379835D01*
X131076520Y-97397967D01*
X132393120Y-98714567D01*
X132365820Y-98731832D01*
X132178499Y-98897784D01*
X132039488Y-99068041D01*
X130725497Y-97754050D01*
X130725496Y-97754050D01*
X130589308Y-97914383D01*
X130589306Y-97914386D01*
X130382402Y-98219547D01*
X130209715Y-98545271D01*
X130209709Y-98545284D01*
X130073249Y-98887773D01*
X130073247Y-98887778D01*
X129974613Y-99243023D01*
X129974613Y-99243025D01*
X129914965Y-99606857D01*
X129914965Y-99606863D01*
X129895006Y-99974991D01*
X129895006Y-99975000D01*
X128800500Y-99975000D01*
X128800500Y-99974500D01*
X128800500Y-94950000D01*
X130094540Y-94950000D01*
X130114325Y-95138254D01*
X130169062Y-95306714D01*
X130172821Y-95318284D01*
X130207026Y-95377529D01*
X130267469Y-95482220D01*
X130394127Y-95622886D01*
X130394129Y-95622888D01*
X130547270Y-95734151D01*
X130720197Y-95811144D01*
X130861315Y-95841139D01*
X130905352Y-95850500D01*
X130905354Y-95850500D01*
X131094648Y-95850500D01*
X131134004Y-95842134D01*
X131279803Y-95811144D01*
X131452730Y-95734151D01*
X131605871Y-95622888D01*
X131678195Y-95542563D01*
X131732530Y-95482220D01*
X131732531Y-95482218D01*
X131732533Y-95482216D01*
X131827179Y-95318284D01*
X131881849Y-95150025D01*
X131923855Y-95085342D01*
X131992577Y-95050326D01*
X132047515Y-95050326D01*
X132047583Y-95049684D01*
X132053702Y-95050326D01*
X132054540Y-95050326D01*
X132055354Y-95050500D01*
X132055356Y-95050500D01*
X132244648Y-95050500D01*
X132291302Y-95040583D01*
X132429803Y-95011144D01*
X132602730Y-94934151D01*
X132755871Y-94822888D01*
X132828195Y-94742563D01*
X132882530Y-94682220D01*
X132882531Y-94682218D01*
X132882533Y-94682216D01*
X132977179Y-94518284D01*
X133035674Y-94338256D01*
X133055460Y-94150000D01*
X133035674Y-93961744D01*
X132977179Y-93781716D01*
X132882533Y-93617784D01*
X132882532Y-93617783D01*
X132882530Y-93617779D01*
X132843092Y-93573979D01*
X133553449Y-93573979D01*
X133560349Y-93639635D01*
X133560647Y-93643388D01*
X133564388Y-93712381D01*
X133564390Y-93712394D01*
X133566876Y-93721348D01*
X133571489Y-93745621D01*
X133572136Y-93751776D01*
X133572137Y-93751782D01*
X133594062Y-93819263D01*
X133613878Y-93890634D01*
X133613879Y-93890636D01*
X133613880Y-93890638D01*
X133616535Y-93895646D01*
X133626592Y-93919378D01*
X133627382Y-93921811D01*
X133650438Y-93961745D01*
X133664399Y-93985926D01*
X133698196Y-94049674D01*
X133700535Y-94054084D01*
X133700539Y-94054090D01*
X133701837Y-94055618D01*
X133712767Y-94071127D01*
X133716775Y-94076644D01*
X133768371Y-94133947D01*
X133820297Y-94195079D01*
X133820303Y-94195083D01*
X133826159Y-94200631D01*
X133826135Y-94200656D01*
X133830359Y-94204542D01*
X133830598Y-94204278D01*
X133836400Y-94209502D01*
X133901280Y-94256641D01*
X133967567Y-94307031D01*
X133968347Y-94307500D01*
X133972393Y-94309599D01*
X133981042Y-94314592D01*
X134057108Y-94348458D01*
X134135469Y-94384712D01*
X134136056Y-94384909D01*
X134141736Y-94386453D01*
X134144361Y-94387305D01*
X134144367Y-94387308D01*
X134228782Y-94405251D01*
X134316137Y-94424479D01*
X134316142Y-94424479D01*
X134498021Y-94424479D01*
X134498025Y-94424479D01*
X134539689Y-94415622D01*
X134547113Y-94414433D01*
X134592544Y-94409493D01*
X134629499Y-94397040D01*
X134637793Y-94394769D01*
X134672901Y-94387308D01*
X134714879Y-94368617D01*
X134721383Y-94366080D01*
X134767855Y-94350423D01*
X134798391Y-94332048D01*
X134806503Y-94327824D01*
X134836227Y-94314591D01*
X134876106Y-94285616D01*
X134881478Y-94282059D01*
X134889700Y-94277112D01*
X134926370Y-94255049D01*
X134949819Y-94232835D01*
X134957258Y-94226654D01*
X134980864Y-94209505D01*
X135016089Y-94170382D01*
X135020190Y-94166176D01*
X135060675Y-94127828D01*
X135076918Y-94103868D01*
X135083201Y-94095847D01*
X135100493Y-94076644D01*
X135128494Y-94028143D01*
X135131321Y-94023631D01*
X135164492Y-93974709D01*
X135171963Y-93955954D01*
X135181340Y-93936610D01*
X135189884Y-93921814D01*
X135208218Y-93865383D01*
X135209851Y-93860861D01*
X135232965Y-93802854D01*
X135235642Y-93786520D01*
X135240976Y-93764567D01*
X135245131Y-93751782D01*
X135251682Y-93689442D01*
X135252254Y-93685189D01*
X135262894Y-93620296D01*
X135262194Y-93607390D01*
X135262792Y-93583747D01*
X135263819Y-93573979D01*
X135256918Y-93508322D01*
X135256620Y-93504579D01*
X135254122Y-93458511D01*
X135252879Y-93435572D01*
X135250390Y-93426610D01*
X135245777Y-93402330D01*
X135245131Y-93396176D01*
X135223205Y-93328695D01*
X135211036Y-93284865D01*
X135203389Y-93257323D01*
X135203388Y-93257322D01*
X135203388Y-93257320D01*
X135200734Y-93252314D01*
X135190671Y-93228568D01*
X135189884Y-93226144D01*
X135152868Y-93162031D01*
X135116734Y-93093875D01*
X135115423Y-93092332D01*
X135104483Y-93076807D01*
X135100496Y-93071318D01*
X135100494Y-93071315D01*
X135100493Y-93071314D01*
X135075967Y-93044075D01*
X135048897Y-93014010D01*
X134996972Y-92952880D01*
X134991102Y-92947319D01*
X134991125Y-92947294D01*
X134986904Y-92943410D01*
X134986666Y-92943676D01*
X134980869Y-92938456D01*
X134915988Y-92891316D01*
X134849703Y-92840928D01*
X134848916Y-92840455D01*
X134844873Y-92838357D01*
X134836231Y-92833368D01*
X134760159Y-92799499D01*
X134717014Y-92779538D01*
X134681801Y-92763247D01*
X134681798Y-92763246D01*
X134681215Y-92763049D01*
X134675540Y-92761507D01*
X134672903Y-92760650D01*
X134661814Y-92758293D01*
X135758994Y-92758293D01*
X136508215Y-92758293D01*
X136459871Y-92842028D01*
X136429685Y-92974284D01*
X136439822Y-93109561D01*
X136489383Y-93235840D01*
X136507289Y-93258293D01*
X135758995Y-93258293D01*
X135806568Y-93425496D01*
X135901571Y-93616289D01*
X136030005Y-93786361D01*
X136187506Y-93929943D01*
X136368713Y-94042141D01*
X136368716Y-94042143D01*
X136567440Y-94119129D01*
X136567458Y-94119134D01*
X136633506Y-94131479D01*
X136633507Y-94131479D01*
X136633507Y-93382496D01*
X136686049Y-93418319D01*
X136815679Y-93458305D01*
X136917230Y-93458305D01*
X137017649Y-93443169D01*
X137133507Y-93387374D01*
X137133507Y-93554981D01*
X137113546Y-93629479D01*
X137097823Y-93656712D01*
X137097819Y-93656721D01*
X137039325Y-93836745D01*
X137019540Y-94025000D01*
X137039325Y-94213254D01*
X137089345Y-94367198D01*
X137097821Y-94393284D01*
X137134082Y-94456090D01*
X137192469Y-94557220D01*
X137305021Y-94682220D01*
X137319129Y-94697888D01*
X137472270Y-94809151D01*
X137645197Y-94886144D01*
X137786315Y-94916139D01*
X137830352Y-94925500D01*
X137830354Y-94925500D01*
X138019647Y-94925500D01*
X138052659Y-94918483D01*
X138071646Y-94914447D01*
X138148669Y-94918483D01*
X138213354Y-94960490D01*
X138248370Y-95029211D01*
X138244334Y-95106234D01*
X138231664Y-95134690D01*
X138195404Y-95197494D01*
X138195399Y-95197505D01*
X138136905Y-95377529D01*
X138117120Y-95565784D01*
X138136905Y-95754038D01*
X138178674Y-95882587D01*
X138195401Y-95934068D01*
X138204311Y-95949500D01*
X138215100Y-95968188D01*
X138235061Y-96042688D01*
X138215098Y-96117188D01*
X138196304Y-96135980D01*
X138196332Y-96135961D01*
X138273069Y-96128207D01*
X138343403Y-96159861D01*
X138359897Y-96175577D01*
X138403815Y-96224352D01*
X138416709Y-96238672D01*
X138569850Y-96349935D01*
X138742777Y-96426928D01*
X138883895Y-96456923D01*
X138927932Y-96466284D01*
X138992781Y-96466284D01*
X139067281Y-96486246D01*
X139121819Y-96540784D01*
X139141146Y-96601539D01*
X139142358Y-96614622D01*
X139200682Y-96819610D01*
X139295684Y-97010402D01*
X139424118Y-97180474D01*
X139581619Y-97324056D01*
X139762826Y-97436254D01*
X139762829Y-97436256D01*
X139961553Y-97513242D01*
X139961571Y-97513247D01*
X140027619Y-97525592D01*
X140027620Y-97525592D01*
X140027620Y-96776609D01*
X140080162Y-96812432D01*
X140209792Y-96852418D01*
X140311343Y-96852418D01*
X140411762Y-96837282D01*
X140527620Y-96781487D01*
X140527620Y-97525592D01*
X140593668Y-97513247D01*
X140593686Y-97513242D01*
X140792410Y-97436256D01*
X140792413Y-97436254D01*
X140973620Y-97324056D01*
X141131121Y-97180474D01*
X141259556Y-97010401D01*
X141335587Y-96857709D01*
X141386664Y-96799917D01*
X141459793Y-96775406D01*
X141472545Y-96775682D01*
X141472545Y-96775500D01*
X141669648Y-96775500D01*
X141709004Y-96767134D01*
X141854803Y-96736144D01*
X142027730Y-96659151D01*
X142180871Y-96547888D01*
X142258066Y-96462155D01*
X142307530Y-96407220D01*
X142307531Y-96407218D01*
X142307533Y-96407216D01*
X142402179Y-96243284D01*
X142460674Y-96063256D01*
X142480460Y-95875000D01*
X142460674Y-95686744D01*
X142456858Y-95675000D01*
X145094540Y-95675000D01*
X145114325Y-95863254D01*
X145144857Y-95957220D01*
X145172821Y-96043284D01*
X145216339Y-96118659D01*
X145267469Y-96207220D01*
X145392699Y-96346300D01*
X145394129Y-96347888D01*
X145547270Y-96459151D01*
X145720197Y-96536144D01*
X145861315Y-96566139D01*
X145905352Y-96575500D01*
X145905354Y-96575500D01*
X146094648Y-96575500D01*
X146134004Y-96567134D01*
X146279803Y-96536144D01*
X146452730Y-96459151D01*
X146605871Y-96347888D01*
X146730791Y-96209151D01*
X146732530Y-96207220D01*
X146732531Y-96207218D01*
X146732533Y-96207216D01*
X146827179Y-96043284D01*
X146885674Y-95863256D01*
X146905460Y-95675000D01*
X146885674Y-95486744D01*
X146873735Y-95450000D01*
X160269540Y-95450000D01*
X160289325Y-95638254D01*
X160326946Y-95754038D01*
X160347821Y-95818284D01*
X160373786Y-95863256D01*
X160442469Y-95982220D01*
X160565321Y-96118659D01*
X160569129Y-96122888D01*
X160722270Y-96234151D01*
X160722271Y-96234151D01*
X160722272Y-96234152D01*
X160732420Y-96238670D01*
X160895197Y-96311144D01*
X161036315Y-96341139D01*
X161080352Y-96350500D01*
X161080354Y-96350500D01*
X161269648Y-96350500D01*
X161309004Y-96342134D01*
X161454803Y-96311144D01*
X161627730Y-96234151D01*
X161717125Y-96169202D01*
X161789130Y-96141561D01*
X161865309Y-96153627D01*
X161892280Y-96169199D01*
X161947270Y-96209151D01*
X162120197Y-96286144D01*
X162261315Y-96316139D01*
X162305352Y-96325500D01*
X162305354Y-96325500D01*
X162494648Y-96325500D01*
X162534004Y-96317134D01*
X162679803Y-96286144D01*
X162852730Y-96209151D01*
X163005871Y-96097888D01*
X163100871Y-95992380D01*
X163132530Y-95957220D01*
X163132531Y-95957218D01*
X163132533Y-95957216D01*
X163227179Y-95793284D01*
X163285674Y-95613256D01*
X163305460Y-95425000D01*
X163285674Y-95236744D01*
X163233097Y-95074932D01*
X163229061Y-94997910D01*
X163245769Y-94954386D01*
X163248301Y-94950000D01*
X163252179Y-94943284D01*
X163310674Y-94763256D01*
X163330460Y-94575000D01*
X163310674Y-94386744D01*
X163252179Y-94206716D01*
X163249001Y-94199578D01*
X163251599Y-94198421D01*
X163235267Y-94137551D01*
X163251584Y-94076571D01*
X163249001Y-94075422D01*
X163252179Y-94068283D01*
X163258225Y-94049675D01*
X163310674Y-93888256D01*
X163330460Y-93700000D01*
X163310674Y-93511744D01*
X163252179Y-93331716D01*
X163157533Y-93167784D01*
X163157532Y-93167783D01*
X163157530Y-93167779D01*
X163030872Y-93027113D01*
X163012837Y-93014010D01*
X162877730Y-92915849D01*
X162877726Y-92915846D01*
X162872197Y-92912654D01*
X162817663Y-92858112D01*
X162797706Y-92783611D01*
X162817673Y-92709112D01*
X162835979Y-92683919D01*
X162882530Y-92632220D01*
X162882531Y-92632218D01*
X162882533Y-92632216D01*
X162977179Y-92468284D01*
X163035674Y-92288256D01*
X163055460Y-92100000D01*
X163035674Y-91911744D01*
X162977179Y-91731716D01*
X162882533Y-91567784D01*
X162882532Y-91567783D01*
X162882530Y-91567779D01*
X162755872Y-91427113D01*
X162754655Y-91426229D01*
X162602730Y-91315849D01*
X162602729Y-91315848D01*
X162602727Y-91315847D01*
X162429805Y-91238857D01*
X162429803Y-91238856D01*
X162323360Y-91216231D01*
X162244648Y-91199500D01*
X162244646Y-91199500D01*
X162055354Y-91199500D01*
X162055352Y-91199500D01*
X161955392Y-91220747D01*
X161870197Y-91238856D01*
X161870195Y-91238856D01*
X161870194Y-91238857D01*
X161697272Y-91315847D01*
X161544127Y-91427113D01*
X161417469Y-91567779D01*
X161322822Y-91731714D01*
X161322819Y-91731721D01*
X161264325Y-91911745D01*
X161244540Y-92100000D01*
X161264325Y-92288254D01*
X161264326Y-92288256D01*
X161322821Y-92468284D01*
X161385011Y-92576000D01*
X161404973Y-92650500D01*
X161385011Y-92725000D01*
X161330473Y-92779538D01*
X161255973Y-92799500D01*
X161080352Y-92799500D01*
X161003150Y-92815910D01*
X160895197Y-92838856D01*
X160895195Y-92838856D01*
X160895194Y-92838857D01*
X160722272Y-92915847D01*
X160569127Y-93027113D01*
X160442469Y-93167779D01*
X160347822Y-93331714D01*
X160347819Y-93331721D01*
X160289325Y-93511745D01*
X160269540Y-93700000D01*
X160289325Y-93888254D01*
X160347047Y-94065901D01*
X160347821Y-94068284D01*
X160351942Y-94075422D01*
X160351990Y-94075505D01*
X160371949Y-94150006D01*
X160351990Y-94224495D01*
X160347823Y-94231712D01*
X160347819Y-94231721D01*
X160289325Y-94411745D01*
X160269540Y-94600000D01*
X160289325Y-94788254D01*
X160350234Y-94975710D01*
X160347998Y-94976436D01*
X160358155Y-95040583D01*
X160349212Y-95073958D01*
X160350234Y-95074290D01*
X160347821Y-95081715D01*
X160347821Y-95081716D01*
X160340296Y-95104873D01*
X160289325Y-95261745D01*
X160269540Y-95450000D01*
X146873735Y-95450000D01*
X146827179Y-95306716D01*
X146732533Y-95142784D01*
X146732532Y-95142783D01*
X146732530Y-95142779D01*
X146605872Y-95002113D01*
X146569531Y-94975710D01*
X146452730Y-94890849D01*
X146452729Y-94890848D01*
X146452727Y-94890847D01*
X146279805Y-94813857D01*
X146279803Y-94813856D01*
X146173360Y-94791231D01*
X146094648Y-94774500D01*
X146094646Y-94774500D01*
X145905354Y-94774500D01*
X145905352Y-94774500D01*
X145805392Y-94795747D01*
X145720197Y-94813856D01*
X145720195Y-94813856D01*
X145720194Y-94813857D01*
X145547272Y-94890847D01*
X145394127Y-95002113D01*
X145267469Y-95142779D01*
X145172822Y-95306714D01*
X145172819Y-95306721D01*
X145114325Y-95486745D01*
X145094540Y-95675000D01*
X142456858Y-95675000D01*
X142402179Y-95506716D01*
X142307533Y-95342784D01*
X142307532Y-95342783D01*
X142307530Y-95342779D01*
X142180872Y-95202113D01*
X142174514Y-95197494D01*
X142027730Y-95090849D01*
X142027729Y-95090848D01*
X142027727Y-95090847D01*
X141872308Y-95021650D01*
X141854803Y-95013856D01*
X141748360Y-94991231D01*
X141669648Y-94974500D01*
X141669646Y-94974500D01*
X141480354Y-94974500D01*
X141480352Y-94974500D01*
X141380392Y-94995747D01*
X141295197Y-95013856D01*
X141295195Y-95013856D01*
X141295194Y-95013857D01*
X141122272Y-95090847D01*
X140969127Y-95202113D01*
X140881065Y-95299915D01*
X140816379Y-95341922D01*
X140739357Y-95345958D01*
X140716512Y-95339152D01*
X140593685Y-95291569D01*
X140527620Y-95279218D01*
X140527620Y-96028202D01*
X140475078Y-95992380D01*
X140345448Y-95952394D01*
X140243897Y-95952394D01*
X140143478Y-95967530D01*
X140027620Y-96023324D01*
X140027620Y-95279219D01*
X140027618Y-95279218D01*
X140012656Y-95282015D01*
X139935756Y-95276082D01*
X139872126Y-95232493D01*
X139854118Y-95203999D01*
X139853663Y-95204263D01*
X139849759Y-95197502D01*
X139849759Y-95197500D01*
X139755113Y-95033568D01*
X139755112Y-95033567D01*
X139755110Y-95033563D01*
X139628452Y-94892897D01*
X139625633Y-94890849D01*
X139475310Y-94781633D01*
X139475309Y-94781632D01*
X139475307Y-94781631D01*
X139302385Y-94704641D01*
X139302383Y-94704640D01*
X139195940Y-94682015D01*
X139117228Y-94665284D01*
X139117226Y-94665284D01*
X138927934Y-94665284D01*
X138927929Y-94665284D01*
X138875930Y-94676336D01*
X138798907Y-94672299D01*
X138734223Y-94630291D01*
X138699209Y-94561569D01*
X138703246Y-94484546D01*
X138715909Y-94456105D01*
X138752179Y-94393284D01*
X138782489Y-94300000D01*
X142244539Y-94300000D01*
X142264312Y-94462847D01*
X142300102Y-94557216D01*
X142322482Y-94616226D01*
X142356103Y-94664934D01*
X142415664Y-94751224D01*
X142415665Y-94751225D01*
X142415668Y-94751229D01*
X142538454Y-94860008D01*
X142683705Y-94936242D01*
X142842979Y-94975500D01*
X142842980Y-94975500D01*
X143007020Y-94975500D01*
X143007021Y-94975500D01*
X143166295Y-94936242D01*
X143311546Y-94860008D01*
X143434332Y-94751229D01*
X143527518Y-94616226D01*
X143585688Y-94462845D01*
X143605461Y-94300000D01*
X143585688Y-94137155D01*
X143582151Y-94127830D01*
X143567371Y-94088857D01*
X143527518Y-93983774D01*
X143444217Y-93863092D01*
X143434335Y-93848775D01*
X143434334Y-93848774D01*
X143434332Y-93848771D01*
X143311546Y-93739992D01*
X143166295Y-93663758D01*
X143007021Y-93624500D01*
X142842979Y-93624500D01*
X142822779Y-93629479D01*
X142683704Y-93663758D01*
X142638825Y-93687313D01*
X142538454Y-93739992D01*
X142415668Y-93848771D01*
X142415667Y-93848772D01*
X142415664Y-93848775D01*
X142322483Y-93983772D01*
X142322480Y-93983778D01*
X142264312Y-94137152D01*
X142244539Y-94300000D01*
X138782489Y-94300000D01*
X138810674Y-94213256D01*
X138830460Y-94025000D01*
X138810674Y-93836744D01*
X138752179Y-93656716D01*
X138657533Y-93492784D01*
X138657532Y-93492783D01*
X138657530Y-93492779D01*
X138530872Y-93352113D01*
X138521222Y-93345102D01*
X138377730Y-93240849D01*
X138377729Y-93240848D01*
X138377727Y-93240847D01*
X138228840Y-93174558D01*
X138204803Y-93163856D01*
X138098360Y-93141231D01*
X138019648Y-93124500D01*
X138019646Y-93124500D01*
X137830354Y-93124500D01*
X137830352Y-93124500D01*
X137730392Y-93145747D01*
X137645197Y-93163856D01*
X137645195Y-93163856D01*
X137645194Y-93163857D01*
X137465136Y-93244025D01*
X137464097Y-93241691D01*
X137402131Y-93258293D01*
X137258799Y-93258293D01*
X137307143Y-93174558D01*
X137337329Y-93042302D01*
X137327192Y-92907025D01*
X137277631Y-92780746D01*
X137259725Y-92758293D01*
X138008019Y-92758293D01*
X137960445Y-92591089D01*
X137865442Y-92400296D01*
X137737008Y-92230224D01*
X137579507Y-92086642D01*
X137398300Y-91974444D01*
X137398297Y-91974442D01*
X137199572Y-91897456D01*
X137133507Y-91885105D01*
X137133507Y-92634089D01*
X137080965Y-92598267D01*
X136951335Y-92558281D01*
X136849784Y-92558281D01*
X136749365Y-92573417D01*
X136633507Y-92629211D01*
X136633507Y-91885106D01*
X136633506Y-91885105D01*
X136567441Y-91897456D01*
X136368716Y-91974442D01*
X136368713Y-91974444D01*
X136187506Y-92086642D01*
X136030005Y-92230224D01*
X135901571Y-92400296D01*
X135806568Y-92591089D01*
X135758994Y-92758293D01*
X134661814Y-92758293D01*
X134588485Y-92742706D01*
X134501131Y-92723479D01*
X134498025Y-92723479D01*
X134319243Y-92723479D01*
X134319240Y-92723479D01*
X134277579Y-92732333D01*
X134270144Y-92733524D01*
X134224725Y-92738464D01*
X134187771Y-92750914D01*
X134179471Y-92753187D01*
X134144366Y-92760650D01*
X134102400Y-92779333D01*
X134095887Y-92781874D01*
X134049416Y-92797534D01*
X134049408Y-92797537D01*
X134018869Y-92815910D01*
X134010760Y-92820134D01*
X133981042Y-92833366D01*
X133941171Y-92862334D01*
X133935794Y-92865895D01*
X133919832Y-92875500D01*
X133890896Y-92892910D01*
X133890894Y-92892911D01*
X133867452Y-92915117D01*
X133860008Y-92921301D01*
X133843911Y-92932998D01*
X133836401Y-92938455D01*
X133801194Y-92977556D01*
X133797064Y-92981792D01*
X133756591Y-93020131D01*
X133756588Y-93020135D01*
X133740356Y-93044075D01*
X133734053Y-93052123D01*
X133716775Y-93071313D01*
X133716771Y-93071318D01*
X133688784Y-93119793D01*
X133685929Y-93124349D01*
X133652781Y-93173240D01*
X133652774Y-93173252D01*
X133645303Y-93192004D01*
X133635926Y-93211347D01*
X133627385Y-93226140D01*
X133627384Y-93226141D01*
X133609054Y-93282555D01*
X133607409Y-93287106D01*
X133584303Y-93345102D01*
X133581625Y-93361439D01*
X133576296Y-93383375D01*
X133572137Y-93396173D01*
X133572136Y-93396177D01*
X133565585Y-93458511D01*
X133565011Y-93462776D01*
X133554374Y-93527658D01*
X133554373Y-93527662D01*
X133555073Y-93540579D01*
X133554476Y-93564200D01*
X133553449Y-93573978D01*
X133553449Y-93573979D01*
X132843092Y-93573979D01*
X132755872Y-93477113D01*
X132733204Y-93460644D01*
X132602730Y-93365849D01*
X132602729Y-93365848D01*
X132602727Y-93365847D01*
X132429805Y-93288857D01*
X132429803Y-93288856D01*
X132323360Y-93266231D01*
X132244648Y-93249500D01*
X132244646Y-93249500D01*
X132055354Y-93249500D01*
X132055352Y-93249500D01*
X131955392Y-93270747D01*
X131870197Y-93288856D01*
X131870195Y-93288856D01*
X131870194Y-93288857D01*
X131697272Y-93365847D01*
X131544127Y-93477113D01*
X131417469Y-93617779D01*
X131322822Y-93781714D01*
X131322819Y-93781721D01*
X131268150Y-93949973D01*
X131226143Y-94014658D01*
X131157421Y-94049673D01*
X131102482Y-94049674D01*
X131102415Y-94050316D01*
X131096314Y-94049674D01*
X131095474Y-94049675D01*
X131094650Y-94049500D01*
X131094646Y-94049500D01*
X130905354Y-94049500D01*
X130905352Y-94049500D01*
X130816986Y-94068283D01*
X130720197Y-94088856D01*
X130720195Y-94088856D01*
X130720194Y-94088857D01*
X130547272Y-94165847D01*
X130394127Y-94277113D01*
X130267469Y-94417779D01*
X130172822Y-94581714D01*
X130172819Y-94581721D01*
X130114325Y-94761745D01*
X130094540Y-94950000D01*
X128800500Y-94950000D01*
X128800500Y-91350000D01*
X144644539Y-91350000D01*
X144664312Y-91512847D01*
X144703003Y-91614865D01*
X144722482Y-91666226D01*
X144722483Y-91666227D01*
X144815664Y-91801224D01*
X144815665Y-91801225D01*
X144815668Y-91801229D01*
X144938454Y-91910008D01*
X145083705Y-91986242D01*
X145242979Y-92025500D01*
X145242980Y-92025500D01*
X145407020Y-92025500D01*
X145407021Y-92025500D01*
X145566295Y-91986242D01*
X145642071Y-91946470D01*
X145717314Y-91929524D01*
X145780558Y-91946469D01*
X145808705Y-91961242D01*
X145967979Y-92000500D01*
X145967980Y-92000500D01*
X146132021Y-92000500D01*
X146291295Y-91961242D01*
X146319439Y-91946470D01*
X146394680Y-91929524D01*
X146457925Y-91946469D01*
X146533705Y-91986242D01*
X146692979Y-92025500D01*
X146692980Y-92025500D01*
X146857020Y-92025500D01*
X146857021Y-92025500D01*
X147016295Y-91986242D01*
X147043255Y-91972091D01*
X147118498Y-91955145D01*
X147181744Y-91972091D01*
X147208705Y-91986242D01*
X147367979Y-92025500D01*
X147367980Y-92025500D01*
X147532021Y-92025500D01*
X147691295Y-91986242D01*
X147730756Y-91965530D01*
X147805997Y-91948584D01*
X147869242Y-91965530D01*
X147908705Y-91986242D01*
X148067979Y-92025500D01*
X148232020Y-92025500D01*
X148232021Y-92025500D01*
X148391295Y-91986242D01*
X148536546Y-91910008D01*
X148659332Y-91801229D01*
X148752518Y-91666226D01*
X148752518Y-91666224D01*
X148757637Y-91658809D01*
X148759661Y-91660206D01*
X148802691Y-91613537D01*
X148876320Y-91590571D01*
X148951567Y-91607495D01*
X148958705Y-91611242D01*
X149117979Y-91650500D01*
X149117980Y-91650500D01*
X149282020Y-91650500D01*
X149282021Y-91650500D01*
X149426596Y-91614865D01*
X149497907Y-91614865D01*
X149642482Y-91650500D01*
X149642483Y-91650500D01*
X149806523Y-91650500D01*
X149806524Y-91650500D01*
X149965798Y-91611242D01*
X150111049Y-91535008D01*
X150233835Y-91426229D01*
X150286452Y-91350000D01*
X154419540Y-91350000D01*
X154439325Y-91538254D01*
X154497819Y-91718278D01*
X154497821Y-91718284D01*
X154497822Y-91718285D01*
X154592469Y-91882220D01*
X154719127Y-92022886D01*
X154719129Y-92022888D01*
X154872270Y-92134151D01*
X155045197Y-92211144D01*
X155177521Y-92239270D01*
X155213152Y-92246844D01*
X155281874Y-92281860D01*
X155317695Y-92337020D01*
X155319646Y-92336152D01*
X155322822Y-92343286D01*
X155417469Y-92507219D01*
X155499450Y-92598267D01*
X155544129Y-92647888D01*
X155697270Y-92759151D01*
X155697271Y-92759151D01*
X155697272Y-92759152D01*
X155703469Y-92761911D01*
X155870197Y-92836144D01*
X156011315Y-92866139D01*
X156055352Y-92875500D01*
X156055354Y-92875500D01*
X156244648Y-92875500D01*
X156284004Y-92867134D01*
X156429803Y-92836144D01*
X156602730Y-92759151D01*
X156755871Y-92647888D01*
X156836554Y-92558281D01*
X156882530Y-92507220D01*
X156882531Y-92507218D01*
X156882533Y-92507216D01*
X156977179Y-92343284D01*
X157035674Y-92163256D01*
X157055460Y-91975000D01*
X157035674Y-91786744D01*
X156977179Y-91606716D01*
X156977178Y-91606715D01*
X156974766Y-91599290D01*
X156977116Y-91598526D01*
X156967025Y-91534850D01*
X156986171Y-91475914D01*
X157077179Y-91318284D01*
X157135674Y-91138256D01*
X157155460Y-90950000D01*
X157135674Y-90761744D01*
X157077179Y-90581716D01*
X156982533Y-90417784D01*
X156982532Y-90417783D01*
X156982530Y-90417779D01*
X156855872Y-90277113D01*
X156855869Y-90277111D01*
X156702730Y-90165849D01*
X156702729Y-90165848D01*
X156702727Y-90165847D01*
X156529805Y-90088857D01*
X156529803Y-90088856D01*
X156423360Y-90066231D01*
X156344648Y-90049500D01*
X156344646Y-90049500D01*
X156155354Y-90049500D01*
X156155352Y-90049500D01*
X156055392Y-90070747D01*
X155970197Y-90088856D01*
X155970195Y-90088856D01*
X155970194Y-90088857D01*
X155797272Y-90165847D01*
X155644130Y-90277111D01*
X155644129Y-90277112D01*
X155533297Y-90400202D01*
X155468614Y-90442207D01*
X155422571Y-90449500D01*
X155230352Y-90449500D01*
X155159539Y-90464552D01*
X155045197Y-90488856D01*
X155045195Y-90488856D01*
X155045194Y-90488857D01*
X154872272Y-90565847D01*
X154719127Y-90677113D01*
X154592469Y-90817779D01*
X154497822Y-90981714D01*
X154497819Y-90981721D01*
X154439325Y-91161745D01*
X154419540Y-91350000D01*
X150286452Y-91350000D01*
X150327021Y-91291226D01*
X150385191Y-91137845D01*
X150404964Y-90975000D01*
X150385191Y-90812155D01*
X150327021Y-90658774D01*
X150233835Y-90523771D01*
X150111049Y-90414992D01*
X149965798Y-90338758D01*
X149806524Y-90299500D01*
X149642482Y-90299500D01*
X149569764Y-90317423D01*
X149497908Y-90335134D01*
X149426594Y-90335133D01*
X149282022Y-90299500D01*
X149282021Y-90299500D01*
X149117979Y-90299500D01*
X149086926Y-90307154D01*
X148958704Y-90338758D01*
X148884351Y-90377782D01*
X148813454Y-90414992D01*
X148757513Y-90464552D01*
X148690666Y-90523773D01*
X148650673Y-90581714D01*
X148597482Y-90658774D01*
X148597481Y-90658775D01*
X148592363Y-90666191D01*
X148590347Y-90664799D01*
X148547245Y-90711501D01*
X148473604Y-90734430D01*
X148398397Y-90717485D01*
X148391296Y-90713758D01*
X148289867Y-90688758D01*
X148232021Y-90674500D01*
X148067979Y-90674500D01*
X148010133Y-90688758D01*
X147908704Y-90713758D01*
X147869242Y-90734469D01*
X147793998Y-90751414D01*
X147730758Y-90734469D01*
X147691295Y-90713758D01*
X147691296Y-90713758D01*
X147589867Y-90688758D01*
X147532021Y-90674500D01*
X147367979Y-90674500D01*
X147310133Y-90688758D01*
X147208705Y-90713758D01*
X147208702Y-90713759D01*
X147181741Y-90727909D01*
X147106497Y-90744854D01*
X147043259Y-90727909D01*
X147016297Y-90713759D01*
X147016296Y-90713758D01*
X147016295Y-90713758D01*
X146857021Y-90674500D01*
X146692979Y-90674500D01*
X146635133Y-90688758D01*
X146533704Y-90713758D01*
X146505559Y-90728530D01*
X146430315Y-90745475D01*
X146367073Y-90728529D01*
X146291295Y-90688758D01*
X146244046Y-90677112D01*
X146132021Y-90649500D01*
X145967979Y-90649500D01*
X145808705Y-90688758D01*
X145765372Y-90711501D01*
X145732925Y-90728530D01*
X145657682Y-90745475D01*
X145594442Y-90728530D01*
X145566297Y-90713759D01*
X145566296Y-90713758D01*
X145566295Y-90713758D01*
X145407021Y-90674500D01*
X145242979Y-90674500D01*
X145185133Y-90688758D01*
X145083704Y-90713758D01*
X145011958Y-90751414D01*
X144938454Y-90789992D01*
X144815668Y-90898771D01*
X144815667Y-90898772D01*
X144815664Y-90898775D01*
X144722483Y-91033772D01*
X144722480Y-91033778D01*
X144664312Y-91187152D01*
X144644539Y-91350000D01*
X128800500Y-91350000D01*
X128800500Y-87275000D01*
X129944539Y-87275000D01*
X129964312Y-87437847D01*
X130016518Y-87575500D01*
X130022482Y-87591226D01*
X130056103Y-87639934D01*
X130115664Y-87726224D01*
X130115665Y-87726225D01*
X130115668Y-87726229D01*
X130237059Y-87833772D01*
X130238454Y-87835008D01*
X130296860Y-87865662D01*
X130353550Y-87917960D01*
X130366933Y-87944758D01*
X130411373Y-88061933D01*
X130422482Y-88091226D01*
X130453401Y-88136020D01*
X130515664Y-88226224D01*
X130515665Y-88226225D01*
X130515668Y-88226229D01*
X130638454Y-88335008D01*
X130638455Y-88335008D01*
X130638457Y-88335010D01*
X130716235Y-88375831D01*
X130772925Y-88428128D01*
X130786309Y-88454927D01*
X130832765Y-88577420D01*
X130840519Y-88654158D01*
X130808864Y-88724491D01*
X130746285Y-88769574D01*
X130739501Y-88771961D01*
X130735936Y-88773119D01*
X130563006Y-88850113D01*
X130409861Y-88961379D01*
X130283203Y-89102045D01*
X130188556Y-89265980D01*
X130188553Y-89265987D01*
X130130059Y-89446011D01*
X130110274Y-89634266D01*
X130130059Y-89822520D01*
X130152458Y-89891457D01*
X130188555Y-90002550D01*
X130188556Y-90002551D01*
X130283203Y-90166486D01*
X130402971Y-90299500D01*
X130409863Y-90307154D01*
X130563004Y-90418417D01*
X130735931Y-90495410D01*
X130869370Y-90523773D01*
X130921086Y-90534766D01*
X130921088Y-90534766D01*
X131110382Y-90534766D01*
X131149738Y-90526400D01*
X131295537Y-90495410D01*
X131468464Y-90418417D01*
X131621605Y-90307154D01*
X131693929Y-90226829D01*
X131727516Y-90189528D01*
X133645040Y-90189528D01*
X133664825Y-90377782D01*
X133703045Y-90495410D01*
X133723321Y-90557812D01*
X133737121Y-90581714D01*
X133817969Y-90721748D01*
X133944627Y-90862414D01*
X133944629Y-90862416D01*
X134097770Y-90973679D01*
X134270697Y-91050672D01*
X134411815Y-91080667D01*
X134455852Y-91090028D01*
X134455854Y-91090028D01*
X134645148Y-91090028D01*
X134684504Y-91081662D01*
X134830303Y-91050672D01*
X135003230Y-90973679D01*
X135156371Y-90862416D01*
X135256318Y-90751414D01*
X135283030Y-90721748D01*
X135283031Y-90721746D01*
X135283033Y-90721744D01*
X135377679Y-90557812D01*
X135436174Y-90377784D01*
X135455960Y-90189528D01*
X135436174Y-90001272D01*
X135377679Y-89821244D01*
X135322113Y-89725000D01*
X136744539Y-89725000D01*
X136764312Y-89887847D01*
X136807812Y-90002544D01*
X136822482Y-90041226D01*
X136822483Y-90041227D01*
X136915664Y-90176224D01*
X136915665Y-90176225D01*
X136915668Y-90176229D01*
X137038454Y-90285008D01*
X137183705Y-90361242D01*
X137342979Y-90400500D01*
X137342980Y-90400500D01*
X137507020Y-90400500D01*
X137507021Y-90400500D01*
X137666295Y-90361242D01*
X137811546Y-90285008D01*
X137934332Y-90176229D01*
X138027518Y-90041226D01*
X138051520Y-89977936D01*
X138096601Y-89915359D01*
X138166934Y-89883705D01*
X138243671Y-89891457D01*
X138260079Y-89898842D01*
X138283705Y-89911242D01*
X138442979Y-89950500D01*
X138442980Y-89950500D01*
X138607020Y-89950500D01*
X138607021Y-89950500D01*
X138766295Y-89911242D01*
X138911546Y-89835008D01*
X139034332Y-89726229D01*
X139127518Y-89591226D01*
X139145249Y-89544472D01*
X139190332Y-89481893D01*
X139260666Y-89450239D01*
X139284566Y-89448310D01*
X139453920Y-89448310D01*
X139453921Y-89448310D01*
X139613195Y-89409052D01*
X139758446Y-89332818D01*
X139881232Y-89224039D01*
X139974418Y-89089036D01*
X140032588Y-88935655D01*
X140052361Y-88772810D01*
X140050153Y-88754628D01*
X140060987Y-88678268D01*
X140108552Y-88617553D01*
X140180102Y-88588754D01*
X140256465Y-88599588D01*
X140308792Y-88636964D01*
X140318626Y-88647885D01*
X140318629Y-88647888D01*
X140471770Y-88759151D01*
X140644697Y-88836144D01*
X140785815Y-88866139D01*
X140829852Y-88875500D01*
X140829854Y-88875500D01*
X141019148Y-88875500D01*
X141058504Y-88867134D01*
X141204303Y-88836144D01*
X141377230Y-88759151D01*
X141525668Y-88651305D01*
X154470040Y-88651305D01*
X154489825Y-88839559D01*
X154521240Y-88936242D01*
X154548321Y-89019589D01*
X154548322Y-89019590D01*
X154642969Y-89183525D01*
X154724232Y-89273775D01*
X154769629Y-89324193D01*
X154922770Y-89435456D01*
X155095697Y-89512449D01*
X155236815Y-89542444D01*
X155280852Y-89551805D01*
X155280854Y-89551805D01*
X155470148Y-89551805D01*
X155509504Y-89543439D01*
X155655303Y-89512449D01*
X155828230Y-89435456D01*
X155981371Y-89324193D01*
X156053695Y-89243868D01*
X156108030Y-89183525D01*
X156108031Y-89183523D01*
X156108033Y-89183521D01*
X156202679Y-89019589D01*
X156261174Y-88839561D01*
X156280960Y-88651305D01*
X156261174Y-88463049D01*
X156202679Y-88283021D01*
X156108033Y-88119089D01*
X156108032Y-88119088D01*
X156108030Y-88119084D01*
X156056570Y-88061933D01*
X156021554Y-87993211D01*
X156025590Y-87916189D01*
X156044675Y-87877589D01*
X156052515Y-87866230D01*
X156052518Y-87866226D01*
X156110688Y-87712845D01*
X156130461Y-87550000D01*
X156130461Y-87549996D01*
X156130461Y-87540987D01*
X156133912Y-87540987D01*
X156142299Y-87481885D01*
X156189865Y-87421171D01*
X156261415Y-87392373D01*
X156337778Y-87403210D01*
X156378178Y-87428757D01*
X156413454Y-87460008D01*
X156558705Y-87536242D01*
X156717979Y-87575500D01*
X156717980Y-87575500D01*
X156882020Y-87575500D01*
X156882021Y-87575500D01*
X157041295Y-87536242D01*
X157186546Y-87460008D01*
X157309332Y-87351229D01*
X157402518Y-87216226D01*
X157460688Y-87062845D01*
X157480461Y-86900000D01*
X157460688Y-86737155D01*
X157402518Y-86583774D01*
X157326240Y-86473266D01*
X157306029Y-86443985D01*
X157280740Y-86377304D01*
X157280460Y-86375003D01*
X157280461Y-86375000D01*
X157260688Y-86212155D01*
X157202518Y-86058774D01*
X157119745Y-85938857D01*
X157109335Y-85923775D01*
X157109334Y-85923774D01*
X157109332Y-85923771D01*
X156986546Y-85814992D01*
X156841295Y-85738758D01*
X156682021Y-85699500D01*
X156517979Y-85699500D01*
X156438342Y-85719129D01*
X156358704Y-85738758D01*
X156213451Y-85814993D01*
X156213449Y-85814995D01*
X156090671Y-85923767D01*
X156090670Y-85923768D01*
X156090668Y-85923771D01*
X156059955Y-85968267D01*
X156050427Y-85982070D01*
X155991677Y-86032042D01*
X155963465Y-86042096D01*
X155935746Y-86048928D01*
X155935744Y-86048929D01*
X155894822Y-86070407D01*
X155790492Y-86125164D01*
X155667706Y-86233943D01*
X155667705Y-86233944D01*
X155667702Y-86233947D01*
X155574521Y-86368944D01*
X155574518Y-86368950D01*
X155516350Y-86522324D01*
X155496577Y-86685173D01*
X155499403Y-86708449D01*
X155488565Y-86784812D01*
X155440998Y-86845525D01*
X155376518Y-86871479D01*
X155376731Y-86872343D01*
X155370650Y-86873841D01*
X155369465Y-86874319D01*
X155367983Y-86874499D01*
X155208704Y-86913758D01*
X155200906Y-86917851D01*
X155063454Y-86989992D01*
X154940668Y-87098771D01*
X154940667Y-87098772D01*
X154940664Y-87098775D01*
X154847483Y-87233772D01*
X154847480Y-87233778D01*
X154789312Y-87387152D01*
X154769539Y-87550000D01*
X154789312Y-87712847D01*
X154823647Y-87803379D01*
X154831400Y-87880116D01*
X154799746Y-87950449D01*
X154771914Y-87976755D01*
X154769639Y-87978407D01*
X154769628Y-87978417D01*
X154642969Y-88119084D01*
X154548322Y-88283019D01*
X154548319Y-88283026D01*
X154489825Y-88463050D01*
X154470040Y-88651305D01*
X141525668Y-88651305D01*
X141530371Y-88647888D01*
X141602695Y-88567563D01*
X141657030Y-88507220D01*
X141657031Y-88507218D01*
X141657033Y-88507216D01*
X141751679Y-88343284D01*
X141810174Y-88163256D01*
X141829960Y-87975000D01*
X141810174Y-87786744D01*
X141751679Y-87606716D01*
X141657033Y-87442784D01*
X141657032Y-87442783D01*
X141657030Y-87442779D01*
X141530372Y-87302113D01*
X141516810Y-87292260D01*
X141377230Y-87190849D01*
X141377229Y-87190848D01*
X141377227Y-87190847D01*
X141204305Y-87113857D01*
X141204303Y-87113856D01*
X141097860Y-87091231D01*
X141019148Y-87074500D01*
X141019146Y-87074500D01*
X140829854Y-87074500D01*
X140829852Y-87074500D01*
X140729892Y-87095747D01*
X140644697Y-87113856D01*
X140644695Y-87113856D01*
X140644694Y-87113857D01*
X140471770Y-87190848D01*
X140370231Y-87264620D01*
X140298226Y-87292260D01*
X140222047Y-87280194D01*
X140165438Y-87234351D01*
X140165314Y-87234462D01*
X140164653Y-87233715D01*
X140162108Y-87231655D01*
X140160025Y-87228714D01*
X140159334Y-87227713D01*
X140159332Y-87227710D01*
X140036546Y-87118931D01*
X139891295Y-87042697D01*
X139732021Y-87003439D01*
X139567979Y-87003439D01*
X139488342Y-87023068D01*
X139408704Y-87042697D01*
X139263451Y-87118932D01*
X139263449Y-87118934D01*
X139140672Y-87227705D01*
X139140663Y-87227715D01*
X139115982Y-87263471D01*
X139057231Y-87313442D01*
X139029020Y-87323496D01*
X138977087Y-87336297D01*
X138974507Y-87336933D01*
X138829256Y-87413167D01*
X138706470Y-87521946D01*
X138706469Y-87521947D01*
X138706466Y-87521950D01*
X138613285Y-87656947D01*
X138613282Y-87656953D01*
X138555114Y-87810327D01*
X138542260Y-87916189D01*
X138535341Y-87973175D01*
X138549675Y-88091227D01*
X138551948Y-88109942D01*
X138541111Y-88186305D01*
X138493545Y-88247019D01*
X138473285Y-88259831D01*
X138463456Y-88264989D01*
X138340667Y-88373772D01*
X138340665Y-88373773D01*
X138247483Y-88508772D01*
X138247481Y-88508776D01*
X138196666Y-88642762D01*
X138151582Y-88705342D01*
X138141998Y-88712544D01*
X138138463Y-88714984D01*
X138138454Y-88714992D01*
X138015668Y-88823771D01*
X138015667Y-88823772D01*
X138015664Y-88823775D01*
X137922483Y-88958772D01*
X137922482Y-88958774D01*
X137899418Y-89019590D01*
X137898480Y-89022062D01*
X137853396Y-89084641D01*
X137783063Y-89116295D01*
X137706325Y-89108541D01*
X137689919Y-89101157D01*
X137666295Y-89088758D01*
X137649592Y-89084641D01*
X137507021Y-89049500D01*
X137342979Y-89049500D01*
X137263342Y-89069129D01*
X137183704Y-89088758D01*
X137139126Y-89112155D01*
X137038454Y-89164992D01*
X136915668Y-89273771D01*
X136915667Y-89273772D01*
X136915664Y-89273775D01*
X136822483Y-89408772D01*
X136822480Y-89408778D01*
X136764312Y-89562152D01*
X136744539Y-89725000D01*
X135322113Y-89725000D01*
X135283033Y-89657312D01*
X135283032Y-89657311D01*
X135283030Y-89657307D01*
X135156372Y-89516641D01*
X135150602Y-89512449D01*
X135003230Y-89405377D01*
X135003229Y-89405376D01*
X135003227Y-89405375D01*
X134830305Y-89328385D01*
X134830303Y-89328384D01*
X134723860Y-89305759D01*
X134645148Y-89289028D01*
X134645146Y-89289028D01*
X134455854Y-89289028D01*
X134455852Y-89289028D01*
X134355892Y-89310275D01*
X134270697Y-89328384D01*
X134270695Y-89328384D01*
X134270694Y-89328385D01*
X134097772Y-89405375D01*
X133944627Y-89516641D01*
X133817969Y-89657307D01*
X133723322Y-89821242D01*
X133723319Y-89821249D01*
X133664825Y-90001273D01*
X133645040Y-90189528D01*
X131727516Y-90189528D01*
X131748264Y-90166486D01*
X131748265Y-90166484D01*
X131748267Y-90166482D01*
X131842913Y-90002550D01*
X131901408Y-89822522D01*
X131921194Y-89634266D01*
X131901408Y-89446010D01*
X131842913Y-89265982D01*
X131748267Y-89102050D01*
X131748265Y-89102048D01*
X131748263Y-89102044D01*
X131746622Y-89099785D01*
X131745953Y-89098044D01*
X131744362Y-89095287D01*
X131744798Y-89095034D01*
X131718985Y-89027778D01*
X131731053Y-88951600D01*
X131779594Y-88891663D01*
X131797914Y-88880283D01*
X131836546Y-88860008D01*
X131959332Y-88751229D01*
X131959336Y-88751222D01*
X131963700Y-88746298D01*
X132028044Y-88703769D01*
X132105031Y-88699110D01*
X132144472Y-88713166D01*
X132283705Y-88786242D01*
X132442979Y-88825500D01*
X132442980Y-88825500D01*
X132607020Y-88825500D01*
X132607021Y-88825500D01*
X132766295Y-88786242D01*
X132911546Y-88710008D01*
X133034332Y-88601229D01*
X133127518Y-88466226D01*
X133185688Y-88312845D01*
X133205461Y-88150000D01*
X133185688Y-87987155D01*
X133127518Y-87833774D01*
X133053285Y-87726229D01*
X133034335Y-87698775D01*
X133034334Y-87698774D01*
X133034332Y-87698771D01*
X132911546Y-87589992D01*
X132868212Y-87567248D01*
X132811525Y-87514951D01*
X132798141Y-87488153D01*
X132787466Y-87460006D01*
X132777518Y-87433774D01*
X132760381Y-87408947D01*
X132734489Y-87336297D01*
X132735091Y-87306358D01*
X132754227Y-87148766D01*
X132734454Y-86985921D01*
X132676284Y-86832540D01*
X132583098Y-86697537D01*
X132460312Y-86588758D01*
X132315061Y-86512524D01*
X132155787Y-86473266D01*
X131991745Y-86473266D01*
X131912108Y-86492895D01*
X131832470Y-86512524D01*
X131756236Y-86552535D01*
X131687220Y-86588758D01*
X131564434Y-86697537D01*
X131564433Y-86697538D01*
X131564430Y-86697541D01*
X131471249Y-86832538D01*
X131471245Y-86832545D01*
X131454591Y-86876458D01*
X131409507Y-86939037D01*
X131339173Y-86970690D01*
X131262436Y-86962935D01*
X131199857Y-86917851D01*
X131192657Y-86908270D01*
X131140385Y-86832540D01*
X131134335Y-86823775D01*
X131134334Y-86823774D01*
X131134332Y-86823771D01*
X131011546Y-86714992D01*
X130866295Y-86638758D01*
X130707021Y-86599500D01*
X130542979Y-86599500D01*
X130493304Y-86611744D01*
X130383704Y-86638758D01*
X130307470Y-86678769D01*
X130238454Y-86714992D01*
X130115668Y-86823771D01*
X130115667Y-86823772D01*
X130115664Y-86823775D01*
X130022483Y-86958772D01*
X130022480Y-86958778D01*
X129964312Y-87112152D01*
X129944539Y-87275000D01*
X128800500Y-87275000D01*
X128800500Y-85324500D01*
X147670040Y-85324500D01*
X147689825Y-85512754D01*
X147698954Y-85540849D01*
X147748321Y-85692784D01*
X147774864Y-85738758D01*
X147842969Y-85856720D01*
X147969627Y-85997386D01*
X147969629Y-85997388D01*
X148122770Y-86108651D01*
X148295697Y-86185644D01*
X148436815Y-86215639D01*
X148480852Y-86225000D01*
X148480854Y-86225000D01*
X148670148Y-86225000D01*
X148709504Y-86216634D01*
X148855303Y-86185644D01*
X149028230Y-86108651D01*
X149070432Y-86077989D01*
X149142433Y-86050350D01*
X149218611Y-86062414D01*
X149278552Y-86110951D01*
X149306193Y-86182956D01*
X149306194Y-86214106D01*
X149294540Y-86324999D01*
X149314325Y-86513254D01*
X149372819Y-86693278D01*
X149372821Y-86693284D01*
X149385354Y-86714992D01*
X149467469Y-86857220D01*
X149583351Y-86985918D01*
X149594129Y-86997888D01*
X149747270Y-87109151D01*
X149919881Y-87186003D01*
X149979821Y-87234541D01*
X150000983Y-87276076D01*
X150022821Y-87343284D01*
X150067789Y-87421171D01*
X150117469Y-87507220D01*
X150244127Y-87647886D01*
X150244129Y-87647888D01*
X150397270Y-87759151D01*
X150570197Y-87836144D01*
X150711315Y-87866139D01*
X150755352Y-87875500D01*
X150755354Y-87875500D01*
X150944648Y-87875500D01*
X150988296Y-87866222D01*
X151129803Y-87836144D01*
X151302730Y-87759151D01*
X151391330Y-87694779D01*
X151463330Y-87667139D01*
X151509878Y-87669578D01*
X151628448Y-87694781D01*
X151655353Y-87700500D01*
X151655354Y-87700500D01*
X151844648Y-87700500D01*
X151884004Y-87692134D01*
X152029803Y-87661144D01*
X152202730Y-87584151D01*
X152355871Y-87472888D01*
X152446950Y-87371735D01*
X152482530Y-87332220D01*
X152482531Y-87332218D01*
X152482533Y-87332216D01*
X152577179Y-87168284D01*
X152635674Y-86988256D01*
X152655460Y-86800000D01*
X152635674Y-86611744D01*
X152577179Y-86431716D01*
X152482533Y-86267784D01*
X152482532Y-86267783D01*
X152482530Y-86267779D01*
X152355872Y-86127113D01*
X152353189Y-86125164D01*
X152202730Y-86015849D01*
X152202729Y-86015848D01*
X152202727Y-86015847D01*
X152029805Y-85938857D01*
X152029803Y-85938856D01*
X151923360Y-85916231D01*
X151844648Y-85899500D01*
X151844646Y-85899500D01*
X151655354Y-85899500D01*
X151655352Y-85899500D01*
X151555392Y-85920747D01*
X151470197Y-85938856D01*
X151470195Y-85938856D01*
X151470194Y-85938857D01*
X151297267Y-86015849D01*
X151297266Y-86015850D01*
X151260216Y-86042768D01*
X151188211Y-86070407D01*
X151112032Y-86058340D01*
X151052094Y-86009800D01*
X151030932Y-85968267D01*
X151027179Y-85956716D01*
X150932533Y-85792784D01*
X150932532Y-85792783D01*
X150932530Y-85792779D01*
X150805872Y-85652113D01*
X150732974Y-85599150D01*
X150652730Y-85540849D01*
X150652729Y-85540848D01*
X150652727Y-85540847D01*
X150479805Y-85463857D01*
X150479803Y-85463856D01*
X150373360Y-85441231D01*
X150294648Y-85424500D01*
X150294646Y-85424500D01*
X150105354Y-85424500D01*
X150105352Y-85424500D01*
X150005392Y-85445747D01*
X149920197Y-85463856D01*
X149920195Y-85463856D01*
X149920194Y-85463857D01*
X149747270Y-85540848D01*
X149705068Y-85571510D01*
X149633063Y-85599150D01*
X149556885Y-85587084D01*
X149496945Y-85538545D01*
X149469305Y-85466540D01*
X149469305Y-85435392D01*
X149470450Y-85424500D01*
X149480960Y-85324500D01*
X149461174Y-85136244D01*
X149402679Y-84956216D01*
X149308033Y-84792284D01*
X149308032Y-84792283D01*
X149308030Y-84792279D01*
X149181372Y-84651613D01*
X149028227Y-84540347D01*
X148855305Y-84463357D01*
X148855303Y-84463356D01*
X148748860Y-84440731D01*
X148670148Y-84424000D01*
X148670146Y-84424000D01*
X148480854Y-84424000D01*
X148480852Y-84424000D01*
X148380892Y-84445247D01*
X148295697Y-84463356D01*
X148295695Y-84463356D01*
X148295694Y-84463357D01*
X148122772Y-84540347D01*
X147969627Y-84651613D01*
X147842969Y-84792279D01*
X147748322Y-84956214D01*
X147748319Y-84956221D01*
X147689825Y-85136245D01*
X147670040Y-85324500D01*
X128800500Y-85324500D01*
X128800500Y-84175000D01*
X129544539Y-84175000D01*
X129564312Y-84337847D01*
X129622480Y-84491221D01*
X129622482Y-84491226D01*
X129622483Y-84491227D01*
X129715664Y-84626224D01*
X129715665Y-84626225D01*
X129715668Y-84626229D01*
X129838454Y-84735008D01*
X129983705Y-84811242D01*
X130142979Y-84850500D01*
X130142980Y-84850500D01*
X130307020Y-84850500D01*
X130307021Y-84850500D01*
X130466295Y-84811242D01*
X130611546Y-84735008D01*
X130734332Y-84626229D01*
X130827518Y-84491226D01*
X130885688Y-84337845D01*
X130885688Y-84337844D01*
X130888884Y-84329418D01*
X130890720Y-84330114D01*
X130922266Y-84272835D01*
X130988268Y-84232930D01*
X131065378Y-84231373D01*
X131142979Y-84250500D01*
X131142980Y-84250500D01*
X131307020Y-84250500D01*
X131307021Y-84250500D01*
X131410477Y-84225000D01*
X149669540Y-84225000D01*
X149689325Y-84413254D01*
X149730621Y-84540349D01*
X149747821Y-84593284D01*
X149747822Y-84593285D01*
X149842469Y-84757220D01*
X149969127Y-84897886D01*
X149969129Y-84897888D01*
X150122270Y-85009151D01*
X150295197Y-85086144D01*
X150436315Y-85116139D01*
X150480352Y-85125500D01*
X150480354Y-85125500D01*
X150669648Y-85125500D01*
X150709004Y-85117134D01*
X150854803Y-85086144D01*
X151027730Y-85009151D01*
X151180871Y-84897888D01*
X151275962Y-84792279D01*
X151307530Y-84757220D01*
X151307531Y-84757218D01*
X151307533Y-84757216D01*
X151402179Y-84593284D01*
X151460674Y-84413256D01*
X151480460Y-84225000D01*
X151460674Y-84036744D01*
X151402179Y-83856716D01*
X151307533Y-83692784D01*
X151307532Y-83692783D01*
X151307530Y-83692779D01*
X151256973Y-83636631D01*
X151221957Y-83567910D01*
X151225993Y-83490887D01*
X151268000Y-83426202D01*
X151298449Y-83405002D01*
X151336546Y-83385008D01*
X151459332Y-83276229D01*
X151459334Y-83276225D01*
X151459336Y-83276224D01*
X151552516Y-83141229D01*
X151552517Y-83141227D01*
X151552516Y-83141227D01*
X151552518Y-83141226D01*
X151556974Y-83129473D01*
X151602055Y-83066893D01*
X151660640Y-83037635D01*
X151666295Y-83036242D01*
X151811546Y-82960008D01*
X151934332Y-82851229D01*
X152027518Y-82716226D01*
X152073246Y-82595652D01*
X152118329Y-82533072D01*
X152143319Y-82516555D01*
X152163570Y-82505927D01*
X152192354Y-82490821D01*
X152192355Y-82490819D01*
X152192357Y-82490819D01*
X152315143Y-82382040D01*
X152408329Y-82247037D01*
X152426168Y-82200000D01*
X161019540Y-82200000D01*
X161039325Y-82388254D01*
X161091481Y-82548771D01*
X161097821Y-82568284D01*
X161097824Y-82568289D01*
X161193872Y-82734651D01*
X161213834Y-82809151D01*
X161193873Y-82883649D01*
X161177075Y-82912745D01*
X161122821Y-83006716D01*
X161122821Y-83006717D01*
X161122819Y-83006721D01*
X161064325Y-83186745D01*
X161044540Y-83375000D01*
X161064325Y-83563254D01*
X161101032Y-83676224D01*
X161122821Y-83743284D01*
X161161531Y-83810331D01*
X161217469Y-83907220D01*
X161344127Y-84047886D01*
X161344129Y-84047888D01*
X161497270Y-84159151D01*
X161670197Y-84236144D01*
X161811315Y-84266139D01*
X161855352Y-84275500D01*
X161855354Y-84275500D01*
X162044648Y-84275500D01*
X162084004Y-84267134D01*
X162229803Y-84236144D01*
X162402730Y-84159151D01*
X162555871Y-84047888D01*
X162634428Y-83960642D01*
X162682530Y-83907220D01*
X162682531Y-83907218D01*
X162682533Y-83907216D01*
X162777179Y-83743284D01*
X162835674Y-83563256D01*
X162855460Y-83375000D01*
X162835674Y-83186744D01*
X162777179Y-83006716D01*
X162682533Y-82842784D01*
X162682529Y-82842780D01*
X162681126Y-82840349D01*
X162661164Y-82765849D01*
X162681124Y-82691353D01*
X162752179Y-82568284D01*
X162810674Y-82388256D01*
X162830460Y-82200000D01*
X162810674Y-82011744D01*
X162752179Y-81831716D01*
X162657533Y-81667784D01*
X162657532Y-81667783D01*
X162657530Y-81667779D01*
X162530872Y-81527113D01*
X162499541Y-81504350D01*
X162377730Y-81415849D01*
X162377729Y-81415848D01*
X162377727Y-81415847D01*
X162204805Y-81338857D01*
X162204803Y-81338856D01*
X162098360Y-81316231D01*
X162019648Y-81299500D01*
X162019646Y-81299500D01*
X161830354Y-81299500D01*
X161830352Y-81299500D01*
X161730392Y-81320747D01*
X161645197Y-81338856D01*
X161645195Y-81338856D01*
X161645194Y-81338857D01*
X161472272Y-81415847D01*
X161319127Y-81527113D01*
X161192469Y-81667779D01*
X161097822Y-81831714D01*
X161097819Y-81831721D01*
X161039325Y-82011745D01*
X161019540Y-82200000D01*
X152426168Y-82200000D01*
X152466499Y-82093656D01*
X152486272Y-81930811D01*
X152466499Y-81767966D01*
X152408329Y-81614585D01*
X152315143Y-81479582D01*
X152192357Y-81370803D01*
X152047106Y-81294569D01*
X151887832Y-81255311D01*
X151723790Y-81255311D01*
X151644153Y-81274940D01*
X151564515Y-81294569D01*
X151489821Y-81333772D01*
X151419265Y-81370803D01*
X151296479Y-81479582D01*
X151296478Y-81479583D01*
X151296475Y-81479586D01*
X151203294Y-81614583D01*
X151203292Y-81614587D01*
X151157565Y-81735158D01*
X151112481Y-81797738D01*
X151087494Y-81814253D01*
X151038454Y-81839991D01*
X150954137Y-81914689D01*
X150915668Y-81948771D01*
X150915667Y-81948772D01*
X150915664Y-81948775D01*
X150822480Y-82083776D01*
X150822480Y-82083777D01*
X150818021Y-82095534D01*
X150772935Y-82158112D01*
X150714374Y-82187360D01*
X150708707Y-82188757D01*
X150708706Y-82188757D01*
X150641994Y-82223771D01*
X150563454Y-82264992D01*
X150457599Y-82358772D01*
X150440666Y-82373773D01*
X150347479Y-82508778D01*
X150345494Y-82514013D01*
X150300408Y-82576591D01*
X150275424Y-82593103D01*
X150138455Y-82664991D01*
X150138453Y-82664992D01*
X150063705Y-82731214D01*
X150015668Y-82773771D01*
X150015667Y-82773772D01*
X150015664Y-82773775D01*
X149922483Y-82908772D01*
X149922480Y-82908778D01*
X149864312Y-83062152D01*
X149844539Y-83225000D01*
X149864312Y-83387847D01*
X149906979Y-83500349D01*
X149914732Y-83577086D01*
X149883078Y-83647419D01*
X149878392Y-83652884D01*
X149842467Y-83692783D01*
X149842466Y-83692784D01*
X149747822Y-83856714D01*
X149747819Y-83856721D01*
X149689325Y-84036745D01*
X149669540Y-84225000D01*
X131410477Y-84225000D01*
X131466295Y-84211242D01*
X131611546Y-84135008D01*
X131734332Y-84026229D01*
X131827518Y-83891226D01*
X131858199Y-83810326D01*
X131903279Y-83747751D01*
X131961856Y-83718497D01*
X131991295Y-83711242D01*
X132136546Y-83635008D01*
X132259332Y-83526229D01*
X132259334Y-83526225D01*
X132259336Y-83526224D01*
X132311104Y-83451224D01*
X132352518Y-83391226D01*
X132352520Y-83391221D01*
X132366928Y-83353230D01*
X132412009Y-83290649D01*
X132436999Y-83274132D01*
X132484768Y-83249061D01*
X132511543Y-83235010D01*
X132511544Y-83235008D01*
X132511546Y-83235008D01*
X132522843Y-83225000D01*
X139494539Y-83225000D01*
X139514312Y-83387847D01*
X139544629Y-83467784D01*
X139572482Y-83541226D01*
X139572483Y-83541227D01*
X139665664Y-83676224D01*
X139665665Y-83676225D01*
X139665668Y-83676229D01*
X139788454Y-83785008D01*
X139933705Y-83861242D01*
X140092979Y-83900500D01*
X140092980Y-83900500D01*
X140257021Y-83900500D01*
X140416291Y-83861243D01*
X140416291Y-83861242D01*
X140416295Y-83861242D01*
X140418253Y-83860214D01*
X140420104Y-83859797D01*
X140424722Y-83858046D01*
X140424970Y-83858701D01*
X140493493Y-83843266D01*
X140550128Y-83858440D01*
X140550278Y-83858046D01*
X140554184Y-83859527D01*
X140556746Y-83860214D01*
X140558705Y-83861242D01*
X140558707Y-83861242D01*
X140558708Y-83861243D01*
X140717979Y-83900500D01*
X140882020Y-83900500D01*
X140882021Y-83900500D01*
X141041295Y-83861242D01*
X141186546Y-83785008D01*
X141309332Y-83676229D01*
X141402518Y-83541226D01*
X141460688Y-83387845D01*
X141480461Y-83225000D01*
X141460688Y-83062155D01*
X141437116Y-83000000D01*
X146919539Y-83000000D01*
X146939312Y-83162847D01*
X146987782Y-83290649D01*
X146997482Y-83316226D01*
X146997483Y-83316227D01*
X147090664Y-83451224D01*
X147090665Y-83451225D01*
X147090668Y-83451229D01*
X147213454Y-83560008D01*
X147358705Y-83636242D01*
X147517979Y-83675500D01*
X147517980Y-83675500D01*
X147682020Y-83675500D01*
X147682021Y-83675500D01*
X147759337Y-83656443D01*
X147836446Y-83657995D01*
X147902451Y-83697896D01*
X147905721Y-83701412D01*
X147969627Y-83772386D01*
X147969629Y-83772388D01*
X148122770Y-83883651D01*
X148122771Y-83883651D01*
X148122772Y-83883652D01*
X148139786Y-83891227D01*
X148295697Y-83960644D01*
X148436815Y-83990639D01*
X148480852Y-84000000D01*
X148480854Y-84000000D01*
X148670148Y-84000000D01*
X148709504Y-83991634D01*
X148855303Y-83960644D01*
X149028230Y-83883651D01*
X149181371Y-83772388D01*
X149268610Y-83675500D01*
X149308030Y-83631720D01*
X149308031Y-83631718D01*
X149308033Y-83631716D01*
X149402679Y-83467784D01*
X149461174Y-83287756D01*
X149480960Y-83099500D01*
X149461174Y-82911244D01*
X149402679Y-82731216D01*
X149308033Y-82567284D01*
X149308032Y-82567283D01*
X149308030Y-82567279D01*
X149181372Y-82426613D01*
X149140299Y-82396772D01*
X149028230Y-82315349D01*
X149028229Y-82315348D01*
X149028227Y-82315347D01*
X148855305Y-82238357D01*
X148855303Y-82238356D01*
X148748860Y-82215731D01*
X148670148Y-82199000D01*
X148670146Y-82199000D01*
X148480854Y-82199000D01*
X148480849Y-82199000D01*
X148431734Y-82209439D01*
X148354711Y-82205402D01*
X148290027Y-82163394D01*
X148255013Y-82094672D01*
X148258839Y-82021670D01*
X148258531Y-82021595D01*
X148258927Y-82019986D01*
X148259050Y-82017649D01*
X148260562Y-82013352D01*
X148260687Y-82012848D01*
X148260687Y-82012847D01*
X148260688Y-82012845D01*
X148280461Y-81850000D01*
X148260688Y-81687155D01*
X148202518Y-81533774D01*
X148109332Y-81398771D01*
X147986546Y-81289992D01*
X147841295Y-81213758D01*
X147682021Y-81174500D01*
X147517979Y-81174500D01*
X147438342Y-81194129D01*
X147358704Y-81213758D01*
X147282470Y-81253769D01*
X147213454Y-81289992D01*
X147090668Y-81398771D01*
X147090667Y-81398772D01*
X147090664Y-81398775D01*
X146997483Y-81533772D01*
X146997480Y-81533778D01*
X146939312Y-81687152D01*
X146919539Y-81850000D01*
X146939312Y-82012847D01*
X146994405Y-82158112D01*
X146997482Y-82166226D01*
X146997483Y-82166227D01*
X147090664Y-82301224D01*
X147090665Y-82301225D01*
X147090668Y-82301229D01*
X147104491Y-82313475D01*
X147147015Y-82377817D01*
X147151672Y-82454804D01*
X147117211Y-82523806D01*
X147104500Y-82536516D01*
X147090668Y-82548771D01*
X147090667Y-82548772D01*
X147090664Y-82548775D01*
X146997483Y-82683772D01*
X146997480Y-82683778D01*
X146939312Y-82837152D01*
X146919539Y-83000000D01*
X141437116Y-83000000D01*
X141402518Y-82908774D01*
X141309332Y-82773771D01*
X141186546Y-82664992D01*
X141041295Y-82588758D01*
X140990708Y-82576289D01*
X140894462Y-82552566D01*
X140826904Y-82515354D01*
X140787003Y-82449349D01*
X140785451Y-82372237D01*
X140822663Y-82304679D01*
X140860873Y-82275966D01*
X140986546Y-82210008D01*
X141109332Y-82101229D01*
X141202518Y-81966226D01*
X141260688Y-81812845D01*
X141280461Y-81650000D01*
X141260688Y-81487155D01*
X141257817Y-81479586D01*
X141233644Y-81415847D01*
X141202518Y-81333774D01*
X141109332Y-81198771D01*
X140986546Y-81089992D01*
X140841295Y-81013758D01*
X140682021Y-80974500D01*
X140517979Y-80974500D01*
X140438342Y-80994129D01*
X140358704Y-81013758D01*
X140282470Y-81053769D01*
X140213454Y-81089992D01*
X140090668Y-81198771D01*
X140090667Y-81198772D01*
X140090664Y-81198775D01*
X139997483Y-81333772D01*
X139997480Y-81333778D01*
X139939312Y-81487152D01*
X139919539Y-81650000D01*
X139939312Y-81812847D01*
X139984051Y-81930811D01*
X139997482Y-81966226D01*
X140028901Y-82011744D01*
X140090664Y-82101224D01*
X140090665Y-82101225D01*
X140090668Y-82101229D01*
X140213454Y-82210008D01*
X140325029Y-82268567D01*
X140381719Y-82320865D01*
X140404664Y-82394501D01*
X140387718Y-82469744D01*
X140335420Y-82526434D01*
X140261784Y-82549379D01*
X140255785Y-82549500D01*
X140092979Y-82549500D01*
X140038837Y-82562845D01*
X139933704Y-82588758D01*
X139866994Y-82623771D01*
X139788454Y-82664992D01*
X139665668Y-82773771D01*
X139665667Y-82773772D01*
X139665664Y-82773775D01*
X139572483Y-82908772D01*
X139572480Y-82908778D01*
X139514312Y-83062152D01*
X139494539Y-83225000D01*
X132522843Y-83225000D01*
X132634332Y-83126229D01*
X132727518Y-82991226D01*
X132785688Y-82837845D01*
X132805461Y-82675000D01*
X132785688Y-82512155D01*
X132727518Y-82358774D01*
X132634332Y-82223771D01*
X132511546Y-82114992D01*
X132366295Y-82038758D01*
X132207021Y-81999500D01*
X132042979Y-81999500D01*
X131993304Y-82011744D01*
X131883704Y-82038758D01*
X131807470Y-82078769D01*
X131738454Y-82114992D01*
X131615668Y-82223771D01*
X131615667Y-82223772D01*
X131615664Y-82223775D01*
X131522482Y-82358774D01*
X131508071Y-82396772D01*
X131462987Y-82459351D01*
X131438000Y-82475866D01*
X131363454Y-82514991D01*
X131303295Y-82568288D01*
X131240668Y-82623771D01*
X131240667Y-82623772D01*
X131240664Y-82623775D01*
X131147483Y-82758772D01*
X131147482Y-82758774D01*
X131117494Y-82837847D01*
X131116803Y-82839668D01*
X131071720Y-82902248D01*
X131013147Y-82931501D01*
X130983704Y-82938758D01*
X130907470Y-82978769D01*
X130838454Y-83014992D01*
X130715668Y-83123771D01*
X130715667Y-83123772D01*
X130715664Y-83123775D01*
X130622483Y-83258772D01*
X130622480Y-83258778D01*
X130561116Y-83420582D01*
X130559283Y-83419886D01*
X130527714Y-83477184D01*
X130461704Y-83517077D01*
X130384610Y-83518624D01*
X130307021Y-83499500D01*
X130142979Y-83499500D01*
X130139535Y-83500349D01*
X129983704Y-83538758D01*
X129937032Y-83563254D01*
X129838454Y-83614992D01*
X129715668Y-83723771D01*
X129715667Y-83723772D01*
X129715664Y-83723775D01*
X129622483Y-83858772D01*
X129622480Y-83858778D01*
X129564312Y-84012152D01*
X129544539Y-84175000D01*
X128800500Y-84175000D01*
X128800500Y-80425000D01*
X136919539Y-80425000D01*
X136939312Y-80587847D01*
X136967493Y-80662152D01*
X136997482Y-80741226D01*
X136997483Y-80741227D01*
X137090664Y-80876224D01*
X137090665Y-80876225D01*
X137090668Y-80876229D01*
X137213454Y-80985008D01*
X137358705Y-81061242D01*
X137358708Y-81061242D01*
X137358709Y-81061243D01*
X137364293Y-81063361D01*
X137426874Y-81108442D01*
X137443390Y-81133430D01*
X137447480Y-81141222D01*
X137447482Y-81141226D01*
X137487203Y-81198771D01*
X137540664Y-81276224D01*
X137540665Y-81276225D01*
X137540668Y-81276229D01*
X137663454Y-81385008D01*
X137808705Y-81461242D01*
X137808707Y-81461242D01*
X137816686Y-81465430D01*
X137815417Y-81467847D01*
X137866095Y-81504350D01*
X137897755Y-81574680D01*
X137898600Y-81616551D01*
X137894539Y-81650000D01*
X137904425Y-81731422D01*
X137914312Y-81812847D01*
X137959051Y-81930811D01*
X137972482Y-81966226D01*
X138003901Y-82011744D01*
X138065664Y-82101224D01*
X138065665Y-82101225D01*
X138065668Y-82101229D01*
X138188454Y-82210008D01*
X138333705Y-82286242D01*
X138492979Y-82325500D01*
X138492980Y-82325500D01*
X138657020Y-82325500D01*
X138657021Y-82325500D01*
X138816295Y-82286242D01*
X138961546Y-82210008D01*
X139084332Y-82101229D01*
X139177518Y-81966226D01*
X139235688Y-81812845D01*
X139255461Y-81650000D01*
X139235688Y-81487155D01*
X139232817Y-81479586D01*
X139208644Y-81415847D01*
X139177518Y-81333774D01*
X139084332Y-81198771D01*
X138961546Y-81089992D01*
X138816295Y-81013758D01*
X138816293Y-81013757D01*
X138808315Y-81009570D01*
X138809582Y-81007154D01*
X138758898Y-80970642D01*
X138727243Y-80900309D01*
X138726400Y-80858444D01*
X138726491Y-80857688D01*
X138730461Y-80825000D01*
X138710688Y-80662155D01*
X138652518Y-80508774D01*
X138559332Y-80373771D01*
X138436546Y-80264992D01*
X138291295Y-80188758D01*
X138285704Y-80186638D01*
X138223123Y-80141555D01*
X138206604Y-80116559D01*
X138202517Y-80108772D01*
X138109336Y-79973775D01*
X138109332Y-79973772D01*
X138109332Y-79973771D01*
X137986546Y-79864992D01*
X137841295Y-79788758D01*
X137682021Y-79749500D01*
X137517979Y-79749500D01*
X137438342Y-79769129D01*
X137358704Y-79788758D01*
X137287320Y-79826224D01*
X137213454Y-79864992D01*
X137090668Y-79973771D01*
X137090667Y-79973772D01*
X137090664Y-79973775D01*
X136997483Y-80108772D01*
X136997480Y-80108778D01*
X136939312Y-80262152D01*
X136919539Y-80425000D01*
X128800500Y-80425000D01*
X128800500Y-73975000D01*
X129895006Y-73975000D01*
X129914965Y-74343136D01*
X129914965Y-74343142D01*
X129974613Y-74706974D01*
X129974613Y-74706976D01*
X130073247Y-75062221D01*
X130073249Y-75062226D01*
X130209709Y-75404715D01*
X130209715Y-75404728D01*
X130382404Y-75730456D01*
X130382407Y-75730461D01*
X130589303Y-76035608D01*
X130589312Y-76035620D01*
X130725496Y-76195948D01*
X130725497Y-76195948D01*
X132041350Y-74880094D01*
X132095456Y-74958480D01*
X132268816Y-75138966D01*
X132394865Y-75233686D01*
X131076520Y-76552031D01*
X131095657Y-76570159D01*
X131095658Y-76570160D01*
X131389165Y-76793278D01*
X131705066Y-76983350D01*
X132039684Y-77138160D01*
X132039694Y-77138165D01*
X132389063Y-77255880D01*
X132530139Y-77286933D01*
X132598606Y-77322444D01*
X132640145Y-77387430D01*
X132643626Y-77464480D01*
X132637427Y-77485285D01*
X132589312Y-77612154D01*
X132569539Y-77775000D01*
X132589312Y-77937847D01*
X132643875Y-78081716D01*
X132647482Y-78091226D01*
X132668263Y-78121332D01*
X132740664Y-78226224D01*
X132740665Y-78226225D01*
X132740668Y-78226229D01*
X132863454Y-78335008D01*
X133008705Y-78411242D01*
X133167979Y-78450500D01*
X133167980Y-78450500D01*
X133332020Y-78450500D01*
X133332021Y-78450500D01*
X133491295Y-78411242D01*
X133636546Y-78335008D01*
X133759332Y-78226229D01*
X133852518Y-78091226D01*
X133910688Y-77937845D01*
X133930461Y-77775000D01*
X133915462Y-77651472D01*
X135179296Y-77651472D01*
X135199081Y-77839726D01*
X135232566Y-77942780D01*
X135257577Y-78019756D01*
X135298837Y-78091221D01*
X135352225Y-78183692D01*
X135445015Y-78286744D01*
X135478885Y-78324360D01*
X135632026Y-78435623D01*
X135804953Y-78512616D01*
X135946071Y-78542611D01*
X135990108Y-78551972D01*
X135990110Y-78551972D01*
X136179404Y-78551972D01*
X136220304Y-78543278D01*
X136364559Y-78512616D01*
X136537486Y-78435623D01*
X136690627Y-78324360D01*
X136778989Y-78226224D01*
X136817286Y-78183692D01*
X136817287Y-78183690D01*
X136817289Y-78183688D01*
X136822305Y-78175000D01*
X137769540Y-78175000D01*
X137789325Y-78363254D01*
X137812840Y-78435624D01*
X137847821Y-78543284D01*
X137876689Y-78593285D01*
X137942469Y-78707220D01*
X138064984Y-78843285D01*
X138069129Y-78847888D01*
X138222270Y-78959151D01*
X138395197Y-79036144D01*
X138536315Y-79066139D01*
X138580352Y-79075500D01*
X138580354Y-79075500D01*
X138769648Y-79075500D01*
X138809004Y-79067134D01*
X138954803Y-79036144D01*
X139096522Y-78973045D01*
X139134864Y-78955975D01*
X139135408Y-78957198D01*
X139201887Y-78939380D01*
X139276388Y-78959337D01*
X139330930Y-79013870D01*
X139350898Y-79088369D01*
X139341216Y-79141215D01*
X139314312Y-79212154D01*
X139294539Y-79375000D01*
X139314312Y-79537847D01*
X139333275Y-79587847D01*
X139372482Y-79691226D01*
X139372483Y-79691227D01*
X139465664Y-79826224D01*
X139465665Y-79826225D01*
X139465668Y-79826229D01*
X139588454Y-79935008D01*
X139733705Y-80011242D01*
X139892979Y-80050500D01*
X139892980Y-80050500D01*
X140057020Y-80050500D01*
X140057021Y-80050500D01*
X140216295Y-80011242D01*
X140361546Y-79935008D01*
X140484332Y-79826229D01*
X140577518Y-79691226D01*
X140635688Y-79537845D01*
X140645560Y-79456537D01*
X140674357Y-79384989D01*
X140735072Y-79337423D01*
X140793474Y-79325500D01*
X140944648Y-79325500D01*
X140984004Y-79317134D01*
X141129803Y-79286144D01*
X141302730Y-79209151D01*
X141455871Y-79097888D01*
X141531521Y-79013870D01*
X141582530Y-78957220D01*
X141582531Y-78957218D01*
X141582533Y-78957216D01*
X141677179Y-78793284D01*
X141735674Y-78613256D01*
X141755460Y-78425000D01*
X141735674Y-78236744D01*
X141731858Y-78225000D01*
X142679040Y-78225000D01*
X142698825Y-78413254D01*
X142731110Y-78512616D01*
X142757321Y-78593284D01*
X142783286Y-78638256D01*
X142851969Y-78757220D01*
X142949009Y-78864992D01*
X142978629Y-78897888D01*
X143131770Y-79009151D01*
X143304697Y-79086144D01*
X143445815Y-79116139D01*
X143489852Y-79125500D01*
X143489854Y-79125500D01*
X143679147Y-79125500D01*
X143708158Y-79119333D01*
X143784864Y-79103029D01*
X143861885Y-79107065D01*
X143926570Y-79149072D01*
X143961586Y-79217793D01*
X143963756Y-79266733D01*
X143944539Y-79424999D01*
X143964312Y-79587847D01*
X144022480Y-79741221D01*
X144022482Y-79741226D01*
X144022483Y-79741227D01*
X144115664Y-79876224D01*
X144115665Y-79876225D01*
X144115668Y-79876229D01*
X144238454Y-79985008D01*
X144383705Y-80061242D01*
X144542979Y-80100500D01*
X144542980Y-80100500D01*
X144707020Y-80100500D01*
X144707021Y-80100500D01*
X144866295Y-80061242D01*
X145011546Y-79985008D01*
X145134332Y-79876229D01*
X145227518Y-79741226D01*
X145285688Y-79587845D01*
X145295611Y-79506114D01*
X145324408Y-79434566D01*
X145385122Y-79387000D01*
X145447545Y-79377631D01*
X145447545Y-79375500D01*
X145644648Y-79375500D01*
X145684004Y-79367134D01*
X145829803Y-79336144D01*
X146002730Y-79259151D01*
X146155871Y-79147888D01*
X146280791Y-79009151D01*
X146282530Y-79007220D01*
X146282531Y-79007218D01*
X146282533Y-79007216D01*
X146377179Y-78843284D01*
X146435674Y-78663256D01*
X146455460Y-78475000D01*
X146435674Y-78286744D01*
X146415612Y-78225000D01*
X147919040Y-78225000D01*
X147938825Y-78413254D01*
X147971110Y-78512616D01*
X147997321Y-78593284D01*
X148023286Y-78638256D01*
X148091969Y-78757220D01*
X148189009Y-78864992D01*
X148218629Y-78897888D01*
X148371770Y-79009151D01*
X148544697Y-79086144D01*
X148685815Y-79116139D01*
X148729852Y-79125500D01*
X148729854Y-79125500D01*
X148919147Y-79125500D01*
X148942429Y-79120551D01*
X149086456Y-79089937D01*
X149163475Y-79093973D01*
X149228160Y-79135980D01*
X149263176Y-79204701D01*
X149265346Y-79253641D01*
X149264312Y-79262154D01*
X149264312Y-79262155D01*
X149261399Y-79286144D01*
X149244539Y-79424999D01*
X149264312Y-79587847D01*
X149322480Y-79741221D01*
X149322482Y-79741226D01*
X149322483Y-79741227D01*
X149415664Y-79876224D01*
X149415665Y-79876225D01*
X149415668Y-79876229D01*
X149538454Y-79985008D01*
X149683705Y-80061242D01*
X149842979Y-80100500D01*
X149842980Y-80100500D01*
X150007020Y-80100500D01*
X150007021Y-80100500D01*
X150166295Y-80061242D01*
X150311546Y-79985008D01*
X150434332Y-79876229D01*
X150527518Y-79741226D01*
X150585688Y-79587845D01*
X150598596Y-79481537D01*
X150627392Y-79409990D01*
X150688106Y-79362423D01*
X150746509Y-79350500D01*
X150894648Y-79350500D01*
X150937063Y-79341484D01*
X151079803Y-79311144D01*
X151252730Y-79234151D01*
X151405871Y-79122888D01*
X151508281Y-79009151D01*
X151532530Y-78982220D01*
X151532531Y-78982218D01*
X151532533Y-78982216D01*
X151627179Y-78818284D01*
X151685674Y-78638256D01*
X151705460Y-78450000D01*
X151685674Y-78261744D01*
X151627179Y-78081716D01*
X151532533Y-77917784D01*
X151532532Y-77917783D01*
X151532530Y-77917779D01*
X151405872Y-77777113D01*
X151371462Y-77752113D01*
X151252730Y-77665849D01*
X151252729Y-77665848D01*
X151252727Y-77665847D01*
X151079805Y-77588857D01*
X151079803Y-77588856D01*
X150962191Y-77563857D01*
X150894648Y-77549500D01*
X150894646Y-77549500D01*
X150705354Y-77549500D01*
X150705352Y-77549500D01*
X150605392Y-77570747D01*
X150520197Y-77588856D01*
X150520195Y-77588856D01*
X150520194Y-77588857D01*
X150347272Y-77665847D01*
X150194127Y-77777113D01*
X150067469Y-77917780D01*
X149981436Y-78066794D01*
X149926898Y-78121332D01*
X149852398Y-78141294D01*
X149777898Y-78121332D01*
X149723360Y-78066794D01*
X149710690Y-78038337D01*
X149710174Y-78036751D01*
X149710174Y-78036744D01*
X149651679Y-77856716D01*
X149557033Y-77692784D01*
X149557032Y-77692783D01*
X149557030Y-77692779D01*
X149430372Y-77552113D01*
X149366356Y-77505603D01*
X149277230Y-77440849D01*
X149277229Y-77440848D01*
X149277227Y-77440847D01*
X149104305Y-77363857D01*
X149104303Y-77363856D01*
X148969190Y-77335137D01*
X148919148Y-77324500D01*
X148919146Y-77324500D01*
X148729854Y-77324500D01*
X148729852Y-77324500D01*
X148629892Y-77345747D01*
X148544697Y-77363856D01*
X148544695Y-77363856D01*
X148544694Y-77363857D01*
X148371772Y-77440847D01*
X148218627Y-77552113D01*
X148091969Y-77692779D01*
X147997322Y-77856714D01*
X147997319Y-77856721D01*
X147938825Y-78036745D01*
X147919040Y-78225000D01*
X146415612Y-78225000D01*
X146377179Y-78106716D01*
X146282533Y-77942784D01*
X146282532Y-77942783D01*
X146282530Y-77942779D01*
X146155872Y-77802113D01*
X146121462Y-77777113D01*
X146002730Y-77690849D01*
X146002729Y-77690848D01*
X146002727Y-77690847D01*
X145829805Y-77613857D01*
X145829803Y-77613856D01*
X145712191Y-77588857D01*
X145644648Y-77574500D01*
X145644646Y-77574500D01*
X145455354Y-77574500D01*
X145455352Y-77574500D01*
X145355392Y-77595747D01*
X145270197Y-77613856D01*
X145270195Y-77613856D01*
X145270194Y-77613857D01*
X145097272Y-77690847D01*
X144944127Y-77802113D01*
X144817469Y-77942780D01*
X144817467Y-77942784D01*
X144751689Y-78056716D01*
X144743033Y-78071708D01*
X144688495Y-78126246D01*
X144613995Y-78146208D01*
X144539495Y-78126246D01*
X144484957Y-78071708D01*
X144472288Y-78043251D01*
X144470174Y-78036744D01*
X144411679Y-77856716D01*
X144317033Y-77692784D01*
X144317032Y-77692783D01*
X144317030Y-77692779D01*
X144190372Y-77552113D01*
X144126356Y-77505603D01*
X144037230Y-77440849D01*
X144037229Y-77440848D01*
X144037227Y-77440847D01*
X143864305Y-77363857D01*
X143864303Y-77363856D01*
X143729190Y-77335137D01*
X143679148Y-77324500D01*
X143679146Y-77324500D01*
X143489854Y-77324500D01*
X143489852Y-77324500D01*
X143389892Y-77345747D01*
X143304697Y-77363856D01*
X143304695Y-77363856D01*
X143304694Y-77363857D01*
X143131772Y-77440847D01*
X142978627Y-77552113D01*
X142851969Y-77692779D01*
X142757322Y-77856714D01*
X142757319Y-77856721D01*
X142698825Y-78036745D01*
X142679040Y-78225000D01*
X141731858Y-78225000D01*
X141677179Y-78056716D01*
X141582533Y-77892784D01*
X141582532Y-77892783D01*
X141582530Y-77892779D01*
X141455872Y-77752113D01*
X141374212Y-77692784D01*
X141302730Y-77640849D01*
X141302729Y-77640848D01*
X141302727Y-77640847D01*
X141129805Y-77563857D01*
X141129803Y-77563856D01*
X141023360Y-77541231D01*
X140944648Y-77524500D01*
X140944646Y-77524500D01*
X140755354Y-77524500D01*
X140755352Y-77524500D01*
X140655392Y-77545747D01*
X140570197Y-77563856D01*
X140570195Y-77563856D01*
X140570194Y-77563857D01*
X140397272Y-77640847D01*
X140244127Y-77752113D01*
X140117469Y-77892779D01*
X140022822Y-78056714D01*
X140022819Y-78056721D01*
X139964325Y-78236745D01*
X139944540Y-78425000D01*
X139957784Y-78551019D01*
X139945718Y-78627197D01*
X139897179Y-78687136D01*
X139845259Y-78711262D01*
X139733703Y-78738758D01*
X139733700Y-78738759D01*
X139695081Y-78759028D01*
X139619838Y-78775973D01*
X139546202Y-78753026D01*
X139493906Y-78696335D01*
X139476961Y-78621092D01*
X139496805Y-78552591D01*
X139502179Y-78543284D01*
X139560674Y-78363256D01*
X139580460Y-78175000D01*
X139560674Y-77986744D01*
X139502179Y-77806716D01*
X139407533Y-77642784D01*
X139407532Y-77642783D01*
X139407530Y-77642779D01*
X139280872Y-77502113D01*
X139257710Y-77485285D01*
X139127730Y-77390849D01*
X139127729Y-77390848D01*
X139127727Y-77390847D01*
X138954805Y-77313857D01*
X138954803Y-77313856D01*
X138848360Y-77291231D01*
X138769648Y-77274500D01*
X138769646Y-77274500D01*
X138580354Y-77274500D01*
X138580352Y-77274500D01*
X138480392Y-77295747D01*
X138395197Y-77313856D01*
X138395195Y-77313856D01*
X138395194Y-77313857D01*
X138222272Y-77390847D01*
X138069127Y-77502113D01*
X137942469Y-77642779D01*
X137847822Y-77806714D01*
X137847819Y-77806721D01*
X137789325Y-77986745D01*
X137769540Y-78175000D01*
X136822305Y-78175000D01*
X136911935Y-78019756D01*
X136970430Y-77839728D01*
X136990216Y-77651472D01*
X136970430Y-77463216D01*
X136911935Y-77283188D01*
X136817289Y-77119256D01*
X136817288Y-77119255D01*
X136817286Y-77119251D01*
X136690628Y-76978585D01*
X136537483Y-76867319D01*
X136364561Y-76790329D01*
X136364559Y-76790328D01*
X136258116Y-76767703D01*
X136179404Y-76750972D01*
X136179402Y-76750972D01*
X135990110Y-76750972D01*
X135990108Y-76750972D01*
X135890148Y-76772219D01*
X135804953Y-76790328D01*
X135804951Y-76790328D01*
X135804950Y-76790329D01*
X135632028Y-76867319D01*
X135478883Y-76978585D01*
X135352225Y-77119251D01*
X135257578Y-77283186D01*
X135257575Y-77283193D01*
X135199081Y-77463217D01*
X135179296Y-77651472D01*
X133915462Y-77651472D01*
X133910688Y-77612155D01*
X133870276Y-77505599D01*
X133862523Y-77428866D01*
X133894177Y-77358532D01*
X133956757Y-77313449D01*
X133977564Y-77307249D01*
X134210936Y-77255880D01*
X134560305Y-77138165D01*
X134560315Y-77138160D01*
X134894933Y-76983350D01*
X135210834Y-76793278D01*
X135504352Y-76570151D01*
X135523479Y-76552032D01*
X134206879Y-75235432D01*
X134234180Y-75218168D01*
X134421501Y-75052216D01*
X134560511Y-74881958D01*
X135874501Y-76195948D01*
X136010690Y-76035617D01*
X136010694Y-76035611D01*
X136217592Y-75730461D01*
X136217595Y-75730456D01*
X136390284Y-75404728D01*
X136390290Y-75404715D01*
X136526750Y-75062226D01*
X136526752Y-75062221D01*
X136613440Y-74750000D01*
X138069540Y-74750000D01*
X138089325Y-74938254D01*
X138131179Y-75067067D01*
X138147821Y-75118284D01*
X138185359Y-75183301D01*
X138242469Y-75282220D01*
X138357430Y-75409895D01*
X138369129Y-75422888D01*
X138522270Y-75534151D01*
X138695197Y-75611144D01*
X138836315Y-75641139D01*
X138880352Y-75650500D01*
X138880354Y-75650500D01*
X139069648Y-75650500D01*
X139109004Y-75642134D01*
X139254803Y-75611144D01*
X139427730Y-75534151D01*
X139580871Y-75422888D01*
X139653195Y-75342563D01*
X139707530Y-75282220D01*
X139707531Y-75282218D01*
X139707533Y-75282216D01*
X139802179Y-75118284D01*
X139860674Y-74938256D01*
X139880460Y-74750000D01*
X139860674Y-74561744D01*
X139802179Y-74381716D01*
X139707533Y-74217784D01*
X139707532Y-74217783D01*
X139707530Y-74217779D01*
X139580872Y-74077113D01*
X139580871Y-74077112D01*
X139427730Y-73965849D01*
X139369390Y-73939874D01*
X139259354Y-73890882D01*
X139199414Y-73842343D01*
X139171774Y-73770338D01*
X139183840Y-73694160D01*
X139232379Y-73634220D01*
X139273921Y-73613055D01*
X139279794Y-73611145D01*
X139279803Y-73611144D01*
X139452730Y-73534151D01*
X139605871Y-73422888D01*
X139681438Y-73338963D01*
X139732530Y-73282220D01*
X139732531Y-73282218D01*
X139732533Y-73282216D01*
X139827179Y-73118284D01*
X139885674Y-72938256D01*
X139905460Y-72750000D01*
X139885674Y-72561744D01*
X139827179Y-72381716D01*
X139732533Y-72217784D01*
X139732532Y-72217783D01*
X139732530Y-72217779D01*
X139605872Y-72077113D01*
X139600801Y-72073429D01*
X139452730Y-71965849D01*
X139452729Y-71965848D01*
X139452727Y-71965847D01*
X139279805Y-71888857D01*
X139279803Y-71888856D01*
X139194590Y-71870743D01*
X139125869Y-71835728D01*
X139083863Y-71771043D01*
X139079826Y-71694021D01*
X139114842Y-71625299D01*
X139179527Y-71583293D01*
X139194587Y-71579257D01*
X139279803Y-71561144D01*
X139452730Y-71484151D01*
X139605871Y-71372888D01*
X139687276Y-71282479D01*
X139732530Y-71232220D01*
X139732531Y-71232218D01*
X139732533Y-71232216D01*
X139827179Y-71068284D01*
X139885674Y-70888256D01*
X139905460Y-70700000D01*
X139885674Y-70511744D01*
X139827179Y-70331716D01*
X139732533Y-70167784D01*
X139732532Y-70167783D01*
X139732530Y-70167779D01*
X139605872Y-70027113D01*
X139591516Y-70016683D01*
X139452730Y-69915849D01*
X139452729Y-69915848D01*
X139452727Y-69915847D01*
X139279805Y-69838857D01*
X139279803Y-69838856D01*
X139158719Y-69813119D01*
X139094648Y-69799500D01*
X139094646Y-69799500D01*
X138905354Y-69799500D01*
X138905352Y-69799500D01*
X138805392Y-69820747D01*
X138720197Y-69838856D01*
X138720195Y-69838856D01*
X138720194Y-69838857D01*
X138547272Y-69915847D01*
X138394127Y-70027113D01*
X138267469Y-70167779D01*
X138172822Y-70331714D01*
X138172819Y-70331721D01*
X138114325Y-70511745D01*
X138094540Y-70700000D01*
X138114325Y-70888254D01*
X138156243Y-71017264D01*
X138172821Y-71068284D01*
X138223880Y-71156721D01*
X138267469Y-71232220D01*
X138394127Y-71372886D01*
X138394129Y-71372888D01*
X138547270Y-71484151D01*
X138720197Y-71561144D01*
X138805408Y-71579256D01*
X138874130Y-71614272D01*
X138916137Y-71678957D01*
X138920173Y-71755979D01*
X138885157Y-71824701D01*
X138820472Y-71866708D01*
X138805408Y-71870743D01*
X138720197Y-71888856D01*
X138720195Y-71888856D01*
X138720194Y-71888857D01*
X138547272Y-71965847D01*
X138394127Y-72077113D01*
X138267469Y-72217779D01*
X138172822Y-72381714D01*
X138172819Y-72381721D01*
X138114325Y-72561745D01*
X138094540Y-72750000D01*
X138114325Y-72938254D01*
X138134383Y-72999985D01*
X138172821Y-73118284D01*
X138208113Y-73179412D01*
X138267469Y-73282220D01*
X138368622Y-73394560D01*
X138394129Y-73422888D01*
X138547270Y-73534151D01*
X138715645Y-73609117D01*
X138775585Y-73657655D01*
X138803225Y-73729661D01*
X138791159Y-73805839D01*
X138742621Y-73865779D01*
X138701091Y-73886940D01*
X138695200Y-73888854D01*
X138522272Y-73965847D01*
X138369127Y-74077113D01*
X138242469Y-74217779D01*
X138147822Y-74381714D01*
X138147819Y-74381721D01*
X138089325Y-74561745D01*
X138069540Y-74750000D01*
X136613440Y-74750000D01*
X136625386Y-74706976D01*
X136625386Y-74706974D01*
X136685034Y-74343142D01*
X136685034Y-74343136D01*
X136704994Y-73975000D01*
X136704994Y-73974991D01*
X136685034Y-73606863D01*
X136685034Y-73606857D01*
X136625386Y-73243025D01*
X136625386Y-73243023D01*
X136526752Y-72887778D01*
X136526750Y-72887773D01*
X136390290Y-72545284D01*
X136390284Y-72545271D01*
X136217595Y-72219543D01*
X136217592Y-72219538D01*
X136010696Y-71914391D01*
X136010687Y-71914379D01*
X135874502Y-71754050D01*
X135874501Y-71754050D01*
X134558648Y-73069903D01*
X134504544Y-72991520D01*
X134331184Y-72811034D01*
X134205132Y-72716312D01*
X135523479Y-71397966D01*
X135504347Y-71379844D01*
X135210834Y-71156721D01*
X134894933Y-70966649D01*
X134560315Y-70811839D01*
X134560305Y-70811834D01*
X134210936Y-70694119D01*
X133850868Y-70614862D01*
X133484343Y-70575000D01*
X133115656Y-70575000D01*
X132749131Y-70614862D01*
X132749130Y-70614862D01*
X132389063Y-70694119D01*
X132039694Y-70811834D01*
X132039684Y-70811839D01*
X131705066Y-70966649D01*
X131389165Y-71156721D01*
X131095663Y-71379835D01*
X131076520Y-71397967D01*
X132393120Y-72714567D01*
X132365820Y-72731832D01*
X132178499Y-72897784D01*
X132039488Y-73068041D01*
X130725497Y-71754050D01*
X130725496Y-71754050D01*
X130589308Y-71914383D01*
X130589306Y-71914386D01*
X130382402Y-72219547D01*
X130209715Y-72545271D01*
X130209709Y-72545284D01*
X130073249Y-72887773D01*
X130073247Y-72887778D01*
X129974613Y-73243023D01*
X129974613Y-73243025D01*
X129914965Y-73606857D01*
X129914965Y-73606863D01*
X129895006Y-73974991D01*
X129895006Y-73975000D01*
X128800500Y-73975000D01*
X128809000Y-73780296D01*
X128818260Y-73580029D01*
X128818814Y-73573783D01*
X128845190Y-73373444D01*
X128845268Y-73372886D01*
X128872256Y-73179412D01*
X128873293Y-73173663D01*
X128917275Y-72975271D01*
X128961951Y-72785324D01*
X128963404Y-72780036D01*
X129024653Y-72585780D01*
X129025316Y-72583800D01*
X129086636Y-72400846D01*
X129088404Y-72396121D01*
X129166524Y-72207523D01*
X129245270Y-72029180D01*
X129247299Y-72024960D01*
X129341704Y-71843610D01*
X129436575Y-71673285D01*
X129438810Y-71669540D01*
X129453596Y-71646330D01*
X129548778Y-71496923D01*
X129659037Y-71335966D01*
X129661346Y-71332782D01*
X129786091Y-71170212D01*
X129910871Y-71019946D01*
X129913159Y-71017324D01*
X130051742Y-70866088D01*
X130191088Y-70726742D01*
X130193616Y-70724424D01*
X130342324Y-70588159D01*
X130344946Y-70585871D01*
X130495219Y-70461086D01*
X130657782Y-70336346D01*
X130660966Y-70334037D01*
X130821923Y-70223778D01*
X130994542Y-70113808D01*
X130998285Y-70111575D01*
X131168610Y-70016704D01*
X131349960Y-69922299D01*
X131354180Y-69920270D01*
X131532523Y-69841524D01*
X131721121Y-69763404D01*
X131725846Y-69761636D01*
X131910780Y-69699653D01*
X131913560Y-69698776D01*
X132105036Y-69638404D01*
X132110324Y-69636951D01*
X132300271Y-69592275D01*
X132498663Y-69548293D01*
X132504412Y-69547256D01*
X132698458Y-69520188D01*
X132898783Y-69493814D01*
X132905029Y-69493260D01*
X133105296Y-69484000D01*
X133300000Y-69475500D01*
X133300500Y-69475500D01*
X141903415Y-69475500D01*
X141977915Y-69495462D01*
G37*
%TD.AperFunction*%
%TD*%
M02*
