M48
; DRILL file {KiCad 7.0.8} date 2023 October 18, Wednesday 19:22:31
; FORMAT={-:-/ absolute / inch / decimal}
; #@! TF.CreationDate,2023-10-18T19:22:31-04:00
; #@! TF.GenerationSoftware,Kicad,Pcbnew,7.0.8
; #@! TF.FileFunction,Plated,1,4,PTH
FMAT,2
INCH
; #@! TA.AperFunction,Plated,PTH,ViaDrill
T1C0.0079
; #@! TA.AperFunction,Plated,PTH,ComponentDrill
T2C0.0118
; #@! TA.AperFunction,Plated,PTH,ViaDrill
T3C0.0157
; #@! TA.AperFunction,Plated,PTH,ComponentDrill
T4C0.0276
; #@! TA.AperFunction,Plated,PTH,ComponentDrill
T5C0.0354
; #@! TA.AperFunction,Plated,PTH,ComponentDrill
T6C0.0374
; #@! TA.AperFunction,Plated,PTH,ComponentDrill
T7C0.0413
; #@! TA.AperFunction,Plated,PTH,ComponentDrill
T8C0.1220
%
G90
G05
T1
X5.127Y-3.314
X5.1427Y-3.436
X5.1585Y-3.4557
X5.1663Y-3.2904
X5.1752Y-3.4764
X5.187Y-3.2707
X5.1998Y-3.4311
X5.2018Y-3.2549
X5.2037Y-3.4547
X5.2175Y-3.4705
X5.2461Y-3.062
X5.3799Y-3.7726
X5.4104Y-3.5325
X5.4134Y-3.8041
X5.4173Y-3.1663
X5.435Y-3.1821
X5.4537Y-3.5148
X5.4557Y-3.2146
X5.4665Y-3.497
X5.4809Y-3.4635
X5.498Y-3.4519
X5.499Y-3.124
X5.5089Y-3.4803
X5.5492Y-3.2972
X5.565Y-3.2805
X5.6073Y-3.2028
X5.6417Y-3.628
X5.6841Y-3.126
X5.7215Y-3.5965
X5.75Y-3.5955
X5.7549Y-3.2657
X5.7785Y-3.5965
X5.7963Y-3.2244
X5.8051Y-3.5965
X5.8327Y-3.5965
X5.8868Y-3.5453
X5.8927Y-3.128
X5.9262Y-3.2766
X5.935Y-3.5453
X5.9429Y-3.2608
X5.9616Y-3.2441
X5.9766Y-3.2256
X6.0689Y-3.4606
X6.1181Y-3.4626
X6.123Y-3.7549
X6.1348Y-3.4459
X6.1506Y-3.4321
X6.1575Y-3.7156
X6.2077Y-3.7539
T2
X5.6142Y-2.7638
X5.7126Y-2.7638
X5.811Y-2.7638
X5.9094Y-2.7638
T3
X5.1457Y-3.1506
X5.1575Y-3.7382
X5.1581Y-3.5289
X5.2028Y-3.7067
X5.2441Y-3.1378
X5.2973Y-3.5508
X5.3012Y-3.3465
X5.3179Y-3.8127
X5.3514Y-3.3002
X5.3514Y-3.3474
X5.3514Y-3.3976
X5.3577Y-3.0571
X5.3631Y-3.8581
X5.4006Y-3.3465
X5.4301Y-3.7018
X5.4596Y-3.0778
X5.4715Y-2.9429
X5.4724Y-2.7835
X5.4724Y-2.8642
X5.4733Y-3.7624
X5.5138Y-4.0787
X5.5453Y-3.0876
X5.5474Y-3.6752
X5.5659Y-3.4616
X5.5738Y-3.7746
X5.5929Y-3.4242
X5.6529Y-3.0797
X5.7303Y-3.0896
X5.7313Y-3.4262
X5.747Y-3.7165
X5.748Y-3.7667
X5.7726Y-3.3819
X5.7726Y-3.4232
X5.7726Y-3.4665
X5.7992Y-3.6467
X5.8169Y-3.4262
X5.8494Y-3.375
X5.8592Y-3.0797
X5.9134Y-3.3986
X5.9281Y-3.3159
X5.937Y-3.0886
X5.939Y-3.4242
X5.9744Y-3.4173
X6.0182Y-3.4718
X6.0207Y-3.314
X6.0522Y-2.7844
X6.0522Y-2.9439
X6.0531Y-2.8622
X6.062Y-3.3159
X6.062Y-3.3563
X6.063Y-3.2756
X6.0669Y-3.564
X6.1014Y-3.3169
X6.1152Y-3.5965
X6.1476Y-3.6211
X6.1516Y-3.5807
X6.1575Y-3.2116
X6.187Y-3.2362
X6.2156Y-3.2618
X6.2963Y-3.1644
X6.2972Y-3.2126
X6.2972Y-3.2598
X6.2972Y-3.3051
X6.2972Y-3.3504
X6.373Y-3.439
X6.374Y-3.3898
X6.375Y-3.2362
X6.376Y-3.2825
X6.3829Y-3.5531
X6.3839Y-3.626
X6.3848Y-3.7569
X6.3858Y-3.689
X6.3858Y-3.7234
T4
X5.2917Y-3.684
T5
X5.2694Y-3.7815
X5.3891Y-3.6617
X5.403Y-3.9151
X5.5227Y-3.7954
T6
X5.749Y-4.0039
X5.8474Y-4.0039
X5.9459Y-4.0039
X6.0443Y-4.0039
T7
X5.6142Y-2.9459
X5.7126Y-2.9459
X5.811Y-2.9459
X5.9094Y-2.9459
T8
X5.248Y-2.9124
X5.248Y-3.936
X6.2717Y-2.9124
X6.2717Y-3.936
T6
G00X5.6083Y-2.8376
M15
G01X5.6201Y-2.8376
M16
G05
G00X5.7067Y-2.8376
M15
G01X5.7185Y-2.8376
M16
G05
G00X5.8051Y-2.8376
M15
G01X5.8169Y-2.8376
M16
G05
G00X5.9035Y-2.8376
M15
G01X5.9154Y-2.8376
M16
G05
T0
M30
