%TF.GenerationSoftware,KiCad,Pcbnew,7.0.8*%
%TF.CreationDate,2023-10-22T08:36:03-04:00*%
%TF.ProjectId,lemon-pepper,6c656d6f-6e2d-4706-9570-7065722e6b69,rev?*%
%TF.SameCoordinates,Original*%
%TF.FileFunction,Legend,Top*%
%TF.FilePolarity,Positive*%
%FSLAX46Y46*%
G04 Gerber Fmt 4.6, Leading zero omitted, Abs format (unit mm)*
G04 Created by KiCad (PCBNEW 7.0.8) date 2023-10-22 08:36:03*
%MOMM*%
%LPD*%
G01*
G04 APERTURE LIST*
%ADD10C,0.150000*%
%ADD11C,0.120000*%
%ADD12C,0.250000*%
%ADD13C,0.300000*%
%ADD14C,0.100000*%
G04 APERTURE END LIST*
D10*
X145754819Y-88236904D02*
X144754819Y-88236904D01*
X144754819Y-88236904D02*
X144754819Y-87855952D01*
X144754819Y-87855952D02*
X144802438Y-87760714D01*
X144802438Y-87760714D02*
X144850057Y-87713095D01*
X144850057Y-87713095D02*
X144945295Y-87665476D01*
X144945295Y-87665476D02*
X145088152Y-87665476D01*
X145088152Y-87665476D02*
X145183390Y-87713095D01*
X145183390Y-87713095D02*
X145231009Y-87760714D01*
X145231009Y-87760714D02*
X145278628Y-87855952D01*
X145278628Y-87855952D02*
X145278628Y-88236904D01*
X145659580Y-86665476D02*
X145707200Y-86713095D01*
X145707200Y-86713095D02*
X145754819Y-86855952D01*
X145754819Y-86855952D02*
X145754819Y-86951190D01*
X145754819Y-86951190D02*
X145707200Y-87094047D01*
X145707200Y-87094047D02*
X145611961Y-87189285D01*
X145611961Y-87189285D02*
X145516723Y-87236904D01*
X145516723Y-87236904D02*
X145326247Y-87284523D01*
X145326247Y-87284523D02*
X145183390Y-87284523D01*
X145183390Y-87284523D02*
X144992914Y-87236904D01*
X144992914Y-87236904D02*
X144897676Y-87189285D01*
X144897676Y-87189285D02*
X144802438Y-87094047D01*
X144802438Y-87094047D02*
X144754819Y-86951190D01*
X144754819Y-86951190D02*
X144754819Y-86855952D01*
X144754819Y-86855952D02*
X144802438Y-86713095D01*
X144802438Y-86713095D02*
X144850057Y-86665476D01*
X145231009Y-85903571D02*
X145278628Y-85760714D01*
X145278628Y-85760714D02*
X145326247Y-85713095D01*
X145326247Y-85713095D02*
X145421485Y-85665476D01*
X145421485Y-85665476D02*
X145564342Y-85665476D01*
X145564342Y-85665476D02*
X145659580Y-85713095D01*
X145659580Y-85713095D02*
X145707200Y-85760714D01*
X145707200Y-85760714D02*
X145754819Y-85855952D01*
X145754819Y-85855952D02*
X145754819Y-86236904D01*
X145754819Y-86236904D02*
X144754819Y-86236904D01*
X144754819Y-86236904D02*
X144754819Y-85903571D01*
X144754819Y-85903571D02*
X144802438Y-85808333D01*
X144802438Y-85808333D02*
X144850057Y-85760714D01*
X144850057Y-85760714D02*
X144945295Y-85713095D01*
X144945295Y-85713095D02*
X145040533Y-85713095D01*
X145040533Y-85713095D02*
X145135771Y-85760714D01*
X145135771Y-85760714D02*
X145183390Y-85808333D01*
X145183390Y-85808333D02*
X145231009Y-85903571D01*
X145231009Y-85903571D02*
X145231009Y-86236904D01*
D11*
%TO.C,C103*%
X137763748Y-74065000D02*
X138286252Y-74065000D01*
X137763748Y-75535000D02*
X138286252Y-75535000D01*
%TO.C,J301*%
X137447328Y-103785158D02*
X137326164Y-103161824D01*
X138070661Y-103663994D02*
X137447328Y-103785158D01*
%TO.C,Q501*%
X159062500Y-77265000D02*
X157387500Y-77265000D01*
X159062500Y-77265000D02*
X159712500Y-77265000D01*
X159062500Y-80385000D02*
X158412500Y-80385000D01*
X159062500Y-80385000D02*
X159712500Y-80385000D01*
%TO.C,R601*%
X162011359Y-88545000D02*
X162318641Y-88545000D01*
X162011359Y-89305000D02*
X162318641Y-89305000D01*
%TO.C,D502*%
X156975000Y-76215000D02*
X155275000Y-76215000D01*
X156975000Y-76215000D02*
X156975000Y-78875000D01*
X155275000Y-76215000D02*
X155275000Y-78875000D01*
%TO.C,U302*%
X146850000Y-92460000D02*
X143400000Y-92460000D01*
X146850000Y-92460000D02*
X148800000Y-92460000D01*
X146850000Y-97580000D02*
X144900000Y-97580000D01*
X146850000Y-97580000D02*
X148800000Y-97580000D01*
%TO.C,D501*%
X154950000Y-75915000D02*
X153250000Y-75915000D01*
X154950000Y-75915000D02*
X154950000Y-78575000D01*
X153250000Y-75915000D02*
X153250000Y-78575000D01*
%TO.C,R101*%
X141745000Y-98003641D02*
X141745000Y-97696359D01*
X142505000Y-98003641D02*
X142505000Y-97696359D01*
%TO.C,R103*%
X151961359Y-92695000D02*
X152268641Y-92695000D01*
X151961359Y-93455000D02*
X152268641Y-93455000D01*
%TO.C,R302*%
X135327341Y-91460060D02*
X135110060Y-91677341D01*
X134789940Y-90922659D02*
X134572659Y-91139940D01*
%TO.C,C304*%
X141194539Y-85886642D02*
X141347042Y-85734139D01*
X141703656Y-86395759D02*
X141856159Y-86243256D01*
%TO.C,D101*%
X163550000Y-81340000D02*
X160250000Y-81340000D01*
X163550000Y-81340000D02*
X163550000Y-86850000D01*
X160250000Y-81340000D02*
X160250000Y-86850000D01*
%TO.C,C106*%
X153390000Y-91761252D02*
X153390000Y-91238748D01*
X154860000Y-91761252D02*
X154860000Y-91238748D01*
%TO.C,D601*%
X160060000Y-85890000D02*
X158590000Y-85890000D01*
X158590000Y-85890000D02*
X158590000Y-88175000D01*
X160060000Y-88175000D02*
X160060000Y-85890000D01*
%TO.C,D301*%
X129577500Y-90540000D02*
X129577500Y-92010000D01*
X129577500Y-92010000D02*
X131862500Y-92010000D01*
X131862500Y-90540000D02*
X129577500Y-90540000D01*
%TO.C,L501*%
X160222936Y-93165000D02*
X161427064Y-93165000D01*
X160222936Y-95885000D02*
X161427064Y-95885000D01*
%TO.C,C305*%
X130541399Y-78437718D02*
X130388896Y-78590221D01*
X130032282Y-77928601D02*
X129879779Y-78081104D01*
%TO.C,C701*%
X140227836Y-80835000D02*
X140012164Y-80835000D01*
X140227836Y-80115000D02*
X140012164Y-80115000D01*
%TO.C,C308*%
X134633601Y-77807282D02*
X134786104Y-77654779D01*
X135142718Y-78316399D02*
X135295221Y-78163896D01*
%TO.C,C307*%
X133105810Y-89253307D02*
X132953307Y-89405810D01*
X132596693Y-88744190D02*
X132444190Y-88896693D01*
%TO.C,U201*%
X142460000Y-93475000D02*
X142460000Y-91675000D01*
X142460000Y-93475000D02*
X142460000Y-94275000D01*
X139340000Y-93475000D02*
X139340000Y-92675000D01*
X139340000Y-93475000D02*
X139340000Y-94275000D01*
D12*
%TO.C,U703*%
X147690000Y-79885000D02*
X146030000Y-79885000D01*
X147690000Y-79245000D02*
X147690000Y-79885000D01*
X147690000Y-76835000D02*
X147690000Y-76195000D01*
X147690000Y-76195000D02*
X146030000Y-76195000D01*
X144640000Y-79885000D02*
X144000000Y-79885000D01*
X144000000Y-79885000D02*
X144000000Y-79115000D01*
X144000000Y-76835000D02*
X144000000Y-76195000D01*
X144000000Y-76195000D02*
X144640000Y-76195000D01*
X148370000Y-79625000D02*
G75*
G03*
X148370000Y-79625000I-180000J0D01*
G01*
D11*
%TO.C,C302*%
X134605810Y-90753307D02*
X134453307Y-90905810D01*
X134096693Y-90244190D02*
X133944190Y-90396693D01*
%TO.C,C602*%
X157660000Y-90617164D02*
X157660000Y-90832836D01*
X156940000Y-90617164D02*
X156940000Y-90832836D01*
%TO.C,C401*%
X148007836Y-83310000D02*
X147792164Y-83310000D01*
X148007836Y-82590000D02*
X147792164Y-82590000D01*
%TO.C,D302*%
X129577500Y-92190000D02*
X129577500Y-93660000D01*
X129577500Y-93660000D02*
X131862500Y-93660000D01*
X131862500Y-92190000D02*
X129577500Y-92190000D01*
%TO.C,R102*%
X138270000Y-92503641D02*
X138270000Y-92196359D01*
X139030000Y-92503641D02*
X139030000Y-92196359D01*
%TO.C,R105*%
X150605000Y-88871359D02*
X150605000Y-89178641D01*
X149845000Y-88871359D02*
X149845000Y-89178641D01*
%TO.C,C503*%
X161390000Y-91436252D02*
X161390000Y-90913748D01*
X162860000Y-91436252D02*
X162860000Y-90913748D01*
%TO.C,R501*%
X157343641Y-96715000D02*
X157036359Y-96715000D01*
X157343641Y-95955000D02*
X157036359Y-95955000D01*
%TO.C,R301*%
X130653641Y-90330000D02*
X130346359Y-90330000D01*
X130653641Y-89570000D02*
X130346359Y-89570000D01*
%TO.C,C201*%
X139807836Y-91235000D02*
X139592164Y-91235000D01*
X139807836Y-90515000D02*
X139592164Y-90515000D01*
%TO.C,C102*%
X138286252Y-73485000D02*
X137763748Y-73485000D01*
X138286252Y-72015000D02*
X137763748Y-72015000D01*
%TO.C,C101*%
X137763748Y-69990000D02*
X138286252Y-69990000D01*
X137763748Y-71460000D02*
X138286252Y-71460000D01*
D12*
%TO.C,J201*%
X135646070Y-92690095D02*
X135999624Y-93043648D01*
X133524750Y-94811415D02*
X133878303Y-95164969D01*
X136848152Y-93892177D02*
X139393736Y-96437761D01*
X134726832Y-96013497D02*
X137272416Y-98559081D01*
X140242265Y-97286289D02*
X140539249Y-97583274D01*
X138120944Y-99407610D02*
X138417929Y-99704594D01*
X135652231Y-92693193D02*
G75*
G03*
X133524751Y-94811415I-713267J-1411116D01*
G01*
X138417929Y-99704593D02*
G75*
G03*
X140544679Y-97594077I714178J1407141D01*
G01*
D13*
X136184979Y-92371897D02*
G75*
G03*
X136184979Y-92371897I-150000J0D01*
G01*
D11*
%TO.C,C703*%
X144927836Y-80873857D02*
X144712164Y-80873857D01*
X144927836Y-80153857D02*
X144712164Y-80153857D01*
%TO.C,kibuzzard-65305A5A*%
G36*
X153885581Y-89115500D02*
G01*
X153913363Y-89183763D01*
X153882803Y-89263534D01*
X153791125Y-89290125D01*
X153689525Y-89253612D01*
X153674444Y-89218688D01*
X153670475Y-89172650D01*
X153703019Y-89113119D01*
X153796681Y-89083750D01*
X153885581Y-89115500D01*
G37*
G36*
X156708156Y-89115500D02*
G01*
X156735938Y-89183763D01*
X156705378Y-89263534D01*
X156613700Y-89290125D01*
X156512100Y-89253612D01*
X156497019Y-89218688D01*
X156493050Y-89172650D01*
X156525594Y-89113119D01*
X156619256Y-89083750D01*
X156708156Y-89115500D01*
G37*
G36*
X157088156Y-88170882D02*
G01*
X157161715Y-88181794D01*
X157233850Y-88199863D01*
X157303867Y-88224915D01*
X157371091Y-88256709D01*
X157434875Y-88294940D01*
X157494604Y-88339238D01*
X157549704Y-88389178D01*
X157599644Y-88444278D01*
X157643942Y-88504007D01*
X157682173Y-88567791D01*
X157713967Y-88635015D01*
X157739020Y-88705032D01*
X157757089Y-88777167D01*
X157768000Y-88850726D01*
X157771649Y-88925000D01*
X157768000Y-88999274D01*
X157757089Y-89072833D01*
X157739020Y-89144968D01*
X157713967Y-89214985D01*
X157682173Y-89282209D01*
X157643942Y-89345993D01*
X157599644Y-89405722D01*
X157549704Y-89460822D01*
X157494604Y-89510762D01*
X157434875Y-89555060D01*
X157371091Y-89593291D01*
X157303867Y-89625085D01*
X157233850Y-89650137D01*
X157161715Y-89668206D01*
X157088156Y-89679118D01*
X157013882Y-89682767D01*
X157013750Y-89682767D01*
X156620050Y-89682767D01*
X155997750Y-89682767D01*
X155030963Y-89682767D01*
X153797475Y-89682767D01*
X153216450Y-89682767D01*
X152886250Y-89682767D01*
X152886118Y-89682767D01*
X152811844Y-89679118D01*
X152738285Y-89668206D01*
X152666150Y-89650137D01*
X152596133Y-89625085D01*
X152528909Y-89593291D01*
X152465125Y-89555060D01*
X152405396Y-89510762D01*
X152350296Y-89460822D01*
X152300356Y-89405722D01*
X152256058Y-89345993D01*
X152217827Y-89282209D01*
X152186033Y-89214985D01*
X152178837Y-89194875D01*
X152886250Y-89194875D01*
X152897363Y-89341719D01*
X152930700Y-89442525D01*
X152988644Y-89495309D01*
X153089450Y-89523488D01*
X153216450Y-89530631D01*
X153286300Y-89513963D01*
X153310113Y-89472291D01*
X153318050Y-89391725D01*
X153286300Y-89279012D01*
X153259313Y-89265519D01*
X153215656Y-89263138D01*
X153173588Y-89248056D01*
X153164063Y-89175825D01*
X153164063Y-89075812D01*
X153381550Y-89075812D01*
X153393192Y-89206958D01*
X153428117Y-89320993D01*
X153486325Y-89417919D01*
X153567464Y-89491561D01*
X153671181Y-89535747D01*
X153797475Y-89550475D01*
X153901104Y-89538481D01*
X153993972Y-89502497D01*
X154076081Y-89442525D01*
X154119144Y-89390137D01*
X154270550Y-89390137D01*
X154311825Y-89490150D01*
X154410250Y-89533013D01*
X155030963Y-89533013D01*
X155129388Y-89513963D01*
X155163519Y-89472688D01*
X155173838Y-89392519D01*
X155173558Y-89390137D01*
X155237338Y-89390137D01*
X155278613Y-89490150D01*
X155377038Y-89533013D01*
X155997750Y-89533013D01*
X156096175Y-89513963D01*
X156130306Y-89472688D01*
X156140625Y-89392519D01*
X156131100Y-89311556D01*
X156093794Y-89265519D01*
X156000925Y-89250438D01*
X155710413Y-89250438D01*
X155710413Y-89242500D01*
X155750100Y-89226625D01*
X155848525Y-89173047D01*
X155959650Y-89085338D01*
X155968250Y-89075812D01*
X156204125Y-89075812D01*
X156215767Y-89206958D01*
X156250692Y-89320993D01*
X156308900Y-89417919D01*
X156390039Y-89491561D01*
X156493756Y-89535747D01*
X156620050Y-89550475D01*
X156723679Y-89538481D01*
X156816547Y-89502497D01*
X156898656Y-89442525D01*
X156962597Y-89364738D01*
X157000962Y-89275308D01*
X157013750Y-89174237D01*
X157001315Y-89090365D01*
X156964008Y-89012312D01*
X156901831Y-88940081D01*
X156822192Y-88882314D01*
X156732498Y-88847653D01*
X156632750Y-88836100D01*
X156515275Y-88863088D01*
X156523213Y-88840862D01*
X156552581Y-88785300D01*
X156608938Y-88723387D01*
X156704981Y-88669412D01*
X156831188Y-88647188D01*
X156923263Y-88637663D01*
X156955013Y-88617025D01*
X156974063Y-88575750D01*
X156982000Y-88502725D01*
X156972475Y-88426525D01*
X156935169Y-88381281D01*
X156847063Y-88366200D01*
X156732731Y-88374328D01*
X156628496Y-88398712D01*
X156534357Y-88439352D01*
X156450315Y-88496248D01*
X156376369Y-88569400D01*
X156314361Y-88654680D01*
X156266133Y-88747962D01*
X156231684Y-88849244D01*
X156211015Y-88958528D01*
X156204125Y-89075812D01*
X155968250Y-89075812D01*
X156011244Y-89028188D01*
X156054900Y-88955162D01*
X156084666Y-88871819D01*
X156094588Y-88783713D01*
X156081358Y-88674616D01*
X156041671Y-88573810D01*
X155975525Y-88481294D01*
X155888124Y-88407651D01*
X155784672Y-88363466D01*
X155665169Y-88348737D01*
X155545754Y-88363290D01*
X155442566Y-88406946D01*
X155355606Y-88479706D01*
X155289901Y-88570811D01*
X155250479Y-88669501D01*
X155237338Y-88775775D01*
X155245275Y-88856737D01*
X155288534Y-88901981D01*
X155377038Y-88917063D01*
X155458000Y-88907538D01*
X155500863Y-88878963D01*
X155515944Y-88839275D01*
X155518325Y-88786887D01*
X155518325Y-88777363D01*
X155524675Y-88740850D01*
X155566744Y-88667031D01*
X155654850Y-88629725D01*
X155734225Y-88644013D01*
X155776294Y-88674969D01*
X155800900Y-88717831D01*
X155812013Y-88758313D01*
X155797130Y-88827766D01*
X155752481Y-88893250D01*
X155686798Y-88953377D01*
X155608813Y-89006756D01*
X155524675Y-89057159D01*
X155440538Y-89108356D01*
X155362552Y-89165109D01*
X155296869Y-89232181D01*
X155252220Y-89307786D01*
X155237338Y-89390137D01*
X155173558Y-89390137D01*
X155164313Y-89311556D01*
X155127006Y-89265519D01*
X155034138Y-89250438D01*
X154743625Y-89250438D01*
X154743625Y-89242500D01*
X154783313Y-89226625D01*
X154881738Y-89173047D01*
X154992863Y-89085338D01*
X155044456Y-89028188D01*
X155088113Y-88955162D01*
X155117878Y-88871819D01*
X155127800Y-88783713D01*
X155114571Y-88674616D01*
X155074883Y-88573810D01*
X155008738Y-88481294D01*
X154921337Y-88407651D01*
X154817885Y-88363466D01*
X154698381Y-88348737D01*
X154578966Y-88363290D01*
X154475779Y-88406946D01*
X154388819Y-88479706D01*
X154323114Y-88570811D01*
X154283691Y-88669501D01*
X154270550Y-88775775D01*
X154278488Y-88856737D01*
X154321747Y-88901981D01*
X154410250Y-88917063D01*
X154491213Y-88907538D01*
X154534075Y-88878963D01*
X154549156Y-88839275D01*
X154551538Y-88786887D01*
X154551538Y-88777363D01*
X154557888Y-88740850D01*
X154599956Y-88667031D01*
X154688063Y-88629725D01*
X154767438Y-88644013D01*
X154809506Y-88674969D01*
X154834113Y-88717831D01*
X154845225Y-88758313D01*
X154830342Y-88827766D01*
X154785694Y-88893250D01*
X154720011Y-88953377D01*
X154642025Y-89006756D01*
X154557888Y-89057159D01*
X154473750Y-89108356D01*
X154395764Y-89165109D01*
X154330081Y-89232181D01*
X154285433Y-89307786D01*
X154270550Y-89390137D01*
X154119144Y-89390137D01*
X154140022Y-89364738D01*
X154178387Y-89275308D01*
X154191175Y-89174237D01*
X154178740Y-89090365D01*
X154141433Y-89012312D01*
X154079256Y-88940081D01*
X153999617Y-88882314D01*
X153909923Y-88847653D01*
X153810175Y-88836100D01*
X153692700Y-88863088D01*
X153700638Y-88840862D01*
X153730006Y-88785300D01*
X153786363Y-88723387D01*
X153882406Y-88669412D01*
X154008613Y-88647188D01*
X154100688Y-88637663D01*
X154132438Y-88617025D01*
X154151488Y-88575750D01*
X154159425Y-88502725D01*
X154149900Y-88426525D01*
X154112594Y-88381281D01*
X154024488Y-88366200D01*
X153910156Y-88374328D01*
X153805921Y-88398712D01*
X153711782Y-88439352D01*
X153627740Y-88496248D01*
X153553794Y-88569400D01*
X153491786Y-88654680D01*
X153443558Y-88747962D01*
X153409109Y-88849244D01*
X153388440Y-88958528D01*
X153381550Y-89075812D01*
X153164063Y-89075812D01*
X153164063Y-88440813D01*
X153161681Y-88385250D01*
X153146600Y-88342387D01*
X153104531Y-88310241D01*
X153025950Y-88299525D01*
X152944194Y-88310241D01*
X152902125Y-88342387D01*
X152888631Y-88384456D01*
X152886250Y-88439225D01*
X152886250Y-89194875D01*
X152178837Y-89194875D01*
X152160980Y-89144968D01*
X152142911Y-89072833D01*
X152132000Y-88999274D01*
X152128351Y-88925000D01*
X152132000Y-88850726D01*
X152142911Y-88777167D01*
X152160980Y-88705032D01*
X152186033Y-88635015D01*
X152217827Y-88567791D01*
X152256058Y-88504007D01*
X152300356Y-88444278D01*
X152350296Y-88389178D01*
X152405396Y-88339238D01*
X152465125Y-88294940D01*
X152528909Y-88256709D01*
X152596133Y-88224915D01*
X152666150Y-88199863D01*
X152738285Y-88181794D01*
X152811844Y-88170882D01*
X152886118Y-88167233D01*
X152886250Y-88167233D01*
X157013750Y-88167233D01*
X157013882Y-88167233D01*
X157088156Y-88170882D01*
G37*
%TO.C,C202*%
X141592164Y-90515000D02*
X141807836Y-90515000D01*
X141592164Y-91235000D02*
X141807836Y-91235000D01*
%TO.C,C301*%
X132430810Y-88578307D02*
X132278307Y-88730810D01*
X131921693Y-88069190D02*
X131769190Y-88221693D01*
%TO.C,R502*%
X156045000Y-96631359D02*
X156045000Y-96938641D01*
X155285000Y-96631359D02*
X155285000Y-96938641D01*
%TO.C,D201*%
X132735000Y-95800000D02*
X132735000Y-94100000D01*
X132735000Y-95800000D02*
X130075000Y-95800000D01*
X132735000Y-94100000D02*
X130075000Y-94100000D01*
D10*
%TO.C,U601*%
X157648671Y-84225000D02*
X157295118Y-83871447D01*
X154000000Y-80576329D02*
X154353553Y-80929882D01*
X157295118Y-84578553D02*
X157648671Y-84225000D01*
X153646447Y-80929882D02*
X154000000Y-80576329D01*
X154353553Y-87520118D02*
X154000000Y-87873671D01*
X150704882Y-83871447D02*
X150351329Y-84225000D01*
X154000000Y-87873671D02*
X153646447Y-87520118D01*
X150351329Y-84225000D02*
X150704882Y-84578553D01*
X157457041Y-83312832D02*
G75*
G03*
X157457041Y-83312832I-70000J0D01*
G01*
D11*
%TO.C,C601*%
X157690000Y-88057836D02*
X157690000Y-87842164D01*
X158410000Y-88057836D02*
X158410000Y-87842164D01*
%TO.C,kibuzzard-653468FC*%
G36*
X158645043Y-80686958D02*
G01*
X158714595Y-80697276D01*
X158782801Y-80714360D01*
X158849004Y-80738048D01*
X158912566Y-80768111D01*
X158972876Y-80804259D01*
X159029352Y-80846144D01*
X159081451Y-80893364D01*
X159128670Y-80945462D01*
X159170555Y-81001939D01*
X159206704Y-81062248D01*
X159236766Y-81125811D01*
X159260454Y-81192013D01*
X159277539Y-81260219D01*
X159287856Y-81329772D01*
X159291306Y-81400000D01*
X159287856Y-81470228D01*
X159277539Y-81539781D01*
X159260454Y-81607987D01*
X159236766Y-81674189D01*
X159206704Y-81737752D01*
X159170555Y-81798061D01*
X159128670Y-81854538D01*
X159081451Y-81906636D01*
X159029352Y-81953856D01*
X158972876Y-81995741D01*
X158912566Y-82031889D01*
X158849004Y-82061952D01*
X158782801Y-82085640D01*
X158714595Y-82102724D01*
X158645043Y-82113042D01*
X158574814Y-82116492D01*
X158442523Y-82116492D01*
X158147033Y-82116492D01*
X157575318Y-82116492D01*
X157575186Y-82116492D01*
X157504957Y-82113042D01*
X157435405Y-82102724D01*
X157367199Y-82085640D01*
X157300996Y-82061952D01*
X157237434Y-82031889D01*
X157177124Y-81995741D01*
X157120648Y-81953856D01*
X157068549Y-81906636D01*
X157021330Y-81854537D01*
X156979445Y-81798061D01*
X156943296Y-81737752D01*
X156913234Y-81674189D01*
X156889546Y-81607987D01*
X156872461Y-81539781D01*
X156862144Y-81470228D01*
X156858694Y-81400000D01*
X156862144Y-81329772D01*
X156872461Y-81260219D01*
X156889546Y-81192013D01*
X156890673Y-81188862D01*
X157729520Y-81188862D01*
X157779527Y-81287288D01*
X157875570Y-81342850D01*
X157986695Y-81293638D01*
X158007333Y-81274588D01*
X158007333Y-81841325D01*
X158009714Y-81899269D01*
X158024795Y-81942925D01*
X158067261Y-81973881D01*
X158147033Y-81984200D01*
X158228789Y-81973484D01*
X158270858Y-81941337D01*
X158285939Y-81899269D01*
X158288320Y-81844500D01*
X158288320Y-80960262D01*
X158280383Y-80876125D01*
X158258158Y-80841994D01*
X158216883Y-80823738D01*
X158141477Y-80815800D01*
X158051783Y-80857075D01*
X158047020Y-80860250D01*
X157786670Y-81095200D01*
X157729520Y-81188862D01*
X156890673Y-81188862D01*
X156913234Y-81125811D01*
X156943296Y-81062248D01*
X156979445Y-81001939D01*
X157021330Y-80945463D01*
X157068549Y-80893364D01*
X157120648Y-80846144D01*
X157177124Y-80804259D01*
X157237434Y-80768111D01*
X157300996Y-80738048D01*
X157367199Y-80714360D01*
X157435405Y-80697276D01*
X157504957Y-80686958D01*
X157575186Y-80683508D01*
X157575318Y-80683508D01*
X158442523Y-80683508D01*
X158574814Y-80683508D01*
X158645043Y-80686958D01*
G37*
D14*
%TO.C,U501*%
X154515000Y-93535000D02*
X156515000Y-93535000D01*
X154515000Y-95735000D02*
X156515000Y-95735000D01*
D13*
X154275000Y-93445000D02*
G75*
G03*
X154275000Y-93445000I0J0D01*
G01*
D11*
%TO.C,U301*%
X130845038Y-85039949D02*
X131180914Y-84704073D01*
X136286225Y-80270514D02*
X135950349Y-79934638D01*
X131180914Y-85375825D02*
X130845038Y-85039949D01*
X140719784Y-84704073D02*
X141055660Y-85039949D01*
X135614473Y-89809384D02*
X135950349Y-90145260D01*
X141055660Y-85039949D02*
X140719784Y-85375825D01*
X135950349Y-90145260D02*
X136286225Y-89809384D01*
%TO.C,R503*%
X154970000Y-96631359D02*
X154970000Y-96938641D01*
X154210000Y-96631359D02*
X154210000Y-96938641D01*
%TO.C,C104*%
X154413748Y-69990000D02*
X154936252Y-69990000D01*
X154413748Y-71460000D02*
X154936252Y-71460000D01*
%TO.C,kibuzzard-652C57F7*%
G36*
X139394694Y-89312287D02*
G01*
X139431206Y-89405950D01*
X139393106Y-89498025D01*
X139297063Y-89540094D01*
X139198638Y-89498819D01*
X139158156Y-89405950D01*
X139196256Y-89311494D01*
X139296269Y-89268631D01*
X139394694Y-89312287D01*
G37*
G36*
X142351950Y-88526325D02*
G01*
X142439610Y-88539328D01*
X142525572Y-88560861D01*
X142609010Y-88590716D01*
X142689121Y-88628605D01*
X142765131Y-88674164D01*
X142836310Y-88726954D01*
X142901972Y-88786466D01*
X142961485Y-88852128D01*
X143014275Y-88923307D01*
X143059834Y-88999318D01*
X143097723Y-89079428D01*
X143127578Y-89162866D01*
X143149110Y-89248829D01*
X143162113Y-89336488D01*
X143166461Y-89425000D01*
X143162113Y-89513512D01*
X143149110Y-89601171D01*
X143127578Y-89687134D01*
X143097723Y-89770572D01*
X143059834Y-89850682D01*
X143014275Y-89926693D01*
X142961485Y-89997872D01*
X142901972Y-90063534D01*
X142836310Y-90123046D01*
X142765131Y-90175836D01*
X142689121Y-90221395D01*
X142609010Y-90259284D01*
X142525572Y-90289139D01*
X142439610Y-90310672D01*
X142351950Y-90323675D01*
X142263439Y-90328023D01*
X142263306Y-90328023D01*
X142122019Y-90328023D01*
X141194919Y-90328023D01*
X140513881Y-90328023D01*
X139299444Y-90328023D01*
X138886694Y-90328023D01*
X138886561Y-90328023D01*
X138798050Y-90323675D01*
X138710390Y-90310672D01*
X138624428Y-90289139D01*
X138540990Y-90259284D01*
X138460879Y-90221395D01*
X138384869Y-90175836D01*
X138313690Y-90123046D01*
X138248028Y-90063534D01*
X138188515Y-89997872D01*
X138135725Y-89926693D01*
X138090166Y-89850682D01*
X138052277Y-89770572D01*
X138022422Y-89687134D01*
X138000890Y-89601171D01*
X137987887Y-89513512D01*
X137983539Y-89425000D01*
X137984514Y-89405156D01*
X138886694Y-89405156D01*
X138899482Y-89508608D01*
X138937847Y-89603065D01*
X139001788Y-89688525D01*
X139080369Y-89755994D01*
X139162654Y-89796475D01*
X139248644Y-89809969D01*
X139362547Y-89790125D01*
X139440731Y-89730594D01*
X139440731Y-89778219D01*
X139402631Y-89892519D01*
X139304206Y-89940144D01*
X139218481Y-89925459D01*
X139139106Y-89881406D01*
X139093069Y-89862356D01*
X139054175Y-89875056D01*
X139007344Y-89921094D01*
X138959719Y-90030631D01*
X138987103Y-90081034D01*
X139069256Y-90136994D01*
X139181572Y-90181047D01*
X139299444Y-90195731D01*
X139401749Y-90183296D01*
X139496999Y-90145990D01*
X139585194Y-90083813D01*
X139655749Y-90001351D01*
X139698083Y-89903190D01*
X139712194Y-89789331D01*
X139712194Y-89370231D01*
X139799506Y-89370231D01*
X139807444Y-89438494D01*
X139850703Y-89483737D01*
X139939206Y-89498819D01*
X140369419Y-89498819D01*
X140369419Y-89692494D01*
X140378944Y-89775044D01*
X140399581Y-89806794D01*
X140440856Y-89825844D01*
X140513881Y-89833781D01*
X140590875Y-89824256D01*
X140636913Y-89785363D01*
X140651994Y-89694081D01*
X140651994Y-89489294D01*
X140755181Y-89489294D01*
X140772644Y-89575019D01*
X140775819Y-89590894D01*
X140793281Y-89632169D01*
X140832572Y-89695272D01*
X140877419Y-89744881D01*
X140969141Y-89806617D01*
X141074974Y-89843659D01*
X141194919Y-89856006D01*
X141315745Y-89843747D01*
X141422108Y-89806970D01*
X141514006Y-89745675D01*
X141584562Y-89665506D01*
X141626895Y-89572108D01*
X141641006Y-89465481D01*
X141627909Y-89384519D01*
X141588619Y-89313081D01*
X141538613Y-89261488D01*
X141491781Y-89227356D01*
X141491781Y-89216244D01*
X141560573Y-89166414D01*
X141601848Y-89099474D01*
X141611059Y-89043206D01*
X141704506Y-89043206D01*
X141754513Y-89141631D01*
X141850556Y-89197194D01*
X141961681Y-89147981D01*
X141982319Y-89128931D01*
X141982319Y-89695669D01*
X141984700Y-89753613D01*
X141999781Y-89797269D01*
X142042247Y-89828225D01*
X142122019Y-89838544D01*
X142203775Y-89827828D01*
X142245844Y-89795681D01*
X142260925Y-89753613D01*
X142263306Y-89698844D01*
X142263306Y-88814606D01*
X142255369Y-88730469D01*
X142233144Y-88696338D01*
X142191869Y-88678081D01*
X142116463Y-88670144D01*
X142026769Y-88711419D01*
X142022006Y-88714594D01*
X141761656Y-88949544D01*
X141704506Y-89043206D01*
X141611059Y-89043206D01*
X141615606Y-89015425D01*
X141603083Y-88925908D01*
X141565512Y-88842564D01*
X141502894Y-88765394D01*
X141418580Y-88703658D01*
X141315922Y-88666616D01*
X141194919Y-88654269D01*
X141116139Y-88659825D01*
X141044900Y-88676494D01*
X140940125Y-88725706D01*
X140874244Y-88788412D01*
X140839319Y-88838419D01*
X140802806Y-88946369D01*
X140822650Y-89003122D01*
X140882181Y-89052731D01*
X140969494Y-89081306D01*
X141029819Y-89061463D01*
X141074269Y-89001931D01*
X141083794Y-88982881D01*
X141125069Y-88944781D01*
X141214763Y-88925731D01*
X141302869Y-88955894D01*
X141334619Y-89019394D01*
X141304456Y-89065828D01*
X141213969Y-89081306D01*
X141131419Y-89089244D01*
X141087366Y-89132503D01*
X141072681Y-89221006D01*
X141083397Y-89302366D01*
X141115544Y-89343244D01*
X141156819Y-89359119D01*
X141229050Y-89362294D01*
X141321125Y-89394838D01*
X141360019Y-89470244D01*
X141320331Y-89547237D01*
X141269531Y-89572836D01*
X141196506Y-89581369D01*
X141129831Y-89571844D01*
X141042519Y-89495644D01*
X140994894Y-89413094D01*
X140910756Y-89397219D01*
X140794075Y-89420237D01*
X140755181Y-89489294D01*
X140651994Y-89489294D01*
X140651994Y-88811431D01*
X140649613Y-88755869D01*
X140634531Y-88713800D01*
X140591669Y-88680462D01*
X140511500Y-88670144D01*
X140430538Y-88678875D01*
X140386881Y-88709831D01*
X140371800Y-88749519D01*
X140369419Y-88803494D01*
X140369419Y-89236881D01*
X140110656Y-89236881D01*
X140207494Y-88849531D01*
X140209081Y-88844769D01*
X140220194Y-88778094D01*
X140192413Y-88716975D01*
X140109069Y-88676494D01*
X140036044Y-88665381D01*
X139981275Y-88682844D01*
X139952700Y-88719356D01*
X139936031Y-88774919D01*
X139804269Y-89306731D01*
X139799506Y-89370231D01*
X139712194Y-89370231D01*
X139712194Y-89132106D01*
X139709813Y-89078131D01*
X139695525Y-89037650D01*
X139655044Y-89005106D01*
X139564556Y-88995581D01*
X139474863Y-89018600D01*
X139442319Y-89086069D01*
X139416125Y-89055113D01*
X139355006Y-89018600D01*
X139256581Y-88998756D01*
X139166976Y-89012338D01*
X139082309Y-89053084D01*
X139002581Y-89120994D01*
X138938199Y-89206895D01*
X138899570Y-89301616D01*
X138886694Y-89405156D01*
X137984514Y-89405156D01*
X137987887Y-89336488D01*
X138000890Y-89248829D01*
X138022422Y-89162866D01*
X138052277Y-89079428D01*
X138090166Y-88999318D01*
X138135725Y-88923307D01*
X138188515Y-88852128D01*
X138248028Y-88786466D01*
X138313690Y-88726954D01*
X138384869Y-88674164D01*
X138460879Y-88628605D01*
X138540990Y-88590716D01*
X138624428Y-88560861D01*
X138710390Y-88539328D01*
X138798050Y-88526325D01*
X138886561Y-88521977D01*
X138886694Y-88521977D01*
X142263306Y-88521977D01*
X142263439Y-88521977D01*
X142351950Y-88526325D01*
G37*
D12*
%TO.C,U702*%
X152940000Y-79885000D02*
X151280000Y-79885000D01*
X152940000Y-79245000D02*
X152940000Y-79885000D01*
X152940000Y-76835000D02*
X152940000Y-76195000D01*
X152940000Y-76195000D02*
X151280000Y-76195000D01*
X149890000Y-79885000D02*
X149250000Y-79885000D01*
X149250000Y-79885000D02*
X149250000Y-79115000D01*
X149250000Y-76835000D02*
X149250000Y-76195000D01*
X149250000Y-76195000D02*
X149890000Y-76195000D01*
X153620000Y-79625000D02*
G75*
G03*
X153620000Y-79625000I-180000J0D01*
G01*
D11*
%TO.C,C702*%
X150207836Y-80860000D02*
X149992164Y-80860000D01*
X150207836Y-80140000D02*
X149992164Y-80140000D01*
%TO.C,C105*%
X154936252Y-75535000D02*
X154413748Y-75535000D01*
X154936252Y-74065000D02*
X154413748Y-74065000D01*
%TO.C,R505*%
X155996359Y-79595000D02*
X156303641Y-79595000D01*
X155996359Y-80355000D02*
X156303641Y-80355000D01*
%TO.C,C303*%
X136836104Y-79745221D02*
X136683601Y-79592718D01*
X137345221Y-79236104D02*
X137192718Y-79083601D01*
%TO.C,Y301*%
X134404163Y-79651371D02*
X132070710Y-77317918D01*
X132070710Y-77317918D02*
X129242283Y-80146345D01*
%TO.C,D602*%
X161060000Y-92750000D02*
X161060000Y-91050000D01*
X161060000Y-92750000D02*
X158400000Y-92750000D01*
X161060000Y-91050000D02*
X158400000Y-91050000D01*
%TO.C,J101*%
X156375000Y-104450000D02*
X156375000Y-103200000D01*
X156085000Y-104160000D02*
X156085000Y-98190000D01*
X156085000Y-98190000D02*
X143465000Y-98190000D01*
X156075000Y-104150000D02*
X156075000Y-103400000D01*
X156075000Y-103400000D02*
X154275000Y-103400000D01*
X156075000Y-101900000D02*
X155325000Y-101900000D01*
X155325000Y-101900000D02*
X155325000Y-98950000D01*
X155325000Y-98950000D02*
X149775000Y-98950000D01*
X155125000Y-104450000D02*
X156375000Y-104450000D01*
X154275000Y-104150000D02*
X156075000Y-104150000D01*
X154275000Y-103400000D02*
X154275000Y-104150000D01*
X152775000Y-104150000D02*
X152775000Y-103400000D01*
X152775000Y-103400000D02*
X146775000Y-103400000D01*
X146775000Y-104150000D02*
X152775000Y-104150000D01*
X146775000Y-103400000D02*
X146775000Y-104150000D01*
X145275000Y-104150000D02*
X145275000Y-103400000D01*
X145275000Y-103400000D02*
X143475000Y-103400000D01*
X144225000Y-101900000D02*
X144225000Y-98950000D01*
X144225000Y-98950000D02*
X149775000Y-98950000D01*
X143475000Y-104150000D02*
X145275000Y-104150000D01*
X143475000Y-103400000D02*
X143475000Y-104150000D01*
X143475000Y-101900000D02*
X144225000Y-101900000D01*
X143465000Y-104160000D02*
X156085000Y-104160000D01*
X143465000Y-98190000D02*
X143465000Y-104160000D01*
%TO.C,kibuzzard-652C580D*%
G36*
X143991750Y-82434938D02*
G01*
X144027469Y-82516694D01*
X143992544Y-82598450D01*
X143887769Y-82636550D01*
X143781406Y-82598450D01*
X143744894Y-82515900D01*
X143781406Y-82434144D01*
X143886975Y-82396838D01*
X143991750Y-82434938D01*
G37*
G36*
X143965556Y-81992819D02*
G01*
X143992544Y-82052350D01*
X143966350Y-82112675D01*
X143888562Y-82141250D01*
X143809187Y-82112675D01*
X143781406Y-82051556D01*
X143806806Y-81992025D01*
X143885387Y-81965038D01*
X143965556Y-81992819D01*
G37*
G36*
X143078937Y-82468275D02*
G01*
X143106719Y-82536538D01*
X143076159Y-82616309D01*
X142984481Y-82642900D01*
X142882881Y-82606388D01*
X142867800Y-82571463D01*
X142863831Y-82525425D01*
X142896375Y-82465894D01*
X142990037Y-82436525D01*
X143078937Y-82468275D01*
G37*
G36*
X146187415Y-81566420D02*
G01*
X146258970Y-81577035D01*
X146329141Y-81594611D01*
X146397251Y-81618981D01*
X146462644Y-81649910D01*
X146524691Y-81687099D01*
X146582793Y-81730191D01*
X146636393Y-81778771D01*
X146684972Y-81832370D01*
X146728064Y-81890473D01*
X146765253Y-81952520D01*
X146796182Y-82017913D01*
X146820552Y-82086023D01*
X146838129Y-82156193D01*
X146848743Y-82227749D01*
X146852293Y-82300000D01*
X146848743Y-82372251D01*
X146838129Y-82443807D01*
X146820552Y-82513977D01*
X146796182Y-82582087D01*
X146765253Y-82647480D01*
X146728064Y-82709527D01*
X146684972Y-82767630D01*
X146636393Y-82821229D01*
X146582793Y-82869809D01*
X146524691Y-82912901D01*
X146462644Y-82950090D01*
X146397251Y-82981019D01*
X146329141Y-83005389D01*
X146258970Y-83022965D01*
X146187415Y-83033580D01*
X146115164Y-83037129D01*
X146115031Y-83037129D01*
X145716569Y-83037129D01*
X144827569Y-83037129D01*
X143886181Y-83037129D01*
X142990831Y-83037129D01*
X142328844Y-83037129D01*
X141619231Y-83037129D01*
X140534969Y-83037129D01*
X140534836Y-83037129D01*
X140462585Y-83033580D01*
X140391030Y-83022965D01*
X140320859Y-83005389D01*
X140252749Y-82981019D01*
X140187356Y-82950090D01*
X140125309Y-82912901D01*
X140067207Y-82869809D01*
X140013607Y-82821229D01*
X139965028Y-82767630D01*
X139946697Y-82742913D01*
X140534969Y-82742913D01*
X140537350Y-82798475D01*
X140550844Y-82839750D01*
X140592516Y-82871897D01*
X140673081Y-82882613D01*
X140754044Y-82872294D01*
X140796906Y-82841338D01*
X140811987Y-82799269D01*
X140814369Y-82744500D01*
X140814369Y-82463513D01*
X140838181Y-82359928D01*
X140909619Y-82325400D01*
X140983437Y-82359928D01*
X141008044Y-82463513D01*
X141008044Y-82741325D01*
X141010425Y-82796094D01*
X141023919Y-82838163D01*
X141065591Y-82871500D01*
X141146156Y-82882613D01*
X141227912Y-82871897D01*
X141269981Y-82839750D01*
X141285062Y-82798475D01*
X141287444Y-82742913D01*
X141287444Y-82465100D01*
X141307287Y-82361913D01*
X141382694Y-82325400D01*
X141456512Y-82359928D01*
X141481119Y-82463513D01*
X141481119Y-82741325D01*
X141483500Y-82796094D01*
X141496994Y-82838163D01*
X141538666Y-82871500D01*
X141619231Y-82882613D01*
X141700591Y-82871897D01*
X141741469Y-82839750D01*
X141756550Y-82797681D01*
X141758931Y-82742913D01*
X141758931Y-82465100D01*
X141749406Y-82329016D01*
X141720831Y-82221331D01*
X141711825Y-82206338D01*
X141846244Y-82206338D01*
X141869262Y-82298413D01*
X141927206Y-82325400D01*
X141992294Y-82320638D01*
X141992294Y-82555588D01*
X142001819Y-82662656D01*
X142030394Y-82746793D01*
X142078019Y-82808000D01*
X142143988Y-82849451D01*
X142227597Y-82874322D01*
X142328844Y-82882613D01*
X142382025Y-82880231D01*
X142424094Y-82866738D01*
X142457431Y-82825066D01*
X142468544Y-82744500D01*
X142432031Y-82638138D01*
X142389962Y-82623056D01*
X142332812Y-82620675D01*
X142282012Y-82601625D01*
X142268519Y-82539713D01*
X142268519Y-82428588D01*
X142574906Y-82428588D01*
X142586548Y-82559733D01*
X142621473Y-82673768D01*
X142679681Y-82770694D01*
X142760820Y-82844336D01*
X142864537Y-82888522D01*
X142990831Y-82903250D01*
X143094460Y-82891256D01*
X143187328Y-82855272D01*
X143269437Y-82795300D01*
X143333378Y-82717513D01*
X143371743Y-82628083D01*
X143384531Y-82527013D01*
X143381942Y-82509550D01*
X143463906Y-82509550D01*
X143478282Y-82621204D01*
X143521409Y-82716983D01*
X143593287Y-82796888D01*
X143683334Y-82856860D01*
X143780965Y-82892843D01*
X143886181Y-82904838D01*
X143991397Y-82892755D01*
X144089028Y-82856507D01*
X144179075Y-82796094D01*
X144250953Y-82715925D01*
X144294081Y-82620410D01*
X144304957Y-82536538D01*
X144387831Y-82536538D01*
X144405294Y-82622263D01*
X144408469Y-82638138D01*
X144425931Y-82679413D01*
X144465222Y-82742516D01*
X144510069Y-82792125D01*
X144601791Y-82853861D01*
X144707624Y-82890903D01*
X144827569Y-82903250D01*
X144948395Y-82890991D01*
X145054758Y-82854214D01*
X145146656Y-82792919D01*
X145217212Y-82712750D01*
X145225846Y-82693700D01*
X145337156Y-82693700D01*
X145397481Y-82788950D01*
X145410181Y-82800063D01*
X145449869Y-82830225D01*
X145532419Y-82871676D01*
X145621319Y-82896547D01*
X145716569Y-82904838D01*
X145823637Y-82891697D01*
X145918358Y-82852274D01*
X146000731Y-82786569D01*
X146064231Y-82702608D01*
X146102331Y-82608416D01*
X146115031Y-82503994D01*
X146101626Y-82400101D01*
X146061409Y-82307497D01*
X145994381Y-82226181D01*
X145910597Y-82163122D01*
X145820109Y-82125287D01*
X145722919Y-82112675D01*
X145667356Y-82115850D01*
X145683231Y-81995200D01*
X145961044Y-81995200D01*
X146012637Y-81992819D01*
X146051531Y-81977738D01*
X146081297Y-81938447D01*
X146091219Y-81861850D01*
X146080503Y-81777713D01*
X146048356Y-81734850D01*
X146007081Y-81719769D01*
X145951519Y-81717388D01*
X145802294Y-81717388D01*
X145560994Y-81715800D01*
X145496700Y-81730881D01*
X145455425Y-81765012D01*
X145432406Y-81807875D01*
X145421294Y-81841213D01*
X145412166Y-81907094D01*
X145387956Y-82085688D01*
X145364144Y-82267059D01*
X145356206Y-82341275D01*
X145373669Y-82380169D01*
X145447488Y-82428588D01*
X145547500Y-82458750D01*
X145634019Y-82422238D01*
X145710219Y-82393663D01*
X145795150Y-82424619D01*
X145832456Y-82508756D01*
X145798325Y-82592100D01*
X145693550Y-82622263D01*
X145594331Y-82588925D01*
X145487969Y-82538125D01*
X145395894Y-82590513D01*
X145337156Y-82693700D01*
X145225846Y-82693700D01*
X145259545Y-82619352D01*
X145273656Y-82512725D01*
X145260559Y-82431763D01*
X145221269Y-82360325D01*
X145171263Y-82308731D01*
X145124431Y-82274600D01*
X145124431Y-82263488D01*
X145193223Y-82213658D01*
X145234498Y-82146718D01*
X145248256Y-82062669D01*
X145235733Y-81973151D01*
X145198162Y-81889808D01*
X145135544Y-81812637D01*
X145051230Y-81750901D01*
X144948572Y-81713860D01*
X144827569Y-81701512D01*
X144748789Y-81707069D01*
X144677550Y-81723738D01*
X144572775Y-81772950D01*
X144506894Y-81835656D01*
X144471969Y-81885663D01*
X144435456Y-81993613D01*
X144455300Y-82050366D01*
X144514831Y-82099975D01*
X144602144Y-82128550D01*
X144662469Y-82108706D01*
X144706919Y-82049175D01*
X144716444Y-82030125D01*
X144757719Y-81992025D01*
X144847413Y-81972975D01*
X144935519Y-82003137D01*
X144967269Y-82066638D01*
X144937106Y-82113072D01*
X144846619Y-82128550D01*
X144764069Y-82136488D01*
X144720016Y-82179747D01*
X144705331Y-82268250D01*
X144716047Y-82349609D01*
X144748194Y-82390488D01*
X144789469Y-82406363D01*
X144861700Y-82409538D01*
X144953775Y-82442081D01*
X144992669Y-82517488D01*
X144952981Y-82594481D01*
X144902181Y-82620080D01*
X144829156Y-82628613D01*
X144762481Y-82619087D01*
X144675169Y-82542888D01*
X144627544Y-82460338D01*
X144543406Y-82444462D01*
X144426725Y-82467481D01*
X144387831Y-82536538D01*
X144304957Y-82536538D01*
X144308456Y-82509550D01*
X144299527Y-82443272D01*
X144272737Y-82377788D01*
X144215587Y-82291269D01*
X144179869Y-82258725D01*
X144203681Y-82233325D01*
X144250512Y-82158713D01*
X144273531Y-82061875D01*
X144260831Y-81961333D01*
X144222731Y-81873492D01*
X144159231Y-81798350D01*
X144078445Y-81741024D01*
X143988487Y-81706628D01*
X143889356Y-81695162D01*
X143789873Y-81706451D01*
X143698856Y-81740318D01*
X143616306Y-81796763D01*
X143551042Y-81870493D01*
X143511884Y-81956218D01*
X143498831Y-82053938D01*
X143525025Y-82164269D01*
X143567094Y-82233325D01*
X143594081Y-82258725D01*
X143560744Y-82288888D01*
X143496450Y-82380169D01*
X143472042Y-82443867D01*
X143463906Y-82509550D01*
X143381942Y-82509550D01*
X143372096Y-82443140D01*
X143334790Y-82365088D01*
X143272612Y-82292856D01*
X143192973Y-82235089D01*
X143103279Y-82200428D01*
X143003531Y-82188875D01*
X142886056Y-82215863D01*
X142893994Y-82193638D01*
X142923362Y-82138075D01*
X142979719Y-82076163D01*
X143075762Y-82022188D01*
X143201969Y-81999963D01*
X143294044Y-81990438D01*
X143325794Y-81969800D01*
X143344844Y-81928525D01*
X143352781Y-81855500D01*
X143343256Y-81779300D01*
X143305950Y-81734056D01*
X143217844Y-81718975D01*
X143103512Y-81727103D01*
X142999277Y-81751487D01*
X142905138Y-81792127D01*
X142821096Y-81849023D01*
X142747150Y-81922175D01*
X142685142Y-82007456D01*
X142636914Y-82100737D01*
X142602465Y-82202019D01*
X142581796Y-82311303D01*
X142574906Y-82428588D01*
X142268519Y-82428588D01*
X142268519Y-82320638D01*
X142371706Y-82326988D01*
X142426475Y-82324606D01*
X142468544Y-82311113D01*
X142500691Y-82269441D01*
X142511406Y-82188875D01*
X142501087Y-82107516D01*
X142470131Y-82066638D01*
X142428062Y-82051556D01*
X142374087Y-82049175D01*
X142268519Y-82055525D01*
X142268519Y-81899950D01*
X142260581Y-81818987D01*
X142218116Y-81774934D01*
X142131994Y-81760250D01*
X142050634Y-81770172D01*
X142009756Y-81799937D01*
X141994675Y-81838038D01*
X141992294Y-81892013D01*
X141992294Y-82055525D01*
X141939906Y-82049175D01*
X141876406Y-82069813D01*
X141854181Y-82111881D01*
X141846244Y-82206338D01*
X141711825Y-82206338D01*
X141673206Y-82142044D01*
X141577162Y-82068820D01*
X141460481Y-82044413D01*
X141349356Y-82075369D01*
X141270775Y-82132519D01*
X141228706Y-82182525D01*
X141166617Y-82105796D01*
X141086184Y-82059758D01*
X140987406Y-82044413D01*
X140890172Y-82072591D01*
X140808019Y-82157125D01*
X140781031Y-82074575D01*
X140665144Y-82046000D01*
X140592516Y-82056716D01*
X140552431Y-82088863D01*
X140537350Y-82129344D01*
X140534969Y-82184113D01*
X140534969Y-82742913D01*
X139946697Y-82742913D01*
X139921936Y-82709527D01*
X139884747Y-82647480D01*
X139853818Y-82582087D01*
X139829448Y-82513977D01*
X139811871Y-82443807D01*
X139801257Y-82372251D01*
X139797707Y-82300000D01*
X139801257Y-82227749D01*
X139811871Y-82156193D01*
X139829448Y-82086023D01*
X139853818Y-82017913D01*
X139884747Y-81952520D01*
X139921936Y-81890473D01*
X139965028Y-81832370D01*
X140013607Y-81778771D01*
X140067207Y-81730191D01*
X140125309Y-81687099D01*
X140187356Y-81649910D01*
X140252749Y-81618981D01*
X140320859Y-81594611D01*
X140391030Y-81577035D01*
X140462585Y-81566420D01*
X140534836Y-81562871D01*
X140534969Y-81562871D01*
X146115031Y-81562871D01*
X146115164Y-81562871D01*
X146187415Y-81566420D01*
G37*
D10*
%TO.C,U401*%
X143475000Y-90350000D02*
X143475000Y-84725000D01*
X149025000Y-89225000D02*
X149025000Y-84725000D01*
D11*
%TO.C,C108*%
X152586252Y-95385000D02*
X152063748Y-95385000D01*
X152586252Y-93915000D02*
X152063748Y-93915000D01*
%TO.C,C502*%
X158160000Y-94752164D02*
X158160000Y-94967836D01*
X157440000Y-94752164D02*
X157440000Y-94967836D01*
%TO.C,D603*%
X157840000Y-89050000D02*
X157840000Y-90750000D01*
X157840000Y-89050000D02*
X160500000Y-89050000D01*
X157840000Y-90750000D02*
X160500000Y-90750000D01*
%TO.C,C501*%
X152586252Y-97460000D02*
X152063748Y-97460000D01*
X152586252Y-95990000D02*
X152063748Y-95990000D01*
%TO.C,JP101*%
X150000000Y-91575000D02*
X150000000Y-90975000D01*
X150700000Y-90275000D02*
X152100000Y-90275000D01*
X152100000Y-92275000D02*
X150700000Y-92275000D01*
X152800000Y-90975000D02*
X152800000Y-91575000D01*
X150700000Y-90275000D02*
G75*
G03*
X150000000Y-90975000I-1J-699999D01*
G01*
X150000000Y-91575000D02*
G75*
G03*
X150700000Y-92275000I699999J-1D01*
G01*
X152800000Y-90975000D02*
G75*
G03*
X152100000Y-90275000I-700000J0D01*
G01*
X152100000Y-92275000D02*
G75*
G03*
X152800000Y-91575000I0J700000D01*
G01*
%TO.C,R306*%
X135297659Y-78539940D02*
X135514940Y-78322659D01*
X135835060Y-79077341D02*
X136052341Y-78860060D01*
%TO.C,R104*%
X150870000Y-89178641D02*
X150870000Y-88871359D01*
X151630000Y-89178641D02*
X151630000Y-88871359D01*
%TO.C,R504*%
X161277500Y-79287258D02*
X161277500Y-78812742D01*
X162322500Y-79287258D02*
X162322500Y-78812742D01*
%TO.C,C306*%
X130321693Y-82655810D02*
X130169190Y-82503307D01*
X130830810Y-82146693D02*
X130678307Y-81994190D01*
%TO.C,C107*%
X154936252Y-73485000D02*
X154413748Y-73485000D01*
X154936252Y-72015000D02*
X154413748Y-72015000D01*
D12*
%TO.C,U701*%
X142990000Y-79835000D02*
X141330000Y-79835000D01*
X142990000Y-79195000D02*
X142990000Y-79835000D01*
X142990000Y-76785000D02*
X142990000Y-76145000D01*
X142990000Y-76145000D02*
X141330000Y-76145000D01*
X139940000Y-79835000D02*
X139300000Y-79835000D01*
X139300000Y-79835000D02*
X139300000Y-79065000D01*
X139300000Y-76785000D02*
X139300000Y-76145000D01*
X139300000Y-76145000D02*
X139940000Y-76145000D01*
X143670000Y-79575000D02*
G75*
G03*
X143670000Y-79575000I-180000J0D01*
G01*
%TD*%
M02*
