M48
; DRILL file {KiCad 7.0.8} date 2023 October 19, Thursday 21:40:56
; FORMAT={-:-/ absolute / inch / decimal}
; #@! TF.CreationDate,2023-10-19T21:40:56-04:00
; #@! TF.GenerationSoftware,Kicad,Pcbnew,7.0.8
; #@! TF.FileFunction,Plated,1,4,PTH
FMAT,2
INCH
; #@! TA.AperFunction,Plated,PTH,ViaDrill
T1C0.0079
; #@! TA.AperFunction,Plated,PTH,ComponentDrill
T2C0.0118
; #@! TA.AperFunction,Plated,PTH,ViaDrill
T3C0.0157
; #@! TA.AperFunction,Plated,PTH,ComponentDrill
T4C0.0276
; #@! TA.AperFunction,Plated,PTH,ComponentDrill
T5C0.0354
; #@! TA.AperFunction,Plated,PTH,ComponentDrill
T6C0.0374
; #@! TA.AperFunction,Plated,PTH,ComponentDrill
T7C0.0413
; #@! TA.AperFunction,Plated,PTH,ComponentDrill
T8C0.1220
%
G90
G05
T1
X5.1201Y-3.3258
X5.1358Y-3.4065
X5.1467Y-3.4478
X5.1644Y-3.4075
X5.1663Y-3.2904
X5.1805Y-3.4386
X5.1811Y-3.4626
X5.187Y-3.2707
X5.1998Y-3.4311
X5.2018Y-3.2549
X5.2628Y-3.0517
X5.3799Y-3.7726
X5.4104Y-3.5325
X5.4134Y-3.8041
X5.4173Y-3.1663
X5.435Y-3.1821
X5.4537Y-3.5148
X5.4557Y-3.2146
X5.4665Y-3.497
X5.4809Y-3.4635
X5.4871Y-3.495
X5.498Y-3.4519
X5.5108Y-3.125
X5.5187Y-3.2766
X5.5354Y-3.2146
X5.5433Y-3.2766
X5.6339Y-3.6969
X5.6939Y-3.127
X5.7215Y-3.5965
X5.75Y-3.5955
X5.7785Y-3.5965
X5.8051Y-3.5965
X5.811Y-3.2224
X5.811Y-3.2677
X5.8327Y-3.5965
X5.874Y-3.5817
X5.8947Y-3.5817
X5.9026Y-3.127
X5.9262Y-3.2766
X5.9429Y-3.2608
X5.9616Y-3.2441
X5.9766Y-3.2256
X6.1201Y-3.4469
X6.1487Y-3.4128
X6.1654Y-3.4006
X6.1732Y-3.4213
T2
X5.6142Y-2.7638
X5.7126Y-2.7638
X5.811Y-2.7638
X5.9094Y-2.7638
T3
X5.1457Y-3.1506
X5.1575Y-3.7382
X5.1581Y-3.5289
X5.2028Y-3.7067
X5.2392Y-3.1309
X5.2973Y-3.5508
X5.3012Y-3.3465
X5.3179Y-3.8127
X5.3514Y-3.3002
X5.3514Y-3.3474
X5.3514Y-3.3976
X5.3631Y-3.8581
X5.3789Y-3.064
X5.4006Y-3.3465
X5.4301Y-3.7018
X5.4596Y-3.0778
X5.4715Y-2.9429
X5.4724Y-2.7835
X5.4724Y-2.8642
X5.4733Y-3.7624
X5.5138Y-4.0787
X5.5453Y-3.0876
X5.5474Y-3.6752
X5.5482Y-3.4636
X5.5728Y-3.5059
X5.5738Y-3.7746
X5.6529Y-3.0797
X5.6654Y-4.0748
X5.6663Y-3.999
X5.6732Y-3.8652
X5.6929Y-3.9026
X5.7156Y-3.8652
X5.7303Y-3.0896
X5.7352Y-3.9026
X5.748Y-3.7667
X5.7569Y-3.6644
X5.7598Y-3.8652
X5.7795Y-3.9026
X5.8209Y-3.6358
X5.8494Y-3.2716
X5.8494Y-3.3592
X5.8514Y-3.8907
X5.8592Y-3.0797
X5.8967Y-3.8533
X5.8967Y-3.8898
X5.9134Y-3.3986
X5.9281Y-3.3159
X5.937Y-3.0886
X5.939Y-3.4242
X5.9744Y-3.4173
X5.9951Y-3.4981
X6.0138Y-3.1457
X6.0207Y-3.314
X6.0522Y-2.7844
X6.0522Y-2.9439
X6.0531Y-2.8622
X6.062Y-3.3159
X6.062Y-3.3563
X6.063Y-3.2756
X6.064Y-3.5876
X6.1014Y-3.3169
X6.1152Y-3.5965
X6.1171Y-3.4902
X6.126Y-3.6693
X6.1476Y-3.6211
X6.1516Y-3.5807
X6.2963Y-3.1644
X6.2972Y-3.2126
X6.2972Y-3.2598
X6.2972Y-3.3051
X6.2972Y-3.3504
X6.3455Y-3.689
X6.3455Y-3.7244
X6.3455Y-3.7579
X6.373Y-3.439
X6.374Y-3.3898
X6.375Y-3.2362
X6.376Y-3.2825
X6.3829Y-3.5531
X6.3839Y-3.626
X6.3937Y-3.7569
X6.3947Y-3.689
X6.3947Y-3.7234
T4
X5.2917Y-3.684
T5
X5.2694Y-3.7815
X5.3891Y-3.6617
X5.403Y-3.9151
X5.5227Y-3.7954
T6
X5.749Y-4.0039
X5.8474Y-4.0039
X5.9459Y-4.0039
X6.0443Y-4.0039
T7
X5.6142Y-2.9459
X5.7126Y-2.9459
X5.811Y-2.9459
X5.9094Y-2.9459
T8
X5.248Y-2.9124
X5.248Y-3.936
X6.2717Y-2.9124
X6.2717Y-3.936
T6
G00X5.6083Y-2.8376
M15
G01X5.6201Y-2.8376
M16
G05
G00X5.7067Y-2.8376
M15
G01X5.7185Y-2.8376
M16
G05
G00X5.8051Y-2.8376
M15
G01X5.8169Y-2.8376
M16
G05
G00X5.9035Y-2.8376
M15
G01X5.9154Y-2.8376
M16
G05
T0
M30
