%TF.GenerationSoftware,KiCad,Pcbnew,7.0.8*%
%TF.CreationDate,2023-10-18T19:22:30-04:00*%
%TF.ProjectId,lemon-pepper,6c656d6f-6e2d-4706-9570-7065722e6b69,rev?*%
%TF.SameCoordinates,Original*%
%TF.FileFunction,Copper,L4,Bot*%
%TF.FilePolarity,Positive*%
%FSLAX46Y46*%
G04 Gerber Fmt 4.6, Leading zero omitted, Abs format (unit mm)*
G04 Created by KiCad (PCBNEW 7.0.8) date 2023-10-18 19:22:30*
%MOMM*%
%LPD*%
G01*
G04 APERTURE LIST*
G04 Aperture macros list*
%AMRoundRect*
0 Rectangle with rounded corners*
0 $1 Rounding radius*
0 $2 $3 $4 $5 $6 $7 $8 $9 X,Y pos of 4 corners*
0 Add a 4 corners polygon primitive as box body*
4,1,4,$2,$3,$4,$5,$6,$7,$8,$9,$2,$3,0*
0 Add four circle primitives for the rounded corners*
1,1,$1+$1,$2,$3*
1,1,$1+$1,$4,$5*
1,1,$1+$1,$6,$7*
1,1,$1+$1,$8,$9*
0 Add four rect primitives between the rounded corners*
20,1,$1+$1,$2,$3,$4,$5,0*
20,1,$1+$1,$4,$5,$6,$7,0*
20,1,$1+$1,$6,$7,$8,$9,0*
20,1,$1+$1,$8,$9,$2,$3,0*%
G04 Aperture macros list end*
%TA.AperFunction,ComponentPad*%
%ADD10C,0.700000*%
%TD*%
%TA.AperFunction,ComponentPad*%
%ADD11C,1.300000*%
%TD*%
%TA.AperFunction,HeatsinkPad*%
%ADD12C,0.500000*%
%TD*%
%TA.AperFunction,ComponentPad*%
%ADD13O,1.750000X1.750000*%
%TD*%
%TA.AperFunction,ComponentPad*%
%ADD14O,1.750000X2.000000*%
%TD*%
%TA.AperFunction,ComponentPad*%
%ADD15C,5.800000*%
%TD*%
%TA.AperFunction,ComponentPad*%
%ADD16RoundRect,0.250000X0.600000X0.725000X-0.600000X0.725000X-0.600000X-0.725000X0.600000X-0.725000X0*%
%TD*%
%TA.AperFunction,ComponentPad*%
%ADD17O,1.700000X1.950000*%
%TD*%
%TA.AperFunction,ViaPad*%
%ADD18C,0.800000*%
%TD*%
%TA.AperFunction,ViaPad*%
%ADD19C,0.300000*%
%TD*%
%TA.AperFunction,ViaPad*%
%ADD20C,0.350000*%
%TD*%
%TA.AperFunction,Conductor*%
%ADD21C,0.100000*%
%TD*%
%TA.AperFunction,Conductor*%
%ADD22C,0.200000*%
%TD*%
G04 APERTURE END LIST*
D10*
%TO.P,J201,*%
%TO.N,*%
X134408634Y-93573979D03*
D11*
%TO.P,J201,S1,SHIELD*%
%TO.N,GND*%
X136883507Y-93008293D03*
X133842948Y-96048852D03*
X140277620Y-96402406D03*
X137237061Y-99442965D03*
%TD*%
D12*
%TO.P,M101,1*%
%TO.N,/current sense/U_OUT*%
X142600000Y-70200000D03*
D13*
X142600000Y-72075000D03*
D14*
X142600000Y-74825000D03*
D12*
%TO.P,M101,2,-*%
%TO.N,/current sense/W_OUT*%
X145100000Y-70200000D03*
D13*
X145100000Y-72075000D03*
D14*
X145100000Y-74825000D03*
D12*
%TO.P,M101,3*%
%TO.N,/half bridges/OUT1B*%
X147600000Y-70200000D03*
D13*
X147600000Y-72075000D03*
D14*
X147600000Y-74825000D03*
D12*
%TO.P,M101,4*%
%TO.N,/current sense/V_OUT*%
X150100000Y-70200000D03*
D13*
X150100000Y-72075000D03*
D14*
X150100000Y-74825000D03*
%TD*%
D15*
%TO.P,H101,1,1*%
%TO.N,GND*%
X133300000Y-99975000D03*
X159300000Y-99975000D03*
X133300000Y-73975000D03*
X159300000Y-73975000D03*
%TD*%
D16*
%TO.P,J101,1,Pin_1*%
%TO.N,Vmot*%
X153525000Y-101700000D03*
D17*
%TO.P,J101,2,Pin_2*%
%TO.N,GND*%
X151025000Y-101700000D03*
%TO.P,J101,3,Pin_3*%
%TO.N,/mcu/CANL*%
X148525000Y-101700000D03*
%TO.P,J101,4,Pin_4*%
%TO.N,/mcu/CANH*%
X146025000Y-101700000D03*
%TD*%
D18*
%TO.N,GND*%
X143584500Y-78225000D03*
X153975000Y-84225000D03*
X142060500Y-86975000D03*
X159950000Y-85100000D03*
X156400000Y-81575000D03*
X154100000Y-90525000D03*
X161875000Y-87350000D03*
X146625000Y-88050000D03*
X148824500Y-78225000D03*
X130700000Y-80025000D03*
D19*
X156400000Y-94375000D03*
D18*
X162125000Y-90250000D03*
X135925000Y-86300000D03*
X161900000Y-86100000D03*
X153975000Y-85250000D03*
X159925000Y-80375000D03*
X137175000Y-85000000D03*
X135925000Y-85025000D03*
X157150000Y-82200000D03*
X146625000Y-85900000D03*
X135925000Y-83825000D03*
X159950000Y-82800000D03*
X134650000Y-85000000D03*
X154975000Y-84250000D03*
X159950000Y-83950000D03*
X133200000Y-79700000D03*
X157875000Y-82850000D03*
D19*
X157675000Y-95350000D03*
X155525000Y-95375000D03*
D18*
X147300000Y-92625000D03*
X152925000Y-84175000D03*
X138675000Y-78175000D03*
X145975000Y-94400000D03*
X145575000Y-87025000D03*
X147750000Y-87025000D03*
X140904600Y-93350500D03*
X154000000Y-83200000D03*
X146625000Y-86950000D03*
X159950000Y-81600000D03*
%TO.N,Vmot*%
X132150000Y-94150000D03*
X150200000Y-86325000D03*
X139000000Y-70700000D03*
X161925000Y-82200000D03*
X150850000Y-86975000D03*
X153725000Y-74775000D03*
X153750000Y-72700000D03*
X156250000Y-90950000D03*
X155325000Y-91350000D03*
X151750000Y-86800000D03*
X138975000Y-74750000D03*
X139000000Y-72750000D03*
X156150000Y-91975000D03*
X153725000Y-70725000D03*
X161950000Y-83375000D03*
D20*
%TO.N,/mcu/USBD_P*%
X137500000Y-96625000D03*
X136650000Y-95825000D03*
D18*
%TO.N,+3V3*%
X134550500Y-90189528D03*
X162200000Y-93700000D03*
X162200000Y-94575000D03*
X140050000Y-103600000D03*
X140850000Y-78425000D03*
X162150000Y-92100000D03*
X136084756Y-77651472D03*
X148575000Y-85725000D03*
X131015734Y-89634266D03*
X162175000Y-95425000D03*
X150800000Y-78450000D03*
X141374500Y-87925000D03*
X145550000Y-78475000D03*
X146000000Y-95675000D03*
D20*
%TO.N,/mcu/RESET*%
X143300000Y-92150000D03*
X130225000Y-84175000D03*
X133250000Y-77775000D03*
%TO.N,/current sense/U_SENSE*%
X131225000Y-83575000D03*
X139675000Y-79350000D03*
%TO.N,/current sense/V_SENSE*%
X146175000Y-82950000D03*
X137425000Y-89725000D03*
X147225000Y-81900000D03*
X149675000Y-79450000D03*
%TO.N,/current sense/W_SENSE*%
X132175000Y-87750000D03*
X138575000Y-81650000D03*
X142425000Y-81350000D03*
X144375000Y-79400000D03*
D18*
%TO.N,/usb/USB_5V*%
X136221584Y-97995447D03*
X135074342Y-96842749D03*
X139022580Y-95565784D03*
X141575000Y-95875000D03*
X131000000Y-94950000D03*
X137925000Y-94025000D03*
%TO.N,Net-(D603-K)*%
X152862435Y-88183615D03*
X150575000Y-84225000D03*
D20*
%TO.N,Net-(D601-K)*%
X151805811Y-81930811D03*
X156225000Y-87175000D03*
%TO.N,/half bridges/ENA*%
X154150000Y-87900000D03*
X150525000Y-83225000D03*
X139925000Y-88400000D03*
%TO.N,/encoder/SCK*%
X147450000Y-91350000D03*
X130625000Y-87275000D03*
%TO.N,/encoder/CIPO*%
X131025000Y-87775000D03*
X146050000Y-91325000D03*
%TO.N,/encoder/COPI*%
X146775000Y-91350000D03*
X131450000Y-88300000D03*
%TO.N,/encoder/CS*%
X148150000Y-91350000D03*
X132073766Y-87148766D03*
%TO.N,/encoder/CAL_EN*%
X132525000Y-88150000D03*
X145325000Y-91350000D03*
%TO.N,/mcu/CAN_TX*%
X140950000Y-83750000D03*
X138050000Y-80825000D03*
%TO.N,/mcu/CAN_RX*%
X137600000Y-80425000D03*
X141350000Y-83325000D03*
%TO.N,/half bridges/IN2B*%
X150950000Y-82825000D03*
X131750000Y-83075000D03*
%TO.N,/half bridges/IN1A*%
X155400000Y-87950000D03*
X139215802Y-87973175D03*
%TO.N,/half bridges/IN2A*%
X139650000Y-87678939D03*
X155825000Y-87525000D03*
%TO.N,/half bridges/IN1B*%
X132125000Y-82675000D03*
X151425000Y-82400000D03*
%TO.N,/mcu/DIR*%
X150750000Y-90050000D03*
X138850000Y-88825000D03*
%TO.N,/mcu/STEP*%
X138525000Y-89275000D03*
X149525000Y-90050000D03*
%TD*%
D21*
%TO.N,/mcu/USBD_P*%
X136675000Y-95825000D02*
X136650000Y-95825000D01*
X137525000Y-96600000D02*
X137450000Y-96600000D01*
X137450000Y-96600000D02*
X136675000Y-95825000D01*
%TO.N,/mcu/RESET*%
X130225000Y-84175000D02*
X130225000Y-87925000D01*
X130225000Y-87925000D02*
X131275000Y-88975000D01*
X131250000Y-77775000D02*
X130050000Y-78975000D01*
X133250000Y-77775000D02*
X131250000Y-77775000D01*
X131275000Y-88975000D02*
X131817158Y-88975000D01*
X130050000Y-78975000D02*
X130050000Y-84000000D01*
X130050000Y-84000000D02*
X130225000Y-84175000D01*
X131817158Y-88975000D02*
X134942158Y-92100000D01*
X134942158Y-92100000D02*
X143300000Y-92100000D01*
%TO.N,/current sense/U_SENSE*%
X131225000Y-83575000D02*
X131225000Y-82575000D01*
X133450000Y-80350000D02*
X133469239Y-80350000D01*
X134450000Y-79350000D02*
X139675000Y-79350000D01*
X133850000Y-79969239D02*
X133850000Y-79950000D01*
X133850000Y-79950000D02*
X134450000Y-79350000D01*
X131225000Y-82575000D02*
X133450000Y-80350000D01*
X133469239Y-80350000D02*
X133850000Y-79969239D01*
%TO.N,/current sense/V_SENSE*%
X139450000Y-85375000D02*
X143750000Y-85375000D01*
X147225000Y-81900000D02*
X149675000Y-79450000D01*
X137425000Y-89725000D02*
X137425000Y-87400000D01*
X137425000Y-87400000D02*
X139450000Y-85375000D01*
X143750000Y-85375000D02*
X146175000Y-82950000D01*
%TO.N,/current sense/W_SENSE*%
X131673766Y-86951234D02*
X136975000Y-81650000D01*
X136975000Y-81650000D02*
X138575000Y-81650000D01*
X132200000Y-87725000D02*
X132084314Y-87725000D01*
X131673766Y-87314452D02*
X131673766Y-86951234D01*
X132084314Y-87725000D02*
X131673766Y-87314452D01*
X142425000Y-81350000D02*
X144375000Y-79400000D01*
D22*
%TO.N,Net-(D603-K)*%
X152862435Y-86512435D02*
X150575000Y-84225000D01*
X152862435Y-88183615D02*
X152862435Y-86512435D01*
D21*
%TO.N,Net-(D601-K)*%
X156225000Y-83925000D02*
X156225000Y-87175000D01*
X154230811Y-81930811D02*
X156225000Y-83925000D01*
X151805811Y-81930811D02*
X154230811Y-81930811D01*
%TO.N,/half bridges/ENA*%
X154150000Y-86900000D02*
X154150000Y-87900000D01*
X139925000Y-88400000D02*
X139950000Y-88400000D01*
X150525000Y-83225000D02*
X150525000Y-83275000D01*
X139950000Y-88400000D02*
X141400000Y-89850000D01*
X149150000Y-89375000D02*
X153884316Y-89375000D01*
X154150000Y-89109316D02*
X154150000Y-87900000D01*
X148675000Y-89850000D02*
X149150000Y-89375000D01*
X153884316Y-89375000D02*
X154150000Y-89109316D01*
X150525000Y-83275000D02*
X154150000Y-86900000D01*
X141400000Y-89850000D02*
X148675000Y-89850000D01*
%TO.N,/encoder/SCK*%
X131900000Y-88775000D02*
X131357842Y-88775000D01*
X131357842Y-88775000D02*
X130625000Y-88042158D01*
X147450000Y-91350000D02*
X146650000Y-92150000D01*
X130625000Y-88042158D02*
X130625000Y-87275000D01*
X144993630Y-92150000D02*
X144593630Y-91750000D01*
X144593630Y-91750000D02*
X134875000Y-91750000D01*
X134875000Y-91750000D02*
X131900000Y-88775000D01*
X146650000Y-92150000D02*
X144993630Y-92150000D01*
%TO.N,/encoder/CIPO*%
X144709314Y-91300000D02*
X145159314Y-91750000D01*
X133973555Y-88664239D02*
X136609316Y-91300000D01*
X145625000Y-91750000D02*
X146050000Y-91325000D01*
X145159314Y-91750000D02*
X145625000Y-91750000D01*
X131025000Y-87775000D02*
X131500000Y-87775000D01*
X132389239Y-88664239D02*
X133973555Y-88664239D01*
X131500000Y-87775000D02*
X132389239Y-88664239D01*
X136609316Y-91300000D02*
X144709314Y-91300000D01*
%TO.N,/encoder/COPI*%
X146175000Y-91950000D02*
X146775000Y-91350000D01*
X144676472Y-91550000D02*
X145076472Y-91950000D01*
X134991733Y-91550000D02*
X144676472Y-91550000D01*
X131450000Y-88300000D02*
X131741733Y-88300000D01*
X131741733Y-88300000D02*
X134991733Y-91550000D01*
X145076472Y-91950000D02*
X146175000Y-91950000D01*
%TO.N,/encoder/CS*%
X132153300Y-87148766D02*
X133068773Y-88064239D01*
X133068773Y-88064239D02*
X133939240Y-88064239D01*
X133939240Y-88064239D02*
X136725000Y-90850000D01*
X136725000Y-90850000D02*
X147650000Y-90850000D01*
X147650000Y-90850000D02*
X148150000Y-91350000D01*
X132073766Y-87148766D02*
X132153300Y-87148766D01*
%TO.N,/encoder/CAL_EN*%
X132525000Y-88150000D02*
X132639239Y-88264239D01*
X145050000Y-91075000D02*
X145325000Y-91350000D01*
X136667158Y-91075000D02*
X145050000Y-91075000D01*
X133856397Y-88264239D02*
X136667158Y-91075000D01*
X132639239Y-88264239D02*
X133856397Y-88264239D01*
%TO.N,/mcu/CAN_TX*%
X140950000Y-83442157D02*
X138332844Y-80825000D01*
X140950000Y-83750000D02*
X140950000Y-83442157D01*
X138332844Y-80825000D02*
X138050000Y-80825000D01*
%TO.N,/mcu/CAN_RX*%
X138215686Y-80425000D02*
X137600000Y-80425000D01*
X141350000Y-83325000D02*
X141115686Y-83325000D01*
X141115686Y-83325000D02*
X138215686Y-80425000D01*
%TO.N,/half bridges/IN2B*%
X131750000Y-83075000D02*
X134200000Y-83075000D01*
X138098528Y-80025000D02*
X140598528Y-82525000D01*
X137250000Y-80025000D02*
X138098528Y-80025000D01*
X140598528Y-82525000D02*
X150650000Y-82525000D01*
X150650000Y-82525000D02*
X150950000Y-82825000D01*
X134200000Y-83075000D02*
X137250000Y-80025000D01*
%TO.N,/half bridges/IN1A*%
X139215802Y-87973175D02*
X138251825Y-87973175D01*
X151057842Y-90650000D02*
X151857842Y-89850000D01*
X153975000Y-89850000D02*
X155400000Y-88425000D01*
X151857842Y-89850000D02*
X153975000Y-89850000D01*
X138300000Y-90650000D02*
X151057842Y-90650000D01*
X155400000Y-88425000D02*
X155400000Y-87950000D01*
X138251825Y-87973175D02*
X137900000Y-88325000D01*
X137900000Y-88325000D02*
X137900000Y-90250000D01*
X137900000Y-90250000D02*
X138300000Y-90650000D01*
%TO.N,/half bridges/IN2A*%
X155259314Y-87525000D02*
X155825000Y-87525000D01*
X138351825Y-88373175D02*
X138100000Y-88625000D01*
X150975000Y-90450000D02*
X151775000Y-89650000D01*
X138100000Y-88625000D02*
X138100000Y-90167158D01*
X139650000Y-87678939D02*
X139650000Y-88104663D01*
X151775000Y-89650000D02*
X153892158Y-89650000D01*
X138100000Y-90167158D02*
X138382842Y-90450000D01*
X155000000Y-87784314D02*
X155259314Y-87525000D01*
X139650000Y-88104663D02*
X139381488Y-88373175D01*
X153892158Y-89650000D02*
X155000000Y-88542158D01*
X139381488Y-88373175D02*
X138351825Y-88373175D01*
X155000000Y-88542158D02*
X155000000Y-87784314D01*
X138382842Y-90450000D02*
X150975000Y-90450000D01*
%TO.N,/half bridges/IN1B*%
X151350000Y-82325000D02*
X151425000Y-82400000D01*
X134292158Y-82700000D02*
X137167158Y-79825000D01*
X132150000Y-82700000D02*
X134292158Y-82700000D01*
X140681370Y-82325000D02*
X151350000Y-82325000D01*
X132125000Y-82675000D02*
X132150000Y-82700000D01*
X138181370Y-79825000D02*
X140681370Y-82325000D01*
X137167158Y-79825000D02*
X138181370Y-79825000D01*
%TO.N,/mcu/DIR*%
X140075000Y-90050000D02*
X138850000Y-88825000D01*
X150750000Y-90050000D02*
X150350000Y-89650000D01*
X148757842Y-90050000D02*
X140075000Y-90050000D01*
X150350000Y-89650000D02*
X149157842Y-89650000D01*
X149157842Y-89650000D02*
X148757842Y-90050000D01*
%TO.N,/mcu/STEP*%
X138525000Y-89275000D02*
X139500000Y-90250000D01*
X149000000Y-90250000D02*
X149175000Y-90075000D01*
X139500000Y-90250000D02*
X149000000Y-90250000D01*
X149175000Y-90075000D02*
X149475000Y-90075000D01*
%TD*%
%TA.AperFunction,Conductor*%
%TO.N,GND*%
G36*
X142030810Y-69495185D02*
G01*
X142076565Y-69547989D01*
X142086509Y-69617147D01*
X142057484Y-69680703D01*
X142051452Y-69687181D01*
X142009523Y-69729109D01*
X142009518Y-69729115D01*
X141919547Y-69872302D01*
X141919545Y-69872305D01*
X141863685Y-70031943D01*
X141844751Y-70199997D01*
X141844751Y-70200002D01*
X141863685Y-70368056D01*
X141919545Y-70527694D01*
X141919547Y-70527697D01*
X142013227Y-70676786D01*
X142010859Y-70678273D01*
X142032488Y-70731280D01*
X142019718Y-70799973D01*
X141971838Y-70850857D01*
X141968148Y-70852936D01*
X141845103Y-70919524D01*
X141845090Y-70919533D01*
X141665212Y-71059538D01*
X141665208Y-71059541D01*
X141510814Y-71227257D01*
X141386137Y-71418091D01*
X141294569Y-71626844D01*
X141238610Y-71847820D01*
X141238608Y-71847831D01*
X141219786Y-72074993D01*
X141219786Y-72075006D01*
X141238608Y-72302168D01*
X141238610Y-72302179D01*
X141294569Y-72523155D01*
X141386137Y-72731908D01*
X141510814Y-72922742D01*
X141665208Y-73090458D01*
X141665212Y-73090461D01*
X141845090Y-73230466D01*
X141845094Y-73230469D01*
X141845096Y-73230470D01*
X141845099Y-73230472D01*
X141932118Y-73277564D01*
X141981709Y-73326783D01*
X141996817Y-73395000D01*
X141972647Y-73460556D01*
X141938115Y-73492208D01*
X141779133Y-73590097D01*
X141779124Y-73590103D01*
X141603362Y-73744793D01*
X141603361Y-73744795D01*
X141456265Y-73926969D01*
X141456264Y-73926969D01*
X141342075Y-74131377D01*
X141264072Y-74352147D01*
X141264070Y-74352155D01*
X141224500Y-74582919D01*
X141224500Y-75008433D01*
X141239382Y-75183296D01*
X141298382Y-75409889D01*
X141394824Y-75623244D01*
X141394829Y-75623252D01*
X141525935Y-75817231D01*
X141525940Y-75817236D01*
X141525943Y-75817241D01*
X141687956Y-75986283D01*
X141876208Y-76125513D01*
X142085282Y-76230926D01*
X142309163Y-76299489D01*
X142541411Y-76329229D01*
X142775345Y-76319292D01*
X143004234Y-76269962D01*
X143221494Y-76182660D01*
X143420875Y-76059896D01*
X143596641Y-75905203D01*
X143743735Y-75723030D01*
X143744399Y-75721840D01*
X143744813Y-75721434D01*
X143746681Y-75718671D01*
X143747242Y-75719050D01*
X143794269Y-75672909D01*
X143862680Y-75658705D01*
X143927909Y-75683743D01*
X143955395Y-75712863D01*
X144025935Y-75817230D01*
X144025936Y-75817231D01*
X144025943Y-75817241D01*
X144187956Y-75986283D01*
X144376208Y-76125513D01*
X144585282Y-76230926D01*
X144809163Y-76299489D01*
X145041411Y-76329229D01*
X145275345Y-76319292D01*
X145504234Y-76269962D01*
X145721494Y-76182660D01*
X145920875Y-76059896D01*
X146096641Y-75905203D01*
X146243735Y-75723030D01*
X146244399Y-75721840D01*
X146244813Y-75721434D01*
X146246681Y-75718671D01*
X146247242Y-75719050D01*
X146294269Y-75672909D01*
X146362680Y-75658705D01*
X146427909Y-75683743D01*
X146455395Y-75712863D01*
X146525935Y-75817230D01*
X146525936Y-75817231D01*
X146525943Y-75817241D01*
X146687956Y-75986283D01*
X146876208Y-76125513D01*
X147085282Y-76230926D01*
X147309163Y-76299489D01*
X147541411Y-76329229D01*
X147775345Y-76319292D01*
X148004234Y-76269962D01*
X148221494Y-76182660D01*
X148420875Y-76059896D01*
X148596641Y-75905203D01*
X148743735Y-75723030D01*
X148744399Y-75721840D01*
X148744813Y-75721434D01*
X148746681Y-75718671D01*
X148747242Y-75719050D01*
X148794269Y-75672909D01*
X148862680Y-75658705D01*
X148927909Y-75683743D01*
X148955395Y-75712863D01*
X149025935Y-75817230D01*
X149025936Y-75817231D01*
X149025943Y-75817241D01*
X149187956Y-75986283D01*
X149376208Y-76125513D01*
X149585282Y-76230926D01*
X149809163Y-76299489D01*
X150041411Y-76329229D01*
X150275345Y-76319292D01*
X150504234Y-76269962D01*
X150721494Y-76182660D01*
X150920875Y-76059896D01*
X151096641Y-75905203D01*
X151243735Y-75723030D01*
X151357926Y-75518619D01*
X151435929Y-75297849D01*
X151475500Y-75067072D01*
X151475500Y-74775000D01*
X152819540Y-74775000D01*
X152839326Y-74963256D01*
X152839327Y-74963259D01*
X152897818Y-75143277D01*
X152897821Y-75143284D01*
X152992467Y-75307216D01*
X153096619Y-75422888D01*
X153119129Y-75447888D01*
X153272265Y-75559148D01*
X153272270Y-75559151D01*
X153445192Y-75636142D01*
X153445197Y-75636144D01*
X153630354Y-75675500D01*
X153630355Y-75675500D01*
X153819644Y-75675500D01*
X153819646Y-75675500D01*
X154004803Y-75636144D01*
X154177730Y-75559151D01*
X154330871Y-75447888D01*
X154457533Y-75307216D01*
X154552179Y-75143284D01*
X154610674Y-74963256D01*
X154630460Y-74775000D01*
X154610674Y-74586744D01*
X154552179Y-74406716D01*
X154457533Y-74242784D01*
X154330871Y-74102112D01*
X154330870Y-74102111D01*
X154177734Y-73990851D01*
X154177729Y-73990848D01*
X154142134Y-73975000D01*
X155895006Y-73975000D01*
X155914966Y-74343142D01*
X155914967Y-74343159D01*
X155974610Y-74706960D01*
X155974616Y-74706986D01*
X156073243Y-75062209D01*
X156073245Y-75062216D01*
X156209706Y-75404710D01*
X156209715Y-75404728D01*
X156382406Y-75730458D01*
X156589307Y-76035614D01*
X156725496Y-76195948D01*
X156725497Y-76195949D01*
X158041351Y-74880095D01*
X158095456Y-74958480D01*
X158268816Y-75138966D01*
X158394865Y-75233686D01*
X157076520Y-76552031D01*
X157076520Y-76552032D01*
X157095643Y-76570147D01*
X157095655Y-76570158D01*
X157389158Y-76793274D01*
X157389175Y-76793286D01*
X157705067Y-76983350D01*
X157705080Y-76983357D01*
X158039671Y-77138155D01*
X158389068Y-77255882D01*
X158749134Y-77335138D01*
X159115655Y-77374999D01*
X159115663Y-77375000D01*
X159484337Y-77375000D01*
X159484344Y-77374999D01*
X159850865Y-77335138D01*
X160210931Y-77255882D01*
X160560328Y-77138155D01*
X160894919Y-76983357D01*
X160894932Y-76983350D01*
X161210824Y-76793286D01*
X161210841Y-76793274D01*
X161504340Y-76570161D01*
X161523479Y-76552031D01*
X160206879Y-75235431D01*
X160234180Y-75218168D01*
X160421501Y-75052216D01*
X160560511Y-74881958D01*
X161874501Y-76195948D01*
X161874502Y-76195948D01*
X162010690Y-76035615D01*
X162010701Y-76035601D01*
X162217593Y-75730458D01*
X162390284Y-75404728D01*
X162390293Y-75404710D01*
X162526754Y-75062216D01*
X162526756Y-75062209D01*
X162625383Y-74706986D01*
X162625389Y-74706960D01*
X162685032Y-74343159D01*
X162685033Y-74343142D01*
X162704994Y-73975000D01*
X162704994Y-73974997D01*
X162685033Y-73606857D01*
X162685032Y-73606840D01*
X162625389Y-73243039D01*
X162625383Y-73243013D01*
X162526756Y-72887790D01*
X162526754Y-72887783D01*
X162390293Y-72545289D01*
X162390284Y-72545271D01*
X162217593Y-72219541D01*
X162010692Y-71914385D01*
X161874502Y-71754050D01*
X161874501Y-71754049D01*
X160558647Y-73069903D01*
X160504544Y-72991520D01*
X160331184Y-72811034D01*
X160205133Y-72716313D01*
X161523478Y-71397967D01*
X161523478Y-71397966D01*
X161504356Y-71379852D01*
X161504344Y-71379841D01*
X161210841Y-71156725D01*
X161210824Y-71156713D01*
X160894932Y-70966649D01*
X160894919Y-70966642D01*
X160560328Y-70811844D01*
X160210931Y-70694117D01*
X159850865Y-70614861D01*
X159484344Y-70575000D01*
X159115655Y-70575000D01*
X158749134Y-70614861D01*
X158389068Y-70694117D01*
X158039671Y-70811844D01*
X157705080Y-70966642D01*
X157705067Y-70966649D01*
X157389175Y-71156713D01*
X157389158Y-71156725D01*
X157095657Y-71379840D01*
X157095643Y-71379852D01*
X157076520Y-71397966D01*
X157076520Y-71397968D01*
X158393120Y-72714568D01*
X158365820Y-72731832D01*
X158178499Y-72897784D01*
X158039488Y-73068040D01*
X156725497Y-71754049D01*
X156725496Y-71754050D01*
X156589314Y-71914376D01*
X156589307Y-71914386D01*
X156382406Y-72219541D01*
X156209715Y-72545271D01*
X156209706Y-72545289D01*
X156073245Y-72887783D01*
X156073243Y-72887790D01*
X155974616Y-73243013D01*
X155974610Y-73243039D01*
X155914967Y-73606840D01*
X155914966Y-73606857D01*
X155895006Y-73974997D01*
X155895006Y-73975000D01*
X154142134Y-73975000D01*
X154004807Y-73913857D01*
X154004802Y-73913855D01*
X153859001Y-73882865D01*
X153819646Y-73874500D01*
X153630354Y-73874500D01*
X153597897Y-73881398D01*
X153445197Y-73913855D01*
X153445192Y-73913857D01*
X153272270Y-73990848D01*
X153272265Y-73990851D01*
X153119129Y-74102111D01*
X152992466Y-74242785D01*
X152897821Y-74406715D01*
X152897818Y-74406722D01*
X152847450Y-74561740D01*
X152839326Y-74586744D01*
X152819540Y-74775000D01*
X151475500Y-74775000D01*
X151475500Y-74641572D01*
X151475500Y-74641567D01*
X151460617Y-74466703D01*
X151401617Y-74240110D01*
X151305175Y-74026755D01*
X151305170Y-74026747D01*
X151174064Y-73832768D01*
X151174060Y-73832763D01*
X151174057Y-73832759D01*
X151012044Y-73663717D01*
X150823792Y-73524487D01*
X150823787Y-73524484D01*
X150823785Y-73524483D01*
X150770532Y-73497633D01*
X150719533Y-73449875D01*
X150702450Y-73382125D01*
X150724708Y-73315896D01*
X150767339Y-73277857D01*
X150854906Y-73230469D01*
X151034794Y-73090456D01*
X151189183Y-72922745D01*
X151313862Y-72731909D01*
X151405430Y-72523155D01*
X151461390Y-72302176D01*
X151465623Y-72251092D01*
X151480214Y-72075006D01*
X151480214Y-72074993D01*
X151461391Y-71847831D01*
X151461389Y-71847820D01*
X151405430Y-71626844D01*
X151313862Y-71418091D01*
X151189185Y-71227257D01*
X151065847Y-71093277D01*
X151034794Y-71059544D01*
X151034793Y-71059543D01*
X151034791Y-71059541D01*
X151034787Y-71059538D01*
X150854909Y-70919533D01*
X150854905Y-70919530D01*
X150731851Y-70852937D01*
X150682261Y-70803717D01*
X150667153Y-70735501D01*
X150671024Y-70725000D01*
X152819540Y-70725000D01*
X152839326Y-70913256D01*
X152839327Y-70913259D01*
X152897818Y-71093277D01*
X152897821Y-71093284D01*
X152992467Y-71257216D01*
X153102879Y-71379841D01*
X153119129Y-71397888D01*
X153272265Y-71509148D01*
X153272270Y-71509151D01*
X153445197Y-71586144D01*
X153481530Y-71593866D01*
X153543010Y-71627056D01*
X153576788Y-71688219D01*
X153572137Y-71757933D01*
X153530533Y-71814067D01*
X153481536Y-71836445D01*
X153470198Y-71838855D01*
X153470192Y-71838857D01*
X153297270Y-71915848D01*
X153297265Y-71915851D01*
X153144129Y-72027111D01*
X153017466Y-72167785D01*
X152922821Y-72331715D01*
X152922818Y-72331722D01*
X152864327Y-72511740D01*
X152864326Y-72511744D01*
X152844540Y-72700000D01*
X152864326Y-72888256D01*
X152864327Y-72888259D01*
X152922818Y-73068277D01*
X152922821Y-73068284D01*
X153017467Y-73232216D01*
X153086032Y-73308365D01*
X153144129Y-73372888D01*
X153297265Y-73484148D01*
X153297270Y-73484151D01*
X153470192Y-73561142D01*
X153470197Y-73561144D01*
X153655354Y-73600500D01*
X153655355Y-73600500D01*
X153844644Y-73600500D01*
X153844646Y-73600500D01*
X154029803Y-73561144D01*
X154202730Y-73484151D01*
X154355871Y-73372888D01*
X154482533Y-73232216D01*
X154577179Y-73068284D01*
X154635674Y-72888256D01*
X154655460Y-72700000D01*
X154635674Y-72511744D01*
X154577179Y-72331716D01*
X154482533Y-72167784D01*
X154355871Y-72027112D01*
X154355870Y-72027111D01*
X154202734Y-71915851D01*
X154202729Y-71915848D01*
X154029807Y-71838857D01*
X154029800Y-71838855D01*
X153993470Y-71831133D01*
X153931988Y-71797941D01*
X153898211Y-71736778D01*
X153902863Y-71667064D01*
X153944467Y-71610931D01*
X153993468Y-71588553D01*
X154004803Y-71586144D01*
X154177730Y-71509151D01*
X154330871Y-71397888D01*
X154457533Y-71257216D01*
X154552179Y-71093284D01*
X154610674Y-70913256D01*
X154630460Y-70725000D01*
X154610674Y-70536744D01*
X154552179Y-70356716D01*
X154457533Y-70192784D01*
X154330871Y-70052112D01*
X154303108Y-70031941D01*
X154177734Y-69940851D01*
X154177729Y-69940848D01*
X154004807Y-69863857D01*
X154004802Y-69863855D01*
X153859001Y-69832865D01*
X153819646Y-69824500D01*
X153630354Y-69824500D01*
X153597897Y-69831398D01*
X153445197Y-69863855D01*
X153445192Y-69863857D01*
X153272270Y-69940848D01*
X153272265Y-69940851D01*
X153119129Y-70052111D01*
X152992466Y-70192785D01*
X152897821Y-70356715D01*
X152897818Y-70356722D01*
X152839327Y-70536740D01*
X152839326Y-70536744D01*
X152819540Y-70725000D01*
X150671024Y-70725000D01*
X150688418Y-70677821D01*
X150686772Y-70676787D01*
X150716779Y-70629029D01*
X150780456Y-70527690D01*
X150836313Y-70368059D01*
X150836313Y-70368058D01*
X150836314Y-70368056D01*
X150855249Y-70200002D01*
X150855249Y-70199997D01*
X150836314Y-70031943D01*
X150797292Y-69920426D01*
X150780456Y-69872310D01*
X150780455Y-69872309D01*
X150780454Y-69872305D01*
X150780452Y-69872302D01*
X150690481Y-69729115D01*
X150690476Y-69729109D01*
X150648548Y-69687181D01*
X150615063Y-69625858D01*
X150620047Y-69556166D01*
X150661919Y-69500233D01*
X150727383Y-69475816D01*
X150736229Y-69475500D01*
X159299500Y-69475500D01*
X159300000Y-69475500D01*
X159494602Y-69483996D01*
X159695492Y-69493284D01*
X159700690Y-69493745D01*
X159901571Y-69520192D01*
X160096057Y-69547322D01*
X160100862Y-69548188D01*
X160299710Y-69592271D01*
X160490125Y-69637057D01*
X160494535Y-69638269D01*
X160689235Y-69699657D01*
X160874516Y-69761758D01*
X160878520Y-69763256D01*
X161067458Y-69841516D01*
X161246171Y-69920426D01*
X161249671Y-69922107D01*
X161431369Y-70016693D01*
X161602024Y-70111748D01*
X161605155Y-70113616D01*
X161778059Y-70223768D01*
X161933281Y-70330097D01*
X161939275Y-70334203D01*
X161941969Y-70336156D01*
X162104774Y-70461081D01*
X162184997Y-70527697D01*
X162255227Y-70586016D01*
X162257486Y-70587985D01*
X162407011Y-70725000D01*
X162408911Y-70726741D01*
X162548258Y-70866088D01*
X162687008Y-71017507D01*
X162688982Y-71019771D01*
X162750022Y-71093277D01*
X162813917Y-71170223D01*
X162857682Y-71227259D01*
X162938833Y-71333017D01*
X162940794Y-71335721D01*
X163051229Y-71496936D01*
X163087952Y-71554579D01*
X163161382Y-71669843D01*
X163163257Y-71672986D01*
X163258309Y-71843636D01*
X163352870Y-72025285D01*
X163354585Y-72028855D01*
X163415929Y-72167785D01*
X163433489Y-72207555D01*
X163511738Y-72396468D01*
X163513244Y-72400492D01*
X163575346Y-72585779D01*
X163636724Y-72780446D01*
X163637947Y-72784896D01*
X163682737Y-72975331D01*
X163726805Y-73174109D01*
X163727680Y-73178965D01*
X163754816Y-73373495D01*
X163781250Y-73574279D01*
X163781714Y-73579511D01*
X163791009Y-73780535D01*
X163799500Y-73975000D01*
X163799500Y-80685253D01*
X163779815Y-80752292D01*
X163727011Y-80798047D01*
X163657853Y-80807991D01*
X163594297Y-80778966D01*
X163587819Y-80772934D01*
X163234181Y-80419296D01*
X163234180Y-80419296D01*
X163214044Y-80401209D01*
X163214045Y-80401209D01*
X163182861Y-80376080D01*
X163138974Y-80344433D01*
X163008100Y-80284663D01*
X162941063Y-80264978D01*
X162941057Y-80264976D01*
X162852666Y-80252268D01*
X162798638Y-80244500D01*
X161262823Y-80244500D01*
X161235784Y-80245949D01*
X161235776Y-80245949D01*
X161235773Y-80245950D01*
X161235772Y-80245950D01*
X161195964Y-80250231D01*
X161142554Y-80258885D01*
X161142552Y-80258885D01*
X161007747Y-80309166D01*
X160946422Y-80342651D01*
X160831240Y-80428876D01*
X160831228Y-80428886D01*
X160244296Y-81015819D01*
X160226209Y-81035956D01*
X160226209Y-81035955D01*
X160201080Y-81067139D01*
X160169433Y-81111025D01*
X160109663Y-81241899D01*
X160089978Y-81308937D01*
X160089976Y-81308942D01*
X160069500Y-81451363D01*
X160069500Y-83463772D01*
X160063155Y-83502930D01*
X160024238Y-83619860D01*
X160019105Y-83763650D01*
X160026574Y-83833113D01*
X160026575Y-83833127D01*
X160033628Y-83860756D01*
X160035025Y-83868005D01*
X160042034Y-83921245D01*
X160031268Y-83990280D01*
X159997472Y-84033517D01*
X159989933Y-84039667D01*
X159973104Y-84054250D01*
X159950973Y-84074609D01*
X159863381Y-84188761D01*
X159828679Y-84250554D01*
X159827903Y-84252959D01*
X159777290Y-84383877D01*
X159777288Y-84383885D01*
X159765316Y-84527269D01*
X159765316Y-84527344D01*
X159765308Y-84527367D01*
X159764949Y-84531676D01*
X159764011Y-84531597D01*
X159744828Y-84594142D01*
X159691478Y-84639260D01*
X159622205Y-84648372D01*
X159575987Y-84630802D01*
X159575954Y-84630863D01*
X159575513Y-84630622D01*
X159574231Y-84630135D01*
X159572045Y-84628728D01*
X159445760Y-84559773D01*
X159305176Y-84529192D01*
X159305170Y-84529191D01*
X159305169Y-84529191D01*
X159279342Y-84527344D01*
X159235479Y-84524207D01*
X159235477Y-84524207D01*
X159091971Y-84534470D01*
X159091968Y-84534470D01*
X159091968Y-84534471D01*
X158957160Y-84584750D01*
X158957155Y-84584753D01*
X158895848Y-84618229D01*
X158895838Y-84618233D01*
X158780656Y-84704458D01*
X158780644Y-84704469D01*
X157385114Y-86100001D01*
X156987181Y-86497934D01*
X156925858Y-86531419D01*
X156856166Y-86526435D01*
X156800233Y-86484563D01*
X156775816Y-86419099D01*
X156775500Y-86410253D01*
X156775500Y-83934397D01*
X156776236Y-83912842D01*
X156777762Y-83868174D01*
X156769221Y-83833127D01*
X156767283Y-83825174D01*
X156766096Y-83818931D01*
X156763228Y-83798064D01*
X156760070Y-83775080D01*
X156755105Y-83763650D01*
X156752921Y-83758622D01*
X156746180Y-83738578D01*
X156741933Y-83721148D01*
X156734772Y-83708413D01*
X156720239Y-83682564D01*
X156717414Y-83676876D01*
X156701928Y-83641226D01*
X156699780Y-83636280D01*
X156688454Y-83622359D01*
X156676556Y-83604877D01*
X156667764Y-83589240D01*
X156636472Y-83557948D01*
X156632215Y-83553231D01*
X156604278Y-83518892D01*
X156589613Y-83508540D01*
X156573441Y-83494917D01*
X154626718Y-81548193D01*
X154581491Y-81499767D01*
X154569075Y-81492216D01*
X154543672Y-81476768D01*
X154538421Y-81473194D01*
X154503152Y-81446449D01*
X154503153Y-81446449D01*
X154486453Y-81439863D01*
X154467527Y-81430463D01*
X154452191Y-81421138D01*
X154409569Y-81409195D01*
X154403551Y-81407171D01*
X154362376Y-81390935D01*
X154362367Y-81390933D01*
X154344527Y-81389099D01*
X154323762Y-81385153D01*
X154306480Y-81380311D01*
X154306476Y-81380311D01*
X154262217Y-81380311D01*
X154255875Y-81379986D01*
X154228238Y-81377144D01*
X154211840Y-81375459D01*
X154211835Y-81375459D01*
X154194155Y-81378508D01*
X154173087Y-81380311D01*
X152241037Y-81380311D01*
X152183412Y-81366108D01*
X152097397Y-81320964D01*
X152047106Y-81294569D01*
X152047103Y-81294568D01*
X151887833Y-81255311D01*
X151887832Y-81255311D01*
X151723790Y-81255311D01*
X151723789Y-81255311D01*
X151564519Y-81294567D01*
X151419262Y-81370804D01*
X151296483Y-81479577D01*
X151296477Y-81479584D01*
X151203294Y-81614582D01*
X151203293Y-81614585D01*
X151179929Y-81676192D01*
X151172996Y-81694472D01*
X151130818Y-81750174D01*
X151065220Y-81774231D01*
X151057054Y-81774500D01*
X148428387Y-81774500D01*
X148361348Y-81754815D01*
X148315593Y-81702011D01*
X148305649Y-81632853D01*
X148334674Y-81569297D01*
X148340706Y-81562819D01*
X149004758Y-80898766D01*
X149760452Y-80143070D01*
X149818455Y-80110357D01*
X149916295Y-80086242D01*
X150061546Y-80010008D01*
X150184332Y-79901229D01*
X150277518Y-79766226D01*
X150335688Y-79612845D01*
X150355461Y-79450000D01*
X150354569Y-79442656D01*
X150366026Y-79373735D01*
X150412927Y-79321947D01*
X150480381Y-79303736D01*
X150515977Y-79309773D01*
X150520191Y-79311141D01*
X150520197Y-79311144D01*
X150705354Y-79350500D01*
X150705355Y-79350500D01*
X150894644Y-79350500D01*
X150894646Y-79350500D01*
X151079803Y-79311144D01*
X151252730Y-79234151D01*
X151405871Y-79122888D01*
X151532533Y-78982216D01*
X151627179Y-78818284D01*
X151685674Y-78638256D01*
X151705460Y-78450000D01*
X151685674Y-78261744D01*
X151627179Y-78081716D01*
X151532533Y-77917784D01*
X151405871Y-77777112D01*
X151402963Y-77774999D01*
X151252734Y-77665851D01*
X151252729Y-77665848D01*
X151079807Y-77588857D01*
X151079802Y-77588855D01*
X150934001Y-77557865D01*
X150894646Y-77549500D01*
X150705354Y-77549500D01*
X150672897Y-77556398D01*
X150520197Y-77588855D01*
X150520192Y-77588857D01*
X150347270Y-77665848D01*
X150347265Y-77665851D01*
X150194129Y-77777111D01*
X150067466Y-77917785D01*
X149972821Y-78081715D01*
X149972818Y-78081722D01*
X149925864Y-78226233D01*
X149914326Y-78261744D01*
X149894540Y-78450000D01*
X149912358Y-78619536D01*
X149914752Y-78642309D01*
X149902182Y-78711039D01*
X149854450Y-78762062D01*
X149786710Y-78779180D01*
X149761756Y-78775667D01*
X149757021Y-78774500D01*
X149592979Y-78774500D01*
X149592978Y-78774500D01*
X149433708Y-78813756D01*
X149288451Y-78889993D01*
X149165672Y-78998766D01*
X149165666Y-78998773D01*
X149072483Y-79133771D01*
X149014310Y-79287158D01*
X149013247Y-79295915D01*
X148985621Y-79360091D01*
X148977833Y-79368641D01*
X147139547Y-81206926D01*
X147081542Y-81239641D01*
X146983710Y-81263755D01*
X146983704Y-81263757D01*
X146838455Y-81339990D01*
X146838453Y-81339992D01*
X146715672Y-81448766D01*
X146715666Y-81448773D01*
X146622483Y-81583772D01*
X146622482Y-81583773D01*
X146580500Y-81694471D01*
X146538322Y-81750174D01*
X146472724Y-81774231D01*
X146464558Y-81774500D01*
X143166100Y-81774500D01*
X143099061Y-81754815D01*
X143053306Y-81702011D01*
X143043362Y-81632853D01*
X143050156Y-81606532D01*
X143085688Y-81512845D01*
X143086750Y-81504094D01*
X143114368Y-81439919D01*
X143122155Y-81431368D01*
X144460452Y-80093070D01*
X144518455Y-80060357D01*
X144616295Y-80036242D01*
X144761546Y-79960008D01*
X144884332Y-79851229D01*
X144977518Y-79716226D01*
X145035688Y-79562845D01*
X145053603Y-79415301D01*
X145081223Y-79351126D01*
X145139157Y-79312069D01*
X145209010Y-79310534D01*
X145227131Y-79316969D01*
X145270197Y-79336144D01*
X145455354Y-79375500D01*
X145455355Y-79375500D01*
X145644644Y-79375500D01*
X145644646Y-79375500D01*
X145829803Y-79336144D01*
X146002730Y-79259151D01*
X146155871Y-79147888D01*
X146282533Y-79007216D01*
X146377179Y-78843284D01*
X146435674Y-78663256D01*
X146455460Y-78475000D01*
X146435674Y-78286744D01*
X146377179Y-78106716D01*
X146282533Y-77942784D01*
X146155871Y-77802112D01*
X146155870Y-77802111D01*
X146002734Y-77690851D01*
X146002729Y-77690848D01*
X145829807Y-77613857D01*
X145829802Y-77613855D01*
X145684001Y-77582865D01*
X145644646Y-77574500D01*
X145455354Y-77574500D01*
X145422897Y-77581398D01*
X145270197Y-77613855D01*
X145270192Y-77613857D01*
X145097270Y-77690848D01*
X145097265Y-77690851D01*
X144944129Y-77802111D01*
X144817466Y-77942785D01*
X144722821Y-78106715D01*
X144722818Y-78106722D01*
X144683987Y-78226233D01*
X144664326Y-78286744D01*
X144644540Y-78475000D01*
X144657989Y-78602967D01*
X144645420Y-78671695D01*
X144597688Y-78722719D01*
X144529948Y-78739837D01*
X144504994Y-78736324D01*
X144457022Y-78724500D01*
X144457021Y-78724500D01*
X144292979Y-78724500D01*
X144292978Y-78724500D01*
X144133708Y-78763756D01*
X143988451Y-78839993D01*
X143865672Y-78948766D01*
X143865666Y-78948773D01*
X143772483Y-79083771D01*
X143714310Y-79237158D01*
X143713247Y-79245915D01*
X143685621Y-79310091D01*
X143677833Y-79318641D01*
X142339547Y-80656926D01*
X142281542Y-80689641D01*
X142183710Y-80713755D01*
X142183704Y-80713757D01*
X142038455Y-80789990D01*
X142038453Y-80789992D01*
X141915672Y-80898766D01*
X141915666Y-80898773D01*
X141822483Y-81033771D01*
X141764312Y-81187154D01*
X141764311Y-81187157D01*
X141744539Y-81349999D01*
X141744539Y-81350000D01*
X141764311Y-81512842D01*
X141764312Y-81512845D01*
X141799842Y-81606529D01*
X141805209Y-81676192D01*
X141772062Y-81737698D01*
X141710924Y-81771519D01*
X141683900Y-81774500D01*
X140960757Y-81774500D01*
X140893718Y-81754815D01*
X140873076Y-81738181D01*
X139333423Y-80198528D01*
X139299938Y-80137205D01*
X139304922Y-80067513D01*
X139346794Y-80011580D01*
X139412258Y-79987163D01*
X139450775Y-79990449D01*
X139592979Y-80025500D01*
X139592980Y-80025500D01*
X139757022Y-80025500D01*
X139916291Y-79986243D01*
X139916291Y-79986242D01*
X139916295Y-79986242D01*
X140061546Y-79910008D01*
X140184332Y-79801229D01*
X140277518Y-79666226D01*
X140335688Y-79512845D01*
X140353603Y-79365301D01*
X140381223Y-79301126D01*
X140439157Y-79262069D01*
X140509010Y-79260534D01*
X140527131Y-79266969D01*
X140570197Y-79286144D01*
X140755354Y-79325500D01*
X140755355Y-79325500D01*
X140944644Y-79325500D01*
X140944646Y-79325500D01*
X141129803Y-79286144D01*
X141302730Y-79209151D01*
X141455871Y-79097888D01*
X141582533Y-78957216D01*
X141677179Y-78793284D01*
X141735674Y-78613256D01*
X141755460Y-78425000D01*
X141735674Y-78236744D01*
X141677179Y-78056716D01*
X141582533Y-77892784D01*
X141455871Y-77752112D01*
X141455870Y-77752111D01*
X141302734Y-77640851D01*
X141302729Y-77640848D01*
X141129807Y-77563857D01*
X141129802Y-77563855D01*
X140984001Y-77532865D01*
X140944646Y-77524500D01*
X140755354Y-77524500D01*
X140722897Y-77531398D01*
X140570197Y-77563855D01*
X140570192Y-77563857D01*
X140397270Y-77640848D01*
X140397265Y-77640851D01*
X140244129Y-77752111D01*
X140117466Y-77892785D01*
X140022821Y-78056715D01*
X140022818Y-78056722D01*
X139967741Y-78226233D01*
X139964326Y-78236744D01*
X139944540Y-78425000D01*
X139957989Y-78552967D01*
X139945420Y-78621695D01*
X139897688Y-78672719D01*
X139829948Y-78689837D01*
X139804994Y-78686324D01*
X139757022Y-78674500D01*
X139757021Y-78674500D01*
X139592979Y-78674500D01*
X139592978Y-78674500D01*
X139433707Y-78713757D01*
X139297399Y-78785297D01*
X139239774Y-78799500D01*
X136190390Y-78799500D01*
X136123351Y-78779815D01*
X136083114Y-78733380D01*
X136063830Y-78766057D01*
X136001424Y-78797478D01*
X135979122Y-78799500D01*
X134459397Y-78799500D01*
X134393174Y-78797238D01*
X134393173Y-78797238D01*
X134393171Y-78797238D01*
X134350170Y-78807717D01*
X134343930Y-78808902D01*
X134300079Y-78814930D01*
X134283616Y-78822081D01*
X134263575Y-78828820D01*
X134246150Y-78833066D01*
X134246145Y-78833068D01*
X134207567Y-78854758D01*
X134201881Y-78857582D01*
X134161279Y-78875220D01*
X134147357Y-78886546D01*
X134129883Y-78898438D01*
X134114246Y-78907230D01*
X134114239Y-78907235D01*
X134082939Y-78938535D01*
X134078225Y-78942789D01*
X134043891Y-78970722D01*
X134033541Y-78985385D01*
X134019920Y-79001554D01*
X133467382Y-79554092D01*
X133418958Y-79599317D01*
X133395959Y-79637135D01*
X133392385Y-79642385D01*
X133376303Y-79663593D01*
X133370735Y-79669978D01*
X133182561Y-79858151D01*
X133167773Y-79869770D01*
X133167855Y-79869871D01*
X133147359Y-79886545D01*
X133129882Y-79898439D01*
X133114245Y-79907231D01*
X133114239Y-79907235D01*
X133082940Y-79938534D01*
X133078226Y-79942788D01*
X133043893Y-79970720D01*
X133033541Y-79985385D01*
X133019920Y-80001554D01*
X130842381Y-82179092D01*
X130809137Y-82210141D01*
X130746706Y-82241512D01*
X130677225Y-82234152D01*
X130622754Y-82190395D01*
X130600586Y-82124135D01*
X130600500Y-82119517D01*
X130600500Y-79254386D01*
X130620185Y-79187347D01*
X130636819Y-79166705D01*
X131441705Y-78361819D01*
X131503028Y-78328334D01*
X131529386Y-78325500D01*
X132814774Y-78325500D01*
X132872399Y-78339703D01*
X132900903Y-78354663D01*
X133008705Y-78411242D01*
X133114887Y-78437414D01*
X133167978Y-78450500D01*
X133167979Y-78450500D01*
X133332022Y-78450500D01*
X133491291Y-78411243D01*
X133491291Y-78411242D01*
X133491295Y-78411242D01*
X133636546Y-78335008D01*
X133759332Y-78226229D01*
X133852518Y-78091226D01*
X133910688Y-77937845D01*
X133930461Y-77775000D01*
X133915462Y-77651472D01*
X135179296Y-77651472D01*
X135199082Y-77839728D01*
X135199083Y-77839731D01*
X135257574Y-78019749D01*
X135257577Y-78019756D01*
X135352223Y-78183688D01*
X135478885Y-78324360D01*
X135632021Y-78435620D01*
X135632026Y-78435623D01*
X135804948Y-78512614D01*
X135804953Y-78512616D01*
X135990110Y-78551972D01*
X135990112Y-78551972D01*
X135992088Y-78552180D01*
X135993154Y-78552619D01*
X135996467Y-78553323D01*
X135996338Y-78553928D01*
X136056702Y-78578767D01*
X136085150Y-78619536D01*
X136096677Y-78594297D01*
X136155455Y-78556523D01*
X136177424Y-78552180D01*
X136179399Y-78551972D01*
X136179402Y-78551972D01*
X136364559Y-78512616D01*
X136537486Y-78435623D01*
X136690627Y-78324360D01*
X136817289Y-78183688D01*
X136911935Y-78019756D01*
X136970430Y-77839728D01*
X136990216Y-77651472D01*
X136970430Y-77463216D01*
X136911935Y-77283188D01*
X136817289Y-77119256D01*
X136690627Y-76978584D01*
X136690626Y-76978583D01*
X136537490Y-76867323D01*
X136537485Y-76867320D01*
X136364563Y-76790329D01*
X136364558Y-76790327D01*
X136218757Y-76759337D01*
X136179402Y-76750972D01*
X135990110Y-76750972D01*
X135957653Y-76757870D01*
X135804953Y-76790327D01*
X135804948Y-76790329D01*
X135632026Y-76867320D01*
X135632021Y-76867323D01*
X135478885Y-76978583D01*
X135352222Y-77119257D01*
X135257577Y-77283187D01*
X135257574Y-77283194D01*
X135210994Y-77426554D01*
X135199082Y-77463216D01*
X135179296Y-77651472D01*
X133915462Y-77651472D01*
X133910688Y-77612155D01*
X133860014Y-77478541D01*
X133854648Y-77408881D01*
X133887795Y-77347374D01*
X133948933Y-77313553D01*
X133949301Y-77313471D01*
X134210931Y-77255882D01*
X134560328Y-77138155D01*
X134894919Y-76983357D01*
X134894932Y-76983350D01*
X135210824Y-76793286D01*
X135210841Y-76793274D01*
X135504340Y-76570161D01*
X135523479Y-76552031D01*
X134206879Y-75235431D01*
X134234180Y-75218168D01*
X134421501Y-75052216D01*
X134560511Y-74881958D01*
X135874501Y-76195948D01*
X135874502Y-76195948D01*
X136010690Y-76035615D01*
X136010701Y-76035601D01*
X136217593Y-75730458D01*
X136390284Y-75404728D01*
X136390293Y-75404710D01*
X136526754Y-75062216D01*
X136526756Y-75062209D01*
X136613440Y-74750000D01*
X138069540Y-74750000D01*
X138089326Y-74938256D01*
X138089327Y-74938259D01*
X138147818Y-75118277D01*
X138147821Y-75118284D01*
X138242467Y-75282216D01*
X138352778Y-75404728D01*
X138369129Y-75422888D01*
X138522265Y-75534148D01*
X138522270Y-75534151D01*
X138695192Y-75611142D01*
X138695197Y-75611144D01*
X138880354Y-75650500D01*
X138880355Y-75650500D01*
X139069644Y-75650500D01*
X139069646Y-75650500D01*
X139254803Y-75611144D01*
X139427730Y-75534151D01*
X139580871Y-75422888D01*
X139707533Y-75282216D01*
X139802179Y-75118284D01*
X139860674Y-74938256D01*
X139880460Y-74750000D01*
X139860674Y-74561744D01*
X139802179Y-74381716D01*
X139707533Y-74217784D01*
X139580871Y-74077112D01*
X139580870Y-74077111D01*
X139427734Y-73965851D01*
X139427729Y-73965848D01*
X139254807Y-73888857D01*
X139254803Y-73888856D01*
X139184659Y-73873946D01*
X139123178Y-73840753D01*
X139089401Y-73779590D01*
X139094055Y-73709875D01*
X139135659Y-73653743D01*
X139184655Y-73631368D01*
X139279803Y-73611144D01*
X139452730Y-73534151D01*
X139605871Y-73422888D01*
X139732533Y-73282216D01*
X139827179Y-73118284D01*
X139885674Y-72938256D01*
X139905460Y-72750000D01*
X139885674Y-72561744D01*
X139827179Y-72381716D01*
X139732533Y-72217784D01*
X139605871Y-72077112D01*
X139605870Y-72077111D01*
X139452734Y-71965851D01*
X139452729Y-71965848D01*
X139279807Y-71888857D01*
X139279802Y-71888855D01*
X139134001Y-71857865D01*
X139094646Y-71849500D01*
X138905354Y-71849500D01*
X138872897Y-71856398D01*
X138720197Y-71888855D01*
X138720192Y-71888857D01*
X138547270Y-71965848D01*
X138547265Y-71965851D01*
X138394129Y-72077111D01*
X138267466Y-72217785D01*
X138172821Y-72381715D01*
X138172818Y-72381722D01*
X138114327Y-72561740D01*
X138114326Y-72561744D01*
X138094540Y-72750000D01*
X138114326Y-72938256D01*
X138114327Y-72938259D01*
X138172818Y-73118277D01*
X138172821Y-73118284D01*
X138267467Y-73282216D01*
X138390695Y-73419074D01*
X138394129Y-73422888D01*
X138547265Y-73534148D01*
X138547270Y-73534151D01*
X138720192Y-73611142D01*
X138720193Y-73611142D01*
X138720197Y-73611144D01*
X138768110Y-73621328D01*
X138790338Y-73626053D01*
X138851820Y-73659245D01*
X138885597Y-73720408D01*
X138880945Y-73790123D01*
X138839341Y-73846255D01*
X138790339Y-73868633D01*
X138695197Y-73888855D01*
X138695192Y-73888857D01*
X138522270Y-73965848D01*
X138522265Y-73965851D01*
X138369129Y-74077111D01*
X138242466Y-74217785D01*
X138147821Y-74381715D01*
X138147818Y-74381722D01*
X138089327Y-74561740D01*
X138089326Y-74561744D01*
X138069540Y-74750000D01*
X136613440Y-74750000D01*
X136625383Y-74706986D01*
X136625389Y-74706960D01*
X136685032Y-74343159D01*
X136685033Y-74343142D01*
X136704994Y-73975000D01*
X136704994Y-73974997D01*
X136685033Y-73606857D01*
X136685032Y-73606840D01*
X136625389Y-73243039D01*
X136625383Y-73243013D01*
X136526756Y-72887790D01*
X136526754Y-72887783D01*
X136390293Y-72545289D01*
X136390284Y-72545271D01*
X136217593Y-72219541D01*
X136010692Y-71914385D01*
X135874502Y-71754050D01*
X135874501Y-71754049D01*
X134558647Y-73069903D01*
X134504544Y-72991520D01*
X134331184Y-72811034D01*
X134205133Y-72716313D01*
X135523478Y-71397967D01*
X135523478Y-71397966D01*
X135504356Y-71379852D01*
X135504344Y-71379841D01*
X135210841Y-71156725D01*
X135210824Y-71156713D01*
X134894932Y-70966649D01*
X134894919Y-70966642D01*
X134560328Y-70811844D01*
X134228391Y-70700000D01*
X138094540Y-70700000D01*
X138114326Y-70888256D01*
X138114327Y-70888259D01*
X138172818Y-71068277D01*
X138172821Y-71068284D01*
X138267467Y-71232216D01*
X138382406Y-71359868D01*
X138394129Y-71372888D01*
X138547265Y-71484148D01*
X138547270Y-71484151D01*
X138720192Y-71561142D01*
X138720197Y-71561144D01*
X138905354Y-71600500D01*
X138905355Y-71600500D01*
X139094644Y-71600500D01*
X139094646Y-71600500D01*
X139279803Y-71561144D01*
X139452730Y-71484151D01*
X139605871Y-71372888D01*
X139732533Y-71232216D01*
X139827179Y-71068284D01*
X139885674Y-70888256D01*
X139905460Y-70700000D01*
X139885674Y-70511744D01*
X139827179Y-70331716D01*
X139732533Y-70167784D01*
X139605871Y-70027112D01*
X139591506Y-70016675D01*
X139452734Y-69915851D01*
X139452729Y-69915848D01*
X139279807Y-69838857D01*
X139279802Y-69838855D01*
X139134001Y-69807865D01*
X139094646Y-69799500D01*
X138905354Y-69799500D01*
X138872897Y-69806398D01*
X138720197Y-69838855D01*
X138720192Y-69838857D01*
X138547270Y-69915848D01*
X138547265Y-69915851D01*
X138394129Y-70027111D01*
X138267466Y-70167785D01*
X138172821Y-70331715D01*
X138172818Y-70331722D01*
X138130789Y-70461076D01*
X138114326Y-70511744D01*
X138094540Y-70700000D01*
X134228391Y-70700000D01*
X134210931Y-70694117D01*
X133850865Y-70614861D01*
X133484344Y-70575000D01*
X133115655Y-70575000D01*
X132749134Y-70614861D01*
X132389068Y-70694117D01*
X132039671Y-70811844D01*
X131705080Y-70966642D01*
X131705067Y-70966649D01*
X131389175Y-71156713D01*
X131389158Y-71156725D01*
X131095657Y-71379840D01*
X131095643Y-71379852D01*
X131076520Y-71397966D01*
X131076520Y-71397968D01*
X132393120Y-72714568D01*
X132365820Y-72731832D01*
X132178499Y-72897784D01*
X132039488Y-73068040D01*
X130725497Y-71754049D01*
X130725496Y-71754050D01*
X130589314Y-71914376D01*
X130589307Y-71914386D01*
X130382406Y-72219541D01*
X130209715Y-72545271D01*
X130209706Y-72545289D01*
X130073245Y-72887783D01*
X130073243Y-72887790D01*
X129974616Y-73243013D01*
X129974610Y-73243039D01*
X129914967Y-73606840D01*
X129914966Y-73606857D01*
X129895006Y-73974997D01*
X129895006Y-73975000D01*
X129914966Y-74343142D01*
X129914967Y-74343159D01*
X129974610Y-74706960D01*
X129974616Y-74706986D01*
X130073243Y-75062209D01*
X130073245Y-75062216D01*
X130209706Y-75404710D01*
X130209715Y-75404728D01*
X130382406Y-75730458D01*
X130589307Y-76035614D01*
X130725496Y-76195948D01*
X130725497Y-76195949D01*
X132041351Y-74880095D01*
X132095456Y-74958480D01*
X132268816Y-75138966D01*
X132394865Y-75233686D01*
X131076520Y-76552031D01*
X131076520Y-76552032D01*
X131095643Y-76570147D01*
X131095655Y-76570158D01*
X131389158Y-76793274D01*
X131389175Y-76793286D01*
X131705067Y-76983350D01*
X131705071Y-76983353D01*
X131715030Y-76987960D01*
X131767609Y-77033974D01*
X131786964Y-77101109D01*
X131766950Y-77168051D01*
X131713921Y-77213546D01*
X131662965Y-77224500D01*
X131259397Y-77224500D01*
X131193174Y-77222238D01*
X131193173Y-77222238D01*
X131193171Y-77222238D01*
X131150170Y-77232717D01*
X131143930Y-77233902D01*
X131100079Y-77239930D01*
X131083616Y-77247081D01*
X131063575Y-77253820D01*
X131046150Y-77258066D01*
X131046145Y-77258068D01*
X131007567Y-77279758D01*
X131001881Y-77282582D01*
X130961279Y-77300220D01*
X130947357Y-77311546D01*
X130929883Y-77323438D01*
X130914246Y-77332230D01*
X130914239Y-77332235D01*
X130882939Y-77363535D01*
X130878225Y-77367789D01*
X130843891Y-77395722D01*
X130833541Y-77410385D01*
X130819920Y-77426554D01*
X129667382Y-78579092D01*
X129618957Y-78624317D01*
X129595956Y-78662139D01*
X129592384Y-78667388D01*
X129565639Y-78702658D01*
X129565636Y-78702663D01*
X129559055Y-78719352D01*
X129549653Y-78738283D01*
X129540327Y-78753619D01*
X129528385Y-78796237D01*
X129526362Y-78802255D01*
X129510122Y-78843440D01*
X129508288Y-78861284D01*
X129504342Y-78882048D01*
X129499501Y-78899328D01*
X129499500Y-78899337D01*
X129499500Y-78943594D01*
X129499175Y-78949939D01*
X129494648Y-78993970D01*
X129494648Y-78993975D01*
X129497697Y-79011656D01*
X129499500Y-79032724D01*
X129499500Y-83990602D01*
X129497238Y-84056829D01*
X129507715Y-84099819D01*
X129508901Y-84106061D01*
X129514929Y-84149920D01*
X129522079Y-84166379D01*
X129528818Y-84186419D01*
X129529389Y-84188761D01*
X129533067Y-84203851D01*
X129533071Y-84203861D01*
X129540120Y-84216399D01*
X129555128Y-84262219D01*
X129564311Y-84337844D01*
X129564312Y-84337848D01*
X129597555Y-84425500D01*
X129622482Y-84491226D01*
X129652550Y-84534787D01*
X129674433Y-84601140D01*
X129674500Y-84605226D01*
X129674500Y-87915602D01*
X129672238Y-87981829D01*
X129682715Y-88024819D01*
X129683901Y-88031061D01*
X129689929Y-88074920D01*
X129697079Y-88091379D01*
X129703819Y-88111420D01*
X129708067Y-88128852D01*
X129729763Y-88167439D01*
X129732582Y-88173115D01*
X129750220Y-88213720D01*
X129750221Y-88213722D01*
X129761541Y-88227636D01*
X129773439Y-88245117D01*
X129782234Y-88260760D01*
X129782236Y-88260761D01*
X129813532Y-88292057D01*
X129817783Y-88296766D01*
X129845722Y-88331108D01*
X129860381Y-88341455D01*
X129876552Y-88355077D01*
X130361238Y-88839763D01*
X130394723Y-88901086D01*
X130389739Y-88970778D01*
X130365708Y-89010415D01*
X130283200Y-89102051D01*
X130188555Y-89265981D01*
X130188552Y-89265988D01*
X130130061Y-89446006D01*
X130130060Y-89446010D01*
X130110274Y-89634266D01*
X130130060Y-89822522D01*
X130130061Y-89822525D01*
X130188552Y-90002543D01*
X130188555Y-90002550D01*
X130283201Y-90166482D01*
X130389923Y-90285008D01*
X130409863Y-90307154D01*
X130562999Y-90418414D01*
X130563004Y-90418417D01*
X130735926Y-90495408D01*
X130735931Y-90495410D01*
X130921088Y-90534766D01*
X130921089Y-90534766D01*
X131110378Y-90534766D01*
X131110380Y-90534766D01*
X131295537Y-90495410D01*
X131468464Y-90418417D01*
X131621605Y-90307154D01*
X131748267Y-90166482D01*
X131842913Y-90002550D01*
X131842915Y-90002543D01*
X131843834Y-90000952D01*
X131894401Y-89952736D01*
X131963008Y-89939512D01*
X132027873Y-89965480D01*
X132038903Y-89975270D01*
X134546237Y-92482603D01*
X134561031Y-92498443D01*
X134576347Y-92514843D01*
X134607719Y-92577274D01*
X134600357Y-92646755D01*
X134556600Y-92701226D01*
X134490340Y-92723393D01*
X134485723Y-92723479D01*
X134319241Y-92723479D01*
X134276967Y-92732463D01*
X134270779Y-92733455D01*
X134224720Y-92738465D01*
X134187085Y-92751146D01*
X134180175Y-92753038D01*
X134144366Y-92760650D01*
X134144365Y-92760650D01*
X134101859Y-92779575D01*
X134096437Y-92781690D01*
X134049421Y-92797531D01*
X134049414Y-92797534D01*
X134049413Y-92797535D01*
X134047324Y-92798792D01*
X134018217Y-92816304D01*
X134011467Y-92819820D01*
X133981041Y-92833367D01*
X133940733Y-92862651D01*
X133936255Y-92865617D01*
X133890898Y-92892909D01*
X133890891Y-92892914D01*
X133866863Y-92915673D01*
X133860667Y-92920822D01*
X133836409Y-92938448D01*
X133836405Y-92938451D01*
X133800858Y-92977929D01*
X133797422Y-92981453D01*
X133791649Y-92986922D01*
X133729443Y-93018736D01*
X133692190Y-93019563D01*
X133692172Y-93019816D01*
X133689479Y-93019623D01*
X133688732Y-93019639D01*
X133687759Y-93019500D01*
X132678782Y-93019500D01*
X132678776Y-93019500D01*
X132550861Y-93035954D01*
X132550859Y-93035954D01*
X132550855Y-93035955D01*
X132528767Y-93041733D01*
X132490138Y-93051837D01*
X132490136Y-93051838D01*
X132370545Y-93100127D01*
X132256391Y-93187719D01*
X132238999Y-93205530D01*
X132178078Y-93239740D01*
X132108332Y-93235583D01*
X132069082Y-93212608D01*
X131961554Y-93119433D01*
X131961551Y-93119431D01*
X131961549Y-93119430D01*
X131830683Y-93059664D01*
X131830678Y-93059662D01*
X131830677Y-93059662D01*
X131804028Y-93051837D01*
X131763643Y-93039978D01*
X131763637Y-93039976D01*
X131674161Y-93027112D01*
X131621218Y-93019500D01*
X130612823Y-93019500D01*
X130585784Y-93020949D01*
X130585776Y-93020949D01*
X130585773Y-93020950D01*
X130585772Y-93020950D01*
X130545964Y-93025231D01*
X130492554Y-93033885D01*
X130492552Y-93033885D01*
X130357747Y-93084166D01*
X130296422Y-93117651D01*
X130181240Y-93203876D01*
X130181228Y-93203886D01*
X129894296Y-93490819D01*
X129876209Y-93510956D01*
X129876209Y-93510955D01*
X129851080Y-93542139D01*
X129819433Y-93586025D01*
X129759663Y-93716899D01*
X129739978Y-93783937D01*
X129739976Y-93783942D01*
X129724979Y-93888256D01*
X129719500Y-93926362D01*
X129719500Y-94150001D01*
X129719500Y-95712177D01*
X129719664Y-95715244D01*
X129720950Y-95739227D01*
X129720950Y-95739228D01*
X129725231Y-95779036D01*
X129733885Y-95832445D01*
X129733885Y-95832447D01*
X129745378Y-95863259D01*
X129784168Y-95967257D01*
X129806555Y-96008256D01*
X129816456Y-96026389D01*
X129817653Y-96028580D01*
X129903877Y-96143761D01*
X129903881Y-96143765D01*
X129903886Y-96143771D01*
X130315819Y-96555704D01*
X130315820Y-96555704D01*
X130335956Y-96573791D01*
X130335955Y-96573791D01*
X130367139Y-96598920D01*
X130367142Y-96598922D01*
X130411026Y-96630567D01*
X130541903Y-96690338D01*
X130584446Y-96702830D01*
X130608937Y-96710022D01*
X130608942Y-96710023D01*
X130608946Y-96710024D01*
X130751362Y-96730500D01*
X130751365Y-96730500D01*
X131652157Y-96730500D01*
X131719196Y-96750185D01*
X131764951Y-96802989D01*
X131774895Y-96872147D01*
X131745870Y-96935703D01*
X131707702Y-96964422D01*
X131708046Y-96965070D01*
X131705067Y-96966649D01*
X131389175Y-97156713D01*
X131389158Y-97156725D01*
X131095657Y-97379840D01*
X131095643Y-97379852D01*
X131076520Y-97397966D01*
X131076520Y-97397968D01*
X132393120Y-98714568D01*
X132365820Y-98731832D01*
X132178499Y-98897784D01*
X132039488Y-99068040D01*
X130725497Y-97754049D01*
X130725496Y-97754050D01*
X130589314Y-97914376D01*
X130589307Y-97914386D01*
X130382406Y-98219541D01*
X130209715Y-98545271D01*
X130209706Y-98545289D01*
X130073245Y-98887783D01*
X130073243Y-98887790D01*
X129974616Y-99243013D01*
X129974610Y-99243039D01*
X129914967Y-99606840D01*
X129914966Y-99606857D01*
X129895006Y-99974997D01*
X129895006Y-99975000D01*
X129914966Y-100343142D01*
X129914967Y-100343159D01*
X129974610Y-100706960D01*
X129974616Y-100706986D01*
X130073240Y-101062199D01*
X130073245Y-101062216D01*
X130209706Y-101404710D01*
X130209715Y-101404728D01*
X130382406Y-101730458D01*
X130589307Y-102035614D01*
X130725496Y-102195948D01*
X130725497Y-102195949D01*
X132041351Y-100880095D01*
X132095456Y-100958480D01*
X132268816Y-101138966D01*
X132394865Y-101233685D01*
X131076520Y-102552031D01*
X131076520Y-102552032D01*
X131095643Y-102570147D01*
X131095655Y-102570158D01*
X131389158Y-102793274D01*
X131389175Y-102793286D01*
X131705067Y-102983350D01*
X131705080Y-102983357D01*
X132039671Y-103138155D01*
X132389068Y-103255882D01*
X132749134Y-103335138D01*
X133115655Y-103374999D01*
X133115663Y-103375000D01*
X133484337Y-103375000D01*
X133484344Y-103374999D01*
X133850865Y-103335138D01*
X134210931Y-103255882D01*
X134560328Y-103138155D01*
X134894919Y-102983357D01*
X134894932Y-102983350D01*
X135210824Y-102793286D01*
X135210841Y-102793274D01*
X135504343Y-102570159D01*
X135504347Y-102570156D01*
X135632138Y-102449106D01*
X135694345Y-102417294D01*
X135763876Y-102424163D01*
X135818656Y-102467534D01*
X135841291Y-102533635D01*
X135841203Y-102546339D01*
X135832282Y-102699500D01*
X135832060Y-102703315D01*
X135845545Y-102779790D01*
X135860304Y-102863494D01*
X135862335Y-102875009D01*
X135931388Y-103035093D01*
X135931389Y-103035095D01*
X135931391Y-103035098D01*
X136006566Y-103136074D01*
X136035499Y-103174938D01*
X136169053Y-103287004D01*
X136324852Y-103365249D01*
X136494496Y-103405455D01*
X136494498Y-103405455D01*
X136625096Y-103405455D01*
X136625103Y-103405455D01*
X136754831Y-103390292D01*
X136918660Y-103330663D01*
X137064321Y-103234860D01*
X137183963Y-103108048D01*
X137271134Y-102957062D01*
X137321136Y-102790043D01*
X137331274Y-102615995D01*
X137300999Y-102444301D01*
X137231946Y-102284217D01*
X137198495Y-102239285D01*
X137127834Y-102144371D01*
X136994281Y-102032306D01*
X136994279Y-102032305D01*
X136838485Y-101954062D01*
X136838483Y-101954061D01*
X136838482Y-101954061D01*
X136668838Y-101913855D01*
X136538231Y-101913855D01*
X136424719Y-101927122D01*
X136408502Y-101929018D01*
X136408498Y-101929019D01*
X136336402Y-101955260D01*
X136266673Y-101959691D01*
X136205617Y-101925720D01*
X136183246Y-101883966D01*
X144674500Y-101883966D01*
X144689936Y-102060403D01*
X144689938Y-102060413D01*
X144751094Y-102288655D01*
X144751096Y-102288659D01*
X144751097Y-102288663D01*
X144775000Y-102339922D01*
X144850964Y-102502828D01*
X144850965Y-102502830D01*
X144986505Y-102696402D01*
X145080142Y-102790038D01*
X145153599Y-102863495D01*
X145210061Y-102903030D01*
X145347165Y-102999032D01*
X145347167Y-102999033D01*
X145347170Y-102999035D01*
X145561337Y-103098903D01*
X145789592Y-103160063D01*
X145966034Y-103175500D01*
X146024999Y-103180659D01*
X146025000Y-103180659D01*
X146025001Y-103180659D01*
X146083966Y-103175500D01*
X146260408Y-103160063D01*
X146488663Y-103098903D01*
X146702829Y-102999035D01*
X146896401Y-102863495D01*
X147063495Y-102696401D01*
X147173426Y-102539401D01*
X147228001Y-102495778D01*
X147297500Y-102488584D01*
X147359855Y-102520106D01*
X147376571Y-102539398D01*
X147430899Y-102616987D01*
X147486506Y-102696403D01*
X147580142Y-102790038D01*
X147653599Y-102863495D01*
X147710061Y-102903030D01*
X147847165Y-102999032D01*
X147847167Y-102999033D01*
X147847170Y-102999035D01*
X148061337Y-103098903D01*
X148289592Y-103160063D01*
X148466034Y-103175500D01*
X148524999Y-103180659D01*
X148525000Y-103180659D01*
X148525001Y-103180659D01*
X148583966Y-103175500D01*
X148760408Y-103160063D01*
X148988663Y-103098903D01*
X149202829Y-102999035D01*
X149396401Y-102863495D01*
X149563495Y-102696401D01*
X149673732Y-102538965D01*
X149728306Y-102495342D01*
X149797805Y-102488148D01*
X149860159Y-102519670D01*
X149876880Y-102538967D01*
X149986886Y-102696073D01*
X149986891Y-102696079D01*
X150153917Y-102863105D01*
X150347421Y-102998600D01*
X150561507Y-103098429D01*
X150561516Y-103098433D01*
X150775000Y-103155634D01*
X150775000Y-102108018D01*
X150889801Y-102160446D01*
X150991025Y-102175000D01*
X151058975Y-102175000D01*
X151160199Y-102160446D01*
X151275000Y-102108018D01*
X151275000Y-103155633D01*
X151488483Y-103098433D01*
X151488492Y-103098429D01*
X151702577Y-102998600D01*
X151702579Y-102998599D01*
X151896073Y-102863113D01*
X151896079Y-102863108D01*
X152043331Y-102715857D01*
X152104654Y-102682372D01*
X152174346Y-102687356D01*
X152230279Y-102729228D01*
X152236551Y-102738441D01*
X152240186Y-102744334D01*
X152332288Y-102893656D01*
X152456344Y-103017712D01*
X152605666Y-103109814D01*
X152772203Y-103164999D01*
X152874991Y-103175500D01*
X154175008Y-103175499D01*
X154277797Y-103164999D01*
X154444334Y-103109814D01*
X154593656Y-103017712D01*
X154717712Y-102893656D01*
X154809814Y-102744334D01*
X154864999Y-102577797D01*
X154875500Y-102475009D01*
X154875499Y-100924992D01*
X154874156Y-100911849D01*
X154864999Y-100822203D01*
X154864998Y-100822200D01*
X154843171Y-100756330D01*
X154809814Y-100655666D01*
X154717712Y-100506344D01*
X154593656Y-100382288D01*
X154462786Y-100301567D01*
X154444336Y-100290187D01*
X154444331Y-100290185D01*
X154431849Y-100286049D01*
X154277797Y-100235001D01*
X154277795Y-100235000D01*
X154175010Y-100224500D01*
X152874998Y-100224500D01*
X152874981Y-100224501D01*
X152772203Y-100235000D01*
X152772200Y-100235001D01*
X152605668Y-100290185D01*
X152605663Y-100290187D01*
X152456342Y-100382289D01*
X152332288Y-100506343D01*
X152332285Y-100506347D01*
X152236550Y-100661558D01*
X152184602Y-100708283D01*
X152115640Y-100719504D01*
X152051558Y-100691661D01*
X152043331Y-100684143D01*
X151896078Y-100536891D01*
X151702578Y-100401399D01*
X151488492Y-100301570D01*
X151488486Y-100301567D01*
X151275000Y-100244364D01*
X151275000Y-101291981D01*
X151160199Y-101239554D01*
X151058975Y-101225000D01*
X150991025Y-101225000D01*
X150889801Y-101239554D01*
X150775000Y-101291981D01*
X150775000Y-100244364D01*
X150774999Y-100244364D01*
X150561513Y-100301567D01*
X150561507Y-100301570D01*
X150347422Y-100401399D01*
X150347420Y-100401400D01*
X150153926Y-100536886D01*
X150153920Y-100536891D01*
X149986891Y-100703920D01*
X149986890Y-100703922D01*
X149876880Y-100861032D01*
X149822303Y-100904657D01*
X149752804Y-100911849D01*
X149690450Y-100880327D01*
X149673730Y-100861031D01*
X149563494Y-100703597D01*
X149396402Y-100536506D01*
X149396395Y-100536501D01*
X149202834Y-100400967D01*
X149202830Y-100400965D01*
X149137470Y-100370487D01*
X148988663Y-100301097D01*
X148988659Y-100301096D01*
X148988655Y-100301094D01*
X148760413Y-100239938D01*
X148760403Y-100239936D01*
X148525001Y-100219341D01*
X148524999Y-100219341D01*
X148289596Y-100239936D01*
X148289586Y-100239938D01*
X148061344Y-100301094D01*
X148061335Y-100301098D01*
X147847171Y-100400964D01*
X147847169Y-100400965D01*
X147653597Y-100536505D01*
X147486505Y-100703597D01*
X147376575Y-100860595D01*
X147321998Y-100904220D01*
X147252500Y-100911414D01*
X147190145Y-100879891D01*
X147173425Y-100860595D01*
X147063494Y-100703597D01*
X146896402Y-100536506D01*
X146896395Y-100536501D01*
X146702834Y-100400967D01*
X146702830Y-100400965D01*
X146637470Y-100370487D01*
X146488663Y-100301097D01*
X146488659Y-100301096D01*
X146488655Y-100301094D01*
X146260413Y-100239938D01*
X146260403Y-100239936D01*
X146025001Y-100219341D01*
X146024999Y-100219341D01*
X145789596Y-100239936D01*
X145789586Y-100239938D01*
X145561344Y-100301094D01*
X145561335Y-100301098D01*
X145347171Y-100400964D01*
X145347169Y-100400965D01*
X145153597Y-100536505D01*
X144986505Y-100703597D01*
X144850965Y-100897169D01*
X144850964Y-100897171D01*
X144751098Y-101111335D01*
X144751094Y-101111344D01*
X144689938Y-101339586D01*
X144689936Y-101339596D01*
X144674500Y-101516034D01*
X144674500Y-101883966D01*
X136183246Y-101883966D01*
X136172620Y-101864133D01*
X136178158Y-101794483D01*
X136191359Y-101769150D01*
X136217596Y-101730453D01*
X136390284Y-101404728D01*
X136390293Y-101404710D01*
X136526754Y-101062216D01*
X136526760Y-101062199D01*
X136617141Y-100736672D01*
X140624864Y-100736672D01*
X140655139Y-100908366D01*
X140724192Y-101068450D01*
X140724193Y-101068452D01*
X140724195Y-101068455D01*
X140799452Y-101169542D01*
X140828303Y-101208295D01*
X140961857Y-101320361D01*
X141117656Y-101398606D01*
X141287300Y-101438812D01*
X141287302Y-101438812D01*
X141417900Y-101438812D01*
X141417907Y-101438812D01*
X141547635Y-101423649D01*
X141711464Y-101364020D01*
X141857125Y-101268217D01*
X141976767Y-101141405D01*
X142063938Y-100990419D01*
X142113940Y-100823400D01*
X142124078Y-100649352D01*
X142093803Y-100477658D01*
X142024750Y-100317574D01*
X142012835Y-100301570D01*
X141920638Y-100177728D01*
X141787085Y-100065663D01*
X141787083Y-100065662D01*
X141631289Y-99987419D01*
X141631287Y-99987418D01*
X141631286Y-99987418D01*
X141578890Y-99975000D01*
X155895006Y-99975000D01*
X155914966Y-100343142D01*
X155914967Y-100343159D01*
X155974610Y-100706960D01*
X155974616Y-100706986D01*
X156073240Y-101062199D01*
X156073245Y-101062216D01*
X156209706Y-101404710D01*
X156209715Y-101404728D01*
X156382406Y-101730458D01*
X156589307Y-102035614D01*
X156725496Y-102195948D01*
X156725497Y-102195949D01*
X158041351Y-100880095D01*
X158095456Y-100958480D01*
X158268816Y-101138966D01*
X158394865Y-101233686D01*
X157076520Y-102552031D01*
X157076520Y-102552032D01*
X157095643Y-102570147D01*
X157095655Y-102570158D01*
X157389158Y-102793274D01*
X157389175Y-102793286D01*
X157705067Y-102983350D01*
X157705080Y-102983357D01*
X158039671Y-103138155D01*
X158389068Y-103255882D01*
X158749134Y-103335138D01*
X159115655Y-103374999D01*
X159115663Y-103375000D01*
X159484337Y-103375000D01*
X159484344Y-103374999D01*
X159850865Y-103335138D01*
X160210931Y-103255882D01*
X160560328Y-103138155D01*
X160894919Y-102983357D01*
X160894932Y-102983350D01*
X161210824Y-102793286D01*
X161210841Y-102793274D01*
X161504340Y-102570161D01*
X161523479Y-102552031D01*
X160206879Y-101235431D01*
X160234180Y-101218168D01*
X160421501Y-101052216D01*
X160560511Y-100881958D01*
X161874501Y-102195948D01*
X161874502Y-102195948D01*
X162010690Y-102035615D01*
X162010701Y-102035601D01*
X162217593Y-101730458D01*
X162390284Y-101404728D01*
X162390293Y-101404710D01*
X162526754Y-101062216D01*
X162526760Y-101062199D01*
X162625383Y-100706986D01*
X162625389Y-100706960D01*
X162685032Y-100343159D01*
X162685033Y-100343142D01*
X162704994Y-99975000D01*
X162704994Y-99974997D01*
X162685033Y-99606857D01*
X162685032Y-99606840D01*
X162625389Y-99243039D01*
X162625383Y-99243013D01*
X162526756Y-98887790D01*
X162526754Y-98887783D01*
X162390293Y-98545289D01*
X162390284Y-98545271D01*
X162217593Y-98219541D01*
X162010692Y-97914385D01*
X161874502Y-97754050D01*
X161874501Y-97754049D01*
X160558647Y-99069903D01*
X160504544Y-98991520D01*
X160331184Y-98811034D01*
X160205133Y-98716313D01*
X161523478Y-97397967D01*
X161523478Y-97397966D01*
X161504356Y-97379852D01*
X161504344Y-97379841D01*
X161210841Y-97156725D01*
X161210824Y-97156713D01*
X160894932Y-96966649D01*
X160894919Y-96966642D01*
X160560328Y-96811844D01*
X160210931Y-96694117D01*
X159850865Y-96614861D01*
X159484344Y-96575000D01*
X159115655Y-96575000D01*
X158749134Y-96614861D01*
X158389068Y-96694117D01*
X158039671Y-96811844D01*
X157705080Y-96966642D01*
X157705067Y-96966649D01*
X157389175Y-97156713D01*
X157389158Y-97156725D01*
X157095657Y-97379840D01*
X157095643Y-97379852D01*
X157076520Y-97397966D01*
X157076520Y-97397968D01*
X158393120Y-98714568D01*
X158365820Y-98731832D01*
X158178499Y-98897784D01*
X158039488Y-99068040D01*
X156725497Y-97754049D01*
X156725496Y-97754050D01*
X156589314Y-97914376D01*
X156589307Y-97914386D01*
X156382406Y-98219541D01*
X156209715Y-98545271D01*
X156209706Y-98545289D01*
X156073245Y-98887783D01*
X156073243Y-98887790D01*
X155974616Y-99243013D01*
X155974610Y-99243039D01*
X155914967Y-99606840D01*
X155914966Y-99606857D01*
X155895006Y-99974997D01*
X155895006Y-99975000D01*
X141578890Y-99975000D01*
X141461642Y-99947212D01*
X141331035Y-99947212D01*
X141217523Y-99960479D01*
X141201306Y-99962375D01*
X141201303Y-99962376D01*
X141037479Y-100022003D01*
X141037475Y-100022005D01*
X140891819Y-100117804D01*
X140891818Y-100117805D01*
X140772177Y-100244615D01*
X140772174Y-100244621D01*
X140685005Y-100395602D01*
X140635002Y-100562622D01*
X140635001Y-100562628D01*
X140625864Y-100719504D01*
X140624864Y-100736672D01*
X136617141Y-100736672D01*
X136625383Y-100706986D01*
X136625385Y-100706978D01*
X136641937Y-100606018D01*
X136672208Y-100543046D01*
X136731719Y-100506437D01*
X136801575Y-100507813D01*
X136809098Y-100510452D01*
X136921002Y-100553803D01*
X136987061Y-100566151D01*
X136987061Y-99817168D01*
X137039603Y-99852991D01*
X137169233Y-99892977D01*
X137270784Y-99892977D01*
X137371203Y-99877841D01*
X137487061Y-99822046D01*
X137487061Y-100566150D01*
X137553119Y-100553803D01*
X137751853Y-100476814D01*
X137751859Y-100476811D01*
X137933058Y-100364618D01*
X137933060Y-100364616D01*
X138090560Y-100221036D01*
X138218999Y-100050956D01*
X138313993Y-99860183D01*
X138313998Y-99860170D01*
X138361573Y-99692965D01*
X137612353Y-99692965D01*
X137660697Y-99609230D01*
X137690883Y-99476974D01*
X137680746Y-99341697D01*
X137672425Y-99320496D01*
X137715872Y-99340338D01*
X137758644Y-99352897D01*
X137782906Y-99360022D01*
X137782911Y-99360023D01*
X137782915Y-99360024D01*
X137925331Y-99380500D01*
X137925334Y-99380500D01*
X139612173Y-99380500D01*
X139612177Y-99380500D01*
X139639216Y-99379051D01*
X139639223Y-99379050D01*
X139639227Y-99379050D01*
X139639228Y-99379050D01*
X139679036Y-99374769D01*
X139732448Y-99366114D01*
X139867257Y-99315832D01*
X139928580Y-99282347D01*
X140043761Y-99196123D01*
X142505697Y-96734188D01*
X142505697Y-96734187D01*
X142505704Y-96734181D01*
X142505704Y-96734180D01*
X142507369Y-96732327D01*
X142523791Y-96714044D01*
X142523791Y-96714045D01*
X142548920Y-96682861D01*
X142553362Y-96676699D01*
X142580567Y-96638974D01*
X142640338Y-96508097D01*
X142660023Y-96441058D01*
X142660024Y-96441054D01*
X142680500Y-96298638D01*
X142680500Y-95675000D01*
X145094540Y-95675000D01*
X145114326Y-95863256D01*
X145114327Y-95863259D01*
X145172818Y-96043277D01*
X145172821Y-96043284D01*
X145267467Y-96207216D01*
X145373971Y-96325500D01*
X145394129Y-96347888D01*
X145547265Y-96459148D01*
X145547270Y-96459151D01*
X145720192Y-96536142D01*
X145720197Y-96536144D01*
X145905354Y-96575500D01*
X145905355Y-96575500D01*
X146094644Y-96575500D01*
X146094646Y-96575500D01*
X146279803Y-96536144D01*
X146452730Y-96459151D01*
X146605871Y-96347888D01*
X146732533Y-96207216D01*
X146827179Y-96043284D01*
X146885674Y-95863256D01*
X146905460Y-95675000D01*
X146885674Y-95486744D01*
X146827179Y-95306716D01*
X146732533Y-95142784D01*
X146605871Y-95002112D01*
X146605870Y-95002111D01*
X146452734Y-94890851D01*
X146452729Y-94890848D01*
X146279807Y-94813857D01*
X146279802Y-94813855D01*
X146134001Y-94782865D01*
X146094646Y-94774500D01*
X145905354Y-94774500D01*
X145872897Y-94781398D01*
X145720197Y-94813855D01*
X145720192Y-94813857D01*
X145547270Y-94890848D01*
X145547265Y-94890851D01*
X145394129Y-95002111D01*
X145267466Y-95142785D01*
X145172821Y-95306715D01*
X145172818Y-95306722D01*
X145114327Y-95486740D01*
X145114326Y-95486744D01*
X145094540Y-95675000D01*
X142680500Y-95675000D01*
X142680500Y-94837823D01*
X142679051Y-94810784D01*
X142674769Y-94770964D01*
X142666114Y-94717552D01*
X142615832Y-94582743D01*
X142582347Y-94521420D01*
X142496123Y-94406239D01*
X142496117Y-94406233D01*
X142496113Y-94406228D01*
X141650422Y-93560536D01*
X141644011Y-93554350D01*
X141637421Y-93548102D01*
X141637417Y-93548099D01*
X141519239Y-93466046D01*
X141519236Y-93466044D01*
X141519234Y-93466043D01*
X141473538Y-93443169D01*
X141456760Y-93434770D01*
X141456744Y-93434763D01*
X141320243Y-93389331D01*
X141320244Y-93389331D01*
X141176454Y-93384194D01*
X141176453Y-93384194D01*
X141145737Y-93387496D01*
X141106982Y-93391662D01*
X141106976Y-93391662D01*
X140967562Y-93427246D01*
X140964292Y-93428601D01*
X140894822Y-93436063D01*
X140832346Y-93404781D01*
X140812536Y-93381075D01*
X140738878Y-93266462D01*
X140738869Y-93266451D01*
X140693125Y-93213659D01*
X140693121Y-93213656D01*
X140693119Y-93213653D01*
X140584385Y-93119433D01*
X140584382Y-93119431D01*
X140584380Y-93119430D01*
X140453514Y-93059664D01*
X140453509Y-93059662D01*
X140453508Y-93059662D01*
X140426859Y-93051837D01*
X140386474Y-93039978D01*
X140386468Y-93039976D01*
X140296992Y-93027112D01*
X140244049Y-93019500D01*
X138152513Y-93019500D01*
X138085474Y-92999815D01*
X138039719Y-92947011D01*
X138029042Y-92906941D01*
X138018240Y-92790367D01*
X138019706Y-92790231D01*
X138026030Y-92727761D01*
X138069532Y-92673086D01*
X138135687Y-92650609D01*
X138140884Y-92650500D01*
X142799256Y-92650500D01*
X142866295Y-92670185D01*
X142881480Y-92681682D01*
X142913454Y-92710008D01*
X143058705Y-92786242D01*
X143058707Y-92786242D01*
X143058708Y-92786243D01*
X143217978Y-92825500D01*
X143217979Y-92825500D01*
X143382022Y-92825500D01*
X143541291Y-92786243D01*
X143541291Y-92786242D01*
X143541295Y-92786242D01*
X143686546Y-92710008D01*
X143809332Y-92601229D01*
X143902518Y-92466226D01*
X143935019Y-92380527D01*
X143977198Y-92324826D01*
X144042795Y-92300769D01*
X144050961Y-92300500D01*
X144314243Y-92300500D01*
X144381282Y-92320185D01*
X144401924Y-92336819D01*
X144597709Y-92532603D01*
X144642950Y-92581044D01*
X144680770Y-92604042D01*
X144686009Y-92607607D01*
X144721288Y-92634361D01*
X144737983Y-92640944D01*
X144756920Y-92650351D01*
X144772248Y-92659672D01*
X144798160Y-92666932D01*
X144814867Y-92671613D01*
X144820884Y-92673636D01*
X144831755Y-92677923D01*
X144849875Y-92685069D01*
X144862065Y-92689876D01*
X144879914Y-92691710D01*
X144900686Y-92695658D01*
X144910044Y-92698280D01*
X144917964Y-92700500D01*
X144917965Y-92700500D01*
X144962231Y-92700500D01*
X144968572Y-92700824D01*
X145012601Y-92705351D01*
X145030280Y-92702302D01*
X145051348Y-92700500D01*
X146640603Y-92700500D01*
X146706826Y-92702762D01*
X146749832Y-92692280D01*
X146756051Y-92691098D01*
X146799920Y-92685070D01*
X146816383Y-92677918D01*
X146836416Y-92671181D01*
X146853852Y-92666933D01*
X146892465Y-92645221D01*
X146898090Y-92642427D01*
X146938720Y-92624780D01*
X146952632Y-92613460D01*
X146970123Y-92601557D01*
X146985755Y-92592768D01*
X146985753Y-92592768D01*
X146985759Y-92592766D01*
X147017059Y-92561464D01*
X147021771Y-92557211D01*
X147056108Y-92529278D01*
X147066456Y-92514616D01*
X147080074Y-92498449D01*
X147535453Y-92043070D01*
X147593456Y-92010356D01*
X147691295Y-91986242D01*
X147742374Y-91959432D01*
X147810881Y-91945707D01*
X147857624Y-91959432D01*
X147908705Y-91986242D01*
X148067978Y-92025500D01*
X148067979Y-92025500D01*
X148232022Y-92025500D01*
X148391291Y-91986243D01*
X148391291Y-91986242D01*
X148391295Y-91986242D01*
X148536546Y-91910008D01*
X148659332Y-91801229D01*
X148752518Y-91666226D01*
X148810688Y-91512845D01*
X148830461Y-91350000D01*
X148829180Y-91339450D01*
X148840638Y-91270526D01*
X148887540Y-91218739D01*
X148952275Y-91200500D01*
X151048445Y-91200500D01*
X151114668Y-91202762D01*
X151157674Y-91192280D01*
X151163893Y-91191098D01*
X151207762Y-91185070D01*
X151224225Y-91177918D01*
X151244258Y-91171181D01*
X151261694Y-91166933D01*
X151300307Y-91145221D01*
X151305932Y-91142427D01*
X151346562Y-91124780D01*
X151360474Y-91113460D01*
X151377965Y-91101557D01*
X151393597Y-91092768D01*
X151393595Y-91092768D01*
X151393601Y-91092766D01*
X151424901Y-91061464D01*
X151429613Y-91057211D01*
X151463950Y-91029278D01*
X151474298Y-91014616D01*
X151487916Y-90998449D01*
X152049548Y-90436819D01*
X152110871Y-90403334D01*
X152137229Y-90400500D01*
X153965603Y-90400500D01*
X154031826Y-90402762D01*
X154031833Y-90402760D01*
X154039222Y-90402001D01*
X154107923Y-90414726D01*
X154158838Y-90462573D01*
X154175803Y-90530352D01*
X154153431Y-90596543D01*
X154127392Y-90623725D01*
X154090786Y-90651815D01*
X154026495Y-90710611D01*
X154026490Y-90710616D01*
X153997668Y-90741946D01*
X153944432Y-90810895D01*
X153884664Y-90941766D01*
X153864978Y-91008807D01*
X153864976Y-91008812D01*
X153844500Y-91151233D01*
X153844500Y-91237173D01*
X153845950Y-91264227D01*
X153845950Y-91264228D01*
X153850231Y-91304036D01*
X153858885Y-91357445D01*
X153858885Y-91357447D01*
X153909166Y-91492252D01*
X153909168Y-91492257D01*
X153942653Y-91553580D01*
X154028877Y-91668761D01*
X154028881Y-91668765D01*
X154028886Y-91668771D01*
X155140819Y-92780704D01*
X155140820Y-92780704D01*
X155146985Y-92786242D01*
X155160956Y-92798791D01*
X155160955Y-92798791D01*
X155192139Y-92823920D01*
X155192142Y-92823922D01*
X155236026Y-92855567D01*
X155366903Y-92915338D01*
X155406020Y-92926824D01*
X155433937Y-92935022D01*
X155433942Y-92935023D01*
X155433946Y-92935024D01*
X155576362Y-92955500D01*
X155576365Y-92955500D01*
X156662173Y-92955500D01*
X156662177Y-92955500D01*
X156689216Y-92954051D01*
X156689223Y-92954050D01*
X156689227Y-92954050D01*
X156689228Y-92954050D01*
X156729036Y-92949769D01*
X156782448Y-92941114D01*
X156917257Y-92890832D01*
X156978580Y-92857347D01*
X157093762Y-92771123D01*
X157764885Y-92100000D01*
X161244540Y-92100000D01*
X161264326Y-92288256D01*
X161264327Y-92288259D01*
X161322818Y-92468277D01*
X161322821Y-92468284D01*
X161417467Y-92632216D01*
X161507730Y-92732463D01*
X161544129Y-92772888D01*
X161606007Y-92817845D01*
X161648673Y-92873175D01*
X161654652Y-92942788D01*
X161622046Y-93004583D01*
X161606011Y-93018478D01*
X161594132Y-93027109D01*
X161594129Y-93027111D01*
X161467466Y-93167785D01*
X161372821Y-93331715D01*
X161372818Y-93331722D01*
X161314327Y-93511740D01*
X161314326Y-93511744D01*
X161294540Y-93700000D01*
X161314326Y-93888256D01*
X161314327Y-93888259D01*
X161372821Y-94068285D01*
X161372822Y-94068286D01*
X161376990Y-94075507D01*
X161393458Y-94143408D01*
X161376990Y-94199493D01*
X161372822Y-94206713D01*
X161372821Y-94206714D01*
X161314327Y-94386740D01*
X161314326Y-94386744D01*
X161294540Y-94575000D01*
X161314326Y-94763256D01*
X161314327Y-94763259D01*
X161370341Y-94935653D01*
X161372336Y-95005494D01*
X161359799Y-95035968D01*
X161347821Y-95056715D01*
X161319855Y-95142785D01*
X161289326Y-95236744D01*
X161269540Y-95425000D01*
X161289326Y-95613256D01*
X161289327Y-95613259D01*
X161347818Y-95793277D01*
X161347821Y-95793284D01*
X161442467Y-95957216D01*
X161524977Y-96048852D01*
X161569129Y-96097888D01*
X161722265Y-96209148D01*
X161722270Y-96209151D01*
X161895192Y-96286142D01*
X161895197Y-96286144D01*
X162080354Y-96325500D01*
X162080355Y-96325500D01*
X162269644Y-96325500D01*
X162269646Y-96325500D01*
X162454803Y-96286144D01*
X162627730Y-96209151D01*
X162780871Y-96097888D01*
X162907533Y-95957216D01*
X163002179Y-95793284D01*
X163060674Y-95613256D01*
X163080460Y-95425000D01*
X163060674Y-95236744D01*
X163004658Y-95064345D01*
X163002663Y-94994504D01*
X163015200Y-94964031D01*
X163027179Y-94943284D01*
X163085674Y-94763256D01*
X163105460Y-94575000D01*
X163085674Y-94386744D01*
X163027179Y-94206716D01*
X163023013Y-94199501D01*
X163006539Y-94131604D01*
X163023013Y-94075498D01*
X163027179Y-94068284D01*
X163085674Y-93888256D01*
X163105460Y-93700000D01*
X163085674Y-93511744D01*
X163027179Y-93331716D01*
X162932533Y-93167784D01*
X162805871Y-93027112D01*
X162803282Y-93025231D01*
X162743992Y-92982154D01*
X162701326Y-92926824D01*
X162695347Y-92857211D01*
X162727953Y-92795416D01*
X162743992Y-92781518D01*
X162755871Y-92772888D01*
X162882533Y-92632216D01*
X162977179Y-92468284D01*
X163035674Y-92288256D01*
X163055460Y-92100000D01*
X163035674Y-91911744D01*
X162977179Y-91731716D01*
X162882533Y-91567784D01*
X162755871Y-91427112D01*
X162755870Y-91427111D01*
X162602734Y-91315851D01*
X162602729Y-91315848D01*
X162429807Y-91238857D01*
X162429802Y-91238855D01*
X162284001Y-91207865D01*
X162244646Y-91199500D01*
X162055354Y-91199500D01*
X162022897Y-91206398D01*
X161870197Y-91238855D01*
X161870192Y-91238857D01*
X161697270Y-91315848D01*
X161697265Y-91315851D01*
X161544129Y-91427111D01*
X161417466Y-91567785D01*
X161322821Y-91731715D01*
X161322818Y-91731722D01*
X161264890Y-91910008D01*
X161264326Y-91911744D01*
X161244540Y-92100000D01*
X157764885Y-92100000D01*
X161694703Y-88170180D01*
X161743729Y-88113259D01*
X161743735Y-88113252D01*
X161743734Y-88113252D01*
X161765586Y-88083696D01*
X161765591Y-88083688D01*
X161765592Y-88083688D01*
X161800734Y-88027913D01*
X161805639Y-88020129D01*
X161854308Y-87884729D01*
X161868344Y-87816284D01*
X161868345Y-87816280D01*
X161876894Y-87672654D01*
X161844633Y-87532437D01*
X161834823Y-87507067D01*
X161834215Y-87499788D01*
X161817482Y-87459391D01*
X161817483Y-87459391D01*
X161795744Y-87406909D01*
X161788276Y-87337442D01*
X161819551Y-87274963D01*
X161834807Y-87261094D01*
X161861975Y-87240247D01*
X161865411Y-87237793D01*
X161867882Y-87236154D01*
X161905121Y-87207927D01*
X161952929Y-87166747D01*
X162040518Y-87052599D01*
X162064542Y-87009819D01*
X162114529Y-86961006D01*
X162182974Y-86946967D01*
X162232084Y-86961704D01*
X162308519Y-87003439D01*
X162329544Y-87014919D01*
X162470136Y-87045502D01*
X162531105Y-87049862D01*
X162539826Y-87050486D01*
X162539828Y-87050486D01*
X162539829Y-87050486D01*
X162549407Y-87049800D01*
X162683339Y-87040222D01*
X162818148Y-86989940D01*
X162879471Y-86956455D01*
X162994652Y-86870231D01*
X163285006Y-86579877D01*
X163587819Y-86277065D01*
X163649142Y-86243580D01*
X163718834Y-86248564D01*
X163774767Y-86290436D01*
X163799184Y-86355900D01*
X163799500Y-86364746D01*
X163799500Y-99975000D01*
X163791009Y-100169464D01*
X163781714Y-100370487D01*
X163781250Y-100375719D01*
X163754816Y-100576504D01*
X163727680Y-100771033D01*
X163726805Y-100775889D01*
X163682729Y-100974707D01*
X163637950Y-101165092D01*
X163636727Y-101169542D01*
X163575325Y-101364287D01*
X163513251Y-101549489D01*
X163511745Y-101553513D01*
X163433475Y-101742477D01*
X163354594Y-101921125D01*
X163352871Y-101924711D01*
X163258304Y-102106372D01*
X163163268Y-102276994D01*
X163161393Y-102280137D01*
X163051225Y-102453069D01*
X162940790Y-102614282D01*
X162938828Y-102616987D01*
X162813905Y-102779791D01*
X162688998Y-102930211D01*
X162687010Y-102932490D01*
X162548235Y-103083935D01*
X162408935Y-103223235D01*
X162257490Y-103362010D01*
X162255211Y-103363998D01*
X162104791Y-103488905D01*
X161941987Y-103613828D01*
X161939282Y-103615790D01*
X161778069Y-103726225D01*
X161605137Y-103836393D01*
X161601994Y-103838268D01*
X161431372Y-103933304D01*
X161249711Y-104027871D01*
X161246125Y-104029594D01*
X161067477Y-104108475D01*
X160878513Y-104186745D01*
X160874489Y-104188251D01*
X160689287Y-104250325D01*
X160494542Y-104311727D01*
X160490092Y-104312950D01*
X160299707Y-104357729D01*
X160100889Y-104401805D01*
X160096033Y-104402680D01*
X159901504Y-104429816D01*
X159700719Y-104456250D01*
X159695487Y-104456714D01*
X159494464Y-104466009D01*
X159300000Y-104474500D01*
X140752847Y-104474500D01*
X140685808Y-104454815D01*
X140640053Y-104402011D01*
X140630109Y-104332853D01*
X140659134Y-104269297D01*
X140660697Y-104267528D01*
X140782533Y-104132216D01*
X140877179Y-103968284D01*
X140935674Y-103788256D01*
X140955460Y-103600000D01*
X140935674Y-103411744D01*
X140877179Y-103231716D01*
X140782533Y-103067784D01*
X140655871Y-102927112D01*
X140622721Y-102903027D01*
X140502734Y-102815851D01*
X140502729Y-102815848D01*
X140329807Y-102738857D01*
X140329802Y-102738855D01*
X140294436Y-102731338D01*
X141012588Y-102731338D01*
X141042863Y-102903032D01*
X141111916Y-103063116D01*
X141111917Y-103063118D01*
X141111919Y-103063121D01*
X141195582Y-103175499D01*
X141216027Y-103202961D01*
X141349581Y-103315027D01*
X141505380Y-103393272D01*
X141675024Y-103433478D01*
X141675026Y-103433478D01*
X141805624Y-103433478D01*
X141805631Y-103433478D01*
X141935359Y-103418315D01*
X142099188Y-103358686D01*
X142244849Y-103262883D01*
X142364491Y-103136071D01*
X142451662Y-102985085D01*
X142501664Y-102818066D01*
X142511802Y-102644018D01*
X142481527Y-102472324D01*
X142412474Y-102312240D01*
X142394922Y-102288664D01*
X142325898Y-102195949D01*
X142308363Y-102172395D01*
X142229680Y-102106372D01*
X142174809Y-102060329D01*
X142174807Y-102060328D01*
X142019013Y-101982085D01*
X142019011Y-101982084D01*
X142019010Y-101982084D01*
X141849366Y-101941878D01*
X141718759Y-101941878D01*
X141605247Y-101955145D01*
X141589030Y-101957041D01*
X141589027Y-101957042D01*
X141425203Y-102016669D01*
X141425199Y-102016671D01*
X141279543Y-102112470D01*
X141279542Y-102112471D01*
X141159901Y-102239281D01*
X141159898Y-102239287D01*
X141072729Y-102390268D01*
X141022726Y-102557288D01*
X141022725Y-102557294D01*
X141014220Y-102703313D01*
X141012588Y-102731338D01*
X140294436Y-102731338D01*
X140162594Y-102703315D01*
X140144646Y-102699500D01*
X139955354Y-102699500D01*
X139937406Y-102703315D01*
X139770197Y-102738855D01*
X139770192Y-102738857D01*
X139597270Y-102815848D01*
X139597265Y-102815851D01*
X139444129Y-102927111D01*
X139317466Y-103067785D01*
X139222821Y-103231715D01*
X139222818Y-103231722D01*
X139166369Y-103405455D01*
X139164326Y-103411744D01*
X139144540Y-103600000D01*
X139164326Y-103788256D01*
X139164327Y-103788259D01*
X139222818Y-103968277D01*
X139222821Y-103968284D01*
X139317467Y-104132216D01*
X139381334Y-104203147D01*
X139439303Y-104267528D01*
X139469533Y-104330519D01*
X139460908Y-104399854D01*
X139416167Y-104453520D01*
X139349514Y-104474478D01*
X139347153Y-104474500D01*
X133300000Y-104474500D01*
X133105535Y-104466009D01*
X132904511Y-104456714D01*
X132899279Y-104456250D01*
X132698495Y-104429816D01*
X132503965Y-104402680D01*
X132499109Y-104401805D01*
X132300302Y-104357731D01*
X132269694Y-104350532D01*
X132109906Y-104312950D01*
X132105456Y-104311727D01*
X131910712Y-104250325D01*
X131725509Y-104188251D01*
X131721484Y-104186745D01*
X131532522Y-104108475D01*
X131496386Y-104092519D01*
X131353859Y-104029587D01*
X131350304Y-104027879D01*
X131225436Y-103962877D01*
X131168627Y-103933304D01*
X130998004Y-103838268D01*
X130994861Y-103836393D01*
X130821930Y-103726225D01*
X130660716Y-103615790D01*
X130658011Y-103613828D01*
X130495208Y-103488905D01*
X130402281Y-103411740D01*
X130344775Y-103363987D01*
X130342531Y-103362030D01*
X130267233Y-103293032D01*
X130191064Y-103223235D01*
X130051764Y-103083935D01*
X129973966Y-102999035D01*
X129912964Y-102932462D01*
X129911017Y-102930230D01*
X129786093Y-102779790D01*
X129758884Y-102744331D01*
X129661168Y-102616984D01*
X129659208Y-102614282D01*
X129548774Y-102453069D01*
X129438605Y-102280137D01*
X129436739Y-102277010D01*
X129341693Y-102106368D01*
X129317770Y-102060413D01*
X129247106Y-101924670D01*
X129245424Y-101921166D01*
X129166524Y-101742477D01*
X129088249Y-101553504D01*
X129086747Y-101549489D01*
X129044569Y-101423647D01*
X129024674Y-101364287D01*
X128963265Y-101169522D01*
X128962053Y-101165111D01*
X128917269Y-100974701D01*
X128873188Y-100775862D01*
X128872322Y-100771057D01*
X128845183Y-100576504D01*
X128818745Y-100375690D01*
X128818284Y-100370487D01*
X128817020Y-100343142D01*
X128808996Y-100169601D01*
X128800500Y-99975000D01*
X128800500Y-99974500D01*
X128800500Y-73975000D01*
X128809000Y-73780296D01*
X128818284Y-73579502D01*
X128818744Y-73574313D01*
X128845190Y-73373443D01*
X128851699Y-73326783D01*
X128872323Y-73178933D01*
X128873186Y-73174146D01*
X128917275Y-72975271D01*
X128962061Y-72784860D01*
X128963265Y-72780477D01*
X129024657Y-72585764D01*
X129038230Y-72545271D01*
X129086764Y-72400464D01*
X129088248Y-72396498D01*
X129166522Y-72207527D01*
X129245437Y-72028803D01*
X129247094Y-72025353D01*
X129341704Y-71843610D01*
X129436765Y-71672945D01*
X129438600Y-71669869D01*
X129548778Y-71496923D01*
X129659227Y-71335689D01*
X129661130Y-71333064D01*
X129786091Y-71170212D01*
X129911040Y-71019742D01*
X129912949Y-71017553D01*
X130051752Y-70866076D01*
X130191076Y-70726752D01*
X130342553Y-70587949D01*
X130344742Y-70586040D01*
X130495212Y-70461091D01*
X130658064Y-70336130D01*
X130660689Y-70334227D01*
X130821923Y-70223778D01*
X130994869Y-70113600D01*
X130997945Y-70111765D01*
X131168610Y-70016704D01*
X131350353Y-69922094D01*
X131353803Y-69920437D01*
X131532527Y-69841522D01*
X131721498Y-69763248D01*
X131725464Y-69761764D01*
X131910765Y-69699657D01*
X132105477Y-69638265D01*
X132109860Y-69637061D01*
X132300271Y-69592275D01*
X132499146Y-69548186D01*
X132503933Y-69547323D01*
X132698458Y-69520188D01*
X132899313Y-69493744D01*
X132904502Y-69493284D01*
X133105296Y-69484000D01*
X133300000Y-69475500D01*
X133300500Y-69475500D01*
X141963771Y-69475500D01*
X142030810Y-69495185D01*
G37*
%TD.AperFunction*%
%TA.AperFunction,Conductor*%
G36*
X138197399Y-82214703D02*
G01*
X138203024Y-82217655D01*
X138333705Y-82286242D01*
X138400307Y-82302658D01*
X138492978Y-82325500D01*
X138492979Y-82325500D01*
X138657022Y-82325500D01*
X138688516Y-82317736D01*
X138816295Y-82286242D01*
X138866184Y-82260057D01*
X138934690Y-82246331D01*
X138999743Y-82271822D01*
X139011491Y-82282172D01*
X140249560Y-83520241D01*
X140283045Y-83581564D01*
X140284975Y-83622868D01*
X140269539Y-83749999D01*
X140269539Y-83750000D01*
X140289311Y-83912842D01*
X140289312Y-83912845D01*
X140337409Y-84039667D01*
X140347483Y-84066228D01*
X140422563Y-84175000D01*
X140440668Y-84201229D01*
X140440670Y-84201231D01*
X140440672Y-84201233D01*
X140563451Y-84310006D01*
X140563452Y-84310006D01*
X140563454Y-84310008D01*
X140708705Y-84386242D01*
X140708707Y-84386242D01*
X140708708Y-84386243D01*
X140867978Y-84425500D01*
X140867979Y-84425500D01*
X141032022Y-84425500D01*
X141191291Y-84386243D01*
X141191291Y-84386242D01*
X141191295Y-84386242D01*
X141336546Y-84310008D01*
X141459332Y-84201229D01*
X141552518Y-84066226D01*
X141575915Y-84004530D01*
X141618090Y-83948830D01*
X141634223Y-83938710D01*
X141736546Y-83885008D01*
X141859332Y-83776229D01*
X141952518Y-83641226D01*
X142010688Y-83487845D01*
X142030461Y-83325000D01*
X142017037Y-83214445D01*
X142028497Y-83145523D01*
X142075401Y-83093737D01*
X142140133Y-83075500D01*
X144971613Y-83075500D01*
X145038652Y-83095185D01*
X145084407Y-83147989D01*
X145094351Y-83217147D01*
X145065326Y-83280703D01*
X145059294Y-83287181D01*
X143558294Y-84788181D01*
X143496971Y-84821666D01*
X143470613Y-84824500D01*
X139459397Y-84824500D01*
X139393174Y-84822238D01*
X139393173Y-84822238D01*
X139393171Y-84822238D01*
X139350170Y-84832717D01*
X139343930Y-84833902D01*
X139300079Y-84839930D01*
X139283616Y-84847081D01*
X139263575Y-84853820D01*
X139246150Y-84858066D01*
X139246145Y-84858068D01*
X139207567Y-84879758D01*
X139201881Y-84882582D01*
X139161279Y-84900220D01*
X139147357Y-84911546D01*
X139129883Y-84923438D01*
X139114246Y-84932230D01*
X139114239Y-84932235D01*
X139082940Y-84963534D01*
X139078226Y-84967788D01*
X139043893Y-84995720D01*
X139033541Y-85010385D01*
X139019920Y-85026554D01*
X137042382Y-87004092D01*
X136993957Y-87049317D01*
X136970956Y-87087139D01*
X136967384Y-87092388D01*
X136940639Y-87127658D01*
X136940636Y-87127663D01*
X136934055Y-87144352D01*
X136924654Y-87163280D01*
X136922546Y-87166748D01*
X136915327Y-87178619D01*
X136903385Y-87221237D01*
X136901362Y-87227255D01*
X136885122Y-87268440D01*
X136883288Y-87286284D01*
X136879342Y-87307048D01*
X136874501Y-87324328D01*
X136874500Y-87324337D01*
X136874500Y-87368594D01*
X136874175Y-87374939D01*
X136869648Y-87418970D01*
X136869648Y-87418975D01*
X136872697Y-87436656D01*
X136874500Y-87457724D01*
X136874500Y-89294772D01*
X136854815Y-89361811D01*
X136852551Y-89365211D01*
X136822483Y-89408772D01*
X136764312Y-89562154D01*
X136764311Y-89562157D01*
X136744539Y-89724999D01*
X136744539Y-89725001D01*
X136751809Y-89784882D01*
X136740348Y-89853805D01*
X136693443Y-89905591D01*
X136625987Y-89923797D01*
X136559397Y-89902644D01*
X136541032Y-89887508D01*
X135649246Y-88995722D01*
X134335161Y-87681636D01*
X134289920Y-87633195D01*
X134289919Y-87633194D01*
X134252103Y-87610198D01*
X134246851Y-87606623D01*
X134211582Y-87579878D01*
X134211580Y-87579876D01*
X134194882Y-87573291D01*
X134175956Y-87563891D01*
X134160620Y-87554566D01*
X134117998Y-87542623D01*
X134111980Y-87540599D01*
X134070805Y-87524363D01*
X134070796Y-87524361D01*
X134052956Y-87522527D01*
X134032191Y-87518581D01*
X134014909Y-87513739D01*
X134014905Y-87513739D01*
X133970646Y-87513739D01*
X133964304Y-87513414D01*
X133936667Y-87510572D01*
X133920269Y-87508887D01*
X133920264Y-87508887D01*
X133902584Y-87511936D01*
X133881516Y-87513739D01*
X133348159Y-87513739D01*
X133281120Y-87494054D01*
X133260478Y-87477420D01*
X133004295Y-87221237D01*
X132732182Y-86949123D01*
X132703921Y-86905413D01*
X132703418Y-86904088D01*
X132686233Y-86858774D01*
X132675759Y-86831155D01*
X132670392Y-86761491D01*
X132703540Y-86699985D01*
X132703780Y-86699744D01*
X137166705Y-82236819D01*
X137228028Y-82203334D01*
X137254386Y-82200500D01*
X138139774Y-82200500D01*
X138197399Y-82214703D01*
G37*
%TD.AperFunction*%
%TA.AperFunction,Conductor*%
G36*
X149789764Y-83095185D02*
G01*
X149835519Y-83147989D01*
X149845820Y-83214450D01*
X149844539Y-83224997D01*
X149844539Y-83225000D01*
X149864311Y-83387842D01*
X149864312Y-83387848D01*
X149912387Y-83514608D01*
X149917754Y-83584271D01*
X149888596Y-83641550D01*
X149842470Y-83692778D01*
X149842465Y-83692785D01*
X149747821Y-83856715D01*
X149747818Y-83856722D01*
X149689327Y-84036740D01*
X149689326Y-84036744D01*
X149669540Y-84225000D01*
X149689326Y-84413256D01*
X149689327Y-84413259D01*
X149747818Y-84593277D01*
X149747821Y-84593284D01*
X149842467Y-84757216D01*
X149938487Y-84863857D01*
X149969129Y-84897888D01*
X150122265Y-85009148D01*
X150122270Y-85009151D01*
X150295192Y-85086142D01*
X150295197Y-85086144D01*
X150480354Y-85125500D01*
X150574903Y-85125500D01*
X150641942Y-85145185D01*
X150662584Y-85161819D01*
X150960735Y-85459970D01*
X150979535Y-85494400D01*
X150994505Y-85498488D01*
X151017145Y-85516380D01*
X151322060Y-85821295D01*
X151355545Y-85882618D01*
X151350561Y-85952310D01*
X151308689Y-86008243D01*
X151298362Y-86015054D01*
X151232380Y-86062993D01*
X151166574Y-86086472D01*
X151098520Y-86070646D01*
X151049826Y-86020540D01*
X151041565Y-86000992D01*
X151027179Y-85956717D01*
X151027179Y-85956716D01*
X150932533Y-85792784D01*
X150837313Y-85687032D01*
X150823704Y-85658675D01*
X150813627Y-85656483D01*
X150800169Y-85647969D01*
X150652734Y-85540851D01*
X150652729Y-85540848D01*
X150479807Y-85463857D01*
X150479802Y-85463855D01*
X150334001Y-85432865D01*
X150294646Y-85424500D01*
X150105354Y-85424500D01*
X150072897Y-85431398D01*
X149920197Y-85463855D01*
X149920192Y-85463857D01*
X149747270Y-85540848D01*
X149747265Y-85540851D01*
X149654244Y-85608435D01*
X149588437Y-85631915D01*
X149520384Y-85616089D01*
X149471689Y-85565983D01*
X149463269Y-85542733D01*
X149462682Y-85542924D01*
X149402181Y-85356722D01*
X149402180Y-85356721D01*
X149402179Y-85356716D01*
X149307533Y-85192784D01*
X149180871Y-85052112D01*
X149180870Y-85052111D01*
X149027734Y-84940851D01*
X149027729Y-84940848D01*
X148854807Y-84863857D01*
X148854802Y-84863855D01*
X148708304Y-84832717D01*
X148669646Y-84824500D01*
X148480354Y-84824500D01*
X148447897Y-84831398D01*
X148295197Y-84863855D01*
X148295192Y-84863857D01*
X148122270Y-84940848D01*
X148122265Y-84940851D01*
X147969129Y-85052111D01*
X147842466Y-85192785D01*
X147747821Y-85356715D01*
X147747818Y-85356722D01*
X147689327Y-85536740D01*
X147689326Y-85536744D01*
X147669540Y-85725000D01*
X147689326Y-85913256D01*
X147689327Y-85913259D01*
X147747818Y-86093277D01*
X147747821Y-86093284D01*
X147842467Y-86257216D01*
X147931323Y-86355900D01*
X147969129Y-86397888D01*
X148122265Y-86509148D01*
X148122270Y-86509151D01*
X148295192Y-86586142D01*
X148295197Y-86586144D01*
X148480354Y-86625500D01*
X148480355Y-86625500D01*
X148669644Y-86625500D01*
X148669646Y-86625500D01*
X148854803Y-86586144D01*
X149027730Y-86509151D01*
X149120757Y-86441562D01*
X149186560Y-86418084D01*
X149254614Y-86433909D01*
X149303309Y-86484015D01*
X149311732Y-86507266D01*
X149312318Y-86507076D01*
X149372818Y-86693277D01*
X149372821Y-86693284D01*
X149467467Y-86857216D01*
X149588538Y-86991679D01*
X149594129Y-86997888D01*
X149747265Y-87109148D01*
X149747270Y-87109151D01*
X149926134Y-87188788D01*
X149925351Y-87190546D01*
X149975426Y-87224778D01*
X149997373Y-87264965D01*
X150022818Y-87343277D01*
X150022821Y-87343284D01*
X150117467Y-87507216D01*
X150230899Y-87633195D01*
X150244129Y-87647888D01*
X150397265Y-87759148D01*
X150397270Y-87759151D01*
X150570192Y-87836142D01*
X150570197Y-87836144D01*
X150755354Y-87875500D01*
X150755355Y-87875500D01*
X150944644Y-87875500D01*
X150944646Y-87875500D01*
X151129803Y-87836144D01*
X151302730Y-87759151D01*
X151400334Y-87688237D01*
X151466138Y-87664758D01*
X151498998Y-87667265D01*
X151655354Y-87700500D01*
X151655355Y-87700500D01*
X151844642Y-87700500D01*
X151844646Y-87700500D01*
X151879397Y-87693113D01*
X151949059Y-87698428D01*
X152004793Y-87740564D01*
X152028900Y-87806143D01*
X152023106Y-87852720D01*
X151976762Y-87995354D01*
X151976761Y-87995356D01*
X151976761Y-87995359D01*
X151956975Y-88183615D01*
X151976761Y-88371871D01*
X151976762Y-88371874D01*
X152035253Y-88551892D01*
X152035256Y-88551899D01*
X152085255Y-88638500D01*
X152101728Y-88706401D01*
X152078875Y-88772427D01*
X152023954Y-88815618D01*
X151977868Y-88824500D01*
X149159397Y-88824500D01*
X149093174Y-88822238D01*
X149093173Y-88822238D01*
X149093171Y-88822238D01*
X149050170Y-88832717D01*
X149043930Y-88833902D01*
X149000079Y-88839930D01*
X148983616Y-88847081D01*
X148963575Y-88853820D01*
X148946150Y-88858066D01*
X148946145Y-88858068D01*
X148907567Y-88879758D01*
X148901881Y-88882582D01*
X148861279Y-88900220D01*
X148847357Y-88911546D01*
X148829883Y-88923438D01*
X148814246Y-88932230D01*
X148814239Y-88932235D01*
X148782939Y-88963535D01*
X148778225Y-88967789D01*
X148743891Y-88995722D01*
X148733541Y-89010385D01*
X148719920Y-89026554D01*
X148483294Y-89263181D01*
X148421971Y-89296666D01*
X148395613Y-89299500D01*
X141679387Y-89299500D01*
X141612348Y-89279815D01*
X141591706Y-89263181D01*
X141365706Y-89037181D01*
X141332221Y-88975858D01*
X141337205Y-88906166D01*
X141379077Y-88850233D01*
X141444541Y-88825816D01*
X141453387Y-88825500D01*
X141469144Y-88825500D01*
X141469146Y-88825500D01*
X141654303Y-88786144D01*
X141827230Y-88709151D01*
X141980371Y-88597888D01*
X142107033Y-88457216D01*
X142201679Y-88293284D01*
X142260174Y-88113256D01*
X142279960Y-87925000D01*
X142260174Y-87736744D01*
X142203282Y-87561649D01*
X142201681Y-87556722D01*
X142201680Y-87556721D01*
X142201679Y-87556716D01*
X142107033Y-87392784D01*
X141980371Y-87252112D01*
X141958407Y-87236154D01*
X141827234Y-87140851D01*
X141827229Y-87140848D01*
X141654307Y-87063857D01*
X141654302Y-87063855D01*
X141493883Y-87029758D01*
X141469146Y-87024500D01*
X141279854Y-87024500D01*
X141255117Y-87029758D01*
X141094697Y-87063855D01*
X141094692Y-87063857D01*
X140921770Y-87140848D01*
X140921765Y-87140851D01*
X140768629Y-87252111D01*
X140641966Y-87392785D01*
X140593102Y-87477420D01*
X140548563Y-87554566D01*
X140544072Y-87562344D01*
X140542869Y-87561649D01*
X140502346Y-87609314D01*
X140435495Y-87629629D01*
X140368273Y-87610575D01*
X140322024Y-87558204D01*
X140311233Y-87520581D01*
X140310688Y-87516096D01*
X140310688Y-87516094D01*
X140252518Y-87362713D01*
X140159332Y-87227710D01*
X140159329Y-87227707D01*
X140159327Y-87227705D01*
X140036548Y-87118932D01*
X139931608Y-87063855D01*
X139891295Y-87042697D01*
X139891294Y-87042696D01*
X139891291Y-87042695D01*
X139732022Y-87003439D01*
X139732021Y-87003439D01*
X139567979Y-87003439D01*
X139567978Y-87003439D01*
X139408708Y-87042695D01*
X139263451Y-87118932D01*
X139140668Y-87227709D01*
X139110599Y-87271271D01*
X139056316Y-87315261D01*
X139038226Y-87321226D01*
X138974510Y-87336931D01*
X138974506Y-87336932D01*
X138838202Y-87408471D01*
X138780576Y-87422675D01*
X138480211Y-87422675D01*
X138413172Y-87402990D01*
X138367417Y-87350186D01*
X138357473Y-87281028D01*
X138386498Y-87217472D01*
X138392530Y-87210994D01*
X139641705Y-85961819D01*
X139703028Y-85928334D01*
X139729386Y-85925500D01*
X143740603Y-85925500D01*
X143806826Y-85927762D01*
X143849832Y-85917280D01*
X143856051Y-85916098D01*
X143899920Y-85910070D01*
X143916383Y-85902918D01*
X143936416Y-85896181D01*
X143953852Y-85891933D01*
X143992465Y-85870221D01*
X143998090Y-85867427D01*
X144038720Y-85849780D01*
X144052632Y-85838460D01*
X144070123Y-85826557D01*
X144085755Y-85817768D01*
X144085753Y-85817768D01*
X144085759Y-85817766D01*
X144117059Y-85786464D01*
X144121771Y-85782211D01*
X144156108Y-85754278D01*
X144166456Y-85739616D01*
X144180074Y-85723449D01*
X146260453Y-83643070D01*
X146318456Y-83610356D01*
X146416295Y-83586242D01*
X146561546Y-83510008D01*
X146684332Y-83401229D01*
X146777518Y-83266226D01*
X146819500Y-83155528D01*
X146861678Y-83099826D01*
X146927276Y-83075769D01*
X146935442Y-83075500D01*
X149722725Y-83075500D01*
X149789764Y-83095185D01*
G37*
%TD.AperFunction*%
%TA.AperFunction,Conductor*%
G36*
X154018463Y-82500996D02*
G01*
X154039105Y-82517630D01*
X155638181Y-84116705D01*
X155671666Y-84178028D01*
X155674500Y-84204386D01*
X155674500Y-86744773D01*
X155654815Y-86811812D01*
X155652558Y-86815200D01*
X155644233Y-86827261D01*
X155629417Y-86848726D01*
X155584994Y-86888080D01*
X155447400Y-86960296D01*
X155389774Y-86974500D01*
X155268711Y-86974500D01*
X155202488Y-86972238D01*
X155202487Y-86972238D01*
X155202485Y-86972238D01*
X155159484Y-86982717D01*
X155153244Y-86983902D01*
X155109393Y-86989930D01*
X155092930Y-86997081D01*
X155072889Y-87003820D01*
X155055464Y-87008066D01*
X155055459Y-87008068D01*
X155016881Y-87029758D01*
X155011195Y-87032582D01*
X154970593Y-87050220D01*
X154956671Y-87061546D01*
X154939197Y-87073438D01*
X154923560Y-87082230D01*
X154923553Y-87082236D01*
X154912179Y-87093610D01*
X154850855Y-87127093D01*
X154781163Y-87122107D01*
X154725231Y-87080234D01*
X154700816Y-87014768D01*
X154700500Y-87005926D01*
X154700500Y-86909397D01*
X154701228Y-86888080D01*
X154702762Y-86843174D01*
X154692283Y-86800174D01*
X154691096Y-86793931D01*
X154685070Y-86750082D01*
X154685070Y-86750080D01*
X154677921Y-86733622D01*
X154671180Y-86713578D01*
X154666933Y-86696148D01*
X154659772Y-86683413D01*
X154645239Y-86657564D01*
X154642414Y-86651876D01*
X154635561Y-86636100D01*
X154624780Y-86611280D01*
X154613454Y-86597359D01*
X154601556Y-86579877D01*
X154592764Y-86564240D01*
X154561472Y-86532948D01*
X154557215Y-86528231D01*
X154529278Y-86493892D01*
X154514613Y-86483540D01*
X154498441Y-86469917D01*
X151469255Y-83440730D01*
X151435770Y-83379407D01*
X151440754Y-83309715D01*
X151456604Y-83283460D01*
X151455071Y-83282402D01*
X151466236Y-83266227D01*
X151552518Y-83141226D01*
X151561627Y-83117204D01*
X151603802Y-83061502D01*
X151647894Y-83040777D01*
X151666295Y-83036242D01*
X151811546Y-82960008D01*
X151934332Y-82851229D01*
X152027518Y-82716226D01*
X152076608Y-82586784D01*
X152118785Y-82531084D01*
X152134921Y-82520963D01*
X152158930Y-82508362D01*
X152183412Y-82495514D01*
X152241036Y-82481311D01*
X153951424Y-82481311D01*
X154018463Y-82500996D01*
G37*
%TD.AperFunction*%
%TD*%
%TA.AperFunction,Conductor*%
%TO.N,/usb/USB_5V*%
G36*
X131688257Y-93544685D02*
G01*
X131734012Y-93597489D01*
X131743956Y-93666647D01*
X131719594Y-93724486D01*
X131625464Y-93847157D01*
X131564956Y-93993237D01*
X131564955Y-93993239D01*
X131544318Y-94149998D01*
X131544318Y-94150001D01*
X131564955Y-94306760D01*
X131564956Y-94306762D01*
X131625464Y-94452841D01*
X131721718Y-94578282D01*
X131847159Y-94674536D01*
X131993238Y-94735044D01*
X132071619Y-94745363D01*
X132149999Y-94755682D01*
X132150000Y-94755682D01*
X132150001Y-94755682D01*
X132202254Y-94748802D01*
X132306762Y-94735044D01*
X132452841Y-94674536D01*
X132578282Y-94578282D01*
X132674536Y-94452841D01*
X132735044Y-94306762D01*
X132755682Y-94150000D01*
X132735044Y-93993238D01*
X132674536Y-93847159D01*
X132674535Y-93847158D01*
X132674535Y-93847157D01*
X132580406Y-93724486D01*
X132555212Y-93659317D01*
X132569250Y-93590872D01*
X132618064Y-93540883D01*
X132678782Y-93525000D01*
X133687759Y-93525000D01*
X133754798Y-93544685D01*
X133800553Y-93597489D01*
X133810698Y-93632815D01*
X133823589Y-93730739D01*
X133823590Y-93730741D01*
X133884098Y-93876820D01*
X133980352Y-94002261D01*
X134105793Y-94098515D01*
X134251872Y-94159023D01*
X134369273Y-94174479D01*
X134369280Y-94174479D01*
X134447988Y-94174479D01*
X134447995Y-94174479D01*
X134565396Y-94159023D01*
X134711475Y-94098515D01*
X134836916Y-94002261D01*
X134933170Y-93876820D01*
X134993678Y-93730741D01*
X135006570Y-93632814D01*
X135034836Y-93568918D01*
X135093161Y-93530447D01*
X135129509Y-93525000D01*
X136149084Y-93525000D01*
X136216123Y-93544685D01*
X136241231Y-93566025D01*
X136311277Y-93643819D01*
X136455914Y-93748905D01*
X136619240Y-93821622D01*
X136794116Y-93858793D01*
X136794117Y-93858793D01*
X136972896Y-93858793D01*
X136972898Y-93858793D01*
X137147774Y-93821622D01*
X137311100Y-93748905D01*
X137455737Y-93643819D01*
X137525781Y-93566027D01*
X137585266Y-93529379D01*
X137617930Y-93525000D01*
X140244049Y-93525000D01*
X140311088Y-93544685D01*
X140356843Y-93597489D01*
X140358610Y-93601547D01*
X140380062Y-93653338D01*
X140453392Y-93748905D01*
X140476318Y-93778782D01*
X140601759Y-93875036D01*
X140747838Y-93935544D01*
X140826219Y-93945863D01*
X140904599Y-93956182D01*
X140904600Y-93956182D01*
X140904601Y-93956182D01*
X140956854Y-93949302D01*
X141061362Y-93935544D01*
X141161013Y-93894266D01*
X141230483Y-93886798D01*
X141292962Y-93918073D01*
X141296147Y-93921147D01*
X142138681Y-94763681D01*
X142172166Y-94825004D01*
X142175000Y-94851362D01*
X142175000Y-96298638D01*
X142155315Y-96365677D01*
X142138681Y-96386319D01*
X139686319Y-98838681D01*
X139624996Y-98872166D01*
X139598638Y-98875000D01*
X137925331Y-98875000D01*
X137858292Y-98855315D01*
X137833182Y-98833973D01*
X137809291Y-98807439D01*
X137664654Y-98702353D01*
X137501328Y-98629636D01*
X137501326Y-98629635D01*
X137373655Y-98602498D01*
X137326452Y-98592465D01*
X137147670Y-98592465D01*
X137117015Y-98598980D01*
X136972794Y-98629635D01*
X136972789Y-98629637D01*
X136809469Y-98702352D01*
X136664829Y-98807440D01*
X136649407Y-98824568D01*
X136640940Y-98833971D01*
X136581455Y-98870620D01*
X136548791Y-98875000D01*
X136283176Y-98875000D01*
X136216137Y-98855315D01*
X136170382Y-98802511D01*
X136168615Y-98798453D01*
X136128808Y-98702352D01*
X136097855Y-98627624D01*
X135929405Y-98322836D01*
X135727888Y-98038824D01*
X135495839Y-97779161D01*
X135236176Y-97547112D01*
X134952164Y-97345595D01*
X134647376Y-97177145D01*
X134564986Y-97143018D01*
X134336882Y-97048534D01*
X134296654Y-97021654D01*
X134253844Y-96978844D01*
X134220359Y-96917521D01*
X134225343Y-96847829D01*
X134267215Y-96791896D01*
X134268639Y-96790845D01*
X134270537Y-96789465D01*
X134270541Y-96789464D01*
X134415178Y-96684378D01*
X134433799Y-96663698D01*
X134441096Y-96655593D01*
X134534807Y-96551517D01*
X134624198Y-96396687D01*
X134679445Y-96226655D01*
X134698133Y-96048852D01*
X134679445Y-95871049D01*
X134664484Y-95825003D01*
X136269819Y-95825003D01*
X136288424Y-95942477D01*
X136288424Y-95942478D01*
X136342428Y-96048466D01*
X136342431Y-96048470D01*
X136426529Y-96132568D01*
X136426533Y-96132571D01*
X136426535Y-96132573D01*
X136532518Y-96186574D01*
X136532520Y-96186574D01*
X136532522Y-96186575D01*
X136659639Y-96206708D01*
X136659422Y-96208077D01*
X136716598Y-96224866D01*
X136737240Y-96241500D01*
X137091155Y-96595416D01*
X137124640Y-96656739D01*
X137125947Y-96663698D01*
X137138425Y-96742478D01*
X137138424Y-96742478D01*
X137192428Y-96848466D01*
X137192431Y-96848470D01*
X137276529Y-96932568D01*
X137276533Y-96932571D01*
X137276535Y-96932573D01*
X137382518Y-96986574D01*
X137382520Y-96986574D01*
X137382522Y-96986575D01*
X137499997Y-97005181D01*
X137500000Y-97005181D01*
X137500003Y-97005181D01*
X137617477Y-96986575D01*
X137617478Y-96986575D01*
X137617479Y-96986574D01*
X137617482Y-96986574D01*
X137723465Y-96932573D01*
X137807573Y-96848465D01*
X137861574Y-96742482D01*
X137870777Y-96684375D01*
X137880181Y-96625003D01*
X137880181Y-96624996D01*
X137861575Y-96507522D01*
X137861575Y-96507521D01*
X137861574Y-96507519D01*
X137861574Y-96507518D01*
X137808017Y-96402406D01*
X139422435Y-96402406D01*
X139441123Y-96580211D01*
X139441124Y-96580213D01*
X139496367Y-96750235D01*
X139496370Y-96750241D01*
X139585761Y-96905071D01*
X139610524Y-96932573D01*
X139705384Y-97037927D01*
X139705387Y-97037929D01*
X139705390Y-97037932D01*
X139850027Y-97143018D01*
X140013353Y-97215735D01*
X140188229Y-97252906D01*
X140188230Y-97252906D01*
X140367009Y-97252906D01*
X140367011Y-97252906D01*
X140541887Y-97215735D01*
X140705213Y-97143018D01*
X140849850Y-97037932D01*
X140969479Y-96905071D01*
X141058870Y-96750241D01*
X141114117Y-96580209D01*
X141132805Y-96402406D01*
X141114117Y-96224603D01*
X141058870Y-96054571D01*
X140969479Y-95899741D01*
X140902897Y-95825794D01*
X140849855Y-95766884D01*
X140849852Y-95766882D01*
X140849851Y-95766881D01*
X140849850Y-95766880D01*
X140705213Y-95661794D01*
X140541887Y-95589077D01*
X140541885Y-95589076D01*
X140414214Y-95561939D01*
X140367011Y-95551906D01*
X140188229Y-95551906D01*
X140157574Y-95558421D01*
X140013353Y-95589076D01*
X140013348Y-95589078D01*
X139850028Y-95661793D01*
X139705388Y-95766881D01*
X139585760Y-95899742D01*
X139496370Y-96054570D01*
X139496367Y-96054576D01*
X139441124Y-96224598D01*
X139441123Y-96224600D01*
X139422435Y-96402406D01*
X137808017Y-96402406D01*
X137807573Y-96401535D01*
X137807571Y-96401533D01*
X137807568Y-96401529D01*
X137723470Y-96317431D01*
X137723466Y-96317428D01*
X137723465Y-96317427D01*
X137617482Y-96263426D01*
X137617480Y-96263425D01*
X137617477Y-96263424D01*
X137490362Y-96243292D01*
X137490578Y-96241923D01*
X137433402Y-96225134D01*
X137412760Y-96208500D01*
X137058843Y-95854582D01*
X137025358Y-95793259D01*
X137024057Y-95786336D01*
X137011574Y-95707518D01*
X136957573Y-95601535D01*
X136957571Y-95601533D01*
X136957568Y-95601529D01*
X136873470Y-95517431D01*
X136873466Y-95517428D01*
X136873465Y-95517427D01*
X136767482Y-95463426D01*
X136767480Y-95463425D01*
X136767477Y-95463424D01*
X136650003Y-95444819D01*
X136649997Y-95444819D01*
X136532522Y-95463424D01*
X136532521Y-95463424D01*
X136426533Y-95517428D01*
X136426529Y-95517431D01*
X136342431Y-95601529D01*
X136342428Y-95601533D01*
X136288424Y-95707521D01*
X136288424Y-95707522D01*
X136269819Y-95824996D01*
X136269819Y-95825003D01*
X134664484Y-95825003D01*
X134645598Y-95766880D01*
X134624200Y-95701022D01*
X134624197Y-95701016D01*
X134601553Y-95661795D01*
X134534807Y-95546187D01*
X134487951Y-95494148D01*
X134415183Y-95413330D01*
X134415180Y-95413328D01*
X134415179Y-95413327D01*
X134415178Y-95413326D01*
X134270541Y-95308240D01*
X134107215Y-95235523D01*
X134107213Y-95235522D01*
X133979542Y-95208385D01*
X133932339Y-95198352D01*
X133753557Y-95198352D01*
X133722902Y-95204867D01*
X133578681Y-95235522D01*
X133578676Y-95235524D01*
X133415356Y-95308239D01*
X133270716Y-95413327D01*
X133151088Y-95546188D01*
X133061698Y-95701016D01*
X133061695Y-95701022D01*
X133006452Y-95871044D01*
X133006451Y-95871046D01*
X132987763Y-96048852D01*
X132991882Y-96088038D01*
X132979313Y-96156768D01*
X132931581Y-96207792D01*
X132868561Y-96225000D01*
X130751362Y-96225000D01*
X130684323Y-96205315D01*
X130663681Y-96188681D01*
X130261319Y-95786319D01*
X130227834Y-95724996D01*
X130225000Y-95698638D01*
X130225000Y-93926362D01*
X130244685Y-93859323D01*
X130261319Y-93838681D01*
X130538681Y-93561319D01*
X130600004Y-93527834D01*
X130626362Y-93525000D01*
X131621218Y-93525000D01*
X131688257Y-93544685D01*
G37*
%TD.AperFunction*%
%TD*%
%TA.AperFunction,Conductor*%
%TO.N,Vmot*%
G36*
X162865677Y-80769685D02*
G01*
X162886319Y-80786319D01*
X163413681Y-81313681D01*
X163447166Y-81375004D01*
X163450000Y-81401362D01*
X163450000Y-85648637D01*
X163430315Y-85715676D01*
X163413681Y-85736318D01*
X162637210Y-86512789D01*
X162575887Y-86546274D01*
X162506195Y-86541290D01*
X162450262Y-86499418D01*
X162425845Y-86433954D01*
X162434968Y-86377655D01*
X162485044Y-86256762D01*
X162505682Y-86100000D01*
X162485044Y-85943238D01*
X162424536Y-85797159D01*
X162328282Y-85671718D01*
X162202841Y-85575464D01*
X162148224Y-85552841D01*
X162056762Y-85514956D01*
X162056760Y-85514955D01*
X161900001Y-85494318D01*
X161899999Y-85494318D01*
X161743239Y-85514955D01*
X161743237Y-85514956D01*
X161597160Y-85575463D01*
X161471718Y-85671718D01*
X161375463Y-85797160D01*
X161314956Y-85943237D01*
X161314955Y-85943239D01*
X161294318Y-86099998D01*
X161294318Y-86100001D01*
X161314955Y-86256760D01*
X161314956Y-86256762D01*
X161365031Y-86377655D01*
X161375464Y-86402841D01*
X161399338Y-86433954D01*
X161471719Y-86528283D01*
X161588619Y-86617983D01*
X161629822Y-86674411D01*
X161633977Y-86744157D01*
X161599765Y-86805077D01*
X161575138Y-86823744D01*
X161572161Y-86825462D01*
X161446718Y-86921718D01*
X161350463Y-87047160D01*
X161289956Y-87193237D01*
X161289955Y-87193239D01*
X161269318Y-87349998D01*
X161269318Y-87350001D01*
X161289955Y-87506760D01*
X161289957Y-87506765D01*
X161350461Y-87652836D01*
X161354526Y-87659876D01*
X161352410Y-87661097D01*
X161373149Y-87714735D01*
X161359113Y-87783180D01*
X161337260Y-87812738D01*
X156736319Y-92413681D01*
X156674996Y-92447166D01*
X156648638Y-92450000D01*
X155576362Y-92450000D01*
X155509323Y-92430315D01*
X155488681Y-92413681D01*
X154386319Y-91311319D01*
X154352834Y-91249996D01*
X154350000Y-91223638D01*
X154350000Y-91151232D01*
X154369685Y-91084193D01*
X154398514Y-91052856D01*
X154402841Y-91049536D01*
X154528282Y-90953282D01*
X154624536Y-90827841D01*
X154685044Y-90681762D01*
X154705682Y-90525000D01*
X154685044Y-90368238D01*
X154624536Y-90222159D01*
X154528282Y-90096718D01*
X154528280Y-90096717D01*
X154528280Y-90096716D01*
X154442116Y-90030601D01*
X154402841Y-90000464D01*
X154402839Y-90000463D01*
X154399981Y-89998270D01*
X154358778Y-89941842D01*
X154354623Y-89872096D01*
X154387784Y-89812215D01*
X159138097Y-85061902D01*
X159199418Y-85028419D01*
X159269110Y-85033403D01*
X159325043Y-85075275D01*
X159348715Y-85133400D01*
X159364955Y-85256760D01*
X159364956Y-85256762D01*
X159425464Y-85402841D01*
X159521718Y-85528282D01*
X159647159Y-85624536D01*
X159793238Y-85685044D01*
X159871619Y-85695363D01*
X159949999Y-85705682D01*
X159950000Y-85705682D01*
X159950001Y-85705682D01*
X160002254Y-85698802D01*
X160106762Y-85685044D01*
X160252841Y-85624536D01*
X160378282Y-85528282D01*
X160474536Y-85402841D01*
X160535044Y-85256762D01*
X160555682Y-85100000D01*
X160535044Y-84943238D01*
X160474536Y-84797159D01*
X160378282Y-84671718D01*
X160378280Y-84671717D01*
X160378280Y-84671716D01*
X160315281Y-84623376D01*
X160274078Y-84566948D01*
X160269923Y-84497202D01*
X160304135Y-84436282D01*
X160315281Y-84426624D01*
X160341166Y-84406762D01*
X160378282Y-84378282D01*
X160474536Y-84252841D01*
X160535044Y-84106762D01*
X160555682Y-83950000D01*
X160549452Y-83902682D01*
X160535044Y-83793239D01*
X160535044Y-83793238D01*
X160529177Y-83779075D01*
X160521708Y-83709609D01*
X160552981Y-83647129D01*
X160556004Y-83643995D01*
X160575000Y-83625000D01*
X160575000Y-81451362D01*
X160594685Y-81384323D01*
X160611319Y-81363681D01*
X161188681Y-80786319D01*
X161250004Y-80752834D01*
X161276362Y-80750000D01*
X162798638Y-80750000D01*
X162865677Y-80769685D01*
G37*
%TD.AperFunction*%
%TD*%
M02*
