%TF.GenerationSoftware,KiCad,Pcbnew,7.0.8*%
%TF.CreationDate,2023-10-19T21:40:54-04:00*%
%TF.ProjectId,lemon-pepper,6c656d6f-6e2d-4706-9570-7065722e6b69,rev?*%
%TF.SameCoordinates,Original*%
%TF.FileFunction,Copper,L4,Bot*%
%TF.FilePolarity,Positive*%
%FSLAX46Y46*%
G04 Gerber Fmt 4.6, Leading zero omitted, Abs format (unit mm)*
G04 Created by KiCad (PCBNEW 7.0.8) date 2023-10-19 21:40:54*
%MOMM*%
%LPD*%
G01*
G04 APERTURE LIST*
G04 Aperture macros list*
%AMRoundRect*
0 Rectangle with rounded corners*
0 $1 Rounding radius*
0 $2 $3 $4 $5 $6 $7 $8 $9 X,Y pos of 4 corners*
0 Add a 4 corners polygon primitive as box body*
4,1,4,$2,$3,$4,$5,$6,$7,$8,$9,$2,$3,0*
0 Add four circle primitives for the rounded corners*
1,1,$1+$1,$2,$3*
1,1,$1+$1,$4,$5*
1,1,$1+$1,$6,$7*
1,1,$1+$1,$8,$9*
0 Add four rect primitives between the rounded corners*
20,1,$1+$1,$2,$3,$4,$5,0*
20,1,$1+$1,$4,$5,$6,$7,0*
20,1,$1+$1,$6,$7,$8,$9,0*
20,1,$1+$1,$8,$9,$2,$3,0*%
G04 Aperture macros list end*
%TA.AperFunction,ComponentPad*%
%ADD10C,0.700000*%
%TD*%
%TA.AperFunction,ComponentPad*%
%ADD11C,1.300000*%
%TD*%
%TA.AperFunction,HeatsinkPad*%
%ADD12C,0.500000*%
%TD*%
%TA.AperFunction,ComponentPad*%
%ADD13O,1.750000X1.750000*%
%TD*%
%TA.AperFunction,ComponentPad*%
%ADD14O,1.750000X2.000000*%
%TD*%
%TA.AperFunction,ComponentPad*%
%ADD15C,5.800000*%
%TD*%
%TA.AperFunction,ComponentPad*%
%ADD16RoundRect,0.250000X0.600000X0.725000X-0.600000X0.725000X-0.600000X-0.725000X0.600000X-0.725000X0*%
%TD*%
%TA.AperFunction,ComponentPad*%
%ADD17O,1.700000X1.950000*%
%TD*%
%TA.AperFunction,SMDPad,CuDef*%
%ADD18C,0.500000*%
%TD*%
%TA.AperFunction,ViaPad*%
%ADD19C,0.800000*%
%TD*%
%TA.AperFunction,ViaPad*%
%ADD20C,0.350000*%
%TD*%
%TA.AperFunction,Conductor*%
%ADD21C,0.100000*%
%TD*%
%TA.AperFunction,Conductor*%
%ADD22C,0.250000*%
%TD*%
%TA.AperFunction,Conductor*%
%ADD23C,0.200000*%
%TD*%
G04 APERTURE END LIST*
%TA.AperFunction,EtchedComponent*%
%TO.C,NT701*%
G36*
X150775000Y-99050000D02*
G01*
X149775000Y-99050000D01*
X149775000Y-98550000D01*
X150775000Y-98550000D01*
X150775000Y-99050000D01*
G37*
%TD.AperFunction*%
%TD*%
D10*
%TO.P,J201,*%
%TO.N,*%
X134408634Y-93573979D03*
D11*
%TO.P,J201,S1,SHIELD*%
%TO.N,GND*%
X136883507Y-93008293D03*
X133842948Y-96048852D03*
X140277620Y-96402406D03*
X137237061Y-99442965D03*
%TD*%
D12*
%TO.P,M101,1*%
%TO.N,/current sense/U_OUT*%
X142600000Y-70200000D03*
D13*
X142600000Y-72075000D03*
D14*
X142600000Y-74825000D03*
D12*
%TO.P,M101,2,-*%
%TO.N,/current sense/W_OUT*%
X145100000Y-70200000D03*
D13*
X145100000Y-72075000D03*
D14*
X145100000Y-74825000D03*
D12*
%TO.P,M101,3*%
%TO.N,/half bridges/OUT1B*%
X147600000Y-70200000D03*
D13*
X147600000Y-72075000D03*
D14*
X147600000Y-74825000D03*
D12*
%TO.P,M101,4*%
%TO.N,/current sense/V_OUT*%
X150100000Y-70200000D03*
D13*
X150100000Y-72075000D03*
D14*
X150100000Y-74825000D03*
%TD*%
D15*
%TO.P,H101,1,1*%
%TO.N,GND*%
X133300000Y-99975000D03*
X159300000Y-99975000D03*
X133300000Y-73975000D03*
X159300000Y-73975000D03*
%TD*%
D16*
%TO.P,J101,1,Pin_1*%
%TO.N,Vmot*%
X153525000Y-101700000D03*
D17*
%TO.P,J101,2,Pin_2*%
%TO.N,GND*%
X151025000Y-101700000D03*
%TO.P,J101,3,Pin_3*%
%TO.N,/mcu/CANL*%
X148525000Y-101700000D03*
%TO.P,J101,4,Pin_4*%
%TO.N,/mcu/CANH*%
X146025000Y-101700000D03*
%TD*%
D18*
%TO.P,NT701,1,1*%
%TO.N,GNDA*%
X149775000Y-98800000D03*
%TO.P,NT701,2,2*%
%TO.N,GND*%
X150775000Y-98800000D03*
%TD*%
D19*
%TO.N,GND*%
X133075000Y-79525000D03*
D20*
%TO.N,/current sense/W_SENSE*%
X131585560Y-87340488D03*
D19*
%TO.N,GND*%
X153975000Y-84225000D03*
X159950000Y-85100000D03*
X154025000Y-91125000D03*
X161875000Y-87350000D03*
X141550000Y-89050000D03*
X143925000Y-101575000D03*
X130700000Y-80025000D03*
X162125000Y-90250000D03*
X135925000Y-86300000D03*
X161900000Y-86100000D03*
X153975000Y-85250000D03*
X159925000Y-80375000D03*
X137175000Y-85000000D03*
X135925000Y-85025000D03*
X152750000Y-79900000D03*
X135925000Y-83825000D03*
X159950000Y-82800000D03*
X134650000Y-85000000D03*
X154975000Y-84250000D03*
X159950000Y-83950000D03*
X155600000Y-93200000D03*
X147850000Y-92350000D03*
X152925000Y-84175000D03*
X152275000Y-88850500D03*
X146225000Y-93075000D03*
X140904600Y-93350500D03*
X143900000Y-103500000D03*
X154000000Y-83200000D03*
X159950000Y-81600000D03*
%TO.N,Vmot*%
X132150000Y-94150000D03*
X150200000Y-86325000D03*
X139000000Y-70700000D03*
X161925000Y-82200000D03*
X150850000Y-86975000D03*
X153725000Y-74775000D03*
X153750000Y-72700000D03*
X156250000Y-90950000D03*
X155325000Y-91350000D03*
X151750000Y-86800000D03*
X138975000Y-74750000D03*
X139000000Y-72750000D03*
X156150000Y-91975000D03*
X153725000Y-70725000D03*
X161950000Y-83375000D03*
D20*
%TO.N,/mcu/USBD_P*%
X137500000Y-96625000D03*
X136650000Y-95825000D03*
D19*
%TO.N,+3V3*%
X134550500Y-90189528D03*
X162425000Y-93700000D03*
X146800000Y-99125000D03*
X162425000Y-94575000D03*
X140050000Y-103600000D03*
X144600000Y-99125000D03*
X140850000Y-78425000D03*
X161175000Y-93700000D03*
X145675000Y-99125000D03*
X162150000Y-92100000D03*
X136625000Y-77825000D03*
X148575500Y-83099500D03*
X131015734Y-89634266D03*
X162400000Y-95425000D03*
X150800000Y-78450000D03*
X140924500Y-87975000D03*
X145550000Y-78475000D03*
X144100000Y-98175000D03*
X145175000Y-98175000D03*
X161175000Y-94600000D03*
X146000000Y-95675000D03*
X146300000Y-98175000D03*
X161175000Y-95450000D03*
D20*
%TO.N,/mcu/RESET*%
X130050000Y-84475000D03*
X133675000Y-77514376D03*
X143100000Y-93900000D03*
%TO.N,/current sense/U_SENSE*%
X131225000Y-83575000D03*
X139975000Y-79375000D03*
%TO.N,/current sense/V_SENSE*%
X147600000Y-83000000D03*
X137425000Y-89725000D03*
X147600000Y-81850000D03*
X149925000Y-79425000D03*
%TO.N,/current sense/W_SENSE*%
X138575000Y-81650000D03*
X140600000Y-81650000D03*
X144625000Y-79425000D03*
D19*
%TO.N,/usb/USB_5V*%
X136221584Y-97995447D03*
X135074342Y-96842749D03*
X139022580Y-95565784D03*
X141575000Y-95875000D03*
X131000000Y-94950000D03*
X137925000Y-94025000D03*
%TO.N,Net-(D603-K)*%
X155375500Y-88651305D03*
X150575000Y-84225000D03*
D20*
%TO.N,Net-(D601-K)*%
X151805811Y-81930811D03*
X156600000Y-86375000D03*
%TO.N,/half bridges/ENA*%
X155450000Y-87550000D03*
X150525000Y-83225000D03*
X139371900Y-88772810D03*
%TO.N,/encoder/SCK*%
X147450000Y-91350000D03*
X130450000Y-86525000D03*
%TO.N,/encoder/CIPO*%
X131175000Y-86550000D03*
X146050000Y-91325000D03*
%TO.N,/encoder/COPI*%
X146775000Y-91350000D03*
X130725000Y-87575000D03*
%TO.N,/encoder/CS*%
X148150000Y-91350000D03*
X132073766Y-87148766D03*
%TO.N,/encoder/CAL_EN*%
X131600000Y-87950000D03*
X145325000Y-91350000D03*
%TO.N,/mcu/CAN_TX*%
X140175000Y-83225000D03*
X138050000Y-80825000D03*
%TO.N,/mcu/CAN_RX*%
X137600000Y-80425000D03*
X140800000Y-83225000D03*
%TO.N,/half bridges/IN2B*%
X150950000Y-82825000D03*
X131750000Y-83075000D03*
%TO.N,/half bridges/IN1A*%
X156800000Y-86900000D03*
X139215802Y-87973175D03*
%TO.N,/half bridges/IN2A*%
X139650000Y-87678939D03*
X156177038Y-86685172D03*
%TO.N,/half bridges/IN1B*%
X132125000Y-82675000D03*
X151425000Y-82400000D03*
%TO.N,/mcu/DIR*%
X138850000Y-88825000D03*
X149724503Y-90975000D03*
%TO.N,/mcu/STEP*%
X138525000Y-89275000D03*
X149200000Y-90975000D03*
D19*
%TO.N,GNDA*%
X143584500Y-78225000D03*
X148824500Y-78225000D03*
X149775000Y-98800000D03*
X149775000Y-97875000D03*
X138675000Y-78175000D03*
X148575500Y-85324500D03*
X148625000Y-98825000D03*
%TD*%
D21*
%TO.N,/mcu/RESET*%
X143100000Y-93900000D02*
X143100000Y-92750000D01*
X143100000Y-92750000D02*
X142300000Y-91950000D01*
X142300000Y-91950000D02*
X134792158Y-91950000D01*
X134792158Y-91950000D02*
X131817158Y-88975000D01*
X130050000Y-88350000D02*
X130050000Y-84475000D01*
X130675000Y-88975000D02*
X130050000Y-88350000D01*
X131817158Y-88975000D02*
X130675000Y-88975000D01*
%TO.N,/encoder/CIPO*%
X131175000Y-86550000D02*
X131175000Y-88150000D01*
X131175000Y-88150000D02*
X131400000Y-88375000D01*
X145159314Y-91750000D02*
X145625000Y-91750000D01*
X133900000Y-88375000D02*
X136825000Y-91300000D01*
X136825000Y-91300000D02*
X144709314Y-91300000D01*
X131400000Y-88375000D02*
X133900000Y-88375000D01*
X145625000Y-91750000D02*
X146050000Y-91325000D01*
X144709314Y-91300000D02*
X145159314Y-91750000D01*
%TO.N,/encoder/CAL_EN*%
X131600000Y-87950000D02*
X133850000Y-87950000D01*
X133850000Y-87950000D02*
X136975000Y-91075000D01*
X136975000Y-91075000D02*
X145050000Y-91075000D01*
X145050000Y-91075000D02*
X145325000Y-91350000D01*
%TO.N,/encoder/CS*%
X132153300Y-87148766D02*
X132629534Y-87625000D01*
X132629534Y-87625000D02*
X133875000Y-87625000D01*
X133875000Y-87625000D02*
X137100000Y-90850000D01*
X137100000Y-90850000D02*
X147650000Y-90850000D01*
X132073766Y-87148766D02*
X132153300Y-87148766D01*
X147650000Y-90850000D02*
X148150000Y-91350000D01*
%TO.N,/current sense/W_SENSE*%
X131585560Y-87340488D02*
X131575000Y-87329928D01*
X131575000Y-87329928D02*
X131575000Y-86500000D01*
X131575000Y-86500000D02*
X136425000Y-81650000D01*
X136425000Y-81650000D02*
X138575000Y-81650000D01*
%TO.N,/encoder/COPI*%
X130725000Y-87575000D02*
X130725000Y-88175000D01*
X132016733Y-88575000D02*
X134991733Y-91550000D01*
X134991733Y-91550000D02*
X144676472Y-91550000D01*
X130725000Y-88175000D02*
X131125000Y-88575000D01*
X131125000Y-88575000D02*
X132016733Y-88575000D01*
X144676472Y-91550000D02*
X145076472Y-91950000D01*
X145076472Y-91950000D02*
X146175000Y-91950000D01*
X146175000Y-91950000D02*
X146775000Y-91350000D01*
%TO.N,/encoder/SCK*%
X130450000Y-86525000D02*
X130250000Y-86725000D01*
X134875000Y-91750000D02*
X144593630Y-91750000D01*
X144993630Y-92150000D02*
X146650000Y-92150000D01*
X130250000Y-88250000D02*
X130775000Y-88775000D01*
X130775000Y-88775000D02*
X131900000Y-88775000D01*
X130250000Y-86725000D02*
X130250000Y-88250000D01*
X144593630Y-91750000D02*
X144993630Y-92150000D01*
X131900000Y-88775000D02*
X134875000Y-91750000D01*
X146650000Y-92150000D02*
X147450000Y-91350000D01*
%TO.N,/mcu/RESET*%
X131510624Y-77514376D02*
X133675000Y-77514376D01*
X130050000Y-78975000D02*
X131510624Y-77514376D01*
X130050000Y-84475000D02*
X130050000Y-78975000D01*
%TO.N,/mcu/USBD_P*%
X136675000Y-95825000D02*
X136650000Y-95825000D01*
X137525000Y-96600000D02*
X137450000Y-96600000D01*
X137450000Y-96600000D02*
X136675000Y-95825000D01*
D22*
%TO.N,+3V3*%
X145925000Y-78475000D02*
X146425000Y-78975000D01*
X145550000Y-78475000D02*
X145925000Y-78475000D01*
X144117893Y-78950000D02*
X144592893Y-78475000D01*
X149967893Y-78450000D02*
X150800000Y-78450000D01*
X140050000Y-103600000D02*
X140050000Y-100150000D01*
X146425000Y-78975000D02*
X149442893Y-78975000D01*
X149442893Y-78975000D02*
X149967893Y-78450000D01*
X140050000Y-100150000D02*
X142025000Y-98175000D01*
X141375000Y-78950000D02*
X144117893Y-78950000D01*
X144592893Y-78475000D02*
X145550000Y-78475000D01*
X142025000Y-98175000D02*
X144100000Y-98175000D01*
X140850000Y-78425000D02*
X141375000Y-78950000D01*
D21*
%TO.N,/current sense/U_SENSE*%
X133850000Y-79950000D02*
X133850000Y-79969239D01*
X133850000Y-79969239D02*
X133469239Y-80350000D01*
X139950000Y-79350000D02*
X134450000Y-79350000D01*
X134450000Y-79350000D02*
X133850000Y-79950000D01*
X133450000Y-80350000D02*
X131225000Y-82575000D01*
X131225000Y-82575000D02*
X131225000Y-83575000D01*
X133469239Y-80350000D02*
X133450000Y-80350000D01*
X139975000Y-79375000D02*
X139950000Y-79350000D01*
%TO.N,/current sense/V_SENSE*%
X137425000Y-88125000D02*
X137425000Y-89725000D01*
X146275000Y-84325000D02*
X141225000Y-84325000D01*
X141225000Y-84325000D02*
X137425000Y-88125000D01*
X149925000Y-79425000D02*
X147600000Y-81750000D01*
X147600000Y-81750000D02*
X147600000Y-81850000D01*
X147600000Y-83000000D02*
X146275000Y-84325000D01*
%TO.N,/current sense/W_SENSE*%
X144350000Y-79425000D02*
X142125000Y-81650000D01*
X142125000Y-81650000D02*
X140600000Y-81650000D01*
X144625000Y-79425000D02*
X144350000Y-79425000D01*
D23*
%TO.N,Net-(D603-K)*%
X155001305Y-88651305D02*
X150575000Y-84225000D01*
X155375500Y-88651305D02*
X155001305Y-88651305D01*
D21*
%TO.N,Net-(D601-K)*%
X154230811Y-81930811D02*
X151805811Y-81930811D01*
X156225000Y-86000000D02*
X156225000Y-83925000D01*
X156225000Y-83925000D02*
X154230811Y-81930811D01*
X156600000Y-86375000D02*
X156225000Y-86000000D01*
%TO.N,/half bridges/ENA*%
X150525000Y-83275000D02*
X150525000Y-83225000D01*
X155450000Y-87550000D02*
X154800000Y-87550000D01*
X154800000Y-87550000D02*
X150525000Y-83275000D01*
X151625000Y-89500000D02*
X151275000Y-89850000D01*
X139371900Y-88821900D02*
X139371900Y-88772810D01*
X155450000Y-87550000D02*
X155925000Y-88025000D01*
X140400000Y-89850000D02*
X139371900Y-88821900D01*
X151275000Y-89850000D02*
X140400000Y-89850000D01*
X155509316Y-89500000D02*
X151625000Y-89500000D01*
X155925000Y-88025000D02*
X155925000Y-89084316D01*
X155925000Y-89084316D02*
X155509316Y-89500000D01*
%TO.N,/mcu/CAN_TX*%
X140175000Y-83225000D02*
X140175000Y-82667156D01*
X140175000Y-82667156D02*
X138332844Y-80825000D01*
X138332844Y-80825000D02*
X138050000Y-80825000D01*
%TO.N,/mcu/CAN_RX*%
X140800000Y-83225000D02*
X140800000Y-83009314D01*
X138215686Y-80425000D02*
X137600000Y-80425000D01*
X140800000Y-83009314D02*
X138215686Y-80425000D01*
%TO.N,/half bridges/IN2B*%
X138098528Y-80025000D02*
X140523528Y-82450000D01*
X134200000Y-83075000D02*
X137250000Y-80025000D01*
X137250000Y-80025000D02*
X138098528Y-80025000D01*
X140523528Y-82450000D02*
X150575000Y-82450000D01*
X131750000Y-83075000D02*
X134200000Y-83075000D01*
X150575000Y-82450000D02*
X150950000Y-82825000D01*
%TO.N,/half bridges/IN1A*%
X138251825Y-87973175D02*
X139215802Y-87973175D01*
X138300000Y-90650000D02*
X137900000Y-90250000D01*
X150107842Y-91600000D02*
X148965685Y-91600000D01*
X148965685Y-91600000D02*
X148015686Y-90650000D01*
X156800000Y-86900000D02*
X156800000Y-88775000D01*
X155675000Y-89900000D02*
X151807842Y-89900000D01*
X151807842Y-89900000D02*
X150107842Y-91600000D01*
X156800000Y-88775000D02*
X155675000Y-89900000D01*
X148015686Y-90650000D02*
X138300000Y-90650000D01*
X137900000Y-88325000D02*
X138251825Y-87973175D01*
X137900000Y-90250000D02*
X137900000Y-88325000D01*
%TO.N,/half bridges/IN2A*%
X151725000Y-89700000D02*
X150025000Y-91400000D01*
X149048528Y-91400000D02*
X148098528Y-90450000D01*
X148098528Y-90450000D02*
X138382842Y-90450000D01*
X150025000Y-91400000D02*
X149048528Y-91400000D01*
X156177038Y-89115120D02*
X155592158Y-89700000D01*
X139650000Y-88104663D02*
X139650000Y-87678939D01*
X156177038Y-86685172D02*
X156177038Y-89115120D01*
X155592158Y-89700000D02*
X151725000Y-89700000D01*
X138382842Y-90450000D02*
X138100000Y-90167158D01*
X138100000Y-90167158D02*
X138100000Y-88625000D01*
X138351825Y-88373175D02*
X139381488Y-88373175D01*
X139381488Y-88373175D02*
X139650000Y-88104663D01*
X138100000Y-88625000D02*
X138351825Y-88373175D01*
%TO.N,/half bridges/IN1B*%
X137167158Y-79825000D02*
X138181370Y-79825000D01*
X132150000Y-82700000D02*
X134292158Y-82700000D01*
X132125000Y-82675000D02*
X132150000Y-82700000D01*
X138181370Y-79825000D02*
X140606370Y-82250000D01*
X134292158Y-82700000D02*
X137167158Y-79825000D01*
X140606370Y-82250000D02*
X151275000Y-82250000D01*
X151275000Y-82250000D02*
X151425000Y-82400000D01*
%TO.N,/mcu/DIR*%
X148925000Y-90050000D02*
X140075000Y-90050000D01*
X140075000Y-90050000D02*
X138850000Y-88825000D01*
X149724503Y-90849503D02*
X148925000Y-90050000D01*
X149724503Y-90975000D02*
X149724503Y-90849503D01*
%TO.N,/mcu/STEP*%
X148450000Y-90250000D02*
X139500000Y-90250000D01*
X149200000Y-91000000D02*
X148450000Y-90250000D01*
X139500000Y-90250000D02*
X138525000Y-89275000D01*
%TD*%
%TA.AperFunction,Conductor*%
%TO.N,GND*%
G36*
X141977915Y-69495462D02*
G01*
X142032453Y-69550000D01*
X142052415Y-69624500D01*
X142032453Y-69699000D01*
X142014510Y-69722383D01*
X142014741Y-69722567D01*
X142009523Y-69729110D01*
X141919544Y-69872309D01*
X141863686Y-70031943D01*
X141844751Y-70199999D01*
X141844751Y-70200000D01*
X141863686Y-70368056D01*
X141919544Y-70527690D01*
X141999788Y-70655397D01*
X142022522Y-70729098D01*
X142005359Y-70804293D01*
X141952899Y-70860832D01*
X141944542Y-70865711D01*
X141845099Y-70919527D01*
X141665206Y-71059543D01*
X141510821Y-71227250D01*
X141510819Y-71227252D01*
X141510817Y-71227255D01*
X141446730Y-71325347D01*
X141386136Y-71418093D01*
X141294570Y-71626843D01*
X141238609Y-71847828D01*
X141219786Y-72074998D01*
X141219786Y-72075001D01*
X141238609Y-72302171D01*
X141238609Y-72302174D01*
X141238610Y-72302176D01*
X141258754Y-72381721D01*
X141294570Y-72523156D01*
X141386136Y-72731906D01*
X141386138Y-72731909D01*
X141510817Y-72922745D01*
X141644790Y-73068278D01*
X141665206Y-73090456D01*
X141845094Y-73230469D01*
X141894069Y-73256973D01*
X141950089Y-73309988D01*
X141972096Y-73383909D01*
X141954195Y-73458931D01*
X141901275Y-73514893D01*
X141779125Y-73590103D01*
X141603360Y-73744795D01*
X141456267Y-73926966D01*
X141342075Y-74131378D01*
X141342074Y-74131380D01*
X141264070Y-74352153D01*
X141238070Y-74503788D01*
X141224500Y-74582928D01*
X141224500Y-75008428D01*
X141233850Y-75118278D01*
X141239384Y-75183301D01*
X141298382Y-75409887D01*
X141298385Y-75409895D01*
X141394826Y-75623247D01*
X141525939Y-75817236D01*
X141525941Y-75817238D01*
X141525943Y-75817241D01*
X141687956Y-75986283D01*
X141876208Y-76125513D01*
X142085282Y-76230926D01*
X142309163Y-76299489D01*
X142541411Y-76329229D01*
X142775345Y-76319292D01*
X143004234Y-76269962D01*
X143221494Y-76182660D01*
X143420875Y-76059896D01*
X143596641Y-75905203D01*
X143736132Y-75732445D01*
X143798463Y-75687025D01*
X143875157Y-75678853D01*
X143945661Y-75710124D01*
X143975505Y-75742616D01*
X144025939Y-75817236D01*
X144025941Y-75817238D01*
X144025943Y-75817241D01*
X144187956Y-75986283D01*
X144376208Y-76125513D01*
X144585282Y-76230926D01*
X144809163Y-76299489D01*
X145041411Y-76329229D01*
X145275345Y-76319292D01*
X145504234Y-76269962D01*
X145721494Y-76182660D01*
X145920875Y-76059896D01*
X146096641Y-75905203D01*
X146236132Y-75732445D01*
X146298463Y-75687025D01*
X146375157Y-75678853D01*
X146445661Y-75710124D01*
X146475505Y-75742616D01*
X146525939Y-75817236D01*
X146525941Y-75817238D01*
X146525943Y-75817241D01*
X146687956Y-75986283D01*
X146876208Y-76125513D01*
X147085282Y-76230926D01*
X147309163Y-76299489D01*
X147541411Y-76329229D01*
X147775345Y-76319292D01*
X148004234Y-76269962D01*
X148221494Y-76182660D01*
X148420875Y-76059896D01*
X148596641Y-75905203D01*
X148736132Y-75732445D01*
X148798463Y-75687025D01*
X148875157Y-75678853D01*
X148945661Y-75710124D01*
X148975505Y-75742616D01*
X149025939Y-75817236D01*
X149025941Y-75817238D01*
X149025943Y-75817241D01*
X149187956Y-75986283D01*
X149376208Y-76125513D01*
X149585282Y-76230926D01*
X149809163Y-76299489D01*
X150041411Y-76329229D01*
X150275345Y-76319292D01*
X150504234Y-76269962D01*
X150721494Y-76182660D01*
X150920875Y-76059896D01*
X151096641Y-75905203D01*
X151243735Y-75723030D01*
X151357926Y-75518619D01*
X151435929Y-75297849D01*
X151475500Y-75067072D01*
X151475500Y-74775000D01*
X152819540Y-74775000D01*
X152839325Y-74963254D01*
X152839326Y-74963256D01*
X152897821Y-75143284D01*
X152897822Y-75143285D01*
X152992469Y-75307220D01*
X153119127Y-75447886D01*
X153119129Y-75447888D01*
X153272270Y-75559151D01*
X153445197Y-75636144D01*
X153586315Y-75666139D01*
X153630352Y-75675500D01*
X153630354Y-75675500D01*
X153819648Y-75675500D01*
X153859004Y-75667134D01*
X154004803Y-75636144D01*
X154177730Y-75559151D01*
X154330871Y-75447888D01*
X154403195Y-75367563D01*
X154457530Y-75307220D01*
X154457531Y-75307218D01*
X154457533Y-75307216D01*
X154552179Y-75143284D01*
X154610674Y-74963256D01*
X154630460Y-74775000D01*
X154610674Y-74586744D01*
X154552179Y-74406716D01*
X154457533Y-74242784D01*
X154457532Y-74242783D01*
X154457530Y-74242779D01*
X154330872Y-74102113D01*
X154296462Y-74077113D01*
X154177730Y-73990849D01*
X154177729Y-73990848D01*
X154177727Y-73990847D01*
X154142134Y-73975000D01*
X155895006Y-73975000D01*
X155914965Y-74343136D01*
X155914965Y-74343142D01*
X155974613Y-74706974D01*
X155974613Y-74706976D01*
X156073247Y-75062221D01*
X156073249Y-75062226D01*
X156209709Y-75404715D01*
X156209715Y-75404728D01*
X156382404Y-75730456D01*
X156382407Y-75730461D01*
X156589303Y-76035608D01*
X156589312Y-76035620D01*
X156725496Y-76195948D01*
X156725497Y-76195948D01*
X158041350Y-74880094D01*
X158095456Y-74958480D01*
X158268816Y-75138966D01*
X158394865Y-75233686D01*
X157076520Y-76552031D01*
X157095657Y-76570159D01*
X157095658Y-76570160D01*
X157389165Y-76793278D01*
X157705066Y-76983350D01*
X158039684Y-77138160D01*
X158039694Y-77138165D01*
X158389063Y-77255880D01*
X158749131Y-77335137D01*
X159115656Y-77374999D01*
X159115666Y-77375000D01*
X159484334Y-77375000D01*
X159484343Y-77374999D01*
X159850868Y-77335137D01*
X159850869Y-77335137D01*
X160210936Y-77255880D01*
X160560305Y-77138165D01*
X160560315Y-77138160D01*
X160894933Y-76983350D01*
X161210834Y-76793278D01*
X161504352Y-76570151D01*
X161523479Y-76552032D01*
X160206879Y-75235432D01*
X160234180Y-75218168D01*
X160421501Y-75052216D01*
X160560511Y-74881958D01*
X161874501Y-76195948D01*
X162010690Y-76035617D01*
X162010694Y-76035611D01*
X162217592Y-75730461D01*
X162217595Y-75730456D01*
X162390284Y-75404728D01*
X162390290Y-75404715D01*
X162526750Y-75062226D01*
X162526752Y-75062221D01*
X162625386Y-74706976D01*
X162625386Y-74706974D01*
X162685034Y-74343142D01*
X162685034Y-74343136D01*
X162704994Y-73975000D01*
X162704994Y-73974991D01*
X162685034Y-73606863D01*
X162685034Y-73606857D01*
X162625386Y-73243025D01*
X162625386Y-73243023D01*
X162526752Y-72887778D01*
X162526750Y-72887773D01*
X162390290Y-72545284D01*
X162390284Y-72545271D01*
X162217595Y-72219543D01*
X162217592Y-72219538D01*
X162010696Y-71914391D01*
X162010687Y-71914379D01*
X161874502Y-71754050D01*
X161874501Y-71754050D01*
X160558648Y-73069903D01*
X160504544Y-72991520D01*
X160331184Y-72811034D01*
X160205132Y-72716312D01*
X161523479Y-71397966D01*
X161504347Y-71379844D01*
X161210834Y-71156721D01*
X160894933Y-70966649D01*
X160560315Y-70811839D01*
X160560305Y-70811834D01*
X160210936Y-70694119D01*
X159850868Y-70614862D01*
X159484343Y-70575000D01*
X159115656Y-70575000D01*
X158749131Y-70614862D01*
X158749130Y-70614862D01*
X158389063Y-70694119D01*
X158039694Y-70811834D01*
X158039684Y-70811839D01*
X157705066Y-70966649D01*
X157389165Y-71156721D01*
X157095663Y-71379835D01*
X157076520Y-71397967D01*
X158393120Y-72714567D01*
X158365820Y-72731832D01*
X158178499Y-72897784D01*
X158039488Y-73068041D01*
X156725497Y-71754050D01*
X156725496Y-71754050D01*
X156589308Y-71914383D01*
X156589306Y-71914386D01*
X156382402Y-72219547D01*
X156209715Y-72545271D01*
X156209709Y-72545284D01*
X156073249Y-72887773D01*
X156073247Y-72887778D01*
X155974613Y-73243023D01*
X155974613Y-73243025D01*
X155914965Y-73606857D01*
X155914965Y-73606863D01*
X155895006Y-73974991D01*
X155895006Y-73975000D01*
X154142134Y-73975000D01*
X154004806Y-73913857D01*
X154004804Y-73913856D01*
X154004803Y-73913856D01*
X153963776Y-73905135D01*
X153873283Y-73885900D01*
X153804562Y-73850884D01*
X153762555Y-73786198D01*
X153758519Y-73709176D01*
X153793535Y-73640455D01*
X153858221Y-73598448D01*
X153873273Y-73594415D01*
X154029803Y-73561144D01*
X154202730Y-73484151D01*
X154355871Y-73372888D01*
X154472801Y-73243025D01*
X154482530Y-73232220D01*
X154482531Y-73232218D01*
X154482533Y-73232216D01*
X154577179Y-73068284D01*
X154635674Y-72888256D01*
X154655460Y-72700000D01*
X154635674Y-72511744D01*
X154577179Y-72331716D01*
X154482533Y-72167784D01*
X154482532Y-72167783D01*
X154482530Y-72167779D01*
X154355872Y-72027113D01*
X154355871Y-72027112D01*
X154202730Y-71915849D01*
X154202726Y-71915847D01*
X154039228Y-71843052D01*
X153979288Y-71794513D01*
X153951648Y-71722508D01*
X153963714Y-71646330D01*
X154012253Y-71586390D01*
X154039221Y-71570819D01*
X154177730Y-71509151D01*
X154330871Y-71397888D01*
X154434786Y-71282479D01*
X154457530Y-71257220D01*
X154457531Y-71257218D01*
X154457533Y-71257216D01*
X154552179Y-71093284D01*
X154610674Y-70913256D01*
X154630460Y-70725000D01*
X154610674Y-70536744D01*
X154552179Y-70356716D01*
X154457533Y-70192784D01*
X154457532Y-70192783D01*
X154457530Y-70192779D01*
X154330872Y-70052113D01*
X154303110Y-70031943D01*
X154177730Y-69940849D01*
X154177729Y-69940848D01*
X154177727Y-69940847D01*
X154023791Y-69872310D01*
X154004803Y-69863856D01*
X153887191Y-69838857D01*
X153819648Y-69824500D01*
X153819646Y-69824500D01*
X153630354Y-69824500D01*
X153630352Y-69824500D01*
X153550492Y-69841475D01*
X153445197Y-69863856D01*
X153445195Y-69863856D01*
X153445194Y-69863857D01*
X153272272Y-69940847D01*
X153119127Y-70052113D01*
X152992469Y-70192779D01*
X152897822Y-70356714D01*
X152897819Y-70356721D01*
X152839325Y-70536745D01*
X152819540Y-70725000D01*
X152839325Y-70913254D01*
X152873120Y-71017264D01*
X152897821Y-71093284D01*
X152897822Y-71093285D01*
X152992469Y-71257220D01*
X153102874Y-71379835D01*
X153119129Y-71397888D01*
X153272270Y-71509151D01*
X153435771Y-71581947D01*
X153495711Y-71630485D01*
X153523351Y-71702491D01*
X153511285Y-71778669D01*
X153462747Y-71838609D01*
X153435772Y-71854183D01*
X153297271Y-71915848D01*
X153144127Y-72027113D01*
X153017469Y-72167779D01*
X152922822Y-72331714D01*
X152922819Y-72331721D01*
X152864325Y-72511745D01*
X152844540Y-72700000D01*
X152864325Y-72888254D01*
X152897879Y-72991520D01*
X152922821Y-73068284D01*
X152951689Y-73118285D01*
X153017469Y-73232220D01*
X153144127Y-73372886D01*
X153144129Y-73372888D01*
X153297270Y-73484151D01*
X153470197Y-73561144D01*
X153572284Y-73582843D01*
X153601715Y-73589099D01*
X153670437Y-73624115D01*
X153712444Y-73688800D01*
X153716480Y-73765822D01*
X153681464Y-73834544D01*
X153616779Y-73876551D01*
X153601715Y-73880587D01*
X153524198Y-73897063D01*
X153445197Y-73913856D01*
X153445195Y-73913856D01*
X153445194Y-73913857D01*
X153272272Y-73990847D01*
X153119127Y-74102113D01*
X152992469Y-74242779D01*
X152897822Y-74406714D01*
X152897819Y-74406721D01*
X152839325Y-74586745D01*
X152819540Y-74775000D01*
X151475500Y-74775000D01*
X151475500Y-74641572D01*
X151460616Y-74466699D01*
X151401617Y-74240110D01*
X151305172Y-74026750D01*
X151196375Y-73865779D01*
X151174060Y-73832763D01*
X151174058Y-73832761D01*
X151174057Y-73832759D01*
X151012044Y-73663717D01*
X150823792Y-73524487D01*
X150813253Y-73519173D01*
X150755718Y-73467811D01*
X150731572Y-73394560D01*
X150747286Y-73319050D01*
X150798650Y-73261513D01*
X150809418Y-73255086D01*
X150854903Y-73230471D01*
X150920447Y-73179456D01*
X151034794Y-73090456D01*
X151189183Y-72922745D01*
X151313862Y-72731909D01*
X151405430Y-72523155D01*
X151461390Y-72302176D01*
X151480214Y-72075000D01*
X151461390Y-71847824D01*
X151405430Y-71626845D01*
X151313862Y-71418091D01*
X151189183Y-71227255D01*
X151034794Y-71059544D01*
X150854906Y-70919531D01*
X150854905Y-70919530D01*
X150755457Y-70865712D01*
X150699437Y-70812698D01*
X150677430Y-70738776D01*
X150695331Y-70663754D01*
X150700204Y-70655409D01*
X150780456Y-70527690D01*
X150836313Y-70368059D01*
X150855249Y-70200000D01*
X150836313Y-70031941D01*
X150780456Y-69872310D01*
X150690477Y-69729110D01*
X150690472Y-69729105D01*
X150685259Y-69722567D01*
X150686462Y-69721607D01*
X150652662Y-69663064D01*
X150652662Y-69585936D01*
X150691226Y-69519141D01*
X150758021Y-69480577D01*
X150796585Y-69475500D01*
X159299500Y-69475500D01*
X159300000Y-69475500D01*
X159494602Y-69483996D01*
X159694966Y-69493260D01*
X159701221Y-69493815D01*
X159901571Y-69520192D01*
X160095578Y-69547255D01*
X160101345Y-69548295D01*
X160299710Y-69592271D01*
X160489661Y-69636948D01*
X160494977Y-69638408D01*
X160622788Y-69678707D01*
X160689219Y-69699653D01*
X160722180Y-69710700D01*
X160874134Y-69761629D01*
X160878906Y-69763415D01*
X161067446Y-69841511D01*
X161245794Y-69920260D01*
X161250060Y-69922310D01*
X161431369Y-70016693D01*
X161458747Y-70031943D01*
X161601681Y-70111557D01*
X161605458Y-70113810D01*
X161690174Y-70167779D01*
X161778059Y-70223768D01*
X161939014Y-70334024D01*
X161942239Y-70336364D01*
X162104780Y-70461086D01*
X162255012Y-70585837D01*
X162257715Y-70588196D01*
X162379728Y-70700000D01*
X162408911Y-70726741D01*
X162548258Y-70866088D01*
X162686798Y-71017278D01*
X162689175Y-71020002D01*
X162813912Y-71170217D01*
X162938634Y-71332759D01*
X162940984Y-71335998D01*
X163051229Y-71496936D01*
X163059012Y-71509152D01*
X163161188Y-71669540D01*
X163163440Y-71673316D01*
X163258309Y-71843636D01*
X163352688Y-72024938D01*
X163354751Y-72029231D01*
X163433492Y-72207564D01*
X163472680Y-72302171D01*
X163511574Y-72396070D01*
X163513384Y-72400906D01*
X163575346Y-72585780D01*
X163636583Y-72779999D01*
X163638052Y-72785346D01*
X163682737Y-72975331D01*
X163726697Y-73173622D01*
X163727749Y-73179456D01*
X163754816Y-73373495D01*
X163781181Y-73573758D01*
X163781739Y-73580044D01*
X163791009Y-73780535D01*
X163799500Y-73975000D01*
X163799500Y-80624898D01*
X163779538Y-80699398D01*
X163725000Y-80753936D01*
X163650500Y-80773898D01*
X163576000Y-80753936D01*
X163545141Y-80730257D01*
X163439782Y-80624898D01*
X163234188Y-80419303D01*
X163234187Y-80419302D01*
X163214045Y-80401209D01*
X163214044Y-80401209D01*
X163214043Y-80401208D01*
X163182858Y-80376078D01*
X163138974Y-80344433D01*
X163008097Y-80284662D01*
X163008094Y-80284661D01*
X163008085Y-80284658D01*
X162941056Y-80264976D01*
X162941055Y-80264975D01*
X162941044Y-80264973D01*
X162798652Y-80244501D01*
X162798640Y-80244500D01*
X162798638Y-80244500D01*
X161262823Y-80244500D01*
X161255219Y-80244907D01*
X161235795Y-80245948D01*
X161235789Y-80245948D01*
X161235784Y-80245949D01*
X161224232Y-80247191D01*
X161195976Y-80250229D01*
X161142556Y-80258885D01*
X161142554Y-80258885D01*
X161142552Y-80258886D01*
X161078847Y-80282647D01*
X161007747Y-80309166D01*
X161007744Y-80309167D01*
X160946424Y-80342650D01*
X160946416Y-80342655D01*
X160831241Y-80428874D01*
X160244302Y-81015813D01*
X160226209Y-81035955D01*
X160226209Y-81035956D01*
X160201078Y-81067142D01*
X160169433Y-81111026D01*
X160109661Y-81241905D01*
X160109658Y-81241914D01*
X160089976Y-81308944D01*
X160089973Y-81308955D01*
X160069501Y-81451347D01*
X160069500Y-81451365D01*
X160069500Y-83459720D01*
X160061876Y-83506771D01*
X160024239Y-83619858D01*
X160024238Y-83619860D01*
X160019104Y-83763647D01*
X160019105Y-83763650D01*
X160026574Y-83833115D01*
X160026575Y-83833127D01*
X160026576Y-83833131D01*
X160033444Y-83860033D01*
X160035123Y-83868744D01*
X160040223Y-83907492D01*
X160030156Y-83983960D01*
X159990079Y-84039540D01*
X159983319Y-84045397D01*
X159973104Y-84054250D01*
X159963422Y-84063156D01*
X159950972Y-84074610D01*
X159950970Y-84074613D01*
X159863382Y-84188758D01*
X159863381Y-84188761D01*
X159828580Y-84250729D01*
X159827647Y-84253621D01*
X159777288Y-84383883D01*
X159767828Y-84497188D01*
X159741737Y-84569769D01*
X159682850Y-84619580D01*
X159606948Y-84633274D01*
X159547939Y-84615566D01*
X159464066Y-84569769D01*
X159445760Y-84559773D01*
X159325186Y-84533545D01*
X159305169Y-84529191D01*
X159305162Y-84529190D01*
X159305152Y-84529189D01*
X159235484Y-84524207D01*
X159235472Y-84524207D01*
X159091972Y-84534469D01*
X158957162Y-84584750D01*
X158895841Y-84618233D01*
X158895840Y-84618233D01*
X158895838Y-84618234D01*
X158895828Y-84618241D01*
X158780658Y-84704457D01*
X158780652Y-84704462D01*
X157420341Y-86064773D01*
X157353546Y-86103337D01*
X157276418Y-86103337D01*
X157209623Y-86064773D01*
X157192363Y-86044063D01*
X157109332Y-85923771D01*
X156986546Y-85814992D01*
X156978965Y-85811013D01*
X156855255Y-85746084D01*
X156798566Y-85693786D01*
X156775621Y-85620150D01*
X156775500Y-85614152D01*
X156775500Y-83934397D01*
X156777762Y-83868174D01*
X156767436Y-83825803D01*
X156766010Y-83818301D01*
X156765147Y-83812028D01*
X156760070Y-83775080D01*
X156753772Y-83760581D01*
X156745672Y-83736493D01*
X156744299Y-83730859D01*
X156741933Y-83721148D01*
X156720551Y-83683120D01*
X156717163Y-83676299D01*
X156699780Y-83636280D01*
X156689805Y-83624020D01*
X156675510Y-83603016D01*
X156667765Y-83589241D01*
X156636921Y-83558397D01*
X156631807Y-83552730D01*
X156630400Y-83551000D01*
X156604278Y-83518892D01*
X156591364Y-83509776D01*
X156571931Y-83493407D01*
X155603476Y-82524952D01*
X154626718Y-81548193D01*
X154581491Y-81499767D01*
X154581490Y-81499766D01*
X154581486Y-81499763D01*
X154544222Y-81477102D01*
X154537913Y-81472808D01*
X154509634Y-81451365D01*
X154503153Y-81446450D01*
X154503152Y-81446449D01*
X154503150Y-81446448D01*
X154488443Y-81440648D01*
X154465695Y-81429349D01*
X154452194Y-81421139D01*
X154452190Y-81421137D01*
X154417876Y-81411523D01*
X154410178Y-81409366D01*
X154402950Y-81406935D01*
X154362373Y-81390934D01*
X154362374Y-81390934D01*
X154346654Y-81389318D01*
X154321699Y-81384576D01*
X154306477Y-81380311D01*
X154306476Y-81380311D01*
X154262859Y-81380311D01*
X154255236Y-81379920D01*
X154220018Y-81376299D01*
X154211839Y-81375459D01*
X154211838Y-81375459D01*
X154202502Y-81377068D01*
X154196265Y-81378144D01*
X154170949Y-81380311D01*
X152247198Y-81380311D01*
X152177955Y-81363244D01*
X152047106Y-81294569D01*
X151887832Y-81255311D01*
X151723790Y-81255311D01*
X151674127Y-81267552D01*
X151564515Y-81294569D01*
X151488281Y-81334580D01*
X151419265Y-81370803D01*
X151296479Y-81479582D01*
X151296478Y-81479583D01*
X151296475Y-81479586D01*
X151203292Y-81614586D01*
X151200585Y-81619745D01*
X151148288Y-81676434D01*
X151074652Y-81699379D01*
X151068653Y-81699500D01*
X148788743Y-81699500D01*
X148714243Y-81679538D01*
X148659705Y-81625000D01*
X148639743Y-81550500D01*
X148659705Y-81476000D01*
X148683384Y-81445141D01*
X148995782Y-81132743D01*
X150005526Y-80122997D01*
X150072319Y-80084435D01*
X150075100Y-80083719D01*
X150166295Y-80061242D01*
X150311546Y-79985008D01*
X150434332Y-79876229D01*
X150527518Y-79741226D01*
X150585688Y-79587845D01*
X150598596Y-79481537D01*
X150627392Y-79409990D01*
X150688106Y-79362423D01*
X150746509Y-79350500D01*
X150894648Y-79350500D01*
X150937063Y-79341484D01*
X151079803Y-79311144D01*
X151252730Y-79234151D01*
X151405871Y-79122888D01*
X151485130Y-79034862D01*
X151532530Y-78982220D01*
X151532531Y-78982218D01*
X151532533Y-78982216D01*
X151627179Y-78818284D01*
X151685674Y-78638256D01*
X151705460Y-78450000D01*
X151685674Y-78261744D01*
X151627179Y-78081716D01*
X151532533Y-77917784D01*
X151532532Y-77917783D01*
X151532530Y-77917779D01*
X151405872Y-77777113D01*
X151371462Y-77752113D01*
X151252730Y-77665849D01*
X151252729Y-77665848D01*
X151252727Y-77665847D01*
X151079805Y-77588857D01*
X151079803Y-77588856D01*
X150962191Y-77563857D01*
X150894648Y-77549500D01*
X150894646Y-77549500D01*
X150705354Y-77549500D01*
X150705352Y-77549500D01*
X150605392Y-77570747D01*
X150520197Y-77588856D01*
X150520195Y-77588856D01*
X150520194Y-77588857D01*
X150347272Y-77665847D01*
X150194131Y-77777110D01*
X150188326Y-77782338D01*
X150187045Y-77780915D01*
X150131175Y-77817204D01*
X150085122Y-77824500D01*
X150053391Y-77824500D01*
X150036607Y-77822647D01*
X150036554Y-77823210D01*
X150027229Y-77822328D01*
X150027226Y-77822328D01*
X149958097Y-77824500D01*
X149928543Y-77824500D01*
X149928538Y-77824500D01*
X149928531Y-77824501D01*
X149922228Y-77825296D01*
X149915242Y-77825845D01*
X149869267Y-77827290D01*
X149869263Y-77827291D01*
X149851913Y-77832331D01*
X149829029Y-77837070D01*
X149811109Y-77839334D01*
X149811092Y-77839338D01*
X149792748Y-77846601D01*
X149716131Y-77855463D01*
X149645348Y-77824828D01*
X149608866Y-77782562D01*
X149605720Y-77777113D01*
X149557033Y-77692784D01*
X149557031Y-77692781D01*
X149557030Y-77692780D01*
X149430372Y-77552113D01*
X149378431Y-77514376D01*
X149277230Y-77440849D01*
X149277229Y-77440848D01*
X149277227Y-77440847D01*
X149104305Y-77363857D01*
X149104303Y-77363856D01*
X148969190Y-77335137D01*
X148919148Y-77324500D01*
X148919146Y-77324500D01*
X148729854Y-77324500D01*
X148729852Y-77324500D01*
X148629892Y-77345747D01*
X148544697Y-77363856D01*
X148544695Y-77363856D01*
X148544694Y-77363857D01*
X148371772Y-77440847D01*
X148218627Y-77552113D01*
X148091969Y-77692779D01*
X147997322Y-77856714D01*
X147997319Y-77856721D01*
X147938825Y-78036745D01*
X147919978Y-78216074D01*
X147892338Y-78288080D01*
X147832398Y-78336618D01*
X147771794Y-78349500D01*
X146745808Y-78349500D01*
X146671308Y-78329538D01*
X146640449Y-78305859D01*
X146427755Y-78093165D01*
X146417195Y-78079982D01*
X146416759Y-78080344D01*
X146410785Y-78073121D01*
X146360364Y-78025773D01*
X146339473Y-78004882D01*
X146339471Y-78004880D01*
X146334444Y-78000980D01*
X146329126Y-77996438D01*
X146311054Y-77979467D01*
X146284017Y-77945355D01*
X146282530Y-77942779D01*
X146155872Y-77802113D01*
X146128962Y-77782562D01*
X146002730Y-77690849D01*
X146002729Y-77690848D01*
X146002727Y-77690847D01*
X145829805Y-77613857D01*
X145829803Y-77613856D01*
X145712191Y-77588857D01*
X145644648Y-77574500D01*
X145644646Y-77574500D01*
X145455354Y-77574500D01*
X145455352Y-77574500D01*
X145355392Y-77595747D01*
X145270197Y-77613856D01*
X145270195Y-77613856D01*
X145270194Y-77613857D01*
X145097272Y-77690847D01*
X144944131Y-77802110D01*
X144938326Y-77807338D01*
X144937045Y-77805915D01*
X144881175Y-77842204D01*
X144835122Y-77849500D01*
X144678390Y-77849500D01*
X144661606Y-77847647D01*
X144661553Y-77848210D01*
X144652228Y-77847328D01*
X144652225Y-77847328D01*
X144583096Y-77849500D01*
X144553543Y-77849500D01*
X144553538Y-77849500D01*
X144553531Y-77849501D01*
X144547227Y-77850296D01*
X144540241Y-77850845D01*
X144499772Y-77852117D01*
X144424682Y-77834506D01*
X144368458Y-77781708D01*
X144366053Y-77777690D01*
X144365719Y-77777112D01*
X144317033Y-77692784D01*
X144317032Y-77692783D01*
X144317031Y-77692781D01*
X144190372Y-77552113D01*
X144138431Y-77514376D01*
X144037230Y-77440849D01*
X144037229Y-77440848D01*
X144037227Y-77440847D01*
X143864305Y-77363857D01*
X143864303Y-77363856D01*
X143729190Y-77335137D01*
X143679148Y-77324500D01*
X143679146Y-77324500D01*
X143489854Y-77324500D01*
X143489852Y-77324500D01*
X143389892Y-77345747D01*
X143304697Y-77363856D01*
X143304695Y-77363856D01*
X143304694Y-77363857D01*
X143131772Y-77440847D01*
X142978627Y-77552113D01*
X142851969Y-77692779D01*
X142757322Y-77856714D01*
X142757319Y-77856721D01*
X142698825Y-78036745D01*
X142689909Y-78121585D01*
X142684296Y-78174996D01*
X142682606Y-78191074D01*
X142654966Y-78263079D01*
X142595027Y-78311618D01*
X142534422Y-78324500D01*
X141872442Y-78324500D01*
X141797942Y-78304538D01*
X141743404Y-78250000D01*
X141730735Y-78221544D01*
X141720835Y-78191074D01*
X141677179Y-78056716D01*
X141582533Y-77892784D01*
X141582532Y-77892783D01*
X141582530Y-77892779D01*
X141455872Y-77752113D01*
X141374212Y-77692784D01*
X141302730Y-77640849D01*
X141302729Y-77640848D01*
X141302727Y-77640847D01*
X141129805Y-77563857D01*
X141129803Y-77563856D01*
X141023360Y-77541231D01*
X140944648Y-77524500D01*
X140944646Y-77524500D01*
X140755354Y-77524500D01*
X140755352Y-77524500D01*
X140655392Y-77545747D01*
X140570197Y-77563856D01*
X140570195Y-77563856D01*
X140570194Y-77563857D01*
X140397272Y-77640847D01*
X140244127Y-77752113D01*
X140117469Y-77892779D01*
X140022822Y-78056714D01*
X140022819Y-78056721D01*
X139964325Y-78236745D01*
X139944540Y-78425000D01*
X139957784Y-78551019D01*
X139945718Y-78627197D01*
X139897179Y-78687136D01*
X139845259Y-78711262D01*
X139733706Y-78738757D01*
X139695082Y-78759029D01*
X139619839Y-78775974D01*
X139546203Y-78753027D01*
X139493906Y-78696337D01*
X139476961Y-78621094D01*
X139496804Y-78552593D01*
X139502179Y-78543284D01*
X139560674Y-78363256D01*
X139580460Y-78175000D01*
X139560674Y-77986744D01*
X139502179Y-77806716D01*
X139407533Y-77642784D01*
X139407532Y-77642783D01*
X139407530Y-77642779D01*
X139280872Y-77502113D01*
X139218388Y-77456716D01*
X139127730Y-77390849D01*
X139127729Y-77390848D01*
X139127727Y-77390847D01*
X138954805Y-77313857D01*
X138954803Y-77313856D01*
X138848360Y-77291231D01*
X138769648Y-77274500D01*
X138769646Y-77274500D01*
X138580354Y-77274500D01*
X138580352Y-77274500D01*
X138494357Y-77292779D01*
X138395197Y-77313856D01*
X138395195Y-77313856D01*
X138395194Y-77313857D01*
X138222272Y-77390847D01*
X138069127Y-77502113D01*
X137942469Y-77642779D01*
X137847822Y-77806714D01*
X137847820Y-77806719D01*
X137819629Y-77893480D01*
X137777621Y-77958165D01*
X137708899Y-77993179D01*
X137631877Y-77989142D01*
X137567192Y-77947134D01*
X137532178Y-77878412D01*
X137529739Y-77831857D01*
X137530460Y-77825000D01*
X137510674Y-77636744D01*
X137452179Y-77456716D01*
X137357533Y-77292784D01*
X137357532Y-77292783D01*
X137357530Y-77292779D01*
X137230872Y-77152113D01*
X137225227Y-77148012D01*
X137077730Y-77040849D01*
X137077729Y-77040848D01*
X137077727Y-77040847D01*
X136904805Y-76963857D01*
X136904803Y-76963856D01*
X136798360Y-76941231D01*
X136719648Y-76924500D01*
X136719646Y-76924500D01*
X136530354Y-76924500D01*
X136530352Y-76924500D01*
X136430392Y-76945747D01*
X136345197Y-76963856D01*
X136345195Y-76963856D01*
X136345194Y-76963857D01*
X136172272Y-77040847D01*
X136019127Y-77152113D01*
X135892469Y-77292779D01*
X135797822Y-77456714D01*
X135797819Y-77456721D01*
X135739325Y-77636745D01*
X135719540Y-77825000D01*
X135739325Y-78013254D01*
X135791879Y-78174996D01*
X135797821Y-78193284D01*
X135797822Y-78193285D01*
X135892469Y-78357220D01*
X136019128Y-78497887D01*
X136019130Y-78497889D01*
X136063267Y-78529956D01*
X136111806Y-78589895D01*
X136123872Y-78666074D01*
X136096232Y-78738079D01*
X136036293Y-78786618D01*
X135975688Y-78799500D01*
X134459397Y-78799500D01*
X134393172Y-78797237D01*
X134350793Y-78807565D01*
X134343297Y-78808989D01*
X134300079Y-78814930D01*
X134285575Y-78821230D01*
X134261503Y-78829324D01*
X134246148Y-78833067D01*
X134246147Y-78833067D01*
X134246145Y-78833068D01*
X134208121Y-78854446D01*
X134201290Y-78857838D01*
X134161279Y-78875219D01*
X134161278Y-78875220D01*
X134149015Y-78885197D01*
X134128019Y-78899488D01*
X134114236Y-78907238D01*
X134083400Y-78938074D01*
X134077735Y-78943187D01*
X134043892Y-78970722D01*
X134043890Y-78970723D01*
X134034776Y-78983635D01*
X134018410Y-79003064D01*
X133467382Y-79554092D01*
X133418956Y-79599319D01*
X133396293Y-79636586D01*
X133391999Y-79642894D01*
X133376823Y-79662907D01*
X133370132Y-79670581D01*
X133184682Y-79856030D01*
X133168888Y-79868438D01*
X133169178Y-79868794D01*
X133149013Y-79885198D01*
X133128020Y-79899486D01*
X133114242Y-79907233D01*
X133114237Y-79907237D01*
X133083405Y-79938070D01*
X133077741Y-79943182D01*
X133043891Y-79970722D01*
X133034777Y-79983634D01*
X133018409Y-80003065D01*
X130854859Y-82166615D01*
X130788064Y-82205179D01*
X130710936Y-82205179D01*
X130644141Y-82166615D01*
X130605577Y-82099820D01*
X130600500Y-82061256D01*
X130600500Y-79264742D01*
X130620462Y-79190242D01*
X130644141Y-79159383D01*
X131695007Y-78108517D01*
X131761802Y-78069953D01*
X131800366Y-78064876D01*
X133233613Y-78064876D01*
X133302855Y-78081942D01*
X133433705Y-78150618D01*
X133592979Y-78189876D01*
X133592980Y-78189876D01*
X133757020Y-78189876D01*
X133757021Y-78189876D01*
X133916295Y-78150618D01*
X134061546Y-78074384D01*
X134184332Y-77965605D01*
X134277518Y-77830602D01*
X134335688Y-77677221D01*
X134355461Y-77514376D01*
X134335688Y-77351531D01*
X134335687Y-77351528D01*
X134334601Y-77342584D01*
X134337463Y-77342236D01*
X134338713Y-77280373D01*
X134378619Y-77214371D01*
X134434253Y-77180635D01*
X134560316Y-77138160D01*
X134894933Y-76983350D01*
X135210834Y-76793278D01*
X135504352Y-76570151D01*
X135523479Y-76552032D01*
X134206879Y-75235432D01*
X134234180Y-75218168D01*
X134421501Y-75052216D01*
X134560511Y-74881958D01*
X135874501Y-76195948D01*
X136010690Y-76035617D01*
X136010694Y-76035611D01*
X136217592Y-75730461D01*
X136217595Y-75730456D01*
X136390284Y-75404728D01*
X136390290Y-75404715D01*
X136526750Y-75062226D01*
X136526752Y-75062221D01*
X136613440Y-74750000D01*
X138069540Y-74750000D01*
X138089325Y-74938254D01*
X138131179Y-75067067D01*
X138147821Y-75118284D01*
X138185359Y-75183301D01*
X138242469Y-75282220D01*
X138357430Y-75409895D01*
X138369129Y-75422888D01*
X138522270Y-75534151D01*
X138695197Y-75611144D01*
X138836315Y-75641139D01*
X138880352Y-75650500D01*
X138880354Y-75650500D01*
X139069648Y-75650500D01*
X139109004Y-75642134D01*
X139254803Y-75611144D01*
X139427730Y-75534151D01*
X139580871Y-75422888D01*
X139653195Y-75342563D01*
X139707530Y-75282220D01*
X139707531Y-75282218D01*
X139707533Y-75282216D01*
X139802179Y-75118284D01*
X139860674Y-74938256D01*
X139880460Y-74750000D01*
X139860674Y-74561744D01*
X139802179Y-74381716D01*
X139707533Y-74217784D01*
X139707532Y-74217783D01*
X139707530Y-74217779D01*
X139580872Y-74077113D01*
X139580871Y-74077112D01*
X139427730Y-73965849D01*
X139369390Y-73939874D01*
X139259354Y-73890882D01*
X139199414Y-73842343D01*
X139171774Y-73770338D01*
X139183840Y-73694160D01*
X139232379Y-73634220D01*
X139273921Y-73613055D01*
X139279794Y-73611145D01*
X139279803Y-73611144D01*
X139452730Y-73534151D01*
X139605871Y-73422888D01*
X139681438Y-73338963D01*
X139732530Y-73282220D01*
X139732531Y-73282218D01*
X139732533Y-73282216D01*
X139827179Y-73118284D01*
X139885674Y-72938256D01*
X139905460Y-72750000D01*
X139885674Y-72561744D01*
X139827179Y-72381716D01*
X139732533Y-72217784D01*
X139732532Y-72217783D01*
X139732530Y-72217779D01*
X139605872Y-72077113D01*
X139600801Y-72073429D01*
X139452730Y-71965849D01*
X139452729Y-71965848D01*
X139452727Y-71965847D01*
X139279805Y-71888857D01*
X139279803Y-71888856D01*
X139194590Y-71870743D01*
X139125869Y-71835728D01*
X139083863Y-71771043D01*
X139079826Y-71694021D01*
X139114842Y-71625299D01*
X139179527Y-71583293D01*
X139194587Y-71579257D01*
X139279803Y-71561144D01*
X139452730Y-71484151D01*
X139605871Y-71372888D01*
X139687276Y-71282479D01*
X139732530Y-71232220D01*
X139732531Y-71232218D01*
X139732533Y-71232216D01*
X139827179Y-71068284D01*
X139885674Y-70888256D01*
X139905460Y-70700000D01*
X139885674Y-70511744D01*
X139827179Y-70331716D01*
X139732533Y-70167784D01*
X139732532Y-70167783D01*
X139732530Y-70167779D01*
X139605872Y-70027113D01*
X139591516Y-70016683D01*
X139452730Y-69915849D01*
X139452729Y-69915848D01*
X139452727Y-69915847D01*
X139279805Y-69838857D01*
X139279803Y-69838856D01*
X139158719Y-69813119D01*
X139094648Y-69799500D01*
X139094646Y-69799500D01*
X138905354Y-69799500D01*
X138905352Y-69799500D01*
X138805392Y-69820747D01*
X138720197Y-69838856D01*
X138720195Y-69838856D01*
X138720194Y-69838857D01*
X138547272Y-69915847D01*
X138394127Y-70027113D01*
X138267469Y-70167779D01*
X138172822Y-70331714D01*
X138172819Y-70331721D01*
X138114325Y-70511745D01*
X138094540Y-70700000D01*
X138114325Y-70888254D01*
X138156243Y-71017264D01*
X138172821Y-71068284D01*
X138223880Y-71156721D01*
X138267469Y-71232220D01*
X138394127Y-71372886D01*
X138394129Y-71372888D01*
X138547270Y-71484151D01*
X138720197Y-71561144D01*
X138805408Y-71579256D01*
X138874130Y-71614272D01*
X138916137Y-71678957D01*
X138920173Y-71755979D01*
X138885157Y-71824701D01*
X138820472Y-71866708D01*
X138805408Y-71870743D01*
X138720197Y-71888856D01*
X138720195Y-71888856D01*
X138720194Y-71888857D01*
X138547272Y-71965847D01*
X138394127Y-72077113D01*
X138267469Y-72217779D01*
X138172822Y-72381714D01*
X138172819Y-72381721D01*
X138114325Y-72561745D01*
X138094540Y-72750000D01*
X138114325Y-72938254D01*
X138134383Y-72999985D01*
X138172821Y-73118284D01*
X138208113Y-73179412D01*
X138267469Y-73282220D01*
X138368622Y-73394560D01*
X138394129Y-73422888D01*
X138547270Y-73534151D01*
X138715645Y-73609117D01*
X138775585Y-73657655D01*
X138803225Y-73729661D01*
X138791159Y-73805839D01*
X138742621Y-73865779D01*
X138701091Y-73886940D01*
X138695200Y-73888854D01*
X138522272Y-73965847D01*
X138369127Y-74077113D01*
X138242469Y-74217779D01*
X138147822Y-74381714D01*
X138147819Y-74381721D01*
X138089325Y-74561745D01*
X138069540Y-74750000D01*
X136613440Y-74750000D01*
X136625386Y-74706976D01*
X136625386Y-74706974D01*
X136685034Y-74343142D01*
X136685034Y-74343136D01*
X136704994Y-73975000D01*
X136704994Y-73974991D01*
X136685034Y-73606863D01*
X136685034Y-73606857D01*
X136625386Y-73243025D01*
X136625386Y-73243023D01*
X136526752Y-72887778D01*
X136526750Y-72887773D01*
X136390290Y-72545284D01*
X136390284Y-72545271D01*
X136217595Y-72219543D01*
X136217592Y-72219538D01*
X136010696Y-71914391D01*
X136010687Y-71914379D01*
X135874502Y-71754050D01*
X135874501Y-71754050D01*
X134558648Y-73069903D01*
X134504544Y-72991520D01*
X134331184Y-72811034D01*
X134205132Y-72716312D01*
X135523479Y-71397966D01*
X135504347Y-71379844D01*
X135210834Y-71156721D01*
X134894933Y-70966649D01*
X134560315Y-70811839D01*
X134560305Y-70811834D01*
X134210936Y-70694119D01*
X133850868Y-70614862D01*
X133484343Y-70575000D01*
X133115656Y-70575000D01*
X132749131Y-70614862D01*
X132749130Y-70614862D01*
X132389063Y-70694119D01*
X132039694Y-70811834D01*
X132039684Y-70811839D01*
X131705066Y-70966649D01*
X131389165Y-71156721D01*
X131095663Y-71379835D01*
X131076520Y-71397967D01*
X132393120Y-72714567D01*
X132365820Y-72731832D01*
X132178499Y-72897784D01*
X132039488Y-73068041D01*
X130725497Y-71754050D01*
X130725496Y-71754050D01*
X130589308Y-71914383D01*
X130589306Y-71914386D01*
X130382402Y-72219547D01*
X130209715Y-72545271D01*
X130209709Y-72545284D01*
X130073249Y-72887773D01*
X130073247Y-72887778D01*
X129974613Y-73243023D01*
X129974613Y-73243025D01*
X129914965Y-73606857D01*
X129914965Y-73606863D01*
X129895006Y-73974991D01*
X129895006Y-73975000D01*
X129914965Y-74343136D01*
X129914965Y-74343142D01*
X129974613Y-74706974D01*
X129974613Y-74706976D01*
X130073247Y-75062221D01*
X130073249Y-75062226D01*
X130209709Y-75404715D01*
X130209715Y-75404728D01*
X130382404Y-75730456D01*
X130382407Y-75730461D01*
X130589303Y-76035608D01*
X130589312Y-76035620D01*
X130725496Y-76195948D01*
X130725497Y-76195948D01*
X132041350Y-74880094D01*
X132095456Y-74958480D01*
X132268816Y-75138966D01*
X132394865Y-75233686D01*
X131076520Y-76552031D01*
X131095657Y-76570159D01*
X131095658Y-76570160D01*
X131327901Y-76746707D01*
X131375129Y-76807684D01*
X131385542Y-76884106D01*
X131356348Y-76955496D01*
X131310751Y-76995206D01*
X131268746Y-77018822D01*
X131261915Y-77022214D01*
X131221903Y-77039596D01*
X131221902Y-77039596D01*
X131209639Y-77049573D01*
X131188643Y-77063864D01*
X131174861Y-77071613D01*
X131174859Y-77071615D01*
X131144016Y-77102457D01*
X131138353Y-77107567D01*
X131104516Y-77135097D01*
X131104513Y-77135100D01*
X131095399Y-77148012D01*
X131079033Y-77167441D01*
X129667382Y-78579092D01*
X129618956Y-78624319D01*
X129596294Y-78661583D01*
X129592002Y-78667891D01*
X129565639Y-78702657D01*
X129565638Y-78702657D01*
X129559837Y-78717368D01*
X129548543Y-78740108D01*
X129540326Y-78753621D01*
X129540325Y-78753623D01*
X129528557Y-78795622D01*
X129526126Y-78802853D01*
X129510125Y-78843429D01*
X129510123Y-78843437D01*
X129508506Y-78859163D01*
X129503766Y-78884105D01*
X129499500Y-78899334D01*
X129499500Y-78942952D01*
X129499109Y-78950575D01*
X129494648Y-78993972D01*
X129497333Y-79009544D01*
X129499500Y-79034862D01*
X129499500Y-84036982D01*
X129479538Y-84111482D01*
X129473126Y-84121622D01*
X129447482Y-84158773D01*
X129447480Y-84158778D01*
X129389312Y-84312152D01*
X129369539Y-84475000D01*
X129389312Y-84637847D01*
X129447480Y-84791222D01*
X129447482Y-84791226D01*
X129473123Y-84828373D01*
X129499017Y-84901024D01*
X129499500Y-84913016D01*
X129499500Y-88340602D01*
X129497237Y-88406826D01*
X129507565Y-88449207D01*
X129508990Y-88456705D01*
X129514930Y-88499920D01*
X129518101Y-88507220D01*
X129521226Y-88514414D01*
X129529324Y-88538495D01*
X129533065Y-88553846D01*
X129533066Y-88553848D01*
X129533067Y-88553852D01*
X129533068Y-88553853D01*
X129554442Y-88591869D01*
X129557836Y-88598702D01*
X129575217Y-88638714D01*
X129575221Y-88638721D01*
X129585191Y-88650976D01*
X129599484Y-88671977D01*
X129607233Y-88685758D01*
X129638081Y-88716606D01*
X129643195Y-88722273D01*
X129670722Y-88756108D01*
X129683631Y-88765220D01*
X129703065Y-88781590D01*
X130123720Y-89202245D01*
X130162284Y-89269040D01*
X130162284Y-89346168D01*
X130160069Y-89353646D01*
X130130059Y-89446008D01*
X130110274Y-89634266D01*
X130130059Y-89822520D01*
X130130060Y-89822522D01*
X130188555Y-90002550D01*
X130188556Y-90002551D01*
X130283203Y-90166486D01*
X130398919Y-90295000D01*
X130409863Y-90307154D01*
X130563004Y-90418417D01*
X130735931Y-90495410D01*
X130875142Y-90525000D01*
X130921086Y-90534766D01*
X130921088Y-90534766D01*
X131110382Y-90534766D01*
X131152816Y-90525746D01*
X131295537Y-90495410D01*
X131468464Y-90418417D01*
X131621605Y-90307154D01*
X131748267Y-90166482D01*
X131827546Y-90029165D01*
X131882081Y-89974630D01*
X131956581Y-89954667D01*
X132031081Y-89974629D01*
X132061941Y-89998308D01*
X134396237Y-92332603D01*
X134441478Y-92381044D01*
X134478752Y-92403710D01*
X134485064Y-92408007D01*
X134519814Y-92434360D01*
X134519815Y-92434360D01*
X134519816Y-92434361D01*
X134523268Y-92435722D01*
X134523640Y-92435869D01*
X134527243Y-92438537D01*
X134528699Y-92439356D01*
X134528595Y-92439539D01*
X134585621Y-92481771D01*
X134616347Y-92552515D01*
X134607585Y-92629144D01*
X134561683Y-92691125D01*
X134490939Y-92721851D01*
X134468975Y-92723479D01*
X134319240Y-92723479D01*
X134277579Y-92732333D01*
X134270144Y-92733524D01*
X134224725Y-92738464D01*
X134187771Y-92750914D01*
X134179471Y-92753187D01*
X134144366Y-92760650D01*
X134102400Y-92779333D01*
X134095887Y-92781874D01*
X134049416Y-92797534D01*
X134049408Y-92797537D01*
X134018869Y-92815910D01*
X134010760Y-92820134D01*
X133981042Y-92833366D01*
X133941171Y-92862334D01*
X133935794Y-92865895D01*
X133908102Y-92882557D01*
X133890896Y-92892910D01*
X133890894Y-92892911D01*
X133867452Y-92915117D01*
X133860008Y-92921301D01*
X133843911Y-92932998D01*
X133836401Y-92938455D01*
X133807572Y-92970472D01*
X133742886Y-93012478D01*
X133693080Y-93018554D01*
X133693080Y-93019500D01*
X132678769Y-93019500D01*
X132550858Y-93035954D01*
X132490133Y-93051839D01*
X132370542Y-93100129D01*
X132256397Y-93187715D01*
X132256389Y-93187722D01*
X132255448Y-93188686D01*
X132255012Y-93188944D01*
X132252418Y-93191247D01*
X132251973Y-93190746D01*
X132189112Y-93228035D01*
X132111989Y-93228943D01*
X132051280Y-93197182D01*
X131961552Y-93119431D01*
X131830679Y-93059663D01*
X131830677Y-93059662D01*
X131830672Y-93059660D01*
X131830665Y-93059658D01*
X131763636Y-93039976D01*
X131763635Y-93039975D01*
X131763624Y-93039973D01*
X131621232Y-93019501D01*
X131621220Y-93019500D01*
X131621218Y-93019500D01*
X130612823Y-93019500D01*
X130605219Y-93019907D01*
X130585795Y-93020948D01*
X130585789Y-93020948D01*
X130585784Y-93020949D01*
X130574232Y-93022191D01*
X130545976Y-93025229D01*
X130492556Y-93033885D01*
X130492554Y-93033885D01*
X130492552Y-93033886D01*
X130444422Y-93051838D01*
X130357747Y-93084166D01*
X130357744Y-93084167D01*
X130296424Y-93117650D01*
X130296416Y-93117655D01*
X130181241Y-93203874D01*
X129894302Y-93490813D01*
X129876209Y-93510955D01*
X129876209Y-93510956D01*
X129851078Y-93542142D01*
X129819433Y-93586026D01*
X129759661Y-93716905D01*
X129759658Y-93716914D01*
X129739976Y-93783944D01*
X129739973Y-93783955D01*
X129719501Y-93926347D01*
X129719500Y-93926365D01*
X129719500Y-95712174D01*
X129720948Y-95739205D01*
X129720948Y-95739204D01*
X129725229Y-95779024D01*
X129725231Y-95779036D01*
X129733886Y-95832448D01*
X129784168Y-95967257D01*
X129792687Y-95982858D01*
X129817650Y-96028575D01*
X129817655Y-96028583D01*
X129903874Y-96143758D01*
X129903879Y-96143763D01*
X130315813Y-96555698D01*
X130335955Y-96573791D01*
X130335956Y-96573791D01*
X130335957Y-96573792D01*
X130367142Y-96598922D01*
X130411026Y-96630567D01*
X130541903Y-96690338D01*
X130559275Y-96695439D01*
X130608944Y-96710024D01*
X130608955Y-96710026D01*
X130751347Y-96730498D01*
X130751351Y-96730498D01*
X130751362Y-96730500D01*
X130751366Y-96730500D01*
X131560901Y-96730500D01*
X131635401Y-96750462D01*
X131689939Y-96805000D01*
X131709901Y-96879500D01*
X131689939Y-96954000D01*
X131637719Y-97007172D01*
X131389161Y-97156724D01*
X131095663Y-97379835D01*
X131076520Y-97397967D01*
X132393120Y-98714567D01*
X132365820Y-98731832D01*
X132178499Y-98897784D01*
X132039488Y-99068041D01*
X130725497Y-97754050D01*
X130725496Y-97754050D01*
X130589308Y-97914383D01*
X130589306Y-97914386D01*
X130382402Y-98219547D01*
X130209715Y-98545271D01*
X130209709Y-98545284D01*
X130073249Y-98887773D01*
X130073247Y-98887778D01*
X129974613Y-99243023D01*
X129974613Y-99243025D01*
X129914965Y-99606857D01*
X129914965Y-99606863D01*
X129895006Y-99974991D01*
X129895006Y-99975000D01*
X129914965Y-100343136D01*
X129914965Y-100343142D01*
X129974613Y-100706974D01*
X129974613Y-100706976D01*
X130073247Y-101062221D01*
X130073249Y-101062226D01*
X130209709Y-101404715D01*
X130209715Y-101404728D01*
X130382404Y-101730456D01*
X130382407Y-101730461D01*
X130589303Y-102035608D01*
X130589312Y-102035620D01*
X130725496Y-102195948D01*
X130725497Y-102195948D01*
X132041350Y-100880094D01*
X132095456Y-100958480D01*
X132268816Y-101138966D01*
X132394865Y-101233685D01*
X131076520Y-102552031D01*
X131095657Y-102570159D01*
X131095658Y-102570160D01*
X131389165Y-102793278D01*
X131705066Y-102983350D01*
X132039684Y-103138160D01*
X132039694Y-103138165D01*
X132389063Y-103255880D01*
X132749131Y-103335137D01*
X133115656Y-103374999D01*
X133115666Y-103375000D01*
X133484334Y-103375000D01*
X133484343Y-103374999D01*
X133850868Y-103335137D01*
X133850869Y-103335137D01*
X134210936Y-103255880D01*
X134560305Y-103138165D01*
X134560315Y-103138160D01*
X134894933Y-102983350D01*
X135210834Y-102793278D01*
X135504346Y-102570155D01*
X135586317Y-102492509D01*
X135654132Y-102455768D01*
X135731232Y-102457856D01*
X135796958Y-102498214D01*
X135833699Y-102566029D01*
X135837533Y-102609346D01*
X135832060Y-102703308D01*
X135832060Y-102703315D01*
X135862335Y-102875011D01*
X135931388Y-103035095D01*
X136035498Y-103174938D01*
X136169050Y-103287002D01*
X136169051Y-103287002D01*
X136169053Y-103287004D01*
X136324852Y-103365249D01*
X136494496Y-103405455D01*
X136494498Y-103405455D01*
X136625106Y-103405455D01*
X136625110Y-103405454D01*
X136754831Y-103390292D01*
X136918660Y-103330663D01*
X137064321Y-103234860D01*
X137094417Y-103202961D01*
X137138131Y-103156627D01*
X137183963Y-103108048D01*
X137271134Y-102957062D01*
X137321136Y-102790043D01*
X137331274Y-102615995D01*
X137300999Y-102444301D01*
X137279915Y-102395421D01*
X137231945Y-102284214D01*
X137127835Y-102144371D01*
X136994283Y-102032307D01*
X136838485Y-101954062D01*
X136838483Y-101954061D01*
X136838482Y-101954061D01*
X136668838Y-101913855D01*
X136538231Y-101913855D01*
X136538222Y-101913855D01*
X136408507Y-101929017D01*
X136408502Y-101929018D01*
X136405596Y-101930076D01*
X136403129Y-101930291D01*
X136400061Y-101931019D01*
X136399954Y-101930569D01*
X136328762Y-101936795D01*
X136258861Y-101904197D01*
X136214624Y-101841016D01*
X136207905Y-101764182D01*
X136222997Y-101720267D01*
X136390284Y-101404728D01*
X136390290Y-101404715D01*
X136526750Y-101062226D01*
X136526752Y-101062221D01*
X136625386Y-100706976D01*
X136625387Y-100706971D01*
X136636955Y-100636411D01*
X136668707Y-100566122D01*
X136731349Y-100521125D01*
X136808097Y-100513479D01*
X136837817Y-100521578D01*
X136920994Y-100553801D01*
X136921012Y-100553806D01*
X136987060Y-100566151D01*
X136987061Y-100566151D01*
X136987061Y-99817168D01*
X137039603Y-99852991D01*
X137169233Y-99892977D01*
X137270784Y-99892977D01*
X137371203Y-99877841D01*
X137487061Y-99822046D01*
X137487061Y-100566151D01*
X137553109Y-100553806D01*
X137553127Y-100553801D01*
X137751851Y-100476815D01*
X137751854Y-100476813D01*
X137933061Y-100364615D01*
X138090562Y-100221033D01*
X138218996Y-100050961D01*
X138313999Y-99860168D01*
X138361573Y-99692965D01*
X137612353Y-99692965D01*
X137660697Y-99609230D01*
X137690883Y-99476974D01*
X137680746Y-99341697D01*
X137672425Y-99320496D01*
X137715872Y-99340338D01*
X137721413Y-99341965D01*
X137782913Y-99360024D01*
X137782924Y-99360026D01*
X137925316Y-99380498D01*
X137925320Y-99380498D01*
X137925331Y-99380500D01*
X137925335Y-99380500D01*
X139575190Y-99380500D01*
X139649690Y-99400462D01*
X139704228Y-99455000D01*
X139724190Y-99529500D01*
X139704228Y-99604000D01*
X139680545Y-99634863D01*
X139668153Y-99647254D01*
X139654983Y-99657806D01*
X139655343Y-99658241D01*
X139648123Y-99664213D01*
X139624448Y-99689424D01*
X139600773Y-99714635D01*
X139590327Y-99725081D01*
X139579883Y-99735525D01*
X139579876Y-99735533D01*
X139575986Y-99740547D01*
X139571436Y-99745874D01*
X139539938Y-99779418D01*
X139539935Y-99779421D01*
X139531231Y-99795254D01*
X139518401Y-99814786D01*
X139507328Y-99829062D01*
X139507325Y-99829067D01*
X139489053Y-99871288D01*
X139485966Y-99877590D01*
X139463803Y-99917908D01*
X139463800Y-99917914D01*
X139459307Y-99935412D01*
X139451740Y-99957513D01*
X139444564Y-99974098D01*
X139444560Y-99974110D01*
X139437363Y-100019549D01*
X139435940Y-100026422D01*
X139424500Y-100070979D01*
X139424500Y-100089045D01*
X139422666Y-100112351D01*
X139419840Y-100130195D01*
X139424169Y-100175996D01*
X139424500Y-100183011D01*
X139424500Y-102891715D01*
X139404538Y-102966215D01*
X139386229Y-102991415D01*
X139317468Y-103067782D01*
X139222822Y-103231714D01*
X139222819Y-103231721D01*
X139164325Y-103411745D01*
X139144540Y-103600000D01*
X139164325Y-103788254D01*
X139211455Y-103933304D01*
X139222821Y-103968284D01*
X139257115Y-104027683D01*
X139317469Y-104132220D01*
X139401729Y-104225799D01*
X139436745Y-104294521D01*
X139432709Y-104371543D01*
X139390702Y-104436228D01*
X139321980Y-104471244D01*
X139291001Y-104474500D01*
X133300000Y-104474500D01*
X133105535Y-104466009D01*
X132905044Y-104456739D01*
X132898758Y-104456181D01*
X132698495Y-104429816D01*
X132504456Y-104402749D01*
X132498621Y-104401697D01*
X132300292Y-104357728D01*
X132110363Y-104313057D01*
X132105016Y-104311588D01*
X131910712Y-104250325D01*
X131789471Y-104209690D01*
X131725915Y-104188388D01*
X131721088Y-104186581D01*
X131532522Y-104108475D01*
X131354237Y-104029754D01*
X131349928Y-104027683D01*
X131168627Y-103933304D01*
X130998316Y-103838441D01*
X130994539Y-103836189D01*
X130821930Y-103726225D01*
X130660998Y-103615984D01*
X130657748Y-103613626D01*
X130495208Y-103488905D01*
X130345019Y-103364190D01*
X130342281Y-103361801D01*
X130191064Y-103223236D01*
X130051763Y-103083935D01*
X130036963Y-103067784D01*
X129913192Y-102932712D01*
X129910808Y-102929979D01*
X129786094Y-102779791D01*
X129661372Y-102617250D01*
X129659014Y-102614000D01*
X129628982Y-102570159D01*
X129548774Y-102453069D01*
X129508766Y-102390269D01*
X129438802Y-102280447D01*
X129436556Y-102276681D01*
X129391588Y-102195948D01*
X129341696Y-102106373D01*
X129247314Y-101925068D01*
X129245255Y-101920784D01*
X129166524Y-101742477D01*
X129088409Y-101553890D01*
X129086619Y-101549107D01*
X129024674Y-101364287D01*
X128963408Y-101169976D01*
X128961947Y-101164660D01*
X128917271Y-100974707D01*
X128906249Y-100924991D01*
X128873295Y-100776345D01*
X128872255Y-100770578D01*
X128845183Y-100576504D01*
X128818815Y-100376221D01*
X128818260Y-100369966D01*
X128808996Y-100169602D01*
X128800500Y-99975000D01*
X128800500Y-99974500D01*
X128800500Y-73975000D01*
X128809000Y-73780296D01*
X128818260Y-73580029D01*
X128818814Y-73573783D01*
X128845190Y-73373444D01*
X128845268Y-73372886D01*
X128872256Y-73179412D01*
X128873293Y-73173663D01*
X128917275Y-72975271D01*
X128961951Y-72785324D01*
X128963404Y-72780036D01*
X129024653Y-72585780D01*
X129025316Y-72583800D01*
X129086636Y-72400846D01*
X129088404Y-72396121D01*
X129166524Y-72207523D01*
X129245270Y-72029180D01*
X129247299Y-72024960D01*
X129341704Y-71843610D01*
X129436575Y-71673285D01*
X129438810Y-71669540D01*
X129453596Y-71646330D01*
X129548778Y-71496923D01*
X129659037Y-71335966D01*
X129661346Y-71332782D01*
X129786091Y-71170212D01*
X129910871Y-71019946D01*
X129913159Y-71017324D01*
X130051742Y-70866088D01*
X130191088Y-70726742D01*
X130193616Y-70724424D01*
X130342324Y-70588159D01*
X130344946Y-70585871D01*
X130495219Y-70461086D01*
X130657782Y-70336346D01*
X130660966Y-70334037D01*
X130821923Y-70223778D01*
X130994542Y-70113808D01*
X130998285Y-70111575D01*
X131168610Y-70016704D01*
X131349960Y-69922299D01*
X131354180Y-69920270D01*
X131532523Y-69841524D01*
X131721121Y-69763404D01*
X131725846Y-69761636D01*
X131910780Y-69699653D01*
X131913560Y-69698776D01*
X132105036Y-69638404D01*
X132110324Y-69636951D01*
X132300271Y-69592275D01*
X132498663Y-69548293D01*
X132504412Y-69547256D01*
X132698458Y-69520188D01*
X132898783Y-69493814D01*
X132905029Y-69493260D01*
X133105296Y-69484000D01*
X133300000Y-69475500D01*
X133300500Y-69475500D01*
X141903415Y-69475500D01*
X141977915Y-69495462D01*
G37*
%TD.AperFunction*%
%TA.AperFunction,Conductor*%
G36*
X163755859Y-96169743D02*
G01*
X163794423Y-96236538D01*
X163799500Y-96275102D01*
X163799500Y-99975000D01*
X163791009Y-100169464D01*
X163781739Y-100369954D01*
X163781181Y-100376240D01*
X163754816Y-100576504D01*
X163727749Y-100770542D01*
X163726697Y-100776376D01*
X163682728Y-100974707D01*
X163638057Y-101164635D01*
X163636588Y-101169982D01*
X163575325Y-101364287D01*
X163513390Y-101549075D01*
X163511581Y-101553910D01*
X163433475Y-101742477D01*
X163354753Y-101920762D01*
X163352683Y-101925070D01*
X163258304Y-102106373D01*
X163163441Y-102276682D01*
X163161189Y-102280459D01*
X163051225Y-102453069D01*
X162940984Y-102614000D01*
X162938626Y-102617250D01*
X162813905Y-102779791D01*
X162689190Y-102929979D01*
X162686802Y-102932717D01*
X162548236Y-103083935D01*
X162408935Y-103223236D01*
X162257717Y-103361802D01*
X162254979Y-103364190D01*
X162104791Y-103488905D01*
X161942250Y-103613626D01*
X161939000Y-103615984D01*
X161778069Y-103726225D01*
X161605459Y-103836189D01*
X161601682Y-103838441D01*
X161431373Y-103933304D01*
X161250070Y-104027683D01*
X161245762Y-104029753D01*
X161067477Y-104108475D01*
X160878910Y-104186581D01*
X160874075Y-104188390D01*
X160689287Y-104250325D01*
X160494982Y-104311588D01*
X160489635Y-104313057D01*
X160299707Y-104357728D01*
X160101376Y-104401697D01*
X160095542Y-104402749D01*
X159901504Y-104429816D01*
X159701240Y-104456181D01*
X159694954Y-104456739D01*
X159494464Y-104466009D01*
X159300000Y-104474500D01*
X140808999Y-104474500D01*
X140734499Y-104454538D01*
X140679961Y-104400000D01*
X140659999Y-104325500D01*
X140679961Y-104251000D01*
X140698271Y-104225799D01*
X140782530Y-104132220D01*
X140782531Y-104132218D01*
X140782533Y-104132216D01*
X140877179Y-103968284D01*
X140935674Y-103788256D01*
X140955460Y-103600000D01*
X140935674Y-103411744D01*
X140878330Y-103235261D01*
X140875207Y-103175676D01*
X140854040Y-103167267D01*
X140813979Y-103122251D01*
X140782533Y-103067784D01*
X140753098Y-103035093D01*
X140713771Y-102991415D01*
X140678756Y-102922693D01*
X140675500Y-102891715D01*
X140675500Y-102731338D01*
X141012588Y-102731338D01*
X141042863Y-102903034D01*
X141079831Y-102988735D01*
X141090819Y-103063754D01*
X141119738Y-103078489D01*
X141139554Y-103100241D01*
X141216026Y-103202961D01*
X141349578Y-103315025D01*
X141349579Y-103315025D01*
X141349581Y-103315027D01*
X141505380Y-103393272D01*
X141675024Y-103433478D01*
X141675026Y-103433478D01*
X141805634Y-103433478D01*
X141805638Y-103433477D01*
X141935359Y-103418315D01*
X142099188Y-103358686D01*
X142244849Y-103262883D01*
X142364491Y-103136071D01*
X142451662Y-102985085D01*
X142501664Y-102818066D01*
X142511802Y-102644018D01*
X142481527Y-102472324D01*
X142474386Y-102455768D01*
X142412473Y-102312237D01*
X142308363Y-102172394D01*
X142174811Y-102060330D01*
X142019013Y-101982085D01*
X142019011Y-101982084D01*
X142019010Y-101982084D01*
X141849366Y-101941878D01*
X141718759Y-101941878D01*
X141718750Y-101941878D01*
X141589035Y-101957040D01*
X141589031Y-101957040D01*
X141425206Y-102016668D01*
X141425204Y-102016669D01*
X141425202Y-102016670D01*
X141325255Y-102082406D01*
X141279536Y-102112476D01*
X141159904Y-102239278D01*
X141159896Y-102239289D01*
X141072728Y-102390269D01*
X141072727Y-102390271D01*
X141047359Y-102475009D01*
X141024301Y-102552031D01*
X141022726Y-102557291D01*
X141012588Y-102731332D01*
X141012588Y-102731338D01*
X140675500Y-102731338D01*
X140675500Y-101399610D01*
X140695462Y-101325110D01*
X140750000Y-101270572D01*
X140824500Y-101250610D01*
X140899000Y-101270572D01*
X140920277Y-101285471D01*
X140961854Y-101320359D01*
X140961855Y-101320359D01*
X140961857Y-101320361D01*
X141117656Y-101398606D01*
X141287300Y-101438812D01*
X141287302Y-101438812D01*
X141417910Y-101438812D01*
X141417914Y-101438811D01*
X141547635Y-101423649D01*
X141711464Y-101364020D01*
X141857125Y-101268217D01*
X141873737Y-101250610D01*
X141976761Y-101141411D01*
X141976767Y-101141405D01*
X142063938Y-100990419D01*
X142113940Y-100823400D01*
X142124078Y-100649352D01*
X142093803Y-100477658D01*
X142093440Y-100476815D01*
X142024749Y-100317571D01*
X141920639Y-100177728D01*
X141787087Y-100065664D01*
X141631289Y-99987419D01*
X141631287Y-99987418D01*
X141631286Y-99987418D01*
X141461642Y-99947212D01*
X141461640Y-99947212D01*
X141459277Y-99946652D01*
X141391389Y-99910047D01*
X141350899Y-99844402D01*
X141348655Y-99767306D01*
X141385260Y-99699418D01*
X141388280Y-99696309D01*
X141684128Y-99400462D01*
X142240449Y-98844141D01*
X142307244Y-98805577D01*
X142345808Y-98800500D01*
X142820500Y-98800500D01*
X142895000Y-98820462D01*
X142949538Y-98875000D01*
X142969500Y-98949500D01*
X142969500Y-99312177D01*
X142970949Y-99339216D01*
X142971070Y-99340338D01*
X142975229Y-99379024D01*
X142975231Y-99379036D01*
X142983886Y-99432448D01*
X142992298Y-99455000D01*
X143034166Y-99567252D01*
X143034167Y-99567255D01*
X143067650Y-99628575D01*
X143067655Y-99628583D01*
X143153874Y-99743758D01*
X143153879Y-99743763D01*
X143865813Y-100455698D01*
X143885955Y-100473791D01*
X143885956Y-100473791D01*
X143885957Y-100473792D01*
X143917142Y-100498922D01*
X143961026Y-100530567D01*
X144091903Y-100590338D01*
X144115899Y-100597384D01*
X144158944Y-100610024D01*
X144158955Y-100610026D01*
X144301347Y-100630498D01*
X144301351Y-100630498D01*
X144301362Y-100630500D01*
X144751464Y-100630500D01*
X144825964Y-100650462D01*
X144880502Y-100705000D01*
X144900464Y-100779500D01*
X144880502Y-100854000D01*
X144873522Y-100864955D01*
X144871128Y-100868375D01*
X144850967Y-100897166D01*
X144850965Y-100897171D01*
X144774001Y-101062221D01*
X144751096Y-101111340D01*
X144689937Y-101339590D01*
X144689937Y-101339592D01*
X144674500Y-101516034D01*
X144674500Y-101883966D01*
X144683659Y-101988647D01*
X144689937Y-102060409D01*
X144712435Y-102144372D01*
X144751097Y-102288663D01*
X144850965Y-102502829D01*
X144986505Y-102696401D01*
X145153599Y-102863495D01*
X145347170Y-102999035D01*
X145561337Y-103098903D01*
X145789592Y-103160063D01*
X146025000Y-103180659D01*
X146260408Y-103160063D01*
X146488663Y-103098903D01*
X146702829Y-102999035D01*
X146896401Y-102863495D01*
X147063495Y-102696401D01*
X147152948Y-102568648D01*
X147212029Y-102519073D01*
X147287986Y-102505680D01*
X147360463Y-102532059D01*
X147397051Y-102568647D01*
X147486505Y-102696401D01*
X147653599Y-102863495D01*
X147847170Y-102999035D01*
X148061337Y-103098903D01*
X148289592Y-103160063D01*
X148525000Y-103180659D01*
X148760408Y-103160063D01*
X148988663Y-103098903D01*
X149202829Y-102999035D01*
X149396401Y-102863495D01*
X149563495Y-102696401D01*
X149653252Y-102568214D01*
X149712334Y-102518637D01*
X149788291Y-102505244D01*
X149860767Y-102531623D01*
X149897359Y-102568214D01*
X149986891Y-102696079D01*
X150153923Y-102863111D01*
X150347411Y-102998593D01*
X150347420Y-102998599D01*
X150561508Y-103098430D01*
X150561513Y-103098432D01*
X150775000Y-103155634D01*
X150775000Y-102108018D01*
X150889801Y-102160446D01*
X150991025Y-102175000D01*
X151058975Y-102175000D01*
X151160199Y-102160446D01*
X151275000Y-102108018D01*
X151275000Y-103155633D01*
X151488486Y-103098432D01*
X151702580Y-102998597D01*
X151896079Y-102863108D01*
X152020974Y-102738213D01*
X152087768Y-102699649D01*
X152164896Y-102699649D01*
X152231692Y-102738213D01*
X152253146Y-102765347D01*
X152332288Y-102893656D01*
X152456344Y-103017712D01*
X152605666Y-103109814D01*
X152772203Y-103164999D01*
X152874991Y-103175500D01*
X154175008Y-103175499D01*
X154277797Y-103164999D01*
X154444334Y-103109814D01*
X154593656Y-103017712D01*
X154717712Y-102893656D01*
X154809814Y-102744334D01*
X154864999Y-102577797D01*
X154875500Y-102475009D01*
X154875499Y-100924992D01*
X154864999Y-100822203D01*
X154809814Y-100655666D01*
X154717712Y-100506344D01*
X154593656Y-100382288D01*
X154444334Y-100290186D01*
X154361065Y-100262593D01*
X154277798Y-100235001D01*
X154260665Y-100233250D01*
X154175009Y-100224500D01*
X154175004Y-100224500D01*
X152874996Y-100224500D01*
X152772202Y-100235001D01*
X152605666Y-100290186D01*
X152456343Y-100382288D01*
X152332288Y-100506343D01*
X152253150Y-100634648D01*
X152197049Y-100687577D01*
X152122000Y-100705364D01*
X152048112Y-100683244D01*
X152020974Y-100661786D01*
X151896076Y-100536888D01*
X151702588Y-100401406D01*
X151702579Y-100401400D01*
X151488491Y-100301569D01*
X151488489Y-100301568D01*
X151275000Y-100244364D01*
X151275000Y-101291981D01*
X151160199Y-101239554D01*
X151058975Y-101225000D01*
X150991025Y-101225000D01*
X150889801Y-101239554D01*
X150775000Y-101291981D01*
X150775000Y-100244364D01*
X150774999Y-100244364D01*
X150561512Y-100301568D01*
X150347419Y-100401402D01*
X150153920Y-100536891D01*
X149986888Y-100703923D01*
X149897358Y-100831785D01*
X149838274Y-100881362D01*
X149762318Y-100894755D01*
X149689842Y-100868375D01*
X149653251Y-100831785D01*
X149647380Y-100823400D01*
X149563495Y-100703599D01*
X149396401Y-100536505D01*
X149202830Y-100400965D01*
X148988663Y-100301097D01*
X148988661Y-100301096D01*
X148760409Y-100239937D01*
X148525000Y-100219341D01*
X148289590Y-100239937D01*
X148260300Y-100247785D01*
X148183172Y-100247783D01*
X148116378Y-100209218D01*
X148077815Y-100142422D01*
X148077817Y-100065294D01*
X148116380Y-99998502D01*
X148124819Y-99990064D01*
X148192626Y-99905922D01*
X148202883Y-99889962D01*
X148259950Y-99838082D01*
X148335316Y-99821686D01*
X148349432Y-99823033D01*
X148362331Y-99824888D01*
X148401352Y-99830499D01*
X148401358Y-99830499D01*
X148401362Y-99830500D01*
X148401366Y-99830500D01*
X149994155Y-99830500D01*
X149994161Y-99830500D01*
X150065304Y-99823034D01*
X150099096Y-99819488D01*
X150099098Y-99819487D01*
X150099103Y-99819487D01*
X150149465Y-99808799D01*
X150249828Y-99776243D01*
X150371653Y-99699690D01*
X150424919Y-99654475D01*
X150485542Y-99585933D01*
X150549849Y-99543356D01*
X150613832Y-99536586D01*
X150774999Y-99554746D01*
X150775001Y-99554746D01*
X150942948Y-99535822D01*
X151101714Y-99480267D01*
X150706079Y-99084632D01*
X150667515Y-99017837D01*
X150663254Y-98963703D01*
X150680460Y-98800000D01*
X151128553Y-98800000D01*
X151455267Y-99126714D01*
X151510822Y-98967948D01*
X151529746Y-98800001D01*
X151529746Y-98799998D01*
X151510822Y-98632051D01*
X151455267Y-98473284D01*
X151128553Y-98799999D01*
X151128553Y-98800000D01*
X150680460Y-98800000D01*
X150663565Y-98639255D01*
X150675631Y-98563079D01*
X150701150Y-98523839D01*
X150705535Y-98518983D01*
X150705536Y-98518981D01*
X150705542Y-98518975D01*
X150705538Y-98518978D01*
X150712506Y-98509865D01*
X150719012Y-98502433D01*
X150775001Y-98446446D01*
X151101714Y-98119731D01*
X150955288Y-98068494D01*
X150891562Y-98025046D01*
X150858097Y-97955556D01*
X150855500Y-97927856D01*
X150855500Y-97562826D01*
X150854052Y-97535795D01*
X150854052Y-97535796D01*
X150854051Y-97535784D01*
X150851876Y-97515555D01*
X150849771Y-97495976D01*
X150846827Y-97477807D01*
X150841114Y-97442552D01*
X150825755Y-97401375D01*
X150818424Y-97324600D01*
X150850463Y-97254441D01*
X150876066Y-97230029D01*
X150911018Y-97203865D01*
X151415743Y-96699141D01*
X151482538Y-96660577D01*
X151521102Y-96655500D01*
X157700691Y-96655500D01*
X157775191Y-96675462D01*
X157829729Y-96730000D01*
X157849691Y-96804500D01*
X157829729Y-96879000D01*
X157775191Y-96933538D01*
X157763254Y-96939729D01*
X157705070Y-96966647D01*
X157389165Y-97156721D01*
X157095663Y-97379835D01*
X157076520Y-97397967D01*
X158393120Y-98714567D01*
X158365820Y-98731832D01*
X158178499Y-98897784D01*
X158039488Y-99068041D01*
X156725497Y-97754050D01*
X156725496Y-97754050D01*
X156589308Y-97914383D01*
X156589306Y-97914386D01*
X156382402Y-98219547D01*
X156209715Y-98545271D01*
X156209709Y-98545284D01*
X156073249Y-98887773D01*
X156073247Y-98887778D01*
X155974613Y-99243023D01*
X155974613Y-99243025D01*
X155914965Y-99606857D01*
X155914965Y-99606863D01*
X155895006Y-99974991D01*
X155895006Y-99975000D01*
X155914965Y-100343136D01*
X155914965Y-100343142D01*
X155974613Y-100706974D01*
X155974613Y-100706976D01*
X156073247Y-101062221D01*
X156073249Y-101062226D01*
X156209709Y-101404715D01*
X156209715Y-101404728D01*
X156382404Y-101730456D01*
X156382407Y-101730461D01*
X156589303Y-102035608D01*
X156589312Y-102035620D01*
X156725496Y-102195948D01*
X156725497Y-102195948D01*
X158041350Y-100880094D01*
X158095456Y-100958480D01*
X158268816Y-101138966D01*
X158394865Y-101233686D01*
X157076520Y-102552031D01*
X157095657Y-102570159D01*
X157095658Y-102570160D01*
X157389165Y-102793278D01*
X157705066Y-102983350D01*
X158039684Y-103138160D01*
X158039694Y-103138165D01*
X158389063Y-103255880D01*
X158749131Y-103335137D01*
X159115656Y-103374999D01*
X159115666Y-103375000D01*
X159484334Y-103375000D01*
X159484343Y-103374999D01*
X159850868Y-103335137D01*
X159850869Y-103335137D01*
X160210936Y-103255880D01*
X160560305Y-103138165D01*
X160560315Y-103138160D01*
X160894933Y-102983350D01*
X161210834Y-102793278D01*
X161504352Y-102570151D01*
X161523479Y-102552032D01*
X160206879Y-101235432D01*
X160234180Y-101218168D01*
X160421501Y-101052216D01*
X160560511Y-100881958D01*
X161874501Y-102195948D01*
X162010690Y-102035617D01*
X162010694Y-102035611D01*
X162217592Y-101730461D01*
X162217595Y-101730456D01*
X162390284Y-101404728D01*
X162390290Y-101404715D01*
X162526750Y-101062226D01*
X162526752Y-101062221D01*
X162625386Y-100706976D01*
X162625386Y-100706974D01*
X162685034Y-100343142D01*
X162685034Y-100343136D01*
X162704994Y-99975000D01*
X162704994Y-99974991D01*
X162685034Y-99606863D01*
X162685034Y-99606857D01*
X162625386Y-99243025D01*
X162625386Y-99243023D01*
X162526752Y-98887778D01*
X162526750Y-98887773D01*
X162390290Y-98545284D01*
X162390284Y-98545271D01*
X162217595Y-98219543D01*
X162217592Y-98219538D01*
X162010696Y-97914391D01*
X162010687Y-97914379D01*
X161874502Y-97754050D01*
X161874501Y-97754050D01*
X160558648Y-99069903D01*
X160504544Y-98991520D01*
X160331184Y-98811034D01*
X160205132Y-98716312D01*
X161523479Y-97397966D01*
X161504347Y-97379844D01*
X161210834Y-97156721D01*
X160894929Y-96966647D01*
X160836746Y-96939729D01*
X160777513Y-96890330D01*
X160750916Y-96817933D01*
X160764080Y-96741937D01*
X160813479Y-96682704D01*
X160885876Y-96656107D01*
X160899309Y-96655500D01*
X162812174Y-96655500D01*
X162812177Y-96655500D01*
X162819780Y-96655092D01*
X162839205Y-96654052D01*
X162839204Y-96654052D01*
X162839210Y-96654051D01*
X162839216Y-96654051D01*
X162850768Y-96652808D01*
X162879024Y-96649771D01*
X162882448Y-96649216D01*
X162932448Y-96641114D01*
X163067257Y-96590832D01*
X163128580Y-96557347D01*
X163243761Y-96471123D01*
X163545142Y-96169742D01*
X163611936Y-96131179D01*
X163689064Y-96131179D01*
X163755859Y-96169743D01*
G37*
%TD.AperFunction*%
%TA.AperFunction,Conductor*%
G36*
X153773178Y-90470462D02*
G01*
X153827716Y-90525000D01*
X153847124Y-90586659D01*
X153852006Y-90643107D01*
X153859319Y-90685063D01*
X153859319Y-90685064D01*
X153881609Y-90769258D01*
X153881610Y-90769261D01*
X153881611Y-90769263D01*
X153949056Y-90896356D01*
X153990256Y-90952782D01*
X153990258Y-90952784D01*
X153990262Y-90952790D01*
X154068276Y-91032684D01*
X154106042Y-91099933D01*
X154105124Y-91177056D01*
X154099350Y-91193748D01*
X154098837Y-91194988D01*
X154095560Y-91203315D01*
X154092314Y-91211783D01*
X154061734Y-91352367D01*
X154061731Y-91352388D01*
X154056749Y-91422057D01*
X154056749Y-91422069D01*
X154067012Y-91565571D01*
X154117293Y-91700379D01*
X154117294Y-91700382D01*
X154150777Y-91761702D01*
X154150782Y-91761710D01*
X154237001Y-91876885D01*
X154237006Y-91876890D01*
X155140813Y-92780698D01*
X155160955Y-92798791D01*
X155160956Y-92798791D01*
X155160957Y-92798792D01*
X155192142Y-92823922D01*
X155236026Y-92855567D01*
X155366903Y-92915338D01*
X155377508Y-92918452D01*
X155433944Y-92935024D01*
X155433955Y-92935026D01*
X155576347Y-92955498D01*
X155576351Y-92955498D01*
X155576362Y-92955500D01*
X155576366Y-92955500D01*
X155973961Y-92955500D01*
X156048461Y-92975462D01*
X156102999Y-93030000D01*
X156122961Y-93104500D01*
X156102999Y-93179000D01*
X156076780Y-93212338D01*
X156072337Y-93216574D01*
X156067545Y-93221144D01*
X156067527Y-93221163D01*
X155978595Y-93334250D01*
X155978595Y-93334251D01*
X155929149Y-93419893D01*
X155910842Y-93445091D01*
X155876244Y-93483517D01*
X155853094Y-93504362D01*
X155811253Y-93534761D01*
X155784276Y-93550336D01*
X155737043Y-93571365D01*
X155707423Y-93580989D01*
X155656836Y-93591743D01*
X155625853Y-93595000D01*
X155574144Y-93595000D01*
X155543168Y-93591744D01*
X155492582Y-93580992D01*
X155462958Y-93571366D01*
X155415720Y-93550334D01*
X155388746Y-93534761D01*
X155346899Y-93504358D01*
X155323754Y-93483517D01*
X155289156Y-93445092D01*
X155270847Y-93419891D01*
X155221407Y-93334257D01*
X155221403Y-93334251D01*
X155221402Y-93334249D01*
X155170379Y-93266090D01*
X155149475Y-93238166D01*
X155149468Y-93238158D01*
X155109132Y-93195854D01*
X155109122Y-93195845D01*
X155016576Y-93119433D01*
X154939356Y-93084167D01*
X154885699Y-93059662D01*
X154885696Y-93059661D01*
X154885687Y-93059658D01*
X154818658Y-93039976D01*
X154818657Y-93039975D01*
X154818646Y-93039973D01*
X154676254Y-93019501D01*
X154676242Y-93019500D01*
X154676240Y-93019500D01*
X149887823Y-93019500D01*
X149880219Y-93019907D01*
X149860795Y-93020948D01*
X149860789Y-93020948D01*
X149860784Y-93020949D01*
X149849232Y-93022191D01*
X149820976Y-93025229D01*
X149767556Y-93033885D01*
X149767554Y-93033885D01*
X149767552Y-93033886D01*
X149719422Y-93051838D01*
X149632747Y-93084166D01*
X149632744Y-93084167D01*
X149571424Y-93117650D01*
X149571416Y-93117655D01*
X149456241Y-93203874D01*
X149456236Y-93203879D01*
X147128157Y-95531957D01*
X147061362Y-95570521D01*
X146984234Y-95570521D01*
X146917439Y-95531957D01*
X146881093Y-95472646D01*
X146827179Y-95306716D01*
X146732533Y-95142784D01*
X146732532Y-95142783D01*
X146732530Y-95142779D01*
X146605872Y-95002113D01*
X146452727Y-94890847D01*
X146279805Y-94813857D01*
X146279803Y-94813856D01*
X146173360Y-94791231D01*
X146094648Y-94774500D01*
X146094646Y-94774500D01*
X145905354Y-94774500D01*
X145905352Y-94774500D01*
X145805392Y-94795747D01*
X145720197Y-94813856D01*
X145720195Y-94813856D01*
X145720194Y-94813857D01*
X145547272Y-94890847D01*
X145394127Y-95002113D01*
X145267469Y-95142779D01*
X145172822Y-95306714D01*
X145172819Y-95306721D01*
X145114325Y-95486745D01*
X145094540Y-95675000D01*
X145114325Y-95863254D01*
X145172819Y-96043278D01*
X145172821Y-96043284D01*
X145172824Y-96043289D01*
X145232124Y-96146001D01*
X145252086Y-96220501D01*
X145232123Y-96295001D01*
X145177585Y-96349538D01*
X145103086Y-96369500D01*
X144362823Y-96369500D01*
X144355219Y-96369907D01*
X144335795Y-96370948D01*
X144335789Y-96370948D01*
X144335784Y-96370949D01*
X144324232Y-96372191D01*
X144295976Y-96375229D01*
X144242556Y-96383885D01*
X144242554Y-96383885D01*
X144242552Y-96383886D01*
X144192907Y-96402403D01*
X144107747Y-96434166D01*
X144107744Y-96434167D01*
X144046424Y-96467650D01*
X144046416Y-96467655D01*
X143931241Y-96553874D01*
X143144302Y-97340813D01*
X143126209Y-97360955D01*
X143126208Y-97360957D01*
X143110988Y-97379844D01*
X143101078Y-97392142D01*
X143069431Y-97436028D01*
X143057388Y-97462399D01*
X143008280Y-97521873D01*
X142936015Y-97548826D01*
X142921854Y-97549500D01*
X142110503Y-97549500D01*
X142093716Y-97547646D01*
X142093663Y-97548209D01*
X142084330Y-97547326D01*
X142055991Y-97548217D01*
X141980900Y-97530605D01*
X141924677Y-97477807D01*
X141902385Y-97403971D01*
X141919997Y-97328880D01*
X141945949Y-97293935D01*
X142505697Y-96734188D01*
X142509010Y-96730500D01*
X142523791Y-96714045D01*
X142523791Y-96714044D01*
X142527031Y-96710024D01*
X142548922Y-96682858D01*
X142580567Y-96638974D01*
X142640338Y-96508097D01*
X142652215Y-96467650D01*
X142660024Y-96441056D01*
X142660024Y-96441055D01*
X142660026Y-96441044D01*
X142680498Y-96298652D01*
X142680500Y-96298634D01*
X142680500Y-94837826D01*
X142679052Y-94810795D01*
X142679052Y-94810796D01*
X142679051Y-94810784D01*
X142677808Y-94799232D01*
X142674771Y-94770976D01*
X142666115Y-94717558D01*
X142666114Y-94717557D01*
X142666114Y-94717552D01*
X142666111Y-94717546D01*
X142665459Y-94715081D01*
X142665463Y-94713536D01*
X142664943Y-94710325D01*
X142665472Y-94710239D01*
X142665682Y-94637953D01*
X142704439Y-94571270D01*
X142771345Y-94532899D01*
X142848473Y-94533122D01*
X142856149Y-94535611D01*
X142858701Y-94536240D01*
X142858705Y-94536242D01*
X143017979Y-94575500D01*
X143017980Y-94575500D01*
X143182020Y-94575500D01*
X143182021Y-94575500D01*
X143341295Y-94536242D01*
X143486546Y-94460008D01*
X143609332Y-94351229D01*
X143702518Y-94216226D01*
X143760688Y-94062845D01*
X143780461Y-93900000D01*
X143760688Y-93737155D01*
X143702518Y-93583774D01*
X143682207Y-93554349D01*
X143676874Y-93546622D01*
X143650983Y-93473969D01*
X143650500Y-93461982D01*
X143650500Y-92759397D01*
X143652762Y-92693174D01*
X143642436Y-92650803D01*
X143641010Y-92643301D01*
X143639064Y-92629144D01*
X143635070Y-92600080D01*
X143628772Y-92585581D01*
X143620672Y-92561493D01*
X143616934Y-92546153D01*
X143616933Y-92546148D01*
X143603650Y-92522524D01*
X143584539Y-92447801D01*
X143605349Y-92373534D01*
X143660505Y-92319621D01*
X143733529Y-92300500D01*
X144303887Y-92300500D01*
X144378387Y-92320462D01*
X144409246Y-92344141D01*
X144503643Y-92438537D01*
X144597709Y-92532603D01*
X144642950Y-92581044D01*
X144674254Y-92600080D01*
X144680224Y-92603710D01*
X144686536Y-92608007D01*
X144721286Y-92634360D01*
X144721287Y-92634360D01*
X144721288Y-92634361D01*
X144735991Y-92640159D01*
X144758743Y-92651459D01*
X144772248Y-92659672D01*
X144814260Y-92671443D01*
X144821474Y-92673868D01*
X144862065Y-92689876D01*
X144877785Y-92691491D01*
X144902745Y-92696235D01*
X144917965Y-92700500D01*
X144961590Y-92700500D01*
X144969213Y-92700891D01*
X144978948Y-92701891D01*
X145012601Y-92705351D01*
X145025260Y-92703168D01*
X145028176Y-92702666D01*
X145053489Y-92700500D01*
X146640603Y-92700500D01*
X146706826Y-92702762D01*
X146749212Y-92692431D01*
X146756689Y-92691011D01*
X146799920Y-92685070D01*
X146814418Y-92678771D01*
X146838501Y-92670673D01*
X146853852Y-92666933D01*
X146891873Y-92645554D01*
X146898709Y-92642159D01*
X146938720Y-92624780D01*
X146950977Y-92614806D01*
X146971975Y-92600515D01*
X146985759Y-92592766D01*
X147016618Y-92561905D01*
X147022257Y-92556816D01*
X147056108Y-92529278D01*
X147065221Y-92516365D01*
X147081584Y-92496939D01*
X147530526Y-92047997D01*
X147597319Y-92009435D01*
X147600100Y-92008719D01*
X147691295Y-91986242D01*
X147730756Y-91965530D01*
X147805997Y-91948584D01*
X147869242Y-91965530D01*
X147908705Y-91986242D01*
X148067979Y-92025500D01*
X148232020Y-92025500D01*
X148232021Y-92025500D01*
X148391295Y-91986242D01*
X148412742Y-91974985D01*
X148487982Y-91958037D01*
X148561618Y-91980980D01*
X148590882Y-92005215D01*
X148615004Y-92031043D01*
X148615006Y-92031045D01*
X148652276Y-92053709D01*
X148658579Y-92057998D01*
X148693342Y-92084361D01*
X148708049Y-92090160D01*
X148730799Y-92101460D01*
X148744303Y-92109672D01*
X148744305Y-92109672D01*
X148744306Y-92109673D01*
X148786306Y-92121441D01*
X148793539Y-92123873D01*
X148834120Y-92139876D01*
X148840473Y-92140529D01*
X148849838Y-92141492D01*
X148874797Y-92146234D01*
X148890020Y-92150500D01*
X148933636Y-92150500D01*
X148941259Y-92150891D01*
X148954573Y-92152259D01*
X148984656Y-92155352D01*
X149000229Y-92152666D01*
X149025546Y-92150500D01*
X150098445Y-92150500D01*
X150164668Y-92152762D01*
X150207054Y-92142431D01*
X150214531Y-92141011D01*
X150257762Y-92135070D01*
X150272260Y-92128771D01*
X150296343Y-92120673D01*
X150311694Y-92116933D01*
X150349715Y-92095554D01*
X150356551Y-92092159D01*
X150361158Y-92090158D01*
X150396562Y-92074780D01*
X150408819Y-92064806D01*
X150429817Y-92050515D01*
X150443601Y-92042766D01*
X150474460Y-92011905D01*
X150480099Y-92006816D01*
X150513950Y-91979278D01*
X150523063Y-91966365D01*
X150539426Y-91946939D01*
X151992225Y-90494141D01*
X152059020Y-90455577D01*
X152097584Y-90450500D01*
X153698678Y-90450500D01*
X153773178Y-90470462D01*
G37*
%TD.AperFunction*%
%TA.AperFunction,Conductor*%
G36*
X142084757Y-92520462D02*
G01*
X142115616Y-92544141D01*
X142505859Y-92934384D01*
X142544423Y-93001179D01*
X142549500Y-93039743D01*
X142549500Y-93461982D01*
X142529538Y-93536482D01*
X142523126Y-93546622D01*
X142497482Y-93583773D01*
X142497480Y-93583778D01*
X142439312Y-93737152D01*
X142419539Y-93900001D01*
X142426872Y-93960398D01*
X142416034Y-94036761D01*
X142368467Y-94097474D01*
X142296916Y-94126270D01*
X142220553Y-94115432D01*
X142173599Y-94083715D01*
X142050282Y-93960398D01*
X141650420Y-93560535D01*
X141644010Y-93554349D01*
X141637420Y-93548101D01*
X141519234Y-93466043D01*
X141519231Y-93466041D01*
X141479833Y-93446320D01*
X141456755Y-93434768D01*
X141320242Y-93389331D01*
X141320240Y-93389330D01*
X141320237Y-93389330D01*
X141176455Y-93384194D01*
X141176448Y-93384194D01*
X141110935Y-93391237D01*
X141106983Y-93391662D01*
X141106972Y-93391663D01*
X141106970Y-93391663D01*
X140963980Y-93428161D01*
X140886858Y-93427244D01*
X140820526Y-93387889D01*
X140801789Y-93364353D01*
X140738874Y-93266457D01*
X140693119Y-93213653D01*
X140681840Y-93203879D01*
X140584383Y-93119431D01*
X140453510Y-93059663D01*
X140453508Y-93059662D01*
X140453503Y-93059660D01*
X140453496Y-93059658D01*
X140386467Y-93039976D01*
X140386466Y-93039975D01*
X140386455Y-93039973D01*
X140244063Y-93019501D01*
X140244051Y-93019500D01*
X140244049Y-93019500D01*
X138175304Y-93019500D01*
X138100804Y-92999538D01*
X138046266Y-92945000D01*
X138026940Y-92884248D01*
X138018769Y-92796080D01*
X137988666Y-92690276D01*
X137987478Y-92613157D01*
X138025009Y-92545776D01*
X138091202Y-92506188D01*
X138131978Y-92500500D01*
X142010257Y-92500500D01*
X142084757Y-92520462D01*
G37*
%TD.AperFunction*%
%TA.AperFunction,Conductor*%
G36*
X163755859Y-86319742D02*
G01*
X163794423Y-86386537D01*
X163799500Y-86425101D01*
X163799500Y-90799898D01*
X163779538Y-90874398D01*
X163725000Y-90928936D01*
X163650500Y-90948898D01*
X163576000Y-90928936D01*
X163545141Y-90905257D01*
X163502300Y-90862416D01*
X163218850Y-90578965D01*
X163193012Y-90556414D01*
X163193007Y-90556410D01*
X163193007Y-90556409D01*
X163154220Y-90526939D01*
X163152653Y-90525748D01*
X163152651Y-90525746D01*
X163095397Y-90488078D01*
X162961319Y-90435877D01*
X162908344Y-90423559D01*
X162899802Y-90420614D01*
X162893264Y-90420052D01*
X162749911Y-90407741D01*
X162749910Y-90407741D01*
X162749909Y-90407741D01*
X162608897Y-90436315D01*
X162608888Y-90436317D01*
X162543088Y-90459795D01*
X162415838Y-90526939D01*
X162336252Y-90584761D01*
X162309276Y-90600336D01*
X162262043Y-90621365D01*
X162232423Y-90630989D01*
X162181836Y-90641743D01*
X162150853Y-90645000D01*
X162099144Y-90645000D01*
X162068167Y-90641744D01*
X162017580Y-90630991D01*
X161987956Y-90621366D01*
X161940718Y-90600334D01*
X161913748Y-90584763D01*
X161847178Y-90536398D01*
X161842718Y-90532891D01*
X161835715Y-90526939D01*
X161815214Y-90509513D01*
X161815209Y-90509509D01*
X161815208Y-90509508D01*
X161761138Y-90469432D01*
X161630263Y-90409663D01*
X161630261Y-90409662D01*
X161630256Y-90409660D01*
X161630249Y-90409658D01*
X161563220Y-90389976D01*
X161563219Y-90389975D01*
X161563208Y-90389973D01*
X161420816Y-90369501D01*
X161420804Y-90369500D01*
X161420802Y-90369500D01*
X159855101Y-90369500D01*
X159780601Y-90349538D01*
X159726063Y-90295000D01*
X159706101Y-90220500D01*
X159726063Y-90146000D01*
X159749742Y-90115141D01*
X160720834Y-89144049D01*
X161694703Y-88170180D01*
X161717276Y-88143972D01*
X161743737Y-88113250D01*
X161743735Y-88113251D01*
X161765586Y-88083696D01*
X161805639Y-88020129D01*
X161847517Y-87903621D01*
X161854305Y-87884738D01*
X161854305Y-87884735D01*
X161854308Y-87884729D01*
X161868344Y-87816284D01*
X161868345Y-87816280D01*
X161876894Y-87672654D01*
X161844633Y-87532437D01*
X161838434Y-87516406D01*
X161837500Y-87507718D01*
X161817482Y-87459391D01*
X161817483Y-87459391D01*
X161803085Y-87424631D01*
X161793019Y-87348167D01*
X161822534Y-87276910D01*
X161850032Y-87249411D01*
X161861649Y-87240497D01*
X161865771Y-87237554D01*
X161867882Y-87236154D01*
X161879022Y-87227710D01*
X161905118Y-87207930D01*
X161905118Y-87207929D01*
X161905121Y-87207927D01*
X161952929Y-87166747D01*
X162040518Y-87052599D01*
X162052444Y-87031363D01*
X162106327Y-86976178D01*
X162180584Y-86955329D01*
X162253767Y-86973542D01*
X162329544Y-87014919D01*
X162470136Y-87045502D01*
X162485735Y-87046617D01*
X162539821Y-87050486D01*
X162539828Y-87050486D01*
X162539833Y-87050486D01*
X162619556Y-87044783D01*
X162683339Y-87040222D01*
X162818148Y-86989940D01*
X162879471Y-86956455D01*
X162994652Y-86870231D01*
X163545142Y-86319741D01*
X163611936Y-86281178D01*
X163689064Y-86281178D01*
X163755859Y-86319742D01*
G37*
%TD.AperFunction*%
%TA.AperFunction,Conductor*%
G36*
X138202855Y-82217566D02*
G01*
X138333705Y-82286242D01*
X138492979Y-82325500D01*
X138492980Y-82325500D01*
X138657021Y-82325500D01*
X138816295Y-82286242D01*
X138849895Y-82268606D01*
X138925138Y-82251660D01*
X138998774Y-82274605D01*
X139024499Y-82295180D01*
X139522403Y-82793084D01*
X139560967Y-82859879D01*
X139560967Y-82937007D01*
X139556362Y-82951278D01*
X139514312Y-83062154D01*
X139494539Y-83225000D01*
X139514312Y-83387847D01*
X139564011Y-83518891D01*
X139572482Y-83541226D01*
X139596977Y-83576713D01*
X139665664Y-83676224D01*
X139665665Y-83676225D01*
X139665668Y-83676229D01*
X139788454Y-83785008D01*
X139933705Y-83861242D01*
X140092979Y-83900500D01*
X140092980Y-83900500D01*
X140257021Y-83900500D01*
X140416291Y-83861243D01*
X140416291Y-83861242D01*
X140416295Y-83861242D01*
X140418253Y-83860214D01*
X140420104Y-83859797D01*
X140424722Y-83858046D01*
X140424970Y-83858701D01*
X140493493Y-83843266D01*
X140550128Y-83858440D01*
X140550278Y-83858046D01*
X140554184Y-83859527D01*
X140556746Y-83860214D01*
X140558705Y-83861242D01*
X140584215Y-83867529D01*
X140651770Y-83904738D01*
X140691673Y-83970742D01*
X140693227Y-84047855D01*
X140656017Y-84115413D01*
X140653915Y-84117558D01*
X137042381Y-87729093D01*
X136993956Y-87774319D01*
X136971294Y-87811583D01*
X136967002Y-87817891D01*
X136940639Y-87852657D01*
X136940638Y-87852657D01*
X136934837Y-87867368D01*
X136923543Y-87890108D01*
X136915326Y-87903621D01*
X136915325Y-87903623D01*
X136903557Y-87945622D01*
X136901126Y-87952853D01*
X136885125Y-87993429D01*
X136885123Y-87993437D01*
X136883506Y-88009163D01*
X136878766Y-88034105D01*
X136874500Y-88049334D01*
X136874500Y-88092952D01*
X136874109Y-88100575D01*
X136869648Y-88143972D01*
X136872333Y-88159544D01*
X136874500Y-88184862D01*
X136874500Y-89286982D01*
X136854538Y-89361482D01*
X136848126Y-89371622D01*
X136822482Y-89408773D01*
X136822481Y-89408776D01*
X136798289Y-89472566D01*
X136753206Y-89535146D01*
X136682873Y-89566800D01*
X136606135Y-89559046D01*
X136553613Y-89525088D01*
X134270906Y-87242381D01*
X134225679Y-87193955D01*
X134225675Y-87193952D01*
X134188411Y-87171291D01*
X134182102Y-87166997D01*
X134147339Y-87140637D01*
X134132632Y-87134837D01*
X134109884Y-87123538D01*
X134096383Y-87115328D01*
X134096379Y-87115326D01*
X134062065Y-87105712D01*
X134054367Y-87103555D01*
X134047139Y-87101124D01*
X134006562Y-87085123D01*
X134006563Y-87085123D01*
X133990843Y-87083507D01*
X133965888Y-87078765D01*
X133950666Y-87074500D01*
X133950665Y-87074500D01*
X133907048Y-87074500D01*
X133899425Y-87074109D01*
X133864207Y-87070488D01*
X133856028Y-87069648D01*
X133856027Y-87069648D01*
X133846691Y-87071257D01*
X133840454Y-87072333D01*
X133815138Y-87074500D01*
X132919277Y-87074500D01*
X132844777Y-87054538D01*
X132813918Y-87030859D01*
X132735975Y-86952916D01*
X132702019Y-86900398D01*
X132676284Y-86832540D01*
X132618676Y-86749080D01*
X132583100Y-86697539D01*
X132583098Y-86697537D01*
X132475102Y-86601860D01*
X132432576Y-86537516D01*
X132427919Y-86460528D01*
X132462381Y-86391527D01*
X132468532Y-86384991D01*
X136609384Y-82244141D01*
X136676179Y-82205577D01*
X136714743Y-82200500D01*
X138133613Y-82200500D01*
X138202855Y-82217566D01*
G37*
%TD.AperFunction*%
%TA.AperFunction,Conductor*%
G36*
X149778112Y-83020462D02*
G01*
X149832650Y-83075000D01*
X149852612Y-83149500D01*
X149851526Y-83167460D01*
X149844539Y-83224999D01*
X149864312Y-83387847D01*
X149906979Y-83500349D01*
X149914732Y-83577086D01*
X149883078Y-83647419D01*
X149878392Y-83652884D01*
X149842467Y-83692783D01*
X149842466Y-83692784D01*
X149747822Y-83856714D01*
X149747819Y-83856721D01*
X149689325Y-84036745D01*
X149669540Y-84225000D01*
X149689325Y-84413254D01*
X149736933Y-84559774D01*
X149747821Y-84593284D01*
X149781497Y-84651612D01*
X149842469Y-84757220D01*
X149951007Y-84877762D01*
X149969129Y-84897888D01*
X150122270Y-85009151D01*
X150295197Y-85086144D01*
X150436315Y-85116139D01*
X150480352Y-85125500D01*
X150480354Y-85125500D01*
X150564547Y-85125500D01*
X150639047Y-85145462D01*
X150669906Y-85169141D01*
X150785244Y-85284479D01*
X150823808Y-85351274D01*
X150823808Y-85428402D01*
X150785244Y-85495197D01*
X150718449Y-85533761D01*
X150641321Y-85533761D01*
X150619281Y-85525956D01*
X150479805Y-85463857D01*
X150479803Y-85463856D01*
X150373360Y-85441231D01*
X150294648Y-85424500D01*
X150294646Y-85424500D01*
X150105354Y-85424500D01*
X150105352Y-85424500D01*
X150005392Y-85445747D01*
X149920197Y-85463856D01*
X149920195Y-85463856D01*
X149920194Y-85463857D01*
X149747270Y-85540848D01*
X149705068Y-85571510D01*
X149633063Y-85599150D01*
X149556885Y-85587084D01*
X149496945Y-85538545D01*
X149469305Y-85466540D01*
X149469305Y-85435392D01*
X149470450Y-85424500D01*
X149480960Y-85324500D01*
X149461174Y-85136244D01*
X149402679Y-84956216D01*
X149308033Y-84792284D01*
X149308032Y-84792283D01*
X149308030Y-84792279D01*
X149181372Y-84651613D01*
X149156130Y-84633274D01*
X149028230Y-84540349D01*
X149028229Y-84540348D01*
X149028227Y-84540347D01*
X148855305Y-84463357D01*
X148855303Y-84463356D01*
X148748860Y-84440731D01*
X148670148Y-84424000D01*
X148670146Y-84424000D01*
X148480854Y-84424000D01*
X148480852Y-84424000D01*
X148380892Y-84445247D01*
X148295697Y-84463356D01*
X148295695Y-84463356D01*
X148295694Y-84463357D01*
X148122772Y-84540347D01*
X147969627Y-84651613D01*
X147842969Y-84792279D01*
X147748322Y-84956214D01*
X147748319Y-84956221D01*
X147689825Y-85136245D01*
X147670040Y-85324500D01*
X147689825Y-85512754D01*
X147733977Y-85648637D01*
X147748321Y-85692784D01*
X147748322Y-85692785D01*
X147842969Y-85856720D01*
X147940350Y-85964871D01*
X147969629Y-85997388D01*
X148122770Y-86108651D01*
X148295697Y-86185644D01*
X148436815Y-86215639D01*
X148480852Y-86225000D01*
X148480854Y-86225000D01*
X148670148Y-86225000D01*
X148709504Y-86216634D01*
X148855303Y-86185644D01*
X149028230Y-86108651D01*
X149070432Y-86077989D01*
X149142433Y-86050350D01*
X149218611Y-86062414D01*
X149278552Y-86110951D01*
X149306193Y-86182956D01*
X149306194Y-86214106D01*
X149294540Y-86324999D01*
X149314325Y-86513254D01*
X149372819Y-86693278D01*
X149372821Y-86693284D01*
X149405035Y-86749080D01*
X149467469Y-86857220D01*
X149586973Y-86989941D01*
X149594129Y-86997888D01*
X149747270Y-87109151D01*
X149747271Y-87109151D01*
X149747272Y-87109152D01*
X149769236Y-87118931D01*
X149919881Y-87186003D01*
X149979821Y-87234541D01*
X150000983Y-87276076D01*
X150022821Y-87343284D01*
X150069790Y-87424636D01*
X150117469Y-87507220D01*
X150244127Y-87647886D01*
X150244129Y-87647888D01*
X150397270Y-87759151D01*
X150570197Y-87836144D01*
X150711315Y-87866139D01*
X150755352Y-87875500D01*
X150755354Y-87875500D01*
X150944648Y-87875500D01*
X150984004Y-87867134D01*
X151129803Y-87836144D01*
X151302730Y-87759151D01*
X151391330Y-87694779D01*
X151463330Y-87667139D01*
X151509878Y-87669578D01*
X151628448Y-87694781D01*
X151655353Y-87700500D01*
X151655354Y-87700500D01*
X151844648Y-87700500D01*
X151884004Y-87692134D01*
X152029803Y-87661144D01*
X152202730Y-87584151D01*
X152355871Y-87472888D01*
X152446950Y-87371735D01*
X152482530Y-87332220D01*
X152482531Y-87332218D01*
X152482533Y-87332216D01*
X152513716Y-87278204D01*
X152568253Y-87223668D01*
X152642752Y-87203706D01*
X152717253Y-87223668D01*
X152748112Y-87247347D01*
X154195906Y-88695141D01*
X154234470Y-88761936D01*
X154234470Y-88839064D01*
X154195906Y-88905859D01*
X154129111Y-88944423D01*
X154090547Y-88949500D01*
X151634414Y-88949500D01*
X151568170Y-88947236D01*
X151525795Y-88957564D01*
X151518296Y-88958989D01*
X151475084Y-88964928D01*
X151475077Y-88964930D01*
X151460573Y-88971230D01*
X151436506Y-88979323D01*
X151421153Y-88983065D01*
X151421144Y-88983068D01*
X151383120Y-89004447D01*
X151376288Y-89007841D01*
X151336278Y-89025221D01*
X151324017Y-89035196D01*
X151303018Y-89049487D01*
X151289243Y-89057232D01*
X151258399Y-89088075D01*
X151252735Y-89093186D01*
X151218893Y-89120720D01*
X151218890Y-89120723D01*
X151209774Y-89133637D01*
X151193411Y-89153062D01*
X151090617Y-89255858D01*
X151023822Y-89294423D01*
X150985257Y-89299500D01*
X140689743Y-89299500D01*
X140615243Y-89279538D01*
X140584384Y-89255859D01*
X140347890Y-89019365D01*
X140309326Y-88952570D01*
X140309326Y-88875442D01*
X140347890Y-88808647D01*
X140414685Y-88770083D01*
X140491813Y-88770083D01*
X140513855Y-88777888D01*
X140644697Y-88836144D01*
X140785815Y-88866139D01*
X140829852Y-88875500D01*
X140829854Y-88875500D01*
X141019148Y-88875500D01*
X141058504Y-88867134D01*
X141204303Y-88836144D01*
X141377230Y-88759151D01*
X141530371Y-88647888D01*
X141650552Y-88514414D01*
X141657030Y-88507220D01*
X141657031Y-88507218D01*
X141657033Y-88507216D01*
X141751679Y-88343284D01*
X141810174Y-88163256D01*
X141829960Y-87975000D01*
X141810174Y-87786744D01*
X141751679Y-87606716D01*
X141657033Y-87442784D01*
X141657032Y-87442783D01*
X141657030Y-87442779D01*
X141530372Y-87302113D01*
X141530340Y-87302090D01*
X141377230Y-87190849D01*
X141377229Y-87190848D01*
X141377227Y-87190847D01*
X141207609Y-87115328D01*
X141204303Y-87113856D01*
X141097860Y-87091231D01*
X141019148Y-87074500D01*
X141019146Y-87074500D01*
X140829854Y-87074500D01*
X140829852Y-87074500D01*
X140729892Y-87095747D01*
X140644697Y-87113856D01*
X140644695Y-87113856D01*
X140644694Y-87113857D01*
X140471770Y-87190848D01*
X140370231Y-87264620D01*
X140298226Y-87292260D01*
X140222047Y-87280194D01*
X140165438Y-87234351D01*
X140165314Y-87234462D01*
X140164653Y-87233715D01*
X140162108Y-87231655D01*
X140160025Y-87228714D01*
X140159334Y-87227713D01*
X140159332Y-87227710D01*
X140036546Y-87118931D01*
X139891295Y-87042697D01*
X139732021Y-87003439D01*
X139684803Y-87003439D01*
X139610303Y-86983477D01*
X139555765Y-86928939D01*
X139535803Y-86854439D01*
X139555765Y-86779939D01*
X139579444Y-86749080D01*
X140225188Y-86103337D01*
X141409384Y-84919141D01*
X141476179Y-84880577D01*
X141514743Y-84875500D01*
X146265603Y-84875500D01*
X146331826Y-84877762D01*
X146374212Y-84867431D01*
X146381689Y-84866011D01*
X146424920Y-84860070D01*
X146439418Y-84853771D01*
X146463501Y-84845673D01*
X146478852Y-84841933D01*
X146516873Y-84820554D01*
X146523709Y-84817159D01*
X146563720Y-84799780D01*
X146575977Y-84789806D01*
X146596975Y-84775515D01*
X146610759Y-84767766D01*
X146641618Y-84736905D01*
X146647257Y-84731816D01*
X146681108Y-84704278D01*
X146690221Y-84691365D01*
X146706584Y-84671939D01*
X147680526Y-83697997D01*
X147747319Y-83659435D01*
X147750125Y-83658713D01*
X147759343Y-83656441D01*
X147836454Y-83657998D01*
X147902457Y-83697902D01*
X147905721Y-83701412D01*
X147961760Y-83763649D01*
X147969629Y-83772388D01*
X148122770Y-83883651D01*
X148122771Y-83883651D01*
X148122772Y-83883652D01*
X148139786Y-83891227D01*
X148295697Y-83960644D01*
X148436815Y-83990639D01*
X148480852Y-84000000D01*
X148480854Y-84000000D01*
X148670148Y-84000000D01*
X148709504Y-83991634D01*
X148855303Y-83960644D01*
X149028230Y-83883651D01*
X149181371Y-83772388D01*
X149261745Y-83683124D01*
X149308030Y-83631720D01*
X149308031Y-83631718D01*
X149308033Y-83631716D01*
X149402679Y-83467784D01*
X149461174Y-83287756D01*
X149476574Y-83141229D01*
X149477342Y-83133926D01*
X149504982Y-83061920D01*
X149564922Y-83013382D01*
X149625526Y-83000500D01*
X149703612Y-83000500D01*
X149778112Y-83020462D01*
G37*
%TD.AperFunction*%
%TA.AperFunction,Conductor*%
G36*
X154015568Y-82501273D02*
G01*
X154046427Y-82524952D01*
X155630859Y-84109383D01*
X155669423Y-84176178D01*
X155674500Y-84214742D01*
X155674500Y-85990602D01*
X155672237Y-86056826D01*
X155682565Y-86099207D01*
X155683989Y-86106697D01*
X155684258Y-86108651D01*
X155687992Y-86135823D01*
X155678360Y-86212348D01*
X155663005Y-86240752D01*
X155574521Y-86368944D01*
X155574518Y-86368950D01*
X155516350Y-86522324D01*
X155496577Y-86685173D01*
X155499403Y-86708449D01*
X155488565Y-86784812D01*
X155440998Y-86845525D01*
X155376518Y-86871479D01*
X155376731Y-86872343D01*
X155370650Y-86873841D01*
X155369465Y-86874319D01*
X155367983Y-86874499D01*
X155208703Y-86913758D01*
X155208702Y-86913759D01*
X155131061Y-86954508D01*
X155055818Y-86971454D01*
X154982182Y-86948508D01*
X154956459Y-86927934D01*
X151484012Y-83455487D01*
X151445448Y-83388692D01*
X151445448Y-83311564D01*
X151466747Y-83265486D01*
X151474083Y-83254859D01*
X151552518Y-83141226D01*
X151556974Y-83129473D01*
X151602055Y-83066893D01*
X151660640Y-83037635D01*
X151666295Y-83036242D01*
X151811546Y-82960008D01*
X151934332Y-82851229D01*
X152027518Y-82716226D01*
X152073246Y-82595652D01*
X152118329Y-82533072D01*
X152143317Y-82516556D01*
X152177954Y-82498377D01*
X152247197Y-82481311D01*
X153941068Y-82481311D01*
X154015568Y-82501273D01*
G37*
%TD.AperFunction*%
%TD*%
%TA.AperFunction,Conductor*%
%TO.N,GNDA*%
G36*
X150065677Y-97244685D02*
G01*
X150086319Y-97261319D01*
X150313681Y-97488681D01*
X150347166Y-97550004D01*
X150350000Y-97576362D01*
X150350000Y-98113211D01*
X150330315Y-98180250D01*
X150308666Y-98204231D01*
X150309034Y-98204599D01*
X150184523Y-98329109D01*
X150184518Y-98329115D01*
X150094547Y-98472302D01*
X150094545Y-98472305D01*
X150038685Y-98631943D01*
X150019751Y-98799997D01*
X150019751Y-98800002D01*
X150038685Y-98968056D01*
X150049862Y-98999996D01*
X150094544Y-99127690D01*
X150094545Y-99127691D01*
X150099153Y-99135025D01*
X150118155Y-99202261D01*
X150097789Y-99269097D01*
X150044523Y-99314312D01*
X149994161Y-99325000D01*
X148401362Y-99325000D01*
X148334323Y-99305315D01*
X148313681Y-99288681D01*
X148086319Y-99061319D01*
X148052834Y-98999996D01*
X148050000Y-98973638D01*
X148050000Y-98701362D01*
X148069685Y-98634323D01*
X148086319Y-98613681D01*
X149438681Y-97261319D01*
X149500004Y-97227834D01*
X149526362Y-97225000D01*
X149998638Y-97225000D01*
X150065677Y-97244685D01*
G37*
%TD.AperFunction*%
%TD*%
%TA.AperFunction,Conductor*%
%TO.N,/usb/USB_5V*%
G36*
X131688257Y-93544685D02*
G01*
X131734012Y-93597489D01*
X131743956Y-93666647D01*
X131719594Y-93724486D01*
X131625464Y-93847157D01*
X131564956Y-93993237D01*
X131564955Y-93993239D01*
X131544318Y-94149998D01*
X131544318Y-94150001D01*
X131564955Y-94306760D01*
X131564956Y-94306762D01*
X131625464Y-94452841D01*
X131721718Y-94578282D01*
X131847159Y-94674536D01*
X131993238Y-94735044D01*
X132071619Y-94745363D01*
X132149999Y-94755682D01*
X132150000Y-94755682D01*
X132150001Y-94755682D01*
X132202254Y-94748802D01*
X132306762Y-94735044D01*
X132452841Y-94674536D01*
X132578282Y-94578282D01*
X132674536Y-94452841D01*
X132735044Y-94306762D01*
X132755682Y-94150000D01*
X132735044Y-93993238D01*
X132674536Y-93847159D01*
X132674535Y-93847158D01*
X132674535Y-93847157D01*
X132580406Y-93724486D01*
X132555212Y-93659317D01*
X132569250Y-93590872D01*
X132618064Y-93540883D01*
X132678782Y-93525000D01*
X133687759Y-93525000D01*
X133754798Y-93544685D01*
X133800553Y-93597489D01*
X133810698Y-93632815D01*
X133823589Y-93730739D01*
X133823590Y-93730741D01*
X133884098Y-93876820D01*
X133980352Y-94002261D01*
X134105793Y-94098515D01*
X134251872Y-94159023D01*
X134369273Y-94174479D01*
X134369280Y-94174479D01*
X134447988Y-94174479D01*
X134447995Y-94174479D01*
X134565396Y-94159023D01*
X134711475Y-94098515D01*
X134836916Y-94002261D01*
X134933170Y-93876820D01*
X134993678Y-93730741D01*
X135006570Y-93632814D01*
X135034836Y-93568918D01*
X135093161Y-93530447D01*
X135129509Y-93525000D01*
X136149084Y-93525000D01*
X136216123Y-93544685D01*
X136241231Y-93566025D01*
X136311277Y-93643819D01*
X136455914Y-93748905D01*
X136619240Y-93821622D01*
X136794116Y-93858793D01*
X136794117Y-93858793D01*
X136972896Y-93858793D01*
X136972898Y-93858793D01*
X137147774Y-93821622D01*
X137311100Y-93748905D01*
X137455737Y-93643819D01*
X137525781Y-93566027D01*
X137585266Y-93529379D01*
X137617930Y-93525000D01*
X140244049Y-93525000D01*
X140311088Y-93544685D01*
X140356843Y-93597489D01*
X140358610Y-93601547D01*
X140380062Y-93653338D01*
X140453392Y-93748905D01*
X140476318Y-93778782D01*
X140601759Y-93875036D01*
X140747838Y-93935544D01*
X140826219Y-93945863D01*
X140904599Y-93956182D01*
X140904600Y-93956182D01*
X140904601Y-93956182D01*
X140956854Y-93949302D01*
X141061362Y-93935544D01*
X141161013Y-93894266D01*
X141230483Y-93886798D01*
X141292962Y-93918073D01*
X141296147Y-93921147D01*
X142138681Y-94763681D01*
X142172166Y-94825004D01*
X142175000Y-94851362D01*
X142175000Y-96298638D01*
X142155315Y-96365677D01*
X142138681Y-96386319D01*
X139686319Y-98838681D01*
X139624996Y-98872166D01*
X139598638Y-98875000D01*
X137925331Y-98875000D01*
X137858292Y-98855315D01*
X137833182Y-98833973D01*
X137809291Y-98807439D01*
X137664654Y-98702353D01*
X137501328Y-98629636D01*
X137501326Y-98629635D01*
X137373655Y-98602498D01*
X137326452Y-98592465D01*
X137147670Y-98592465D01*
X137117015Y-98598980D01*
X136972794Y-98629635D01*
X136972789Y-98629637D01*
X136809469Y-98702352D01*
X136664829Y-98807440D01*
X136649407Y-98824568D01*
X136640940Y-98833971D01*
X136581455Y-98870620D01*
X136548791Y-98875000D01*
X136283176Y-98875000D01*
X136216137Y-98855315D01*
X136170382Y-98802511D01*
X136168615Y-98798453D01*
X136128808Y-98702352D01*
X136097855Y-98627624D01*
X135929405Y-98322836D01*
X135727888Y-98038824D01*
X135495839Y-97779161D01*
X135236176Y-97547112D01*
X134952164Y-97345595D01*
X134647376Y-97177145D01*
X134564986Y-97143018D01*
X134336882Y-97048534D01*
X134296654Y-97021654D01*
X134253844Y-96978844D01*
X134220359Y-96917521D01*
X134225343Y-96847829D01*
X134267215Y-96791896D01*
X134268639Y-96790845D01*
X134270537Y-96789465D01*
X134270541Y-96789464D01*
X134415178Y-96684378D01*
X134433799Y-96663698D01*
X134441096Y-96655593D01*
X134534807Y-96551517D01*
X134624198Y-96396687D01*
X134679445Y-96226655D01*
X134698133Y-96048852D01*
X134679445Y-95871049D01*
X134664484Y-95825003D01*
X136269819Y-95825003D01*
X136288424Y-95942477D01*
X136288424Y-95942478D01*
X136342428Y-96048466D01*
X136342431Y-96048470D01*
X136426529Y-96132568D01*
X136426533Y-96132571D01*
X136426535Y-96132573D01*
X136532518Y-96186574D01*
X136532520Y-96186574D01*
X136532522Y-96186575D01*
X136659639Y-96206708D01*
X136659422Y-96208077D01*
X136716598Y-96224866D01*
X136737240Y-96241500D01*
X137091155Y-96595416D01*
X137124640Y-96656739D01*
X137125947Y-96663698D01*
X137138425Y-96742478D01*
X137138424Y-96742478D01*
X137192428Y-96848466D01*
X137192431Y-96848470D01*
X137276529Y-96932568D01*
X137276533Y-96932571D01*
X137276535Y-96932573D01*
X137382518Y-96986574D01*
X137382520Y-96986574D01*
X137382522Y-96986575D01*
X137499997Y-97005181D01*
X137500000Y-97005181D01*
X137500003Y-97005181D01*
X137617477Y-96986575D01*
X137617478Y-96986575D01*
X137617479Y-96986574D01*
X137617482Y-96986574D01*
X137723465Y-96932573D01*
X137807573Y-96848465D01*
X137861574Y-96742482D01*
X137870777Y-96684375D01*
X137880181Y-96625003D01*
X137880181Y-96624996D01*
X137861575Y-96507522D01*
X137861575Y-96507521D01*
X137861574Y-96507519D01*
X137861574Y-96507518D01*
X137808017Y-96402406D01*
X139422435Y-96402406D01*
X139441123Y-96580211D01*
X139441124Y-96580213D01*
X139496367Y-96750235D01*
X139496370Y-96750241D01*
X139585761Y-96905071D01*
X139610524Y-96932573D01*
X139705384Y-97037927D01*
X139705387Y-97037929D01*
X139705390Y-97037932D01*
X139850027Y-97143018D01*
X140013353Y-97215735D01*
X140188229Y-97252906D01*
X140188230Y-97252906D01*
X140367009Y-97252906D01*
X140367011Y-97252906D01*
X140541887Y-97215735D01*
X140705213Y-97143018D01*
X140849850Y-97037932D01*
X140969479Y-96905071D01*
X141058870Y-96750241D01*
X141114117Y-96580209D01*
X141132805Y-96402406D01*
X141114117Y-96224603D01*
X141058870Y-96054571D01*
X140969479Y-95899741D01*
X140902897Y-95825794D01*
X140849855Y-95766884D01*
X140849852Y-95766882D01*
X140849851Y-95766881D01*
X140849850Y-95766880D01*
X140705213Y-95661794D01*
X140541887Y-95589077D01*
X140541885Y-95589076D01*
X140414214Y-95561939D01*
X140367011Y-95551906D01*
X140188229Y-95551906D01*
X140157574Y-95558421D01*
X140013353Y-95589076D01*
X140013348Y-95589078D01*
X139850028Y-95661793D01*
X139705388Y-95766881D01*
X139585760Y-95899742D01*
X139496370Y-96054570D01*
X139496367Y-96054576D01*
X139441124Y-96224598D01*
X139441123Y-96224600D01*
X139422435Y-96402406D01*
X137808017Y-96402406D01*
X137807573Y-96401535D01*
X137807571Y-96401533D01*
X137807568Y-96401529D01*
X137723470Y-96317431D01*
X137723466Y-96317428D01*
X137723465Y-96317427D01*
X137617482Y-96263426D01*
X137617480Y-96263425D01*
X137617477Y-96263424D01*
X137490362Y-96243292D01*
X137490578Y-96241923D01*
X137433402Y-96225134D01*
X137412760Y-96208500D01*
X137058843Y-95854582D01*
X137025358Y-95793259D01*
X137024057Y-95786336D01*
X137011574Y-95707518D01*
X136957573Y-95601535D01*
X136957571Y-95601533D01*
X136957568Y-95601529D01*
X136873470Y-95517431D01*
X136873466Y-95517428D01*
X136873465Y-95517427D01*
X136767482Y-95463426D01*
X136767480Y-95463425D01*
X136767477Y-95463424D01*
X136650003Y-95444819D01*
X136649997Y-95444819D01*
X136532522Y-95463424D01*
X136532521Y-95463424D01*
X136426533Y-95517428D01*
X136426529Y-95517431D01*
X136342431Y-95601529D01*
X136342428Y-95601533D01*
X136288424Y-95707521D01*
X136288424Y-95707522D01*
X136269819Y-95824996D01*
X136269819Y-95825003D01*
X134664484Y-95825003D01*
X134645598Y-95766880D01*
X134624200Y-95701022D01*
X134624197Y-95701016D01*
X134601553Y-95661795D01*
X134534807Y-95546187D01*
X134487951Y-95494148D01*
X134415183Y-95413330D01*
X134415180Y-95413328D01*
X134415179Y-95413327D01*
X134415178Y-95413326D01*
X134270541Y-95308240D01*
X134107215Y-95235523D01*
X134107213Y-95235522D01*
X133979542Y-95208385D01*
X133932339Y-95198352D01*
X133753557Y-95198352D01*
X133722902Y-95204867D01*
X133578681Y-95235522D01*
X133578676Y-95235524D01*
X133415356Y-95308239D01*
X133270716Y-95413327D01*
X133151088Y-95546188D01*
X133061698Y-95701016D01*
X133061695Y-95701022D01*
X133006452Y-95871044D01*
X133006451Y-95871046D01*
X132987763Y-96048852D01*
X132991882Y-96088038D01*
X132979313Y-96156768D01*
X132931581Y-96207792D01*
X132868561Y-96225000D01*
X130751362Y-96225000D01*
X130684323Y-96205315D01*
X130663681Y-96188681D01*
X130261319Y-95786319D01*
X130227834Y-95724996D01*
X130225000Y-95698638D01*
X130225000Y-93926362D01*
X130244685Y-93859323D01*
X130261319Y-93838681D01*
X130538681Y-93561319D01*
X130600004Y-93527834D01*
X130626362Y-93525000D01*
X131621218Y-93525000D01*
X131688257Y-93544685D01*
G37*
%TD.AperFunction*%
%TD*%
%TA.AperFunction,Conductor*%
%TO.N,+3V3*%
G36*
X161487841Y-90894685D02*
G01*
X161512951Y-90916027D01*
X161519128Y-90922887D01*
X161519135Y-90922893D01*
X161672265Y-91034148D01*
X161672270Y-91034151D01*
X161845192Y-91111142D01*
X161845197Y-91111144D01*
X162030354Y-91150500D01*
X162030355Y-91150500D01*
X162219644Y-91150500D01*
X162219646Y-91150500D01*
X162404803Y-91111144D01*
X162577730Y-91034151D01*
X162712967Y-90935896D01*
X162778773Y-90912416D01*
X162846827Y-90928241D01*
X162873533Y-90948533D01*
X163313681Y-91388681D01*
X163347166Y-91450004D01*
X163350000Y-91476362D01*
X163350000Y-95598638D01*
X163330315Y-95665677D01*
X163313681Y-95686319D01*
X162886319Y-96113681D01*
X162824996Y-96147166D01*
X162798638Y-96150000D01*
X151249999Y-96150000D01*
X150553576Y-96846422D01*
X150492253Y-96879907D01*
X150422561Y-96874923D01*
X150388092Y-96855295D01*
X150382863Y-96851081D01*
X150382861Y-96851080D01*
X150338974Y-96819433D01*
X150208100Y-96759663D01*
X150141063Y-96739978D01*
X150141057Y-96739976D01*
X150055604Y-96727690D01*
X149998638Y-96719500D01*
X149512823Y-96719500D01*
X149485784Y-96720949D01*
X149485776Y-96720949D01*
X149485773Y-96720950D01*
X149485772Y-96720950D01*
X149445964Y-96725231D01*
X149392554Y-96733885D01*
X149392552Y-96733885D01*
X149257747Y-96784166D01*
X149196422Y-96817651D01*
X149081240Y-96903876D01*
X149081228Y-96903886D01*
X147719296Y-98265819D01*
X147701209Y-98285956D01*
X147701209Y-98285955D01*
X147676080Y-98317139D01*
X147644433Y-98361025D01*
X147584663Y-98491899D01*
X147564978Y-98558937D01*
X147564976Y-98558942D01*
X147544500Y-98701363D01*
X147544500Y-98987173D01*
X147545950Y-99014227D01*
X147545950Y-99014228D01*
X147550231Y-99054036D01*
X147558885Y-99107445D01*
X147558885Y-99107447D01*
X147609166Y-99242252D01*
X147609168Y-99242257D01*
X147642653Y-99303580D01*
X147728877Y-99418761D01*
X147728883Y-99418767D01*
X147767376Y-99457260D01*
X147800861Y-99518583D01*
X147795877Y-99588275D01*
X147767376Y-99632622D01*
X147311319Y-100088681D01*
X147249996Y-100122166D01*
X147223638Y-100125000D01*
X144301362Y-100125000D01*
X144234323Y-100105315D01*
X144213681Y-100088681D01*
X143511319Y-99386319D01*
X143477834Y-99324996D01*
X143475000Y-99298638D01*
X143475000Y-97776362D01*
X143494685Y-97709323D01*
X143511319Y-97688681D01*
X144288681Y-96911319D01*
X144350004Y-96877834D01*
X144376362Y-96875000D01*
X146500000Y-96875000D01*
X149813681Y-93561319D01*
X149875004Y-93527834D01*
X149901362Y-93525000D01*
X154676240Y-93525000D01*
X154743279Y-93544685D01*
X154783626Y-93586999D01*
X154867467Y-93732216D01*
X154981760Y-93859151D01*
X154994129Y-93872888D01*
X155147265Y-93984148D01*
X155147270Y-93984151D01*
X155320192Y-94061142D01*
X155320197Y-94061144D01*
X155505354Y-94100500D01*
X155505355Y-94100500D01*
X155694644Y-94100500D01*
X155694646Y-94100500D01*
X155879803Y-94061144D01*
X156052730Y-93984151D01*
X156205871Y-93872888D01*
X156332533Y-93732216D01*
X156416373Y-93586999D01*
X156466939Y-93538785D01*
X156523760Y-93525000D01*
X157000000Y-93525000D01*
X159613681Y-90911319D01*
X159675004Y-90877834D01*
X159701362Y-90875000D01*
X161420802Y-90875000D01*
X161487841Y-90894685D01*
G37*
%TD.AperFunction*%
%TD*%
%TA.AperFunction,Conductor*%
%TO.N,Vmot*%
G36*
X162865677Y-80769685D02*
G01*
X162886319Y-80786319D01*
X163413681Y-81313681D01*
X163447166Y-81375004D01*
X163450000Y-81401362D01*
X163450000Y-85648637D01*
X163430315Y-85715676D01*
X163413681Y-85736318D01*
X162637210Y-86512789D01*
X162575887Y-86546274D01*
X162506195Y-86541290D01*
X162450262Y-86499418D01*
X162425845Y-86433954D01*
X162434968Y-86377655D01*
X162485044Y-86256762D01*
X162505682Y-86100000D01*
X162485044Y-85943238D01*
X162424536Y-85797159D01*
X162328282Y-85671718D01*
X162202841Y-85575464D01*
X162148224Y-85552841D01*
X162056762Y-85514956D01*
X162056760Y-85514955D01*
X161900001Y-85494318D01*
X161899999Y-85494318D01*
X161743239Y-85514955D01*
X161743237Y-85514956D01*
X161597160Y-85575463D01*
X161471718Y-85671718D01*
X161375463Y-85797160D01*
X161314956Y-85943237D01*
X161314955Y-85943239D01*
X161294318Y-86099998D01*
X161294318Y-86100001D01*
X161314955Y-86256760D01*
X161314956Y-86256762D01*
X161365031Y-86377655D01*
X161375464Y-86402841D01*
X161444248Y-86492482D01*
X161471719Y-86528283D01*
X161588619Y-86617983D01*
X161629822Y-86674411D01*
X161633977Y-86744157D01*
X161599765Y-86805077D01*
X161575138Y-86823744D01*
X161572161Y-86825462D01*
X161446718Y-86921718D01*
X161350463Y-87047160D01*
X161289956Y-87193237D01*
X161289955Y-87193239D01*
X161269318Y-87349998D01*
X161269318Y-87350001D01*
X161289955Y-87506760D01*
X161289957Y-87506765D01*
X161350461Y-87652836D01*
X161354526Y-87659876D01*
X161352410Y-87661097D01*
X161373149Y-87714735D01*
X161359113Y-87783180D01*
X161337260Y-87812738D01*
X156736319Y-92413681D01*
X156674996Y-92447166D01*
X156648638Y-92450000D01*
X155576362Y-92450000D01*
X155509323Y-92430315D01*
X155488681Y-92413681D01*
X154594446Y-91519446D01*
X154560961Y-91458123D01*
X154565945Y-91388431D01*
X154567566Y-91384312D01*
X154610044Y-91281762D01*
X154630682Y-91125000D01*
X154610044Y-90968238D01*
X154549536Y-90822159D01*
X154453282Y-90696718D01*
X154398511Y-90654691D01*
X154357311Y-90598265D01*
X154350000Y-90556317D01*
X154350000Y-90274500D01*
X154369685Y-90207461D01*
X154422489Y-90161706D01*
X154474000Y-90150500D01*
X155638114Y-90150500D01*
X155662306Y-90152883D01*
X155674999Y-90155408D01*
X155675000Y-90155408D01*
X155675002Y-90155408D01*
X155772739Y-90135967D01*
X155772739Y-90135966D01*
X155772741Y-90135966D01*
X155802536Y-90116057D01*
X155855601Y-90080601D01*
X155862794Y-90069833D01*
X155878210Y-90051048D01*
X156951048Y-88978210D01*
X156969833Y-88962794D01*
X156980601Y-88955601D01*
X157024608Y-88889739D01*
X157035966Y-88872741D01*
X157035966Y-88872739D01*
X157035967Y-88872739D01*
X157055408Y-88775002D01*
X157055408Y-88774999D01*
X157052883Y-88762306D01*
X157050500Y-88738114D01*
X157050500Y-87231900D01*
X157070185Y-87164861D01*
X157086819Y-87144219D01*
X157107573Y-87123465D01*
X157130904Y-87077674D01*
X157153698Y-87046301D01*
X159138097Y-85061902D01*
X159199418Y-85028419D01*
X159269110Y-85033403D01*
X159325043Y-85075275D01*
X159348715Y-85133400D01*
X159364955Y-85256760D01*
X159364956Y-85256762D01*
X159425464Y-85402841D01*
X159521718Y-85528282D01*
X159647159Y-85624536D01*
X159793238Y-85685044D01*
X159871619Y-85695363D01*
X159949999Y-85705682D01*
X159950000Y-85705682D01*
X159950001Y-85705682D01*
X160002254Y-85698802D01*
X160106762Y-85685044D01*
X160252841Y-85624536D01*
X160378282Y-85528282D01*
X160474536Y-85402841D01*
X160535044Y-85256762D01*
X160555682Y-85100000D01*
X160535044Y-84943238D01*
X160474536Y-84797159D01*
X160378282Y-84671718D01*
X160378280Y-84671717D01*
X160378280Y-84671716D01*
X160315281Y-84623376D01*
X160274078Y-84566948D01*
X160269923Y-84497202D01*
X160304135Y-84436282D01*
X160315281Y-84426624D01*
X160352891Y-84397765D01*
X160378282Y-84378282D01*
X160474536Y-84252841D01*
X160535044Y-84106762D01*
X160555682Y-83950000D01*
X160549452Y-83902682D01*
X160535044Y-83793239D01*
X160535044Y-83793238D01*
X160529177Y-83779075D01*
X160521708Y-83709609D01*
X160552981Y-83647129D01*
X160556004Y-83643995D01*
X160575000Y-83625000D01*
X160575000Y-81451362D01*
X160594685Y-81384323D01*
X160611319Y-81363681D01*
X161188681Y-80786319D01*
X161250004Y-80752834D01*
X161276362Y-80750000D01*
X162798638Y-80750000D01*
X162865677Y-80769685D01*
G37*
%TD.AperFunction*%
%TD*%
M02*
