%TF.GenerationSoftware,KiCad,Pcbnew,7.0.8*%
%TF.CreationDate,2023-10-18T19:00:46-04:00*%
%TF.ProjectId,lemon-pepper,6c656d6f-6e2d-4706-9570-7065722e6b69,rev?*%
%TF.SameCoordinates,Original*%
%TF.FileFunction,Copper,L2,Inr*%
%TF.FilePolarity,Positive*%
%FSLAX46Y46*%
G04 Gerber Fmt 4.6, Leading zero omitted, Abs format (unit mm)*
G04 Created by KiCad (PCBNEW 7.0.8) date 2023-10-18 19:00:46*
%MOMM*%
%LPD*%
G01*
G04 APERTURE LIST*
G04 Aperture macros list*
%AMRoundRect*
0 Rectangle with rounded corners*
0 $1 Rounding radius*
0 $2 $3 $4 $5 $6 $7 $8 $9 X,Y pos of 4 corners*
0 Add a 4 corners polygon primitive as box body*
4,1,4,$2,$3,$4,$5,$6,$7,$8,$9,$2,$3,0*
0 Add four circle primitives for the rounded corners*
1,1,$1+$1,$2,$3*
1,1,$1+$1,$4,$5*
1,1,$1+$1,$6,$7*
1,1,$1+$1,$8,$9*
0 Add four rect primitives between the rounded corners*
20,1,$1+$1,$2,$3,$4,$5,0*
20,1,$1+$1,$4,$5,$6,$7,0*
20,1,$1+$1,$6,$7,$8,$9,0*
20,1,$1+$1,$8,$9,$2,$3,0*%
G04 Aperture macros list end*
%TA.AperFunction,ComponentPad*%
%ADD10C,0.700000*%
%TD*%
%TA.AperFunction,ComponentPad*%
%ADD11C,1.300000*%
%TD*%
%TA.AperFunction,HeatsinkPad*%
%ADD12C,0.500000*%
%TD*%
%TA.AperFunction,ComponentPad*%
%ADD13O,1.750000X1.750000*%
%TD*%
%TA.AperFunction,ComponentPad*%
%ADD14O,1.750000X2.000000*%
%TD*%
%TA.AperFunction,ComponentPad*%
%ADD15C,5.800000*%
%TD*%
%TA.AperFunction,ComponentPad*%
%ADD16RoundRect,0.250000X0.600000X0.725000X-0.600000X0.725000X-0.600000X-0.725000X0.600000X-0.725000X0*%
%TD*%
%TA.AperFunction,ComponentPad*%
%ADD17O,1.700000X1.950000*%
%TD*%
%TA.AperFunction,ViaPad*%
%ADD18C,0.800000*%
%TD*%
%TA.AperFunction,ViaPad*%
%ADD19C,0.300000*%
%TD*%
%TA.AperFunction,ViaPad*%
%ADD20C,0.350000*%
%TD*%
G04 APERTURE END LIST*
D10*
%TO.N,*%
%TO.C,J201*%
X134408634Y-93573979D03*
D11*
%TO.N,GND*%
X136883507Y-93008293D03*
X133842948Y-96048852D03*
X140277620Y-96402406D03*
X137237061Y-99442965D03*
%TD*%
D12*
%TO.N,/current sense/U_OUT*%
%TO.C,M101*%
X142600000Y-70200000D03*
D13*
X142600000Y-72075000D03*
D14*
X142600000Y-74825000D03*
D12*
%TO.N,/current sense/W_OUT*%
X145100000Y-70200000D03*
D13*
X145100000Y-72075000D03*
D14*
X145100000Y-74825000D03*
D12*
%TO.N,/half bridges/OUT1B*%
X147600000Y-70200000D03*
D13*
X147600000Y-72075000D03*
D14*
X147600000Y-74825000D03*
D12*
%TO.N,/current sense/V_OUT*%
X150100000Y-70200000D03*
D13*
X150100000Y-72075000D03*
D14*
X150100000Y-74825000D03*
%TD*%
D15*
%TO.N,GND*%
%TO.C,H101*%
X133300000Y-99975000D03*
X159300000Y-99975000D03*
X133300000Y-73975000D03*
X159300000Y-73975000D03*
%TD*%
D16*
%TO.N,Vmot*%
%TO.C,J101*%
X153525000Y-101700000D03*
D17*
%TO.N,GND*%
X151025000Y-101700000D03*
%TO.N,/mcu/CANL*%
X148525000Y-101700000D03*
%TO.N,/mcu/CANH*%
X146025000Y-101700000D03*
%TD*%
D18*
%TO.N,GND*%
X143584500Y-78225000D03*
X153975000Y-84225000D03*
X142060500Y-86975000D03*
X159950000Y-85100000D03*
X156400000Y-81575000D03*
X154100000Y-90525000D03*
X161875000Y-87350000D03*
X146625000Y-88050000D03*
X148824500Y-78225000D03*
X130700000Y-80025000D03*
D19*
X156400000Y-94375000D03*
D18*
X162125000Y-90250000D03*
X135925000Y-86300000D03*
X161900000Y-86100000D03*
X153975000Y-85250000D03*
X159925000Y-80375000D03*
X137175000Y-85000000D03*
X135925000Y-85025000D03*
X157150000Y-82200000D03*
X146625000Y-85900000D03*
X135925000Y-83825000D03*
X159950000Y-82800000D03*
X134650000Y-85000000D03*
X154975000Y-84250000D03*
X159950000Y-83950000D03*
X133200000Y-79700000D03*
X157875000Y-82850000D03*
D19*
X157675000Y-95350000D03*
X155525000Y-95375000D03*
D18*
X147300000Y-92625000D03*
X152925000Y-84175000D03*
X138675000Y-78175000D03*
X145975000Y-94400000D03*
X145575000Y-87025000D03*
X147750000Y-87025000D03*
X140904600Y-93350500D03*
X154000000Y-83200000D03*
X146625000Y-86950000D03*
X159950000Y-81600000D03*
%TO.N,Vmot*%
X132150000Y-94150000D03*
X150200000Y-86325000D03*
X139000000Y-70700000D03*
X161925000Y-82200000D03*
X150850000Y-86975000D03*
X153725000Y-74775000D03*
X153750000Y-72700000D03*
X156250000Y-90950000D03*
X155325000Y-91350000D03*
X151750000Y-86800000D03*
X138975000Y-74750000D03*
X139000000Y-72750000D03*
X156150000Y-91975000D03*
X153725000Y-70725000D03*
X161950000Y-83375000D03*
D20*
%TO.N,/mcu/USBD_P*%
X137500000Y-96625000D03*
X136650000Y-95825000D03*
D18*
%TO.N,+3V3*%
X134550500Y-90189528D03*
X162200000Y-93700000D03*
X162200000Y-94575000D03*
X140050000Y-103600000D03*
X140850000Y-78425000D03*
X162150000Y-92100000D03*
X136084756Y-77651472D03*
X148575000Y-85725000D03*
X131015734Y-89634266D03*
X162175000Y-95425000D03*
X150800000Y-78450000D03*
X141374500Y-87925000D03*
X145550000Y-78475000D03*
X146000000Y-95675000D03*
D20*
%TO.N,/mcu/RESET*%
X143300000Y-92150000D03*
X130225000Y-84175000D03*
X133250000Y-77775000D03*
%TO.N,/current sense/U_SENSE*%
X131225000Y-83575000D03*
X139675000Y-79350000D03*
%TO.N,/current sense/V_SENSE*%
X146175000Y-82950000D03*
X137425000Y-89725000D03*
X147225000Y-81900000D03*
X149675000Y-79450000D03*
%TO.N,/current sense/W_SENSE*%
X132175000Y-87750000D03*
X138575000Y-81650000D03*
X142425000Y-81350000D03*
X144375000Y-79400000D03*
D18*
%TO.N,/usb/USB_5V*%
X136221584Y-97995447D03*
X135074342Y-96842749D03*
X139022580Y-95565784D03*
X141575000Y-95875000D03*
X131000000Y-94950000D03*
X137925000Y-94025000D03*
%TO.N,Net-(D603-K)*%
X152862435Y-88183615D03*
X150575000Y-84225000D03*
D20*
%TO.N,Net-(D601-K)*%
X151805811Y-81930811D03*
X156225000Y-87175000D03*
%TO.N,/half bridges/ENA*%
X154150000Y-87900000D03*
X150525000Y-83225000D03*
X139925000Y-88400000D03*
%TO.N,/encoder/SCK*%
X147450000Y-91350000D03*
X130625000Y-87275000D03*
%TO.N,/encoder/CIPO*%
X131025000Y-87775000D03*
X146050000Y-91325000D03*
%TO.N,/encoder/COPI*%
X146775000Y-91350000D03*
X131450000Y-88300000D03*
%TO.N,/encoder/CS*%
X148150000Y-91350000D03*
X132073766Y-87148766D03*
%TO.N,/encoder/CAL_EN*%
X132525000Y-88150000D03*
X145325000Y-91350000D03*
%TO.N,/mcu/CAN_TX*%
X140950000Y-83750000D03*
X138050000Y-80825000D03*
%TO.N,/mcu/CAN_RX*%
X137600000Y-80425000D03*
X141350000Y-83325000D03*
%TO.N,/half bridges/IN2B*%
X150950000Y-82825000D03*
X131750000Y-83075000D03*
%TO.N,/half bridges/IN1A*%
X155400000Y-87950000D03*
X139215802Y-87973175D03*
%TO.N,/half bridges/IN2A*%
X139650000Y-87678939D03*
X155825000Y-87525000D03*
%TO.N,/half bridges/IN1B*%
X132125000Y-82675000D03*
X151425000Y-82400000D03*
%TO.N,/mcu/DIR*%
X150750000Y-90050000D03*
X138850000Y-88825000D03*
%TO.N,/mcu/STEP*%
X138525000Y-89275000D03*
X149525000Y-90050000D03*
%TD*%
%TA.AperFunction,Conductor*%
%TO.N,GND*%
G36*
X142030810Y-69495185D02*
G01*
X142076565Y-69547989D01*
X142086509Y-69617147D01*
X142057484Y-69680703D01*
X142051452Y-69687181D01*
X142009523Y-69729109D01*
X142009518Y-69729115D01*
X141919547Y-69872302D01*
X141919545Y-69872305D01*
X141863685Y-70031943D01*
X141844751Y-70199997D01*
X141844751Y-70200002D01*
X141863685Y-70368056D01*
X141919545Y-70527694D01*
X141919547Y-70527697D01*
X142013227Y-70676786D01*
X142010859Y-70678273D01*
X142032488Y-70731280D01*
X142019718Y-70799973D01*
X141971838Y-70850857D01*
X141968148Y-70852936D01*
X141845103Y-70919524D01*
X141845090Y-70919533D01*
X141665212Y-71059538D01*
X141665208Y-71059541D01*
X141510814Y-71227257D01*
X141386137Y-71418091D01*
X141294569Y-71626844D01*
X141238610Y-71847820D01*
X141238608Y-71847831D01*
X141219786Y-72074993D01*
X141219786Y-72075006D01*
X141238608Y-72302168D01*
X141238610Y-72302179D01*
X141294569Y-72523155D01*
X141386137Y-72731908D01*
X141510814Y-72922742D01*
X141665208Y-73090458D01*
X141665212Y-73090461D01*
X141845090Y-73230466D01*
X141845094Y-73230469D01*
X141845096Y-73230470D01*
X141845099Y-73230472D01*
X141932118Y-73277564D01*
X141981709Y-73326783D01*
X141996817Y-73395000D01*
X141972647Y-73460556D01*
X141938115Y-73492208D01*
X141779133Y-73590097D01*
X141779124Y-73590103D01*
X141603362Y-73744793D01*
X141603361Y-73744795D01*
X141456265Y-73926969D01*
X141456264Y-73926969D01*
X141342075Y-74131377D01*
X141264072Y-74352147D01*
X141264070Y-74352155D01*
X141224500Y-74582919D01*
X141224500Y-75008433D01*
X141239382Y-75183296D01*
X141298382Y-75409889D01*
X141394824Y-75623244D01*
X141394829Y-75623252D01*
X141525935Y-75817231D01*
X141525940Y-75817236D01*
X141525943Y-75817241D01*
X141687956Y-75986283D01*
X141876208Y-76125513D01*
X142085282Y-76230926D01*
X142309163Y-76299489D01*
X142541411Y-76329229D01*
X142775345Y-76319292D01*
X143004234Y-76269962D01*
X143221494Y-76182660D01*
X143420875Y-76059896D01*
X143596641Y-75905203D01*
X143743735Y-75723030D01*
X143744399Y-75721840D01*
X143744813Y-75721434D01*
X143746681Y-75718671D01*
X143747242Y-75719050D01*
X143794269Y-75672909D01*
X143862680Y-75658705D01*
X143927909Y-75683743D01*
X143955395Y-75712863D01*
X144025935Y-75817230D01*
X144025936Y-75817231D01*
X144025943Y-75817241D01*
X144187956Y-75986283D01*
X144376208Y-76125513D01*
X144585282Y-76230926D01*
X144809163Y-76299489D01*
X145041411Y-76329229D01*
X145275345Y-76319292D01*
X145504234Y-76269962D01*
X145721494Y-76182660D01*
X145920875Y-76059896D01*
X146096641Y-75905203D01*
X146243735Y-75723030D01*
X146244399Y-75721840D01*
X146244813Y-75721434D01*
X146246681Y-75718671D01*
X146247242Y-75719050D01*
X146294269Y-75672909D01*
X146362680Y-75658705D01*
X146427909Y-75683743D01*
X146455395Y-75712863D01*
X146525935Y-75817230D01*
X146525936Y-75817231D01*
X146525943Y-75817241D01*
X146687956Y-75986283D01*
X146876208Y-76125513D01*
X147085282Y-76230926D01*
X147309163Y-76299489D01*
X147541411Y-76329229D01*
X147775345Y-76319292D01*
X148004234Y-76269962D01*
X148221494Y-76182660D01*
X148420875Y-76059896D01*
X148596641Y-75905203D01*
X148743735Y-75723030D01*
X148744399Y-75721840D01*
X148744813Y-75721434D01*
X148746681Y-75718671D01*
X148747242Y-75719050D01*
X148794269Y-75672909D01*
X148862680Y-75658705D01*
X148927909Y-75683743D01*
X148955395Y-75712863D01*
X149025935Y-75817230D01*
X149025936Y-75817231D01*
X149025943Y-75817241D01*
X149187956Y-75986283D01*
X149376208Y-76125513D01*
X149585282Y-76230926D01*
X149809163Y-76299489D01*
X150041411Y-76329229D01*
X150275345Y-76319292D01*
X150504234Y-76269962D01*
X150721494Y-76182660D01*
X150920875Y-76059896D01*
X151096641Y-75905203D01*
X151243735Y-75723030D01*
X151357926Y-75518619D01*
X151435929Y-75297849D01*
X151475500Y-75067072D01*
X151475500Y-74775000D01*
X152819540Y-74775000D01*
X152839326Y-74963256D01*
X152839327Y-74963259D01*
X152897818Y-75143277D01*
X152897821Y-75143284D01*
X152992467Y-75307216D01*
X153096619Y-75422888D01*
X153119129Y-75447888D01*
X153272265Y-75559148D01*
X153272270Y-75559151D01*
X153445192Y-75636142D01*
X153445197Y-75636144D01*
X153630354Y-75675500D01*
X153630355Y-75675500D01*
X153819644Y-75675500D01*
X153819646Y-75675500D01*
X154004803Y-75636144D01*
X154177730Y-75559151D01*
X154330871Y-75447888D01*
X154457533Y-75307216D01*
X154552179Y-75143284D01*
X154610674Y-74963256D01*
X154630460Y-74775000D01*
X154610674Y-74586744D01*
X154552179Y-74406716D01*
X154457533Y-74242784D01*
X154330871Y-74102112D01*
X154330870Y-74102111D01*
X154177734Y-73990851D01*
X154177729Y-73990848D01*
X154142134Y-73975000D01*
X155895006Y-73975000D01*
X155914966Y-74343142D01*
X155914967Y-74343159D01*
X155974610Y-74706960D01*
X155974616Y-74706986D01*
X156073243Y-75062209D01*
X156073245Y-75062216D01*
X156209706Y-75404710D01*
X156209715Y-75404728D01*
X156382406Y-75730458D01*
X156589307Y-76035614D01*
X156725496Y-76195948D01*
X156725497Y-76195949D01*
X158041351Y-74880095D01*
X158095456Y-74958480D01*
X158268816Y-75138966D01*
X158394865Y-75233686D01*
X157076520Y-76552031D01*
X157076520Y-76552032D01*
X157095643Y-76570147D01*
X157095655Y-76570158D01*
X157389158Y-76793274D01*
X157389175Y-76793286D01*
X157705067Y-76983350D01*
X157705080Y-76983357D01*
X158039671Y-77138155D01*
X158389068Y-77255882D01*
X158749134Y-77335138D01*
X159115655Y-77374999D01*
X159115663Y-77375000D01*
X159484337Y-77375000D01*
X159484344Y-77374999D01*
X159850865Y-77335138D01*
X160210931Y-77255882D01*
X160560328Y-77138155D01*
X160894919Y-76983357D01*
X160894932Y-76983350D01*
X161210824Y-76793286D01*
X161210841Y-76793274D01*
X161504340Y-76570161D01*
X161523479Y-76552031D01*
X160206879Y-75235431D01*
X160234180Y-75218168D01*
X160421501Y-75052216D01*
X160560511Y-74881958D01*
X161874501Y-76195948D01*
X161874502Y-76195948D01*
X162010690Y-76035615D01*
X162010701Y-76035601D01*
X162217593Y-75730458D01*
X162390284Y-75404728D01*
X162390293Y-75404710D01*
X162526754Y-75062216D01*
X162526756Y-75062209D01*
X162625383Y-74706986D01*
X162625389Y-74706960D01*
X162685032Y-74343159D01*
X162685033Y-74343142D01*
X162704994Y-73975000D01*
X162704994Y-73974997D01*
X162685033Y-73606857D01*
X162685032Y-73606840D01*
X162625389Y-73243039D01*
X162625383Y-73243013D01*
X162526756Y-72887790D01*
X162526754Y-72887783D01*
X162390293Y-72545289D01*
X162390284Y-72545271D01*
X162217593Y-72219541D01*
X162010692Y-71914385D01*
X161874502Y-71754050D01*
X161874501Y-71754049D01*
X160558647Y-73069903D01*
X160504544Y-72991520D01*
X160331184Y-72811034D01*
X160205133Y-72716313D01*
X161523478Y-71397967D01*
X161523478Y-71397966D01*
X161504356Y-71379852D01*
X161504344Y-71379841D01*
X161210841Y-71156725D01*
X161210824Y-71156713D01*
X160894932Y-70966649D01*
X160894919Y-70966642D01*
X160560328Y-70811844D01*
X160210931Y-70694117D01*
X159850865Y-70614861D01*
X159484344Y-70575000D01*
X159115655Y-70575000D01*
X158749134Y-70614861D01*
X158389068Y-70694117D01*
X158039671Y-70811844D01*
X157705080Y-70966642D01*
X157705067Y-70966649D01*
X157389175Y-71156713D01*
X157389158Y-71156725D01*
X157095657Y-71379840D01*
X157095643Y-71379852D01*
X157076520Y-71397966D01*
X157076520Y-71397968D01*
X158393120Y-72714568D01*
X158365820Y-72731832D01*
X158178499Y-72897784D01*
X158039488Y-73068040D01*
X156725497Y-71754049D01*
X156725496Y-71754050D01*
X156589314Y-71914376D01*
X156589307Y-71914386D01*
X156382406Y-72219541D01*
X156209715Y-72545271D01*
X156209706Y-72545289D01*
X156073245Y-72887783D01*
X156073243Y-72887790D01*
X155974616Y-73243013D01*
X155974610Y-73243039D01*
X155914967Y-73606840D01*
X155914966Y-73606857D01*
X155895006Y-73974997D01*
X155895006Y-73975000D01*
X154142134Y-73975000D01*
X154004807Y-73913857D01*
X154004802Y-73913855D01*
X153859001Y-73882865D01*
X153819646Y-73874500D01*
X153630354Y-73874500D01*
X153597897Y-73881398D01*
X153445197Y-73913855D01*
X153445192Y-73913857D01*
X153272270Y-73990848D01*
X153272265Y-73990851D01*
X153119129Y-74102111D01*
X152992466Y-74242785D01*
X152897821Y-74406715D01*
X152897818Y-74406722D01*
X152847450Y-74561740D01*
X152839326Y-74586744D01*
X152819540Y-74775000D01*
X151475500Y-74775000D01*
X151475500Y-74641572D01*
X151475500Y-74641567D01*
X151460617Y-74466703D01*
X151401617Y-74240110D01*
X151305175Y-74026755D01*
X151305170Y-74026747D01*
X151174064Y-73832768D01*
X151174060Y-73832763D01*
X151174057Y-73832759D01*
X151012044Y-73663717D01*
X150823792Y-73524487D01*
X150823787Y-73524484D01*
X150823785Y-73524483D01*
X150770532Y-73497633D01*
X150719533Y-73449875D01*
X150702450Y-73382125D01*
X150724708Y-73315896D01*
X150767339Y-73277857D01*
X150854906Y-73230469D01*
X151034794Y-73090456D01*
X151189183Y-72922745D01*
X151313862Y-72731909D01*
X151405430Y-72523155D01*
X151461390Y-72302176D01*
X151465623Y-72251092D01*
X151480214Y-72075006D01*
X151480214Y-72074993D01*
X151461391Y-71847831D01*
X151461389Y-71847820D01*
X151405430Y-71626844D01*
X151313862Y-71418091D01*
X151189185Y-71227257D01*
X151065847Y-71093277D01*
X151034794Y-71059544D01*
X151034793Y-71059543D01*
X151034791Y-71059541D01*
X151034787Y-71059538D01*
X150854909Y-70919533D01*
X150854905Y-70919530D01*
X150731851Y-70852937D01*
X150682261Y-70803717D01*
X150667153Y-70735501D01*
X150671024Y-70725000D01*
X152819540Y-70725000D01*
X152839326Y-70913256D01*
X152839327Y-70913259D01*
X152897818Y-71093277D01*
X152897821Y-71093284D01*
X152992467Y-71257216D01*
X153102879Y-71379841D01*
X153119129Y-71397888D01*
X153272265Y-71509148D01*
X153272270Y-71509151D01*
X153445197Y-71586144D01*
X153481530Y-71593866D01*
X153543010Y-71627056D01*
X153576788Y-71688219D01*
X153572137Y-71757933D01*
X153530533Y-71814067D01*
X153481536Y-71836445D01*
X153470198Y-71838855D01*
X153470192Y-71838857D01*
X153297270Y-71915848D01*
X153297265Y-71915851D01*
X153144129Y-72027111D01*
X153017466Y-72167785D01*
X152922821Y-72331715D01*
X152922818Y-72331722D01*
X152864327Y-72511740D01*
X152864326Y-72511744D01*
X152844540Y-72700000D01*
X152864326Y-72888256D01*
X152864327Y-72888259D01*
X152922818Y-73068277D01*
X152922821Y-73068284D01*
X153017467Y-73232216D01*
X153086032Y-73308365D01*
X153144129Y-73372888D01*
X153297265Y-73484148D01*
X153297270Y-73484151D01*
X153470192Y-73561142D01*
X153470197Y-73561144D01*
X153655354Y-73600500D01*
X153655355Y-73600500D01*
X153844644Y-73600500D01*
X153844646Y-73600500D01*
X154029803Y-73561144D01*
X154202730Y-73484151D01*
X154355871Y-73372888D01*
X154482533Y-73232216D01*
X154577179Y-73068284D01*
X154635674Y-72888256D01*
X154655460Y-72700000D01*
X154635674Y-72511744D01*
X154577179Y-72331716D01*
X154482533Y-72167784D01*
X154355871Y-72027112D01*
X154355870Y-72027111D01*
X154202734Y-71915851D01*
X154202729Y-71915848D01*
X154029807Y-71838857D01*
X154029800Y-71838855D01*
X153993470Y-71831133D01*
X153931988Y-71797941D01*
X153898211Y-71736778D01*
X153902863Y-71667064D01*
X153944467Y-71610931D01*
X153993468Y-71588553D01*
X154004803Y-71586144D01*
X154177730Y-71509151D01*
X154330871Y-71397888D01*
X154457533Y-71257216D01*
X154552179Y-71093284D01*
X154610674Y-70913256D01*
X154630460Y-70725000D01*
X154610674Y-70536744D01*
X154552179Y-70356716D01*
X154457533Y-70192784D01*
X154330871Y-70052112D01*
X154303108Y-70031941D01*
X154177734Y-69940851D01*
X154177729Y-69940848D01*
X154004807Y-69863857D01*
X154004802Y-69863855D01*
X153859001Y-69832865D01*
X153819646Y-69824500D01*
X153630354Y-69824500D01*
X153597897Y-69831398D01*
X153445197Y-69863855D01*
X153445192Y-69863857D01*
X153272270Y-69940848D01*
X153272265Y-69940851D01*
X153119129Y-70052111D01*
X152992466Y-70192785D01*
X152897821Y-70356715D01*
X152897818Y-70356722D01*
X152839327Y-70536740D01*
X152839326Y-70536744D01*
X152819540Y-70725000D01*
X150671024Y-70725000D01*
X150688418Y-70677821D01*
X150686772Y-70676787D01*
X150716779Y-70629029D01*
X150780456Y-70527690D01*
X150836313Y-70368059D01*
X150836313Y-70368058D01*
X150836314Y-70368056D01*
X150855249Y-70200002D01*
X150855249Y-70199997D01*
X150836314Y-70031943D01*
X150797292Y-69920426D01*
X150780456Y-69872310D01*
X150780455Y-69872309D01*
X150780454Y-69872305D01*
X150780452Y-69872302D01*
X150690481Y-69729115D01*
X150690476Y-69729109D01*
X150648548Y-69687181D01*
X150615063Y-69625858D01*
X150620047Y-69556166D01*
X150661919Y-69500233D01*
X150727383Y-69475816D01*
X150736229Y-69475500D01*
X159299500Y-69475500D01*
X159300000Y-69475500D01*
X159494602Y-69483996D01*
X159695492Y-69493284D01*
X159700690Y-69493745D01*
X159901571Y-69520192D01*
X160096057Y-69547322D01*
X160100862Y-69548188D01*
X160299710Y-69592271D01*
X160490125Y-69637057D01*
X160494535Y-69638269D01*
X160689235Y-69699657D01*
X160874516Y-69761758D01*
X160878520Y-69763256D01*
X161067458Y-69841516D01*
X161246171Y-69920426D01*
X161249671Y-69922107D01*
X161431369Y-70016693D01*
X161602024Y-70111748D01*
X161605155Y-70113616D01*
X161778059Y-70223768D01*
X161933281Y-70330097D01*
X161939275Y-70334203D01*
X161941969Y-70336156D01*
X162104774Y-70461081D01*
X162184997Y-70527697D01*
X162255227Y-70586016D01*
X162257486Y-70587985D01*
X162407011Y-70725000D01*
X162408911Y-70726741D01*
X162548258Y-70866088D01*
X162687008Y-71017507D01*
X162688982Y-71019771D01*
X162750022Y-71093277D01*
X162813917Y-71170223D01*
X162857682Y-71227259D01*
X162938833Y-71333017D01*
X162940794Y-71335721D01*
X163051229Y-71496936D01*
X163087952Y-71554579D01*
X163161382Y-71669843D01*
X163163257Y-71672986D01*
X163258309Y-71843636D01*
X163352870Y-72025285D01*
X163354585Y-72028855D01*
X163415929Y-72167785D01*
X163433489Y-72207555D01*
X163511738Y-72396468D01*
X163513244Y-72400492D01*
X163575346Y-72585779D01*
X163636724Y-72780446D01*
X163637947Y-72784896D01*
X163682737Y-72975331D01*
X163726805Y-73174109D01*
X163727680Y-73178965D01*
X163754816Y-73373495D01*
X163781250Y-73574279D01*
X163781714Y-73579511D01*
X163791009Y-73780535D01*
X163799500Y-73975000D01*
X163799500Y-99975000D01*
X163791009Y-100169464D01*
X163781714Y-100370487D01*
X163781250Y-100375719D01*
X163754816Y-100576504D01*
X163727680Y-100771033D01*
X163726805Y-100775889D01*
X163682729Y-100974707D01*
X163637950Y-101165092D01*
X163636727Y-101169542D01*
X163575325Y-101364287D01*
X163513251Y-101549489D01*
X163511745Y-101553513D01*
X163433475Y-101742477D01*
X163354594Y-101921125D01*
X163352871Y-101924711D01*
X163258304Y-102106372D01*
X163163268Y-102276994D01*
X163161393Y-102280137D01*
X163051225Y-102453069D01*
X162940790Y-102614282D01*
X162938828Y-102616987D01*
X162813905Y-102779791D01*
X162688998Y-102930211D01*
X162687010Y-102932490D01*
X162548235Y-103083935D01*
X162408935Y-103223235D01*
X162257490Y-103362010D01*
X162255211Y-103363998D01*
X162104791Y-103488905D01*
X161941987Y-103613828D01*
X161939282Y-103615790D01*
X161778069Y-103726225D01*
X161605137Y-103836393D01*
X161601994Y-103838268D01*
X161431372Y-103933304D01*
X161249711Y-104027871D01*
X161246125Y-104029594D01*
X161067477Y-104108475D01*
X160878513Y-104186745D01*
X160874489Y-104188251D01*
X160689287Y-104250325D01*
X160494542Y-104311727D01*
X160490092Y-104312950D01*
X160299707Y-104357729D01*
X160100889Y-104401805D01*
X160096033Y-104402680D01*
X159901504Y-104429816D01*
X159700719Y-104456250D01*
X159695487Y-104456714D01*
X159494464Y-104466009D01*
X159300000Y-104474500D01*
X140752847Y-104474500D01*
X140685808Y-104454815D01*
X140640053Y-104402011D01*
X140630109Y-104332853D01*
X140659134Y-104269297D01*
X140660697Y-104267528D01*
X140782533Y-104132216D01*
X140877179Y-103968284D01*
X140935674Y-103788256D01*
X140955460Y-103600000D01*
X140935674Y-103411744D01*
X140877179Y-103231716D01*
X140782533Y-103067784D01*
X140655871Y-102927112D01*
X140622721Y-102903027D01*
X140502734Y-102815851D01*
X140502729Y-102815848D01*
X140329807Y-102738857D01*
X140329802Y-102738855D01*
X140294436Y-102731338D01*
X141012588Y-102731338D01*
X141042863Y-102903032D01*
X141111916Y-103063116D01*
X141111917Y-103063118D01*
X141111919Y-103063121D01*
X141195582Y-103175499D01*
X141216027Y-103202961D01*
X141349581Y-103315027D01*
X141505380Y-103393272D01*
X141675024Y-103433478D01*
X141675026Y-103433478D01*
X141805624Y-103433478D01*
X141805631Y-103433478D01*
X141935359Y-103418315D01*
X142099188Y-103358686D01*
X142244849Y-103262883D01*
X142364491Y-103136071D01*
X142451662Y-102985085D01*
X142501664Y-102818066D01*
X142511802Y-102644018D01*
X142481527Y-102472324D01*
X142412474Y-102312240D01*
X142394922Y-102288664D01*
X142325898Y-102195949D01*
X142308363Y-102172395D01*
X142229680Y-102106372D01*
X142174809Y-102060329D01*
X142174807Y-102060328D01*
X142019013Y-101982085D01*
X142019011Y-101982084D01*
X142019010Y-101982084D01*
X141849366Y-101941878D01*
X141718759Y-101941878D01*
X141605247Y-101955145D01*
X141589030Y-101957041D01*
X141589027Y-101957042D01*
X141425203Y-102016669D01*
X141425199Y-102016671D01*
X141279543Y-102112470D01*
X141279542Y-102112471D01*
X141159901Y-102239281D01*
X141159898Y-102239287D01*
X141072729Y-102390268D01*
X141022726Y-102557288D01*
X141022725Y-102557294D01*
X141014220Y-102703313D01*
X141012588Y-102731338D01*
X140294436Y-102731338D01*
X140162594Y-102703315D01*
X140144646Y-102699500D01*
X139955354Y-102699500D01*
X139937406Y-102703315D01*
X139770197Y-102738855D01*
X139770192Y-102738857D01*
X139597270Y-102815848D01*
X139597265Y-102815851D01*
X139444129Y-102927111D01*
X139317466Y-103067785D01*
X139222821Y-103231715D01*
X139222818Y-103231722D01*
X139166369Y-103405455D01*
X139164326Y-103411744D01*
X139144540Y-103600000D01*
X139164326Y-103788256D01*
X139164327Y-103788259D01*
X139222818Y-103968277D01*
X139222821Y-103968284D01*
X139317467Y-104132216D01*
X139381334Y-104203147D01*
X139439303Y-104267528D01*
X139469533Y-104330519D01*
X139460908Y-104399854D01*
X139416167Y-104453520D01*
X139349514Y-104474478D01*
X139347153Y-104474500D01*
X133300000Y-104474500D01*
X133105535Y-104466009D01*
X132904511Y-104456714D01*
X132899279Y-104456250D01*
X132698495Y-104429816D01*
X132503965Y-104402680D01*
X132499109Y-104401805D01*
X132300302Y-104357731D01*
X132269694Y-104350532D01*
X132109906Y-104312950D01*
X132105456Y-104311727D01*
X131910712Y-104250325D01*
X131725509Y-104188251D01*
X131721484Y-104186745D01*
X131532522Y-104108475D01*
X131496386Y-104092519D01*
X131353859Y-104029587D01*
X131350304Y-104027879D01*
X131225436Y-103962877D01*
X131168627Y-103933304D01*
X130998004Y-103838268D01*
X130994861Y-103836393D01*
X130821930Y-103726225D01*
X130660716Y-103615790D01*
X130658011Y-103613828D01*
X130495208Y-103488905D01*
X130402281Y-103411740D01*
X130344775Y-103363987D01*
X130342531Y-103362030D01*
X130267233Y-103293032D01*
X130191064Y-103223235D01*
X130051764Y-103083935D01*
X129973966Y-102999035D01*
X129912964Y-102932462D01*
X129911017Y-102930230D01*
X129786093Y-102779790D01*
X129758884Y-102744331D01*
X129661168Y-102616984D01*
X129659208Y-102614282D01*
X129548774Y-102453069D01*
X129438605Y-102280137D01*
X129436739Y-102277010D01*
X129341693Y-102106368D01*
X129317770Y-102060413D01*
X129247106Y-101924670D01*
X129245424Y-101921166D01*
X129166524Y-101742477D01*
X129088249Y-101553504D01*
X129086747Y-101549489D01*
X129044569Y-101423647D01*
X129024674Y-101364287D01*
X128963265Y-101169522D01*
X128962053Y-101165111D01*
X128917269Y-100974701D01*
X128873188Y-100775862D01*
X128872322Y-100771057D01*
X128845183Y-100576504D01*
X128818745Y-100375690D01*
X128818284Y-100370487D01*
X128817020Y-100343142D01*
X128808996Y-100169601D01*
X128800500Y-99975000D01*
X129895006Y-99975000D01*
X129914966Y-100343142D01*
X129914967Y-100343159D01*
X129974610Y-100706960D01*
X129974616Y-100706986D01*
X130073240Y-101062199D01*
X130073245Y-101062216D01*
X130209706Y-101404710D01*
X130209715Y-101404728D01*
X130382406Y-101730458D01*
X130589307Y-102035614D01*
X130725496Y-102195948D01*
X130725497Y-102195949D01*
X132041351Y-100880095D01*
X132095456Y-100958480D01*
X132268816Y-101138966D01*
X132394865Y-101233685D01*
X131076520Y-102552031D01*
X131076520Y-102552032D01*
X131095643Y-102570147D01*
X131095655Y-102570158D01*
X131389158Y-102793274D01*
X131389175Y-102793286D01*
X131705067Y-102983350D01*
X131705080Y-102983357D01*
X132039671Y-103138155D01*
X132389068Y-103255882D01*
X132749134Y-103335138D01*
X133115655Y-103374999D01*
X133115663Y-103375000D01*
X133484337Y-103375000D01*
X133484344Y-103374999D01*
X133850865Y-103335138D01*
X134210931Y-103255882D01*
X134560328Y-103138155D01*
X134894919Y-102983357D01*
X134894932Y-102983350D01*
X135210824Y-102793286D01*
X135210841Y-102793274D01*
X135504343Y-102570159D01*
X135504347Y-102570156D01*
X135632138Y-102449106D01*
X135694345Y-102417294D01*
X135763876Y-102424163D01*
X135818656Y-102467534D01*
X135841291Y-102533635D01*
X135841203Y-102546339D01*
X135832282Y-102699500D01*
X135832060Y-102703315D01*
X135845545Y-102779790D01*
X135860304Y-102863494D01*
X135862335Y-102875009D01*
X135931388Y-103035093D01*
X135931389Y-103035095D01*
X135931391Y-103035098D01*
X136006566Y-103136074D01*
X136035499Y-103174938D01*
X136169053Y-103287004D01*
X136324852Y-103365249D01*
X136494496Y-103405455D01*
X136494498Y-103405455D01*
X136625096Y-103405455D01*
X136625103Y-103405455D01*
X136754831Y-103390292D01*
X136918660Y-103330663D01*
X137064321Y-103234860D01*
X137183963Y-103108048D01*
X137271134Y-102957062D01*
X137321136Y-102790043D01*
X137331274Y-102615995D01*
X137300999Y-102444301D01*
X137231946Y-102284217D01*
X137198495Y-102239285D01*
X137127834Y-102144371D01*
X136994281Y-102032306D01*
X136994279Y-102032305D01*
X136838485Y-101954062D01*
X136838483Y-101954061D01*
X136838482Y-101954061D01*
X136668838Y-101913855D01*
X136538231Y-101913855D01*
X136424719Y-101927122D01*
X136408502Y-101929018D01*
X136408498Y-101929019D01*
X136336402Y-101955260D01*
X136266673Y-101959691D01*
X136205617Y-101925720D01*
X136183246Y-101883966D01*
X144674500Y-101883966D01*
X144689936Y-102060403D01*
X144689938Y-102060413D01*
X144751094Y-102288655D01*
X144751096Y-102288659D01*
X144751097Y-102288663D01*
X144775000Y-102339922D01*
X144850964Y-102502828D01*
X144850965Y-102502830D01*
X144986505Y-102696402D01*
X145080142Y-102790038D01*
X145153599Y-102863495D01*
X145210061Y-102903030D01*
X145347165Y-102999032D01*
X145347167Y-102999033D01*
X145347170Y-102999035D01*
X145561337Y-103098903D01*
X145789592Y-103160063D01*
X145966034Y-103175500D01*
X146024999Y-103180659D01*
X146025000Y-103180659D01*
X146025001Y-103180659D01*
X146083966Y-103175500D01*
X146260408Y-103160063D01*
X146488663Y-103098903D01*
X146702829Y-102999035D01*
X146896401Y-102863495D01*
X147063495Y-102696401D01*
X147173426Y-102539401D01*
X147228001Y-102495778D01*
X147297500Y-102488584D01*
X147359855Y-102520106D01*
X147376571Y-102539398D01*
X147430899Y-102616987D01*
X147486506Y-102696403D01*
X147580142Y-102790038D01*
X147653599Y-102863495D01*
X147710061Y-102903030D01*
X147847165Y-102999032D01*
X147847167Y-102999033D01*
X147847170Y-102999035D01*
X148061337Y-103098903D01*
X148289592Y-103160063D01*
X148466034Y-103175500D01*
X148524999Y-103180659D01*
X148525000Y-103180659D01*
X148525001Y-103180659D01*
X148583966Y-103175500D01*
X148760408Y-103160063D01*
X148988663Y-103098903D01*
X149202829Y-102999035D01*
X149396401Y-102863495D01*
X149563495Y-102696401D01*
X149673732Y-102538965D01*
X149728306Y-102495342D01*
X149797805Y-102488148D01*
X149860159Y-102519670D01*
X149876880Y-102538967D01*
X149986886Y-102696073D01*
X149986891Y-102696079D01*
X150153917Y-102863105D01*
X150347421Y-102998600D01*
X150561507Y-103098429D01*
X150561516Y-103098433D01*
X150775000Y-103155634D01*
X150775000Y-102108018D01*
X150889801Y-102160446D01*
X150991025Y-102175000D01*
X151058975Y-102175000D01*
X151160199Y-102160446D01*
X151275000Y-102108018D01*
X151275000Y-103155633D01*
X151488483Y-103098433D01*
X151488492Y-103098429D01*
X151702577Y-102998600D01*
X151702579Y-102998599D01*
X151896073Y-102863113D01*
X151896079Y-102863108D01*
X152043331Y-102715857D01*
X152104654Y-102682372D01*
X152174346Y-102687356D01*
X152230279Y-102729228D01*
X152236551Y-102738441D01*
X152240186Y-102744334D01*
X152332288Y-102893656D01*
X152456344Y-103017712D01*
X152605666Y-103109814D01*
X152772203Y-103164999D01*
X152874991Y-103175500D01*
X154175008Y-103175499D01*
X154277797Y-103164999D01*
X154444334Y-103109814D01*
X154593656Y-103017712D01*
X154717712Y-102893656D01*
X154809814Y-102744334D01*
X154864999Y-102577797D01*
X154875500Y-102475009D01*
X154875499Y-100924992D01*
X154874156Y-100911849D01*
X154864999Y-100822203D01*
X154864998Y-100822200D01*
X154843171Y-100756330D01*
X154809814Y-100655666D01*
X154717712Y-100506344D01*
X154593656Y-100382288D01*
X154462786Y-100301567D01*
X154444336Y-100290187D01*
X154444331Y-100290185D01*
X154431849Y-100286049D01*
X154277797Y-100235001D01*
X154277795Y-100235000D01*
X154175010Y-100224500D01*
X152874998Y-100224500D01*
X152874981Y-100224501D01*
X152772203Y-100235000D01*
X152772200Y-100235001D01*
X152605668Y-100290185D01*
X152605663Y-100290187D01*
X152456342Y-100382289D01*
X152332288Y-100506343D01*
X152332285Y-100506347D01*
X152236550Y-100661558D01*
X152184602Y-100708283D01*
X152115640Y-100719504D01*
X152051558Y-100691661D01*
X152043331Y-100684143D01*
X151896078Y-100536891D01*
X151702578Y-100401399D01*
X151488492Y-100301570D01*
X151488486Y-100301567D01*
X151275000Y-100244364D01*
X151275000Y-101291981D01*
X151160199Y-101239554D01*
X151058975Y-101225000D01*
X150991025Y-101225000D01*
X150889801Y-101239554D01*
X150775000Y-101291981D01*
X150775000Y-100244364D01*
X150774999Y-100244364D01*
X150561513Y-100301567D01*
X150561507Y-100301570D01*
X150347422Y-100401399D01*
X150347420Y-100401400D01*
X150153926Y-100536886D01*
X150153920Y-100536891D01*
X149986891Y-100703920D01*
X149986890Y-100703922D01*
X149876880Y-100861032D01*
X149822303Y-100904657D01*
X149752804Y-100911849D01*
X149690450Y-100880327D01*
X149673730Y-100861031D01*
X149563494Y-100703597D01*
X149396402Y-100536506D01*
X149396395Y-100536501D01*
X149202834Y-100400967D01*
X149202830Y-100400965D01*
X149137470Y-100370487D01*
X148988663Y-100301097D01*
X148988659Y-100301096D01*
X148988655Y-100301094D01*
X148760413Y-100239938D01*
X148760403Y-100239936D01*
X148525001Y-100219341D01*
X148524999Y-100219341D01*
X148289596Y-100239936D01*
X148289586Y-100239938D01*
X148061344Y-100301094D01*
X148061335Y-100301098D01*
X147847171Y-100400964D01*
X147847169Y-100400965D01*
X147653597Y-100536505D01*
X147486505Y-100703597D01*
X147376575Y-100860595D01*
X147321998Y-100904220D01*
X147252500Y-100911414D01*
X147190145Y-100879891D01*
X147173425Y-100860595D01*
X147063494Y-100703597D01*
X146896402Y-100536506D01*
X146896395Y-100536501D01*
X146702834Y-100400967D01*
X146702830Y-100400965D01*
X146637470Y-100370487D01*
X146488663Y-100301097D01*
X146488659Y-100301096D01*
X146488655Y-100301094D01*
X146260413Y-100239938D01*
X146260403Y-100239936D01*
X146025001Y-100219341D01*
X146024999Y-100219341D01*
X145789596Y-100239936D01*
X145789586Y-100239938D01*
X145561344Y-100301094D01*
X145561335Y-100301098D01*
X145347171Y-100400964D01*
X145347169Y-100400965D01*
X145153597Y-100536505D01*
X144986505Y-100703597D01*
X144850965Y-100897169D01*
X144850964Y-100897171D01*
X144751098Y-101111335D01*
X144751094Y-101111344D01*
X144689938Y-101339586D01*
X144689936Y-101339596D01*
X144674500Y-101516034D01*
X144674500Y-101883966D01*
X136183246Y-101883966D01*
X136172620Y-101864133D01*
X136178158Y-101794483D01*
X136191359Y-101769150D01*
X136217596Y-101730453D01*
X136390284Y-101404728D01*
X136390293Y-101404710D01*
X136526754Y-101062216D01*
X136526760Y-101062199D01*
X136617141Y-100736672D01*
X140624864Y-100736672D01*
X140655139Y-100908366D01*
X140724192Y-101068450D01*
X140724193Y-101068452D01*
X140724195Y-101068455D01*
X140799452Y-101169542D01*
X140828303Y-101208295D01*
X140961857Y-101320361D01*
X141117656Y-101398606D01*
X141287300Y-101438812D01*
X141287302Y-101438812D01*
X141417900Y-101438812D01*
X141417907Y-101438812D01*
X141547635Y-101423649D01*
X141711464Y-101364020D01*
X141857125Y-101268217D01*
X141976767Y-101141405D01*
X142063938Y-100990419D01*
X142113940Y-100823400D01*
X142124078Y-100649352D01*
X142093803Y-100477658D01*
X142024750Y-100317574D01*
X142012835Y-100301570D01*
X141920638Y-100177728D01*
X141787085Y-100065663D01*
X141787083Y-100065662D01*
X141631289Y-99987419D01*
X141631287Y-99987418D01*
X141631286Y-99987418D01*
X141578890Y-99975000D01*
X155895006Y-99975000D01*
X155914966Y-100343142D01*
X155914967Y-100343159D01*
X155974610Y-100706960D01*
X155974616Y-100706986D01*
X156073240Y-101062199D01*
X156073245Y-101062216D01*
X156209706Y-101404710D01*
X156209715Y-101404728D01*
X156382406Y-101730458D01*
X156589307Y-102035614D01*
X156725496Y-102195948D01*
X156725497Y-102195949D01*
X158041351Y-100880095D01*
X158095456Y-100958480D01*
X158268816Y-101138966D01*
X158394865Y-101233686D01*
X157076520Y-102552031D01*
X157076520Y-102552032D01*
X157095643Y-102570147D01*
X157095655Y-102570158D01*
X157389158Y-102793274D01*
X157389175Y-102793286D01*
X157705067Y-102983350D01*
X157705080Y-102983357D01*
X158039671Y-103138155D01*
X158389068Y-103255882D01*
X158749134Y-103335138D01*
X159115655Y-103374999D01*
X159115663Y-103375000D01*
X159484337Y-103375000D01*
X159484344Y-103374999D01*
X159850865Y-103335138D01*
X160210931Y-103255882D01*
X160560328Y-103138155D01*
X160894919Y-102983357D01*
X160894932Y-102983350D01*
X161210824Y-102793286D01*
X161210841Y-102793274D01*
X161504340Y-102570161D01*
X161523479Y-102552031D01*
X160206879Y-101235431D01*
X160234180Y-101218168D01*
X160421501Y-101052216D01*
X160560511Y-100881958D01*
X161874501Y-102195948D01*
X161874502Y-102195948D01*
X162010690Y-102035615D01*
X162010701Y-102035601D01*
X162217593Y-101730458D01*
X162390284Y-101404728D01*
X162390293Y-101404710D01*
X162526754Y-101062216D01*
X162526760Y-101062199D01*
X162625383Y-100706986D01*
X162625389Y-100706960D01*
X162685032Y-100343159D01*
X162685033Y-100343142D01*
X162704994Y-99975000D01*
X162704994Y-99974997D01*
X162685033Y-99606857D01*
X162685032Y-99606840D01*
X162625389Y-99243039D01*
X162625383Y-99243013D01*
X162526756Y-98887790D01*
X162526754Y-98887783D01*
X162390293Y-98545289D01*
X162390284Y-98545271D01*
X162217593Y-98219541D01*
X162010692Y-97914385D01*
X161874502Y-97754050D01*
X161874501Y-97754049D01*
X160558647Y-99069903D01*
X160504544Y-98991520D01*
X160331184Y-98811034D01*
X160205133Y-98716313D01*
X161523478Y-97397967D01*
X161523478Y-97397966D01*
X161504356Y-97379852D01*
X161504344Y-97379841D01*
X161210841Y-97156725D01*
X161210824Y-97156713D01*
X160894932Y-96966649D01*
X160894919Y-96966642D01*
X160560328Y-96811844D01*
X160210931Y-96694117D01*
X159850865Y-96614861D01*
X159484344Y-96575000D01*
X159115655Y-96575000D01*
X158749134Y-96614861D01*
X158389068Y-96694117D01*
X158039671Y-96811844D01*
X157705080Y-96966642D01*
X157705067Y-96966649D01*
X157389175Y-97156713D01*
X157389158Y-97156725D01*
X157095657Y-97379840D01*
X157095643Y-97379852D01*
X157076520Y-97397966D01*
X157076520Y-97397968D01*
X158393120Y-98714568D01*
X158365820Y-98731832D01*
X158178499Y-98897784D01*
X158039488Y-99068040D01*
X156725497Y-97754049D01*
X156725496Y-97754050D01*
X156589314Y-97914376D01*
X156589307Y-97914386D01*
X156382406Y-98219541D01*
X156209715Y-98545271D01*
X156209706Y-98545289D01*
X156073245Y-98887783D01*
X156073243Y-98887790D01*
X155974616Y-99243013D01*
X155974610Y-99243039D01*
X155914967Y-99606840D01*
X155914966Y-99606857D01*
X155895006Y-99974997D01*
X155895006Y-99975000D01*
X141578890Y-99975000D01*
X141461642Y-99947212D01*
X141331035Y-99947212D01*
X141217523Y-99960479D01*
X141201306Y-99962375D01*
X141201303Y-99962376D01*
X141037479Y-100022003D01*
X141037475Y-100022005D01*
X140891819Y-100117804D01*
X140891818Y-100117805D01*
X140772177Y-100244615D01*
X140772174Y-100244621D01*
X140685005Y-100395602D01*
X140635002Y-100562622D01*
X140635001Y-100562628D01*
X140625864Y-100719504D01*
X140624864Y-100736672D01*
X136617141Y-100736672D01*
X136625383Y-100706986D01*
X136625385Y-100706978D01*
X136641937Y-100606018D01*
X136672208Y-100543046D01*
X136731719Y-100506437D01*
X136801575Y-100507813D01*
X136809098Y-100510452D01*
X136921002Y-100553803D01*
X136987061Y-100566151D01*
X136987061Y-99817168D01*
X137039603Y-99852991D01*
X137169233Y-99892977D01*
X137270784Y-99892977D01*
X137371203Y-99877841D01*
X137487061Y-99822046D01*
X137487061Y-100566150D01*
X137553119Y-100553803D01*
X137751853Y-100476814D01*
X137751859Y-100476811D01*
X137933058Y-100364618D01*
X137933060Y-100364616D01*
X138090560Y-100221036D01*
X138218999Y-100050956D01*
X138313993Y-99860183D01*
X138313998Y-99860170D01*
X138361573Y-99692965D01*
X137612353Y-99692965D01*
X137660697Y-99609230D01*
X137690883Y-99476974D01*
X137680746Y-99341697D01*
X137631185Y-99215418D01*
X137613279Y-99192965D01*
X138361573Y-99192965D01*
X138361573Y-99192964D01*
X138313998Y-99025759D01*
X138313993Y-99025746D01*
X138218999Y-98834973D01*
X138090560Y-98664893D01*
X137933060Y-98521313D01*
X137933058Y-98521311D01*
X137751859Y-98409118D01*
X137751850Y-98409114D01*
X137553124Y-98332128D01*
X137553119Y-98332127D01*
X137487061Y-98319778D01*
X137487061Y-99068761D01*
X137434519Y-99032939D01*
X137304889Y-98992953D01*
X137203338Y-98992953D01*
X137102919Y-99008089D01*
X136987061Y-99063883D01*
X136987061Y-98503827D01*
X137003674Y-98441827D01*
X137013389Y-98425000D01*
X137048763Y-98363731D01*
X137107258Y-98183703D01*
X137127044Y-97995447D01*
X137107258Y-97807191D01*
X137048763Y-97627163D01*
X136954117Y-97463231D01*
X136827455Y-97322559D01*
X136827454Y-97322558D01*
X136674318Y-97211298D01*
X136674313Y-97211295D01*
X136501391Y-97134304D01*
X136501386Y-97134302D01*
X136355585Y-97103312D01*
X136316230Y-97094947D01*
X136126938Y-97094947D01*
X136116264Y-97097215D01*
X136046600Y-97091899D01*
X135990866Y-97049761D01*
X135966762Y-96984181D01*
X135967165Y-96962978D01*
X135979802Y-96842749D01*
X135960016Y-96654493D01*
X135901521Y-96474465D01*
X135806875Y-96310533D01*
X135680213Y-96169861D01*
X135640803Y-96141228D01*
X135527076Y-96058600D01*
X135527071Y-96058597D01*
X135354149Y-95981606D01*
X135354144Y-95981604D01*
X135208343Y-95950614D01*
X135168988Y-95942249D01*
X135100921Y-95942249D01*
X135033882Y-95922564D01*
X134988127Y-95869760D01*
X134979033Y-95841038D01*
X134978209Y-95836631D01*
X134974900Y-95825000D01*
X135969539Y-95825000D01*
X135989311Y-95987842D01*
X135989312Y-95987845D01*
X136038923Y-96118659D01*
X136047483Y-96141228D01*
X136070692Y-96174852D01*
X136140668Y-96276229D01*
X136140670Y-96276231D01*
X136140672Y-96276233D01*
X136263451Y-96385006D01*
X136263452Y-96385006D01*
X136263454Y-96385008D01*
X136408705Y-96461242D01*
X136408707Y-96461242D01*
X136408708Y-96461243D01*
X136567978Y-96500500D01*
X136695539Y-96500500D01*
X136762578Y-96520185D01*
X136808333Y-96572989D01*
X136818043Y-96617626D01*
X136818635Y-96617555D01*
X136819401Y-96623868D01*
X136819539Y-96624500D01*
X136819539Y-96625000D01*
X136839311Y-96787842D01*
X136839312Y-96787845D01*
X136897482Y-96941226D01*
X136990668Y-97076229D01*
X136990670Y-97076231D01*
X136990672Y-97076233D01*
X137113451Y-97185006D01*
X137113452Y-97185006D01*
X137113454Y-97185008D01*
X137258705Y-97261242D01*
X137258707Y-97261242D01*
X137258708Y-97261243D01*
X137417978Y-97300500D01*
X137417979Y-97300500D01*
X137582022Y-97300500D01*
X137741291Y-97261243D01*
X137741291Y-97261242D01*
X137741295Y-97261242D01*
X137886546Y-97185008D01*
X138009332Y-97076229D01*
X138102518Y-96941226D01*
X138160688Y-96787845D01*
X138180461Y-96625000D01*
X138160688Y-96462155D01*
X138102518Y-96308774D01*
X138009332Y-96173771D01*
X138009329Y-96173768D01*
X138009327Y-96173766D01*
X137886548Y-96064993D01*
X137838129Y-96039580D01*
X137741295Y-95988758D01*
X137741294Y-95988757D01*
X137741291Y-95988756D01*
X137582022Y-95949500D01*
X137582021Y-95949500D01*
X137454461Y-95949500D01*
X137387422Y-95929815D01*
X137341667Y-95877011D01*
X137331956Y-95832373D01*
X137331365Y-95832445D01*
X137330598Y-95826131D01*
X137330461Y-95825500D01*
X137330461Y-95824999D01*
X137319430Y-95734151D01*
X137310688Y-95662155D01*
X137252518Y-95508774D01*
X137251097Y-95506716D01*
X137234185Y-95482214D01*
X137159332Y-95373771D01*
X137159329Y-95373768D01*
X137159327Y-95373766D01*
X137036548Y-95264993D01*
X136891291Y-95188756D01*
X136732022Y-95149500D01*
X136732021Y-95149500D01*
X136567979Y-95149500D01*
X136567978Y-95149500D01*
X136408708Y-95188756D01*
X136263451Y-95264993D01*
X136140672Y-95373766D01*
X136140666Y-95373773D01*
X136047483Y-95508771D01*
X135989312Y-95662154D01*
X135989311Y-95662157D01*
X135969539Y-95824999D01*
X135969539Y-95825000D01*
X134974900Y-95825000D01*
X134919889Y-95631655D01*
X134919881Y-95631635D01*
X134824888Y-95440862D01*
X134696447Y-95270780D01*
X134538947Y-95127200D01*
X134538945Y-95127198D01*
X134357746Y-95015005D01*
X134357737Y-95015001D01*
X134159011Y-94938015D01*
X134159006Y-94938014D01*
X134092948Y-94925665D01*
X134092948Y-95674648D01*
X134040406Y-95638826D01*
X133910776Y-95598840D01*
X133809225Y-95598840D01*
X133708806Y-95613976D01*
X133592948Y-95669770D01*
X133592948Y-94925665D01*
X133526889Y-94938014D01*
X133526884Y-94938015D01*
X133328158Y-95015001D01*
X133328149Y-95015005D01*
X133146950Y-95127198D01*
X133146948Y-95127200D01*
X132989448Y-95270780D01*
X132861009Y-95440860D01*
X132766015Y-95631633D01*
X132766010Y-95631646D01*
X132718435Y-95798851D01*
X132718436Y-95798852D01*
X133467656Y-95798852D01*
X133419312Y-95882587D01*
X133389126Y-96014843D01*
X133399263Y-96150120D01*
X133448824Y-96276399D01*
X133466730Y-96298852D01*
X132718435Y-96298852D01*
X132767579Y-96471574D01*
X132766165Y-96471976D01*
X132771437Y-96534546D01*
X132738732Y-96596289D01*
X132677838Y-96630548D01*
X132676604Y-96630826D01*
X132389066Y-96694118D01*
X132039671Y-96811844D01*
X131705080Y-96966642D01*
X131705067Y-96966649D01*
X131389175Y-97156713D01*
X131389158Y-97156725D01*
X131095657Y-97379840D01*
X131095643Y-97379852D01*
X131076520Y-97397966D01*
X131076520Y-97397968D01*
X132393120Y-98714568D01*
X132365820Y-98731832D01*
X132178499Y-98897784D01*
X132039488Y-99068040D01*
X130725497Y-97754049D01*
X130725496Y-97754050D01*
X130589314Y-97914376D01*
X130589307Y-97914386D01*
X130382406Y-98219541D01*
X130209715Y-98545271D01*
X130209706Y-98545289D01*
X130073245Y-98887783D01*
X130073243Y-98887790D01*
X129974616Y-99243013D01*
X129974610Y-99243039D01*
X129914967Y-99606840D01*
X129914966Y-99606857D01*
X129895006Y-99974997D01*
X129895006Y-99975000D01*
X128800500Y-99975000D01*
X128800500Y-99974500D01*
X128800500Y-94950000D01*
X130094540Y-94950000D01*
X130114326Y-95138256D01*
X130114327Y-95138259D01*
X130172818Y-95318277D01*
X130172821Y-95318284D01*
X130267467Y-95482216D01*
X130372476Y-95598840D01*
X130394129Y-95622888D01*
X130547265Y-95734148D01*
X130547270Y-95734151D01*
X130720192Y-95811142D01*
X130720197Y-95811144D01*
X130905354Y-95850500D01*
X130905355Y-95850500D01*
X131094644Y-95850500D01*
X131094646Y-95850500D01*
X131279803Y-95811144D01*
X131452730Y-95734151D01*
X131605871Y-95622888D01*
X131732533Y-95482216D01*
X131827179Y-95318284D01*
X131885674Y-95138256D01*
X131885674Y-95138255D01*
X131887682Y-95132076D01*
X131889603Y-95132700D01*
X131918242Y-95079618D01*
X131979396Y-95045824D01*
X132032141Y-95045566D01*
X132055354Y-95050500D01*
X132055358Y-95050500D01*
X132244644Y-95050500D01*
X132244646Y-95050500D01*
X132429803Y-95011144D01*
X132602730Y-94934151D01*
X132755871Y-94822888D01*
X132882533Y-94682216D01*
X132977179Y-94518284D01*
X133035674Y-94338256D01*
X133055460Y-94150000D01*
X133035674Y-93961744D01*
X132977179Y-93781716D01*
X132882533Y-93617784D01*
X132843092Y-93573980D01*
X133553449Y-93573980D01*
X133560381Y-93639946D01*
X133560629Y-93643068D01*
X133564388Y-93712380D01*
X133564391Y-93712395D01*
X133567433Y-93723354D01*
X133571271Y-93743549D01*
X133572136Y-93751780D01*
X133572138Y-93751786D01*
X133594062Y-93819263D01*
X133613877Y-93890631D01*
X133613881Y-93890641D01*
X133617554Y-93897570D01*
X133625923Y-93917319D01*
X133627382Y-93921808D01*
X133627386Y-93921819D01*
X133664399Y-93985926D01*
X133700532Y-94054082D01*
X133703302Y-94057342D01*
X133716186Y-94075624D01*
X133716774Y-94076644D01*
X133762861Y-94127828D01*
X133768371Y-94133947D01*
X133820297Y-94195079D01*
X133820301Y-94195082D01*
X133820881Y-94195523D01*
X133831475Y-94205271D01*
X133831577Y-94205159D01*
X133836404Y-94209505D01*
X133901279Y-94256640D01*
X133967570Y-94307033D01*
X133967572Y-94307034D01*
X133967575Y-94307036D01*
X133973331Y-94310499D01*
X133973226Y-94310672D01*
X133975149Y-94311801D01*
X133975414Y-94311343D01*
X133981037Y-94314589D01*
X133981040Y-94314590D01*
X133981041Y-94314591D01*
X134057108Y-94348458D01*
X134135467Y-94384711D01*
X134135472Y-94384712D01*
X134135589Y-94384752D01*
X134141155Y-94386264D01*
X134144359Y-94387304D01*
X134144367Y-94387308D01*
X134144375Y-94387309D01*
X134144376Y-94387310D01*
X134228781Y-94405251D01*
X134248009Y-94409483D01*
X134316137Y-94424479D01*
X134316140Y-94424479D01*
X134498023Y-94424479D01*
X134498025Y-94424479D01*
X134540310Y-94415490D01*
X134546479Y-94414502D01*
X134592544Y-94409493D01*
X134630186Y-94396808D01*
X134637086Y-94394919D01*
X134672901Y-94387308D01*
X134715420Y-94368376D01*
X134720808Y-94366274D01*
X134767855Y-94350423D01*
X134799057Y-94331648D01*
X134805785Y-94328143D01*
X134836227Y-94314591D01*
X134876556Y-94285288D01*
X134880997Y-94282347D01*
X134926370Y-94255049D01*
X134950415Y-94232270D01*
X134956595Y-94227136D01*
X134980864Y-94209505D01*
X135016425Y-94170008D01*
X135019828Y-94166519D01*
X135060675Y-94127828D01*
X135077401Y-94103156D01*
X135082626Y-94096485D01*
X135100493Y-94076644D01*
X135128712Y-94027765D01*
X135131075Y-94023993D01*
X135164492Y-93974709D01*
X135172632Y-93954276D01*
X135180437Y-93938174D01*
X135189884Y-93921814D01*
X135208349Y-93864980D01*
X135209706Y-93861226D01*
X135232965Y-93802854D01*
X135235949Y-93784644D01*
X135240382Y-93766392D01*
X135245131Y-93751782D01*
X135251722Y-93689056D01*
X135252191Y-93685572D01*
X135262894Y-93620296D01*
X135262086Y-93605399D01*
X135262584Y-93585726D01*
X135263819Y-93573979D01*
X135256881Y-93507971D01*
X135256637Y-93504903D01*
X135252879Y-93435572D01*
X135251298Y-93429878D01*
X135249836Y-93424611D01*
X135245995Y-93404396D01*
X135245131Y-93396178D01*
X135245131Y-93396177D01*
X135245131Y-93396176D01*
X135223205Y-93328695D01*
X135210507Y-93282959D01*
X135203389Y-93257322D01*
X135199720Y-93250402D01*
X135191342Y-93230632D01*
X135189884Y-93226144D01*
X135152868Y-93162031D01*
X135116734Y-93093875D01*
X135116733Y-93093873D01*
X135113960Y-93090609D01*
X135101081Y-93072333D01*
X135100493Y-93071314D01*
X135100492Y-93071313D01*
X135100491Y-93071311D01*
X135048896Y-93014010D01*
X134996972Y-92952880D01*
X134996384Y-92952433D01*
X134985792Y-92942686D01*
X134985691Y-92942799D01*
X134980866Y-92938454D01*
X134953335Y-92918452D01*
X134915988Y-92891317D01*
X134849698Y-92840925D01*
X134849697Y-92840924D01*
X134849695Y-92840923D01*
X134843936Y-92837458D01*
X134844038Y-92837288D01*
X134842120Y-92836162D01*
X134841858Y-92836617D01*
X134836232Y-92833369D01*
X134760159Y-92799499D01*
X134681809Y-92763250D01*
X134681803Y-92763248D01*
X134681801Y-92763247D01*
X134681798Y-92763246D01*
X134681689Y-92763209D01*
X134676122Y-92761696D01*
X134672905Y-92760651D01*
X134672901Y-92760650D01*
X134661808Y-92758292D01*
X135758994Y-92758292D01*
X135758995Y-92758293D01*
X136508215Y-92758293D01*
X136459871Y-92842028D01*
X136429685Y-92974284D01*
X136439822Y-93109561D01*
X136489383Y-93235840D01*
X136507289Y-93258293D01*
X135758995Y-93258293D01*
X135806569Y-93425498D01*
X135806574Y-93425511D01*
X135901568Y-93616284D01*
X136030007Y-93786364D01*
X136187507Y-93929944D01*
X136187509Y-93929946D01*
X136368708Y-94042139D01*
X136368714Y-94042142D01*
X136567448Y-94119131D01*
X136633507Y-94131479D01*
X136633507Y-93382496D01*
X136686049Y-93418319D01*
X136815679Y-93458305D01*
X136917230Y-93458305D01*
X137017649Y-93443169D01*
X137133507Y-93387374D01*
X137133507Y-93561679D01*
X137116894Y-93623678D01*
X137097822Y-93656711D01*
X137097821Y-93656713D01*
X137045006Y-93819262D01*
X137039326Y-93836744D01*
X137019540Y-94025000D01*
X137039326Y-94213256D01*
X137039327Y-94213259D01*
X137097818Y-94393277D01*
X137097821Y-94393284D01*
X137192467Y-94557216D01*
X137267508Y-94640557D01*
X137319129Y-94697888D01*
X137472265Y-94809148D01*
X137472270Y-94809151D01*
X137645192Y-94886142D01*
X137645197Y-94886144D01*
X137830354Y-94925500D01*
X137830355Y-94925500D01*
X138019644Y-94925500D01*
X138019646Y-94925500D01*
X138126573Y-94902772D01*
X138196238Y-94908088D01*
X138251972Y-94950225D01*
X138276077Y-95015805D01*
X138260900Y-95084006D01*
X138259740Y-95086061D01*
X138195400Y-95197502D01*
X138195398Y-95197506D01*
X138138126Y-95373773D01*
X138136906Y-95377528D01*
X138117120Y-95565784D01*
X138136906Y-95754040D01*
X138136907Y-95754043D01*
X138195398Y-95934061D01*
X138195401Y-95934068D01*
X138290047Y-96098000D01*
X138390128Y-96209151D01*
X138416709Y-96238672D01*
X138569845Y-96349932D01*
X138569850Y-96349935D01*
X138742772Y-96426926D01*
X138742777Y-96426928D01*
X138927934Y-96466284D01*
X138927935Y-96466284D01*
X139015571Y-96466284D01*
X139082610Y-96485969D01*
X139128365Y-96538773D01*
X139139042Y-96578841D01*
X139142358Y-96614623D01*
X139142358Y-96614625D01*
X139200678Y-96819602D01*
X139200686Y-96819622D01*
X139295679Y-97010395D01*
X139424120Y-97180477D01*
X139581620Y-97324057D01*
X139581622Y-97324059D01*
X139762821Y-97436252D01*
X139762827Y-97436255D01*
X139961561Y-97513244D01*
X140027620Y-97525592D01*
X140027620Y-96776609D01*
X140080162Y-96812432D01*
X140209792Y-96852418D01*
X140311343Y-96852418D01*
X140411762Y-96837282D01*
X140527620Y-96781487D01*
X140527620Y-97525591D01*
X140593678Y-97513244D01*
X140792412Y-97436255D01*
X140792418Y-97436252D01*
X140973617Y-97324059D01*
X140973619Y-97324057D01*
X141131119Y-97180477D01*
X141259557Y-97010399D01*
X141343641Y-96841533D01*
X141391144Y-96790296D01*
X141458807Y-96772874D01*
X141479999Y-96775462D01*
X141480353Y-96775500D01*
X141480354Y-96775500D01*
X141669644Y-96775500D01*
X141669646Y-96775500D01*
X141854803Y-96736144D01*
X142027730Y-96659151D01*
X142180871Y-96547888D01*
X142307533Y-96407216D01*
X142402179Y-96243284D01*
X142460674Y-96063256D01*
X142480460Y-95875000D01*
X142460674Y-95686744D01*
X142456858Y-95675000D01*
X145094540Y-95675000D01*
X145114326Y-95863256D01*
X145114327Y-95863259D01*
X145172818Y-96043277D01*
X145172821Y-96043284D01*
X145267467Y-96207216D01*
X145360495Y-96310534D01*
X145394129Y-96347888D01*
X145547265Y-96459148D01*
X145547270Y-96459151D01*
X145720192Y-96536142D01*
X145720197Y-96536144D01*
X145905354Y-96575500D01*
X145905355Y-96575500D01*
X146094644Y-96575500D01*
X146094646Y-96575500D01*
X146279803Y-96536144D01*
X146452730Y-96459151D01*
X146605871Y-96347888D01*
X146732533Y-96207216D01*
X146827179Y-96043284D01*
X146885674Y-95863256D01*
X146905460Y-95675000D01*
X146885674Y-95486744D01*
X146827179Y-95306716D01*
X146732533Y-95142784D01*
X146605871Y-95002112D01*
X146605870Y-95002111D01*
X146452734Y-94890851D01*
X146452729Y-94890848D01*
X146279807Y-94813857D01*
X146279802Y-94813855D01*
X146128200Y-94781632D01*
X146094646Y-94774500D01*
X145905354Y-94774500D01*
X145872897Y-94781398D01*
X145720197Y-94813855D01*
X145720192Y-94813857D01*
X145547270Y-94890848D01*
X145547265Y-94890851D01*
X145394129Y-95002111D01*
X145267466Y-95142785D01*
X145172821Y-95306715D01*
X145172818Y-95306722D01*
X145129234Y-95440862D01*
X145114326Y-95486744D01*
X145094540Y-95675000D01*
X142456858Y-95675000D01*
X142402179Y-95506716D01*
X142307533Y-95342784D01*
X142180871Y-95202112D01*
X142180870Y-95202111D01*
X142027734Y-95090851D01*
X142027729Y-95090848D01*
X141854807Y-95013857D01*
X141854802Y-95013855D01*
X141687754Y-94978349D01*
X141669646Y-94974500D01*
X141480354Y-94974500D01*
X141462246Y-94978349D01*
X141295197Y-95013855D01*
X141295192Y-95013857D01*
X141122270Y-95090848D01*
X141122265Y-95090851D01*
X140969129Y-95202111D01*
X140969128Y-95202112D01*
X140869530Y-95312726D01*
X140810043Y-95349374D01*
X140740186Y-95348043D01*
X140732588Y-95345380D01*
X140593683Y-95291569D01*
X140593678Y-95291568D01*
X140527620Y-95279219D01*
X140527620Y-96028202D01*
X140475078Y-95992380D01*
X140345448Y-95952394D01*
X140243897Y-95952394D01*
X140143478Y-95967530D01*
X140027620Y-96023324D01*
X140027620Y-95279219D01*
X139992035Y-95285871D01*
X139922520Y-95278840D01*
X139867841Y-95235342D01*
X139851319Y-95202301D01*
X139849760Y-95197503D01*
X139849759Y-95197502D01*
X139849759Y-95197500D01*
X139755113Y-95033568D01*
X139628451Y-94892896D01*
X139628450Y-94892895D01*
X139475314Y-94781635D01*
X139475309Y-94781632D01*
X139302387Y-94704641D01*
X139302382Y-94704639D01*
X139156581Y-94673649D01*
X139117226Y-94665284D01*
X138927934Y-94665284D01*
X138821006Y-94688011D01*
X138751340Y-94682695D01*
X138695607Y-94640557D01*
X138671502Y-94574977D01*
X138686679Y-94506776D01*
X138687796Y-94504797D01*
X138752179Y-94393284D01*
X138810674Y-94213256D01*
X138830460Y-94025000D01*
X138810674Y-93836744D01*
X138752179Y-93656716D01*
X138657533Y-93492784D01*
X138530871Y-93352112D01*
X138521228Y-93345106D01*
X138377734Y-93240851D01*
X138377729Y-93240848D01*
X138204807Y-93163857D01*
X138204802Y-93163855D01*
X138059001Y-93132865D01*
X138019646Y-93124500D01*
X137830354Y-93124500D01*
X137797897Y-93131398D01*
X137645197Y-93163855D01*
X137645192Y-93163857D01*
X137472269Y-93240849D01*
X137470829Y-93241681D01*
X137469755Y-93241968D01*
X137466334Y-93243492D01*
X137466092Y-93242950D01*
X137408831Y-93258293D01*
X137258799Y-93258293D01*
X137307143Y-93174558D01*
X137337329Y-93042302D01*
X137327192Y-92907025D01*
X137277631Y-92780746D01*
X137259725Y-92758293D01*
X138008019Y-92758293D01*
X138008019Y-92758292D01*
X137960444Y-92591087D01*
X137960439Y-92591074D01*
X137865445Y-92400301D01*
X137737006Y-92230221D01*
X137649008Y-92150000D01*
X142619539Y-92150000D01*
X142639311Y-92312842D01*
X142639312Y-92312845D01*
X142697483Y-92466228D01*
X142725774Y-92507214D01*
X142790668Y-92601229D01*
X142790670Y-92601231D01*
X142790672Y-92601233D01*
X142913451Y-92710006D01*
X142913452Y-92710006D01*
X142913454Y-92710008D01*
X143058705Y-92786242D01*
X143058707Y-92786242D01*
X143058708Y-92786243D01*
X143217978Y-92825500D01*
X143217979Y-92825500D01*
X143382022Y-92825500D01*
X143541291Y-92786243D01*
X143541291Y-92786242D01*
X143541295Y-92786242D01*
X143686546Y-92710008D01*
X143809332Y-92601229D01*
X143902518Y-92466226D01*
X143960688Y-92312845D01*
X143980461Y-92150000D01*
X143960688Y-91987155D01*
X143902518Y-91833774D01*
X143809332Y-91698771D01*
X143809329Y-91698768D01*
X143809327Y-91698766D01*
X143686548Y-91589993D01*
X143597468Y-91543240D01*
X143541295Y-91513758D01*
X143541294Y-91513757D01*
X143541291Y-91513756D01*
X143382022Y-91474500D01*
X143382021Y-91474500D01*
X143217979Y-91474500D01*
X143217978Y-91474500D01*
X143058708Y-91513756D01*
X142913451Y-91589993D01*
X142790672Y-91698766D01*
X142790666Y-91698773D01*
X142697483Y-91833771D01*
X142639312Y-91987154D01*
X142639311Y-91987157D01*
X142619539Y-92149999D01*
X142619539Y-92150000D01*
X137649008Y-92150000D01*
X137579506Y-92086641D01*
X137579504Y-92086639D01*
X137398305Y-91974446D01*
X137398296Y-91974442D01*
X137199570Y-91897456D01*
X137199565Y-91897455D01*
X137133507Y-91885106D01*
X137133507Y-92634089D01*
X137080965Y-92598267D01*
X136951335Y-92558281D01*
X136849784Y-92558281D01*
X136749365Y-92573417D01*
X136633507Y-92629211D01*
X136633507Y-91885106D01*
X136567448Y-91897455D01*
X136567443Y-91897456D01*
X136368717Y-91974442D01*
X136368708Y-91974446D01*
X136187509Y-92086639D01*
X136187507Y-92086641D01*
X136030007Y-92230221D01*
X135901568Y-92400301D01*
X135806574Y-92591074D01*
X135806569Y-92591087D01*
X135758994Y-92758292D01*
X134661808Y-92758292D01*
X134588485Y-92742706D01*
X134569217Y-92738465D01*
X134501133Y-92723479D01*
X134501131Y-92723479D01*
X134498025Y-92723479D01*
X134319243Y-92723479D01*
X134319241Y-92723479D01*
X134276967Y-92732463D01*
X134270779Y-92733455D01*
X134224720Y-92738465D01*
X134187085Y-92751146D01*
X134180175Y-92753038D01*
X134144366Y-92760650D01*
X134144365Y-92760650D01*
X134101859Y-92779575D01*
X134096437Y-92781690D01*
X134049421Y-92797531D01*
X134049414Y-92797534D01*
X134049413Y-92797535D01*
X134049410Y-92797537D01*
X134018217Y-92816304D01*
X134011467Y-92819820D01*
X133981041Y-92833367D01*
X133940733Y-92862651D01*
X133936255Y-92865617D01*
X133890898Y-92892909D01*
X133890891Y-92892914D01*
X133866863Y-92915673D01*
X133860667Y-92920822D01*
X133836409Y-92938448D01*
X133836405Y-92938451D01*
X133800858Y-92977929D01*
X133797421Y-92981453D01*
X133756595Y-93020128D01*
X133756589Y-93020136D01*
X133739874Y-93044787D01*
X133734628Y-93051485D01*
X133716775Y-93071313D01*
X133688561Y-93120180D01*
X133686188Y-93123966D01*
X133669604Y-93148428D01*
X133652775Y-93173250D01*
X133652770Y-93173260D01*
X133644631Y-93193686D01*
X133636831Y-93209778D01*
X133627385Y-93226140D01*
X133627382Y-93226147D01*
X133608922Y-93282959D01*
X133607553Y-93286748D01*
X133584302Y-93345106D01*
X133581316Y-93363318D01*
X133576883Y-93381565D01*
X133572137Y-93396172D01*
X133572136Y-93396177D01*
X133565547Y-93458860D01*
X133565070Y-93462407D01*
X133554374Y-93527659D01*
X133555181Y-93542556D01*
X133554684Y-93562222D01*
X133553449Y-93573977D01*
X133553449Y-93573980D01*
X132843092Y-93573980D01*
X132755871Y-93477112D01*
X132755870Y-93477111D01*
X132602734Y-93365851D01*
X132602729Y-93365848D01*
X132429807Y-93288857D01*
X132429802Y-93288855D01*
X132281446Y-93257322D01*
X132244646Y-93249500D01*
X132055354Y-93249500D01*
X132022897Y-93256398D01*
X131870197Y-93288855D01*
X131870192Y-93288857D01*
X131697270Y-93365848D01*
X131697265Y-93365851D01*
X131544129Y-93477111D01*
X131417466Y-93617785D01*
X131322821Y-93781715D01*
X131322818Y-93781722D01*
X131262318Y-93967924D01*
X131260403Y-93967301D01*
X131231728Y-94020410D01*
X131170563Y-94054184D01*
X131117855Y-94054433D01*
X131094646Y-94049500D01*
X130905354Y-94049500D01*
X130882146Y-94054433D01*
X130720197Y-94088855D01*
X130720192Y-94088857D01*
X130547270Y-94165848D01*
X130547265Y-94165851D01*
X130394129Y-94277111D01*
X130267466Y-94417785D01*
X130172821Y-94581715D01*
X130172818Y-94581722D01*
X130114327Y-94761740D01*
X130114326Y-94761744D01*
X130094540Y-94950000D01*
X128800500Y-94950000D01*
X128800500Y-91350000D01*
X144644539Y-91350000D01*
X144664311Y-91512842D01*
X144664312Y-91512845D01*
X144722483Y-91666228D01*
X144767691Y-91731722D01*
X144815668Y-91801229D01*
X144815670Y-91801231D01*
X144815672Y-91801233D01*
X144938451Y-91910006D01*
X144938452Y-91910006D01*
X144938454Y-91910008D01*
X145083705Y-91986242D01*
X145083707Y-91986242D01*
X145083708Y-91986243D01*
X145242978Y-92025500D01*
X145242979Y-92025500D01*
X145407022Y-92025500D01*
X145446839Y-92015685D01*
X145566295Y-91986242D01*
X145653694Y-91940370D01*
X145722197Y-91926646D01*
X145768937Y-91940370D01*
X145808705Y-91961242D01*
X145910129Y-91986241D01*
X145967978Y-92000500D01*
X145967979Y-92000500D01*
X146132022Y-92000500D01*
X146237741Y-91974442D01*
X146291295Y-91961242D01*
X146331057Y-91940372D01*
X146399564Y-91926647D01*
X146446309Y-91940373D01*
X146495126Y-91965994D01*
X146533705Y-91986242D01*
X146640878Y-92012658D01*
X146692978Y-92025500D01*
X146692979Y-92025500D01*
X146857022Y-92025500D01*
X146936658Y-92005871D01*
X147016295Y-91986242D01*
X147054874Y-91965993D01*
X147123381Y-91952268D01*
X147170125Y-91965993D01*
X147208703Y-91986241D01*
X147208705Y-91986242D01*
X147367978Y-92025500D01*
X147367979Y-92025500D01*
X147532022Y-92025500D01*
X147611658Y-92005871D01*
X147691295Y-91986242D01*
X147742374Y-91959432D01*
X147810881Y-91945707D01*
X147857624Y-91959432D01*
X147887286Y-91975000D01*
X147908705Y-91986242D01*
X148067978Y-92025500D01*
X148067979Y-92025500D01*
X148232022Y-92025500D01*
X148391291Y-91986243D01*
X148391291Y-91986242D01*
X148391295Y-91986242D01*
X148536546Y-91910008D01*
X148659332Y-91801229D01*
X148752518Y-91666226D01*
X148810688Y-91512845D01*
X148830461Y-91350000D01*
X154419540Y-91350000D01*
X154439326Y-91538256D01*
X154439327Y-91538259D01*
X154497818Y-91718277D01*
X154497821Y-91718284D01*
X154592467Y-91882216D01*
X154686132Y-91986241D01*
X154719129Y-92022888D01*
X154872265Y-92134148D01*
X154872270Y-92134151D01*
X155045192Y-92211142D01*
X155045197Y-92211144D01*
X155227269Y-92249844D01*
X155288751Y-92283036D01*
X155319418Y-92332813D01*
X155322818Y-92343276D01*
X155322821Y-92343284D01*
X155417467Y-92507216D01*
X155492985Y-92591087D01*
X155544127Y-92647886D01*
X155544129Y-92647888D01*
X155697265Y-92759148D01*
X155697270Y-92759151D01*
X155870192Y-92836142D01*
X155870197Y-92836144D01*
X156055354Y-92875500D01*
X156055355Y-92875500D01*
X156244644Y-92875500D01*
X156244646Y-92875500D01*
X156429803Y-92836144D01*
X156602730Y-92759151D01*
X156755871Y-92647888D01*
X156882533Y-92507216D01*
X156977179Y-92343284D01*
X157035674Y-92163256D01*
X157042322Y-92100000D01*
X161244540Y-92100000D01*
X161264326Y-92288256D01*
X161264327Y-92288259D01*
X161322818Y-92468277D01*
X161322821Y-92468284D01*
X161417467Y-92632216D01*
X161499641Y-92723479D01*
X161544129Y-92772888D01*
X161606007Y-92817845D01*
X161648673Y-92873175D01*
X161654652Y-92942788D01*
X161622046Y-93004583D01*
X161606011Y-93018478D01*
X161594132Y-93027109D01*
X161594129Y-93027111D01*
X161467466Y-93167785D01*
X161372821Y-93331715D01*
X161372818Y-93331722D01*
X161320486Y-93492785D01*
X161314326Y-93511744D01*
X161294540Y-93700000D01*
X161314326Y-93888256D01*
X161314327Y-93888259D01*
X161372821Y-94068285D01*
X161372822Y-94068286D01*
X161376990Y-94075507D01*
X161393458Y-94143408D01*
X161376990Y-94199493D01*
X161372822Y-94206713D01*
X161372821Y-94206714D01*
X161314482Y-94386264D01*
X161314326Y-94386744D01*
X161294540Y-94575000D01*
X161314326Y-94763256D01*
X161314327Y-94763259D01*
X161370341Y-94935653D01*
X161372336Y-95005494D01*
X161359799Y-95035968D01*
X161347821Y-95056715D01*
X161289327Y-95236740D01*
X161289326Y-95236744D01*
X161269540Y-95425000D01*
X161289326Y-95613256D01*
X161289327Y-95613259D01*
X161347818Y-95793277D01*
X161347821Y-95793284D01*
X161442467Y-95957216D01*
X161533751Y-96058597D01*
X161569129Y-96097888D01*
X161722265Y-96209148D01*
X161722270Y-96209151D01*
X161895192Y-96286142D01*
X161895197Y-96286144D01*
X162080354Y-96325500D01*
X162080355Y-96325500D01*
X162269644Y-96325500D01*
X162269646Y-96325500D01*
X162454803Y-96286144D01*
X162627730Y-96209151D01*
X162780871Y-96097888D01*
X162907533Y-95957216D01*
X163002179Y-95793284D01*
X163060674Y-95613256D01*
X163080460Y-95425000D01*
X163060674Y-95236744D01*
X163004658Y-95064345D01*
X163002663Y-94994504D01*
X163015200Y-94964031D01*
X163027179Y-94943284D01*
X163085674Y-94763256D01*
X163105460Y-94575000D01*
X163085674Y-94386744D01*
X163027179Y-94206716D01*
X163023013Y-94199501D01*
X163006539Y-94131604D01*
X163023013Y-94075498D01*
X163027179Y-94068284D01*
X163085674Y-93888256D01*
X163105460Y-93700000D01*
X163085674Y-93511744D01*
X163027179Y-93331716D01*
X162932533Y-93167784D01*
X162805871Y-93027112D01*
X162805867Y-93027109D01*
X162743992Y-92982154D01*
X162701326Y-92926824D01*
X162695347Y-92857211D01*
X162727953Y-92795416D01*
X162743992Y-92781518D01*
X162755871Y-92772888D01*
X162882533Y-92632216D01*
X162977179Y-92468284D01*
X163035674Y-92288256D01*
X163055460Y-92100000D01*
X163035674Y-91911744D01*
X162977179Y-91731716D01*
X162882533Y-91567784D01*
X162755871Y-91427112D01*
X162755870Y-91427111D01*
X162602734Y-91315851D01*
X162602729Y-91315848D01*
X162429807Y-91238857D01*
X162429802Y-91238855D01*
X162284001Y-91207865D01*
X162244646Y-91199500D01*
X162055354Y-91199500D01*
X162022897Y-91206398D01*
X161870197Y-91238855D01*
X161870192Y-91238857D01*
X161697270Y-91315848D01*
X161697265Y-91315851D01*
X161544129Y-91427111D01*
X161417466Y-91567785D01*
X161322821Y-91731715D01*
X161322818Y-91731722D01*
X161264890Y-91910008D01*
X161264326Y-91911744D01*
X161244540Y-92100000D01*
X157042322Y-92100000D01*
X157055460Y-91975000D01*
X157035674Y-91786744D01*
X156977179Y-91606716D01*
X156977178Y-91606715D01*
X156977178Y-91606713D01*
X156974537Y-91600781D01*
X156976953Y-91599705D01*
X156963237Y-91543240D01*
X156979711Y-91487102D01*
X156982530Y-91482219D01*
X156982533Y-91482216D01*
X157077179Y-91318284D01*
X157135674Y-91138256D01*
X157155460Y-90950000D01*
X157135674Y-90761744D01*
X157077179Y-90581716D01*
X156982533Y-90417784D01*
X156855871Y-90277112D01*
X156855867Y-90277109D01*
X156702734Y-90165851D01*
X156702729Y-90165848D01*
X156529807Y-90088857D01*
X156529802Y-90088855D01*
X156384001Y-90057865D01*
X156344646Y-90049500D01*
X156155354Y-90049500D01*
X156122897Y-90056398D01*
X155970197Y-90088855D01*
X155970192Y-90088857D01*
X155797270Y-90165848D01*
X155797265Y-90165851D01*
X155644132Y-90277109D01*
X155644129Y-90277111D01*
X155644129Y-90277112D01*
X155553483Y-90377784D01*
X155525198Y-90409198D01*
X155465711Y-90445846D01*
X155426144Y-90449056D01*
X155426144Y-90449500D01*
X155420677Y-90449500D01*
X155420098Y-90449547D01*
X155419650Y-90449500D01*
X155419646Y-90449500D01*
X155230354Y-90449500D01*
X155201566Y-90455619D01*
X155045197Y-90488855D01*
X155045192Y-90488857D01*
X154872270Y-90565848D01*
X154872265Y-90565851D01*
X154719129Y-90677111D01*
X154592466Y-90817785D01*
X154497821Y-90981715D01*
X154497818Y-90981722D01*
X154439327Y-91161740D01*
X154439326Y-91161744D01*
X154419540Y-91350000D01*
X148830461Y-91350000D01*
X148810688Y-91187155D01*
X148752518Y-91033774D01*
X148659332Y-90898771D01*
X148659329Y-90898768D01*
X148659327Y-90898766D01*
X148536548Y-90789993D01*
X148391291Y-90713756D01*
X148232022Y-90674500D01*
X148232021Y-90674500D01*
X148067979Y-90674500D01*
X148067978Y-90674500D01*
X147908706Y-90713757D01*
X147857625Y-90740567D01*
X147789117Y-90754291D01*
X147742375Y-90740567D01*
X147691293Y-90713757D01*
X147532022Y-90674500D01*
X147532021Y-90674500D01*
X147367979Y-90674500D01*
X147367978Y-90674500D01*
X147208705Y-90713757D01*
X147208704Y-90713758D01*
X147170124Y-90734006D01*
X147101616Y-90747730D01*
X147054876Y-90734006D01*
X147016295Y-90713758D01*
X147016294Y-90713757D01*
X146857022Y-90674500D01*
X146857021Y-90674500D01*
X146692979Y-90674500D01*
X146692978Y-90674500D01*
X146533706Y-90713757D01*
X146493939Y-90734628D01*
X146425431Y-90748351D01*
X146378691Y-90734627D01*
X146291293Y-90688757D01*
X146132022Y-90649500D01*
X146132021Y-90649500D01*
X145967979Y-90649500D01*
X145967978Y-90649500D01*
X145808706Y-90688757D01*
X145721308Y-90734627D01*
X145652799Y-90748351D01*
X145606059Y-90734627D01*
X145566295Y-90713758D01*
X145566294Y-90713757D01*
X145407022Y-90674500D01*
X145407021Y-90674500D01*
X145242979Y-90674500D01*
X145242978Y-90674500D01*
X145083708Y-90713756D01*
X144938451Y-90789993D01*
X144815672Y-90898766D01*
X144815666Y-90898773D01*
X144722483Y-91033771D01*
X144664312Y-91187154D01*
X144664311Y-91187157D01*
X144644539Y-91349999D01*
X144644539Y-91350000D01*
X128800500Y-91350000D01*
X128800500Y-87275000D01*
X129944539Y-87275000D01*
X129964311Y-87437842D01*
X129964312Y-87437845D01*
X130011528Y-87562344D01*
X130022483Y-87591228D01*
X130074969Y-87667266D01*
X130115668Y-87726229D01*
X130115670Y-87726231D01*
X130115672Y-87726233D01*
X130238453Y-87835007D01*
X130238455Y-87835009D01*
X130305256Y-87870069D01*
X130355468Y-87918653D01*
X130363572Y-87935894D01*
X130383013Y-87987155D01*
X130422482Y-88091226D01*
X130515668Y-88226229D01*
X130515670Y-88226231D01*
X130515672Y-88226233D01*
X130638451Y-88335006D01*
X130638452Y-88335006D01*
X130638454Y-88335008D01*
X130726121Y-88381019D01*
X130776332Y-88429603D01*
X130788889Y-88461132D01*
X130789310Y-88462842D01*
X130842950Y-88604277D01*
X130848317Y-88673940D01*
X130815170Y-88735446D01*
X130754031Y-88769268D01*
X130752792Y-88769538D01*
X130745490Y-88771090D01*
X130735931Y-88773122D01*
X130735930Y-88773122D01*
X130735927Y-88773123D01*
X130735926Y-88773123D01*
X130563004Y-88850114D01*
X130562999Y-88850117D01*
X130409863Y-88961377D01*
X130283200Y-89102051D01*
X130188555Y-89265981D01*
X130188552Y-89265988D01*
X130141786Y-89409920D01*
X130130060Y-89446010D01*
X130110274Y-89634266D01*
X130130060Y-89822522D01*
X130130061Y-89822525D01*
X130188552Y-90002543D01*
X130188555Y-90002550D01*
X130283201Y-90166482D01*
X130303952Y-90189528D01*
X130409863Y-90307154D01*
X130562999Y-90418414D01*
X130563004Y-90418417D01*
X130735926Y-90495408D01*
X130735931Y-90495410D01*
X130921088Y-90534766D01*
X130921089Y-90534766D01*
X131110378Y-90534766D01*
X131110380Y-90534766D01*
X131295537Y-90495410D01*
X131468464Y-90418417D01*
X131621605Y-90307154D01*
X131727516Y-90189528D01*
X133645040Y-90189528D01*
X133664826Y-90377784D01*
X133664827Y-90377787D01*
X133723318Y-90557805D01*
X133723321Y-90557812D01*
X133817967Y-90721744D01*
X133879418Y-90789992D01*
X133944629Y-90862416D01*
X134097765Y-90973676D01*
X134097770Y-90973679D01*
X134270692Y-91050670D01*
X134270697Y-91050672D01*
X134455854Y-91090028D01*
X134455855Y-91090028D01*
X134645144Y-91090028D01*
X134645146Y-91090028D01*
X134830303Y-91050672D01*
X135003230Y-90973679D01*
X135156371Y-90862416D01*
X135283033Y-90721744D01*
X135377679Y-90557812D01*
X135436174Y-90377784D01*
X135455960Y-90189528D01*
X135436174Y-90001272D01*
X135377679Y-89821244D01*
X135322113Y-89725000D01*
X136744539Y-89725000D01*
X136764311Y-89887842D01*
X136764312Y-89887845D01*
X136807811Y-90002543D01*
X136822483Y-90041228D01*
X136855359Y-90088857D01*
X136915668Y-90176229D01*
X136915670Y-90176231D01*
X136915672Y-90176233D01*
X137038451Y-90285006D01*
X137038452Y-90285006D01*
X137038454Y-90285008D01*
X137183705Y-90361242D01*
X137183707Y-90361242D01*
X137183708Y-90361243D01*
X137342978Y-90400500D01*
X137342979Y-90400500D01*
X137507022Y-90400500D01*
X137666291Y-90361243D01*
X137666291Y-90361242D01*
X137666295Y-90361242D01*
X137811546Y-90285008D01*
X137934332Y-90176229D01*
X138021462Y-90050000D01*
X148844539Y-90050000D01*
X148864311Y-90212842D01*
X148864312Y-90212845D01*
X148922483Y-90366228D01*
X148979962Y-90449500D01*
X149015668Y-90501229D01*
X149015670Y-90501231D01*
X149015672Y-90501233D01*
X149138451Y-90610006D01*
X149138452Y-90610006D01*
X149138454Y-90610008D01*
X149283705Y-90686242D01*
X149283707Y-90686242D01*
X149283708Y-90686243D01*
X149442978Y-90725500D01*
X149442979Y-90725500D01*
X149607022Y-90725500D01*
X149766291Y-90686243D01*
X149766291Y-90686242D01*
X149766295Y-90686242D01*
X149911546Y-90610008D01*
X150034332Y-90501229D01*
X150035450Y-90499609D01*
X150036572Y-90498699D01*
X150039305Y-90495615D01*
X150039817Y-90496069D01*
X150089732Y-90455619D01*
X150159180Y-90447959D01*
X150221745Y-90479062D01*
X150239548Y-90499607D01*
X150240668Y-90501229D01*
X150240670Y-90501231D01*
X150240672Y-90501233D01*
X150363451Y-90610006D01*
X150363452Y-90610006D01*
X150363454Y-90610008D01*
X150508705Y-90686242D01*
X150508707Y-90686242D01*
X150508708Y-90686243D01*
X150667978Y-90725500D01*
X150667979Y-90725500D01*
X150832022Y-90725500D01*
X150991291Y-90686243D01*
X150991291Y-90686242D01*
X150991295Y-90686242D01*
X151136546Y-90610008D01*
X151259332Y-90501229D01*
X151352518Y-90366226D01*
X151410688Y-90212845D01*
X151430461Y-90050000D01*
X151410688Y-89887155D01*
X151352518Y-89733774D01*
X151259332Y-89598771D01*
X151259329Y-89598768D01*
X151259327Y-89598766D01*
X151136548Y-89489993D01*
X150991291Y-89413756D01*
X150832022Y-89374500D01*
X150832021Y-89374500D01*
X150667979Y-89374500D01*
X150667978Y-89374500D01*
X150508708Y-89413756D01*
X150363451Y-89489993D01*
X150240672Y-89598766D01*
X150240666Y-89598773D01*
X150239547Y-89600395D01*
X150238422Y-89601306D01*
X150235695Y-89604385D01*
X150235182Y-89603931D01*
X150185261Y-89644383D01*
X150115813Y-89652039D01*
X150053249Y-89620932D01*
X150035453Y-89600395D01*
X150034333Y-89598773D01*
X150034332Y-89598771D01*
X150034329Y-89598768D01*
X150034327Y-89598766D01*
X149911548Y-89489993D01*
X149766291Y-89413756D01*
X149607022Y-89374500D01*
X149607021Y-89374500D01*
X149442979Y-89374500D01*
X149442978Y-89374500D01*
X149283708Y-89413756D01*
X149138451Y-89489993D01*
X149015672Y-89598766D01*
X149015666Y-89598773D01*
X148922483Y-89733771D01*
X148864312Y-89887154D01*
X148864311Y-89887157D01*
X148844539Y-90049999D01*
X148844539Y-90050000D01*
X138021462Y-90050000D01*
X138027518Y-90041226D01*
X138061526Y-89951553D01*
X138103704Y-89895851D01*
X138169302Y-89871794D01*
X138235091Y-89885727D01*
X138283705Y-89911242D01*
X138283707Y-89911242D01*
X138283708Y-89911243D01*
X138442978Y-89950500D01*
X138442979Y-89950500D01*
X138607022Y-89950500D01*
X138766291Y-89911243D01*
X138766291Y-89911242D01*
X138766295Y-89911242D01*
X138911546Y-89835008D01*
X139034332Y-89726229D01*
X139127518Y-89591226D01*
X139181391Y-89449172D01*
X139223569Y-89393471D01*
X139231401Y-89388559D01*
X139236544Y-89385009D01*
X139236543Y-89385009D01*
X139236546Y-89385008D01*
X139359332Y-89276229D01*
X139452518Y-89141226D01*
X139474469Y-89083345D01*
X139516645Y-89027644D01*
X139582242Y-89003586D01*
X139648034Y-89017520D01*
X139683705Y-89036242D01*
X139789887Y-89062414D01*
X139842978Y-89075500D01*
X139842979Y-89075500D01*
X140007022Y-89075500D01*
X140166291Y-89036243D01*
X140166291Y-89036242D01*
X140166295Y-89036242D01*
X140311546Y-88960008D01*
X140434332Y-88851229D01*
X140527518Y-88716226D01*
X140558475Y-88634598D01*
X140600653Y-88578896D01*
X140666251Y-88554839D01*
X140734441Y-88570066D01*
X140766566Y-88595597D01*
X140768628Y-88597887D01*
X140768629Y-88597888D01*
X140921765Y-88709148D01*
X140921770Y-88709151D01*
X141094692Y-88786142D01*
X141094697Y-88786144D01*
X141279854Y-88825500D01*
X141279855Y-88825500D01*
X141469144Y-88825500D01*
X141469146Y-88825500D01*
X141654303Y-88786144D01*
X141827230Y-88709151D01*
X141980371Y-88597888D01*
X142107033Y-88457216D01*
X142201679Y-88293284D01*
X142260174Y-88113256D01*
X142279960Y-87925000D01*
X142260174Y-87736744D01*
X142203282Y-87561649D01*
X142201681Y-87556722D01*
X142201680Y-87556721D01*
X142201679Y-87556716D01*
X142107033Y-87392784D01*
X141980371Y-87252112D01*
X141967894Y-87243047D01*
X141827234Y-87140851D01*
X141827229Y-87140848D01*
X141654307Y-87063857D01*
X141654302Y-87063855D01*
X141508501Y-87032865D01*
X141469146Y-87024500D01*
X141279854Y-87024500D01*
X141247397Y-87031398D01*
X141094697Y-87063855D01*
X141094692Y-87063857D01*
X140921770Y-87140848D01*
X140921765Y-87140851D01*
X140768629Y-87252111D01*
X140641966Y-87392785D01*
X140618302Y-87433773D01*
X140567396Y-87521946D01*
X140544072Y-87562344D01*
X140542869Y-87561649D01*
X140502346Y-87609314D01*
X140435495Y-87629629D01*
X140368273Y-87610575D01*
X140322024Y-87558204D01*
X140311233Y-87520581D01*
X140310688Y-87516096D01*
X140310688Y-87516094D01*
X140252518Y-87362713D01*
X140159332Y-87227710D01*
X140159329Y-87227707D01*
X140159327Y-87227705D01*
X140036548Y-87118932D01*
X139891291Y-87042695D01*
X139732022Y-87003439D01*
X139732021Y-87003439D01*
X139567979Y-87003439D01*
X139567978Y-87003439D01*
X139408708Y-87042695D01*
X139263451Y-87118932D01*
X139140668Y-87227709D01*
X139110599Y-87271271D01*
X139056316Y-87315261D01*
X139038226Y-87321226D01*
X138974510Y-87336931D01*
X138974506Y-87336932D01*
X138829257Y-87413165D01*
X138829255Y-87413167D01*
X138706474Y-87521941D01*
X138706468Y-87521948D01*
X138613285Y-87656946D01*
X138555114Y-87810329D01*
X138555113Y-87810332D01*
X138535341Y-87973174D01*
X138535341Y-87973175D01*
X138554027Y-88127074D01*
X138542566Y-88195997D01*
X138495662Y-88247783D01*
X138488559Y-88251815D01*
X138463457Y-88264989D01*
X138463449Y-88264995D01*
X138340672Y-88373766D01*
X138340666Y-88373773D01*
X138247483Y-88508771D01*
X138193608Y-88650826D01*
X138151429Y-88706528D01*
X138143606Y-88711435D01*
X138138451Y-88714993D01*
X138015672Y-88823766D01*
X138015666Y-88823773D01*
X137922483Y-88958772D01*
X137922481Y-88958775D01*
X137888472Y-89048447D01*
X137846294Y-89104149D01*
X137780696Y-89128205D01*
X137714906Y-89114271D01*
X137666293Y-89088757D01*
X137507022Y-89049500D01*
X137507021Y-89049500D01*
X137342979Y-89049500D01*
X137342978Y-89049500D01*
X137183708Y-89088756D01*
X137038451Y-89164993D01*
X136915672Y-89273766D01*
X136915666Y-89273773D01*
X136822483Y-89408771D01*
X136764312Y-89562154D01*
X136764311Y-89562157D01*
X136744539Y-89724999D01*
X136744539Y-89725000D01*
X135322113Y-89725000D01*
X135283033Y-89657312D01*
X135156371Y-89516640D01*
X135156370Y-89516639D01*
X135003234Y-89405379D01*
X135003229Y-89405376D01*
X134830307Y-89328385D01*
X134830302Y-89328383D01*
X134684501Y-89297393D01*
X134645146Y-89289028D01*
X134455854Y-89289028D01*
X134423397Y-89295926D01*
X134270697Y-89328383D01*
X134270692Y-89328385D01*
X134097770Y-89405376D01*
X134097765Y-89405379D01*
X133944629Y-89516639D01*
X133817966Y-89657313D01*
X133723321Y-89821243D01*
X133723318Y-89821250D01*
X133680980Y-89951554D01*
X133664826Y-90001272D01*
X133645040Y-90189528D01*
X131727516Y-90189528D01*
X131748267Y-90166482D01*
X131842913Y-90002550D01*
X131901408Y-89822522D01*
X131921194Y-89634266D01*
X131901408Y-89446010D01*
X131846242Y-89276229D01*
X131842915Y-89265988D01*
X131842914Y-89265987D01*
X131842913Y-89265982D01*
X131748267Y-89102050D01*
X131735388Y-89087746D01*
X131705159Y-89024754D01*
X131713785Y-88955419D01*
X131758527Y-88901754D01*
X131769903Y-88894985D01*
X131836546Y-88860008D01*
X131959332Y-88751229D01*
X131965964Y-88741619D01*
X132020243Y-88697630D01*
X132089692Y-88689967D01*
X132131485Y-88707145D01*
X132131813Y-88706522D01*
X132138452Y-88710006D01*
X132138454Y-88710008D01*
X132283705Y-88786242D01*
X132283707Y-88786242D01*
X132283708Y-88786243D01*
X132442978Y-88825500D01*
X132442979Y-88825500D01*
X132607022Y-88825500D01*
X132766291Y-88786243D01*
X132766291Y-88786242D01*
X132766295Y-88786242D01*
X132911546Y-88710008D01*
X133034332Y-88601229D01*
X133127518Y-88466226D01*
X133185688Y-88312845D01*
X133205461Y-88150000D01*
X133200999Y-88113256D01*
X133186684Y-87995359D01*
X133185688Y-87987155D01*
X133127518Y-87833774D01*
X133034332Y-87698771D01*
X133034329Y-87698768D01*
X133034327Y-87698766D01*
X132911546Y-87589992D01*
X132911544Y-87589990D01*
X132859819Y-87562843D01*
X132809607Y-87514259D01*
X132801503Y-87497018D01*
X132799307Y-87491228D01*
X132777518Y-87433774D01*
X132754996Y-87401145D01*
X132733113Y-87334790D01*
X132733950Y-87315758D01*
X132734454Y-87311611D01*
X132754227Y-87148766D01*
X132734454Y-86985921D01*
X132676284Y-86832540D01*
X132583098Y-86697537D01*
X132583095Y-86697534D01*
X132583093Y-86697532D01*
X132460314Y-86588759D01*
X132315057Y-86512522D01*
X132155788Y-86473266D01*
X132155787Y-86473266D01*
X131991745Y-86473266D01*
X131991744Y-86473266D01*
X131832474Y-86512522D01*
X131687217Y-86588759D01*
X131564438Y-86697532D01*
X131564432Y-86697539D01*
X131471249Y-86832538D01*
X131471247Y-86832541D01*
X131437700Y-86920995D01*
X131395522Y-86976697D01*
X131329924Y-87000753D01*
X131261734Y-86985525D01*
X131219711Y-86947464D01*
X131140385Y-86832540D01*
X131134333Y-86823772D01*
X131134327Y-86823766D01*
X131011548Y-86714993D01*
X130866291Y-86638756D01*
X130707022Y-86599500D01*
X130707021Y-86599500D01*
X130542979Y-86599500D01*
X130542978Y-86599500D01*
X130383708Y-86638756D01*
X130238451Y-86714993D01*
X130115672Y-86823766D01*
X130115666Y-86823773D01*
X130022483Y-86958771D01*
X129964312Y-87112154D01*
X129964311Y-87112157D01*
X129944539Y-87274999D01*
X129944539Y-87275000D01*
X128800500Y-87275000D01*
X128800500Y-85725000D01*
X147669540Y-85725000D01*
X147689326Y-85913256D01*
X147689327Y-85913259D01*
X147747818Y-86093277D01*
X147747821Y-86093284D01*
X147842467Y-86257216D01*
X147969129Y-86397888D01*
X148122265Y-86509148D01*
X148122270Y-86509151D01*
X148295192Y-86586142D01*
X148295197Y-86586144D01*
X148480354Y-86625500D01*
X148480355Y-86625500D01*
X148669644Y-86625500D01*
X148669646Y-86625500D01*
X148854803Y-86586144D01*
X149027730Y-86509151D01*
X149120757Y-86441562D01*
X149186560Y-86418084D01*
X149254614Y-86433909D01*
X149303309Y-86484015D01*
X149311732Y-86507266D01*
X149312318Y-86507076D01*
X149372818Y-86693277D01*
X149372821Y-86693284D01*
X149467467Y-86857216D01*
X149582997Y-86985525D01*
X149594129Y-86997888D01*
X149747265Y-87109148D01*
X149747270Y-87109151D01*
X149926134Y-87188788D01*
X149925351Y-87190546D01*
X149975426Y-87224778D01*
X149997373Y-87264965D01*
X150022818Y-87343277D01*
X150022821Y-87343284D01*
X150117467Y-87507216D01*
X150231421Y-87633774D01*
X150244129Y-87647888D01*
X150397265Y-87759148D01*
X150397270Y-87759151D01*
X150570192Y-87836142D01*
X150570197Y-87836144D01*
X150755354Y-87875500D01*
X150755355Y-87875500D01*
X150944644Y-87875500D01*
X150944646Y-87875500D01*
X151129803Y-87836144D01*
X151302730Y-87759151D01*
X151400334Y-87688237D01*
X151466138Y-87664758D01*
X151498998Y-87667265D01*
X151655354Y-87700500D01*
X151655355Y-87700500D01*
X151844642Y-87700500D01*
X151844646Y-87700500D01*
X151879397Y-87693113D01*
X151949059Y-87698428D01*
X152004793Y-87740564D01*
X152028900Y-87806143D01*
X152023106Y-87852720D01*
X151976762Y-87995354D01*
X151976761Y-87995356D01*
X151976761Y-87995359D01*
X151956975Y-88183615D01*
X151976761Y-88371871D01*
X151976762Y-88371874D01*
X152035253Y-88551892D01*
X152035256Y-88551899D01*
X152129902Y-88715831D01*
X152227092Y-88823771D01*
X152256564Y-88856503D01*
X152409700Y-88967763D01*
X152409705Y-88967766D01*
X152582627Y-89044757D01*
X152582632Y-89044759D01*
X152767789Y-89084115D01*
X152767790Y-89084115D01*
X152957079Y-89084115D01*
X152957081Y-89084115D01*
X153142238Y-89044759D01*
X153315165Y-88967766D01*
X153468306Y-88856503D01*
X153594968Y-88715831D01*
X153687951Y-88554778D01*
X153738515Y-88506566D01*
X153807122Y-88493342D01*
X153852957Y-88506983D01*
X153908705Y-88536242D01*
X154014887Y-88562414D01*
X154067978Y-88575500D01*
X154067979Y-88575500D01*
X154232022Y-88575500D01*
X154391291Y-88536243D01*
X154391291Y-88536242D01*
X154391295Y-88536242D01*
X154536546Y-88460008D01*
X154659332Y-88351229D01*
X154659337Y-88351221D01*
X154664305Y-88345615D01*
X154666622Y-88347668D01*
X154709865Y-88312555D01*
X154779306Y-88304828D01*
X154841901Y-88335870D01*
X154859793Y-88356499D01*
X154890668Y-88401229D01*
X154890670Y-88401231D01*
X154890672Y-88401233D01*
X155013451Y-88510006D01*
X155013452Y-88510006D01*
X155013454Y-88510008D01*
X155158705Y-88586242D01*
X155158707Y-88586242D01*
X155158708Y-88586243D01*
X155317978Y-88625500D01*
X155317979Y-88625500D01*
X155482022Y-88625500D01*
X155641291Y-88586243D01*
X155641291Y-88586242D01*
X155641295Y-88586242D01*
X155786546Y-88510008D01*
X155909332Y-88401229D01*
X156002518Y-88266226D01*
X156019702Y-88220912D01*
X156061879Y-88165212D01*
X156078011Y-88155092D01*
X156211546Y-88085008D01*
X156334332Y-87976229D01*
X156420582Y-87851273D01*
X156465007Y-87811917D01*
X156466291Y-87811242D01*
X156466295Y-87811242D01*
X156611546Y-87735008D01*
X156734332Y-87626229D01*
X156827518Y-87491226D01*
X156885688Y-87337845D01*
X156905461Y-87175000D01*
X156902275Y-87148765D01*
X156893170Y-87073773D01*
X156885688Y-87012155D01*
X156827518Y-86858774D01*
X156734332Y-86723771D01*
X156734329Y-86723768D01*
X156734327Y-86723766D01*
X156611548Y-86614993D01*
X156466291Y-86538756D01*
X156307022Y-86499500D01*
X156307021Y-86499500D01*
X156142979Y-86499500D01*
X156142978Y-86499500D01*
X155983708Y-86538756D01*
X155838451Y-86614993D01*
X155715672Y-86723766D01*
X155715669Y-86723769D01*
X155629418Y-86848725D01*
X155584994Y-86888080D01*
X155438455Y-86964990D01*
X155438453Y-86964992D01*
X155315672Y-87073766D01*
X155315666Y-87073773D01*
X155222481Y-87208774D01*
X155205295Y-87254088D01*
X155163115Y-87309790D01*
X155146981Y-87319910D01*
X155013452Y-87389992D01*
X154890672Y-87498766D01*
X154885695Y-87504385D01*
X154883396Y-87502348D01*
X154839989Y-87537504D01*
X154770538Y-87545143D01*
X154707983Y-87514022D01*
X154690206Y-87493500D01*
X154688638Y-87491228D01*
X154659332Y-87448771D01*
X154659329Y-87448768D01*
X154659327Y-87448766D01*
X154536548Y-87339993D01*
X154442251Y-87290502D01*
X154391295Y-87263758D01*
X154391294Y-87263757D01*
X154391291Y-87263756D01*
X154232022Y-87224500D01*
X154232021Y-87224500D01*
X154067979Y-87224500D01*
X154067978Y-87224500D01*
X153908708Y-87263756D01*
X153763451Y-87339993D01*
X153640672Y-87448766D01*
X153640667Y-87448771D01*
X153626780Y-87468891D01*
X153572496Y-87512880D01*
X153503048Y-87520538D01*
X153451846Y-87498767D01*
X153315169Y-87399466D01*
X153315164Y-87399463D01*
X153142242Y-87322472D01*
X153142237Y-87322470D01*
X152991834Y-87290502D01*
X152957081Y-87283115D01*
X152767789Y-87283115D01*
X152733036Y-87290501D01*
X152663372Y-87285185D01*
X152607639Y-87243047D01*
X152583534Y-87177467D01*
X152589328Y-87130893D01*
X152635674Y-86988256D01*
X152655460Y-86800000D01*
X152635674Y-86611744D01*
X152577179Y-86431716D01*
X152482533Y-86267784D01*
X152355871Y-86127112D01*
X152337626Y-86113856D01*
X152202734Y-86015851D01*
X152202729Y-86015848D01*
X152029807Y-85938857D01*
X152029802Y-85938855D01*
X151884001Y-85907865D01*
X151844646Y-85899500D01*
X151655354Y-85899500D01*
X151622897Y-85906398D01*
X151470197Y-85938855D01*
X151470192Y-85938857D01*
X151297270Y-86015848D01*
X151297266Y-86015850D01*
X151232380Y-86062993D01*
X151166574Y-86086472D01*
X151098520Y-86070646D01*
X151049826Y-86020540D01*
X151041565Y-86000992D01*
X151027179Y-85956717D01*
X151027179Y-85956716D01*
X150932533Y-85792784D01*
X150805871Y-85652112D01*
X150805870Y-85652111D01*
X150652734Y-85540851D01*
X150652729Y-85540848D01*
X150479807Y-85463857D01*
X150479802Y-85463855D01*
X150334001Y-85432865D01*
X150294646Y-85424500D01*
X150105354Y-85424500D01*
X150072897Y-85431398D01*
X149920197Y-85463855D01*
X149920192Y-85463857D01*
X149747270Y-85540848D01*
X149747265Y-85540851D01*
X149654244Y-85608435D01*
X149588437Y-85631915D01*
X149520384Y-85616089D01*
X149471689Y-85565983D01*
X149463269Y-85542733D01*
X149462682Y-85542924D01*
X149402181Y-85356722D01*
X149402180Y-85356721D01*
X149402179Y-85356716D01*
X149307533Y-85192784D01*
X149180871Y-85052112D01*
X149180870Y-85052111D01*
X149027734Y-84940851D01*
X149027729Y-84940848D01*
X148854807Y-84863857D01*
X148854802Y-84863855D01*
X148709001Y-84832865D01*
X148669646Y-84824500D01*
X148480354Y-84824500D01*
X148447897Y-84831398D01*
X148295197Y-84863855D01*
X148295192Y-84863857D01*
X148122270Y-84940848D01*
X148122265Y-84940851D01*
X147969129Y-85052111D01*
X147842466Y-85192785D01*
X147747821Y-85356715D01*
X147747818Y-85356722D01*
X147689327Y-85536740D01*
X147689326Y-85536744D01*
X147669540Y-85725000D01*
X128800500Y-85725000D01*
X128800500Y-84175000D01*
X129544539Y-84175000D01*
X129564311Y-84337842D01*
X129564312Y-84337845D01*
X129622482Y-84491226D01*
X129715668Y-84626229D01*
X129715670Y-84626231D01*
X129715672Y-84626233D01*
X129838451Y-84735006D01*
X129838452Y-84735006D01*
X129838454Y-84735008D01*
X129983705Y-84811242D01*
X129983707Y-84811242D01*
X129983708Y-84811243D01*
X130142978Y-84850500D01*
X130142979Y-84850500D01*
X130307022Y-84850500D01*
X130466291Y-84811243D01*
X130466291Y-84811242D01*
X130466295Y-84811242D01*
X130611546Y-84735008D01*
X130734332Y-84626229D01*
X130827518Y-84491226D01*
X130885688Y-84337845D01*
X130886590Y-84330415D01*
X130914207Y-84266238D01*
X130972139Y-84227178D01*
X131039360Y-84224960D01*
X131142979Y-84250500D01*
X131142980Y-84250500D01*
X131307022Y-84250500D01*
X131466291Y-84211243D01*
X131466291Y-84211242D01*
X131466295Y-84211242D01*
X131611546Y-84135008D01*
X131734332Y-84026229D01*
X131827518Y-83891226D01*
X131862850Y-83798061D01*
X131899242Y-83750000D01*
X140269539Y-83750000D01*
X140289311Y-83912842D01*
X140289311Y-83912843D01*
X140289312Y-83912845D01*
X140347482Y-84066226D01*
X140347483Y-84066228D01*
X140422563Y-84174999D01*
X140440668Y-84201229D01*
X140440670Y-84201231D01*
X140440672Y-84201233D01*
X140563451Y-84310006D01*
X140563452Y-84310006D01*
X140563454Y-84310008D01*
X140708705Y-84386242D01*
X140708707Y-84386242D01*
X140708708Y-84386243D01*
X140867978Y-84425500D01*
X140867979Y-84425500D01*
X141032022Y-84425500D01*
X141191291Y-84386243D01*
X141191291Y-84386242D01*
X141191295Y-84386242D01*
X141336546Y-84310008D01*
X141432500Y-84225000D01*
X149669540Y-84225000D01*
X149689326Y-84413256D01*
X149689327Y-84413259D01*
X149747818Y-84593277D01*
X149747821Y-84593284D01*
X149842467Y-84757216D01*
X149938487Y-84863857D01*
X149969129Y-84897888D01*
X150122265Y-85009148D01*
X150122270Y-85009151D01*
X150295192Y-85086142D01*
X150295197Y-85086144D01*
X150480354Y-85125500D01*
X150480355Y-85125500D01*
X150669644Y-85125500D01*
X150669646Y-85125500D01*
X150854803Y-85086144D01*
X151027730Y-85009151D01*
X151180871Y-84897888D01*
X151307533Y-84757216D01*
X151402179Y-84593284D01*
X151460674Y-84413256D01*
X151480460Y-84225000D01*
X151460674Y-84036744D01*
X151402179Y-83856716D01*
X151307533Y-83692784D01*
X151261112Y-83641228D01*
X151235443Y-83612719D01*
X151205213Y-83549727D01*
X151213839Y-83480392D01*
X151258580Y-83426726D01*
X151269953Y-83419958D01*
X151336546Y-83385008D01*
X151459332Y-83276229D01*
X151552518Y-83141226D01*
X151561627Y-83117204D01*
X151603802Y-83061502D01*
X151647894Y-83040777D01*
X151666295Y-83036242D01*
X151811546Y-82960008D01*
X151934332Y-82851229D01*
X152027518Y-82716226D01*
X152076608Y-82586784D01*
X152118785Y-82531084D01*
X152134921Y-82520963D01*
X152192357Y-82490819D01*
X152315143Y-82382040D01*
X152408329Y-82247037D01*
X152426168Y-82200000D01*
X161019540Y-82200000D01*
X161039326Y-82388256D01*
X161039327Y-82388259D01*
X161097818Y-82568277D01*
X161097821Y-82568284D01*
X161192463Y-82732211D01*
X161194632Y-82735195D01*
X161195352Y-82737214D01*
X161195716Y-82737844D01*
X161195600Y-82737910D01*
X161218114Y-82801000D01*
X161202292Y-82869055D01*
X161201705Y-82870084D01*
X161122820Y-83006718D01*
X161122818Y-83006722D01*
X161064327Y-83186740D01*
X161064326Y-83186744D01*
X161044540Y-83375000D01*
X161064326Y-83563256D01*
X161064327Y-83563259D01*
X161122818Y-83743277D01*
X161122821Y-83743284D01*
X161217467Y-83907216D01*
X161324627Y-84026229D01*
X161344129Y-84047888D01*
X161497265Y-84159148D01*
X161497270Y-84159151D01*
X161670192Y-84236142D01*
X161670197Y-84236144D01*
X161855354Y-84275500D01*
X161855355Y-84275500D01*
X162044644Y-84275500D01*
X162044646Y-84275500D01*
X162229803Y-84236144D01*
X162402730Y-84159151D01*
X162555871Y-84047888D01*
X162682533Y-83907216D01*
X162777179Y-83743284D01*
X162835674Y-83563256D01*
X162855460Y-83375000D01*
X162835674Y-83186744D01*
X162777179Y-83006716D01*
X162682533Y-82842784D01*
X162682530Y-82842781D01*
X162680369Y-82839806D01*
X162679648Y-82837787D01*
X162679284Y-82837156D01*
X162679399Y-82837089D01*
X162656885Y-82774001D01*
X162672705Y-82705946D01*
X162673215Y-82705053D01*
X162752179Y-82568284D01*
X162810674Y-82388256D01*
X162830460Y-82200000D01*
X162810674Y-82011744D01*
X162752179Y-81831716D01*
X162657533Y-81667784D01*
X162530871Y-81527112D01*
X162530870Y-81527111D01*
X162377734Y-81415851D01*
X162377729Y-81415848D01*
X162204807Y-81338857D01*
X162204802Y-81338855D01*
X162059001Y-81307865D01*
X162019646Y-81299500D01*
X161830354Y-81299500D01*
X161797897Y-81306398D01*
X161645197Y-81338855D01*
X161645192Y-81338857D01*
X161472270Y-81415848D01*
X161472265Y-81415851D01*
X161319129Y-81527111D01*
X161192466Y-81667785D01*
X161097821Y-81831715D01*
X161097818Y-81831722D01*
X161043304Y-81999500D01*
X161039326Y-82011744D01*
X161019540Y-82200000D01*
X152426168Y-82200000D01*
X152466499Y-82093656D01*
X152486272Y-81930811D01*
X152466499Y-81767966D01*
X152408329Y-81614585D01*
X152315143Y-81479582D01*
X152315140Y-81479579D01*
X152315138Y-81479577D01*
X152192359Y-81370804D01*
X152131485Y-81338855D01*
X152047106Y-81294569D01*
X152047105Y-81294568D01*
X152047102Y-81294567D01*
X151887833Y-81255311D01*
X151887832Y-81255311D01*
X151723790Y-81255311D01*
X151723789Y-81255311D01*
X151564519Y-81294567D01*
X151419262Y-81370804D01*
X151296483Y-81479577D01*
X151296477Y-81479584D01*
X151203294Y-81614582D01*
X151154203Y-81744023D01*
X151112024Y-81799725D01*
X151095889Y-81809846D01*
X151038457Y-81839989D01*
X151038449Y-81839995D01*
X150915672Y-81948766D01*
X150915666Y-81948773D01*
X150822481Y-82083775D01*
X150813370Y-82107798D01*
X150771191Y-82163500D01*
X150727108Y-82184221D01*
X150708704Y-82188757D01*
X150563455Y-82264990D01*
X150563453Y-82264992D01*
X150440672Y-82373766D01*
X150440669Y-82373769D01*
X150347481Y-82508774D01*
X150342132Y-82522878D01*
X150299951Y-82578579D01*
X150283819Y-82588697D01*
X150138452Y-82664992D01*
X150015672Y-82773766D01*
X150015666Y-82773773D01*
X149922483Y-82908771D01*
X149864312Y-83062154D01*
X149864311Y-83062157D01*
X149844539Y-83224999D01*
X149844539Y-83225000D01*
X149864311Y-83387842D01*
X149864312Y-83387848D01*
X149912387Y-83514608D01*
X149917754Y-83584271D01*
X149888596Y-83641550D01*
X149842470Y-83692778D01*
X149842465Y-83692785D01*
X149747821Y-83856715D01*
X149747818Y-83856722D01*
X149692741Y-84026233D01*
X149689326Y-84036744D01*
X149669540Y-84225000D01*
X141432500Y-84225000D01*
X141459332Y-84201229D01*
X141552518Y-84066226D01*
X141575915Y-84004530D01*
X141618090Y-83948830D01*
X141634223Y-83938710D01*
X141736546Y-83885008D01*
X141859332Y-83776229D01*
X141952518Y-83641226D01*
X142010688Y-83487845D01*
X142030461Y-83325000D01*
X142027276Y-83298773D01*
X142014067Y-83189987D01*
X142010688Y-83162155D01*
X141952518Y-83008774D01*
X141951097Y-83006716D01*
X141911949Y-82950000D01*
X145494539Y-82950000D01*
X145514311Y-83112842D01*
X145514312Y-83112845D01*
X145572483Y-83266228D01*
X145596065Y-83300392D01*
X145665668Y-83401229D01*
X145665670Y-83401231D01*
X145665672Y-83401233D01*
X145788451Y-83510006D01*
X145788452Y-83510006D01*
X145788454Y-83510008D01*
X145933705Y-83586242D01*
X145933707Y-83586242D01*
X145933708Y-83586243D01*
X146092978Y-83625500D01*
X146092979Y-83625500D01*
X146257022Y-83625500D01*
X146416291Y-83586243D01*
X146416291Y-83586242D01*
X146416295Y-83586242D01*
X146561546Y-83510008D01*
X146684332Y-83401229D01*
X146777518Y-83266226D01*
X146835688Y-83112845D01*
X146855461Y-82950000D01*
X146835688Y-82787155D01*
X146796037Y-82682606D01*
X146790671Y-82612947D01*
X146823818Y-82551441D01*
X146884956Y-82517619D01*
X146954674Y-82522220D01*
X146969597Y-82528837D01*
X146983705Y-82536242D01*
X147089887Y-82562414D01*
X147142978Y-82575500D01*
X147142979Y-82575500D01*
X147307022Y-82575500D01*
X147466291Y-82536243D01*
X147466291Y-82536242D01*
X147466295Y-82536242D01*
X147611546Y-82460008D01*
X147734332Y-82351229D01*
X147827518Y-82216226D01*
X147885688Y-82062845D01*
X147905461Y-81900000D01*
X147885688Y-81737155D01*
X147827518Y-81583774D01*
X147734332Y-81448771D01*
X147734329Y-81448768D01*
X147734327Y-81448766D01*
X147611548Y-81339993D01*
X147466291Y-81263756D01*
X147307022Y-81224500D01*
X147307021Y-81224500D01*
X147142979Y-81224500D01*
X147142978Y-81224500D01*
X146983708Y-81263756D01*
X146838451Y-81339993D01*
X146715672Y-81448766D01*
X146715666Y-81448773D01*
X146622483Y-81583771D01*
X146564312Y-81737154D01*
X146564311Y-81737157D01*
X146544539Y-81899999D01*
X146544539Y-81900000D01*
X146564311Y-82062842D01*
X146564312Y-82062845D01*
X146603961Y-82167390D01*
X146609328Y-82237053D01*
X146576181Y-82298559D01*
X146515043Y-82332380D01*
X146445325Y-82327779D01*
X146430394Y-82321158D01*
X146416293Y-82313757D01*
X146257022Y-82274500D01*
X146257021Y-82274500D01*
X146092979Y-82274500D01*
X146092978Y-82274500D01*
X145933708Y-82313756D01*
X145788451Y-82389993D01*
X145665672Y-82498766D01*
X145665666Y-82498773D01*
X145572483Y-82633771D01*
X145514312Y-82787154D01*
X145514311Y-82787157D01*
X145494539Y-82949999D01*
X145494539Y-82950000D01*
X141911949Y-82950000D01*
X141886234Y-82912745D01*
X141859332Y-82873771D01*
X141859329Y-82873768D01*
X141859327Y-82873766D01*
X141736548Y-82764993D01*
X141674087Y-82732211D01*
X141591295Y-82688758D01*
X141591294Y-82688757D01*
X141591291Y-82688756D01*
X141432022Y-82649500D01*
X141432021Y-82649500D01*
X141267979Y-82649500D01*
X141267978Y-82649500D01*
X141108708Y-82688756D01*
X140963451Y-82764993D01*
X140840672Y-82873766D01*
X140840666Y-82873773D01*
X140747481Y-83008774D01*
X140724082Y-83070470D01*
X140681903Y-83126172D01*
X140665767Y-83136292D01*
X140563460Y-83189987D01*
X140563451Y-83189993D01*
X140440672Y-83298766D01*
X140440666Y-83298773D01*
X140347483Y-83433771D01*
X140289312Y-83587154D01*
X140289311Y-83587157D01*
X140269539Y-83749999D01*
X140269539Y-83750000D01*
X131899242Y-83750000D01*
X131905026Y-83742361D01*
X131949113Y-83721638D01*
X131991295Y-83711242D01*
X132136546Y-83635008D01*
X132259332Y-83526229D01*
X132352518Y-83391226D01*
X132370289Y-83344365D01*
X132412466Y-83288662D01*
X132428603Y-83278539D01*
X132511546Y-83235008D01*
X132634332Y-83126229D01*
X132727518Y-82991226D01*
X132785688Y-82837845D01*
X132805461Y-82675000D01*
X132785688Y-82512155D01*
X132727518Y-82358774D01*
X132634332Y-82223771D01*
X132634329Y-82223768D01*
X132634327Y-82223766D01*
X132511548Y-82114993D01*
X132366291Y-82038756D01*
X132207022Y-81999500D01*
X132207021Y-81999500D01*
X132042979Y-81999500D01*
X132042978Y-81999500D01*
X131883708Y-82038756D01*
X131738451Y-82114993D01*
X131615672Y-82223766D01*
X131615666Y-82223773D01*
X131522481Y-82358774D01*
X131504707Y-82405639D01*
X131462528Y-82461341D01*
X131446392Y-82471461D01*
X131363460Y-82514987D01*
X131363451Y-82514993D01*
X131240672Y-82623766D01*
X131240666Y-82623773D01*
X131147483Y-82758771D01*
X131112150Y-82851936D01*
X131069971Y-82907638D01*
X131025885Y-82928360D01*
X130983708Y-82938756D01*
X130983704Y-82938757D01*
X130838455Y-83014990D01*
X130838453Y-83014992D01*
X130715672Y-83123766D01*
X130715666Y-83123773D01*
X130622483Y-83258771D01*
X130564312Y-83412154D01*
X130564311Y-83412155D01*
X130563409Y-83419591D01*
X130535786Y-83483768D01*
X130477851Y-83522824D01*
X130410638Y-83525039D01*
X130307022Y-83499500D01*
X130307021Y-83499500D01*
X130142979Y-83499500D01*
X130142978Y-83499500D01*
X129983708Y-83538756D01*
X129838451Y-83614993D01*
X129715672Y-83723766D01*
X129715666Y-83723773D01*
X129622483Y-83858771D01*
X129564312Y-84012154D01*
X129564311Y-84012157D01*
X129544539Y-84174999D01*
X129544539Y-84175000D01*
X128800500Y-84175000D01*
X128800500Y-80425000D01*
X136919539Y-80425000D01*
X136939311Y-80587842D01*
X136939312Y-80587845D01*
X136997482Y-80741226D01*
X137090668Y-80876229D01*
X137090670Y-80876231D01*
X137090672Y-80876233D01*
X137213451Y-80985006D01*
X137213452Y-80985006D01*
X137213454Y-80985008D01*
X137358705Y-81061242D01*
X137359978Y-81061555D01*
X137360812Y-81062041D01*
X137365723Y-81063904D01*
X137365413Y-81064719D01*
X137420360Y-81096708D01*
X137446252Y-81137983D01*
X137447481Y-81141225D01*
X137487204Y-81198773D01*
X137540668Y-81276229D01*
X137540670Y-81276231D01*
X137540672Y-81276233D01*
X137663451Y-81385006D01*
X137663452Y-81385006D01*
X137663454Y-81385008D01*
X137808705Y-81461242D01*
X137808711Y-81461243D01*
X137808712Y-81461244D01*
X137815723Y-81463904D01*
X137815168Y-81465366D01*
X137868011Y-81496129D01*
X137899803Y-81558347D01*
X137901056Y-81596320D01*
X137894539Y-81649998D01*
X137894539Y-81650000D01*
X137914311Y-81812842D01*
X137914312Y-81812845D01*
X137959050Y-81930810D01*
X137972483Y-81966228D01*
X137995449Y-81999500D01*
X138065668Y-82101229D01*
X138065670Y-82101231D01*
X138065672Y-82101233D01*
X138188451Y-82210006D01*
X138188452Y-82210006D01*
X138188454Y-82210008D01*
X138333705Y-82286242D01*
X138333707Y-82286242D01*
X138333708Y-82286243D01*
X138492978Y-82325500D01*
X138492979Y-82325500D01*
X138657022Y-82325500D01*
X138816291Y-82286243D01*
X138816291Y-82286242D01*
X138816295Y-82286242D01*
X138961546Y-82210008D01*
X139084332Y-82101229D01*
X139177518Y-81966226D01*
X139235688Y-81812845D01*
X139255461Y-81650000D01*
X139251160Y-81614582D01*
X139240540Y-81527112D01*
X139235688Y-81487155D01*
X139183672Y-81350000D01*
X141744539Y-81350000D01*
X141764311Y-81512842D01*
X141764312Y-81512845D01*
X141822482Y-81666226D01*
X141915668Y-81801229D01*
X141915670Y-81801231D01*
X141915672Y-81801233D01*
X142038451Y-81910006D01*
X142038452Y-81910006D01*
X142038454Y-81910008D01*
X142183705Y-81986242D01*
X142183707Y-81986242D01*
X142183708Y-81986243D01*
X142342978Y-82025500D01*
X142342979Y-82025500D01*
X142507022Y-82025500D01*
X142666291Y-81986243D01*
X142666291Y-81986242D01*
X142666295Y-81986242D01*
X142811546Y-81910008D01*
X142934332Y-81801229D01*
X143027518Y-81666226D01*
X143085688Y-81512845D01*
X143105461Y-81350000D01*
X143103490Y-81333771D01*
X143093964Y-81255311D01*
X143085688Y-81187155D01*
X143027518Y-81033774D01*
X142934332Y-80898771D01*
X142934329Y-80898768D01*
X142934327Y-80898766D01*
X142811548Y-80789993D01*
X142666291Y-80713756D01*
X142507022Y-80674500D01*
X142507021Y-80674500D01*
X142342979Y-80674500D01*
X142342978Y-80674500D01*
X142183708Y-80713756D01*
X142038451Y-80789993D01*
X141915672Y-80898766D01*
X141915666Y-80898773D01*
X141822483Y-81033771D01*
X141764312Y-81187154D01*
X141764311Y-81187157D01*
X141744539Y-81349999D01*
X141744539Y-81350000D01*
X139183672Y-81350000D01*
X139177518Y-81333774D01*
X139084332Y-81198771D01*
X139084329Y-81198768D01*
X139084327Y-81198766D01*
X138961548Y-81089993D01*
X138937043Y-81077132D01*
X138816295Y-81013758D01*
X138816290Y-81013756D01*
X138816287Y-81013755D01*
X138809277Y-81011096D01*
X138809830Y-81009636D01*
X138756978Y-80978859D01*
X138725193Y-80916638D01*
X138723943Y-80878677D01*
X138724241Y-80876226D01*
X138730461Y-80825000D01*
X138710688Y-80662155D01*
X138652518Y-80508774D01*
X138559332Y-80373771D01*
X138559329Y-80373768D01*
X138559327Y-80373766D01*
X138436546Y-80264992D01*
X138436544Y-80264990D01*
X138291295Y-80188757D01*
X138291289Y-80188755D01*
X138290002Y-80188438D01*
X138289160Y-80187947D01*
X138284278Y-80186096D01*
X138284586Y-80185283D01*
X138229625Y-80153276D01*
X138203748Y-80112017D01*
X138202518Y-80108775D01*
X138202518Y-80108774D01*
X138109332Y-79973771D01*
X138109329Y-79973768D01*
X138109327Y-79973766D01*
X137986548Y-79864993D01*
X137841291Y-79788756D01*
X137682022Y-79749500D01*
X137682021Y-79749500D01*
X137517979Y-79749500D01*
X137517978Y-79749500D01*
X137358708Y-79788756D01*
X137213451Y-79864993D01*
X137090672Y-79973766D01*
X137090666Y-79973773D01*
X136997483Y-80108771D01*
X136939312Y-80262154D01*
X136939311Y-80262157D01*
X136919539Y-80424999D01*
X136919539Y-80425000D01*
X128800500Y-80425000D01*
X128800500Y-79350000D01*
X138994539Y-79350000D01*
X139014311Y-79512842D01*
X139014312Y-79512845D01*
X139033273Y-79562842D01*
X139072483Y-79666228D01*
X139151055Y-79780059D01*
X139165668Y-79801229D01*
X139165670Y-79801231D01*
X139165672Y-79801233D01*
X139288451Y-79910006D01*
X139288452Y-79910006D01*
X139288454Y-79910008D01*
X139433705Y-79986242D01*
X139433707Y-79986242D01*
X139433708Y-79986243D01*
X139592978Y-80025500D01*
X139592979Y-80025500D01*
X139757022Y-80025500D01*
X139916291Y-79986243D01*
X139916291Y-79986242D01*
X139916295Y-79986242D01*
X140061546Y-79910008D01*
X140184332Y-79801229D01*
X140277518Y-79666226D01*
X140335688Y-79512845D01*
X140349390Y-79400000D01*
X143694539Y-79400000D01*
X143714311Y-79562842D01*
X143714312Y-79562845D01*
X143753519Y-79666226D01*
X143772483Y-79716228D01*
X143806996Y-79766228D01*
X143865668Y-79851229D01*
X143865670Y-79851231D01*
X143865672Y-79851233D01*
X143988451Y-79960006D01*
X143988452Y-79960006D01*
X143988454Y-79960008D01*
X144133705Y-80036242D01*
X144133707Y-80036242D01*
X144133708Y-80036243D01*
X144292978Y-80075500D01*
X144292979Y-80075500D01*
X144457022Y-80075500D01*
X144616291Y-80036243D01*
X144616291Y-80036242D01*
X144616295Y-80036242D01*
X144761546Y-79960008D01*
X144884332Y-79851229D01*
X144977518Y-79716226D01*
X145035688Y-79562845D01*
X145049390Y-79450000D01*
X148994539Y-79450000D01*
X149014311Y-79612842D01*
X149014312Y-79612845D01*
X149053519Y-79716226D01*
X149072483Y-79766228D01*
X149131153Y-79851226D01*
X149165668Y-79901229D01*
X149165670Y-79901231D01*
X149165672Y-79901233D01*
X149288451Y-80010006D01*
X149288452Y-80010006D01*
X149288454Y-80010008D01*
X149433705Y-80086242D01*
X149433707Y-80086242D01*
X149433708Y-80086243D01*
X149592978Y-80125500D01*
X149592979Y-80125500D01*
X149757022Y-80125500D01*
X149916291Y-80086243D01*
X149916291Y-80086242D01*
X149916295Y-80086242D01*
X150061546Y-80010008D01*
X150184332Y-79901229D01*
X150277518Y-79766226D01*
X150335688Y-79612845D01*
X150355461Y-79450000D01*
X150354569Y-79442656D01*
X150366026Y-79373735D01*
X150412927Y-79321947D01*
X150480381Y-79303736D01*
X150515977Y-79309773D01*
X150520191Y-79311141D01*
X150520197Y-79311144D01*
X150705354Y-79350500D01*
X150705355Y-79350500D01*
X150894644Y-79350500D01*
X150894646Y-79350500D01*
X151079803Y-79311144D01*
X151252730Y-79234151D01*
X151405871Y-79122888D01*
X151532533Y-78982216D01*
X151627179Y-78818284D01*
X151685674Y-78638256D01*
X151705460Y-78450000D01*
X151685674Y-78261744D01*
X151627179Y-78081716D01*
X151532533Y-77917784D01*
X151405871Y-77777112D01*
X151402963Y-77774999D01*
X151252734Y-77665851D01*
X151252729Y-77665848D01*
X151079807Y-77588857D01*
X151079802Y-77588855D01*
X150934001Y-77557865D01*
X150894646Y-77549500D01*
X150705354Y-77549500D01*
X150672897Y-77556398D01*
X150520197Y-77588855D01*
X150520192Y-77588857D01*
X150347270Y-77665848D01*
X150347265Y-77665851D01*
X150194129Y-77777111D01*
X150067466Y-77917785D01*
X149972821Y-78081715D01*
X149972818Y-78081722D01*
X149925864Y-78226233D01*
X149914326Y-78261744D01*
X149897168Y-78425000D01*
X149894540Y-78450000D01*
X149914752Y-78642309D01*
X149902182Y-78711039D01*
X149854450Y-78762062D01*
X149786710Y-78779180D01*
X149761756Y-78775667D01*
X149757021Y-78774500D01*
X149592979Y-78774500D01*
X149592978Y-78774500D01*
X149433708Y-78813756D01*
X149288451Y-78889993D01*
X149165672Y-78998766D01*
X149165666Y-78998773D01*
X149072483Y-79133771D01*
X149014312Y-79287154D01*
X149014311Y-79287157D01*
X148994539Y-79449999D01*
X148994539Y-79450000D01*
X145049390Y-79450000D01*
X145053603Y-79415301D01*
X145081223Y-79351126D01*
X145139157Y-79312069D01*
X145209010Y-79310534D01*
X145227131Y-79316969D01*
X145270197Y-79336144D01*
X145455354Y-79375500D01*
X145455355Y-79375500D01*
X145644644Y-79375500D01*
X145644646Y-79375500D01*
X145829803Y-79336144D01*
X146002730Y-79259151D01*
X146155871Y-79147888D01*
X146282533Y-79007216D01*
X146377179Y-78843284D01*
X146435674Y-78663256D01*
X146455460Y-78475000D01*
X146435674Y-78286744D01*
X146377179Y-78106716D01*
X146282533Y-77942784D01*
X146155871Y-77802112D01*
X146155870Y-77802111D01*
X146002734Y-77690851D01*
X146002729Y-77690848D01*
X145829807Y-77613857D01*
X145829802Y-77613855D01*
X145684001Y-77582865D01*
X145644646Y-77574500D01*
X145455354Y-77574500D01*
X145422897Y-77581398D01*
X145270197Y-77613855D01*
X145270192Y-77613857D01*
X145097270Y-77690848D01*
X145097265Y-77690851D01*
X144944129Y-77802111D01*
X144817466Y-77942785D01*
X144722821Y-78106715D01*
X144722818Y-78106722D01*
X144683987Y-78226233D01*
X144664326Y-78286744D01*
X144644540Y-78475000D01*
X144657989Y-78602967D01*
X144645420Y-78671695D01*
X144597688Y-78722719D01*
X144529948Y-78739837D01*
X144504994Y-78736324D01*
X144457022Y-78724500D01*
X144457021Y-78724500D01*
X144292979Y-78724500D01*
X144292978Y-78724500D01*
X144133708Y-78763756D01*
X143988451Y-78839993D01*
X143865672Y-78948766D01*
X143865666Y-78948773D01*
X143772483Y-79083771D01*
X143714312Y-79237154D01*
X143714311Y-79237157D01*
X143694539Y-79399999D01*
X143694539Y-79400000D01*
X140349390Y-79400000D01*
X140353603Y-79365301D01*
X140381223Y-79301126D01*
X140439157Y-79262069D01*
X140509010Y-79260534D01*
X140527131Y-79266969D01*
X140570197Y-79286144D01*
X140755354Y-79325500D01*
X140755355Y-79325500D01*
X140944644Y-79325500D01*
X140944646Y-79325500D01*
X141129803Y-79286144D01*
X141302730Y-79209151D01*
X141455871Y-79097888D01*
X141582533Y-78957216D01*
X141677179Y-78793284D01*
X141735674Y-78613256D01*
X141755460Y-78425000D01*
X141735674Y-78236744D01*
X141677179Y-78056716D01*
X141582533Y-77892784D01*
X141455871Y-77752112D01*
X141455870Y-77752111D01*
X141302734Y-77640851D01*
X141302729Y-77640848D01*
X141129807Y-77563857D01*
X141129802Y-77563855D01*
X140984001Y-77532865D01*
X140944646Y-77524500D01*
X140755354Y-77524500D01*
X140722897Y-77531398D01*
X140570197Y-77563855D01*
X140570192Y-77563857D01*
X140397270Y-77640848D01*
X140397265Y-77640851D01*
X140244129Y-77752111D01*
X140117466Y-77892785D01*
X140022821Y-78056715D01*
X140022818Y-78056722D01*
X139967741Y-78226233D01*
X139964326Y-78236744D01*
X139944540Y-78425000D01*
X139957989Y-78552967D01*
X139945420Y-78621695D01*
X139897688Y-78672719D01*
X139829948Y-78689837D01*
X139804994Y-78686324D01*
X139757022Y-78674500D01*
X139757021Y-78674500D01*
X139592979Y-78674500D01*
X139592978Y-78674500D01*
X139433708Y-78713756D01*
X139288451Y-78789993D01*
X139165672Y-78898766D01*
X139165666Y-78898773D01*
X139072483Y-79033771D01*
X139014312Y-79187154D01*
X139014311Y-79187157D01*
X138994539Y-79349999D01*
X138994539Y-79350000D01*
X128800500Y-79350000D01*
X128800500Y-73975000D01*
X129895006Y-73975000D01*
X129914966Y-74343142D01*
X129914967Y-74343159D01*
X129974610Y-74706960D01*
X129974616Y-74706986D01*
X130073243Y-75062209D01*
X130073245Y-75062216D01*
X130209706Y-75404710D01*
X130209715Y-75404728D01*
X130382406Y-75730458D01*
X130589307Y-76035614D01*
X130725496Y-76195948D01*
X130725497Y-76195949D01*
X132041351Y-74880095D01*
X132095456Y-74958480D01*
X132268816Y-75138966D01*
X132394865Y-75233686D01*
X131076520Y-76552031D01*
X131076520Y-76552032D01*
X131095643Y-76570147D01*
X131095655Y-76570158D01*
X131389158Y-76793274D01*
X131389175Y-76793286D01*
X131705067Y-76983350D01*
X131705080Y-76983357D01*
X132039671Y-77138155D01*
X132389068Y-77255882D01*
X132558403Y-77293155D01*
X132619644Y-77326791D01*
X132652978Y-77388196D01*
X132647822Y-77457875D01*
X132647689Y-77458227D01*
X132589312Y-77612151D01*
X132589311Y-77612157D01*
X132569539Y-77774999D01*
X132569539Y-77775000D01*
X132589311Y-77937842D01*
X132589312Y-77937845D01*
X132647482Y-78091226D01*
X132740668Y-78226229D01*
X132740670Y-78226231D01*
X132740672Y-78226233D01*
X132863451Y-78335006D01*
X132863452Y-78335006D01*
X132863454Y-78335008D01*
X133008705Y-78411242D01*
X133008707Y-78411242D01*
X133008708Y-78411243D01*
X133167978Y-78450500D01*
X133167979Y-78450500D01*
X133332022Y-78450500D01*
X133491291Y-78411243D01*
X133491291Y-78411242D01*
X133491295Y-78411242D01*
X133636546Y-78335008D01*
X133759332Y-78226229D01*
X133852518Y-78091226D01*
X133910688Y-77937845D01*
X133930461Y-77775000D01*
X133915462Y-77651472D01*
X135179296Y-77651472D01*
X135199082Y-77839728D01*
X135199083Y-77839731D01*
X135257574Y-78019749D01*
X135257577Y-78019756D01*
X135352223Y-78183688D01*
X135478885Y-78324360D01*
X135632021Y-78435620D01*
X135632026Y-78435623D01*
X135804948Y-78512614D01*
X135804953Y-78512616D01*
X135990110Y-78551972D01*
X135990111Y-78551972D01*
X136179400Y-78551972D01*
X136179402Y-78551972D01*
X136364559Y-78512616D01*
X136537486Y-78435623D01*
X136690627Y-78324360D01*
X136817289Y-78183688D01*
X136911935Y-78019756D01*
X136970430Y-77839728D01*
X136990216Y-77651472D01*
X136970430Y-77463216D01*
X136915868Y-77295295D01*
X136911937Y-77283194D01*
X136911936Y-77283193D01*
X136911935Y-77283188D01*
X136817289Y-77119256D01*
X136690627Y-76978584D01*
X136690626Y-76978583D01*
X136537490Y-76867323D01*
X136537485Y-76867320D01*
X136364563Y-76790329D01*
X136364558Y-76790327D01*
X136218757Y-76759337D01*
X136179402Y-76750972D01*
X135990110Y-76750972D01*
X135957653Y-76757870D01*
X135804953Y-76790327D01*
X135804948Y-76790329D01*
X135632026Y-76867320D01*
X135632021Y-76867323D01*
X135478885Y-76978583D01*
X135352222Y-77119257D01*
X135257577Y-77283187D01*
X135257574Y-77283194D01*
X135200817Y-77457875D01*
X135199082Y-77463216D01*
X135179296Y-77651472D01*
X133915462Y-77651472D01*
X133910688Y-77612155D01*
X133860014Y-77478541D01*
X133854648Y-77408881D01*
X133887795Y-77347374D01*
X133948933Y-77313553D01*
X133949301Y-77313471D01*
X134210931Y-77255882D01*
X134560328Y-77138155D01*
X134894919Y-76983357D01*
X134894932Y-76983350D01*
X135210824Y-76793286D01*
X135210841Y-76793274D01*
X135504340Y-76570161D01*
X135523479Y-76552031D01*
X134206879Y-75235431D01*
X134234180Y-75218168D01*
X134421501Y-75052216D01*
X134560511Y-74881958D01*
X135874501Y-76195948D01*
X135874502Y-76195948D01*
X136010690Y-76035615D01*
X136010701Y-76035601D01*
X136217593Y-75730458D01*
X136390284Y-75404728D01*
X136390293Y-75404710D01*
X136526754Y-75062216D01*
X136526756Y-75062209D01*
X136613440Y-74750000D01*
X138069540Y-74750000D01*
X138089326Y-74938256D01*
X138089327Y-74938259D01*
X138147818Y-75118277D01*
X138147821Y-75118284D01*
X138242467Y-75282216D01*
X138352778Y-75404728D01*
X138369129Y-75422888D01*
X138522265Y-75534148D01*
X138522270Y-75534151D01*
X138695192Y-75611142D01*
X138695197Y-75611144D01*
X138880354Y-75650500D01*
X138880355Y-75650500D01*
X139069644Y-75650500D01*
X139069646Y-75650500D01*
X139254803Y-75611144D01*
X139427730Y-75534151D01*
X139580871Y-75422888D01*
X139707533Y-75282216D01*
X139802179Y-75118284D01*
X139860674Y-74938256D01*
X139880460Y-74750000D01*
X139860674Y-74561744D01*
X139802179Y-74381716D01*
X139707533Y-74217784D01*
X139580871Y-74077112D01*
X139580870Y-74077111D01*
X139427734Y-73965851D01*
X139427729Y-73965848D01*
X139254807Y-73888857D01*
X139254803Y-73888856D01*
X139184659Y-73873946D01*
X139123178Y-73840753D01*
X139089401Y-73779590D01*
X139094055Y-73709875D01*
X139135659Y-73653743D01*
X139184655Y-73631368D01*
X139279803Y-73611144D01*
X139452730Y-73534151D01*
X139605871Y-73422888D01*
X139732533Y-73282216D01*
X139827179Y-73118284D01*
X139885674Y-72938256D01*
X139905460Y-72750000D01*
X139885674Y-72561744D01*
X139827179Y-72381716D01*
X139732533Y-72217784D01*
X139605871Y-72077112D01*
X139605870Y-72077111D01*
X139452734Y-71965851D01*
X139452729Y-71965848D01*
X139279807Y-71888857D01*
X139279802Y-71888855D01*
X139134001Y-71857865D01*
X139094646Y-71849500D01*
X138905354Y-71849500D01*
X138872897Y-71856398D01*
X138720197Y-71888855D01*
X138720192Y-71888857D01*
X138547270Y-71965848D01*
X138547265Y-71965851D01*
X138394129Y-72077111D01*
X138267466Y-72217785D01*
X138172821Y-72381715D01*
X138172818Y-72381722D01*
X138114327Y-72561740D01*
X138114326Y-72561744D01*
X138094540Y-72750000D01*
X138114326Y-72938256D01*
X138114327Y-72938259D01*
X138172818Y-73118277D01*
X138172821Y-73118284D01*
X138267467Y-73282216D01*
X138390695Y-73419074D01*
X138394129Y-73422888D01*
X138547265Y-73534148D01*
X138547270Y-73534151D01*
X138720192Y-73611142D01*
X138720193Y-73611142D01*
X138720197Y-73611144D01*
X138768110Y-73621328D01*
X138790338Y-73626053D01*
X138851820Y-73659245D01*
X138885597Y-73720408D01*
X138880945Y-73790123D01*
X138839341Y-73846255D01*
X138790339Y-73868633D01*
X138695197Y-73888855D01*
X138695192Y-73888857D01*
X138522270Y-73965848D01*
X138522265Y-73965851D01*
X138369129Y-74077111D01*
X138242466Y-74217785D01*
X138147821Y-74381715D01*
X138147818Y-74381722D01*
X138089327Y-74561740D01*
X138089326Y-74561744D01*
X138069540Y-74750000D01*
X136613440Y-74750000D01*
X136625383Y-74706986D01*
X136625389Y-74706960D01*
X136685032Y-74343159D01*
X136685033Y-74343142D01*
X136704994Y-73975000D01*
X136704994Y-73974997D01*
X136685033Y-73606857D01*
X136685032Y-73606840D01*
X136625389Y-73243039D01*
X136625383Y-73243013D01*
X136526756Y-72887790D01*
X136526754Y-72887783D01*
X136390293Y-72545289D01*
X136390284Y-72545271D01*
X136217593Y-72219541D01*
X136010692Y-71914385D01*
X135874502Y-71754050D01*
X135874501Y-71754049D01*
X134558647Y-73069903D01*
X134504544Y-72991520D01*
X134331184Y-72811034D01*
X134205133Y-72716313D01*
X135523478Y-71397967D01*
X135523478Y-71397966D01*
X135504356Y-71379852D01*
X135504344Y-71379841D01*
X135210841Y-71156725D01*
X135210824Y-71156713D01*
X134894932Y-70966649D01*
X134894919Y-70966642D01*
X134560328Y-70811844D01*
X134228391Y-70700000D01*
X138094540Y-70700000D01*
X138114326Y-70888256D01*
X138114327Y-70888259D01*
X138172818Y-71068277D01*
X138172821Y-71068284D01*
X138267467Y-71232216D01*
X138382406Y-71359868D01*
X138394129Y-71372888D01*
X138547265Y-71484148D01*
X138547270Y-71484151D01*
X138720192Y-71561142D01*
X138720197Y-71561144D01*
X138905354Y-71600500D01*
X138905355Y-71600500D01*
X139094644Y-71600500D01*
X139094646Y-71600500D01*
X139279803Y-71561144D01*
X139452730Y-71484151D01*
X139605871Y-71372888D01*
X139732533Y-71232216D01*
X139827179Y-71068284D01*
X139885674Y-70888256D01*
X139905460Y-70700000D01*
X139885674Y-70511744D01*
X139827179Y-70331716D01*
X139732533Y-70167784D01*
X139605871Y-70027112D01*
X139591506Y-70016675D01*
X139452734Y-69915851D01*
X139452729Y-69915848D01*
X139279807Y-69838857D01*
X139279802Y-69838855D01*
X139134001Y-69807865D01*
X139094646Y-69799500D01*
X138905354Y-69799500D01*
X138872897Y-69806398D01*
X138720197Y-69838855D01*
X138720192Y-69838857D01*
X138547270Y-69915848D01*
X138547265Y-69915851D01*
X138394129Y-70027111D01*
X138267466Y-70167785D01*
X138172821Y-70331715D01*
X138172818Y-70331722D01*
X138130789Y-70461076D01*
X138114326Y-70511744D01*
X138094540Y-70700000D01*
X134228391Y-70700000D01*
X134210931Y-70694117D01*
X133850865Y-70614861D01*
X133484344Y-70575000D01*
X133115655Y-70575000D01*
X132749134Y-70614861D01*
X132389068Y-70694117D01*
X132039671Y-70811844D01*
X131705080Y-70966642D01*
X131705067Y-70966649D01*
X131389175Y-71156713D01*
X131389158Y-71156725D01*
X131095657Y-71379840D01*
X131095643Y-71379852D01*
X131076520Y-71397966D01*
X131076520Y-71397968D01*
X132393120Y-72714568D01*
X132365820Y-72731832D01*
X132178499Y-72897784D01*
X132039488Y-73068040D01*
X130725497Y-71754049D01*
X130725496Y-71754050D01*
X130589314Y-71914376D01*
X130589307Y-71914386D01*
X130382406Y-72219541D01*
X130209715Y-72545271D01*
X130209706Y-72545289D01*
X130073245Y-72887783D01*
X130073243Y-72887790D01*
X129974616Y-73243013D01*
X129974610Y-73243039D01*
X129914967Y-73606840D01*
X129914966Y-73606857D01*
X129895006Y-73974997D01*
X129895006Y-73975000D01*
X128800500Y-73975000D01*
X128809000Y-73780296D01*
X128818284Y-73579502D01*
X128818744Y-73574313D01*
X128845190Y-73373443D01*
X128851699Y-73326783D01*
X128872323Y-73178933D01*
X128873186Y-73174146D01*
X128917275Y-72975271D01*
X128962061Y-72784860D01*
X128963265Y-72780477D01*
X129024657Y-72585764D01*
X129038230Y-72545271D01*
X129086764Y-72400464D01*
X129088248Y-72396498D01*
X129166522Y-72207527D01*
X129245437Y-72028803D01*
X129247094Y-72025353D01*
X129341704Y-71843610D01*
X129436765Y-71672945D01*
X129438600Y-71669869D01*
X129548778Y-71496923D01*
X129659227Y-71335689D01*
X129661130Y-71333064D01*
X129786091Y-71170212D01*
X129911040Y-71019742D01*
X129912949Y-71017553D01*
X130051752Y-70866076D01*
X130191076Y-70726752D01*
X130342553Y-70587949D01*
X130344742Y-70586040D01*
X130495212Y-70461091D01*
X130658064Y-70336130D01*
X130660689Y-70334227D01*
X130821923Y-70223778D01*
X130994869Y-70113600D01*
X130997945Y-70111765D01*
X131168610Y-70016704D01*
X131350353Y-69922094D01*
X131353803Y-69920437D01*
X131532527Y-69841522D01*
X131721498Y-69763248D01*
X131725464Y-69761764D01*
X131910765Y-69699657D01*
X132105477Y-69638265D01*
X132109860Y-69637061D01*
X132300271Y-69592275D01*
X132499146Y-69548186D01*
X132503933Y-69547323D01*
X132698458Y-69520188D01*
X132899313Y-69493744D01*
X132904502Y-69493284D01*
X133105296Y-69484000D01*
X133300000Y-69475500D01*
X133300500Y-69475500D01*
X141963771Y-69475500D01*
X142030810Y-69495185D01*
G37*
%TD.AperFunction*%
%TD*%
M02*
