%TF.GenerationSoftware,KiCad,Pcbnew,7.0.8*%
%TF.CreationDate,2023-10-22T22:03:06-04:00*%
%TF.ProjectId,lemon-pepper,6c656d6f-6e2d-4706-9570-7065722e6b69,rev?*%
%TF.SameCoordinates,Original*%
%TF.FileFunction,Copper,L3,Inr*%
%TF.FilePolarity,Positive*%
%FSLAX46Y46*%
G04 Gerber Fmt 4.6, Leading zero omitted, Abs format (unit mm)*
G04 Created by KiCad (PCBNEW 7.0.8) date 2023-10-22 22:03:06*
%MOMM*%
%LPD*%
G01*
G04 APERTURE LIST*
G04 Aperture macros list*
%AMRoundRect*
0 Rectangle with rounded corners*
0 $1 Rounding radius*
0 $2 $3 $4 $5 $6 $7 $8 $9 X,Y pos of 4 corners*
0 Add a 4 corners polygon primitive as box body*
4,1,4,$2,$3,$4,$5,$6,$7,$8,$9,$2,$3,0*
0 Add four circle primitives for the rounded corners*
1,1,$1+$1,$2,$3*
1,1,$1+$1,$4,$5*
1,1,$1+$1,$6,$7*
1,1,$1+$1,$8,$9*
0 Add four rect primitives between the rounded corners*
20,1,$1+$1,$2,$3,$4,$5,0*
20,1,$1+$1,$4,$5,$6,$7,0*
20,1,$1+$1,$6,$7,$8,$9,0*
20,1,$1+$1,$8,$9,$2,$3,0*%
G04 Aperture macros list end*
%TA.AperFunction,ComponentPad*%
%ADD10C,0.700000*%
%TD*%
%TA.AperFunction,ComponentPad*%
%ADD11C,1.300000*%
%TD*%
%TA.AperFunction,HeatsinkPad*%
%ADD12C,0.500000*%
%TD*%
%TA.AperFunction,ComponentPad*%
%ADD13O,1.750000X1.750000*%
%TD*%
%TA.AperFunction,ComponentPad*%
%ADD14O,1.750000X2.000000*%
%TD*%
%TA.AperFunction,ComponentPad*%
%ADD15C,5.800000*%
%TD*%
%TA.AperFunction,ComponentPad*%
%ADD16RoundRect,0.250000X0.600000X0.725000X-0.600000X0.725000X-0.600000X-0.725000X0.600000X-0.725000X0*%
%TD*%
%TA.AperFunction,ComponentPad*%
%ADD17O,1.700000X1.950000*%
%TD*%
%TA.AperFunction,ViaPad*%
%ADD18C,0.800000*%
%TD*%
%TA.AperFunction,ViaPad*%
%ADD19C,0.350000*%
%TD*%
%TA.AperFunction,Conductor*%
%ADD20C,0.250000*%
%TD*%
%TA.AperFunction,Conductor*%
%ADD21C,0.200000*%
%TD*%
G04 APERTURE END LIST*
D10*
%TO.N,*%
%TO.C,J201*%
X134408634Y-93573979D03*
D11*
%TO.N,GND*%
X136883507Y-93008293D03*
X133842948Y-96048852D03*
X140277620Y-96402406D03*
X137237061Y-99442965D03*
%TD*%
D12*
%TO.N,/current sense/U_OUT*%
%TO.C,M101*%
X142600000Y-70200000D03*
D13*
X142600000Y-72075000D03*
D14*
X142600000Y-74825000D03*
D12*
%TO.N,/current sense/W_OUT*%
X145100000Y-70200000D03*
D13*
X145100000Y-72075000D03*
D14*
X145100000Y-74825000D03*
D12*
%TO.N,/half bridges/OUT1B*%
X147600000Y-70200000D03*
D13*
X147600000Y-72075000D03*
D14*
X147600000Y-74825000D03*
D12*
%TO.N,/current sense/V_OUT*%
X150100000Y-70200000D03*
D13*
X150100000Y-72075000D03*
D14*
X150100000Y-74825000D03*
%TD*%
D15*
%TO.N,GND*%
%TO.C,H101*%
X133300000Y-99975000D03*
X159300000Y-99975000D03*
X133300000Y-73975000D03*
X159300000Y-73975000D03*
%TD*%
D16*
%TO.N,Vmot*%
%TO.C,J101*%
X153525000Y-101700000D03*
D17*
%TO.N,GND*%
X151025000Y-101700000D03*
%TO.N,/mcu/CANL*%
X148525000Y-101700000D03*
%TO.N,/mcu/CANH*%
X146025000Y-101700000D03*
%TD*%
D18*
%TO.N,GND*%
X153975000Y-84225000D03*
X153800000Y-91325000D03*
X141910438Y-87201525D03*
X143925000Y-101575000D03*
X130700000Y-80025000D03*
X162125000Y-90250000D03*
X135925000Y-86300000D03*
X153975000Y-85250000D03*
X159925000Y-80375000D03*
X133075000Y-79575000D03*
X137175000Y-85000000D03*
X135925000Y-85025000D03*
X152375000Y-79800000D03*
X135925000Y-83825000D03*
X159950000Y-82800000D03*
X144350000Y-88275000D03*
X134650000Y-85000000D03*
X154975000Y-84250000D03*
X132950000Y-92225000D03*
X159950000Y-83950000D03*
X155600000Y-93200000D03*
X147850000Y-92350000D03*
X152925000Y-84175000D03*
X152375000Y-88650000D03*
X143100000Y-83600000D03*
X146225000Y-93075000D03*
X140904600Y-93350500D03*
X143900000Y-103500000D03*
X154000000Y-83200000D03*
X148523706Y-86499157D03*
X159950000Y-81600000D03*
%TO.N,Vmot*%
X150200000Y-86325000D03*
X139000000Y-70700000D03*
X161925000Y-82200000D03*
X150850000Y-86975000D03*
X153725000Y-74775000D03*
X153750000Y-72700000D03*
X156250000Y-90950000D03*
X155325000Y-91350000D03*
X151750000Y-86800000D03*
X138975000Y-74750000D03*
X139000000Y-72750000D03*
X156150000Y-91975000D03*
X132175000Y-94100000D03*
X153725000Y-70725000D03*
X161950000Y-83375000D03*
D19*
%TO.N,/mcu/USBD_P*%
X137500000Y-96625000D03*
X136650000Y-95825000D03*
D18*
%TO.N,+3V3*%
X134766075Y-90183574D03*
X162425000Y-93700000D03*
X146800000Y-99125000D03*
X162425000Y-94575000D03*
X150800000Y-78100000D03*
X140050000Y-103600000D03*
X144600000Y-99125000D03*
X140850000Y-78031779D03*
X161175000Y-93700000D03*
X145675000Y-99125000D03*
X137600000Y-78700500D03*
X162400000Y-95425000D03*
X140924500Y-87975000D03*
X133425028Y-89706439D03*
X145550000Y-78083700D03*
X148525000Y-85375000D03*
X144100000Y-98175000D03*
X145175000Y-98175000D03*
X161175000Y-94600000D03*
X146000000Y-95675000D03*
X146300000Y-98175000D03*
X161175000Y-95450000D03*
D19*
%TO.N,/mcu/RESET*%
X130587500Y-83562500D03*
X133775000Y-78325000D03*
X143100000Y-93900000D03*
%TO.N,/current sense/U_SENSE*%
X138300000Y-79425000D03*
X131225000Y-83575000D03*
%TO.N,/current sense/V_SENSE*%
X141275000Y-81700000D03*
X137400000Y-89450000D03*
X138950000Y-81700000D03*
X151524500Y-80475000D03*
%TO.N,/current sense/W_SENSE*%
X138400000Y-81250000D03*
X140700000Y-81225000D03*
X131450000Y-87125000D03*
X145975000Y-80500000D03*
D18*
%TO.N,/usb/USB_5V*%
X136221584Y-97995447D03*
X135074342Y-96842749D03*
X139022580Y-95565784D03*
X141575000Y-95875000D03*
X131000000Y-94950000D03*
X137925000Y-94025000D03*
%TO.N,Net-(D603-K)*%
X156300000Y-88700000D03*
X150575000Y-84225000D03*
D19*
%TO.N,Net-(D601-K)*%
X151805811Y-81930811D03*
X156600000Y-86375000D03*
%TO.N,/half bridges/ENA*%
X155450000Y-87550000D03*
X150525000Y-83225000D03*
X139371900Y-88772810D03*
%TO.N,/encoder/SCK*%
X147450000Y-91350000D03*
X130575000Y-85875000D03*
%TO.N,/encoder/CIPO*%
X130950000Y-86300000D03*
X146050000Y-91325000D03*
%TO.N,/encoder/COPI*%
X146775000Y-91350000D03*
X130475000Y-86575000D03*
%TO.N,/encoder/CS*%
X148150000Y-91350000D03*
X132073766Y-87148766D03*
%TO.N,/encoder/CAL_EN*%
X130850000Y-87450000D03*
X145325000Y-91350000D03*
%TO.N,/mcu/CAN_TX*%
X140175000Y-83225000D03*
X138050000Y-80825000D03*
%TO.N,/mcu/CAN_RX*%
X137600000Y-80425000D03*
X140800000Y-83225000D03*
%TO.N,/half bridges/IN2B*%
X150950000Y-82825000D03*
X131750000Y-83075000D03*
%TO.N,/half bridges/IN1A*%
X156800000Y-86900000D03*
X139215802Y-87973175D03*
%TO.N,/half bridges/IN2A*%
X139650000Y-87678939D03*
X156177038Y-86685172D03*
%TO.N,/half bridges/IN1B*%
X132125000Y-82675000D03*
X151425000Y-82400000D03*
%TO.N,/mcu/DIR*%
X138850000Y-88825000D03*
X149724503Y-90975000D03*
%TO.N,/mcu/STEP*%
X138525000Y-89275000D03*
X149200000Y-90975000D03*
D18*
%TO.N,GNDA*%
X144300500Y-79500000D03*
X149450000Y-79587008D03*
X149775000Y-98800000D03*
X149775000Y-97875000D03*
X139600500Y-79375000D03*
X148625000Y-98825000D03*
%TD*%
D20*
%TO.N,Vmot*%
X142475000Y-98475000D02*
X144100000Y-100100000D01*
X141600000Y-91975000D02*
X142475000Y-92850000D01*
X134300000Y-91975000D02*
X141600000Y-91975000D01*
X142475000Y-92850000D02*
X142475000Y-98475000D01*
X144100000Y-100100000D02*
X151925000Y-100100000D01*
X132175000Y-94100000D02*
X134300000Y-91975000D01*
X151925000Y-100100000D02*
X153525000Y-101700000D01*
%TO.N,+3V3*%
X140924500Y-87975000D02*
X140350000Y-88549500D01*
X161175000Y-92400000D02*
X161175000Y-93700000D01*
X152950000Y-85375000D02*
X154100000Y-86525000D01*
X155300000Y-86525000D02*
X161175000Y-92400000D01*
X148525000Y-85375000D02*
X152950000Y-85375000D01*
X140350000Y-88549500D02*
X140350000Y-90275000D01*
X154100000Y-86525000D02*
X155300000Y-86525000D01*
D21*
%TO.N,GNDA*%
X149750000Y-98825000D02*
X149775000Y-98800000D01*
X149775000Y-98800000D02*
X149775000Y-98575000D01*
X149775000Y-98800000D02*
X149775000Y-98475000D01*
%TD*%
%TA.AperFunction,Conductor*%
%TO.N,Vmot*%
G36*
X152830851Y-85720185D02*
G01*
X152851493Y-85736819D01*
X153857863Y-86743189D01*
X153861518Y-86747178D01*
X153887541Y-86778190D01*
X153887543Y-86778191D01*
X153887545Y-86778194D01*
X153887547Y-86778195D01*
X153887548Y-86778196D01*
X153922599Y-86798433D01*
X153927162Y-86801339D01*
X153960316Y-86824554D01*
X153960319Y-86824554D01*
X153965176Y-86826820D01*
X153981933Y-86833760D01*
X153986953Y-86835587D01*
X153986955Y-86835588D01*
X154022806Y-86841909D01*
X154026808Y-86842615D01*
X154032080Y-86843783D01*
X154071193Y-86854264D01*
X154111522Y-86850735D01*
X154116924Y-86850500D01*
X154274138Y-86850500D01*
X154341177Y-86870185D01*
X154361819Y-86886819D01*
X155049763Y-87574763D01*
X155083248Y-87636086D01*
X155084555Y-87643046D01*
X155088424Y-87667479D01*
X155088426Y-87667482D01*
X155142427Y-87773465D01*
X155142429Y-87773467D01*
X155142431Y-87773470D01*
X155226529Y-87857568D01*
X155226533Y-87857571D01*
X155226535Y-87857573D01*
X155332518Y-87911574D01*
X155356953Y-87915444D01*
X155420086Y-87945372D01*
X155425236Y-87950236D01*
X155745198Y-88270198D01*
X155778683Y-88331521D01*
X155773699Y-88401213D01*
X155772078Y-88405331D01*
X155714957Y-88543234D01*
X155714955Y-88543239D01*
X155694318Y-88699998D01*
X155694318Y-88700001D01*
X155714955Y-88856760D01*
X155714956Y-88856762D01*
X155765944Y-88979859D01*
X155775464Y-89002841D01*
X155871718Y-89128282D01*
X155997159Y-89224536D01*
X156143238Y-89285044D01*
X156221619Y-89295363D01*
X156299999Y-89305682D01*
X156300000Y-89305682D01*
X156300001Y-89305682D01*
X156352254Y-89298802D01*
X156456762Y-89285044D01*
X156594669Y-89227920D01*
X156664136Y-89220452D01*
X156726616Y-89251727D01*
X156729801Y-89254801D01*
X157750000Y-90275000D01*
X158273638Y-90275000D01*
X158340677Y-90294685D01*
X158361319Y-90311319D01*
X158788681Y-90738681D01*
X158822166Y-90800004D01*
X158825000Y-90826362D01*
X158825000Y-91973638D01*
X158805315Y-92040677D01*
X158788681Y-92061319D01*
X158236319Y-92613681D01*
X158174996Y-92647166D01*
X158148638Y-92650000D01*
X155866031Y-92650000D01*
X155818579Y-92640561D01*
X155756765Y-92614957D01*
X155756760Y-92614955D01*
X155600001Y-92594318D01*
X155599999Y-92594318D01*
X155443239Y-92614955D01*
X155443234Y-92614957D01*
X155381421Y-92640561D01*
X155333969Y-92650000D01*
X155251362Y-92650000D01*
X155184323Y-92630315D01*
X155163681Y-92613681D01*
X154337739Y-91787739D01*
X154304254Y-91726416D01*
X154309238Y-91656724D01*
X154321129Y-91635254D01*
X154320474Y-91634876D01*
X154324532Y-91627845D01*
X154324536Y-91627841D01*
X154385044Y-91481762D01*
X154405682Y-91325000D01*
X154400096Y-91282573D01*
X154385044Y-91168239D01*
X154385044Y-91168238D01*
X154324536Y-91022159D01*
X154228282Y-90896718D01*
X154102841Y-90800464D01*
X154101730Y-90800004D01*
X153956762Y-90739956D01*
X153956760Y-90739955D01*
X153800001Y-90719318D01*
X153799999Y-90719318D01*
X153643239Y-90739955D01*
X153643237Y-90739956D01*
X153497156Y-90800465D01*
X153490119Y-90804528D01*
X153488899Y-90802416D01*
X153435231Y-90823151D01*
X153366790Y-90809098D01*
X153337260Y-90787260D01*
X153316819Y-90766819D01*
X153283334Y-90705496D01*
X153280500Y-90679138D01*
X153280500Y-89637827D01*
X153279050Y-89610773D01*
X153279050Y-89610772D01*
X153274769Y-89570964D01*
X153266114Y-89517554D01*
X153266114Y-89517552D01*
X153215833Y-89382747D01*
X153215832Y-89382743D01*
X153182347Y-89321420D01*
X153096123Y-89206239D01*
X153096118Y-89206234D01*
X153096114Y-89206229D01*
X153085699Y-89195815D01*
X153085697Y-89195813D01*
X153002574Y-89128663D01*
X153002573Y-89128662D01*
X152958770Y-89100363D01*
X152956139Y-89098855D01*
X152907777Y-89048428D01*
X152894355Y-88979859D01*
X152903266Y-88943835D01*
X152960044Y-88806762D01*
X152980682Y-88650000D01*
X152960044Y-88493238D01*
X152899536Y-88347159D01*
X152803282Y-88221718D01*
X152677841Y-88125464D01*
X152652472Y-88114956D01*
X152531762Y-88064956D01*
X152531760Y-88064955D01*
X152375001Y-88044318D01*
X152374999Y-88044318D01*
X152218239Y-88064955D01*
X152218237Y-88064956D01*
X152078839Y-88122697D01*
X152009369Y-88130166D01*
X151946890Y-88098891D01*
X151922554Y-88067563D01*
X151915416Y-88054491D01*
X151915415Y-88054490D01*
X151915413Y-88054486D01*
X151829189Y-87939305D01*
X151829184Y-87939300D01*
X151829179Y-87939294D01*
X151436993Y-87547109D01*
X151353857Y-87479950D01*
X151310062Y-87451657D01*
X151214662Y-87403476D01*
X151074217Y-87372223D01*
X151004550Y-87366907D01*
X151004547Y-87366907D01*
X150999627Y-87367235D01*
X150960265Y-87369862D01*
X150956136Y-87370000D01*
X150821516Y-87370000D01*
X150795736Y-87367290D01*
X150773984Y-87362666D01*
X150740010Y-87355445D01*
X150715356Y-87347434D01*
X150663325Y-87324268D01*
X150640878Y-87311308D01*
X150594777Y-87277815D01*
X150575514Y-87260471D01*
X150551455Y-87233751D01*
X150537399Y-87218140D01*
X150522163Y-87197169D01*
X150493677Y-87147830D01*
X150483133Y-87124148D01*
X150478133Y-87108760D01*
X150478131Y-87108753D01*
X150478126Y-87108743D01*
X150478123Y-87108733D01*
X150441030Y-87022687D01*
X150438187Y-87017482D01*
X150419078Y-86982490D01*
X150366718Y-86904745D01*
X150260704Y-86807469D01*
X150233304Y-86788738D01*
X150179020Y-86751628D01*
X150134786Y-86697544D01*
X150125000Y-86649262D01*
X150125000Y-86201362D01*
X150144685Y-86134323D01*
X150161319Y-86113681D01*
X150538181Y-85736819D01*
X150599504Y-85703334D01*
X150625862Y-85700500D01*
X152763812Y-85700500D01*
X152830851Y-85720185D01*
G37*
%TD.AperFunction*%
%TD*%
%TA.AperFunction,Conductor*%
%TO.N,GNDA*%
G36*
X139654764Y-78982709D02*
G01*
X139710488Y-78994553D01*
X139735144Y-79002565D01*
X139787175Y-79025731D01*
X139809623Y-79038691D01*
X139845183Y-79064526D01*
X139856996Y-79072603D01*
X139856998Y-79072604D01*
X139869008Y-79080567D01*
X139999885Y-79140338D01*
X140042657Y-79152897D01*
X140066919Y-79160022D01*
X140066924Y-79160023D01*
X140066928Y-79160024D01*
X140209344Y-79180500D01*
X140209347Y-79180500D01*
X143913155Y-79180500D01*
X143913160Y-79180500D01*
X144018264Y-79169453D01*
X144068700Y-79158732D01*
X144169207Y-79126074D01*
X144169217Y-79126069D01*
X144171699Y-79125117D01*
X144190365Y-79119585D01*
X144246242Y-79107708D01*
X144272016Y-79105000D01*
X144328984Y-79105000D01*
X144354762Y-79107709D01*
X144390428Y-79115289D01*
X144410615Y-79119580D01*
X144429272Y-79125106D01*
X144431775Y-79126066D01*
X144431795Y-79126075D01*
X144532300Y-79158732D01*
X144532302Y-79158732D01*
X144532304Y-79158733D01*
X144538369Y-79160022D01*
X144582736Y-79169453D01*
X144687840Y-79180500D01*
X150801000Y-79180500D01*
X150868039Y-79200185D01*
X150913794Y-79252989D01*
X150925000Y-79304500D01*
X150925000Y-80128092D01*
X150916942Y-80172063D01*
X150863812Y-80312151D01*
X150863811Y-80312157D01*
X150844039Y-80474999D01*
X150844039Y-80475000D01*
X150863811Y-80637842D01*
X150863812Y-80637845D01*
X150916942Y-80777938D01*
X150925000Y-80821907D01*
X150925000Y-81473638D01*
X150905315Y-81540677D01*
X150888681Y-81561319D01*
X149200000Y-83249999D01*
X149200000Y-84508973D01*
X149180315Y-84576012D01*
X149127511Y-84621767D01*
X149058353Y-84631711D01*
X149003116Y-84609292D01*
X148977733Y-84590851D01*
X148977729Y-84590848D01*
X148804807Y-84513857D01*
X148804802Y-84513855D01*
X148659001Y-84482865D01*
X148619646Y-84474500D01*
X148430354Y-84474500D01*
X148397897Y-84481398D01*
X148245197Y-84513855D01*
X148245192Y-84513857D01*
X148072270Y-84590848D01*
X148072265Y-84590851D01*
X147919129Y-84702111D01*
X147792466Y-84842785D01*
X147697821Y-85006715D01*
X147697818Y-85006722D01*
X147647513Y-85161546D01*
X147639326Y-85186744D01*
X147619540Y-85375000D01*
X147639326Y-85563256D01*
X147639327Y-85563259D01*
X147697818Y-85743277D01*
X147697823Y-85743289D01*
X147773265Y-85873959D01*
X147789738Y-85941859D01*
X147773265Y-85997958D01*
X147696527Y-86130872D01*
X147696524Y-86130879D01*
X147641241Y-86301025D01*
X147638032Y-86310901D01*
X147618246Y-86499157D01*
X147638032Y-86687413D01*
X147638033Y-86687416D01*
X147696524Y-86867434D01*
X147696527Y-86867441D01*
X147791173Y-87031373D01*
X147902632Y-87155160D01*
X147917835Y-87172045D01*
X148070971Y-87283305D01*
X148070976Y-87283308D01*
X148243898Y-87360299D01*
X148243903Y-87360301D01*
X148429060Y-87399657D01*
X148429061Y-87399657D01*
X148618350Y-87399657D01*
X148618352Y-87399657D01*
X148803509Y-87360301D01*
X148976436Y-87283308D01*
X149129577Y-87172045D01*
X149256239Y-87031373D01*
X149314694Y-86930124D01*
X149365260Y-86881910D01*
X149433867Y-86868686D01*
X149498732Y-86894654D01*
X149514227Y-86909149D01*
X149594129Y-86997888D01*
X149607810Y-87007828D01*
X149747265Y-87109148D01*
X149747270Y-87109151D01*
X149926134Y-87188788D01*
X149925351Y-87190546D01*
X149975426Y-87224778D01*
X149997373Y-87264965D01*
X150022818Y-87343277D01*
X150022821Y-87343284D01*
X150117467Y-87507216D01*
X150186740Y-87584151D01*
X150244129Y-87647888D01*
X150397265Y-87759148D01*
X150397270Y-87759151D01*
X150570192Y-87836142D01*
X150570197Y-87836144D01*
X150755354Y-87875500D01*
X150755355Y-87875500D01*
X150944645Y-87875500D01*
X150944646Y-87875500D01*
X150966089Y-87870942D01*
X151035756Y-87876258D01*
X151079551Y-87904551D01*
X151471747Y-88296747D01*
X151505232Y-88358070D01*
X151501997Y-88422745D01*
X151489328Y-88461737D01*
X151489326Y-88461744D01*
X151469540Y-88650000D01*
X151489326Y-88838256D01*
X151489327Y-88838259D01*
X151547818Y-89018277D01*
X151547821Y-89018284D01*
X151642467Y-89182216D01*
X151759772Y-89312496D01*
X151769129Y-89322888D01*
X151922265Y-89434148D01*
X151922270Y-89434151D01*
X152095192Y-89511142D01*
X152095197Y-89511144D01*
X152280354Y-89550500D01*
X152280355Y-89550500D01*
X152469644Y-89550500D01*
X152469646Y-89550500D01*
X152585058Y-89525968D01*
X152614795Y-89519648D01*
X152684463Y-89524964D01*
X152728257Y-89553257D01*
X152738681Y-89563681D01*
X152772166Y-89625004D01*
X152775000Y-89651362D01*
X152775000Y-98648638D01*
X152755315Y-98715677D01*
X152738681Y-98736319D01*
X152041264Y-99433735D01*
X151979941Y-99467220D01*
X151949693Y-99469993D01*
X151944808Y-99469839D01*
X151898416Y-99474225D01*
X151892578Y-99474500D01*
X148397715Y-99474500D01*
X148330676Y-99454815D01*
X148284921Y-99402011D01*
X148274523Y-99336364D01*
X148289940Y-99202002D01*
X148287945Y-99132173D01*
X148287945Y-99132164D01*
X148263411Y-98990391D01*
X148240529Y-98919967D01*
X148235142Y-98894624D01*
X148229186Y-98837955D01*
X148229186Y-98812036D01*
X148235141Y-98755372D01*
X148240529Y-98730026D01*
X148258135Y-98675843D01*
X148268675Y-98652168D01*
X148296162Y-98604562D01*
X148346662Y-98482645D01*
X148363275Y-98420645D01*
X148380500Y-98289811D01*
X148380500Y-96824000D01*
X148400185Y-96756961D01*
X148452989Y-96711206D01*
X148504500Y-96700000D01*
X149625000Y-96700000D01*
X150075000Y-96250000D01*
X150075000Y-91622752D01*
X150094685Y-91555713D01*
X150116773Y-91529937D01*
X150133175Y-91515406D01*
X150233835Y-91426229D01*
X150327021Y-91291226D01*
X150385191Y-91137845D01*
X150404964Y-90975000D01*
X150385191Y-90812155D01*
X150327021Y-90658774D01*
X150233835Y-90523771D01*
X150233832Y-90523768D01*
X150233830Y-90523766D01*
X150111051Y-90414993D01*
X149965794Y-90338756D01*
X149806525Y-90299500D01*
X149806524Y-90299500D01*
X149642482Y-90299500D01*
X149642481Y-90299500D01*
X149491926Y-90336609D01*
X149432576Y-90336609D01*
X149282021Y-90299500D01*
X149117979Y-90299500D01*
X149117978Y-90299500D01*
X148958708Y-90338756D01*
X148813451Y-90414993D01*
X148780919Y-90443815D01*
X148717686Y-90473537D01*
X148698692Y-90475000D01*
X147126362Y-90475000D01*
X147059323Y-90455315D01*
X147038681Y-90438681D01*
X145436319Y-88836319D01*
X145402834Y-88774996D01*
X145400000Y-88748638D01*
X145400000Y-84525000D01*
X141575000Y-80700000D01*
X141173089Y-80700000D01*
X141106050Y-80680315D01*
X141090863Y-80668816D01*
X141086548Y-80664993D01*
X140941291Y-80588756D01*
X140782022Y-80549500D01*
X140782021Y-80549500D01*
X140617979Y-80549500D01*
X140617978Y-80549500D01*
X140458708Y-80588756D01*
X140313451Y-80664993D01*
X140309137Y-80668816D01*
X140245904Y-80698537D01*
X140226911Y-80700000D01*
X140001362Y-80700000D01*
X139934323Y-80680315D01*
X139913681Y-80663681D01*
X139750000Y-80500000D01*
X145294539Y-80500000D01*
X145314311Y-80662842D01*
X145314312Y-80662845D01*
X145372482Y-80816226D01*
X145465668Y-80951229D01*
X145465670Y-80951231D01*
X145465672Y-80951233D01*
X145588451Y-81060006D01*
X145588452Y-81060006D01*
X145588454Y-81060008D01*
X145733705Y-81136242D01*
X145733707Y-81136242D01*
X145733708Y-81136243D01*
X145892978Y-81175500D01*
X145892979Y-81175500D01*
X146057022Y-81175500D01*
X146216291Y-81136243D01*
X146216291Y-81136242D01*
X146216295Y-81136242D01*
X146361546Y-81060008D01*
X146484332Y-80951229D01*
X146577518Y-80816226D01*
X146635688Y-80662845D01*
X146655461Y-80500000D01*
X146652425Y-80475000D01*
X146635688Y-80337157D01*
X146635688Y-80337155D01*
X146577518Y-80183774D01*
X146484332Y-80048771D01*
X146484329Y-80048768D01*
X146484327Y-80048766D01*
X146361548Y-79939993D01*
X146216291Y-79863756D01*
X146057022Y-79824500D01*
X146057021Y-79824500D01*
X145892979Y-79824500D01*
X145892978Y-79824500D01*
X145733708Y-79863756D01*
X145588451Y-79939993D01*
X145465672Y-80048766D01*
X145465666Y-80048773D01*
X145372483Y-80183771D01*
X145314312Y-80337154D01*
X145314311Y-80337157D01*
X145294539Y-80499999D01*
X145294539Y-80500000D01*
X139750000Y-80500000D01*
X138983599Y-79733599D01*
X138950114Y-79672276D01*
X138955098Y-79602584D01*
X138960688Y-79587845D01*
X138980461Y-79425000D01*
X138966305Y-79308415D01*
X138977765Y-79239492D01*
X139024669Y-79187706D01*
X139064774Y-79171939D01*
X139129955Y-79158732D01*
X139168603Y-79150901D01*
X139168607Y-79150899D01*
X139168611Y-79150899D01*
X139231518Y-79128453D01*
X139233710Y-79127792D01*
X139234417Y-79127419D01*
X139234419Y-79127419D01*
X139361670Y-79060273D01*
X139391373Y-79038691D01*
X139413811Y-79025736D01*
X139465860Y-79002562D01*
X139490502Y-78994555D01*
X139546242Y-78982708D01*
X139572014Y-78980000D01*
X139628984Y-78980000D01*
X139654764Y-78982709D01*
G37*
%TD.AperFunction*%
%TD*%
%TA.AperFunction,Conductor*%
%TO.N,+3V3*%
G36*
X152815677Y-76494685D02*
G01*
X152836319Y-76511319D01*
X153213681Y-76888681D01*
X153247166Y-76950004D01*
X153250000Y-76976362D01*
X153250000Y-78298638D01*
X153230315Y-78365677D01*
X153213681Y-78386319D01*
X152961319Y-78638681D01*
X152899996Y-78672166D01*
X152873638Y-78675000D01*
X144687840Y-78675000D01*
X144637404Y-78664279D01*
X144580306Y-78638857D01*
X144580302Y-78638855D01*
X144434501Y-78607865D01*
X144395146Y-78599500D01*
X144205854Y-78599500D01*
X144173397Y-78606398D01*
X144020697Y-78638855D01*
X144020693Y-78638857D01*
X143963596Y-78664279D01*
X143913160Y-78675000D01*
X140209344Y-78675000D01*
X140142305Y-78655315D01*
X140136459Y-78651318D01*
X140053234Y-78590851D01*
X140053229Y-78590848D01*
X139880307Y-78513857D01*
X139880302Y-78513855D01*
X139734501Y-78482865D01*
X139695146Y-78474500D01*
X139505854Y-78474500D01*
X139473397Y-78481398D01*
X139320697Y-78513855D01*
X139320692Y-78513857D01*
X139147770Y-78590848D01*
X139147765Y-78590851D01*
X139064541Y-78651318D01*
X138998735Y-78674798D01*
X138991656Y-78675000D01*
X137750000Y-78675000D01*
X136300000Y-77225000D01*
X137013681Y-76511319D01*
X137075004Y-76477834D01*
X137101362Y-76475000D01*
X152748638Y-76475000D01*
X152815677Y-76494685D01*
G37*
%TD.AperFunction*%
%TD*%
%TA.AperFunction,Conductor*%
%TO.N,GND*%
G36*
X142030810Y-69495185D02*
G01*
X142076565Y-69547989D01*
X142086509Y-69617147D01*
X142057484Y-69680703D01*
X142051452Y-69687181D01*
X142009523Y-69729109D01*
X142009518Y-69729115D01*
X141919547Y-69872302D01*
X141919545Y-69872305D01*
X141863685Y-70031943D01*
X141844751Y-70199997D01*
X141844751Y-70200002D01*
X141863685Y-70368056D01*
X141919545Y-70527694D01*
X141919547Y-70527697D01*
X142013227Y-70676786D01*
X142010859Y-70678273D01*
X142032488Y-70731280D01*
X142019718Y-70799973D01*
X141971838Y-70850857D01*
X141968148Y-70852936D01*
X141845103Y-70919524D01*
X141845090Y-70919533D01*
X141665212Y-71059538D01*
X141665208Y-71059541D01*
X141510814Y-71227257D01*
X141386137Y-71418091D01*
X141294569Y-71626844D01*
X141238610Y-71847820D01*
X141238608Y-71847831D01*
X141219786Y-72074993D01*
X141219786Y-72075006D01*
X141238608Y-72302168D01*
X141238610Y-72302179D01*
X141294569Y-72523155D01*
X141386137Y-72731908D01*
X141510814Y-72922742D01*
X141665208Y-73090458D01*
X141665212Y-73090461D01*
X141845090Y-73230466D01*
X141845094Y-73230469D01*
X141845096Y-73230470D01*
X141845099Y-73230472D01*
X141932118Y-73277564D01*
X141981709Y-73326783D01*
X141996817Y-73395000D01*
X141972647Y-73460556D01*
X141938115Y-73492208D01*
X141779133Y-73590097D01*
X141779124Y-73590103D01*
X141603362Y-73744793D01*
X141603361Y-73744795D01*
X141456265Y-73926969D01*
X141456264Y-73926969D01*
X141342075Y-74131377D01*
X141264072Y-74352147D01*
X141264070Y-74352155D01*
X141224500Y-74582919D01*
X141224500Y-75008433D01*
X141239382Y-75183296D01*
X141298382Y-75409889D01*
X141394824Y-75623244D01*
X141394829Y-75623252D01*
X141498111Y-75776063D01*
X141519343Y-75842629D01*
X141501216Y-75910106D01*
X141449485Y-75957071D01*
X141395376Y-75969500D01*
X137087823Y-75969500D01*
X137060784Y-75970949D01*
X137060776Y-75970949D01*
X137060773Y-75970950D01*
X137060772Y-75970950D01*
X137020964Y-75975231D01*
X136967554Y-75983885D01*
X136967552Y-75983885D01*
X136832747Y-76034166D01*
X136771422Y-76067651D01*
X136656240Y-76153876D01*
X136656228Y-76153886D01*
X135942558Y-76867557D01*
X134629669Y-78180443D01*
X134568346Y-78213928D01*
X134498654Y-78208944D01*
X134442721Y-78167072D01*
X134426048Y-78136736D01*
X134377518Y-78008774D01*
X134284332Y-77873771D01*
X134284329Y-77873768D01*
X134284327Y-77873766D01*
X134161548Y-77764993D01*
X134016291Y-77688756D01*
X133857022Y-77649500D01*
X133857021Y-77649500D01*
X133692979Y-77649500D01*
X133692978Y-77649500D01*
X133533708Y-77688756D01*
X133388451Y-77764993D01*
X133265672Y-77873766D01*
X133265666Y-77873773D01*
X133172483Y-78008771D01*
X133114312Y-78162154D01*
X133114311Y-78162157D01*
X133094539Y-78324999D01*
X133094539Y-78325000D01*
X133114311Y-78487842D01*
X133114312Y-78487845D01*
X133172483Y-78641228D01*
X133222744Y-78714043D01*
X133265668Y-78776229D01*
X133265670Y-78776231D01*
X133265672Y-78776233D01*
X133388451Y-78885006D01*
X133388452Y-78885006D01*
X133388454Y-78885008D01*
X133533705Y-78961242D01*
X133574303Y-78971248D01*
X133634683Y-79006403D01*
X133666472Y-79068622D01*
X133659577Y-79138151D01*
X133636982Y-79174390D01*
X133632807Y-79179050D01*
X133629565Y-79182668D01*
X133620619Y-79193218D01*
X133611669Y-79203773D01*
X133538551Y-79327679D01*
X133538551Y-79327680D01*
X133511967Y-79392295D01*
X133476717Y-79531789D01*
X133464858Y-79644615D01*
X133459468Y-79669971D01*
X133441864Y-79724151D01*
X133431320Y-79747833D01*
X133402836Y-79797169D01*
X133387599Y-79818141D01*
X133349488Y-79860468D01*
X133330221Y-79877816D01*
X133284124Y-79911306D01*
X133261677Y-79924265D01*
X133209639Y-79947434D01*
X133184986Y-79955445D01*
X133147790Y-79963352D01*
X133129263Y-79967290D01*
X133103482Y-79970000D01*
X133087323Y-79970000D01*
X133060284Y-79971449D01*
X133060276Y-79971449D01*
X133060273Y-79971450D01*
X133060272Y-79971450D01*
X133020464Y-79975731D01*
X132967054Y-79984385D01*
X132967052Y-79984385D01*
X132832247Y-80034666D01*
X132832244Y-80034667D01*
X132832243Y-80034668D01*
X132821904Y-80040313D01*
X132770922Y-80068151D01*
X132655740Y-80154376D01*
X132655728Y-80154386D01*
X131869296Y-80940819D01*
X131851209Y-80960956D01*
X131851209Y-80960955D01*
X131826080Y-80992139D01*
X131794433Y-81036025D01*
X131734663Y-81166899D01*
X131714978Y-81233937D01*
X131714976Y-81233942D01*
X131708896Y-81276233D01*
X131694500Y-81376362D01*
X131694500Y-81912419D01*
X131695601Y-81935990D01*
X131698856Y-81970756D01*
X131698856Y-81970758D01*
X131705442Y-82017486D01*
X131711980Y-82036603D01*
X131715047Y-82106405D01*
X131679889Y-82166785D01*
X131676879Y-82169541D01*
X131615673Y-82223765D01*
X131615666Y-82223773D01*
X131522481Y-82358774D01*
X131504707Y-82405639D01*
X131462528Y-82461341D01*
X131446392Y-82471461D01*
X131363460Y-82514987D01*
X131363451Y-82514993D01*
X131240672Y-82623766D01*
X131240666Y-82623773D01*
X131147483Y-82758771D01*
X131112150Y-82851936D01*
X131069971Y-82907638D01*
X131025885Y-82928360D01*
X130983709Y-82938756D01*
X130983700Y-82938759D01*
X130975776Y-82942918D01*
X130907267Y-82956639D01*
X130860534Y-82942916D01*
X130828795Y-82926258D01*
X130828787Y-82926256D01*
X130669522Y-82887000D01*
X130669521Y-82887000D01*
X130505479Y-82887000D01*
X130505478Y-82887000D01*
X130346208Y-82926256D01*
X130200951Y-83002493D01*
X130078172Y-83111266D01*
X130078166Y-83111273D01*
X129984983Y-83246271D01*
X129926812Y-83399654D01*
X129926811Y-83399657D01*
X129907039Y-83562499D01*
X129907039Y-83562500D01*
X129926811Y-83725342D01*
X129926812Y-83725345D01*
X129984983Y-83878728D01*
X130004646Y-83907214D01*
X130078168Y-84013729D01*
X130078170Y-84013731D01*
X130078172Y-84013733D01*
X130200951Y-84122506D01*
X130200952Y-84122506D01*
X130200954Y-84122508D01*
X130346205Y-84198742D01*
X130346207Y-84198742D01*
X130346208Y-84198743D01*
X130505478Y-84238000D01*
X130505479Y-84238000D01*
X130669522Y-84238000D01*
X130778081Y-84211242D01*
X130828795Y-84198742D01*
X130836715Y-84194584D01*
X130905223Y-84180859D01*
X130951967Y-84194584D01*
X130959888Y-84198742D01*
X130983705Y-84211242D01*
X131142978Y-84250500D01*
X131142979Y-84250500D01*
X131307022Y-84250500D01*
X131410477Y-84225000D01*
X131466295Y-84211242D01*
X131512875Y-84186794D01*
X131581382Y-84173069D01*
X131646435Y-84198561D01*
X131687380Y-84255177D01*
X131694500Y-84296591D01*
X131694500Y-85791540D01*
X131674815Y-85858579D01*
X131622011Y-85904334D01*
X131552853Y-85914278D01*
X131489297Y-85885253D01*
X131468451Y-85861982D01*
X131466102Y-85858579D01*
X131459332Y-85848771D01*
X131459328Y-85848768D01*
X131459327Y-85848766D01*
X131336546Y-85739992D01*
X131336544Y-85739990D01*
X131265444Y-85702674D01*
X131215232Y-85654090D01*
X131207128Y-85636849D01*
X131206141Y-85634248D01*
X131177518Y-85558774D01*
X131084332Y-85423771D01*
X131084329Y-85423768D01*
X131084327Y-85423766D01*
X130961548Y-85314993D01*
X130816291Y-85238756D01*
X130657022Y-85199500D01*
X130657021Y-85199500D01*
X130492979Y-85199500D01*
X130492978Y-85199500D01*
X130333708Y-85238756D01*
X130188451Y-85314993D01*
X130065672Y-85423766D01*
X130065666Y-85423773D01*
X129972483Y-85558771D01*
X129914312Y-85712154D01*
X129914311Y-85712157D01*
X129894539Y-85874999D01*
X129914311Y-86037842D01*
X129914313Y-86037850D01*
X129930476Y-86080468D01*
X129935843Y-86150131D01*
X129916585Y-86194876D01*
X129872484Y-86258768D01*
X129872483Y-86258770D01*
X129814312Y-86412154D01*
X129814311Y-86412157D01*
X129794539Y-86574999D01*
X129794539Y-86575000D01*
X129814311Y-86737842D01*
X129814312Y-86737845D01*
X129865035Y-86871591D01*
X129872483Y-86891228D01*
X129878538Y-86900000D01*
X129965668Y-87026229D01*
X129965670Y-87026231D01*
X129965672Y-87026233D01*
X130088453Y-87135007D01*
X130088455Y-87135009D01*
X130124944Y-87154160D01*
X130175156Y-87202744D01*
X130191131Y-87270763D01*
X130189806Y-87279660D01*
X130190216Y-87279710D01*
X130169539Y-87450000D01*
X130189311Y-87612842D01*
X130189312Y-87612845D01*
X130239545Y-87745299D01*
X130247483Y-87766228D01*
X130326055Y-87880059D01*
X130340668Y-87901229D01*
X130340670Y-87901231D01*
X130340672Y-87901233D01*
X130463451Y-88010006D01*
X130463452Y-88010006D01*
X130463454Y-88010008D01*
X130608705Y-88086242D01*
X130608707Y-88086242D01*
X130608708Y-88086243D01*
X130767978Y-88125500D01*
X130767979Y-88125500D01*
X130932022Y-88125500D01*
X131091291Y-88086243D01*
X131091291Y-88086242D01*
X131091295Y-88086242D01*
X131236546Y-88010008D01*
X131359332Y-87901229D01*
X131391890Y-87854059D01*
X131446172Y-87810070D01*
X131493940Y-87800500D01*
X131532020Y-87800500D01*
X131532021Y-87800500D01*
X131540824Y-87798330D01*
X131610626Y-87801399D01*
X131667689Y-87841718D01*
X131693894Y-87906487D01*
X131694500Y-87918727D01*
X131694500Y-88912177D01*
X131695748Y-88935468D01*
X131695950Y-88939227D01*
X131695950Y-88939228D01*
X131700231Y-88979036D01*
X131708885Y-89032445D01*
X131708885Y-89032447D01*
X131759166Y-89167252D01*
X131759168Y-89167257D01*
X131792653Y-89228580D01*
X131878877Y-89343761D01*
X131878881Y-89343765D01*
X131878886Y-89343771D01*
X132571975Y-90036859D01*
X132594264Y-90069288D01*
X132594600Y-90069095D01*
X132597056Y-90073350D01*
X132597570Y-90074097D01*
X132597846Y-90074718D01*
X132597849Y-90074723D01*
X132692495Y-90238655D01*
X132819157Y-90379327D01*
X132972296Y-90490589D01*
X132972300Y-90490591D01*
X133047572Y-90524104D01*
X133084819Y-90549703D01*
X133871848Y-91336733D01*
X133905333Y-91398056D01*
X133900349Y-91467748D01*
X133872910Y-91509003D01*
X133873385Y-91509396D01*
X133869637Y-91513926D01*
X133869054Y-91514803D01*
X133868416Y-91515401D01*
X133838710Y-91551309D01*
X133834777Y-91555631D01*
X132227228Y-93163181D01*
X132165905Y-93196666D01*
X132139547Y-93199500D01*
X132080354Y-93199500D01*
X132047897Y-93206398D01*
X131895197Y-93238855D01*
X131895192Y-93238857D01*
X131722270Y-93315848D01*
X131722265Y-93315851D01*
X131569129Y-93427111D01*
X131442466Y-93567785D01*
X131347821Y-93731715D01*
X131347818Y-93731722D01*
X131289327Y-93911739D01*
X131289325Y-93911749D01*
X131285303Y-93950008D01*
X131258717Y-94014622D01*
X131201419Y-94054605D01*
X131136202Y-94058332D01*
X131094646Y-94049500D01*
X130905354Y-94049500D01*
X130881337Y-94054605D01*
X130720197Y-94088855D01*
X130720192Y-94088857D01*
X130547270Y-94165848D01*
X130547265Y-94165851D01*
X130394129Y-94277111D01*
X130267466Y-94417785D01*
X130172821Y-94581715D01*
X130172818Y-94581722D01*
X130122761Y-94735784D01*
X130114326Y-94761744D01*
X130094540Y-94950000D01*
X130114326Y-95138256D01*
X130114327Y-95138259D01*
X130172818Y-95318277D01*
X130172821Y-95318284D01*
X130267467Y-95482216D01*
X130372476Y-95598840D01*
X130394129Y-95622888D01*
X130547265Y-95734148D01*
X130547270Y-95734151D01*
X130720192Y-95811142D01*
X130720197Y-95811144D01*
X130905354Y-95850500D01*
X130905355Y-95850500D01*
X131094644Y-95850500D01*
X131094646Y-95850500D01*
X131279803Y-95811144D01*
X131452730Y-95734151D01*
X131605871Y-95622888D01*
X131732533Y-95482216D01*
X131827179Y-95318284D01*
X131885674Y-95138256D01*
X131889695Y-95099992D01*
X131916277Y-95035381D01*
X131973574Y-94995396D01*
X132038794Y-94991666D01*
X132080354Y-95000500D01*
X132080356Y-95000500D01*
X132269644Y-95000500D01*
X132269646Y-95000500D01*
X132454803Y-94961144D01*
X132627730Y-94884151D01*
X132780871Y-94772888D01*
X132907533Y-94632216D01*
X133002179Y-94468284D01*
X133060674Y-94288256D01*
X133078321Y-94120343D01*
X133104904Y-94055733D01*
X133113943Y-94045646D01*
X133388625Y-93770963D01*
X133449948Y-93737479D01*
X133519640Y-93742463D01*
X133575573Y-93784335D01*
X133595786Y-93825472D01*
X133613877Y-93890631D01*
X133613881Y-93890641D01*
X133617554Y-93897570D01*
X133625923Y-93917319D01*
X133627382Y-93921808D01*
X133627386Y-93921819D01*
X133664399Y-93985926D01*
X133700532Y-94054082D01*
X133703302Y-94057342D01*
X133716186Y-94075624D01*
X133716774Y-94076644D01*
X133756126Y-94120348D01*
X133768371Y-94133947D01*
X133820297Y-94195079D01*
X133820301Y-94195082D01*
X133820881Y-94195523D01*
X133831475Y-94205271D01*
X133831577Y-94205159D01*
X133836405Y-94209506D01*
X133841567Y-94213256D01*
X133901279Y-94256640D01*
X133967570Y-94307033D01*
X133967572Y-94307034D01*
X133967575Y-94307036D01*
X133973331Y-94310499D01*
X133973226Y-94310672D01*
X133975149Y-94311801D01*
X133975414Y-94311343D01*
X133981037Y-94314589D01*
X133981040Y-94314590D01*
X133981041Y-94314591D01*
X134057108Y-94348458D01*
X134135467Y-94384711D01*
X134135472Y-94384712D01*
X134135589Y-94384752D01*
X134141155Y-94386264D01*
X134144359Y-94387304D01*
X134144367Y-94387308D01*
X134144375Y-94387309D01*
X134144376Y-94387310D01*
X134228781Y-94405251D01*
X134248009Y-94409483D01*
X134316137Y-94424479D01*
X134316140Y-94424479D01*
X134498023Y-94424479D01*
X134498025Y-94424479D01*
X134540310Y-94415490D01*
X134546479Y-94414502D01*
X134592544Y-94409493D01*
X134630186Y-94396808D01*
X134637086Y-94394919D01*
X134672901Y-94387308D01*
X134715420Y-94368376D01*
X134720808Y-94366274D01*
X134767855Y-94350423D01*
X134799057Y-94331648D01*
X134805785Y-94328143D01*
X134836227Y-94314591D01*
X134876556Y-94285288D01*
X134880997Y-94282347D01*
X134926370Y-94255049D01*
X134950415Y-94232270D01*
X134956595Y-94227136D01*
X134980864Y-94209505D01*
X135016425Y-94170008D01*
X135019828Y-94166519D01*
X135060675Y-94127828D01*
X135077401Y-94103156D01*
X135082626Y-94096485D01*
X135100493Y-94076644D01*
X135128712Y-94027765D01*
X135131075Y-94023993D01*
X135164492Y-93974709D01*
X135172632Y-93954276D01*
X135180437Y-93938174D01*
X135189884Y-93921814D01*
X135208349Y-93864980D01*
X135209706Y-93861226D01*
X135232965Y-93802854D01*
X135235949Y-93784644D01*
X135240382Y-93766392D01*
X135245131Y-93751782D01*
X135251722Y-93689056D01*
X135252191Y-93685572D01*
X135262894Y-93620296D01*
X135262086Y-93605399D01*
X135262584Y-93585726D01*
X135263819Y-93573979D01*
X135256881Y-93507971D01*
X135256637Y-93504903D01*
X135252879Y-93435572D01*
X135250530Y-93427111D01*
X135249836Y-93424611D01*
X135245995Y-93404396D01*
X135245131Y-93396178D01*
X135245131Y-93396176D01*
X135223205Y-93328695D01*
X135210338Y-93282353D01*
X135203389Y-93257322D01*
X135201511Y-93253780D01*
X135199718Y-93250399D01*
X135191342Y-93230632D01*
X135189884Y-93226144D01*
X135152868Y-93162031D01*
X135125050Y-93109561D01*
X135116733Y-93093873D01*
X135113960Y-93090609D01*
X135101081Y-93072333D01*
X135100493Y-93071314D01*
X135100492Y-93071313D01*
X135100491Y-93071311D01*
X135048896Y-93014010D01*
X134996972Y-92952880D01*
X134996384Y-92952433D01*
X134985792Y-92942686D01*
X134985691Y-92942799D01*
X134980866Y-92938454D01*
X134960635Y-92923756D01*
X134915988Y-92891317D01*
X134849698Y-92840925D01*
X134849697Y-92840924D01*
X134849695Y-92840923D01*
X134843936Y-92837458D01*
X134844038Y-92837288D01*
X134842121Y-92836163D01*
X134841859Y-92836618D01*
X134833672Y-92831892D01*
X134832184Y-92830332D01*
X134831492Y-92829926D01*
X134831018Y-92829582D01*
X134831212Y-92829313D01*
X134785452Y-92781328D01*
X134772225Y-92712722D01*
X134798188Y-92647855D01*
X134855099Y-92607323D01*
X134895664Y-92600500D01*
X135639688Y-92600500D01*
X135706727Y-92620185D01*
X135752482Y-92672989D01*
X135762426Y-92742147D01*
X135758986Y-92758281D01*
X135758995Y-92758293D01*
X136508215Y-92758293D01*
X136459871Y-92842028D01*
X136429685Y-92974284D01*
X136439822Y-93109561D01*
X136489383Y-93235840D01*
X136507289Y-93258293D01*
X135758995Y-93258293D01*
X135806569Y-93425498D01*
X135806574Y-93425511D01*
X135901568Y-93616284D01*
X136030007Y-93786364D01*
X136187507Y-93929944D01*
X136187509Y-93929946D01*
X136368708Y-94042139D01*
X136368714Y-94042142D01*
X136567448Y-94119131D01*
X136633507Y-94131479D01*
X136633507Y-93382496D01*
X136686049Y-93418319D01*
X136815679Y-93458305D01*
X136917230Y-93458305D01*
X137017649Y-93443169D01*
X137133507Y-93387374D01*
X137133507Y-93561679D01*
X137116894Y-93623678D01*
X137097822Y-93656711D01*
X137097821Y-93656713D01*
X137039327Y-93836740D01*
X137039326Y-93836744D01*
X137019540Y-94025000D01*
X137039326Y-94213256D01*
X137039327Y-94213259D01*
X137097818Y-94393277D01*
X137097821Y-94393284D01*
X137192467Y-94557216D01*
X137267508Y-94640557D01*
X137319129Y-94697888D01*
X137472265Y-94809148D01*
X137472270Y-94809151D01*
X137645192Y-94886142D01*
X137645197Y-94886144D01*
X137830354Y-94925500D01*
X137830355Y-94925500D01*
X138019644Y-94925500D01*
X138019646Y-94925500D01*
X138126573Y-94902772D01*
X138196238Y-94908088D01*
X138251972Y-94950225D01*
X138276077Y-95015805D01*
X138260900Y-95084006D01*
X138259740Y-95086061D01*
X138195400Y-95197502D01*
X138195398Y-95197506D01*
X138138126Y-95373773D01*
X138136906Y-95377528D01*
X138117120Y-95565784D01*
X138136906Y-95754040D01*
X138136907Y-95754043D01*
X138195398Y-95934061D01*
X138195401Y-95934068D01*
X138290047Y-96098000D01*
X138390128Y-96209151D01*
X138416709Y-96238672D01*
X138569845Y-96349932D01*
X138569850Y-96349935D01*
X138742772Y-96426926D01*
X138742777Y-96426928D01*
X138927934Y-96466284D01*
X138927935Y-96466284D01*
X139015571Y-96466284D01*
X139082610Y-96485969D01*
X139128365Y-96538773D01*
X139139042Y-96578841D01*
X139142358Y-96614623D01*
X139142358Y-96614625D01*
X139200678Y-96819602D01*
X139200686Y-96819622D01*
X139295679Y-97010395D01*
X139424120Y-97180477D01*
X139581620Y-97324057D01*
X139581622Y-97324059D01*
X139762821Y-97436252D01*
X139762827Y-97436255D01*
X139961561Y-97513244D01*
X140027620Y-97525592D01*
X140027620Y-96776609D01*
X140080162Y-96812432D01*
X140209792Y-96852418D01*
X140311343Y-96852418D01*
X140411762Y-96837282D01*
X140527620Y-96781487D01*
X140527620Y-97525591D01*
X140593678Y-97513244D01*
X140792412Y-97436255D01*
X140792418Y-97436252D01*
X140973617Y-97324059D01*
X140973619Y-97324057D01*
X141131119Y-97180477D01*
X141259557Y-97010399D01*
X141343641Y-96841533D01*
X141391144Y-96790296D01*
X141458807Y-96772874D01*
X141479999Y-96775462D01*
X141480353Y-96775500D01*
X141480354Y-96775500D01*
X141669642Y-96775500D01*
X141669646Y-96775500D01*
X141699721Y-96769107D01*
X141769384Y-96774422D01*
X141825119Y-96816558D01*
X141849225Y-96882138D01*
X141849500Y-96890397D01*
X141849500Y-98392255D01*
X141847775Y-98407872D01*
X141848061Y-98407899D01*
X141847326Y-98415665D01*
X141849500Y-98484814D01*
X141849500Y-98514343D01*
X141849501Y-98514360D01*
X141850368Y-98521231D01*
X141850826Y-98527050D01*
X141852290Y-98573624D01*
X141852291Y-98573627D01*
X141857880Y-98592867D01*
X141861824Y-98611911D01*
X141864336Y-98631792D01*
X141877441Y-98664893D01*
X141881490Y-98675119D01*
X141883382Y-98680647D01*
X141896381Y-98725388D01*
X141906580Y-98742634D01*
X141915138Y-98760103D01*
X141922514Y-98778732D01*
X141949898Y-98816423D01*
X141953106Y-98821307D01*
X141976827Y-98861416D01*
X141976833Y-98861424D01*
X141990990Y-98875580D01*
X142003628Y-98890376D01*
X142015405Y-98906586D01*
X142015406Y-98906587D01*
X142051309Y-98936288D01*
X142055620Y-98940210D01*
X143233213Y-100117804D01*
X143599197Y-100483788D01*
X143609022Y-100496051D01*
X143609243Y-100495869D01*
X143614214Y-100501878D01*
X143623345Y-100510452D01*
X143664635Y-100549226D01*
X143685529Y-100570120D01*
X143691011Y-100574373D01*
X143695443Y-100578157D01*
X143729418Y-100610062D01*
X143746976Y-100619714D01*
X143763233Y-100630393D01*
X143779064Y-100642673D01*
X143798737Y-100651186D01*
X143821833Y-100661182D01*
X143827077Y-100663750D01*
X143867908Y-100686197D01*
X143880523Y-100689435D01*
X143887305Y-100691177D01*
X143905719Y-100697481D01*
X143924104Y-100705438D01*
X143970157Y-100712732D01*
X143975826Y-100713906D01*
X144020981Y-100725500D01*
X144041016Y-100725500D01*
X144060413Y-100727026D01*
X144080196Y-100730160D01*
X144126584Y-100725775D01*
X144132422Y-100725500D01*
X144736375Y-100725500D01*
X144803414Y-100745185D01*
X144849169Y-100797989D01*
X144859113Y-100867147D01*
X144848757Y-100901905D01*
X144751098Y-101111335D01*
X144751094Y-101111344D01*
X144689938Y-101339586D01*
X144689936Y-101339596D01*
X144674500Y-101516034D01*
X144674500Y-101883966D01*
X144689936Y-102060403D01*
X144689938Y-102060413D01*
X144751094Y-102288655D01*
X144751096Y-102288659D01*
X144751097Y-102288663D01*
X144775000Y-102339922D01*
X144850964Y-102502828D01*
X144850965Y-102502830D01*
X144986505Y-102696402D01*
X145080142Y-102790038D01*
X145153599Y-102863495D01*
X145210061Y-102903030D01*
X145347165Y-102999032D01*
X145347167Y-102999033D01*
X145347170Y-102999035D01*
X145561337Y-103098903D01*
X145789592Y-103160063D01*
X145966034Y-103175500D01*
X146024999Y-103180659D01*
X146025000Y-103180659D01*
X146025001Y-103180659D01*
X146083966Y-103175500D01*
X146260408Y-103160063D01*
X146488663Y-103098903D01*
X146702829Y-102999035D01*
X146896401Y-102863495D01*
X147063495Y-102696401D01*
X147173426Y-102539401D01*
X147228001Y-102495778D01*
X147297500Y-102488584D01*
X147359855Y-102520106D01*
X147376571Y-102539398D01*
X147430899Y-102616987D01*
X147486506Y-102696403D01*
X147580142Y-102790038D01*
X147653599Y-102863495D01*
X147710061Y-102903030D01*
X147847165Y-102999032D01*
X147847167Y-102999033D01*
X147847170Y-102999035D01*
X148061337Y-103098903D01*
X148289592Y-103160063D01*
X148466034Y-103175500D01*
X148524999Y-103180659D01*
X148525000Y-103180659D01*
X148525001Y-103180659D01*
X148583966Y-103175500D01*
X148760408Y-103160063D01*
X148988663Y-103098903D01*
X149202829Y-102999035D01*
X149396401Y-102863495D01*
X149563495Y-102696401D01*
X149673732Y-102538965D01*
X149728306Y-102495342D01*
X149797805Y-102488148D01*
X149860159Y-102519670D01*
X149876880Y-102538967D01*
X149986886Y-102696073D01*
X149986891Y-102696079D01*
X150153917Y-102863105D01*
X150347421Y-102998600D01*
X150561507Y-103098429D01*
X150561516Y-103098433D01*
X150775000Y-103155634D01*
X150775000Y-102108018D01*
X150889801Y-102160446D01*
X150991025Y-102175000D01*
X151058975Y-102175000D01*
X151160199Y-102160446D01*
X151275000Y-102108018D01*
X151275000Y-103155633D01*
X151488483Y-103098433D01*
X151488492Y-103098429D01*
X151702577Y-102998600D01*
X151702579Y-102998599D01*
X151896073Y-102863113D01*
X151896079Y-102863108D01*
X152043331Y-102715857D01*
X152104654Y-102682372D01*
X152174346Y-102687356D01*
X152230279Y-102729228D01*
X152236551Y-102738441D01*
X152240186Y-102744334D01*
X152332288Y-102893656D01*
X152456344Y-103017712D01*
X152605666Y-103109814D01*
X152772203Y-103164999D01*
X152874991Y-103175500D01*
X154175008Y-103175499D01*
X154277797Y-103164999D01*
X154444334Y-103109814D01*
X154593656Y-103017712D01*
X154717712Y-102893656D01*
X154809814Y-102744334D01*
X154864999Y-102577797D01*
X154875500Y-102475009D01*
X154875499Y-100924992D01*
X154873800Y-100908364D01*
X154864999Y-100822203D01*
X154864998Y-100822200D01*
X154843171Y-100756330D01*
X154809814Y-100655666D01*
X154717712Y-100506344D01*
X154593656Y-100382288D01*
X154444334Y-100290186D01*
X154277797Y-100235001D01*
X154277795Y-100235000D01*
X154175016Y-100224500D01*
X154175009Y-100224500D01*
X152985453Y-100224500D01*
X152918414Y-100204815D01*
X152897772Y-100188181D01*
X152684591Y-99975000D01*
X155895006Y-99975000D01*
X155914966Y-100343142D01*
X155914967Y-100343159D01*
X155974610Y-100706960D01*
X155974616Y-100706986D01*
X156073240Y-101062199D01*
X156073245Y-101062216D01*
X156209706Y-101404710D01*
X156209715Y-101404728D01*
X156382406Y-101730458D01*
X156589307Y-102035614D01*
X156725496Y-102195948D01*
X156725497Y-102195949D01*
X158041351Y-100880095D01*
X158095456Y-100958480D01*
X158268816Y-101138966D01*
X158394865Y-101233686D01*
X157076520Y-102552031D01*
X157076520Y-102552032D01*
X157095643Y-102570147D01*
X157095655Y-102570158D01*
X157389158Y-102793274D01*
X157389175Y-102793286D01*
X157705067Y-102983350D01*
X157705080Y-102983357D01*
X158039671Y-103138155D01*
X158389068Y-103255882D01*
X158749134Y-103335138D01*
X159115655Y-103374999D01*
X159115663Y-103375000D01*
X159484337Y-103375000D01*
X159484344Y-103374999D01*
X159850865Y-103335138D01*
X160210931Y-103255882D01*
X160560328Y-103138155D01*
X160894919Y-102983357D01*
X160894932Y-102983350D01*
X161210824Y-102793286D01*
X161210841Y-102793274D01*
X161504340Y-102570161D01*
X161523479Y-102552031D01*
X160206879Y-101235431D01*
X160234180Y-101218168D01*
X160421501Y-101052216D01*
X160560511Y-100881958D01*
X161874501Y-102195948D01*
X161874502Y-102195948D01*
X162010690Y-102035615D01*
X162010701Y-102035601D01*
X162217593Y-101730458D01*
X162390284Y-101404728D01*
X162390293Y-101404710D01*
X162526754Y-101062216D01*
X162526760Y-101062199D01*
X162625383Y-100706986D01*
X162625389Y-100706960D01*
X162685032Y-100343159D01*
X162685033Y-100343142D01*
X162704994Y-99975000D01*
X162704994Y-99974997D01*
X162685033Y-99606857D01*
X162685032Y-99606840D01*
X162625389Y-99243039D01*
X162625383Y-99243013D01*
X162526756Y-98887790D01*
X162526754Y-98887783D01*
X162390293Y-98545289D01*
X162390284Y-98545271D01*
X162217593Y-98219541D01*
X162010692Y-97914385D01*
X161874502Y-97754050D01*
X161874501Y-97754049D01*
X160558647Y-99069903D01*
X160504544Y-98991520D01*
X160331184Y-98811034D01*
X160205133Y-98716313D01*
X161523478Y-97397967D01*
X161523478Y-97397966D01*
X161504356Y-97379852D01*
X161504344Y-97379841D01*
X161210841Y-97156725D01*
X161210824Y-97156713D01*
X160894932Y-96966649D01*
X160894919Y-96966642D01*
X160560328Y-96811844D01*
X160210931Y-96694117D01*
X159850865Y-96614861D01*
X159484344Y-96575000D01*
X159115655Y-96575000D01*
X158749134Y-96614861D01*
X158389068Y-96694117D01*
X158039671Y-96811844D01*
X157705080Y-96966642D01*
X157705067Y-96966649D01*
X157389175Y-97156713D01*
X157389158Y-97156725D01*
X157095657Y-97379840D01*
X157095643Y-97379852D01*
X157076520Y-97397966D01*
X157076520Y-97397968D01*
X158393120Y-98714568D01*
X158365820Y-98731832D01*
X158178499Y-98897784D01*
X158039488Y-99068040D01*
X156725497Y-97754049D01*
X156725496Y-97754050D01*
X156589314Y-97914376D01*
X156589307Y-97914386D01*
X156382406Y-98219541D01*
X156209715Y-98545271D01*
X156209706Y-98545289D01*
X156073245Y-98887783D01*
X156073243Y-98887790D01*
X155974616Y-99243013D01*
X155974610Y-99243039D01*
X155914967Y-99606840D01*
X155914966Y-99606857D01*
X155895006Y-99974997D01*
X155895006Y-99975000D01*
X152684591Y-99975000D01*
X152537418Y-99827827D01*
X152503933Y-99766504D01*
X152508917Y-99696812D01*
X152537418Y-99652465D01*
X152645651Y-99544233D01*
X153105697Y-99084188D01*
X153105697Y-99084187D01*
X153105704Y-99084181D01*
X153105704Y-99084180D01*
X153123791Y-99064044D01*
X153123791Y-99064045D01*
X153148920Y-99032861D01*
X153154041Y-99025759D01*
X153180567Y-98988974D01*
X153240338Y-98858097D01*
X153260023Y-98791058D01*
X153260024Y-98791054D01*
X153280500Y-98648638D01*
X153280500Y-91446783D01*
X153300185Y-91379744D01*
X153352989Y-91333989D01*
X153411899Y-91323004D01*
X153477185Y-91326907D01*
X153617410Y-91294682D01*
X153642956Y-91284811D01*
X153650239Y-91284205D01*
X153690602Y-91267485D01*
X153690603Y-91267486D01*
X153698225Y-91264328D01*
X153767692Y-91256860D01*
X153830172Y-91288134D01*
X153865825Y-91348223D01*
X153863332Y-91418048D01*
X153858318Y-91430736D01*
X153835607Y-91480077D01*
X153805027Y-91620654D01*
X153805026Y-91620665D01*
X153800042Y-91690355D01*
X153800042Y-91690358D01*
X153810306Y-91833868D01*
X153860489Y-91968413D01*
X153860588Y-91968677D01*
X153894073Y-92030000D01*
X153980297Y-92145181D01*
X153980301Y-92145185D01*
X153980306Y-92145191D01*
X154815819Y-92980704D01*
X154815820Y-92980704D01*
X154835956Y-92998791D01*
X154835955Y-92998791D01*
X154867139Y-93023920D01*
X154867142Y-93023922D01*
X154911026Y-93055567D01*
X155041903Y-93115338D01*
X155084675Y-93127897D01*
X155108937Y-93135022D01*
X155108942Y-93135023D01*
X155108946Y-93135024D01*
X155251362Y-93155500D01*
X155251365Y-93155500D01*
X155333967Y-93155500D01*
X155333969Y-93155500D01*
X155432589Y-93145787D01*
X155480041Y-93136348D01*
X155564003Y-93110877D01*
X155633870Y-93110254D01*
X155635957Y-93110866D01*
X155719959Y-93136348D01*
X155767411Y-93145787D01*
X155866031Y-93155500D01*
X155866033Y-93155500D01*
X158162173Y-93155500D01*
X158162177Y-93155500D01*
X158189216Y-93154051D01*
X158189223Y-93154050D01*
X158189227Y-93154050D01*
X158189228Y-93154050D01*
X158229036Y-93149769D01*
X158282448Y-93141114D01*
X158417257Y-93090832D01*
X158478580Y-93057347D01*
X158593761Y-92971123D01*
X159155697Y-92409188D01*
X159155697Y-92409187D01*
X159155704Y-92409181D01*
X159155704Y-92409180D01*
X159173791Y-92389044D01*
X159173791Y-92389045D01*
X159198920Y-92357861D01*
X159206065Y-92347952D01*
X159230567Y-92313974D01*
X159290338Y-92183097D01*
X159310023Y-92116058D01*
X159310024Y-92116054D01*
X159330500Y-91973638D01*
X159330500Y-91739452D01*
X159350185Y-91672413D01*
X159402989Y-91626658D01*
X159472147Y-91616714D01*
X159535703Y-91645739D01*
X159542181Y-91651771D01*
X160513181Y-92622771D01*
X160546666Y-92684094D01*
X160549500Y-92710452D01*
X160549500Y-93001312D01*
X160529815Y-93068351D01*
X160517650Y-93084284D01*
X160442466Y-93167784D01*
X160347821Y-93331715D01*
X160347818Y-93331722D01*
X160295486Y-93492785D01*
X160289326Y-93511744D01*
X160269540Y-93700000D01*
X160289326Y-93888256D01*
X160289327Y-93888259D01*
X160347820Y-94068284D01*
X160359204Y-94088001D01*
X160375675Y-94155901D01*
X160359204Y-94211999D01*
X160347820Y-94231715D01*
X160290057Y-94409493D01*
X160289326Y-94411744D01*
X160269540Y-94600000D01*
X160289326Y-94788256D01*
X160289327Y-94788259D01*
X160347821Y-94968285D01*
X160350464Y-94974221D01*
X160347790Y-94975411D01*
X160361240Y-95030950D01*
X160348353Y-95074839D01*
X160350464Y-95075779D01*
X160347821Y-95081714D01*
X160297450Y-95236740D01*
X160289326Y-95261744D01*
X160269540Y-95450000D01*
X160289326Y-95638256D01*
X160289327Y-95638259D01*
X160347818Y-95818277D01*
X160347821Y-95818284D01*
X160442467Y-95982216D01*
X160546619Y-96097888D01*
X160569129Y-96122888D01*
X160722265Y-96234148D01*
X160722270Y-96234151D01*
X160895192Y-96311142D01*
X160895197Y-96311144D01*
X161080354Y-96350500D01*
X161080355Y-96350500D01*
X161269644Y-96350500D01*
X161269646Y-96350500D01*
X161454803Y-96311144D01*
X161627730Y-96234151D01*
X161731822Y-96158523D01*
X161797625Y-96135045D01*
X161865679Y-96150870D01*
X161877591Y-96158526D01*
X161947264Y-96209147D01*
X161947270Y-96209151D01*
X162120192Y-96286142D01*
X162120197Y-96286144D01*
X162305354Y-96325500D01*
X162305355Y-96325500D01*
X162494644Y-96325500D01*
X162494646Y-96325500D01*
X162679803Y-96286144D01*
X162852730Y-96209151D01*
X163005871Y-96097888D01*
X163132533Y-95957216D01*
X163227179Y-95793284D01*
X163285674Y-95613256D01*
X163305460Y-95425000D01*
X163285674Y-95236744D01*
X163229658Y-95064345D01*
X163227663Y-94994504D01*
X163240200Y-94964031D01*
X163252179Y-94943284D01*
X163310674Y-94763256D01*
X163330460Y-94575000D01*
X163310674Y-94386744D01*
X163252179Y-94206716D01*
X163248013Y-94199501D01*
X163231539Y-94131604D01*
X163248013Y-94075498D01*
X163252179Y-94068284D01*
X163310674Y-93888256D01*
X163330460Y-93700000D01*
X163310674Y-93511744D01*
X163255488Y-93341901D01*
X163252181Y-93331722D01*
X163252180Y-93331721D01*
X163252179Y-93331716D01*
X163157533Y-93167784D01*
X163030871Y-93027112D01*
X163030870Y-93027111D01*
X162877734Y-92915851D01*
X162877729Y-92915848D01*
X162704807Y-92838857D01*
X162704802Y-92838855D01*
X162559001Y-92807865D01*
X162519646Y-92799500D01*
X162330354Y-92799500D01*
X162297897Y-92806398D01*
X162145197Y-92838855D01*
X162145192Y-92838857D01*
X161974936Y-92914662D01*
X161905686Y-92923947D01*
X161842410Y-92894319D01*
X161805196Y-92835185D01*
X161800500Y-92801383D01*
X161800500Y-92482742D01*
X161802224Y-92467122D01*
X161801939Y-92467095D01*
X161802673Y-92459333D01*
X161800500Y-92390172D01*
X161800500Y-92360656D01*
X161800500Y-92360650D01*
X161799631Y-92353779D01*
X161799173Y-92347952D01*
X161797710Y-92301373D01*
X161792119Y-92282130D01*
X161788173Y-92263078D01*
X161785664Y-92243208D01*
X161768504Y-92199867D01*
X161766624Y-92194379D01*
X161753618Y-92149610D01*
X161743422Y-92132370D01*
X161734861Y-92114894D01*
X161727487Y-92096270D01*
X161727486Y-92096268D01*
X161700079Y-92058545D01*
X161696888Y-92053686D01*
X161673172Y-92013583D01*
X161673165Y-92013574D01*
X161659006Y-91999415D01*
X161646368Y-91984619D01*
X161638390Y-91973638D01*
X161634594Y-91968413D01*
X161632813Y-91966940D01*
X161598688Y-91938709D01*
X161594376Y-91934786D01*
X157244192Y-87584601D01*
X157210707Y-87523278D01*
X157215691Y-87453586D01*
X157249644Y-87404107D01*
X157309332Y-87351229D01*
X157402518Y-87216226D01*
X157460688Y-87062845D01*
X157480461Y-86900000D01*
X157479422Y-86891447D01*
X157460688Y-86737157D01*
X157460688Y-86737155D01*
X157402518Y-86583774D01*
X157309332Y-86448771D01*
X157309331Y-86448770D01*
X157305071Y-86442598D01*
X157306916Y-86441324D01*
X157281923Y-86388139D01*
X157281483Y-86382431D01*
X157281365Y-86382446D01*
X157268379Y-86275500D01*
X157260688Y-86212155D01*
X157202518Y-86058774D01*
X157189440Y-86039828D01*
X157162294Y-86000500D01*
X157109332Y-85923771D01*
X157109329Y-85923768D01*
X157109327Y-85923766D01*
X156986548Y-85814993D01*
X156841291Y-85738756D01*
X156682022Y-85699500D01*
X156682021Y-85699500D01*
X156517979Y-85699500D01*
X156517978Y-85699500D01*
X156358708Y-85738756D01*
X156213451Y-85814993D01*
X156090669Y-85923768D01*
X156045039Y-85989874D01*
X155990755Y-86033863D01*
X155972668Y-86039828D01*
X155935742Y-86048930D01*
X155867518Y-86084737D01*
X155799010Y-86098462D01*
X155733957Y-86072969D01*
X155722208Y-86062617D01*
X155714475Y-86054883D01*
X155708986Y-86050625D01*
X155704561Y-86046847D01*
X155670582Y-86014938D01*
X155670580Y-86014936D01*
X155670577Y-86014935D01*
X155653029Y-86005288D01*
X155636763Y-85994604D01*
X155620936Y-85982327D01*
X155620935Y-85982326D01*
X155620933Y-85982325D01*
X155578168Y-85963818D01*
X155572922Y-85961248D01*
X155532093Y-85938803D01*
X155532092Y-85938802D01*
X155512693Y-85933822D01*
X155494281Y-85927518D01*
X155475898Y-85919562D01*
X155475892Y-85919560D01*
X155429874Y-85912272D01*
X155424152Y-85911087D01*
X155379021Y-85899500D01*
X155379019Y-85899500D01*
X155358984Y-85899500D01*
X155339586Y-85897973D01*
X155332162Y-85896797D01*
X155319805Y-85894840D01*
X155319804Y-85894840D01*
X155273416Y-85899225D01*
X155267578Y-85899500D01*
X154410452Y-85899500D01*
X154343413Y-85879815D01*
X154322771Y-85863181D01*
X153450803Y-84991212D01*
X153440980Y-84978950D01*
X153440759Y-84979134D01*
X153435786Y-84973123D01*
X153385364Y-84925773D01*
X153374919Y-84915328D01*
X153364475Y-84904883D01*
X153358986Y-84900625D01*
X153354561Y-84896847D01*
X153320582Y-84864938D01*
X153320580Y-84864936D01*
X153320577Y-84864935D01*
X153303029Y-84855288D01*
X153286763Y-84844604D01*
X153270933Y-84832325D01*
X153228168Y-84813818D01*
X153222922Y-84811248D01*
X153182093Y-84788803D01*
X153182092Y-84788802D01*
X153162693Y-84783822D01*
X153144281Y-84777518D01*
X153125898Y-84769562D01*
X153125892Y-84769560D01*
X153079874Y-84762272D01*
X153074152Y-84761087D01*
X153029021Y-84749500D01*
X153029019Y-84749500D01*
X153008984Y-84749500D01*
X152989586Y-84747973D01*
X152982162Y-84746797D01*
X152969805Y-84744840D01*
X152969804Y-84744840D01*
X152923416Y-84749225D01*
X152917578Y-84749500D01*
X151522093Y-84749500D01*
X151455054Y-84729815D01*
X151409299Y-84677011D01*
X151399355Y-84607853D01*
X151404162Y-84587182D01*
X151429573Y-84508973D01*
X151460674Y-84413256D01*
X151480460Y-84225000D01*
X151460674Y-84036744D01*
X151402179Y-83856716D01*
X151307533Y-83692784D01*
X151235443Y-83612719D01*
X151205213Y-83549727D01*
X151213839Y-83480392D01*
X151258580Y-83426726D01*
X151269953Y-83419958D01*
X151336546Y-83385008D01*
X151459332Y-83276229D01*
X151552518Y-83141226D01*
X151561627Y-83117204D01*
X151603802Y-83061502D01*
X151647894Y-83040777D01*
X151666295Y-83036242D01*
X151811546Y-82960008D01*
X151934332Y-82851229D01*
X152027518Y-82716226D01*
X152076608Y-82586784D01*
X152118785Y-82531084D01*
X152134921Y-82520963D01*
X152192357Y-82490819D01*
X152315143Y-82382040D01*
X152408329Y-82247037D01*
X152426168Y-82200000D01*
X161019540Y-82200000D01*
X161039326Y-82388256D01*
X161039327Y-82388259D01*
X161097818Y-82568277D01*
X161097821Y-82568284D01*
X161192463Y-82732211D01*
X161194632Y-82735195D01*
X161195352Y-82737214D01*
X161195716Y-82737844D01*
X161195600Y-82737910D01*
X161218114Y-82801000D01*
X161202292Y-82869055D01*
X161201705Y-82870084D01*
X161122820Y-83006718D01*
X161122818Y-83006722D01*
X161078310Y-83143705D01*
X161064326Y-83186744D01*
X161044540Y-83375000D01*
X161064326Y-83563256D01*
X161064327Y-83563259D01*
X161122818Y-83743277D01*
X161122821Y-83743284D01*
X161217467Y-83907216D01*
X161313372Y-84013729D01*
X161344129Y-84047888D01*
X161497265Y-84159148D01*
X161497270Y-84159151D01*
X161670192Y-84236142D01*
X161670197Y-84236144D01*
X161855354Y-84275500D01*
X161855355Y-84275500D01*
X162044644Y-84275500D01*
X162044646Y-84275500D01*
X162229803Y-84236144D01*
X162402730Y-84159151D01*
X162555871Y-84047888D01*
X162682533Y-83907216D01*
X162777179Y-83743284D01*
X162835674Y-83563256D01*
X162855460Y-83375000D01*
X162835674Y-83186744D01*
X162777179Y-83006716D01*
X162682533Y-82842784D01*
X162682530Y-82842781D01*
X162680369Y-82839806D01*
X162679648Y-82837787D01*
X162679284Y-82837156D01*
X162679399Y-82837089D01*
X162656885Y-82774001D01*
X162672705Y-82705946D01*
X162673215Y-82705053D01*
X162752179Y-82568284D01*
X162810674Y-82388256D01*
X162830460Y-82200000D01*
X162810674Y-82011744D01*
X162752179Y-81831716D01*
X162657533Y-81667784D01*
X162530871Y-81527112D01*
X162530870Y-81527111D01*
X162377734Y-81415851D01*
X162377729Y-81415848D01*
X162204807Y-81338857D01*
X162204802Y-81338855D01*
X162059001Y-81307865D01*
X162019646Y-81299500D01*
X161830354Y-81299500D01*
X161797897Y-81306398D01*
X161645197Y-81338855D01*
X161645192Y-81338857D01*
X161472270Y-81415848D01*
X161472265Y-81415851D01*
X161319129Y-81527111D01*
X161192466Y-81667785D01*
X161097821Y-81831715D01*
X161097818Y-81831722D01*
X161039327Y-82011740D01*
X161039326Y-82011744D01*
X161019540Y-82200000D01*
X152426168Y-82200000D01*
X152466499Y-82093656D01*
X152486272Y-81930811D01*
X152484274Y-81914360D01*
X152474240Y-81831716D01*
X152466499Y-81767966D01*
X152408329Y-81614585D01*
X152315143Y-81479582D01*
X152315140Y-81479579D01*
X152315138Y-81479577D01*
X152192359Y-81370804D01*
X152181121Y-81364906D01*
X152047106Y-81294569D01*
X151996510Y-81282098D01*
X151935468Y-81267052D01*
X151875088Y-81231895D01*
X151843300Y-81169675D01*
X151850196Y-81100147D01*
X151893588Y-81045384D01*
X151907523Y-81036856D01*
X151911046Y-81035008D01*
X152033832Y-80926229D01*
X152127018Y-80791226D01*
X152185188Y-80637845D01*
X152204961Y-80475000D01*
X152185188Y-80312155D01*
X152127018Y-80158774D01*
X152033832Y-80023771D01*
X152033829Y-80023768D01*
X152033827Y-80023766D01*
X151911048Y-79914993D01*
X151765791Y-79838756D01*
X151606522Y-79799500D01*
X151606521Y-79799500D01*
X151554500Y-79799500D01*
X151487461Y-79779815D01*
X151441706Y-79727011D01*
X151430500Y-79675500D01*
X151430500Y-79304500D01*
X151450185Y-79237461D01*
X151502989Y-79191706D01*
X151554500Y-79180500D01*
X152887173Y-79180500D01*
X152887177Y-79180500D01*
X152914216Y-79179051D01*
X152914223Y-79179050D01*
X152914227Y-79179050D01*
X152914228Y-79179050D01*
X152954036Y-79174769D01*
X152956375Y-79174390D01*
X153007448Y-79166114D01*
X153142257Y-79115832D01*
X153203580Y-79082347D01*
X153318761Y-78996123D01*
X153580697Y-78734188D01*
X153580697Y-78734187D01*
X153580704Y-78734181D01*
X153580704Y-78734180D01*
X153598791Y-78714044D01*
X153598791Y-78714045D01*
X153623920Y-78682861D01*
X153628362Y-78676699D01*
X153655567Y-78638974D01*
X153715338Y-78508097D01*
X153735023Y-78441058D01*
X153735024Y-78441054D01*
X153755500Y-78298638D01*
X153755500Y-76962823D01*
X153754051Y-76935784D01*
X153749769Y-76895964D01*
X153741114Y-76842552D01*
X153690832Y-76707743D01*
X153657347Y-76646420D01*
X153571123Y-76531239D01*
X153571117Y-76531233D01*
X153571113Y-76531228D01*
X153184181Y-76144296D01*
X153184180Y-76144296D01*
X153164044Y-76126209D01*
X153164045Y-76126209D01*
X153132861Y-76101080D01*
X153088974Y-76069433D01*
X152958100Y-76009663D01*
X152891063Y-75989978D01*
X152891057Y-75989976D01*
X152805604Y-75977690D01*
X152748638Y-75969500D01*
X152748636Y-75969500D01*
X151304224Y-75969500D01*
X151237185Y-75949815D01*
X151191430Y-75897011D01*
X151181486Y-75827853D01*
X151207747Y-75767601D01*
X151237737Y-75730458D01*
X151243735Y-75723030D01*
X151357926Y-75518619D01*
X151435929Y-75297849D01*
X151475500Y-75067072D01*
X151475500Y-74775000D01*
X152819540Y-74775000D01*
X152839326Y-74963256D01*
X152839327Y-74963259D01*
X152897818Y-75143277D01*
X152897821Y-75143284D01*
X152992467Y-75307216D01*
X153096619Y-75422888D01*
X153119129Y-75447888D01*
X153272265Y-75559148D01*
X153272270Y-75559151D01*
X153445192Y-75636142D01*
X153445197Y-75636144D01*
X153630354Y-75675500D01*
X153630355Y-75675500D01*
X153819644Y-75675500D01*
X153819646Y-75675500D01*
X154004803Y-75636144D01*
X154177730Y-75559151D01*
X154330871Y-75447888D01*
X154457533Y-75307216D01*
X154552179Y-75143284D01*
X154610674Y-74963256D01*
X154630460Y-74775000D01*
X154610674Y-74586744D01*
X154552179Y-74406716D01*
X154457533Y-74242784D01*
X154330871Y-74102112D01*
X154330870Y-74102111D01*
X154177734Y-73990851D01*
X154177729Y-73990848D01*
X154142134Y-73975000D01*
X155895006Y-73975000D01*
X155914966Y-74343142D01*
X155914967Y-74343159D01*
X155974610Y-74706960D01*
X155974616Y-74706986D01*
X156073243Y-75062209D01*
X156073245Y-75062216D01*
X156209706Y-75404710D01*
X156209715Y-75404728D01*
X156382406Y-75730458D01*
X156589307Y-76035614D01*
X156725496Y-76195948D01*
X156725497Y-76195949D01*
X158041351Y-74880095D01*
X158095456Y-74958480D01*
X158268816Y-75138966D01*
X158394865Y-75233686D01*
X157076520Y-76552031D01*
X157076520Y-76552032D01*
X157095643Y-76570147D01*
X157095655Y-76570158D01*
X157389158Y-76793274D01*
X157389175Y-76793286D01*
X157705067Y-76983350D01*
X157705080Y-76983357D01*
X158039671Y-77138155D01*
X158389068Y-77255882D01*
X158749134Y-77335138D01*
X159115655Y-77374999D01*
X159115663Y-77375000D01*
X159484337Y-77375000D01*
X159484344Y-77374999D01*
X159850865Y-77335138D01*
X160210931Y-77255882D01*
X160560328Y-77138155D01*
X160894919Y-76983357D01*
X160894932Y-76983350D01*
X161210824Y-76793286D01*
X161210841Y-76793274D01*
X161504340Y-76570161D01*
X161523479Y-76552031D01*
X160206879Y-75235431D01*
X160234180Y-75218168D01*
X160421501Y-75052216D01*
X160560511Y-74881958D01*
X161874501Y-76195948D01*
X161874502Y-76195948D01*
X162010690Y-76035615D01*
X162010701Y-76035601D01*
X162217593Y-75730458D01*
X162390284Y-75404728D01*
X162390293Y-75404710D01*
X162526754Y-75062216D01*
X162526756Y-75062209D01*
X162625383Y-74706986D01*
X162625389Y-74706960D01*
X162685032Y-74343159D01*
X162685033Y-74343142D01*
X162704994Y-73975000D01*
X162704994Y-73974997D01*
X162685033Y-73606857D01*
X162685032Y-73606840D01*
X162625389Y-73243039D01*
X162625383Y-73243013D01*
X162526756Y-72887790D01*
X162526754Y-72887783D01*
X162390293Y-72545289D01*
X162390284Y-72545271D01*
X162217593Y-72219541D01*
X162010692Y-71914385D01*
X161874502Y-71754050D01*
X161874501Y-71754049D01*
X160558647Y-73069903D01*
X160504544Y-72991520D01*
X160331184Y-72811034D01*
X160205133Y-72716313D01*
X161523478Y-71397967D01*
X161523478Y-71397966D01*
X161504356Y-71379852D01*
X161504344Y-71379841D01*
X161210841Y-71156725D01*
X161210824Y-71156713D01*
X160894932Y-70966649D01*
X160894919Y-70966642D01*
X160560328Y-70811844D01*
X160210931Y-70694117D01*
X159850865Y-70614861D01*
X159484344Y-70575000D01*
X159115655Y-70575000D01*
X158749134Y-70614861D01*
X158389068Y-70694117D01*
X158039671Y-70811844D01*
X157705080Y-70966642D01*
X157705067Y-70966649D01*
X157389175Y-71156713D01*
X157389158Y-71156725D01*
X157095657Y-71379840D01*
X157095643Y-71379852D01*
X157076520Y-71397966D01*
X157076520Y-71397968D01*
X158393120Y-72714568D01*
X158365820Y-72731832D01*
X158178499Y-72897784D01*
X158039488Y-73068040D01*
X156725497Y-71754049D01*
X156725496Y-71754050D01*
X156589314Y-71914376D01*
X156589307Y-71914386D01*
X156382406Y-72219541D01*
X156209715Y-72545271D01*
X156209706Y-72545289D01*
X156073245Y-72887783D01*
X156073243Y-72887790D01*
X155974616Y-73243013D01*
X155974610Y-73243039D01*
X155914967Y-73606840D01*
X155914966Y-73606857D01*
X155895006Y-73974997D01*
X155895006Y-73975000D01*
X154142134Y-73975000D01*
X154004807Y-73913857D01*
X154004802Y-73913855D01*
X153859001Y-73882865D01*
X153819646Y-73874500D01*
X153630354Y-73874500D01*
X153597897Y-73881398D01*
X153445197Y-73913855D01*
X153445192Y-73913857D01*
X153272270Y-73990848D01*
X153272265Y-73990851D01*
X153119129Y-74102111D01*
X152992466Y-74242785D01*
X152897821Y-74406715D01*
X152897818Y-74406722D01*
X152847450Y-74561740D01*
X152839326Y-74586744D01*
X152819540Y-74775000D01*
X151475500Y-74775000D01*
X151475500Y-74641572D01*
X151475500Y-74641567D01*
X151460617Y-74466703D01*
X151401617Y-74240110D01*
X151305175Y-74026755D01*
X151305170Y-74026747D01*
X151174064Y-73832768D01*
X151174060Y-73832763D01*
X151174057Y-73832759D01*
X151012044Y-73663717D01*
X150823792Y-73524487D01*
X150823787Y-73524484D01*
X150823785Y-73524483D01*
X150770532Y-73497633D01*
X150719533Y-73449875D01*
X150702450Y-73382125D01*
X150724708Y-73315896D01*
X150767339Y-73277857D01*
X150854906Y-73230469D01*
X151034794Y-73090456D01*
X151189183Y-72922745D01*
X151313862Y-72731909D01*
X151405430Y-72523155D01*
X151461390Y-72302176D01*
X151465623Y-72251092D01*
X151480214Y-72075006D01*
X151480214Y-72074993D01*
X151461391Y-71847831D01*
X151461389Y-71847820D01*
X151405430Y-71626844D01*
X151313862Y-71418091D01*
X151189185Y-71227257D01*
X151065847Y-71093277D01*
X151034794Y-71059544D01*
X151034793Y-71059543D01*
X151034791Y-71059541D01*
X151034787Y-71059538D01*
X150854909Y-70919533D01*
X150854905Y-70919530D01*
X150731851Y-70852937D01*
X150682261Y-70803717D01*
X150667153Y-70735501D01*
X150671024Y-70725000D01*
X152819540Y-70725000D01*
X152839326Y-70913256D01*
X152839327Y-70913259D01*
X152897818Y-71093277D01*
X152897821Y-71093284D01*
X152992467Y-71257216D01*
X153102879Y-71379841D01*
X153119129Y-71397888D01*
X153272265Y-71509148D01*
X153272270Y-71509151D01*
X153445197Y-71586144D01*
X153481530Y-71593866D01*
X153543010Y-71627056D01*
X153576788Y-71688219D01*
X153572137Y-71757933D01*
X153530533Y-71814067D01*
X153481536Y-71836445D01*
X153470198Y-71838855D01*
X153470192Y-71838857D01*
X153297270Y-71915848D01*
X153297265Y-71915851D01*
X153144129Y-72027111D01*
X153017466Y-72167785D01*
X152922821Y-72331715D01*
X152922818Y-72331722D01*
X152864327Y-72511740D01*
X152864326Y-72511744D01*
X152844540Y-72700000D01*
X152864326Y-72888256D01*
X152864327Y-72888259D01*
X152922818Y-73068277D01*
X152922821Y-73068284D01*
X153017467Y-73232216D01*
X153086032Y-73308365D01*
X153144129Y-73372888D01*
X153297265Y-73484148D01*
X153297270Y-73484151D01*
X153470192Y-73561142D01*
X153470197Y-73561144D01*
X153655354Y-73600500D01*
X153655355Y-73600500D01*
X153844644Y-73600500D01*
X153844646Y-73600500D01*
X154029803Y-73561144D01*
X154202730Y-73484151D01*
X154355871Y-73372888D01*
X154482533Y-73232216D01*
X154577179Y-73068284D01*
X154635674Y-72888256D01*
X154655460Y-72700000D01*
X154635674Y-72511744D01*
X154577179Y-72331716D01*
X154482533Y-72167784D01*
X154355871Y-72027112D01*
X154355870Y-72027111D01*
X154202734Y-71915851D01*
X154202729Y-71915848D01*
X154029807Y-71838857D01*
X154029800Y-71838855D01*
X153993470Y-71831133D01*
X153931988Y-71797941D01*
X153898211Y-71736778D01*
X153902863Y-71667064D01*
X153944467Y-71610931D01*
X153993468Y-71588553D01*
X154004803Y-71586144D01*
X154177730Y-71509151D01*
X154330871Y-71397888D01*
X154457533Y-71257216D01*
X154552179Y-71093284D01*
X154610674Y-70913256D01*
X154630460Y-70725000D01*
X154610674Y-70536744D01*
X154552179Y-70356716D01*
X154457533Y-70192784D01*
X154330871Y-70052112D01*
X154303108Y-70031941D01*
X154177734Y-69940851D01*
X154177729Y-69940848D01*
X154004807Y-69863857D01*
X154004802Y-69863855D01*
X153859001Y-69832865D01*
X153819646Y-69824500D01*
X153630354Y-69824500D01*
X153597897Y-69831398D01*
X153445197Y-69863855D01*
X153445192Y-69863857D01*
X153272270Y-69940848D01*
X153272265Y-69940851D01*
X153119129Y-70052111D01*
X152992466Y-70192785D01*
X152897821Y-70356715D01*
X152897818Y-70356722D01*
X152839327Y-70536740D01*
X152839326Y-70536744D01*
X152819540Y-70725000D01*
X150671024Y-70725000D01*
X150688418Y-70677821D01*
X150686772Y-70676787D01*
X150716779Y-70629029D01*
X150780456Y-70527690D01*
X150836313Y-70368059D01*
X150836313Y-70368058D01*
X150836314Y-70368056D01*
X150855249Y-70200002D01*
X150855249Y-70199997D01*
X150836314Y-70031943D01*
X150797292Y-69920426D01*
X150780456Y-69872310D01*
X150780455Y-69872309D01*
X150780454Y-69872305D01*
X150780452Y-69872302D01*
X150690481Y-69729115D01*
X150690476Y-69729109D01*
X150648548Y-69687181D01*
X150615063Y-69625858D01*
X150620047Y-69556166D01*
X150661919Y-69500233D01*
X150727383Y-69475816D01*
X150736229Y-69475500D01*
X159299500Y-69475500D01*
X159300000Y-69475500D01*
X159494602Y-69483996D01*
X159695492Y-69493284D01*
X159700690Y-69493745D01*
X159901571Y-69520192D01*
X160096057Y-69547322D01*
X160100862Y-69548188D01*
X160299710Y-69592271D01*
X160490125Y-69637057D01*
X160494535Y-69638269D01*
X160689235Y-69699657D01*
X160874516Y-69761758D01*
X160878520Y-69763256D01*
X161067458Y-69841516D01*
X161246171Y-69920426D01*
X161249671Y-69922107D01*
X161431369Y-70016693D01*
X161602024Y-70111748D01*
X161605155Y-70113616D01*
X161778059Y-70223768D01*
X161933281Y-70330097D01*
X161939275Y-70334203D01*
X161941969Y-70336156D01*
X162104774Y-70461081D01*
X162184997Y-70527697D01*
X162255227Y-70586016D01*
X162257486Y-70587985D01*
X162407011Y-70725000D01*
X162408911Y-70726741D01*
X162548258Y-70866088D01*
X162687008Y-71017507D01*
X162688982Y-71019771D01*
X162750022Y-71093277D01*
X162813917Y-71170223D01*
X162857682Y-71227259D01*
X162938833Y-71333017D01*
X162940794Y-71335721D01*
X163051229Y-71496936D01*
X163087952Y-71554579D01*
X163161382Y-71669843D01*
X163163257Y-71672986D01*
X163258309Y-71843636D01*
X163352870Y-72025285D01*
X163354585Y-72028855D01*
X163415929Y-72167785D01*
X163433489Y-72207555D01*
X163511738Y-72396468D01*
X163513244Y-72400492D01*
X163575346Y-72585779D01*
X163636724Y-72780446D01*
X163637947Y-72784896D01*
X163682737Y-72975331D01*
X163726805Y-73174109D01*
X163727680Y-73178965D01*
X163754816Y-73373495D01*
X163781250Y-73574279D01*
X163781714Y-73579511D01*
X163791009Y-73780535D01*
X163799500Y-73975000D01*
X163799500Y-99975000D01*
X163791009Y-100169464D01*
X163781714Y-100370487D01*
X163781250Y-100375719D01*
X163754816Y-100576504D01*
X163727680Y-100771033D01*
X163726805Y-100775889D01*
X163682729Y-100974707D01*
X163637950Y-101165092D01*
X163636727Y-101169542D01*
X163575325Y-101364287D01*
X163513251Y-101549489D01*
X163511745Y-101553513D01*
X163433475Y-101742477D01*
X163354594Y-101921125D01*
X163352871Y-101924711D01*
X163258304Y-102106372D01*
X163163268Y-102276994D01*
X163161393Y-102280137D01*
X163051225Y-102453069D01*
X162940790Y-102614282D01*
X162938828Y-102616987D01*
X162813905Y-102779791D01*
X162688998Y-102930211D01*
X162687010Y-102932490D01*
X162548235Y-103083935D01*
X162408935Y-103223235D01*
X162257490Y-103362010D01*
X162255211Y-103363998D01*
X162104791Y-103488905D01*
X161941987Y-103613828D01*
X161939282Y-103615790D01*
X161778069Y-103726225D01*
X161605137Y-103836393D01*
X161601994Y-103838268D01*
X161431372Y-103933304D01*
X161249711Y-104027871D01*
X161246125Y-104029594D01*
X161067477Y-104108475D01*
X160878513Y-104186745D01*
X160874489Y-104188251D01*
X160689287Y-104250325D01*
X160494542Y-104311727D01*
X160490092Y-104312950D01*
X160299707Y-104357729D01*
X160100889Y-104401805D01*
X160096033Y-104402680D01*
X159901504Y-104429816D01*
X159700719Y-104456250D01*
X159695487Y-104456714D01*
X159494464Y-104466009D01*
X159300000Y-104474500D01*
X140752847Y-104474500D01*
X140685808Y-104454815D01*
X140640053Y-104402011D01*
X140630109Y-104332853D01*
X140659134Y-104269297D01*
X140660697Y-104267528D01*
X140782533Y-104132216D01*
X140877179Y-103968284D01*
X140935674Y-103788256D01*
X140955460Y-103600000D01*
X140935674Y-103411744D01*
X140877179Y-103231716D01*
X140782533Y-103067784D01*
X140655871Y-102927112D01*
X140622721Y-102903027D01*
X140502734Y-102815851D01*
X140502729Y-102815848D01*
X140329807Y-102738857D01*
X140329802Y-102738855D01*
X140294436Y-102731338D01*
X141012588Y-102731338D01*
X141042863Y-102903032D01*
X141111916Y-103063116D01*
X141111917Y-103063118D01*
X141111919Y-103063121D01*
X141195582Y-103175499D01*
X141216027Y-103202961D01*
X141349581Y-103315027D01*
X141505380Y-103393272D01*
X141675024Y-103433478D01*
X141675026Y-103433478D01*
X141805624Y-103433478D01*
X141805631Y-103433478D01*
X141935359Y-103418315D01*
X142099188Y-103358686D01*
X142244849Y-103262883D01*
X142364491Y-103136071D01*
X142451662Y-102985085D01*
X142501664Y-102818066D01*
X142511802Y-102644018D01*
X142481527Y-102472324D01*
X142412474Y-102312240D01*
X142394922Y-102288664D01*
X142325898Y-102195949D01*
X142308363Y-102172395D01*
X142229680Y-102106372D01*
X142174809Y-102060329D01*
X142174807Y-102060328D01*
X142019013Y-101982085D01*
X142019011Y-101982084D01*
X142019010Y-101982084D01*
X141849366Y-101941878D01*
X141718759Y-101941878D01*
X141605247Y-101955145D01*
X141589030Y-101957041D01*
X141589027Y-101957042D01*
X141425203Y-102016669D01*
X141425199Y-102016671D01*
X141279543Y-102112470D01*
X141279542Y-102112471D01*
X141159901Y-102239281D01*
X141159898Y-102239287D01*
X141072729Y-102390268D01*
X141022726Y-102557288D01*
X141022725Y-102557294D01*
X141014220Y-102703313D01*
X141012588Y-102731338D01*
X140294436Y-102731338D01*
X140162594Y-102703315D01*
X140144646Y-102699500D01*
X139955354Y-102699500D01*
X139937406Y-102703315D01*
X139770197Y-102738855D01*
X139770192Y-102738857D01*
X139597270Y-102815848D01*
X139597265Y-102815851D01*
X139444129Y-102927111D01*
X139317466Y-103067785D01*
X139222821Y-103231715D01*
X139222818Y-103231722D01*
X139166369Y-103405455D01*
X139164326Y-103411744D01*
X139144540Y-103600000D01*
X139164326Y-103788256D01*
X139164327Y-103788259D01*
X139222818Y-103968277D01*
X139222821Y-103968284D01*
X139317467Y-104132216D01*
X139381334Y-104203147D01*
X139439303Y-104267528D01*
X139469533Y-104330519D01*
X139460908Y-104399854D01*
X139416167Y-104453520D01*
X139349514Y-104474478D01*
X139347153Y-104474500D01*
X133300000Y-104474500D01*
X133105535Y-104466009D01*
X132904511Y-104456714D01*
X132899279Y-104456250D01*
X132698495Y-104429816D01*
X132503965Y-104402680D01*
X132499109Y-104401805D01*
X132300302Y-104357731D01*
X132269694Y-104350532D01*
X132109906Y-104312950D01*
X132105456Y-104311727D01*
X131910712Y-104250325D01*
X131725509Y-104188251D01*
X131721484Y-104186745D01*
X131532522Y-104108475D01*
X131496386Y-104092519D01*
X131353859Y-104029587D01*
X131350304Y-104027879D01*
X131225436Y-103962877D01*
X131168627Y-103933304D01*
X130998004Y-103838268D01*
X130994861Y-103836393D01*
X130821930Y-103726225D01*
X130660716Y-103615790D01*
X130658011Y-103613828D01*
X130495208Y-103488905D01*
X130402281Y-103411740D01*
X130344775Y-103363987D01*
X130342531Y-103362030D01*
X130267233Y-103293032D01*
X130191064Y-103223235D01*
X130051764Y-103083935D01*
X129973966Y-102999035D01*
X129912964Y-102932462D01*
X129911017Y-102930230D01*
X129786093Y-102779790D01*
X129758884Y-102744331D01*
X129661168Y-102616984D01*
X129659208Y-102614282D01*
X129548774Y-102453069D01*
X129438605Y-102280137D01*
X129436739Y-102277010D01*
X129341693Y-102106368D01*
X129317770Y-102060413D01*
X129247106Y-101924670D01*
X129245424Y-101921166D01*
X129166524Y-101742477D01*
X129088249Y-101553504D01*
X129086747Y-101549489D01*
X129044569Y-101423647D01*
X129024674Y-101364287D01*
X128963265Y-101169522D01*
X128962053Y-101165111D01*
X128917269Y-100974701D01*
X128873188Y-100775862D01*
X128872322Y-100771057D01*
X128845183Y-100576504D01*
X128818745Y-100375690D01*
X128818284Y-100370487D01*
X128817020Y-100343142D01*
X128808996Y-100169601D01*
X128800500Y-99975000D01*
X129895006Y-99975000D01*
X129914966Y-100343142D01*
X129914967Y-100343159D01*
X129974610Y-100706960D01*
X129974616Y-100706986D01*
X130073240Y-101062199D01*
X130073245Y-101062216D01*
X130209706Y-101404710D01*
X130209715Y-101404728D01*
X130382406Y-101730458D01*
X130589307Y-102035614D01*
X130725496Y-102195948D01*
X130725497Y-102195949D01*
X132041351Y-100880095D01*
X132095456Y-100958480D01*
X132268816Y-101138966D01*
X132394865Y-101233685D01*
X131076520Y-102552031D01*
X131076520Y-102552032D01*
X131095643Y-102570147D01*
X131095655Y-102570158D01*
X131389158Y-102793274D01*
X131389175Y-102793286D01*
X131705067Y-102983350D01*
X131705080Y-102983357D01*
X132039671Y-103138155D01*
X132389068Y-103255882D01*
X132749134Y-103335138D01*
X133115655Y-103374999D01*
X133115663Y-103375000D01*
X133484337Y-103375000D01*
X133484344Y-103374999D01*
X133850865Y-103335138D01*
X134210931Y-103255882D01*
X134560328Y-103138155D01*
X134894919Y-102983357D01*
X134894932Y-102983350D01*
X135210824Y-102793286D01*
X135210841Y-102793274D01*
X135504343Y-102570159D01*
X135504347Y-102570156D01*
X135632138Y-102449106D01*
X135694345Y-102417294D01*
X135763876Y-102424163D01*
X135818656Y-102467534D01*
X135841291Y-102533635D01*
X135841203Y-102546339D01*
X135832282Y-102699500D01*
X135832060Y-102703315D01*
X135845545Y-102779790D01*
X135860304Y-102863494D01*
X135862335Y-102875009D01*
X135931388Y-103035093D01*
X135931389Y-103035095D01*
X135931391Y-103035098D01*
X136006566Y-103136074D01*
X136035499Y-103174938D01*
X136169053Y-103287004D01*
X136324852Y-103365249D01*
X136494496Y-103405455D01*
X136494498Y-103405455D01*
X136625096Y-103405455D01*
X136625103Y-103405455D01*
X136754831Y-103390292D01*
X136918660Y-103330663D01*
X137064321Y-103234860D01*
X137183963Y-103108048D01*
X137271134Y-102957062D01*
X137321136Y-102790043D01*
X137331274Y-102615995D01*
X137300999Y-102444301D01*
X137231946Y-102284217D01*
X137198495Y-102239285D01*
X137127834Y-102144371D01*
X136994281Y-102032306D01*
X136994279Y-102032305D01*
X136838485Y-101954062D01*
X136838483Y-101954061D01*
X136838482Y-101954061D01*
X136668838Y-101913855D01*
X136538231Y-101913855D01*
X136424719Y-101927122D01*
X136408502Y-101929018D01*
X136408498Y-101929019D01*
X136336402Y-101955260D01*
X136266673Y-101959691D01*
X136205617Y-101925720D01*
X136172620Y-101864133D01*
X136178158Y-101794483D01*
X136191359Y-101769150D01*
X136217596Y-101730453D01*
X136390284Y-101404728D01*
X136390293Y-101404710D01*
X136526754Y-101062216D01*
X136526760Y-101062199D01*
X136617141Y-100736672D01*
X140624864Y-100736672D01*
X140655139Y-100908366D01*
X140724192Y-101068450D01*
X140724193Y-101068452D01*
X140724195Y-101068455D01*
X140799452Y-101169542D01*
X140828303Y-101208295D01*
X140961857Y-101320361D01*
X141117656Y-101398606D01*
X141287300Y-101438812D01*
X141287302Y-101438812D01*
X141417900Y-101438812D01*
X141417907Y-101438812D01*
X141547635Y-101423649D01*
X141711464Y-101364020D01*
X141857125Y-101268217D01*
X141976767Y-101141405D01*
X142063938Y-100990419D01*
X142113940Y-100823400D01*
X142124078Y-100649352D01*
X142093803Y-100477658D01*
X142024750Y-100317574D01*
X142004360Y-100290186D01*
X141920638Y-100177728D01*
X141787085Y-100065663D01*
X141787083Y-100065662D01*
X141631289Y-99987419D01*
X141631287Y-99987418D01*
X141631286Y-99987418D01*
X141461642Y-99947212D01*
X141331035Y-99947212D01*
X141217523Y-99960479D01*
X141201306Y-99962375D01*
X141201303Y-99962376D01*
X141037479Y-100022003D01*
X141037475Y-100022005D01*
X140891819Y-100117804D01*
X140891818Y-100117805D01*
X140772177Y-100244615D01*
X140772174Y-100244621D01*
X140685005Y-100395602D01*
X140635002Y-100562622D01*
X140635001Y-100562628D01*
X140626593Y-100706986D01*
X140624864Y-100736672D01*
X136617141Y-100736672D01*
X136625383Y-100706986D01*
X136625385Y-100706978D01*
X136641937Y-100606018D01*
X136672208Y-100543046D01*
X136731719Y-100506437D01*
X136801575Y-100507813D01*
X136809098Y-100510452D01*
X136921002Y-100553803D01*
X136987061Y-100566151D01*
X136987061Y-99817168D01*
X137039603Y-99852991D01*
X137169233Y-99892977D01*
X137270784Y-99892977D01*
X137371203Y-99877841D01*
X137487061Y-99822046D01*
X137487061Y-100566150D01*
X137553119Y-100553803D01*
X137751853Y-100476814D01*
X137751859Y-100476811D01*
X137933058Y-100364618D01*
X137933060Y-100364616D01*
X138090560Y-100221036D01*
X138218999Y-100050956D01*
X138313993Y-99860183D01*
X138313998Y-99860170D01*
X138361573Y-99692965D01*
X137612353Y-99692965D01*
X137660697Y-99609230D01*
X137690883Y-99476974D01*
X137680746Y-99341697D01*
X137631185Y-99215418D01*
X137613279Y-99192965D01*
X138361573Y-99192965D01*
X138361573Y-99192964D01*
X138313998Y-99025759D01*
X138313993Y-99025746D01*
X138218999Y-98834973D01*
X138090560Y-98664893D01*
X137933060Y-98521313D01*
X137933058Y-98521311D01*
X137751859Y-98409118D01*
X137751850Y-98409114D01*
X137553124Y-98332128D01*
X137553119Y-98332127D01*
X137487061Y-98319778D01*
X137487061Y-99068761D01*
X137434519Y-99032939D01*
X137304889Y-98992953D01*
X137203338Y-98992953D01*
X137102919Y-99008089D01*
X136987061Y-99063883D01*
X136987061Y-98503827D01*
X137003674Y-98441827D01*
X137013389Y-98425000D01*
X137048763Y-98363731D01*
X137107258Y-98183703D01*
X137127044Y-97995447D01*
X137107258Y-97807191D01*
X137048763Y-97627163D01*
X136954117Y-97463231D01*
X136827455Y-97322559D01*
X136827454Y-97322558D01*
X136674318Y-97211298D01*
X136674313Y-97211295D01*
X136501391Y-97134304D01*
X136501386Y-97134302D01*
X136355585Y-97103312D01*
X136316230Y-97094947D01*
X136126938Y-97094947D01*
X136116264Y-97097215D01*
X136046600Y-97091899D01*
X135990866Y-97049761D01*
X135966762Y-96984181D01*
X135967165Y-96962978D01*
X135979802Y-96842749D01*
X135960016Y-96654493D01*
X135901521Y-96474465D01*
X135806875Y-96310533D01*
X135680213Y-96169861D01*
X135664612Y-96158526D01*
X135527076Y-96058600D01*
X135527071Y-96058597D01*
X135354149Y-95981606D01*
X135354144Y-95981604D01*
X135208343Y-95950614D01*
X135168988Y-95942249D01*
X135100921Y-95942249D01*
X135033882Y-95922564D01*
X134988127Y-95869760D01*
X134979033Y-95841038D01*
X134978209Y-95836631D01*
X134974900Y-95825000D01*
X135969539Y-95825000D01*
X135989311Y-95987842D01*
X135989311Y-95987843D01*
X135989312Y-95987845D01*
X136045138Y-96135045D01*
X136047483Y-96141228D01*
X136111624Y-96234151D01*
X136140668Y-96276229D01*
X136140670Y-96276231D01*
X136140672Y-96276233D01*
X136263451Y-96385006D01*
X136263452Y-96385006D01*
X136263454Y-96385008D01*
X136408705Y-96461242D01*
X136408707Y-96461242D01*
X136408708Y-96461243D01*
X136567978Y-96500500D01*
X136695539Y-96500500D01*
X136762578Y-96520185D01*
X136808333Y-96572989D01*
X136818043Y-96617626D01*
X136818635Y-96617555D01*
X136819401Y-96623868D01*
X136819539Y-96624500D01*
X136819539Y-96625000D01*
X136839311Y-96787842D01*
X136839312Y-96787845D01*
X136897482Y-96941226D01*
X136990668Y-97076229D01*
X136990670Y-97076231D01*
X136990672Y-97076233D01*
X137113451Y-97185006D01*
X137113452Y-97185006D01*
X137113454Y-97185008D01*
X137258705Y-97261242D01*
X137258707Y-97261242D01*
X137258708Y-97261243D01*
X137417978Y-97300500D01*
X137417979Y-97300500D01*
X137582022Y-97300500D01*
X137741291Y-97261243D01*
X137741291Y-97261242D01*
X137741295Y-97261242D01*
X137886546Y-97185008D01*
X138009332Y-97076229D01*
X138102518Y-96941226D01*
X138160688Y-96787845D01*
X138180461Y-96625000D01*
X138160688Y-96462155D01*
X138102518Y-96308774D01*
X138009332Y-96173771D01*
X138009329Y-96173768D01*
X138009327Y-96173766D01*
X137886548Y-96064993D01*
X137838129Y-96039580D01*
X137741295Y-95988758D01*
X137741294Y-95988757D01*
X137741291Y-95988756D01*
X137582022Y-95949500D01*
X137582021Y-95949500D01*
X137454461Y-95949500D01*
X137387422Y-95929815D01*
X137341667Y-95877011D01*
X137331956Y-95832373D01*
X137331365Y-95832445D01*
X137330598Y-95826131D01*
X137330461Y-95825500D01*
X137330461Y-95824999D01*
X137319430Y-95734151D01*
X137310688Y-95662155D01*
X137252518Y-95508774D01*
X137251097Y-95506716D01*
X137211949Y-95450000D01*
X137159332Y-95373771D01*
X137159329Y-95373768D01*
X137159327Y-95373766D01*
X137036548Y-95264993D01*
X136891291Y-95188756D01*
X136732022Y-95149500D01*
X136732021Y-95149500D01*
X136567979Y-95149500D01*
X136567978Y-95149500D01*
X136408708Y-95188756D01*
X136263451Y-95264993D01*
X136140672Y-95373766D01*
X136140666Y-95373773D01*
X136047483Y-95508771D01*
X135989312Y-95662154D01*
X135989311Y-95662157D01*
X135969539Y-95824999D01*
X135969539Y-95825000D01*
X134974900Y-95825000D01*
X134919889Y-95631655D01*
X134919881Y-95631635D01*
X134824888Y-95440862D01*
X134696447Y-95270780D01*
X134538947Y-95127200D01*
X134538945Y-95127198D01*
X134357746Y-95015005D01*
X134357737Y-95015001D01*
X134159011Y-94938015D01*
X134159006Y-94938014D01*
X134092948Y-94925665D01*
X134092948Y-95674648D01*
X134040406Y-95638826D01*
X133910776Y-95598840D01*
X133809225Y-95598840D01*
X133708806Y-95613976D01*
X133592948Y-95669770D01*
X133592948Y-94925665D01*
X133526889Y-94938014D01*
X133526884Y-94938015D01*
X133328158Y-95015001D01*
X133328149Y-95015005D01*
X133146950Y-95127198D01*
X133146948Y-95127200D01*
X132989448Y-95270780D01*
X132861009Y-95440860D01*
X132766015Y-95631633D01*
X132766010Y-95631646D01*
X132718435Y-95798851D01*
X132718436Y-95798852D01*
X133467656Y-95798852D01*
X133419312Y-95882587D01*
X133389126Y-96014843D01*
X133399263Y-96150120D01*
X133448824Y-96276399D01*
X133466730Y-96298852D01*
X132718435Y-96298852D01*
X132767579Y-96471574D01*
X132766165Y-96471976D01*
X132771437Y-96534546D01*
X132738732Y-96596289D01*
X132677838Y-96630548D01*
X132676604Y-96630826D01*
X132389066Y-96694118D01*
X132039671Y-96811844D01*
X131705080Y-96966642D01*
X131705067Y-96966649D01*
X131389175Y-97156713D01*
X131389158Y-97156725D01*
X131095657Y-97379840D01*
X131095643Y-97379852D01*
X131076520Y-97397966D01*
X131076520Y-97397968D01*
X132393120Y-98714568D01*
X132365820Y-98731832D01*
X132178499Y-98897784D01*
X132039488Y-99068040D01*
X130725497Y-97754049D01*
X130725496Y-97754050D01*
X130589314Y-97914376D01*
X130589307Y-97914386D01*
X130382406Y-98219541D01*
X130209715Y-98545271D01*
X130209706Y-98545289D01*
X130073245Y-98887783D01*
X130073243Y-98887790D01*
X129974616Y-99243013D01*
X129974610Y-99243039D01*
X129914967Y-99606840D01*
X129914966Y-99606857D01*
X129895006Y-99974997D01*
X129895006Y-99975000D01*
X128800500Y-99975000D01*
X128800500Y-99974500D01*
X128800500Y-73975000D01*
X129895006Y-73975000D01*
X129914966Y-74343142D01*
X129914967Y-74343159D01*
X129974610Y-74706960D01*
X129974616Y-74706986D01*
X130073243Y-75062209D01*
X130073245Y-75062216D01*
X130209706Y-75404710D01*
X130209715Y-75404728D01*
X130382406Y-75730458D01*
X130589307Y-76035614D01*
X130725496Y-76195948D01*
X130725497Y-76195949D01*
X132041351Y-74880095D01*
X132095456Y-74958480D01*
X132268816Y-75138966D01*
X132394865Y-75233686D01*
X131076520Y-76552031D01*
X131076520Y-76552032D01*
X131095643Y-76570147D01*
X131095655Y-76570158D01*
X131389158Y-76793274D01*
X131389175Y-76793286D01*
X131705067Y-76983350D01*
X131705080Y-76983357D01*
X132039671Y-77138155D01*
X132389068Y-77255882D01*
X132749134Y-77335138D01*
X133115655Y-77374999D01*
X133115663Y-77375000D01*
X133484337Y-77375000D01*
X133484344Y-77374999D01*
X133850865Y-77335138D01*
X134210931Y-77255882D01*
X134560328Y-77138155D01*
X134894919Y-76983357D01*
X134894932Y-76983350D01*
X135210824Y-76793286D01*
X135210841Y-76793274D01*
X135504340Y-76570161D01*
X135523479Y-76552031D01*
X134206879Y-75235431D01*
X134234180Y-75218168D01*
X134421501Y-75052216D01*
X134560511Y-74881958D01*
X135874501Y-76195948D01*
X135874502Y-76195948D01*
X136010690Y-76035615D01*
X136010701Y-76035601D01*
X136217593Y-75730458D01*
X136390284Y-75404728D01*
X136390293Y-75404710D01*
X136526754Y-75062216D01*
X136526756Y-75062209D01*
X136613440Y-74750000D01*
X138069540Y-74750000D01*
X138089326Y-74938256D01*
X138089327Y-74938259D01*
X138147818Y-75118277D01*
X138147821Y-75118284D01*
X138242467Y-75282216D01*
X138352778Y-75404728D01*
X138369129Y-75422888D01*
X138522265Y-75534148D01*
X138522270Y-75534151D01*
X138695192Y-75611142D01*
X138695197Y-75611144D01*
X138880354Y-75650500D01*
X138880355Y-75650500D01*
X139069644Y-75650500D01*
X139069646Y-75650500D01*
X139254803Y-75611144D01*
X139427730Y-75534151D01*
X139580871Y-75422888D01*
X139707533Y-75282216D01*
X139802179Y-75118284D01*
X139860674Y-74938256D01*
X139880460Y-74750000D01*
X139860674Y-74561744D01*
X139802179Y-74381716D01*
X139707533Y-74217784D01*
X139580871Y-74077112D01*
X139580870Y-74077111D01*
X139427734Y-73965851D01*
X139427729Y-73965848D01*
X139254807Y-73888857D01*
X139254803Y-73888856D01*
X139184659Y-73873946D01*
X139123178Y-73840753D01*
X139089401Y-73779590D01*
X139094055Y-73709875D01*
X139135659Y-73653743D01*
X139184655Y-73631368D01*
X139279803Y-73611144D01*
X139452730Y-73534151D01*
X139605871Y-73422888D01*
X139732533Y-73282216D01*
X139827179Y-73118284D01*
X139885674Y-72938256D01*
X139905460Y-72750000D01*
X139885674Y-72561744D01*
X139827179Y-72381716D01*
X139732533Y-72217784D01*
X139605871Y-72077112D01*
X139605870Y-72077111D01*
X139452734Y-71965851D01*
X139452729Y-71965848D01*
X139279807Y-71888857D01*
X139279802Y-71888855D01*
X139134001Y-71857865D01*
X139094646Y-71849500D01*
X138905354Y-71849500D01*
X138872897Y-71856398D01*
X138720197Y-71888855D01*
X138720192Y-71888857D01*
X138547270Y-71965848D01*
X138547265Y-71965851D01*
X138394129Y-72077111D01*
X138267466Y-72217785D01*
X138172821Y-72381715D01*
X138172818Y-72381722D01*
X138114327Y-72561740D01*
X138114326Y-72561744D01*
X138094540Y-72750000D01*
X138114326Y-72938256D01*
X138114327Y-72938259D01*
X138172818Y-73118277D01*
X138172821Y-73118284D01*
X138267467Y-73282216D01*
X138390695Y-73419074D01*
X138394129Y-73422888D01*
X138547265Y-73534148D01*
X138547270Y-73534151D01*
X138720192Y-73611142D01*
X138720193Y-73611142D01*
X138720197Y-73611144D01*
X138768110Y-73621328D01*
X138790338Y-73626053D01*
X138851820Y-73659245D01*
X138885597Y-73720408D01*
X138880945Y-73790123D01*
X138839341Y-73846255D01*
X138790339Y-73868633D01*
X138695197Y-73888855D01*
X138695192Y-73888857D01*
X138522270Y-73965848D01*
X138522265Y-73965851D01*
X138369129Y-74077111D01*
X138242466Y-74217785D01*
X138147821Y-74381715D01*
X138147818Y-74381722D01*
X138089327Y-74561740D01*
X138089326Y-74561744D01*
X138069540Y-74750000D01*
X136613440Y-74750000D01*
X136625383Y-74706986D01*
X136625389Y-74706960D01*
X136685032Y-74343159D01*
X136685033Y-74343142D01*
X136704994Y-73975000D01*
X136704994Y-73974997D01*
X136685033Y-73606857D01*
X136685032Y-73606840D01*
X136625389Y-73243039D01*
X136625383Y-73243013D01*
X136526756Y-72887790D01*
X136526754Y-72887783D01*
X136390293Y-72545289D01*
X136390284Y-72545271D01*
X136217593Y-72219541D01*
X136010692Y-71914385D01*
X135874502Y-71754050D01*
X135874501Y-71754049D01*
X134558647Y-73069903D01*
X134504544Y-72991520D01*
X134331184Y-72811034D01*
X134205133Y-72716313D01*
X135523478Y-71397967D01*
X135523478Y-71397966D01*
X135504356Y-71379852D01*
X135504344Y-71379841D01*
X135210841Y-71156725D01*
X135210824Y-71156713D01*
X134894932Y-70966649D01*
X134894919Y-70966642D01*
X134560328Y-70811844D01*
X134228391Y-70700000D01*
X138094540Y-70700000D01*
X138114326Y-70888256D01*
X138114327Y-70888259D01*
X138172818Y-71068277D01*
X138172821Y-71068284D01*
X138267467Y-71232216D01*
X138382406Y-71359868D01*
X138394129Y-71372888D01*
X138547265Y-71484148D01*
X138547270Y-71484151D01*
X138720192Y-71561142D01*
X138720197Y-71561144D01*
X138905354Y-71600500D01*
X138905355Y-71600500D01*
X139094644Y-71600500D01*
X139094646Y-71600500D01*
X139279803Y-71561144D01*
X139452730Y-71484151D01*
X139605871Y-71372888D01*
X139732533Y-71232216D01*
X139827179Y-71068284D01*
X139885674Y-70888256D01*
X139905460Y-70700000D01*
X139885674Y-70511744D01*
X139827179Y-70331716D01*
X139732533Y-70167784D01*
X139605871Y-70027112D01*
X139591506Y-70016675D01*
X139452734Y-69915851D01*
X139452729Y-69915848D01*
X139279807Y-69838857D01*
X139279802Y-69838855D01*
X139134001Y-69807865D01*
X139094646Y-69799500D01*
X138905354Y-69799500D01*
X138872897Y-69806398D01*
X138720197Y-69838855D01*
X138720192Y-69838857D01*
X138547270Y-69915848D01*
X138547265Y-69915851D01*
X138394129Y-70027111D01*
X138267466Y-70167785D01*
X138172821Y-70331715D01*
X138172818Y-70331722D01*
X138130789Y-70461076D01*
X138114326Y-70511744D01*
X138094540Y-70700000D01*
X134228391Y-70700000D01*
X134210931Y-70694117D01*
X133850865Y-70614861D01*
X133484344Y-70575000D01*
X133115655Y-70575000D01*
X132749134Y-70614861D01*
X132389068Y-70694117D01*
X132039671Y-70811844D01*
X131705080Y-70966642D01*
X131705067Y-70966649D01*
X131389175Y-71156713D01*
X131389158Y-71156725D01*
X131095657Y-71379840D01*
X131095643Y-71379852D01*
X131076520Y-71397966D01*
X131076520Y-71397968D01*
X132393120Y-72714568D01*
X132365820Y-72731832D01*
X132178499Y-72897784D01*
X132039488Y-73068040D01*
X130725497Y-71754049D01*
X130725496Y-71754050D01*
X130589314Y-71914376D01*
X130589307Y-71914386D01*
X130382406Y-72219541D01*
X130209715Y-72545271D01*
X130209706Y-72545289D01*
X130073245Y-72887783D01*
X130073243Y-72887790D01*
X129974616Y-73243013D01*
X129974610Y-73243039D01*
X129914967Y-73606840D01*
X129914966Y-73606857D01*
X129895006Y-73974997D01*
X129895006Y-73975000D01*
X128800500Y-73975000D01*
X128809000Y-73780296D01*
X128818284Y-73579502D01*
X128818744Y-73574313D01*
X128845190Y-73373443D01*
X128851699Y-73326783D01*
X128872323Y-73178933D01*
X128873186Y-73174146D01*
X128917275Y-72975271D01*
X128962061Y-72784860D01*
X128963265Y-72780477D01*
X129024657Y-72585764D01*
X129038230Y-72545271D01*
X129086764Y-72400464D01*
X129088248Y-72396498D01*
X129166522Y-72207527D01*
X129245437Y-72028803D01*
X129247094Y-72025353D01*
X129341704Y-71843610D01*
X129436765Y-71672945D01*
X129438600Y-71669869D01*
X129548778Y-71496923D01*
X129659227Y-71335689D01*
X129661130Y-71333064D01*
X129786091Y-71170212D01*
X129911040Y-71019742D01*
X129912949Y-71017553D01*
X130051752Y-70866076D01*
X130191076Y-70726752D01*
X130342553Y-70587949D01*
X130344742Y-70586040D01*
X130495212Y-70461091D01*
X130658064Y-70336130D01*
X130660689Y-70334227D01*
X130821923Y-70223778D01*
X130994869Y-70113600D01*
X130997945Y-70111765D01*
X131168610Y-70016704D01*
X131350353Y-69922094D01*
X131353803Y-69920437D01*
X131532527Y-69841522D01*
X131721498Y-69763248D01*
X131725464Y-69761764D01*
X131910765Y-69699657D01*
X132105477Y-69638265D01*
X132109860Y-69637061D01*
X132300271Y-69592275D01*
X132499146Y-69548186D01*
X132503933Y-69547323D01*
X132698458Y-69520188D01*
X132899313Y-69493744D01*
X132904502Y-69493284D01*
X133105296Y-69484000D01*
X133300000Y-69475500D01*
X133300500Y-69475500D01*
X141963771Y-69475500D01*
X142030810Y-69495185D01*
G37*
%TD.AperFunction*%
%TA.AperFunction,Conductor*%
G36*
X148928071Y-91595164D02*
G01*
X148958705Y-91611242D01*
X149117978Y-91650500D01*
X149117979Y-91650500D01*
X149282022Y-91650500D01*
X149415825Y-91617520D01*
X149485627Y-91620589D01*
X149542689Y-91660909D01*
X149568894Y-91725678D01*
X149569500Y-91737917D01*
X149569500Y-95989254D01*
X149549815Y-96056293D01*
X149533181Y-96076935D01*
X149451935Y-96158181D01*
X149390612Y-96191666D01*
X149364254Y-96194500D01*
X148504500Y-96194500D01*
X148437461Y-96174815D01*
X148391706Y-96122011D01*
X148380500Y-96070500D01*
X148380500Y-94762827D01*
X148379050Y-94735773D01*
X148379050Y-94735772D01*
X148374769Y-94695964D01*
X148372619Y-94682695D01*
X148366114Y-94642552D01*
X148315832Y-94507743D01*
X148282347Y-94446420D01*
X148196123Y-94331239D01*
X148196117Y-94331233D01*
X148196113Y-94331228D01*
X147289884Y-93424999D01*
X147289884Y-93425000D01*
X147264047Y-93402450D01*
X147264044Y-93402448D01*
X147264041Y-93402445D01*
X147264040Y-93402445D01*
X147223685Y-93371782D01*
X147223682Y-93371780D01*
X147166434Y-93334117D01*
X147032358Y-93281917D01*
X146964308Y-93266093D01*
X146964301Y-93266092D01*
X146820955Y-93253779D01*
X146820953Y-93253780D01*
X146679950Y-93282350D01*
X146679935Y-93282354D01*
X146614691Y-93305633D01*
X146614135Y-93305830D01*
X146486890Y-93372971D01*
X146486888Y-93372973D01*
X146434128Y-93411304D01*
X146411681Y-93424263D01*
X146359639Y-93447434D01*
X146334986Y-93455445D01*
X146297790Y-93463352D01*
X146279263Y-93467290D01*
X146253482Y-93470000D01*
X146196516Y-93470000D01*
X146170736Y-93467290D01*
X146148984Y-93462666D01*
X146115010Y-93455445D01*
X146090356Y-93447434D01*
X146038325Y-93424268D01*
X146015878Y-93411308D01*
X145969777Y-93377815D01*
X145950514Y-93360472D01*
X145912397Y-93318139D01*
X145897162Y-93297169D01*
X145888608Y-93282353D01*
X145868676Y-93247829D01*
X145858136Y-93224155D01*
X145840530Y-93169972D01*
X145835141Y-93144617D01*
X145834271Y-93136343D01*
X145829186Y-93087956D01*
X145829186Y-93062035D01*
X145830566Y-93048912D01*
X145835141Y-93005376D01*
X145840531Y-92980023D01*
X145849350Y-92952880D01*
X145858133Y-92925847D01*
X145868676Y-92902169D01*
X145874941Y-92891317D01*
X145913688Y-92824204D01*
X145917608Y-92818238D01*
X145940909Y-92786878D01*
X145964937Y-92747244D01*
X146006299Y-92661835D01*
X146036882Y-92521243D01*
X146041866Y-92451551D01*
X146031602Y-92308040D01*
X145981320Y-92173231D01*
X145981319Y-92173230D01*
X145979772Y-92169081D01*
X145981509Y-92168433D01*
X145972640Y-92106895D01*
X146001643Y-92043329D01*
X146060409Y-92005535D01*
X146095384Y-92000500D01*
X146132022Y-92000500D01*
X146261130Y-91968677D01*
X146291295Y-91961242D01*
X146331057Y-91940372D01*
X146399564Y-91926647D01*
X146446309Y-91940373D01*
X146509686Y-91973636D01*
X146533705Y-91986242D01*
X146611979Y-92005535D01*
X146692978Y-92025500D01*
X146692979Y-92025500D01*
X146857022Y-92025500D01*
X146938021Y-92005535D01*
X147016295Y-91986242D01*
X147054874Y-91965993D01*
X147123381Y-91952268D01*
X147170125Y-91965993D01*
X147205613Y-91984619D01*
X147208705Y-91986242D01*
X147367978Y-92025500D01*
X147367979Y-92025500D01*
X147532022Y-92025500D01*
X147613021Y-92005535D01*
X147691295Y-91986242D01*
X147742374Y-91959432D01*
X147810881Y-91945707D01*
X147857624Y-91959432D01*
X147884685Y-91973635D01*
X147908705Y-91986242D01*
X148067978Y-92025500D01*
X148067979Y-92025500D01*
X148232022Y-92025500D01*
X148391291Y-91986243D01*
X148391291Y-91986242D01*
X148391295Y-91986242D01*
X148536546Y-91910008D01*
X148659332Y-91801229D01*
X148752518Y-91666226D01*
X148754502Y-91660992D01*
X148796675Y-91605291D01*
X148862271Y-91581230D01*
X148928071Y-91595164D01*
G37*
%TD.AperFunction*%
%TA.AperFunction,Conductor*%
G36*
X141356587Y-92620185D02*
G01*
X141377229Y-92636819D01*
X141813181Y-93072771D01*
X141846666Y-93134094D01*
X141849500Y-93160452D01*
X141849500Y-94859601D01*
X141829815Y-94926640D01*
X141777011Y-94972395D01*
X141707853Y-94982339D01*
X141699720Y-94980892D01*
X141669646Y-94974500D01*
X141480354Y-94974500D01*
X141450282Y-94980892D01*
X141295197Y-95013855D01*
X141295192Y-95013857D01*
X141122270Y-95090848D01*
X141122265Y-95090851D01*
X140969129Y-95202111D01*
X140969128Y-95202112D01*
X140869530Y-95312726D01*
X140810043Y-95349374D01*
X140740186Y-95348043D01*
X140732588Y-95345380D01*
X140593683Y-95291569D01*
X140593678Y-95291568D01*
X140527620Y-95279219D01*
X140527620Y-96028202D01*
X140475078Y-95992380D01*
X140345448Y-95952394D01*
X140243897Y-95952394D01*
X140143478Y-95967530D01*
X140027620Y-96023324D01*
X140027620Y-95279219D01*
X139992035Y-95285871D01*
X139922520Y-95278840D01*
X139867841Y-95235342D01*
X139851319Y-95202301D01*
X139849760Y-95197503D01*
X139849759Y-95197502D01*
X139849759Y-95197500D01*
X139755113Y-95033568D01*
X139628451Y-94892896D01*
X139619155Y-94886142D01*
X139475314Y-94781635D01*
X139475309Y-94781632D01*
X139302387Y-94704641D01*
X139302382Y-94704639D01*
X139156581Y-94673649D01*
X139117226Y-94665284D01*
X138927934Y-94665284D01*
X138821006Y-94688011D01*
X138751340Y-94682695D01*
X138695607Y-94640557D01*
X138671502Y-94574977D01*
X138686679Y-94506776D01*
X138687796Y-94504797D01*
X138752179Y-94393284D01*
X138810674Y-94213256D01*
X138830460Y-94025000D01*
X138810674Y-93836744D01*
X138752179Y-93656716D01*
X138657533Y-93492784D01*
X138530871Y-93352112D01*
X138516817Y-93341901D01*
X138377734Y-93240851D01*
X138377729Y-93240848D01*
X138204807Y-93163857D01*
X138204802Y-93163855D01*
X138059001Y-93132865D01*
X138019646Y-93124500D01*
X137830354Y-93124500D01*
X137797897Y-93131398D01*
X137645197Y-93163855D01*
X137645192Y-93163857D01*
X137472269Y-93240849D01*
X137470829Y-93241681D01*
X137469755Y-93241968D01*
X137466334Y-93243492D01*
X137466092Y-93242950D01*
X137408831Y-93258293D01*
X137258799Y-93258293D01*
X137307143Y-93174558D01*
X137337329Y-93042302D01*
X137327192Y-92907025D01*
X137277631Y-92780746D01*
X137259725Y-92758293D01*
X138008019Y-92758293D01*
X138008061Y-92758236D01*
X138008646Y-92688567D01*
X138046913Y-92630108D01*
X138110710Y-92601618D01*
X138127326Y-92600500D01*
X141289548Y-92600500D01*
X141356587Y-92620185D01*
G37*
%TD.AperFunction*%
%TA.AperFunction,Conductor*%
G36*
X137098308Y-80894087D02*
G01*
X137137201Y-80917454D01*
X137213451Y-80985006D01*
X137213452Y-80985006D01*
X137213454Y-80985008D01*
X137358705Y-81061242D01*
X137359978Y-81061555D01*
X137360812Y-81062041D01*
X137365723Y-81063904D01*
X137365413Y-81064719D01*
X137420360Y-81096708D01*
X137446252Y-81137983D01*
X137447481Y-81141225D01*
X137484114Y-81194297D01*
X137540668Y-81276229D01*
X137540670Y-81276231D01*
X137540672Y-81276233D01*
X137663452Y-81385007D01*
X137703341Y-81405942D01*
X137753554Y-81454527D01*
X137761658Y-81471767D01*
X137797482Y-81566227D01*
X137867583Y-81667785D01*
X137890668Y-81701229D01*
X137890670Y-81701231D01*
X137890672Y-81701233D01*
X138013451Y-81810006D01*
X138013452Y-81810006D01*
X138013454Y-81810008D01*
X138158705Y-81886242D01*
X138158707Y-81886242D01*
X138158708Y-81886243D01*
X138206113Y-81897927D01*
X138249379Y-81908591D01*
X138309760Y-81943747D01*
X138335646Y-81985016D01*
X138347483Y-82016228D01*
X138361547Y-82036603D01*
X138440668Y-82151229D01*
X138440670Y-82151231D01*
X138440672Y-82151233D01*
X138563451Y-82260006D01*
X138563452Y-82260006D01*
X138563454Y-82260008D01*
X138708705Y-82336242D01*
X138708707Y-82336242D01*
X138708708Y-82336243D01*
X138867978Y-82375500D01*
X138867979Y-82375500D01*
X139032022Y-82375500D01*
X139191291Y-82336243D01*
X139191291Y-82336242D01*
X139191295Y-82336242D01*
X139336546Y-82260008D01*
X139459332Y-82151229D01*
X139552518Y-82016226D01*
X139610688Y-81862845D01*
X139630461Y-81700000D01*
X139610688Y-81537155D01*
X139552518Y-81383774D01*
X139547402Y-81376362D01*
X139470682Y-81265214D01*
X139448799Y-81198860D01*
X139466264Y-81131208D01*
X139517532Y-81083738D01*
X139586325Y-81071521D01*
X139645256Y-81094195D01*
X139661026Y-81105567D01*
X139791903Y-81165338D01*
X139834675Y-81177897D01*
X139858937Y-81185022D01*
X139858940Y-81185022D01*
X139858942Y-81185023D01*
X139858946Y-81185024D01*
X139923450Y-81194298D01*
X139987004Y-81223321D01*
X140024780Y-81282098D01*
X140028899Y-81302088D01*
X140039311Y-81387843D01*
X140039312Y-81387845D01*
X140097482Y-81541226D01*
X140190668Y-81676229D01*
X140190670Y-81676231D01*
X140190672Y-81676233D01*
X140313451Y-81785006D01*
X140313452Y-81785006D01*
X140313454Y-81785008D01*
X140458705Y-81861242D01*
X140458707Y-81861242D01*
X140458708Y-81861243D01*
X140566498Y-81887811D01*
X140626879Y-81922968D01*
X140652764Y-81964235D01*
X140658323Y-81978893D01*
X140672483Y-82016228D01*
X140686547Y-82036603D01*
X140765668Y-82151229D01*
X140765670Y-82151231D01*
X140765672Y-82151233D01*
X140888451Y-82260006D01*
X140888452Y-82260006D01*
X140888454Y-82260008D01*
X141029876Y-82334232D01*
X141061818Y-82365139D01*
X141127109Y-82359387D01*
X141132423Y-82360574D01*
X141192976Y-82375499D01*
X141192977Y-82375500D01*
X141192979Y-82375500D01*
X141357022Y-82375500D01*
X141516291Y-82336243D01*
X141516291Y-82336242D01*
X141516295Y-82336242D01*
X141661546Y-82260008D01*
X141784332Y-82151229D01*
X141877518Y-82016226D01*
X141891677Y-81978891D01*
X141933853Y-81923191D01*
X141999451Y-81899133D01*
X142067641Y-81914360D01*
X142095299Y-81935183D01*
X144858181Y-84698065D01*
X144891666Y-84759388D01*
X144894500Y-84785746D01*
X144894500Y-88762177D01*
X144895160Y-88774500D01*
X144895950Y-88789227D01*
X144895950Y-88789228D01*
X144900231Y-88829036D01*
X144908885Y-88882445D01*
X144908885Y-88882447D01*
X144952273Y-88998771D01*
X144959168Y-89017257D01*
X144974317Y-89045000D01*
X144991286Y-89076078D01*
X144992653Y-89078580D01*
X145078877Y-89193761D01*
X145078881Y-89193765D01*
X145078886Y-89193771D01*
X146351776Y-90466661D01*
X146385261Y-90527984D01*
X146380277Y-90597676D01*
X146338405Y-90653609D01*
X146272941Y-90678026D01*
X146234420Y-90674739D01*
X146132022Y-90649500D01*
X146132021Y-90649500D01*
X145967979Y-90649500D01*
X145967978Y-90649500D01*
X145808706Y-90688757D01*
X145721308Y-90734627D01*
X145652799Y-90748351D01*
X145606059Y-90734627D01*
X145566295Y-90713758D01*
X145566294Y-90713757D01*
X145407022Y-90674500D01*
X145407021Y-90674500D01*
X145242979Y-90674500D01*
X145242978Y-90674500D01*
X145083708Y-90713756D01*
X144938451Y-90789993D01*
X144875457Y-90845801D01*
X144812224Y-90875522D01*
X144742961Y-90866338D01*
X144705550Y-90840666D01*
X142984181Y-89119296D01*
X142984180Y-89119296D01*
X142964044Y-89101209D01*
X142964045Y-89101209D01*
X142932861Y-89076080D01*
X142888974Y-89044433D01*
X142758100Y-88984663D01*
X142757960Y-88984622D01*
X142738937Y-88979036D01*
X142691063Y-88964978D01*
X142691057Y-88964976D01*
X142605604Y-88952690D01*
X142548638Y-88944500D01*
X142548636Y-88944500D01*
X141503752Y-88944500D01*
X141436713Y-88924815D01*
X141390958Y-88872011D01*
X141381014Y-88802853D01*
X141410039Y-88739297D01*
X141430867Y-88720182D01*
X141495946Y-88672899D01*
X141530371Y-88647888D01*
X141657033Y-88507216D01*
X141751679Y-88343284D01*
X141810174Y-88163256D01*
X141829960Y-87975000D01*
X141810174Y-87786744D01*
X141751679Y-87606716D01*
X141657033Y-87442784D01*
X141530371Y-87302112D01*
X141530370Y-87302111D01*
X141377234Y-87190851D01*
X141377229Y-87190848D01*
X141204307Y-87113857D01*
X141204302Y-87113855D01*
X141058501Y-87082865D01*
X141019146Y-87074500D01*
X140829854Y-87074500D01*
X140797397Y-87081398D01*
X140644697Y-87113855D01*
X140644692Y-87113857D01*
X140471770Y-87190848D01*
X140471766Y-87190850D01*
X140349510Y-87279674D01*
X140283704Y-87303153D01*
X140215650Y-87287327D01*
X140174576Y-87249795D01*
X140159333Y-87227712D01*
X140159332Y-87227710D01*
X140159329Y-87227707D01*
X140159327Y-87227705D01*
X140036548Y-87118932D01*
X139951890Y-87074500D01*
X139891295Y-87042697D01*
X139891294Y-87042696D01*
X139891291Y-87042695D01*
X139732022Y-87003439D01*
X139732021Y-87003439D01*
X139567979Y-87003439D01*
X139567978Y-87003439D01*
X139408708Y-87042695D01*
X139263451Y-87118932D01*
X139140668Y-87227709D01*
X139110599Y-87271271D01*
X139056316Y-87315261D01*
X139038226Y-87321226D01*
X138974510Y-87336931D01*
X138974506Y-87336932D01*
X138829257Y-87413165D01*
X138829255Y-87413167D01*
X138706474Y-87521941D01*
X138706468Y-87521948D01*
X138613285Y-87656946D01*
X138555114Y-87810329D01*
X138555113Y-87810332D01*
X138535341Y-87973174D01*
X138535341Y-87973175D01*
X138554027Y-88127074D01*
X138542566Y-88195997D01*
X138495662Y-88247783D01*
X138488559Y-88251815D01*
X138463457Y-88264989D01*
X138463449Y-88264995D01*
X138340672Y-88373766D01*
X138340666Y-88373773D01*
X138247483Y-88508771D01*
X138193608Y-88650826D01*
X138151429Y-88706528D01*
X138143606Y-88711435D01*
X138138451Y-88714993D01*
X138015672Y-88823766D01*
X138015664Y-88823775D01*
X137979869Y-88875633D01*
X137925586Y-88919623D01*
X137856137Y-88927282D01*
X137795592Y-88898006D01*
X137786546Y-88889992D01*
X137641295Y-88813758D01*
X137641294Y-88813757D01*
X137641291Y-88813756D01*
X137482022Y-88774500D01*
X137482021Y-88774500D01*
X137317979Y-88774500D01*
X137317978Y-88774500D01*
X137158708Y-88813756D01*
X137013451Y-88889993D01*
X136936169Y-88958460D01*
X136872936Y-88988182D01*
X136819007Y-88984622D01*
X136783750Y-88974269D01*
X136752109Y-88964978D01*
X136752103Y-88964976D01*
X136666650Y-88952690D01*
X136609684Y-88944500D01*
X136609682Y-88944500D01*
X135535746Y-88944500D01*
X135468707Y-88924815D01*
X135448065Y-88908181D01*
X134766819Y-88226935D01*
X134733334Y-88165612D01*
X134730500Y-88139254D01*
X134730500Y-85867488D01*
X134730500Y-85867479D01*
X134721814Y-85774174D01*
X134713365Y-85729186D01*
X134713363Y-85729179D01*
X134713362Y-85729172D01*
X134687608Y-85639092D01*
X134687606Y-85639087D01*
X134616859Y-85513812D01*
X134616860Y-85513812D01*
X134616857Y-85513808D01*
X134574191Y-85458478D01*
X134471010Y-85358203D01*
X134394783Y-85302821D01*
X134375520Y-85285476D01*
X134337399Y-85243139D01*
X134322161Y-85222167D01*
X134309074Y-85199500D01*
X134293674Y-85172826D01*
X134283136Y-85149155D01*
X134265530Y-85094972D01*
X134260141Y-85069617D01*
X134254186Y-85012958D01*
X134254186Y-84987037D01*
X134255036Y-84978950D01*
X134260141Y-84930374D01*
X134265528Y-84905032D01*
X134283135Y-84850841D01*
X134293672Y-84827176D01*
X134322164Y-84777827D01*
X134337386Y-84756874D01*
X134375523Y-84714517D01*
X134394775Y-84697183D01*
X134471011Y-84641797D01*
X134541398Y-84579919D01*
X134572827Y-84546640D01*
X134630567Y-84472856D01*
X134690338Y-84341979D01*
X134710023Y-84274940D01*
X134710024Y-84274936D01*
X134730500Y-84132520D01*
X134730500Y-83225000D01*
X139494539Y-83225000D01*
X139514311Y-83387842D01*
X139514312Y-83387845D01*
X139545596Y-83470335D01*
X139572483Y-83541228D01*
X139587166Y-83562500D01*
X139665668Y-83676229D01*
X139665670Y-83676231D01*
X139665672Y-83676233D01*
X139788451Y-83785006D01*
X139788452Y-83785006D01*
X139788454Y-83785008D01*
X139933705Y-83861242D01*
X139933707Y-83861242D01*
X139933708Y-83861243D01*
X140092978Y-83900500D01*
X140092979Y-83900500D01*
X140257022Y-83900500D01*
X140345360Y-83878726D01*
X140416295Y-83861242D01*
X140429872Y-83854115D01*
X140498379Y-83840389D01*
X140545126Y-83854115D01*
X140558705Y-83861242D01*
X140629640Y-83878726D01*
X140717978Y-83900500D01*
X140717979Y-83900500D01*
X140882022Y-83900500D01*
X141041291Y-83861243D01*
X141041291Y-83861242D01*
X141041295Y-83861242D01*
X141186546Y-83785008D01*
X141309332Y-83676229D01*
X141402518Y-83541226D01*
X141460688Y-83387845D01*
X141480461Y-83225000D01*
X141460688Y-83062155D01*
X141402518Y-82908774D01*
X141309332Y-82773771D01*
X141309329Y-82773768D01*
X141309327Y-82773766D01*
X141186546Y-82664992D01*
X141186544Y-82664990D01*
X141045124Y-82590767D01*
X141013181Y-82559859D01*
X140947891Y-82565612D01*
X140942574Y-82564425D01*
X140882022Y-82549500D01*
X140882021Y-82549500D01*
X140717979Y-82549500D01*
X140717978Y-82549500D01*
X140558705Y-82588757D01*
X140558703Y-82588758D01*
X140545122Y-82595886D01*
X140476613Y-82609609D01*
X140429878Y-82595886D01*
X140416296Y-82588758D01*
X140416294Y-82588757D01*
X140257022Y-82549500D01*
X140257021Y-82549500D01*
X140092979Y-82549500D01*
X140092978Y-82549500D01*
X139933708Y-82588756D01*
X139788451Y-82664993D01*
X139665672Y-82773766D01*
X139665666Y-82773773D01*
X139572483Y-82908771D01*
X139514312Y-83062154D01*
X139514311Y-83062157D01*
X139494539Y-83224999D01*
X139494539Y-83225000D01*
X134730500Y-83225000D01*
X134730500Y-83210744D01*
X134750185Y-83143705D01*
X134766814Y-83123068D01*
X136967295Y-80922586D01*
X137028616Y-80889103D01*
X137098308Y-80894087D01*
G37*
%TD.AperFunction*%
%TA.AperFunction,Conductor*%
G36*
X152405897Y-88612816D02*
G01*
X152441558Y-88672899D01*
X152439076Y-88742725D01*
X152436007Y-88750962D01*
X152436252Y-88750370D01*
X152436246Y-88750387D01*
X152423482Y-88789216D01*
X152412558Y-88822447D01*
X152412557Y-88822448D01*
X152412557Y-88822447D01*
X152403644Y-88858480D01*
X152403644Y-88858481D01*
X152393092Y-88920926D01*
X152362512Y-88983749D01*
X152302822Y-89020066D01*
X152232974Y-89018347D01*
X152220389Y-89013544D01*
X152188325Y-88999268D01*
X152165878Y-88986308D01*
X152119777Y-88952815D01*
X152100514Y-88935472D01*
X152062397Y-88893139D01*
X152047162Y-88872169D01*
X152039259Y-88858480D01*
X152018676Y-88822829D01*
X152008132Y-88799144D01*
X152004966Y-88789398D01*
X152002975Y-88719556D01*
X152039059Y-88659726D01*
X152101762Y-88628902D01*
X152109620Y-88627800D01*
X152132876Y-88625300D01*
X152132886Y-88625297D01*
X152132890Y-88625297D01*
X152272275Y-88589721D01*
X152272274Y-88589721D01*
X152272287Y-88589718D01*
X152273949Y-88589029D01*
X152274546Y-88588965D01*
X152276488Y-88588319D01*
X152276628Y-88588740D01*
X152343412Y-88581551D01*
X152405897Y-88612816D01*
G37*
%TD.AperFunction*%
%TA.AperFunction,Conductor*%
G36*
X149248146Y-86052281D02*
G01*
X149296841Y-86102387D01*
X149310717Y-86170865D01*
X149310493Y-86173215D01*
X149297121Y-86300442D01*
X149270537Y-86365057D01*
X149214357Y-86404661D01*
X149133630Y-86432601D01*
X149016427Y-86516059D01*
X148965861Y-86564272D01*
X148965860Y-86564274D01*
X148876917Y-86677375D01*
X148851541Y-86721326D01*
X148836306Y-86742294D01*
X148798191Y-86784626D01*
X148778925Y-86801974D01*
X148732832Y-86835462D01*
X148710383Y-86848422D01*
X148658345Y-86871591D01*
X148633692Y-86879602D01*
X148596496Y-86887509D01*
X148577969Y-86891447D01*
X148552188Y-86894157D01*
X148495222Y-86894157D01*
X148469442Y-86891447D01*
X148447690Y-86886823D01*
X148413716Y-86879602D01*
X148389062Y-86871591D01*
X148337031Y-86848425D01*
X148314584Y-86835465D01*
X148268483Y-86801972D01*
X148249220Y-86784629D01*
X148211102Y-86742294D01*
X148195868Y-86721326D01*
X148167384Y-86671990D01*
X148156842Y-86648312D01*
X148139236Y-86594129D01*
X148133847Y-86568774D01*
X148133374Y-86564274D01*
X148127892Y-86512113D01*
X148127892Y-86486194D01*
X148132474Y-86442598D01*
X148133847Y-86429531D01*
X148139234Y-86404189D01*
X148156841Y-86349998D01*
X148167379Y-86326332D01*
X148177221Y-86309284D01*
X148227789Y-86261072D01*
X148296397Y-86247852D01*
X148310382Y-86249999D01*
X148430354Y-86275500D01*
X148430355Y-86275500D01*
X148619644Y-86275500D01*
X148619646Y-86275500D01*
X148804803Y-86236144D01*
X148977730Y-86159151D01*
X149114290Y-86059934D01*
X149180092Y-86036456D01*
X149248146Y-86052281D01*
G37*
%TD.AperFunction*%
%TD*%
%TA.AperFunction,Conductor*%
%TO.N,+3V3*%
G36*
X137750000Y-78675000D02*
G01*
X138175000Y-78675000D01*
X138169988Y-78680011D01*
X138155315Y-78729984D01*
X138102511Y-78775739D01*
X138080678Y-78783341D01*
X138058705Y-78788757D01*
X138058704Y-78788757D01*
X137913455Y-78864990D01*
X137913453Y-78864992D01*
X137790672Y-78973766D01*
X137790666Y-78973773D01*
X137697483Y-79108771D01*
X137639312Y-79262154D01*
X137639311Y-79262157D01*
X137619539Y-79424999D01*
X137619539Y-79425002D01*
X137626386Y-79481402D01*
X137614924Y-79550325D01*
X137590971Y-79584027D01*
X137419691Y-79755307D01*
X137365606Y-79785815D01*
X137365714Y-79786100D01*
X137363845Y-79786808D01*
X137361698Y-79788020D01*
X137358704Y-79788758D01*
X137358701Y-79788759D01*
X137213455Y-79864990D01*
X137213453Y-79864992D01*
X137090672Y-79973766D01*
X137090666Y-79973773D01*
X136997481Y-80108775D01*
X136964919Y-80194631D01*
X136936659Y-80238339D01*
X134225000Y-82949999D01*
X134225000Y-84132520D01*
X134205315Y-84199559D01*
X134173886Y-84232838D01*
X134044127Y-84327113D01*
X133917466Y-84467785D01*
X133822821Y-84631715D01*
X133822818Y-84631722D01*
X133764327Y-84811740D01*
X133764326Y-84811744D01*
X133744540Y-85000000D01*
X133764326Y-85188256D01*
X133764327Y-85188259D01*
X133822818Y-85368277D01*
X133822821Y-85368284D01*
X133917467Y-85532216D01*
X134023755Y-85650260D01*
X134044129Y-85672888D01*
X134173885Y-85767161D01*
X134216551Y-85822491D01*
X134225000Y-85867479D01*
X134225000Y-88400000D01*
X135275000Y-89450000D01*
X136609684Y-89450000D01*
X136676723Y-89469685D01*
X136722478Y-89522489D01*
X136732780Y-89559053D01*
X136739311Y-89612842D01*
X136739312Y-89612845D01*
X136797483Y-89766228D01*
X136824506Y-89805377D01*
X136890668Y-89901229D01*
X136890670Y-89901231D01*
X136890672Y-89901233D01*
X137013451Y-90010006D01*
X137013452Y-90010006D01*
X137013454Y-90010008D01*
X137158705Y-90086242D01*
X137158707Y-90086242D01*
X137158708Y-90086243D01*
X137317978Y-90125500D01*
X137317979Y-90125500D01*
X137482022Y-90125500D01*
X137641291Y-90086243D01*
X137641291Y-90086242D01*
X137641295Y-90086242D01*
X137786546Y-90010008D01*
X137909332Y-89901229D01*
X137945130Y-89849365D01*
X137999411Y-89805377D01*
X138068859Y-89797717D01*
X138129408Y-89826994D01*
X138138451Y-89835006D01*
X138138452Y-89835006D01*
X138138454Y-89835008D01*
X138283705Y-89911242D01*
X138283707Y-89911242D01*
X138283708Y-89911243D01*
X138442978Y-89950500D01*
X138442979Y-89950500D01*
X138607022Y-89950500D01*
X138766291Y-89911243D01*
X138766291Y-89911242D01*
X138766295Y-89911242D01*
X138911546Y-89835008D01*
X139034332Y-89726229D01*
X139127518Y-89591226D01*
X139150727Y-89530026D01*
X139192905Y-89474326D01*
X139258503Y-89450269D01*
X139266669Y-89450000D01*
X142548638Y-89450000D01*
X142615677Y-89469685D01*
X142636319Y-89486319D01*
X144646385Y-91496385D01*
X144674646Y-91540094D01*
X144722483Y-91666228D01*
X144747418Y-91702352D01*
X144815668Y-91801229D01*
X144815670Y-91801231D01*
X144815672Y-91801233D01*
X144938451Y-91910006D01*
X144938452Y-91910006D01*
X144938454Y-91910008D01*
X145083705Y-91986242D01*
X145119863Y-91995154D01*
X145177870Y-92027870D01*
X145504169Y-92354169D01*
X145537654Y-92415492D01*
X145532670Y-92485184D01*
X145508642Y-92524818D01*
X145492468Y-92542782D01*
X145492464Y-92542787D01*
X145397821Y-92706715D01*
X145397818Y-92706722D01*
X145340797Y-92882216D01*
X145339326Y-92886744D01*
X145319540Y-93075000D01*
X145339326Y-93263256D01*
X145339327Y-93263259D01*
X145397818Y-93443277D01*
X145397821Y-93443284D01*
X145492467Y-93607216D01*
X145564587Y-93687313D01*
X145619129Y-93747888D01*
X145772265Y-93859148D01*
X145772270Y-93859151D01*
X145945192Y-93936142D01*
X145945197Y-93936144D01*
X146130354Y-93975500D01*
X146130355Y-93975500D01*
X146319644Y-93975500D01*
X146319646Y-93975500D01*
X146504803Y-93936144D01*
X146677730Y-93859151D01*
X146784009Y-93781934D01*
X146849812Y-93758456D01*
X146917866Y-93774281D01*
X146944573Y-93794573D01*
X147838681Y-94688681D01*
X147872166Y-94750004D01*
X147875000Y-94776362D01*
X147875000Y-98289811D01*
X147858387Y-98351811D01*
X147797821Y-98456714D01*
X147759834Y-98573627D01*
X147739326Y-98636744D01*
X147719540Y-98825000D01*
X147739326Y-99013256D01*
X147739327Y-99013259D01*
X147782651Y-99146598D01*
X147784646Y-99216439D01*
X147752402Y-99272597D01*
X147669611Y-99355389D01*
X147586817Y-99438182D01*
X147525497Y-99471666D01*
X147499138Y-99474500D01*
X144410452Y-99474500D01*
X144343413Y-99454815D01*
X144322771Y-99438181D01*
X143286319Y-98401728D01*
X143252834Y-98340405D01*
X143250000Y-98314047D01*
X143250000Y-94655892D01*
X143269685Y-94588853D01*
X143322489Y-94543098D01*
X143334307Y-94538983D01*
X143334277Y-94538904D01*
X143341287Y-94536244D01*
X143341287Y-94536243D01*
X143341295Y-94536242D01*
X143486546Y-94460008D01*
X143609332Y-94351229D01*
X143702518Y-94216226D01*
X143760688Y-94062845D01*
X143780461Y-93900000D01*
X143760688Y-93737155D01*
X143702518Y-93583774D01*
X143609332Y-93448771D01*
X143609329Y-93448768D01*
X143609327Y-93448766D01*
X143486546Y-93339992D01*
X143486544Y-93339990D01*
X143341295Y-93263757D01*
X143334278Y-93261096D01*
X143335035Y-93259098D01*
X143283935Y-93229338D01*
X143252153Y-93167115D01*
X143250000Y-93144107D01*
X143250000Y-93025000D01*
X143136819Y-92911819D01*
X143103334Y-92850496D01*
X143100500Y-92824138D01*
X143100500Y-92810654D01*
X143100500Y-92810650D01*
X143099631Y-92803772D01*
X143099172Y-92797943D01*
X143097709Y-92751372D01*
X143092122Y-92732144D01*
X143088174Y-92713084D01*
X143085664Y-92693208D01*
X143085663Y-92693206D01*
X143085663Y-92693204D01*
X143068512Y-92649887D01*
X143066619Y-92644358D01*
X143053618Y-92599609D01*
X143053616Y-92599606D01*
X143043423Y-92582371D01*
X143034861Y-92564894D01*
X143027487Y-92546270D01*
X143027486Y-92546268D01*
X143000079Y-92508545D01*
X142996888Y-92503686D01*
X142973172Y-92463583D01*
X142973165Y-92463574D01*
X142959006Y-92449415D01*
X142946368Y-92434619D01*
X142934594Y-92418413D01*
X142928360Y-92413256D01*
X142898688Y-92388709D01*
X142894376Y-92384786D01*
X142100803Y-91591212D01*
X142090980Y-91578950D01*
X142090759Y-91579134D01*
X142085786Y-91573123D01*
X142035364Y-91525773D01*
X142022436Y-91512845D01*
X142014475Y-91504883D01*
X142008986Y-91500625D01*
X142004561Y-91496847D01*
X141970582Y-91464938D01*
X141970580Y-91464936D01*
X141970577Y-91464935D01*
X141953029Y-91455288D01*
X141936763Y-91444604D01*
X141920933Y-91432325D01*
X141878168Y-91413818D01*
X141872922Y-91411248D01*
X141832093Y-91388803D01*
X141832092Y-91388802D01*
X141812693Y-91383822D01*
X141794281Y-91377518D01*
X141775898Y-91369562D01*
X141775892Y-91369560D01*
X141729874Y-91362272D01*
X141724152Y-91361087D01*
X141679021Y-91349500D01*
X141679019Y-91349500D01*
X141658984Y-91349500D01*
X141639586Y-91347973D01*
X141632162Y-91346797D01*
X141619805Y-91344840D01*
X141619804Y-91344840D01*
X141573416Y-91349225D01*
X141567578Y-91349500D01*
X134650862Y-91349500D01*
X134583823Y-91329815D01*
X134563181Y-91313181D01*
X132236319Y-88986319D01*
X132202834Y-88924996D01*
X132200000Y-88898638D01*
X132200000Y-87910516D01*
X132219685Y-87843477D01*
X132272489Y-87797722D01*
X132294325Y-87790119D01*
X132315057Y-87785009D01*
X132315057Y-87785008D01*
X132315061Y-87785008D01*
X132460312Y-87708774D01*
X132583098Y-87599995D01*
X132676284Y-87464992D01*
X132734454Y-87311611D01*
X132754227Y-87148766D01*
X132734454Y-86985921D01*
X132676284Y-86832540D01*
X132583098Y-86697537D01*
X132583095Y-86697534D01*
X132583093Y-86697532D01*
X132460312Y-86588758D01*
X132460310Y-86588756D01*
X132315061Y-86512523D01*
X132315058Y-86512522D01*
X132294322Y-86507411D01*
X132233942Y-86472254D01*
X132202155Y-86410033D01*
X132200000Y-86387015D01*
X132200000Y-83634600D01*
X132219685Y-83567561D01*
X132241774Y-83541784D01*
X132259331Y-83526230D01*
X132338355Y-83411744D01*
X132352518Y-83391226D01*
X132370289Y-83344365D01*
X132412466Y-83288662D01*
X132428603Y-83278539D01*
X132511546Y-83235008D01*
X132634332Y-83126229D01*
X132727518Y-82991226D01*
X132785688Y-82837845D01*
X132805461Y-82675000D01*
X132785688Y-82512155D01*
X132727518Y-82358774D01*
X132634332Y-82223771D01*
X132634329Y-82223768D01*
X132634327Y-82223766D01*
X132511548Y-82114993D01*
X132505766Y-82111958D01*
X132366295Y-82038758D01*
X132366290Y-82038756D01*
X132366287Y-82038755D01*
X132366288Y-82038755D01*
X132294324Y-82021017D01*
X132233943Y-81985861D01*
X132202155Y-81923641D01*
X132200000Y-81900621D01*
X132200000Y-81376362D01*
X132219685Y-81309323D01*
X132236319Y-81288681D01*
X133013181Y-80511819D01*
X133074504Y-80478334D01*
X133100862Y-80475500D01*
X133169644Y-80475500D01*
X133169646Y-80475500D01*
X133354803Y-80436144D01*
X133527730Y-80359151D01*
X133680871Y-80247888D01*
X133807533Y-80107216D01*
X133902179Y-79943284D01*
X133960674Y-79763256D01*
X133979448Y-79584628D01*
X134006031Y-79520016D01*
X134015069Y-79509930D01*
X136300000Y-77225000D01*
X137750000Y-78675000D01*
G37*
%TD.AperFunction*%
%TD*%
M02*
