%TF.GenerationSoftware,KiCad,Pcbnew,7.0.8*%
%TF.CreationDate,2023-10-18T20:52:03-04:00*%
%TF.ProjectId,lemon-pepper,6c656d6f-6e2d-4706-9570-7065722e6b69,rev?*%
%TF.SameCoordinates,Original*%
%TF.FileFunction,Legend,Bot*%
%TF.FilePolarity,Positive*%
%FSLAX46Y46*%
G04 Gerber Fmt 4.6, Leading zero omitted, Abs format (unit mm)*
G04 Created by KiCad (PCBNEW 7.0.8) date 2023-10-18 20:52:03*
%MOMM*%
%LPD*%
G01*
G04 APERTURE LIST*
G04 APERTURE END LIST*
%TO.C,G\u002A\u002A\u002A*%
G36*
X142578984Y-95538279D02*
G01*
X142555508Y-95544569D01*
X142549218Y-95521094D01*
X142572694Y-95514803D01*
X142578984Y-95538279D01*
G37*
G36*
X148205677Y-85173885D02*
G01*
X148182202Y-85180175D01*
X148175912Y-85156700D01*
X148199387Y-85150410D01*
X148205677Y-85173885D01*
G37*
G36*
X148274419Y-85054821D02*
G01*
X148250944Y-85061112D01*
X148244654Y-85037636D01*
X148268129Y-85031346D01*
X148274419Y-85054821D01*
G37*
G36*
X148259871Y-85192350D02*
G01*
X148256617Y-85223139D01*
X148245371Y-85237656D01*
X148225316Y-85231526D01*
X148224273Y-85225107D01*
X148248230Y-85191839D01*
X148259871Y-85192350D01*
G37*
G36*
X148455643Y-85101073D02*
G01*
X148461607Y-85143051D01*
X148456635Y-85149666D01*
X148414656Y-85155631D01*
X148408041Y-85150659D01*
X148402075Y-85108680D01*
X148407048Y-85102064D01*
X148449027Y-85096100D01*
X148455643Y-85101073D01*
G37*
G36*
X148364259Y-85009297D02*
G01*
X148374612Y-85053136D01*
X148372606Y-85067352D01*
X148344300Y-85075324D01*
X148336321Y-85069192D01*
X148329963Y-85027358D01*
X148334194Y-85020818D01*
X148360275Y-85005170D01*
X148364259Y-85009297D01*
G37*
G36*
X140213473Y-90382090D02*
G01*
X140321216Y-90450574D01*
X140445081Y-90555046D01*
X140576023Y-90689782D01*
X140588714Y-90704020D01*
X140685510Y-90810001D01*
X140772035Y-90900711D01*
X140830881Y-90957840D01*
X140840306Y-90966347D01*
X140880516Y-91021931D01*
X140862107Y-91053104D01*
X140791079Y-91057076D01*
X140673431Y-91031056D01*
X140517827Y-90974691D01*
X140349373Y-90891512D01*
X140213623Y-90799953D01*
X140128051Y-90710295D01*
X140077719Y-90600570D01*
X140058749Y-90476835D01*
X140081939Y-90376955D01*
X140082514Y-90375986D01*
X140130891Y-90355319D01*
X140213473Y-90382090D01*
G37*
G36*
X138990759Y-90911017D02*
G01*
X139061339Y-90958893D01*
X139174523Y-91050667D01*
X139330414Y-91185082D01*
X139507868Y-91343954D01*
X139692981Y-91514630D01*
X139871846Y-91684456D01*
X140030559Y-91840778D01*
X140145874Y-91960558D01*
X140245785Y-92077249D01*
X140290625Y-92154072D01*
X140279390Y-92193024D01*
X140211078Y-92196103D01*
X140084686Y-92165312D01*
X139899212Y-92102650D01*
X139879318Y-92095287D01*
X139749317Y-92036695D01*
X139624858Y-91957880D01*
X139490068Y-91847463D01*
X139329071Y-91694069D01*
X139306360Y-91671191D01*
X139144376Y-91489905D01*
X139021108Y-91317982D01*
X138940728Y-91163252D01*
X138907410Y-91033545D01*
X138925329Y-90936690D01*
X138950554Y-90907175D01*
X138990759Y-90911017D01*
G37*
G36*
X138097177Y-91502072D02*
G01*
X138170118Y-91530584D01*
X138278307Y-91592766D01*
X138315194Y-91616028D01*
X138443735Y-91703161D01*
X138622066Y-91830125D01*
X138847324Y-91994813D01*
X139116642Y-92195116D01*
X139427155Y-92428928D01*
X139775996Y-92694143D01*
X139966001Y-92838995D01*
X140207923Y-93022590D01*
X140416380Y-93179563D01*
X140603734Y-93319208D01*
X140782343Y-93450818D01*
X140896500Y-93539243D01*
X141040889Y-93669947D01*
X141141671Y-93787529D01*
X141193367Y-93885208D01*
X141190498Y-93956197D01*
X141155602Y-93988154D01*
X141065601Y-94035278D01*
X140944691Y-94081895D01*
X140813778Y-94121093D01*
X140693773Y-94145960D01*
X140605584Y-94149582D01*
X140550460Y-94137145D01*
X140440389Y-94102327D01*
X140319216Y-94056101D01*
X140273547Y-94036248D01*
X140044614Y-93918034D01*
X139795289Y-93764102D01*
X139545303Y-93588148D01*
X139314380Y-93403873D01*
X139122252Y-93224973D01*
X139081140Y-93182506D01*
X138971745Y-93069523D01*
X138873620Y-92968201D01*
X138850569Y-92943874D01*
X138770199Y-92855965D01*
X138661247Y-92734197D01*
X138535063Y-92591306D01*
X138402996Y-92440031D01*
X138238663Y-92244865D01*
X138088082Y-92048439D01*
X137983344Y-91885989D01*
X137920852Y-91751831D01*
X137897012Y-91640281D01*
X137897322Y-91596694D01*
X137920969Y-91550906D01*
X137991174Y-91516050D01*
X138038345Y-91501581D01*
X138097177Y-91502072D01*
G37*
G36*
X137008738Y-87493963D02*
G01*
X137286286Y-87531565D01*
X137622257Y-87589409D01*
X138014908Y-87667305D01*
X138109852Y-87684822D01*
X138300023Y-87712722D01*
X138525017Y-87739580D01*
X138764289Y-87763023D01*
X138997294Y-87780681D01*
X139013761Y-87781716D01*
X139397663Y-87808213D01*
X139724729Y-87836031D01*
X140006413Y-87866397D01*
X140254169Y-87900542D01*
X140479451Y-87939693D01*
X140627605Y-87967514D01*
X140849611Y-88007696D01*
X141116741Y-88054875D01*
X141416890Y-88106920D01*
X141737957Y-88161692D01*
X141841764Y-88176479D01*
X141973826Y-88188330D01*
X142071603Y-88189245D01*
X142152341Y-88188221D01*
X142188813Y-88205745D01*
X142159776Y-88243813D01*
X142065224Y-88302549D01*
X142033069Y-88320150D01*
X141934749Y-88375528D01*
X141863395Y-88417869D01*
X141796852Y-88446378D01*
X141648499Y-88476472D01*
X141441503Y-88494527D01*
X141181157Y-88500577D01*
X140872754Y-88494652D01*
X140521584Y-88476782D01*
X140132940Y-88446998D01*
X139712115Y-88405331D01*
X139569096Y-88390067D01*
X139311150Y-88364232D01*
X139063541Y-88341400D01*
X138845572Y-88323313D01*
X138676547Y-88311718D01*
X138582651Y-88304173D01*
X138387559Y-88277838D01*
X138198073Y-88240611D01*
X138045758Y-88198176D01*
X137990430Y-88180844D01*
X137866544Y-88148259D01*
X137734318Y-88118931D01*
X137706985Y-88113091D01*
X137569379Y-88076743D01*
X137405529Y-88025786D01*
X137245216Y-87969330D01*
X137206374Y-87954973D01*
X137041917Y-87899695D01*
X136881120Y-87852921D01*
X136753916Y-87823533D01*
X136739864Y-87821042D01*
X136612980Y-87796459D01*
X136534152Y-87773977D01*
X136484993Y-87746641D01*
X136447118Y-87707499D01*
X136431393Y-87651749D01*
X136463751Y-87575888D01*
X136541997Y-87505760D01*
X136544044Y-87504527D01*
X136635874Y-87480254D01*
X136791353Y-87476795D01*
X137008738Y-87493963D01*
G37*
G36*
X143511637Y-82840815D02*
G01*
X143527022Y-82871414D01*
X143544553Y-82952561D01*
X143558955Y-83060785D01*
X143567925Y-83173395D01*
X143569163Y-83267704D01*
X143560364Y-83321021D01*
X143551714Y-83340854D01*
X143553243Y-83387395D01*
X143560628Y-83403356D01*
X143575757Y-83481336D01*
X143586356Y-83599627D01*
X143590999Y-83738256D01*
X143588258Y-83877252D01*
X143587980Y-83882679D01*
X143583204Y-84008036D01*
X143579203Y-84167186D01*
X143576817Y-84327058D01*
X143576554Y-84352892D01*
X143573789Y-84494301D01*
X143569428Y-84614288D01*
X143564290Y-84689193D01*
X143563965Y-84692203D01*
X143560617Y-84763322D01*
X143558662Y-84885518D01*
X143558248Y-85042453D01*
X143559521Y-85217788D01*
X143560160Y-85305455D01*
X143556530Y-85497218D01*
X143543335Y-85648203D01*
X143518234Y-85778465D01*
X143478882Y-85908060D01*
X143437013Y-86052572D01*
X143401771Y-86225493D01*
X143385444Y-86374869D01*
X143379270Y-86480657D01*
X143366369Y-86597291D01*
X143350662Y-86673248D01*
X143325944Y-86754310D01*
X143283813Y-86949021D01*
X143260897Y-87142302D01*
X143260256Y-87159861D01*
X143282760Y-87289408D01*
X143359270Y-87426619D01*
X143393026Y-87476828D01*
X143461885Y-87596245D01*
X143508766Y-87700247D01*
X143516590Y-87722054D01*
X143549774Y-87800064D01*
X143574747Y-87838246D01*
X143576391Y-87838859D01*
X143623698Y-87833096D01*
X143715760Y-87809663D01*
X143834380Y-87773121D01*
X143876974Y-87759702D01*
X144038305Y-87715400D01*
X144224569Y-87671216D01*
X144403483Y-87634986D01*
X144450018Y-87626623D01*
X144609371Y-87598911D01*
X144735706Y-87579760D01*
X144854439Y-87566134D01*
X144990987Y-87554996D01*
X145170767Y-87543310D01*
X145290806Y-87529744D01*
X145457611Y-87502178D01*
X145646874Y-87464798D01*
X145836384Y-87421663D01*
X145924211Y-87400434D01*
X146139528Y-87349893D01*
X146386161Y-87293504D01*
X146640067Y-87236733D01*
X146877204Y-87185047D01*
X146925881Y-87174508D01*
X147167270Y-87118381D01*
X147352021Y-87068185D01*
X147476311Y-87025052D01*
X147536317Y-86990111D01*
X147608868Y-86908237D01*
X147728508Y-86778920D01*
X147827809Y-86678864D01*
X147889742Y-86624773D01*
X148518958Y-86624773D01*
X148525248Y-86648248D01*
X148548724Y-86641958D01*
X148542434Y-86618482D01*
X148518958Y-86624773D01*
X147889742Y-86624773D01*
X147895168Y-86620034D01*
X147902362Y-86615685D01*
X147975890Y-86592966D01*
X148092367Y-86574055D01*
X148230047Y-86562675D01*
X148234545Y-86562473D01*
X148377151Y-86559117D01*
X148471614Y-86566930D01*
X148537625Y-86589586D01*
X148594877Y-86630760D01*
X148597903Y-86633380D01*
X148681327Y-86699953D01*
X148753521Y-86749123D01*
X148779886Y-86775420D01*
X148795668Y-86791161D01*
X148776332Y-86847096D01*
X148756008Y-86898207D01*
X148793898Y-86935446D01*
X148829566Y-86963671D01*
X148863913Y-87035401D01*
X148867434Y-87085528D01*
X148854007Y-87135245D01*
X148816227Y-87123826D01*
X148789285Y-87119156D01*
X148752457Y-87163993D01*
X148723229Y-87203893D01*
X148653697Y-87218164D01*
X148643481Y-87216726D01*
X148563085Y-87228331D01*
X148469177Y-87265994D01*
X148459085Y-87271196D01*
X148340001Y-87316397D01*
X148179902Y-87359195D01*
X148003547Y-87394539D01*
X147835693Y-87417380D01*
X147701102Y-87422667D01*
X147624566Y-87422052D01*
X147413402Y-87439469D01*
X147163601Y-87479853D01*
X146891751Y-87539335D01*
X146614439Y-87614050D01*
X146348253Y-87700129D01*
X146109778Y-87793705D01*
X145920609Y-87866112D01*
X145626792Y-87950678D01*
X145309464Y-88015795D01*
X144994163Y-88055470D01*
X144960582Y-88058249D01*
X144779427Y-88074202D01*
X144597101Y-88091555D01*
X144448460Y-88107016D01*
X144327932Y-88119634D01*
X144192148Y-88132076D01*
X144092500Y-88139255D01*
X144070475Y-88140714D01*
X144010147Y-88150710D01*
X144002053Y-88164178D01*
X144021061Y-88189674D01*
X144055928Y-88266295D01*
X144093188Y-88372312D01*
X144123878Y-88479353D01*
X144127187Y-88514388D01*
X144130670Y-88551269D01*
X144109033Y-88610236D01*
X144055776Y-88682725D01*
X144020230Y-88728256D01*
X143985322Y-88786219D01*
X143990346Y-88826691D01*
X144032483Y-88872648D01*
X144056064Y-88894879D01*
X144219419Y-89048025D01*
X144348776Y-89167129D01*
X144457810Y-89264419D01*
X144560200Y-89352130D01*
X144669621Y-89442494D01*
X144671818Y-89444283D01*
X144822165Y-89558681D01*
X144995498Y-89679087D01*
X145154738Y-89779725D01*
X145350087Y-89907173D01*
X145592819Y-90089502D01*
X145871806Y-90319449D01*
X146183389Y-90594119D01*
X146200776Y-90609577D01*
X146311841Y-90701468D01*
X146459139Y-90815868D01*
X146625534Y-90939703D01*
X146793888Y-91059896D01*
X146955765Y-91175469D01*
X147100687Y-91286243D01*
X147196075Y-91369046D01*
X147237273Y-91420097D01*
X147256291Y-91450737D01*
X147330175Y-91516848D01*
X147433736Y-91581891D01*
X147543367Y-91632034D01*
X147635464Y-91653444D01*
X147636071Y-91653465D01*
X147717631Y-91675519D01*
X147833500Y-91729799D01*
X147964748Y-91805413D01*
X148092446Y-91891460D01*
X148197661Y-91977046D01*
X148266403Y-92049699D01*
X148359116Y-92162080D01*
X148448080Y-92282279D01*
X148511709Y-92381861D01*
X148557895Y-92485811D01*
X148552357Y-92545628D01*
X148495013Y-92560832D01*
X148464360Y-92563373D01*
X148474964Y-92595559D01*
X148476529Y-92597890D01*
X148486115Y-92652799D01*
X148459104Y-92694513D01*
X148412803Y-92695272D01*
X148388908Y-92690849D01*
X148359156Y-92723960D01*
X148323586Y-92812436D01*
X148307850Y-92857617D01*
X148269384Y-92954893D01*
X148232332Y-93006719D01*
X148181801Y-93028031D01*
X148102904Y-93033762D01*
X148024391Y-93027930D01*
X147926930Y-92991672D01*
X147826406Y-92916179D01*
X147713519Y-92794068D01*
X147578973Y-92617963D01*
X147563415Y-92596348D01*
X147421901Y-92389760D01*
X147327037Y-92229251D01*
X147277409Y-92112137D01*
X147271598Y-92035735D01*
X147271715Y-92035301D01*
X147258871Y-91954259D01*
X147185989Y-91847246D01*
X147055451Y-91717045D01*
X146869639Y-91566436D01*
X146860712Y-91559696D01*
X146709547Y-91439372D01*
X146547500Y-91301438D01*
X146408160Y-91174423D01*
X146032745Y-90839789D01*
X145583769Y-90488573D01*
X145081264Y-90138708D01*
X144959205Y-90057789D01*
X144805839Y-89954719D01*
X144677925Y-89867146D01*
X144586169Y-89802419D01*
X144541282Y-89767895D01*
X144526241Y-89754129D01*
X144459980Y-89696016D01*
X144362753Y-89612459D01*
X144249800Y-89516599D01*
X144221463Y-89492411D01*
X144088114Y-89372537D01*
X143959901Y-89249024D01*
X143861135Y-89145111D01*
X143813287Y-89091777D01*
X143742009Y-89021592D01*
X143690499Y-88990467D01*
X143644303Y-88987927D01*
X143603106Y-89001336D01*
X143550617Y-89043452D01*
X143505957Y-89087590D01*
X143412014Y-89137817D01*
X143303552Y-89171752D01*
X143210544Y-89177576D01*
X143150840Y-89174346D01*
X143112442Y-89187635D01*
X143116095Y-89219921D01*
X143140927Y-89299624D01*
X143181974Y-89405514D01*
X143212413Y-89495232D01*
X143252060Y-89683259D01*
X143277624Y-89904886D01*
X143286979Y-90138865D01*
X143277995Y-90363947D01*
X143277818Y-90366004D01*
X143275196Y-90489136D01*
X143282380Y-90645924D01*
X143297861Y-90802959D01*
X143301280Y-90830328D01*
X143312922Y-90959906D01*
X143314930Y-91061704D01*
X143306736Y-91115665D01*
X143298650Y-91139302D01*
X143316104Y-91181458D01*
X143335320Y-91211182D01*
X143367174Y-91298919D01*
X143404591Y-91430526D01*
X143444154Y-91592758D01*
X143482443Y-91772369D01*
X143516040Y-91956115D01*
X143531840Y-92048523D01*
X143561014Y-92210335D01*
X143587784Y-92349869D01*
X143620902Y-92561795D01*
X143639596Y-92786109D01*
X143644011Y-93006637D01*
X143634345Y-93207471D01*
X143610797Y-93372709D01*
X143573567Y-93486445D01*
X143549410Y-93547372D01*
X143515963Y-93654523D01*
X143481957Y-93781407D01*
X143481868Y-93781766D01*
X143449872Y-93900301D01*
X143420349Y-93991041D01*
X143399680Y-94034368D01*
X143395969Y-94040112D01*
X143395157Y-94095693D01*
X143416585Y-94180777D01*
X143435545Y-94282694D01*
X143415140Y-94405345D01*
X143411740Y-94413018D01*
X143375226Y-94475418D01*
X143346913Y-94493345D01*
X143336357Y-94463392D01*
X143321739Y-94377244D01*
X143306276Y-94249488D01*
X143291948Y-94094497D01*
X143270005Y-93909638D01*
X143225612Y-93655233D01*
X143163633Y-93368394D01*
X143087440Y-93066080D01*
X143041905Y-92890197D01*
X142983304Y-92643453D01*
X142930884Y-92400671D01*
X142889049Y-92182513D01*
X142862207Y-92009642D01*
X142844031Y-91865091D01*
X142818820Y-91667616D01*
X142795243Y-91485963D01*
X142776678Y-91346335D01*
X142757991Y-91207974D01*
X142736239Y-91045295D01*
X142718734Y-90912731D01*
X142711825Y-90826927D01*
X142709982Y-90660123D01*
X142716640Y-90456753D01*
X142730465Y-90231860D01*
X142750128Y-90000486D01*
X142774296Y-89777676D01*
X142801636Y-89578473D01*
X142830819Y-89417920D01*
X142860513Y-89311059D01*
X142911407Y-89181691D01*
X142720539Y-89066626D01*
X142661446Y-89029382D01*
X142553535Y-88944846D01*
X142504113Y-88872219D01*
X142480709Y-88818664D01*
X142443691Y-88772748D01*
X142433078Y-88764350D01*
X142426013Y-88722854D01*
X142424838Y-88699108D01*
X142383666Y-88658716D01*
X142352291Y-88633152D01*
X142341339Y-88594547D01*
X142344122Y-88569606D01*
X142333742Y-88491963D01*
X142321332Y-88439750D01*
X143952082Y-88439750D01*
X143958346Y-88449576D01*
X143983383Y-88431363D01*
X143990332Y-88414365D01*
X143974996Y-88400062D01*
X143968915Y-88402369D01*
X143952082Y-88439750D01*
X142321332Y-88439750D01*
X142308860Y-88387278D01*
X142272355Y-88238119D01*
X142252981Y-88097320D01*
X142261768Y-88008240D01*
X142298850Y-87976315D01*
X142306966Y-87975808D01*
X142337790Y-87956231D01*
X142315280Y-87914628D01*
X142246547Y-87858958D01*
X142138709Y-87797176D01*
X142101673Y-87776215D01*
X141983644Y-87689106D01*
X141850439Y-87569965D01*
X141719690Y-87436378D01*
X141609034Y-87305934D01*
X141536107Y-87196220D01*
X141507867Y-87160465D01*
X141430677Y-87087476D01*
X141320794Y-86996296D01*
X141191906Y-86898753D01*
X141095802Y-86827209D01*
X140893954Y-86664128D01*
X140708987Y-86498191D01*
X140554843Y-86342275D01*
X140445459Y-86209255D01*
X140429546Y-86187844D01*
X140351745Y-86097547D01*
X140262606Y-86008278D01*
X140258256Y-86004273D01*
X140149430Y-85894990D01*
X140010983Y-85742583D01*
X139853332Y-85558862D01*
X139686897Y-85355640D01*
X139547957Y-85187546D01*
X139283544Y-84891665D01*
X139011136Y-84613923D01*
X138750988Y-84375531D01*
X138656714Y-84293047D01*
X138476462Y-84119127D01*
X138338772Y-83955812D01*
X138231316Y-83787366D01*
X138141764Y-83598058D01*
X138109687Y-83512985D01*
X138086343Y-83407382D01*
X138101795Y-83345983D01*
X138169029Y-83293288D01*
X138282436Y-83267282D01*
X138397829Y-83295636D01*
X138409791Y-83302202D01*
X138511297Y-83369128D01*
X138616462Y-83453818D01*
X138710164Y-83542163D01*
X138777280Y-83620054D01*
X138802689Y-83673379D01*
X138817528Y-83719245D01*
X138873066Y-83774339D01*
X138917743Y-83808863D01*
X138945456Y-83855820D01*
X138946740Y-83862208D01*
X138983974Y-83908089D01*
X139056315Y-83960016D01*
X139111076Y-84001485D01*
X139202549Y-84096967D01*
X139289973Y-84213982D01*
X139355950Y-84307255D01*
X139429689Y-84395623D01*
X139485389Y-84445367D01*
X139502396Y-84456992D01*
X139571069Y-84524130D01*
X139639118Y-84613498D01*
X139660149Y-84644634D01*
X139720973Y-84722903D01*
X139767274Y-84766865D01*
X139786472Y-84786687D01*
X139785226Y-84841621D01*
X139774998Y-84874434D01*
X139812110Y-84880983D01*
X139813525Y-84880764D01*
X139890126Y-84897738D01*
X139987666Y-84970482D01*
X140110415Y-85102162D01*
X140149947Y-85144538D01*
X140261117Y-85241973D01*
X140378926Y-85324501D01*
X140440968Y-85364507D01*
X140558342Y-85449310D01*
X140687167Y-85549995D01*
X140810500Y-85652740D01*
X140911397Y-85743719D01*
X140972915Y-85809111D01*
X140989155Y-85828773D01*
X141048234Y-85884879D01*
X141068589Y-85903877D01*
X141129776Y-85969703D01*
X141215992Y-86067254D01*
X141315893Y-86183188D01*
X141418134Y-86304159D01*
X141511372Y-86416824D01*
X141584263Y-86507838D01*
X141625460Y-86563858D01*
X141626253Y-86565059D01*
X141670831Y-86610395D01*
X141758734Y-86684759D01*
X141877599Y-86778110D01*
X142015067Y-86880404D01*
X142150663Y-86980512D01*
X142271990Y-87077217D01*
X142362298Y-87161709D01*
X142436075Y-87247774D01*
X142507808Y-87349195D01*
X142650823Y-87564439D01*
X142722187Y-87476993D01*
X142726726Y-87471638D01*
X142812951Y-87401475D01*
X142917566Y-87351248D01*
X142937407Y-87344862D01*
X143016537Y-87313530D01*
X143055984Y-87288003D01*
X143068732Y-87250594D01*
X143094374Y-87157882D01*
X143128730Y-87025128D01*
X143168341Y-86866559D01*
X143209751Y-86696398D01*
X143249502Y-86528870D01*
X143284138Y-86378200D01*
X143310200Y-86258611D01*
X143324232Y-86184329D01*
X143330496Y-86142759D01*
X143350895Y-86014709D01*
X143373064Y-85882557D01*
X143377682Y-85844657D01*
X143379841Y-85711672D01*
X143369135Y-85548965D01*
X143346968Y-85383464D01*
X143337828Y-85328130D01*
X143313511Y-85151247D01*
X143296290Y-84981055D01*
X143289426Y-84847898D01*
X143288955Y-84736495D01*
X143289637Y-84412742D01*
X143293355Y-84121710D01*
X143299881Y-83870599D01*
X143308990Y-83666605D01*
X143320454Y-83516930D01*
X143334048Y-83428771D01*
X143350390Y-83363766D01*
X143381482Y-83229769D01*
X143411195Y-83091658D01*
X143439444Y-82962678D01*
X143464291Y-82877587D01*
X143486960Y-82840451D01*
X143511637Y-82840815D01*
G37*
G36*
X145838857Y-76620986D02*
G01*
X145922459Y-76649783D01*
X146026632Y-76679468D01*
X146171657Y-76729502D01*
X146357386Y-76847812D01*
X146511350Y-77023974D01*
X146559145Y-77098012D01*
X146600668Y-77173319D01*
X146611763Y-77210945D01*
X146610920Y-77218195D01*
X146631104Y-77269632D01*
X146677670Y-77345997D01*
X146696411Y-77371757D01*
X146763948Y-77433551D01*
X146824046Y-77428911D01*
X146883314Y-77358228D01*
X146902161Y-77334224D01*
X146952136Y-77306979D01*
X146962233Y-77305109D01*
X147023759Y-77276357D01*
X147104975Y-77224204D01*
X147111482Y-77219689D01*
X147218118Y-77165808D01*
X147369825Y-77111467D01*
X147545171Y-77062692D01*
X147722729Y-77025510D01*
X147881069Y-77005947D01*
X147923101Y-77006365D01*
X148044150Y-77020639D01*
X148195966Y-77049421D01*
X148355398Y-77088675D01*
X148435795Y-77110443D01*
X148591399Y-77149816D01*
X148725782Y-77180463D01*
X148816563Y-77197119D01*
X148821965Y-77197784D01*
X148946460Y-77203956D01*
X149104173Y-77200253D01*
X149269630Y-77188459D01*
X149417353Y-77170358D01*
X149521865Y-77147731D01*
X149593265Y-77131623D01*
X149644617Y-77134401D01*
X149663510Y-77137451D01*
X149736117Y-77129104D01*
X149836217Y-77105524D01*
X149902076Y-77090800D01*
X150051248Y-77073063D01*
X150197379Y-77071219D01*
X150215411Y-77072086D01*
X150336500Y-77073566D01*
X150502540Y-77071058D01*
X150694027Y-77064993D01*
X150891450Y-77055807D01*
X150961166Y-77052215D01*
X151132766Y-77045354D01*
X151275567Y-77042443D01*
X151376300Y-77043649D01*
X151421703Y-77049139D01*
X151451007Y-77060026D01*
X151525733Y-77069917D01*
X151548913Y-77070747D01*
X151648311Y-77080574D01*
X151778614Y-77098775D01*
X151920000Y-77121956D01*
X152052646Y-77146725D01*
X152156733Y-77169689D01*
X152212437Y-77187456D01*
X152213016Y-77187776D01*
X152266387Y-77208428D01*
X152370826Y-77242482D01*
X152511497Y-77285281D01*
X152673561Y-77332172D01*
X152695952Y-77338516D01*
X153193618Y-77493148D01*
X153626360Y-77655913D01*
X153997542Y-77828370D01*
X154310529Y-78012072D01*
X154568688Y-78208579D01*
X154639328Y-78271269D01*
X154789359Y-78408582D01*
X154933450Y-78545405D01*
X155060156Y-78670543D01*
X155158023Y-78772805D01*
X155215605Y-78840997D01*
X155249452Y-78882814D01*
X155321893Y-78963304D01*
X155409611Y-79054900D01*
X155477395Y-79125579D01*
X155565406Y-79222973D01*
X155626725Y-79297521D01*
X155644549Y-79320405D01*
X155713436Y-79402172D01*
X155808171Y-79509489D01*
X155913769Y-79625245D01*
X155963806Y-79680147D01*
X156055872Y-79786740D01*
X156124300Y-79873514D01*
X156157069Y-79925623D01*
X156193425Y-79988256D01*
X156256918Y-80062018D01*
X156282440Y-80088660D01*
X156355539Y-80178179D01*
X156428188Y-80280930D01*
X156484660Y-80361472D01*
X156580074Y-80484905D01*
X156679073Y-80602541D01*
X156757973Y-80693687D01*
X156852690Y-80808329D01*
X156923909Y-80900260D01*
X156941030Y-80923803D01*
X157011459Y-81020572D01*
X157067792Y-81097866D01*
X157109222Y-81158824D01*
X157150520Y-81229544D01*
X157169474Y-81262497D01*
X157220761Y-81333674D01*
X157275922Y-81397470D01*
X157314297Y-81428753D01*
X157332532Y-81449977D01*
X157367847Y-81534187D01*
X157415926Y-81683899D01*
X157418753Y-81693210D01*
X157479118Y-81855569D01*
X157559608Y-82027457D01*
X157647352Y-82183628D01*
X157729477Y-82298835D01*
X157755982Y-82329704D01*
X157827448Y-82416330D01*
X157876722Y-82480790D01*
X157882256Y-82488629D01*
X157930369Y-82553965D01*
X158004152Y-82651885D01*
X158090041Y-82764354D01*
X158220199Y-82943817D01*
X158320804Y-83111825D01*
X158369231Y-83239751D01*
X158366247Y-83329166D01*
X158361214Y-83344547D01*
X158363813Y-83400259D01*
X158402508Y-83472467D01*
X158484511Y-83576232D01*
X158550124Y-83660162D01*
X158636893Y-83790700D01*
X158713278Y-83925734D01*
X158771698Y-84050292D01*
X158804578Y-84149399D01*
X158804335Y-84208083D01*
X158790819Y-84208280D01*
X158731980Y-84177147D01*
X158636085Y-84112743D01*
X158512685Y-84022167D01*
X158371333Y-83912520D01*
X158221576Y-83790901D01*
X158072969Y-83664411D01*
X157996763Y-83599004D01*
X157825621Y-83464397D01*
X157653101Y-83350480D01*
X157447470Y-83235493D01*
X157337879Y-83178732D01*
X157213485Y-83119689D01*
X157097431Y-83074391D01*
X156970687Y-83036543D01*
X156814223Y-82999844D01*
X156609009Y-82957996D01*
X156555771Y-82947416D01*
X156360686Y-82907350D01*
X156177726Y-82867952D01*
X156025363Y-82833271D01*
X155922065Y-82807357D01*
X155891375Y-82799336D01*
X155739196Y-82767340D01*
X155547339Y-82735224D01*
X155338693Y-82706250D01*
X155136144Y-82683672D01*
X154962582Y-82670752D01*
X154951955Y-82669954D01*
X154856910Y-82652716D01*
X154715874Y-82617521D01*
X154544635Y-82569290D01*
X154358986Y-82512940D01*
X154174715Y-82453395D01*
X154007610Y-82395573D01*
X153873463Y-82344394D01*
X153788064Y-82304778D01*
X153777067Y-82297711D01*
X153708579Y-82243353D01*
X153606806Y-82153544D01*
X153483600Y-82038972D01*
X153350813Y-81910331D01*
X153187679Y-81753665D01*
X153007623Y-81596099D01*
X152819819Y-81451611D01*
X152597368Y-81298356D01*
X152585230Y-81290297D01*
X152409919Y-81171984D01*
X152231676Y-81048633D01*
X152070711Y-80934385D01*
X151947227Y-80843379D01*
X151851556Y-80766873D01*
X151713643Y-80649280D01*
X151557942Y-80510908D01*
X151394421Y-80361149D01*
X151233049Y-80209396D01*
X151083791Y-80065043D01*
X150956621Y-79937482D01*
X150861502Y-79836106D01*
X150808407Y-79770308D01*
X150786912Y-79739519D01*
X150689503Y-79626430D01*
X150557452Y-79496354D01*
X150408030Y-79364768D01*
X150258515Y-79247149D01*
X150126175Y-79158976D01*
X150111642Y-79150536D01*
X149916256Y-79029439D01*
X149782457Y-78929949D01*
X149711184Y-78852870D01*
X149703380Y-78799003D01*
X149721070Y-78779885D01*
X149768733Y-78780120D01*
X149852947Y-78822412D01*
X149922147Y-78859012D01*
X149985092Y-78870154D01*
X150039249Y-78841734D01*
X150066789Y-78822376D01*
X150103992Y-78813690D01*
X150156463Y-78827439D01*
X150238729Y-78867986D01*
X150365317Y-78939697D01*
X150410793Y-78966407D01*
X150535919Y-79047122D01*
X150647985Y-79134719D01*
X150765659Y-79244797D01*
X150907603Y-79392957D01*
X150999197Y-79487680D01*
X151156567Y-79638599D01*
X151315925Y-79779907D01*
X151453897Y-79890319D01*
X151521437Y-79940723D01*
X151683799Y-80065604D01*
X151857191Y-80202782D01*
X152014014Y-80330562D01*
X152062557Y-80370024D01*
X152261647Y-80519557D01*
X152488796Y-80675194D01*
X152717654Y-80818658D01*
X152726333Y-80823828D01*
X152962393Y-80973356D01*
X153205547Y-81142426D01*
X153438775Y-81318226D01*
X153645053Y-81487946D01*
X153807358Y-81638773D01*
X153925555Y-81736990D01*
X154087349Y-81835251D01*
X154263311Y-81915587D01*
X154431986Y-81968319D01*
X154571920Y-81983765D01*
X154605514Y-81982929D01*
X154649677Y-81986570D01*
X154655913Y-81987832D01*
X154714158Y-81994466D01*
X154818172Y-82004042D01*
X154950800Y-82014942D01*
X155166117Y-82033846D01*
X155456122Y-82066466D01*
X155713944Y-82104020D01*
X155930445Y-82144936D01*
X156096489Y-82187638D01*
X156202942Y-82230554D01*
X156212194Y-82235271D01*
X156288217Y-82262808D01*
X156405518Y-82296499D01*
X156542824Y-82330112D01*
X156569283Y-82336149D01*
X156710812Y-82371337D01*
X156832956Y-82406075D01*
X156911748Y-82433637D01*
X156927669Y-82433098D01*
X156897083Y-82396614D01*
X156822665Y-82328292D01*
X156709808Y-82233474D01*
X156653708Y-82187696D01*
X156478882Y-82044722D01*
X156346539Y-81935593D01*
X156248102Y-81852883D01*
X156174995Y-81789163D01*
X156118645Y-81737008D01*
X156070473Y-81688987D01*
X156021906Y-81637676D01*
X155939485Y-81550331D01*
X155828364Y-81434308D01*
X155717761Y-81320232D01*
X155705386Y-81307521D01*
X155616003Y-81212822D01*
X155547251Y-81135177D01*
X155513146Y-81090332D01*
X155502942Y-81071906D01*
X155477043Y-81034721D01*
X155460562Y-81016722D01*
X155418182Y-80964817D01*
X155412666Y-80957805D01*
X155363131Y-80895231D01*
X155287524Y-80800061D01*
X155199852Y-80689932D01*
X155166259Y-80647756D01*
X155059492Y-80513166D01*
X154985238Y-80418134D01*
X154935058Y-80351522D01*
X154900510Y-80302201D01*
X154873153Y-80259038D01*
X154792758Y-80129861D01*
X154703477Y-79993111D01*
X154622903Y-79876030D01*
X154560028Y-79791645D01*
X154523845Y-79752985D01*
X154493015Y-79723923D01*
X154432959Y-79651922D01*
X154361534Y-79556279D01*
X154327074Y-79508443D01*
X154229170Y-79378712D01*
X154139987Y-79268729D01*
X154069715Y-79190712D01*
X154028541Y-79156883D01*
X153995195Y-79134888D01*
X153933421Y-79076754D01*
X153872761Y-79008471D01*
X153837173Y-78955274D01*
X153823065Y-78931110D01*
X153758412Y-78857029D01*
X153658779Y-78762715D01*
X153538883Y-78660948D01*
X153413437Y-78564509D01*
X153297152Y-78486181D01*
X153201108Y-78429749D01*
X153027456Y-78332691D01*
X152818265Y-78219571D01*
X152588758Y-78098325D01*
X152354152Y-77976891D01*
X152129669Y-77863206D01*
X151930528Y-77765206D01*
X151771951Y-77690830D01*
X151756665Y-77684006D01*
X151462683Y-77571938D01*
X151177814Y-77497867D01*
X150921888Y-77467015D01*
X150910170Y-77466640D01*
X150609656Y-77457443D01*
X150368259Y-77451437D01*
X150176729Y-77449120D01*
X150025816Y-77450989D01*
X149906271Y-77457544D01*
X149808845Y-77469285D01*
X149724288Y-77486708D01*
X149643351Y-77510313D01*
X149556786Y-77540599D01*
X149404407Y-77592366D01*
X149211670Y-77650856D01*
X149008811Y-77706916D01*
X148814627Y-77755607D01*
X148647913Y-77791988D01*
X148527465Y-77811121D01*
X148422339Y-77821351D01*
X148553926Y-77876108D01*
X148558312Y-77877946D01*
X148662940Y-77925953D01*
X148805366Y-77996648D01*
X148973200Y-78083314D01*
X149154053Y-78179233D01*
X149335530Y-78277686D01*
X149505243Y-78371957D01*
X149650802Y-78455325D01*
X149759816Y-78521075D01*
X149819893Y-78562488D01*
X149850700Y-78590870D01*
X149893723Y-78649340D01*
X149881935Y-78679084D01*
X149815596Y-78673381D01*
X149763246Y-78673858D01*
X149703108Y-78730733D01*
X149683889Y-78758631D01*
X149627858Y-78795862D01*
X149547629Y-78794069D01*
X149433480Y-78751815D01*
X149275686Y-78667669D01*
X149263732Y-78660916D01*
X149164333Y-78609779D01*
X149020835Y-78541155D01*
X148845064Y-78460206D01*
X148648849Y-78372093D01*
X148444015Y-78281978D01*
X148242390Y-78195020D01*
X148055800Y-78116382D01*
X147896071Y-78051225D01*
X147775031Y-78004709D01*
X147704504Y-77981997D01*
X147660369Y-77986511D01*
X147613174Y-78030326D01*
X147552080Y-78125708D01*
X147523020Y-78179804D01*
X147470139Y-78299006D01*
X147439407Y-78397853D01*
X147428130Y-78441826D01*
X147400582Y-78498417D01*
X147349839Y-78563396D01*
X147266143Y-78648770D01*
X147139736Y-78766547D01*
X147091364Y-78810197D01*
X146958140Y-78922398D01*
X146883508Y-78973281D01*
X146866950Y-78984571D01*
X146819218Y-78995696D01*
X146816828Y-78994335D01*
X146786776Y-78989285D01*
X146787774Y-79037074D01*
X146789915Y-79048651D01*
X146814427Y-79106219D01*
X146863594Y-79113313D01*
X146951347Y-79072993D01*
X146991031Y-79054510D01*
X147106729Y-79018968D01*
X147233455Y-78996865D01*
X147332782Y-78985048D01*
X147490450Y-78962160D01*
X147643864Y-78936202D01*
X147831611Y-78915949D01*
X148141801Y-78935383D01*
X148481521Y-79014838D01*
X148849148Y-79153890D01*
X149243059Y-79352118D01*
X149250102Y-79356063D01*
X149435259Y-79461494D01*
X149576156Y-79547644D01*
X149688855Y-79626802D01*
X149789421Y-79711255D01*
X149893916Y-79813290D01*
X150018404Y-79945194D01*
X150134104Y-80060164D01*
X150321291Y-80214681D01*
X150557418Y-80378765D01*
X150661955Y-80447389D01*
X150851633Y-80573880D01*
X151040570Y-80701892D01*
X151200182Y-80812151D01*
X151265867Y-80858028D01*
X151430153Y-80971610D01*
X151592696Y-81082657D01*
X151726328Y-81172557D01*
X151807296Y-81228678D01*
X151908151Y-81305023D01*
X152023686Y-81399593D01*
X152160781Y-81518371D01*
X152326318Y-81667334D01*
X152527178Y-81852463D01*
X152770241Y-82079738D01*
X152843609Y-82146955D01*
X152988542Y-82274394D01*
X153149644Y-82411303D01*
X153303660Y-82537714D01*
X153422131Y-82634178D01*
X153528649Y-82723811D01*
X153604040Y-82790569D01*
X153636876Y-82824609D01*
X153650173Y-82841412D01*
X153707413Y-82895424D01*
X153789487Y-82962742D01*
X153819459Y-82986554D01*
X153934452Y-83085655D01*
X154036485Y-83183201D01*
X154090475Y-83238817D01*
X154195399Y-83346299D01*
X154299495Y-83452374D01*
X154364472Y-83521232D01*
X154462155Y-83633697D01*
X154536382Y-83729487D01*
X154599683Y-83813312D01*
X154693322Y-83927398D01*
X154792894Y-84041354D01*
X154803468Y-84053061D01*
X154884681Y-84146218D01*
X154943073Y-84218824D01*
X154966617Y-84256016D01*
X154970063Y-84264782D01*
X155006950Y-84316927D01*
X155070863Y-84393214D01*
X155145413Y-84475365D01*
X155214211Y-84545108D01*
X155260873Y-84584166D01*
X155273548Y-84596199D01*
X155319601Y-84658448D01*
X155384389Y-84758861D01*
X155458129Y-84882636D01*
X155473605Y-84909462D01*
X155570489Y-85073625D01*
X155673562Y-85243316D01*
X155762967Y-85385765D01*
X155824874Y-85484798D01*
X155998273Y-85809160D01*
X156124406Y-86134565D01*
X156144511Y-86196443D01*
X156196934Y-86351375D01*
X156248272Y-86496477D01*
X156255959Y-86517946D01*
X156307857Y-86677800D01*
X156368195Y-86883326D01*
X156432041Y-87116096D01*
X156494464Y-87357683D01*
X156550536Y-87589661D01*
X156595327Y-87793602D01*
X156606623Y-87848701D01*
X156637104Y-87995065D01*
X156663425Y-88118371D01*
X156680876Y-88196455D01*
X156734991Y-88484882D01*
X156765264Y-88796492D01*
X156764782Y-89082114D01*
X156761996Y-89131217D01*
X156758849Y-89256299D01*
X156762433Y-89346739D01*
X156772325Y-89385615D01*
X156781540Y-89402386D01*
X156767512Y-89454502D01*
X156761719Y-89467863D01*
X156749441Y-89547519D01*
X156752476Y-89650420D01*
X156755505Y-89700803D01*
X156749988Y-89836894D01*
X156730502Y-89972870D01*
X156718877Y-90032509D01*
X156696882Y-90172106D01*
X156684543Y-90289437D01*
X156680658Y-90329785D01*
X156656931Y-90460401D01*
X156621357Y-90590304D01*
X156587570Y-90692823D01*
X156522057Y-90903401D01*
X156470019Y-91087472D01*
X156434920Y-91232381D01*
X156420219Y-91325475D01*
X156419510Y-91337356D01*
X156390057Y-91541164D01*
X156329628Y-91781550D01*
X156244622Y-92038987D01*
X156141438Y-92293949D01*
X156026475Y-92526913D01*
X155923648Y-92713301D01*
X155803360Y-92930067D01*
X155708295Y-93098755D01*
X155633957Y-93226557D01*
X155575855Y-93320662D01*
X155529495Y-93388264D01*
X155490382Y-93436553D01*
X155454023Y-93472721D01*
X155415923Y-93503957D01*
X155399992Y-93516379D01*
X155350965Y-93557707D01*
X155302390Y-93605938D01*
X155247751Y-93669396D01*
X155180531Y-93756408D01*
X155094215Y-93875296D01*
X154982287Y-94034385D01*
X154838231Y-94242001D01*
X154649965Y-94507339D01*
X154488394Y-94720441D01*
X154356213Y-94877737D01*
X154255213Y-94976970D01*
X154238642Y-94990883D01*
X154145690Y-95074848D01*
X154015512Y-95198770D01*
X153856250Y-95354804D01*
X153676042Y-95535107D01*
X153610542Y-95599588D01*
X153514014Y-95688110D01*
X153440463Y-95747417D01*
X153402065Y-95767192D01*
X153376456Y-95772500D01*
X153332406Y-95816729D01*
X153309869Y-95846610D01*
X153276856Y-95860726D01*
X153272968Y-95860947D01*
X153240296Y-95895579D01*
X153187146Y-95973960D01*
X153122919Y-96082547D01*
X153100526Y-96123260D01*
X153031652Y-96266441D01*
X152991920Y-96394907D01*
X152970776Y-96540417D01*
X152957956Y-96649580D01*
X152937076Y-96775162D01*
X152915463Y-96862557D01*
X152893571Y-96944072D01*
X152893139Y-96948888D01*
X152887675Y-97009750D01*
X152877725Y-97049084D01*
X152839908Y-97137717D01*
X152780191Y-97259534D01*
X152705146Y-97400466D01*
X152656863Y-97487449D01*
X152584776Y-97611857D01*
X152526049Y-97699005D01*
X152468236Y-97764104D01*
X152398900Y-97822371D01*
X152305593Y-97889019D01*
X152244834Y-97929820D01*
X152133114Y-97992260D01*
X152026196Y-98026479D01*
X151906399Y-98034667D01*
X151756038Y-98019016D01*
X151557431Y-97981718D01*
X151273012Y-97922760D01*
X151031996Y-97699316D01*
X150998036Y-97667975D01*
X150926241Y-97603803D01*
X150857183Y-97547309D01*
X150781768Y-97492851D01*
X150690899Y-97434787D01*
X150575479Y-97367475D01*
X150426411Y-97285275D01*
X150234601Y-97182542D01*
X149990951Y-97053637D01*
X149795353Y-96949661D01*
X149591861Y-96839816D01*
X149413549Y-96741804D01*
X149269364Y-96660602D01*
X149168256Y-96601189D01*
X149119170Y-96568543D01*
X149100030Y-96553955D01*
X149003447Y-96518039D01*
X148856153Y-96508541D01*
X148784102Y-96508823D01*
X148653011Y-96506032D01*
X148552445Y-96499924D01*
X148456220Y-96492484D01*
X148379284Y-96490512D01*
X148352641Y-96490351D01*
X148261808Y-96485473D01*
X148149477Y-96476099D01*
X148059192Y-96467516D01*
X147905343Y-96453388D01*
X147753651Y-96439904D01*
X147654483Y-96430986D01*
X147496397Y-96414440D01*
X147387608Y-96398381D01*
X147315117Y-96380655D01*
X147265932Y-96359112D01*
X147236063Y-96346825D01*
X147145336Y-96323962D01*
X147031861Y-96305709D01*
X146920579Y-96287385D01*
X146848220Y-96258102D01*
X146799800Y-96209235D01*
X146777431Y-96182188D01*
X146740795Y-96161297D01*
X146683419Y-96159079D01*
X146590181Y-96175605D01*
X146445968Y-96210950D01*
X146404119Y-96221932D01*
X146244544Y-96267759D01*
X146097151Y-96315451D01*
X145989325Y-96356289D01*
X145828397Y-96422233D01*
X145530826Y-96528258D01*
X145204792Y-96628880D01*
X144872794Y-96717791D01*
X144557334Y-96788681D01*
X144280911Y-96835244D01*
X144191431Y-96847698D01*
X144063107Y-96869067D01*
X143972012Y-96888830D01*
X143933684Y-96903912D01*
X143915579Y-96916106D01*
X143855367Y-96919263D01*
X143788885Y-96921974D01*
X143698009Y-96946231D01*
X143622070Y-96965043D01*
X143561689Y-96958934D01*
X143541575Y-96951039D01*
X143503173Y-96962164D01*
X143480608Y-96975465D01*
X143417365Y-96974593D01*
X143355093Y-96968731D01*
X143244909Y-96967347D01*
X143115035Y-96971390D01*
X142995309Y-96975638D01*
X142939329Y-96975350D01*
X142902945Y-96975163D01*
X142859097Y-96970016D01*
X142839549Y-96965390D01*
X142791466Y-96970657D01*
X142777020Y-96972239D01*
X142744189Y-96977022D01*
X142679635Y-96965623D01*
X142663217Y-96959290D01*
X142623754Y-96973048D01*
X142618740Y-96980034D01*
X142586972Y-96985200D01*
X142560240Y-96970975D01*
X142489492Y-96954497D01*
X142369579Y-96939412D01*
X142190724Y-96924213D01*
X142076657Y-96910866D01*
X141909276Y-96879006D01*
X141767207Y-96839277D01*
X141684600Y-96813220D01*
X141565675Y-96785644D01*
X141478809Y-96777212D01*
X141472109Y-96777492D01*
X141368236Y-96768915D01*
X141256306Y-96743742D01*
X141220255Y-96732859D01*
X141107495Y-96700584D01*
X140961496Y-96660216D01*
X140806800Y-96618569D01*
X140804660Y-96617993D01*
X140710813Y-96590771D01*
X140513810Y-96524258D01*
X140305559Y-96444671D01*
X140117961Y-96363818D01*
X139984562Y-96302067D01*
X139860765Y-96245464D01*
X139772332Y-96205837D01*
X139732709Y-96189277D01*
X139712342Y-96180700D01*
X139635247Y-96139540D01*
X139516125Y-96071038D01*
X139365312Y-95981551D01*
X139193140Y-95877440D01*
X139009946Y-95765063D01*
X138826062Y-95650779D01*
X138651825Y-95540948D01*
X138497568Y-95441927D01*
X138465411Y-95420691D01*
X140106845Y-95420691D01*
X140113135Y-95444166D01*
X140136611Y-95437876D01*
X140130320Y-95414400D01*
X140106845Y-95420691D01*
X138465411Y-95420691D01*
X138373626Y-95360078D01*
X138290333Y-95301757D01*
X138263126Y-95281513D01*
X138118676Y-95175725D01*
X137973568Y-95071726D01*
X137855502Y-94989413D01*
X137849131Y-94984887D01*
X137977179Y-94984887D01*
X137983470Y-95008362D01*
X138006945Y-95002072D01*
X138000655Y-94978596D01*
X137977179Y-94984887D01*
X137849131Y-94984887D01*
X137770283Y-94928870D01*
X137643201Y-94831359D01*
X137540424Y-94744618D01*
X137510968Y-94715975D01*
X137426698Y-94627271D01*
X137311148Y-94500527D01*
X137172032Y-94344667D01*
X137017066Y-94168616D01*
X136853963Y-93981297D01*
X136690438Y-93791636D01*
X136534206Y-93608557D01*
X136392981Y-93440983D01*
X136274479Y-93297839D01*
X136186412Y-93188050D01*
X136136496Y-93120540D01*
X136123373Y-93100836D01*
X136039737Y-92986628D01*
X135955146Y-92884715D01*
X135905731Y-92827493D01*
X135784052Y-92670162D01*
X135642408Y-92470358D01*
X135488684Y-92240567D01*
X135330768Y-91993281D01*
X135176544Y-91740985D01*
X135033897Y-91496168D01*
X134910715Y-91271319D01*
X134814882Y-91078926D01*
X134784312Y-91013383D01*
X134714289Y-90865165D01*
X134628293Y-90684646D01*
X134535179Y-90490287D01*
X134443797Y-90300545D01*
X134363001Y-90133879D01*
X134301643Y-90008748D01*
X134300285Y-90005961D01*
X134266657Y-89919782D01*
X134223258Y-89785402D01*
X134175540Y-89620674D01*
X134128959Y-89443454D01*
X134096066Y-89301315D01*
X134094443Y-89290870D01*
X135016882Y-89290870D01*
X135022448Y-89386646D01*
X135038109Y-89537956D01*
X135064162Y-89750983D01*
X135065814Y-89764188D01*
X135080969Y-89900944D01*
X135097198Y-90068840D01*
X135111257Y-90234585D01*
X135118439Y-90317112D01*
X135153351Y-90577836D01*
X135209312Y-90837548D01*
X135291186Y-91116179D01*
X135403835Y-91433660D01*
X135409931Y-91449792D01*
X135507981Y-91702512D01*
X135592770Y-91904922D01*
X135671089Y-92071523D01*
X135749728Y-92216814D01*
X135835481Y-92355297D01*
X135890516Y-92443183D01*
X135976925Y-92590871D01*
X136054206Y-92732612D01*
X136055444Y-92734997D01*
X136110239Y-92838160D01*
X136151668Y-92911526D01*
X136170845Y-92939350D01*
X136186401Y-92954948D01*
X136232677Y-93012792D01*
X136297110Y-93098731D01*
X136314120Y-93121430D01*
X136403102Y-93231954D01*
X136514674Y-93362035D01*
X136628750Y-93488093D01*
X136677711Y-93541569D01*
X136759705Y-93637309D01*
X136813273Y-93708720D01*
X136828653Y-93743339D01*
X136827021Y-93746615D01*
X136836362Y-93794604D01*
X136881984Y-93839253D01*
X136938187Y-93854486D01*
X136955857Y-93858916D01*
X137022694Y-93898067D01*
X137123740Y-93970233D01*
X137248030Y-94066767D01*
X137384597Y-94179025D01*
X137522474Y-94298365D01*
X137650695Y-94416139D01*
X137703323Y-94464116D01*
X137798246Y-94543330D01*
X137890991Y-94613888D01*
X137965105Y-94663512D01*
X138004136Y-94679923D01*
X138033396Y-94688193D01*
X138108858Y-94719913D01*
X138211129Y-94767869D01*
X138300303Y-94809155D01*
X138390754Y-94845653D01*
X138441550Y-94859235D01*
X138461611Y-94862388D01*
X138535480Y-94887362D01*
X138632008Y-94929304D01*
X138635824Y-94931102D01*
X138729751Y-94970411D01*
X138869794Y-95023415D01*
X139037664Y-95083395D01*
X139215076Y-95143629D01*
X139218445Y-95144740D01*
X139401133Y-95205165D01*
X139579262Y-95264295D01*
X139732586Y-95315396D01*
X139840859Y-95351738D01*
X139927624Y-95377666D01*
X140021287Y-95396690D01*
X140073522Y-95395574D01*
X140106994Y-95387125D01*
X140181883Y-95393833D01*
X140189542Y-95387760D01*
X140152400Y-95355492D01*
X140083745Y-95306281D01*
X139997316Y-95249510D01*
X139906850Y-95194562D01*
X139826086Y-95150821D01*
X139805548Y-95140458D01*
X139706574Y-95087313D01*
X139566238Y-95009016D01*
X139394651Y-94911478D01*
X139201927Y-94800610D01*
X138998177Y-94682324D01*
X138793516Y-94562533D01*
X138598055Y-94447147D01*
X138421907Y-94342079D01*
X138275186Y-94253241D01*
X138168003Y-94186543D01*
X138110473Y-94147899D01*
X138098220Y-94138255D01*
X138000473Y-94052943D01*
X137887878Y-93944268D01*
X137777074Y-93829394D01*
X137684703Y-93725481D01*
X137627408Y-93649693D01*
X137603486Y-93616193D01*
X137556273Y-93571082D01*
X137530715Y-93542870D01*
X137473603Y-93465324D01*
X137393721Y-93350053D01*
X137298308Y-93208075D01*
X137194607Y-93050413D01*
X137089856Y-92888088D01*
X136991297Y-92732124D01*
X136906171Y-92593542D01*
X136841719Y-92483363D01*
X136791901Y-92395306D01*
X136715981Y-92263573D01*
X136653073Y-92157060D01*
X136636034Y-92128758D01*
X136551623Y-91986804D01*
X136456595Y-91824804D01*
X136358552Y-91655960D01*
X136265097Y-91493475D01*
X136183831Y-91350548D01*
X136122357Y-91240385D01*
X136088275Y-91176185D01*
X136064725Y-91129000D01*
X135992603Y-90992287D01*
X135903766Y-90830637D01*
X135810301Y-90665544D01*
X135724298Y-90518496D01*
X135657846Y-90410985D01*
X135607193Y-90326096D01*
X135534719Y-90188694D01*
X135469512Y-90049773D01*
X135451406Y-90009128D01*
X135387780Y-89875749D01*
X135310613Y-89723276D01*
X135228574Y-89567918D01*
X135150333Y-89425883D01*
X135084558Y-89313376D01*
X135039919Y-89246607D01*
X135034842Y-89241168D01*
X135021111Y-89244439D01*
X135016882Y-89290870D01*
X134094443Y-89290870D01*
X134036379Y-88917130D01*
X134029509Y-88566215D01*
X134075709Y-88240301D01*
X134175232Y-87931115D01*
X134201245Y-87863625D01*
X134235497Y-87754385D01*
X134250012Y-87677032D01*
X134260604Y-87633173D01*
X134299273Y-87535805D01*
X134359467Y-87407458D01*
X134433999Y-87264256D01*
X134488866Y-87160946D01*
X134564831Y-87008606D01*
X134625988Y-86875048D01*
X134662669Y-86780713D01*
X134692047Y-86692795D01*
X134740017Y-86556681D01*
X134799178Y-86393327D01*
X134862792Y-86221559D01*
X134921120Y-86065210D01*
X134991518Y-85874973D01*
X135055388Y-85700867D01*
X135103858Y-85566980D01*
X135121506Y-85522475D01*
X135181160Y-85393375D01*
X135267175Y-85222559D01*
X135373176Y-85021400D01*
X135492790Y-84801273D01*
X135619643Y-84573552D01*
X135747361Y-84349610D01*
X135869568Y-84140823D01*
X135979893Y-83958563D01*
X136071961Y-83814204D01*
X136139397Y-83719123D01*
X136171104Y-83677618D01*
X136235469Y-83583070D01*
X136274629Y-83510929D01*
X136274806Y-83510479D01*
X136286400Y-83466602D01*
X136271883Y-83431571D01*
X136219452Y-83392216D01*
X136117302Y-83335365D01*
X136030205Y-83287562D01*
X135946881Y-83238848D01*
X135904960Y-83210340D01*
X135892479Y-83198845D01*
X135837429Y-83155453D01*
X135765439Y-83100556D01*
X135659846Y-83007828D01*
X135571503Y-82917319D01*
X135519811Y-82847817D01*
X135510661Y-82832779D01*
X135455530Y-82763157D01*
X135369364Y-82668022D01*
X135266433Y-82563394D01*
X135236887Y-82534148D01*
X135129110Y-82421196D01*
X135037126Y-82315841D01*
X134978245Y-82237650D01*
X134958387Y-82207526D01*
X134889934Y-82110879D01*
X134799195Y-81988515D01*
X134700348Y-81859713D01*
X134645509Y-81787644D01*
X134497120Y-81562829D01*
X134385239Y-81333395D01*
X134300768Y-81078174D01*
X134234611Y-80776001D01*
X134215004Y-80677991D01*
X134177622Y-80511848D01*
X134132004Y-80323704D01*
X134084019Y-80138414D01*
X134044283Y-79979748D01*
X134013726Y-79835426D01*
X134006103Y-79786916D01*
X134369422Y-79786916D01*
X134384119Y-79820500D01*
X134430447Y-79899019D01*
X134501253Y-80010842D01*
X134589381Y-80144336D01*
X134667370Y-80261133D01*
X134799158Y-80460716D01*
X134934792Y-80668220D01*
X135054743Y-80853871D01*
X135150865Y-80996950D01*
X135265640Y-81154117D01*
X135374162Y-81290076D01*
X135461953Y-81385912D01*
X135567180Y-81490039D01*
X135696856Y-81624077D01*
X135814784Y-81751105D01*
X135819622Y-81756464D01*
X135885656Y-81827408D01*
X135948398Y-81887552D01*
X136018435Y-81944216D01*
X136106355Y-82004722D01*
X136222746Y-82076390D01*
X136378195Y-82166541D01*
X136583291Y-82282497D01*
X136628903Y-82308140D01*
X136819937Y-82414918D01*
X136961703Y-82492212D01*
X137062866Y-82543853D01*
X137132089Y-82573671D01*
X137178037Y-82585498D01*
X137209376Y-82583162D01*
X137234767Y-82570495D01*
X137247545Y-82562114D01*
X137316634Y-82516681D01*
X137426411Y-82444404D01*
X137564677Y-82353321D01*
X137719229Y-82251464D01*
X137756221Y-82227108D01*
X137914938Y-82124371D01*
X138036489Y-82051670D01*
X138137300Y-82001768D01*
X138233794Y-81967431D01*
X138342396Y-81941424D01*
X138479528Y-81916508D01*
X138563735Y-81901581D01*
X138721993Y-81870782D01*
X138857302Y-81841102D01*
X138947181Y-81817311D01*
X139182332Y-81746682D01*
X139415798Y-81691527D01*
X139639548Y-81656994D01*
X139753719Y-81641838D01*
X139898539Y-81617991D01*
X140010735Y-81594502D01*
X140045925Y-81586229D01*
X140132615Y-81571962D01*
X140180500Y-81573451D01*
X140188416Y-81576422D01*
X140236461Y-81563403D01*
X140237266Y-81562535D01*
X140227743Y-81524358D01*
X140180633Y-81452423D01*
X140105549Y-81361550D01*
X140098391Y-81353608D01*
X140010732Y-81260535D01*
X139943529Y-81204753D01*
X139874818Y-81171639D01*
X139782629Y-81146568D01*
X139773412Y-81144298D01*
X139657751Y-81104575D01*
X139515635Y-81041778D01*
X139375681Y-80968433D01*
X139207726Y-80877551D01*
X138969343Y-80761109D01*
X138702071Y-80640877D01*
X138418770Y-80521888D01*
X138132299Y-80409172D01*
X137855519Y-80307765D01*
X137601289Y-80222698D01*
X137382472Y-80159003D01*
X137211926Y-80121711D01*
X137182323Y-80116540D01*
X137049656Y-80087208D01*
X136888692Y-80045197D01*
X136727846Y-79997781D01*
X136608827Y-79961398D01*
X136487851Y-79928468D01*
X136368414Y-79902201D01*
X136238813Y-79881006D01*
X136087345Y-79863290D01*
X135902306Y-79847463D01*
X135671993Y-79831933D01*
X135384702Y-79815108D01*
X135364656Y-79813980D01*
X135067892Y-79797717D01*
X134833083Y-79785873D01*
X134653975Y-79778274D01*
X134524313Y-79774745D01*
X134437844Y-79775112D01*
X134388312Y-79779201D01*
X134369465Y-79786838D01*
X134369422Y-79786916D01*
X134006103Y-79786916D01*
X133996451Y-79725493D01*
X133995423Y-79665754D01*
X134045457Y-79595928D01*
X134143697Y-79551962D01*
X134270723Y-79544847D01*
X134311763Y-79546372D01*
X134421917Y-79540273D01*
X134545075Y-79524660D01*
X134670664Y-79509102D01*
X134832156Y-79496441D01*
X134992161Y-79489768D01*
X135035395Y-79488393D01*
X135187103Y-79479200D01*
X135378991Y-79463308D01*
X135590851Y-79442494D01*
X135802477Y-79418535D01*
X135879940Y-79409398D01*
X136096104Y-79386584D01*
X136306289Y-79367837D01*
X136489785Y-79354893D01*
X136625882Y-79349489D01*
X136660983Y-79349074D01*
X136793843Y-79346326D01*
X136898137Y-79342379D01*
X136953778Y-79337943D01*
X136987228Y-79333978D01*
X137112437Y-79334715D01*
X137276068Y-79350205D01*
X137457742Y-79378797D01*
X137596953Y-79404906D01*
X137799222Y-79443490D01*
X137957224Y-79476775D01*
X138085736Y-79510082D01*
X138199536Y-79548727D01*
X138313399Y-79598032D01*
X138442102Y-79663315D01*
X138600422Y-79749896D01*
X138803135Y-79863092D01*
X138846738Y-79887389D01*
X139028050Y-79987578D01*
X139186411Y-80073751D01*
X139312588Y-80140976D01*
X139397347Y-80184318D01*
X139431455Y-80198843D01*
X139433211Y-80192335D01*
X139423359Y-80137207D01*
X139396846Y-80038457D01*
X139357557Y-79911197D01*
X139348340Y-79881953D01*
X139288250Y-79626845D01*
X139249384Y-79322414D01*
X139231524Y-78964575D01*
X139234446Y-78549242D01*
X139257930Y-78072333D01*
X139264883Y-77938746D01*
X139263111Y-77805354D01*
X139246193Y-77684307D01*
X139229578Y-77622383D01*
X139515809Y-77622383D01*
X139518230Y-77714010D01*
X139533712Y-77848827D01*
X139561063Y-78018561D01*
X139599089Y-78214939D01*
X139646599Y-78429686D01*
X139702402Y-78654527D01*
X139713794Y-78697230D01*
X139775588Y-78911600D01*
X139849899Y-79147847D01*
X139932193Y-79393415D01*
X140017934Y-79635752D01*
X140102588Y-79862305D01*
X140181619Y-80060520D01*
X140250494Y-80217844D01*
X140304675Y-80321722D01*
X140318467Y-80347067D01*
X140358258Y-80440579D01*
X140396144Y-80551970D01*
X140436984Y-80658166D01*
X140533610Y-80837287D01*
X140663061Y-81029075D01*
X140812907Y-81215639D01*
X140970717Y-81379088D01*
X140998019Y-81404227D01*
X141097400Y-81493524D01*
X141177234Y-81561966D01*
X141222289Y-81596399D01*
X141225618Y-81597982D01*
X141283943Y-81612567D01*
X141394050Y-81632055D01*
X141541519Y-81654094D01*
X141711928Y-81676329D01*
X141743719Y-81680299D01*
X141891854Y-81701644D01*
X142049514Y-81729540D01*
X142224730Y-81765926D01*
X142425528Y-81812740D01*
X142659939Y-81871921D01*
X142935994Y-81945407D01*
X143261720Y-82035137D01*
X143645149Y-82143049D01*
X143702699Y-82158871D01*
X143904808Y-82209495D01*
X144123784Y-82258731D01*
X144321397Y-82297831D01*
X144427140Y-82317595D01*
X144565934Y-82346430D01*
X144670796Y-82371740D01*
X144724785Y-82389669D01*
X144753642Y-82402183D01*
X144836673Y-82416146D01*
X144858818Y-82414064D01*
X144882052Y-82392994D01*
X144865089Y-82332555D01*
X144829742Y-82264352D01*
X144767405Y-82162227D01*
X144691789Y-82048752D01*
X144690169Y-82046420D01*
X144616726Y-81936432D01*
X144558574Y-81841593D01*
X144528177Y-81782204D01*
X144502645Y-81734940D01*
X144442820Y-81648602D01*
X144365179Y-81549800D01*
X144298635Y-81466771D01*
X144237074Y-81382751D01*
X144206227Y-81331046D01*
X144206219Y-81331024D01*
X144176122Y-81281596D01*
X144109807Y-81190116D01*
X144015483Y-81066971D01*
X143901358Y-80922547D01*
X143775641Y-80767235D01*
X143646541Y-80611421D01*
X143522267Y-80465494D01*
X143493668Y-80432645D01*
X143370753Y-80296707D01*
X143252071Y-80176826D01*
X143122499Y-80059108D01*
X142966918Y-79929663D01*
X142770204Y-79774598D01*
X142725508Y-79739695D01*
X144212507Y-79739695D01*
X144218773Y-79749521D01*
X144243808Y-79731308D01*
X144250759Y-79714309D01*
X144235421Y-79700006D01*
X144229340Y-79702313D01*
X144212507Y-79739695D01*
X142725508Y-79739695D01*
X142679250Y-79703572D01*
X142538006Y-79591734D01*
X142412592Y-79490722D01*
X142322368Y-79416037D01*
X142277411Y-79379031D01*
X142162494Y-79289379D01*
X142023255Y-79184938D01*
X141880520Y-79081477D01*
X141810370Y-79031227D01*
X141655720Y-78918162D01*
X141509136Y-78808352D01*
X141394795Y-78719802D01*
X141384468Y-78711650D01*
X141235413Y-78605364D01*
X141043718Y-78483457D01*
X140828203Y-78356658D01*
X140607689Y-78235693D01*
X140400997Y-78131289D01*
X140226947Y-78054172D01*
X140109500Y-78000343D01*
X139944762Y-77907022D01*
X139783137Y-77799188D01*
X139644737Y-77690493D01*
X139549678Y-77594584D01*
X139527640Y-77582223D01*
X139515809Y-77622383D01*
X139229578Y-77622383D01*
X139210260Y-77550382D01*
X139151440Y-77378357D01*
X139118215Y-77281567D01*
X139073976Y-77131294D01*
X139052054Y-77021599D01*
X139055055Y-76963688D01*
X139118999Y-76887733D01*
X139206959Y-76852252D01*
X139295385Y-76878863D01*
X139320721Y-76891650D01*
X139417527Y-76918122D01*
X139560052Y-76941405D01*
X139732662Y-76958646D01*
X139833492Y-76967561D01*
X139999878Y-76988532D01*
X140143467Y-77013905D01*
X140241317Y-77040010D01*
X140278637Y-77053943D01*
X140381523Y-77091800D01*
X140454356Y-77117835D01*
X140474217Y-77126223D01*
X140552484Y-77164467D01*
X140672513Y-77226243D01*
X140822061Y-77305200D01*
X140988880Y-77394990D01*
X141282276Y-77562422D01*
X141704864Y-77827486D01*
X142130725Y-78119524D01*
X142537240Y-78422850D01*
X142901795Y-78721780D01*
X142949427Y-78762997D01*
X143131947Y-78919461D01*
X143322684Y-79081068D01*
X143501684Y-79230977D01*
X143648996Y-79352353D01*
X143775167Y-79455459D01*
X143895898Y-79555129D01*
X143990224Y-79634077D01*
X144044613Y-79681060D01*
X144082235Y-79712140D01*
X144122789Y-79718619D01*
X144161100Y-79668338D01*
X144177176Y-79648917D01*
X144410441Y-79648917D01*
X144416731Y-79672393D01*
X144440207Y-79666102D01*
X144433916Y-79642627D01*
X144410441Y-79648917D01*
X144177176Y-79648917D01*
X144200010Y-79621332D01*
X144252473Y-79617246D01*
X144276061Y-79625706D01*
X144297768Y-79607014D01*
X144305308Y-79599828D01*
X144875349Y-79599828D01*
X144881640Y-79623304D01*
X144905116Y-79617014D01*
X144898825Y-79593539D01*
X144875349Y-79599828D01*
X144305308Y-79599828D01*
X144314055Y-79591491D01*
X144382086Y-79574476D01*
X144485253Y-79566429D01*
X144601781Y-79558358D01*
X144744781Y-79535714D01*
X144920526Y-79496186D01*
X145139569Y-79437389D01*
X145412461Y-79356940D01*
X145483042Y-79336340D01*
X145678467Y-79288296D01*
X145847148Y-79259960D01*
X145976629Y-79253033D01*
X146054459Y-79269219D01*
X146069799Y-79288732D01*
X146088600Y-79367109D01*
X146095560Y-79484809D01*
X146091516Y-79623542D01*
X146077307Y-79765013D01*
X146053772Y-79890931D01*
X146021747Y-79983004D01*
X145966516Y-80077952D01*
X145886675Y-80183717D01*
X145869759Y-80206126D01*
X145743697Y-80333636D01*
X145682818Y-80383524D01*
X145580016Y-80467766D01*
X145552748Y-80487024D01*
X145370401Y-80615804D01*
X145106537Y-80785036D01*
X144990566Y-80856987D01*
X145044268Y-80943041D01*
X145046249Y-80946253D01*
X145088808Y-81023259D01*
X145146983Y-81137765D01*
X145208791Y-81266234D01*
X145219233Y-81288448D01*
X145273301Y-81399349D01*
X145315814Y-81479978D01*
X145338330Y-81514180D01*
X145341926Y-81517084D01*
X145365472Y-81563429D01*
X145383498Y-81629503D01*
X145384240Y-81674290D01*
X145384695Y-81688641D01*
X145397434Y-81757379D01*
X145422520Y-81868489D01*
X145456614Y-82006647D01*
X145492967Y-82158557D01*
X145530974Y-82366296D01*
X145540608Y-82515663D01*
X145531506Y-82558377D01*
X145521650Y-82604639D01*
X145507946Y-82618255D01*
X145472939Y-82603338D01*
X145462380Y-82594912D01*
X145473873Y-82635374D01*
X145476648Y-82640813D01*
X145522656Y-82689846D01*
X145611259Y-82764482D01*
X145729393Y-82855224D01*
X145863994Y-82952575D01*
X145932517Y-82999480D01*
X146001999Y-83047041D01*
X146130341Y-83129123D01*
X146235959Y-83189327D01*
X146257145Y-83202388D01*
X146330933Y-83253676D01*
X146442077Y-83334317D01*
X146579656Y-83436341D01*
X146732750Y-83551781D01*
X146808636Y-83610061D01*
X147003160Y-83764683D01*
X147189010Y-83919328D01*
X147358530Y-84067033D01*
X147504060Y-84200839D01*
X147617945Y-84313787D01*
X147692527Y-84398915D01*
X147720148Y-84449262D01*
X147726734Y-84477019D01*
X147763788Y-84478504D01*
X147773773Y-84477281D01*
X147829157Y-84502625D01*
X147908528Y-84561204D01*
X147996210Y-84638519D01*
X148076530Y-84720075D01*
X148133815Y-84791376D01*
X148152391Y-84837922D01*
X148152152Y-84839380D01*
X148174860Y-84884958D01*
X148237744Y-84935034D01*
X148269362Y-84954435D01*
X148299325Y-84982737D01*
X148271148Y-84992347D01*
X148245550Y-84998466D01*
X148237487Y-85000393D01*
X148185411Y-85043121D01*
X148179503Y-85047969D01*
X148156318Y-85073100D01*
X148111834Y-85070089D01*
X148033674Y-85025008D01*
X148009578Y-85008159D01*
X147979095Y-84981476D01*
X148078638Y-84981476D01*
X148084928Y-85004951D01*
X148108404Y-84998661D01*
X148102114Y-84975185D01*
X148078638Y-84981476D01*
X147979095Y-84981476D01*
X147947348Y-84953687D01*
X147925761Y-84915324D01*
X147922549Y-84898216D01*
X147904217Y-84887572D01*
X148053477Y-84887572D01*
X148059767Y-84911049D01*
X148083243Y-84904758D01*
X148076953Y-84881283D01*
X148053477Y-84887572D01*
X147904217Y-84887572D01*
X147879853Y-84873425D01*
X147876741Y-84872726D01*
X147822739Y-84842306D01*
X147738026Y-84778043D01*
X147639514Y-84692656D01*
X147473933Y-84542557D01*
X147223446Y-84324270D01*
X146999895Y-84140702D01*
X146809816Y-83997144D01*
X146659740Y-83898889D01*
X146617019Y-83874788D01*
X146494387Y-83808738D01*
X146340171Y-83728497D01*
X146165950Y-83639792D01*
X145983303Y-83548351D01*
X145803805Y-83459897D01*
X145639033Y-83380159D01*
X145500566Y-83314864D01*
X145399981Y-83269736D01*
X145348856Y-83250503D01*
X145315366Y-83240467D01*
X145229143Y-83207128D01*
X145122786Y-83160877D01*
X145064580Y-83135045D01*
X144960355Y-83093145D01*
X144842871Y-83052245D01*
X144701365Y-83009147D01*
X144525069Y-82960650D01*
X144303219Y-82903555D01*
X144025048Y-82834663D01*
X143897834Y-82803020D01*
X143721078Y-82757267D01*
X143573363Y-82716899D01*
X143467307Y-82685401D01*
X143415525Y-82666261D01*
X143355285Y-82637932D01*
X143231730Y-82590773D01*
X143068956Y-82535153D01*
X143002892Y-82514183D01*
X145454959Y-82514183D01*
X145461249Y-82537659D01*
X145484725Y-82531368D01*
X145478434Y-82507892D01*
X145454959Y-82514183D01*
X143002892Y-82514183D01*
X142882188Y-82475869D01*
X142686650Y-82417724D01*
X142497568Y-82365516D01*
X142330165Y-82324048D01*
X142296195Y-82316494D01*
X142078944Y-82275506D01*
X141858432Y-82244792D01*
X141652130Y-82226016D01*
X141477510Y-82220839D01*
X141389708Y-82227898D01*
X141352043Y-82230926D01*
X141286969Y-82237772D01*
X141170157Y-82241451D01*
X141037709Y-82239546D01*
X140943899Y-82237350D01*
X140809710Y-82241341D01*
X140671795Y-82256650D01*
X140509386Y-82285873D01*
X140301715Y-82331610D01*
X140185933Y-82355598D01*
X140027209Y-82381939D01*
X139894963Y-82397129D01*
X139795132Y-82411617D01*
X139645460Y-82445733D01*
X139477686Y-82492434D01*
X139313198Y-82545257D01*
X139173385Y-82597743D01*
X139079634Y-82643430D01*
X139077226Y-82644894D01*
X139016339Y-82674502D01*
X138907096Y-82721718D01*
X138764225Y-82780343D01*
X138602454Y-82844186D01*
X138499372Y-82884125D01*
X138352299Y-82942336D01*
X138242766Y-82989790D01*
X138153693Y-83035705D01*
X138067997Y-83089294D01*
X137968597Y-83159772D01*
X137838410Y-83256355D01*
X137738071Y-83333569D01*
X137629396Y-83426478D01*
X137529377Y-83526420D01*
X137429259Y-83643806D01*
X137320283Y-83789047D01*
X137193695Y-83972554D01*
X137040735Y-84204740D01*
X137023260Y-84231373D01*
X136921970Y-84378998D01*
X136816355Y-84524045D01*
X136726648Y-84638564D01*
X136621386Y-84774154D01*
X136437590Y-85052392D01*
X136259575Y-85371179D01*
X136096780Y-85713036D01*
X135958643Y-86060491D01*
X135937717Y-86119420D01*
X135874700Y-86298869D01*
X135818638Y-86461304D01*
X135774980Y-86590839D01*
X135749169Y-86671587D01*
X135740234Y-86700308D01*
X135709818Y-86779915D01*
X135685944Y-86818126D01*
X135679883Y-86824703D01*
X135658009Y-86880508D01*
X135637047Y-86970682D01*
X135619437Y-87050098D01*
X135582383Y-87185390D01*
X135538638Y-87323104D01*
X135507219Y-87430790D01*
X135486659Y-87542678D01*
X135487121Y-87616869D01*
X135496727Y-87678116D01*
X135492619Y-87771910D01*
X135487757Y-87819609D01*
X135500562Y-87859791D01*
X135516421Y-87896251D01*
X135536078Y-87982633D01*
X135554715Y-88099417D01*
X135576893Y-88236960D01*
X135620508Y-88450039D01*
X135675761Y-88682268D01*
X135737088Y-88911882D01*
X135798919Y-89117113D01*
X135855688Y-89276196D01*
X135893557Y-89373092D01*
X135932345Y-89481806D01*
X135953528Y-89553553D01*
X135960906Y-89581740D01*
X135991933Y-89675096D01*
X136038707Y-89801786D01*
X136094670Y-89945494D01*
X136153266Y-90089903D01*
X136207936Y-90218696D01*
X136252126Y-90315557D01*
X136279278Y-90364170D01*
X136283356Y-90369220D01*
X136322643Y-90433512D01*
X136366266Y-90522836D01*
X136390210Y-90573431D01*
X136451374Y-90688808D01*
X136519973Y-90806540D01*
X136584317Y-90913300D01*
X136669180Y-91057773D01*
X136750038Y-91198585D01*
X136859158Y-91383089D01*
X137009351Y-91621749D01*
X137179898Y-91881153D01*
X137359844Y-92145251D01*
X137538235Y-92397993D01*
X137704118Y-92623329D01*
X137846539Y-92805209D01*
X137866056Y-92828995D01*
X137976765Y-92964015D01*
X138073166Y-93081743D01*
X138145485Y-93170236D01*
X138183949Y-93217551D01*
X138301295Y-93357457D01*
X138440468Y-93503537D01*
X138592080Y-93637814D01*
X138772450Y-93774526D01*
X138997896Y-93927916D01*
X139031279Y-93949823D01*
X139373127Y-94170786D01*
X139678316Y-94360820D01*
X139963382Y-94529744D01*
X140244857Y-94687381D01*
X140539276Y-94843552D01*
X140544391Y-94846203D01*
X140754256Y-94955133D01*
X140986914Y-95076232D01*
X141214408Y-95194931D01*
X141408780Y-95296661D01*
X141419685Y-95302378D01*
X141596177Y-95392831D01*
X141729198Y-95455126D01*
X141834012Y-95495131D01*
X141925883Y-95518720D01*
X142020076Y-95531762D01*
X142094460Y-95536749D01*
X142187510Y-95530306D01*
X142218723Y-95503966D01*
X142218700Y-95500036D01*
X142234433Y-95483175D01*
X142283719Y-95521129D01*
X142291552Y-95528517D01*
X142354304Y-95563441D01*
X142421132Y-95541359D01*
X142423687Y-95539783D01*
X142477079Y-95518705D01*
X142493665Y-95548275D01*
X142513429Y-95587860D01*
X142561917Y-95594031D01*
X142608152Y-95556500D01*
X142616427Y-95548306D01*
X142677889Y-95545217D01*
X142784082Y-95578302D01*
X142826565Y-95594100D01*
X142943208Y-95626439D01*
X143037055Y-95638515D01*
X143055295Y-95638046D01*
X143094649Y-95632842D01*
X143065989Y-95622772D01*
X142984053Y-95604606D01*
X142924760Y-95584292D01*
X142929112Y-95570999D01*
X142999243Y-95566526D01*
X143057047Y-95566928D01*
X143160361Y-95569819D01*
X143215914Y-95578398D01*
X143238713Y-95596412D01*
X143243759Y-95627610D01*
X143244735Y-95639710D01*
X143264238Y-95658719D01*
X143317377Y-95626287D01*
X143362236Y-95597552D01*
X143369740Y-95607865D01*
X143364598Y-95622941D01*
X143378977Y-95662807D01*
X143394943Y-95663598D01*
X143416453Y-95624912D01*
X143429245Y-95596171D01*
X143474688Y-95599003D01*
X143496128Y-95618216D01*
X143485147Y-95648688D01*
X143468636Y-95662089D01*
X143487076Y-95671789D01*
X143540209Y-95669953D01*
X143608382Y-95657844D01*
X143671940Y-95636719D01*
X143729961Y-95616664D01*
X143778293Y-95615537D01*
X143781331Y-95616469D01*
X143833938Y-95611227D01*
X143935361Y-95590427D01*
X144071141Y-95557994D01*
X144226819Y-95517853D01*
X144387933Y-95473926D01*
X144540025Y-95430141D01*
X144668635Y-95390422D01*
X144759303Y-95358693D01*
X144797568Y-95338880D01*
X144821779Y-95323223D01*
X144886342Y-95322603D01*
X144931522Y-95324793D01*
X144977605Y-95302012D01*
X144988861Y-95292438D01*
X145053742Y-95264589D01*
X145156590Y-95232269D01*
X145276810Y-95200650D01*
X145393809Y-95174910D01*
X145486992Y-95160222D01*
X145535767Y-95161760D01*
X145580415Y-95160029D01*
X145653753Y-95132207D01*
X145731695Y-95105527D01*
X145811334Y-95101449D01*
X145853732Y-95102285D01*
X145903245Y-95073590D01*
X145917016Y-95056642D01*
X145957290Y-95047936D01*
X146004377Y-95055413D01*
X146110994Y-95045068D01*
X146260688Y-95014741D01*
X146319386Y-95003213D01*
X146358176Y-95001572D01*
X146375163Y-95002876D01*
X146455373Y-94992524D01*
X146596085Y-94966464D01*
X146793341Y-94925389D01*
X146871062Y-94912024D01*
X146972696Y-94905481D01*
X147034426Y-94915750D01*
X147065920Y-94927640D01*
X147105018Y-94916818D01*
X147117410Y-94906152D01*
X147165827Y-94912238D01*
X147178386Y-94916803D01*
X147251022Y-94918612D01*
X147348375Y-94901885D01*
X147374392Y-94895787D01*
X147480445Y-94880434D01*
X147560049Y-94882330D01*
X147604933Y-94883765D01*
X147631627Y-94859259D01*
X147640910Y-94843891D01*
X147699202Y-94812308D01*
X147793514Y-94784090D01*
X147845993Y-94770228D01*
X147910056Y-94744803D01*
X148686015Y-94744803D01*
X148692280Y-94754629D01*
X148717317Y-94736416D01*
X148724266Y-94719417D01*
X148708929Y-94705115D01*
X148702848Y-94707421D01*
X148686015Y-94744803D01*
X147910056Y-94744803D01*
X147936921Y-94734141D01*
X147985980Y-94697039D01*
X148011614Y-94671253D01*
X148049992Y-94662001D01*
X148760280Y-94662001D01*
X148766570Y-94685477D01*
X148790045Y-94679186D01*
X148783755Y-94655711D01*
X148760280Y-94662001D01*
X148049992Y-94662001D01*
X148079813Y-94654812D01*
X148131447Y-94645083D01*
X148194415Y-94595384D01*
X148238444Y-94550304D01*
X148316600Y-94504051D01*
X148350228Y-94488010D01*
X148940109Y-94488010D01*
X148946400Y-94511486D01*
X148969875Y-94505196D01*
X148963586Y-94481720D01*
X148940109Y-94488010D01*
X148350228Y-94488010D01*
X148362561Y-94482127D01*
X148416934Y-94431794D01*
X148463008Y-94396862D01*
X148544607Y-94377121D01*
X148570268Y-94374914D01*
X148625869Y-94356776D01*
X148671261Y-94308041D01*
X148724486Y-94212166D01*
X148755108Y-94156353D01*
X148815567Y-94066236D01*
X148866167Y-94013627D01*
X148898694Y-93986774D01*
X148908848Y-93939049D01*
X148906367Y-93932819D01*
X148908826Y-93895572D01*
X148935166Y-93834282D01*
X148989797Y-93741268D01*
X149077136Y-93608842D01*
X149201593Y-93429324D01*
X149238657Y-93375321D01*
X149381178Y-93140906D01*
X149487677Y-92919800D01*
X149522425Y-92834000D01*
X149570852Y-92713389D01*
X149576037Y-92699915D01*
X150448721Y-92699915D01*
X150455012Y-92723391D01*
X150478487Y-92717100D01*
X150472197Y-92693625D01*
X150448721Y-92699915D01*
X149576037Y-92699915D01*
X149600389Y-92636634D01*
X149615598Y-92590753D01*
X149621042Y-92562768D01*
X149621283Y-92539697D01*
X149622612Y-92517888D01*
X149631895Y-92436386D01*
X149648142Y-92313855D01*
X149669165Y-92167308D01*
X149677753Y-92105012D01*
X149700299Y-91898681D01*
X149718047Y-91675778D01*
X149727744Y-91474755D01*
X149731754Y-91363279D01*
X149740229Y-91224716D01*
X149750765Y-91121777D01*
X149761960Y-91071019D01*
X149769884Y-91050127D01*
X149757076Y-91010735D01*
X149746427Y-90998417D01*
X149752419Y-90950061D01*
X149762355Y-90901521D01*
X149751154Y-90820345D01*
X149740513Y-90743509D01*
X149751516Y-90640411D01*
X149762589Y-90571517D01*
X149751713Y-90531383D01*
X149742953Y-90521720D01*
X149748288Y-90476025D01*
X149756433Y-90427831D01*
X149742975Y-90347743D01*
X149730021Y-90279814D01*
X149737663Y-90219461D01*
X149744759Y-90201933D01*
X149734480Y-90164243D01*
X149729134Y-90155556D01*
X149715685Y-90090876D01*
X149702186Y-89973821D01*
X149689304Y-89815996D01*
X149677705Y-89629007D01*
X149668053Y-89424454D01*
X149661016Y-89213943D01*
X149657258Y-89009076D01*
X149657446Y-88821459D01*
X149658149Y-88669776D01*
X149655996Y-88531150D01*
X149651280Y-88431208D01*
X149644450Y-88384968D01*
X149639168Y-88362437D01*
X149654917Y-88300241D01*
X149665290Y-88248307D01*
X149665941Y-88147887D01*
X149655485Y-88024290D01*
X149644593Y-87910194D01*
X149642152Y-87811941D01*
X149649686Y-87759663D01*
X149656405Y-87745438D01*
X149663209Y-87686831D01*
X149663006Y-87660047D01*
X149674432Y-87579351D01*
X149696724Y-87472009D01*
X149712174Y-87401544D01*
X149718550Y-87336730D01*
X149708442Y-87273742D01*
X149677107Y-87197400D01*
X149619805Y-87092520D01*
X149531795Y-86943926D01*
X149457616Y-86816961D01*
X149378026Y-86673906D01*
X149316024Y-86554866D01*
X149280875Y-86477076D01*
X149242579Y-86407752D01*
X149166769Y-86301705D01*
X149065116Y-86175009D01*
X148948767Y-86042258D01*
X148775500Y-85852717D01*
X148608737Y-85668646D01*
X148482018Y-85526172D01*
X148391518Y-85420669D01*
X148374130Y-85398775D01*
X148446258Y-85398775D01*
X148452523Y-85408601D01*
X148477559Y-85390388D01*
X148484509Y-85373390D01*
X148469172Y-85359087D01*
X148463091Y-85361393D01*
X148446258Y-85398775D01*
X148374130Y-85398775D01*
X148333416Y-85347512D01*
X148303887Y-85302074D01*
X148299107Y-85279730D01*
X148315252Y-85275854D01*
X148351077Y-85274584D01*
X148377803Y-85247521D01*
X148377901Y-85244594D01*
X148408464Y-85204756D01*
X148468370Y-85176496D01*
X148521312Y-85177522D01*
X148530983Y-85198190D01*
X148525159Y-85259118D01*
X148523435Y-85304164D01*
X148555549Y-85356040D01*
X148581695Y-85365362D01*
X148603614Y-85346845D01*
X148603582Y-85344976D01*
X148622257Y-85310362D01*
X148659189Y-85318342D01*
X148684988Y-85363060D01*
X148685315Y-85364760D01*
X148720490Y-85422577D01*
X148788909Y-85483004D01*
X148793182Y-85485981D01*
X148858109Y-85538068D01*
X148958201Y-85625346D01*
X149080603Y-85736380D01*
X149086676Y-85742062D01*
X149212462Y-85859739D01*
X149257722Y-85903006D01*
X149396110Y-86040674D01*
X149491794Y-86147504D01*
X149553113Y-86233445D01*
X149588404Y-86308452D01*
X149589532Y-86311681D01*
X149638561Y-86421954D01*
X149718050Y-86570154D01*
X149817675Y-86739791D01*
X149927111Y-86914374D01*
X150036035Y-87077416D01*
X150134122Y-87212427D01*
X150211048Y-87302917D01*
X150254197Y-87348425D01*
X150323186Y-87432904D01*
X150360808Y-87495760D01*
X150380340Y-87536582D01*
X150422684Y-87584981D01*
X150437011Y-87602273D01*
X150415950Y-87643221D01*
X150395241Y-87674586D01*
X150437830Y-87694139D01*
X150440372Y-87694770D01*
X150476196Y-87721899D01*
X150512436Y-87788948D01*
X150553024Y-87905160D01*
X150601890Y-88079776D01*
X150620506Y-88151214D01*
X150682513Y-88400544D01*
X150722854Y-88585009D01*
X150741587Y-88704889D01*
X150738768Y-88760463D01*
X150736478Y-88772327D01*
X150741825Y-88836995D01*
X150760013Y-88931977D01*
X150765355Y-88955959D01*
X150789971Y-89089277D01*
X150805839Y-89210682D01*
X150806936Y-89222096D01*
X150824985Y-89330457D01*
X150850651Y-89415966D01*
X150872819Y-89476157D01*
X150898089Y-89577209D01*
X150910877Y-89643665D01*
X150936401Y-89748738D01*
X150942945Y-89810435D01*
X150922812Y-89854633D01*
X150909490Y-89868861D01*
X150944069Y-89884402D01*
X150976452Y-89896185D01*
X150970128Y-89929666D01*
X150961022Y-89953340D01*
X150959967Y-90031885D01*
X150976699Y-90136539D01*
X150994923Y-90217642D01*
X151027288Y-90388994D01*
X151036839Y-90499584D01*
X151023895Y-90552264D01*
X151017750Y-90567269D01*
X151044250Y-90602935D01*
X151064594Y-90631723D01*
X151050428Y-90695800D01*
X151048134Y-90700046D01*
X151024884Y-90783249D01*
X151019541Y-90886329D01*
X151019978Y-90894925D01*
X151013966Y-90995643D01*
X150992090Y-91070904D01*
X150974573Y-91111570D01*
X150967245Y-91175623D01*
X150965867Y-91215613D01*
X150949239Y-91314826D01*
X150916064Y-91472616D01*
X150865908Y-91690906D01*
X150798348Y-91971620D01*
X150712951Y-92316681D01*
X150680511Y-92443508D01*
X150640384Y-92583637D01*
X150597757Y-92702542D01*
X150567711Y-92768613D01*
X150544264Y-92820173D01*
X150471533Y-92956479D01*
X150371199Y-93131412D01*
X150322598Y-93214291D01*
X150205933Y-93406640D01*
X150116089Y-93543823D01*
X150054464Y-93623779D01*
X150022458Y-93644450D01*
X150011206Y-93653003D01*
X149972586Y-93695033D01*
X149960669Y-93708705D01*
X149898990Y-93776180D01*
X149822807Y-93856607D01*
X149798435Y-93881914D01*
X149699335Y-93985123D01*
X149602327Y-94086505D01*
X149563670Y-94125786D01*
X149492742Y-94191599D01*
X149447345Y-94225232D01*
X149432973Y-94234512D01*
X149377466Y-94286520D01*
X149309166Y-94363737D01*
X149285476Y-94390978D01*
X149196654Y-94474212D01*
X149114008Y-94529243D01*
X149089679Y-94542041D01*
X149064326Y-94559727D01*
X148997708Y-94606200D01*
X148906650Y-94687340D01*
X148869028Y-94724787D01*
X148835036Y-94758620D01*
X148803433Y-94786135D01*
X148570464Y-94988979D01*
X148546037Y-95008256D01*
X148449360Y-95091152D01*
X148349087Y-95184991D01*
X148259159Y-95275843D01*
X148193517Y-95349784D01*
X148166104Y-95392888D01*
X148165434Y-95399847D01*
X148171408Y-95426637D01*
X148194245Y-95458328D01*
X148238851Y-95497892D01*
X148310134Y-95548301D01*
X148412999Y-95612527D01*
X148552354Y-95693541D01*
X148733105Y-95794318D01*
X148960159Y-95917827D01*
X149238421Y-96067041D01*
X149572799Y-96244932D01*
X149594264Y-96256265D01*
X149737694Y-96328566D01*
X149886469Y-96396560D01*
X150052694Y-96465037D01*
X150248475Y-96538784D01*
X150485921Y-96622589D01*
X150777138Y-96721240D01*
X150791332Y-96725997D01*
X151002767Y-96801567D01*
X151166723Y-96873182D01*
X151301687Y-96951468D01*
X151426139Y-97047055D01*
X151558566Y-97170572D01*
X151632098Y-97241943D01*
X151750305Y-97346600D01*
X151840537Y-97407502D01*
X151913179Y-97430892D01*
X151978618Y-97423010D01*
X152058278Y-97380165D01*
X152140305Y-97292638D01*
X152219548Y-97156601D01*
X152299766Y-96965486D01*
X152310621Y-96933186D01*
X152820113Y-96933186D01*
X152826378Y-96943011D01*
X152851414Y-96924799D01*
X152858363Y-96907801D01*
X152843027Y-96893497D01*
X152836945Y-96895803D01*
X152820113Y-96933186D01*
X152310621Y-96933186D01*
X152384712Y-96712725D01*
X152520904Y-96273257D01*
X152747571Y-96009399D01*
X152794776Y-95955337D01*
X152921097Y-95817076D01*
X153046371Y-95687425D01*
X153149330Y-95588658D01*
X153164410Y-95574902D01*
X153336909Y-95384695D01*
X153517733Y-95126661D01*
X153568434Y-95047954D01*
X153667476Y-94900225D01*
X153760499Y-94768233D01*
X153832593Y-94673439D01*
X153892238Y-94592994D01*
X153990510Y-94439267D01*
X154097355Y-94253897D01*
X154203423Y-94054645D01*
X154299361Y-93859272D01*
X154375818Y-93685538D01*
X154423443Y-93551205D01*
X154450581Y-93463178D01*
X154499593Y-93331945D01*
X154546622Y-93232454D01*
X154559501Y-93208019D01*
X154604641Y-93103607D01*
X154656201Y-92964485D01*
X154705366Y-92813891D01*
X154711621Y-92793654D01*
X154777164Y-92607462D01*
X154858222Y-92408397D01*
X154938723Y-92236247D01*
X154962660Y-92188816D01*
X155027396Y-92050953D01*
X155077856Y-91929760D01*
X155104724Y-91847078D01*
X155105194Y-91844896D01*
X155133540Y-91751449D01*
X155167414Y-91684832D01*
X155179662Y-91667249D01*
X155228383Y-91563045D01*
X155280157Y-91407589D01*
X155332104Y-91214398D01*
X155381341Y-90996987D01*
X155424986Y-90768872D01*
X155460156Y-90543567D01*
X155483970Y-90334589D01*
X155493545Y-90155452D01*
X155494238Y-90127537D01*
X155498055Y-90036438D01*
X155503964Y-89923340D01*
X155504951Y-89898036D01*
X155503169Y-89768302D01*
X155493799Y-89607124D01*
X155478385Y-89443493D01*
X155471256Y-89378242D01*
X155459789Y-89249103D01*
X155455027Y-89154179D01*
X155458007Y-89110454D01*
X155460749Y-89070432D01*
X155444558Y-88995843D01*
X155430779Y-88933985D01*
X155437005Y-88901710D01*
X155439830Y-88894411D01*
X155437901Y-88835900D01*
X155426161Y-88731306D01*
X155406942Y-88595517D01*
X155382573Y-88443424D01*
X155355383Y-88289916D01*
X155327705Y-88149883D01*
X155301868Y-88038215D01*
X155297772Y-88022435D01*
X155280864Y-87953732D01*
X155266583Y-87885210D01*
X155252802Y-87803176D01*
X155237390Y-87693941D01*
X155218221Y-87543814D01*
X155193163Y-87339105D01*
X155182933Y-87256952D01*
X155162351Y-87102325D01*
X155143421Y-86972470D01*
X155129236Y-86889147D01*
X155111508Y-86800836D01*
X155085877Y-86671262D01*
X155058343Y-86530714D01*
X155030994Y-86393964D01*
X155004894Y-86269585D01*
X154985930Y-86185695D01*
X154984502Y-86180033D01*
X154955420Y-86084108D01*
X154912970Y-85964096D01*
X154864271Y-85837823D01*
X154816444Y-85723117D01*
X154776610Y-85637802D01*
X154751887Y-85599710D01*
X154735239Y-85579820D01*
X154713793Y-85516735D01*
X154702855Y-85482287D01*
X154660696Y-85387029D01*
X154592965Y-85250033D01*
X154505437Y-85081845D01*
X154403888Y-84893014D01*
X154294091Y-84694086D01*
X154181821Y-84495609D01*
X154072853Y-84308130D01*
X153972963Y-84142197D01*
X153887925Y-84008357D01*
X153535651Y-83523350D01*
X153115591Y-83029819D01*
X152627567Y-82527555D01*
X152527298Y-82430729D01*
X152327747Y-82242388D01*
X152143945Y-82077279D01*
X151967232Y-81929566D01*
X151788947Y-81793414D01*
X151600432Y-81662986D01*
X151393026Y-81532447D01*
X151158070Y-81395961D01*
X150886904Y-81247692D01*
X150570869Y-81081804D01*
X150201304Y-80892461D01*
X150076302Y-80827792D01*
X149921508Y-80741421D01*
X149791942Y-80657446D01*
X149664736Y-80560602D01*
X149517023Y-80435620D01*
X149452650Y-80380619D01*
X149303192Y-80261173D01*
X149175940Y-80171088D01*
X149084092Y-80119986D01*
X149009486Y-80088505D01*
X148880441Y-80031682D01*
X148748572Y-79971590D01*
X148647844Y-79927171D01*
X148528034Y-79879944D01*
X148440690Y-79851811D01*
X148381486Y-79835804D01*
X148264393Y-79800224D01*
X148137399Y-79758453D01*
X148020587Y-79727234D01*
X147851712Y-79698825D01*
X147689808Y-79686355D01*
X147621779Y-79684999D01*
X147511586Y-79677628D01*
X147429692Y-79656664D01*
X147348423Y-79612934D01*
X147240102Y-79537259D01*
X147237969Y-79535718D01*
X147042110Y-79396605D01*
X146890113Y-79294706D01*
X146772335Y-79224251D01*
X146679135Y-79179465D01*
X146600870Y-79154577D01*
X146496199Y-79134684D01*
X146418279Y-79136988D01*
X146379774Y-79173130D01*
X146366985Y-79248616D01*
X146362765Y-79298816D01*
X146339843Y-79355192D01*
X146281027Y-79392693D01*
X146252888Y-79404736D01*
X146200074Y-79407876D01*
X146161236Y-79359214D01*
X146156641Y-79349895D01*
X146130872Y-79261352D01*
X146117976Y-79153852D01*
X146115759Y-79125603D01*
X146088062Y-79000537D01*
X146053361Y-78913404D01*
X146779798Y-78913404D01*
X146786089Y-78936881D01*
X146809564Y-78930590D01*
X146803274Y-78907115D01*
X146779798Y-78913404D01*
X146053361Y-78913404D01*
X146040231Y-78880434D01*
X146038678Y-78877434D01*
X146001036Y-78787398D01*
X145953391Y-78649705D01*
X145901694Y-78482554D01*
X145851891Y-78304143D01*
X145841357Y-78264569D01*
X145753402Y-77968226D01*
X145666105Y-77736780D01*
X145578005Y-77566827D01*
X145487642Y-77454963D01*
X145475419Y-77443096D01*
X145401559Y-77320507D01*
X145372126Y-77158961D01*
X145387825Y-76971055D01*
X145449358Y-76769384D01*
X145483969Y-76697407D01*
X145519768Y-76669828D01*
X145572391Y-76681665D01*
X145627457Y-76689998D01*
X145705196Y-76649146D01*
X145752870Y-76615869D01*
X145825565Y-76615333D01*
X145838857Y-76620986D01*
G37*
%TO.C,kibuzzard-65306358*%
G36*
X146610581Y-98498000D02*
G01*
X146661381Y-98587694D01*
X146461356Y-98587694D01*
X146401031Y-98536894D01*
X146428813Y-98478156D01*
X146508188Y-98455931D01*
X146610581Y-98498000D01*
G37*
G36*
X139541444Y-98498000D02*
G01*
X139592244Y-98587694D01*
X139392219Y-98587694D01*
X139331894Y-98536894D01*
X139359675Y-98478156D01*
X139439050Y-98455931D01*
X139541444Y-98498000D01*
G37*
G36*
X148298888Y-98544831D02*
G01*
X148337781Y-98641669D01*
X148296506Y-98736125D01*
X148196494Y-98778194D01*
X148098863Y-98735331D01*
X148059969Y-98640875D01*
X148097275Y-98544831D01*
X148197288Y-98500381D01*
X148298888Y-98544831D01*
G37*
G36*
X143240319Y-98545625D02*
G01*
X143278419Y-98641669D01*
X143237144Y-98736919D01*
X143137131Y-98779781D01*
X143039500Y-98736919D01*
X143000606Y-98642462D01*
X143037913Y-98546419D01*
X143138719Y-98501969D01*
X143240319Y-98545625D01*
G37*
G36*
X142298138Y-98544831D02*
G01*
X142337031Y-98641669D01*
X142295756Y-98736125D01*
X142195744Y-98778194D01*
X142098113Y-98735331D01*
X142059219Y-98640875D01*
X142096525Y-98544831D01*
X142196538Y-98500381D01*
X142298138Y-98544831D01*
G37*
G36*
X144911956Y-98522606D02*
G01*
X144948866Y-98571620D01*
X144961169Y-98639288D01*
X144948469Y-98706756D01*
X144910369Y-98755175D01*
X144807181Y-98794069D01*
X144702406Y-98754381D01*
X144663116Y-98705169D01*
X144650019Y-98636906D01*
X144662322Y-98569041D01*
X144699231Y-98521019D01*
X144805594Y-98482919D01*
X144911956Y-98522606D01*
G37*
G36*
X150033566Y-97704207D02*
G01*
X150123383Y-97717530D01*
X150211461Y-97739593D01*
X150296953Y-97770182D01*
X150379035Y-97809004D01*
X150456916Y-97855684D01*
X150529847Y-97909774D01*
X150597125Y-97970751D01*
X150658102Y-98038029D01*
X150712192Y-98110960D01*
X150758872Y-98188841D01*
X150797694Y-98270923D01*
X150828283Y-98356415D01*
X150850346Y-98444493D01*
X150863669Y-98534310D01*
X150868124Y-98625000D01*
X150863669Y-98715690D01*
X150850346Y-98805507D01*
X150828283Y-98893585D01*
X150797694Y-98979077D01*
X150758872Y-99061159D01*
X150712192Y-99139040D01*
X150658102Y-99211971D01*
X150597125Y-99279249D01*
X150529847Y-99340226D01*
X150456916Y-99394316D01*
X150379035Y-99440996D01*
X150296953Y-99479818D01*
X150211461Y-99510407D01*
X150123383Y-99532470D01*
X150033566Y-99545793D01*
X149942876Y-99550248D01*
X149942744Y-99550248D01*
X148858481Y-99550248D01*
X147897250Y-99550248D01*
X147202719Y-99550248D01*
X146505806Y-99550248D01*
X145756506Y-99550248D01*
X144805594Y-99550248D01*
X144127731Y-99550248D01*
X142869638Y-99550248D01*
X141896500Y-99550248D01*
X141236894Y-99550248D01*
X140130406Y-99550248D01*
X139436669Y-99550248D01*
X139057256Y-99550248D01*
X139057124Y-99550248D01*
X138966434Y-99545793D01*
X138876617Y-99532470D01*
X138788539Y-99510407D01*
X138703047Y-99479818D01*
X138620965Y-99440996D01*
X138543084Y-99394316D01*
X138470153Y-99340226D01*
X138402875Y-99279249D01*
X138341898Y-99211971D01*
X138287808Y-99139040D01*
X138241128Y-99061159D01*
X138202306Y-98979077D01*
X138171717Y-98893585D01*
X138149654Y-98805507D01*
X138136331Y-98715690D01*
X138131876Y-98625000D01*
X138136009Y-98540863D01*
X139057256Y-98540863D01*
X139069361Y-98625794D01*
X139105675Y-98685325D01*
X139212831Y-98732156D01*
X139589069Y-98732156D01*
X139536681Y-98806769D01*
X139431906Y-98836931D01*
X139349753Y-98832169D01*
X139287444Y-98817881D01*
X139269981Y-98811531D01*
X139206481Y-98794069D01*
X139119169Y-98865506D01*
X139098531Y-98938531D01*
X139119665Y-99000345D01*
X139183066Y-99044497D01*
X139288734Y-99070988D01*
X139436669Y-99079819D01*
X139547595Y-99069698D01*
X139645425Y-99039337D01*
X139726586Y-98992308D01*
X139787506Y-98932181D01*
X139794437Y-98921069D01*
X139990706Y-98921069D01*
X139993088Y-98975837D01*
X140008169Y-99017906D01*
X140049047Y-99048863D01*
X140130406Y-99059181D01*
X140208988Y-99048863D01*
X140251056Y-99017906D01*
X140266138Y-98975044D01*
X140268519Y-98917894D01*
X140268519Y-98640081D01*
X140305031Y-98538481D01*
X140397900Y-98501969D01*
X140497119Y-98536100D01*
X140546331Y-98613094D01*
X140546331Y-98921069D01*
X140548713Y-98975837D01*
X140563794Y-99017906D01*
X140604672Y-99048863D01*
X140686031Y-99059181D01*
X140766597Y-99048466D01*
X140808269Y-99016319D01*
X140821763Y-98975044D01*
X140824144Y-98919481D01*
X140824144Y-98890906D01*
X140927331Y-98890906D01*
X140949159Y-98949247D01*
X141014644Y-99003619D01*
X141115450Y-99051244D01*
X141236894Y-99067119D01*
X141334084Y-99055301D01*
X141428805Y-99019847D01*
X141521056Y-98960756D01*
X141563775Y-98917894D01*
X141771881Y-98917894D01*
X141774263Y-98972663D01*
X141787756Y-99014731D01*
X141826055Y-99045688D01*
X141896500Y-99056006D01*
X142012388Y-99034575D01*
X142046519Y-98971869D01*
X142124902Y-99034972D01*
X142242575Y-99056006D01*
X142331916Y-99042072D01*
X142416847Y-99000267D01*
X142497369Y-98930594D01*
X142505601Y-98919481D01*
X142718031Y-98919481D01*
X142720413Y-98974250D01*
X142735494Y-99014731D01*
X142780936Y-99046878D01*
X142869638Y-99057594D01*
X142955561Y-99038147D01*
X142992669Y-98979806D01*
X143072441Y-99036956D01*
X143178406Y-99056006D01*
X143270834Y-99042160D01*
X143357617Y-99000620D01*
X143438756Y-98931388D01*
X143504020Y-98843722D01*
X143543178Y-98746885D01*
X143556231Y-98640875D01*
X143543090Y-98534777D01*
X143503667Y-98437675D01*
X143437963Y-98349569D01*
X143424979Y-98338456D01*
X143627669Y-98338456D01*
X143657831Y-98449581D01*
X143745144Y-98509906D01*
X143799913Y-98497206D01*
X143868969Y-98484506D01*
X143949138Y-98514669D01*
X143986444Y-98587694D01*
X143986444Y-98921069D01*
X143988825Y-98975837D01*
X144003906Y-99017906D01*
X144046769Y-99048863D01*
X144127731Y-99059181D01*
X144237269Y-99032194D01*
X144265844Y-98963931D01*
X144265844Y-98917894D01*
X144265844Y-98640081D01*
X144369031Y-98640081D01*
X144386097Y-98764502D01*
X144437294Y-98874238D01*
X144512898Y-98963138D01*
X144603188Y-99025050D01*
X144702605Y-99061364D01*
X144805594Y-99073469D01*
X144908781Y-99060570D01*
X145008794Y-99021875D01*
X145025692Y-99009969D01*
X145345344Y-99009969D01*
X145359631Y-99125503D01*
X145402494Y-99224458D01*
X145473931Y-99306831D01*
X145562478Y-99368567D01*
X145656670Y-99405609D01*
X145756506Y-99417956D01*
X145810481Y-99415575D01*
X145850169Y-99402081D01*
X145881125Y-99361997D01*
X145891444Y-99286194D01*
X145885094Y-99229487D01*
X145882911Y-99209994D01*
X145857313Y-99168719D01*
X145765238Y-99144906D01*
X145662844Y-99113156D01*
X145629506Y-99068706D01*
X145618394Y-98998856D01*
X145618394Y-98921069D01*
X145745394Y-98921069D01*
X145747775Y-98975837D01*
X145762856Y-99017906D01*
X145803734Y-99048863D01*
X145885094Y-99059181D01*
X145965659Y-99048466D01*
X146007331Y-99016319D01*
X146020825Y-98975044D01*
X146023206Y-98919481D01*
X146023206Y-98540863D01*
X146126394Y-98540863D01*
X146138498Y-98625794D01*
X146174813Y-98685325D01*
X146281969Y-98732156D01*
X146658206Y-98732156D01*
X146605819Y-98806769D01*
X146501044Y-98836931D01*
X146418891Y-98832169D01*
X146356581Y-98817881D01*
X146339119Y-98811531D01*
X146275619Y-98794069D01*
X146188306Y-98865506D01*
X146167669Y-98938531D01*
X146188802Y-99000345D01*
X146252203Y-99044497D01*
X146357871Y-99070988D01*
X146505806Y-99079819D01*
X146616733Y-99069698D01*
X146714563Y-99039337D01*
X146795723Y-98992308D01*
X146856644Y-98932181D01*
X146912206Y-98843105D01*
X146945544Y-98747326D01*
X146956656Y-98644844D01*
X146942281Y-98520401D01*
X146899153Y-98413774D01*
X146860038Y-98365444D01*
X147020156Y-98365444D01*
X147030872Y-98446009D01*
X147063019Y-98487681D01*
X147105088Y-98501175D01*
X147159856Y-98503556D01*
X147263044Y-98497206D01*
X147263044Y-98716281D01*
X147249550Y-98778194D01*
X147198750Y-98797244D01*
X147141600Y-98799625D01*
X147099531Y-98814706D01*
X147063019Y-98921069D01*
X147074131Y-99001634D01*
X147107469Y-99043306D01*
X147149538Y-99056800D01*
X147202719Y-99059181D01*
X147303966Y-99050891D01*
X147387574Y-99026020D01*
X147453544Y-98984569D01*
X147501169Y-98923362D01*
X147503026Y-98917894D01*
X147772631Y-98917894D01*
X147775013Y-98972663D01*
X147788506Y-99014731D01*
X147826805Y-99045688D01*
X147897250Y-99056006D01*
X148013138Y-99034575D01*
X148047269Y-98971869D01*
X148125652Y-99034972D01*
X148243325Y-99056006D01*
X148332666Y-99042072D01*
X148417597Y-99000267D01*
X148498119Y-98930594D01*
X148506351Y-98919481D01*
X148718781Y-98919481D01*
X148721163Y-98974250D01*
X148736244Y-99016319D01*
X148777122Y-99048466D01*
X148858481Y-99059181D01*
X148939047Y-99048069D01*
X148980719Y-99014731D01*
X148994213Y-98972663D01*
X148996594Y-98917894D01*
X148996594Y-98640081D01*
X149021200Y-98536497D01*
X149095019Y-98501969D01*
X149170425Y-98538481D01*
X149190269Y-98641669D01*
X149190269Y-98919481D01*
X149192650Y-98975044D01*
X149207731Y-99016319D01*
X149249800Y-99048466D01*
X149331556Y-99059181D01*
X149412122Y-99048069D01*
X149453794Y-99014731D01*
X149467288Y-98972663D01*
X149469669Y-98917894D01*
X149469669Y-98640081D01*
X149494275Y-98536497D01*
X149568094Y-98501969D01*
X149639531Y-98536497D01*
X149663344Y-98640081D01*
X149663344Y-98921069D01*
X149665725Y-98975837D01*
X149680806Y-99017906D01*
X149723669Y-99048863D01*
X149804631Y-99059181D01*
X149885197Y-99048466D01*
X149926869Y-99016319D01*
X149940363Y-98975044D01*
X149942744Y-98919481D01*
X149942744Y-98360681D01*
X149940363Y-98305913D01*
X149925281Y-98265431D01*
X149885197Y-98233284D01*
X149812569Y-98222569D01*
X149696681Y-98251144D01*
X149669694Y-98333694D01*
X149587541Y-98249159D01*
X149490306Y-98220981D01*
X149391528Y-98236327D01*
X149311095Y-98282365D01*
X149249006Y-98359094D01*
X149206938Y-98309087D01*
X149128356Y-98251937D01*
X149017231Y-98220981D01*
X148900550Y-98245389D01*
X148804506Y-98318612D01*
X148756881Y-98397899D01*
X148728306Y-98505585D01*
X148718781Y-98641669D01*
X148718781Y-98919481D01*
X148506351Y-98919481D01*
X148563383Y-98842488D01*
X148602541Y-98745385D01*
X148615594Y-98639288D01*
X148602453Y-98533278D01*
X148563030Y-98436440D01*
X148497325Y-98348775D01*
X148415922Y-98279542D01*
X148329403Y-98238003D01*
X148237769Y-98224156D01*
X148139344Y-98243206D01*
X148077431Y-98278925D01*
X148048856Y-98311469D01*
X148012741Y-98244794D01*
X147923444Y-98222569D01*
X147831369Y-98232094D01*
X147789300Y-98265431D01*
X147775013Y-98307500D01*
X147772631Y-98362269D01*
X147772631Y-98917894D01*
X147503026Y-98917894D01*
X147529744Y-98839224D01*
X147539269Y-98732156D01*
X147539269Y-98497206D01*
X147604356Y-98501969D01*
X147662300Y-98474981D01*
X147685319Y-98382906D01*
X147677381Y-98288450D01*
X147655156Y-98246381D01*
X147591656Y-98225744D01*
X147539269Y-98232094D01*
X147539269Y-98068581D01*
X147536888Y-98014606D01*
X147521806Y-97976506D01*
X147480928Y-97946741D01*
X147399569Y-97936819D01*
X147313447Y-97951503D01*
X147270981Y-97995556D01*
X147263044Y-98076519D01*
X147263044Y-98232094D01*
X147157475Y-98225744D01*
X147103500Y-98228125D01*
X147061431Y-98243206D01*
X147030475Y-98284084D01*
X147020156Y-98365444D01*
X146860038Y-98365444D01*
X146827275Y-98324963D01*
X146733877Y-98258376D01*
X146626192Y-98218424D01*
X146504219Y-98205106D01*
X146401230Y-98214830D01*
X146312925Y-98244000D01*
X146239305Y-98292617D01*
X146180369Y-98360681D01*
X146139888Y-98447002D01*
X146126394Y-98540863D01*
X146023206Y-98540863D01*
X146023206Y-98362269D01*
X146020825Y-98307500D01*
X146007331Y-98265431D01*
X145965263Y-98234475D01*
X145884300Y-98224256D01*
X145883506Y-98224156D01*
X145775556Y-98251144D01*
X145746981Y-98319406D01*
X145745394Y-98365444D01*
X145745394Y-98921069D01*
X145618394Y-98921069D01*
X145618394Y-98344806D01*
X145603313Y-98263050D01*
X145558863Y-98227331D01*
X145483456Y-98218191D01*
X145480281Y-98217806D01*
X145402494Y-98227331D01*
X145362013Y-98259875D01*
X145347725Y-98301150D01*
X145345344Y-98355919D01*
X145345344Y-99009969D01*
X145025692Y-99009969D01*
X145099480Y-98957978D01*
X145174688Y-98869475D01*
X145225289Y-98762120D01*
X145242156Y-98641669D01*
X145227340Y-98522077D01*
X145182890Y-98417302D01*
X145108806Y-98327344D01*
X145015673Y-98258552D01*
X144914073Y-98217277D01*
X144804006Y-98203519D01*
X144694116Y-98217189D01*
X144593045Y-98258199D01*
X144500794Y-98326550D01*
X144427592Y-98416067D01*
X144383672Y-98520578D01*
X144369031Y-98640081D01*
X144265844Y-98640081D01*
X144265844Y-98360681D01*
X144263463Y-98305913D01*
X144249969Y-98265431D01*
X144207900Y-98233284D01*
X144126144Y-98222569D01*
X144048753Y-98231697D01*
X144007081Y-98259081D01*
X143989619Y-98311469D01*
X143966600Y-98284481D01*
X143902306Y-98241619D01*
X143815788Y-98214631D01*
X143753081Y-98218600D01*
X143697519Y-98232094D01*
X143647513Y-98264637D01*
X143627669Y-98338456D01*
X143424979Y-98338456D01*
X143356559Y-98279895D01*
X143270040Y-98238091D01*
X143178406Y-98224156D01*
X143074028Y-98244000D01*
X142995844Y-98303531D01*
X142995844Y-97974919D01*
X145345344Y-97974919D01*
X145347725Y-98027306D01*
X145362806Y-98066994D01*
X145404875Y-98097950D01*
X145483456Y-98106681D01*
X145561244Y-98097156D01*
X145601725Y-98064613D01*
X145616013Y-98023337D01*
X145618256Y-97971744D01*
X145745394Y-97971744D01*
X145747775Y-98026512D01*
X145762063Y-98067787D01*
X145804131Y-98100331D01*
X145884300Y-98109856D01*
X145964469Y-98100331D01*
X146006538Y-98066994D01*
X146020825Y-98024925D01*
X146023206Y-97970156D01*
X146020825Y-97915387D01*
X146007331Y-97874906D01*
X145965263Y-97842759D01*
X145883506Y-97832044D01*
X145803338Y-97842759D01*
X145762856Y-97874906D01*
X145747775Y-97916975D01*
X145745394Y-97971744D01*
X145618256Y-97971744D01*
X145618394Y-97968569D01*
X145616013Y-97914594D01*
X145602519Y-97874906D01*
X145560847Y-97843950D01*
X145480281Y-97833631D01*
X145402891Y-97843950D01*
X145361219Y-97874906D01*
X145347725Y-97913006D01*
X145345344Y-97965394D01*
X145345344Y-97974919D01*
X142995844Y-97974919D01*
X142995844Y-97970156D01*
X142993463Y-97915387D01*
X142979175Y-97874112D01*
X142937106Y-97841569D01*
X142856938Y-97832044D01*
X142776769Y-97841569D01*
X142734700Y-97874906D01*
X142720413Y-97916975D01*
X142718031Y-97971744D01*
X142718031Y-98919481D01*
X142505601Y-98919481D01*
X142562633Y-98842488D01*
X142601791Y-98745385D01*
X142614844Y-98639288D01*
X142601703Y-98533278D01*
X142562280Y-98436440D01*
X142496575Y-98348775D01*
X142415172Y-98279542D01*
X142328653Y-98238003D01*
X142237019Y-98224156D01*
X142138594Y-98243206D01*
X142076681Y-98278925D01*
X142048106Y-98311469D01*
X142011991Y-98244794D01*
X141922694Y-98222569D01*
X141830619Y-98232094D01*
X141788550Y-98265431D01*
X141774263Y-98307500D01*
X141771881Y-98362269D01*
X141771881Y-98917894D01*
X141563775Y-98917894D01*
X141580191Y-98901423D01*
X141627419Y-98825025D01*
X141658375Y-98735728D01*
X141668694Y-98637700D01*
X141658375Y-98540069D01*
X141627419Y-98451963D01*
X141580191Y-98376755D01*
X141521056Y-98317819D01*
X141431274Y-98259610D01*
X141337612Y-98224685D01*
X141240069Y-98213044D01*
X141122594Y-98229712D01*
X141038456Y-98262256D01*
X141013056Y-98278131D01*
X140968606Y-98308294D01*
X140927331Y-98380525D01*
X140960669Y-98471806D01*
X141016628Y-98537291D01*
X141070206Y-98559119D01*
X141155931Y-98524194D01*
X141237688Y-98497206D01*
X141336906Y-98535306D01*
X141382944Y-98640875D01*
X141338494Y-98745650D01*
X141244038Y-98782956D01*
X141150375Y-98753587D01*
X141079731Y-98724219D01*
X141026947Y-98745253D01*
X140963844Y-98808356D01*
X140927331Y-98890906D01*
X140824144Y-98890906D01*
X140824144Y-97970156D01*
X140821763Y-97915387D01*
X140808269Y-97874906D01*
X140766200Y-97842759D01*
X140684444Y-97832044D01*
X140604275Y-97842759D01*
X140563794Y-97874906D01*
X140548713Y-97916975D01*
X140546331Y-97971744D01*
X140546331Y-98322581D01*
X140460209Y-98249953D01*
X140360594Y-98225744D01*
X140260669Y-98239149D01*
X140172563Y-98279366D01*
X140096275Y-98346394D01*
X140037626Y-98432824D01*
X140002436Y-98531249D01*
X139990706Y-98641669D01*
X139990706Y-98921069D01*
X139794437Y-98921069D01*
X139843069Y-98843105D01*
X139876406Y-98747326D01*
X139887519Y-98644844D01*
X139873143Y-98520401D01*
X139830016Y-98413774D01*
X139758138Y-98324963D01*
X139664740Y-98258376D01*
X139557054Y-98218424D01*
X139435081Y-98205106D01*
X139332092Y-98214830D01*
X139243788Y-98244000D01*
X139170167Y-98292617D01*
X139111231Y-98360681D01*
X139070750Y-98447002D01*
X139057256Y-98540863D01*
X138136009Y-98540863D01*
X138136331Y-98534310D01*
X138149654Y-98444493D01*
X138171717Y-98356415D01*
X138202306Y-98270923D01*
X138241128Y-98188841D01*
X138287808Y-98110960D01*
X138341898Y-98038029D01*
X138402875Y-97970751D01*
X138470153Y-97909774D01*
X138543084Y-97855684D01*
X138620965Y-97809004D01*
X138703047Y-97770182D01*
X138788539Y-97739593D01*
X138876617Y-97717530D01*
X138966434Y-97704207D01*
X139057124Y-97699752D01*
X139057256Y-97699752D01*
X149942744Y-97699752D01*
X149942876Y-97699752D01*
X150033566Y-97704207D01*
G37*
%TD*%
M02*
