%TF.GenerationSoftware,KiCad,Pcbnew,7.0.8*%
%TF.CreationDate,2023-10-23T16:33:36-04:00*%
%TF.ProjectId,lemon-pepper,6c656d6f-6e2d-4706-9570-7065722e6b69,rev?*%
%TF.SameCoordinates,Original*%
%TF.FileFunction,Copper,L4,Bot*%
%TF.FilePolarity,Positive*%
%FSLAX46Y46*%
G04 Gerber Fmt 4.6, Leading zero omitted, Abs format (unit mm)*
G04 Created by KiCad (PCBNEW 7.0.8) date 2023-10-23 16:33:36*
%MOMM*%
%LPD*%
G01*
G04 APERTURE LIST*
G04 Aperture macros list*
%AMRoundRect*
0 Rectangle with rounded corners*
0 $1 Rounding radius*
0 $2 $3 $4 $5 $6 $7 $8 $9 X,Y pos of 4 corners*
0 Add a 4 corners polygon primitive as box body*
4,1,4,$2,$3,$4,$5,$6,$7,$8,$9,$2,$3,0*
0 Add four circle primitives for the rounded corners*
1,1,$1+$1,$2,$3*
1,1,$1+$1,$4,$5*
1,1,$1+$1,$6,$7*
1,1,$1+$1,$8,$9*
0 Add four rect primitives between the rounded corners*
20,1,$1+$1,$2,$3,$4,$5,0*
20,1,$1+$1,$4,$5,$6,$7,0*
20,1,$1+$1,$6,$7,$8,$9,0*
20,1,$1+$1,$8,$9,$2,$3,0*%
G04 Aperture macros list end*
%TA.AperFunction,ComponentPad*%
%ADD10C,0.700000*%
%TD*%
%TA.AperFunction,ComponentPad*%
%ADD11C,1.300000*%
%TD*%
%TA.AperFunction,HeatsinkPad*%
%ADD12C,0.500000*%
%TD*%
%TA.AperFunction,ComponentPad*%
%ADD13O,1.750000X1.750000*%
%TD*%
%TA.AperFunction,ComponentPad*%
%ADD14O,1.750000X2.000000*%
%TD*%
%TA.AperFunction,ComponentPad*%
%ADD15C,5.800000*%
%TD*%
%TA.AperFunction,ComponentPad*%
%ADD16RoundRect,0.250000X0.600000X0.725000X-0.600000X0.725000X-0.600000X-0.725000X0.600000X-0.725000X0*%
%TD*%
%TA.AperFunction,ComponentPad*%
%ADD17O,1.700000X1.950000*%
%TD*%
%TA.AperFunction,SMDPad,CuDef*%
%ADD18C,0.500000*%
%TD*%
%TA.AperFunction,ViaPad*%
%ADD19C,0.800000*%
%TD*%
%TA.AperFunction,ViaPad*%
%ADD20C,0.450000*%
%TD*%
%TA.AperFunction,ViaPad*%
%ADD21C,0.300000*%
%TD*%
%TA.AperFunction,Conductor*%
%ADD22C,0.100000*%
%TD*%
%TA.AperFunction,Conductor*%
%ADD23C,0.250000*%
%TD*%
%TA.AperFunction,Conductor*%
%ADD24C,0.200000*%
%TD*%
G04 APERTURE END LIST*
%TA.AperFunction,EtchedComponent*%
%TO.C,NT701*%
G36*
X150775000Y-99050000D02*
G01*
X149775000Y-99050000D01*
X149775000Y-98550000D01*
X150775000Y-98550000D01*
X150775000Y-99050000D01*
G37*
%TD.AperFunction*%
%TD*%
D10*
%TO.P,J201,*%
%TO.N,*%
X134408634Y-93573979D03*
D11*
%TO.P,J201,S1,SHIELD*%
%TO.N,GND*%
X136883507Y-93008293D03*
X133842948Y-96048852D03*
X140277620Y-96402406D03*
X137237061Y-99442965D03*
%TD*%
D12*
%TO.P,M101,1*%
%TO.N,/current sense/U_OUT*%
X142600000Y-70200000D03*
D13*
X142600000Y-72075000D03*
D14*
X142600000Y-74825000D03*
D12*
%TO.P,M101,2,-*%
%TO.N,/current sense/W_OUT*%
X145100000Y-70200000D03*
D13*
X145100000Y-72075000D03*
D14*
X145100000Y-74825000D03*
D12*
%TO.P,M101,3*%
%TO.N,/half bridges/OUT1B*%
X147600000Y-70200000D03*
D13*
X147600000Y-72075000D03*
D14*
X147600000Y-74825000D03*
D12*
%TO.P,M101,4*%
%TO.N,/current sense/V_OUT*%
X150100000Y-70200000D03*
D13*
X150100000Y-72075000D03*
D14*
X150100000Y-74825000D03*
%TD*%
D15*
%TO.P,H101,1,1*%
%TO.N,GND*%
X133300000Y-99975000D03*
X159300000Y-99975000D03*
X133300000Y-73975000D03*
X159300000Y-73975000D03*
%TD*%
D16*
%TO.P,J101,1,Pin_1*%
%TO.N,Vmot*%
X153525000Y-101700000D03*
D17*
%TO.P,J101,2,Pin_2*%
%TO.N,GND*%
X151025000Y-101700000D03*
%TO.P,J101,3,Pin_3*%
%TO.N,/mcu/CANL*%
X148525000Y-101700000D03*
%TO.P,J101,4,Pin_4*%
%TO.N,/mcu/CANH*%
X146025000Y-101700000D03*
%TD*%
D18*
%TO.P,NT701,1,1*%
%TO.N,GNDA*%
X149775000Y-98800000D03*
%TO.P,NT701,2,2*%
%TO.N,GND*%
X150775000Y-98800000D03*
%TD*%
D19*
%TO.N,GND*%
X153975000Y-84225000D03*
X153800000Y-91325000D03*
X141910438Y-87201525D03*
X143925000Y-101575000D03*
X130700000Y-80025000D03*
X162125000Y-90250000D03*
X135925000Y-86300000D03*
X153975000Y-85250000D03*
X159925000Y-80375000D03*
X133075000Y-79575000D03*
X137175000Y-85000000D03*
X135925000Y-85025000D03*
X152375000Y-79800000D03*
X135925000Y-83825000D03*
X159950000Y-82800000D03*
X144350000Y-88275000D03*
X134650000Y-85000000D03*
X154975000Y-84250000D03*
X132950000Y-92225000D03*
X159950000Y-83950000D03*
X155600000Y-93200000D03*
X147850000Y-92350000D03*
X152925000Y-84175000D03*
X152375000Y-88650000D03*
X143100000Y-83600000D03*
X146225000Y-93075000D03*
X140904600Y-93350500D03*
X143900000Y-103500000D03*
X154000000Y-83200000D03*
X148523706Y-86499157D03*
X159950000Y-81600000D03*
%TO.N,Vmot*%
X150200000Y-86325000D03*
X139000000Y-70700000D03*
X161925000Y-82200000D03*
X150850000Y-86975000D03*
X153725000Y-74775000D03*
X153750000Y-72700000D03*
X156250000Y-90950000D03*
X155325000Y-91350000D03*
X151750000Y-86800000D03*
X138975000Y-74750000D03*
X139000000Y-72750000D03*
X156150000Y-91975000D03*
X132175000Y-94100000D03*
X153725000Y-70725000D03*
X161950000Y-83375000D03*
D20*
%TO.N,/mcu/USBD_P*%
X137500000Y-96625000D03*
X136650000Y-95825000D03*
D19*
%TO.N,+3V3*%
X134766075Y-90183574D03*
X162425000Y-93700000D03*
X146800000Y-99125000D03*
X162425000Y-94575000D03*
X150800000Y-78100000D03*
X140050000Y-103600000D03*
X144600000Y-99125000D03*
X140850000Y-78031779D03*
X161175000Y-93700000D03*
X145675000Y-99125000D03*
X137475000Y-78025000D03*
X162400000Y-95425000D03*
X140924500Y-87975000D03*
X133425028Y-89706439D03*
X145550000Y-78083700D03*
X148525000Y-85375000D03*
X144100000Y-98175000D03*
X145175000Y-98175000D03*
X161175000Y-94600000D03*
X146000000Y-95675000D03*
X146300000Y-98175000D03*
X161175000Y-95450000D03*
D20*
%TO.N,/mcu/RESET*%
X130587500Y-83562500D03*
X133775000Y-78325000D03*
X143150000Y-93750000D03*
%TO.N,/current sense/U_SENSE*%
X138300000Y-79650000D03*
X131425000Y-83325000D03*
%TO.N,/current sense/V_SENSE*%
X141600000Y-81700000D03*
X137400000Y-89450000D03*
X139350000Y-81775000D03*
X151524500Y-80475000D03*
%TO.N,/current sense/W_SENSE*%
X138700000Y-81750000D03*
X141050000Y-81275000D03*
X131250000Y-86950000D03*
X145975000Y-80500000D03*
D19*
%TO.N,/usb/USB_5V*%
X136221584Y-97995447D03*
X135074342Y-96842749D03*
X139022580Y-95565784D03*
X141575000Y-95875000D03*
X131000000Y-94950000D03*
X137925000Y-94025000D03*
D21*
%TO.N,Net-(D603-K)*%
X156300000Y-88700000D03*
X150575000Y-84225000D03*
D20*
%TO.N,Net-(D601-K)*%
X151974866Y-81761756D03*
X157900000Y-86550000D03*
%TO.N,/half bridges/ENA*%
X155450000Y-87550000D03*
X150525000Y-83225000D03*
X139650000Y-88700000D03*
%TO.N,/encoder/SCK*%
X147450000Y-91350000D03*
X130475000Y-85250000D03*
%TO.N,/encoder/CIPO*%
X130950000Y-86100000D03*
X146050000Y-91325000D03*
%TO.N,/encoder/COPI*%
X146775000Y-91350000D03*
X130400000Y-86375000D03*
%TO.N,/encoder/CS*%
X148150000Y-91350000D03*
X132073766Y-87148766D03*
%TO.N,/encoder/CAL_EN*%
X130737500Y-87412500D03*
X145325000Y-91350000D03*
%TO.N,/mcu/CAN_TX*%
X140600000Y-83500000D03*
X138250000Y-81225000D03*
%TO.N,/mcu/CAN_RX*%
X137775000Y-80700000D03*
X141275000Y-83475000D03*
%TO.N,/half bridges/IN2B*%
X151074750Y-82699540D03*
X131875000Y-82900000D03*
%TO.N,/half bridges/IN1A*%
X157300000Y-86525000D03*
X139050000Y-87925000D03*
%TO.N,/half bridges/IN2A*%
X139550000Y-87500000D03*
X156625000Y-86525000D03*
%TO.N,/half bridges/IN1B*%
X132325000Y-82475000D03*
X151525000Y-82225000D03*
%TO.N,/mcu/DIR*%
X139000000Y-88825000D03*
X149755000Y-90425000D03*
%TO.N,/mcu/STEP*%
X138576503Y-89213205D03*
X149200000Y-90975000D03*
D19*
%TO.N,GNDA*%
X144300500Y-79500000D03*
X149450000Y-79587008D03*
X149775000Y-98800000D03*
X149775000Y-97875000D03*
X139600500Y-79375000D03*
X148625000Y-98825000D03*
%TD*%
D22*
%TO.N,/mcu/DIR*%
X149300000Y-90425000D02*
X148925000Y-90050000D01*
X149755000Y-90425000D02*
X149300000Y-90425000D01*
X140225000Y-90050000D02*
X139000000Y-88825000D01*
X148925000Y-90050000D02*
X140225000Y-90050000D01*
%TO.N,/half bridges/IN2B*%
X141717158Y-82825000D02*
X139142158Y-80250000D01*
X151074750Y-82699540D02*
X150949290Y-82825000D01*
X150949290Y-82825000D02*
X141717158Y-82825000D01*
X139142158Y-80250000D02*
X137025000Y-80250000D01*
X137025000Y-80250000D02*
X134375000Y-82900000D01*
X134375000Y-82900000D02*
X131875000Y-82900000D01*
%TO.N,/half bridges/IN1B*%
X151525000Y-82225000D02*
X151500000Y-82250000D01*
X151500000Y-82250000D02*
X141425000Y-82250000D01*
X141425000Y-82250000D02*
X139225000Y-80050000D01*
X139225000Y-80050000D02*
X136942158Y-80050000D01*
X136942158Y-80050000D02*
X134292158Y-82700000D01*
X134292158Y-82700000D02*
X132550000Y-82700000D01*
X132550000Y-82700000D02*
X132325000Y-82475000D01*
%TO.N,Net-(D601-K)*%
X154061756Y-81761756D02*
X156225000Y-83925000D01*
X151974866Y-81761756D02*
X154061756Y-81761756D01*
X156225000Y-83925000D02*
X156225000Y-84875000D01*
X156225000Y-84875000D02*
X157900000Y-86550000D01*
%TO.N,/half bridges/IN2A*%
X139550000Y-87500000D02*
X139550000Y-88100000D01*
X149048528Y-91400000D02*
X150025000Y-91400000D01*
X150025000Y-91400000D02*
X151725000Y-89700000D01*
X156717158Y-89700000D02*
X157125000Y-89292158D01*
X138351825Y-88373175D02*
X138100000Y-88625000D01*
X139276825Y-88373175D02*
X138351825Y-88373175D01*
X139550000Y-88100000D02*
X139276825Y-88373175D01*
X157125000Y-87790686D02*
X156625000Y-87290686D01*
X138100000Y-88625000D02*
X138100000Y-89425000D01*
X138100000Y-89425000D02*
X139125000Y-90450000D01*
X139125000Y-90450000D02*
X148098528Y-90450000D01*
X148098528Y-90450000D02*
X149048528Y-91400000D01*
X151725000Y-89700000D02*
X156717158Y-89700000D01*
X157125000Y-89292158D02*
X157125000Y-87790686D01*
X156625000Y-87290686D02*
X156625000Y-86525000D01*
%TO.N,/half bridges/IN1A*%
X139050000Y-87925000D02*
X138300000Y-87925000D01*
X138300000Y-87925000D02*
X137900000Y-88325000D01*
X157325000Y-86550000D02*
X157300000Y-86525000D01*
X148965685Y-91600000D02*
X150107842Y-91600000D01*
X137900000Y-88325000D02*
X137900000Y-89507842D01*
X150107842Y-91600000D02*
X151807842Y-89900000D01*
X139042158Y-90650000D02*
X148015686Y-90650000D01*
X148015686Y-90650000D02*
X148965685Y-91600000D01*
X137900000Y-89507842D02*
X139042158Y-90650000D01*
X151807842Y-89900000D02*
X156800000Y-89900000D01*
X156800000Y-89900000D02*
X157325000Y-89375000D01*
X157325000Y-89375000D02*
X157325000Y-86550000D01*
%TO.N,/current sense/U_SENSE*%
X138300000Y-79650000D02*
X134150000Y-79650000D01*
X134150000Y-79650000D02*
X133850000Y-79950000D01*
X131425000Y-82375000D02*
X131425000Y-83325000D01*
X133850000Y-79969239D02*
X133469239Y-80350000D01*
X133850000Y-79950000D02*
X133850000Y-79969239D01*
X133469239Y-80350000D02*
X133450000Y-80350000D01*
X133450000Y-80350000D02*
X131425000Y-82375000D01*
%TO.N,/mcu/CAN_RX*%
X139300000Y-80700000D02*
X141275000Y-82675000D01*
X137775000Y-80700000D02*
X139300000Y-80700000D01*
X141275000Y-82675000D02*
X141275000Y-83475000D01*
%TO.N,/mcu/CAN_TX*%
X138250000Y-81225000D02*
X139542158Y-81225000D01*
X140600000Y-82282842D02*
X140600000Y-83500000D01*
X139542158Y-81225000D02*
X140600000Y-82282842D01*
%TO.N,/current sense/W_SENSE*%
X138700000Y-81750000D02*
X136825000Y-81750000D01*
X136825000Y-81750000D02*
X131625000Y-86950000D01*
X131625000Y-86950000D02*
X131250000Y-86950000D01*
%TO.N,/current sense/V_SENSE*%
X138675000Y-82450000D02*
X138675000Y-86875000D01*
X137700000Y-87850000D02*
X137700000Y-89150000D01*
X139350000Y-81775000D02*
X138675000Y-82450000D01*
X138675000Y-86875000D02*
X137700000Y-87850000D01*
X137700000Y-89150000D02*
X137400000Y-89450000D01*
%TO.N,/current sense/W_SENSE*%
X141050000Y-81275000D02*
X141100000Y-81225000D01*
X141100000Y-81225000D02*
X144325000Y-81225000D01*
X145050000Y-80500000D02*
X145975000Y-80500000D01*
X144325000Y-81225000D02*
X145050000Y-80500000D01*
%TO.N,/current sense/V_SENSE*%
X141600000Y-81700000D02*
X147725000Y-81700000D01*
X147725000Y-81700000D02*
X148950000Y-80475000D01*
X148950000Y-80475000D02*
X151524500Y-80475000D01*
%TO.N,/mcu/STEP*%
X138576503Y-89213205D02*
X139613298Y-90250000D01*
X139613298Y-90250000D02*
X148450000Y-90250000D01*
X148450000Y-90250000D02*
X149200000Y-91000000D01*
%TO.N,/half bridges/ENA*%
X139650000Y-88700000D02*
X139700000Y-88700000D01*
X140850000Y-89850000D02*
X151275000Y-89850000D01*
X151275000Y-89850000D02*
X151625000Y-89500000D01*
X151625000Y-89500000D02*
X156634316Y-89500000D01*
X139700000Y-88700000D02*
X140850000Y-89850000D01*
X156601472Y-87550000D02*
X155450000Y-87550000D01*
X156634316Y-89500000D02*
X156925000Y-89209316D01*
X156925000Y-89209316D02*
X156925000Y-87873528D01*
X156925000Y-87873528D02*
X156601472Y-87550000D01*
%TO.N,/encoder/CAL_EN*%
X134075000Y-88175000D02*
X136975000Y-91075000D01*
X131500000Y-88175000D02*
X134075000Y-88175000D01*
X130737500Y-87412500D02*
X131500000Y-88175000D01*
X145050000Y-91075000D02*
X145325000Y-91350000D01*
X136975000Y-91075000D02*
X145050000Y-91075000D01*
%TO.N,/encoder/CIPO*%
X130950000Y-86100000D02*
X130950000Y-86420343D01*
X145159314Y-91750000D02*
X145625000Y-91750000D01*
X130950000Y-86420343D02*
X130300000Y-87070343D01*
X130940684Y-88375000D02*
X133900000Y-88375000D01*
X130300000Y-87070343D02*
X130300000Y-87734316D01*
X130300000Y-87734316D02*
X130940684Y-88375000D01*
X133900000Y-88375000D02*
X136825000Y-91300000D01*
X136825000Y-91300000D02*
X144709314Y-91300000D01*
X145625000Y-91750000D02*
X146050000Y-91325000D01*
X144709314Y-91300000D02*
X145159314Y-91750000D01*
%TO.N,/encoder/COPI*%
X130100000Y-87817158D02*
X133832842Y-91550000D01*
X130400000Y-86375000D02*
X130100000Y-86675000D01*
X144676472Y-91550000D02*
X145076472Y-91950000D01*
X130100000Y-86675000D02*
X130100000Y-87817158D01*
X133832842Y-91550000D02*
X144676472Y-91550000D01*
X145076472Y-91950000D02*
X146175000Y-91950000D01*
X146175000Y-91950000D02*
X146775000Y-91350000D01*
%TO.N,/encoder/SCK*%
X133750000Y-91750000D02*
X144593630Y-91750000D01*
X144993630Y-92150000D02*
X146650000Y-92150000D01*
X146650000Y-92150000D02*
X147450000Y-91350000D01*
X144593630Y-91750000D02*
X144993630Y-92150000D01*
X130475000Y-85250000D02*
X129900000Y-85825000D01*
X129900000Y-85825000D02*
X129900000Y-87900000D01*
X129900000Y-87900000D02*
X133750000Y-91750000D01*
%TO.N,/mcu/RESET*%
X143150000Y-93750000D02*
X143150000Y-92800000D01*
X143150000Y-92800000D02*
X142300000Y-91950000D01*
X133650000Y-91950000D02*
X129700000Y-88000000D01*
X129700000Y-84450000D02*
X130587500Y-83562500D01*
X129700000Y-88000000D02*
X129700000Y-84450000D01*
X142300000Y-91950000D02*
X133650000Y-91950000D01*
%TO.N,/mcu/USBD_P*%
X136675000Y-95825000D02*
X136650000Y-95825000D01*
X137525000Y-96600000D02*
X137450000Y-96600000D01*
X137450000Y-96600000D02*
X136675000Y-95825000D01*
D23*
%TO.N,+3V3*%
X140050000Y-103600000D02*
X140050000Y-100150000D01*
X140050000Y-100150000D02*
X142025000Y-98175000D01*
X142025000Y-98175000D02*
X144100000Y-98175000D01*
D22*
%TO.N,/mcu/RESET*%
X133319239Y-78325000D02*
X133775000Y-78325000D01*
X130825000Y-80819239D02*
X133319239Y-78325000D01*
X130587500Y-83562500D02*
X130825000Y-83325000D01*
X130825000Y-83325000D02*
X130825000Y-80819239D01*
D24*
%TO.N,Net-(D603-K)*%
X155050000Y-88700000D02*
X150575000Y-84225000D01*
X156300000Y-88700000D02*
X155050000Y-88700000D01*
D22*
%TO.N,/half bridges/ENA*%
X150525000Y-83275000D02*
X150525000Y-83225000D01*
X155450000Y-87550000D02*
X154800000Y-87550000D01*
X154800000Y-87550000D02*
X150525000Y-83275000D01*
%TO.N,/encoder/CS*%
X132153300Y-87148766D02*
X132979534Y-87975000D01*
X137100000Y-90850000D02*
X147650000Y-90850000D01*
X132073766Y-87148766D02*
X132153300Y-87148766D01*
X134225000Y-87975000D02*
X137100000Y-90850000D01*
X147650000Y-90850000D02*
X148150000Y-91350000D01*
X132979534Y-87975000D02*
X134225000Y-87975000D01*
%TD*%
%TA.AperFunction,Conductor*%
%TO.N,GND*%
G36*
X137513801Y-69495462D02*
G01*
X137568339Y-69550000D01*
X137588301Y-69624500D01*
X137581780Y-69663182D01*
X137583063Y-69663526D01*
X137561725Y-69743162D01*
X137561721Y-69743183D01*
X137544500Y-69873994D01*
X137544500Y-69874000D01*
X137544500Y-76354830D01*
X137546665Y-76387856D01*
X137553902Y-76442826D01*
X137553903Y-76442831D01*
X137553902Y-76442830D01*
X137559572Y-76473223D01*
X137563826Y-76496022D01*
X137617301Y-76629595D01*
X137617302Y-76629596D01*
X137655866Y-76696392D01*
X137655867Y-76696394D01*
X137736199Y-76801083D01*
X137836188Y-76901072D01*
X137874752Y-76967867D01*
X137874752Y-77044995D01*
X137836188Y-77111790D01*
X137769393Y-77150354D01*
X137699850Y-77152175D01*
X137569648Y-77124500D01*
X137569646Y-77124500D01*
X137380354Y-77124500D01*
X137380352Y-77124500D01*
X137280392Y-77145747D01*
X137195197Y-77163856D01*
X137195195Y-77163856D01*
X137195194Y-77163857D01*
X137022272Y-77240847D01*
X136869127Y-77352113D01*
X136742469Y-77492779D01*
X136647822Y-77656714D01*
X136647819Y-77656721D01*
X136589325Y-77836745D01*
X136569540Y-78025000D01*
X136589325Y-78213254D01*
X136608398Y-78271954D01*
X136647821Y-78393284D01*
X136691119Y-78468278D01*
X136742469Y-78557220D01*
X136853687Y-78680738D01*
X136869129Y-78697888D01*
X137022270Y-78809151D01*
X137034019Y-78814382D01*
X137093958Y-78862921D01*
X137121598Y-78934927D01*
X137109532Y-79011105D01*
X137060993Y-79071044D01*
X136988987Y-79098684D01*
X136973414Y-79099500D01*
X134386230Y-79099500D01*
X134311730Y-79079538D01*
X134257192Y-79025000D01*
X134237230Y-78950500D01*
X134257192Y-78876000D01*
X134280871Y-78845141D01*
X134345807Y-78780205D01*
X134345808Y-78780204D01*
X134432789Y-78641775D01*
X134486786Y-78487461D01*
X134505091Y-78325000D01*
X134486786Y-78162539D01*
X134432789Y-78008225D01*
X134345808Y-77869796D01*
X134230204Y-77754192D01*
X134091775Y-77667211D01*
X133937461Y-77613214D01*
X133937460Y-77613213D01*
X133937455Y-77613212D01*
X133936916Y-77613152D01*
X133936534Y-77613002D01*
X133929304Y-77611352D01*
X133929552Y-77610261D01*
X133865121Y-77584971D01*
X133817035Y-77524668D01*
X133805543Y-77448401D01*
X133833724Y-77376606D01*
X133894027Y-77328520D01*
X133921575Y-77319573D01*
X134210936Y-77255880D01*
X134560305Y-77138165D01*
X134560315Y-77138160D01*
X134894933Y-76983350D01*
X135210834Y-76793278D01*
X135504352Y-76570151D01*
X135523479Y-76552032D01*
X134206879Y-75235432D01*
X134234180Y-75218168D01*
X134421501Y-75052216D01*
X134560511Y-74881958D01*
X135874501Y-76195948D01*
X136010690Y-76035617D01*
X136010694Y-76035611D01*
X136217592Y-75730461D01*
X136217595Y-75730456D01*
X136390284Y-75404728D01*
X136390290Y-75404715D01*
X136526750Y-75062226D01*
X136526752Y-75062221D01*
X136625386Y-74706976D01*
X136625386Y-74706974D01*
X136685034Y-74343142D01*
X136685034Y-74343136D01*
X136704994Y-73975000D01*
X136704994Y-73974991D01*
X136685034Y-73606863D01*
X136685034Y-73606857D01*
X136625386Y-73243025D01*
X136625386Y-73243023D01*
X136526752Y-72887778D01*
X136526750Y-72887773D01*
X136390290Y-72545284D01*
X136390284Y-72545271D01*
X136217595Y-72219543D01*
X136217592Y-72219538D01*
X136010696Y-71914391D01*
X136010687Y-71914379D01*
X135874502Y-71754050D01*
X135874501Y-71754050D01*
X134558648Y-73069903D01*
X134504544Y-72991520D01*
X134331184Y-72811034D01*
X134205132Y-72716312D01*
X135523479Y-71397966D01*
X135504347Y-71379844D01*
X135210834Y-71156721D01*
X134894933Y-70966649D01*
X134560315Y-70811839D01*
X134560305Y-70811834D01*
X134210936Y-70694119D01*
X133850868Y-70614862D01*
X133484343Y-70575000D01*
X133115656Y-70575000D01*
X132749131Y-70614862D01*
X132749130Y-70614862D01*
X132389063Y-70694119D01*
X132039694Y-70811834D01*
X132039684Y-70811839D01*
X131705066Y-70966649D01*
X131389165Y-71156721D01*
X131095663Y-71379835D01*
X131076520Y-71397967D01*
X132393120Y-72714567D01*
X132365820Y-72731832D01*
X132178499Y-72897784D01*
X132039488Y-73068041D01*
X130725497Y-71754050D01*
X130725496Y-71754050D01*
X130589308Y-71914383D01*
X130589306Y-71914386D01*
X130382402Y-72219547D01*
X130209715Y-72545271D01*
X130209709Y-72545284D01*
X130073249Y-72887773D01*
X130073247Y-72887778D01*
X129974613Y-73243023D01*
X129974613Y-73243025D01*
X129914965Y-73606857D01*
X129914965Y-73606863D01*
X129895006Y-73974991D01*
X129895006Y-73975000D01*
X129914965Y-74343136D01*
X129914965Y-74343142D01*
X129974613Y-74706974D01*
X129974613Y-74706976D01*
X130073247Y-75062221D01*
X130073249Y-75062226D01*
X130209709Y-75404715D01*
X130209715Y-75404728D01*
X130382404Y-75730456D01*
X130382407Y-75730461D01*
X130589303Y-76035608D01*
X130589312Y-76035620D01*
X130725496Y-76195948D01*
X130725497Y-76195948D01*
X132041350Y-74880094D01*
X132095456Y-74958480D01*
X132268816Y-75138966D01*
X132394865Y-75233686D01*
X131076520Y-76552031D01*
X131095657Y-76570159D01*
X131095658Y-76570160D01*
X131389165Y-76793278D01*
X131705066Y-76983350D01*
X132039684Y-77138160D01*
X132039694Y-77138165D01*
X132389063Y-77255880D01*
X132749131Y-77335137D01*
X133115656Y-77374999D01*
X133115666Y-77375000D01*
X133416364Y-77375000D01*
X133490864Y-77394962D01*
X133545402Y-77449500D01*
X133565364Y-77524000D01*
X133545402Y-77598500D01*
X133490864Y-77653038D01*
X133465577Y-77664638D01*
X133458225Y-77667210D01*
X133326130Y-77750212D01*
X133272072Y-77768833D01*
X133272314Y-77769824D01*
X133220027Y-77782565D01*
X133212530Y-77783990D01*
X133169317Y-77789930D01*
X133169313Y-77789931D01*
X133154818Y-77796227D01*
X133130754Y-77804320D01*
X133115387Y-77808066D01*
X133077352Y-77829451D01*
X133070528Y-77832840D01*
X133030527Y-77850215D01*
X133030517Y-77850221D01*
X133018257Y-77860195D01*
X132997263Y-77874483D01*
X132983482Y-77882232D01*
X132983475Y-77882237D01*
X132952638Y-77913075D01*
X132946973Y-77918187D01*
X132913132Y-77945720D01*
X132913129Y-77945723D01*
X132904013Y-77958637D01*
X132887649Y-77978063D01*
X130442381Y-80423332D01*
X130393956Y-80468558D01*
X130371294Y-80505822D01*
X130367002Y-80512130D01*
X130340639Y-80546896D01*
X130340638Y-80546896D01*
X130334837Y-80561607D01*
X130323543Y-80584347D01*
X130315326Y-80597860D01*
X130315325Y-80597862D01*
X130303557Y-80639861D01*
X130301126Y-80647092D01*
X130285125Y-80687668D01*
X130285123Y-80687676D01*
X130283506Y-80703402D01*
X130278766Y-80728344D01*
X130274500Y-80743573D01*
X130274500Y-80787191D01*
X130274109Y-80794814D01*
X130269648Y-80838211D01*
X130270641Y-80843973D01*
X130272333Y-80853783D01*
X130274500Y-80879101D01*
X130274500Y-82819990D01*
X130254538Y-82894490D01*
X130204774Y-82946150D01*
X130173699Y-82965676D01*
X130132295Y-82991692D01*
X130132295Y-82991693D01*
X130016692Y-83107296D01*
X129929711Y-83245725D01*
X129879951Y-83387932D01*
X129875714Y-83400040D01*
X129869396Y-83456107D01*
X129841217Y-83527903D01*
X129826692Y-83544781D01*
X129317381Y-84054093D01*
X129268956Y-84099319D01*
X129246294Y-84136583D01*
X129242002Y-84142891D01*
X129215639Y-84177657D01*
X129215638Y-84177657D01*
X129209837Y-84192368D01*
X129198543Y-84215108D01*
X129190326Y-84228621D01*
X129190325Y-84228623D01*
X129178557Y-84270622D01*
X129176126Y-84277853D01*
X129160125Y-84318429D01*
X129160123Y-84318437D01*
X129158506Y-84334163D01*
X129153766Y-84359105D01*
X129149500Y-84374334D01*
X129149500Y-84417952D01*
X129149109Y-84425575D01*
X129144648Y-84468972D01*
X129147333Y-84484544D01*
X129149500Y-84509862D01*
X129149500Y-87990602D01*
X129147237Y-88056826D01*
X129157565Y-88099207D01*
X129158990Y-88106705D01*
X129164930Y-88149918D01*
X129164930Y-88149919D01*
X129171226Y-88164414D01*
X129179324Y-88188495D01*
X129183065Y-88203846D01*
X129183066Y-88203848D01*
X129183067Y-88203852D01*
X129183068Y-88203853D01*
X129204442Y-88241869D01*
X129207836Y-88248702D01*
X129225217Y-88288714D01*
X129225221Y-88288721D01*
X129235191Y-88300976D01*
X129249484Y-88321977D01*
X129257233Y-88335758D01*
X129288081Y-88366606D01*
X129293195Y-88372273D01*
X129320721Y-88406107D01*
X129333631Y-88415220D01*
X129353065Y-88431590D01*
X133254093Y-92332618D01*
X133299320Y-92381044D01*
X133299322Y-92381045D01*
X133336590Y-92403710D01*
X133342900Y-92408004D01*
X133377655Y-92434359D01*
X133377659Y-92434362D01*
X133392362Y-92440160D01*
X133415113Y-92451459D01*
X133428618Y-92459672D01*
X133470632Y-92471443D01*
X133477853Y-92473872D01*
X133516549Y-92489132D01*
X133518436Y-92489876D01*
X133534154Y-92491492D01*
X133559116Y-92496236D01*
X133561604Y-92496933D01*
X133574335Y-92500500D01*
X133617952Y-92500500D01*
X133625575Y-92500891D01*
X133638889Y-92502259D01*
X133668972Y-92505352D01*
X133684545Y-92502666D01*
X133709862Y-92500500D01*
X134022121Y-92500500D01*
X134096621Y-92520462D01*
X134151159Y-92575000D01*
X134171121Y-92649500D01*
X134151159Y-92724000D01*
X134096621Y-92778538D01*
X134069701Y-92790699D01*
X134049412Y-92797535D01*
X134049408Y-92797537D01*
X134018869Y-92815910D01*
X134010760Y-92820134D01*
X133981042Y-92833366D01*
X133941171Y-92862334D01*
X133935794Y-92865895D01*
X133908102Y-92882557D01*
X133890896Y-92892910D01*
X133890894Y-92892911D01*
X133867452Y-92915117D01*
X133860008Y-92921301D01*
X133843911Y-92932998D01*
X133836401Y-92938455D01*
X133807572Y-92970472D01*
X133742886Y-93012478D01*
X133693080Y-93018554D01*
X133693080Y-93019500D01*
X132742135Y-93019500D01*
X132614224Y-93035954D01*
X132553502Y-93051838D01*
X132433904Y-93100131D01*
X132344534Y-93168709D01*
X132273277Y-93198225D01*
X132253828Y-93199500D01*
X132096164Y-93199500D01*
X132021664Y-93179538D01*
X131998588Y-93163105D01*
X131948188Y-93119432D01*
X131817313Y-93059663D01*
X131817311Y-93059662D01*
X131817306Y-93059660D01*
X131817299Y-93059658D01*
X131750270Y-93039976D01*
X131750269Y-93039975D01*
X131750258Y-93039973D01*
X131607866Y-93019501D01*
X131607854Y-93019500D01*
X131607852Y-93019500D01*
X130612823Y-93019500D01*
X130605219Y-93019907D01*
X130585795Y-93020948D01*
X130585789Y-93020948D01*
X130585784Y-93020949D01*
X130574232Y-93022191D01*
X130545976Y-93025229D01*
X130492556Y-93033885D01*
X130492554Y-93033885D01*
X130492552Y-93033886D01*
X130444422Y-93051838D01*
X130357747Y-93084166D01*
X130357744Y-93084167D01*
X130296424Y-93117650D01*
X130296416Y-93117655D01*
X130181241Y-93203874D01*
X129894302Y-93490813D01*
X129876209Y-93510955D01*
X129876209Y-93510956D01*
X129851078Y-93542142D01*
X129819433Y-93586026D01*
X129759661Y-93716905D01*
X129759658Y-93716914D01*
X129739976Y-93783944D01*
X129739973Y-93783955D01*
X129719501Y-93926347D01*
X129719500Y-93926365D01*
X129719500Y-95712174D01*
X129720948Y-95739205D01*
X129720948Y-95739204D01*
X129725229Y-95779024D01*
X129725231Y-95779036D01*
X129733886Y-95832448D01*
X129773619Y-95938974D01*
X129784166Y-95967252D01*
X129784167Y-95967255D01*
X129817650Y-96028575D01*
X129817655Y-96028583D01*
X129903874Y-96143758D01*
X129903879Y-96143763D01*
X130315813Y-96555698D01*
X130335955Y-96573791D01*
X130335956Y-96573791D01*
X130335957Y-96573792D01*
X130367142Y-96598922D01*
X130411026Y-96630567D01*
X130541903Y-96690338D01*
X130559275Y-96695439D01*
X130608944Y-96710024D01*
X130608955Y-96710026D01*
X130751347Y-96730498D01*
X130751351Y-96730498D01*
X130751362Y-96730500D01*
X130751366Y-96730500D01*
X131560901Y-96730500D01*
X131635401Y-96750462D01*
X131689939Y-96805000D01*
X131709901Y-96879500D01*
X131689939Y-96954000D01*
X131637719Y-97007172D01*
X131389161Y-97156724D01*
X131095663Y-97379835D01*
X131076520Y-97397967D01*
X132393120Y-98714567D01*
X132365820Y-98731832D01*
X132178499Y-98897784D01*
X132039488Y-99068041D01*
X130725497Y-97754050D01*
X130725496Y-97754050D01*
X130589308Y-97914383D01*
X130589306Y-97914386D01*
X130382402Y-98219547D01*
X130209715Y-98545271D01*
X130209709Y-98545284D01*
X130073249Y-98887773D01*
X130073247Y-98887778D01*
X129974613Y-99243023D01*
X129974613Y-99243025D01*
X129914965Y-99606857D01*
X129914965Y-99606863D01*
X129895006Y-99974991D01*
X129895006Y-99975000D01*
X129914965Y-100343136D01*
X129914965Y-100343142D01*
X129974613Y-100706974D01*
X129974613Y-100706976D01*
X130073247Y-101062221D01*
X130073249Y-101062226D01*
X130209709Y-101404715D01*
X130209715Y-101404728D01*
X130382404Y-101730456D01*
X130382407Y-101730461D01*
X130589303Y-102035608D01*
X130589312Y-102035620D01*
X130725496Y-102195948D01*
X130725497Y-102195948D01*
X132041350Y-100880094D01*
X132095456Y-100958480D01*
X132268816Y-101138966D01*
X132394865Y-101233685D01*
X131076520Y-102552031D01*
X131095657Y-102570159D01*
X131095658Y-102570160D01*
X131389165Y-102793278D01*
X131705066Y-102983350D01*
X132039684Y-103138160D01*
X132039694Y-103138165D01*
X132389063Y-103255880D01*
X132749131Y-103335137D01*
X133115656Y-103374999D01*
X133115666Y-103375000D01*
X133484334Y-103375000D01*
X133484343Y-103374999D01*
X133850868Y-103335137D01*
X133850869Y-103335137D01*
X134210936Y-103255880D01*
X134560305Y-103138165D01*
X134560315Y-103138160D01*
X134894933Y-102983350D01*
X135210834Y-102793278D01*
X135504346Y-102570155D01*
X135586317Y-102492509D01*
X135654132Y-102455768D01*
X135731232Y-102457856D01*
X135796958Y-102498214D01*
X135833699Y-102566029D01*
X135837533Y-102609346D01*
X135832060Y-102703308D01*
X135832060Y-102703315D01*
X135862335Y-102875011D01*
X135931388Y-103035095D01*
X136035498Y-103174938D01*
X136169050Y-103287002D01*
X136169051Y-103287002D01*
X136169053Y-103287004D01*
X136324852Y-103365249D01*
X136494496Y-103405455D01*
X136494498Y-103405455D01*
X136625106Y-103405455D01*
X136625110Y-103405454D01*
X136754831Y-103390292D01*
X136918660Y-103330663D01*
X137064321Y-103234860D01*
X137094417Y-103202961D01*
X137138131Y-103156627D01*
X137183963Y-103108048D01*
X137271134Y-102957062D01*
X137321136Y-102790043D01*
X137331274Y-102615995D01*
X137300999Y-102444301D01*
X137279915Y-102395421D01*
X137231945Y-102284214D01*
X137127835Y-102144371D01*
X136994283Y-102032307D01*
X136838485Y-101954062D01*
X136838483Y-101954061D01*
X136838482Y-101954061D01*
X136668838Y-101913855D01*
X136538231Y-101913855D01*
X136538222Y-101913855D01*
X136408507Y-101929017D01*
X136408502Y-101929018D01*
X136405596Y-101930076D01*
X136403129Y-101930291D01*
X136400061Y-101931019D01*
X136399954Y-101930569D01*
X136328762Y-101936795D01*
X136258861Y-101904197D01*
X136214624Y-101841016D01*
X136207905Y-101764182D01*
X136222997Y-101720267D01*
X136390284Y-101404728D01*
X136390290Y-101404715D01*
X136526750Y-101062226D01*
X136526752Y-101062221D01*
X136625386Y-100706976D01*
X136625387Y-100706971D01*
X136636955Y-100636411D01*
X136668707Y-100566122D01*
X136731349Y-100521125D01*
X136808097Y-100513479D01*
X136837817Y-100521578D01*
X136920994Y-100553801D01*
X136921012Y-100553806D01*
X136987060Y-100566151D01*
X136987061Y-100566151D01*
X136987061Y-99817168D01*
X137039603Y-99852991D01*
X137169233Y-99892977D01*
X137270784Y-99892977D01*
X137371203Y-99877841D01*
X137487061Y-99822046D01*
X137487061Y-100566151D01*
X137553109Y-100553806D01*
X137553127Y-100553801D01*
X137751851Y-100476815D01*
X137751854Y-100476813D01*
X137933061Y-100364615D01*
X138090562Y-100221033D01*
X138218996Y-100050961D01*
X138313999Y-99860168D01*
X138361573Y-99692965D01*
X137612353Y-99692965D01*
X137660697Y-99609230D01*
X137690883Y-99476974D01*
X137680746Y-99341697D01*
X137672425Y-99320496D01*
X137715872Y-99340338D01*
X137721413Y-99341965D01*
X137782913Y-99360024D01*
X137782924Y-99360026D01*
X137925316Y-99380498D01*
X137925320Y-99380498D01*
X137925331Y-99380500D01*
X137925335Y-99380500D01*
X139575190Y-99380500D01*
X139649690Y-99400462D01*
X139704228Y-99455000D01*
X139724190Y-99529500D01*
X139704228Y-99604000D01*
X139680545Y-99634863D01*
X139668153Y-99647254D01*
X139654983Y-99657806D01*
X139655343Y-99658241D01*
X139648123Y-99664213D01*
X139624448Y-99689424D01*
X139600773Y-99714635D01*
X139590327Y-99725081D01*
X139579883Y-99735525D01*
X139579876Y-99735533D01*
X139575986Y-99740547D01*
X139571436Y-99745874D01*
X139539938Y-99779418D01*
X139539935Y-99779421D01*
X139531231Y-99795254D01*
X139518401Y-99814786D01*
X139507328Y-99829062D01*
X139507325Y-99829067D01*
X139489053Y-99871288D01*
X139485966Y-99877590D01*
X139463803Y-99917908D01*
X139463800Y-99917914D01*
X139459307Y-99935412D01*
X139451740Y-99957513D01*
X139444564Y-99974098D01*
X139444560Y-99974110D01*
X139437363Y-100019549D01*
X139435940Y-100026422D01*
X139424500Y-100070979D01*
X139424500Y-100089045D01*
X139422666Y-100112351D01*
X139419840Y-100130195D01*
X139424169Y-100175996D01*
X139424500Y-100183011D01*
X139424500Y-102891715D01*
X139404538Y-102966215D01*
X139386229Y-102991415D01*
X139317468Y-103067782D01*
X139222822Y-103231714D01*
X139222819Y-103231721D01*
X139164325Y-103411745D01*
X139144540Y-103600000D01*
X139164325Y-103788254D01*
X139211455Y-103933304D01*
X139222821Y-103968284D01*
X139257115Y-104027683D01*
X139317469Y-104132220D01*
X139401729Y-104225799D01*
X139436745Y-104294521D01*
X139432709Y-104371543D01*
X139390702Y-104436228D01*
X139321980Y-104471244D01*
X139291001Y-104474500D01*
X133300000Y-104474500D01*
X133105535Y-104466009D01*
X132905044Y-104456739D01*
X132898758Y-104456181D01*
X132698495Y-104429816D01*
X132504456Y-104402749D01*
X132498621Y-104401697D01*
X132300292Y-104357728D01*
X132110363Y-104313057D01*
X132105016Y-104311588D01*
X131910712Y-104250325D01*
X131789471Y-104209690D01*
X131725915Y-104188388D01*
X131721088Y-104186581D01*
X131532522Y-104108475D01*
X131354237Y-104029754D01*
X131349928Y-104027683D01*
X131168627Y-103933304D01*
X130998316Y-103838441D01*
X130994539Y-103836189D01*
X130821930Y-103726225D01*
X130660998Y-103615984D01*
X130657748Y-103613626D01*
X130495208Y-103488905D01*
X130345019Y-103364190D01*
X130342281Y-103361801D01*
X130191064Y-103223236D01*
X130051763Y-103083935D01*
X130036963Y-103067784D01*
X129913192Y-102932712D01*
X129910808Y-102929979D01*
X129786094Y-102779791D01*
X129661372Y-102617250D01*
X129659014Y-102614000D01*
X129628982Y-102570159D01*
X129548774Y-102453069D01*
X129508766Y-102390269D01*
X129438802Y-102280447D01*
X129436556Y-102276681D01*
X129391588Y-102195948D01*
X129341696Y-102106373D01*
X129247314Y-101925068D01*
X129245255Y-101920784D01*
X129166524Y-101742477D01*
X129088409Y-101553890D01*
X129086619Y-101549107D01*
X129024674Y-101364287D01*
X128963408Y-101169976D01*
X128961947Y-101164660D01*
X128917271Y-100974707D01*
X128906249Y-100924991D01*
X128873295Y-100776345D01*
X128872255Y-100770578D01*
X128845183Y-100576504D01*
X128818815Y-100376221D01*
X128818260Y-100369966D01*
X128808996Y-100169602D01*
X128800500Y-99975000D01*
X128800500Y-99974500D01*
X128800500Y-73975000D01*
X128809000Y-73780296D01*
X128818260Y-73580029D01*
X128818814Y-73573783D01*
X128845190Y-73373443D01*
X128872256Y-73179412D01*
X128873293Y-73173663D01*
X128917275Y-72975271D01*
X128961951Y-72785324D01*
X128963404Y-72780036D01*
X129024653Y-72585780D01*
X129025316Y-72583800D01*
X129086636Y-72400846D01*
X129088404Y-72396121D01*
X129166524Y-72207523D01*
X129245270Y-72029180D01*
X129247299Y-72024960D01*
X129341704Y-71843610D01*
X129436575Y-71673285D01*
X129438810Y-71669540D01*
X129548778Y-71496923D01*
X129659037Y-71335966D01*
X129661346Y-71332782D01*
X129786091Y-71170212D01*
X129910871Y-71019946D01*
X129913159Y-71017324D01*
X130051742Y-70866088D01*
X130191088Y-70726742D01*
X130193616Y-70724424D01*
X130342324Y-70588159D01*
X130344946Y-70585871D01*
X130495219Y-70461086D01*
X130657782Y-70336346D01*
X130660966Y-70334037D01*
X130821923Y-70223778D01*
X130994542Y-70113808D01*
X130998285Y-70111575D01*
X131168610Y-70016704D01*
X131349960Y-69922299D01*
X131354180Y-69920270D01*
X131532523Y-69841524D01*
X131721121Y-69763404D01*
X131725846Y-69761636D01*
X131910780Y-69699653D01*
X131913560Y-69698776D01*
X132105036Y-69638404D01*
X132110324Y-69636951D01*
X132300271Y-69592275D01*
X132498663Y-69548293D01*
X132504412Y-69547256D01*
X132698458Y-69520188D01*
X132898783Y-69493814D01*
X132905029Y-69493260D01*
X133105296Y-69484000D01*
X133300000Y-69475500D01*
X133300500Y-69475500D01*
X137439301Y-69475500D01*
X137513801Y-69495462D01*
G37*
%TD.AperFunction*%
%TA.AperFunction,Conductor*%
G36*
X163755859Y-96169743D02*
G01*
X163794423Y-96236538D01*
X163799500Y-96275102D01*
X163799500Y-99975000D01*
X163791009Y-100169464D01*
X163781739Y-100369954D01*
X163781181Y-100376240D01*
X163754816Y-100576504D01*
X163727749Y-100770542D01*
X163726697Y-100776376D01*
X163682728Y-100974707D01*
X163638057Y-101164635D01*
X163636588Y-101169982D01*
X163575325Y-101364287D01*
X163513390Y-101549075D01*
X163511581Y-101553910D01*
X163433475Y-101742477D01*
X163354753Y-101920762D01*
X163352683Y-101925070D01*
X163258304Y-102106373D01*
X163163441Y-102276682D01*
X163161189Y-102280459D01*
X163051225Y-102453069D01*
X162940984Y-102614000D01*
X162938626Y-102617250D01*
X162813905Y-102779791D01*
X162689190Y-102929979D01*
X162686802Y-102932717D01*
X162548236Y-103083935D01*
X162408935Y-103223236D01*
X162257717Y-103361802D01*
X162254979Y-103364190D01*
X162104791Y-103488905D01*
X161942250Y-103613626D01*
X161939000Y-103615984D01*
X161778069Y-103726225D01*
X161605459Y-103836189D01*
X161601682Y-103838441D01*
X161431373Y-103933304D01*
X161250070Y-104027683D01*
X161245762Y-104029753D01*
X161067477Y-104108475D01*
X160878910Y-104186581D01*
X160874075Y-104188390D01*
X160689287Y-104250325D01*
X160494982Y-104311588D01*
X160489635Y-104313057D01*
X160299707Y-104357728D01*
X160101376Y-104401697D01*
X160095542Y-104402749D01*
X159901504Y-104429816D01*
X159701240Y-104456181D01*
X159694954Y-104456739D01*
X159494464Y-104466009D01*
X159300000Y-104474500D01*
X140808999Y-104474500D01*
X140734499Y-104454538D01*
X140679961Y-104400000D01*
X140659999Y-104325500D01*
X140679961Y-104251000D01*
X140698271Y-104225799D01*
X140782530Y-104132220D01*
X140782531Y-104132218D01*
X140782533Y-104132216D01*
X140877179Y-103968284D01*
X140935674Y-103788256D01*
X140955460Y-103600000D01*
X140935674Y-103411744D01*
X140878330Y-103235261D01*
X140875207Y-103175676D01*
X140854040Y-103167267D01*
X140813979Y-103122251D01*
X140782533Y-103067784D01*
X140753098Y-103035093D01*
X140713771Y-102991415D01*
X140678756Y-102922693D01*
X140675500Y-102891715D01*
X140675500Y-102731338D01*
X141012588Y-102731338D01*
X141042863Y-102903034D01*
X141079831Y-102988735D01*
X141090819Y-103063754D01*
X141119738Y-103078489D01*
X141139554Y-103100241D01*
X141216026Y-103202961D01*
X141349578Y-103315025D01*
X141349579Y-103315025D01*
X141349581Y-103315027D01*
X141505380Y-103393272D01*
X141675024Y-103433478D01*
X141675026Y-103433478D01*
X141805634Y-103433478D01*
X141805638Y-103433477D01*
X141935359Y-103418315D01*
X142099188Y-103358686D01*
X142244849Y-103262883D01*
X142364491Y-103136071D01*
X142451662Y-102985085D01*
X142501664Y-102818066D01*
X142511802Y-102644018D01*
X142481527Y-102472324D01*
X142474386Y-102455768D01*
X142412473Y-102312237D01*
X142308363Y-102172394D01*
X142174811Y-102060330D01*
X142019013Y-101982085D01*
X142019011Y-101982084D01*
X142019010Y-101982084D01*
X141849366Y-101941878D01*
X141718759Y-101941878D01*
X141718750Y-101941878D01*
X141589035Y-101957040D01*
X141589031Y-101957040D01*
X141425206Y-102016668D01*
X141425204Y-102016669D01*
X141425202Y-102016670D01*
X141325255Y-102082406D01*
X141279536Y-102112476D01*
X141159904Y-102239278D01*
X141159896Y-102239289D01*
X141072728Y-102390269D01*
X141072727Y-102390271D01*
X141047359Y-102475009D01*
X141024301Y-102552031D01*
X141022726Y-102557291D01*
X141012588Y-102731332D01*
X141012588Y-102731338D01*
X140675500Y-102731338D01*
X140675500Y-101399610D01*
X140695462Y-101325110D01*
X140750000Y-101270572D01*
X140824500Y-101250610D01*
X140899000Y-101270572D01*
X140920277Y-101285471D01*
X140961854Y-101320359D01*
X140961855Y-101320359D01*
X140961857Y-101320361D01*
X141117656Y-101398606D01*
X141287300Y-101438812D01*
X141287302Y-101438812D01*
X141417910Y-101438812D01*
X141417914Y-101438811D01*
X141547635Y-101423649D01*
X141711464Y-101364020D01*
X141857125Y-101268217D01*
X141873737Y-101250610D01*
X141976761Y-101141411D01*
X141976767Y-101141405D01*
X142063938Y-100990419D01*
X142113940Y-100823400D01*
X142124078Y-100649352D01*
X142093803Y-100477658D01*
X142093440Y-100476815D01*
X142024749Y-100317571D01*
X141920639Y-100177728D01*
X141787087Y-100065664D01*
X141631289Y-99987419D01*
X141631287Y-99987418D01*
X141631286Y-99987418D01*
X141461642Y-99947212D01*
X141461640Y-99947212D01*
X141459277Y-99946652D01*
X141391389Y-99910047D01*
X141350899Y-99844402D01*
X141348655Y-99767306D01*
X141385260Y-99699418D01*
X141388280Y-99696309D01*
X141684128Y-99400462D01*
X142240449Y-98844141D01*
X142307244Y-98805577D01*
X142345808Y-98800500D01*
X142820500Y-98800500D01*
X142895000Y-98820462D01*
X142949538Y-98875000D01*
X142969500Y-98949500D01*
X142969500Y-99312177D01*
X142970949Y-99339216D01*
X142971070Y-99340338D01*
X142975229Y-99379024D01*
X142975231Y-99379036D01*
X142983886Y-99432448D01*
X142992298Y-99455000D01*
X143034166Y-99567252D01*
X143034167Y-99567255D01*
X143067650Y-99628575D01*
X143067655Y-99628583D01*
X143153874Y-99743758D01*
X143153879Y-99743763D01*
X143865813Y-100455698D01*
X143885955Y-100473791D01*
X143885956Y-100473791D01*
X143885957Y-100473792D01*
X143917142Y-100498922D01*
X143961026Y-100530567D01*
X144091903Y-100590338D01*
X144115899Y-100597384D01*
X144158944Y-100610024D01*
X144158955Y-100610026D01*
X144301347Y-100630498D01*
X144301351Y-100630498D01*
X144301362Y-100630500D01*
X144751464Y-100630500D01*
X144825964Y-100650462D01*
X144880502Y-100705000D01*
X144900464Y-100779500D01*
X144880502Y-100854000D01*
X144873522Y-100864955D01*
X144871128Y-100868375D01*
X144850967Y-100897166D01*
X144850965Y-100897171D01*
X144774001Y-101062221D01*
X144751096Y-101111340D01*
X144689937Y-101339590D01*
X144689937Y-101339592D01*
X144674500Y-101516034D01*
X144674500Y-101883966D01*
X144683659Y-101988647D01*
X144689937Y-102060409D01*
X144712435Y-102144372D01*
X144751097Y-102288663D01*
X144850965Y-102502829D01*
X144986505Y-102696401D01*
X145153599Y-102863495D01*
X145347170Y-102999035D01*
X145561337Y-103098903D01*
X145789592Y-103160063D01*
X146025000Y-103180659D01*
X146260408Y-103160063D01*
X146488663Y-103098903D01*
X146702829Y-102999035D01*
X146896401Y-102863495D01*
X147063495Y-102696401D01*
X147152948Y-102568648D01*
X147212029Y-102519073D01*
X147287986Y-102505680D01*
X147360463Y-102532059D01*
X147397051Y-102568647D01*
X147486505Y-102696401D01*
X147653599Y-102863495D01*
X147847170Y-102999035D01*
X148061337Y-103098903D01*
X148289592Y-103160063D01*
X148525000Y-103180659D01*
X148760408Y-103160063D01*
X148988663Y-103098903D01*
X149202829Y-102999035D01*
X149396401Y-102863495D01*
X149563495Y-102696401D01*
X149653252Y-102568214D01*
X149712334Y-102518637D01*
X149788291Y-102505244D01*
X149860767Y-102531623D01*
X149897359Y-102568214D01*
X149986891Y-102696079D01*
X150153923Y-102863111D01*
X150347411Y-102998593D01*
X150347420Y-102998599D01*
X150561508Y-103098430D01*
X150561513Y-103098432D01*
X150775000Y-103155634D01*
X150775000Y-102108018D01*
X150889801Y-102160446D01*
X150991025Y-102175000D01*
X151058975Y-102175000D01*
X151160199Y-102160446D01*
X151275000Y-102108018D01*
X151275000Y-103155633D01*
X151488486Y-103098432D01*
X151702580Y-102998597D01*
X151896079Y-102863108D01*
X152020974Y-102738213D01*
X152087768Y-102699649D01*
X152164896Y-102699649D01*
X152231692Y-102738213D01*
X152253146Y-102765347D01*
X152332288Y-102893656D01*
X152456344Y-103017712D01*
X152605666Y-103109814D01*
X152772203Y-103164999D01*
X152874991Y-103175500D01*
X154175008Y-103175499D01*
X154277797Y-103164999D01*
X154444334Y-103109814D01*
X154593656Y-103017712D01*
X154717712Y-102893656D01*
X154809814Y-102744334D01*
X154864999Y-102577797D01*
X154875500Y-102475009D01*
X154875499Y-100924992D01*
X154864999Y-100822203D01*
X154809814Y-100655666D01*
X154717712Y-100506344D01*
X154593656Y-100382288D01*
X154444334Y-100290186D01*
X154361065Y-100262593D01*
X154277798Y-100235001D01*
X154260665Y-100233250D01*
X154175009Y-100224500D01*
X154175004Y-100224500D01*
X152874996Y-100224500D01*
X152772202Y-100235001D01*
X152605666Y-100290186D01*
X152456343Y-100382288D01*
X152332288Y-100506343D01*
X152253150Y-100634648D01*
X152197049Y-100687577D01*
X152122000Y-100705364D01*
X152048112Y-100683244D01*
X152020974Y-100661786D01*
X151896076Y-100536888D01*
X151702588Y-100401406D01*
X151702579Y-100401400D01*
X151488491Y-100301569D01*
X151488489Y-100301568D01*
X151275000Y-100244364D01*
X151275000Y-101291981D01*
X151160199Y-101239554D01*
X151058975Y-101225000D01*
X150991025Y-101225000D01*
X150889801Y-101239554D01*
X150775000Y-101291981D01*
X150775000Y-100244364D01*
X150774999Y-100244364D01*
X150561512Y-100301568D01*
X150347419Y-100401402D01*
X150153920Y-100536891D01*
X149986888Y-100703923D01*
X149897358Y-100831785D01*
X149838274Y-100881362D01*
X149762318Y-100894755D01*
X149689842Y-100868375D01*
X149653251Y-100831785D01*
X149647380Y-100823400D01*
X149563495Y-100703599D01*
X149396401Y-100536505D01*
X149202830Y-100400965D01*
X148988663Y-100301097D01*
X148988661Y-100301096D01*
X148760409Y-100239937D01*
X148525000Y-100219341D01*
X148289590Y-100239937D01*
X148260300Y-100247785D01*
X148183172Y-100247783D01*
X148116378Y-100209218D01*
X148077815Y-100142422D01*
X148077817Y-100065294D01*
X148116380Y-99998502D01*
X148124819Y-99990064D01*
X148192626Y-99905922D01*
X148202883Y-99889962D01*
X148259950Y-99838082D01*
X148335316Y-99821686D01*
X148349432Y-99823033D01*
X148362331Y-99824888D01*
X148401352Y-99830499D01*
X148401358Y-99830499D01*
X148401362Y-99830500D01*
X148401366Y-99830500D01*
X149994155Y-99830500D01*
X149994161Y-99830500D01*
X150065304Y-99823034D01*
X150099096Y-99819488D01*
X150099098Y-99819487D01*
X150099103Y-99819487D01*
X150149465Y-99808799D01*
X150249828Y-99776243D01*
X150371653Y-99699690D01*
X150424919Y-99654475D01*
X150485542Y-99585933D01*
X150549849Y-99543356D01*
X150613832Y-99536586D01*
X150774999Y-99554746D01*
X150775001Y-99554746D01*
X150942948Y-99535822D01*
X151101714Y-99480267D01*
X150706079Y-99084632D01*
X150667515Y-99017837D01*
X150663254Y-98963703D01*
X150680460Y-98800000D01*
X151128553Y-98800000D01*
X151455267Y-99126714D01*
X151510822Y-98967948D01*
X151529746Y-98800001D01*
X151529746Y-98799998D01*
X151510822Y-98632051D01*
X151455267Y-98473284D01*
X151128553Y-98799999D01*
X151128553Y-98800000D01*
X150680460Y-98800000D01*
X150663565Y-98639255D01*
X150675631Y-98563079D01*
X150701150Y-98523839D01*
X150705535Y-98518983D01*
X150705536Y-98518981D01*
X150705542Y-98518975D01*
X150705538Y-98518978D01*
X150712506Y-98509865D01*
X150719012Y-98502433D01*
X150775001Y-98446446D01*
X151101714Y-98119731D01*
X150955288Y-98068494D01*
X150891562Y-98025046D01*
X150858097Y-97955556D01*
X150855500Y-97927856D01*
X150855500Y-97562826D01*
X150854052Y-97535795D01*
X150854052Y-97535796D01*
X150854051Y-97535784D01*
X150851876Y-97515555D01*
X150849771Y-97495976D01*
X150846827Y-97477807D01*
X150841114Y-97442552D01*
X150825755Y-97401375D01*
X150818424Y-97324600D01*
X150850463Y-97254441D01*
X150876066Y-97230029D01*
X150911018Y-97203865D01*
X151415743Y-96699141D01*
X151482538Y-96660577D01*
X151521102Y-96655500D01*
X157700691Y-96655500D01*
X157775191Y-96675462D01*
X157829729Y-96730000D01*
X157849691Y-96804500D01*
X157829729Y-96879000D01*
X157775191Y-96933538D01*
X157763254Y-96939729D01*
X157705070Y-96966647D01*
X157389165Y-97156721D01*
X157095663Y-97379835D01*
X157076520Y-97397967D01*
X158393120Y-98714567D01*
X158365820Y-98731832D01*
X158178499Y-98897784D01*
X158039488Y-99068041D01*
X156725497Y-97754050D01*
X156725496Y-97754050D01*
X156589308Y-97914383D01*
X156589306Y-97914386D01*
X156382402Y-98219547D01*
X156209715Y-98545271D01*
X156209709Y-98545284D01*
X156073249Y-98887773D01*
X156073247Y-98887778D01*
X155974613Y-99243023D01*
X155974613Y-99243025D01*
X155914965Y-99606857D01*
X155914965Y-99606863D01*
X155895006Y-99974991D01*
X155895006Y-99975000D01*
X155914965Y-100343136D01*
X155914965Y-100343142D01*
X155974613Y-100706974D01*
X155974613Y-100706976D01*
X156073247Y-101062221D01*
X156073249Y-101062226D01*
X156209709Y-101404715D01*
X156209715Y-101404728D01*
X156382404Y-101730456D01*
X156382407Y-101730461D01*
X156589303Y-102035608D01*
X156589312Y-102035620D01*
X156725496Y-102195948D01*
X156725497Y-102195948D01*
X158041350Y-100880094D01*
X158095456Y-100958480D01*
X158268816Y-101138966D01*
X158394865Y-101233686D01*
X157076520Y-102552031D01*
X157095657Y-102570159D01*
X157095658Y-102570160D01*
X157389165Y-102793278D01*
X157705066Y-102983350D01*
X158039684Y-103138160D01*
X158039694Y-103138165D01*
X158389063Y-103255880D01*
X158749131Y-103335137D01*
X159115656Y-103374999D01*
X159115666Y-103375000D01*
X159484334Y-103375000D01*
X159484343Y-103374999D01*
X159850868Y-103335137D01*
X159850869Y-103335137D01*
X160210936Y-103255880D01*
X160560305Y-103138165D01*
X160560315Y-103138160D01*
X160894933Y-102983350D01*
X161210834Y-102793278D01*
X161504352Y-102570151D01*
X161523479Y-102552032D01*
X160206879Y-101235432D01*
X160234180Y-101218168D01*
X160421501Y-101052216D01*
X160560511Y-100881958D01*
X161874501Y-102195948D01*
X162010690Y-102035617D01*
X162010694Y-102035611D01*
X162217592Y-101730461D01*
X162217595Y-101730456D01*
X162390284Y-101404728D01*
X162390290Y-101404715D01*
X162526750Y-101062226D01*
X162526752Y-101062221D01*
X162625386Y-100706976D01*
X162625386Y-100706974D01*
X162685034Y-100343142D01*
X162685034Y-100343136D01*
X162704994Y-99975000D01*
X162704994Y-99974991D01*
X162685034Y-99606863D01*
X162685034Y-99606857D01*
X162625386Y-99243025D01*
X162625386Y-99243023D01*
X162526752Y-98887778D01*
X162526750Y-98887773D01*
X162390290Y-98545284D01*
X162390284Y-98545271D01*
X162217595Y-98219543D01*
X162217592Y-98219538D01*
X162010696Y-97914391D01*
X162010687Y-97914379D01*
X161874502Y-97754050D01*
X161874501Y-97754050D01*
X160558648Y-99069903D01*
X160504544Y-98991520D01*
X160331184Y-98811034D01*
X160205132Y-98716312D01*
X161523479Y-97397966D01*
X161504347Y-97379844D01*
X161210834Y-97156721D01*
X160894929Y-96966647D01*
X160836746Y-96939729D01*
X160777513Y-96890330D01*
X160750916Y-96817933D01*
X160764080Y-96741937D01*
X160813479Y-96682704D01*
X160885876Y-96656107D01*
X160899309Y-96655500D01*
X162812174Y-96655500D01*
X162812177Y-96655500D01*
X162819780Y-96655092D01*
X162839205Y-96654052D01*
X162839204Y-96654052D01*
X162839210Y-96654051D01*
X162839216Y-96654051D01*
X162850768Y-96652808D01*
X162879024Y-96649771D01*
X162882448Y-96649216D01*
X162932448Y-96641114D01*
X163067257Y-96590832D01*
X163128580Y-96557347D01*
X163243761Y-96471123D01*
X163545142Y-96169742D01*
X163611936Y-96131179D01*
X163689064Y-96131179D01*
X163755859Y-96169743D01*
G37*
%TD.AperFunction*%
%TA.AperFunction,Conductor*%
G36*
X154145000Y-90470462D02*
G01*
X154199538Y-90525000D01*
X154219500Y-90599500D01*
X154219500Y-91612174D01*
X154220948Y-91639205D01*
X154220948Y-91639204D01*
X154225229Y-91679024D01*
X154225231Y-91679036D01*
X154233886Y-91732448D01*
X154277374Y-91849044D01*
X154284166Y-91867252D01*
X154284167Y-91867255D01*
X154317650Y-91928575D01*
X154317655Y-91928583D01*
X154403874Y-92043758D01*
X154403879Y-92043763D01*
X155140813Y-92780698D01*
X155160955Y-92798791D01*
X155160956Y-92798791D01*
X155160957Y-92798792D01*
X155192142Y-92823922D01*
X155236026Y-92855567D01*
X155366903Y-92915338D01*
X155377508Y-92918452D01*
X155433944Y-92935024D01*
X155433955Y-92935026D01*
X155576347Y-92955498D01*
X155576351Y-92955498D01*
X155576362Y-92955500D01*
X155973961Y-92955500D01*
X156048461Y-92975462D01*
X156102999Y-93030000D01*
X156122961Y-93104500D01*
X156102999Y-93179000D01*
X156076780Y-93212338D01*
X156072337Y-93216574D01*
X156067545Y-93221144D01*
X156067527Y-93221163D01*
X155978595Y-93334250D01*
X155978595Y-93334251D01*
X155929149Y-93419893D01*
X155910842Y-93445091D01*
X155876244Y-93483517D01*
X155853094Y-93504362D01*
X155811253Y-93534761D01*
X155784276Y-93550336D01*
X155737043Y-93571365D01*
X155707423Y-93580989D01*
X155656836Y-93591743D01*
X155625853Y-93595000D01*
X155574144Y-93595000D01*
X155543168Y-93591744D01*
X155492582Y-93580992D01*
X155462958Y-93571366D01*
X155415720Y-93550334D01*
X155388746Y-93534761D01*
X155346899Y-93504358D01*
X155323754Y-93483517D01*
X155289156Y-93445092D01*
X155270847Y-93419891D01*
X155221407Y-93334257D01*
X155221403Y-93334251D01*
X155221402Y-93334249D01*
X155191868Y-93294796D01*
X155149475Y-93238166D01*
X155149468Y-93238158D01*
X155109132Y-93195854D01*
X155109122Y-93195845D01*
X155016576Y-93119433D01*
X154983878Y-93104500D01*
X154885699Y-93059662D01*
X154885696Y-93059661D01*
X154885687Y-93059658D01*
X154818658Y-93039976D01*
X154818657Y-93039975D01*
X154818646Y-93039973D01*
X154676254Y-93019501D01*
X154676242Y-93019500D01*
X154676240Y-93019500D01*
X149887823Y-93019500D01*
X149880219Y-93019907D01*
X149860795Y-93020948D01*
X149860789Y-93020948D01*
X149860784Y-93020949D01*
X149849232Y-93022191D01*
X149820976Y-93025229D01*
X149767556Y-93033885D01*
X149767554Y-93033885D01*
X149767552Y-93033886D01*
X149719422Y-93051838D01*
X149632747Y-93084166D01*
X149632744Y-93084167D01*
X149571424Y-93117650D01*
X149571416Y-93117655D01*
X149456241Y-93203874D01*
X149456236Y-93203879D01*
X147128157Y-95531957D01*
X147061362Y-95570521D01*
X146984234Y-95570521D01*
X146917439Y-95531957D01*
X146881093Y-95472646D01*
X146827179Y-95306716D01*
X146732533Y-95142784D01*
X146732532Y-95142783D01*
X146732530Y-95142779D01*
X146605872Y-95002113D01*
X146452727Y-94890847D01*
X146279805Y-94813857D01*
X146279803Y-94813856D01*
X146173360Y-94791231D01*
X146094648Y-94774500D01*
X146094646Y-94774500D01*
X145905354Y-94774500D01*
X145905352Y-94774500D01*
X145805392Y-94795747D01*
X145720197Y-94813856D01*
X145720195Y-94813856D01*
X145720194Y-94813857D01*
X145547272Y-94890847D01*
X145394127Y-95002113D01*
X145267469Y-95142779D01*
X145172822Y-95306714D01*
X145172819Y-95306721D01*
X145114325Y-95486745D01*
X145094540Y-95675000D01*
X145114325Y-95863254D01*
X145172819Y-96043278D01*
X145172821Y-96043284D01*
X145172824Y-96043289D01*
X145232124Y-96146001D01*
X145252086Y-96220501D01*
X145232123Y-96295001D01*
X145177585Y-96349538D01*
X145103086Y-96369500D01*
X144362823Y-96369500D01*
X144355219Y-96369907D01*
X144335795Y-96370948D01*
X144335789Y-96370948D01*
X144335784Y-96370949D01*
X144324232Y-96372191D01*
X144295976Y-96375229D01*
X144242556Y-96383885D01*
X144242554Y-96383885D01*
X144242552Y-96383886D01*
X144192907Y-96402403D01*
X144107747Y-96434166D01*
X144107744Y-96434167D01*
X144046424Y-96467650D01*
X144046416Y-96467655D01*
X143931241Y-96553874D01*
X143144302Y-97340813D01*
X143126209Y-97360955D01*
X143126208Y-97360957D01*
X143110988Y-97379844D01*
X143101078Y-97392142D01*
X143069431Y-97436028D01*
X143057388Y-97462399D01*
X143008280Y-97521873D01*
X142936015Y-97548826D01*
X142921854Y-97549500D01*
X142110503Y-97549500D01*
X142093716Y-97547646D01*
X142093663Y-97548209D01*
X142084330Y-97547326D01*
X142055991Y-97548217D01*
X141980900Y-97530605D01*
X141924677Y-97477807D01*
X141902385Y-97403971D01*
X141919997Y-97328880D01*
X141945949Y-97293935D01*
X142505697Y-96734188D01*
X142509010Y-96730500D01*
X142523791Y-96714045D01*
X142523791Y-96714044D01*
X142527031Y-96710024D01*
X142548922Y-96682858D01*
X142580567Y-96638974D01*
X142640338Y-96508097D01*
X142652215Y-96467650D01*
X142660024Y-96441056D01*
X142660024Y-96441055D01*
X142660026Y-96441044D01*
X142680498Y-96298652D01*
X142680500Y-96298634D01*
X142680500Y-94837826D01*
X142679052Y-94810795D01*
X142679052Y-94810796D01*
X142679051Y-94810784D01*
X142677808Y-94799232D01*
X142674771Y-94770976D01*
X142666114Y-94717553D01*
X142617884Y-94588245D01*
X142610552Y-94511466D01*
X142642592Y-94441308D01*
X142705418Y-94396569D01*
X142782197Y-94389237D01*
X142825018Y-94405538D01*
X142825684Y-94404158D01*
X142833218Y-94407786D01*
X142833223Y-94407787D01*
X142833225Y-94407789D01*
X142987539Y-94461786D01*
X143095846Y-94473989D01*
X143149999Y-94480091D01*
X143150000Y-94480091D01*
X143150001Y-94480091D01*
X143190615Y-94475514D01*
X143312461Y-94461786D01*
X143466775Y-94407789D01*
X143605204Y-94320808D01*
X143720808Y-94205204D01*
X143807789Y-94066775D01*
X143861786Y-93912461D01*
X143880091Y-93750000D01*
X143861786Y-93587539D01*
X143807789Y-93433225D01*
X143750406Y-93341901D01*
X143723338Y-93298822D01*
X143700604Y-93225120D01*
X143700500Y-93219549D01*
X143700500Y-92809426D01*
X143702763Y-92743175D01*
X143700852Y-92735332D01*
X143692430Y-92700777D01*
X143691010Y-92693304D01*
X143685070Y-92650080D01*
X143678775Y-92635588D01*
X143670674Y-92611499D01*
X143666934Y-92596149D01*
X143645549Y-92558116D01*
X143642161Y-92551294D01*
X143624780Y-92511280D01*
X143624778Y-92511278D01*
X143623729Y-92508862D01*
X143612358Y-92432576D01*
X143640653Y-92360826D01*
X143701032Y-92312835D01*
X143760394Y-92300500D01*
X144303887Y-92300500D01*
X144378387Y-92320462D01*
X144409246Y-92344141D01*
X144597709Y-92532603D01*
X144642950Y-92581044D01*
X144680224Y-92603710D01*
X144686536Y-92608007D01*
X144721286Y-92634360D01*
X144721287Y-92634360D01*
X144721288Y-92634361D01*
X144735991Y-92640159D01*
X144758743Y-92651459D01*
X144772248Y-92659672D01*
X144814260Y-92671443D01*
X144821474Y-92673868D01*
X144862065Y-92689876D01*
X144877785Y-92691491D01*
X144902745Y-92696235D01*
X144917965Y-92700500D01*
X144961590Y-92700500D01*
X144969213Y-92700891D01*
X144978948Y-92701891D01*
X145012601Y-92705351D01*
X145025260Y-92703168D01*
X145028176Y-92702666D01*
X145053489Y-92700500D01*
X146640603Y-92700500D01*
X146706826Y-92702762D01*
X146749212Y-92692431D01*
X146756689Y-92691011D01*
X146799920Y-92685070D01*
X146814418Y-92678771D01*
X146838501Y-92670673D01*
X146853852Y-92666933D01*
X146891873Y-92645554D01*
X146898709Y-92642159D01*
X146938720Y-92624780D01*
X146950977Y-92614806D01*
X146971975Y-92600515D01*
X146985759Y-92592766D01*
X147016618Y-92561905D01*
X147022257Y-92556816D01*
X147056108Y-92529278D01*
X147065221Y-92516365D01*
X147081584Y-92496939D01*
X147467719Y-92110804D01*
X147534512Y-92072242D01*
X147556388Y-92068103D01*
X147612461Y-92061786D01*
X147750788Y-92013382D01*
X147827699Y-92007618D01*
X147849201Y-92013379D01*
X147987539Y-92061786D01*
X148095408Y-92073940D01*
X148149999Y-92080091D01*
X148150000Y-92080091D01*
X148150001Y-92080091D01*
X148168306Y-92078028D01*
X148312461Y-92061786D01*
X148466775Y-92007789D01*
X148466775Y-92007788D01*
X148471810Y-92006027D01*
X148548722Y-92000262D01*
X148605696Y-92026735D01*
X148606297Y-92025749D01*
X148652276Y-92053709D01*
X148658579Y-92057998D01*
X148693342Y-92084361D01*
X148708049Y-92090160D01*
X148730799Y-92101460D01*
X148744303Y-92109672D01*
X148744305Y-92109672D01*
X148744306Y-92109673D01*
X148786306Y-92121441D01*
X148793539Y-92123873D01*
X148834120Y-92139876D01*
X148840473Y-92140529D01*
X148849838Y-92141492D01*
X148874797Y-92146234D01*
X148890020Y-92150500D01*
X148933636Y-92150500D01*
X148941259Y-92150891D01*
X148954573Y-92152259D01*
X148984656Y-92155352D01*
X149000229Y-92152666D01*
X149025546Y-92150500D01*
X150098445Y-92150500D01*
X150164668Y-92152762D01*
X150207054Y-92142431D01*
X150214531Y-92141011D01*
X150257762Y-92135070D01*
X150272260Y-92128771D01*
X150296343Y-92120673D01*
X150311694Y-92116933D01*
X150349715Y-92095554D01*
X150356551Y-92092159D01*
X150361158Y-92090158D01*
X150396562Y-92074780D01*
X150408819Y-92064806D01*
X150429817Y-92050515D01*
X150443601Y-92042766D01*
X150474460Y-92011905D01*
X150480099Y-92006816D01*
X150513950Y-91979278D01*
X150523063Y-91966365D01*
X150539426Y-91946939D01*
X151992225Y-90494141D01*
X152059020Y-90455577D01*
X152097584Y-90450500D01*
X154070500Y-90450500D01*
X154145000Y-90470462D01*
G37*
%TD.AperFunction*%
%TA.AperFunction,Conductor*%
G36*
X142084757Y-92520462D02*
G01*
X142115616Y-92544141D01*
X142555859Y-92984384D01*
X142594423Y-93051179D01*
X142599500Y-93089743D01*
X142599500Y-93219549D01*
X142579538Y-93294049D01*
X142576662Y-93298822D01*
X142492212Y-93433222D01*
X142438213Y-93587541D01*
X142419909Y-93749999D01*
X142419909Y-93750000D01*
X142438214Y-93912460D01*
X142457215Y-93966763D01*
X142462978Y-94043676D01*
X142429513Y-94113165D01*
X142365787Y-94156613D01*
X142288874Y-94162376D01*
X142219385Y-94128911D01*
X142211217Y-94121333D01*
X142056647Y-93966763D01*
X141650420Y-93560535D01*
X141644010Y-93554349D01*
X141637420Y-93548101D01*
X141519234Y-93466043D01*
X141519231Y-93466041D01*
X141479833Y-93446320D01*
X141456755Y-93434768D01*
X141320242Y-93389331D01*
X141320240Y-93389330D01*
X141320237Y-93389330D01*
X141176455Y-93384194D01*
X141176448Y-93384194D01*
X141110935Y-93391237D01*
X141106983Y-93391662D01*
X141106972Y-93391663D01*
X141106970Y-93391663D01*
X140963980Y-93428161D01*
X140886858Y-93427244D01*
X140820526Y-93387889D01*
X140801789Y-93364353D01*
X140738874Y-93266457D01*
X140693119Y-93213653D01*
X140684619Y-93206287D01*
X140584383Y-93119431D01*
X140453510Y-93059663D01*
X140453508Y-93059662D01*
X140453503Y-93059660D01*
X140453496Y-93059658D01*
X140386467Y-93039976D01*
X140386466Y-93039975D01*
X140386455Y-93039973D01*
X140244063Y-93019501D01*
X140244051Y-93019500D01*
X140244049Y-93019500D01*
X138175304Y-93019500D01*
X138100804Y-92999538D01*
X138046266Y-92945000D01*
X138026940Y-92884248D01*
X138018769Y-92796080D01*
X137988666Y-92690276D01*
X137987478Y-92613157D01*
X138025009Y-92545776D01*
X138091202Y-92506188D01*
X138131978Y-92500500D01*
X142010257Y-92500500D01*
X142084757Y-92520462D01*
G37*
%TD.AperFunction*%
%TA.AperFunction,Conductor*%
G36*
X163755859Y-88069743D02*
G01*
X163794423Y-88136538D01*
X163799500Y-88175102D01*
X163799500Y-90799898D01*
X163779538Y-90874398D01*
X163725000Y-90928936D01*
X163650500Y-90948898D01*
X163576000Y-90928936D01*
X163545141Y-90905257D01*
X163496346Y-90856462D01*
X163218850Y-90578965D01*
X163193012Y-90556414D01*
X163193007Y-90556410D01*
X163193007Y-90556409D01*
X163154220Y-90526939D01*
X163152653Y-90525748D01*
X163152651Y-90525746D01*
X163095397Y-90488078D01*
X162961319Y-90435877D01*
X162908344Y-90423559D01*
X162899802Y-90420614D01*
X162893264Y-90420052D01*
X162749911Y-90407741D01*
X162749910Y-90407741D01*
X162749909Y-90407741D01*
X162608897Y-90436315D01*
X162608888Y-90436317D01*
X162543088Y-90459795D01*
X162415838Y-90526939D01*
X162336252Y-90584761D01*
X162309276Y-90600336D01*
X162262043Y-90621365D01*
X162232423Y-90630989D01*
X162181836Y-90641743D01*
X162150853Y-90645000D01*
X162099144Y-90645000D01*
X162068167Y-90641744D01*
X162017580Y-90630991D01*
X161987956Y-90621366D01*
X161940718Y-90600334D01*
X161913748Y-90584763D01*
X161847178Y-90536398D01*
X161842718Y-90532891D01*
X161835715Y-90526939D01*
X161815214Y-90509513D01*
X161815209Y-90509509D01*
X161815208Y-90509508D01*
X161761138Y-90469432D01*
X161630263Y-90409663D01*
X161630261Y-90409662D01*
X161630256Y-90409660D01*
X161630249Y-90409658D01*
X161563220Y-90389976D01*
X161563219Y-90389975D01*
X161563213Y-90389974D01*
X161562068Y-90389810D01*
X161561808Y-90389698D01*
X161559482Y-90389242D01*
X161559519Y-90389051D01*
X161559521Y-90389041D01*
X161559579Y-90388744D01*
X161491167Y-90359448D01*
X161444947Y-90297704D01*
X161435791Y-90221121D01*
X161466153Y-90150220D01*
X161477906Y-90136977D01*
X163545143Y-88069741D01*
X163611936Y-88031179D01*
X163689064Y-88031179D01*
X163755859Y-88069743D01*
G37*
%TD.AperFunction*%
%TA.AperFunction,Conductor*%
G36*
X138046365Y-82320462D02*
G01*
X138100903Y-82375000D01*
X138120865Y-82449500D01*
X138120083Y-82464742D01*
X138119648Y-82468971D01*
X138119648Y-82468972D01*
X138122333Y-82484544D01*
X138124500Y-82509862D01*
X138124500Y-86585256D01*
X138104538Y-86659756D01*
X138080859Y-86690615D01*
X137317382Y-87454092D01*
X137268956Y-87499319D01*
X137246294Y-87536583D01*
X137242002Y-87542891D01*
X137215639Y-87577657D01*
X137215638Y-87577657D01*
X137209837Y-87592368D01*
X137198543Y-87615108D01*
X137190326Y-87628621D01*
X137190325Y-87628623D01*
X137178557Y-87670622D01*
X137176126Y-87677853D01*
X137160125Y-87718429D01*
X137160123Y-87718437D01*
X137158506Y-87734163D01*
X137153766Y-87759105D01*
X137149500Y-87774334D01*
X137149500Y-87817952D01*
X137149109Y-87825575D01*
X137144648Y-87868972D01*
X137147333Y-87884544D01*
X137149500Y-87909862D01*
X137149500Y-88668217D01*
X137129538Y-88742717D01*
X137079774Y-88794378D01*
X136944798Y-88879190D01*
X136829192Y-88994796D01*
X136750067Y-89120723D01*
X136742211Y-89133225D01*
X136699300Y-89255859D01*
X136688214Y-89287540D01*
X136685170Y-89314551D01*
X136656989Y-89386347D01*
X136596687Y-89434434D01*
X136520420Y-89445927D01*
X136448624Y-89417746D01*
X136431748Y-89403223D01*
X134620906Y-87592381D01*
X134575679Y-87543955D01*
X134575675Y-87543952D01*
X134538411Y-87521291D01*
X134532102Y-87516997D01*
X134497339Y-87490637D01*
X134482632Y-87484837D01*
X134459884Y-87473538D01*
X134446383Y-87465328D01*
X134446379Y-87465326D01*
X134406282Y-87454092D01*
X134404367Y-87453555D01*
X134397139Y-87451124D01*
X134356562Y-87435123D01*
X134356563Y-87435123D01*
X134340843Y-87433507D01*
X134315888Y-87428765D01*
X134300666Y-87424500D01*
X134300665Y-87424500D01*
X134257048Y-87424500D01*
X134249425Y-87424109D01*
X134214207Y-87420488D01*
X134206028Y-87419648D01*
X134206027Y-87419648D01*
X134196691Y-87421257D01*
X134190454Y-87422333D01*
X134165138Y-87424500D01*
X133269276Y-87424500D01*
X133194776Y-87404538D01*
X133163917Y-87380859D01*
X132818313Y-87035254D01*
X132783033Y-86979107D01*
X132765567Y-86929193D01*
X132731555Y-86831991D01*
X132731554Y-86831990D01*
X132731553Y-86831986D01*
X132713730Y-86803621D01*
X132690996Y-86729920D01*
X132708159Y-86654725D01*
X132734530Y-86618993D01*
X137009384Y-82344141D01*
X137076179Y-82305577D01*
X137114743Y-82300500D01*
X137971865Y-82300500D01*
X138046365Y-82320462D01*
G37*
%TD.AperFunction*%
%TA.AperFunction,Conductor*%
G36*
X139902149Y-82372878D02*
G01*
X139937886Y-82399253D01*
X140005859Y-82467226D01*
X140044423Y-82534021D01*
X140049500Y-82572585D01*
X140049500Y-82969549D01*
X140029538Y-83044049D01*
X140026662Y-83048822D01*
X139942212Y-83183222D01*
X139888213Y-83337541D01*
X139869909Y-83499999D01*
X139869909Y-83500000D01*
X139888213Y-83662458D01*
X139888213Y-83662460D01*
X139888214Y-83662461D01*
X139942211Y-83816775D01*
X140029192Y-83955204D01*
X140144796Y-84070808D01*
X140283225Y-84157789D01*
X140437539Y-84211786D01*
X140545846Y-84223989D01*
X140599999Y-84230091D01*
X140600000Y-84230091D01*
X140600001Y-84230091D01*
X140618306Y-84228028D01*
X140762461Y-84211786D01*
X140916775Y-84157789D01*
X140916776Y-84157788D01*
X140924010Y-84155257D01*
X141000922Y-84149492D01*
X141022434Y-84155257D01*
X141060301Y-84168507D01*
X141112539Y-84186786D01*
X141254369Y-84202766D01*
X141274999Y-84205091D01*
X141275000Y-84205091D01*
X141275001Y-84205091D01*
X141315615Y-84200514D01*
X141437461Y-84186786D01*
X141591775Y-84132789D01*
X141730204Y-84045808D01*
X141845808Y-83930204D01*
X141932789Y-83791775D01*
X141986786Y-83637461D01*
X142001393Y-83507816D01*
X142029571Y-83436021D01*
X142089872Y-83387932D01*
X142149456Y-83375500D01*
X149703307Y-83375500D01*
X149777807Y-83395462D01*
X149832345Y-83450000D01*
X149843945Y-83475287D01*
X149867210Y-83541774D01*
X149877273Y-83557789D01*
X149954192Y-83680204D01*
X149954193Y-83680205D01*
X149988520Y-83714532D01*
X150027084Y-83781327D01*
X150027084Y-83858455D01*
X150005786Y-83904532D01*
X149994779Y-83920478D01*
X149938763Y-84068181D01*
X149919722Y-84225000D01*
X149938763Y-84381820D01*
X149994779Y-84529522D01*
X150037109Y-84590847D01*
X150084517Y-84659530D01*
X150202760Y-84764283D01*
X150313771Y-84822547D01*
X150349884Y-84849119D01*
X150785244Y-85284479D01*
X150823808Y-85351274D01*
X150823808Y-85428402D01*
X150785244Y-85495197D01*
X150718449Y-85533761D01*
X150641321Y-85533761D01*
X150619281Y-85525956D01*
X150479805Y-85463857D01*
X150479803Y-85463856D01*
X150373360Y-85441231D01*
X150294648Y-85424500D01*
X150294646Y-85424500D01*
X150105354Y-85424500D01*
X150105352Y-85424500D01*
X150017772Y-85443116D01*
X149920197Y-85463856D01*
X149920195Y-85463856D01*
X149920194Y-85463857D01*
X149747270Y-85540848D01*
X149656139Y-85607058D01*
X149584133Y-85634698D01*
X149507955Y-85622632D01*
X149448016Y-85574093D01*
X149420376Y-85502087D01*
X149420376Y-85470945D01*
X149430460Y-85375000D01*
X149410674Y-85186744D01*
X149352179Y-85006716D01*
X149257533Y-84842784D01*
X149257532Y-84842783D01*
X149257530Y-84842779D01*
X149130872Y-84702113D01*
X149099325Y-84679193D01*
X148977730Y-84590849D01*
X148977729Y-84590848D01*
X148977727Y-84590847D01*
X148804805Y-84513857D01*
X148804803Y-84513856D01*
X148698360Y-84491231D01*
X148619648Y-84474500D01*
X148619646Y-84474500D01*
X148430354Y-84474500D01*
X148430352Y-84474500D01*
X148330392Y-84495747D01*
X148245197Y-84513856D01*
X148245195Y-84513856D01*
X148245194Y-84513857D01*
X148072272Y-84590847D01*
X147919127Y-84702113D01*
X147792469Y-84842779D01*
X147697822Y-85006714D01*
X147697819Y-85006721D01*
X147639325Y-85186745D01*
X147619540Y-85375000D01*
X147639325Y-85563254D01*
X147662539Y-85634698D01*
X147697821Y-85743284D01*
X147720880Y-85783223D01*
X147792469Y-85907220D01*
X147919127Y-86047886D01*
X147919129Y-86047888D01*
X148072270Y-86159151D01*
X148245197Y-86236144D01*
X148386315Y-86266139D01*
X148430352Y-86275500D01*
X148430354Y-86275500D01*
X148619648Y-86275500D01*
X148659004Y-86267134D01*
X148804803Y-86236144D01*
X148977730Y-86159151D01*
X149068859Y-86092941D01*
X149140864Y-86065301D01*
X149217042Y-86077367D01*
X149276982Y-86125905D01*
X149304623Y-86197910D01*
X149304623Y-86229058D01*
X149294540Y-86324999D01*
X149314325Y-86513254D01*
X149318142Y-86525000D01*
X149372821Y-86693284D01*
X149392991Y-86728219D01*
X149467469Y-86857220D01*
X149594127Y-86997886D01*
X149594129Y-86997888D01*
X149747270Y-87109151D01*
X149919881Y-87186003D01*
X149979821Y-87234541D01*
X150000983Y-87276076D01*
X150022821Y-87343284D01*
X150022822Y-87343285D01*
X150117469Y-87507220D01*
X150244127Y-87647886D01*
X150244129Y-87647888D01*
X150397270Y-87759151D01*
X150570197Y-87836144D01*
X150701128Y-87863974D01*
X150755352Y-87875500D01*
X150755354Y-87875500D01*
X150944648Y-87875500D01*
X150984004Y-87867134D01*
X151129803Y-87836144D01*
X151302730Y-87759151D01*
X151391330Y-87694779D01*
X151463330Y-87667139D01*
X151509878Y-87669578D01*
X151628448Y-87694781D01*
X151655353Y-87700500D01*
X151655354Y-87700500D01*
X151844648Y-87700500D01*
X151884004Y-87692134D01*
X152029803Y-87661144D01*
X152202730Y-87584151D01*
X152355871Y-87472888D01*
X152438735Y-87380859D01*
X152482530Y-87332220D01*
X152482531Y-87332218D01*
X152482533Y-87332216D01*
X152513716Y-87278204D01*
X152568253Y-87223668D01*
X152642752Y-87203706D01*
X152717253Y-87223668D01*
X152748112Y-87247347D01*
X154195906Y-88695141D01*
X154234470Y-88761936D01*
X154234470Y-88839064D01*
X154195906Y-88905859D01*
X154129111Y-88944423D01*
X154090547Y-88949500D01*
X151634414Y-88949500D01*
X151568170Y-88947236D01*
X151525795Y-88957564D01*
X151518296Y-88958989D01*
X151475084Y-88964928D01*
X151475077Y-88964930D01*
X151460573Y-88971230D01*
X151436506Y-88979323D01*
X151421153Y-88983065D01*
X151421144Y-88983068D01*
X151383120Y-89004447D01*
X151376288Y-89007841D01*
X151336278Y-89025221D01*
X151324017Y-89035196D01*
X151303018Y-89049487D01*
X151289243Y-89057232D01*
X151258399Y-89088075D01*
X151252735Y-89093186D01*
X151218893Y-89120720D01*
X151218890Y-89120723D01*
X151209774Y-89133637D01*
X151193411Y-89153062D01*
X151090617Y-89255858D01*
X151023822Y-89294423D01*
X150985257Y-89299500D01*
X141139743Y-89299500D01*
X141065243Y-89279538D01*
X141034384Y-89255859D01*
X140908384Y-89129859D01*
X140869820Y-89063064D01*
X140869820Y-88985936D01*
X140908384Y-88919141D01*
X140975179Y-88880577D01*
X141013743Y-88875500D01*
X141019148Y-88875500D01*
X141058504Y-88867134D01*
X141204303Y-88836144D01*
X141377230Y-88759151D01*
X141530371Y-88647888D01*
X141602695Y-88567563D01*
X141657030Y-88507220D01*
X141657031Y-88507218D01*
X141657033Y-88507216D01*
X141751679Y-88343284D01*
X141810174Y-88163256D01*
X141829960Y-87975000D01*
X141810174Y-87786744D01*
X141751679Y-87606716D01*
X141657033Y-87442784D01*
X141657032Y-87442783D01*
X141657030Y-87442779D01*
X141530372Y-87302113D01*
X141494536Y-87276077D01*
X141377230Y-87190849D01*
X141377229Y-87190848D01*
X141377227Y-87190847D01*
X141204305Y-87113857D01*
X141204303Y-87113856D01*
X141097860Y-87091231D01*
X141019148Y-87074500D01*
X141019146Y-87074500D01*
X140829854Y-87074500D01*
X140829852Y-87074500D01*
X140729892Y-87095747D01*
X140644697Y-87113856D01*
X140644695Y-87113856D01*
X140644694Y-87113857D01*
X140471773Y-87190847D01*
X140422761Y-87226456D01*
X140350755Y-87254095D01*
X140274577Y-87242029D01*
X140214637Y-87193490D01*
X140209020Y-87185184D01*
X140164201Y-87113856D01*
X140120808Y-87044796D01*
X140005204Y-86929192D01*
X139866775Y-86842211D01*
X139712461Y-86788214D01*
X139712460Y-86788213D01*
X139712458Y-86788213D01*
X139550001Y-86769909D01*
X139549998Y-86769909D01*
X139391182Y-86787803D01*
X139314916Y-86776308D01*
X139254615Y-86728219D01*
X139226437Y-86656422D01*
X139225500Y-86639740D01*
X139225500Y-82739741D01*
X139245462Y-82665241D01*
X139269141Y-82634383D01*
X139367716Y-82535807D01*
X139434510Y-82497242D01*
X139456386Y-82493103D01*
X139512461Y-82486786D01*
X139666775Y-82432789D01*
X139753253Y-82378450D01*
X139826955Y-82355716D01*
X139902149Y-82372878D01*
G37*
%TD.AperFunction*%
%TA.AperFunction,Conductor*%
G36*
X153846513Y-82332218D02*
G01*
X153877372Y-82355897D01*
X155630859Y-84109384D01*
X155669423Y-84176179D01*
X155674500Y-84214743D01*
X155674500Y-84865602D01*
X155672237Y-84931826D01*
X155682565Y-84974207D01*
X155683990Y-84981705D01*
X155689930Y-85024918D01*
X155689930Y-85024919D01*
X155696226Y-85039414D01*
X155704324Y-85063495D01*
X155708065Y-85078846D01*
X155708066Y-85078848D01*
X155708067Y-85078852D01*
X155720551Y-85101056D01*
X155729442Y-85116869D01*
X155732836Y-85123702D01*
X155750217Y-85163714D01*
X155750221Y-85163721D01*
X155760191Y-85175976D01*
X155774484Y-85196977D01*
X155782233Y-85210758D01*
X155813081Y-85241606D01*
X155818195Y-85247273D01*
X155845721Y-85281107D01*
X155858631Y-85290220D01*
X155878065Y-85306590D01*
X156256228Y-85684753D01*
X156294792Y-85751548D01*
X156294792Y-85828676D01*
X156256228Y-85895471D01*
X156230142Y-85916274D01*
X156169796Y-85954192D01*
X156054192Y-86069796D01*
X156035214Y-86100000D01*
X155967211Y-86208225D01*
X155957442Y-86236144D01*
X155913213Y-86362541D01*
X155894909Y-86524999D01*
X155894909Y-86525000D01*
X155913214Y-86687463D01*
X155915076Y-86695620D01*
X155913757Y-86695920D01*
X155918860Y-86764050D01*
X155885392Y-86833538D01*
X155821663Y-86876982D01*
X155744750Y-86882742D01*
X155723248Y-86876980D01*
X155666765Y-86857216D01*
X155612461Y-86838214D01*
X155520798Y-86827886D01*
X155450001Y-86819909D01*
X155449999Y-86819909D01*
X155287541Y-86838213D01*
X155133222Y-86892212D01*
X155103338Y-86910989D01*
X155029636Y-86933721D01*
X154954442Y-86916557D01*
X154918709Y-86890184D01*
X151519291Y-83490766D01*
X151480727Y-83423971D01*
X151480727Y-83346843D01*
X151519291Y-83280048D01*
X151528331Y-83271970D01*
X151529951Y-83270349D01*
X151529954Y-83270348D01*
X151645558Y-83154744D01*
X151732539Y-83016315D01*
X151746840Y-82975441D01*
X151790284Y-82911719D01*
X151838273Y-82884014D01*
X151841775Y-82882789D01*
X151980204Y-82795808D01*
X152095808Y-82680204D01*
X152182789Y-82541775D01*
X152192640Y-82513621D01*
X152236084Y-82449898D01*
X152284070Y-82422193D01*
X152291641Y-82419545D01*
X152426044Y-82335093D01*
X152499744Y-82312360D01*
X152505316Y-82312256D01*
X153772013Y-82312256D01*
X153846513Y-82332218D01*
G37*
%TD.AperFunction*%
%TA.AperFunction,Conductor*%
G36*
X151953398Y-77975462D02*
G01*
X151984256Y-77999140D01*
X152848036Y-78862921D01*
X153710615Y-79725500D01*
X153710616Y-79725501D01*
X153735493Y-79747319D01*
X153735492Y-79747318D01*
X153735500Y-79747324D01*
X153735501Y-79747325D01*
X153779489Y-79781078D01*
X153824123Y-79811676D01*
X153956386Y-79868314D01*
X154030886Y-79888276D01*
X154161718Y-79905500D01*
X159834811Y-79905500D01*
X159909311Y-79925462D01*
X159913489Y-79927966D01*
X159914955Y-79928877D01*
X159914963Y-79928883D01*
X159951591Y-79949396D01*
X159995663Y-79974078D01*
X159995665Y-79974079D01*
X159995676Y-79974085D01*
X160109280Y-80024665D01*
X160136250Y-80040237D01*
X160178098Y-80070641D01*
X160201247Y-80091484D01*
X160235837Y-80129900D01*
X160254146Y-80155099D01*
X160280009Y-80199894D01*
X160292675Y-80228345D01*
X160300449Y-80252267D01*
X160308656Y-80277527D01*
X160315132Y-80307993D01*
X160320538Y-80359423D01*
X160320538Y-80390573D01*
X160315133Y-80442001D01*
X160308657Y-80472470D01*
X160276535Y-80571334D01*
X160276534Y-80571335D01*
X160276534Y-80571334D01*
X160264310Y-80622254D01*
X160258017Y-80648464D01*
X160250724Y-80694508D01*
X160246863Y-80743573D01*
X160244500Y-80773591D01*
X160244500Y-81144714D01*
X160247339Y-81166284D01*
X160247097Y-81206925D01*
X160244501Y-81224982D01*
X160244500Y-81225005D01*
X160244500Y-83953895D01*
X160224538Y-84028395D01*
X160200859Y-84059254D01*
X158393535Y-85866577D01*
X158326740Y-85905141D01*
X158249612Y-85905141D01*
X158223529Y-85895463D01*
X158216781Y-85892213D01*
X158062458Y-85838213D01*
X158006392Y-85831896D01*
X157934595Y-85803717D01*
X157917717Y-85789192D01*
X156819141Y-84690616D01*
X156780577Y-84623821D01*
X156775500Y-84585257D01*
X156775500Y-83934397D01*
X156777762Y-83868174D01*
X156767436Y-83825803D01*
X156766010Y-83818301D01*
X156763583Y-83800644D01*
X156760070Y-83775080D01*
X156753772Y-83760581D01*
X156745672Y-83736493D01*
X156741934Y-83721153D01*
X156741933Y-83721148D01*
X156738213Y-83714532D01*
X156720551Y-83683118D01*
X156717156Y-83676282D01*
X156699781Y-83636282D01*
X156699780Y-83636281D01*
X156699780Y-83636280D01*
X156689807Y-83624022D01*
X156675512Y-83603018D01*
X156673534Y-83599500D01*
X156667766Y-83589241D01*
X156636917Y-83558392D01*
X156631803Y-83552725D01*
X156604278Y-83518892D01*
X156591365Y-83509777D01*
X156571934Y-83493409D01*
X154457662Y-81379137D01*
X154412435Y-81330711D01*
X154412431Y-81330708D01*
X154375167Y-81308047D01*
X154368858Y-81303753D01*
X154334095Y-81277393D01*
X154319388Y-81271593D01*
X154296640Y-81260294D01*
X154283139Y-81252084D01*
X154283135Y-81252082D01*
X154248821Y-81242468D01*
X154241123Y-81240311D01*
X154233895Y-81237880D01*
X154193318Y-81221879D01*
X154193319Y-81221879D01*
X154177599Y-81220263D01*
X154152644Y-81215521D01*
X154137422Y-81211256D01*
X154137421Y-81211256D01*
X154093804Y-81211256D01*
X154086181Y-81210865D01*
X154050963Y-81207244D01*
X154042784Y-81206404D01*
X154042783Y-81206404D01*
X154039762Y-81206925D01*
X154027210Y-81209089D01*
X154001894Y-81211256D01*
X152505316Y-81211256D01*
X152430816Y-81191294D01*
X152426056Y-81188425D01*
X152291641Y-81103967D01*
X152291638Y-81103965D01*
X152291639Y-81103965D01*
X152217546Y-81078039D01*
X152153820Y-81034591D01*
X152120355Y-80965101D01*
X152126120Y-80888189D01*
X152140597Y-80858127D01*
X152161551Y-80824780D01*
X152182289Y-80791775D01*
X152236286Y-80637461D01*
X152254591Y-80475000D01*
X152236286Y-80312539D01*
X152182289Y-80158225D01*
X152095308Y-80019796D01*
X151979704Y-79904192D01*
X151841275Y-79817211D01*
X151686961Y-79763214D01*
X151686960Y-79763213D01*
X151686958Y-79763213D01*
X151524501Y-79744909D01*
X151524499Y-79744909D01*
X151362041Y-79763213D01*
X151310987Y-79781078D01*
X151207725Y-79817211D01*
X151073321Y-79901662D01*
X150999622Y-79924396D01*
X150994050Y-79924500D01*
X150485470Y-79924500D01*
X150410970Y-79904538D01*
X150356432Y-79850000D01*
X150336470Y-79775500D01*
X150337286Y-79759926D01*
X150340904Y-79725500D01*
X150355460Y-79587008D01*
X150335674Y-79398752D01*
X150277179Y-79218724D01*
X150222215Y-79123524D01*
X150202254Y-79049026D01*
X150222216Y-78974526D01*
X150276754Y-78919988D01*
X150351254Y-78900026D01*
X150411858Y-78912908D01*
X150421067Y-78917008D01*
X150520197Y-78961144D01*
X150661315Y-78991139D01*
X150705352Y-79000500D01*
X150705354Y-79000500D01*
X150894648Y-79000500D01*
X150934004Y-78992134D01*
X151079803Y-78961144D01*
X151252730Y-78884151D01*
X151405871Y-78772888D01*
X151483648Y-78686508D01*
X151532530Y-78632220D01*
X151532531Y-78632218D01*
X151532533Y-78632216D01*
X151627179Y-78468284D01*
X151685674Y-78288256D01*
X151705460Y-78100000D01*
X151705459Y-78099999D01*
X151706276Y-78092235D01*
X151708678Y-78092487D01*
X151725422Y-78030000D01*
X151779960Y-77975462D01*
X151854460Y-77955500D01*
X151878898Y-77955500D01*
X151953398Y-77975462D01*
G37*
%TD.AperFunction*%
%TA.AperFunction,Conductor*%
G36*
X133533074Y-79008980D02*
G01*
X133612533Y-79036784D01*
X133612539Y-79036786D01*
X133636875Y-79039528D01*
X133708667Y-79067703D01*
X133756757Y-79128003D01*
X133768255Y-79204269D01*
X133741919Y-79273516D01*
X133734779Y-79283631D01*
X133718410Y-79303064D01*
X133467383Y-79554091D01*
X133418956Y-79599319D01*
X133396293Y-79636586D01*
X133391999Y-79642894D01*
X133376823Y-79662907D01*
X133370132Y-79670581D01*
X133184682Y-79856030D01*
X133168888Y-79868438D01*
X133169178Y-79868794D01*
X133149013Y-79885198D01*
X133128020Y-79899486D01*
X133114242Y-79907233D01*
X133114237Y-79907237D01*
X133083405Y-79938070D01*
X133077741Y-79943182D01*
X133043891Y-79970722D01*
X133034777Y-79983634D01*
X133018409Y-80003065D01*
X131629859Y-81391616D01*
X131563064Y-81430180D01*
X131485936Y-81430180D01*
X131419141Y-81391616D01*
X131380577Y-81324821D01*
X131375500Y-81286257D01*
X131375500Y-81108981D01*
X131395462Y-81034481D01*
X131419137Y-81003626D01*
X133378505Y-79044257D01*
X133445298Y-79005695D01*
X133522426Y-79005695D01*
X133533074Y-79008980D01*
G37*
%TD.AperFunction*%
%TA.AperFunction,Conductor*%
G36*
X159494602Y-69483996D02*
G01*
X159694966Y-69493260D01*
X159701221Y-69493815D01*
X159901571Y-69520192D01*
X160095578Y-69547255D01*
X160101345Y-69548295D01*
X160299710Y-69592271D01*
X160489661Y-69636948D01*
X160494977Y-69638408D01*
X160622788Y-69678707D01*
X160689219Y-69699653D01*
X160722180Y-69710700D01*
X160874134Y-69761629D01*
X160878906Y-69763415D01*
X161067446Y-69841511D01*
X161245794Y-69920260D01*
X161250060Y-69922310D01*
X161431369Y-70016693D01*
X161601681Y-70111557D01*
X161605458Y-70113810D01*
X161691522Y-70168637D01*
X161778059Y-70223768D01*
X161939014Y-70334024D01*
X161942239Y-70336364D01*
X162104780Y-70461086D01*
X162255012Y-70585837D01*
X162257715Y-70588196D01*
X162408911Y-70726741D01*
X162548258Y-70866088D01*
X162686798Y-71017278D01*
X162689175Y-71020002D01*
X162813912Y-71170217D01*
X162938634Y-71332759D01*
X162940984Y-71335998D01*
X163051229Y-71496936D01*
X163087109Y-71553256D01*
X163161188Y-71669540D01*
X163163440Y-71673316D01*
X163258309Y-71843636D01*
X163352688Y-72024938D01*
X163354751Y-72029231D01*
X163433492Y-72207564D01*
X163492347Y-72349652D01*
X163511574Y-72396070D01*
X163513384Y-72400906D01*
X163575346Y-72585780D01*
X163636583Y-72779999D01*
X163638052Y-72785346D01*
X163682737Y-72975331D01*
X163726697Y-73173622D01*
X163727749Y-73179456D01*
X163754816Y-73373495D01*
X163781181Y-73573758D01*
X163781739Y-73580044D01*
X163791009Y-73780535D01*
X163799500Y-73975000D01*
X163799500Y-78649897D01*
X163779538Y-78724397D01*
X163725000Y-78778935D01*
X163650500Y-78798897D01*
X163576000Y-78778935D01*
X163545141Y-78755256D01*
X162114384Y-77324499D01*
X162089507Y-77302681D01*
X162089508Y-77302682D01*
X162045512Y-77268923D01*
X162000877Y-77238324D01*
X161868617Y-77181687D01*
X161868602Y-77181682D01*
X161794119Y-77161725D01*
X161794098Y-77161721D01*
X161663287Y-77144500D01*
X161663282Y-77144500D01*
X161163750Y-77144500D01*
X161089250Y-77124538D01*
X161034712Y-77070000D01*
X161014750Y-76995500D01*
X161034712Y-76921000D01*
X161086932Y-76867828D01*
X161210838Y-76793275D01*
X161504352Y-76570151D01*
X161523479Y-76552032D01*
X160206879Y-75235432D01*
X160234180Y-75218168D01*
X160421501Y-75052216D01*
X160560511Y-74881958D01*
X161874501Y-76195948D01*
X162010690Y-76035617D01*
X162010694Y-76035611D01*
X162217592Y-75730461D01*
X162217595Y-75730456D01*
X162390284Y-75404728D01*
X162390290Y-75404715D01*
X162526750Y-75062226D01*
X162526752Y-75062221D01*
X162625386Y-74706976D01*
X162625386Y-74706974D01*
X162685034Y-74343142D01*
X162685034Y-74343136D01*
X162704994Y-73975000D01*
X162704994Y-73974991D01*
X162685034Y-73606863D01*
X162685034Y-73606857D01*
X162625386Y-73243025D01*
X162625386Y-73243023D01*
X162526752Y-72887778D01*
X162526750Y-72887773D01*
X162390290Y-72545284D01*
X162390284Y-72545271D01*
X162217595Y-72219543D01*
X162217592Y-72219538D01*
X162010696Y-71914391D01*
X162010687Y-71914379D01*
X161874502Y-71754050D01*
X161874501Y-71754050D01*
X160558648Y-73069903D01*
X160504544Y-72991520D01*
X160331184Y-72811034D01*
X160205132Y-72716312D01*
X161523479Y-71397966D01*
X161504347Y-71379844D01*
X161210834Y-71156721D01*
X160894933Y-70966649D01*
X160560315Y-70811839D01*
X160560305Y-70811834D01*
X160210936Y-70694119D01*
X159850868Y-70614862D01*
X159484343Y-70575000D01*
X159115656Y-70575000D01*
X158749131Y-70614862D01*
X158749130Y-70614862D01*
X158389063Y-70694119D01*
X158039694Y-70811834D01*
X158039684Y-70811839D01*
X157705066Y-70966649D01*
X157389165Y-71156721D01*
X157095663Y-71379835D01*
X157076520Y-71397967D01*
X158393120Y-72714567D01*
X158365820Y-72731832D01*
X158178499Y-72897784D01*
X158039488Y-73068041D01*
X156725497Y-71754050D01*
X156725496Y-71754050D01*
X156589308Y-71914383D01*
X156589306Y-71914386D01*
X156382402Y-72219547D01*
X156209715Y-72545271D01*
X156209709Y-72545284D01*
X156073249Y-72887773D01*
X156073247Y-72887778D01*
X155974613Y-73243023D01*
X155974613Y-73243025D01*
X155914965Y-73606857D01*
X155914965Y-73606863D01*
X155895006Y-73974991D01*
X155895006Y-73975000D01*
X155914965Y-74343136D01*
X155914965Y-74343142D01*
X155974613Y-74706974D01*
X155974613Y-74706976D01*
X156073247Y-75062221D01*
X156073249Y-75062226D01*
X156209709Y-75404715D01*
X156209715Y-75404728D01*
X156382404Y-75730456D01*
X156382407Y-75730461D01*
X156589303Y-76035608D01*
X156589312Y-76035620D01*
X156725496Y-76195948D01*
X156725497Y-76195948D01*
X158041350Y-74880094D01*
X158095456Y-74958480D01*
X158268816Y-75138966D01*
X158394865Y-75233686D01*
X157076520Y-76552031D01*
X157095657Y-76570159D01*
X157095658Y-76570160D01*
X157389161Y-76793275D01*
X157513068Y-76867828D01*
X157566612Y-76923342D01*
X157585226Y-76998190D01*
X157563922Y-77072318D01*
X157508408Y-77125862D01*
X157436250Y-77144500D01*
X156546102Y-77144500D01*
X156471602Y-77124538D01*
X156440743Y-77100859D01*
X155474141Y-76134257D01*
X155435577Y-76067462D01*
X155430500Y-76028898D01*
X155430500Y-70270177D01*
X155428335Y-70237144D01*
X155421098Y-70182174D01*
X155421097Y-70182169D01*
X155421098Y-70182170D01*
X155417603Y-70163441D01*
X155411174Y-70128978D01*
X155357699Y-69995405D01*
X155319135Y-69928610D01*
X155319133Y-69928607D01*
X155319132Y-69928605D01*
X155238800Y-69823916D01*
X155144743Y-69729859D01*
X155106179Y-69663064D01*
X155106179Y-69585936D01*
X155144743Y-69519141D01*
X155211538Y-69480577D01*
X155250102Y-69475500D01*
X159299500Y-69475500D01*
X159300000Y-69475500D01*
X159494602Y-69483996D01*
G37*
%TD.AperFunction*%
%TD*%
%TA.AperFunction,Conductor*%
%TO.N,Vmot*%
G36*
X141835594Y-69744962D02*
G01*
X141890132Y-69799500D01*
X141910094Y-69874000D01*
X141901733Y-69923211D01*
X141863686Y-70031942D01*
X141863686Y-70031943D01*
X141844751Y-70199999D01*
X141844751Y-70200000D01*
X141863686Y-70368056D01*
X141919544Y-70527690D01*
X141999788Y-70655397D01*
X142022522Y-70729098D01*
X142005359Y-70804293D01*
X141952899Y-70860832D01*
X141944542Y-70865711D01*
X141845099Y-70919527D01*
X141665206Y-71059543D01*
X141510821Y-71227250D01*
X141510819Y-71227252D01*
X141510817Y-71227255D01*
X141446730Y-71325347D01*
X141386136Y-71418093D01*
X141294570Y-71626843D01*
X141238609Y-71847828D01*
X141219786Y-72074998D01*
X141219786Y-72075001D01*
X141238609Y-72302171D01*
X141294570Y-72523156D01*
X141386136Y-72731906D01*
X141386138Y-72731909D01*
X141510817Y-72922745D01*
X141665206Y-73090456D01*
X141845094Y-73230469D01*
X141894069Y-73256973D01*
X141950089Y-73309988D01*
X141972096Y-73383909D01*
X141954195Y-73458931D01*
X141901275Y-73514893D01*
X141779125Y-73590103D01*
X141603360Y-73744795D01*
X141456267Y-73926966D01*
X141342075Y-74131378D01*
X141342074Y-74131380D01*
X141264070Y-74352153D01*
X141238070Y-74503788D01*
X141224500Y-74582928D01*
X141224500Y-75008428D01*
X141239384Y-75183301D01*
X141298382Y-75409887D01*
X141298385Y-75409895D01*
X141394826Y-75623247D01*
X141525939Y-75817236D01*
X141525941Y-75817238D01*
X141525943Y-75817241D01*
X141687956Y-75986283D01*
X141876208Y-76125513D01*
X142085282Y-76230926D01*
X142309163Y-76299489D01*
X142541411Y-76329229D01*
X142775345Y-76319292D01*
X143004234Y-76269962D01*
X143221494Y-76182660D01*
X143420875Y-76059896D01*
X143596641Y-75905203D01*
X143736132Y-75732445D01*
X143798463Y-75687025D01*
X143875157Y-75678853D01*
X143945661Y-75710124D01*
X143975505Y-75742616D01*
X144025939Y-75817236D01*
X144025941Y-75817238D01*
X144025943Y-75817241D01*
X144187956Y-75986283D01*
X144376208Y-76125513D01*
X144585282Y-76230926D01*
X144809163Y-76299489D01*
X145041411Y-76329229D01*
X145275345Y-76319292D01*
X145504234Y-76269962D01*
X145721494Y-76182660D01*
X145920875Y-76059896D01*
X146096641Y-75905203D01*
X146236132Y-75732445D01*
X146298463Y-75687025D01*
X146375157Y-75678853D01*
X146445661Y-75710124D01*
X146475505Y-75742616D01*
X146525939Y-75817236D01*
X146525941Y-75817238D01*
X146525943Y-75817241D01*
X146687956Y-75986283D01*
X146876208Y-76125513D01*
X147085282Y-76230926D01*
X147309163Y-76299489D01*
X147541411Y-76329229D01*
X147775345Y-76319292D01*
X148004234Y-76269962D01*
X148221494Y-76182660D01*
X148420875Y-76059896D01*
X148596641Y-75905203D01*
X148736132Y-75732445D01*
X148798463Y-75687025D01*
X148875157Y-75678853D01*
X148945661Y-75710124D01*
X148975505Y-75742616D01*
X149025939Y-75817236D01*
X149025941Y-75817238D01*
X149025943Y-75817241D01*
X149187956Y-75986283D01*
X149376208Y-76125513D01*
X149585282Y-76230926D01*
X149809163Y-76299489D01*
X150041411Y-76329229D01*
X150275345Y-76319292D01*
X150504234Y-76269962D01*
X150721494Y-76182660D01*
X150920875Y-76059896D01*
X151096641Y-75905203D01*
X151243735Y-75723030D01*
X151357926Y-75518619D01*
X151435929Y-75297849D01*
X151475500Y-75067072D01*
X151475500Y-74641572D01*
X151460616Y-74466699D01*
X151401617Y-74240110D01*
X151305172Y-74026750D01*
X151174057Y-73832759D01*
X151012044Y-73663717D01*
X150823792Y-73524487D01*
X150813253Y-73519173D01*
X150755718Y-73467811D01*
X150731572Y-73394560D01*
X150747286Y-73319050D01*
X150798650Y-73261513D01*
X150809418Y-73255086D01*
X150854903Y-73230471D01*
X150902185Y-73193670D01*
X151034794Y-73090456D01*
X151189183Y-72922745D01*
X151313862Y-72731909D01*
X151405430Y-72523155D01*
X151461390Y-72302176D01*
X151480214Y-72075000D01*
X151461390Y-71847824D01*
X151405430Y-71626845D01*
X151313862Y-71418091D01*
X151189183Y-71227255D01*
X151034794Y-71059544D01*
X150854906Y-70919531D01*
X150854905Y-70919530D01*
X150755457Y-70865712D01*
X150699437Y-70812698D01*
X150677430Y-70738776D01*
X150695331Y-70663754D01*
X150700204Y-70655409D01*
X150780456Y-70527690D01*
X150836313Y-70368059D01*
X150855249Y-70200000D01*
X150836313Y-70031941D01*
X150798267Y-69923211D01*
X150792504Y-69846298D01*
X150825969Y-69776808D01*
X150889695Y-69733361D01*
X150938906Y-69725000D01*
X154363282Y-69725000D01*
X154437782Y-69744962D01*
X154468641Y-69768641D01*
X154881359Y-70181359D01*
X154919923Y-70248154D01*
X154925000Y-70286718D01*
X154925000Y-76300000D01*
X156275000Y-77650000D01*
X161663282Y-77650000D01*
X161737782Y-77669962D01*
X161768641Y-77693641D01*
X163306359Y-79231359D01*
X163344923Y-79298154D01*
X163350000Y-79336718D01*
X163350000Y-84313282D01*
X163334324Y-84371782D01*
X163336342Y-84372618D01*
X163325000Y-84400000D01*
X163325000Y-81225000D01*
X162850000Y-80750000D01*
X161225000Y-80750000D01*
X160766965Y-81208034D01*
X160750000Y-81144716D01*
X160750000Y-80773589D01*
X160757293Y-80727545D01*
X160778868Y-80661144D01*
X160810674Y-80563256D01*
X160830460Y-80375000D01*
X160810674Y-80186744D01*
X160752179Y-80006716D01*
X160657533Y-79842784D01*
X160657532Y-79842783D01*
X160657530Y-79842779D01*
X160530872Y-79702113D01*
X160530871Y-79702112D01*
X160377730Y-79590849D01*
X160204803Y-79513856D01*
X160201284Y-79512289D01*
X160156530Y-79481530D01*
X160075000Y-79400000D01*
X154161718Y-79400000D01*
X154087218Y-79380038D01*
X154056359Y-79356359D01*
X152150000Y-77450000D01*
X151485787Y-77450000D01*
X151411287Y-77430038D01*
X151398207Y-77421544D01*
X151389753Y-77415402D01*
X151252730Y-77315849D01*
X151252729Y-77315848D01*
X151252727Y-77315847D01*
X151099505Y-77247628D01*
X151079803Y-77238856D01*
X150973360Y-77216231D01*
X150894648Y-77199500D01*
X150894646Y-77199500D01*
X150705354Y-77199500D01*
X150705352Y-77199500D01*
X150605392Y-77220747D01*
X150520197Y-77238856D01*
X150520195Y-77238856D01*
X150520194Y-77238857D01*
X150347272Y-77315847D01*
X150265167Y-77375500D01*
X150210247Y-77415402D01*
X150201793Y-77421544D01*
X150129787Y-77449184D01*
X150114213Y-77450000D01*
X146256589Y-77450000D01*
X146182089Y-77430038D01*
X146156885Y-77411726D01*
X146155874Y-77410815D01*
X146155871Y-77410812D01*
X146002730Y-77299549D01*
X146002729Y-77299548D01*
X146002727Y-77299547D01*
X145829805Y-77222557D01*
X145829803Y-77222556D01*
X145721332Y-77199500D01*
X145644648Y-77183200D01*
X145644646Y-77183200D01*
X145455354Y-77183200D01*
X145455352Y-77183200D01*
X145355392Y-77204447D01*
X145270197Y-77222556D01*
X145270195Y-77222556D01*
X145270194Y-77222557D01*
X145097272Y-77299547D01*
X144944131Y-77410810D01*
X144943115Y-77411726D01*
X144942300Y-77412141D01*
X144937812Y-77415402D01*
X144937295Y-77414691D01*
X144874394Y-77446743D01*
X144843411Y-77450000D01*
X141604245Y-77450000D01*
X141529745Y-77430038D01*
X141493519Y-77400703D01*
X141455871Y-77358891D01*
X141302730Y-77247628D01*
X141302729Y-77247627D01*
X141302727Y-77247626D01*
X141129805Y-77170636D01*
X141129803Y-77170635D01*
X141023360Y-77148010D01*
X140944648Y-77131279D01*
X140944646Y-77131279D01*
X140755354Y-77131279D01*
X140755352Y-77131279D01*
X140655392Y-77152526D01*
X140570197Y-77170635D01*
X140570195Y-77170635D01*
X140570194Y-77170636D01*
X140397272Y-77247626D01*
X140244130Y-77358890D01*
X140244129Y-77358891D01*
X140206481Y-77400702D01*
X140141798Y-77442707D01*
X140095755Y-77450000D01*
X139170362Y-77450000D01*
X139170362Y-77447888D01*
X139144778Y-77451253D01*
X139073526Y-77421727D01*
X139058890Y-77408890D01*
X138093641Y-76443641D01*
X138055077Y-76376846D01*
X138050000Y-76338282D01*
X138050000Y-69874000D01*
X138069962Y-69799500D01*
X138124500Y-69744962D01*
X138199000Y-69725000D01*
X141761094Y-69725000D01*
X141835594Y-69744962D01*
G37*
%TD.AperFunction*%
%TD*%
%TA.AperFunction,Conductor*%
%TO.N,GNDA*%
G36*
X150065677Y-97244685D02*
G01*
X150086319Y-97261319D01*
X150313681Y-97488681D01*
X150347166Y-97550004D01*
X150350000Y-97576362D01*
X150350000Y-98113211D01*
X150330315Y-98180250D01*
X150308666Y-98204231D01*
X150309034Y-98204599D01*
X150184523Y-98329109D01*
X150184518Y-98329115D01*
X150094547Y-98472302D01*
X150094545Y-98472305D01*
X150038685Y-98631943D01*
X150019751Y-98799997D01*
X150019751Y-98800002D01*
X150038685Y-98968056D01*
X150049862Y-98999996D01*
X150094544Y-99127690D01*
X150094545Y-99127691D01*
X150099153Y-99135025D01*
X150118155Y-99202261D01*
X150097789Y-99269097D01*
X150044523Y-99314312D01*
X149994161Y-99325000D01*
X148401362Y-99325000D01*
X148334323Y-99305315D01*
X148313681Y-99288681D01*
X148086319Y-99061319D01*
X148052834Y-98999996D01*
X148050000Y-98973638D01*
X148050000Y-98701362D01*
X148069685Y-98634323D01*
X148086319Y-98613681D01*
X149438681Y-97261319D01*
X149500004Y-97227834D01*
X149526362Y-97225000D01*
X149998638Y-97225000D01*
X150065677Y-97244685D01*
G37*
%TD.AperFunction*%
%TD*%
%TA.AperFunction,Conductor*%
%TO.N,/usb/USB_5V*%
G36*
X131674891Y-93544685D02*
G01*
X131720646Y-93597489D01*
X131730590Y-93666647D01*
X131706229Y-93724484D01*
X131664567Y-93778780D01*
X131650463Y-93797160D01*
X131589956Y-93943237D01*
X131589955Y-93943239D01*
X131569318Y-94099998D01*
X131569318Y-94100001D01*
X131589955Y-94256760D01*
X131589956Y-94256762D01*
X131650464Y-94402841D01*
X131746718Y-94528282D01*
X131872159Y-94624536D01*
X132018238Y-94685044D01*
X132096619Y-94695363D01*
X132174999Y-94705682D01*
X132175000Y-94705682D01*
X132175001Y-94705682D01*
X132227254Y-94698802D01*
X132331762Y-94685044D01*
X132477841Y-94624536D01*
X132603282Y-94528282D01*
X132699536Y-94402841D01*
X132760044Y-94256762D01*
X132780682Y-94100000D01*
X132780486Y-94098515D01*
X132760044Y-93943239D01*
X132760044Y-93943238D01*
X132699536Y-93797159D01*
X132643771Y-93724484D01*
X132618578Y-93659318D01*
X132632616Y-93590873D01*
X132681430Y-93540883D01*
X132742148Y-93525000D01*
X133687759Y-93525000D01*
X133754798Y-93544685D01*
X133800553Y-93597489D01*
X133810698Y-93632815D01*
X133823589Y-93730739D01*
X133823590Y-93730741D01*
X133884098Y-93876820D01*
X133980352Y-94002261D01*
X134105793Y-94098515D01*
X134251872Y-94159023D01*
X134369273Y-94174479D01*
X134369280Y-94174479D01*
X134447988Y-94174479D01*
X134447995Y-94174479D01*
X134565396Y-94159023D01*
X134711475Y-94098515D01*
X134836916Y-94002261D01*
X134933170Y-93876820D01*
X134993678Y-93730741D01*
X135006570Y-93632814D01*
X135034836Y-93568918D01*
X135093161Y-93530447D01*
X135129509Y-93525000D01*
X136149084Y-93525000D01*
X136216123Y-93544685D01*
X136241231Y-93566025D01*
X136311277Y-93643819D01*
X136455914Y-93748905D01*
X136619240Y-93821622D01*
X136794116Y-93858793D01*
X136794117Y-93858793D01*
X136972896Y-93858793D01*
X136972898Y-93858793D01*
X137147774Y-93821622D01*
X137311100Y-93748905D01*
X137455737Y-93643819D01*
X137525781Y-93566027D01*
X137585266Y-93529379D01*
X137617930Y-93525000D01*
X140244049Y-93525000D01*
X140311088Y-93544685D01*
X140356843Y-93597489D01*
X140358610Y-93601547D01*
X140380062Y-93653338D01*
X140380063Y-93653340D01*
X140380064Y-93653341D01*
X140390274Y-93666647D01*
X140453392Y-93748905D01*
X140476318Y-93778782D01*
X140601759Y-93875036D01*
X140747838Y-93935544D01*
X140806280Y-93943238D01*
X140904599Y-93956182D01*
X140904600Y-93956182D01*
X140904601Y-93956182D01*
X140956854Y-93949302D01*
X141061362Y-93935544D01*
X141161013Y-93894266D01*
X141230483Y-93886798D01*
X141292962Y-93918073D01*
X141296147Y-93921147D01*
X142138681Y-94763681D01*
X142172166Y-94825004D01*
X142175000Y-94851362D01*
X142175000Y-96298638D01*
X142155315Y-96365677D01*
X142138681Y-96386319D01*
X139686319Y-98838681D01*
X139624996Y-98872166D01*
X139598638Y-98875000D01*
X137925331Y-98875000D01*
X137858292Y-98855315D01*
X137833182Y-98833973D01*
X137809291Y-98807439D01*
X137664654Y-98702353D01*
X137501328Y-98629636D01*
X137501326Y-98629635D01*
X137373655Y-98602498D01*
X137326452Y-98592465D01*
X137147670Y-98592465D01*
X137117015Y-98598980D01*
X136972794Y-98629635D01*
X136972789Y-98629637D01*
X136809469Y-98702352D01*
X136664829Y-98807440D01*
X136649407Y-98824568D01*
X136640940Y-98833971D01*
X136581455Y-98870620D01*
X136548791Y-98875000D01*
X136283176Y-98875000D01*
X136216137Y-98855315D01*
X136170382Y-98802511D01*
X136168615Y-98798453D01*
X136128808Y-98702352D01*
X136097855Y-98627624D01*
X135929405Y-98322836D01*
X135727888Y-98038824D01*
X135495839Y-97779161D01*
X135236176Y-97547112D01*
X134952164Y-97345595D01*
X134647376Y-97177145D01*
X134564986Y-97143018D01*
X134336882Y-97048534D01*
X134296654Y-97021654D01*
X134253844Y-96978844D01*
X134220359Y-96917521D01*
X134225343Y-96847829D01*
X134267215Y-96791896D01*
X134268639Y-96790845D01*
X134270537Y-96789465D01*
X134270541Y-96789464D01*
X134415178Y-96684378D01*
X134534807Y-96551517D01*
X134624198Y-96396687D01*
X134679445Y-96226655D01*
X134698133Y-96048852D01*
X134679445Y-95871049D01*
X134664483Y-95825002D01*
X136219196Y-95825002D01*
X136240279Y-95958121D01*
X136240280Y-95958124D01*
X136240281Y-95958126D01*
X136289425Y-96054576D01*
X136301473Y-96078221D01*
X136301476Y-96078225D01*
X136396774Y-96173523D01*
X136396778Y-96173526D01*
X136396780Y-96173528D01*
X136516874Y-96234719D01*
X136516876Y-96234719D01*
X136516878Y-96234720D01*
X136583437Y-96245261D01*
X136650000Y-96255804D01*
X136675256Y-96251803D01*
X136744544Y-96260756D01*
X136782334Y-96286595D01*
X137032877Y-96537138D01*
X137066362Y-96598461D01*
X137069196Y-96624819D01*
X137069196Y-96625002D01*
X137090279Y-96758121D01*
X137090280Y-96758124D01*
X137090281Y-96758126D01*
X137143300Y-96862181D01*
X137151473Y-96878221D01*
X137151476Y-96878225D01*
X137246774Y-96973523D01*
X137246778Y-96973526D01*
X137246780Y-96973528D01*
X137366874Y-97034719D01*
X137366876Y-97034719D01*
X137366878Y-97034720D01*
X137499998Y-97055804D01*
X137500000Y-97055804D01*
X137500002Y-97055804D01*
X137633121Y-97034720D01*
X137633121Y-97034719D01*
X137633126Y-97034719D01*
X137753220Y-96973528D01*
X137848528Y-96878220D01*
X137909719Y-96758126D01*
X137910969Y-96750235D01*
X137930804Y-96625002D01*
X137930804Y-96624997D01*
X137909720Y-96491878D01*
X137909719Y-96491876D01*
X137909719Y-96491874D01*
X137864133Y-96402406D01*
X139422435Y-96402406D01*
X139441123Y-96580211D01*
X139441124Y-96580213D01*
X139496367Y-96750235D01*
X139496370Y-96750241D01*
X139585761Y-96905071D01*
X139623940Y-96947473D01*
X139705384Y-97037927D01*
X139705387Y-97037929D01*
X139705390Y-97037932D01*
X139850027Y-97143018D01*
X140013353Y-97215735D01*
X140188229Y-97252906D01*
X140188230Y-97252906D01*
X140367009Y-97252906D01*
X140367011Y-97252906D01*
X140541887Y-97215735D01*
X140705213Y-97143018D01*
X140849850Y-97037932D01*
X140852743Y-97034720D01*
X140903053Y-96978844D01*
X140969479Y-96905071D01*
X141058870Y-96750241D01*
X141114117Y-96580209D01*
X141132805Y-96402406D01*
X141114117Y-96224603D01*
X141066556Y-96078225D01*
X141058872Y-96054576D01*
X141058869Y-96054570D01*
X141055568Y-96048852D01*
X140969479Y-95899741D01*
X140902345Y-95825181D01*
X140849855Y-95766884D01*
X140849852Y-95766882D01*
X140849851Y-95766881D01*
X140849850Y-95766880D01*
X140705213Y-95661794D01*
X140541887Y-95589077D01*
X140541885Y-95589076D01*
X140414214Y-95561939D01*
X140367011Y-95551906D01*
X140188229Y-95551906D01*
X140157574Y-95558421D01*
X140013353Y-95589076D01*
X140013348Y-95589078D01*
X139850028Y-95661793D01*
X139705388Y-95766881D01*
X139585760Y-95899742D01*
X139496370Y-96054570D01*
X139496367Y-96054576D01*
X139441124Y-96224598D01*
X139441123Y-96224600D01*
X139422435Y-96402406D01*
X137864133Y-96402406D01*
X137848528Y-96371780D01*
X137848526Y-96371778D01*
X137848523Y-96371774D01*
X137753225Y-96276476D01*
X137753221Y-96276473D01*
X137753220Y-96276472D01*
X137633126Y-96215281D01*
X137633124Y-96215280D01*
X137633121Y-96215279D01*
X137500002Y-96194196D01*
X137499999Y-96194196D01*
X137474739Y-96198196D01*
X137405446Y-96189239D01*
X137367664Y-96163403D01*
X137117123Y-95912862D01*
X137083638Y-95851539D01*
X137080804Y-95825181D01*
X137080804Y-95824997D01*
X137059720Y-95691878D01*
X137059719Y-95691876D01*
X137059719Y-95691874D01*
X136998528Y-95571780D01*
X136998526Y-95571778D01*
X136998523Y-95571774D01*
X136903225Y-95476476D01*
X136903221Y-95476473D01*
X136903220Y-95476472D01*
X136783126Y-95415281D01*
X136783124Y-95415280D01*
X136783121Y-95415279D01*
X136650002Y-95394196D01*
X136649998Y-95394196D01*
X136516878Y-95415279D01*
X136396778Y-95476473D01*
X136396774Y-95476476D01*
X136301476Y-95571774D01*
X136301473Y-95571778D01*
X136240279Y-95691878D01*
X136219196Y-95824997D01*
X136219196Y-95825002D01*
X134664483Y-95825002D01*
X134645598Y-95766880D01*
X134624200Y-95701022D01*
X134624197Y-95701016D01*
X134622824Y-95698638D01*
X134534807Y-95546187D01*
X134472035Y-95476472D01*
X134415183Y-95413330D01*
X134415180Y-95413328D01*
X134415179Y-95413327D01*
X134415178Y-95413326D01*
X134270541Y-95308240D01*
X134107215Y-95235523D01*
X134107213Y-95235522D01*
X133979542Y-95208385D01*
X133932339Y-95198352D01*
X133753557Y-95198352D01*
X133722902Y-95204867D01*
X133578681Y-95235522D01*
X133578676Y-95235524D01*
X133415356Y-95308239D01*
X133270716Y-95413327D01*
X133151088Y-95546188D01*
X133061698Y-95701016D01*
X133061695Y-95701022D01*
X133006452Y-95871044D01*
X133006451Y-95871046D01*
X133006451Y-95871049D01*
X132987763Y-96048852D01*
X132990850Y-96078225D01*
X132991882Y-96088038D01*
X132979313Y-96156768D01*
X132931581Y-96207792D01*
X132868561Y-96225000D01*
X130751362Y-96225000D01*
X130684323Y-96205315D01*
X130663681Y-96188681D01*
X130261319Y-95786319D01*
X130227834Y-95724996D01*
X130225000Y-95698638D01*
X130225000Y-93926362D01*
X130244685Y-93859323D01*
X130261319Y-93838681D01*
X130538681Y-93561319D01*
X130600004Y-93527834D01*
X130626362Y-93525000D01*
X131607852Y-93525000D01*
X131674891Y-93544685D01*
G37*
%TD.AperFunction*%
%TD*%
%TA.AperFunction,Conductor*%
%TO.N,+3V3*%
G36*
X161487841Y-90894685D02*
G01*
X161512951Y-90916027D01*
X161519128Y-90922887D01*
X161519135Y-90922893D01*
X161672265Y-91034148D01*
X161672270Y-91034151D01*
X161845192Y-91111142D01*
X161845197Y-91111144D01*
X162030354Y-91150500D01*
X162030355Y-91150500D01*
X162219644Y-91150500D01*
X162219646Y-91150500D01*
X162404803Y-91111144D01*
X162577730Y-91034151D01*
X162712967Y-90935896D01*
X162778773Y-90912416D01*
X162846827Y-90928241D01*
X162873533Y-90948533D01*
X163313681Y-91388681D01*
X163347166Y-91450004D01*
X163350000Y-91476362D01*
X163350000Y-95598638D01*
X163330315Y-95665677D01*
X163313681Y-95686319D01*
X162886319Y-96113681D01*
X162824996Y-96147166D01*
X162798638Y-96150000D01*
X151249999Y-96150000D01*
X150553576Y-96846422D01*
X150492253Y-96879907D01*
X150422561Y-96874923D01*
X150388092Y-96855295D01*
X150382863Y-96851081D01*
X150382861Y-96851080D01*
X150338974Y-96819433D01*
X150208100Y-96759663D01*
X150141063Y-96739978D01*
X150141057Y-96739976D01*
X150055604Y-96727690D01*
X149998638Y-96719500D01*
X149512823Y-96719500D01*
X149485784Y-96720949D01*
X149485776Y-96720949D01*
X149485773Y-96720950D01*
X149485772Y-96720950D01*
X149445964Y-96725231D01*
X149392554Y-96733885D01*
X149392552Y-96733885D01*
X149257747Y-96784166D01*
X149196422Y-96817651D01*
X149081240Y-96903876D01*
X149081228Y-96903886D01*
X147719296Y-98265819D01*
X147701209Y-98285956D01*
X147701209Y-98285955D01*
X147676080Y-98317139D01*
X147644433Y-98361025D01*
X147584663Y-98491899D01*
X147564978Y-98558937D01*
X147564976Y-98558942D01*
X147544500Y-98701363D01*
X147544500Y-98987173D01*
X147545950Y-99014227D01*
X147545950Y-99014228D01*
X147550231Y-99054036D01*
X147558885Y-99107445D01*
X147558885Y-99107447D01*
X147609166Y-99242252D01*
X147609168Y-99242257D01*
X147642653Y-99303580D01*
X147728877Y-99418761D01*
X147728883Y-99418767D01*
X147767376Y-99457260D01*
X147800861Y-99518583D01*
X147795877Y-99588275D01*
X147767376Y-99632622D01*
X147311319Y-100088681D01*
X147249996Y-100122166D01*
X147223638Y-100125000D01*
X144301362Y-100125000D01*
X144234323Y-100105315D01*
X144213681Y-100088681D01*
X143511319Y-99386319D01*
X143477834Y-99324996D01*
X143475000Y-99298638D01*
X143475000Y-97776362D01*
X143494685Y-97709323D01*
X143511319Y-97688681D01*
X144288681Y-96911319D01*
X144350004Y-96877834D01*
X144376362Y-96875000D01*
X146500000Y-96875000D01*
X149813681Y-93561319D01*
X149875004Y-93527834D01*
X149901362Y-93525000D01*
X154676240Y-93525000D01*
X154743279Y-93544685D01*
X154783626Y-93586999D01*
X154867467Y-93732216D01*
X154981760Y-93859151D01*
X154994129Y-93872888D01*
X155147265Y-93984148D01*
X155147270Y-93984151D01*
X155320192Y-94061142D01*
X155320197Y-94061144D01*
X155505354Y-94100500D01*
X155505355Y-94100500D01*
X155694644Y-94100500D01*
X155694646Y-94100500D01*
X155879803Y-94061144D01*
X156052730Y-93984151D01*
X156205871Y-93872888D01*
X156332533Y-93732216D01*
X156416373Y-93586999D01*
X156466939Y-93538785D01*
X156523760Y-93525000D01*
X157000000Y-93525000D01*
X159613681Y-90911319D01*
X159675004Y-90877834D01*
X159701362Y-90875000D01*
X161420802Y-90875000D01*
X161487841Y-90894685D01*
G37*
%TD.AperFunction*%
%TD*%
%TA.AperFunction,Conductor*%
%TO.N,Vmot*%
G36*
X163325000Y-81225000D02*
G01*
X163325000Y-84400000D01*
X163325000Y-87523638D01*
X163305315Y-87590677D01*
X163288681Y-87611319D01*
X160566819Y-90333181D01*
X160505496Y-90366666D01*
X160479138Y-90369500D01*
X159687823Y-90369500D01*
X159660784Y-90370949D01*
X159660776Y-90370949D01*
X159660773Y-90370950D01*
X159660772Y-90370950D01*
X159620964Y-90375231D01*
X159567554Y-90383885D01*
X159567552Y-90383885D01*
X159432747Y-90434166D01*
X159432744Y-90434167D01*
X159432743Y-90434168D01*
X159422404Y-90439813D01*
X159371422Y-90467651D01*
X159256240Y-90553876D01*
X159256228Y-90553886D01*
X157396435Y-92413681D01*
X157335112Y-92447166D01*
X157308754Y-92450000D01*
X155576362Y-92450000D01*
X155509323Y-92430315D01*
X155488681Y-92413681D01*
X154761319Y-91686319D01*
X154727834Y-91624996D01*
X154725000Y-91598638D01*
X154725000Y-90301362D01*
X154744685Y-90234323D01*
X154761319Y-90213681D01*
X154788181Y-90186819D01*
X154849504Y-90153334D01*
X154875862Y-90150500D01*
X156763114Y-90150500D01*
X156787306Y-90152883D01*
X156799999Y-90155408D01*
X156800000Y-90155408D01*
X156800002Y-90155408D01*
X156897739Y-90135967D01*
X156897739Y-90135966D01*
X156897741Y-90135966D01*
X156927536Y-90116057D01*
X156980601Y-90080601D01*
X156987794Y-90069833D01*
X157003210Y-90051048D01*
X157476048Y-89578210D01*
X157494833Y-89562794D01*
X157505601Y-89555601D01*
X157542752Y-89500000D01*
X157560966Y-89472741D01*
X157580408Y-89375000D01*
X157577883Y-89362306D01*
X157575500Y-89338114D01*
X157575500Y-87450861D01*
X157595185Y-87383822D01*
X157611814Y-87363185D01*
X157985644Y-86989355D01*
X158024989Y-86965248D01*
X158024430Y-86964150D01*
X158034136Y-86959204D01*
X158153220Y-86898528D01*
X158248528Y-86803220D01*
X158309719Y-86683126D01*
X158309718Y-86683126D01*
X158314150Y-86674430D01*
X158315248Y-86674989D01*
X158339355Y-86635644D01*
X160750000Y-84225000D01*
X160750000Y-81225000D01*
X161225000Y-80750000D01*
X162850000Y-80750000D01*
X163325000Y-81225000D01*
G37*
%TD.AperFunction*%
%TD*%
M02*
