%TF.GenerationSoftware,KiCad,Pcbnew,7.0.8*%
%TF.CreationDate,2023-10-18T19:25:08-04:00*%
%TF.ProjectId,lemon-pepper,6c656d6f-6e2d-4706-9570-7065722e6b69,rev?*%
%TF.SameCoordinates,Original*%
%TF.FileFunction,Copper,L1,Top*%
%TF.FilePolarity,Positive*%
%FSLAX46Y46*%
G04 Gerber Fmt 4.6, Leading zero omitted, Abs format (unit mm)*
G04 Created by KiCad (PCBNEW 7.0.8) date 2023-10-18 19:25:08*
%MOMM*%
%LPD*%
G01*
G04 APERTURE LIST*
G04 Aperture macros list*
%AMRoundRect*
0 Rectangle with rounded corners*
0 $1 Rounding radius*
0 $2 $3 $4 $5 $6 $7 $8 $9 X,Y pos of 4 corners*
0 Add a 4 corners polygon primitive as box body*
4,1,4,$2,$3,$4,$5,$6,$7,$8,$9,$2,$3,0*
0 Add four circle primitives for the rounded corners*
1,1,$1+$1,$2,$3*
1,1,$1+$1,$4,$5*
1,1,$1+$1,$6,$7*
1,1,$1+$1,$8,$9*
0 Add four rect primitives between the rounded corners*
20,1,$1+$1,$2,$3,$4,$5,0*
20,1,$1+$1,$4,$5,$6,$7,0*
20,1,$1+$1,$6,$7,$8,$9,0*
20,1,$1+$1,$8,$9,$2,$3,0*%
%AMRotRect*
0 Rectangle, with rotation*
0 The origin of the aperture is its center*
0 $1 length*
0 $2 width*
0 $3 Rotation angle, in degrees counterclockwise*
0 Add horizontal line*
21,1,$1,$2,0,0,$3*%
%AMFreePoly0*
4,1,17,-0.875000,2.062500,-0.867373,2.143836,-0.824300,2.266930,-0.746859,2.371859,-0.641930,2.449300,-0.518836,2.492373,-0.437500,2.500000,0.437500,2.500000,0.518836,2.492373,0.641930,2.449300,0.746859,2.371859,0.824300,2.266930,0.867373,2.143836,0.875000,2.062500,0.875000,-2.500000,-0.875000,-2.500000,-0.875000,2.062500,-0.875000,2.062500,$1*%
%AMFreePoly1*
4,1,19,0.500000,-0.750000,0.000000,-0.750000,0.000000,-0.744911,-0.071157,-0.744911,-0.207708,-0.704816,-0.327430,-0.627875,-0.420627,-0.520320,-0.479746,-0.390866,-0.500000,-0.250000,-0.500000,0.250000,-0.479746,0.390866,-0.420627,0.520320,-0.327430,0.627875,-0.207708,0.704816,-0.071157,0.744911,0.000000,0.744911,0.000000,0.750000,0.500000,0.750000,0.500000,-0.750000,0.500000,-0.750000,
$1*%
%AMFreePoly2*
4,1,19,0.000000,0.744911,0.071157,0.744911,0.207708,0.704816,0.327430,0.627875,0.420627,0.520320,0.479746,0.390866,0.500000,0.250000,0.500000,-0.250000,0.479746,-0.390866,0.420627,-0.520320,0.327430,-0.627875,0.207708,-0.704816,0.071157,-0.744911,0.000000,-0.744911,0.000000,-0.750000,-0.500000,-0.750000,-0.500000,0.750000,0.000000,0.750000,0.000000,0.744911,0.000000,0.744911,
$1*%
G04 Aperture macros list end*
%TA.AperFunction,SMDPad,CuDef*%
%ADD10RoundRect,0.250000X-0.250000X-0.475000X0.250000X-0.475000X0.250000X0.475000X-0.250000X0.475000X0*%
%TD*%
%TA.AperFunction,ConnectorPad*%
%ADD11C,0.787400*%
%TD*%
%TA.AperFunction,SMDPad,CuDef*%
%ADD12RoundRect,0.150000X-0.587500X-0.150000X0.587500X-0.150000X0.587500X0.150000X-0.587500X0.150000X0*%
%TD*%
%TA.AperFunction,SMDPad,CuDef*%
%ADD13RoundRect,0.135000X-0.135000X-0.185000X0.135000X-0.185000X0.135000X0.185000X-0.135000X0.185000X0*%
%TD*%
%TA.AperFunction,SMDPad,CuDef*%
%ADD14RoundRect,0.112500X-0.112500X0.187500X-0.112500X-0.187500X0.112500X-0.187500X0.112500X0.187500X0*%
%TD*%
%TA.AperFunction,SMDPad,CuDef*%
%ADD15RoundRect,0.150000X-0.825000X-0.150000X0.825000X-0.150000X0.825000X0.150000X-0.825000X0.150000X0*%
%TD*%
%TA.AperFunction,SMDPad,CuDef*%
%ADD16RoundRect,0.135000X0.185000X-0.135000X0.185000X0.135000X-0.185000X0.135000X-0.185000X-0.135000X0*%
%TD*%
%TA.AperFunction,SMDPad,CuDef*%
%ADD17RoundRect,0.135000X-0.035355X0.226274X-0.226274X0.035355X0.035355X-0.226274X0.226274X-0.035355X0*%
%TD*%
%TA.AperFunction,SMDPad,CuDef*%
%ADD18RoundRect,0.140000X0.021213X-0.219203X0.219203X-0.021213X-0.021213X0.219203X-0.219203X0.021213X0*%
%TD*%
%TA.AperFunction,SMDPad,CuDef*%
%ADD19RoundRect,0.250000X-0.650000X1.000000X-0.650000X-1.000000X0.650000X-1.000000X0.650000X1.000000X0*%
%TD*%
%TA.AperFunction,SMDPad,CuDef*%
%ADD20RoundRect,0.250000X0.475000X-0.250000X0.475000X0.250000X-0.475000X0.250000X-0.475000X-0.250000X0*%
%TD*%
%TA.AperFunction,SMDPad,CuDef*%
%ADD21RoundRect,0.218750X-0.256250X0.218750X-0.256250X-0.218750X0.256250X-0.218750X0.256250X0.218750X0*%
%TD*%
%TA.AperFunction,SMDPad,CuDef*%
%ADD22RoundRect,0.218750X-0.218750X-0.256250X0.218750X-0.256250X0.218750X0.256250X-0.218750X0.256250X0*%
%TD*%
%TA.AperFunction,SMDPad,CuDef*%
%ADD23RoundRect,0.250000X-0.375000X-1.075000X0.375000X-1.075000X0.375000X1.075000X-0.375000X1.075000X0*%
%TD*%
%TA.AperFunction,SMDPad,CuDef*%
%ADD24RoundRect,0.140000X-0.021213X0.219203X-0.219203X0.021213X0.021213X-0.219203X0.219203X-0.021213X0*%
%TD*%
%TA.AperFunction,SMDPad,CuDef*%
%ADD25RoundRect,0.140000X0.140000X0.170000X-0.140000X0.170000X-0.140000X-0.170000X0.140000X-0.170000X0*%
%TD*%
%TA.AperFunction,SMDPad,CuDef*%
%ADD26RoundRect,0.150000X-0.150000X0.512500X-0.150000X-0.512500X0.150000X-0.512500X0.150000X0.512500X0*%
%TD*%
%TA.AperFunction,SMDPad,CuDef*%
%ADD27R,1.270000X0.800000*%
%TD*%
%TA.AperFunction,SMDPad,CuDef*%
%ADD28R,0.300000X0.850000*%
%TD*%
%TA.AperFunction,SMDPad,CuDef*%
%ADD29R,0.850000X0.300000*%
%TD*%
%TA.AperFunction,SMDPad,CuDef*%
%ADD30RoundRect,0.140000X-0.170000X0.140000X-0.170000X-0.140000X0.170000X-0.140000X0.170000X0.140000X0*%
%TD*%
%TA.AperFunction,SMDPad,CuDef*%
%ADD31C,0.500000*%
%TD*%
%TA.AperFunction,SMDPad,CuDef*%
%ADD32RoundRect,0.135000X-0.185000X0.135000X-0.185000X-0.135000X0.185000X-0.135000X0.185000X0.135000X0*%
%TD*%
%TA.AperFunction,SMDPad,CuDef*%
%ADD33RoundRect,0.135000X0.135000X0.185000X-0.135000X0.185000X-0.135000X-0.185000X0.135000X-0.185000X0*%
%TD*%
%TA.AperFunction,SMDPad,CuDef*%
%ADD34RoundRect,0.250000X0.250000X0.475000X-0.250000X0.475000X-0.250000X-0.475000X0.250000X-0.475000X0*%
%TD*%
%TA.AperFunction,ComponentPad*%
%ADD35C,0.700000*%
%TD*%
%TA.AperFunction,SMDPad,CuDef*%
%ADD36RotRect,0.300000X0.850000X315.000000*%
%TD*%
%TA.AperFunction,ComponentPad*%
%ADD37C,1.300000*%
%TD*%
%TA.AperFunction,SMDPad,CuDef*%
%ADD38RoundRect,0.140000X-0.140000X-0.170000X0.140000X-0.170000X0.140000X0.170000X-0.140000X0.170000X0*%
%TD*%
%TA.AperFunction,SMDPad,CuDef*%
%ADD39RoundRect,0.140000X0.219203X0.021213X0.021213X0.219203X-0.219203X-0.021213X-0.021213X-0.219203X0*%
%TD*%
%TA.AperFunction,HeatsinkPad*%
%ADD40C,0.500000*%
%TD*%
%TA.AperFunction,ComponentPad*%
%ADD41O,1.750000X1.750000*%
%TD*%
%TA.AperFunction,SMDPad,CuDef*%
%ADD42FreePoly0,0.000000*%
%TD*%
%TA.AperFunction,ComponentPad*%
%ADD43O,1.750000X2.000000*%
%TD*%
%TA.AperFunction,SMDPad,CuDef*%
%ADD44RoundRect,0.112500X0.187500X0.112500X-0.187500X0.112500X-0.187500X-0.112500X0.187500X-0.112500X0*%
%TD*%
%TA.AperFunction,SMDPad,CuDef*%
%ADD45RotRect,0.660000X0.280000X225.000000*%
%TD*%
%TA.AperFunction,SMDPad,CuDef*%
%ADD46RotRect,0.280000X0.660000X225.000000*%
%TD*%
%TA.AperFunction,SMDPad,CuDef*%
%ADD47RotRect,3.500000X3.500000X225.000000*%
%TD*%
%TA.AperFunction,SMDPad,CuDef*%
%ADD48RoundRect,0.140000X0.170000X-0.140000X0.170000X0.140000X-0.170000X0.140000X-0.170000X-0.140000X0*%
%TD*%
%TA.AperFunction,SMDPad,CuDef*%
%ADD49R,0.800000X0.250000*%
%TD*%
%TA.AperFunction,SMDPad,CuDef*%
%ADD50RoundRect,0.062500X-0.309359X0.220971X0.220971X-0.309359X0.309359X-0.220971X-0.220971X0.309359X0*%
%TD*%
%TA.AperFunction,SMDPad,CuDef*%
%ADD51RoundRect,0.062500X-0.309359X-0.220971X-0.220971X-0.309359X0.309359X0.220971X0.220971X0.309359X0*%
%TD*%
%TA.AperFunction,SMDPad,CuDef*%
%ADD52RotRect,5.600000X5.600000X315.000000*%
%TD*%
%TA.AperFunction,ComponentPad*%
%ADD53C,5.800000*%
%TD*%
%TA.AperFunction,SMDPad,CuDef*%
%ADD54RotRect,1.400000X1.200000X225.000000*%
%TD*%
%TA.AperFunction,ComponentPad*%
%ADD55RoundRect,0.250000X0.600000X0.725000X-0.600000X0.725000X-0.600000X-0.725000X0.600000X-0.725000X0*%
%TD*%
%TA.AperFunction,ComponentPad*%
%ADD56O,1.700000X1.950000*%
%TD*%
%TA.AperFunction,SMDPad,CuDef*%
%ADD57R,0.450000X1.050000*%
%TD*%
%TA.AperFunction,SMDPad,CuDef*%
%ADD58RoundRect,0.112500X-0.187500X-0.112500X0.187500X-0.112500X0.187500X0.112500X-0.187500X0.112500X0*%
%TD*%
%TA.AperFunction,SMDPad,CuDef*%
%ADD59FreePoly1,0.000000*%
%TD*%
%TA.AperFunction,SMDPad,CuDef*%
%ADD60FreePoly2,0.000000*%
%TD*%
%TA.AperFunction,SMDPad,CuDef*%
%ADD61RoundRect,0.135000X0.226274X0.035355X0.035355X0.226274X-0.226274X-0.035355X-0.035355X-0.226274X0*%
%TD*%
%TA.AperFunction,SMDPad,CuDef*%
%ADD62RoundRect,0.200000X0.275000X-0.200000X0.275000X0.200000X-0.275000X0.200000X-0.275000X-0.200000X0*%
%TD*%
%TA.AperFunction,ViaPad*%
%ADD63C,0.800000*%
%TD*%
%TA.AperFunction,ViaPad*%
%ADD64C,0.300000*%
%TD*%
%TA.AperFunction,ViaPad*%
%ADD65C,0.350000*%
%TD*%
%TA.AperFunction,Conductor*%
%ADD66C,0.250000*%
%TD*%
%TA.AperFunction,Conductor*%
%ADD67C,0.200000*%
%TD*%
%TA.AperFunction,Conductor*%
%ADD68C,0.100000*%
%TD*%
%TA.AperFunction,Conductor*%
%ADD69C,0.400000*%
%TD*%
G04 APERTURE END LIST*
D10*
%TO.P,C103,1*%
%TO.N,GND*%
X137075000Y-74800000D03*
%TO.P,C103,2*%
%TO.N,Vmot*%
X138975000Y-74800000D03*
%TD*%
D11*
%TO.P,J301,1,VCC*%
%TO.N,+3V3*%
X137949497Y-103040661D03*
%TO.P,J301,2,SWDIO*%
%TO.N,/mcu/SWDIO*%
X137707170Y-101793994D03*
%TO.P,J301,3,~{RESET}*%
%TO.N,/mcu/RESET*%
X139196164Y-102798333D03*
%TO.P,J301,4,SWCLK*%
%TO.N,/mcu/SWCLK*%
X138953836Y-101551667D03*
%TO.P,J301,5,GND*%
%TO.N,GND*%
X140442830Y-102556006D03*
%TO.P,J301,6,SWO*%
%TO.N,unconnected-(J301-SWO-Pad6)*%
X140200503Y-101309339D03*
%TD*%
D12*
%TO.P,Q501,1,B*%
%TO.N,Net-(Q501-B)*%
X158125000Y-77875000D03*
%TO.P,Q501,2,E*%
%TO.N,GND*%
X158125000Y-79775000D03*
%TO.P,Q501,3,C*%
%TO.N,Net-(Q501-C)*%
X160000000Y-78825000D03*
%TD*%
D13*
%TO.P,R601,1*%
%TO.N,Net-(D601-A)*%
X161655000Y-88925000D03*
%TO.P,R601,2*%
%TO.N,+3V3*%
X162675000Y-88925000D03*
%TD*%
D14*
%TO.P,D502,1,K*%
%TO.N,Net-(D501-A)*%
X156125000Y-76775000D03*
%TO.P,D502,2,A*%
%TO.N,Net-(D502-A)*%
X156125000Y-78875000D03*
%TD*%
D15*
%TO.P,U302,1,D*%
%TO.N,/mcu/CAN_TX*%
X144375000Y-93115000D03*
%TO.P,U302,2,GND*%
%TO.N,GND*%
X144375000Y-94385000D03*
%TO.P,U302,3,VCC*%
%TO.N,+3V3*%
X144375000Y-95655000D03*
%TO.P,U302,4,R*%
%TO.N,/mcu/CAN_RX*%
X144375000Y-96925000D03*
%TO.P,U302,5,Vref*%
%TO.N,unconnected-(U302-Vref-Pad5)*%
X149325000Y-96925000D03*
%TO.P,U302,6,CANL*%
%TO.N,/mcu/CANL*%
X149325000Y-95655000D03*
%TO.P,U302,7,CANH*%
%TO.N,/mcu/CANH*%
X149325000Y-94385000D03*
%TO.P,U302,8,Rs*%
%TO.N,GND*%
X149325000Y-93115000D03*
%TD*%
D14*
%TO.P,D501,1,K*%
%TO.N,Vmot*%
X154100000Y-76475000D03*
%TO.P,D501,2,A*%
%TO.N,Net-(D501-A)*%
X154100000Y-78575000D03*
%TD*%
D16*
%TO.P,R101,1*%
%TO.N,GND*%
X142125000Y-98360000D03*
%TO.P,R101,2*%
%TO.N,/usb/UCPD_CC2*%
X142125000Y-97340000D03*
%TD*%
D13*
%TO.P,R103,1*%
%TO.N,/mcu/CANL*%
X151605000Y-93075000D03*
%TO.P,R103,2*%
%TO.N,Net-(JP101-B)*%
X152625000Y-93075000D03*
%TD*%
D17*
%TO.P,R302,1*%
%TO.N,Net-(U301-PB11)*%
X135275000Y-90900000D03*
%TO.P,R302,2*%
%TO.N,Net-(D302-A)*%
X134553752Y-91621248D03*
%TD*%
D18*
%TO.P,C304,1*%
%TO.N,+3V3*%
X141185938Y-86404360D03*
%TO.P,C304,2*%
%TO.N,GND*%
X141864760Y-85725538D03*
%TD*%
D19*
%TO.P,D101,1,K*%
%TO.N,Vmot*%
X161900000Y-82850000D03*
%TO.P,D101,2,A*%
%TO.N,GND*%
X161900000Y-86850000D03*
%TD*%
D20*
%TO.P,C106,1*%
%TO.N,Vmot*%
X154125000Y-92450000D03*
%TO.P,C106,2*%
%TO.N,GND*%
X154125000Y-90550000D03*
%TD*%
D21*
%TO.P,D601,1,K*%
%TO.N,Net-(D601-K)*%
X159325000Y-86587500D03*
%TO.P,D601,2,A*%
%TO.N,Net-(D601-A)*%
X159325000Y-88162500D03*
%TD*%
D22*
%TO.P,D301,1,K*%
%TO.N,GND*%
X130275000Y-91275000D03*
%TO.P,D301,2,A*%
%TO.N,Net-(D301-A)*%
X131850000Y-91275000D03*
%TD*%
D23*
%TO.P,L501,1*%
%TO.N,Net-(U501-LX)*%
X159425000Y-94525000D03*
%TO.P,L501,2*%
%TO.N,+3V3*%
X162225000Y-94525000D03*
%TD*%
D24*
%TO.P,C305,1*%
%TO.N,/mcu/XIN*%
X130550000Y-77920000D03*
%TO.P,C305,2*%
%TO.N,GND*%
X129871178Y-78598822D03*
%TD*%
D25*
%TO.P,C701,1*%
%TO.N,/current sense/U_SENSE*%
X140600000Y-80475000D03*
%TO.P,C701,2*%
%TO.N,GND*%
X139640000Y-80475000D03*
%TD*%
D18*
%TO.P,C308,1*%
%TO.N,/mcu/RESET*%
X135460589Y-76989411D03*
%TO.P,C308,2*%
%TO.N,GND*%
X136139411Y-76310589D03*
%TD*%
D26*
%TO.P,U201,1,IO1*%
%TO.N,/mcu/USBD_P*%
X141850000Y-92337500D03*
%TO.P,U201,2,VN*%
%TO.N,GND*%
X140900000Y-92337500D03*
%TO.P,U201,3,IO2*%
%TO.N,/mcu/USBD_N*%
X139950000Y-92337500D03*
%TO.P,U201,4,IO3*%
X139950000Y-94612500D03*
%TO.P,U201,5,VP*%
%TO.N,/usb/USB_5V*%
X140900000Y-94612500D03*
%TO.P,U201,6,IO4*%
%TO.N,/mcu/USBD_P*%
X141850000Y-94612500D03*
%TD*%
D27*
%TO.P,U703,1,IP+*%
%TO.N,/current sense/W_IN*%
X147050000Y-78475000D03*
%TO.P,U703,2,IP-*%
%TO.N,/current sense/W_OUT*%
X147050000Y-77475000D03*
D28*
%TO.P,U703,5,GND*%
%TO.N,GND*%
X145550000Y-76525000D03*
%TO.P,U703,6,#FAULT*%
%TO.N,unconnected-(U703-#FAULT-Pad6)*%
X145050000Y-76525000D03*
D29*
%TO.P,U703,7,NC*%
%TO.N,GND*%
X144350000Y-77225000D03*
%TO.P,U703,8,NC*%
X144350000Y-77725000D03*
%TO.P,U703,9,NC*%
X144350000Y-78225000D03*
%TO.P,U703,10,NC*%
X144350000Y-78725000D03*
D28*
%TO.P,U703,11,VIOUT*%
%TO.N,/current sense/W_SENSE*%
X145050000Y-79425000D03*
%TO.P,U703,12,VCC*%
%TO.N,+3V3*%
X145550000Y-79425000D03*
%TD*%
D24*
%TO.P,C302,1*%
%TO.N,+3V3*%
X134564411Y-90189528D03*
%TO.P,C302,2*%
%TO.N,GND*%
X133885589Y-90868350D03*
%TD*%
D30*
%TO.P,C602,1*%
%TO.N,Net-(D603-K)*%
X157300000Y-90245000D03*
%TO.P,C602,2*%
%TO.N,Vmot*%
X157300000Y-91205000D03*
%TD*%
D31*
%TO.P,FID102,*%
%TO.N,*%
X130250000Y-96775000D03*
%TD*%
D25*
%TO.P,C401,1*%
%TO.N,+3V3*%
X162680000Y-96650000D03*
%TO.P,C401,2*%
%TO.N,GND*%
X161720000Y-96650000D03*
%TD*%
D22*
%TO.P,D302,1,K*%
%TO.N,GND*%
X130275000Y-92925000D03*
%TO.P,D302,2,A*%
%TO.N,Net-(D302-A)*%
X131850000Y-92925000D03*
%TD*%
D16*
%TO.P,R102,1*%
%TO.N,/usb/UCPD_CC1*%
X138650000Y-92860000D03*
%TO.P,R102,2*%
%TO.N,GND*%
X138650000Y-91840000D03*
%TD*%
D32*
%TO.P,R105,1*%
%TO.N,/mcu/STEP*%
X150225000Y-88515000D03*
%TO.P,R105,2*%
%TO.N,/mcu/CANH*%
X150225000Y-89535000D03*
%TD*%
D20*
%TO.P,C503,1*%
%TO.N,+3V3*%
X162125000Y-92125000D03*
%TO.P,C503,2*%
%TO.N,GND*%
X162125000Y-90225000D03*
%TD*%
D33*
%TO.P,R501,1*%
%TO.N,+3V3*%
X157700000Y-96335000D03*
%TO.P,R501,2*%
%TO.N,Net-(U501-FB{slash}VOUT)*%
X156680000Y-96335000D03*
%TD*%
D17*
%TO.P,R301,1*%
%TO.N,Net-(U301-PB10)*%
X133860624Y-89464376D03*
%TO.P,R301,2*%
%TO.N,Net-(D301-A)*%
X133139376Y-90185624D03*
%TD*%
D25*
%TO.P,C201,1*%
%TO.N,/mcu/USBD_N*%
X140180000Y-90875000D03*
%TO.P,C201,2*%
%TO.N,GND*%
X139220000Y-90875000D03*
%TD*%
D34*
%TO.P,C102,1*%
%TO.N,Vmot*%
X138975000Y-72750000D03*
%TO.P,C102,2*%
%TO.N,GND*%
X137075000Y-72750000D03*
%TD*%
D10*
%TO.P,C101,1*%
%TO.N,GND*%
X137075000Y-70725000D03*
%TO.P,C101,2*%
%TO.N,Vmot*%
X138975000Y-70725000D03*
%TD*%
D35*
%TO.P,J201,*%
%TO.N,*%
X134408634Y-93573979D03*
D36*
%TO.P,J201,A1,GND*%
%TO.N,GND*%
X135702639Y-93694187D03*
%TO.P,J201,A2*%
%TO.N,N/C*%
X136056192Y-94047740D03*
%TO.P,J201,A3*%
X136409746Y-94401294D03*
%TO.P,J201,A4,VBUS*%
%TO.N,/usb/USB_5V*%
X136763299Y-94754847D03*
%TO.P,J201,A5,CC1*%
%TO.N,/usb/UCPD_CC1*%
X137116853Y-95108400D03*
%TO.P,J201,A6,D+*%
%TO.N,/mcu/USBD_P*%
X137470406Y-95461954D03*
%TO.P,J201,A7,D-*%
%TO.N,/mcu/USBD_N*%
X137823959Y-95815507D03*
%TO.P,J201,A8,SBU1*%
%TO.N,unconnected-(J201-SBU1-PadA8)*%
X138177513Y-96169060D03*
%TO.P,J201,A9,VBUS*%
%TO.N,/usb/USB_5V*%
X138531066Y-96522614D03*
%TO.P,J201,A10*%
%TO.N,N/C*%
X138884619Y-96876167D03*
%TO.P,J201,A11*%
X139238173Y-97229721D03*
%TO.P,J201,A12,GND*%
%TO.N,GND*%
X139591726Y-97583274D03*
%TO.P,J201,B1,GND*%
X138425000Y-98750000D03*
%TO.P,J201,B2*%
%TO.N,N/C*%
X138071447Y-98396447D03*
%TO.P,J201,B3*%
X137717893Y-98042893D03*
%TO.P,J201,B4,VBUS*%
%TO.N,/usb/USB_5V*%
X137364340Y-97689340D03*
%TO.P,J201,B5,CC2*%
%TO.N,/usb/UCPD_CC2*%
X137010787Y-97335787D03*
%TO.P,J201,B6,D+*%
%TO.N,/mcu/USBD_P*%
X136657233Y-96982233D03*
%TO.P,J201,B7,D-*%
%TO.N,/mcu/USBD_N*%
X136303680Y-96628680D03*
%TO.P,J201,B8,SBU2*%
%TO.N,unconnected-(J201-SBU2-PadB8)*%
X135950126Y-96275126D03*
%TO.P,J201,B9,VBUS*%
%TO.N,/usb/USB_5V*%
X135596573Y-95921573D03*
%TO.P,J201,B10*%
%TO.N,N/C*%
X135243020Y-95568020D03*
%TO.P,J201,B11*%
X134889466Y-95214466D03*
%TO.P,J201,B12,GND*%
%TO.N,GND*%
X134535913Y-94860913D03*
D37*
%TO.P,J201,S1,SHIELD*%
X136883507Y-93008293D03*
X133842948Y-96048852D03*
X140277620Y-96402406D03*
X137237061Y-99442965D03*
%TD*%
D25*
%TO.P,C703,1*%
%TO.N,/current sense/W_SENSE*%
X145300000Y-80513857D03*
%TO.P,C703,2*%
%TO.N,GND*%
X144340000Y-80513857D03*
%TD*%
D38*
%TO.P,C202,1*%
%TO.N,/mcu/USBD_P*%
X141220000Y-90875000D03*
%TO.P,C202,2*%
%TO.N,GND*%
X142180000Y-90875000D03*
%TD*%
D39*
%TO.P,C301,1*%
%TO.N,+3V3*%
X134589411Y-78914411D03*
%TO.P,C301,2*%
%TO.N,GND*%
X133910589Y-78235589D03*
%TD*%
D40*
%TO.P,M101,1*%
%TO.N,/current sense/U_OUT*%
X142600000Y-70200000D03*
D41*
X142600000Y-72075000D03*
D42*
X142600000Y-72325000D03*
D43*
X142600000Y-74825000D03*
D40*
%TO.P,M101,2,-*%
%TO.N,/current sense/W_OUT*%
X145100000Y-70200000D03*
D41*
X145100000Y-72075000D03*
D42*
X145100000Y-72325000D03*
D43*
X145100000Y-74825000D03*
D40*
%TO.P,M101,3*%
%TO.N,/half bridges/OUT1B*%
X147600000Y-70200000D03*
D41*
X147600000Y-72075000D03*
D42*
X147600000Y-72325000D03*
D43*
X147600000Y-74825000D03*
D40*
%TO.P,M101,4*%
%TO.N,/current sense/V_OUT*%
X150100000Y-70200000D03*
D41*
X150100000Y-72075000D03*
D42*
X150100000Y-72325000D03*
D43*
X150100000Y-74825000D03*
%TD*%
D32*
%TO.P,R502,1*%
%TO.N,Net-(U501-FB{slash}VOUT)*%
X155665000Y-96275000D03*
%TO.P,R502,2*%
%TO.N,Net-(R502-Pad2)*%
X155665000Y-97295000D03*
%TD*%
D44*
%TO.P,D201,1,K*%
%TO.N,Vmot*%
X132175000Y-94950000D03*
%TO.P,D201,2,A*%
%TO.N,/usb/USB_5V*%
X130075000Y-94950000D03*
%TD*%
D45*
%TO.P,U601,1,GND*%
%TO.N,GND*%
X156941564Y-83758310D03*
%TO.P,U601,2,NC*%
X156588011Y-83404756D03*
%TO.P,U601,3,NC*%
X156234457Y-83051203D03*
%TO.P,U601,4,NC*%
X155880904Y-82697649D03*
%TO.P,U601,5,NC*%
X155527351Y-82344096D03*
%TO.P,U601,6,NC*%
X155173797Y-81990543D03*
%TO.P,U601,7,NC*%
X154820244Y-81636989D03*
%TO.P,U601,8,NC*%
X154466690Y-81283436D03*
D46*
%TO.P,U601,9,OUT1B*%
%TO.N,/half bridges/OUT1B*%
X153533310Y-81283436D03*
%TO.P,U601,10,NC*%
%TO.N,GND*%
X153179756Y-81636989D03*
%TO.P,U601,11,OCDB*%
%TO.N,Net-(D601-K)*%
X152826203Y-81990543D03*
%TO.P,U601,12,SENSEB*%
%TO.N,GND*%
X152472649Y-82344096D03*
%TO.P,U601,13,IN1B*%
%TO.N,/half bridges/IN1B*%
X152119096Y-82697649D03*
%TO.P,U601,14,IN2B*%
%TO.N,/half bridges/IN2B*%
X151765543Y-83051203D03*
%TO.P,U601,15,PROGCLB*%
%TO.N,GND*%
X151411989Y-83404756D03*
%TO.P,U601,16,ENB*%
%TO.N,/half bridges/ENA*%
X151058436Y-83758310D03*
D45*
%TO.P,U601,17,VBOOT*%
%TO.N,Net-(D603-K)*%
X151058436Y-84691690D03*
%TO.P,U601,18,NC*%
%TO.N,GND*%
X151411989Y-85045244D03*
%TO.P,U601,19,OUT2B*%
%TO.N,/current sense/W_IN*%
X151765543Y-85398797D03*
%TO.P,U601,20,VSB*%
%TO.N,Vmot*%
X152119096Y-85752351D03*
%TO.P,U601,21,GND*%
%TO.N,GND*%
X152472649Y-86105904D03*
%TO.P,U601,22,VSA*%
%TO.N,Vmot*%
X152826203Y-86459457D03*
%TO.P,U601,23,OUT2A*%
%TO.N,/current sense/U_IN*%
X153179756Y-86813011D03*
%TO.P,U601,24,VCP*%
%TO.N,Net-(U601-VCP)*%
X153533310Y-87166564D03*
D46*
%TO.P,U601,25,ENA*%
%TO.N,/half bridges/ENA*%
X154466690Y-87166564D03*
%TO.P,U601,26,PROGCLA*%
%TO.N,GND*%
X154820244Y-86813011D03*
%TO.P,U601,27,IN1A*%
%TO.N,/half bridges/IN1A*%
X155173797Y-86459457D03*
%TO.P,U601,28,IN2A*%
%TO.N,/half bridges/IN2A*%
X155527351Y-86105904D03*
%TO.P,U601,29,SENSEA*%
%TO.N,GND*%
X155880904Y-85752351D03*
%TO.P,U601,30,OCDA*%
%TO.N,Net-(D601-K)*%
X156234457Y-85398797D03*
%TO.P,U601,31,OUT1A*%
%TO.N,/current sense/V_IN*%
X156588011Y-85045244D03*
%TO.P,U601,32,NC*%
%TO.N,GND*%
X156941564Y-84691690D03*
D47*
%TO.P,U601,33,EP*%
X154000000Y-84225000D03*
%TD*%
D48*
%TO.P,C601,1*%
%TO.N,Net-(D602-K)*%
X158050000Y-88430000D03*
%TO.P,C601,2*%
%TO.N,Net-(U601-VCP)*%
X158050000Y-87470000D03*
%TD*%
D49*
%TO.P,U501,1,VIN*%
%TO.N,Vmot*%
X154635000Y-93885000D03*
%TO.P,U501,2,EN/UVLO*%
X154635000Y-94385000D03*
%TO.P,U501,3,VCC*%
%TO.N,Net-(U501-VCC)*%
X154635000Y-94885000D03*
%TO.P,U501,4,FB/VOUT*%
%TO.N,Net-(U501-FB{slash}VOUT)*%
X154635000Y-95385000D03*
%TO.P,U501,5,MODE*%
%TO.N,GND*%
X156395000Y-95385000D03*
%TO.P,U501,6,~{RESET}*%
%TO.N,Net-(U501-VCC)*%
X156395000Y-94885000D03*
%TO.P,U501,7,GND*%
%TO.N,GND*%
X156395000Y-94385000D03*
%TO.P,U501,8,LX*%
%TO.N,Net-(U501-LX)*%
X156395000Y-93885000D03*
%TD*%
D50*
%TO.P,U301,1,VBAT*%
%TO.N,unconnected-(U301-VBAT-Pad1)*%
X135464213Y-80664726D03*
%TO.P,U301,2,PC13*%
%TO.N,unconnected-(U301-PC13-Pad2)*%
X135110660Y-81018279D03*
%TO.P,U301,3,PC14*%
%TO.N,unconnected-(U301-PC14-Pad3)*%
X134757106Y-81371833D03*
%TO.P,U301,4,PC15*%
%TO.N,unconnected-(U301-PC15-Pad4)*%
X134403553Y-81725386D03*
%TO.P,U301,5,PF0*%
%TO.N,/mcu/XIN*%
X134050000Y-82078939D03*
%TO.P,U301,6,PF1*%
%TO.N,/mcu/XOUT*%
X133696446Y-82432493D03*
%TO.P,U301,7,PG10*%
%TO.N,/mcu/RESET*%
X133342893Y-82786046D03*
%TO.P,U301,8,PA0*%
%TO.N,/half bridges/IN1B*%
X132989339Y-83139600D03*
%TO.P,U301,9,PA1*%
%TO.N,/half bridges/IN2B*%
X132635786Y-83493153D03*
%TO.P,U301,10,PA2*%
%TO.N,unconnected-(U301-PA2-Pad10)*%
X132282233Y-83846706D03*
%TO.P,U301,11,PA3*%
%TO.N,/current sense/U_SENSE*%
X131928679Y-84200260D03*
%TO.P,U301,12,PA4*%
%TO.N,unconnected-(U301-PA4-Pad12)*%
X131575126Y-84553813D03*
D51*
%TO.P,U301,13,PA5*%
%TO.N,/encoder/SCK*%
X131575126Y-85526085D03*
%TO.P,U301,14,PA6*%
%TO.N,/encoder/CIPO*%
X131928679Y-85879638D03*
%TO.P,U301,15,PA7*%
%TO.N,/encoder/COPI*%
X132282233Y-86233192D03*
%TO.P,U301,16,PC4*%
%TO.N,/encoder/CS*%
X132635786Y-86586745D03*
%TO.P,U301,17,PB0*%
%TO.N,/current sense/W_SENSE*%
X132989339Y-86940298D03*
%TO.P,U301,18,PB1*%
%TO.N,/encoder/CAL_EN*%
X133342893Y-87293852D03*
%TO.P,U301,19,PB2*%
%TO.N,unconnected-(U301-PB2-Pad19)*%
X133696446Y-87647405D03*
%TO.P,U301,20,VREF+*%
%TO.N,+3V3*%
X134050000Y-88000959D03*
%TO.P,U301,21,VDDA*%
X134403553Y-88354512D03*
%TO.P,U301,22,PB10*%
%TO.N,Net-(U301-PB10)*%
X134757106Y-88708065D03*
%TO.P,U301,23,VDD*%
%TO.N,+3V3*%
X135110660Y-89061619D03*
%TO.P,U301,24,PB11*%
%TO.N,Net-(U301-PB11)*%
X135464213Y-89415172D03*
D50*
%TO.P,U301,25,PB12*%
%TO.N,/half bridges/ENA*%
X136436485Y-89415172D03*
%TO.P,U301,26,PB13*%
%TO.N,/current sense/V_SENSE*%
X136790038Y-89061619D03*
%TO.P,U301,27,PB14*%
%TO.N,/mcu/STEP*%
X137143592Y-88708065D03*
%TO.P,U301,28,PB15*%
%TO.N,/mcu/DIR*%
X137497145Y-88354512D03*
%TO.P,U301,29,PC6*%
%TO.N,/mcu/MOT_EN_B*%
X137850698Y-88000959D03*
%TO.P,U301,30,PA8*%
%TO.N,/mcu/MOT_EN_A*%
X138204252Y-87647405D03*
%TO.P,U301,31,PA9*%
%TO.N,/half bridges/IN1A*%
X138557805Y-87293852D03*
%TO.P,U301,32,PA10*%
%TO.N,/half bridges/IN2A*%
X138911359Y-86940298D03*
%TO.P,U301,33,PA11*%
%TO.N,/mcu/USBD_N*%
X139264912Y-86586745D03*
%TO.P,U301,34,PA12*%
%TO.N,/mcu/USBD_P*%
X139618465Y-86233192D03*
%TO.P,U301,35,VDD*%
%TO.N,+3V3*%
X139972019Y-85879638D03*
%TO.P,U301,36,PA13*%
%TO.N,/mcu/SWDIO*%
X140325572Y-85526085D03*
D51*
%TO.P,U301,37,PA14*%
%TO.N,/mcu/SWCLK*%
X140325572Y-84553813D03*
%TO.P,U301,38,PA15*%
%TO.N,unconnected-(U301-PA15-Pad38)*%
X139972019Y-84200260D03*
%TO.P,U301,39,PC10*%
%TO.N,unconnected-(U301-PC10-Pad39)*%
X139618465Y-83846706D03*
%TO.P,U301,40,PC11*%
%TO.N,unconnected-(U301-PC11-Pad40)*%
X139264912Y-83493153D03*
%TO.P,U301,41,PB3*%
%TO.N,/encoder/A*%
X138911359Y-83139600D03*
%TO.P,U301,42,PB4*%
%TO.N,/encoder/B*%
X138557805Y-82786046D03*
%TO.P,U301,43,PB5*%
%TO.N,/encoder/Z*%
X138204252Y-82432493D03*
%TO.P,U301,44,PB6*%
%TO.N,unconnected-(U301-PB6-Pad44)*%
X137850698Y-82078939D03*
%TO.P,U301,45,PB7*%
%TO.N,unconnected-(U301-PB7-Pad45)*%
X137497145Y-81725386D03*
%TO.P,U301,46,PB8*%
%TO.N,/mcu/CAN_TX*%
X137143592Y-81371833D03*
%TO.P,U301,47,PB9*%
%TO.N,/mcu/CAN_RX*%
X136790038Y-81018279D03*
%TO.P,U301,48,VDD*%
%TO.N,+3V3*%
X136436485Y-80664726D03*
D52*
%TO.P,U301,49,VSS*%
%TO.N,GND*%
X135950349Y-85039949D03*
%TD*%
D32*
%TO.P,R503,1*%
%TO.N,Net-(R502-Pad2)*%
X154590000Y-96275000D03*
%TO.P,R503,2*%
%TO.N,GND*%
X154590000Y-97295000D03*
%TD*%
D53*
%TO.P,H101,1,1*%
%TO.N,GND*%
X133300000Y-99975000D03*
X159300000Y-99975000D03*
X133300000Y-73975000D03*
X159300000Y-73975000D03*
%TD*%
D10*
%TO.P,C104,1*%
%TO.N,Vmot*%
X153725000Y-70725000D03*
%TO.P,C104,2*%
%TO.N,GND*%
X155625000Y-70725000D03*
%TD*%
D27*
%TO.P,U702,1,IP+*%
%TO.N,/current sense/V_IN*%
X152300000Y-78475000D03*
%TO.P,U702,2,IP-*%
%TO.N,/current sense/V_OUT*%
X152300000Y-77475000D03*
D28*
%TO.P,U702,5,GND*%
%TO.N,GND*%
X150800000Y-76525000D03*
%TO.P,U702,6,#FAULT*%
%TO.N,unconnected-(U702-#FAULT-Pad6)*%
X150300000Y-76525000D03*
D29*
%TO.P,U702,7,NC*%
%TO.N,GND*%
X149600000Y-77225000D03*
%TO.P,U702,8,NC*%
X149600000Y-77725000D03*
%TO.P,U702,9,NC*%
X149600000Y-78225000D03*
%TO.P,U702,10,NC*%
X149600000Y-78725000D03*
D28*
%TO.P,U702,11,VIOUT*%
%TO.N,/current sense/V_SENSE*%
X150300000Y-79425000D03*
%TO.P,U702,12,VCC*%
%TO.N,+3V3*%
X150800000Y-79425000D03*
%TD*%
D25*
%TO.P,C702,1*%
%TO.N,/current sense/V_SENSE*%
X150580000Y-80500000D03*
%TO.P,C702,2*%
%TO.N,GND*%
X149620000Y-80500000D03*
%TD*%
D34*
%TO.P,C105,1*%
%TO.N,GND*%
X155625000Y-74800000D03*
%TO.P,C105,2*%
%TO.N,Vmot*%
X153725000Y-74800000D03*
%TD*%
D13*
%TO.P,R505,1*%
%TO.N,Net-(D502-A)*%
X155640000Y-79975000D03*
%TO.P,R505,2*%
%TO.N,Net-(Q501-B)*%
X156660000Y-79975000D03*
%TD*%
D24*
%TO.P,C303,1*%
%TO.N,+3V3*%
X133139411Y-88760589D03*
%TO.P,C303,2*%
%TO.N,GND*%
X132460589Y-89439411D03*
%TD*%
D54*
%TO.P,Y301,1,1*%
%TO.N,/mcu/XIN*%
X132000000Y-78520000D03*
%TO.P,Y301,2,2*%
%TO.N,GND*%
X130444365Y-80075635D03*
%TO.P,Y301,3,3*%
%TO.N,/mcu/XOUT*%
X131646446Y-81277716D03*
%TO.P,Y301,4,4*%
%TO.N,GND*%
X133202081Y-79722081D03*
%TD*%
D31*
%TO.P,FID101,*%
%TO.N,*%
X129900000Y-76200000D03*
%TD*%
D44*
%TO.P,D602,1,K*%
%TO.N,Net-(D602-K)*%
X160500000Y-91900000D03*
%TO.P,D602,2,A*%
%TO.N,Vmot*%
X158400000Y-91900000D03*
%TD*%
D55*
%TO.P,J101,1,Pin_1*%
%TO.N,Vmot*%
X153525000Y-101700000D03*
D56*
%TO.P,J101,2,Pin_2*%
%TO.N,GND*%
X151025000Y-101700000D03*
%TO.P,J101,3,Pin_3*%
%TO.N,/mcu/CANL*%
X148525000Y-101700000D03*
%TO.P,J101,4,Pin_4*%
%TO.N,/mcu/CANH*%
X146025000Y-101700000D03*
%TD*%
D57*
%TO.P,U401,1,U*%
%TO.N,unconnected-(U401-U-Pad1)*%
X144025000Y-89750000D03*
%TO.P,U401,2,V*%
%TO.N,unconnected-(U401-V-Pad2)*%
X144675000Y-89750000D03*
%TO.P,U401,3,W*%
%TO.N,unconnected-(U401-W-Pad3)*%
X145325000Y-89750000D03*
%TO.P,U401,4,CAL_EN*%
%TO.N,/encoder/CAL_EN*%
X145975000Y-89750000D03*
%TO.P,U401,5,MISO*%
%TO.N,/encoder/CIPO*%
X146625000Y-89750000D03*
%TO.P,U401,6,MOSI*%
%TO.N,/encoder/COPI*%
X147275000Y-89750000D03*
%TO.P,U401,7,SCK*%
%TO.N,/encoder/SCK*%
X147925000Y-89750000D03*
%TO.P,U401,8,CSN*%
%TO.N,/encoder/CS*%
X148575000Y-89750000D03*
%TO.P,U401,9,VDD*%
%TO.N,+3V3*%
X148575000Y-84200000D03*
%TO.P,U401,10,PWM_OUT*%
%TO.N,unconnected-(U401-PWM_OUT-Pad10)*%
X147925000Y-84200000D03*
%TO.P,U401,11,TEST*%
%TO.N,unconnected-(U401-TEST-Pad11)*%
X147275000Y-84200000D03*
%TO.P,U401,12,VSS*%
%TO.N,GND*%
X146625000Y-84200000D03*
%TO.P,U401,13,TEST_EN*%
%TO.N,unconnected-(U401-TEST_EN-Pad13)*%
X145975000Y-84200000D03*
%TO.P,U401,14,Z*%
%TO.N,/encoder/Z*%
X145325000Y-84200000D03*
%TO.P,U401,15,B*%
%TO.N,/encoder/B*%
X144675000Y-84200000D03*
%TO.P,U401,16,A*%
%TO.N,/encoder/A*%
X144025000Y-84200000D03*
%TD*%
D31*
%TO.P,FID103,*%
%TO.N,*%
X162500000Y-76650000D03*
%TD*%
D34*
%TO.P,C108,1*%
%TO.N,Vmot*%
X153275000Y-94650000D03*
%TO.P,C108,2*%
%TO.N,GND*%
X151375000Y-94650000D03*
%TD*%
D30*
%TO.P,C502,1*%
%TO.N,Net-(U501-VCC)*%
X157665000Y-94380000D03*
%TO.P,C502,2*%
%TO.N,GND*%
X157665000Y-95340000D03*
%TD*%
D58*
%TO.P,D603,1,K*%
%TO.N,Net-(D603-K)*%
X158400000Y-89900000D03*
%TO.P,D603,2,A*%
%TO.N,Net-(D602-K)*%
X160500000Y-89900000D03*
%TD*%
D34*
%TO.P,C501,1*%
%TO.N,Vmot*%
X153275000Y-96725000D03*
%TO.P,C501,2*%
%TO.N,GND*%
X151375000Y-96725000D03*
%TD*%
D59*
%TO.P,JP101,1,A*%
%TO.N,/mcu/CANH*%
X150750000Y-91275000D03*
D60*
%TO.P,JP101,2,B*%
%TO.N,Net-(JP101-B)*%
X152050000Y-91275000D03*
%TD*%
D61*
%TO.P,R306,1*%
%TO.N,+3V3*%
X135360624Y-78235624D03*
%TO.P,R306,2*%
%TO.N,/mcu/RESET*%
X134639376Y-77514376D03*
%TD*%
D16*
%TO.P,R104,1*%
%TO.N,/mcu/CANL*%
X151250000Y-89535000D03*
%TO.P,R104,2*%
%TO.N,/mcu/DIR*%
X151250000Y-88515000D03*
%TD*%
D62*
%TO.P,R504,1*%
%TO.N,Vmot*%
X161800000Y-79875000D03*
%TO.P,R504,2*%
%TO.N,Net-(Q501-C)*%
X161800000Y-78225000D03*
%TD*%
D39*
%TO.P,C306,1*%
%TO.N,/mcu/XOUT*%
X130839411Y-82664411D03*
%TO.P,C306,2*%
%TO.N,GND*%
X130160589Y-81985589D03*
%TD*%
D34*
%TO.P,C107,1*%
%TO.N,GND*%
X155625000Y-72750000D03*
%TO.P,C107,2*%
%TO.N,Vmot*%
X153725000Y-72750000D03*
%TD*%
D27*
%TO.P,U701,1,IP+*%
%TO.N,/current sense/U_IN*%
X142350000Y-78425000D03*
%TO.P,U701,2,IP-*%
%TO.N,/current sense/U_OUT*%
X142350000Y-77425000D03*
D28*
%TO.P,U701,5,GND*%
%TO.N,GND*%
X140850000Y-76475000D03*
%TO.P,U701,6,#FAULT*%
%TO.N,unconnected-(U701-#FAULT-Pad6)*%
X140350000Y-76475000D03*
D29*
%TO.P,U701,7,NC*%
%TO.N,GND*%
X139650000Y-77175000D03*
%TO.P,U701,8,NC*%
X139650000Y-77675000D03*
%TO.P,U701,9,NC*%
X139650000Y-78175000D03*
%TO.P,U701,10,NC*%
X139650000Y-78675000D03*
D28*
%TO.P,U701,11,VIOUT*%
%TO.N,/current sense/U_SENSE*%
X140350000Y-79375000D03*
%TO.P,U701,12,VCC*%
%TO.N,+3V3*%
X140850000Y-79375000D03*
%TD*%
D63*
%TO.N,GND*%
X143584500Y-78225000D03*
X153975000Y-84225000D03*
X142060500Y-86975000D03*
X159950000Y-85100000D03*
X156400000Y-81575000D03*
X154100000Y-90525000D03*
X161875000Y-87350000D03*
X146625000Y-88050000D03*
X148824500Y-78225000D03*
X130700000Y-80025000D03*
D64*
X156400000Y-94375000D03*
D63*
X162125000Y-90250000D03*
X135925000Y-86300000D03*
X161900000Y-86100000D03*
X153975000Y-85250000D03*
X159925000Y-80375000D03*
X137175000Y-85000000D03*
X135925000Y-85025000D03*
X157150000Y-82200000D03*
X146625000Y-85900000D03*
X135925000Y-83825000D03*
X159950000Y-82800000D03*
X134650000Y-85000000D03*
X154975000Y-84250000D03*
X159950000Y-83950000D03*
X133200000Y-79700000D03*
X157875000Y-82850000D03*
D64*
X157675000Y-95350000D03*
X155525000Y-95375000D03*
D63*
X147300000Y-92625000D03*
X152925000Y-84175000D03*
X138675000Y-78175000D03*
X145975000Y-94400000D03*
X145575000Y-87025000D03*
X147750000Y-87025000D03*
X140904600Y-93350500D03*
X154000000Y-83200000D03*
X146625000Y-86950000D03*
X159950000Y-81600000D03*
%TO.N,Vmot*%
X132150000Y-94150000D03*
X150200000Y-86325000D03*
X139000000Y-70700000D03*
X161925000Y-82200000D03*
X150850000Y-86975000D03*
X153725000Y-74775000D03*
X153750000Y-72700000D03*
X156250000Y-90950000D03*
X155325000Y-91350000D03*
X151750000Y-86800000D03*
X138975000Y-74750000D03*
X139000000Y-72750000D03*
X156150000Y-91975000D03*
X153725000Y-70725000D03*
X161950000Y-83375000D03*
D65*
%TO.N,/mcu/USBD_P*%
X137500000Y-96625000D03*
X136650000Y-95825000D03*
D63*
%TO.N,+3V3*%
X134550500Y-90189528D03*
X162200000Y-93700000D03*
X162200000Y-94575000D03*
X140050000Y-103600000D03*
X140850000Y-78425000D03*
X162150000Y-92100000D03*
X136084756Y-77651472D03*
X148575000Y-85725000D03*
X131015734Y-89634266D03*
X162175000Y-95425000D03*
X150800000Y-78450000D03*
X141374500Y-87925000D03*
X145550000Y-78475000D03*
X146000000Y-95675000D03*
D65*
%TO.N,/mcu/RESET*%
X143300000Y-92150000D03*
X130225000Y-84175000D03*
X133250000Y-77775000D03*
%TO.N,/current sense/U_SENSE*%
X131225000Y-83575000D03*
X139675000Y-79350000D03*
%TO.N,/current sense/V_SENSE*%
X146175000Y-82950000D03*
X137425000Y-89725000D03*
X147225000Y-81900000D03*
X149675000Y-79450000D03*
%TO.N,/current sense/W_SENSE*%
X132175000Y-87750000D03*
X138575000Y-81650000D03*
X142425000Y-81350000D03*
X144375000Y-79400000D03*
D63*
%TO.N,/usb/USB_5V*%
X136221584Y-97995447D03*
X135074342Y-96842749D03*
X139022580Y-95565784D03*
X141575000Y-95875000D03*
X131000000Y-94950000D03*
X137925000Y-94025000D03*
%TO.N,Net-(D603-K)*%
X152862435Y-88183615D03*
X150575000Y-84225000D03*
D65*
%TO.N,Net-(D601-K)*%
X151805811Y-81930811D03*
X156225000Y-87175000D03*
%TO.N,/half bridges/ENA*%
X154150000Y-87900000D03*
X150525000Y-83225000D03*
X139925000Y-88400000D03*
%TO.N,/encoder/SCK*%
X147450000Y-91350000D03*
X130625000Y-87275000D03*
%TO.N,/encoder/CIPO*%
X131025000Y-87775000D03*
X146050000Y-91325000D03*
%TO.N,/encoder/COPI*%
X146775000Y-91350000D03*
X131450000Y-88300000D03*
%TO.N,/encoder/CS*%
X148150000Y-91350000D03*
X132073766Y-87148766D03*
%TO.N,/encoder/CAL_EN*%
X132525000Y-88150000D03*
X145325000Y-91350000D03*
%TO.N,/mcu/CAN_TX*%
X140950000Y-83750000D03*
X138050000Y-80825000D03*
%TO.N,/mcu/CAN_RX*%
X137600000Y-80425000D03*
X141350000Y-83325000D03*
%TO.N,/half bridges/IN2B*%
X150950000Y-82825000D03*
X131750000Y-83075000D03*
%TO.N,/half bridges/IN1A*%
X155400000Y-87950000D03*
X139215802Y-87973175D03*
%TO.N,/half bridges/IN2A*%
X139650000Y-87678939D03*
X155825000Y-87525000D03*
%TO.N,/half bridges/IN1B*%
X132125000Y-82675000D03*
X151425000Y-82400000D03*
%TO.N,/mcu/DIR*%
X150750000Y-90050000D03*
X138850000Y-88825000D03*
%TO.N,/mcu/STEP*%
X138525000Y-89275000D03*
X149525000Y-90050000D03*
%TD*%
D66*
%TO.N,GND*%
X152575000Y-84225000D02*
X153975000Y-84225000D01*
X151375000Y-94650000D02*
X151375000Y-96725000D01*
X132460589Y-89439411D02*
X132435589Y-89439411D01*
X153975000Y-84225000D02*
X154000000Y-84225000D01*
X145550000Y-76525000D02*
X145550000Y-77059620D01*
X155880904Y-85752351D02*
X154353553Y-84225000D01*
X153300000Y-83171447D02*
X153300000Y-83175000D01*
X155060660Y-84225000D02*
X154000000Y-84225000D01*
X152472649Y-86105904D02*
X154000000Y-84578553D01*
X132775000Y-91978939D02*
X133885589Y-90868350D01*
X154000000Y-82825000D02*
X154000000Y-84225000D01*
X153975000Y-86025000D02*
X153975000Y-85967767D01*
X153950000Y-82775000D02*
X154000000Y-82825000D01*
X155525000Y-95375000D02*
X156385000Y-95375000D01*
X150134620Y-77725000D02*
X149600000Y-77725000D01*
X153303553Y-83175000D02*
X154000000Y-83871447D01*
D67*
X143675000Y-79575000D02*
X143675000Y-79112500D01*
D66*
X147300000Y-92625000D02*
X147790000Y-93115000D01*
X140500000Y-98850000D02*
X141635000Y-98850000D01*
X154000000Y-85750000D02*
X154000000Y-84225000D01*
X141635000Y-98850000D02*
X142125000Y-98360000D01*
X154353553Y-84225000D02*
X154000000Y-84225000D01*
X141864760Y-85725538D02*
X142060500Y-85921278D01*
X161720000Y-96650000D02*
X161720000Y-97170000D01*
X134535913Y-94860913D02*
X133842948Y-95553878D01*
X153300000Y-83175000D02*
X153303553Y-83175000D01*
X144884620Y-77725000D02*
X144350000Y-77725000D01*
X142060500Y-85921278D02*
X142060500Y-86975000D01*
X153179756Y-81636989D02*
X154000000Y-82457233D01*
D67*
X143973430Y-80513857D02*
X143675000Y-80215427D01*
X149620000Y-80500000D02*
X149275000Y-80500000D01*
D66*
X156385000Y-95375000D02*
X156395000Y-95385000D01*
X144350000Y-78225000D02*
X143584500Y-78225000D01*
X149600000Y-78225000D02*
X148824500Y-78225000D01*
X154032233Y-86025000D02*
X153975000Y-86025000D01*
X130600000Y-91275000D02*
X130275000Y-91275000D01*
X133842948Y-95553878D02*
X133842948Y-96048852D01*
X157655000Y-95350000D02*
X157675000Y-95350000D01*
X155527351Y-82344096D02*
X154000000Y-83871447D01*
X142775000Y-103700000D02*
X142725000Y-103750000D01*
D67*
X148925000Y-80150000D02*
X148925000Y-79100000D01*
D66*
X156474874Y-84225000D02*
X155525000Y-84225000D01*
X155475000Y-84225000D02*
X154000000Y-84225000D01*
X151411989Y-85045244D02*
X152232233Y-84225000D01*
X154000000Y-82625000D02*
X154000000Y-84225000D01*
X133200000Y-79050000D02*
X133200000Y-79700000D01*
X155475000Y-84225000D02*
X155450000Y-84250000D01*
X147790000Y-93115000D02*
X149325000Y-93115000D01*
X154000000Y-82725000D02*
X153950000Y-82775000D01*
X155500000Y-84200000D02*
X155475000Y-84225000D01*
X140634620Y-77225000D02*
X140600000Y-77225000D01*
X137237061Y-99442965D02*
X139907035Y-99442965D01*
X156234457Y-83051203D02*
X155060660Y-84225000D01*
X157675000Y-95330000D02*
X157665000Y-95340000D01*
D67*
X143675000Y-80215427D02*
X143675000Y-79575000D01*
D66*
X140442830Y-102942830D02*
X140442830Y-102556006D01*
X132435589Y-89439411D02*
X130600000Y-91275000D01*
X140150000Y-77675000D02*
X139650000Y-77675000D01*
X150800000Y-77059620D02*
X150134620Y-77725000D01*
X142180000Y-87094500D02*
X142060500Y-86975000D01*
X139591726Y-97583274D02*
X140277620Y-96897380D01*
X131075000Y-92075000D02*
X130275000Y-91275000D01*
X155173797Y-81990543D02*
X154000000Y-83164340D01*
X142180000Y-90875000D02*
X142180000Y-87094500D01*
X161720000Y-97170000D02*
X162250000Y-97700000D01*
X145550000Y-77059620D02*
X144884620Y-77725000D01*
X161720000Y-96650000D02*
X161720000Y-97555000D01*
X139907035Y-99442965D02*
X140500000Y-98850000D01*
X154000000Y-85992767D02*
X154000000Y-85800000D01*
D67*
X144340000Y-80513857D02*
X143973430Y-80513857D01*
X148925000Y-79100000D02*
X149300000Y-78725000D01*
X143675000Y-79575000D02*
X143641095Y-79575000D01*
X144062500Y-78725000D02*
X144350000Y-78725000D01*
D66*
X153975000Y-85967767D02*
X154000000Y-85992767D01*
X140600000Y-77225000D02*
X140150000Y-77675000D01*
X154466690Y-81283436D02*
X154000000Y-81750126D01*
X140850000Y-76475000D02*
X140850000Y-77009620D01*
X155880904Y-82697649D02*
X154353553Y-84225000D01*
X133910589Y-78235589D02*
X133910589Y-78339411D01*
X157620000Y-95385000D02*
X157655000Y-95350000D01*
X152232233Y-84225000D02*
X152575000Y-84225000D01*
X156941564Y-83758310D02*
X156474874Y-84225000D01*
D67*
X149275000Y-80500000D02*
X148925000Y-80150000D01*
D66*
X154820244Y-86813011D02*
X154032233Y-86025000D01*
X150800000Y-76525000D02*
X150800000Y-77059620D01*
D67*
X143675000Y-79112500D02*
X144062500Y-78725000D01*
D66*
X144375000Y-94385000D02*
X145960000Y-94385000D01*
X135702639Y-93694187D02*
X136388533Y-93008293D01*
X154000000Y-83164340D02*
X154000000Y-84225000D01*
X132775000Y-92000000D02*
X132775000Y-91978939D01*
X155767767Y-84225000D02*
X155475000Y-84225000D01*
X161720000Y-97555000D02*
X159300000Y-99975000D01*
X132700000Y-92075000D02*
X131075000Y-92075000D01*
X156395000Y-95385000D02*
X157620000Y-95385000D01*
X132775000Y-92000000D02*
X132700000Y-92075000D01*
X154000000Y-81750126D02*
X154000000Y-82725000D01*
X138760000Y-91840000D02*
X139220000Y-91380000D01*
X154000000Y-82457233D02*
X154000000Y-82625000D01*
X138425000Y-98750000D02*
X137732035Y-99442965D01*
X154820244Y-81636989D02*
X154000000Y-82457233D01*
X139650000Y-78175000D02*
X138675000Y-78175000D01*
X133910589Y-78339411D02*
X133200000Y-79050000D01*
X153975000Y-85775000D02*
X154000000Y-85750000D01*
X157675000Y-95350000D02*
X157675000Y-95330000D01*
X155525000Y-84225000D02*
X155500000Y-84200000D01*
X140900000Y-93345900D02*
X140900000Y-92337500D01*
X156941564Y-84691690D02*
X156474874Y-84225000D01*
X140904600Y-93350500D02*
X140900000Y-93345900D01*
X139220000Y-91380000D02*
X139220000Y-90875000D01*
X137732035Y-99442965D02*
X137237061Y-99442965D01*
X154000000Y-83871447D02*
X154000000Y-84225000D01*
X154000000Y-84578553D02*
X154000000Y-84225000D01*
X156588011Y-83404756D02*
X155767767Y-84225000D01*
X142725000Y-103750000D02*
X141250000Y-103750000D01*
X141250000Y-103750000D02*
X140442830Y-102942830D01*
X152472649Y-82344096D02*
X153300000Y-83171447D01*
X155425000Y-84225000D02*
X154000000Y-84225000D01*
X154590000Y-97295000D02*
X154590000Y-97390000D01*
X136388533Y-93008293D02*
X136883507Y-93008293D01*
X154000000Y-85800000D02*
X153975000Y-85775000D01*
X151411989Y-83404756D02*
X152232233Y-84225000D01*
X140850000Y-77009620D02*
X140634620Y-77225000D01*
D67*
X149300000Y-78725000D02*
X149600000Y-78725000D01*
D66*
X154590000Y-97390000D02*
X155700000Y-98500000D01*
X145960000Y-94385000D02*
X145975000Y-94400000D01*
X155450000Y-84250000D02*
X155425000Y-84225000D01*
X140277620Y-96897380D02*
X140277620Y-96402406D01*
X146625000Y-84200000D02*
X146625000Y-85775000D01*
%TO.N,Vmot*%
X139000000Y-72750000D02*
X138975000Y-72750000D01*
X132175000Y-94175000D02*
X132150000Y-94150000D01*
X153725000Y-72725000D02*
X153725000Y-72750000D01*
X138975000Y-74750000D02*
X138975000Y-74800000D01*
X161925000Y-82200000D02*
X161800000Y-82325000D01*
X132175000Y-94950000D02*
X132175000Y-94175000D01*
X154100000Y-75175000D02*
X153725000Y-74800000D01*
X153725000Y-74775000D02*
X153725000Y-74800000D01*
X161800000Y-82750000D02*
X161900000Y-82850000D01*
X153725000Y-70725000D02*
X153725000Y-72675000D01*
X139000000Y-70700000D02*
X139000000Y-72750000D01*
X161800000Y-82325000D02*
X161800000Y-82750000D01*
X161800000Y-79875000D02*
X161800000Y-82075000D01*
X161800000Y-82075000D02*
X161925000Y-82200000D01*
X153725000Y-72675000D02*
X153750000Y-72700000D01*
X154100000Y-76475000D02*
X154100000Y-75175000D01*
X153750000Y-72700000D02*
X153725000Y-72725000D01*
X138975000Y-70725000D02*
X139000000Y-70700000D01*
X153725000Y-72750000D02*
X153725000Y-74775000D01*
X138975000Y-72750000D02*
X138975000Y-74750000D01*
D68*
%TO.N,/mcu/USBD_P*%
X136657233Y-96982233D02*
X136989466Y-96650000D01*
X137082360Y-95850000D02*
X137470406Y-95461954D01*
X140260140Y-98239860D02*
X142425000Y-96075000D01*
X137678858Y-96625000D02*
X139293718Y-98239860D01*
X142425000Y-95187500D02*
X141850000Y-94612500D01*
X141850000Y-94612500D02*
X141850000Y-92337500D01*
X142425000Y-96075000D02*
X142425000Y-95187500D01*
X137500000Y-96625000D02*
X137678858Y-96625000D01*
X141850000Y-91950000D02*
X141850000Y-92337500D01*
X140725000Y-87339727D02*
X140725000Y-90380000D01*
X140725000Y-90380000D02*
X141220000Y-90875000D01*
X136989466Y-96650000D02*
X137475000Y-96650000D01*
X136650000Y-95850000D02*
X137082360Y-95850000D01*
X139293718Y-98239860D02*
X140260140Y-98239860D01*
X141220000Y-91320000D02*
X141850000Y-91950000D01*
X137475000Y-96650000D02*
X137525000Y-96600000D01*
X139618465Y-86233192D02*
X140725000Y-87339727D01*
X141220000Y-90875000D02*
X141220000Y-91320000D01*
D66*
%TO.N,+3V3*%
X162200000Y-94550000D02*
X162225000Y-94525000D01*
X160415000Y-96335000D02*
X162175000Y-94575000D01*
X133134030Y-88755208D02*
X131894792Y-88755208D01*
X162875000Y-88925000D02*
X163175000Y-89225000D01*
X134589411Y-78914411D02*
X134796248Y-79121248D01*
X162125000Y-93625000D02*
X162200000Y-93700000D01*
X134564411Y-90189528D02*
X134550500Y-90189528D01*
X134564411Y-89607868D02*
X134564411Y-90189528D01*
X133290370Y-88760589D02*
X134050000Y-88000959D01*
X131894792Y-88755208D02*
X131015734Y-89634266D01*
X140496741Y-86404360D02*
X141185938Y-86404360D01*
X157700000Y-96335000D02*
X160415000Y-96335000D01*
X145980000Y-95655000D02*
X146000000Y-95675000D01*
X134686170Y-78914411D02*
X134589411Y-78914411D01*
X140850000Y-79375000D02*
X140850000Y-78425000D01*
X136436485Y-80664726D02*
X134686170Y-78914411D01*
X162125000Y-92125000D02*
X162125000Y-93625000D01*
X150800000Y-79425000D02*
X150800000Y-78450000D01*
X145550000Y-79425000D02*
X145550000Y-78475000D01*
X162200000Y-94575000D02*
X162200000Y-94550000D01*
X140050000Y-103600000D02*
X138508836Y-103600000D01*
X141185938Y-87736438D02*
X141185938Y-86404360D01*
X162175000Y-94575000D02*
X162200000Y-94575000D01*
X144375000Y-95655000D02*
X145980000Y-95655000D01*
X134403553Y-88354512D02*
X134050000Y-88000959D01*
X133139411Y-88760589D02*
X133290370Y-88760589D01*
X163175000Y-89225000D02*
X163175000Y-91075000D01*
X135110660Y-89061619D02*
X134564411Y-89607868D01*
X162680000Y-96650000D02*
X162680000Y-95930000D01*
X135500604Y-78235624D02*
X136084756Y-77651472D01*
X135360624Y-78235624D02*
X135500604Y-78235624D01*
X162680000Y-95930000D02*
X162175000Y-95425000D01*
X134589411Y-78914411D02*
X134681837Y-78914411D01*
X138508836Y-103600000D02*
X137949497Y-103040661D01*
X163175000Y-91075000D02*
X162125000Y-92125000D01*
X139972019Y-85879638D02*
X140496741Y-86404360D01*
X141374500Y-87925000D02*
X141185938Y-87736438D01*
X162675000Y-88925000D02*
X162875000Y-88925000D01*
X133139411Y-88760589D02*
X133134030Y-88755208D01*
X148575000Y-84200000D02*
X148575000Y-85725000D01*
X134681837Y-78914411D02*
X135360624Y-78235624D01*
D68*
%TO.N,/mcu/RESET*%
X135310589Y-76989411D02*
X135460589Y-76989411D01*
X134639376Y-77514376D02*
X134928752Y-77225000D01*
X132004663Y-82145337D02*
X132702184Y-82145337D01*
X143300000Y-92487500D02*
X143300000Y-92100000D01*
X139196164Y-102798333D02*
X140102119Y-101892378D01*
X134619184Y-77534568D02*
X134639376Y-77514376D01*
X130225000Y-84175000D02*
X130225000Y-83925000D01*
X135075000Y-77225000D02*
X135310589Y-76989411D01*
X133510624Y-77514376D02*
X133250000Y-77775000D01*
X141432622Y-101892378D02*
X143100000Y-100225000D01*
X140102119Y-101892378D02*
X141432622Y-101892378D01*
X132702184Y-82145337D02*
X133342893Y-82786046D01*
X130225000Y-83925000D02*
X132004663Y-82145337D01*
X143100000Y-100225000D02*
X143100000Y-92687500D01*
X143100000Y-92687500D02*
X143300000Y-92487500D01*
X134639376Y-77514376D02*
X133510624Y-77514376D01*
X134928752Y-77225000D02*
X135075000Y-77225000D01*
%TO.N,/mcu/XIN*%
X132000000Y-80028939D02*
X134050000Y-82078939D01*
X131245000Y-78520000D02*
X130645000Y-77920000D01*
X132000000Y-78520000D02*
X132000000Y-80028939D01*
X130645000Y-77920000D02*
X130550000Y-77920000D01*
X132000000Y-78520000D02*
X131245000Y-78520000D01*
%TO.N,/mcu/XOUT*%
X131646446Y-81853554D02*
X131646446Y-81277716D01*
X130839411Y-82664411D02*
X130839411Y-82660589D01*
X130839411Y-82660589D02*
X131646446Y-81853554D01*
X132541669Y-81277716D02*
X133696446Y-82432493D01*
X131646446Y-81277716D02*
X132541669Y-81277716D01*
D69*
%TO.N,/current sense/U_IN*%
X142350000Y-79597533D02*
X142350000Y-78425000D01*
X152225000Y-87775000D02*
X150350000Y-87775000D01*
X145825000Y-81225000D02*
X145823857Y-81223857D01*
X145823857Y-81223857D02*
X143976324Y-81223857D01*
D67*
X152425000Y-87575000D02*
X152425000Y-87567767D01*
X152425000Y-87567767D02*
X153179756Y-86813011D01*
D69*
X149375000Y-82764212D02*
X147835788Y-81225000D01*
X149375000Y-86800000D02*
X149375000Y-82764212D01*
X147835788Y-81225000D02*
X145825000Y-81225000D01*
X150350000Y-87775000D02*
X149375000Y-86800000D01*
X152425000Y-87575000D02*
X152225000Y-87775000D01*
X143976324Y-81223857D02*
X142350000Y-79597533D01*
%TO.N,/current sense/V_IN*%
X158800000Y-82150000D02*
X158800000Y-85100000D01*
X152935000Y-78475000D02*
X155110000Y-80650000D01*
X155110000Y-80650000D02*
X157300000Y-80650000D01*
X158800000Y-85100000D02*
X158275000Y-85625000D01*
D67*
X157167767Y-85625000D02*
X157225000Y-85625000D01*
X156588011Y-85045244D02*
X157167767Y-85625000D01*
D69*
X157300000Y-80650000D02*
X158800000Y-82150000D01*
X158275000Y-85625000D02*
X157225000Y-85625000D01*
X152300000Y-78475000D02*
X152935000Y-78475000D01*
%TO.N,/current sense/W_IN*%
X150841536Y-85725000D02*
X150925000Y-85725000D01*
X149875000Y-84758464D02*
X150841536Y-85725000D01*
X149875000Y-82557106D02*
X149875000Y-84758464D01*
X147050000Y-78475000D02*
X147050000Y-79732106D01*
D67*
X151765543Y-85398797D02*
X151439340Y-85725000D01*
X151439340Y-85725000D02*
X150925000Y-85725000D01*
D69*
X147050000Y-79732106D02*
X149875000Y-82557106D01*
D68*
%TO.N,Net-(U501-VCC)*%
X156395000Y-94885000D02*
X157160000Y-94885000D01*
X154635000Y-94885000D02*
X156395000Y-94885000D01*
X157160000Y-94885000D02*
X157665000Y-94380000D01*
D67*
%TO.N,Net-(D602-K)*%
X160500000Y-91900000D02*
X160500000Y-89900000D01*
X159520000Y-89900000D02*
X160500000Y-89900000D01*
X158050000Y-88430000D02*
X159520000Y-89900000D01*
%TO.N,Net-(U601-VCP)*%
X157120000Y-88400000D02*
X153925000Y-88400000D01*
X158050000Y-87470000D02*
X157120000Y-88400000D01*
X153325000Y-87800000D02*
X153325000Y-87374874D01*
X153325000Y-87374874D02*
X153533310Y-87166564D01*
X153925000Y-88400000D02*
X153325000Y-87800000D01*
D68*
%TO.N,/current sense/U_SENSE*%
X140350000Y-80225000D02*
X140350000Y-79375000D01*
X139700000Y-79375000D02*
X139675000Y-79350000D01*
X140600000Y-80475000D02*
X140350000Y-80225000D01*
X140350000Y-79375000D02*
X139700000Y-79375000D01*
X131303419Y-83575000D02*
X131928679Y-84200260D01*
X131225000Y-83575000D02*
X131303419Y-83575000D01*
%TO.N,/current sense/V_SENSE*%
X137425000Y-89725000D02*
X137425000Y-89696581D01*
X146175000Y-82950000D02*
X147225000Y-81900000D01*
X150300000Y-80220000D02*
X150300000Y-79425000D01*
X137425000Y-89696581D02*
X136790038Y-89061619D01*
X150580000Y-80500000D02*
X150300000Y-80220000D01*
X150300000Y-79425000D02*
X149700000Y-79425000D01*
%TO.N,/current sense/W_SENSE*%
X132984702Y-86940298D02*
X132200000Y-87725000D01*
X142125000Y-81650000D02*
X138575000Y-81650000D01*
X145050000Y-80263857D02*
X145050000Y-79425000D01*
X145300000Y-80513857D02*
X145050000Y-80263857D01*
X132989339Y-86940298D02*
X132984702Y-86940298D01*
X144350000Y-79425000D02*
X144325000Y-79400000D01*
X145050000Y-79425000D02*
X144400000Y-79425000D01*
X142425000Y-81350000D02*
X142125000Y-81650000D01*
D66*
%TO.N,/usb/USB_5V*%
X139022580Y-95565784D02*
X139022580Y-96031100D01*
X130075000Y-94950000D02*
X131000000Y-94950000D01*
X136609787Y-97995447D02*
X136681713Y-98067373D01*
X140900000Y-95200000D02*
X140900000Y-94612500D01*
X136221584Y-97995447D02*
X136609787Y-97995447D01*
X141575000Y-95875000D02*
X140900000Y-95200000D01*
X137925000Y-94025000D02*
X137493146Y-94025000D01*
X137493146Y-94025000D02*
X136763299Y-94754847D01*
X135074342Y-96443804D02*
X135596573Y-95921573D01*
X135074342Y-96842749D02*
X135074342Y-96443804D01*
X139022580Y-96031100D02*
X138531066Y-96522614D01*
X136681713Y-98067373D02*
X136986307Y-98067373D01*
X136986307Y-98067373D02*
X137364340Y-97689340D01*
D68*
%TO.N,Net-(D301-A)*%
X132050000Y-91275000D02*
X131850000Y-91275000D01*
X133139376Y-90185624D02*
X132050000Y-91275000D01*
%TO.N,Net-(D302-A)*%
X134553752Y-91621248D02*
X133250000Y-92925000D01*
X133250000Y-92925000D02*
X131850000Y-92925000D01*
%TO.N,/mcu/CANH*%
X149595686Y-94385000D02*
X149325000Y-94385000D01*
X147575000Y-100150000D02*
X147575000Y-95150000D01*
X150750000Y-93230686D02*
X149595686Y-94385000D01*
X150750000Y-91275000D02*
X150750000Y-93230686D01*
X147575000Y-95150000D02*
X148340000Y-94385000D01*
X146025000Y-101700000D02*
X147575000Y-100150000D01*
X149975000Y-89785000D02*
X150225000Y-89535000D01*
X148340000Y-94385000D02*
X149325000Y-94385000D01*
X149975000Y-90500000D02*
X149975000Y-89785000D01*
X150750000Y-91275000D02*
X149975000Y-90500000D01*
%TO.N,/mcu/CANL*%
X148275000Y-95655000D02*
X149325000Y-95655000D01*
X152878050Y-93545000D02*
X153050000Y-93373050D01*
X151985000Y-89535000D02*
X151250000Y-89535000D01*
X148525000Y-101700000D02*
X147950000Y-101125000D01*
X151605000Y-93075000D02*
X152075000Y-93545000D01*
X151335000Y-93075000D02*
X151605000Y-93075000D01*
X150575000Y-95305000D02*
X150575000Y-93835000D01*
X147950000Y-101125000D02*
X147950000Y-95980000D01*
X153050000Y-93373050D02*
X153050000Y-90600000D01*
X149325000Y-95655000D02*
X150225000Y-95655000D01*
X153050000Y-90600000D02*
X151985000Y-89535000D01*
X147950000Y-95980000D02*
X148275000Y-95655000D01*
X150575000Y-93835000D02*
X151335000Y-93075000D01*
X152075000Y-93545000D02*
X152878050Y-93545000D01*
X150225000Y-95655000D02*
X150575000Y-95305000D01*
%TO.N,/mcu/SWDIO*%
X138641530Y-100859634D02*
X139432524Y-100859634D01*
X142710000Y-91206544D02*
X142710000Y-85460000D01*
X140942158Y-99350000D02*
X142167158Y-99350000D01*
X142700000Y-98817158D02*
X142700000Y-91216544D01*
X142700000Y-91216544D02*
X142710000Y-91206544D01*
X142167158Y-99350000D02*
X142700000Y-98817158D01*
X140951657Y-84900000D02*
X140325572Y-85526085D01*
X139432524Y-100859634D02*
X140942158Y-99350000D01*
X142710000Y-85460000D02*
X142150000Y-84900000D01*
X142150000Y-84900000D02*
X140951657Y-84900000D01*
X137707170Y-101793994D02*
X138641530Y-100859634D01*
%TO.N,/mcu/SWCLK*%
X142250000Y-99550000D02*
X142900000Y-98900000D01*
X141750000Y-84175000D02*
X140704385Y-84175000D01*
X139023333Y-101551667D02*
X141025000Y-99550000D01*
X138953836Y-101551667D02*
X139023333Y-101551667D01*
X141025000Y-99550000D02*
X142250000Y-99550000D01*
X140704385Y-84175000D02*
X140325572Y-84553813D01*
X142900000Y-91299387D02*
X142910000Y-91289387D01*
X142910000Y-85335000D02*
X141750000Y-84175000D01*
X142910000Y-91289387D02*
X142910000Y-85335000D01*
X142900000Y-98900000D02*
X142900000Y-91299387D01*
%TO.N,Net-(JP101-B)*%
X152050000Y-91275000D02*
X152050000Y-92500000D01*
X152050000Y-92500000D02*
X152625000Y-93075000D01*
D69*
%TO.N,/current sense/U_OUT*%
X142600000Y-74825000D02*
X142600000Y-77175000D01*
X142600000Y-77175000D02*
X142350000Y-77425000D01*
%TO.N,/current sense/V_OUT*%
X152300000Y-75625000D02*
X152300000Y-77475000D01*
X150100000Y-74825000D02*
X151500000Y-74825000D01*
X151500000Y-74825000D02*
X152300000Y-75625000D01*
%TO.N,/current sense/W_OUT*%
X147050000Y-76775000D02*
X147050000Y-77475000D01*
X145100000Y-74825000D02*
X147050000Y-76775000D01*
D67*
%TO.N,Net-(D603-K)*%
X150575000Y-84225000D02*
X150591746Y-84225000D01*
X153800736Y-88700000D02*
X156825000Y-88700000D01*
X157300000Y-90245000D02*
X158055000Y-90245000D01*
X157300000Y-89175000D02*
X157300000Y-90245000D01*
X158055000Y-90245000D02*
X158400000Y-89900000D01*
X150591746Y-84225000D02*
X151058436Y-84691690D01*
X152862435Y-88183615D02*
X153284351Y-88183615D01*
X156825000Y-88700000D02*
X157300000Y-89175000D01*
X153284351Y-88183615D02*
X153800736Y-88700000D01*
D68*
%TO.N,Net-(D601-K)*%
X152597416Y-81761756D02*
X152826203Y-81990543D01*
X157423160Y-86587500D02*
X156717830Y-85882170D01*
X151974866Y-81761756D02*
X152597416Y-81761756D01*
X156717830Y-85882170D02*
X156234457Y-85398797D01*
X156225000Y-87175000D02*
X156225000Y-86375000D01*
X156225000Y-86375000D02*
X156717830Y-85882170D01*
X159325000Y-86587500D02*
X157423160Y-86587500D01*
X151805811Y-81930811D02*
X151974866Y-81761756D01*
%TO.N,Net-(D601-A)*%
X159325000Y-88162500D02*
X160087500Y-88925000D01*
X160087500Y-88925000D02*
X161655000Y-88925000D01*
%TO.N,Net-(U501-FB{slash}VOUT)*%
X156680000Y-96335000D02*
X155725000Y-96335000D01*
X155525000Y-96275000D02*
X154635000Y-95385000D01*
X155665000Y-96275000D02*
X155525000Y-96275000D01*
X155725000Y-96335000D02*
X155665000Y-96275000D01*
%TO.N,Net-(R502-Pad2)*%
X154590000Y-96275000D02*
X154645000Y-96275000D01*
X154645000Y-96275000D02*
X155665000Y-97295000D01*
%TO.N,/usb/UCPD_CC2*%
X137010787Y-97335787D02*
X137313820Y-97032754D01*
X139069454Y-98439860D02*
X140342982Y-98439860D01*
X141442842Y-97340000D02*
X142125000Y-97340000D01*
X140342982Y-98439860D02*
X141442842Y-97340000D01*
X137662348Y-97032754D02*
X139069454Y-98439860D01*
X137313820Y-97032754D02*
X137662348Y-97032754D01*
%TO.N,/usb/UCPD_CC1*%
X137450253Y-94775000D02*
X138250000Y-94775000D01*
X137116853Y-95108400D02*
X137450253Y-94775000D01*
X138250000Y-94775000D02*
X138650000Y-94375000D01*
X138650000Y-94375000D02*
X138650000Y-92860000D01*
%TO.N,Net-(U301-PB10)*%
X134010624Y-89464376D02*
X133860624Y-89464376D01*
X134757106Y-88708065D02*
X134757106Y-88717894D01*
X134757106Y-88717894D02*
X134010624Y-89464376D01*
%TO.N,Net-(U301-PB11)*%
X135464213Y-89415172D02*
X135200000Y-89679385D01*
X135200000Y-89679385D02*
X135200000Y-90825000D01*
X135200000Y-90825000D02*
X135275000Y-90900000D01*
%TO.N,/mcu/USBD_N*%
X140180000Y-90875000D02*
X140025000Y-91030000D01*
X140025000Y-91030000D02*
X140025000Y-92262500D01*
X140180000Y-90875000D02*
X140400000Y-90655000D01*
X140025000Y-92262500D02*
X139950000Y-92337500D01*
X139812500Y-94612500D02*
X139950000Y-94612500D01*
X140400000Y-87721833D02*
X139264912Y-86586745D01*
X140400000Y-90655000D02*
X140400000Y-87721833D01*
X139950000Y-94612500D02*
X139950000Y-92337500D01*
X138914466Y-94725000D02*
X139700000Y-94725000D01*
X139700000Y-94725000D02*
X139812500Y-94612500D01*
X136707360Y-96225000D02*
X136303680Y-96628680D01*
X137823959Y-95815507D02*
X137414466Y-96225000D01*
X137823959Y-95815507D02*
X138914466Y-94725000D01*
X137414466Y-96225000D02*
X136707360Y-96225000D01*
%TO.N,/half bridges/ENA*%
X137196313Y-90175000D02*
X136436485Y-89415172D01*
X154150000Y-87900000D02*
X154475000Y-87900000D01*
X150525000Y-83225000D02*
X150525126Y-83225000D01*
X138190686Y-90175000D02*
X137196313Y-90175000D01*
X139925000Y-88440686D02*
X138190686Y-90175000D01*
X154700000Y-87675000D02*
X154700000Y-87399874D01*
X154475000Y-87900000D02*
X154700000Y-87675000D01*
X154700000Y-87399874D02*
X154466690Y-87166564D01*
X150525126Y-83225000D02*
X151058436Y-83758310D01*
X139925000Y-88400000D02*
X139925000Y-88440686D01*
%TO.N,/encoder/A*%
X138911359Y-83139600D02*
X139233218Y-82817741D01*
X139233218Y-82817741D02*
X143367741Y-82817741D01*
X143367741Y-82817741D02*
X144025000Y-83475000D01*
X144025000Y-83475000D02*
X144025000Y-84200000D01*
%TO.N,/encoder/B*%
X143650000Y-82450000D02*
X144675000Y-83475000D01*
X144675000Y-83475000D02*
X144675000Y-84200000D01*
X138893851Y-82450000D02*
X143650000Y-82450000D01*
X138557805Y-82786046D02*
X138893851Y-82450000D01*
%TO.N,/encoder/Z*%
X143975000Y-82125000D02*
X145325000Y-83475000D01*
X145325000Y-83475000D02*
X145325000Y-84200000D01*
X138204252Y-82432493D02*
X138511745Y-82125000D01*
X138511745Y-82125000D02*
X143975000Y-82125000D01*
%TO.N,Net-(D501-A)*%
X154325000Y-78575000D02*
X156125000Y-76775000D01*
X154100000Y-78575000D02*
X154325000Y-78575000D01*
%TO.N,Net-(D502-A)*%
X156125000Y-78875000D02*
X155640000Y-79360000D01*
X155640000Y-79360000D02*
X155640000Y-79975000D01*
%TO.N,/encoder/SCK*%
X130625000Y-87275000D02*
X130625000Y-86476211D01*
X147925000Y-90875000D02*
X147925000Y-89750000D01*
X147450000Y-91350000D02*
X147925000Y-90875000D01*
X130625000Y-86476211D02*
X131575126Y-85526085D01*
%TO.N,/encoder/CIPO*%
X131025000Y-87775000D02*
X131025000Y-86783317D01*
X131025000Y-86783317D02*
X131928679Y-85879638D01*
X146625000Y-90750000D02*
X146625000Y-89750000D01*
X146050000Y-91325000D02*
X146625000Y-90750000D01*
%TO.N,/encoder/COPI*%
X146775000Y-91350000D02*
X147275000Y-90850000D01*
X147275000Y-90850000D02*
X147275000Y-89750000D01*
X131450000Y-87065425D02*
X132282233Y-86233192D01*
X131450000Y-88300000D02*
X131450000Y-87065425D01*
%TO.N,/encoder/CS*%
X148575000Y-90925000D02*
X148575000Y-89750000D01*
X148150000Y-91350000D02*
X148575000Y-90925000D01*
X132073766Y-87148766D02*
X132073766Y-87148765D01*
X132073766Y-87148765D02*
X132635786Y-86586745D01*
%TO.N,/encoder/CAL_EN*%
X132525000Y-88150000D02*
X132525000Y-88111745D01*
X132525000Y-88111745D02*
X133342893Y-87293852D01*
X145975000Y-90700000D02*
X145975000Y-89750000D01*
X145325000Y-91350000D02*
X145975000Y-90700000D01*
%TO.N,/mcu/CAN_TX*%
X140950000Y-83750000D02*
X141950000Y-83750000D01*
X143110000Y-84910000D02*
X143110000Y-90585000D01*
X137690425Y-80825000D02*
X137143592Y-81371833D01*
X144375000Y-91850000D02*
X144375000Y-93115000D01*
X143110000Y-90585000D02*
X144375000Y-91850000D01*
X141950000Y-83750000D02*
X143110000Y-84910000D01*
X138050000Y-80825000D02*
X137690425Y-80825000D01*
%TO.N,/mcu/CAN_RX*%
X143350000Y-90350000D02*
X146650000Y-93650000D01*
X141350000Y-83325000D02*
X142175000Y-83325000D01*
X142175000Y-83325000D02*
X143350000Y-84500000D01*
X146325000Y-96925000D02*
X144375000Y-96925000D01*
X136790038Y-81009962D02*
X136790038Y-81018279D01*
X137600000Y-80425000D02*
X137375000Y-80425000D01*
X143350000Y-84500000D02*
X143350000Y-90350000D01*
X146650000Y-96600000D02*
X146325000Y-96925000D01*
X146650000Y-93650000D02*
X146650000Y-96600000D01*
X137375000Y-80425000D02*
X136790038Y-81009962D01*
%TO.N,/half bridges/IN2B*%
X150952584Y-82822416D02*
X151536756Y-82822416D01*
X151536756Y-82822416D02*
X151765543Y-83051203D01*
X150950000Y-82825000D02*
X150952584Y-82822416D01*
X131750000Y-83075000D02*
X132217633Y-83075000D01*
X132217633Y-83075000D02*
X132635786Y-83493153D01*
%TO.N,/half bridges/IN1A*%
X155407142Y-86692802D02*
X155173797Y-86459457D01*
X139215802Y-87951849D02*
X138557805Y-87293852D01*
X155400000Y-87950000D02*
X155407142Y-87942858D01*
X139215802Y-87973175D02*
X139215802Y-87951849D01*
X155407142Y-87942858D02*
X155407142Y-86692802D01*
%TO.N,/half bridges/IN2A*%
X155825000Y-87525000D02*
X155825000Y-86403553D01*
X155825000Y-86403553D02*
X155527351Y-86105904D01*
X139650000Y-87678939D02*
X138911359Y-86940298D01*
%TO.N,/half bridges/IN1B*%
X132524739Y-82675000D02*
X132989339Y-83139600D01*
X151821447Y-82400000D02*
X152119096Y-82697649D01*
X151425000Y-82400000D02*
X151821447Y-82400000D01*
X132125000Y-82675000D02*
X132524739Y-82675000D01*
%TO.N,Net-(Q501-B)*%
X157150000Y-77875000D02*
X158125000Y-77875000D01*
X156660000Y-79975000D02*
X156660000Y-78365000D01*
X156660000Y-78365000D02*
X157150000Y-77875000D01*
D67*
%TO.N,Net-(Q501-C)*%
X161325000Y-78225000D02*
X160725000Y-78825000D01*
X160725000Y-78825000D02*
X160000000Y-78825000D01*
X161800000Y-78225000D02*
X161325000Y-78225000D01*
D69*
%TO.N,/half bridges/OUT1B*%
X151725000Y-80700000D02*
X152775000Y-80700000D01*
X148025000Y-80000000D02*
X149500000Y-81475000D01*
D67*
X153533310Y-81283436D02*
X152949874Y-80700000D01*
D69*
X147600000Y-74825000D02*
X148025000Y-75250000D01*
X150950000Y-81475000D02*
X151725000Y-80700000D01*
D67*
X152949874Y-80700000D02*
X152775000Y-80700000D01*
D69*
X148025000Y-75250000D02*
X148025000Y-80000000D01*
X149500000Y-81475000D02*
X150950000Y-81475000D01*
D68*
%TO.N,/mcu/DIR*%
X150750000Y-89020000D02*
X151250000Y-88520000D01*
X137792633Y-88650000D02*
X137497145Y-88354512D01*
X138850000Y-88825000D02*
X138675000Y-88650000D01*
X151250000Y-88520000D02*
X151250000Y-88515000D01*
X150750000Y-90050000D02*
X150750000Y-89020000D01*
X138675000Y-88650000D02*
X137792633Y-88650000D01*
%TO.N,/mcu/STEP*%
X149475000Y-90075000D02*
X149700000Y-89850000D01*
X149700000Y-89850000D02*
X149700000Y-89040000D01*
X138200000Y-88950000D02*
X137385527Y-88950000D01*
X149700000Y-89040000D02*
X150225000Y-88515000D01*
X137385527Y-88950000D02*
X137143592Y-88708065D01*
X138525000Y-89275000D02*
X138200000Y-88950000D01*
%TD*%
%TA.AperFunction,Conductor*%
%TO.N,Vmot*%
G36*
X156971129Y-90686617D02*
G01*
X157040513Y-90718972D01*
X157090099Y-90725500D01*
X157509900Y-90725499D01*
X157559487Y-90718972D01*
X157628870Y-90686617D01*
X157681275Y-90675000D01*
X158923638Y-90675000D01*
X158990677Y-90694685D01*
X159011319Y-90711319D01*
X159413681Y-91113681D01*
X159447166Y-91175004D01*
X159450000Y-91201362D01*
X159450000Y-91873638D01*
X159430315Y-91940677D01*
X159413681Y-91961319D01*
X158861319Y-92513681D01*
X158799996Y-92547166D01*
X158773638Y-92550000D01*
X156324999Y-92550000D01*
X155675000Y-93199999D01*
X155675000Y-93948637D01*
X155655315Y-94015676D01*
X155638681Y-94036318D01*
X155151522Y-94523476D01*
X155090199Y-94556961D01*
X155060840Y-94558668D01*
X155060840Y-94559500D01*
X154215247Y-94559500D01*
X154156770Y-94571131D01*
X154156769Y-94571132D01*
X154090447Y-94615447D01*
X154046132Y-94681769D01*
X154046131Y-94681770D01*
X154034500Y-94740247D01*
X154034500Y-95029752D01*
X154048515Y-95100209D01*
X154047239Y-95100462D01*
X154053317Y-95157023D01*
X154046303Y-95180910D01*
X154034500Y-95240247D01*
X154034500Y-95529752D01*
X154047617Y-95595695D01*
X154050000Y-95619886D01*
X154050000Y-97825000D01*
X154863681Y-98638681D01*
X154897166Y-98700004D01*
X154900000Y-98726362D01*
X154900000Y-101348638D01*
X154880315Y-101415677D01*
X154863681Y-101436319D01*
X154636319Y-101663681D01*
X154574996Y-101697166D01*
X154548638Y-101700000D01*
X152424000Y-101700000D01*
X152356961Y-101680315D01*
X152311206Y-101627511D01*
X152300000Y-101576000D01*
X152300000Y-93919500D01*
X152319685Y-93852461D01*
X152372489Y-93806706D01*
X152424000Y-93795500D01*
X152841164Y-93795500D01*
X152865356Y-93797883D01*
X152878049Y-93800408D01*
X152878050Y-93800408D01*
X152878052Y-93800408D01*
X152975789Y-93780967D01*
X152975789Y-93780966D01*
X152975791Y-93780966D01*
X153005586Y-93761057D01*
X153058651Y-93725601D01*
X153065844Y-93714833D01*
X153081260Y-93696048D01*
X153201048Y-93576260D01*
X153219833Y-93560844D01*
X153230601Y-93553651D01*
X153266057Y-93500586D01*
X153285966Y-93470791D01*
X153285966Y-93470789D01*
X153285967Y-93470789D01*
X153305408Y-93373052D01*
X153305408Y-93373050D01*
X153302882Y-93360350D01*
X153300500Y-93336161D01*
X153300500Y-91624000D01*
X153320185Y-91556961D01*
X153372989Y-91511206D01*
X153424500Y-91500000D01*
X155000000Y-91500000D01*
X155788681Y-90711319D01*
X155850004Y-90677834D01*
X155876362Y-90675000D01*
X156918725Y-90675000D01*
X156971129Y-90686617D01*
G37*
%TD.AperFunction*%
%TD*%
%TA.AperFunction,Conductor*%
%TO.N,Vmot*%
G36*
X149980703Y-85431005D02*
G01*
X149987181Y-85437037D01*
X150513486Y-85963342D01*
X150603194Y-86053050D01*
X150622931Y-86063106D01*
X150639517Y-86073269D01*
X150657446Y-86086296D01*
X150657448Y-86086296D01*
X150657449Y-86086297D01*
X150678510Y-86093140D01*
X150696489Y-86100586D01*
X150716232Y-86110646D01*
X150738121Y-86114112D01*
X150757037Y-86118653D01*
X150778103Y-86125499D01*
X150807460Y-86125499D01*
X150807484Y-86125500D01*
X150810017Y-86125500D01*
X150956524Y-86125500D01*
X151050301Y-86110647D01*
X151050302Y-86110646D01*
X151050304Y-86110646D01*
X151163342Y-86053050D01*
X151163344Y-86053047D01*
X151169467Y-86049928D01*
X151238136Y-86037031D01*
X151302877Y-86063307D01*
X151338557Y-86108901D01*
X151361800Y-86159797D01*
X151399379Y-86206430D01*
X151433202Y-86240253D01*
X152024227Y-85649227D01*
X152222217Y-85847217D01*
X151631192Y-86438243D01*
X151665016Y-86472067D01*
X151711648Y-86509645D01*
X151842427Y-86569371D01*
X151842432Y-86569372D01*
X151896338Y-86577122D01*
X151959894Y-86606146D01*
X151997670Y-86664923D01*
X152001431Y-86682213D01*
X152009181Y-86736121D01*
X152009182Y-86736125D01*
X152068908Y-86866904D01*
X152106486Y-86913536D01*
X152140309Y-86947359D01*
X152706334Y-86381334D01*
X152904323Y-86579323D01*
X152304968Y-87178679D01*
X152255608Y-87208928D01*
X152240909Y-87213704D01*
X152240908Y-87213704D01*
X152164094Y-87269512D01*
X152164089Y-87269517D01*
X152095426Y-87338181D01*
X152034103Y-87371666D01*
X152007745Y-87374500D01*
X150567254Y-87374500D01*
X150500215Y-87354815D01*
X150479573Y-87338181D01*
X149811819Y-86670426D01*
X149778334Y-86609103D01*
X149775500Y-86582745D01*
X149775500Y-85524718D01*
X149795185Y-85457679D01*
X149847989Y-85411924D01*
X149917147Y-85401980D01*
X149980703Y-85431005D01*
G37*
%TD.AperFunction*%
%TD*%
%TA.AperFunction,Conductor*%
%TO.N,Net-(U501-LX)*%
G36*
X159864352Y-92939352D02*
G01*
X160235648Y-93310648D01*
X160250000Y-93345296D01*
X160250000Y-95779704D01*
X160235648Y-95814352D01*
X160054852Y-95995148D01*
X160020204Y-96009500D01*
X158804796Y-96009500D01*
X158770148Y-95995148D01*
X158364352Y-95589352D01*
X158350000Y-95554704D01*
X158350000Y-94200000D01*
X158050000Y-93900000D01*
X157880307Y-93900000D01*
X157877107Y-93899790D01*
X157874902Y-93899500D01*
X157455103Y-93899500D01*
X157455095Y-93899501D01*
X157452903Y-93899790D01*
X157449702Y-93900000D01*
X157175000Y-93900000D01*
X156979976Y-94095023D01*
X156945328Y-94109375D01*
X156918105Y-94101117D01*
X156903017Y-94091035D01*
X156873231Y-94071133D01*
X156814748Y-94059500D01*
X156814745Y-94059500D01*
X156564602Y-94059500D01*
X156542357Y-94054159D01*
X156509664Y-94037501D01*
X156509662Y-94037500D01*
X156509661Y-94037500D01*
X156400000Y-94020131D01*
X156290339Y-94037500D01*
X156290337Y-94037500D01*
X156290335Y-94037501D01*
X156257643Y-94054159D01*
X156235398Y-94059500D01*
X156004796Y-94059500D01*
X155970148Y-94045148D01*
X155914352Y-93989352D01*
X155900000Y-93954704D01*
X155900000Y-93285915D01*
X155914352Y-93251267D01*
X156226267Y-92939352D01*
X156260915Y-92925000D01*
X159829704Y-92925000D01*
X159864352Y-92939352D01*
G37*
%TD.AperFunction*%
%TD*%
%TA.AperFunction,Conductor*%
%TO.N,GND*%
G36*
X130487699Y-79781262D02*
G01*
X130532046Y-79809763D01*
X130710237Y-79987954D01*
X130743722Y-80049277D01*
X130738738Y-80118969D01*
X130710237Y-80163316D01*
X129772613Y-81100940D01*
X129772613Y-81103932D01*
X129802498Y-81158663D01*
X129797514Y-81228355D01*
X129787270Y-81242995D01*
X129786675Y-81258123D01*
X130160589Y-81632036D01*
X130376609Y-81848056D01*
X130410094Y-81909379D01*
X130405110Y-81979071D01*
X130376609Y-82023418D01*
X130121567Y-82278460D01*
X130097915Y-82306151D01*
X130019950Y-82447972D01*
X130017398Y-82457913D01*
X129984976Y-82514753D01*
X129768492Y-82731236D01*
X129768493Y-82731237D01*
X129901898Y-82804577D01*
X129901901Y-82804578D01*
X129924625Y-82810413D01*
X129984663Y-82846151D01*
X130013892Y-82899677D01*
X130019954Y-82923286D01*
X130097910Y-83065089D01*
X130097912Y-83065091D01*
X130097913Y-83065093D01*
X130119501Y-83090369D01*
X130148071Y-83154127D01*
X130137636Y-83223213D01*
X130112892Y-83258581D01*
X129842381Y-83529093D01*
X129793957Y-83574317D01*
X129770956Y-83612139D01*
X129767384Y-83617388D01*
X129740639Y-83652658D01*
X129740636Y-83652663D01*
X129734055Y-83669352D01*
X129724653Y-83688283D01*
X129715326Y-83703620D01*
X129715326Y-83703621D01*
X129711176Y-83718432D01*
X129693827Y-83755411D01*
X129622483Y-83858772D01*
X129564312Y-84012154D01*
X129564311Y-84012157D01*
X129544539Y-84174999D01*
X129544539Y-84175000D01*
X129564311Y-84337842D01*
X129564312Y-84337845D01*
X129596603Y-84422990D01*
X129622483Y-84491228D01*
X129690660Y-84589999D01*
X129715668Y-84626229D01*
X129715670Y-84626231D01*
X129715672Y-84626233D01*
X129838451Y-84735006D01*
X129838452Y-84735006D01*
X129838454Y-84735008D01*
X129983705Y-84811242D01*
X129983707Y-84811242D01*
X129983708Y-84811243D01*
X130142978Y-84850500D01*
X130142979Y-84850500D01*
X130307022Y-84850500D01*
X130466291Y-84811243D01*
X130466291Y-84811242D01*
X130466295Y-84811242D01*
X130611546Y-84735008D01*
X130662660Y-84689724D01*
X130725891Y-84660003D01*
X130795155Y-84669185D01*
X130837798Y-84702750D01*
X130838891Y-84701792D01*
X130841574Y-84704851D01*
X131088990Y-84952267D01*
X131122475Y-85013590D01*
X131117491Y-85083282D01*
X131088991Y-85127629D01*
X130841568Y-85375054D01*
X130841565Y-85375057D01*
X130773987Y-85463123D01*
X130773985Y-85463126D01*
X130722918Y-85586417D01*
X130696038Y-85626646D01*
X130242382Y-86080303D01*
X130193957Y-86125528D01*
X130170956Y-86163350D01*
X130167384Y-86168599D01*
X130140639Y-86203869D01*
X130140636Y-86203874D01*
X130134055Y-86220563D01*
X130124653Y-86239494D01*
X130115327Y-86254830D01*
X130103385Y-86297448D01*
X130101362Y-86303466D01*
X130085122Y-86344651D01*
X130083288Y-86362495D01*
X130079342Y-86383259D01*
X130074501Y-86400539D01*
X130074500Y-86400548D01*
X130074500Y-86444805D01*
X130074175Y-86451150D01*
X130069648Y-86495181D01*
X130069648Y-86495186D01*
X130072697Y-86512867D01*
X130074500Y-86533935D01*
X130074500Y-86844772D01*
X130054815Y-86911811D01*
X130052551Y-86915211D01*
X130022482Y-86958774D01*
X130003081Y-87009930D01*
X129964312Y-87112154D01*
X129964311Y-87112157D01*
X129944539Y-87274999D01*
X129944539Y-87275000D01*
X129964311Y-87437842D01*
X129964312Y-87437845D01*
X129985839Y-87494608D01*
X130022483Y-87591228D01*
X130054572Y-87637717D01*
X130115668Y-87726229D01*
X130115670Y-87726231D01*
X130115672Y-87726233D01*
X130238453Y-87835007D01*
X130238455Y-87835009D01*
X130305256Y-87870069D01*
X130355468Y-87918653D01*
X130363572Y-87935894D01*
X130378218Y-87974512D01*
X130422482Y-88091226D01*
X130515668Y-88226229D01*
X130515670Y-88226231D01*
X130515672Y-88226233D01*
X130638451Y-88335006D01*
X130638452Y-88335006D01*
X130638454Y-88335008D01*
X130726121Y-88381019D01*
X130776332Y-88429603D01*
X130788889Y-88461132D01*
X130789310Y-88462842D01*
X130842950Y-88604277D01*
X130848317Y-88673940D01*
X130815170Y-88735446D01*
X130754031Y-88769268D01*
X130752792Y-88769538D01*
X130745490Y-88771090D01*
X130735931Y-88773122D01*
X130735930Y-88773122D01*
X130735927Y-88773123D01*
X130735926Y-88773123D01*
X130563004Y-88850114D01*
X130562999Y-88850117D01*
X130409863Y-88961377D01*
X130283200Y-89102051D01*
X130188555Y-89265981D01*
X130188552Y-89265988D01*
X130130061Y-89446006D01*
X130130060Y-89446010D01*
X130110274Y-89634266D01*
X130130060Y-89822522D01*
X130130061Y-89822525D01*
X130188552Y-90002543D01*
X130188554Y-90002547D01*
X130188555Y-90002550D01*
X130233438Y-90080289D01*
X130252901Y-90114001D01*
X130269373Y-90181901D01*
X130246520Y-90247928D01*
X130191598Y-90291118D01*
X130145514Y-90300000D01*
X130008365Y-90300000D01*
X130008346Y-90300001D01*
X129909916Y-90310056D01*
X129750427Y-90362906D01*
X129750422Y-90362908D01*
X129607419Y-90451114D01*
X129488614Y-90569919D01*
X129400408Y-90712922D01*
X129400406Y-90712927D01*
X129347557Y-90872416D01*
X129337500Y-90970849D01*
X129337500Y-91025000D01*
X130401000Y-91025000D01*
X130468039Y-91044685D01*
X130513794Y-91097489D01*
X130525000Y-91149000D01*
X130525000Y-93899999D01*
X130541636Y-93899999D01*
X130541652Y-93899998D01*
X130552279Y-93898912D01*
X130620973Y-93911677D01*
X130671860Y-93959555D01*
X130688784Y-94027344D01*
X130666372Y-94093522D01*
X130615325Y-94135548D01*
X130547267Y-94165850D01*
X130547266Y-94165851D01*
X130482322Y-94213035D01*
X130416516Y-94236514D01*
X130374845Y-94231793D01*
X130359156Y-94227235D01*
X130359153Y-94227234D01*
X130359150Y-94227234D01*
X130324407Y-94224500D01*
X130324405Y-94224500D01*
X129991865Y-94224500D01*
X129825595Y-94224501D01*
X129790847Y-94227234D01*
X129775155Y-94231793D01*
X129642113Y-94270445D01*
X129642111Y-94270445D01*
X129642111Y-94270446D01*
X129508805Y-94349282D01*
X129508796Y-94349289D01*
X129399289Y-94458796D01*
X129399282Y-94458805D01*
X129334836Y-94567779D01*
X129320445Y-94592113D01*
X129304016Y-94648663D01*
X129277234Y-94740847D01*
X129277234Y-94740849D01*
X129274500Y-94775593D01*
X129274501Y-95124405D01*
X129277234Y-95159152D01*
X129277234Y-95159155D01*
X129277235Y-95159156D01*
X129320445Y-95307887D01*
X129333558Y-95330060D01*
X129399282Y-95441194D01*
X129399289Y-95441203D01*
X129508796Y-95550710D01*
X129508805Y-95550717D01*
X129509923Y-95551378D01*
X129642113Y-95629555D01*
X129790844Y-95672765D01*
X129814011Y-95674588D01*
X129825593Y-95675500D01*
X129825594Y-95675499D01*
X129825595Y-95675500D01*
X130158134Y-95675499D01*
X130324405Y-95675499D01*
X130333092Y-95674815D01*
X130359156Y-95672765D01*
X130374844Y-95668207D01*
X130444712Y-95668406D01*
X130482322Y-95686963D01*
X130521247Y-95715244D01*
X130547270Y-95734151D01*
X130720192Y-95811142D01*
X130720197Y-95811144D01*
X130905354Y-95850500D01*
X130905355Y-95850500D01*
X131094644Y-95850500D01*
X131094646Y-95850500D01*
X131279803Y-95811144D01*
X131452730Y-95734151D01*
X131596053Y-95630020D01*
X131661857Y-95606542D01*
X131729911Y-95622367D01*
X131732058Y-95623609D01*
X131742109Y-95629553D01*
X131742111Y-95629554D01*
X131742113Y-95629555D01*
X131890844Y-95672765D01*
X131915666Y-95674718D01*
X131925593Y-95675500D01*
X131925594Y-95675499D01*
X131925595Y-95675500D01*
X132258134Y-95675499D01*
X132424405Y-95675499D01*
X132426939Y-95675299D01*
X132459156Y-95672765D01*
X132565725Y-95641804D01*
X132635592Y-95642003D01*
X132694262Y-95679945D01*
X132723106Y-95743583D01*
X132719584Y-95794814D01*
X132718435Y-95798851D01*
X132718436Y-95798852D01*
X133467656Y-95798852D01*
X133419312Y-95882587D01*
X133389126Y-96014843D01*
X133399263Y-96150120D01*
X133448824Y-96276399D01*
X133466730Y-96298852D01*
X132718435Y-96298852D01*
X132767579Y-96471574D01*
X132766165Y-96471976D01*
X132771437Y-96534546D01*
X132738732Y-96596289D01*
X132677838Y-96630548D01*
X132676604Y-96630826D01*
X132389066Y-96694118D01*
X132039671Y-96811844D01*
X131705080Y-96966642D01*
X131705067Y-96966649D01*
X131389175Y-97156713D01*
X131389158Y-97156725D01*
X131095657Y-97379840D01*
X131095643Y-97379852D01*
X131076520Y-97397966D01*
X131076520Y-97397968D01*
X132393120Y-98714568D01*
X132365820Y-98731832D01*
X132178499Y-98897784D01*
X132039488Y-99068040D01*
X130725497Y-97754049D01*
X130725496Y-97754050D01*
X130589314Y-97914376D01*
X130589307Y-97914386D01*
X130382406Y-98219541D01*
X130209715Y-98545271D01*
X130209706Y-98545289D01*
X130073245Y-98887783D01*
X130073243Y-98887790D01*
X129974616Y-99243013D01*
X129974610Y-99243039D01*
X129914967Y-99606840D01*
X129914966Y-99606857D01*
X129895006Y-99974997D01*
X129895006Y-99975000D01*
X129914966Y-100343142D01*
X129914967Y-100343159D01*
X129974610Y-100706960D01*
X129974616Y-100706986D01*
X130073243Y-101062209D01*
X130073245Y-101062216D01*
X130209706Y-101404710D01*
X130209715Y-101404728D01*
X130382406Y-101730458D01*
X130589307Y-102035614D01*
X130725496Y-102195948D01*
X130725497Y-102195949D01*
X132041351Y-100880095D01*
X132095456Y-100958480D01*
X132268816Y-101138966D01*
X132394865Y-101233685D01*
X131076520Y-102552031D01*
X131076520Y-102552032D01*
X131095643Y-102570147D01*
X131095655Y-102570158D01*
X131389158Y-102793274D01*
X131389175Y-102793286D01*
X131705067Y-102983350D01*
X131705080Y-102983357D01*
X132039671Y-103138155D01*
X132389068Y-103255882D01*
X132749134Y-103335138D01*
X133115655Y-103374999D01*
X133115663Y-103375000D01*
X133484337Y-103375000D01*
X133484344Y-103374999D01*
X133850865Y-103335138D01*
X134210931Y-103255882D01*
X134560328Y-103138155D01*
X134894919Y-102983357D01*
X134894932Y-102983350D01*
X135210824Y-102793286D01*
X135210841Y-102793274D01*
X135504343Y-102570159D01*
X135504347Y-102570156D01*
X135632138Y-102449106D01*
X135694345Y-102417294D01*
X135763876Y-102424163D01*
X135818656Y-102467534D01*
X135841291Y-102533635D01*
X135841203Y-102546339D01*
X135832282Y-102699500D01*
X135832060Y-102703315D01*
X135845545Y-102779790D01*
X135860304Y-102863494D01*
X135862335Y-102875009D01*
X135931388Y-103035093D01*
X135931389Y-103035095D01*
X135931391Y-103035098D01*
X136006566Y-103136074D01*
X136035499Y-103174938D01*
X136169053Y-103287004D01*
X136324852Y-103365249D01*
X136494496Y-103405455D01*
X136494498Y-103405455D01*
X136625096Y-103405455D01*
X136625103Y-103405455D01*
X136754831Y-103390292D01*
X136918660Y-103330663D01*
X136935128Y-103319831D01*
X137001951Y-103299438D01*
X137069195Y-103318410D01*
X137115508Y-103370725D01*
X137121197Y-103385111D01*
X137128101Y-103406358D01*
X137128107Y-103406373D01*
X137222084Y-103569148D01*
X137222092Y-103569159D01*
X137347863Y-103708841D01*
X137347865Y-103708843D01*
X137499929Y-103819324D01*
X137499930Y-103819324D01*
X137499934Y-103819327D01*
X137602670Y-103865068D01*
X137671646Y-103895779D01*
X137671649Y-103895779D01*
X137671652Y-103895781D01*
X137855513Y-103934861D01*
X137907745Y-103934861D01*
X137974784Y-103954546D01*
X137995426Y-103971180D01*
X138008030Y-103983784D01*
X138017855Y-103996048D01*
X138018076Y-103995866D01*
X138023046Y-104001873D01*
X138023049Y-104001876D01*
X138023050Y-104001877D01*
X138073487Y-104049241D01*
X138094365Y-104070119D01*
X138099840Y-104074366D01*
X138104282Y-104078160D01*
X138138251Y-104110060D01*
X138138253Y-104110061D01*
X138138254Y-104110062D01*
X138155812Y-104119714D01*
X138172073Y-104130396D01*
X138187900Y-104142673D01*
X138230659Y-104161176D01*
X138235909Y-104163748D01*
X138276740Y-104186195D01*
X138276744Y-104186197D01*
X138276748Y-104186198D01*
X138296147Y-104191179D01*
X138314558Y-104197483D01*
X138332933Y-104205435D01*
X138332936Y-104205435D01*
X138332941Y-104205438D01*
X138378985Y-104212729D01*
X138384668Y-104213906D01*
X138429817Y-104225500D01*
X138449852Y-104225500D01*
X138469248Y-104227026D01*
X138475565Y-104228027D01*
X138491989Y-104235813D01*
X138498666Y-104231523D01*
X138521932Y-104227050D01*
X138535420Y-104225775D01*
X138541258Y-104225500D01*
X139346252Y-104225500D01*
X139413291Y-104245185D01*
X139438373Y-104266495D01*
X139439277Y-104267499D01*
X139469526Y-104330479D01*
X139460924Y-104399817D01*
X139416200Y-104453497D01*
X139349555Y-104474477D01*
X139347153Y-104474500D01*
X138533601Y-104474500D01*
X138495310Y-104463256D01*
X138472055Y-104473478D01*
X138456165Y-104474500D01*
X133300000Y-104474500D01*
X133105535Y-104466009D01*
X132904511Y-104456714D01*
X132899279Y-104456250D01*
X132698495Y-104429816D01*
X132503965Y-104402680D01*
X132499109Y-104401805D01*
X132300302Y-104357731D01*
X132269694Y-104350532D01*
X132109906Y-104312950D01*
X132105456Y-104311727D01*
X131910712Y-104250325D01*
X131725509Y-104188251D01*
X131721484Y-104186745D01*
X131532522Y-104108475D01*
X131463865Y-104078160D01*
X131353859Y-104029587D01*
X131350304Y-104027879D01*
X131209432Y-103954546D01*
X131168627Y-103933304D01*
X130998004Y-103838268D01*
X130994861Y-103836393D01*
X130821930Y-103726225D01*
X130660716Y-103615790D01*
X130658011Y-103613828D01*
X130495208Y-103488905D01*
X130399145Y-103409136D01*
X130344775Y-103363987D01*
X130342531Y-103362030D01*
X130267233Y-103293032D01*
X130191064Y-103223235D01*
X130051764Y-103083935D01*
X129973966Y-102999035D01*
X129912964Y-102932462D01*
X129911017Y-102930230D01*
X129786093Y-102779790D01*
X129758884Y-102744331D01*
X129661168Y-102616984D01*
X129659208Y-102614282D01*
X129548774Y-102453069D01*
X129438605Y-102280137D01*
X129436739Y-102277010D01*
X129341693Y-102106368D01*
X129330283Y-102084450D01*
X129247106Y-101924670D01*
X129245424Y-101921166D01*
X129166524Y-101742477D01*
X129088249Y-101553504D01*
X129086747Y-101549489D01*
X129046126Y-101428293D01*
X129024674Y-101364287D01*
X128963265Y-101169522D01*
X128962053Y-101165111D01*
X128917269Y-100974701D01*
X128873188Y-100775862D01*
X128872322Y-100771057D01*
X128845183Y-100576504D01*
X128818745Y-100375690D01*
X128818284Y-100370487D01*
X128817892Y-100362004D01*
X128808996Y-100169601D01*
X128800500Y-99975000D01*
X128800500Y-99974500D01*
X128800500Y-96775000D01*
X129744353Y-96775000D01*
X129764834Y-96917456D01*
X129819220Y-97036542D01*
X129824623Y-97048373D01*
X129918872Y-97157143D01*
X130039947Y-97234953D01*
X130039950Y-97234954D01*
X130039949Y-97234954D01*
X130178036Y-97275499D01*
X130178038Y-97275500D01*
X130178039Y-97275500D01*
X130321962Y-97275500D01*
X130321962Y-97275499D01*
X130460053Y-97234953D01*
X130581128Y-97157143D01*
X130675377Y-97048373D01*
X130735165Y-96917457D01*
X130755647Y-96775000D01*
X130735165Y-96632543D01*
X130675377Y-96501627D01*
X130581128Y-96392857D01*
X130460053Y-96315047D01*
X130460051Y-96315046D01*
X130460049Y-96315045D01*
X130460050Y-96315045D01*
X130321963Y-96274500D01*
X130321961Y-96274500D01*
X130178039Y-96274500D01*
X130178036Y-96274500D01*
X130039949Y-96315045D01*
X129918873Y-96392856D01*
X129824623Y-96501626D01*
X129824622Y-96501628D01*
X129764834Y-96632543D01*
X129744353Y-96775000D01*
X128800500Y-96775000D01*
X128800500Y-93175000D01*
X129337501Y-93175000D01*
X129337501Y-93229152D01*
X129347556Y-93327583D01*
X129400406Y-93487072D01*
X129400408Y-93487077D01*
X129488614Y-93630080D01*
X129607419Y-93748885D01*
X129750422Y-93837091D01*
X129750427Y-93837093D01*
X129909916Y-93889942D01*
X130008356Y-93899999D01*
X130025000Y-93899998D01*
X130025000Y-93175000D01*
X129337501Y-93175000D01*
X128800500Y-93175000D01*
X128800500Y-92675000D01*
X129337500Y-92675000D01*
X130025000Y-92675000D01*
X130025000Y-91525000D01*
X129337501Y-91525000D01*
X129337501Y-91579152D01*
X129347556Y-91677583D01*
X129400406Y-91837072D01*
X129400408Y-91837077D01*
X129488614Y-91980080D01*
X129520853Y-92012320D01*
X129554338Y-92073644D01*
X129549352Y-92143335D01*
X129520853Y-92187680D01*
X129488614Y-92219919D01*
X129400408Y-92362922D01*
X129400406Y-92362927D01*
X129347557Y-92522416D01*
X129337500Y-92620849D01*
X129337500Y-92675000D01*
X128800500Y-92675000D01*
X128800500Y-82087658D01*
X129301386Y-82087658D01*
X129341599Y-82244277D01*
X129414939Y-82377683D01*
X129414940Y-82377683D01*
X129807036Y-81985589D01*
X129807036Y-81985588D01*
X129433124Y-81611676D01*
X129419496Y-81627633D01*
X129341600Y-81769326D01*
X129341597Y-81769336D01*
X129301386Y-81925947D01*
X129301386Y-82087658D01*
X128800500Y-82087658D01*
X128800500Y-80333274D01*
X128820185Y-80266235D01*
X128872989Y-80220480D01*
X128942147Y-80210536D01*
X129005703Y-80239561D01*
X129037294Y-80281762D01*
X129100171Y-80419444D01*
X129137751Y-80466078D01*
X129419060Y-80747387D01*
X130356684Y-79809763D01*
X130418007Y-79776278D01*
X130487699Y-79781262D01*
G37*
%TD.AperFunction*%
%TA.AperFunction,Conductor*%
G36*
X163715162Y-91519418D02*
G01*
X163772383Y-91559511D01*
X163798845Y-91624176D01*
X163799500Y-91636904D01*
X163799500Y-99975000D01*
X163791009Y-100169464D01*
X163781714Y-100370487D01*
X163781250Y-100375719D01*
X163754816Y-100576504D01*
X163727680Y-100771033D01*
X163726805Y-100775889D01*
X163682729Y-100974707D01*
X163637950Y-101165092D01*
X163636727Y-101169542D01*
X163575325Y-101364287D01*
X163513251Y-101549489D01*
X163511745Y-101553513D01*
X163433475Y-101742477D01*
X163354594Y-101921125D01*
X163352871Y-101924711D01*
X163258304Y-102106372D01*
X163163268Y-102276994D01*
X163161393Y-102280137D01*
X163051225Y-102453069D01*
X162940790Y-102614282D01*
X162938828Y-102616987D01*
X162813905Y-102779791D01*
X162688998Y-102930211D01*
X162687010Y-102932490D01*
X162548235Y-103083935D01*
X162408935Y-103223235D01*
X162257490Y-103362010D01*
X162255211Y-103363998D01*
X162104791Y-103488905D01*
X161941987Y-103613828D01*
X161939282Y-103615790D01*
X161778069Y-103726225D01*
X161605137Y-103836393D01*
X161601994Y-103838268D01*
X161431372Y-103933304D01*
X161249711Y-104027871D01*
X161246125Y-104029594D01*
X161067477Y-104108475D01*
X160878513Y-104186745D01*
X160874489Y-104188251D01*
X160689287Y-104250325D01*
X160494542Y-104311727D01*
X160490092Y-104312950D01*
X160299707Y-104357729D01*
X160100889Y-104401805D01*
X160096033Y-104402680D01*
X159901504Y-104429816D01*
X159700719Y-104456250D01*
X159695487Y-104456714D01*
X159494464Y-104466009D01*
X159300000Y-104474500D01*
X140752847Y-104474500D01*
X140685808Y-104454815D01*
X140640053Y-104402011D01*
X140630109Y-104332853D01*
X140659134Y-104269297D01*
X140660697Y-104267528D01*
X140661625Y-104266497D01*
X140782533Y-104132216D01*
X140877179Y-103968284D01*
X140935674Y-103788256D01*
X140955460Y-103600000D01*
X140935674Y-103411744D01*
X140934825Y-103409133D01*
X140934780Y-103407541D01*
X140934322Y-103405385D01*
X140934716Y-103405301D01*
X140932829Y-103339295D01*
X140968907Y-103279461D01*
X140979872Y-103270495D01*
X141044125Y-103223813D01*
X141048669Y-103218766D01*
X141108152Y-103182112D01*
X141178009Y-103183436D01*
X141220531Y-103206740D01*
X141349581Y-103315027D01*
X141505380Y-103393272D01*
X141675024Y-103433478D01*
X141675026Y-103433478D01*
X141805624Y-103433478D01*
X141805631Y-103433478D01*
X141935359Y-103418315D01*
X142099188Y-103358686D01*
X142244849Y-103262883D01*
X142364491Y-103136071D01*
X142451662Y-102985085D01*
X142501664Y-102818066D01*
X142511802Y-102644018D01*
X142481527Y-102472324D01*
X142412474Y-102312240D01*
X142394922Y-102288664D01*
X142325898Y-102195949D01*
X142308363Y-102172395D01*
X142206905Y-102087261D01*
X142168204Y-102029091D01*
X142167096Y-101959230D01*
X142198929Y-101904594D01*
X143482618Y-100620906D01*
X143531044Y-100575680D01*
X143554049Y-100537847D01*
X143557606Y-100532622D01*
X143584361Y-100497342D01*
X143590943Y-100480648D01*
X143600344Y-100461719D01*
X143609672Y-100446382D01*
X143621619Y-100403739D01*
X143623632Y-100397753D01*
X143639876Y-100356564D01*
X143641302Y-100342698D01*
X143641711Y-100338716D01*
X143645658Y-100317944D01*
X143650500Y-100300665D01*
X143650500Y-100256405D01*
X143650825Y-100250060D01*
X143650870Y-100249622D01*
X143655352Y-100206028D01*
X143652303Y-100188343D01*
X143650500Y-100167275D01*
X143650500Y-97849500D01*
X143670185Y-97782461D01*
X143722989Y-97736706D01*
X143774500Y-97725500D01*
X145265696Y-97725500D01*
X145284131Y-97724049D01*
X145302569Y-97722598D01*
X145302571Y-97722597D01*
X145302573Y-97722597D01*
X145366951Y-97703893D01*
X145460398Y-97676744D01*
X145601865Y-97593081D01*
X145601870Y-97593076D01*
X145683128Y-97511819D01*
X145744451Y-97478334D01*
X145770809Y-97475500D01*
X146315603Y-97475500D01*
X146381826Y-97477762D01*
X146424832Y-97467280D01*
X146431051Y-97466098D01*
X146474920Y-97460070D01*
X146491383Y-97452918D01*
X146511416Y-97446181D01*
X146528852Y-97441933D01*
X146567465Y-97420221D01*
X146573090Y-97417427D01*
X146613720Y-97399780D01*
X146627632Y-97388460D01*
X146645123Y-97376557D01*
X146660755Y-97367768D01*
X146660753Y-97367768D01*
X146660759Y-97367766D01*
X146692059Y-97336464D01*
X146696769Y-97332213D01*
X146731108Y-97304278D01*
X146741459Y-97289611D01*
X146755074Y-97273448D01*
X146812820Y-97215702D01*
X146874143Y-97182219D01*
X146943835Y-97187204D01*
X146999768Y-97229075D01*
X147024184Y-97294540D01*
X147024500Y-97303385D01*
X147024500Y-99870612D01*
X147004815Y-99937651D01*
X146988181Y-99958293D01*
X146656934Y-100289539D01*
X146595611Y-100323024D01*
X146525919Y-100318040D01*
X146516857Y-100314243D01*
X146488663Y-100301097D01*
X146488661Y-100301096D01*
X146488658Y-100301095D01*
X146260413Y-100239938D01*
X146260403Y-100239936D01*
X146025001Y-100219341D01*
X146024999Y-100219341D01*
X145789596Y-100239936D01*
X145789586Y-100239938D01*
X145561344Y-100301094D01*
X145561335Y-100301098D01*
X145347171Y-100400964D01*
X145347169Y-100400965D01*
X145153597Y-100536505D01*
X144986505Y-100703597D01*
X144850965Y-100897169D01*
X144850964Y-100897171D01*
X144751098Y-101111335D01*
X144751094Y-101111344D01*
X144689938Y-101339586D01*
X144689936Y-101339596D01*
X144674500Y-101516034D01*
X144674500Y-101883966D01*
X144689936Y-102060403D01*
X144689938Y-102060413D01*
X144751094Y-102288655D01*
X144751096Y-102288659D01*
X144751097Y-102288663D01*
X144775000Y-102339922D01*
X144850964Y-102502828D01*
X144850965Y-102502830D01*
X144986505Y-102696402D01*
X145083378Y-102793274D01*
X145153599Y-102863495D01*
X145196675Y-102893657D01*
X145347165Y-102999032D01*
X145347167Y-102999033D01*
X145347170Y-102999035D01*
X145561337Y-103098903D01*
X145789592Y-103160063D01*
X145966034Y-103175500D01*
X146024999Y-103180659D01*
X146025000Y-103180659D01*
X146025001Y-103180659D01*
X146083966Y-103175500D01*
X146260408Y-103160063D01*
X146488663Y-103098903D01*
X146702829Y-102999035D01*
X146896401Y-102863495D01*
X147063495Y-102696401D01*
X147173426Y-102539401D01*
X147228001Y-102495778D01*
X147297500Y-102488584D01*
X147359855Y-102520106D01*
X147376571Y-102539398D01*
X147403457Y-102577795D01*
X147486506Y-102696403D01*
X147583378Y-102793274D01*
X147653599Y-102863495D01*
X147696675Y-102893657D01*
X147847165Y-102999032D01*
X147847167Y-102999033D01*
X147847170Y-102999035D01*
X148061337Y-103098903D01*
X148289592Y-103160063D01*
X148466034Y-103175500D01*
X148524999Y-103180659D01*
X148525000Y-103180659D01*
X148525001Y-103180659D01*
X148583966Y-103175500D01*
X148760408Y-103160063D01*
X148988663Y-103098903D01*
X149202829Y-102999035D01*
X149396401Y-102863495D01*
X149563495Y-102696401D01*
X149673732Y-102538965D01*
X149728306Y-102495342D01*
X149797805Y-102488148D01*
X149860159Y-102519670D01*
X149876880Y-102538967D01*
X149986886Y-102696073D01*
X149986891Y-102696079D01*
X150153917Y-102863105D01*
X150347421Y-102998600D01*
X150561507Y-103098429D01*
X150561516Y-103098433D01*
X150775000Y-103155634D01*
X150775000Y-102108018D01*
X150889801Y-102160446D01*
X150991025Y-102175000D01*
X151058975Y-102175000D01*
X151160199Y-102160446D01*
X151275000Y-102108018D01*
X151275000Y-103155633D01*
X151488483Y-103098433D01*
X151488492Y-103098429D01*
X151702577Y-102998600D01*
X151702579Y-102998599D01*
X151896073Y-102863113D01*
X151896079Y-102863108D01*
X152043331Y-102715857D01*
X152104654Y-102682372D01*
X152174346Y-102687356D01*
X152230279Y-102729228D01*
X152236551Y-102738441D01*
X152240186Y-102744334D01*
X152332288Y-102893656D01*
X152456344Y-103017712D01*
X152605666Y-103109814D01*
X152772203Y-103164999D01*
X152874991Y-103175500D01*
X154175008Y-103175499D01*
X154277797Y-103164999D01*
X154444334Y-103109814D01*
X154593656Y-103017712D01*
X154717712Y-102893656D01*
X154809814Y-102744334D01*
X154864999Y-102577797D01*
X154875500Y-102475009D01*
X154875499Y-102171721D01*
X154895183Y-102104683D01*
X154925183Y-102072459D01*
X154993761Y-102021123D01*
X155230697Y-101784188D01*
X155230697Y-101784187D01*
X155230704Y-101784181D01*
X155230704Y-101784180D01*
X155248791Y-101764044D01*
X155248791Y-101764045D01*
X155273920Y-101732861D01*
X155278362Y-101726699D01*
X155305567Y-101688974D01*
X155365338Y-101558097D01*
X155385023Y-101491058D01*
X155385024Y-101491054D01*
X155405500Y-101348638D01*
X155405500Y-98712823D01*
X155404051Y-98685784D01*
X155401047Y-98657853D01*
X155399769Y-98645964D01*
X155392009Y-98598078D01*
X155391114Y-98592552D01*
X155340832Y-98457743D01*
X155307347Y-98396420D01*
X155221123Y-98281239D01*
X155221118Y-98281234D01*
X155221113Y-98281228D01*
X155189564Y-98249679D01*
X155156079Y-98188356D01*
X155161063Y-98118664D01*
X155202935Y-98062731D01*
X155268399Y-98038314D01*
X155311840Y-98042922D01*
X155379791Y-98062664D01*
X155379794Y-98062664D01*
X155379796Y-98062665D01*
X155391803Y-98063610D01*
X155415817Y-98065500D01*
X155415818Y-98065499D01*
X155415819Y-98065500D01*
X155748059Y-98065499D01*
X155914181Y-98065499D01*
X155917015Y-98065275D01*
X155950204Y-98062665D01*
X156104393Y-98017869D01*
X156242598Y-97936135D01*
X156351356Y-97827376D01*
X156371866Y-97816177D01*
X156373389Y-97796915D01*
X156382507Y-97778004D01*
X156437869Y-97684393D01*
X156482665Y-97530204D01*
X156485500Y-97494181D01*
X156485499Y-97279498D01*
X156505183Y-97212460D01*
X156557987Y-97166705D01*
X156609499Y-97155499D01*
X156879180Y-97155499D01*
X156915204Y-97152665D01*
X157049807Y-97113559D01*
X157119676Y-97113758D01*
X157178346Y-97151700D01*
X157207190Y-97215338D01*
X157197049Y-97284468D01*
X157159445Y-97331350D01*
X157095649Y-97379847D01*
X157095643Y-97379852D01*
X157076520Y-97397966D01*
X157076520Y-97397968D01*
X158393120Y-98714568D01*
X158365820Y-98731832D01*
X158178499Y-98897784D01*
X158039488Y-99068040D01*
X156725497Y-97754049D01*
X156725496Y-97754050D01*
X156589307Y-97914385D01*
X156587951Y-97916169D01*
X156587526Y-97916482D01*
X156587133Y-97916945D01*
X156587023Y-97916852D01*
X156555323Y-97940214D01*
X156547868Y-97974485D01*
X156541670Y-97984646D01*
X156382402Y-98219548D01*
X156209715Y-98545271D01*
X156209706Y-98545289D01*
X156073245Y-98887783D01*
X156073243Y-98887790D01*
X155974616Y-99243013D01*
X155974610Y-99243039D01*
X155914967Y-99606840D01*
X155914966Y-99606857D01*
X155895006Y-99974997D01*
X155895006Y-99975000D01*
X155914966Y-100343142D01*
X155914967Y-100343159D01*
X155974610Y-100706960D01*
X155974616Y-100706986D01*
X156073243Y-101062209D01*
X156073245Y-101062216D01*
X156209706Y-101404710D01*
X156209715Y-101404728D01*
X156382406Y-101730458D01*
X156589307Y-102035614D01*
X156725496Y-102195948D01*
X156725497Y-102195949D01*
X158041351Y-100880095D01*
X158095456Y-100958480D01*
X158268816Y-101138966D01*
X158394865Y-101233686D01*
X157076520Y-102552031D01*
X157076520Y-102552032D01*
X157095643Y-102570147D01*
X157095655Y-102570158D01*
X157389158Y-102793274D01*
X157389175Y-102793286D01*
X157705067Y-102983350D01*
X157705080Y-102983357D01*
X158039671Y-103138155D01*
X158389068Y-103255882D01*
X158749134Y-103335138D01*
X159115655Y-103374999D01*
X159115663Y-103375000D01*
X159484337Y-103375000D01*
X159484344Y-103374999D01*
X159850865Y-103335138D01*
X160210931Y-103255882D01*
X160560328Y-103138155D01*
X160894919Y-102983357D01*
X160894932Y-102983350D01*
X161210824Y-102793286D01*
X161210841Y-102793274D01*
X161504340Y-102570161D01*
X161523479Y-102552031D01*
X160206879Y-101235431D01*
X160234180Y-101218168D01*
X160421501Y-101052216D01*
X160560511Y-100881958D01*
X161874501Y-102195948D01*
X161874502Y-102195948D01*
X162010690Y-102035615D01*
X162010701Y-102035601D01*
X162217593Y-101730458D01*
X162390284Y-101404728D01*
X162390293Y-101404710D01*
X162526754Y-101062216D01*
X162526756Y-101062209D01*
X162625383Y-100706986D01*
X162625389Y-100706960D01*
X162685032Y-100343159D01*
X162685033Y-100343142D01*
X162704994Y-99975000D01*
X162704994Y-99974997D01*
X162685033Y-99606857D01*
X162685032Y-99606840D01*
X162625389Y-99243039D01*
X162625383Y-99243013D01*
X162526756Y-98887790D01*
X162526754Y-98887783D01*
X162390293Y-98545289D01*
X162390284Y-98545271D01*
X162217593Y-98219541D01*
X162010692Y-97914385D01*
X161798246Y-97664275D01*
X161769848Y-97600437D01*
X161780472Y-97531380D01*
X161826745Y-97479029D01*
X161892754Y-97459999D01*
X161924636Y-97459999D01*
X161960911Y-97457145D01*
X162116194Y-97412032D01*
X162136384Y-97400091D01*
X162204108Y-97382906D01*
X162262629Y-97400089D01*
X162283605Y-97412494D01*
X162300533Y-97417412D01*
X162439002Y-97457642D01*
X162439005Y-97457642D01*
X162439007Y-97457643D01*
X162451108Y-97458595D01*
X162475308Y-97460500D01*
X162475310Y-97460500D01*
X162884692Y-97460500D01*
X162902841Y-97459071D01*
X162920993Y-97457643D01*
X162920995Y-97457642D01*
X162920997Y-97457642D01*
X162961975Y-97445736D01*
X163076395Y-97412494D01*
X163215687Y-97330117D01*
X163330117Y-97215687D01*
X163412494Y-97076395D01*
X163457643Y-96920993D01*
X163460500Y-96884690D01*
X163460500Y-96415310D01*
X163457643Y-96379007D01*
X163454560Y-96368397D01*
X163412495Y-96223609D01*
X163412494Y-96223606D01*
X163412494Y-96223605D01*
X163350429Y-96118659D01*
X163326146Y-96077598D01*
X163327975Y-96076516D01*
X163306441Y-96021682D01*
X163308054Y-95997201D01*
X163306939Y-95997096D01*
X163307671Y-95989340D01*
X163307673Y-95989333D01*
X163305500Y-95920185D01*
X163305500Y-95890650D01*
X163305499Y-95890646D01*
X163305255Y-95886764D01*
X163306676Y-95886674D01*
X163311250Y-95839551D01*
X163339999Y-95752797D01*
X163350500Y-95650009D01*
X163350499Y-93399992D01*
X163347178Y-93367486D01*
X163339999Y-93297203D01*
X163339998Y-93297200D01*
X163321325Y-93240849D01*
X163284814Y-93130666D01*
X163192712Y-92981344D01*
X163192709Y-92981341D01*
X163190400Y-92977597D01*
X163171960Y-92910204D01*
X163190400Y-92847403D01*
X163192711Y-92843657D01*
X163192712Y-92843656D01*
X163284814Y-92694334D01*
X163339999Y-92527797D01*
X163350500Y-92425009D01*
X163350499Y-91835451D01*
X163370183Y-91768413D01*
X163386813Y-91747776D01*
X163558788Y-91575801D01*
X163571042Y-91565986D01*
X163570859Y-91565764D01*
X163576867Y-91560792D01*
X163576877Y-91560786D01*
X163585108Y-91552019D01*
X163645348Y-91516626D01*
X163715162Y-91519418D01*
G37*
%TD.AperFunction*%
%TA.AperFunction,Conductor*%
G36*
X138661588Y-98828763D02*
G01*
X138708876Y-98860307D01*
X138718054Y-98870133D01*
X138718774Y-98870904D01*
X138746543Y-98887790D01*
X138756594Y-98893902D01*
X138761833Y-98897467D01*
X138797112Y-98924221D01*
X138797114Y-98924222D01*
X138804506Y-98928378D01*
X138804172Y-98928971D01*
X138838846Y-98951714D01*
X138990685Y-99103553D01*
X139067559Y-99026679D01*
X139128882Y-98993194D01*
X139155240Y-98990360D01*
X140223910Y-98990360D01*
X140290949Y-99010045D01*
X140336704Y-99062849D01*
X140346648Y-99132007D01*
X140317623Y-99195563D01*
X140311591Y-99202041D01*
X139240818Y-100272815D01*
X139179495Y-100306300D01*
X139153137Y-100309134D01*
X138650957Y-100309134D01*
X138584704Y-100306871D01*
X138584703Y-100306871D01*
X138584700Y-100306871D01*
X138541694Y-100317351D01*
X138535456Y-100318536D01*
X138491612Y-100324563D01*
X138491609Y-100324564D01*
X138475148Y-100331714D01*
X138455115Y-100338450D01*
X138437682Y-100342698D01*
X138437673Y-100342702D01*
X138399082Y-100364400D01*
X138393395Y-100367224D01*
X138352811Y-100384852D01*
X138352807Y-100384854D01*
X138338893Y-100396175D01*
X138321418Y-100408069D01*
X138305771Y-100416867D01*
X138274464Y-100448173D01*
X138269751Y-100452426D01*
X138235426Y-100480351D01*
X138235421Y-100480356D01*
X138225072Y-100495017D01*
X138211453Y-100511184D01*
X137859163Y-100863475D01*
X137797840Y-100896960D01*
X137771482Y-100899794D01*
X137613186Y-100899794D01*
X137429327Y-100938873D01*
X137429319Y-100938875D01*
X137257607Y-101015328D01*
X137257602Y-101015330D01*
X137105538Y-101125811D01*
X137105536Y-101125813D01*
X136979765Y-101265495D01*
X136979757Y-101265506D01*
X136885780Y-101428281D01*
X136885775Y-101428293D01*
X136827693Y-101607050D01*
X136827692Y-101607052D01*
X136827692Y-101607055D01*
X136809076Y-101784181D01*
X136807365Y-101800457D01*
X136805269Y-101800236D01*
X136788359Y-101857827D01*
X136735555Y-101903582D01*
X136676060Y-101912941D01*
X136676060Y-101913855D01*
X136670255Y-101913855D01*
X136669651Y-101913950D01*
X136668838Y-101913855D01*
X136538231Y-101913855D01*
X136424719Y-101927122D01*
X136408502Y-101929018D01*
X136408498Y-101929019D01*
X136336402Y-101955260D01*
X136266673Y-101959691D01*
X136205617Y-101925720D01*
X136172620Y-101864133D01*
X136178158Y-101794483D01*
X136191359Y-101769150D01*
X136217596Y-101730453D01*
X136390284Y-101404728D01*
X136390293Y-101404710D01*
X136526754Y-101062216D01*
X136526756Y-101062209D01*
X136625383Y-100706986D01*
X136625385Y-100706978D01*
X136641937Y-100606018D01*
X136672208Y-100543046D01*
X136731719Y-100506437D01*
X136801575Y-100507813D01*
X136809098Y-100510452D01*
X136921002Y-100553803D01*
X136987061Y-100566151D01*
X136987061Y-99817168D01*
X137039603Y-99852991D01*
X137169233Y-99892977D01*
X137270784Y-99892977D01*
X137371203Y-99877841D01*
X137487061Y-99822046D01*
X137487061Y-100566150D01*
X137553119Y-100553803D01*
X137751853Y-100476814D01*
X137751859Y-100476811D01*
X137933058Y-100364618D01*
X137933060Y-100364616D01*
X138090560Y-100221036D01*
X138219001Y-100050954D01*
X138313994Y-99860181D01*
X138314002Y-99860161D01*
X138361124Y-99694544D01*
X138398403Y-99635451D01*
X138428879Y-99615683D01*
X138503646Y-99581538D01*
X138503647Y-99581537D01*
X138550278Y-99543960D01*
X138778553Y-99315685D01*
X138778553Y-99315684D01*
X138513034Y-99050165D01*
X138479549Y-98988842D01*
X138484533Y-98919150D01*
X138513031Y-98874807D01*
X138530576Y-98857262D01*
X138591896Y-98823779D01*
X138661588Y-98828763D01*
G37*
%TD.AperFunction*%
%TA.AperFunction,Conductor*%
G36*
X151568039Y-94419685D02*
G01*
X151613794Y-94472489D01*
X151625000Y-94524000D01*
X151625000Y-97949999D01*
X151670500Y-97949999D01*
X151737539Y-97969684D01*
X151783294Y-98022488D01*
X151794500Y-98073999D01*
X151794500Y-100249622D01*
X151774815Y-100316661D01*
X151722011Y-100362416D01*
X151652853Y-100372360D01*
X151618096Y-100362004D01*
X151488497Y-100301571D01*
X151488486Y-100301567D01*
X151275000Y-100244364D01*
X151275000Y-101291981D01*
X151160199Y-101239554D01*
X151058975Y-101225000D01*
X150991025Y-101225000D01*
X150889801Y-101239554D01*
X150775000Y-101291981D01*
X150775000Y-100244364D01*
X150774999Y-100244364D01*
X150561513Y-100301567D01*
X150561507Y-100301570D01*
X150347422Y-100401399D01*
X150347420Y-100401400D01*
X150153926Y-100536886D01*
X150153920Y-100536891D01*
X149986891Y-100703920D01*
X149986890Y-100703922D01*
X149876880Y-100861032D01*
X149822303Y-100904657D01*
X149752804Y-100911849D01*
X149690450Y-100880327D01*
X149673730Y-100861031D01*
X149563494Y-100703597D01*
X149396402Y-100536506D01*
X149396395Y-100536501D01*
X149394461Y-100535147D01*
X149355425Y-100507813D01*
X149202834Y-100400967D01*
X149202830Y-100400965D01*
X149168280Y-100384854D01*
X148988663Y-100301097D01*
X148988659Y-100301096D01*
X148988655Y-100301094D01*
X148760413Y-100239938D01*
X148760403Y-100239936D01*
X148613692Y-100227100D01*
X148548623Y-100201647D01*
X148507645Y-100145056D01*
X148500500Y-100103572D01*
X148500500Y-97849500D01*
X148520185Y-97782461D01*
X148572989Y-97736706D01*
X148624500Y-97725500D01*
X150215696Y-97725500D01*
X150234131Y-97724049D01*
X150252569Y-97722598D01*
X150252571Y-97722597D01*
X150252573Y-97722597D01*
X150316951Y-97703893D01*
X150410398Y-97676744D01*
X150410405Y-97676739D01*
X150417554Y-97673647D01*
X150418141Y-97675005D01*
X150477452Y-97659957D01*
X150543714Y-97682117D01*
X150560530Y-97696191D01*
X150656654Y-97792315D01*
X150805875Y-97884356D01*
X150805880Y-97884358D01*
X150972302Y-97939505D01*
X150972309Y-97939506D01*
X151075019Y-97949999D01*
X151124999Y-97949998D01*
X151125000Y-97949998D01*
X151125000Y-95388547D01*
X151125500Y-95381244D01*
X151125500Y-95336405D01*
X151125825Y-95330060D01*
X151126061Y-95327766D01*
X151130352Y-95286028D01*
X151127303Y-95268343D01*
X151125500Y-95247275D01*
X151125500Y-94524000D01*
X151145185Y-94456961D01*
X151197989Y-94411206D01*
X151249500Y-94400000D01*
X151501000Y-94400000D01*
X151568039Y-94419685D01*
G37*
%TD.AperFunction*%
%TA.AperFunction,Conductor*%
G36*
X141224334Y-98439546D02*
G01*
X141280267Y-98481418D01*
X141304684Y-98546882D01*
X141305000Y-98555728D01*
X141305000Y-98559130D01*
X141307832Y-98595123D01*
X141307833Y-98595129D01*
X141321133Y-98640905D01*
X141320934Y-98710774D01*
X141282992Y-98769444D01*
X141219354Y-98798288D01*
X141202057Y-98799500D01*
X141061228Y-98799500D01*
X140994189Y-98779815D01*
X140948434Y-98727011D01*
X140938490Y-98657853D01*
X140967515Y-98594297D01*
X140973547Y-98587819D01*
X141093319Y-98468047D01*
X141154642Y-98434562D01*
X141224334Y-98439546D01*
G37*
%TD.AperFunction*%
%TA.AperFunction,Conductor*%
G36*
X145920589Y-93699217D02*
G01*
X145923645Y-93702170D01*
X146063181Y-93841706D01*
X146096666Y-93903029D01*
X146099500Y-93929387D01*
X146099500Y-94650500D01*
X146079815Y-94717539D01*
X146027011Y-94763294D01*
X145975500Y-94774500D01*
X145970460Y-94774500D01*
X145903421Y-94754815D01*
X145857666Y-94702011D01*
X145846842Y-94640775D01*
X145847296Y-94635001D01*
X145847295Y-94635000D01*
X144249000Y-94635000D01*
X144181961Y-94615315D01*
X144136206Y-94562511D01*
X144125000Y-94511000D01*
X144125000Y-94259000D01*
X144144685Y-94191961D01*
X144197489Y-94146206D01*
X144249000Y-94135000D01*
X145847295Y-94135000D01*
X145847295Y-94134998D01*
X145847100Y-94132513D01*
X145801281Y-93974801D01*
X145729232Y-93852972D01*
X145712049Y-93785248D01*
X145734209Y-93718985D01*
X145788675Y-93675222D01*
X145858155Y-93667853D01*
X145920589Y-93699217D01*
G37*
%TD.AperFunction*%
%TA.AperFunction,Conductor*%
G36*
X149279176Y-90685125D02*
G01*
X149283702Y-90686240D01*
X149283705Y-90686242D01*
X149416729Y-90719030D01*
X149477108Y-90754186D01*
X149495333Y-90781769D01*
X149495815Y-90781477D01*
X149500219Y-90788719D01*
X149511541Y-90802636D01*
X149523439Y-90820117D01*
X149532234Y-90835760D01*
X149532236Y-90835761D01*
X149563532Y-90867057D01*
X149567783Y-90871766D01*
X149595722Y-90906108D01*
X149610381Y-90916455D01*
X149626552Y-90930077D01*
X149708034Y-91011559D01*
X149741519Y-91072882D01*
X149744353Y-91099240D01*
X149744353Y-91540556D01*
X149744358Y-91540603D01*
X149744358Y-91596962D01*
X149758694Y-91696667D01*
X149763558Y-91730499D01*
X149763558Y-91730502D01*
X149764819Y-91739276D01*
X149805367Y-91877368D01*
X149805372Y-91877381D01*
X149865089Y-92008143D01*
X149865098Y-92008160D01*
X149910171Y-92078294D01*
X149935924Y-92118367D01*
X149939519Y-92123960D01*
X149959204Y-92191000D01*
X149939519Y-92258039D01*
X149886716Y-92303794D01*
X149835204Y-92315000D01*
X149575000Y-92315000D01*
X149575000Y-93241000D01*
X149555315Y-93308039D01*
X149502511Y-93353794D01*
X149451000Y-93365000D01*
X147852705Y-93365000D01*
X147852704Y-93365001D01*
X147852899Y-93367486D01*
X147898718Y-93525198D01*
X147982314Y-93666552D01*
X147987100Y-93672722D01*
X147984640Y-93674629D01*
X148011210Y-93723288D01*
X148006226Y-93792980D01*
X147985162Y-93825781D01*
X147986699Y-93826974D01*
X147981915Y-93833140D01*
X147898255Y-93974603D01*
X147898254Y-93974604D01*
X147876991Y-94047793D01*
X147845596Y-94100878D01*
X147412181Y-94534294D01*
X147350858Y-94567779D01*
X147281167Y-94562795D01*
X147225233Y-94520924D01*
X147200816Y-94455459D01*
X147200500Y-94446613D01*
X147200500Y-93659414D01*
X147201165Y-93639945D01*
X147202763Y-93593174D01*
X147196532Y-93567608D01*
X147192281Y-93550163D01*
X147191094Y-93543918D01*
X147189625Y-93533230D01*
X147185070Y-93500080D01*
X147177919Y-93483617D01*
X147171181Y-93463583D01*
X147166933Y-93446148D01*
X147145234Y-93407556D01*
X147142414Y-93401878D01*
X147141597Y-93399998D01*
X147124780Y-93361280D01*
X147124780Y-93361279D01*
X147113458Y-93347363D01*
X147101557Y-93329876D01*
X147092768Y-93314244D01*
X147092767Y-93314243D01*
X147092766Y-93314241D01*
X147061456Y-93282931D01*
X147057210Y-93278225D01*
X147040202Y-93257320D01*
X147029278Y-93243892D01*
X147014612Y-93233539D01*
X146998445Y-93219920D01*
X146643523Y-92864998D01*
X147852704Y-92864998D01*
X147852705Y-92865000D01*
X149075000Y-92865000D01*
X149075000Y-92315000D01*
X148434356Y-92315000D01*
X148397510Y-92317899D01*
X148397504Y-92317900D01*
X148239806Y-92363716D01*
X148239803Y-92363717D01*
X148098447Y-92447314D01*
X148098438Y-92447321D01*
X147982321Y-92563438D01*
X147982314Y-92563447D01*
X147898718Y-92704801D01*
X147852899Y-92862513D01*
X147852704Y-92864998D01*
X146643523Y-92864998D01*
X145990706Y-92212181D01*
X145957221Y-92150858D01*
X145962205Y-92081166D01*
X146004077Y-92025233D01*
X146069541Y-92000816D01*
X146078387Y-92000500D01*
X146132022Y-92000500D01*
X146237741Y-91974442D01*
X146291295Y-91961242D01*
X146331057Y-91940372D01*
X146399564Y-91926647D01*
X146446309Y-91940373D01*
X146495126Y-91965994D01*
X146533705Y-91986242D01*
X146622629Y-92008160D01*
X146692978Y-92025500D01*
X146692979Y-92025500D01*
X146857022Y-92025500D01*
X146936658Y-92005871D01*
X147016295Y-91986242D01*
X147054874Y-91965993D01*
X147123381Y-91952268D01*
X147170125Y-91965993D01*
X147197557Y-91980391D01*
X147208705Y-91986242D01*
X147367978Y-92025500D01*
X147367979Y-92025500D01*
X147532022Y-92025500D01*
X147611658Y-92005871D01*
X147691295Y-91986242D01*
X147742374Y-91959432D01*
X147810881Y-91945707D01*
X147857624Y-91959432D01*
X147897557Y-91980391D01*
X147908705Y-91986242D01*
X148067978Y-92025500D01*
X148067979Y-92025500D01*
X148232022Y-92025500D01*
X148391291Y-91986243D01*
X148391291Y-91986242D01*
X148391295Y-91986242D01*
X148536546Y-91910008D01*
X148659332Y-91801229D01*
X148752518Y-91666226D01*
X148810688Y-91512845D01*
X148811750Y-91504094D01*
X148839368Y-91439919D01*
X148847155Y-91431368D01*
X148928434Y-91350090D01*
X148957619Y-91320906D01*
X149006044Y-91275680D01*
X149029049Y-91237847D01*
X149032606Y-91232622D01*
X149059361Y-91197342D01*
X149065943Y-91180648D01*
X149075344Y-91161719D01*
X149084672Y-91146382D01*
X149096619Y-91103739D01*
X149098632Y-91097753D01*
X149114876Y-91056564D01*
X149115769Y-91047883D01*
X149116711Y-91038716D01*
X149120658Y-91017944D01*
X149125500Y-91000665D01*
X149125500Y-90956405D01*
X149125825Y-90950060D01*
X149127605Y-90932743D01*
X149130352Y-90906028D01*
X149127303Y-90888343D01*
X149125500Y-90867275D01*
X149125500Y-90805522D01*
X149145185Y-90738483D01*
X149197989Y-90692728D01*
X149267147Y-90682784D01*
X149279176Y-90685125D01*
G37*
%TD.AperFunction*%
%TA.AperFunction,Conductor*%
G36*
X135993682Y-89872805D02*
G01*
X136038029Y-89901306D01*
X136285446Y-90148722D01*
X136285457Y-90148732D01*
X136373523Y-90216310D01*
X136373526Y-90216312D01*
X136496820Y-90267381D01*
X136537049Y-90294261D01*
X136800392Y-90557603D01*
X136825247Y-90584216D01*
X136843730Y-90604007D01*
X136845633Y-90606044D01*
X136883453Y-90629042D01*
X136888692Y-90632607D01*
X136923971Y-90659361D01*
X136940666Y-90665944D01*
X136959603Y-90675351D01*
X136974931Y-90684672D01*
X137017560Y-90696616D01*
X137023574Y-90698639D01*
X137025905Y-90699558D01*
X137064749Y-90714876D01*
X137082600Y-90716711D01*
X137103365Y-90720657D01*
X137120648Y-90725500D01*
X137164907Y-90725500D01*
X137171248Y-90725824D01*
X137215285Y-90730352D01*
X137232969Y-90727303D01*
X137254037Y-90725500D01*
X138181289Y-90725500D01*
X138247512Y-90727762D01*
X138290518Y-90717280D01*
X138296737Y-90716098D01*
X138340606Y-90710070D01*
X138357069Y-90702918D01*
X138377102Y-90696181D01*
X138394538Y-90691933D01*
X138433151Y-90670221D01*
X138438776Y-90667427D01*
X138479406Y-90649780D01*
X138479407Y-90649778D01*
X138486657Y-90645371D01*
X138488031Y-90647631D01*
X138540092Y-90625775D01*
X138553935Y-90625000D01*
X139275500Y-90625000D01*
X139342539Y-90644685D01*
X139388294Y-90697489D01*
X139399500Y-90749000D01*
X139399500Y-91001000D01*
X139379815Y-91068039D01*
X139327011Y-91113794D01*
X139275500Y-91125000D01*
X138507958Y-91125000D01*
X138440919Y-91105315D01*
X138423787Y-91092057D01*
X138399999Y-91070068D01*
X138364869Y-91072834D01*
X138364868Y-91072834D01*
X138210811Y-91117592D01*
X138210808Y-91117593D01*
X138072714Y-91199261D01*
X138072705Y-91199268D01*
X137959268Y-91312705D01*
X137959261Y-91312714D01*
X137877595Y-91450805D01*
X137837156Y-91590000D01*
X138776000Y-91590000D01*
X138843039Y-91609685D01*
X138888794Y-91662489D01*
X138900000Y-91714000D01*
X138900000Y-91965500D01*
X138880315Y-92032539D01*
X138827511Y-92078294D01*
X138776000Y-92089500D01*
X138400820Y-92089501D01*
X138396903Y-92089809D01*
X138392041Y-92090000D01*
X137837156Y-92090000D01*
X137815857Y-92118367D01*
X137759863Y-92160158D01*
X137690164Y-92165042D01*
X137633158Y-92135551D01*
X137579506Y-92086641D01*
X137579504Y-92086639D01*
X137398305Y-91974446D01*
X137398296Y-91974442D01*
X137199570Y-91897456D01*
X137199565Y-91897455D01*
X137133507Y-91885106D01*
X137133507Y-92634089D01*
X137080965Y-92598267D01*
X136951335Y-92558281D01*
X136849784Y-92558281D01*
X136749365Y-92573417D01*
X136633507Y-92629211D01*
X136633507Y-91885106D01*
X136567448Y-91897455D01*
X136567443Y-91897456D01*
X136368717Y-91974442D01*
X136368708Y-91974446D01*
X136187509Y-92086639D01*
X136187507Y-92086641D01*
X136030007Y-92230221D01*
X135901566Y-92400303D01*
X135806573Y-92591076D01*
X135806566Y-92591094D01*
X135760700Y-92752297D01*
X135723421Y-92811390D01*
X135692948Y-92831155D01*
X135623995Y-92862646D01*
X135577358Y-92900228D01*
X135327878Y-93149707D01*
X135266555Y-93183191D01*
X135196863Y-93178207D01*
X135140930Y-93136335D01*
X135130641Y-93120106D01*
X135116735Y-93093876D01*
X135113960Y-93090609D01*
X135101081Y-93072333D01*
X135100493Y-93071314D01*
X135100492Y-93071313D01*
X135100491Y-93071311D01*
X135048896Y-93014010D01*
X134996972Y-92952880D01*
X134996384Y-92952433D01*
X134985792Y-92942686D01*
X134985691Y-92942799D01*
X134980866Y-92938454D01*
X134941983Y-92910204D01*
X134915988Y-92891317D01*
X134849698Y-92840925D01*
X134849697Y-92840924D01*
X134849695Y-92840923D01*
X134843936Y-92837458D01*
X134844038Y-92837288D01*
X134842120Y-92836162D01*
X134841858Y-92836617D01*
X134836232Y-92833369D01*
X134760159Y-92799499D01*
X134681809Y-92763250D01*
X134681803Y-92763248D01*
X134681801Y-92763247D01*
X134681798Y-92763246D01*
X134681689Y-92763209D01*
X134676122Y-92761696D01*
X134672905Y-92760651D01*
X134672901Y-92760650D01*
X134588485Y-92742706D01*
X134522229Y-92728122D01*
X134460989Y-92694488D01*
X134427654Y-92633084D01*
X134432809Y-92563404D01*
X134474817Y-92507573D01*
X134540341Y-92483317D01*
X134548884Y-92483022D01*
X134669386Y-92483022D01*
X134669390Y-92483022D01*
X134824910Y-92443091D01*
X134857789Y-92425016D01*
X134965611Y-92365741D01*
X134965612Y-92365740D01*
X134965611Y-92365740D01*
X134965614Y-92365739D01*
X134993091Y-92342271D01*
X134993096Y-92342267D01*
X135274769Y-92060592D01*
X135274770Y-92060592D01*
X135278835Y-92055831D01*
X135298243Y-92033110D01*
X135375595Y-91892406D01*
X135392204Y-91827715D01*
X135427939Y-91767681D01*
X135481467Y-91738452D01*
X135546158Y-91721843D01*
X135546162Y-91721841D01*
X135686859Y-91644493D01*
X135686860Y-91644492D01*
X135686859Y-91644492D01*
X135686862Y-91644491D01*
X135706748Y-91627506D01*
X135714344Y-91621019D01*
X135996017Y-91339344D01*
X135996018Y-91339344D01*
X136000935Y-91333587D01*
X136019491Y-91311862D01*
X136096843Y-91171158D01*
X136136774Y-91015638D01*
X136136774Y-90855073D01*
X136096843Y-90699552D01*
X136094987Y-90696176D01*
X136019493Y-90558851D01*
X136019492Y-90558850D01*
X135996019Y-90531367D01*
X135786819Y-90322167D01*
X135753334Y-90260844D01*
X135750500Y-90234486D01*
X135750500Y-90064835D01*
X135770185Y-89997796D01*
X135786815Y-89977158D01*
X135862667Y-89901305D01*
X135923990Y-89867821D01*
X135993682Y-89872805D01*
G37*
%TD.AperFunction*%
%TA.AperFunction,Conductor*%
G36*
X133830834Y-90757040D02*
G01*
X133879649Y-90790248D01*
X133906543Y-90820117D01*
X133944629Y-90862416D01*
X133944633Y-90862420D01*
X133947408Y-90864436D01*
X133948625Y-90866014D01*
X133949463Y-90866769D01*
X133949325Y-90866922D01*
X133990073Y-90919767D01*
X133996051Y-90989381D01*
X133963444Y-91051175D01*
X133962203Y-91052434D01*
X133832735Y-91181903D01*
X133832734Y-91181904D01*
X133809261Y-91209384D01*
X133731908Y-91350091D01*
X133731537Y-91351537D01*
X133730878Y-91352691D01*
X133729035Y-91357347D01*
X133728372Y-91357084D01*
X133699115Y-91408375D01*
X133511676Y-91595813D01*
X133527625Y-91609435D01*
X133527632Y-91609440D01*
X133550290Y-91621897D01*
X133599554Y-91671444D01*
X133614210Y-91739759D01*
X133589606Y-91805154D01*
X133578233Y-91818240D01*
X133058294Y-92338181D01*
X132996971Y-92371666D01*
X132970613Y-92374500D01*
X132801526Y-92374500D01*
X132734487Y-92354815D01*
X132695988Y-92315597D01*
X132636783Y-92219612D01*
X132636780Y-92219608D01*
X132604853Y-92187681D01*
X132571368Y-92126358D01*
X132576352Y-92056666D01*
X132604853Y-92012319D01*
X132616672Y-92000500D01*
X132636781Y-91980391D01*
X132725049Y-91837287D01*
X132777936Y-91677685D01*
X132788000Y-91579174D01*
X132788000Y-91366885D01*
X132807685Y-91299846D01*
X132824315Y-91279208D01*
X132932904Y-91170619D01*
X132994226Y-91137135D01*
X133063918Y-91142119D01*
X133119851Y-91183991D01*
X133129246Y-91198563D01*
X133144499Y-91226309D01*
X133144503Y-91226314D01*
X133158122Y-91242261D01*
X133363212Y-91037171D01*
X133405254Y-91009557D01*
X133410528Y-91007468D01*
X133410534Y-91007467D01*
X133551238Y-90930115D01*
X133578715Y-90906647D01*
X133578720Y-90906643D01*
X133578719Y-90906643D01*
X133699820Y-90785539D01*
X133761142Y-90752056D01*
X133830834Y-90757040D01*
G37*
%TD.AperFunction*%
%TA.AperFunction,Conductor*%
G36*
X153303480Y-89052314D02*
G01*
X153309072Y-89057571D01*
X153345405Y-89093904D01*
X153350756Y-89100005D01*
X153372454Y-89128282D01*
X153497895Y-89224536D01*
X153643974Y-89285044D01*
X153780831Y-89303061D01*
X153796956Y-89310194D01*
X153801892Y-89307023D01*
X153820633Y-89303062D01*
X153833600Y-89301355D01*
X153836065Y-89301031D01*
X153844164Y-89300500D01*
X156524903Y-89300500D01*
X156591942Y-89320185D01*
X156612584Y-89336819D01*
X156663181Y-89387416D01*
X156696666Y-89448739D01*
X156699500Y-89475097D01*
X156699500Y-89578333D01*
X156679815Y-89645372D01*
X156663181Y-89666014D01*
X156619887Y-89709307D01*
X156619881Y-89709315D01*
X156537505Y-89848606D01*
X156537504Y-89848607D01*
X156503464Y-89965773D01*
X156465857Y-90024658D01*
X156402384Y-90053864D01*
X156358611Y-90052468D01*
X156350575Y-90050760D01*
X156344646Y-90049500D01*
X156155354Y-90049500D01*
X156134823Y-90053864D01*
X155970197Y-90088855D01*
X155970192Y-90088857D01*
X155797263Y-90165851D01*
X155794873Y-90167231D01*
X155752738Y-90182235D01*
X155742552Y-90183886D01*
X155607747Y-90234166D01*
X155546419Y-90267653D01*
X155546418Y-90267653D01*
X155541021Y-90271694D01*
X155475555Y-90296107D01*
X155407283Y-90281250D01*
X155357881Y-90231842D01*
X155343359Y-90185023D01*
X155339505Y-90147303D01*
X155284358Y-89980880D01*
X155284356Y-89980875D01*
X155192315Y-89831654D01*
X155068345Y-89707684D01*
X154919124Y-89615643D01*
X154919119Y-89615641D01*
X154752697Y-89560494D01*
X154752690Y-89560493D01*
X154649986Y-89550000D01*
X154375000Y-89550000D01*
X154375000Y-90676000D01*
X154355315Y-90743039D01*
X154302511Y-90788794D01*
X154251000Y-90800000D01*
X153999000Y-90800000D01*
X153931961Y-90780315D01*
X153886206Y-90727511D01*
X153875000Y-90676000D01*
X153875000Y-89550000D01*
X153836827Y-89550000D01*
X153802193Y-89539830D01*
X153783752Y-89548519D01*
X153764646Y-89550000D01*
X153600029Y-89550000D01*
X153600012Y-89550001D01*
X153497302Y-89560494D01*
X153330880Y-89615641D01*
X153330875Y-89615643D01*
X153181654Y-89707684D01*
X153146611Y-89742727D01*
X153085288Y-89776212D01*
X153015596Y-89771226D01*
X152971250Y-89742726D01*
X152889349Y-89660825D01*
X152485787Y-89257262D01*
X152452302Y-89195939D01*
X152457286Y-89126247D01*
X152499158Y-89070314D01*
X152564622Y-89045897D01*
X152599248Y-89048290D01*
X152767789Y-89084115D01*
X152767790Y-89084115D01*
X152957079Y-89084115D01*
X152957081Y-89084115D01*
X153142238Y-89044759D01*
X153170953Y-89031974D01*
X153240203Y-89022687D01*
X153303480Y-89052314D01*
G37*
%TD.AperFunction*%
%TA.AperFunction,Conductor*%
G36*
X142096475Y-88603133D02*
G01*
X142145170Y-88653239D01*
X142159500Y-88711106D01*
X142159500Y-89941000D01*
X142139815Y-90008039D01*
X142087011Y-90053794D01*
X142035502Y-90065000D01*
X141975364Y-90065001D01*
X141975363Y-90065001D01*
X141939089Y-90067854D01*
X141783803Y-90112969D01*
X141763608Y-90124912D01*
X141695884Y-90142092D01*
X141637370Y-90124910D01*
X141616397Y-90112507D01*
X141616390Y-90112504D01*
X141460997Y-90067357D01*
X141460991Y-90067356D01*
X141424692Y-90064500D01*
X141424690Y-90064500D01*
X141399500Y-90064500D01*
X141332461Y-90044815D01*
X141286706Y-89992011D01*
X141275500Y-89940500D01*
X141275500Y-88949500D01*
X141295185Y-88882461D01*
X141347989Y-88836706D01*
X141399500Y-88825500D01*
X141469144Y-88825500D01*
X141469146Y-88825500D01*
X141654303Y-88786144D01*
X141827230Y-88709151D01*
X141962617Y-88610786D01*
X142028421Y-88587308D01*
X142096475Y-88603133D01*
G37*
%TD.AperFunction*%
%TA.AperFunction,Conductor*%
G36*
X132551606Y-89400393D02*
G01*
X132597361Y-89453197D01*
X132607305Y-89522355D01*
X132578280Y-89585911D01*
X132572248Y-89592389D01*
X132503812Y-89660825D01*
X132442489Y-89694310D01*
X132372797Y-89689326D01*
X132328450Y-89660825D01*
X132260014Y-89592389D01*
X132226529Y-89531066D01*
X132231513Y-89461374D01*
X132273385Y-89405441D01*
X132338849Y-89381024D01*
X132347695Y-89380708D01*
X132484567Y-89380708D01*
X132551606Y-89400393D01*
G37*
%TD.AperFunction*%
%TA.AperFunction,Conductor*%
G36*
X146684426Y-85078112D02*
G01*
X146699311Y-85087679D01*
X146800311Y-85163288D01*
X146836110Y-85211110D01*
X146850000Y-85225000D01*
X146897819Y-85225000D01*
X146897833Y-85224999D01*
X146934395Y-85221068D01*
X146960905Y-85221068D01*
X147002127Y-85225500D01*
X147547872Y-85225499D01*
X147547873Y-85225498D01*
X147547885Y-85225498D01*
X147586744Y-85221320D01*
X147613242Y-85221319D01*
X147633910Y-85223541D01*
X147698457Y-85250277D01*
X147738305Y-85307669D01*
X147740799Y-85377494D01*
X147738582Y-85385147D01*
X147691233Y-85530875D01*
X147689326Y-85536744D01*
X147669540Y-85725000D01*
X147689326Y-85913256D01*
X147689327Y-85913259D01*
X147747818Y-86093277D01*
X147747821Y-86093284D01*
X147842467Y-86257216D01*
X147937261Y-86362495D01*
X147969129Y-86397888D01*
X148122265Y-86509148D01*
X148122270Y-86509151D01*
X148295192Y-86586142D01*
X148295197Y-86586144D01*
X148480354Y-86625500D01*
X148480355Y-86625500D01*
X148550500Y-86625500D01*
X148617539Y-86645185D01*
X148663294Y-86697989D01*
X148674500Y-86749500D01*
X148674500Y-86776951D01*
X148674387Y-86780696D01*
X148670642Y-86842606D01*
X148681821Y-86903612D01*
X148682384Y-86907313D01*
X148689859Y-86968870D01*
X148689860Y-86968874D01*
X148693451Y-86978343D01*
X148699474Y-86999946D01*
X148701304Y-87009930D01*
X148726759Y-87066490D01*
X148728189Y-87069941D01*
X148750182Y-87127930D01*
X148750183Y-87127931D01*
X148755936Y-87136266D01*
X148766961Y-87155813D01*
X148771120Y-87165055D01*
X148771124Y-87165060D01*
X148785204Y-87183032D01*
X148805660Y-87209142D01*
X148809371Y-87213878D01*
X148811591Y-87216896D01*
X148846812Y-87267924D01*
X148846816Y-87267928D01*
X148846817Y-87267929D01*
X148893250Y-87309064D01*
X148895941Y-87311598D01*
X149205302Y-87620959D01*
X149479929Y-87895586D01*
X149513414Y-87956909D01*
X149508430Y-88026601D01*
X149498981Y-88046387D01*
X149452130Y-88125608D01*
X149452129Y-88125611D01*
X149407335Y-88279791D01*
X149407334Y-88279797D01*
X149404500Y-88315817D01*
X149404500Y-88505611D01*
X149384815Y-88572650D01*
X149368181Y-88593292D01*
X149317382Y-88644092D01*
X149268958Y-88689317D01*
X149245956Y-88727140D01*
X149242387Y-88732382D01*
X149232063Y-88745997D01*
X149220791Y-88760863D01*
X149164599Y-88802386D01*
X149094878Y-88806938D01*
X149047678Y-88785206D01*
X149042334Y-88781205D01*
X149042328Y-88781202D01*
X148907486Y-88730910D01*
X148907485Y-88730909D01*
X148907483Y-88730909D01*
X148847873Y-88724500D01*
X148847863Y-88724500D01*
X148302130Y-88724500D01*
X148302119Y-88724501D01*
X148263253Y-88728679D01*
X148236748Y-88728679D01*
X148197874Y-88724500D01*
X147652130Y-88724500D01*
X147652119Y-88724501D01*
X147613253Y-88728679D01*
X147586748Y-88728679D01*
X147547874Y-88724500D01*
X147002130Y-88724500D01*
X147002119Y-88724501D01*
X146963253Y-88728679D01*
X146936748Y-88728679D01*
X146897874Y-88724500D01*
X146352130Y-88724500D01*
X146352119Y-88724501D01*
X146313253Y-88728679D01*
X146286748Y-88728679D01*
X146247874Y-88724500D01*
X145702130Y-88724500D01*
X145702119Y-88724501D01*
X145663253Y-88728679D01*
X145636748Y-88728679D01*
X145597874Y-88724500D01*
X145052130Y-88724500D01*
X145052119Y-88724501D01*
X145013253Y-88728679D01*
X144986748Y-88728679D01*
X144947874Y-88724500D01*
X144402130Y-88724500D01*
X144402119Y-88724501D01*
X144363253Y-88728679D01*
X144336748Y-88728679D01*
X144297875Y-88724500D01*
X144297873Y-88724500D01*
X144024500Y-88724500D01*
X143957461Y-88704815D01*
X143911706Y-88652011D01*
X143900500Y-88600500D01*
X143900500Y-85349499D01*
X143920185Y-85282460D01*
X143972989Y-85236705D01*
X144024500Y-85225499D01*
X144297872Y-85225499D01*
X144297885Y-85225498D01*
X144336744Y-85221320D01*
X144363252Y-85221320D01*
X144402127Y-85225500D01*
X144947872Y-85225499D01*
X144947873Y-85225498D01*
X144947885Y-85225498D01*
X144986744Y-85221320D01*
X145013252Y-85221320D01*
X145052127Y-85225500D01*
X145597872Y-85225499D01*
X145597873Y-85225498D01*
X145597885Y-85225498D01*
X145636744Y-85221320D01*
X145663252Y-85221320D01*
X145702127Y-85225500D01*
X146247872Y-85225499D01*
X146256711Y-85224548D01*
X146289094Y-85221068D01*
X146315606Y-85221068D01*
X146352166Y-85224999D01*
X146352182Y-85225000D01*
X146400000Y-85225000D01*
X146415611Y-85209388D01*
X146419685Y-85195515D01*
X146449689Y-85163288D01*
X146550689Y-85087679D01*
X146616153Y-85063261D01*
X146684426Y-85078112D01*
G37*
%TD.AperFunction*%
%TA.AperFunction,Conductor*%
G36*
X159494602Y-69483996D02*
G01*
X159695492Y-69493284D01*
X159700690Y-69493745D01*
X159901571Y-69520192D01*
X160096057Y-69547322D01*
X160100862Y-69548188D01*
X160299710Y-69592271D01*
X160490125Y-69637057D01*
X160494535Y-69638269D01*
X160689235Y-69699657D01*
X160874516Y-69761758D01*
X160878520Y-69763256D01*
X161067458Y-69841516D01*
X161246171Y-69920426D01*
X161249671Y-69922107D01*
X161431369Y-70016693D01*
X161602024Y-70111748D01*
X161605155Y-70113616D01*
X161607260Y-70114957D01*
X161778059Y-70223768D01*
X161933281Y-70330097D01*
X161939275Y-70334203D01*
X161941969Y-70336156D01*
X162104774Y-70461081D01*
X162190132Y-70531961D01*
X162255227Y-70586016D01*
X162257486Y-70587985D01*
X162329225Y-70653722D01*
X162408911Y-70726741D01*
X162548258Y-70866088D01*
X162687008Y-71017507D01*
X162688982Y-71019771D01*
X162755414Y-71099771D01*
X162813920Y-71170227D01*
X162938833Y-71333017D01*
X162940794Y-71335721D01*
X163051229Y-71496936D01*
X163087952Y-71554579D01*
X163161382Y-71669843D01*
X163163257Y-71672986D01*
X163258309Y-71843636D01*
X163352870Y-72025285D01*
X163354585Y-72028855D01*
X163401213Y-72134457D01*
X163433486Y-72207548D01*
X163440714Y-72224998D01*
X163511738Y-72396468D01*
X163513244Y-72400492D01*
X163575346Y-72585779D01*
X163636724Y-72780446D01*
X163637947Y-72784896D01*
X163682737Y-72975331D01*
X163726805Y-73174109D01*
X163727680Y-73178965D01*
X163754816Y-73373495D01*
X163781250Y-73574279D01*
X163781714Y-73579511D01*
X163791009Y-73780535D01*
X163799500Y-73975000D01*
X163799500Y-88665546D01*
X163779815Y-88732585D01*
X163727011Y-88778340D01*
X163657853Y-88788284D01*
X163594297Y-88759259D01*
X163587819Y-88753227D01*
X163452187Y-88617595D01*
X163420792Y-88564510D01*
X163397869Y-88485607D01*
X163316135Y-88347402D01*
X163316133Y-88347400D01*
X163316130Y-88347396D01*
X163264422Y-88295688D01*
X163230937Y-88234365D01*
X163234397Y-88169003D01*
X163289505Y-88002697D01*
X163289506Y-88002690D01*
X163299999Y-87899986D01*
X163300000Y-87899973D01*
X163300000Y-87100000D01*
X161774000Y-87100000D01*
X161706961Y-87080315D01*
X161661206Y-87027511D01*
X161650000Y-86976000D01*
X161650000Y-85100000D01*
X162150000Y-85100000D01*
X162150000Y-86600000D01*
X163299999Y-86600000D01*
X163299999Y-85800028D01*
X163299998Y-85800013D01*
X163289505Y-85697302D01*
X163234358Y-85530880D01*
X163234356Y-85530875D01*
X163142315Y-85381654D01*
X163018345Y-85257684D01*
X162869124Y-85165643D01*
X162869119Y-85165641D01*
X162702697Y-85110494D01*
X162702690Y-85110493D01*
X162599986Y-85100000D01*
X162150000Y-85100000D01*
X161650000Y-85100000D01*
X161200028Y-85100000D01*
X161200012Y-85100001D01*
X161097302Y-85110494D01*
X160930880Y-85165641D01*
X160930875Y-85165643D01*
X160781654Y-85257684D01*
X160657684Y-85381654D01*
X160565643Y-85530875D01*
X160565641Y-85530880D01*
X160510494Y-85697302D01*
X160510493Y-85697309D01*
X160500000Y-85800013D01*
X160500000Y-86086314D01*
X160480315Y-86153353D01*
X160427511Y-86199108D01*
X160358353Y-86209052D01*
X160294797Y-86180027D01*
X160258294Y-86125318D01*
X160247679Y-86093284D01*
X160237549Y-86062713D01*
X160237545Y-86062707D01*
X160237544Y-86062704D01*
X160149283Y-85919612D01*
X160149280Y-85919608D01*
X160030391Y-85800719D01*
X160030387Y-85800716D01*
X159887295Y-85712455D01*
X159887289Y-85712452D01*
X159887287Y-85712451D01*
X159727685Y-85659564D01*
X159727683Y-85659563D01*
X159629181Y-85649500D01*
X159629174Y-85649500D01*
X159512235Y-85649500D01*
X159445196Y-85629815D01*
X159399441Y-85577011D01*
X159389497Y-85507853D01*
X159402135Y-85472499D01*
X159400799Y-85471898D01*
X159408035Y-85455819D01*
X159419062Y-85436268D01*
X159424818Y-85427930D01*
X159446820Y-85369912D01*
X159448235Y-85366495D01*
X159473694Y-85309932D01*
X159475520Y-85299965D01*
X159481548Y-85278340D01*
X159485140Y-85268872D01*
X159492153Y-85211110D01*
X159492615Y-85207309D01*
X159493179Y-85203605D01*
X159500135Y-85165643D01*
X159504357Y-85142606D01*
X159500613Y-85080707D01*
X159500500Y-85076963D01*
X159500500Y-82173035D01*
X159500613Y-82169290D01*
X159504357Y-82107394D01*
X159493177Y-82046386D01*
X159492615Y-82042689D01*
X159485682Y-81985589D01*
X159485140Y-81981128D01*
X159481546Y-81971651D01*
X159475519Y-81950029D01*
X159474884Y-81946563D01*
X159473694Y-81940068D01*
X159448239Y-81883512D01*
X159446809Y-81880057D01*
X159437758Y-81856192D01*
X159424818Y-81822070D01*
X159419059Y-81813727D01*
X159408030Y-81794172D01*
X159403877Y-81784943D01*
X159403874Y-81784938D01*
X159365633Y-81736127D01*
X159363413Y-81733110D01*
X159349829Y-81713431D01*
X159328183Y-81682071D01*
X159281750Y-81640935D01*
X159279056Y-81638399D01*
X158427338Y-80786681D01*
X158393853Y-80725358D01*
X158398837Y-80655666D01*
X158440709Y-80599733D01*
X158506173Y-80575316D01*
X158515019Y-80575000D01*
X158778144Y-80575000D01*
X158814989Y-80572100D01*
X158814995Y-80572099D01*
X158972693Y-80526283D01*
X158972696Y-80526282D01*
X159114052Y-80442685D01*
X159114061Y-80442678D01*
X159230178Y-80326561D01*
X159230185Y-80326552D01*
X159313781Y-80185198D01*
X159359600Y-80027486D01*
X159359795Y-80025001D01*
X159359795Y-80025000D01*
X157999000Y-80025000D01*
X157931961Y-80005315D01*
X157886206Y-79952511D01*
X157875000Y-79901000D01*
X157875000Y-78975000D01*
X157471856Y-78975000D01*
X157435010Y-78977899D01*
X157369094Y-78997050D01*
X157299225Y-78996850D01*
X157240555Y-78958907D01*
X157211712Y-78895269D01*
X157210500Y-78877973D01*
X157210500Y-78772547D01*
X157230185Y-78705508D01*
X157282989Y-78659753D01*
X157352147Y-78649809D01*
X157369095Y-78653471D01*
X157434926Y-78672597D01*
X157434929Y-78672597D01*
X157434931Y-78672598D01*
X157447222Y-78673565D01*
X157471804Y-78675500D01*
X157471806Y-78675500D01*
X158638000Y-78675500D01*
X158705039Y-78695185D01*
X158750794Y-78747989D01*
X158762000Y-78799500D01*
X158762000Y-78851000D01*
X158742315Y-78918039D01*
X158689511Y-78963794D01*
X158638000Y-78975000D01*
X158375000Y-78975000D01*
X158375000Y-79525000D01*
X159030685Y-79525000D01*
X159093806Y-79542268D01*
X159152102Y-79576744D01*
X159172245Y-79582596D01*
X159309926Y-79622597D01*
X159309929Y-79622597D01*
X159309931Y-79622598D01*
X159322222Y-79623565D01*
X159346804Y-79625500D01*
X159346806Y-79625500D01*
X160653195Y-79625500D01*
X160656182Y-79625264D01*
X160690069Y-79622598D01*
X160690073Y-79622596D01*
X160690769Y-79622542D01*
X160759147Y-79636905D01*
X160808904Y-79685956D01*
X160824500Y-79746160D01*
X160824500Y-80131613D01*
X160830913Y-80202192D01*
X160830913Y-80202194D01*
X160830914Y-80202196D01*
X160881522Y-80364606D01*
X160968674Y-80508773D01*
X160969530Y-80510188D01*
X161089811Y-80630469D01*
X161089813Y-80630470D01*
X161089815Y-80630472D01*
X161114650Y-80645485D01*
X161161837Y-80697010D01*
X161174500Y-80751601D01*
X161174500Y-80994845D01*
X161154815Y-81061884D01*
X161102011Y-81107639D01*
X161089505Y-81112551D01*
X160930666Y-81165186D01*
X160930663Y-81165187D01*
X160781342Y-81257289D01*
X160657289Y-81381342D01*
X160565187Y-81530663D01*
X160565185Y-81530668D01*
X160538480Y-81611258D01*
X160510001Y-81697203D01*
X160510001Y-81697204D01*
X160510000Y-81697204D01*
X160499500Y-81799983D01*
X160499500Y-83900001D01*
X160499501Y-83900018D01*
X160510000Y-84002796D01*
X160510001Y-84002799D01*
X160564092Y-84166033D01*
X160565186Y-84169334D01*
X160657288Y-84318656D01*
X160781344Y-84442712D01*
X160930666Y-84534814D01*
X161097203Y-84589999D01*
X161199991Y-84600500D01*
X162600008Y-84600499D01*
X162702797Y-84589999D01*
X162869334Y-84534814D01*
X163018656Y-84442712D01*
X163142712Y-84318656D01*
X163234814Y-84169334D01*
X163289999Y-84002797D01*
X163300500Y-83900009D01*
X163300499Y-81799992D01*
X163299904Y-81794172D01*
X163289999Y-81697203D01*
X163289998Y-81697200D01*
X163270508Y-81638383D01*
X163234814Y-81530666D01*
X163142712Y-81381344D01*
X163018656Y-81257288D01*
X162925888Y-81200069D01*
X162869336Y-81165187D01*
X162869331Y-81165185D01*
X162849649Y-81158663D01*
X162702797Y-81110001D01*
X162702795Y-81110000D01*
X162600016Y-81099500D01*
X162600009Y-81099500D01*
X162549500Y-81099500D01*
X162482461Y-81079815D01*
X162436706Y-81027011D01*
X162425500Y-80975500D01*
X162425500Y-80751601D01*
X162445185Y-80684562D01*
X162485348Y-80645485D01*
X162510185Y-80630472D01*
X162630472Y-80510185D01*
X162718478Y-80364606D01*
X162769086Y-80202196D01*
X162775500Y-80131616D01*
X162775500Y-79618384D01*
X162769086Y-79547804D01*
X162718478Y-79385394D01*
X162630472Y-79239815D01*
X162630470Y-79239813D01*
X162630469Y-79239811D01*
X162528339Y-79137681D01*
X162494854Y-79076358D01*
X162499838Y-79006666D01*
X162528339Y-78962319D01*
X162630468Y-78860189D01*
X162630469Y-78860188D01*
X162630472Y-78860185D01*
X162718478Y-78714606D01*
X162769086Y-78552196D01*
X162775500Y-78481616D01*
X162775500Y-77968384D01*
X162769086Y-77897804D01*
X162718478Y-77735394D01*
X162630472Y-77589815D01*
X162630470Y-77589813D01*
X162630469Y-77589811D01*
X162510188Y-77469530D01*
X162510185Y-77469528D01*
X162364606Y-77381522D01*
X162364604Y-77381521D01*
X162363108Y-77380617D01*
X162315920Y-77329089D01*
X162308076Y-77283466D01*
X162305777Y-77288503D01*
X162246999Y-77326277D01*
X162200842Y-77330790D01*
X162131616Y-77324500D01*
X161468384Y-77324500D01*
X161449145Y-77326248D01*
X161397807Y-77330913D01*
X161235393Y-77381522D01*
X161089811Y-77469530D01*
X160969530Y-77589811D01*
X160881520Y-77735397D01*
X160852659Y-77828017D01*
X160821956Y-77878808D01*
X160712581Y-77988182D01*
X160651261Y-78021666D01*
X160624902Y-78024500D01*
X159487000Y-78024500D01*
X159419961Y-78004815D01*
X159374206Y-77952011D01*
X159363000Y-77900500D01*
X159363000Y-77659304D01*
X159360098Y-77622432D01*
X159360097Y-77622426D01*
X159334289Y-77533595D01*
X159334488Y-77463726D01*
X159372430Y-77405056D01*
X159436068Y-77376212D01*
X159453365Y-77375000D01*
X159484337Y-77375000D01*
X159484344Y-77374999D01*
X159850865Y-77335138D01*
X160210931Y-77255882D01*
X160560328Y-77138155D01*
X160894919Y-76983357D01*
X160894932Y-76983350D01*
X161210824Y-76793286D01*
X161210841Y-76793274D01*
X161399314Y-76650000D01*
X161994353Y-76650000D01*
X162014834Y-76792456D01*
X162067551Y-76907887D01*
X162074623Y-76923373D01*
X162168872Y-77032143D01*
X162168874Y-77032144D01*
X162168876Y-77032146D01*
X162279103Y-77102985D01*
X162324858Y-77155789D01*
X162330809Y-77197178D01*
X162331351Y-77195901D01*
X162389070Y-77156527D01*
X162427258Y-77150500D01*
X162571962Y-77150500D01*
X162571962Y-77150499D01*
X162679121Y-77119035D01*
X162710050Y-77109954D01*
X162710050Y-77109953D01*
X162710053Y-77109953D01*
X162831128Y-77032143D01*
X162925377Y-76923373D01*
X162985165Y-76792457D01*
X163005647Y-76650000D01*
X162985165Y-76507543D01*
X162925377Y-76376627D01*
X162831128Y-76267857D01*
X162710053Y-76190047D01*
X162710051Y-76190046D01*
X162710049Y-76190045D01*
X162710050Y-76190045D01*
X162571963Y-76149500D01*
X162571961Y-76149500D01*
X162428039Y-76149500D01*
X162428036Y-76149500D01*
X162289949Y-76190045D01*
X162168873Y-76267856D01*
X162074623Y-76376626D01*
X162074622Y-76376628D01*
X162014834Y-76507543D01*
X161994353Y-76650000D01*
X161399314Y-76650000D01*
X161504340Y-76570161D01*
X161523479Y-76552031D01*
X160206879Y-75235431D01*
X160234180Y-75218168D01*
X160421501Y-75052216D01*
X160560511Y-74881958D01*
X161874501Y-76195948D01*
X161874502Y-76195948D01*
X162010690Y-76035615D01*
X162010701Y-76035601D01*
X162217593Y-75730458D01*
X162390284Y-75404728D01*
X162390293Y-75404710D01*
X162526754Y-75062216D01*
X162526756Y-75062209D01*
X162625383Y-74706986D01*
X162625389Y-74706960D01*
X162685032Y-74343159D01*
X162685033Y-74343142D01*
X162704994Y-73975000D01*
X162704994Y-73974997D01*
X162685033Y-73606857D01*
X162685032Y-73606840D01*
X162625389Y-73243039D01*
X162625383Y-73243013D01*
X162526756Y-72887790D01*
X162526754Y-72887783D01*
X162390293Y-72545289D01*
X162390284Y-72545271D01*
X162217593Y-72219541D01*
X162010692Y-71914385D01*
X161874502Y-71754050D01*
X161874501Y-71754049D01*
X160558647Y-73069903D01*
X160504544Y-72991520D01*
X160331184Y-72811034D01*
X160205133Y-72716313D01*
X161523478Y-71397967D01*
X161523478Y-71397966D01*
X161504356Y-71379852D01*
X161504344Y-71379841D01*
X161210841Y-71156725D01*
X161210824Y-71156713D01*
X160894932Y-70966649D01*
X160894919Y-70966642D01*
X160560328Y-70811844D01*
X160210931Y-70694117D01*
X159850865Y-70614861D01*
X159484344Y-70575000D01*
X159115655Y-70575000D01*
X158749134Y-70614861D01*
X158389068Y-70694117D01*
X158039671Y-70811844D01*
X157705080Y-70966642D01*
X157705067Y-70966649D01*
X157389175Y-71156713D01*
X157389158Y-71156725D01*
X157095657Y-71379840D01*
X157095643Y-71379852D01*
X157076520Y-71397966D01*
X157076520Y-71397968D01*
X158393120Y-72714568D01*
X158365820Y-72731832D01*
X158178499Y-72897784D01*
X158039488Y-73068041D01*
X156725497Y-71754049D01*
X156725496Y-71754050D01*
X156667597Y-71822214D01*
X156609193Y-71860565D01*
X156539327Y-71861253D01*
X156480180Y-71824059D01*
X156467550Y-71807035D01*
X156464812Y-71802596D01*
X156446372Y-71735203D01*
X156464813Y-71672401D01*
X156559355Y-71519126D01*
X156559358Y-71519119D01*
X156614505Y-71352697D01*
X156614506Y-71352690D01*
X156624999Y-71249986D01*
X156625000Y-71249973D01*
X156625000Y-70975000D01*
X155875000Y-70975000D01*
X155875000Y-74926000D01*
X155855315Y-74993039D01*
X155802511Y-75038794D01*
X155751000Y-75050000D01*
X155499000Y-75050000D01*
X155431961Y-75030315D01*
X155386206Y-74977511D01*
X155375000Y-74926000D01*
X155375000Y-70599000D01*
X155394685Y-70531961D01*
X155447489Y-70486206D01*
X155499000Y-70475000D01*
X156624999Y-70475000D01*
X156624999Y-70200028D01*
X156624998Y-70200013D01*
X156614505Y-70097302D01*
X156559358Y-69930880D01*
X156559356Y-69930875D01*
X156467315Y-69781654D01*
X156372842Y-69687181D01*
X156339357Y-69625858D01*
X156344341Y-69556166D01*
X156386213Y-69500233D01*
X156451677Y-69475816D01*
X156460523Y-69475500D01*
X159299500Y-69475500D01*
X159300000Y-69475500D01*
X159494602Y-69483996D01*
G37*
%TD.AperFunction*%
%TA.AperFunction,Conductor*%
G36*
X142110092Y-86766811D02*
G01*
X142151804Y-86822863D01*
X142159500Y-86865867D01*
X142159500Y-87138893D01*
X142139815Y-87205932D01*
X142087011Y-87251687D01*
X142017853Y-87261631D01*
X141962615Y-87239211D01*
X141862553Y-87166512D01*
X141819887Y-87111182D01*
X141811438Y-87066194D01*
X141811438Y-86976442D01*
X141831123Y-86909403D01*
X141847758Y-86888760D01*
X141903782Y-86832736D01*
X141903782Y-86832737D01*
X141912215Y-86822863D01*
X141927436Y-86805042D01*
X141927441Y-86805032D01*
X141931038Y-86799830D01*
X141932298Y-86800701D01*
X141976382Y-86756867D01*
X142044697Y-86742209D01*
X142110092Y-86766811D01*
G37*
%TD.AperFunction*%
%TA.AperFunction,Conductor*%
G36*
X154542271Y-81165032D02*
G01*
X154562911Y-81181666D01*
X155527351Y-82146106D01*
X155527352Y-82146106D01*
X156015254Y-81658202D01*
X155981431Y-81624380D01*
X155943126Y-81593513D01*
X155924379Y-81574765D01*
X155906280Y-81552305D01*
X155879542Y-81487754D01*
X155891949Y-81418994D01*
X155939560Y-81367858D01*
X156002832Y-81350500D01*
X156958481Y-81350500D01*
X157025520Y-81370185D01*
X157046162Y-81386819D01*
X158063181Y-82403838D01*
X158096666Y-82465161D01*
X158099500Y-82491519D01*
X158099500Y-84758481D01*
X158079815Y-84825520D01*
X158063181Y-84846162D01*
X158021162Y-84888181D01*
X157959839Y-84921666D01*
X157933481Y-84924500D01*
X157900649Y-84924500D01*
X157833610Y-84904815D01*
X157787855Y-84852011D01*
X157777911Y-84818146D01*
X157758585Y-84683725D01*
X157734346Y-84630650D01*
X157667276Y-84630650D01*
X157600237Y-84610965D01*
X157579595Y-84594331D01*
X157408255Y-84422990D01*
X157408254Y-84422990D01*
X157227587Y-84603656D01*
X157166264Y-84637141D01*
X157096572Y-84632157D01*
X157052226Y-84603656D01*
X157029596Y-84581026D01*
X156996112Y-84519705D01*
X157001096Y-84450013D01*
X157029597Y-84405665D01*
X157210263Y-84224999D01*
X156743573Y-83758309D01*
X157139554Y-83758309D01*
X157408253Y-84027009D01*
X157408254Y-84027009D01*
X157579595Y-83855669D01*
X157640918Y-83822184D01*
X157667276Y-83819350D01*
X157734345Y-83819350D01*
X157734346Y-83819349D01*
X157758585Y-83766274D01*
X157779045Y-83623960D01*
X157758585Y-83481646D01*
X157758584Y-83481641D01*
X157698858Y-83350862D01*
X157661278Y-83304227D01*
X157627457Y-83270406D01*
X157139554Y-83758309D01*
X156743573Y-83758309D01*
X156390020Y-83404756D01*
X156786001Y-83404756D01*
X156941563Y-83560319D01*
X157429467Y-83072416D01*
X157395650Y-83038599D01*
X157395635Y-83038585D01*
X157357342Y-83007727D01*
X157338596Y-82988982D01*
X157307725Y-82950673D01*
X157273904Y-82916852D01*
X157273903Y-82916852D01*
X156786001Y-83404755D01*
X156786001Y-83404756D01*
X156390020Y-83404756D01*
X156036466Y-83051202D01*
X156432447Y-83051202D01*
X156588011Y-83206766D01*
X156588012Y-83206766D01*
X157075914Y-82718862D01*
X157042091Y-82685040D01*
X157003786Y-82654173D01*
X156985039Y-82635425D01*
X156954178Y-82597129D01*
X156954167Y-82597116D01*
X156920350Y-82563299D01*
X156432447Y-83051202D01*
X156036466Y-83051202D01*
X155682913Y-82697649D01*
X156078894Y-82697649D01*
X156234456Y-82853212D01*
X156722360Y-82365309D01*
X156688543Y-82331492D01*
X156688528Y-82331478D01*
X156650235Y-82300620D01*
X156631489Y-82281875D01*
X156600618Y-82243566D01*
X156566797Y-82209745D01*
X156566796Y-82209745D01*
X156078894Y-82697648D01*
X156078894Y-82697649D01*
X155682913Y-82697649D01*
X155329360Y-82344096D01*
X155725341Y-82344096D01*
X155880904Y-82499659D01*
X155880905Y-82499659D01*
X156368807Y-82011755D01*
X156334980Y-81977929D01*
X156334972Y-81977922D01*
X156296677Y-81947061D01*
X156277932Y-81928317D01*
X156247065Y-81890013D01*
X156213244Y-81856192D01*
X156213243Y-81856192D01*
X155725341Y-82344095D01*
X155725341Y-82344096D01*
X155329360Y-82344096D01*
X154395148Y-81409884D01*
X154361663Y-81348561D01*
X154360091Y-81339849D01*
X154357768Y-81323694D01*
X154352492Y-81286992D01*
X154362436Y-81217834D01*
X154408192Y-81165031D01*
X154475231Y-81145347D01*
X154542271Y-81165032D01*
G37*
%TD.AperFunction*%
%TA.AperFunction,Conductor*%
G36*
X136306516Y-69495185D02*
G01*
X136352271Y-69547989D01*
X136362215Y-69617147D01*
X136333190Y-69680703D01*
X136327158Y-69687181D01*
X136232684Y-69781654D01*
X136140643Y-69930875D01*
X136140641Y-69930880D01*
X136085494Y-70097302D01*
X136085493Y-70097309D01*
X136075000Y-70200013D01*
X136075000Y-70475000D01*
X137201000Y-70475000D01*
X137268039Y-70494685D01*
X137313794Y-70547489D01*
X137325000Y-70599000D01*
X137325000Y-76024999D01*
X137374972Y-76024999D01*
X137374986Y-76024998D01*
X137477697Y-76014505D01*
X137644119Y-75959358D01*
X137644124Y-75959356D01*
X137793345Y-75867315D01*
X137917318Y-75743342D01*
X137919165Y-75740348D01*
X137920969Y-75738724D01*
X137921798Y-75737677D01*
X137921976Y-75737818D01*
X137971110Y-75693621D01*
X138040073Y-75682396D01*
X138104156Y-75710236D01*
X138130243Y-75740341D01*
X138132288Y-75743656D01*
X138256344Y-75867712D01*
X138405666Y-75959814D01*
X138572203Y-76014999D01*
X138674991Y-76025500D01*
X139275008Y-76025499D01*
X139275016Y-76025498D01*
X139275019Y-76025498D01*
X139331302Y-76019748D01*
X139377797Y-76014999D01*
X139536500Y-75962409D01*
X139606323Y-75960008D01*
X139666366Y-75995739D01*
X139697559Y-76058259D01*
X139699500Y-76080116D01*
X139699500Y-76425138D01*
X139679815Y-76492177D01*
X139627011Y-76537932D01*
X139557853Y-76547876D01*
X139507761Y-76525000D01*
X139177155Y-76525000D01*
X139117627Y-76531401D01*
X139117620Y-76531403D01*
X138982913Y-76581645D01*
X138982906Y-76581649D01*
X138867812Y-76667809D01*
X138867809Y-76667812D01*
X138781649Y-76782906D01*
X138781645Y-76782913D01*
X138731403Y-76917620D01*
X138731401Y-76917627D01*
X138725000Y-76977155D01*
X138725000Y-77025000D01*
X139499999Y-77025000D01*
X139518294Y-77006705D01*
X139579617Y-76973219D01*
X139649308Y-76978203D01*
X139705242Y-77020074D01*
X139722158Y-77051051D01*
X139756203Y-77142330D01*
X139775266Y-77167794D01*
X139799684Y-77233258D01*
X139800000Y-77242106D01*
X139800000Y-78550500D01*
X139780315Y-78617539D01*
X139727511Y-78663294D01*
X139676000Y-78674500D01*
X139624000Y-78674500D01*
X139556961Y-78654815D01*
X139511206Y-78602011D01*
X139500000Y-78550500D01*
X139500000Y-78325000D01*
X138725000Y-78325000D01*
X138725000Y-78372835D01*
X138729183Y-78411748D01*
X138729183Y-78438252D01*
X138725000Y-78477164D01*
X138725000Y-78525000D01*
X139290266Y-78525000D01*
X139357305Y-78544685D01*
X139403060Y-78597489D01*
X139413004Y-78666647D01*
X139383979Y-78730203D01*
X139347894Y-78758795D01*
X139318135Y-78774414D01*
X139288451Y-78789993D01*
X139284137Y-78793816D01*
X139220904Y-78823537D01*
X139201911Y-78825000D01*
X138725000Y-78825000D01*
X138725000Y-78872844D01*
X138731401Y-78932372D01*
X138731403Y-78932379D01*
X138781645Y-79067086D01*
X138781649Y-79067093D01*
X138867809Y-79182187D01*
X138867812Y-79182190D01*
X138945225Y-79240142D01*
X138987096Y-79296076D01*
X138992607Y-79342500D01*
X138994539Y-79342500D01*
X138994539Y-79350000D01*
X139014311Y-79512842D01*
X139014312Y-79512845D01*
X139072483Y-79666229D01*
X139079606Y-79676548D01*
X139101487Y-79742903D01*
X139084020Y-79810554D01*
X139065236Y-79834666D01*
X138990282Y-79909620D01*
X138990278Y-79909625D01*
X138907968Y-80048804D01*
X138907966Y-80048809D01*
X138862855Y-80204081D01*
X138862854Y-80204087D01*
X138861209Y-80224999D01*
X138861210Y-80225000D01*
X139685979Y-80225000D01*
X139753018Y-80244685D01*
X139798773Y-80297489D01*
X139806454Y-80319644D01*
X139807716Y-80324822D01*
X139808902Y-80331062D01*
X139816085Y-80383323D01*
X139816070Y-80383324D01*
X139819500Y-80408273D01*
X139819500Y-80601000D01*
X139799815Y-80668039D01*
X139747011Y-80713794D01*
X139695500Y-80725000D01*
X138820113Y-80725000D01*
X138753074Y-80705315D01*
X138707319Y-80652511D01*
X138704171Y-80644971D01*
X138659158Y-80526283D01*
X138652518Y-80508774D01*
X138559332Y-80373771D01*
X138559329Y-80373768D01*
X138559327Y-80373766D01*
X138436546Y-80264992D01*
X138436544Y-80264990D01*
X138291295Y-80188757D01*
X138291289Y-80188755D01*
X138290002Y-80188438D01*
X138289160Y-80187947D01*
X138284278Y-80186096D01*
X138284586Y-80185283D01*
X138229625Y-80153276D01*
X138203748Y-80112017D01*
X138202518Y-80108775D01*
X138202518Y-80108774D01*
X138109332Y-79973771D01*
X138109329Y-79973768D01*
X138109327Y-79973766D01*
X137986548Y-79864993D01*
X137885051Y-79811723D01*
X137841295Y-79788758D01*
X137841294Y-79788757D01*
X137841291Y-79788756D01*
X137682022Y-79749500D01*
X137682021Y-79749500D01*
X137517979Y-79749500D01*
X137517978Y-79749500D01*
X137358708Y-79788756D01*
X137213455Y-79864991D01*
X137213452Y-79864993D01*
X137164586Y-79908283D01*
X137101352Y-79938002D01*
X137032089Y-79928817D01*
X137006875Y-79913840D01*
X136941386Y-79863587D01*
X136941380Y-79863584D01*
X136804431Y-79806859D01*
X136804426Y-79806857D01*
X136657457Y-79787509D01*
X136657455Y-79787509D01*
X136529334Y-79804376D01*
X136460299Y-79793610D01*
X136425468Y-79769118D01*
X135758805Y-79102455D01*
X135725320Y-79041132D01*
X135730304Y-78971440D01*
X135758803Y-78927095D01*
X136081646Y-78604252D01*
X136089174Y-78595438D01*
X136147680Y-78557247D01*
X136173024Y-78553510D01*
X136172934Y-78552652D01*
X136179400Y-78551972D01*
X136179402Y-78551972D01*
X136364559Y-78512616D01*
X136537486Y-78435623D01*
X136690627Y-78324360D01*
X136817289Y-78183688D01*
X136911935Y-78019756D01*
X136970430Y-77839728D01*
X136971978Y-77825000D01*
X138725000Y-77825000D01*
X138725000Y-77872835D01*
X138729183Y-77911748D01*
X138729183Y-77938252D01*
X138725000Y-77977164D01*
X138725000Y-78025000D01*
X139500000Y-78025000D01*
X139500000Y-77825000D01*
X138725000Y-77825000D01*
X136971978Y-77825000D01*
X136990216Y-77651472D01*
X136970430Y-77463216D01*
X136925521Y-77325000D01*
X138725000Y-77325000D01*
X138725000Y-77372835D01*
X138729183Y-77411748D01*
X138729183Y-77438252D01*
X138725000Y-77477164D01*
X138725000Y-77525000D01*
X139500000Y-77525000D01*
X139500000Y-77325000D01*
X138725000Y-77325000D01*
X136925521Y-77325000D01*
X136911935Y-77283188D01*
X136817289Y-77119256D01*
X136690627Y-76978584D01*
X136690103Y-76978203D01*
X136537490Y-76867323D01*
X136537485Y-76867320D01*
X136364563Y-76790329D01*
X136364562Y-76790328D01*
X136335200Y-76784087D01*
X136273719Y-76750892D01*
X136252323Y-76722536D01*
X136202087Y-76631155D01*
X136178437Y-76603465D01*
X136178433Y-76603460D01*
X135923390Y-76348418D01*
X135889905Y-76287095D01*
X135894889Y-76217404D01*
X135923389Y-76173056D01*
X136051728Y-76044716D01*
X136113051Y-76011231D01*
X136182743Y-76016215D01*
X136227091Y-76044716D01*
X136885058Y-76702683D01*
X136958400Y-76569276D01*
X136998613Y-76412658D01*
X136998614Y-76412653D01*
X136998614Y-76250955D01*
X136998613Y-76250947D01*
X136958400Y-76094328D01*
X136942277Y-76064999D01*
X136935648Y-76061079D01*
X136881961Y-76045315D01*
X136836206Y-75992511D01*
X136825000Y-75941000D01*
X136825000Y-70975000D01*
X136075001Y-70975000D01*
X136075001Y-71249986D01*
X136085494Y-71352697D01*
X136140641Y-71519119D01*
X136140643Y-71519124D01*
X136235187Y-71672403D01*
X136253627Y-71739796D01*
X136235186Y-71802597D01*
X136190380Y-71875238D01*
X136138432Y-71921963D01*
X136069469Y-71933184D01*
X136005387Y-71905341D01*
X135990334Y-71890417D01*
X135874502Y-71754050D01*
X135874501Y-71754049D01*
X134558648Y-73069903D01*
X134504544Y-72991520D01*
X134331184Y-72811034D01*
X134205133Y-72716313D01*
X135523478Y-71397967D01*
X135523478Y-71397966D01*
X135504356Y-71379852D01*
X135504344Y-71379841D01*
X135210841Y-71156725D01*
X135210824Y-71156713D01*
X134894932Y-70966649D01*
X134894919Y-70966642D01*
X134560328Y-70811844D01*
X134210931Y-70694117D01*
X133850865Y-70614861D01*
X133484344Y-70575000D01*
X133115655Y-70575000D01*
X132749134Y-70614861D01*
X132389068Y-70694117D01*
X132039671Y-70811844D01*
X131705080Y-70966642D01*
X131705067Y-70966649D01*
X131389175Y-71156713D01*
X131389158Y-71156725D01*
X131095657Y-71379840D01*
X131095643Y-71379852D01*
X131076520Y-71397966D01*
X131076520Y-71397968D01*
X132393120Y-72714568D01*
X132365820Y-72731832D01*
X132178499Y-72897784D01*
X132039488Y-73068040D01*
X130725497Y-71754049D01*
X130725496Y-71754050D01*
X130589314Y-71914376D01*
X130589307Y-71914386D01*
X130382406Y-72219541D01*
X130209715Y-72545271D01*
X130209706Y-72545289D01*
X130073245Y-72887783D01*
X130073243Y-72887790D01*
X129974616Y-73243013D01*
X129974610Y-73243039D01*
X129914967Y-73606840D01*
X129914966Y-73606857D01*
X129895006Y-73974997D01*
X129895006Y-73975000D01*
X129914966Y-74343142D01*
X129914967Y-74343159D01*
X129974610Y-74706960D01*
X129974616Y-74706986D01*
X130073243Y-75062209D01*
X130073245Y-75062216D01*
X130209706Y-75404710D01*
X130209715Y-75404728D01*
X130309011Y-75592020D01*
X130323022Y-75660471D01*
X130297801Y-75725630D01*
X130241356Y-75766809D01*
X130171608Y-75770936D01*
X130132418Y-75754420D01*
X130129670Y-75752654D01*
X130110053Y-75740047D01*
X130110051Y-75740046D01*
X130110049Y-75740045D01*
X129971963Y-75699500D01*
X129971961Y-75699500D01*
X129828039Y-75699500D01*
X129828036Y-75699500D01*
X129689949Y-75740045D01*
X129568873Y-75817856D01*
X129474623Y-75926626D01*
X129474622Y-75926628D01*
X129414834Y-76057543D01*
X129394353Y-76200000D01*
X129414834Y-76342456D01*
X129463493Y-76449002D01*
X129474623Y-76473373D01*
X129568872Y-76582143D01*
X129689947Y-76659953D01*
X129689950Y-76659954D01*
X129689949Y-76659954D01*
X129828036Y-76700499D01*
X129828038Y-76700500D01*
X129828039Y-76700500D01*
X129971962Y-76700500D01*
X129971962Y-76700499D01*
X130110053Y-76659953D01*
X130231128Y-76582143D01*
X130325377Y-76473373D01*
X130385165Y-76342457D01*
X130405647Y-76200000D01*
X130400987Y-76167590D01*
X130410930Y-76098434D01*
X130456685Y-76045630D01*
X130523724Y-76025945D01*
X130590764Y-76045629D01*
X130618233Y-76069669D01*
X130725496Y-76195948D01*
X130725497Y-76195949D01*
X132041351Y-74880095D01*
X132095456Y-74958480D01*
X132268816Y-75138966D01*
X132394865Y-75233686D01*
X131076520Y-76552031D01*
X131076520Y-76552032D01*
X131095643Y-76570147D01*
X131095655Y-76570158D01*
X131389158Y-76793274D01*
X131389175Y-76793286D01*
X131705067Y-76983350D01*
X131705080Y-76983357D01*
X131733885Y-76996684D01*
X131786463Y-77042698D01*
X131805817Y-77109834D01*
X131785803Y-77176775D01*
X131759627Y-77205773D01*
X131750647Y-77213009D01*
X131436407Y-77527250D01*
X131375084Y-77560735D01*
X131305392Y-77555751D01*
X131261045Y-77527250D01*
X130935951Y-77202156D01*
X130908257Y-77178503D01*
X130908253Y-77178500D01*
X130766445Y-77100541D01*
X130609704Y-77060297D01*
X130609701Y-77060297D01*
X130447873Y-77060297D01*
X130447869Y-77060297D01*
X130291128Y-77100541D01*
X130149320Y-77178500D01*
X130149316Y-77178503D01*
X130121623Y-77202156D01*
X129832156Y-77491623D01*
X129808503Y-77519316D01*
X129808500Y-77519320D01*
X129730541Y-77661127D01*
X129724480Y-77684734D01*
X129688740Y-77744771D01*
X129635217Y-77773997D01*
X129612491Y-77779832D01*
X129479082Y-77853172D01*
X129479082Y-77853173D01*
X129695565Y-78069656D01*
X129727988Y-78126498D01*
X129730542Y-78136448D01*
X129808500Y-78278253D01*
X129808503Y-78278257D01*
X129832156Y-78305951D01*
X130087197Y-78560992D01*
X130120682Y-78622315D01*
X130115698Y-78692007D01*
X130087197Y-78736354D01*
X129497265Y-79326286D01*
X129498003Y-79345076D01*
X129509406Y-79362545D01*
X129509901Y-79432413D01*
X129478360Y-79486003D01*
X129137756Y-79826608D01*
X129137750Y-79826615D01*
X129100172Y-79873246D01*
X129100171Y-79873248D01*
X129037294Y-80010929D01*
X128991539Y-80063733D01*
X128924500Y-80083417D01*
X128857460Y-80063732D01*
X128811705Y-80010928D01*
X128800500Y-79959417D01*
X128800500Y-78816380D01*
X128820185Y-78749341D01*
X128872989Y-78703586D01*
X128942147Y-78693642D01*
X129005703Y-78722667D01*
X129043477Y-78781445D01*
X129044605Y-78785544D01*
X129052188Y-78815080D01*
X129052189Y-78815084D01*
X129130086Y-78956777D01*
X129130092Y-78956786D01*
X129143711Y-78972733D01*
X129517625Y-78598822D01*
X129125529Y-78206726D01*
X129125528Y-78206726D01*
X129052188Y-78340135D01*
X129044604Y-78369674D01*
X129008866Y-78429712D01*
X128946342Y-78460897D01*
X128876883Y-78453329D01*
X128822543Y-78409410D01*
X128800573Y-78343084D01*
X128800500Y-78338836D01*
X128800500Y-73975000D01*
X128800504Y-73974901D01*
X128809000Y-73780296D01*
X128818284Y-73579502D01*
X128818744Y-73574313D01*
X128845190Y-73373443D01*
X128872323Y-73178933D01*
X128873186Y-73174146D01*
X128917275Y-72975271D01*
X128962061Y-72784860D01*
X128963265Y-72780477D01*
X129024657Y-72585764D01*
X129038230Y-72545271D01*
X129086764Y-72400464D01*
X129088248Y-72396498D01*
X129166522Y-72207527D01*
X129245437Y-72028803D01*
X129247094Y-72025353D01*
X129341704Y-71843610D01*
X129436765Y-71672945D01*
X129438600Y-71669869D01*
X129548778Y-71496923D01*
X129659227Y-71335689D01*
X129661130Y-71333064D01*
X129786091Y-71170212D01*
X129911040Y-71019742D01*
X129912949Y-71017553D01*
X130051752Y-70866076D01*
X130191076Y-70726752D01*
X130342553Y-70587949D01*
X130344742Y-70586040D01*
X130495212Y-70461091D01*
X130658064Y-70336130D01*
X130660689Y-70334227D01*
X130821923Y-70223778D01*
X130994869Y-70113600D01*
X130997945Y-70111765D01*
X131168610Y-70016704D01*
X131350353Y-69922094D01*
X131353803Y-69920437D01*
X131532527Y-69841522D01*
X131721498Y-69763248D01*
X131725464Y-69761764D01*
X131910765Y-69699657D01*
X132105477Y-69638265D01*
X132109860Y-69637061D01*
X132300271Y-69592275D01*
X132499146Y-69548186D01*
X132503933Y-69547323D01*
X132698458Y-69520188D01*
X132899313Y-69493744D01*
X132904502Y-69493284D01*
X133105296Y-69484000D01*
X133300000Y-69475500D01*
X133300500Y-69475500D01*
X136239477Y-69475500D01*
X136306516Y-69495185D01*
G37*
%TD.AperFunction*%
%TA.AperFunction,Conductor*%
G36*
X148923814Y-79311542D02*
G01*
X148940014Y-79323670D01*
X148939051Y-79324956D01*
X148981297Y-79367203D01*
X148996149Y-79435475D01*
X148995562Y-79441567D01*
X148994539Y-79449996D01*
X148994539Y-79450000D01*
X149014311Y-79612842D01*
X149014312Y-79612848D01*
X149045186Y-79694254D01*
X149050553Y-79763917D01*
X149017405Y-79825423D01*
X148956267Y-79859245D01*
X148886549Y-79854643D01*
X148841563Y-79825906D01*
X148761819Y-79746162D01*
X148728334Y-79684839D01*
X148725500Y-79658481D01*
X148725500Y-79410807D01*
X148745185Y-79343768D01*
X148797989Y-79298013D01*
X148867147Y-79288069D01*
X148923814Y-79311542D01*
G37*
%TD.AperFunction*%
%TA.AperFunction,Conductor*%
G36*
X143523611Y-79175480D02*
G01*
X143535862Y-79189511D01*
X143567812Y-79232190D01*
X143645225Y-79290142D01*
X143687096Y-79346076D01*
X143692607Y-79392500D01*
X143694539Y-79392500D01*
X143694539Y-79400000D01*
X143714311Y-79562842D01*
X143714312Y-79562848D01*
X143758953Y-79680554D01*
X143764320Y-79750217D01*
X143731173Y-79811723D01*
X143670034Y-79845545D01*
X143600316Y-79840943D01*
X143555330Y-79812206D01*
X143205128Y-79462004D01*
X143171643Y-79400681D01*
X143176627Y-79330989D01*
X143218499Y-79275056D01*
X143221814Y-79272926D01*
X143257403Y-79246284D01*
X143342546Y-79182546D01*
X143342548Y-79182542D01*
X143348817Y-79176275D01*
X143351560Y-79179018D01*
X143392384Y-79147973D01*
X143462036Y-79142461D01*
X143523611Y-79175480D01*
G37*
%TD.AperFunction*%
%TA.AperFunction,Conductor*%
G36*
X149655203Y-77098994D02*
G01*
X149690182Y-77149375D01*
X149706201Y-77192327D01*
X149706203Y-77192329D01*
X149706204Y-77192331D01*
X149721679Y-77213003D01*
X149725266Y-77217794D01*
X149749684Y-77283258D01*
X149750000Y-77292106D01*
X149750000Y-78650500D01*
X149730315Y-78717539D01*
X149677511Y-78763294D01*
X149626000Y-78774500D01*
X149592976Y-78774500D01*
X149588939Y-78774990D01*
X149585993Y-78774500D01*
X149585478Y-78774500D01*
X149585478Y-78774414D01*
X149520017Y-78763525D01*
X149468233Y-78716619D01*
X149450000Y-78651893D01*
X149450000Y-77192707D01*
X149469685Y-77125668D01*
X149522489Y-77079913D01*
X149591647Y-77069969D01*
X149655203Y-77098994D01*
G37*
%TD.AperFunction*%
%TA.AperFunction,Conductor*%
G36*
X144405203Y-77098994D02*
G01*
X144440182Y-77149375D01*
X144456201Y-77192327D01*
X144456203Y-77192329D01*
X144456204Y-77192331D01*
X144471679Y-77213003D01*
X144475266Y-77217794D01*
X144499684Y-77283258D01*
X144500000Y-77292106D01*
X144500000Y-78600500D01*
X144480315Y-78667539D01*
X144427511Y-78713294D01*
X144376000Y-78724500D01*
X144324000Y-78724500D01*
X144256961Y-78704815D01*
X144211206Y-78652011D01*
X144200000Y-78600500D01*
X144200000Y-77192707D01*
X144219685Y-77125668D01*
X144272489Y-77079913D01*
X144341647Y-77069969D01*
X144405203Y-77098994D01*
G37*
%TD.AperFunction*%
%TD*%
M02*
