%TF.GenerationSoftware,KiCad,Pcbnew,7.0.8*%
%TF.CreationDate,2023-10-22T08:36:03-04:00*%
%TF.ProjectId,lemon-pepper,6c656d6f-6e2d-4706-9570-7065722e6b69,rev?*%
%TF.SameCoordinates,Original*%
%TF.FileFunction,Soldermask,Top*%
%TF.FilePolarity,Negative*%
%FSLAX46Y46*%
G04 Gerber Fmt 4.6, Leading zero omitted, Abs format (unit mm)*
G04 Created by KiCad (PCBNEW 7.0.8) date 2023-10-22 08:36:03*
%MOMM*%
%LPD*%
G01*
G04 APERTURE LIST*
G04 Aperture macros list*
%AMRoundRect*
0 Rectangle with rounded corners*
0 $1 Rounding radius*
0 $2 $3 $4 $5 $6 $7 $8 $9 X,Y pos of 4 corners*
0 Add a 4 corners polygon primitive as box body*
4,1,4,$2,$3,$4,$5,$6,$7,$8,$9,$2,$3,0*
0 Add four circle primitives for the rounded corners*
1,1,$1+$1,$2,$3*
1,1,$1+$1,$4,$5*
1,1,$1+$1,$6,$7*
1,1,$1+$1,$8,$9*
0 Add four rect primitives between the rounded corners*
20,1,$1+$1,$2,$3,$4,$5,0*
20,1,$1+$1,$4,$5,$6,$7,0*
20,1,$1+$1,$6,$7,$8,$9,0*
20,1,$1+$1,$8,$9,$2,$3,0*%
%AMRotRect*
0 Rectangle, with rotation*
0 The origin of the aperture is its center*
0 $1 length*
0 $2 width*
0 $3 Rotation angle, in degrees counterclockwise*
0 Add horizontal line*
21,1,$1,$2,0,0,$3*%
%AMFreePoly0*
4,1,17,-0.875000,2.062500,-0.867373,2.143836,-0.824300,2.266930,-0.746859,2.371859,-0.641930,2.449300,-0.518836,2.492373,-0.437500,2.500000,0.437500,2.500000,0.518836,2.492373,0.641930,2.449300,0.746859,2.371859,0.824300,2.266930,0.867373,2.143836,0.875000,2.062500,0.875000,-2.500000,-0.875000,-2.500000,-0.875000,2.062500,-0.875000,2.062500,$1*%
%AMFreePoly1*
4,1,19,0.500000,-0.750000,0.000000,-0.750000,0.000000,-0.744911,-0.071157,-0.744911,-0.207708,-0.704816,-0.327430,-0.627875,-0.420627,-0.520320,-0.479746,-0.390866,-0.500000,-0.250000,-0.500000,0.250000,-0.479746,0.390866,-0.420627,0.520320,-0.327430,0.627875,-0.207708,0.704816,-0.071157,0.744911,0.000000,0.744911,0.000000,0.750000,0.500000,0.750000,0.500000,-0.750000,0.500000,-0.750000,
$1*%
%AMFreePoly2*
4,1,19,0.000000,0.744911,0.071157,0.744911,0.207708,0.704816,0.327430,0.627875,0.420627,0.520320,0.479746,0.390866,0.500000,0.250000,0.500000,-0.250000,0.479746,-0.390866,0.420627,-0.520320,0.327430,-0.627875,0.207708,-0.704816,0.071157,-0.744911,0.000000,-0.744911,0.000000,-0.750000,-0.500000,-0.750000,-0.500000,0.750000,0.000000,0.750000,0.000000,0.744911,0.000000,0.744911,
$1*%
G04 Aperture macros list end*
%ADD10RoundRect,0.250000X-0.250000X-0.475000X0.250000X-0.475000X0.250000X0.475000X-0.250000X0.475000X0*%
%ADD11C,0.990600*%
%ADD12C,0.787400*%
%ADD13RoundRect,0.150000X-0.587500X-0.150000X0.587500X-0.150000X0.587500X0.150000X-0.587500X0.150000X0*%
%ADD14RoundRect,0.135000X-0.135000X-0.185000X0.135000X-0.185000X0.135000X0.185000X-0.135000X0.185000X0*%
%ADD15RoundRect,0.112500X-0.112500X0.187500X-0.112500X-0.187500X0.112500X-0.187500X0.112500X0.187500X0*%
%ADD16RoundRect,0.150000X-0.825000X-0.150000X0.825000X-0.150000X0.825000X0.150000X-0.825000X0.150000X0*%
%ADD17RoundRect,0.135000X0.185000X-0.135000X0.185000X0.135000X-0.185000X0.135000X-0.185000X-0.135000X0*%
%ADD18RoundRect,0.135000X-0.035355X0.226274X-0.226274X0.035355X0.035355X-0.226274X0.226274X-0.035355X0*%
%ADD19RoundRect,0.140000X0.021213X-0.219203X0.219203X-0.021213X-0.021213X0.219203X-0.219203X0.021213X0*%
%ADD20RoundRect,0.250000X-0.650000X1.000000X-0.650000X-1.000000X0.650000X-1.000000X0.650000X1.000000X0*%
%ADD21RoundRect,0.250000X0.475000X-0.250000X0.475000X0.250000X-0.475000X0.250000X-0.475000X-0.250000X0*%
%ADD22RoundRect,0.218750X-0.256250X0.218750X-0.256250X-0.218750X0.256250X-0.218750X0.256250X0.218750X0*%
%ADD23RoundRect,0.218750X-0.218750X-0.256250X0.218750X-0.256250X0.218750X0.256250X-0.218750X0.256250X0*%
%ADD24RoundRect,0.250000X-0.375000X-1.075000X0.375000X-1.075000X0.375000X1.075000X-0.375000X1.075000X0*%
%ADD25RoundRect,0.140000X-0.021213X0.219203X-0.219203X0.021213X0.021213X-0.219203X0.219203X-0.021213X0*%
%ADD26RoundRect,0.140000X0.140000X0.170000X-0.140000X0.170000X-0.140000X-0.170000X0.140000X-0.170000X0*%
%ADD27RoundRect,0.150000X-0.150000X0.512500X-0.150000X-0.512500X0.150000X-0.512500X0.150000X0.512500X0*%
%ADD28R,1.270000X0.800000*%
%ADD29R,0.300000X0.850000*%
%ADD30R,0.850000X0.300000*%
%ADD31RoundRect,0.140000X-0.170000X0.140000X-0.170000X-0.140000X0.170000X-0.140000X0.170000X0.140000X0*%
%ADD32C,1.000000*%
%ADD33RoundRect,0.135000X-0.185000X0.135000X-0.185000X-0.135000X0.185000X-0.135000X0.185000X0.135000X0*%
%ADD34RoundRect,0.135000X0.135000X0.185000X-0.135000X0.185000X-0.135000X-0.185000X0.135000X-0.185000X0*%
%ADD35RoundRect,0.250000X0.250000X0.475000X-0.250000X0.475000X-0.250000X-0.475000X0.250000X-0.475000X0*%
%ADD36C,0.700000*%
%ADD37RotRect,0.300000X0.850000X315.000000*%
%ADD38C,1.300000*%
%ADD39RoundRect,0.140000X-0.140000X-0.170000X0.140000X-0.170000X0.140000X0.170000X-0.140000X0.170000X0*%
%ADD40O,1.750000X1.750000*%
%ADD41FreePoly0,0.000000*%
%ADD42O,1.750000X2.000000*%
%ADD43RoundRect,0.112500X0.187500X0.112500X-0.187500X0.112500X-0.187500X-0.112500X0.187500X-0.112500X0*%
%ADD44RotRect,0.660000X0.280000X225.000000*%
%ADD45RotRect,0.280000X0.660000X225.000000*%
%ADD46RotRect,3.500000X3.500000X225.000000*%
%ADD47RoundRect,0.140000X0.170000X-0.140000X0.170000X0.140000X-0.170000X0.140000X-0.170000X-0.140000X0*%
%ADD48R,0.800000X0.250000*%
%ADD49RoundRect,0.062500X-0.309359X0.220971X0.220971X-0.309359X0.309359X-0.220971X-0.220971X0.309359X0*%
%ADD50RoundRect,0.062500X-0.309359X-0.220971X-0.220971X-0.309359X0.309359X0.220971X0.220971X0.309359X0*%
%ADD51RotRect,5.600000X5.600000X315.000000*%
%ADD52C,5.800000*%
%ADD53RoundRect,0.140000X0.219203X0.021213X0.021213X0.219203X-0.219203X-0.021213X-0.021213X-0.219203X0*%
%ADD54RotRect,1.400000X1.200000X225.000000*%
%ADD55RoundRect,0.250000X0.600000X0.725000X-0.600000X0.725000X-0.600000X-0.725000X0.600000X-0.725000X0*%
%ADD56O,1.700000X1.950000*%
%ADD57R,0.450000X1.050000*%
%ADD58RoundRect,0.112500X-0.187500X-0.112500X0.187500X-0.112500X0.187500X0.112500X-0.187500X0.112500X0*%
%ADD59FreePoly1,0.000000*%
%ADD60FreePoly2,0.000000*%
%ADD61RoundRect,0.135000X0.035355X-0.226274X0.226274X-0.035355X-0.035355X0.226274X-0.226274X0.035355X0*%
%ADD62RoundRect,0.200000X0.275000X-0.200000X0.275000X0.200000X-0.275000X0.200000X-0.275000X-0.200000X0*%
G04 APERTURE END LIST*
D10*
%TO.C,C103*%
X137075000Y-74800000D03*
X138975000Y-74800000D03*
%TD*%
D11*
%TO.C,J301*%
X136581667Y-102659655D03*
X141374471Y-100693012D03*
X141762195Y-102687678D03*
D12*
X137949497Y-103040661D03*
X137707170Y-101793994D03*
X139196164Y-102798333D03*
X138953836Y-101551667D03*
X140442830Y-102556006D03*
X140200503Y-101309339D03*
%TD*%
D13*
%TO.C,Q501*%
X158125000Y-77875000D03*
X158125000Y-79775000D03*
X160000000Y-78825000D03*
%TD*%
D14*
%TO.C,R601*%
X161655000Y-88925000D03*
X162675000Y-88925000D03*
%TD*%
D15*
%TO.C,D502*%
X156125000Y-76775000D03*
X156125000Y-78875000D03*
%TD*%
D16*
%TO.C,U302*%
X144375000Y-93115000D03*
X144375000Y-94385000D03*
X144375000Y-95655000D03*
X144375000Y-96925000D03*
X149325000Y-96925000D03*
X149325000Y-95655000D03*
X149325000Y-94385000D03*
X149325000Y-93115000D03*
%TD*%
D15*
%TO.C,D501*%
X154100000Y-76475000D03*
X154100000Y-78575000D03*
%TD*%
D17*
%TO.C,R101*%
X142125000Y-98360000D03*
X142125000Y-97340000D03*
%TD*%
D14*
%TO.C,R103*%
X151605000Y-93075000D03*
X152625000Y-93075000D03*
%TD*%
D18*
%TO.C,R302*%
X135310624Y-90939376D03*
X134589376Y-91660624D03*
%TD*%
D19*
%TO.C,C304*%
X141185938Y-86404360D03*
X141864760Y-85725538D03*
%TD*%
D20*
%TO.C,D101*%
X161900000Y-82850000D03*
X161900000Y-86850000D03*
%TD*%
D21*
%TO.C,C106*%
X154125000Y-92450000D03*
X154125000Y-90550000D03*
%TD*%
D22*
%TO.C,D601*%
X159325000Y-86587500D03*
X159325000Y-88162500D03*
%TD*%
D23*
%TO.C,D301*%
X130275000Y-91275000D03*
X131850000Y-91275000D03*
%TD*%
D24*
%TO.C,L501*%
X159425000Y-94525000D03*
X162225000Y-94525000D03*
%TD*%
D25*
%TO.C,C305*%
X130550000Y-77920000D03*
X129871178Y-78598822D03*
%TD*%
D26*
%TO.C,C701*%
X140600000Y-80475000D03*
X139640000Y-80475000D03*
%TD*%
D19*
%TO.C,C308*%
X134625000Y-78325000D03*
X135303822Y-77646178D03*
%TD*%
D25*
%TO.C,C307*%
X133114411Y-88735589D03*
X132435589Y-89414411D03*
%TD*%
D27*
%TO.C,U201*%
X141850000Y-92337500D03*
X140900000Y-92337500D03*
X139950000Y-92337500D03*
X139950000Y-94612500D03*
X140900000Y-94612500D03*
X141850000Y-94612500D03*
%TD*%
D28*
%TO.C,U703*%
X147050000Y-78475000D03*
X147050000Y-77475000D03*
D29*
X145550000Y-76525000D03*
X145050000Y-76525000D03*
D30*
X144350000Y-77225000D03*
X144350000Y-77725000D03*
X144350000Y-78225000D03*
X144350000Y-78725000D03*
D29*
X145050000Y-79425000D03*
X145550000Y-79425000D03*
%TD*%
D25*
%TO.C,C302*%
X134614411Y-90235589D03*
X133935589Y-90914411D03*
%TD*%
D31*
%TO.C,C602*%
X157300000Y-90245000D03*
X157300000Y-91205000D03*
%TD*%
D32*
%TO.C,FID102*%
X130250000Y-96775000D03*
%TD*%
D26*
%TO.C,C401*%
X148380000Y-82950000D03*
X147420000Y-82950000D03*
%TD*%
D23*
%TO.C,D302*%
X130275000Y-92925000D03*
X131850000Y-92925000D03*
%TD*%
D17*
%TO.C,R102*%
X138650000Y-92860000D03*
X138650000Y-91840000D03*
%TD*%
D33*
%TO.C,R105*%
X150225000Y-88515000D03*
X150225000Y-89535000D03*
%TD*%
D21*
%TO.C,C503*%
X162125000Y-92125000D03*
X162125000Y-90225000D03*
%TD*%
D34*
%TO.C,R501*%
X157700000Y-96335000D03*
X156680000Y-96335000D03*
%TD*%
%TO.C,R301*%
X131010000Y-89950000D03*
X129990000Y-89950000D03*
%TD*%
D26*
%TO.C,C201*%
X140180000Y-90875000D03*
X139220000Y-90875000D03*
%TD*%
D35*
%TO.C,C102*%
X138975000Y-72750000D03*
X137075000Y-72750000D03*
%TD*%
D10*
%TO.C,C101*%
X137075000Y-70725000D03*
X138975000Y-70725000D03*
%TD*%
D36*
%TO.C,J201*%
X134408634Y-93573979D03*
D37*
X135702639Y-93694187D03*
X136056192Y-94047740D03*
X136409746Y-94401294D03*
X136763299Y-94754847D03*
X137116853Y-95108400D03*
X137470406Y-95461954D03*
X137823959Y-95815507D03*
X138177513Y-96169060D03*
X138531066Y-96522614D03*
X138884619Y-96876167D03*
X139238173Y-97229721D03*
X139591726Y-97583274D03*
X138425000Y-98750000D03*
X138071447Y-98396447D03*
X137717893Y-98042893D03*
X137364340Y-97689340D03*
X137010787Y-97335787D03*
X136657233Y-96982233D03*
X136303680Y-96628680D03*
X135950126Y-96275126D03*
X135596573Y-95921573D03*
X135243020Y-95568020D03*
X134889466Y-95214466D03*
X134535913Y-94860913D03*
D38*
X136883507Y-93008293D03*
X133842948Y-96048852D03*
X140277620Y-96402406D03*
X137237061Y-99442965D03*
%TD*%
D26*
%TO.C,C703*%
X145300000Y-80513857D03*
X144340000Y-80513857D03*
%TD*%
D39*
%TO.C,C202*%
X141220000Y-90875000D03*
X142180000Y-90875000D03*
%TD*%
D25*
%TO.C,C301*%
X132439411Y-88060589D03*
X131760589Y-88739411D03*
%TD*%
D40*
%TO.C,M101*%
X142600000Y-72075000D03*
D41*
X142600000Y-72325000D03*
D42*
X142600000Y-74825000D03*
D40*
X145100000Y-72075000D03*
D41*
X145100000Y-72325000D03*
D42*
X145100000Y-74825000D03*
D40*
X147600000Y-72075000D03*
D41*
X147600000Y-72325000D03*
D42*
X147600000Y-74825000D03*
D40*
X150100000Y-72075000D03*
D41*
X150100000Y-72325000D03*
D42*
X150100000Y-74825000D03*
%TD*%
D33*
%TO.C,R502*%
X155665000Y-96275000D03*
X155665000Y-97295000D03*
%TD*%
D43*
%TO.C,D201*%
X132175000Y-94950000D03*
X130075000Y-94950000D03*
%TD*%
D44*
%TO.C,U601*%
X156941564Y-83758310D03*
X156588011Y-83404756D03*
X156234457Y-83051203D03*
X155880904Y-82697649D03*
X155527351Y-82344096D03*
X155173797Y-81990543D03*
X154820244Y-81636989D03*
X154466690Y-81283436D03*
D45*
X153533310Y-81283436D03*
X153179756Y-81636989D03*
X152826203Y-81990543D03*
X152472649Y-82344096D03*
X152119096Y-82697649D03*
X151765543Y-83051203D03*
X151411989Y-83404756D03*
X151058436Y-83758310D03*
D44*
X151058436Y-84691690D03*
X151411989Y-85045244D03*
X151765543Y-85398797D03*
X152119096Y-85752351D03*
X152472649Y-86105904D03*
X152826203Y-86459457D03*
X153179756Y-86813011D03*
X153533310Y-87166564D03*
D45*
X154466690Y-87166564D03*
X154820244Y-86813011D03*
X155173797Y-86459457D03*
X155527351Y-86105904D03*
X155880904Y-85752351D03*
X156234457Y-85398797D03*
X156588011Y-85045244D03*
X156941564Y-84691690D03*
D46*
X154000000Y-84225000D03*
%TD*%
D47*
%TO.C,C601*%
X158050000Y-88430000D03*
X158050000Y-87470000D03*
%TD*%
D48*
%TO.C,U501*%
X154635000Y-93885000D03*
X154635000Y-94385000D03*
X154635000Y-94885000D03*
X154635000Y-95385000D03*
X156395000Y-95385000D03*
X156395000Y-94885000D03*
X156395000Y-94385000D03*
X156395000Y-93885000D03*
%TD*%
D49*
%TO.C,U301*%
X135464213Y-80664726D03*
X135110660Y-81018279D03*
X134757106Y-81371833D03*
X134403553Y-81725386D03*
X134050000Y-82078939D03*
X133696446Y-82432493D03*
X133342893Y-82786046D03*
X132989339Y-83139600D03*
X132635786Y-83493153D03*
X132282233Y-83846706D03*
X131928679Y-84200260D03*
X131575126Y-84553813D03*
D50*
X131575126Y-85526085D03*
X131928679Y-85879638D03*
X132282233Y-86233192D03*
X132635786Y-86586745D03*
X132989339Y-86940298D03*
X133342893Y-87293852D03*
X133696446Y-87647405D03*
X134050000Y-88000959D03*
X134403553Y-88354512D03*
X134757106Y-88708065D03*
X135110660Y-89061619D03*
X135464213Y-89415172D03*
D49*
X136436485Y-89415172D03*
X136790038Y-89061619D03*
X137143592Y-88708065D03*
X137497145Y-88354512D03*
X137850698Y-88000959D03*
X138204252Y-87647405D03*
X138557805Y-87293852D03*
X138911359Y-86940298D03*
X139264912Y-86586745D03*
X139618465Y-86233192D03*
X139972019Y-85879638D03*
X140325572Y-85526085D03*
D50*
X140325572Y-84553813D03*
X139972019Y-84200260D03*
X139618465Y-83846706D03*
X139264912Y-83493153D03*
X138911359Y-83139600D03*
X138557805Y-82786046D03*
X138204252Y-82432493D03*
X137850698Y-82078939D03*
X137497145Y-81725386D03*
X137143592Y-81371833D03*
X136790038Y-81018279D03*
X136436485Y-80664726D03*
D51*
X135950349Y-85039949D03*
%TD*%
D33*
%TO.C,R503*%
X154590000Y-96275000D03*
X154590000Y-97295000D03*
%TD*%
D52*
%TO.C,H101*%
X133300000Y-99975000D03*
X159300000Y-99975000D03*
X133300000Y-73975000D03*
X159300000Y-73975000D03*
%TD*%
D10*
%TO.C,C104*%
X153725000Y-70725000D03*
X155625000Y-70725000D03*
%TD*%
D28*
%TO.C,U702*%
X152300000Y-78475000D03*
X152300000Y-77475000D03*
D29*
X150800000Y-76525000D03*
X150300000Y-76525000D03*
D30*
X149600000Y-77225000D03*
X149600000Y-77725000D03*
X149600000Y-78225000D03*
X149600000Y-78725000D03*
D29*
X150300000Y-79425000D03*
X150800000Y-79425000D03*
%TD*%
D26*
%TO.C,C702*%
X150580000Y-80500000D03*
X149620000Y-80500000D03*
%TD*%
D35*
%TO.C,C105*%
X155625000Y-74800000D03*
X153725000Y-74800000D03*
%TD*%
D14*
%TO.C,R505*%
X155640000Y-79975000D03*
X156660000Y-79975000D03*
%TD*%
D53*
%TO.C,C303*%
X137353822Y-79753822D03*
X136675000Y-79075000D03*
%TD*%
D54*
%TO.C,Y301*%
X132000000Y-78520000D03*
X130444365Y-80075635D03*
X131646446Y-81277716D03*
X133202081Y-79722081D03*
%TD*%
D32*
%TO.C,FID101*%
X129900000Y-76200000D03*
%TD*%
D43*
%TO.C,D602*%
X160500000Y-91900000D03*
X158400000Y-91900000D03*
%TD*%
D55*
%TO.C,J101*%
X153525000Y-101700000D03*
D56*
X151025000Y-101700000D03*
X148525000Y-101700000D03*
X146025000Y-101700000D03*
%TD*%
D57*
%TO.C,U401*%
X144025000Y-89750000D03*
X144675000Y-89750000D03*
X145325000Y-89750000D03*
X145975000Y-89750000D03*
X146625000Y-89750000D03*
X147275000Y-89750000D03*
X147925000Y-89750000D03*
X148575000Y-89750000D03*
X148575000Y-84200000D03*
X147925000Y-84200000D03*
X147275000Y-84200000D03*
X146625000Y-84200000D03*
X145975000Y-84200000D03*
X145325000Y-84200000D03*
X144675000Y-84200000D03*
X144025000Y-84200000D03*
%TD*%
D32*
%TO.C,FID103*%
X162500000Y-76650000D03*
%TD*%
D35*
%TO.C,C108*%
X153275000Y-94650000D03*
X151375000Y-94650000D03*
%TD*%
D31*
%TO.C,C502*%
X157800000Y-94380000D03*
X157800000Y-95340000D03*
%TD*%
D58*
%TO.C,D603*%
X158400000Y-89900000D03*
X160500000Y-89900000D03*
%TD*%
D35*
%TO.C,C501*%
X153275000Y-96725000D03*
X151375000Y-96725000D03*
%TD*%
D59*
%TO.C,JP101*%
X150750000Y-91275000D03*
D60*
X152050000Y-91275000D03*
%TD*%
D61*
%TO.C,R306*%
X135314376Y-79060624D03*
X136035624Y-78339376D03*
%TD*%
D17*
%TO.C,R104*%
X151250000Y-89535000D03*
X151250000Y-88515000D03*
%TD*%
D62*
%TO.C,R504*%
X161800000Y-79875000D03*
X161800000Y-78225000D03*
%TD*%
D53*
%TO.C,C306*%
X130839411Y-82664411D03*
X130160589Y-81985589D03*
%TD*%
D35*
%TO.C,C107*%
X155625000Y-72750000D03*
X153725000Y-72750000D03*
%TD*%
D28*
%TO.C,U701*%
X142350000Y-78425000D03*
X142350000Y-77425000D03*
D29*
X140850000Y-76475000D03*
X140350000Y-76475000D03*
D30*
X139650000Y-77175000D03*
X139650000Y-77675000D03*
X139650000Y-78175000D03*
X139650000Y-78675000D03*
D29*
X140350000Y-79375000D03*
X140850000Y-79375000D03*
%TD*%
M02*
